<?xml version="1.0" encoding="UTF-8" standalone="no"?>
<!DOCTYPE svg PUBLIC "-//W3C//DTD SVG 1.1//EN"
 "http://www.w3.org/Graphics/SVG/1.1/DTD/svg11.dtd">
<!-- Generated by graphviz version 2.43.0 (0)
 -->
<!-- Title: /home/projectcs&#45;2022/argodsmBuffer/argodsmPrefetching/src/allocators/allocators.hpp Pages: 1 -->
<svg width="2311pt" height="206pt"
 viewBox="0.00 0.00 2311.00 206.00" xmlns="http://www.w3.org/2000/svg" xmlns:xlink="http://www.w3.org/1999/xlink">
<g id="graph0" class="graph" transform="scale(1 1) rotate(0) translate(4 202)">
<title>/home/projectcs&#45;2022/argodsmBuffer/argodsmPrefetching/src/allocators/allocators.hpp</title>
<polygon fill="white" stroke="transparent" points="-4,4 -4,-202 2307,-202 2307,4 -4,4"/>
<!-- Node1 -->
<g id="node1" class="node">
<title>Node1</title>
<g id="a_node1"><a xlink:title="This file provides all C++ allocators for ArgoDSM.">
<polygon fill="#bfbfbf" stroke="black" points="949,-156.5 949,-197.5 1142,-197.5 1142,-156.5 949,-156.5"/>
<text text-anchor="start" x="957" y="-185.5" font-family="Helvetica,sans-Serif" font-size="10.00">/home/projectcs&#45;2022</text>
<text text-anchor="start" x="957" y="-174.5" font-family="Helvetica,sans-Serif" font-size="10.00">/argodsmBuffer/argodsmPrefetching</text>
<text text-anchor="middle" x="1045.5" y="-163.5" font-family="Helvetica,sans-Serif" font-size="10.00">/src/allocators/allocators.hpp</text>
</a>
</g>
</g>
<!-- Node2 -->
<g id="node2" class="node">
<title>Node2</title>
<g id="a_node2"><a xlink:href="src_2allocators_2allocators_8cpp.html" target="_top" xlink:title="This file provides the default allocators.">
<polygon fill="white" stroke="black" points="844,-78.5 844,-119.5 1037,-119.5 1037,-78.5 844,-78.5"/>
<text text-anchor="start" x="852" y="-107.5" font-family="Helvetica,sans-Serif" font-size="10.00">/home/projectcs&#45;2022</text>
<text text-anchor="start" x="852" y="-96.5" font-family="Helvetica,sans-Serif" font-size="10.00">/argodsmBuffer/argodsmPrefetching</text>
<text text-anchor="middle" x="940.5" y="-85.5" font-family="Helvetica,sans-Serif" font-size="10.00">/src/allocators/allocators.cpp</text>
</a>
</g>
</g>
<!-- Node1&#45;&gt;Node2 -->
<g id="edge1" class="edge">
<title>Node1&#45;&gt;Node2</title>
<path fill="none" stroke="midnightblue" d="M1010.06,-150.35C996.14,-140.27 980.42,-128.89 967.45,-119.51"/>
<polygon fill="midnightblue" stroke="midnightblue" points="1008.31,-153.4 1018.46,-156.43 1012.41,-147.73 1008.31,-153.4"/>
</g>
<!-- Node3 -->
<g id="node3" class="node">
<title>Node3</title>
<g id="a_node3"><a xlink:href="argo_8hpp.html" target="_top" xlink:title="This file provides the full C++ interface to ArgoDSM.">
<polygon fill="white" stroke="black" points="1055,-78.5 1055,-119.5 1248,-119.5 1248,-78.5 1055,-78.5"/>
<text text-anchor="start" x="1063" y="-107.5" font-family="Helvetica,sans-Serif" font-size="10.00">/home/projectcs&#45;2022</text>
<text text-anchor="start" x="1063" y="-96.5" font-family="Helvetica,sans-Serif" font-size="10.00">/argodsmBuffer/argodsmPrefetching</text>
<text text-anchor="middle" x="1151.5" y="-85.5" font-family="Helvetica,sans-Serif" font-size="10.00">/src/argo.hpp</text>
</a>
</g>
</g>
<!-- Node1&#45;&gt;Node3 -->
<g id="edge2" class="edge">
<title>Node1&#45;&gt;Node3</title>
<path fill="none" stroke="midnightblue" d="M1081.27,-150.35C1095.33,-140.27 1111.2,-128.89 1124.29,-119.51"/>
<polygon fill="midnightblue" stroke="midnightblue" points="1078.89,-147.76 1072.8,-156.43 1082.96,-153.45 1078.89,-147.76"/>
</g>
<!-- Node4 -->
<g id="node4" class="node">
<title>Node4</title>
<g id="a_node4"><a xlink:href="argo_8cpp.html" target="_top" xlink:title="This file implements some of the basic ArgoDSM calls.">
<polygon fill="white" stroke="black" points="0,-0.5 0,-41.5 193,-41.5 193,-0.5 0,-0.5"/>
<text text-anchor="start" x="8" y="-29.5" font-family="Helvetica,sans-Serif" font-size="10.00">/home/projectcs&#45;2022</text>
<text text-anchor="start" x="8" y="-18.5" font-family="Helvetica,sans-Serif" font-size="10.00">/argodsmBuffer/argodsmPrefetching</text>
<text text-anchor="middle" x="96.5" y="-7.5" font-family="Helvetica,sans-Serif" font-size="10.00">/src/argo.cpp</text>
</a>
</g>
</g>
<!-- Node3&#45;&gt;Node4 -->
<g id="edge3" class="edge">
<title>Node3&#45;&gt;Node4</title>
<path fill="none" stroke="midnightblue" d="M1044.89,-77.9C671.36,-35.6 571.61,-84.9 201.5,-42 198.73,-41.68 195.93,-41.33 193.11,-40.95"/>
<polygon fill="midnightblue" stroke="midnightblue" points="1044.56,-81.39 1054.89,-79.05 1045.35,-74.43 1044.56,-81.39"/>
</g>
<!-- Node5 -->
<g id="node5" class="node">
<title>Node5</title>
<g id="a_node5"><a xlink:href="tests_2allocators_8cpp.html" target="_top" xlink:title="This file provides unit tests for the ArgoDSM allocators and memory pools.">
<polygon fill="white" stroke="black" points="211,-0.5 211,-41.5 404,-41.5 404,-0.5 211,-0.5"/>
<text text-anchor="start" x="219" y="-29.5" font-family="Helvetica,sans-Serif" font-size="10.00">/home/projectcs&#45;2022</text>
<text text-anchor="start" x="219" y="-18.5" font-family="Helvetica,sans-Serif" font-size="10.00">/argodsmBuffer/argodsmPrefetching</text>
<text text-anchor="middle" x="307.5" y="-7.5" font-family="Helvetica,sans-Serif" font-size="10.00">/tests/allocators.cpp</text>
</a>
</g>
</g>
<!-- Node3&#45;&gt;Node5 -->
<g id="edge4" class="edge">
<title>Node3&#45;&gt;Node5</title>
<path fill="none" stroke="midnightblue" d="M1044.83,-77.88C764.63,-44.28 689.34,-76.07 412.5,-42 409.74,-41.66 406.94,-41.29 404.12,-40.9"/>
<polygon fill="midnightblue" stroke="midnightblue" points="1044.54,-81.37 1054.88,-79.1 1045.38,-74.42 1044.54,-81.37"/>
</g>
<!-- Node6 -->
<g id="node6" class="node">
<title>Node6</title>
<g id="a_node6"><a xlink:href="api_8cpp.html" target="_top" xlink:title="This file provides unit tests for the ArgoDSM API functions.">
<polygon fill="white" stroke="black" points="422,-0.5 422,-41.5 615,-41.5 615,-0.5 422,-0.5"/>
<text text-anchor="start" x="430" y="-29.5" font-family="Helvetica,sans-Serif" font-size="10.00">/home/projectcs&#45;2022</text>
<text text-anchor="start" x="430" y="-18.5" font-family="Helvetica,sans-Serif" font-size="10.00">/argodsmBuffer/argodsmPrefetching</text>
<text text-anchor="middle" x="518.5" y="-7.5" font-family="Helvetica,sans-Serif" font-size="10.00">/tests/api.cpp</text>
</a>
</g>
</g>
<!-- Node3&#45;&gt;Node6 -->
<g id="edge5" class="edge">
<title>Node3&#45;&gt;Node6</title>
<path fill="none" stroke="midnightblue" d="M1044.71,-77.83C857.81,-52.84 807.14,-67.23 623.5,-42 620.74,-41.62 617.95,-41.22 615.13,-40.79"/>
<polygon fill="midnightblue" stroke="midnightblue" points="1044.49,-81.33 1054.87,-79.21 1045.43,-74.39 1044.49,-81.33"/>
</g>
<!-- Node7 -->
<g id="node7" class="node">
<title>Node7</title>
<g id="a_node7"><a xlink:href="backend_8cpp.html" target="_top" xlink:title="This file provides tests for the backends.">
<polygon fill="white" stroke="black" points="633,-0.5 633,-41.5 826,-41.5 826,-0.5 633,-0.5"/>
<text text-anchor="start" x="641" y="-29.5" font-family="Helvetica,sans-Serif" font-size="10.00">/home/projectcs&#45;2022</text>
<text text-anchor="start" x="641" y="-18.5" font-family="Helvetica,sans-Serif" font-size="10.00">/argodsmBuffer/argodsmPrefetching</text>
<text text-anchor="middle" x="729.5" y="-7.5" font-family="Helvetica,sans-Serif" font-size="10.00">/tests/backend.cpp</text>
</a>
</g>
</g>
<!-- Node3&#45;&gt;Node7 -->
<g id="edge6" class="edge">
<title>Node3&#45;&gt;Node7</title>
<path fill="none" stroke="midnightblue" d="M1044.88,-77.72C950.78,-60.9 925.43,-58.38 834.5,-42 831.76,-41.51 828.98,-41 826.18,-40.49"/>
<polygon fill="midnightblue" stroke="midnightblue" points="1044.36,-81.19 1054.82,-79.51 1045.6,-74.3 1044.36,-81.19"/>
</g>
<!-- Node8 -->
<g id="node8" class="node">
<title>Node8</title>
<g id="a_node8"><a xlink:href="barrier_8cpp.html" target="_top" xlink:title="This file provides tests for the barrier synchronization.">
<polygon fill="white" stroke="black" points="844,-0.5 844,-41.5 1037,-41.5 1037,-0.5 844,-0.5"/>
<text text-anchor="start" x="852" y="-29.5" font-family="Helvetica,sans-Serif" font-size="10.00">/home/projectcs&#45;2022</text>
<text text-anchor="start" x="852" y="-18.5" font-family="Helvetica,sans-Serif" font-size="10.00">/argodsmBuffer/argodsmPrefetching</text>
<text text-anchor="middle" x="940.5" y="-7.5" font-family="Helvetica,sans-Serif" font-size="10.00">/tests/barrier.cpp</text>
</a>
</g>
</g>
<!-- Node3&#45;&gt;Node8 -->
<g id="edge7" class="edge">
<title>Node3&#45;&gt;Node8</title>
<path fill="none" stroke="midnightblue" d="M1087.72,-75.03C1058.01,-64.33 1023.05,-51.73 994.65,-41.51"/>
<polygon fill="midnightblue" stroke="midnightblue" points="1086.57,-78.33 1097.16,-78.43 1088.94,-71.75 1086.57,-78.33"/>
</g>
<!-- Node9 -->
<g id="node9" class="node">
<title>Node9</title>
<g id="a_node9"><a xlink:href="lock_8cpp.html" target="_top" xlink:title="This file provides unit tests for the ArgoDSM locks.">
<polygon fill="white" stroke="black" points="1055,-0.5 1055,-41.5 1248,-41.5 1248,-0.5 1055,-0.5"/>
<text text-anchor="start" x="1063" y="-29.5" font-family="Helvetica,sans-Serif" font-size="10.00">/home/projectcs&#45;2022</text>
<text text-anchor="start" x="1063" y="-18.5" font-family="Helvetica,sans-Serif" font-size="10.00">/argodsmBuffer/argodsmPrefetching</text>
<text text-anchor="middle" x="1151.5" y="-7.5" font-family="Helvetica,sans-Serif" font-size="10.00">/tests/lock.cpp</text>
</a>
</g>
</g>
<!-- Node3&#45;&gt;Node9 -->
<g id="edge8" class="edge">
<title>Node3&#45;&gt;Node9</title>
<path fill="none" stroke="midnightblue" d="M1151.5,-68.3C1151.5,-59.3 1151.5,-49.65 1151.5,-41.51"/>
<polygon fill="midnightblue" stroke="midnightblue" points="1148,-68.43 1151.5,-78.43 1155,-68.43 1148,-68.43"/>
</g>
<!-- Node10 -->
<g id="node10" class="node">
<title>Node10</title>
<g id="a_node10"><a xlink:href="omp_8cpp.html" target="_top" xlink:title="This file provides tests using OpenMP in ArgoDSM.">
<polygon fill="white" stroke="black" points="1266,-0.5 1266,-41.5 1459,-41.5 1459,-0.5 1266,-0.5"/>
<text text-anchor="start" x="1274" y="-29.5" font-family="Helvetica,sans-Serif" font-size="10.00">/home/projectcs&#45;2022</text>
<text text-anchor="start" x="1274" y="-18.5" font-family="Helvetica,sans-Serif" font-size="10.00">/argodsmBuffer/argodsmPrefetching</text>
<text text-anchor="middle" x="1362.5" y="-7.5" font-family="Helvetica,sans-Serif" font-size="10.00">/tests/omp.cpp</text>
</a>
</g>
</g>
<!-- Node3&#45;&gt;Node10 -->
<g id="edge9" class="edge">
<title>Node3&#45;&gt;Node10</title>
<path fill="none" stroke="midnightblue" d="M1215.28,-75.03C1244.99,-64.33 1279.95,-51.73 1308.35,-41.51"/>
<polygon fill="midnightblue" stroke="midnightblue" points="1214.06,-71.75 1205.84,-78.43 1216.43,-78.33 1214.06,-71.75"/>
</g>
<!-- Node11 -->
<g id="node11" class="node">
<title>Node11</title>
<g id="a_node11"><a xlink:href="prefetch_8cpp.html" target="_top" xlink:title="This file provides unit tests for the ArgoDSM prefetch mechanism.">
<polygon fill="white" stroke="black" points="1477,-0.5 1477,-41.5 1670,-41.5 1670,-0.5 1477,-0.5"/>
<text text-anchor="start" x="1485" y="-29.5" font-family="Helvetica,sans-Serif" font-size="10.00">/home/projectcs&#45;2022</text>
<text text-anchor="start" x="1485" y="-18.5" font-family="Helvetica,sans-Serif" font-size="10.00">/argodsmBuffer/argodsmPrefetching</text>
<text text-anchor="middle" x="1573.5" y="-7.5" font-family="Helvetica,sans-Serif" font-size="10.00">/tests/prefetch.cpp</text>
</a>
</g>
</g>
<!-- Node3&#45;&gt;Node11 -->
<g id="edge10" class="edge">
<title>Node3&#45;&gt;Node11</title>
<path fill="none" stroke="midnightblue" d="M1258.43,-79.48C1319.92,-68.73 1398.6,-54.83 1468.5,-42 1471.24,-41.5 1474.02,-40.99 1476.82,-40.47"/>
<polygon fill="midnightblue" stroke="midnightblue" points="1257.58,-76.07 1248.33,-81.24 1258.78,-82.97 1257.58,-76.07"/>
</g>
<!-- Node12 -->
<g id="node12" class="node">
<title>Node12</title>
<g id="a_node12"><a xlink:href="stlallocation_8cpp.html" target="_top" xlink:title="This file provides tests using C++ interfaces in ArgoDSM.">
<polygon fill="white" stroke="black" points="1688,-0.5 1688,-41.5 1881,-41.5 1881,-0.5 1688,-0.5"/>
<text text-anchor="start" x="1696" y="-29.5" font-family="Helvetica,sans-Serif" font-size="10.00">/home/projectcs&#45;2022</text>
<text text-anchor="start" x="1696" y="-18.5" font-family="Helvetica,sans-Serif" font-size="10.00">/argodsmBuffer/argodsmPrefetching</text>
<text text-anchor="middle" x="1784.5" y="-7.5" font-family="Helvetica,sans-Serif" font-size="10.00">/tests/stlallocation.cpp</text>
</a>
</g>
</g>
<!-- Node3&#45;&gt;Node12 -->
<g id="edge11" class="edge">
<title>Node3&#45;&gt;Node12</title>
<path fill="none" stroke="midnightblue" d="M1258.3,-89.28C1365.18,-79.94 1534.18,-63.51 1679.5,-42 1682.25,-41.59 1685.04,-41.16 1687.86,-40.72"/>
<polygon fill="midnightblue" stroke="midnightblue" points="1257.81,-85.81 1248.15,-90.16 1258.42,-92.78 1257.81,-85.81"/>
</g>
<!-- Node13 -->
<g id="node13" class="node">
<title>Node13</title>
<g id="a_node13"><a xlink:href="trivial_8cpp.html" target="_top" xlink:title="This file provides unit tests for trivial sanity checks when using ArgoDSM.">
<polygon fill="white" stroke="black" points="1899,-0.5 1899,-41.5 2092,-41.5 2092,-0.5 1899,-0.5"/>
<text text-anchor="start" x="1907" y="-29.5" font-family="Helvetica,sans-Serif" font-size="10.00">/home/projectcs&#45;2022</text>
<text text-anchor="start" x="1907" y="-18.5" font-family="Helvetica,sans-Serif" font-size="10.00">/argodsmBuffer/argodsmPrefetching</text>
<text text-anchor="middle" x="1995.5" y="-7.5" font-family="Helvetica,sans-Serif" font-size="10.00">/tests/trivial.cpp</text>
</a>
</g>
</g>
<!-- Node3&#45;&gt;Node13 -->
<g id="edge12" class="edge">
<title>Node3&#45;&gt;Node13</title>
<path fill="none" stroke="midnightblue" d="M1258.27,-93.69C1402.3,-87.01 1666.61,-71.71 1890.5,-42 1893.26,-41.63 1896.06,-41.24 1898.88,-40.83"/>
<polygon fill="midnightblue" stroke="midnightblue" points="1257.94,-90.2 1248.11,-94.15 1258.26,-97.19 1257.94,-90.2"/>
</g>
<!-- Node14 -->
<g id="node14" class="node">
<title>Node14</title>
<g id="a_node14"><a xlink:href="uninitialized_8cpp.html" target="_top" xlink:title="This file provides unit tests for accessing ArgoDSM memory in various ways.">
<polygon fill="white" stroke="black" points="2110,-0.5 2110,-41.5 2303,-41.5 2303,-0.5 2110,-0.5"/>
<text text-anchor="start" x="2118" y="-29.5" font-family="Helvetica,sans-Serif" font-size="10.00">/home/projectcs&#45;2022</text>
<text text-anchor="start" x="2118" y="-18.5" font-family="Helvetica,sans-Serif" font-size="10.00">/argodsmBuffer/argodsmPrefetching</text>
<text text-anchor="middle" x="2206.5" y="-7.5" font-family="Helvetica,sans-Serif" font-size="10.00">/tests/uninitialized.cpp</text>
</a>
</g>
</g>
<!-- Node3&#45;&gt;Node14 -->
<g id="edge13" class="edge">
<title>Node3&#45;&gt;Node14</title>
<path fill="none" stroke="midnightblue" d="M1258.35,-96.2C1434.61,-92.23 1797.12,-79.8 2101.5,-42 2104.26,-41.66 2107.06,-41.29 2109.88,-40.89"/>
<polygon fill="midnightblue" stroke="midnightblue" points="1258.21,-92.7 1248.29,-96.42 1258.37,-99.7 1258.21,-92.7"/>
</g>
</g>
</svg>
