<?xml version="1.0" encoding="UTF-8" standalone="no"?>
<!DOCTYPE svg PUBLIC "-//W3C//DTD SVG 1.1//EN"
 "http://www.w3.org/Graphics/SVG/1.1/DTD/svg11.dtd">
<!-- Generated by graphviz version 2.43.0 (0)
 -->
<!-- Title: /home/projectcs&#45;2022/argodsmBuffer/argodsmPrefetching/src/allocators/allocators.hpp Pages: 1 -->
<!--zoomable 710 -->
<svg id="main" version="1.1" xmlns="http://www.w3.org/2000/svg" xmlns:xlink="http://www.w3.org/1999/xlink" xml:space="preserve" onload="init(evt)">
<style type="text/css"><![CDATA[
.edge:hover path { stroke: red; }
.edge:hover polygon { stroke: red; fill: red; }
]]></style>
<script type="text/javascript"><![CDATA[
var edges = document.getElementsByTagName('g');
if (edges && edges.length) {
  for (var i=0;i<edges.length;i++) {
    if (edges[i].id.substr(0,4)=='edge') {
      edges[i].setAttribute('class','edge');
    }
  }
}
]]></script>
        <defs>
                <circle id="rim" cx="0" cy="0" r="7"/>
                <circle id="rim2" cx="0" cy="0" r="3.5"/>
                <g id="zoomPlus">
                        <use xlink:href="#rim" fill="#404040">
                                <set attributeName="fill" to="#808080" begin="zoomplus.mouseover" end="zoomplus.mouseout"/>
                        </use>
                        <path d="M-4,0h8M0,-4v8" fill="none" stroke="white" stroke-width="1.5" pointer-events="none"/>
                </g>
                <g id="zoomMin">
                        <use xlink:href="#rim" fill="#404040">
                                <set attributeName="fill" to="#808080" begin="zoomminus.mouseover" end="zoomminus.mouseout"/>
                        </use>
                        <path d="M-4,0h8" fill="none" stroke="white" stroke-width="1.5" pointer-events="none"/>
                </g>
                <g id="dirArrow">
                        <path fill="none" stroke="white" stroke-width="1.5" d="M0,-3.0v7 M-2.5,-0.5L0,-3.0L2.5,-0.5"/>
                </g>
               <g id="resetDef">
                       <use xlink:href="#rim2" fill="#404040">
                               <set attributeName="fill" to="#808080" begin="reset.mouseover" end="reset.mouseout"/>
                       </use>
               </g>
        </defs>

<script type="text/javascript">
var viewWidth = 1215;
var viewHeight = 710;
var sectionId = 'dynsection-0';
</script>
<script xlink:href="svgpan.js"/>
<svg id="graph" class="graph">
<g id="viewport">
<title>/home/projectcs&#45;2022/argodsmBuffer/argodsmPrefetching/src/allocators/allocators.hpp</title>
<polygon fill="white" stroke="transparent" points="-4,4 -4,-706 1210.53,-706 1210.53,4 -4,4"/>
<!-- Node1 -->
<g id="node1" class="node">
<title>Node1</title>
<g id="a_node1"><a xlink:title="This file provides all C++ allocators for ArgoDSM.">
<polygon fill="#bfbfbf" stroke="black" points="491.03,-660.5 491.03,-701.5 684.03,-701.5 684.03,-660.5 491.03,-660.5"/>
<text text-anchor="start" x="499.03" y="-689.5" font-family="Helvetica,sans-Serif" font-size="10.00">/home/projectcs&#45;2022</text>
<text text-anchor="start" x="499.03" y="-678.5" font-family="Helvetica,sans-Serif" font-size="10.00">/argodsmBuffer/argodsmPrefetching</text>
<text text-anchor="middle" x="587.53" y="-667.5" font-family="Helvetica,sans-Serif" font-size="10.00">/src/allocators/allocators.hpp</text>
</a>
</g>
</g>
<!-- Node2 -->
<g id="node2" class="node">
<title>Node2</title>
<g id="a_node2"><a xlink:href="collective__allocator_8hpp.html" target="_top" xlink:title="This file provides the collective allocator for ArgoDSM.">
<polygon fill="white" stroke="black" points="588.53,-604.5 588.53,-623.5 720.53,-623.5 720.53,-604.5 588.53,-604.5"/>
<text text-anchor="middle" x="654.53" y="-611.5" font-family="Helvetica,sans-Serif" font-size="10.00">collective_allocator.hpp</text>
</a>
</g>
</g>
<!-- Node1&#45;&gt;Node2 -->
<g id="edge1" class="edge">
<title>Node1&#45;&gt;Node2</title>
<path fill="none" stroke="midnightblue" d="M607.63,-660.5C617.41,-651.01 629.01,-639.76 638.23,-630.81"/>
<polygon fill="midnightblue" stroke="midnightblue" points="640.87,-633.13 645.61,-623.65 635.99,-628.1 640.87,-633.13"/>
</g>
<!-- Node34 -->
<g id="node34" class="node">
<title>Node34</title>
<g id="a_node34"><a xlink:href="dynamic__allocator_8hpp.html" target="_top" xlink:title="This file provides the dynamic allocator for ArgoDSM.">
<polygon fill="white" stroke="black" points="416.03,-543 416.03,-562 543.03,-562 543.03,-543 416.03,-543"/>
<text text-anchor="middle" x="479.53" y="-550" font-family="Helvetica,sans-Serif" font-size="10.00">dynamic_allocator.hpp</text>
</a>
</g>
</g>
<!-- Node1&#45;&gt;Node34 -->
<g id="edge68" class="edge">
<title>Node1&#45;&gt;Node34</title>
<path fill="none" stroke="midnightblue" d="M570.65,-660.23C549.41,-635.36 513.32,-593.08 493.53,-569.9"/>
<polygon fill="midnightblue" stroke="midnightblue" points="496.19,-567.63 487.04,-562.29 490.87,-572.17 496.19,-567.63"/>
</g>
<!-- Node3 -->
<g id="node3" class="node">
<title>Node3</title>
<g id="a_node3"><a xlink:title=" ">
<polygon fill="white" stroke="#bfbfbf" points="339.53,-409 339.53,-428 377.53,-428 377.53,-409 339.53,-409"/>
<text text-anchor="middle" x="358.53" y="-416" font-family="Helvetica,sans-Serif" font-size="10.00">map</text>
</a>
</g>
</g>
<!-- Node2&#45;&gt;Node3 -->
<g id="edge2" class="edge">
<title>Node2&#45;&gt;Node3</title>
<path fill="none" stroke="midnightblue" d="M667.52,-604.22C700.88,-580.69 784.12,-514.9 743.53,-470 690.2,-411.01 463.9,-456.14 387.53,-434 385.85,-433.52 384.16,-432.94 382.48,-432.29"/>
<polygon fill="midnightblue" stroke="midnightblue" points="383.71,-429.01 373.16,-428.1 380.84,-435.39 383.71,-429.01"/>
</g>
<!-- Node4 -->
<g id="node4" class="node">
<title>Node4</title>
<g id="a_node4"><a xlink:title=" ">
<polygon fill="white" stroke="#bfbfbf" points="1148.53,-409 1148.53,-428 1206.53,-428 1206.53,-409 1148.53,-409"/>
<text text-anchor="middle" x="1177.53" y="-416" font-family="Helvetica,sans-Serif" font-size="10.00">memory</text>
</a>
</g>
</g>
<!-- Node2&#45;&gt;Node4 -->
<g id="edge3" class="edge">
<title>Node2&#45;&gt;Node4</title>
<path fill="none" stroke="midnightblue" d="M720.69,-608.43C804.84,-601.89 944.97,-588.35 992.53,-568 1066.21,-536.47 1134.78,-467.06 1163.42,-435.58"/>
<polygon fill="midnightblue" stroke="midnightblue" points="1166.06,-437.89 1170.12,-428.11 1160.84,-433.22 1166.06,-437.89"/>
</g>
<!-- Node5 -->
<g id="node5" class="node">
<title>Node5</title>
<g id="a_node5"><a xlink:title=" ">
<polygon fill="white" stroke="#bfbfbf" points="159.03,-409 159.03,-428 202.03,-428 202.03,-409 159.03,-409"/>
<text text-anchor="middle" x="180.53" y="-416" font-family="Helvetica,sans-Serif" font-size="10.00">stack</text>
</a>
</g>
</g>
<!-- Node2&#45;&gt;Node5 -->
<g id="edge4" class="edge">
<title>Node2&#45;&gt;Node5</title>
<path fill="none" stroke="midnightblue" d="M588.52,-611.52C443.04,-606.71 102.28,-586.38 33.53,-501 -1.13,-457.96 95.93,-434 148.8,-424.44"/>
<polygon fill="midnightblue" stroke="midnightblue" points="149.47,-427.88 158.73,-422.72 148.28,-420.98 149.47,-427.88"/>
</g>
<!-- Node6 -->
<g id="node6" class="node">
<title>Node6</title>
<g id="a_node6"><a xlink:title=" ">
<polygon fill="white" stroke="#bfbfbf" points="591.03,-476 591.03,-495 636.03,-495 636.03,-476 591.03,-476"/>
<text text-anchor="middle" x="613.53" y="-483" font-family="Helvetica,sans-Serif" font-size="10.00">utility</text>
</a>
</g>
</g>
<!-- Node2&#45;&gt;Node6 -->
<g id="edge5" class="edge">
<title>Node2&#45;&gt;Node6</title>
<path fill="none" stroke="midnightblue" d="M651.71,-604.31C645.1,-583.9 628.47,-532.6 619.49,-504.91"/>
<polygon fill="midnightblue" stroke="midnightblue" points="622.78,-503.69 616.36,-495.26 616.12,-505.85 622.78,-503.69"/>
</g>
<!-- Node7 -->
<g id="node7" class="node">
<title>Node7</title>
<g id="a_node7"><a xlink:href="backend_8hpp.html" target="_top" xlink:title="This file provides the backend interface.">
<polygon fill="white" stroke="black" points="580.53,-347.5 580.53,-366.5 702.53,-366.5 702.53,-347.5 580.53,-347.5"/>
<text text-anchor="middle" x="641.53" y="-354.5" font-family="Helvetica,sans-Serif" font-size="10.00">backend/backend.hpp</text>
</a>
</g>
</g>
<!-- Node2&#45;&gt;Node7 -->
<g id="edge6" class="edge">
<title>Node2&#45;&gt;Node7</title>
<path fill="none" stroke="midnightblue" d="M682.04,-604.39C700.58,-597.3 724.33,-585.54 739.53,-568 768.89,-534.11 787.41,-507.95 763.53,-470 743.83,-438.71 716.02,-458.72 688.53,-434 670.37,-417.68 656.78,-392.71 649,-375.89"/>
<polygon fill="midnightblue" stroke="midnightblue" points="652.15,-374.36 644.92,-366.62 645.74,-377.18 652.15,-374.36"/>
</g>
<!-- Node26 -->
<g id="node26" class="node">
<title>Node26</title>
<g id="a_node26"><a xlink:href="dynamic__mempool_8hpp.html" target="_top" xlink:title="This file provides a dynamically growing memory pool for ArgoDSM.">
<polygon fill="white" stroke="black" points="386.53,-476 386.53,-495 572.53,-495 572.53,-476 386.53,-476"/>
<text text-anchor="middle" x="479.53" y="-483" font-family="Helvetica,sans-Serif" font-size="10.00">mempools/dynamic_mempool.hpp</text>
</a>
</g>
</g>
<!-- Node2&#45;&gt;Node26 -->
<g id="edge35" class="edge">
<title>Node2&#45;&gt;Node26</title>
<path fill="none" stroke="midnightblue" d="M643.16,-604.48C624.25,-590.32 585.08,-561.14 551.53,-537 534.39,-524.67 514.75,-510.92 500.32,-500.89"/>
<polygon fill="midnightblue" stroke="midnightblue" points="502.29,-497.99 492.08,-495.17 498.3,-503.74 502.29,-497.99"/>
</g>
<!-- Node28 -->
<g id="node28" class="node">
<title>Node28</title>
<g id="a_node28"><a xlink:href="global__mempool_8hpp.html" target="_top" xlink:title="This file provides a dynamically growing memory pool for ArgoDSM.">
<polygon fill="white" stroke="black" points="829.53,-476 829.53,-495 1003.53,-495 1003.53,-476 829.53,-476"/>
<text text-anchor="middle" x="916.53" y="-483" font-family="Helvetica,sans-Serif" font-size="10.00">mempools/global_mempool.hpp</text>
</a>
</g>
</g>
<!-- Node2&#45;&gt;Node28 -->
<g id="edge40" class="edge">
<title>Node2&#45;&gt;Node28</title>
<path fill="none" stroke="midnightblue" d="M704.72,-604.45C737.51,-597.56 780.57,-586.01 815.53,-568 833.44,-558.77 875.65,-522.64 899.44,-501.71"/>
<polygon fill="midnightblue" stroke="midnightblue" points="901.84,-504.26 907.02,-495.01 897.21,-499.01 901.84,-504.26"/>
</g>
<!-- Node2&#45;&gt;Node34 -->
<g id="edge52" class="edge">
<title>Node2&#45;&gt;Node34</title>
<path fill="none" stroke="midnightblue" d="M629.45,-604.48C599.17,-594.18 548.09,-576.81 514.09,-565.25"/>
<polygon fill="midnightblue" stroke="midnightblue" points="515.15,-561.91 504.55,-562.01 512.89,-568.54 515.15,-561.91"/>
</g>
<!-- Node35 -->
<g id="node35" class="node">
<title>Node35</title>
<g id="a_node35"><a xlink:href="generic__allocator_8hpp.html" target="_top" xlink:title="This file provides a generic allocator template for ArgoDSM.">
<polygon fill="white" stroke="black" points="209.03,-476 209.03,-495 330.03,-495 330.03,-476 209.03,-476"/>
<text text-anchor="middle" x="269.53" y="-483" font-family="Helvetica,sans-Serif" font-size="10.00">generic_allocator.hpp</text>
</a>
</g>
</g>
<!-- Node2&#45;&gt;Node35 -->
<g id="edge65" class="edge">
<title>Node2&#45;&gt;Node35</title>
<path fill="none" stroke="midnightblue" d="M588.34,-607.47C537.37,-601.68 465.85,-590.2 406.53,-568 361.55,-551.17 314.59,-519.7 289.01,-501.18"/>
<polygon fill="midnightblue" stroke="midnightblue" points="291.02,-498.32 280.89,-495.21 286.88,-503.96 291.02,-498.32"/>
</g>
<!-- Node36 -->
<g id="node36" class="node">
<title>Node36</title>
<g id="a_node36"><a xlink:href="null__lock_8hpp.html" target="_top" xlink:title="dummy lock, not intended for public use">
<polygon fill="white" stroke="black" points="654.03,-476 654.03,-495 735.03,-495 735.03,-476 654.03,-476"/>
<text text-anchor="middle" x="694.53" y="-483" font-family="Helvetica,sans-Serif" font-size="10.00">null_lock.hpp</text>
</a>
</g>
</g>
<!-- Node2&#45;&gt;Node36 -->
<g id="edge66" class="edge">
<title>Node2&#45;&gt;Node36</title>
<path fill="none" stroke="midnightblue" d="M657.28,-604.31C663.73,-583.9 679.95,-532.6 688.71,-504.91"/>
<polygon fill="midnightblue" stroke="midnightblue" points="692.08,-505.85 691.76,-495.26 685.41,-503.74 692.08,-505.85"/>
</g>
<!-- Node38 -->
<g id="node38" class="node">
<title>Node38</title>
<g id="a_node38"><a xlink:href="collective__allocator_8h.html" target="_top" xlink:title="This file provides the collective allocator for ArgoDSM.">
<polygon fill="white" stroke="black" points="868.03,-537.5 868.03,-567.5 983.03,-567.5 983.03,-537.5 868.03,-537.5"/>
<text text-anchor="start" x="876.03" y="-555.5" font-family="Helvetica,sans-Serif" font-size="10.00">allocators/collective</text>
<text text-anchor="middle" x="925.53" y="-544.5" font-family="Helvetica,sans-Serif" font-size="10.00">_allocator.h</text>
</a>
</g>
</g>
<!-- Node2&#45;&gt;Node38 -->
<g id="edge67" class="edge">
<title>Node2&#45;&gt;Node38</title>
<path fill="none" stroke="midnightblue" d="M693.35,-604.48C736.25,-595.06 806.12,-579.72 858.03,-568.32"/>
<polygon fill="midnightblue" stroke="midnightblue" points="858.81,-571.73 867.83,-566.17 857.31,-564.89 858.81,-571.73"/>
</g>
<!-- Node8 -->
<g id="node8" class="node">
<title>Node8</title>
<g id="a_node8"><a xlink:title=" ">
<polygon fill="white" stroke="#bfbfbf" points="692.53,-286 692.53,-305 744.53,-305 744.53,-286 692.53,-286"/>
<text text-anchor="middle" x="718.53" y="-293" font-family="Helvetica,sans-Serif" font-size="10.00">cassert</text>
</a>
</g>
</g>
<!-- Node7&#45;&gt;Node8 -->
<g id="edge7" class="edge">
<title>Node7&#45;&gt;Node8</title>
<path fill="none" stroke="midnightblue" d="M652.56,-347.48C664.79,-338.02 684.75,-322.6 699.52,-311.19"/>
<polygon fill="midnightblue" stroke="midnightblue" points="701.74,-313.89 707.51,-305.01 697.46,-308.35 701.74,-313.89"/>
</g>
<!-- Node9 -->
<g id="node9" class="node">
<title>Node9</title>
<g id="a_node9"><a xlink:title=" ">
<polygon fill="white" stroke="#bfbfbf" points="540.53,-286 540.53,-305 590.53,-305 590.53,-286 540.53,-286"/>
<text text-anchor="middle" x="565.53" y="-293" font-family="Helvetica,sans-Serif" font-size="10.00">cstdint</text>
</a>
</g>
</g>
<!-- Node7&#45;&gt;Node9 -->
<g id="edge8" class="edge">
<title>Node7&#45;&gt;Node9</title>
<path fill="none" stroke="midnightblue" d="M630.64,-347.48C618.56,-338.02 598.86,-322.6 584.29,-311.19"/>
<polygon fill="midnightblue" stroke="midnightblue" points="586.43,-308.42 576.4,-305.01 582.11,-313.93 586.43,-308.42"/>
</g>
<!-- Node10 -->
<g id="node10" class="node">
<title>Node10</title>
<g id="a_node10"><a xlink:title=" ">
<polygon fill="white" stroke="#bfbfbf" points="609.03,-286 609.03,-305 674.03,-305 674.03,-286 609.03,-286"/>
<text text-anchor="middle" x="641.53" y="-293" font-family="Helvetica,sans-Serif" font-size="10.00">stdexcept</text>
</a>
</g>
</g>
<!-- Node7&#45;&gt;Node10 -->
<g id="edge9" class="edge">
<title>Node7&#45;&gt;Node10</title>
<path fill="none" stroke="midnightblue" d="M641.53,-347.48C641.53,-339.08 641.53,-325.98 641.53,-315.16"/>
<polygon fill="midnightblue" stroke="midnightblue" points="645.03,-315.01 641.53,-305.01 638.03,-315.01 645.03,-315.01"/>
</g>
<!-- Node11 -->
<g id="node11" class="node">
<title>Node11</title>
<g id="a_node11"><a xlink:href="global__ptr_8hpp.html" target="_top" xlink:title="This file provides the global pointer for ArgoDSM.">
<polygon fill="white" stroke="black" points="792.53,-280.5 792.53,-310.5 924.53,-310.5 924.53,-280.5 792.53,-280.5"/>
<text text-anchor="start" x="800.53" y="-298.5" font-family="Helvetica,sans-Serif" font-size="10.00">data_distribution/global</text>
<text text-anchor="middle" x="858.53" y="-287.5" font-family="Helvetica,sans-Serif" font-size="10.00">_ptr.hpp</text>
</a>
</g>
</g>
<!-- Node7&#45;&gt;Node11 -->
<g id="edge10" class="edge">
<title>Node7&#45;&gt;Node11</title>
<path fill="none" stroke="midnightblue" d="M672.62,-347.48C705.1,-338.57 756.89,-324.37 797.57,-313.22"/>
<polygon fill="midnightblue" stroke="midnightblue" points="798.67,-316.54 807.38,-310.52 796.81,-309.79 798.67,-316.54"/>
</g>
<!-- Node19 -->
<g id="node19" class="node">
<title>Node19</title>
<g id="a_node19"><a xlink:href="types_8hpp.html" target="_top" xlink:title="This file defines common types used in ArgoDSM.">
<polygon fill="white" stroke="black" points="43.03,-56.5 43.03,-75.5 138.03,-75.5 138.03,-56.5 43.03,-56.5"/>
<text text-anchor="middle" x="90.53" y="-63.5" font-family="Helvetica,sans-Serif" font-size="10.00">types/types.hpp</text>
</a>
</g>
</g>
<!-- Node7&#45;&gt;Node19 -->
<g id="edge34" class="edge">
<title>Node7&#45;&gt;Node19</title>
<path fill="none" stroke="midnightblue" d="M580.45,-355.37C436.99,-352.25 90.53,-334.41 90.53,-235 90.53,-235 90.53,-235 90.53,-177 90.53,-144.95 90.53,-107.64 90.53,-85.75"/>
<polygon fill="midnightblue" stroke="midnightblue" points="94.03,-85.56 90.53,-75.56 87.03,-85.56 94.03,-85.56"/>
</g>
<!-- Node12 -->
<g id="node12" class="node">
<title>Node12</title>
<g id="a_node12"><a xlink:title=" ">
<polygon fill="white" stroke="#bfbfbf" points="242.53,-56.5 242.53,-75.5 286.53,-75.5 286.53,-56.5 242.53,-56.5"/>
<text text-anchor="middle" x="264.53" y="-63.5" font-family="Helvetica,sans-Serif" font-size="10.00">string</text>
</a>
</g>
</g>
<!-- Node11&#45;&gt;Node12 -->
<g id="edge11" class="edge">
<title>Node11&#45;&gt;Node12</title>
<path fill="none" stroke="midnightblue" d="M792.49,-285.28C623.97,-261.59 190.5,-199.67 180.53,-188 149.71,-151.96 207.61,-104.65 241.87,-81.3"/>
<polygon fill="midnightblue" stroke="midnightblue" points="244.01,-84.08 250.41,-75.64 240.14,-78.25 244.01,-84.08"/>
</g>
<!-- Node13 -->
<g id="node13" class="node">
<title>Node13</title>
<g id="a_node13"><a xlink:href="data__distribution_8hpp.html" target="_top" xlink:title="This file provides an abstraction layer for distributing the shared memory space.">
<polygon fill="white" stroke="black" points="622.53,-224.5 622.53,-243.5 742.53,-243.5 742.53,-224.5 622.53,-224.5"/>
<text text-anchor="middle" x="682.53" y="-231.5" font-family="Helvetica,sans-Serif" font-size="10.00">data_distribution.hpp</text>
</a>
</g>
</g>
<!-- Node11&#45;&gt;Node13 -->
<g id="edge12" class="edge">
<title>Node11&#45;&gt;Node13</title>
<path fill="none" stroke="midnightblue" d="M816.82,-280.4C786.54,-270.16 746.04,-256.47 717.45,-246.81"/>
<polygon fill="midnightblue" stroke="midnightblue" points="718.47,-243.46 707.88,-243.57 716.23,-250.09 718.47,-243.46"/>
</g>
<!-- Node17 -->
<g id="node17" class="node">
<title>Node17</title>
<g id="a_node17"><a xlink:href="env_8hpp.html" target="_top" xlink:title="This file provides facilities for handling environment variables.">
<polygon fill="white" stroke="black" points="996.53,-56.5 996.53,-75.5 1072.53,-75.5 1072.53,-56.5 996.53,-56.5"/>
<text text-anchor="middle" x="1034.53" y="-63.5" font-family="Helvetica,sans-Serif" font-size="10.00">env/env.hpp</text>
</a>
</g>
</g>
<!-- Node11&#45;&gt;Node17 -->
<g id="edge33" class="edge">
<title>Node11&#45;&gt;Node17</title>
<path fill="none" stroke="midnightblue" d="M904.83,-280.42C947.99,-264.85 1010.76,-235.47 1045.53,-188 1065.73,-160.41 1065.53,-145.25 1057.53,-112 1055.22,-102.42 1050.51,-92.58 1045.95,-84.56"/>
<polygon fill="midnightblue" stroke="midnightblue" points="1048.82,-82.54 1040.63,-75.81 1042.83,-86.17 1048.82,-82.54"/>
</g>
<!-- Node14 -->
<g id="node14" class="node">
<title>Node14</title>
<g id="a_node14"><a xlink:href="base__distribution_8hpp.html" target="_top" xlink:title="This file implements the base distribution class for all the policies to derive from.">
<polygon fill="white" stroke="black" points="468.53,-112.5 468.53,-131.5 590.53,-131.5 590.53,-112.5 468.53,-112.5"/>
<text text-anchor="middle" x="529.53" y="-119.5" font-family="Helvetica,sans-Serif" font-size="10.00">base_distribution.hpp</text>
</a>
</g>
</g>
<!-- Node13&#45;&gt;Node14 -->
<g id="edge13" class="edge">
<title>Node13&#45;&gt;Node14</title>
<path fill="none" stroke="midnightblue" d="M622.41,-232.76C544.61,-231.02 415.45,-222.8 385.53,-188 359.34,-157.55 410.21,-140.67 458.56,-131.8"/>
<polygon fill="midnightblue" stroke="midnightblue" points="459.24,-135.23 468.49,-130.07 458.04,-128.33 459.24,-135.23"/>
</g>
<!-- Node13&#45;&gt;Node17 -->
<g id="edge32" class="edge">
<title>Node13&#45;&gt;Node17</title>
<path fill="none" stroke="midnightblue" d="M742.89,-233.85C830.89,-233.69 988.03,-227.66 1025.53,-188 1051.48,-160.54 1045.48,-112.16 1039.57,-85.65"/>
<polygon fill="midnightblue" stroke="midnightblue" points="1042.92,-84.63 1037.13,-75.76 1036.12,-86.3 1042.92,-84.63"/>
</g>
<!-- Node20 -->
<g id="node20" class="node">
<title>Node20</title>
<g id="a_node20"><a xlink:href="cyclic__distribution_8hpp.html" target="_top" xlink:title="This file implements the cyclic data distribution.">
<polygon fill="white" stroke="black" points="394.53,-168.5 394.53,-187.5 520.53,-187.5 520.53,-168.5 394.53,-168.5"/>
<text text-anchor="middle" x="457.53" y="-175.5" font-family="Helvetica,sans-Serif" font-size="10.00">cyclic_distribution.hpp</text>
</a>
</g>
</g>
<!-- Node13&#45;&gt;Node20 -->
<g id="edge20" class="edge">
<title>Node13&#45;&gt;Node20</title>
<path fill="none" stroke="midnightblue" d="M646.87,-224.44C607.87,-215.08 545.26,-200.06 502.81,-189.87"/>
<polygon fill="midnightblue" stroke="midnightblue" points="503.55,-186.45 493.01,-187.52 501.92,-193.25 503.55,-186.45"/>
</g>
<!-- Node21 -->
<g id="node21" class="node">
<title>Node21</title>
<g id="a_node21"><a xlink:href="first__touch__distribution_8hpp.html" target="_top" xlink:title="This file implements the first&#45;touch data distribution.">
<polygon fill="white" stroke="black" points="190.03,-168.5 190.03,-187.5 339.03,-187.5 339.03,-168.5 190.03,-168.5"/>
<text text-anchor="middle" x="264.53" y="-175.5" font-family="Helvetica,sans-Serif" font-size="10.00">first_touch_distribution.hpp</text>
</a>
</g>
</g>
<!-- Node13&#45;&gt;Node21 -->
<g id="edge22" class="edge">
<title>Node13&#45;&gt;Node21</title>
<path fill="none" stroke="midnightblue" d="M622.19,-225.21C547.82,-215.6 421.39,-199.26 340.48,-188.81"/>
<polygon fill="midnightblue" stroke="midnightblue" points="340.73,-185.31 330.36,-187.5 339.83,-192.26 340.73,-185.31"/>
</g>
<!-- Node23 -->
<g id="node23" class="node">
<title>Node23</title>
<g id="a_node23"><a xlink:href="naive__distribution_8hpp.html" target="_top" xlink:title="This file implements the naive data distribution.">
<polygon fill="white" stroke="black" points="539.03,-168.5 539.03,-187.5 664.03,-187.5 664.03,-168.5 539.03,-168.5"/>
<text text-anchor="middle" x="601.53" y="-175.5" font-family="Helvetica,sans-Serif" font-size="10.00">naive_distribution.hpp</text>
</a>
</g>
</g>
<!-- Node13&#45;&gt;Node23 -->
<g id="edge26" class="edge">
<title>Node13&#45;&gt;Node23</title>
<path fill="none" stroke="midnightblue" d="M669.51,-224.32C656.99,-215.98 637.84,-203.21 623.06,-193.35"/>
<polygon fill="midnightblue" stroke="midnightblue" points="624.77,-190.29 614.51,-187.65 620.89,-196.11 624.77,-190.29"/>
</g>
<!-- Node24 -->
<g id="node24" class="node">
<title>Node24</title>
<g id="a_node24"><a xlink:href="prime__mapp__distribution_8hpp.html" target="_top" xlink:title="This file implements the prime&#45;mapp data distribution.">
<polygon fill="white" stroke="black" points="682.53,-168.5 682.53,-187.5 842.53,-187.5 842.53,-168.5 682.53,-168.5"/>
<text text-anchor="middle" x="762.53" y="-175.5" font-family="Helvetica,sans-Serif" font-size="10.00">prime_mapp_distribution.hpp</text>
</a>
</g>
</g>
<!-- Node13&#45;&gt;Node24 -->
<g id="edge28" class="edge">
<title>Node13&#45;&gt;Node24</title>
<path fill="none" stroke="midnightblue" d="M695.38,-224.32C707.74,-215.98 726.66,-203.21 741.26,-193.35"/>
<polygon fill="midnightblue" stroke="midnightblue" points="743.37,-196.15 749.7,-187.65 739.46,-190.35 743.37,-196.15"/>
</g>
<!-- Node25 -->
<g id="node25" class="node">
<title>Node25</title>
<g id="a_node25"><a xlink:href="skew__mapp__distribution_8hpp.html" target="_top" xlink:title="This file implements the skew&#45;mapp data distribution.">
<polygon fill="white" stroke="black" points="860.53,-168.5 860.53,-187.5 1016.53,-187.5 1016.53,-168.5 860.53,-168.5"/>
<text text-anchor="middle" x="938.53" y="-175.5" font-family="Helvetica,sans-Serif" font-size="10.00">skew_mapp_distribution.hpp</text>
</a>
</g>
</g>
<!-- Node13&#45;&gt;Node25 -->
<g id="edge30" class="edge">
<title>Node13&#45;&gt;Node25</title>
<path fill="none" stroke="midnightblue" d="M723.09,-224.44C767.84,-215 839.91,-199.8 888.22,-189.61"/>
<polygon fill="midnightblue" stroke="midnightblue" points="889.09,-193.01 898.15,-187.52 887.65,-186.16 889.09,-193.01"/>
</g>
<!-- Node14&#45;&gt;Node12 -->
<g id="edge16" class="edge">
<title>Node14&#45;&gt;Node12</title>
<path fill="none" stroke="midnightblue" d="M487.54,-112.44C434.51,-101.64 344.44,-83.28 296.6,-73.54"/>
<polygon fill="midnightblue" stroke="midnightblue" points="297.28,-70.1 286.78,-71.54 295.88,-76.96 297.28,-70.1"/>
</g>
<!-- Node15 -->
<g id="node15" class="node">
<title>Node15</title>
<g id="a_node15"><a xlink:title=" ">
<polygon fill="white" stroke="#bfbfbf" points="505.03,-56.5 505.03,-75.5 554.03,-75.5 554.03,-56.5 505.03,-56.5"/>
<text text-anchor="middle" x="529.53" y="-63.5" font-family="Helvetica,sans-Serif" font-size="10.00">cstdlib</text>
</a>
</g>
</g>
<!-- Node14&#45;&gt;Node15 -->
<g id="edge14" class="edge">
<title>Node14&#45;&gt;Node15</title>
<path fill="none" stroke="midnightblue" d="M529.53,-112.08C529.53,-105.01 529.53,-94.86 529.53,-85.99"/>
<polygon fill="midnightblue" stroke="midnightblue" points="533.03,-85.75 529.53,-75.75 526.03,-85.75 533.03,-85.75"/>
</g>
<!-- Node16 -->
<g id="node16" class="node">
<title>Node16</title>
<g id="a_node16"><a xlink:title=" ">
<polygon fill="white" stroke="#bfbfbf" points="1090.53,-56.5 1090.53,-75.5 1150.53,-75.5 1150.53,-56.5 1090.53,-56.5"/>
<text text-anchor="middle" x="1120.53" y="-63.5" font-family="Helvetica,sans-Serif" font-size="10.00">iostream</text>
</a>
</g>
</g>
<!-- Node14&#45;&gt;Node16 -->
<g id="edge15" class="edge">
<title>Node14&#45;&gt;Node16</title>
<path fill="none" stroke="midnightblue" d="M590.72,-118.92C691.07,-114.87 896.95,-103.89 1080.28,-75.97"/>
<polygon fill="midnightblue" stroke="midnightblue" points="1081.03,-79.4 1090.38,-74.41 1079.96,-72.48 1081.03,-79.4"/>
</g>
<!-- Node14&#45;&gt;Node17 -->
<g id="edge17" class="edge">
<title>Node14&#45;&gt;Node17</title>
<path fill="none" stroke="midnightblue" d="M590.69,-114.46C692.34,-103.59 893.97,-82.03 986.31,-72.16"/>
<polygon fill="midnightblue" stroke="midnightblue" points="986.92,-75.61 996.49,-71.07 986.17,-68.65 986.92,-75.61"/>
</g>
<!-- Node14&#45;&gt;Node19 -->
<g id="edge19" class="edge">
<title>Node14&#45;&gt;Node19</title>
<path fill="none" stroke="midnightblue" d="M468.49,-113.49C383.67,-103.06 231.28,-84.31 148.27,-74.1"/>
<polygon fill="midnightblue" stroke="midnightblue" points="148.6,-70.62 138.25,-72.87 147.75,-77.57 148.6,-70.62"/>
</g>
<!-- Node18 -->
<g id="node18" class="node">
<title>Node18</title>
<g id="a_node18"><a xlink:title=" ">
<polygon fill="white" stroke="#bfbfbf" points="1008.03,-0.5 1008.03,-19.5 1061.03,-19.5 1061.03,-0.5 1008.03,-0.5"/>
<text text-anchor="middle" x="1034.53" y="-7.5" font-family="Helvetica,sans-Serif" font-size="10.00">cstddef</text>
</a>
</g>
</g>
<!-- Node17&#45;&gt;Node18 -->
<g id="edge18" class="edge">
<title>Node17&#45;&gt;Node18</title>
<path fill="none" stroke="midnightblue" d="M1034.53,-56.08C1034.53,-49.01 1034.53,-38.86 1034.53,-29.99"/>
<polygon fill="midnightblue" stroke="midnightblue" points="1038.03,-29.75 1034.53,-19.75 1031.03,-29.75 1038.03,-29.75"/>
</g>
<!-- Node20&#45;&gt;Node14 -->
<g id="edge21" class="edge">
<title>Node20&#45;&gt;Node14</title>
<path fill="none" stroke="midnightblue" d="M469.09,-168.32C479.95,-160.18 496.41,-147.84 509.41,-138.09"/>
<polygon fill="midnightblue" stroke="midnightblue" points="511.85,-140.63 517.75,-131.83 507.65,-135.03 511.85,-140.63"/>
</g>
<!-- Node21&#45;&gt;Node12 -->
<g id="edge24" class="edge">
<title>Node21&#45;&gt;Node12</title>
<path fill="none" stroke="midnightblue" d="M264.53,-168.37C264.53,-150.62 264.53,-109.67 264.53,-85.6"/>
<polygon fill="midnightblue" stroke="midnightblue" points="268.03,-85.59 264.53,-75.59 261.03,-85.59 268.03,-85.59"/>
</g>
<!-- Node21&#45;&gt;Node14 -->
<g id="edge25" class="edge">
<title>Node21&#45;&gt;Node14</title>
<path fill="none" stroke="midnightblue" d="M306.52,-168.44C352.94,-158.98 427.75,-143.74 477.77,-133.55"/>
<polygon fill="midnightblue" stroke="midnightblue" points="478.63,-136.94 487.73,-131.52 477.24,-130.08 478.63,-136.94"/>
</g>
<!-- Node22 -->
<g id="node22" class="node">
<title>Node22</title>
<g id="a_node22"><a xlink:title=" ">
<polygon fill="white" stroke="#bfbfbf" points="118.53,-112.5 118.53,-131.5 166.53,-131.5 166.53,-112.5 118.53,-112.5"/>
<text text-anchor="middle" x="142.53" y="-119.5" font-family="Helvetica,sans-Serif" font-size="10.00">mutex</text>
</a>
</g>
</g>
<!-- Node21&#45;&gt;Node22 -->
<g id="edge23" class="edge">
<title>Node21&#45;&gt;Node22</title>
<path fill="none" stroke="midnightblue" d="M245.2,-168.44C225.21,-159.6 193.78,-145.69 170.96,-135.59"/>
<polygon fill="midnightblue" stroke="midnightblue" points="172.33,-132.36 161.77,-131.52 169.49,-138.76 172.33,-132.36"/>
</g>
<!-- Node23&#45;&gt;Node14 -->
<g id="edge27" class="edge">
<title>Node23&#45;&gt;Node14</title>
<path fill="none" stroke="midnightblue" d="M589.96,-168.32C579.11,-160.18 562.65,-147.84 549.64,-138.09"/>
<polygon fill="midnightblue" stroke="midnightblue" points="551.41,-135.03 541.3,-131.83 547.2,-140.63 551.41,-135.03"/>
</g>
<!-- Node24&#45;&gt;Node14 -->
<g id="edge29" class="edge">
<title>Node24&#45;&gt;Node14</title>
<path fill="none" stroke="midnightblue" d="M725.61,-168.44C685.13,-159.06 620.11,-143.99 576.14,-133.8"/>
<polygon fill="midnightblue" stroke="midnightblue" points="576.81,-130.36 566.27,-131.52 575.22,-137.18 576.81,-130.36"/>
</g>
<!-- Node25&#45;&gt;Node14 -->
<g id="edge31" class="edge">
<title>Node25&#45;&gt;Node14</title>
<path fill="none" stroke="midnightblue" d="M873.72,-168.44C799.35,-158.62 677.76,-142.57 600.78,-132.41"/>
<polygon fill="midnightblue" stroke="midnightblue" points="601.06,-128.91 590.69,-131.08 600.15,-135.85 601.06,-128.91"/>
</g>
<!-- Node26&#45;&gt;Node7 -->
<g id="edge36" class="edge">
<title>Node26&#45;&gt;Node7</title>
<path fill="none" stroke="midnightblue" d="M499.32,-475.94C518.75,-467.01 548.72,-451.86 571.53,-434 593.93,-416.46 615.45,-391.48 628.57,-375.01"/>
<polygon fill="midnightblue" stroke="midnightblue" points="631.56,-376.87 634.95,-366.84 626.04,-372.56 631.56,-376.87"/>
</g>
<!-- Node27 -->
<g id="node27" class="node">
<title>Node27</title>
<g id="a_node27"><a xlink:href="broadcast_8hpp.html" target="_top" xlink:title="This file provides a broadcasting facility for a single value.">
<polygon fill="white" stroke="black" points="396.53,-409 396.53,-428 562.53,-428 562.53,-409 396.53,-409"/>
<text text-anchor="middle" x="479.53" y="-416" font-family="Helvetica,sans-Serif" font-size="10.00">synchronization/broadcast.hpp</text>
</a>
</g>
</g>
<!-- Node26&#45;&gt;Node27 -->
<g id="edge37" class="edge">
<title>Node26&#45;&gt;Node27</title>
<path fill="none" stroke="midnightblue" d="M479.53,-475.73C479.53,-466.18 479.53,-450.62 479.53,-438.28"/>
<polygon fill="midnightblue" stroke="midnightblue" points="483.03,-438.13 479.53,-428.13 476.03,-438.13 483.03,-438.13"/>
</g>
<!-- Node27&#45;&gt;Node7 -->
<g id="edge38" class="edge">
<title>Node27&#45;&gt;Node7</title>
<path fill="none" stroke="midnightblue" d="M502.74,-408.98C530.53,-398.77 577.25,-381.61 608.72,-370.05"/>
<polygon fill="midnightblue" stroke="midnightblue" points="610.18,-373.24 618.36,-366.51 607.77,-366.67 610.18,-373.24"/>
</g>
<!-- Node27&#45;&gt;Node19 -->
<g id="edge39" class="edge">
<title>Node27&#45;&gt;Node19</title>
<path fill="none" stroke="midnightblue" d="M430.2,-409C310.53,-386.98 14.53,-323.57 14.53,-235 14.53,-235 14.53,-235 14.53,-177 14.53,-137.28 48.49,-101.5 71.01,-82.15"/>
<polygon fill="midnightblue" stroke="midnightblue" points="73.5,-84.63 78.98,-75.57 69.04,-79.24 73.5,-84.63"/>
</g>
<!-- Node28&#45;&gt;Node4 -->
<g id="edge44" class="edge">
<title>Node28&#45;&gt;Node4</title>
<path fill="none" stroke="midnightblue" d="M959.04,-475.94C1003.2,-466.74 1074.17,-451.12 1134.53,-434 1137.54,-433.15 1140.65,-432.21 1143.76,-431.23"/>
<polygon fill="midnightblue" stroke="midnightblue" points="1145.12,-434.47 1153.55,-428.05 1142.96,-427.81 1145.12,-434.47"/>
</g>
<!-- Node28&#45;&gt;Node7 -->
<g id="edge45" class="edge">
<title>Node28&#45;&gt;Node7</title>
<path fill="none" stroke="midnightblue" d="M860.43,-475.95C822.22,-468.56 771.36,-455.57 730.53,-434 714.83,-425.71 679.12,-393.35 658.01,-373.62"/>
<polygon fill="midnightblue" stroke="midnightblue" points="660.39,-371.06 650.71,-366.76 655.6,-376.16 660.39,-371.06"/>
</g>
<!-- Node28&#45;&gt;Node11 -->
<g id="edge46" class="edge">
<title>Node28&#45;&gt;Node11</title>
<path fill="none" stroke="midnightblue" d="M914.87,-475.84C911.92,-460.86 905.34,-429.17 897.53,-403 888.91,-374.14 876.67,-341.74 868.21,-320.34"/>
<polygon fill="midnightblue" stroke="midnightblue" points="871.35,-318.77 864.39,-310.78 864.85,-321.37 871.35,-318.77"/>
</g>
<!-- Node28&#45;&gt;Node16 -->
<g id="edge43" class="edge">
<title>Node28&#45;&gt;Node16</title>
<path fill="none" stroke="midnightblue" d="M985.45,-475.99C1017.56,-469.08 1054.53,-456.59 1081.53,-434 1110.64,-409.63 1120.53,-395.97 1120.53,-358 1120.53,-358 1120.53,-358 1120.53,-177 1120.53,-144.95 1120.53,-107.64 1120.53,-85.75"/>
<polygon fill="midnightblue" stroke="midnightblue" points="1124.03,-85.56 1120.53,-75.56 1117.03,-85.56 1124.03,-85.56"/>
</g>
<!-- Node29 -->
<g id="node29" class="node">
<title>Node29</title>
<g id="a_node29"><a xlink:title=" ">
<polygon fill="white" stroke="#bfbfbf" points="740.03,-409 740.03,-428 793.03,-428 793.03,-409 740.03,-409"/>
<text text-anchor="middle" x="766.53" y="-416" font-family="Helvetica,sans-Serif" font-size="10.00">stdlib.h</text>
</a>
</g>
</g>
<!-- Node28&#45;&gt;Node29 -->
<g id="edge41" class="edge">
<title>Node28&#45;&gt;Node29</title>
<path fill="none" stroke="midnightblue" d="M896.61,-475.87C870.83,-464.7 825.71,-445.15 795.97,-432.26"/>
<polygon fill="midnightblue" stroke="midnightblue" points="797.09,-428.93 786.53,-428.17 794.31,-435.35 797.09,-428.93"/>
</g>
<!-- Node30 -->
<g id="node30" class="node">
<title>Node30</title>
<g id="a_node30"><a xlink:title=" ">
<polygon fill="white" stroke="#bfbfbf" points="811.03,-409 811.03,-428 888.03,-428 888.03,-409 811.03,-409"/>
<text text-anchor="middle" x="849.53" y="-416" font-family="Helvetica,sans-Serif" font-size="10.00">sys/mman.h</text>
</a>
</g>
</g>
<!-- Node28&#45;&gt;Node30 -->
<g id="edge42" class="edge">
<title>Node28&#45;&gt;Node30</title>
<path fill="none" stroke="midnightblue" d="M907.49,-475.73C896.84,-465.4 878.94,-448.04 865.85,-435.33"/>
<polygon fill="midnightblue" stroke="midnightblue" points="868.03,-432.58 858.42,-428.13 863.16,-437.6 868.03,-432.58"/>
</g>
<!-- Node31 -->
<g id="node31" class="node">
<title>Node31</title>
<g id="a_node31"><a xlink:href="global__tas__lock_8hpp.html" target="_top" xlink:title="This file provides a tas lock for the ArgoDSM system based on the TAS lock made by David Klaftenegger...">
<polygon fill="white" stroke="black" points="945.03,-403.5 945.03,-433.5 1072.03,-433.5 1072.03,-403.5 945.03,-403.5"/>
<text text-anchor="start" x="953.03" y="-421.5" font-family="Helvetica,sans-Serif" font-size="10.00">synchronization/global</text>
<text text-anchor="middle" x="1008.53" y="-410.5" font-family="Helvetica,sans-Serif" font-size="10.00">_tas_lock.hpp</text>
</a>
</g>
</g>
<!-- Node28&#45;&gt;Node31 -->
<g id="edge47" class="edge">
<title>Node28&#45;&gt;Node31</title>
<path fill="none" stroke="midnightblue" d="M928.93,-475.73C941.97,-466.53 962.9,-451.73 980.04,-439.63"/>
<polygon fill="midnightblue" stroke="midnightblue" points="982.44,-442.22 988.59,-433.59 978.4,-436.5 982.44,-442.22"/>
</g>
<!-- Node31&#45;&gt;Node7 -->
<g id="edge50" class="edge">
<title>Node31&#45;&gt;Node7</title>
<path fill="none" stroke="midnightblue" d="M945.02,-407.2C877.5,-396.26 771.39,-379.05 704.19,-368.16"/>
<polygon fill="midnightblue" stroke="midnightblue" points="704.59,-364.68 694.16,-366.53 703.47,-371.59 704.59,-364.68"/>
</g>
<!-- Node31&#45;&gt;Node11 -->
<g id="edge51" class="edge">
<title>Node31&#45;&gt;Node11</title>
<path fill="none" stroke="midnightblue" d="M1009.77,-403.35C1010.35,-387.75 1008.84,-362.8 995.53,-347 979.95,-328.51 956.97,-316.79 934.25,-309.36"/>
<polygon fill="midnightblue" stroke="midnightblue" points="935.14,-305.97 924.56,-306.43 933.12,-312.67 935.14,-305.97"/>
</g>
<!-- Node32 -->
<g id="node32" class="node">
<title>Node32</title>
<g id="a_node32"><a xlink:title=" ">
<polygon fill="white" stroke="#bfbfbf" points="1042.53,-347.5 1042.53,-366.5 1092.53,-366.5 1092.53,-347.5 1042.53,-347.5"/>
<text text-anchor="middle" x="1067.53" y="-354.5" font-family="Helvetica,sans-Serif" font-size="10.00">atomic</text>
</a>
</g>
</g>
<!-- Node31&#45;&gt;Node32 -->
<g id="edge48" class="edge">
<title>Node31&#45;&gt;Node32</title>
<path fill="none" stroke="midnightblue" d="M1022.51,-403.4C1031.26,-394.58 1042.56,-383.18 1051.64,-374.02"/>
<polygon fill="midnightblue" stroke="midnightblue" points="1054.39,-376.22 1058.94,-366.66 1049.41,-371.29 1054.39,-376.22"/>
</g>
<!-- Node33 -->
<g id="node33" class="node">
<title>Node33</title>
<g id="a_node33"><a xlink:title=" ">
<polygon fill="white" stroke="#bfbfbf" points="938.53,-347.5 938.53,-366.5 986.53,-366.5 986.53,-347.5 938.53,-347.5"/>
<text text-anchor="middle" x="962.53" y="-354.5" font-family="Helvetica,sans-Serif" font-size="10.00">thread</text>
</a>
</g>
</g>
<!-- Node31&#45;&gt;Node33 -->
<g id="edge49" class="edge">
<title>Node31&#45;&gt;Node33</title>
<path fill="none" stroke="midnightblue" d="M997.63,-403.4C990.94,-394.75 982.35,-383.64 975.34,-374.58"/>
<polygon fill="midnightblue" stroke="midnightblue" points="978.11,-372.43 969.22,-366.66 972.57,-376.71 978.11,-372.43"/>
</g>
<!-- Node34&#45;&gt;Node3 -->
<g id="edge53" class="edge">
<title>Node34&#45;&gt;Node3</title>
<path fill="none" stroke="midnightblue" d="M445.77,-542.99C423.19,-535.57 394.58,-522.53 377.53,-501 363.25,-482.98 359.36,-456.09 358.48,-438.19"/>
<polygon fill="midnightblue" stroke="midnightblue" points="361.97,-438.05 358.25,-428.13 354.98,-438.21 361.97,-438.05"/>
</g>
<!-- Node34&#45;&gt;Node5 -->
<g id="edge55" class="edge">
<title>Node34&#45;&gt;Node5</title>
<path fill="none" stroke="midnightblue" d="M415.94,-548C343.11,-542.67 229.91,-529.89 199.53,-501 182.61,-484.92 179.44,-456.92 179.43,-438.3"/>
<polygon fill="midnightblue" stroke="midnightblue" points="182.93,-438.21 179.74,-428.11 175.94,-438 182.93,-438.21"/>
</g>
<!-- Node34&#45;&gt;Node6 -->
<g id="edge56" class="edge">
<title>Node34&#45;&gt;Node6</title>
<path fill="none" stroke="midnightblue" d="M497.32,-542.87C520.15,-531.8 559.95,-512.49 586.52,-499.6"/>
<polygon fill="midnightblue" stroke="midnightblue" points="588.19,-502.68 595.66,-495.17 585.13,-496.38 588.19,-502.68"/>
</g>
<!-- Node34&#45;&gt;Node22 -->
<g id="edge54" class="edge">
<title>Node34&#45;&gt;Node22</title>
<path fill="none" stroke="midnightblue" d="M415.88,-548.9C298.73,-543.47 58.54,-529.01 33.53,-501 -64.92,-390.77 80.94,-196.81 128.44,-139.43"/>
<polygon fill="midnightblue" stroke="midnightblue" points="131.17,-141.61 134.93,-131.7 125.81,-137.11 131.17,-141.61"/>
</g>
<!-- Node34&#45;&gt;Node26 -->
<g id="edge57" class="edge">
<title>Node34&#45;&gt;Node26</title>
<path fill="none" stroke="midnightblue" d="M479.53,-542.73C479.53,-533.18 479.53,-517.62 479.53,-505.28"/>
<polygon fill="midnightblue" stroke="midnightblue" points="483.03,-505.13 479.53,-495.13 476.03,-505.13 483.03,-505.13"/>
</g>
<!-- Node34&#45;&gt;Node28 -->
<g id="edge58" class="edge">
<title>Node34&#45;&gt;Node28</title>
<path fill="none" stroke="midnightblue" d="M537.11,-542.94C617.62,-530.96 763.54,-509.26 849.05,-496.54"/>
<polygon fill="midnightblue" stroke="midnightblue" points="849.79,-499.96 859.17,-495.03 848.76,-493.04 849.79,-499.96"/>
</g>
<!-- Node34&#45;&gt;Node35 -->
<g id="edge59" class="edge">
<title>Node34&#45;&gt;Node35</title>
<path fill="none" stroke="midnightblue" d="M451.64,-542.87C414.43,-531.35 348.43,-510.92 306.93,-498.08"/>
<polygon fill="midnightblue" stroke="midnightblue" points="307.78,-494.68 297.19,-495.06 305.71,-501.36 307.78,-494.68"/>
</g>
<!-- Node34&#45;&gt;Node36 -->
<g id="edge63" class="edge">
<title>Node34&#45;&gt;Node36</title>
<path fill="none" stroke="midnightblue" d="M508.08,-542.87C546.25,-531.33 614.03,-510.84 656.5,-498"/>
<polygon fill="midnightblue" stroke="midnightblue" points="657.64,-501.31 666.2,-495.06 655.62,-494.61 657.64,-501.31"/>
</g>
<!-- Node37 -->
<g id="node37" class="node">
<title>Node37</title>
<g id="a_node37"><a xlink:href="dynamic__allocator_8h.html" target="_top" xlink:title="This file provides the dynamic allocator for ArgoDSM.">
<polygon fill="white" stroke="black" points="42.53,-470.5 42.53,-500.5 152.53,-500.5 152.53,-470.5 42.53,-470.5"/>
<text text-anchor="start" x="50.53" y="-488.5" font-family="Helvetica,sans-Serif" font-size="10.00">allocators/dynamic</text>
<text text-anchor="middle" x="97.53" y="-477.5" font-family="Helvetica,sans-Serif" font-size="10.00">_allocator.h</text>
</a>
</g>
</g>
<!-- Node34&#45;&gt;Node37 -->
<g id="edge64" class="edge">
<title>Node34&#45;&gt;Node37</title>
<path fill="none" stroke="midnightblue" d="M421.41,-542.96C358.46,-533.52 255.15,-517.45 166.53,-501 165.27,-500.77 164.01,-500.53 162.74,-500.29"/>
<polygon fill="midnightblue" stroke="midnightblue" points="163.33,-496.84 152.84,-498.36 161.99,-503.71 163.33,-496.84"/>
</g>
<!-- Node35&#45;&gt;Node3 -->
<g id="edge60" class="edge">
<title>Node35&#45;&gt;Node3</title>
<path fill="none" stroke="midnightblue" d="M281.53,-475.73C296.08,-465.11 320.81,-447.05 338.31,-434.26"/>
<polygon fill="midnightblue" stroke="midnightblue" points="340.7,-436.85 346.71,-428.13 336.57,-431.2 340.7,-436.85"/>
</g>
<!-- Node35&#45;&gt;Node5 -->
<g id="edge61" class="edge">
<title>Node35&#45;&gt;Node5</title>
<path fill="none" stroke="midnightblue" d="M257.52,-475.73C242.98,-465.11 218.25,-447.05 200.74,-434.26"/>
<polygon fill="midnightblue" stroke="midnightblue" points="202.48,-431.2 192.34,-428.13 198.35,-436.85 202.48,-431.2"/>
</g>
<!-- Node35&#45;&gt;Node7 -->
<g id="edge62" class="edge">
<title>Node35&#45;&gt;Node7</title>
<path fill="none" stroke="midnightblue" d="M273.22,-475.82C281.01,-458.68 300.9,-420.6 330.53,-403 369.86,-379.64 491.14,-367.57 570.12,-362.03"/>
<polygon fill="midnightblue" stroke="midnightblue" points="570.75,-365.49 580.49,-361.32 570.27,-358.51 570.75,-365.49"/>
</g>
</g>
</svg>
        <g id="navigator" transform="translate(0 0)" fill="#404254">
                <rect fill="#f2f5e9" fill-opacity="0.5" stroke="#606060" stroke-width=".5" x="0" y="0" width="60" height="60"/>
                <use id="zoomplus" xlink:href="#zoomPlus" x="17" y="9" onmousedown="handleZoom(evt,'in')"/>
                <use id="zoomminus" xlink:href="#zoomMin" x="42" y="9" onmousedown="handleZoom(evt,'out')"/>
                <use id="reset" xlink:href="#resetDef" x="30" y="36" onmousedown="handleReset()"/>
                <g id="arrowUp" xlink:href="#dirArrow" transform="translate(30 24)" onmousedown="handlePan(0,-1)">
                  <use xlink:href="#rim" fill="#404040">
                        <set attributeName="fill" to="#808080" begin="arrowUp.mouseover" end="arrowUp.mouseout"/>
                  </use>
                  <path fill="none" stroke="white" stroke-width="1.5" d="M0,-3.0v7 M-2.5,-0.5L0,-3.0L2.5,-0.5"/>
                </g>
                <g id="arrowRight" xlink:href="#dirArrow" transform="rotate(90) translate(36 -43)" onmousedown="handlePan(1,0)">
                  <use xlink:href="#rim" fill="#404040">
                        <set attributeName="fill" to="#808080" begin="arrowRight.mouseover" end="arrowRight.mouseout"/>
                  </use>
                  <path fill="none" stroke="white" stroke-width="1.5" d="M0,-3.0v7 M-2.5,-0.5L0,-3.0L2.5,-0.5"/>
                </g>
                <g id="arrowDown" xlink:href="#dirArrow" transform="rotate(180) translate(-30 -48)" onmousedown="handlePan(0,1)">
                  <use xlink:href="#rim" fill="#404040">
                        <set attributeName="fill" to="#808080" begin="arrowDown.mouseover" end="arrowDown.mouseout"/>
                  </use>
                  <path fill="none" stroke="white" stroke-width="1.5" d="M0,-3.0v7 M-2.5,-0.5L0,-3.0L2.5,-0.5"/>
                </g>
                <g id="arrowLeft" xlink:href="#dirArrow" transform="rotate(270) translate(-36 17)" onmousedown="handlePan(-1,0)">
                  <use xlink:href="#rim" fill="#404040">
                        <set attributeName="fill" to="#808080" begin="arrowLeft.mouseover" end="arrowLeft.mouseout"/>
                  </use>
                  <path fill="none" stroke="white" stroke-width="1.5" d="M0,-3.0v7 M-2.5,-0.5L0,-3.0L2.5,-0.5"/>
                </g>
        </g>
        <svg viewBox="0 0 15 15" width="100%" height="30px" preserveAspectRatio="xMaxYMin meet">
         <g id="arrow_out" transform="scale(0.3 0.3)">
          <a xlink:href="allocators_8hpp__incl_org.svg" target="_base">
           <rect id="button" ry="5" rx="5" y="6" x="6" height="38" width="38"
                fill="#f2f5e9" fill-opacity="0.5" stroke="#606060" stroke-width="1.0"/>
           <path id="arrow"
             d="M 11.500037,31.436501 C 11.940474,20.09759 22.043105,11.32322 32.158766,21.979434 L 37.068811,17.246167 C 37.068811,17.246167 37.088388,32 37.088388,32 L 22.160133,31.978069 C 22.160133,31.978069 26.997745,27.140456 26.997745,27.140456 C 18.528582,18.264221 13.291696,25.230495 11.500037,31.436501 z"
             style="fill:#404040;"/>
          </a>
         </g>
        </svg>
</svg>
