<?xml version="1.0" encoding="UTF-8" standalone="no"?>
<!DOCTYPE svg PUBLIC "-//W3C//DTD SVG 1.1//EN"
 "http://www.w3.org/Graphics/SVG/1.1/DTD/svg11.dtd">
<!-- Generated by graphviz version 2.43.0 (0)
 -->
<!-- Title: /home/projectcs&#45;2022/argodsmBuffer/argodsmPrefetching/src/virtual_memory/anonymous.cpp Pages: 1 -->
<svg width="1004pt" height="162pt"
 viewBox="0.00 0.00 1003.50 162.00" xmlns="http://www.w3.org/2000/svg" xmlns:xlink="http://www.w3.org/1999/xlink">
<g id="graph0" class="graph" transform="scale(1 1) rotate(0) translate(4 158)">
<title>/home/projectcs&#45;2022/argodsmBuffer/argodsmPrefetching/src/virtual_memory/anonymous.cpp</title>
<polygon fill="white" stroke="transparent" points="-4,4 -4,-158 999.5,-158 999.5,4 -4,4"/>
<!-- Node1 -->
<g id="node1" class="node">
<title>Node1</title>
<g id="a_node1"><a xlink:title="This file implements the virtual memory and virtual address handling.">
<polygon fill="#bfbfbf" stroke="black" points="396,-112.5 396,-153.5 591,-153.5 591,-112.5 396,-112.5"/>
<text text-anchor="start" x="404" y="-141.5" font-family="Helvetica,sans-Serif" font-size="10.00">/home/projectcs&#45;2022</text>
<text text-anchor="start" x="404" y="-130.5" font-family="Helvetica,sans-Serif" font-size="10.00">/argodsmBuffer/argodsmPrefetching</text>
<text text-anchor="middle" x="493.5" y="-119.5" font-family="Helvetica,sans-Serif" font-size="10.00">/src/virtual_memory/anonymous.cpp</text>
</a>
</g>
</g>
<!-- Node2 -->
<g id="node2" class="node">
<title>Node2</title>
<g id="a_node2"><a xlink:title=" ">
<polygon fill="white" stroke="#bfbfbf" points="0,-56.5 0,-75.5 47,-75.5 47,-56.5 0,-56.5"/>
<text text-anchor="middle" x="23.5" y="-63.5" font-family="Helvetica,sans-Serif" font-size="10.00">fcntl.h</text>
</a>
</g>
</g>
<!-- Node1&#45;&gt;Node2 -->
<g id="edge1" class="edge">
<title>Node1&#45;&gt;Node2</title>
<path fill="none" stroke="midnightblue" d="M395.67,-123.39C309.04,-114.85 179.09,-99.86 57.09,-75.86"/>
<polygon fill="midnightblue" stroke="midnightblue" points="57.69,-72.41 47.2,-73.89 56.32,-79.27 57.69,-72.41"/>
</g>
<!-- Node3 -->
<g id="node3" class="node">
<title>Node3</title>
<g id="a_node3"><a xlink:title=" ">
<polygon fill="white" stroke="#bfbfbf" points="65,-56.5 65,-75.5 142,-75.5 142,-56.5 65,-56.5"/>
<text text-anchor="middle" x="103.5" y="-63.5" font-family="Helvetica,sans-Serif" font-size="10.00">sys/mman.h</text>
</a>
</g>
</g>
<!-- Node1&#45;&gt;Node3 -->
<g id="edge2" class="edge">
<title>Node1&#45;&gt;Node3</title>
<path fill="none" stroke="midnightblue" d="M395.73,-116.61C329.75,-106.07 240.45,-91.53 152.18,-76.09"/>
<polygon fill="midnightblue" stroke="midnightblue" points="152.71,-72.63 142.26,-74.35 151.5,-79.52 152.71,-72.63"/>
</g>
<!-- Node4 -->
<g id="node4" class="node">
<title>Node4</title>
<g id="a_node4"><a xlink:title=" ">
<polygon fill="white" stroke="#bfbfbf" points="160.5,-56.5 160.5,-75.5 224.5,-75.5 224.5,-56.5 160.5,-56.5"/>
<text text-anchor="middle" x="192.5" y="-63.5" font-family="Helvetica,sans-Serif" font-size="10.00">sys/stat.h</text>
</a>
</g>
</g>
<!-- Node1&#45;&gt;Node4 -->
<g id="edge3" class="edge">
<title>Node1&#45;&gt;Node4</title>
<path fill="none" stroke="midnightblue" d="M403.19,-112.5C347.24,-100.42 278,-85.46 234.53,-76.08"/>
<polygon fill="midnightblue" stroke="midnightblue" points="235.1,-72.62 224.59,-73.93 233.63,-79.46 235.1,-72.62"/>
</g>
<!-- Node5 -->
<g id="node5" class="node">
<title>Node5</title>
<g id="a_node5"><a xlink:title=" ">
<polygon fill="white" stroke="#bfbfbf" points="243,-56.5 243,-75.5 322,-75.5 322,-56.5 243,-56.5"/>
<text text-anchor="middle" x="282.5" y="-63.5" font-family="Helvetica,sans-Serif" font-size="10.00">sys/statvfs.h</text>
</a>
</g>
</g>
<!-- Node1&#45;&gt;Node5 -->
<g id="edge4" class="edge">
<title>Node1&#45;&gt;Node5</title>
<path fill="none" stroke="midnightblue" d="M430.19,-112.5C394.31,-101.44 350.64,-87.99 320.12,-78.59"/>
<polygon fill="midnightblue" stroke="midnightblue" points="320.9,-75.17 310.31,-75.57 318.84,-81.86 320.9,-75.17"/>
</g>
<!-- Node6 -->
<g id="node6" class="node">
<title>Node6</title>
<g id="a_node6"><a xlink:title=" ">
<polygon fill="white" stroke="#bfbfbf" points="340.5,-56.5 340.5,-75.5 412.5,-75.5 412.5,-56.5 340.5,-56.5"/>
<text text-anchor="middle" x="376.5" y="-63.5" font-family="Helvetica,sans-Serif" font-size="10.00">sys/types.h</text>
</a>
</g>
</g>
<!-- Node1&#45;&gt;Node6 -->
<g id="edge5" class="edge">
<title>Node1&#45;&gt;Node6</title>
<path fill="none" stroke="midnightblue" d="M458.4,-112.5C439.94,-102.24 417.77,-89.93 401.15,-80.69"/>
<polygon fill="midnightblue" stroke="midnightblue" points="402.52,-77.45 392.07,-75.65 399.12,-83.57 402.52,-77.45"/>
</g>
<!-- Node7 -->
<g id="node7" class="node">
<title>Node7</title>
<g id="a_node7"><a xlink:title=" ">
<polygon fill="white" stroke="#bfbfbf" points="430.5,-56.5 430.5,-75.5 486.5,-75.5 486.5,-56.5 430.5,-56.5"/>
<text text-anchor="middle" x="458.5" y="-63.5" font-family="Helvetica,sans-Serif" font-size="10.00">unistd.h</text>
</a>
</g>
</g>
<!-- Node1&#45;&gt;Node7 -->
<g id="edge6" class="edge">
<title>Node1&#45;&gt;Node7</title>
<path fill="none" stroke="midnightblue" d="M483,-112.5C478.2,-103.59 472.56,-93.11 467.9,-84.46"/>
<polygon fill="midnightblue" stroke="midnightblue" points="470.98,-82.8 463.16,-75.65 464.82,-86.12 470.98,-82.8"/>
</g>
<!-- Node8 -->
<g id="node8" class="node">
<title>Node8</title>
<g id="a_node8"><a xlink:title=" ">
<polygon fill="white" stroke="#bfbfbf" points="505,-56.5 505,-75.5 552,-75.5 552,-56.5 505,-56.5"/>
<text text-anchor="middle" x="528.5" y="-63.5" font-family="Helvetica,sans-Serif" font-size="10.00">cerrno</text>
</a>
</g>
</g>
<!-- Node1&#45;&gt;Node8 -->
<g id="edge7" class="edge">
<title>Node1&#45;&gt;Node8</title>
<path fill="none" stroke="midnightblue" d="M504,-112.5C508.8,-103.59 514.44,-93.11 519.1,-84.46"/>
<polygon fill="midnightblue" stroke="midnightblue" points="522.18,-86.12 523.84,-75.65 516.02,-82.8 522.18,-86.12"/>
</g>
<!-- Node9 -->
<g id="node9" class="node">
<title>Node9</title>
<g id="a_node9"><a xlink:title=" ">
<polygon fill="white" stroke="#bfbfbf" points="570,-56.5 570,-75.5 623,-75.5 623,-56.5 570,-56.5"/>
<text text-anchor="middle" x="596.5" y="-63.5" font-family="Helvetica,sans-Serif" font-size="10.00">cstddef</text>
</a>
</g>
</g>
<!-- Node1&#45;&gt;Node9 -->
<g id="edge8" class="edge">
<title>Node1&#45;&gt;Node9</title>
<path fill="none" stroke="midnightblue" d="M524.4,-112.5C540.35,-102.44 559.44,-90.38 573.98,-81.21"/>
<polygon fill="midnightblue" stroke="midnightblue" points="576.2,-83.95 582.79,-75.65 572.46,-78.03 576.2,-83.95"/>
</g>
<!-- Node10 -->
<g id="node10" class="node">
<title>Node10</title>
<g id="a_node10"><a xlink:title=" ">
<polygon fill="white" stroke="#bfbfbf" points="641.5,-56.5 641.5,-75.5 701.5,-75.5 701.5,-56.5 641.5,-56.5"/>
<text text-anchor="middle" x="671.5" y="-63.5" font-family="Helvetica,sans-Serif" font-size="10.00">iostream</text>
</a>
</g>
</g>
<!-- Node1&#45;&gt;Node10 -->
<g id="edge9" class="edge">
<title>Node1&#45;&gt;Node10</title>
<path fill="none" stroke="midnightblue" d="M546.91,-112.5C576.56,-101.67 612.52,-88.54 638.17,-79.17"/>
<polygon fill="midnightblue" stroke="midnightblue" points="639.61,-82.37 647.81,-75.65 637.21,-75.8 639.61,-82.37"/>
</g>
<!-- Node11 -->
<g id="node11" class="node">
<title>Node11</title>
<g id="a_node11"><a xlink:title=" ">
<polygon fill="white" stroke="#bfbfbf" points="719.5,-56.5 719.5,-75.5 763.5,-75.5 763.5,-56.5 719.5,-56.5"/>
<text text-anchor="middle" x="741.5" y="-63.5" font-family="Helvetica,sans-Serif" font-size="10.00">string</text>
</a>
</g>
</g>
<!-- Node1&#45;&gt;Node11 -->
<g id="edge10" class="edge">
<title>Node1&#45;&gt;Node11</title>
<path fill="none" stroke="midnightblue" d="M571.49,-112.48C610.36,-102.6 658.32,-90.21 709.28,-76.28"/>
<polygon fill="midnightblue" stroke="midnightblue" points="710.45,-79.59 719.17,-73.57 708.6,-72.84 710.45,-79.59"/>
</g>
<!-- Node12 -->
<g id="node12" class="node">
<title>Node12</title>
<g id="a_node12"><a xlink:title=" ">
<polygon fill="white" stroke="#bfbfbf" points="782,-56.5 782,-75.5 863,-75.5 863,-56.5 782,-56.5"/>
<text text-anchor="middle" x="822.5" y="-63.5" font-family="Helvetica,sans-Serif" font-size="10.00">system_error</text>
</a>
</g>
</g>
<!-- Node1&#45;&gt;Node12 -->
<g id="edge11" class="edge">
<title>Node1&#45;&gt;Node12</title>
<path fill="none" stroke="midnightblue" d="M591.32,-112.67C650.74,-100.93 724.12,-86.44 772.06,-76.97"/>
<polygon fill="midnightblue" stroke="midnightblue" points="772.76,-80.4 781.89,-75.02 771.4,-73.53 772.76,-80.4"/>
</g>
<!-- Node13 -->
<g id="node13" class="node">
<title>Node13</title>
<g id="a_node13"><a xlink:href="virtual__memory_8hpp.html" target="_top" xlink:title="This file provides facilities for handling virtual memory and virtual address space.">
<polygon fill="white" stroke="black" points="881.5,-56.5 881.5,-75.5 995.5,-75.5 995.5,-56.5 881.5,-56.5"/>
<text text-anchor="middle" x="938.5" y="-63.5" font-family="Helvetica,sans-Serif" font-size="10.00">virtual_memory.hpp</text>
</a>
</g>
</g>
<!-- Node1&#45;&gt;Node13 -->
<g id="edge12" class="edge">
<title>Node1&#45;&gt;Node13</title>
<path fill="none" stroke="midnightblue" d="M591.16,-117.74C675.95,-105.35 796.5,-87.74 870.99,-76.86"/>
<polygon fill="midnightblue" stroke="midnightblue" points="871.8,-80.28 881.19,-75.37 870.79,-73.35 871.8,-80.28"/>
</g>
<!-- Node14 -->
<g id="node14" class="node">
<title>Node14</title>
<g id="a_node14"><a xlink:title=" ">
<polygon fill="white" stroke="#bfbfbf" points="916,-0.5 916,-19.5 961,-19.5 961,-0.5 916,-0.5"/>
<text text-anchor="middle" x="938.5" y="-7.5" font-family="Helvetica,sans-Serif" font-size="10.00">utility</text>
</a>
</g>
</g>
<!-- Node13&#45;&gt;Node14 -->
<g id="edge13" class="edge">
<title>Node13&#45;&gt;Node14</title>
<path fill="none" stroke="midnightblue" d="M938.5,-56.08C938.5,-49.01 938.5,-38.86 938.5,-29.99"/>
<polygon fill="midnightblue" stroke="midnightblue" points="942,-29.75 938.5,-19.75 935,-29.75 942,-29.75"/>
</g>
</g>
</svg>
