<?xml version="1.0" encoding="UTF-8" standalone="no"?>
<!DOCTYPE svg PUBLIC "-//W3C//DTD SVG 1.1//EN"
 "http://www.w3.org/Graphics/SVG/1.1/DTD/svg11.dtd">
<!-- Generated by graphviz version 2.43.0 (0)
 -->
<!-- Title: argo::virtual_memory::allocate_mappable Pages: 1 -->
<svg width="288pt" height="57pt"
 viewBox="0.00 0.00 288.00 57.00" xmlns="http://www.w3.org/2000/svg" xmlns:xlink="http://www.w3.org/1999/xlink">
<g id="graph0" class="graph" transform="scale(1 1) rotate(0) translate(4 53)">
<title>argo::virtual_memory::allocate_mappable</title>
<polygon fill="white" stroke="transparent" points="-4,4 -4,-53 284,-53 284,4 -4,4"/>
<!-- Node1 -->
<g id="node1" class="node">
<title>Node1</title>
<g id="a_node1"><a xlink:title="allocate memory that can be mapped into ArgoDSM virtual address space later">
<polygon fill="#bfbfbf" stroke="black" points="0,-0.5 0,-30.5 122,-30.5 122,-0.5 0,-0.5"/>
<text text-anchor="start" x="8" y="-18.5" font-family="Helvetica,sans-Serif" font-size="10.00">argo::virtual_memory</text>
<text text-anchor="middle" x="61" y="-7.5" font-family="Helvetica,sans-Serif" font-size="10.00">::allocate_mappable</text>
</a>
</g>
</g>
<!-- Node1&#45;&gt;Node1 -->
<g id="edge1" class="edge">
<title>Node1&#45;&gt;Node1</title>
<path fill="none" stroke="midnightblue" d="M33.47,-30.66C26.83,-40.06 36,-49 61,-49 76.23,-49 85.59,-45.68 89.07,-40.96"/>
<polygon fill="midnightblue" stroke="midnightblue" points="92.55,-40.46 88.53,-30.66 85.56,-40.83 92.55,-40.46"/>
</g>
<!-- Node2 -->
<g id="node2" class="node">
<title>Node2</title>
<g id="a_node2"><a xlink:href="anonymous_8cpp_ab7d165839faaa408a36d34192707b119.html#ab7d165839faaa408a36d34192707b119" target="_top" xlink:title="get size of the ArgoDSM virtual memory">
<polygon fill="white" stroke="black" points="158,-0.5 158,-30.5 280,-30.5 280,-0.5 158,-0.5"/>
<text text-anchor="start" x="166" y="-18.5" font-family="Helvetica,sans-Serif" font-size="10.00">argo::virtual_memory</text>
<text text-anchor="middle" x="219" y="-7.5" font-family="Helvetica,sans-Serif" font-size="10.00">::size</text>
</a>
</g>
</g>
<!-- Node1&#45;&gt;Node2 -->
<g id="edge2" class="edge">
<title>Node1&#45;&gt;Node2</title>
<path fill="none" stroke="midnightblue" d="M122.31,-15.5C130.6,-15.5 139.17,-15.5 147.63,-15.5"/>
<polygon fill="midnightblue" stroke="midnightblue" points="147.85,-19 157.85,-15.5 147.85,-12 147.85,-19"/>
</g>
</g>
</svg>
