<?xml version="1.0" encoding="UTF-8" standalone="no"?>
<!DOCTYPE svg PUBLIC "-//W3C//DTD SVG 1.1//EN"
 "http://www.w3.org/Graphics/SVG/1.1/DTD/svg11.dtd">
<!-- Generated by graphviz version 2.43.0 (0)
 -->
<!-- Title: TEST_F Pages: 1 -->
<svg width="706pt" height="220pt"
 viewBox="0.00 0.00 706.00 219.50" xmlns="http://www.w3.org/2000/svg" xmlns:xlink="http://www.w3.org/1999/xlink">
<g id="graph0" class="graph" transform="scale(1 1) rotate(0) translate(4 215.5)">
<title>TEST_F</title>
<polygon fill="white" stroke="transparent" points="-4,4 -4,-215.5 702,-215.5 702,4 -4,4"/>
<!-- Node1 -->
<g id="node1" class="node">
<title>Node1</title>
<g id="a_node1"><a xlink:title="Unittest that checks that argo::get_block_size() is consistent with argo::env::block_size() for all c...">
<polygon fill="#bfbfbf" stroke="black" points="0,-76.5 0,-95.5 52,-95.5 52,-76.5 0,-76.5"/>
<text text-anchor="middle" x="26" y="-83.5" font-family="Helvetica,sans-Serif" font-size="10.00">TEST_F</text>
</a>
</g>
</g>
<!-- Node2 -->
<g id="node2" class="node">
<title>Node2</title>
<g id="a_node2"><a xlink:href="namespaceargo_1_1env_a30775a9aa41b956df7474a2c0cc317aa.html#a30775a9aa41b956df7474a2c0cc317aa" target="_top" xlink:title="get the allocation block size requested by environment variable">
<polygon fill="white" stroke="black" points="424,-181 424,-211 540,-211 540,-181 424,-181"/>
<text text-anchor="start" x="432" y="-199" font-family="Helvetica,sans-Serif" font-size="10.00">argo::env::allocation</text>
<text text-anchor="middle" x="482" y="-188" font-family="Helvetica,sans-Serif" font-size="10.00">_block_size</text>
</a>
</g>
</g>
<!-- Node1&#45;&gt;Node2 -->
<g id="edge1" class="edge">
<title>Node1&#45;&gt;Node2</title>
<path fill="none" stroke="midnightblue" d="M33.58,-95.64C43.56,-109.41 63.94,-134.33 88,-146 193.33,-197.12 332.34,-202.36 413.67,-200.14"/>
<polygon fill="midnightblue" stroke="midnightblue" points="413.9,-203.63 423.78,-199.82 413.68,-196.64 413.9,-203.63"/>
</g>
<!-- Node3 -->
<g id="node3" class="node">
<title>Node3</title>
<g id="a_node3"><a xlink:href="namespaceargo_a2f35b6b6e0af76fb8fb47f2031d6f58e.html#a2f35b6b6e0af76fb8fb47f2031d6f58e" target="_top" xlink:title="Get the block size of the current allocation policy.">
<polygon fill="white" stroke="black" points="95.5,-117.5 95.5,-136.5 211.5,-136.5 211.5,-117.5 95.5,-117.5"/>
<text text-anchor="middle" x="153.5" y="-124.5" font-family="Helvetica,sans-Serif" font-size="10.00">argo::get_block_size</text>
</a>
</g>
</g>
<!-- Node1&#45;&gt;Node3 -->
<g id="edge2" class="edge">
<title>Node1&#45;&gt;Node3</title>
<path fill="none" stroke="midnightblue" d="M52.1,-94.2C69.6,-99.92 93.3,-107.66 113.28,-114.19"/>
<polygon fill="midnightblue" stroke="midnightblue" points="112.45,-117.6 123.04,-117.38 114.62,-110.94 112.45,-117.6"/>
</g>
<!-- Node6 -->
<g id="node6" class="node">
<title>Node6</title>
<g id="a_node6"><a xlink:href="namespaceargo_1_1data__distribution_a1bb3f2dcecd237990e6dc67764f06860.html#a1bb3f2dcecd237990e6dc67764f06860" target="_top" xlink:title="identifies if we distribute data using a cyclic memory policy">
<polygon fill="white" stroke="black" points="418.5,-71 418.5,-101 545.5,-101 545.5,-71 418.5,-71"/>
<text text-anchor="start" x="426.5" y="-89" font-family="Helvetica,sans-Serif" font-size="10.00">argo::data_distribution</text>
<text text-anchor="middle" x="482" y="-78" font-family="Helvetica,sans-Serif" font-size="10.00">::is_cyclic_policy</text>
</a>
</g>
</g>
<!-- Node1&#45;&gt;Node6 -->
<g id="edge10" class="edge">
<title>Node1&#45;&gt;Node6</title>
<path fill="none" stroke="midnightblue" d="M52.06,-86C119.07,-86 304.36,-86 408.15,-86"/>
<polygon fill="midnightblue" stroke="midnightblue" points="408.24,-89.5 418.24,-86 408.24,-82.5 408.24,-89.5"/>
</g>
<!-- Node8 -->
<g id="node8" class="node">
<title>Node8</title>
<g id="a_node8"><a xlink:href="namespaceargo_1_1data__distribution_a58576657391f45caf61bf0748a23b098.html#a58576657391f45caf61bf0748a23b098" target="_top" xlink:title="identifies if we distribute data using the first&#45;touch memory policy">
<polygon fill="white" stroke="black" points="418.5,-22 418.5,-52 545.5,-52 545.5,-22 418.5,-22"/>
<text text-anchor="start" x="426.5" y="-40" font-family="Helvetica,sans-Serif" font-size="10.00">argo::data_distribution</text>
<text text-anchor="middle" x="482" y="-29" font-family="Helvetica,sans-Serif" font-size="10.00">::is_first_touch_policy</text>
</a>
</g>
</g>
<!-- Node1&#45;&gt;Node8 -->
<g id="edge11" class="edge">
<title>Node1&#45;&gt;Node8</title>
<path fill="none" stroke="midnightblue" d="M52.06,-83.3C119.07,-76.06 304.36,-56.06 408.15,-44.86"/>
<polygon fill="midnightblue" stroke="midnightblue" points="408.68,-48.33 418.24,-43.77 407.93,-41.37 408.68,-48.33"/>
</g>
<!-- Node9 -->
<g id="node9" class="node">
<title>Node9</title>
<g id="a_node9"><a xlink:href="namespaceargo_a7839b1673e9af449cad0e94dce253721.html#a7839b1673e9af449cad0e94dce253721" target="_top" xlink:title="Number of ArgoDSM nodes being run.">
<polygon fill="white" stroke="black" points="88,-0.5 88,-19.5 219,-19.5 219,-0.5 88,-0.5"/>
<text text-anchor="middle" x="153.5" y="-7.5" font-family="Helvetica,sans-Serif" font-size="10.00">argo::number_of_nodes</text>
</a>
</g>
</g>
<!-- Node1&#45;&gt;Node9 -->
<g id="edge12" class="edge">
<title>Node1&#45;&gt;Node9</title>
<path fill="none" stroke="midnightblue" d="M36.12,-76.39C47.39,-64.98 67.6,-45.98 88,-34 94.95,-29.92 102.73,-26.32 110.4,-23.23"/>
<polygon fill="midnightblue" stroke="midnightblue" points="111.88,-26.41 120,-19.6 109.41,-19.86 111.88,-26.41"/>
</g>
<!-- Node4 -->
<g id="node4" class="node">
<title>Node4</title>
<g id="a_node4"><a xlink:href="namespaceargo_1_1data__distribution_a2a70ed49553953957c3a28aa755d7ac8.html#a2a70ed49553953957c3a28aa755d7ac8" target="_top" xlink:title="based on the chosen policy, gets the policy block size">
<polygon fill="white" stroke="black" points="255,-115 255,-145 382,-145 382,-115 255,-115"/>
<text text-anchor="start" x="263" y="-133" font-family="Helvetica,sans-Serif" font-size="10.00">argo::data_distribution</text>
<text text-anchor="middle" x="318.5" y="-122" font-family="Helvetica,sans-Serif" font-size="10.00">::policy_block_size</text>
</a>
</g>
</g>
<!-- Node3&#45;&gt;Node4 -->
<g id="edge3" class="edge">
<title>Node3&#45;&gt;Node4</title>
<path fill="none" stroke="midnightblue" d="M211.51,-128.05C222.26,-128.25 233.65,-128.46 244.8,-128.66"/>
<polygon fill="midnightblue" stroke="midnightblue" points="244.9,-132.16 254.96,-128.85 245.03,-125.17 244.9,-132.16"/>
</g>
<!-- Node4&#45;&gt;Node2 -->
<g id="edge4" class="edge">
<title>Node4&#45;&gt;Node2</title>
<path fill="none" stroke="midnightblue" d="M355.46,-145.14C374.1,-152.94 397.24,-162.56 418,-171 422.85,-172.97 427.92,-175.01 432.98,-177.04"/>
<polygon fill="midnightblue" stroke="midnightblue" points="432.06,-180.44 442.65,-180.9 434.66,-173.94 432.06,-180.44"/>
</g>
<!-- Node5 -->
<g id="node5" class="node">
<title>Node5</title>
<g id="a_node5"><a xlink:href="classargo_1_1data__distribution_1_1base__distribution_a150661b9199cd90dbdd59c6d9d593f3d.html#a150661b9199cd90dbdd59c6d9d593f3d" target="_top" xlink:title="get the backing store size per node">
<polygon fill="white" stroke="black" points="418,-120.5 418,-161.5 546,-161.5 546,-120.5 418,-120.5"/>
<text text-anchor="start" x="426" y="-149.5" font-family="Helvetica,sans-Serif" font-size="10.00">argo::data_distribution</text>
<text text-anchor="start" x="426" y="-138.5" font-family="Helvetica,sans-Serif" font-size="10.00">::base_distribution::get</text>
<text text-anchor="middle" x="482" y="-127.5" font-family="Helvetica,sans-Serif" font-size="10.00">_size_per_node</text>
</a>
</g>
</g>
<!-- Node4&#45;&gt;Node5 -->
<g id="edge5" class="edge">
<title>Node4&#45;&gt;Node5</title>
<path fill="none" stroke="midnightblue" d="M382.4,-134.28C390.65,-134.85 399.16,-135.43 407.56,-136"/>
<polygon fill="midnightblue" stroke="midnightblue" points="407.52,-139.5 417.74,-136.69 408,-132.52 407.52,-139.5"/>
</g>
<!-- Node4&#45;&gt;Node6 -->
<g id="edge6" class="edge">
<title>Node4&#45;&gt;Node6</title>
<path fill="none" stroke="midnightblue" d="M374.63,-114.98C387.94,-111.35 402.28,-107.45 416,-103.71"/>
<polygon fill="midnightblue" stroke="midnightblue" points="417.12,-107.03 425.85,-101.03 415.28,-100.28 417.12,-107.03"/>
</g>
<!-- Node4&#45;&gt;Node8 -->
<g id="edge8" class="edge">
<title>Node4&#45;&gt;Node8</title>
<path fill="none" stroke="midnightblue" d="M338.21,-114.77C357.39,-99.69 388.49,-76.65 418,-61 421.24,-59.28 424.63,-57.62 428.09,-56.04"/>
<polygon fill="midnightblue" stroke="midnightblue" points="429.56,-59.22 437.34,-52.02 426.77,-52.8 429.56,-59.22"/>
</g>
<!-- Node7 -->
<g id="node7" class="node">
<title>Node7</title>
<g id="a_node7"><a xlink:href="namespaceargo_1_1env_a25a08cb2d0d11432d640ec7173063339.html#a25a08cb2d0d11432d640ec7173063339" target="_top" xlink:title="get the allocation policy requested by environment variable">
<polygon fill="white" stroke="black" points="582,-46 582,-76 698,-76 698,-46 582,-46"/>
<text text-anchor="start" x="590" y="-64" font-family="Helvetica,sans-Serif" font-size="10.00">argo::env::allocation</text>
<text text-anchor="middle" x="640" y="-53" font-family="Helvetica,sans-Serif" font-size="10.00">_policy</text>
</a>
</g>
</g>
<!-- Node6&#45;&gt;Node7 -->
<g id="edge7" class="edge">
<title>Node6&#45;&gt;Node7</title>
<path fill="none" stroke="midnightblue" d="M545.55,-75.98C554.2,-74.59 563.12,-73.16 571.85,-71.76"/>
<polygon fill="midnightblue" stroke="midnightblue" points="572.67,-75.18 581.99,-70.14 571.56,-68.26 572.67,-75.18"/>
</g>
<!-- Node8&#45;&gt;Node7 -->
<g id="edge9" class="edge">
<title>Node8&#45;&gt;Node7</title>
<path fill="none" stroke="midnightblue" d="M545.55,-46.62C554.2,-47.95 563.12,-49.33 571.85,-50.67"/>
<polygon fill="midnightblue" stroke="midnightblue" points="571.57,-54.17 581.99,-52.23 572.64,-47.25 571.57,-54.17"/>
</g>
</g>
</svg>
