<?xml version="1.0" encoding="UTF-8" standalone="no"?>
<!DOCTYPE svg PUBLIC "-//W3C//DTD SVG 1.1//EN"
 "http://www.w3.org/Graphics/SVG/1.1/DTD/svg11.dtd">
<!-- Generated by graphviz version 2.43.0 (0)
 -->
<!-- Title: TEST_F Pages: 1 -->
<svg width="728pt" height="279pt"
 viewBox="0.00 0.00 728.00 278.50" xmlns="http://www.w3.org/2000/svg" xmlns:xlink="http://www.w3.org/1999/xlink">
<g id="graph0" class="graph" transform="scale(1 1) rotate(0) translate(4 274.5)">
<title>TEST_F</title>
<polygon fill="white" stroke="transparent" points="-4,4 -4,-274.5 724,-274.5 724,4 -4,4"/>
<!-- Node1 -->
<g id="node1" class="node">
<title>Node1</title>
<g id="a_node1"><a xlink:title="Unittest that checks correctness of the argo::get_homenode(T* addr) API function.">
<polygon fill="#bfbfbf" stroke="black" points="0,-95.5 0,-114.5 52,-114.5 52,-95.5 0,-95.5"/>
<text text-anchor="middle" x="26" y="-102.5" font-family="Helvetica,sans-Serif" font-size="10.00">TEST_F</text>
</a>
</g>
</g>
<!-- Node2 -->
<g id="node2" class="node">
<title>Node2</title>
<g id="a_node2"><a xlink:href="classargo_1_1mempools_1_1global__memory__pool_ac37f5714010e1f4b482e6c6a8a246c05.html#ac37f5714010e1f4b482e6c6a8a246c05" target="_top" xlink:title="check remaining available memory in pool">
<polygon fill="white" stroke="black" points="88,-191 88,-221 228,-221 228,-191 88,-191"/>
<text text-anchor="start" x="96" y="-209" font-family="Helvetica,sans-Serif" font-size="10.00">argo::mempools::global</text>
<text text-anchor="middle" x="158" y="-198" font-family="Helvetica,sans-Serif" font-size="10.00">_memory_pool::available</text>
</a>
</g>
</g>
<!-- Node1&#45;&gt;Node2 -->
<g id="edge1" class="edge">
<title>Node1&#45;&gt;Node2</title>
<path fill="none" stroke="midnightblue" d="M33.38,-114.97C43.41,-129.96 64.2,-158.44 88,-176 93.17,-179.82 98.91,-183.27 104.8,-186.37"/>
<polygon fill="midnightblue" stroke="midnightblue" points="103.6,-189.68 114.12,-190.94 106.68,-183.4 103.6,-189.68"/>
</g>
<!-- Node5 -->
<g id="node5" class="node">
<title>Node5</title>
<g id="a_node5"><a xlink:href="namespaceargo_a188a4648d6e7549bcef4cee36dcb5336.html#a188a4648d6e7549bcef4cee36dcb5336" target="_top" xlink:title="A unique ArgoDSM node identifier. Counting starts from 0.">
<polygon fill="white" stroke="black" points="620.5,-196.5 620.5,-215.5 703.5,-215.5 703.5,-196.5 620.5,-196.5"/>
<text text-anchor="middle" x="662" y="-203.5" font-family="Helvetica,sans-Serif" font-size="10.00">argo::node_id</text>
</a>
</g>
</g>
<!-- Node1&#45;&gt;Node5 -->
<g id="edge15" class="edge">
<title>Node1&#45;&gt;Node5</title>
<path fill="none" stroke="midnightblue" d="M38.74,-114.72C50.43,-123.79 69.28,-136.82 88,-143 291.23,-210.15 356.93,-146.46 568,-182 585,-184.86 603.43,-189.32 619.37,-193.63"/>
<polygon fill="midnightblue" stroke="midnightblue" points="618.87,-197.12 629.44,-196.42 620.73,-190.38 618.87,-197.12"/>
</g>
<!-- Node7 -->
<g id="node7" class="node">
<title>Node7</title>
<g id="a_node7"><a xlink:href="namespaceargo_a10bae1e1e60ff583384b937201a87c29.html#a10bae1e1e60ff583384b937201a87c29" target="_top" xlink:title="a barrier for ArgoDSM nodes">
<polygon fill="white" stroke="black" points="119.5,-114.5 119.5,-133.5 196.5,-133.5 196.5,-114.5 119.5,-114.5"/>
<text text-anchor="middle" x="158" y="-121.5" font-family="Helvetica,sans-Serif" font-size="10.00">argo::barrier</text>
</a>
</g>
</g>
<!-- Node1&#45;&gt;Node7 -->
<g id="edge7" class="edge">
<title>Node1&#45;&gt;Node7</title>
<path fill="none" stroke="midnightblue" d="M52.07,-108.66C68.34,-111.04 90.06,-114.22 109.52,-117.06"/>
<polygon fill="midnightblue" stroke="midnightblue" points="109.05,-120.53 119.45,-118.51 110.06,-113.6 109.05,-120.53"/>
</g>
<!-- Node8 -->
<g id="node8" class="node">
<title>Node8</title>
<g id="a_node8"><a xlink:href="src_2allocators_2allocators_8cpp_a4e8d23563c42daa5dfce669293d7e389.html#a4e8d23563c42daa5dfce669293d7e389" target="_top" xlink:title="basic collective allocation function, for C interface">
<polygon fill="white" stroke="black" points="112,-76.5 112,-95.5 204,-95.5 204,-76.5 112,-76.5"/>
<text text-anchor="middle" x="158" y="-83.5" font-family="Helvetica,sans-Serif" font-size="10.00">collective_alloc</text>
</a>
</g>
</g>
<!-- Node1&#45;&gt;Node8 -->
<g id="edge8" class="edge">
<title>Node1&#45;&gt;Node8</title>
<path fill="none" stroke="midnightblue" d="M52.07,-101.34C66.19,-99.27 84.42,-96.61 101.71,-94.08"/>
<polygon fill="midnightblue" stroke="midnightblue" points="102.36,-97.52 111.75,-92.61 101.35,-90.6 102.36,-97.52"/>
</g>
<!-- Node11 -->
<g id="node11" class="node">
<title>Node11</title>
<g id="a_node11"><a xlink:href="namespaceargo_ab1d1a73e110d3631588ee61d1dd36002.html#ab1d1a73e110d3631588ee61d1dd36002" target="_top" xlink:title="Get the ArgoDSM node id where addr is physically backed.">
<polygon fill="white" stroke="black" points="99.5,-38.5 99.5,-57.5 216.5,-57.5 216.5,-38.5 99.5,-38.5"/>
<text text-anchor="middle" x="158" y="-45.5" font-family="Helvetica,sans-Serif" font-size="10.00">argo::get_homenode</text>
</a>
</g>
</g>
<!-- Node1&#45;&gt;Node11 -->
<g id="edge11" class="edge">
<title>Node1&#45;&gt;Node11</title>
<path fill="none" stroke="midnightblue" d="M39.95,-95.38C51.9,-86.9 70.4,-74.71 88,-67 93.4,-64.64 99.16,-62.5 104.97,-60.58"/>
<polygon fill="midnightblue" stroke="midnightblue" points="106.21,-63.86 114.73,-57.56 104.15,-57.17 106.21,-63.86"/>
</g>
<!-- Node15 -->
<g id="node15" class="node">
<title>Node15</title>
<g id="a_node15"><a xlink:href="namespaceargo_a7839b1673e9af449cad0e94dce253721.html#a7839b1673e9af449cad0e94dce253721" target="_top" xlink:title="Number of ArgoDSM nodes being run.">
<polygon fill="white" stroke="black" points="92.5,-0.5 92.5,-19.5 223.5,-19.5 223.5,-0.5 92.5,-0.5"/>
<text text-anchor="middle" x="158" y="-7.5" font-family="Helvetica,sans-Serif" font-size="10.00">argo::number_of_nodes</text>
</a>
</g>
</g>
<!-- Node1&#45;&gt;Node15 -->
<g id="edge16" class="edge">
<title>Node1&#45;&gt;Node15</title>
<path fill="none" stroke="midnightblue" d="M32,-95.46C40.98,-79.27 61.42,-46.47 88,-29 91.14,-26.93 94.51,-25.09 98,-23.44"/>
<polygon fill="midnightblue" stroke="midnightblue" points="99.56,-26.59 107.47,-19.54 96.89,-20.12 99.56,-26.59"/>
</g>
<!-- Node3 -->
<g id="node3" class="node">
<title>Node3</title>
<g id="a_node3"><a xlink:href="classargo_1_1globallock_1_1global__tas__lock_ae1a2cc75c9371ed191ac68f4e72f227e.html#ae1a2cc75c9371ed191ac68f4e72f227e" target="_top" xlink:title="take the lock">
<polygon fill="white" stroke="black" points="265.5,-237 265.5,-267 396.5,-267 396.5,-237 265.5,-237"/>
<text text-anchor="start" x="273.5" y="-255" font-family="Helvetica,sans-Serif" font-size="10.00">argo::globallock::global</text>
<text text-anchor="middle" x="331" y="-244" font-family="Helvetica,sans-Serif" font-size="10.00">_tas_lock::lock</text>
</a>
</g>
</g>
<!-- Node2&#45;&gt;Node3 -->
<g id="edge2" class="edge">
<title>Node2&#45;&gt;Node3</title>
<path fill="none" stroke="midnightblue" d="M214.99,-221.06C230.72,-225.29 247.97,-229.93 264.21,-234.3"/>
<polygon fill="midnightblue" stroke="midnightblue" points="263.61,-237.76 274.17,-236.98 265.43,-231.01 263.61,-237.76"/>
</g>
<!-- Node6 -->
<g id="node6" class="node">
<title>Node6</title>
<g id="a_node6"><a xlink:href="classargo_1_1globallock_1_1global__tas__lock_a55bd610c8555b8d986541c3f669789a2.html#a55bd610c8555b8d986541c3f669789a2" target="_top" xlink:title="release the lock">
<polygon fill="white" stroke="black" points="435.5,-191 435.5,-221 566.5,-221 566.5,-191 435.5,-191"/>
<text text-anchor="start" x="443.5" y="-209" font-family="Helvetica,sans-Serif" font-size="10.00">argo::globallock::global</text>
<text text-anchor="middle" x="501" y="-198" font-family="Helvetica,sans-Serif" font-size="10.00">_tas_lock::unlock</text>
</a>
</g>
</g>
<!-- Node2&#45;&gt;Node6 -->
<g id="edge5" class="edge">
<title>Node2&#45;&gt;Node6</title>
<path fill="none" stroke="midnightblue" d="M228.01,-206C285.19,-206 366.33,-206 425.09,-206"/>
<polygon fill="midnightblue" stroke="midnightblue" points="425.43,-209.5 435.43,-206 425.43,-202.5 425.43,-209.5"/>
</g>
<!-- Node4 -->
<g id="node4" class="node">
<title>Node4</title>
<g id="a_node4"><a xlink:href="classargo_1_1globallock_1_1global__tas__lock_a89bbe556d8a271dd64d65b421993da00.html#a89bbe556d8a271dd64d65b421993da00" target="_top" xlink:title="try to lock">
<polygon fill="white" stroke="black" points="435.5,-240 435.5,-270 566.5,-270 566.5,-240 435.5,-240"/>
<text text-anchor="start" x="443.5" y="-258" font-family="Helvetica,sans-Serif" font-size="10.00">argo::globallock::global</text>
<text text-anchor="middle" x="501" y="-247" font-family="Helvetica,sans-Serif" font-size="10.00">_tas_lock::try_lock</text>
</a>
</g>
</g>
<!-- Node3&#45;&gt;Node4 -->
<g id="edge3" class="edge">
<title>Node3&#45;&gt;Node4</title>
<path fill="none" stroke="midnightblue" d="M396.95,-253.16C406.24,-253.33 415.86,-253.5 425.32,-253.67"/>
<polygon fill="midnightblue" stroke="midnightblue" points="425.44,-257.17 435.5,-253.85 425.56,-250.17 425.44,-257.17"/>
</g>
<!-- Node4&#45;&gt;Node5 -->
<g id="edge4" class="edge">
<title>Node4&#45;&gt;Node5</title>
<path fill="none" stroke="midnightblue" d="M551,-239.9C573.22,-233.05 599.17,-225.05 620.29,-218.54"/>
<polygon fill="midnightblue" stroke="midnightblue" points="621.4,-221.87 629.93,-215.58 619.34,-215.18 621.4,-221.87"/>
</g>
<!-- Node6&#45;&gt;Node5 -->
<g id="edge6" class="edge">
<title>Node6&#45;&gt;Node5</title>
<path fill="none" stroke="midnightblue" d="M566.67,-206C581.06,-206 596.12,-206 609.87,-206"/>
<polygon fill="midnightblue" stroke="midnightblue" points="610.11,-209.5 620.11,-206 610.11,-202.5 610.11,-209.5"/>
</g>
<!-- Node9 -->
<g id="node9" class="node">
<title>Node9</title>
<g id="a_node9"><a xlink:href="classargo_1_1allocators_1_1generic__allocator_ae0df0734076478aeaeb689cdb902497a.html#ae0df0734076478aeaeb689cdb902497a" target="_top" xlink:title="Allocate memory.">
<polygon fill="white" stroke="black" points="264,-77 264,-107 398,-107 398,-77 264,-77"/>
<text text-anchor="start" x="272" y="-95" font-family="Helvetica,sans-Serif" font-size="10.00">argo::allocators::generic</text>
<text text-anchor="middle" x="331" y="-84" font-family="Helvetica,sans-Serif" font-size="10.00">_allocator::allocate</text>
</a>
</g>
</g>
<!-- Node8&#45;&gt;Node9 -->
<g id="edge9" class="edge">
<title>Node8&#45;&gt;Node9</title>
<path fill="none" stroke="midnightblue" d="M204.38,-87.59C219.45,-88.12 236.68,-88.73 253.45,-89.31"/>
<polygon fill="midnightblue" stroke="midnightblue" points="253.69,-92.82 263.8,-89.68 253.93,-85.83 253.69,-92.82"/>
</g>
<!-- Node10 -->
<g id="node10" class="node">
<title>Node10</title>
<g id="a_node10"><a xlink:href="classargo_1_1allocators_1_1generic__allocator_a3a6c4c5d83d679ce7fbfe1a50f323545.html#a3a6c4c5d83d679ce7fbfe1a50f323545" target="_top" xlink:title="helper function to align a number up to the next alignment">
<polygon fill="white" stroke="black" points="434,-77 434,-107 568,-107 568,-77 434,-77"/>
<text text-anchor="start" x="442" y="-95" font-family="Helvetica,sans-Serif" font-size="10.00">argo::allocators::generic</text>
<text text-anchor="middle" x="501" y="-84" font-family="Helvetica,sans-Serif" font-size="10.00">_allocator::align_up</text>
</a>
</g>
</g>
<!-- Node9&#45;&gt;Node10 -->
<g id="edge10" class="edge">
<title>Node9&#45;&gt;Node10</title>
<path fill="none" stroke="midnightblue" d="M398.4,-92C406.68,-92 415.2,-92 423.62,-92"/>
<polygon fill="midnightblue" stroke="midnightblue" points="423.81,-95.5 433.81,-92 423.81,-88.5 423.81,-95.5"/>
</g>
<!-- Node12 -->
<g id="node12" class="node">
<title>Node12</title>
<g id="a_node12"><a xlink:href="classargo_1_1data__distribution_1_1global__ptr_a3e2cdd4d323ef91174615e27ab94e342.html#a3e2cdd4d323ef91174615e27ab94e342" target="_top" xlink:title="return the home node of the value pointed to, or a default value if the page has not yet been first&#45;t...">
<polygon fill="white" stroke="black" points="265.5,-28 265.5,-58 396.5,-58 396.5,-28 265.5,-28"/>
<text text-anchor="start" x="273.5" y="-46" font-family="Helvetica,sans-Serif" font-size="10.00">argo::data_distribution</text>
<text text-anchor="middle" x="331" y="-35" font-family="Helvetica,sans-Serif" font-size="10.00">::global_ptr::peek_node</text>
</a>
</g>
</g>
<!-- Node11&#45;&gt;Node12 -->
<g id="edge12" class="edge">
<title>Node11&#45;&gt;Node12</title>
<path fill="none" stroke="midnightblue" d="M216.89,-46.31C229.2,-45.95 242.37,-45.56 255.2,-45.19"/>
<polygon fill="midnightblue" stroke="midnightblue" points="255.51,-48.68 265.41,-44.89 255.31,-41.68 255.51,-48.68"/>
</g>
<!-- Node13 -->
<g id="node13" class="node">
<title>Node13</title>
<g id="a_node13"><a xlink:href="classargo_1_1data__distribution_1_1global__ptr_ae4353680349f6abbd2cf262dace8e2f2.html#ae4353680349f6abbd2cf262dace8e2f2" target="_top" xlink:title="return a pointer to the selected allocation policy">
<polygon fill="white" stroke="black" points="437.5,-28 437.5,-58 564.5,-58 564.5,-28 437.5,-28"/>
<text text-anchor="start" x="445.5" y="-46" font-family="Helvetica,sans-Serif" font-size="10.00">argo::data_distribution</text>
<text text-anchor="middle" x="501" y="-35" font-family="Helvetica,sans-Serif" font-size="10.00">::global_ptr::policy</text>
</a>
</g>
</g>
<!-- Node12&#45;&gt;Node13 -->
<g id="edge13" class="edge">
<title>Node12&#45;&gt;Node13</title>
<path fill="none" stroke="midnightblue" d="M396.95,-43C406.93,-43 417.28,-43 427.4,-43"/>
<polygon fill="midnightblue" stroke="midnightblue" points="427.43,-46.5 437.43,-43 427.43,-39.5 427.43,-46.5"/>
</g>
<!-- Node14 -->
<g id="node14" class="node">
<title>Node14</title>
<g id="a_node14"><a xlink:href="namespaceargo_1_1env_a25a08cb2d0d11432d640ec7173063339.html#a25a08cb2d0d11432d640ec7173063339" target="_top" xlink:title="get the allocation policy requested by environment variable">
<polygon fill="white" stroke="black" points="604,-28 604,-58 720,-58 720,-28 604,-28"/>
<text text-anchor="start" x="612" y="-46" font-family="Helvetica,sans-Serif" font-size="10.00">argo::env::allocation</text>
<text text-anchor="middle" x="662" y="-35" font-family="Helvetica,sans-Serif" font-size="10.00">_policy</text>
</a>
</g>
</g>
<!-- Node13&#45;&gt;Node14 -->
<g id="edge14" class="edge">
<title>Node13&#45;&gt;Node14</title>
<path fill="none" stroke="midnightblue" d="M564.84,-43C574.28,-43 584.04,-43 593.56,-43"/>
<polygon fill="midnightblue" stroke="midnightblue" points="593.78,-46.5 603.78,-43 593.78,-39.5 593.78,-46.5"/>
</g>
</g>
</svg>
