<?xml version="1.0" encoding="UTF-8" standalone="no"?>
<!DOCTYPE svg PUBLIC "-//W3C//DTD SVG 1.1//EN"
 "http://www.w3.org/Graphics/SVG/1.1/DTD/svg11.dtd">
<!-- Generated by graphviz version 2.43.0 (0)
 -->
<!-- Title: /home/projectcs&#45;2022/argodsmBuffer/argodsmPrefetching/src/argo.h Pages: 1 -->
<svg width="490pt" height="173pt"
 viewBox="0.00 0.00 490.00 173.00" xmlns="http://www.w3.org/2000/svg" xmlns:xlink="http://www.w3.org/1999/xlink">
<g id="graph0" class="graph" transform="scale(1 1) rotate(0) translate(4 169)">
<title>/home/projectcs&#45;2022/argodsmBuffer/argodsmPrefetching/src/argo.h</title>
<polygon fill="white" stroke="transparent" points="-4,4 -4,-169 486,-169 486,4 -4,4"/>
<!-- Node1 -->
<g id="node1" class="node">
<title>Node1</title>
<g id="a_node1"><a xlink:title="This file provides the full C interface to ArgoDSM.">
<polygon fill="#bfbfbf" stroke="black" points="53.5,-123.5 53.5,-164.5 246.5,-164.5 246.5,-123.5 53.5,-123.5"/>
<text text-anchor="start" x="61.5" y="-152.5" font-family="Helvetica,sans-Serif" font-size="10.00">/home/projectcs&#45;2022</text>
<text text-anchor="start" x="61.5" y="-141.5" font-family="Helvetica,sans-Serif" font-size="10.00">/argodsmBuffer/argodsmPrefetching</text>
<text text-anchor="middle" x="150" y="-130.5" font-family="Helvetica,sans-Serif" font-size="10.00">/src/argo.h</text>
</a>
</g>
</g>
<!-- Node2 -->
<g id="node2" class="node">
<title>Node2</title>
<g id="a_node2"><a xlink:title=" ">
<polygon fill="white" stroke="#bfbfbf" points="0,-67.5 0,-86.5 62,-86.5 62,-67.5 0,-67.5"/>
<text text-anchor="middle" x="31" y="-74.5" font-family="Helvetica,sans-Serif" font-size="10.00">stdbool.h</text>
</a>
</g>
</g>
<!-- Node1&#45;&gt;Node2 -->
<g id="edge1" class="edge">
<title>Node1&#45;&gt;Node2</title>
<path fill="none" stroke="midnightblue" d="M114.3,-123.5C95.52,-113.24 72.97,-100.93 56.07,-91.69"/>
<polygon fill="midnightblue" stroke="midnightblue" points="57.29,-88.37 46.84,-86.65 53.94,-94.52 57.29,-88.37"/>
</g>
<!-- Node3 -->
<g id="node3" class="node">
<title>Node3</title>
<g id="a_node3"><a xlink:title=" ">
<polygon fill="white" stroke="#bfbfbf" points="136,-6 136,-25 192,-25 192,-6 136,-6"/>
<text text-anchor="middle" x="164" y="-13" font-family="Helvetica,sans-Serif" font-size="10.00">stddef.h</text>
</a>
</g>
</g>
<!-- Node1&#45;&gt;Node3 -->
<g id="edge2" class="edge">
<title>Node1&#45;&gt;Node3</title>
<path fill="none" stroke="midnightblue" d="M128.34,-123.44C114.37,-108.34 100.32,-86.76 109,-67 115.55,-52.1 128.9,-39.67 140.81,-30.87"/>
<polygon fill="midnightblue" stroke="midnightblue" points="142.88,-33.69 149.1,-25.12 138.89,-27.94 142.88,-33.69"/>
</g>
<!-- Node4 -->
<g id="node4" class="node">
<title>Node4</title>
<g id="a_node4"><a xlink:href="allocators_8h.html" target="_top" xlink:title="This file provides all C allocators for ArgoDSM.">
<polygon fill="white" stroke="black" points="319.5,-67.5 319.5,-86.5 444.5,-86.5 444.5,-67.5 319.5,-67.5"/>
<text text-anchor="middle" x="382" y="-74.5" font-family="Helvetica,sans-Serif" font-size="10.00">allocators/allocators.h</text>
</a>
</g>
</g>
<!-- Node1&#45;&gt;Node4 -->
<g id="edge3" class="edge">
<title>Node1&#45;&gt;Node4</title>
<path fill="none" stroke="midnightblue" d="M219.61,-123.5C259.4,-112.35 307.92,-98.76 341.5,-89.35"/>
<polygon fill="midnightblue" stroke="midnightblue" points="342.74,-92.64 351.42,-86.57 340.85,-85.89 342.74,-92.64"/>
</g>
<!-- Node7 -->
<g id="node7" class="node">
<title>Node7</title>
<g id="a_node7"><a xlink:href="synchronization_8h.html" target="_top" xlink:title="This file provides C bindings for some ArgoDSM synchronization primitives.">
<polygon fill="white" stroke="black" points="118.5,-67.5 118.5,-86.5 301.5,-86.5 301.5,-67.5 118.5,-67.5"/>
<text text-anchor="middle" x="210" y="-74.5" font-family="Helvetica,sans-Serif" font-size="10.00">synchronization/synchronization.h</text>
</a>
</g>
</g>
<!-- Node1&#45;&gt;Node7 -->
<g id="edge6" class="edge">
<title>Node1&#45;&gt;Node7</title>
<path fill="none" stroke="midnightblue" d="M168,-123.5C176.67,-114.11 186.94,-102.98 195.15,-94.08"/>
<polygon fill="midnightblue" stroke="midnightblue" points="197.8,-96.37 202.01,-86.65 192.66,-91.63 197.8,-96.37"/>
</g>
<!-- Node5 -->
<g id="node5" class="node">
<title>Node5</title>
<g id="a_node5"><a xlink:href="collective__allocator_8h.html" target="_top" xlink:title="This file provides the collective allocator for ArgoDSM.">
<polygon fill="white" stroke="black" points="238.5,-0.5 238.5,-30.5 353.5,-30.5 353.5,-0.5 238.5,-0.5"/>
<text text-anchor="start" x="246.5" y="-18.5" font-family="Helvetica,sans-Serif" font-size="10.00">allocators/collective</text>
<text text-anchor="middle" x="296" y="-7.5" font-family="Helvetica,sans-Serif" font-size="10.00">_allocator.h</text>
</a>
</g>
</g>
<!-- Node4&#45;&gt;Node5 -->
<g id="edge4" class="edge">
<title>Node4&#45;&gt;Node5</title>
<path fill="none" stroke="midnightblue" d="M369.68,-67.48C358.03,-59.42 340.12,-47.02 324.87,-36.47"/>
<polygon fill="midnightblue" stroke="midnightblue" points="326.48,-33.33 316.27,-30.52 322.5,-39.09 326.48,-33.33"/>
</g>
<!-- Node6 -->
<g id="node6" class="node">
<title>Node6</title>
<g id="a_node6"><a xlink:href="dynamic__allocator_8h.html" target="_top" xlink:title="This file provides the dynamic allocator for ArgoDSM.">
<polygon fill="white" stroke="black" points="372,-0.5 372,-30.5 482,-30.5 482,-0.5 372,-0.5"/>
<text text-anchor="start" x="380" y="-18.5" font-family="Helvetica,sans-Serif" font-size="10.00">allocators/dynamic</text>
<text text-anchor="middle" x="427" y="-7.5" font-family="Helvetica,sans-Serif" font-size="10.00">_allocator.h</text>
</a>
</g>
</g>
<!-- Node4&#45;&gt;Node6 -->
<g id="edge5" class="edge">
<title>Node4&#45;&gt;Node6</title>
<path fill="none" stroke="midnightblue" d="M388.45,-67.48C394.14,-59.94 402.7,-48.63 410.31,-38.57"/>
<polygon fill="midnightblue" stroke="midnightblue" points="413.15,-40.61 416.39,-30.52 407.57,-36.39 413.15,-40.61"/>
</g>
<!-- Node7&#45;&gt;Node3 -->
<g id="edge7" class="edge">
<title>Node7&#45;&gt;Node3</title>
<path fill="none" stroke="midnightblue" d="M203.41,-67.48C196.51,-58.55 185.5,-44.31 176.87,-33.14"/>
<polygon fill="midnightblue" stroke="midnightblue" points="179.46,-30.78 170.58,-25.01 173.93,-35.06 179.46,-30.78"/>
</g>
</g>
</svg>
