<?xml version="1.0" encoding="UTF-8" standalone="no"?>
<!DOCTYPE svg PUBLIC "-//W3C//DTD SVG 1.1//EN"
 "http://www.w3.org/Graphics/SVG/1.1/DTD/svg11.dtd">
<!-- Generated by graphviz version 2.43.0 (0)
 -->
<!-- Title: argo_init Pages: 1 -->
<!--zoomable 396 -->
<svg id="main" version="1.1" xmlns="http://www.w3.org/2000/svg" xmlns:xlink="http://www.w3.org/1999/xlink" xml:space="preserve" onload="init(evt)">
<style type="text/css"><![CDATA[
.edge:hover path { stroke: red; }
.edge:hover polygon { stroke: red; fill: red; }
]]></style>
<script type="text/javascript"><![CDATA[
var edges = document.getElementsByTagName('g');
if (edges && edges.length) {
  for (var i=0;i<edges.length;i++) {
    if (edges[i].id.substr(0,4)=='edge') {
      edges[i].setAttribute('class','edge');
    }
  }
}
]]></script>
        <defs>
                <circle id="rim" cx="0" cy="0" r="7"/>
                <circle id="rim2" cx="0" cy="0" r="3.5"/>
                <g id="zoomPlus">
                        <use xlink:href="#rim" fill="#404040">
                                <set attributeName="fill" to="#808080" begin="zoomplus.mouseover" end="zoomplus.mouseout"/>
                        </use>
                        <path d="M-4,0h8M0,-4v8" fill="none" stroke="white" stroke-width="1.5" pointer-events="none"/>
                </g>
                <g id="zoomMin">
                        <use xlink:href="#rim" fill="#404040">
                                <set attributeName="fill" to="#808080" begin="zoomminus.mouseover" end="zoomminus.mouseout"/>
                        </use>
                        <path d="M-4,0h8" fill="none" stroke="white" stroke-width="1.5" pointer-events="none"/>
                </g>
                <g id="dirArrow">
                        <path fill="none" stroke="white" stroke-width="1.5" d="M0,-3.0v7 M-2.5,-0.5L0,-3.0L2.5,-0.5"/>
                </g>
               <g id="resetDef">
                       <use xlink:href="#rim2" fill="#404040">
                               <set attributeName="fill" to="#808080" begin="reset.mouseover" end="reset.mouseout"/>
                       </use>
               </g>
        </defs>

<script type="text/javascript">
var viewWidth = 789;
var viewHeight = 396;
var sectionId = 'dynsection-0';
</script>
<script xlink:href="svgpan.js"/>
<svg id="graph" class="graph">
<g id="viewport">
<title>argo_init</title>
<polygon fill="white" stroke="transparent" points="-4,4 -4,-392 785,-392 785,4 -4,4"/>
<!-- Node1 -->
<g id="node1" class="node">
<title>Node1</title>
<g id="a_node1"><a xlink:title="initialize ArgoDSM system">
<polygon fill="#bfbfbf" stroke="black" points="0,-194 0,-213 59,-213 59,-194 0,-194"/>
<text text-anchor="middle" x="29.5" y="-201" font-family="Helvetica,sans-Serif" font-size="10.00">argo_init</text>
</a>
</g>
</g>
<!-- Node2 -->
<g id="node2" class="node">
<title>Node2</title>
<g id="a_node2"><a xlink:href="namespaceargo_a31330d8b35bd7f9ef9880eec82339c54.html#a31330d8b35bd7f9ef9880eec82339c54" target="_top" xlink:title="initialize ArgoDSM system">
<polygon fill="white" stroke="black" points="95,-194 95,-213 155,-213 155,-194 95,-194"/>
<text text-anchor="middle" x="125" y="-201" font-family="Helvetica,sans-Serif" font-size="10.00">argo::init</text>
</a>
</g>
</g>
<!-- Node1&#45;&gt;Node2 -->
<g id="edge1" class="edge">
<title>Node1&#45;&gt;Node2</title>
<path fill="none" stroke="midnightblue" d="M59.06,-203.5C67.16,-203.5 76.11,-203.5 84.72,-203.5"/>
<polygon fill="midnightblue" stroke="midnightblue" points="84.97,-207 94.97,-203.5 84.97,-200 84.97,-207"/>
</g>
<!-- Node3 -->
<g id="node3" class="node">
<title>Node3</title>
<g id="a_node3"><a xlink:href="namespaceargo_1_1env_a30775a9aa41b956df7474a2c0cc317aa.html#a30775a9aa41b956df7474a2c0cc317aa" target="_top" xlink:title="get the allocation block size requested by environment variable">
<polygon fill="white" stroke="black" points="203,-357.5 203,-387.5 319,-387.5 319,-357.5 203,-357.5"/>
<text text-anchor="start" x="211" y="-375.5" font-family="Helvetica,sans-Serif" font-size="10.00">argo::env::allocation</text>
<text text-anchor="middle" x="261" y="-364.5" font-family="Helvetica,sans-Serif" font-size="10.00">_block_size</text>
</a>
</g>
</g>
<!-- Node2&#45;&gt;Node3 -->
<g id="edge2" class="edge">
<title>Node2&#45;&gt;Node3</title>
<path fill="none" stroke="midnightblue" d="M127.61,-213.16C132.39,-238.92 148.91,-309.91 191,-348.5 192.29,-349.68 193.63,-350.8 195.03,-351.87"/>
<polygon fill="midnightblue" stroke="midnightblue" points="193.23,-354.87 203.51,-357.4 197.05,-349 193.23,-354.87"/>
</g>
<!-- Node4 -->
<g id="node4" class="node">
<title>Node4</title>
<g id="a_node4"><a xlink:href="namespaceargo_1_1env_a25a08cb2d0d11432d640ec7173063339.html#a25a08cb2d0d11432d640ec7173063339" target="_top" xlink:title="get the allocation policy requested by environment variable">
<polygon fill="white" stroke="black" points="203,-308.5 203,-338.5 319,-338.5 319,-308.5 203,-308.5"/>
<text text-anchor="start" x="211" y="-326.5" font-family="Helvetica,sans-Serif" font-size="10.00">argo::env::allocation</text>
<text text-anchor="middle" x="261" y="-315.5" font-family="Helvetica,sans-Serif" font-size="10.00">_policy</text>
</a>
</g>
</g>
<!-- Node2&#45;&gt;Node4 -->
<g id="edge3" class="edge">
<title>Node2&#45;&gt;Node4</title>
<path fill="none" stroke="midnightblue" d="M130.07,-213.05C138.61,-232.01 160.2,-274.63 191,-298.5 193.31,-300.29 195.77,-301.96 198.32,-303.52"/>
<polygon fill="midnightblue" stroke="midnightblue" points="196.84,-306.7 207.3,-308.4 200.18,-300.55 196.84,-306.7"/>
</g>
<!-- Node5 -->
<g id="node5" class="node">
<title>Node5</title>
<g id="a_node5"><a xlink:href="namespaceargo_1_1env_aa118cb239143d769e04b17d2a98d48a2.html#aa118cb239143d769e04b17d2a98d48a2" target="_top" xlink:title="get the cache size requested by environment variable">
<polygon fill="white" stroke="black" points="200.5,-270 200.5,-289 321.5,-289 321.5,-270 200.5,-270"/>
<text text-anchor="middle" x="261" y="-277" font-family="Helvetica,sans-Serif" font-size="10.00">argo::env::cache_size</text>
</a>
</g>
</g>
<!-- Node2&#45;&gt;Node5 -->
<g id="edge4" class="edge">
<title>Node2&#45;&gt;Node5</title>
<path fill="none" stroke="midnightblue" d="M134.26,-213.05C145.74,-225.73 167.75,-247.97 191,-260.5 195.22,-262.78 199.74,-264.8 204.37,-266.59"/>
<polygon fill="midnightblue" stroke="midnightblue" points="203.36,-269.95 213.96,-269.95 205.68,-263.34 203.36,-269.95"/>
</g>
<!-- Node6 -->
<g id="node6" class="node">
<title>Node6</title>
<g id="a_node6"><a xlink:href="namespaceargo_1_1env_a3b366d9bdcdee4e6d3ff4f95ecd5d56f.html#a3b366d9bdcdee4e6d3ff4f95ecd5d56f" target="_top" xlink:title="read and store environment variables used by ArgoDSM">
<polygon fill="white" stroke="black" points="219.5,-232 219.5,-251 302.5,-251 302.5,-232 219.5,-232"/>
<text text-anchor="middle" x="261" y="-239" font-family="Helvetica,sans-Serif" font-size="10.00">argo::env::init</text>
</a>
</g>
</g>
<!-- Node2&#45;&gt;Node6 -->
<g id="edge5" class="edge">
<title>Node2&#45;&gt;Node6</title>
<path fill="none" stroke="midnightblue" d="M155.09,-212.11C166.3,-215.4 179.24,-219.16 191,-222.5 198.82,-224.72 207.15,-227.04 215.21,-229.28"/>
<polygon fill="midnightblue" stroke="midnightblue" points="214.3,-232.66 224.87,-231.94 216.16,-225.91 214.3,-232.66"/>
</g>
<!-- Node7 -->
<g id="node7" class="node">
<title>Node7</title>
<g id="a_node7"><a xlink:href="namespaceargo_1_1env_ae6176c970333c2145a90bf1280caad03.html#ae6176c970333c2145a90bf1280caad03" target="_top" xlink:title="get the number of pages fetched remotely per load requested by environment variable">
<polygon fill="white" stroke="black" points="204.5,-194 204.5,-213 317.5,-213 317.5,-194 204.5,-194"/>
<text text-anchor="middle" x="261" y="-201" font-family="Helvetica,sans-Serif" font-size="10.00">argo::env::load_size</text>
</a>
</g>
</g>
<!-- Node2&#45;&gt;Node7 -->
<g id="edge6" class="edge">
<title>Node2&#45;&gt;Node7</title>
<path fill="none" stroke="midnightblue" d="M155.08,-203.5C166.55,-203.5 180.23,-203.5 193.86,-203.5"/>
<polygon fill="midnightblue" stroke="midnightblue" points="194.24,-207 204.24,-203.5 194.24,-200 194.24,-207"/>
</g>
<!-- Node8 -->
<g id="node8" class="node">
<title>Node8</title>
<g id="a_node8"><a xlink:href="namespaceargo_1_1env_af1be596a06fd9e786462c96442172689.html#af1be596a06fd9e786462c96442172689" target="_top" xlink:title="get the memory size requested by environment variable">
<polygon fill="white" stroke="black" points="194,-156 194,-175 328,-175 328,-156 194,-156"/>
<text text-anchor="middle" x="261" y="-163" font-family="Helvetica,sans-Serif" font-size="10.00">argo::env::memory_size</text>
</a>
</g>
</g>
<!-- Node2&#45;&gt;Node8 -->
<g id="edge7" class="edge">
<title>Node2&#45;&gt;Node8</title>
<path fill="none" stroke="midnightblue" d="M155.09,-194.89C166.3,-191.6 179.24,-187.84 191,-184.5 198.82,-182.28 207.15,-179.96 215.21,-177.72"/>
<polygon fill="midnightblue" stroke="midnightblue" points="216.16,-181.09 224.87,-175.06 214.3,-174.34 216.16,-181.09"/>
</g>
<!-- Node9 -->
<g id="node9" class="node">
<title>Node9</title>
<g id="a_node9"><a xlink:href="namespaceargo_1_1env_af0546797fdfef892582c5d398e7e08a4.html#af0546797fdfef892582c5d398e7e08a4" target="_top" xlink:title="get the number of MPI windows per node requested">
<polygon fill="white" stroke="black" points="194,-106.5 194,-136.5 328,-136.5 328,-106.5 194,-106.5"/>
<text text-anchor="start" x="202" y="-124.5" font-family="Helvetica,sans-Serif" font-size="10.00">argo::env::mpi_windows</text>
<text text-anchor="middle" x="261" y="-113.5" font-family="Helvetica,sans-Serif" font-size="10.00">_per_node</text>
</a>
</g>
</g>
<!-- Node2&#45;&gt;Node9 -->
<g id="edge8" class="edge">
<title>Node2&#45;&gt;Node9</title>
<path fill="none" stroke="midnightblue" d="M134.81,-193.79C146.57,-181.34 168.52,-159.79 191,-146.5 194.42,-144.48 198.03,-142.58 201.73,-140.8"/>
<polygon fill="midnightblue" stroke="midnightblue" points="203.37,-143.91 211.07,-136.64 200.51,-137.51 203.37,-143.91"/>
</g>
<!-- Node10 -->
<g id="node10" class="node">
<title>Node10</title>
<g id="a_node10"><a xlink:href="namespaceargo_1_1env_aa95264f94d7d3fa32d7f5c133818bdea.html#aa95264f94d7d3fa32d7f5c133818bdea" target="_top" xlink:title="Get the requested statistics print level.">
<polygon fill="white" stroke="black" points="191,-68 191,-87 331,-87 331,-68 191,-68"/>
<text text-anchor="middle" x="261" y="-75" font-family="Helvetica,sans-Serif" font-size="10.00">argo::env::print_statistics</text>
</a>
</g>
</g>
<!-- Node2&#45;&gt;Node10 -->
<g id="edge9" class="edge">
<title>Node2&#45;&gt;Node10</title>
<path fill="none" stroke="midnightblue" d="M129.15,-193.95C136.51,-173.15 156.84,-123.55 191,-97.5 194.15,-95.1 197.57,-92.99 201.16,-91.13"/>
<polygon fill="midnightblue" stroke="midnightblue" points="202.65,-94.3 210.34,-87.01 199.79,-87.91 202.65,-94.3"/>
</g>
<!-- Node11 -->
<g id="node11" class="node">
<title>Node11</title>
<g id="a_node11"><a xlink:href="namespaceargo_a7525b3ba02c8025202fd1cd6756e5e4e.html#a7525b3ba02c8025202fd1cd6756e5e4e" target="_top" xlink:title="reset ArgoDSM system">
<polygon fill="white" stroke="black" points="226.5,-30 226.5,-49 295.5,-49 295.5,-30 226.5,-30"/>
<text text-anchor="middle" x="261" y="-37" font-family="Helvetica,sans-Serif" font-size="10.00">argo::reset</text>
</a>
</g>
</g>
<!-- Node2&#45;&gt;Node11 -->
<g id="edge10" class="edge">
<title>Node2&#45;&gt;Node11</title>
<path fill="none" stroke="midnightblue" d="M127.47,-193.68C131.91,-167.54 147.66,-95.68 191,-58.5 198.2,-52.32 207.25,-48.14 216.4,-45.31"/>
<polygon fill="midnightblue" stroke="midnightblue" points="217.48,-48.64 226.28,-42.74 215.72,-41.87 217.48,-48.64"/>
</g>
<!-- Node12 -->
<g id="node12" class="node">
<title>Node12</title>
<g id="a_node12"><a xlink:href="namespaceargo_a618c32926aa8b74173868cf7e1fbcaf4.html#a618c32926aa8b74173868cf7e1fbcaf4" target="_top" xlink:title="reset ArgoDSM allocators">
<polygon fill="white" stroke="black" points="367,-30 367,-49 489,-49 489,-30 367,-30"/>
<text text-anchor="middle" x="428" y="-37" font-family="Helvetica,sans-Serif" font-size="10.00">argo::reset_allocators</text>
</a>
</g>
</g>
<!-- Node11&#45;&gt;Node12 -->
<g id="edge11" class="edge">
<title>Node11&#45;&gt;Node12</title>
<path fill="none" stroke="midnightblue" d="M295.79,-39.5C313.37,-39.5 335.55,-39.5 356.65,-39.5"/>
<polygon fill="midnightblue" stroke="midnightblue" points="356.89,-43 366.89,-39.5 356.89,-36 356.89,-43"/>
</g>
<!-- Node13 -->
<g id="node13" class="node">
<title>Node13</title>
<g id="a_node13"><a xlink:href="classargo_1_1mempools_1_1global__memory__pool_a382544f1b6de66b437e8034097313cc8.html#a382544f1b6de66b437e8034097313cc8" target="_top" xlink:title="Resets the memory pool to the initial state instead of de&#45;allocating and (re)allocating all buffers a...">
<polygon fill="white" stroke="black" points="527.5,-49.5 527.5,-79.5 659.5,-79.5 659.5,-49.5 527.5,-49.5"/>
<text text-anchor="start" x="535.5" y="-67.5" font-family="Helvetica,sans-Serif" font-size="10.00">argo::mempools::global</text>
<text text-anchor="middle" x="593.5" y="-56.5" font-family="Helvetica,sans-Serif" font-size="10.00">_memory_pool::reset</text>
</a>
</g>
</g>
<!-- Node12&#45;&gt;Node13 -->
<g id="edge12" class="edge">
<title>Node12&#45;&gt;Node13</title>
<path fill="none" stroke="midnightblue" d="M489.42,-48.74C498.5,-50.13 507.97,-51.57 517.31,-53"/>
<polygon fill="midnightblue" stroke="midnightblue" points="516.97,-56.49 527.39,-54.54 518.03,-49.57 516.97,-56.49"/>
</g>
<!-- Node15 -->
<g id="node15" class="node">
<title>Node15</title>
<g id="a_node15"><a xlink:href="classargo_1_1allocators_1_1generic__allocator_af7bba2f941e23af3efd7b06a7feeb296.html#af7bba2f941e23af3efd7b06a7feeb296" target="_top" xlink:title="set memory pool">
<polygon fill="white" stroke="black" points="525,-0.5 525,-30.5 662,-30.5 662,-0.5 525,-0.5"/>
<text text-anchor="start" x="533" y="-18.5" font-family="Helvetica,sans-Serif" font-size="10.00">argo::allocators::generic</text>
<text text-anchor="middle" x="593.5" y="-7.5" font-family="Helvetica,sans-Serif" font-size="10.00">_allocator::set_mempool</text>
</a>
</g>
</g>
<!-- Node12&#45;&gt;Node15 -->
<g id="edge14" class="edge">
<title>Node12&#45;&gt;Node15</title>
<path fill="none" stroke="midnightblue" d="M489.42,-30.63C497.72,-29.41 506.34,-28.15 514.9,-26.89"/>
<polygon fill="midnightblue" stroke="midnightblue" points="515.51,-30.34 524.89,-25.42 514.49,-23.41 515.51,-30.34"/>
</g>
<!-- Node14 -->
<g id="node14" class="node">
<title>Node14</title>
<g id="a_node14"><a xlink:href="namespaceargo_a188a4648d6e7549bcef4cee36dcb5336.html#a188a4648d6e7549bcef4cee36dcb5336" target="_top" xlink:title="A unique ArgoDSM node identifier. Counting starts from 0.">
<polygon fill="white" stroke="black" points="698,-55 698,-74 781,-74 781,-55 698,-55"/>
<text text-anchor="middle" x="739.5" y="-62" font-family="Helvetica,sans-Serif" font-size="10.00">argo::node_id</text>
</a>
</g>
</g>
<!-- Node13&#45;&gt;Node14 -->
<g id="edge13" class="edge">
<title>Node13&#45;&gt;Node14</title>
<path fill="none" stroke="midnightblue" d="M659.76,-64.5C669.07,-64.5 678.52,-64.5 687.5,-64.5"/>
<polygon fill="midnightblue" stroke="midnightblue" points="687.79,-68 697.79,-64.5 687.79,-61 687.79,-68"/>
</g>
</g>
</svg>
        <g id="navigator" transform="translate(0 0)" fill="#404254">
                <rect fill="#f2f5e9" fill-opacity="0.5" stroke="#606060" stroke-width=".5" x="0" y="0" width="60" height="60"/>
                <use id="zoomplus" xlink:href="#zoomPlus" x="17" y="9" onmousedown="handleZoom(evt,'in')"/>
                <use id="zoomminus" xlink:href="#zoomMin" x="42" y="9" onmousedown="handleZoom(evt,'out')"/>
                <use id="reset" xlink:href="#resetDef" x="30" y="36" onmousedown="handleReset()"/>
                <g id="arrowUp" xlink:href="#dirArrow" transform="translate(30 24)" onmousedown="handlePan(0,-1)">
                  <use xlink:href="#rim" fill="#404040">
                        <set attributeName="fill" to="#808080" begin="arrowUp.mouseover" end="arrowUp.mouseout"/>
                  </use>
                  <path fill="none" stroke="white" stroke-width="1.5" d="M0,-3.0v7 M-2.5,-0.5L0,-3.0L2.5,-0.5"/>
                </g>
                <g id="arrowRight" xlink:href="#dirArrow" transform="rotate(90) translate(36 -43)" onmousedown="handlePan(1,0)">
                  <use xlink:href="#rim" fill="#404040">
                        <set attributeName="fill" to="#808080" begin="arrowRight.mouseover" end="arrowRight.mouseout"/>
                  </use>
                  <path fill="none" stroke="white" stroke-width="1.5" d="M0,-3.0v7 M-2.5,-0.5L0,-3.0L2.5,-0.5"/>
                </g>
                <g id="arrowDown" xlink:href="#dirArrow" transform="rotate(180) translate(-30 -48)" onmousedown="handlePan(0,1)">
                  <use xlink:href="#rim" fill="#404040">
                        <set attributeName="fill" to="#808080" begin="arrowDown.mouseover" end="arrowDown.mouseout"/>
                  </use>
                  <path fill="none" stroke="white" stroke-width="1.5" d="M0,-3.0v7 M-2.5,-0.5L0,-3.0L2.5,-0.5"/>
                </g>
                <g id="arrowLeft" xlink:href="#dirArrow" transform="rotate(270) translate(-36 17)" onmousedown="handlePan(-1,0)">
                  <use xlink:href="#rim" fill="#404040">
                        <set attributeName="fill" to="#808080" begin="arrowLeft.mouseover" end="arrowLeft.mouseout"/>
                  </use>
                  <path fill="none" stroke="white" stroke-width="1.5" d="M0,-3.0v7 M-2.5,-0.5L0,-3.0L2.5,-0.5"/>
                </g>
        </g>
        <svg viewBox="0 0 15 15" width="100%" height="30px" preserveAspectRatio="xMaxYMin meet">
         <g id="arrow_out" transform="scale(0.3 0.3)">
          <a xlink:href="argo_8h_aa84680ad78c3598c30a482ff71ec6bbc_aa84680ad78c3598c30a482ff71ec6bbc_cgraph_org.svg" target="_base">
           <rect id="button" ry="5" rx="5" y="6" x="6" height="38" width="38"
                fill="#f2f5e9" fill-opacity="0.5" stroke="#606060" stroke-width="1.0"/>
           <path id="arrow"
             d="M 11.500037,31.436501 C 11.940474,20.09759 22.043105,11.32322 32.158766,21.979434 L 37.068811,17.246167 C 37.068811,17.246167 37.088388,32 37.088388,32 L 22.160133,31.978069 C 22.160133,31.978069 26.997745,27.140456 26.997745,27.140456 C 18.528582,18.264221 13.291696,25.230495 11.500037,31.436501 z"
             style="fill:#404040;"/>
          </a>
         </g>
        </svg>
</svg>
