<?xml version="1.0" encoding="UTF-8" standalone="no"?>
<!DOCTYPE svg PUBLIC "-//W3C//DTD SVG 1.1//EN"
 "http://www.w3.org/Graphics/SVG/1.1/DTD/svg11.dtd">
<!-- Generated by graphviz version 2.43.0 (0)
 -->
<!-- Title: argo::backend::selective_acquire Pages: 1 -->
<svg width="960pt" height="268pt"
 viewBox="0.00 0.00 960.00 267.50" xmlns="http://www.w3.org/2000/svg" xmlns:xlink="http://www.w3.org/1999/xlink">
<g id="graph0" class="graph" transform="scale(1 1) rotate(0) translate(4 263.5)">
<title>argo::backend::selective_acquire</title>
<polygon fill="white" stroke="transparent" points="-4,4 -4,-263.5 956,-263.5 956,4 -4,4"/>
<!-- Node1 -->
<g id="node1" class="node">
<title>Node1</title>
<g id="a_node1"><a xlink:title="causes a node to self&#45;invalidate the specified pages from its cache, and thus getting any updated val...">
<polygon fill="#bfbfbf" stroke="black" points="0,-109 0,-139 135,-139 135,-109 0,-109"/>
<text text-anchor="start" x="8" y="-127" font-family="Helvetica,sans-Serif" font-size="10.00">argo::backend::selective</text>
<text text-anchor="middle" x="67.5" y="-116" font-family="Helvetica,sans-Serif" font-size="10.00">_acquire</text>
</a>
</g>
</g>
<!-- Node1&#45;&gt;Node1 -->
<g id="edge13" class="edge">
<title>Node1&#45;&gt;Node1</title>
<path fill="none" stroke="midnightblue" d="M37.53,-139.16C30.3,-148.56 40.29,-157.5 67.5,-157.5 84.08,-157.5 94.27,-154.18 98.06,-149.46"/>
<polygon fill="midnightblue" stroke="midnightblue" points="101.54,-148.94 97.47,-139.16 94.55,-149.34 101.54,-148.94"/>
</g>
<!-- Node2 -->
<g id="node2" class="node">
<title>Node2</title>
<g id="a_node2"><a xlink:href="backend_8hpp_a0fb29a8253f0d9aefc999d93414b1758.html#a0fb29a8253f0d9aefc999d93414b1758" target="_top" xlink:title="backend internal type erased function for selective acquire">
<polygon fill="white" stroke="black" points="171,-109 171,-139 311,-139 311,-109 171,-109"/>
<text text-anchor="start" x="179" y="-127" font-family="Helvetica,sans-Serif" font-size="10.00">argo::backend::_selective</text>
<text text-anchor="middle" x="241" y="-116" font-family="Helvetica,sans-Serif" font-size="10.00">_acquire</text>
</a>
</g>
</g>
<!-- Node1&#45;&gt;Node2 -->
<g id="edge1" class="edge">
<title>Node1&#45;&gt;Node2</title>
<path fill="none" stroke="midnightblue" d="M135.3,-124C143.59,-124 152.13,-124 160.59,-124"/>
<polygon fill="midnightblue" stroke="midnightblue" points="160.84,-127.5 170.84,-124 160.84,-120.5 160.84,-127.5"/>
</g>
<!-- Node2&#45;&gt;Node2 -->
<g id="edge2" class="edge">
<title>Node2&#45;&gt;Node2</title>
<path fill="none" stroke="midnightblue" d="M212.07,-139.16C205.1,-148.56 214.74,-157.5 241,-157.5 257,-157.5 266.84,-154.18 270.5,-149.46"/>
<polygon fill="midnightblue" stroke="midnightblue" points="273.97,-148.95 269.93,-139.16 266.98,-149.34 273.97,-148.95"/>
</g>
<!-- Node3 -->
<g id="node3" class="node">
<title>Node3</title>
<g id="a_node3"><a xlink:href="swdsm_8cpp_aff9ea7ba7f37206d933c8dc8004dbc7b.html#aff9ea7ba7f37206d933c8dc8004dbc7b" target="_top" xlink:title="Gives an index to the sharer/writer vector depending on the address.">
<polygon fill="white" stroke="black" points="358,-229 358,-259 459,-259 459,-229 358,-229"/>
<text text-anchor="start" x="366" y="-247" font-family="Helvetica,sans-Serif" font-size="10.00">get_classification</text>
<text text-anchor="middle" x="408.5" y="-236" font-family="Helvetica,sans-Serif" font-size="10.00">_index</text>
</a>
</g>
</g>
<!-- Node2&#45;&gt;Node3 -->
<g id="edge3" class="edge">
<title>Node2&#45;&gt;Node3</title>
<path fill="none" stroke="midnightblue" d="M255.64,-139.26C274.51,-159.65 310.43,-195.88 347,-219 349.97,-220.88 353.11,-222.67 356.33,-224.36"/>
<polygon fill="midnightblue" stroke="midnightblue" points="355.03,-227.62 365.55,-228.88 358.11,-221.34 355.03,-227.62"/>
</g>
<!-- Node4 -->
<g id="node4" class="node">
<title>Node4</title>
<g id="a_node4"><a xlink:href="swdsm_8cpp_a7d0d0386804df222465aaa199aab92da.html#a7d0d0386804df222465aaa199aab92da" target="_top" xlink:title="Gets the sharer window index based on the classification index.">
<polygon fill="white" stroke="black" points="347,-190.5 347,-209.5 470,-209.5 470,-190.5 347,-190.5"/>
<text text-anchor="middle" x="408.5" y="-197.5" font-family="Helvetica,sans-Serif" font-size="10.00">get_sharer_win_index</text>
</a>
</g>
</g>
<!-- Node2&#45;&gt;Node4 -->
<g id="edge4" class="edge">
<title>Node2&#45;&gt;Node4</title>
<path fill="none" stroke="midnightblue" d="M266.78,-139.23C287.64,-151.61 318.54,-168.94 347,-181 352.2,-183.2 357.73,-185.28 363.27,-187.2"/>
<polygon fill="midnightblue" stroke="midnightblue" points="362.57,-190.66 373.17,-190.48 364.77,-184.01 362.57,-190.66"/>
</g>
<!-- Node5 -->
<g id="node5" class="node">
<title>Node5</title>
<g id="a_node5"><a xlink:href="swdsm_8cpp_a59e4c59c2940cc3727debeeff4af1889.html#a59e4c59c2940cc3727debeeff4af1889" target="_top" xlink:title="Gets cacheindex for a given address.">
<polygon fill="white" stroke="black" points="364,-152.5 364,-171.5 453,-171.5 453,-152.5 364,-152.5"/>
<text text-anchor="middle" x="408.5" y="-159.5" font-family="Helvetica,sans-Serif" font-size="10.00">getCacheIndex</text>
</a>
</g>
</g>
<!-- Node2&#45;&gt;Node5 -->
<g id="edge5" class="edge">
<title>Node2&#45;&gt;Node5</title>
<path fill="none" stroke="midnightblue" d="M307.41,-139.02C323.57,-142.73 340.65,-146.65 356.04,-150.18"/>
<polygon fill="midnightblue" stroke="midnightblue" points="355.35,-153.62 365.88,-152.44 356.91,-146.79 355.35,-153.62"/>
</g>
<!-- Node6 -->
<g id="node6" class="node">
<title>Node6</title>
<g id="a_node6"><a xlink:href="classmpi__lock_a67301b26c3bb28c746e164c9f531d21d.html#a67301b26c3bb28c746e164c9f531d21d" target="_top" xlink:title="acquire mpi_lock">
<polygon fill="white" stroke="black" points="365,-114.5 365,-133.5 452,-133.5 452,-114.5 365,-114.5"/>
<text text-anchor="middle" x="408.5" y="-121.5" font-family="Helvetica,sans-Serif" font-size="10.00">mpi_lock::lock</text>
</a>
</g>
</g>
<!-- Node2&#45;&gt;Node6 -->
<g id="edge6" class="edge">
<title>Node2&#45;&gt;Node6</title>
<path fill="none" stroke="midnightblue" d="M311.23,-124C325.77,-124 340.88,-124 354.7,-124"/>
<polygon fill="midnightblue" stroke="midnightblue" points="354.99,-127.5 364.99,-124 354.99,-120.5 354.99,-127.5"/>
</g>
<!-- Node7 -->
<g id="node7" class="node">
<title>Node7</title>
<g id="a_node7"><a xlink:href="namespaceargo_a188a4648d6e7549bcef4cee36dcb5336.html#a188a4648d6e7549bcef4cee36dcb5336" target="_top" xlink:title="A unique ArgoDSM node identifier. Counting starts from 0.">
<polygon fill="white" stroke="black" points="367,-76.5 367,-95.5 450,-95.5 450,-76.5 367,-76.5"/>
<text text-anchor="middle" x="408.5" y="-83.5" font-family="Helvetica,sans-Serif" font-size="10.00">argo::node_id</text>
</a>
</g>
</g>
<!-- Node2&#45;&gt;Node7 -->
<g id="edge7" class="edge">
<title>Node2&#45;&gt;Node7</title>
<path fill="none" stroke="midnightblue" d="M307.41,-108.98C323.86,-105.2 341.28,-101.21 356.88,-97.62"/>
<polygon fill="midnightblue" stroke="midnightblue" points="357.89,-100.98 366.85,-95.33 356.32,-94.16 357.89,-100.98"/>
</g>
<!-- Node8 -->
<g id="node8" class="node">
<title>Node8</title>
<g id="a_node8"><a xlink:href="swdsm_8cpp_ac2a76a52d43c19cf7d5ed770e14c4409.html#ac2a76a52d43c19cf7d5ed770e14c4409" target="_top" xlink:title="Gives homenode for a given address.">
<polygon fill="white" stroke="black" points="359.5,-38.5 359.5,-57.5 457.5,-57.5 457.5,-38.5 359.5,-38.5"/>
<text text-anchor="middle" x="408.5" y="-45.5" font-family="Helvetica,sans-Serif" font-size="10.00">peek_homenode</text>
</a>
</g>
</g>
<!-- Node2&#45;&gt;Node8 -->
<g id="edge8" class="edge">
<title>Node2&#45;&gt;Node8</title>
<path fill="none" stroke="midnightblue" d="M266.78,-108.77C287.64,-96.39 318.54,-79.06 347,-67 352.2,-64.8 357.73,-62.72 363.27,-60.8"/>
<polygon fill="midnightblue" stroke="midnightblue" points="364.77,-63.99 373.17,-57.52 362.57,-57.34 364.77,-63.99"/>
</g>
<!-- Node12 -->
<g id="node12" class="node">
<title>Node12</title>
<g id="a_node12"><a xlink:href="classmpi__lock_a38cb3649cba54a2818810c444a8b475a.html#a38cb3649cba54a2818810c444a8b475a" target="_top" xlink:title="release mpi_lock">
<polygon fill="white" stroke="black" points="359,-0.5 359,-19.5 458,-19.5 458,-0.5 359,-0.5"/>
<text text-anchor="middle" x="408.5" y="-7.5" font-family="Helvetica,sans-Serif" font-size="10.00">mpi_lock::unlock</text>
</a>
</g>
</g>
<!-- Node2&#45;&gt;Node12 -->
<g id="edge12" class="edge">
<title>Node2&#45;&gt;Node12</title>
<path fill="none" stroke="midnightblue" d="M254.73,-108.97C273.09,-88.17 309.02,-50.74 347,-29 350.71,-26.88 354.68,-24.96 358.76,-23.24"/>
<polygon fill="midnightblue" stroke="midnightblue" points="360.28,-26.4 368.37,-19.56 357.78,-19.87 360.28,-26.4"/>
</g>
<!-- Node9 -->
<g id="node9" class="node">
<title>Node9</title>
<g id="a_node9"><a xlink:href="classargo_1_1data__distribution_1_1global__ptr_a3e2cdd4d323ef91174615e27ab94e342.html#a3e2cdd4d323ef91174615e27ab94e342" target="_top" xlink:title="return the home node of the value pointed to, or a default value if the page has not yet been first&#45;t...">
<polygon fill="white" stroke="black" points="506,-33 506,-63 637,-63 637,-33 506,-33"/>
<text text-anchor="start" x="514" y="-51" font-family="Helvetica,sans-Serif" font-size="10.00">argo::data_distribution</text>
<text text-anchor="middle" x="571.5" y="-40" font-family="Helvetica,sans-Serif" font-size="10.00">::global_ptr::peek_node</text>
</a>
</g>
</g>
<!-- Node8&#45;&gt;Node9 -->
<g id="edge9" class="edge">
<title>Node8&#45;&gt;Node9</title>
<path fill="none" stroke="midnightblue" d="M457.81,-48C469.72,-48 482.76,-48 495.61,-48"/>
<polygon fill="midnightblue" stroke="midnightblue" points="495.84,-51.5 505.84,-48 495.84,-44.5 495.84,-51.5"/>
</g>
<!-- Node10 -->
<g id="node10" class="node">
<title>Node10</title>
<g id="a_node10"><a xlink:href="classargo_1_1data__distribution_1_1global__ptr_ae4353680349f6abbd2cf262dace8e2f2.html#ae4353680349f6abbd2cf262dace8e2f2" target="_top" xlink:title="return a pointer to the selected allocation policy">
<polygon fill="white" stroke="black" points="673,-33 673,-63 800,-63 800,-33 673,-33"/>
<text text-anchor="start" x="681" y="-51" font-family="Helvetica,sans-Serif" font-size="10.00">argo::data_distribution</text>
<text text-anchor="middle" x="736.5" y="-40" font-family="Helvetica,sans-Serif" font-size="10.00">::global_ptr::policy</text>
</a>
</g>
</g>
<!-- Node9&#45;&gt;Node10 -->
<g id="edge10" class="edge">
<title>Node9&#45;&gt;Node10</title>
<path fill="none" stroke="midnightblue" d="M637.39,-48C645.72,-48 654.3,-48 662.74,-48"/>
<polygon fill="midnightblue" stroke="midnightblue" points="662.96,-51.5 672.96,-48 662.96,-44.5 662.96,-51.5"/>
</g>
<!-- Node11 -->
<g id="node11" class="node">
<title>Node11</title>
<g id="a_node11"><a xlink:href="namespaceargo_1_1env_a25a08cb2d0d11432d640ec7173063339.html#a25a08cb2d0d11432d640ec7173063339" target="_top" xlink:title="get the allocation policy requested by environment variable">
<polygon fill="white" stroke="black" points="836,-33 836,-63 952,-63 952,-33 836,-33"/>
<text text-anchor="start" x="844" y="-51" font-family="Helvetica,sans-Serif" font-size="10.00">argo::env::allocation</text>
<text text-anchor="middle" x="894" y="-40" font-family="Helvetica,sans-Serif" font-size="10.00">_policy</text>
</a>
</g>
</g>
<!-- Node10&#45;&gt;Node11 -->
<g id="edge11" class="edge">
<title>Node10&#45;&gt;Node11</title>
<path fill="none" stroke="midnightblue" d="M800.3,-48C808.69,-48 817.32,-48 825.78,-48"/>
<polygon fill="midnightblue" stroke="midnightblue" points="825.99,-51.5 835.99,-48 825.99,-44.5 825.99,-51.5"/>
</g>
</g>
</svg>
