<?xml version="1.0" encoding="UTF-8" standalone="no"?>
<!DOCTYPE svg PUBLIC "-//W3C//DTD SVG 1.1//EN"
 "http://www.w3.org/Graphics/SVG/1.1/DTD/svg11.dtd">
<!-- Generated by graphviz version 2.43.0 (0)
 -->
<!-- Title: argo::backend::_selective_acquire Pages: 1 -->
<svg width="319pt" height="57pt"
 viewBox="0.00 0.00 319.00 57.00" xmlns="http://www.w3.org/2000/svg" xmlns:xlink="http://www.w3.org/1999/xlink">
<g id="graph0" class="graph" transform="scale(1 1) rotate(0) translate(4 53)">
<title>argo::backend::_selective_acquire</title>
<polygon fill="white" stroke="transparent" points="-4,4 -4,-53 315,-53 315,4 -4,4"/>
<!-- Node1 -->
<g id="node1" class="node">
<title>Node1</title>
<g id="a_node1"><a xlink:title="backend internal type erased function for selective acquire">
<polygon fill="#bfbfbf" stroke="black" points="171,-0.5 171,-30.5 311,-30.5 311,-0.5 171,-0.5"/>
<text text-anchor="start" x="179" y="-18.5" font-family="Helvetica,sans-Serif" font-size="10.00">argo::backend::_selective</text>
<text text-anchor="middle" x="241" y="-7.5" font-family="Helvetica,sans-Serif" font-size="10.00">_acquire</text>
</a>
</g>
</g>
<!-- Node1&#45;&gt;Node1 -->
<g id="edge1" class="edge">
<title>Node1&#45;&gt;Node1</title>
<path fill="none" stroke="midnightblue" d="M271.56,-40.96C267.77,-45.68 257.58,-49 241,-49 213.79,-49 203.8,-40.06 211.03,-30.66"/>
<polygon fill="midnightblue" stroke="midnightblue" points="275.04,-40.44 270.97,-30.66 268.05,-40.84 275.04,-40.44"/>
</g>
<!-- Node2 -->
<g id="node2" class="node">
<title>Node2</title>
<g id="a_node2"><a xlink:href="backend_8hpp_aad1b8c62447de8cc06b7b4f031b77b01.html#aad1b8c62447de8cc06b7b4f031b77b01" target="_top" xlink:title="causes a node to self&#45;invalidate the specified pages from its cache, and thus getting any updated val...">
<polygon fill="white" stroke="black" points="0,-0.5 0,-30.5 135,-30.5 135,-0.5 0,-0.5"/>
<text text-anchor="start" x="8" y="-18.5" font-family="Helvetica,sans-Serif" font-size="10.00">argo::backend::selective</text>
<text text-anchor="middle" x="67.5" y="-7.5" font-family="Helvetica,sans-Serif" font-size="10.00">_acquire</text>
</a>
</g>
</g>
<!-- Node1&#45;&gt;Node2 -->
<g id="edge2" class="edge">
<title>Node1&#45;&gt;Node2</title>
<path fill="none" stroke="midnightblue" d="M160.5,-15.5C152.05,-15.5 143.52,-15.5 135.24,-15.5"/>
<polygon fill="midnightblue" stroke="midnightblue" points="160.74,-19 170.74,-15.5 160.74,-12 160.74,-19"/>
</g>
<!-- Node2&#45;&gt;Node2 -->
<g id="edge3" class="edge">
<title>Node2&#45;&gt;Node2</title>
<path fill="none" stroke="midnightblue" d="M98.06,-40.96C94.27,-45.68 84.08,-49 67.5,-49 40.29,-49 30.3,-40.06 37.53,-30.66"/>
<polygon fill="midnightblue" stroke="midnightblue" points="101.54,-40.44 97.47,-30.66 94.55,-40.84 101.54,-40.44"/>
</g>
</g>
</svg>
