<?xml version="1.0" encoding="UTF-8" standalone="no"?>
<!DOCTYPE svg PUBLIC "-//W3C//DTD SVG 1.1//EN"
 "http://www.w3.org/Graphics/SVG/1.1/DTD/svg11.dtd">
<!-- Generated by graphviz version 2.43.0 (0)
 -->
<!-- Title: argo::backend::atomic::_store_public_owners_dir Pages: 1 -->
<svg width="277pt" height="57pt"
 viewBox="0.00 0.00 277.00 57.00" xmlns="http://www.w3.org/2000/svg" xmlns:xlink="http://www.w3.org/1999/xlink">
<g id="graph0" class="graph" transform="scale(1 1) rotate(0) translate(4 53)">
<title>argo::backend::atomic::_store_public_owners_dir</title>
<polygon fill="white" stroke="transparent" points="-4,4 -4,-53 273,-53 273,4 -4,4"/>
<!-- Node1 -->
<g id="node1" class="node">
<title>Node1</title>
<g id="a_node1"><a xlink:title="Backend internal type erased atomic store function.">
<polygon fill="#bfbfbf" stroke="black" points="0,-0.5 0,-30.5 146,-30.5 146,-0.5 0,-0.5"/>
<text text-anchor="start" x="8" y="-18.5" font-family="Helvetica,sans-Serif" font-size="10.00">argo::backend::atomic</text>
<text text-anchor="middle" x="73" y="-7.5" font-family="Helvetica,sans-Serif" font-size="10.00">::_store_public_owners_dir</text>
</a>
</g>
</g>
<!-- Node1&#45;&gt;Node1 -->
<g id="edge1" class="edge">
<title>Node1&#45;&gt;Node1</title>
<path fill="none" stroke="midnightblue" d="M46.51,-30.66C40.12,-40.06 48.95,-49 73,-49 87.65,-49 96.66,-45.68 100.01,-40.96"/>
<polygon fill="midnightblue" stroke="midnightblue" points="103.49,-40.47 99.49,-30.66 96.5,-40.82 103.49,-40.47"/>
</g>
<!-- Node2 -->
<g id="node2" class="node">
<title>Node2</title>
<g id="a_node2"><a xlink:href="mpi_8cpp_a42bc863264a399b805b95e0fc53a9fed.html#a42bc863264a399b805b95e0fc53a9fed" target="_top" xlink:title="Returns an MPI integer type that exactly matches in size the argument given.">
<polygon fill="white" stroke="black" points="182,-6 182,-25 269,-25 269,-6 182,-6"/>
<text text-anchor="middle" x="225.5" y="-13" font-family="Helvetica,sans-Serif" font-size="10.00">fitting_mpi_int</text>
</a>
</g>
</g>
<!-- Node1&#45;&gt;Node2 -->
<g id="edge2" class="edge">
<title>Node1&#45;&gt;Node2</title>
<path fill="none" stroke="midnightblue" d="M146.16,-15.5C154.76,-15.5 163.4,-15.5 171.66,-15.5"/>
<polygon fill="midnightblue" stroke="midnightblue" points="171.86,-19 181.86,-15.5 171.86,-12 171.86,-19"/>
</g>
</g>
</svg>
