<?xml version="1.0" encoding="UTF-8" standalone="no"?>
<!DOCTYPE svg PUBLIC "-//W3C//DTD SVG 1.1//EN"
 "http://www.w3.org/Graphics/SVG/1.1/DTD/svg11.dtd">
<!-- Generated by graphviz version 2.43.0 (0)
 -->
<!-- Title: argo::backend::atomic::fetch_add Pages: 1 -->
<!--zoomable 336 -->
<svg id="main" version="1.1" xmlns="http://www.w3.org/2000/svg" xmlns:xlink="http://www.w3.org/1999/xlink" xml:space="preserve" onload="init(evt)">
<style type="text/css"><![CDATA[
.edge:hover path { stroke: red; }
.edge:hover polygon { stroke: red; fill: red; }
]]></style>
<script type="text/javascript"><![CDATA[
var edges = document.getElementsByTagName('g');
if (edges && edges.length) {
  for (var i=0;i<edges.length;i++) {
    if (edges[i].id.substr(0,4)=='edge') {
      edges[i].setAttribute('class','edge');
    }
  }
}
]]></script>
        <defs>
                <circle id="rim" cx="0" cy="0" r="7"/>
                <circle id="rim2" cx="0" cy="0" r="3.5"/>
                <g id="zoomPlus">
                        <use xlink:href="#rim" fill="#404040">
                                <set attributeName="fill" to="#808080" begin="zoomplus.mouseover" end="zoomplus.mouseout"/>
                        </use>
                        <path d="M-4,0h8M0,-4v8" fill="none" stroke="white" stroke-width="1.5" pointer-events="none"/>
                </g>
                <g id="zoomMin">
                        <use xlink:href="#rim" fill="#404040">
                                <set attributeName="fill" to="#808080" begin="zoomminus.mouseover" end="zoomminus.mouseout"/>
                        </use>
                        <path d="M-4,0h8" fill="none" stroke="white" stroke-width="1.5" pointer-events="none"/>
                </g>
                <g id="dirArrow">
                        <path fill="none" stroke="white" stroke-width="1.5" d="M0,-3.0v7 M-2.5,-0.5L0,-3.0L2.5,-0.5"/>
                </g>
               <g id="resetDef">
                       <use xlink:href="#rim2" fill="#404040">
                               <set attributeName="fill" to="#808080" begin="reset.mouseover" end="reset.mouseout"/>
                       </use>
               </g>
        </defs>

<script type="text/javascript">
var viewWidth = 1096;
var viewHeight = 336;
var sectionId = 'dynsection-0';
</script>
<script xlink:href="svgpan.js"/>
<svg id="graph" class="graph">
<g id="viewport">
<title>argo::backend::atomic::fetch_add</title>
<polygon fill="white" stroke="transparent" points="-4,4 -4,-331.5 1092,-331.5 1092,4 -4,4"/>
<!-- Node1 -->
<g id="node1" class="node">
<title>Node1</title>
<g id="a_node1"><a xlink:title="Atomic fetch and add operation for pointers on a global address.">
<polygon fill="#bfbfbf" stroke="black" points="0,-77 0,-107 125,-107 125,-77 0,-77"/>
<text text-anchor="start" x="8" y="-95" font-family="Helvetica,sans-Serif" font-size="10.00">argo::backend::atomic</text>
<text text-anchor="middle" x="62.5" y="-84" font-family="Helvetica,sans-Serif" font-size="10.00">::fetch_add</text>
</a>
</g>
</g>
<!-- Node2 -->
<g id="node2" class="node">
<title>Node2</title>
<g id="a_node2"><a xlink:href="backend_8hpp_ab1a86cdd5235a54afdf0ac3d9f9f6f9c.html#ab1a86cdd5235a54afdf0ac3d9f9f6f9c" target="_top" xlink:title="Backend internal type erased atomic (post)increment function for unsigned integers.">
<polygon fill="white" stroke="black" points="323,-247 323,-277 448,-277 448,-247 323,-247"/>
<text text-anchor="start" x="331" y="-265" font-family="Helvetica,sans-Serif" font-size="10.00">argo::backend::atomic</text>
<text text-anchor="middle" x="385.5" y="-254" font-family="Helvetica,sans-Serif" font-size="10.00">::_fetch_add_uint</text>
</a>
</g>
</g>
<!-- Node1&#45;&gt;Node2 -->
<g id="edge1" class="edge">
<title>Node1&#45;&gt;Node2</title>
<path fill="none" stroke="midnightblue" d="M81.36,-107.24C100.3,-122.96 131.52,-147.56 161,-165 228.62,-205 249.52,-207.68 322,-238 326.15,-239.74 330.48,-241.5 334.83,-243.24"/>
<polygon fill="midnightblue" stroke="midnightblue" points="333.76,-246.58 344.35,-246.99 336.33,-240.06 333.76,-246.58"/>
</g>
<!-- Node13 -->
<g id="node13" class="node">
<title>Node13</title>
<g id="a_node13"><a xlink:href="backend_8hpp_a1032f833666c3f810ac1c6210197d426.html#a1032f833666c3f810ac1c6210197d426" target="_top" xlink:title="causes a node to self&#45;invalidate its cache, and thus getting any updated values on subsequent accesse...">
<polygon fill="white" stroke="black" points="322,-56.5 322,-75.5 449,-75.5 449,-56.5 322,-56.5"/>
<text text-anchor="middle" x="385.5" y="-63.5" font-family="Helvetica,sans-Serif" font-size="10.00">argo::backend::acquire</text>
</a>
</g>
</g>
<!-- Node1&#45;&gt;Node13 -->
<g id="edge15" class="edge">
<title>Node1&#45;&gt;Node13</title>
<path fill="none" stroke="midnightblue" d="M125.01,-87.02C178.23,-82.71 255.26,-76.47 311.56,-71.91"/>
<polygon fill="midnightblue" stroke="midnightblue" points="312.14,-75.37 321.83,-71.08 311.58,-68.4 312.14,-75.37"/>
</g>
<!-- Node18 -->
<g id="node18" class="node">
<title>Node18</title>
<g id="a_node18"><a xlink:href="backend_8hpp_afd1987dffd4e9100c88c457234f64a52.html#afd1987dffd4e9100c88c457234f64a52" target="_top" xlink:title="Atomic fetch and add operation on a global address.">
<polygon fill="white" stroke="black" points="161,-108 161,-138 286,-138 286,-108 161,-108"/>
<text text-anchor="start" x="169" y="-126" font-family="Helvetica,sans-Serif" font-size="10.00">argo::backend::atomic</text>
<text text-anchor="middle" x="223.5" y="-115" font-family="Helvetica,sans-Serif" font-size="10.00">::fetch_add</text>
</a>
</g>
</g>
<!-- Node1&#45;&gt;Node18 -->
<g id="edge23" class="edge">
<title>Node1&#45;&gt;Node18</title>
<path fill="none" stroke="midnightblue" d="M125.43,-104.07C133.76,-105.7 142.37,-107.38 150.86,-109.03"/>
<polygon fill="midnightblue" stroke="midnightblue" points="150.26,-112.48 160.74,-110.96 151.59,-105.61 150.26,-112.48"/>
</g>
<!-- Node23 -->
<g id="node23" class="node">
<title>Node23</title>
<g id="a_node23"><a xlink:href="backend_8hpp_a8953c9cd9d3c56306740b6c9b97513a2.html#a8953c9cd9d3c56306740b6c9b97513a2" target="_top" xlink:title="causes a node to self&#45;downgrade its cache, making all previous writes to be propagated to the homenod...">
<polygon fill="white" stroke="black" points="322,-0.5 322,-19.5 449,-19.5 449,-0.5 322,-0.5"/>
<text text-anchor="middle" x="385.5" y="-7.5" font-family="Helvetica,sans-Serif" font-size="10.00">argo::backend::release</text>
</a>
</g>
</g>
<!-- Node1&#45;&gt;Node23 -->
<g id="edge38" class="edge">
<title>Node1&#45;&gt;Node23</title>
<path fill="none" stroke="midnightblue" d="M122.38,-76.96C184.19,-61.17 280.15,-36.66 337.22,-22.08"/>
<polygon fill="midnightblue" stroke="midnightblue" points="338.24,-25.43 347.06,-19.56 336.5,-18.65 338.24,-25.43"/>
</g>
<!-- Node2&#45;&gt;Node2 -->
<g id="edge13" class="edge">
<title>Node2&#45;&gt;Node2</title>
<path fill="none" stroke="midnightblue" d="M357.27,-277.16C350.46,-286.56 359.87,-295.5 385.5,-295.5 401.12,-295.5 410.71,-292.18 414.29,-287.46"/>
<polygon fill="midnightblue" stroke="midnightblue" points="417.76,-286.96 413.73,-277.16 410.77,-287.33 417.76,-286.96"/>
</g>
<!-- Node3 -->
<g id="node3" class="node">
<title>Node3</title>
<g id="a_node3"><a xlink:href="mpi_8cpp_a9b1ef8bbaaf93b03603c2ab0ff3b6133.html#a9b1ef8bbaaf93b03603c2ab0ff3b6133" target="_top" xlink:title="Atomic fetch&amp;add for the MPI backend (for internal usage)">
<polygon fill="white" stroke="black" points="485,-190 485,-220 610,-220 610,-190 485,-190"/>
<text text-anchor="start" x="493" y="-208" font-family="Helvetica,sans-Serif" font-size="10.00">argo::backend::atomic</text>
<text text-anchor="middle" x="547.5" y="-197" font-family="Helvetica,sans-Serif" font-size="10.00">::_fetch_add</text>
</a>
</g>
</g>
<!-- Node2&#45;&gt;Node3 -->
<g id="edge2" class="edge">
<title>Node2&#45;&gt;Node3</title>
<path fill="none" stroke="midnightblue" d="M428.96,-246.87C449.11,-239.7 473.37,-231.05 494.6,-223.49"/>
<polygon fill="midnightblue" stroke="midnightblue" points="495.88,-226.75 504.12,-220.1 493.53,-220.16 495.88,-226.75"/>
</g>
<!-- Node12 -->
<g id="node12" class="node">
<title>Node12</title>
<g id="a_node12"><a xlink:href="mpi_8cpp_ae015b5e2a129a9cfdd5ae15c33609c3f.html#ae015b5e2a129a9cfdd5ae15c33609c3f" target="_top" xlink:title="Returns an MPI unsigned integer type that exactly matches in size the argument given.">
<polygon fill="white" stroke="black" points="501,-257.5 501,-276.5 594,-276.5 594,-257.5 501,-257.5"/>
<text text-anchor="middle" x="547.5" y="-264.5" font-family="Helvetica,sans-Serif" font-size="10.00">fitting_mpi_uint</text>
</a>
</g>
</g>
<!-- Node2&#45;&gt;Node12 -->
<g id="edge14" class="edge">
<title>Node2&#45;&gt;Node12</title>
<path fill="none" stroke="midnightblue" d="M448.36,-263.93C462.24,-264.37 476.88,-264.82 490.5,-265.25"/>
<polygon fill="midnightblue" stroke="midnightblue" points="490.58,-268.75 500.69,-265.57 490.8,-261.76 490.58,-268.75"/>
</g>
<!-- Node3&#45;&gt;Node3 -->
<g id="edge3" class="edge">
<title>Node3&#45;&gt;Node3</title>
<path fill="none" stroke="midnightblue" d="M519.27,-220.16C512.46,-229.56 521.87,-238.5 547.5,-238.5 563.12,-238.5 572.71,-235.18 576.29,-230.46"/>
<polygon fill="midnightblue" stroke="midnightblue" points="579.76,-229.96 575.73,-220.16 572.77,-230.33 579.76,-229.96"/>
</g>
<!-- Node4 -->
<g id="node4" class="node">
<title>Node4</title>
<g id="a_node4"><a xlink:href="swdsm_8cpp_af5bb31046df1aef1cccf72f19fe63640.html#af5bb31046df1aef1cccf72f19fe63640" target="_top" xlink:title="Gets the data window index based on the offset into the node&#39;s backing store.">
<polygon fill="white" stroke="black" points="652.5,-171.5 652.5,-190.5 766.5,-190.5 766.5,-171.5 652.5,-171.5"/>
<text text-anchor="middle" x="709.5" y="-178.5" font-family="Helvetica,sans-Serif" font-size="10.00">get_data_win_index</text>
</a>
</g>
</g>
<!-- Node3&#45;&gt;Node4 -->
<g id="edge4" class="edge">
<title>Node3&#45;&gt;Node4</title>
<path fill="none" stroke="midnightblue" d="M610.36,-195.72C620.82,-194.15 631.72,-192.52 642.29,-190.93"/>
<polygon fill="midnightblue" stroke="midnightblue" points="642.93,-194.38 652.3,-189.43 641.89,-187.45 642.93,-194.38"/>
</g>
<!-- Node5 -->
<g id="node5" class="node">
<title>Node5</title>
<g id="a_node5"><a xlink:href="swdsm_8cpp_a3f19b1fc7fe36a6eabdae48e53fb66fa.html#a3f19b1fc7fe36a6eabdae48e53fb66fa" target="_top" xlink:title="Gets the sharer window offset based on the classification index.">
<polygon fill="white" stroke="black" points="652,-133.5 652,-152.5 767,-152.5 767,-133.5 652,-133.5"/>
<text text-anchor="middle" x="709.5" y="-140.5" font-family="Helvetica,sans-Serif" font-size="10.00">get_data_win_offset</text>
</a>
</g>
</g>
<!-- Node3&#45;&gt;Node5 -->
<g id="edge5" class="edge">
<title>Node3&#45;&gt;Node5</title>
<path fill="none" stroke="midnightblue" d="M586.75,-189.99C594.49,-186.8 602.54,-183.37 610,-180 626.3,-172.63 629.38,-168.63 646,-162 651.6,-159.77 657.57,-157.64 663.52,-155.68"/>
<polygon fill="midnightblue" stroke="midnightblue" points="664.96,-158.89 673.43,-152.53 662.84,-152.22 664.96,-158.89"/>
</g>
<!-- Node6 -->
<g id="node6" class="node">
<title>Node6</title>
<g id="a_node6"><a xlink:href="classmpi__lock_a67301b26c3bb28c746e164c9f531d21d.html#a67301b26c3bb28c746e164c9f531d21d" target="_top" xlink:title="acquire mpi_lock">
<polygon fill="white" stroke="black" points="829,-173.5 829,-192.5 916,-192.5 916,-173.5 829,-173.5"/>
<text text-anchor="middle" x="872.5" y="-180.5" font-family="Helvetica,sans-Serif" font-size="10.00">mpi_lock::lock</text>
</a>
</g>
</g>
<!-- Node3&#45;&gt;Node6 -->
<g id="edge6" class="edge">
<title>Node3&#45;&gt;Node6</title>
<path fill="none" stroke="midnightblue" d="M610.11,-206.09C655.3,-206.29 718.09,-205.32 773,-200 787.88,-198.56 803.89,-196.16 818.6,-193.62"/>
<polygon fill="midnightblue" stroke="midnightblue" points="819.31,-197.05 828.54,-191.84 818.08,-190.16 819.31,-197.05"/>
</g>
<!-- Node7 -->
<g id="node7" class="node">
<title>Node7</title>
<g id="a_node7"><a xlink:href="classargo_1_1data__distribution_1_1global__ptr_ac7d651586337d08cda18ef26ffcd34a0.html#ac7d651586337d08cda18ef26ffcd34a0" target="_top" xlink:title="return the home node of the value pointed to">
<polygon fill="white" stroke="black" points="646,-297 646,-327 773,-327 773,-297 646,-297"/>
<text text-anchor="start" x="654" y="-315" font-family="Helvetica,sans-Serif" font-size="10.00">argo::data_distribution</text>
<text text-anchor="middle" x="709.5" y="-304" font-family="Helvetica,sans-Serif" font-size="10.00">::global_ptr::node</text>
</a>
</g>
</g>
<!-- Node3&#45;&gt;Node7 -->
<g id="edge7" class="edge">
<title>Node3&#45;&gt;Node7</title>
<path fill="none" stroke="midnightblue" d="M572.81,-220.14C584.52,-227.88 598.48,-237.82 610,-248 627.92,-263.84 626.29,-274.45 646,-288 648.14,-289.47 650.38,-290.86 652.68,-292.19"/>
<polygon fill="midnightblue" stroke="midnightblue" points="651.36,-295.44 661.85,-296.94 654.58,-289.23 651.36,-295.44"/>
</g>
<!-- Node10 -->
<g id="node10" class="node">
<title>Node10</title>
<g id="a_node10"><a xlink:href="classargo_1_1data__distribution_1_1global__ptr_ad8c21c408fa2b926cfd9acfd87e8e4e6.html#ad8c21c408fa2b926cfd9acfd87e8e4e6" target="_top" xlink:title="return the offset on the home node&#39;s local memory share">
<polygon fill="white" stroke="black" points="646,-248 646,-278 773,-278 773,-248 646,-248"/>
<text text-anchor="start" x="654" y="-266" font-family="Helvetica,sans-Serif" font-size="10.00">argo::data_distribution</text>
<text text-anchor="middle" x="709.5" y="-255" font-family="Helvetica,sans-Serif" font-size="10.00">::global_ptr::offset</text>
</a>
</g>
</g>
<!-- Node3&#45;&gt;Node10 -->
<g id="edge10" class="edge">
<title>Node3&#45;&gt;Node10</title>
<path fill="none" stroke="midnightblue" d="M590.12,-220.09C610.77,-227.57 635.89,-236.68 657.66,-244.57"/>
<polygon fill="midnightblue" stroke="midnightblue" points="656.49,-247.87 667.09,-247.99 658.88,-241.29 656.49,-247.87"/>
</g>
<!-- Node11 -->
<g id="node11" class="node">
<title>Node11</title>
<g id="a_node11"><a xlink:href="classmpi__lock_a38cb3649cba54a2818810c444a8b475a.html#a38cb3649cba54a2818810c444a8b475a" target="_top" xlink:title="release mpi_lock">
<polygon fill="white" stroke="black" points="823,-97.5 823,-116.5 922,-116.5 922,-97.5 823,-97.5"/>
<text text-anchor="middle" x="872.5" y="-104.5" font-family="Helvetica,sans-Serif" font-size="10.00">mpi_lock::unlock</text>
</a>
</g>
</g>
<!-- Node3&#45;&gt;Node11 -->
<g id="edge12" class="edge">
<title>Node3&#45;&gt;Node11</title>
<path fill="none" stroke="midnightblue" d="M594.63,-189.97C600.11,-187.13 605.39,-183.83 610,-180 632.77,-161.1 620.58,-139.15 646,-124 696.38,-93.98 764.74,-93.21 812.95,-97.77"/>
<polygon fill="midnightblue" stroke="midnightblue" points="812.61,-101.25 822.92,-98.81 813.34,-94.29 812.61,-101.25"/>
</g>
<!-- Node8 -->
<g id="node8" class="node">
<title>Node8</title>
<g id="a_node8"><a xlink:href="classargo_1_1data__distribution_1_1global__ptr_ae4353680349f6abbd2cf262dace8e2f2.html#ae4353680349f6abbd2cf262dace8e2f2" target="_top" xlink:title="return a pointer to the selected allocation policy">
<polygon fill="white" stroke="black" points="809,-272 809,-302 936,-302 936,-272 809,-272"/>
<text text-anchor="start" x="817" y="-290" font-family="Helvetica,sans-Serif" font-size="10.00">argo::data_distribution</text>
<text text-anchor="middle" x="872.5" y="-279" font-family="Helvetica,sans-Serif" font-size="10.00">::global_ptr::policy</text>
</a>
</g>
</g>
<!-- Node7&#45;&gt;Node8 -->
<g id="edge8" class="edge">
<title>Node7&#45;&gt;Node8</title>
<path fill="none" stroke="midnightblue" d="M773.21,-302.26C781.65,-300.95 790.36,-299.6 798.96,-298.26"/>
<polygon fill="midnightblue" stroke="midnightblue" points="799.62,-301.7 808.96,-296.71 798.54,-294.79 799.62,-301.7"/>
</g>
<!-- Node9 -->
<g id="node9" class="node">
<title>Node9</title>
<g id="a_node9"><a xlink:href="namespaceargo_1_1env_a25a08cb2d0d11432d640ec7173063339.html#a25a08cb2d0d11432d640ec7173063339" target="_top" xlink:title="get the allocation policy requested by environment variable">
<polygon fill="white" stroke="black" points="972,-272 972,-302 1088,-302 1088,-272 972,-272"/>
<text text-anchor="start" x="980" y="-290" font-family="Helvetica,sans-Serif" font-size="10.00">argo::env::allocation</text>
<text text-anchor="middle" x="1030" y="-279" font-family="Helvetica,sans-Serif" font-size="10.00">_policy</text>
</a>
</g>
</g>
<!-- Node8&#45;&gt;Node9 -->
<g id="edge9" class="edge">
<title>Node8&#45;&gt;Node9</title>
<path fill="none" stroke="midnightblue" d="M936.3,-287C944.69,-287 953.32,-287 961.78,-287"/>
<polygon fill="midnightblue" stroke="midnightblue" points="961.99,-290.5 971.99,-287 961.99,-283.5 961.99,-290.5"/>
</g>
<!-- Node10&#45;&gt;Node8 -->
<g id="edge11" class="edge">
<title>Node10&#45;&gt;Node8</title>
<path fill="none" stroke="midnightblue" d="M773.21,-272.35C781.65,-273.61 790.36,-274.91 798.96,-276.19"/>
<polygon fill="midnightblue" stroke="midnightblue" points="798.56,-279.67 808.96,-277.68 799.59,-272.74 798.56,-279.67"/>
</g>
<!-- Node13&#45;&gt;Node13 -->
<g id="edge16" class="edge">
<title>Node13&#45;&gt;Node13</title>
<path fill="none" stroke="midnightblue" d="M360.53,-75.76C348.38,-84.57 356.71,-94 385.5,-94 404.85,-94 414.95,-89.74 415.81,-84.27"/>
<polygon fill="midnightblue" stroke="midnightblue" points="418.75,-82.37 410.47,-75.76 412.82,-86.09 418.75,-82.37"/>
</g>
<!-- Node14 -->
<g id="node14" class="node">
<title>Node14</title>
<g id="a_node14"><a xlink:href="swdsm_8cpp_a44b8bb7a3c8b47b4f9552c8e10b25e4b.html#a44b8bb7a3c8b47b4f9552c8e10b25e4b" target="_top" xlink:title="acquire function for ArgoDSM (Acquire according to Release Consistency)">
<polygon fill="white" stroke="black" points="507.5,-56.5 507.5,-75.5 587.5,-75.5 587.5,-56.5 507.5,-56.5"/>
<text text-anchor="middle" x="547.5" y="-63.5" font-family="Helvetica,sans-Serif" font-size="10.00">argo_acquire</text>
</a>
</g>
</g>
<!-- Node13&#45;&gt;Node14 -->
<g id="edge17" class="edge">
<title>Node13&#45;&gt;Node14</title>
<path fill="none" stroke="midnightblue" d="M449.28,-66C465.21,-66 482.1,-66 497.26,-66"/>
<polygon fill="midnightblue" stroke="midnightblue" points="497.44,-69.5 507.44,-66 497.44,-62.5 497.44,-69.5"/>
</g>
<!-- Node15 -->
<g id="node15" class="node">
<title>Node15</title>
<g id="a_node15"><a xlink:href="swdsm_8cpp_aa7c3a2de6bbafdaf68fe6ceb6110ab97.html#aa7c3a2de6bbafdaf68fe6ceb6110ab97" target="_top" xlink:title="Self&#45;Invalidates all memory that has potential writers.">
<polygon fill="white" stroke="black" points="660.5,-56.5 660.5,-75.5 758.5,-75.5 758.5,-56.5 660.5,-56.5"/>
<text text-anchor="middle" x="709.5" y="-63.5" font-family="Helvetica,sans-Serif" font-size="10.00">self_invalidation</text>
</a>
</g>
</g>
<!-- Node14&#45;&gt;Node15 -->
<g id="edge18" class="edge">
<title>Node14&#45;&gt;Node15</title>
<path fill="none" stroke="midnightblue" d="M587.64,-66C606.48,-66 629.46,-66 650.3,-66"/>
<polygon fill="midnightblue" stroke="midnightblue" points="650.33,-69.5 660.33,-66 650.33,-62.5 650.33,-69.5"/>
</g>
<!-- Node15&#45;&gt;Node6 -->
<g id="edge21" class="edge">
<title>Node15&#45;&gt;Node6</title>
<path fill="none" stroke="midnightblue" d="M723.68,-75.57C751.39,-95.71 815.95,-142.63 849.84,-167.26"/>
<polygon fill="midnightblue" stroke="midnightblue" points="848,-170.25 858.14,-173.29 852.11,-164.58 848,-170.25"/>
</g>
<!-- Node15&#45;&gt;Node11 -->
<g id="edge22" class="edge">
<title>Node15&#45;&gt;Node11</title>
<path fill="none" stroke="midnightblue" d="M747.84,-75.51C770.62,-81.31 799.94,-88.78 824.32,-94.99"/>
<polygon fill="midnightblue" stroke="midnightblue" points="823.53,-98.4 834.08,-97.47 825.26,-91.61 823.53,-98.4"/>
</g>
<!-- Node16 -->
<g id="node16" class="node">
<title>Node16</title>
<g id="a_node16"><a xlink:href="swdsm_8cpp_aff9ea7ba7f37206d933c8dc8004dbc7b.html#aff9ea7ba7f37206d933c8dc8004dbc7b" target="_top" xlink:title="Gives an index to the sharer/writer vector depending on the address.">
<polygon fill="white" stroke="black" points="822,-48 822,-78 923,-78 923,-48 822,-48"/>
<text text-anchor="start" x="830" y="-66" font-family="Helvetica,sans-Serif" font-size="10.00">get_classification</text>
<text text-anchor="middle" x="872.5" y="-55" font-family="Helvetica,sans-Serif" font-size="10.00">_index</text>
</a>
</g>
</g>
<!-- Node15&#45;&gt;Node16 -->
<g id="edge19" class="edge">
<title>Node15&#45;&gt;Node16</title>
<path fill="none" stroke="midnightblue" d="M758.81,-65.1C775.45,-64.79 794.3,-64.44 811.75,-64.11"/>
<polygon fill="midnightblue" stroke="midnightblue" points="811.9,-67.61 821.83,-63.93 811.77,-60.61 811.9,-67.61"/>
</g>
<!-- Node17 -->
<g id="node17" class="node">
<title>Node17</title>
<g id="a_node17"><a xlink:href="swdsm_8cpp_a7d0d0386804df222465aaa199aab92da.html#a7d0d0386804df222465aaa199aab92da" target="_top" xlink:title="Gets the sharer window index based on the classification index.">
<polygon fill="white" stroke="black" points="811,-9.5 811,-28.5 934,-28.5 934,-9.5 811,-9.5"/>
<text text-anchor="middle" x="872.5" y="-16.5" font-family="Helvetica,sans-Serif" font-size="10.00">get_sharer_win_index</text>
</a>
</g>
</g>
<!-- Node15&#45;&gt;Node17 -->
<g id="edge20" class="edge">
<title>Node15&#45;&gt;Node17</title>
<path fill="none" stroke="midnightblue" d="M743.08,-56.49C767.77,-49.28 801.91,-39.32 828.78,-31.47"/>
<polygon fill="midnightblue" stroke="midnightblue" points="830.07,-34.74 838.69,-28.58 828.11,-28.02 830.07,-34.74"/>
</g>
<!-- Node18&#45;&gt;Node2 -->
<g id="edge32" class="edge">
<title>Node18&#45;&gt;Node2</title>
<path fill="none" stroke="midnightblue" d="M233.73,-138.16C249.18,-162.4 282.51,-209.98 322,-238 324.07,-239.47 326.25,-240.87 328.49,-242.19"/>
<polygon fill="midnightblue" stroke="midnightblue" points="326.95,-245.33 337.43,-246.92 330.23,-239.15 326.95,-245.33"/>
</g>
<!-- Node18&#45;&gt;Node13 -->
<g id="edge33" class="edge">
<title>Node18&#45;&gt;Node13</title>
<path fill="none" stroke="midnightblue" d="M266.96,-107.87C292.18,-98.89 323.85,-87.61 347.95,-79.02"/>
<polygon fill="midnightblue" stroke="midnightblue" points="349.2,-82.29 357.45,-75.64 346.86,-75.7 349.2,-82.29"/>
</g>
<!-- Node18&#45;&gt;Node18 -->
<g id="edge34" class="edge">
<title>Node18&#45;&gt;Node18</title>
<path fill="none" stroke="midnightblue" d="M195.62,-138.16C188.89,-147.56 198.19,-156.5 223.5,-156.5 238.92,-156.5 248.4,-153.18 251.93,-148.46"/>
<polygon fill="midnightblue" stroke="midnightblue" points="255.41,-147.96 251.38,-138.16 248.42,-148.33 255.41,-147.96"/>
</g>
<!-- Node19 -->
<g id="node19" class="node">
<title>Node19</title>
<g id="a_node19"><a xlink:href="backend_8hpp_a62d5f2da9f560d2d8a956be88861af7b.html#a62d5f2da9f560d2d8a956be88861af7b" target="_top" xlink:title="Backend internal type erased atomic (post)increment function for floating point numbers.">
<polygon fill="white" stroke="black" points="323,-113 323,-143 448,-143 448,-113 323,-113"/>
<text text-anchor="start" x="331" y="-131" font-family="Helvetica,sans-Serif" font-size="10.00">argo::backend::atomic</text>
<text text-anchor="middle" x="385.5" y="-120" font-family="Helvetica,sans-Serif" font-size="10.00">::_fetch_add_float</text>
</a>
</g>
</g>
<!-- Node18&#45;&gt;Node19 -->
<g id="edge24" class="edge">
<title>Node18&#45;&gt;Node19</title>
<path fill="none" stroke="midnightblue" d="M286.36,-124.93C294.96,-125.2 303.85,-125.48 312.61,-125.75"/>
<polygon fill="midnightblue" stroke="midnightblue" points="312.7,-129.26 322.8,-126.07 312.92,-122.26 312.7,-129.26"/>
</g>
<!-- Node21 -->
<g id="node21" class="node">
<title>Node21</title>
<g id="a_node21"><a xlink:href="backend_8hpp_a42d4f07adf3b439564928f89022b74b5.html#a42d4f07adf3b439564928f89022b74b5" target="_top" xlink:title="Backend internal type erased atomic (post)increment function for signed integers.">
<polygon fill="white" stroke="black" points="323,-180 323,-210 448,-210 448,-180 323,-180"/>
<text text-anchor="start" x="331" y="-198" font-family="Helvetica,sans-Serif" font-size="10.00">argo::backend::atomic</text>
<text text-anchor="middle" x="385.5" y="-187" font-family="Helvetica,sans-Serif" font-size="10.00">::_fetch_add_int</text>
</a>
</g>
</g>
<!-- Node18&#45;&gt;Node21 -->
<g id="edge28" class="edge">
<title>Node18&#45;&gt;Node21</title>
<path fill="none" stroke="midnightblue" d="M254.55,-138.15C273.7,-147.63 299.13,-159.93 322,-170 326.63,-172.04 331.48,-174.1 336.34,-176.12"/>
<polygon fill="midnightblue" stroke="midnightblue" points="335.07,-179.39 345.65,-179.94 337.73,-172.91 335.07,-179.39"/>
</g>
<!-- Node18&#45;&gt;Node23 -->
<g id="edge35" class="edge">
<title>Node18&#45;&gt;Node23</title>
<path fill="none" stroke="midnightblue" d="M242.31,-108C261.47,-92.13 293.09,-66.7 322,-47 333.48,-39.18 346.65,-31.23 357.93,-24.73"/>
<polygon fill="midnightblue" stroke="midnightblue" points="359.93,-27.62 366.89,-19.63 356.47,-21.53 359.93,-27.62"/>
</g>
<!-- Node19&#45;&gt;Node3 -->
<g id="edge25" class="edge">
<title>Node19&#45;&gt;Node3</title>
<path fill="none" stroke="midnightblue" d="M413.31,-143.08C432.91,-153.88 460.28,-168.49 485,-180 489.34,-182.02 493.9,-184.05 498.48,-186.02"/>
<polygon fill="midnightblue" stroke="midnightblue" points="497.29,-189.32 507.86,-189.98 500.01,-182.87 497.29,-189.32"/>
</g>
<!-- Node19&#45;&gt;Node19 -->
<g id="edge26" class="edge">
<title>Node19&#45;&gt;Node19</title>
<path fill="none" stroke="midnightblue" d="M357.27,-143.16C350.46,-152.56 359.87,-161.5 385.5,-161.5 401.12,-161.5 410.71,-158.18 414.29,-153.46"/>
<polygon fill="midnightblue" stroke="midnightblue" points="417.76,-152.96 413.73,-143.16 410.77,-153.33 417.76,-152.96"/>
</g>
<!-- Node20 -->
<g id="node20" class="node">
<title>Node20</title>
<g id="a_node20"><a xlink:href="mpi_8cpp_adea840e8c8d40f0f9eacddc3a8bc600f.html#adea840e8c8d40f0f9eacddc3a8bc600f" target="_top" xlink:title="Returns an MPI floating point type that exactly matches in size the argument given.">
<polygon fill="white" stroke="black" points="499.5,-113.5 499.5,-132.5 595.5,-132.5 595.5,-113.5 499.5,-113.5"/>
<text text-anchor="middle" x="547.5" y="-120.5" font-family="Helvetica,sans-Serif" font-size="10.00">fitting_mpi_float</text>
</a>
</g>
</g>
<!-- Node19&#45;&gt;Node20 -->
<g id="edge27" class="edge">
<title>Node19&#45;&gt;Node20</title>
<path fill="none" stroke="midnightblue" d="M448.36,-126.07C461.68,-125.65 475.71,-125.21 488.87,-124.8"/>
<polygon fill="midnightblue" stroke="midnightblue" points="489.31,-128.29 499.2,-124.48 489.09,-121.29 489.31,-128.29"/>
</g>
<!-- Node21&#45;&gt;Node3 -->
<g id="edge29" class="edge">
<title>Node21&#45;&gt;Node3</title>
<path fill="none" stroke="midnightblue" d="M448.36,-198.87C456.96,-199.4 465.85,-199.96 474.61,-200.51"/>
<polygon fill="midnightblue" stroke="midnightblue" points="474.61,-204.01 484.8,-201.14 475.04,-197.03 474.61,-204.01"/>
</g>
<!-- Node21&#45;&gt;Node21 -->
<g id="edge30" class="edge">
<title>Node21&#45;&gt;Node21</title>
<path fill="none" stroke="midnightblue" d="M357.27,-210.16C350.46,-219.56 359.87,-228.5 385.5,-228.5 401.12,-228.5 410.71,-225.18 414.29,-220.46"/>
<polygon fill="midnightblue" stroke="midnightblue" points="417.76,-219.96 413.73,-210.16 410.77,-220.33 417.76,-219.96"/>
</g>
<!-- Node22 -->
<g id="node22" class="node">
<title>Node22</title>
<g id="a_node22"><a xlink:href="mpi_8cpp_a42bc863264a399b805b95e0fc53a9fed.html#a42bc863264a399b805b95e0fc53a9fed" target="_top" xlink:title="Returns an MPI integer type that exactly matches in size the argument given.">
<polygon fill="white" stroke="black" points="504,-151.5 504,-170.5 591,-170.5 591,-151.5 504,-151.5"/>
<text text-anchor="middle" x="547.5" y="-158.5" font-family="Helvetica,sans-Serif" font-size="10.00">fitting_mpi_int</text>
</a>
</g>
</g>
<!-- Node21&#45;&gt;Node22 -->
<g id="edge31" class="edge">
<title>Node21&#45;&gt;Node22</title>
<path fill="none" stroke="midnightblue" d="M448.36,-181.85C463.36,-178.67 479.27,-175.29 493.8,-172.2"/>
<polygon fill="midnightblue" stroke="midnightblue" points="494.57,-175.61 503.62,-170.11 493.11,-168.77 494.57,-175.61"/>
</g>
<!-- Node23&#45;&gt;Node23 -->
<g id="edge37" class="edge">
<title>Node23&#45;&gt;Node23</title>
<path fill="none" stroke="midnightblue" d="M360.53,-19.76C348.38,-28.57 356.71,-38 385.5,-38 404.85,-38 414.95,-33.74 415.81,-28.27"/>
<polygon fill="midnightblue" stroke="midnightblue" points="418.75,-26.37 410.47,-19.76 412.82,-30.09 418.75,-26.37"/>
</g>
<!-- Node24 -->
<g id="node24" class="node">
<title>Node24</title>
<g id="a_node24"><a xlink:href="swdsm_8cpp_ad390eb58e1be03ed6a0939fae7ebd20a.html#ad390eb58e1be03ed6a0939fae7ebd20a" target="_top" xlink:title="Release function for ArgoDSM (Release according to Release Consistency)">
<polygon fill="white" stroke="black" points="507.5,-0.5 507.5,-19.5 587.5,-19.5 587.5,-0.5 507.5,-0.5"/>
<text text-anchor="middle" x="547.5" y="-7.5" font-family="Helvetica,sans-Serif" font-size="10.00">argo_release</text>
</a>
</g>
</g>
<!-- Node23&#45;&gt;Node24 -->
<g id="edge36" class="edge">
<title>Node23&#45;&gt;Node24</title>
<path fill="none" stroke="midnightblue" d="M449.28,-10C465.21,-10 482.1,-10 497.26,-10"/>
<polygon fill="midnightblue" stroke="midnightblue" points="497.44,-13.5 507.44,-10 497.44,-6.5 497.44,-13.5"/>
</g>
</g>
</svg>
        <g id="navigator" transform="translate(0 0)" fill="#404254">
                <rect fill="#f2f5e9" fill-opacity="0.5" stroke="#606060" stroke-width=".5" x="0" y="0" width="60" height="60"/>
                <use id="zoomplus" xlink:href="#zoomPlus" x="17" y="9" onmousedown="handleZoom(evt,'in')"/>
                <use id="zoomminus" xlink:href="#zoomMin" x="42" y="9" onmousedown="handleZoom(evt,'out')"/>
                <use id="reset" xlink:href="#resetDef" x="30" y="36" onmousedown="handleReset()"/>
                <g id="arrowUp" xlink:href="#dirArrow" transform="translate(30 24)" onmousedown="handlePan(0,-1)">
                  <use xlink:href="#rim" fill="#404040">
                        <set attributeName="fill" to="#808080" begin="arrowUp.mouseover" end="arrowUp.mouseout"/>
                  </use>
                  <path fill="none" stroke="white" stroke-width="1.5" d="M0,-3.0v7 M-2.5,-0.5L0,-3.0L2.5,-0.5"/>
                </g>
                <g id="arrowRight" xlink:href="#dirArrow" transform="rotate(90) translate(36 -43)" onmousedown="handlePan(1,0)">
                  <use xlink:href="#rim" fill="#404040">
                        <set attributeName="fill" to="#808080" begin="arrowRight.mouseover" end="arrowRight.mouseout"/>
                  </use>
                  <path fill="none" stroke="white" stroke-width="1.5" d="M0,-3.0v7 M-2.5,-0.5L0,-3.0L2.5,-0.5"/>
                </g>
                <g id="arrowDown" xlink:href="#dirArrow" transform="rotate(180) translate(-30 -48)" onmousedown="handlePan(0,1)">
                  <use xlink:href="#rim" fill="#404040">
                        <set attributeName="fill" to="#808080" begin="arrowDown.mouseover" end="arrowDown.mouseout"/>
                  </use>
                  <path fill="none" stroke="white" stroke-width="1.5" d="M0,-3.0v7 M-2.5,-0.5L0,-3.0L2.5,-0.5"/>
                </g>
                <g id="arrowLeft" xlink:href="#dirArrow" transform="rotate(270) translate(-36 17)" onmousedown="handlePan(-1,0)">
                  <use xlink:href="#rim" fill="#404040">
                        <set attributeName="fill" to="#808080" begin="arrowLeft.mouseover" end="arrowLeft.mouseout"/>
                  </use>
                  <path fill="none" stroke="white" stroke-width="1.5" d="M0,-3.0v7 M-2.5,-0.5L0,-3.0L2.5,-0.5"/>
                </g>
        </g>
        <svg viewBox="0 0 15 15" width="100%" height="30px" preserveAspectRatio="xMaxYMin meet">
         <g id="arrow_out" transform="scale(0.3 0.3)">
          <a xlink:href="backend_8hpp_af6fcf616648da01f6a429033604fd829_af6fcf616648da01f6a429033604fd829_cgraph_org.svg" target="_base">
           <rect id="button" ry="5" rx="5" y="6" x="6" height="38" width="38"
                fill="#f2f5e9" fill-opacity="0.5" stroke="#606060" stroke-width="1.0"/>
           <path id="arrow"
             d="M 11.500037,31.436501 C 11.940474,20.09759 22.043105,11.32322 32.158766,21.979434 L 37.068811,17.246167 C 37.068811,17.246167 37.088388,32 37.088388,32 L 22.160133,31.978069 C 22.160133,31.978069 26.997745,27.140456 26.997745,27.140456 C 18.528582,18.264221 13.291696,25.230495 11.500037,31.436501 z"
             style="fill:#404040;"/>
          </a>
         </g>
        </svg>
</svg>
