<?xml version="1.0" encoding="UTF-8" standalone="no"?>
<!DOCTYPE svg PUBLIC "-//W3C//DTD SVG 1.1//EN"
 "http://www.w3.org/Graphics/SVG/1.1/DTD/svg11.dtd">
<!-- Generated by graphviz version 2.43.0 (0)
 -->
<!-- Title: argo::backend::atomic::_exchange Pages: 1 -->
<svg width="294pt" height="57pt"
 viewBox="0.00 0.00 294.00 57.00" xmlns="http://www.w3.org/2000/svg" xmlns:xlink="http://www.w3.org/1999/xlink">
<g id="graph0" class="graph" transform="scale(1 1) rotate(0) translate(4 53)">
<title>argo::backend::atomic::_exchange</title>
<polygon fill="white" stroke="transparent" points="-4,4 -4,-53 290,-53 290,4 -4,4"/>
<!-- Node1 -->
<g id="node1" class="node">
<title>Node1</title>
<g id="a_node1"><a xlink:title="Backend internal type erased atomic exchange function.">
<polygon fill="#bfbfbf" stroke="black" points="161,-0.5 161,-30.5 286,-30.5 286,-0.5 161,-0.5"/>
<text text-anchor="start" x="169" y="-18.5" font-family="Helvetica,sans-Serif" font-size="10.00">argo::backend::atomic</text>
<text text-anchor="middle" x="223.5" y="-7.5" font-family="Helvetica,sans-Serif" font-size="10.00">::_exchange</text>
</a>
</g>
</g>
<!-- Node1&#45;&gt;Node1 -->
<g id="edge1" class="edge">
<title>Node1&#45;&gt;Node1</title>
<path fill="none" stroke="midnightblue" d="M251.93,-40.96C248.4,-45.68 238.92,-49 223.5,-49 198.19,-49 188.89,-40.06 195.62,-30.66"/>
<polygon fill="midnightblue" stroke="midnightblue" points="255.41,-40.46 251.38,-30.66 248.42,-40.83 255.41,-40.46"/>
</g>
<!-- Node2 -->
<g id="node2" class="node">
<title>Node2</title>
<g id="a_node2"><a xlink:href="backend_8hpp_abe831501c00abf39b0519eef6789933f.html#abe831501c00abf39b0519eef6789933f" target="_top" xlink:title="atomic swap operation on a global address">
<polygon fill="white" stroke="black" points="0,-0.5 0,-30.5 125,-30.5 125,-0.5 0,-0.5"/>
<text text-anchor="start" x="8" y="-18.5" font-family="Helvetica,sans-Serif" font-size="10.00">argo::backend::atomic</text>
<text text-anchor="middle" x="62.5" y="-7.5" font-family="Helvetica,sans-Serif" font-size="10.00">::exchange</text>
</a>
</g>
</g>
<!-- Node1&#45;&gt;Node2 -->
<g id="edge2" class="edge">
<title>Node1&#45;&gt;Node2</title>
<path fill="none" stroke="midnightblue" d="M150.41,-15.5C142.01,-15.5 133.5,-15.5 125.26,-15.5"/>
<polygon fill="midnightblue" stroke="midnightblue" points="150.57,-19 160.57,-15.5 150.57,-12 150.57,-19"/>
</g>
<!-- Node2&#45;&gt;Node2 -->
<g id="edge3" class="edge">
<title>Node2&#45;&gt;Node2</title>
<path fill="none" stroke="midnightblue" d="M90.93,-40.96C87.4,-45.68 77.92,-49 62.5,-49 37.19,-49 27.89,-40.06 34.62,-30.66"/>
<polygon fill="midnightblue" stroke="midnightblue" points="94.41,-40.46 90.38,-30.66 87.42,-40.83 94.41,-40.46"/>
</g>
</g>
</svg>
