<?xml version="1.0" encoding="UTF-8" standalone="no"?>
<!DOCTYPE svg PUBLIC "-//W3C//DTD SVG 1.1//EN"
 "http://www.w3.org/Graphics/SVG/1.1/DTD/svg11.dtd">
<!-- Generated by graphviz version 2.43.0 (0)
 -->
<!-- Title: TEST_F Pages: 1 -->
<svg width="791pt" height="192pt"
 viewBox="0.00 0.00 791.00 191.50" xmlns="http://www.w3.org/2000/svg" xmlns:xlink="http://www.w3.org/1999/xlink">
<g id="graph0" class="graph" transform="scale(1 1) rotate(0) translate(4 187.5)">
<title>TEST_F</title>
<polygon fill="white" stroke="transparent" points="-4,4 -4,-187.5 787,-187.5 787,4 -4,4"/>
<!-- Node1 -->
<g id="node1" class="node">
<title>Node1</title>
<g id="a_node1"><a xlink:title="Test coherence of writes on a randomly accessed global page with one bulky selective_release and an a...">
<polygon fill="#bfbfbf" stroke="black" points="0,-38.5 0,-57.5 52,-57.5 52,-38.5 0,-38.5"/>
<text text-anchor="middle" x="26" y="-45.5" font-family="Helvetica,sans-Serif" font-size="10.00">TEST_F</text>
</a>
</g>
</g>
<!-- Node2 -->
<g id="node2" class="node">
<title>Node2</title>
<g id="a_node2"><a xlink:href="namespaceargo_aa7e8ddf5784dd37c965cfd43cd65a330.html#aa7e8ddf5784dd37c965cfd43cd65a330" target="_top" xlink:title="Delete a globally collectively allocated array of objects.">
<polygon fill="white" stroke="black" points="95,-76.5 95,-95.5 212,-95.5 212,-76.5 95,-76.5"/>
<text text-anchor="middle" x="153.5" y="-83.5" font-family="Helvetica,sans-Serif" font-size="10.00">argo::codelete_array</text>
</a>
</g>
</g>
<!-- Node1&#45;&gt;Node2 -->
<g id="edge1" class="edge">
<title>Node1&#45;&gt;Node2</title>
<path fill="none" stroke="midnightblue" d="M52.1,-55.6C68.98,-60.71 91.65,-67.57 111.17,-73.49"/>
<polygon fill="midnightblue" stroke="midnightblue" points="110.17,-76.84 120.75,-76.39 112.2,-70.14 110.17,-76.84"/>
</g>
<!-- Node7 -->
<g id="node7" class="node">
<title>Node7</title>
<g id="a_node7"><a xlink:href="namespaceargo_a188a4648d6e7549bcef4cee36dcb5336.html#a188a4648d6e7549bcef4cee36dcb5336" target="_top" xlink:title="A unique ArgoDSM node identifier. Counting starts from 0.">
<polygon fill="white" stroke="black" points="294,-38.5 294,-57.5 377,-57.5 377,-38.5 294,-38.5"/>
<text text-anchor="middle" x="335.5" y="-45.5" font-family="Helvetica,sans-Serif" font-size="10.00">argo::node_id</text>
</a>
</g>
</g>
<!-- Node1&#45;&gt;Node7 -->
<g id="edge8" class="edge">
<title>Node1&#45;&gt;Node7</title>
<path fill="none" stroke="midnightblue" d="M52.16,-48C102.61,-48 216.96,-48 283.63,-48"/>
<polygon fill="midnightblue" stroke="midnightblue" points="283.9,-51.5 293.9,-48 283.9,-44.5 283.9,-51.5"/>
</g>
<!-- Node9 -->
<g id="node9" class="node">
<title>Node9</title>
<g id="a_node9"><a xlink:href="namespaceargo_a7839b1673e9af449cad0e94dce253721.html#a7839b1673e9af449cad0e94dce253721" target="_top" xlink:title="Number of ArgoDSM nodes being run.">
<polygon fill="white" stroke="black" points="88,-0.5 88,-19.5 219,-19.5 219,-0.5 88,-0.5"/>
<text text-anchor="middle" x="153.5" y="-7.5" font-family="Helvetica,sans-Serif" font-size="10.00">argo::number_of_nodes</text>
</a>
</g>
</g>
<!-- Node1&#45;&gt;Node9 -->
<g id="edge9" class="edge">
<title>Node1&#45;&gt;Node9</title>
<path fill="none" stroke="midnightblue" d="M52.1,-40.4C68.98,-35.29 91.65,-28.43 111.17,-22.51"/>
<polygon fill="midnightblue" stroke="midnightblue" points="112.2,-25.86 120.75,-19.61 110.17,-19.16 112.2,-25.86"/>
</g>
<!-- Node3 -->
<g id="node3" class="node">
<title>Node3</title>
<g id="a_node3"><a xlink:href="classargo_1_1allocators_1_1generic__allocator_a6a7fe288a35b74a248c341d6f67c800c.html#a6a7fe288a35b74a248c341d6f67c800c" target="_top" xlink:title="How much space has been allocated for the given chunk.">
<polygon fill="white" stroke="black" points="261,-153 261,-183 410,-183 410,-153 261,-153"/>
<text text-anchor="start" x="269" y="-171" font-family="Helvetica,sans-Serif" font-size="10.00">argo::allocators::generic</text>
<text text-anchor="middle" x="335.5" y="-160" font-family="Helvetica,sans-Serif" font-size="10.00">_allocator::allocated_space</text>
</a>
</g>
</g>
<!-- Node2&#45;&gt;Node3 -->
<g id="edge2" class="edge">
<title>Node2&#45;&gt;Node3</title>
<path fill="none" stroke="midnightblue" d="M168.98,-95.51C188.07,-107.75 222.99,-129.08 255,-143 260.35,-145.33 266,-147.55 271.7,-149.63"/>
<polygon fill="midnightblue" stroke="midnightblue" points="270.73,-152.99 281.33,-153 273.05,-146.39 270.73,-152.99"/>
</g>
<!-- Node4 -->
<g id="node4" class="node">
<title>Node4</title>
<g id="a_node4"><a xlink:href="src_2allocators_2allocators_8cpp_a215edf4fe9276398650302b518c52baf.html#a215edf4fe9276398650302b518c52baf" target="_top" xlink:title="basic free function for collective allocations, for C interface">
<polygon fill="white" stroke="black" points="291,-114.5 291,-133.5 380,-133.5 380,-114.5 291,-114.5"/>
<text text-anchor="middle" x="335.5" y="-121.5" font-family="Helvetica,sans-Serif" font-size="10.00">collective_free</text>
</a>
</g>
</g>
<!-- Node2&#45;&gt;Node4 -->
<g id="edge3" class="edge">
<title>Node2&#45;&gt;Node4</title>
<path fill="none" stroke="midnightblue" d="M199.92,-95.59C224.56,-100.79 255.17,-107.25 280.96,-112.7"/>
<polygon fill="midnightblue" stroke="midnightblue" points="280.45,-116.17 290.96,-114.81 281.89,-109.32 280.45,-116.17"/>
</g>
<!-- Node2&#45;&gt;Node7 -->
<g id="edge6" class="edge">
<title>Node2&#45;&gt;Node7</title>
<path fill="none" stroke="midnightblue" d="M199.92,-76.41C225.5,-71.01 257.51,-64.25 283.89,-58.68"/>
<polygon fill="midnightblue" stroke="midnightblue" points="284.64,-62.1 293.7,-56.61 283.2,-55.25 284.64,-62.1"/>
</g>
<!-- Node8 -->
<g id="node8" class="node">
<title>Node8</title>
<g id="a_node8"><a xlink:href="namespaceargo_1_1mempools_aaa24afb08a15776a8f2440531ba3121c.html#aaa24afb08a15776a8f2440531ba3121c" target="_top" xlink:title="synchronize memory metainformation (address) after growing to ensure visibility">
<polygon fill="white" stroke="black" points="255,-76.5 255,-95.5 416,-95.5 416,-76.5 255,-76.5"/>
<text text-anchor="middle" x="335.5" y="-83.5" font-family="Helvetica,sans-Serif" font-size="10.00">argo::mempools::synchronize</text>
</a>
</g>
</g>
<!-- Node2&#45;&gt;Node8 -->
<g id="edge7" class="edge">
<title>Node2&#45;&gt;Node8</title>
<path fill="none" stroke="midnightblue" d="M212.44,-86C222.75,-86 233.7,-86 244.65,-86"/>
<polygon fill="midnightblue" stroke="midnightblue" points="244.69,-89.5 254.69,-86 244.69,-82.5 244.69,-89.5"/>
</g>
<!-- Node5 -->
<g id="node5" class="node">
<title>Node5</title>
<g id="a_node5"><a xlink:href="classargo_1_1allocators_1_1generic__allocator_ab98a25e383864eecd7d602f95c49c420.html#ab98a25e383864eecd7d602f95c49c420" target="_top" xlink:title="free an allocated pointer">
<polygon fill="white" stroke="black" points="452,-109 452,-139 586,-139 586,-109 452,-109"/>
<text text-anchor="start" x="460" y="-127" font-family="Helvetica,sans-Serif" font-size="10.00">argo::allocators::generic</text>
<text text-anchor="middle" x="519" y="-116" font-family="Helvetica,sans-Serif" font-size="10.00">_allocator::free</text>
</a>
</g>
</g>
<!-- Node4&#45;&gt;Node5 -->
<g id="edge4" class="edge">
<title>Node4&#45;&gt;Node5</title>
<path fill="none" stroke="midnightblue" d="M380.44,-124C398.83,-124 420.75,-124 441.64,-124"/>
<polygon fill="midnightblue" stroke="midnightblue" points="441.78,-127.5 451.78,-124 441.78,-120.5 441.78,-127.5"/>
</g>
<!-- Node6 -->
<g id="node6" class="node">
<title>Node6</title>
<g id="a_node6"><a xlink:href="classargo_1_1allocators_1_1generic__allocator_a83b1a04add59963243bfa60b48d58db4.html#a83b1a04add59963243bfa60b48d58db4" target="_top" xlink:title="helper function for deallocation">
<polygon fill="white" stroke="black" points="622,-109 622,-139 783,-139 783,-109 622,-109"/>
<text text-anchor="start" x="630" y="-127" font-family="Helvetica,sans-Serif" font-size="10.00">argo::allocators::generic</text>
<text text-anchor="middle" x="702.5" y="-116" font-family="Helvetica,sans-Serif" font-size="10.00">_allocator::deallocate_nosync</text>
</a>
</g>
</g>
<!-- Node5&#45;&gt;Node6 -->
<g id="edge5" class="edge">
<title>Node5&#45;&gt;Node6</title>
<path fill="none" stroke="midnightblue" d="M586.04,-124C594.42,-124 603.1,-124 611.77,-124"/>
<polygon fill="midnightblue" stroke="midnightblue" points="611.92,-127.5 621.92,-124 611.92,-120.5 611.92,-127.5"/>
</g>
</g>
</svg>
