<?xml version="1.0" encoding="UTF-8" standalone="no"?>
<!DOCTYPE svg PUBLIC "-//W3C//DTD SVG 1.1//EN"
 "http://www.w3.org/Graphics/SVG/1.1/DTD/svg11.dtd">
<!-- Generated by graphviz version 2.43.0 (0)
 -->
<!-- Title: argo::backend::atomic::fetch_add Pages: 1 -->
<svg width="935pt" height="336pt"
 viewBox="0.00 0.00 935.00 335.50" xmlns="http://www.w3.org/2000/svg" xmlns:xlink="http://www.w3.org/1999/xlink">
<g id="graph0" class="graph" transform="scale(1 1) rotate(0) translate(4 331.5)">
<title>argo::backend::atomic::fetch_add</title>
<polygon fill="white" stroke="transparent" points="-4,4 -4,-331.5 931,-331.5 931,4 -4,4"/>
<!-- Node1 -->
<g id="node1" class="node">
<title>Node1</title>
<g id="a_node1"><a xlink:title="Atomic fetch and add operation on a global address.">
<polygon fill="#bfbfbf" stroke="black" points="0,-113 0,-143 125,-143 125,-113 0,-113"/>
<text text-anchor="start" x="8" y="-131" font-family="Helvetica,sans-Serif" font-size="10.00">argo::backend::atomic</text>
<text text-anchor="middle" x="62.5" y="-120" font-family="Helvetica,sans-Serif" font-size="10.00">::fetch_add</text>
</a>
</g>
</g>
<!-- Node1&#45;&gt;Node1 -->
<g id="edge31" class="edge">
<title>Node1&#45;&gt;Node1</title>
<path fill="none" stroke="midnightblue" d="M34.27,-143.16C27.46,-152.56 36.87,-161.5 62.5,-161.5 78.12,-161.5 87.71,-158.18 91.29,-153.46"/>
<polygon fill="midnightblue" stroke="midnightblue" points="94.76,-152.96 90.73,-143.16 87.77,-153.33 94.76,-152.96"/>
</g>
<!-- Node2 -->
<g id="node2" class="node">
<title>Node2</title>
<g id="a_node2"><a xlink:href="backend_8hpp_a62d5f2da9f560d2d8a956be88861af7b.html#a62d5f2da9f560d2d8a956be88861af7b" target="_top" xlink:title="Backend internal type erased atomic (post)increment function for floating point numbers.">
<polygon fill="white" stroke="black" points="162,-180 162,-210 287,-210 287,-180 162,-180"/>
<text text-anchor="start" x="170" y="-198" font-family="Helvetica,sans-Serif" font-size="10.00">argo::backend::atomic</text>
<text text-anchor="middle" x="224.5" y="-187" font-family="Helvetica,sans-Serif" font-size="10.00">::_fetch_add_float</text>
</a>
</g>
</g>
<!-- Node1&#45;&gt;Node2 -->
<g id="edge1" class="edge">
<title>Node1&#45;&gt;Node2</title>
<path fill="none" stroke="midnightblue" d="M96.72,-143.13C115.49,-151.56 139.45,-162.12 161,-171 165.16,-172.72 169.5,-174.46 173.85,-176.19"/>
<polygon fill="midnightblue" stroke="midnightblue" points="172.79,-179.53 183.38,-179.92 175.34,-173.01 172.79,-179.53"/>
</g>
<!-- Node13 -->
<g id="node13" class="node">
<title>Node13</title>
<g id="a_node13"><a xlink:href="backend_8hpp_a42d4f07adf3b439564928f89022b74b5.html#a42d4f07adf3b439564928f89022b74b5" target="_top" xlink:title="Backend internal type erased atomic (post)increment function for signed integers.">
<polygon fill="white" stroke="black" points="162,-247 162,-277 287,-277 287,-247 162,-247"/>
<text text-anchor="start" x="170" y="-265" font-family="Helvetica,sans-Serif" font-size="10.00">argo::backend::atomic</text>
<text text-anchor="middle" x="224.5" y="-254" font-family="Helvetica,sans-Serif" font-size="10.00">::_fetch_add_int</text>
</a>
</g>
</g>
<!-- Node1&#45;&gt;Node13 -->
<g id="edge15" class="edge">
<title>Node1&#45;&gt;Node13</title>
<path fill="none" stroke="midnightblue" d="M73.4,-143.24C89.29,-166.62 122.62,-211.4 161,-238 163.13,-239.48 165.37,-240.88 167.67,-242.21"/>
<polygon fill="midnightblue" stroke="midnightblue" points="166.34,-245.46 176.83,-246.97 169.57,-239.25 166.34,-245.46"/>
</g>
<!-- Node15 -->
<g id="node15" class="node">
<title>Node15</title>
<g id="a_node15"><a xlink:href="backend_8hpp_ab1a86cdd5235a54afdf0ac3d9f9f6f9c.html#ab1a86cdd5235a54afdf0ac3d9f9f6f9c" target="_top" xlink:title="Backend internal type erased atomic (post)increment function for unsigned integers.">
<polygon fill="white" stroke="black" points="162,-113 162,-143 287,-143 287,-113 162,-113"/>
<text text-anchor="start" x="170" y="-131" font-family="Helvetica,sans-Serif" font-size="10.00">argo::backend::atomic</text>
<text text-anchor="middle" x="224.5" y="-120" font-family="Helvetica,sans-Serif" font-size="10.00">::_fetch_add_uint</text>
</a>
</g>
</g>
<!-- Node1&#45;&gt;Node15 -->
<g id="edge19" class="edge">
<title>Node1&#45;&gt;Node15</title>
<path fill="none" stroke="midnightblue" d="M125.36,-128C133.96,-128 142.85,-128 151.61,-128"/>
<polygon fill="midnightblue" stroke="midnightblue" points="151.8,-131.5 161.8,-128 151.8,-124.5 151.8,-131.5"/>
</g>
<!-- Node17 -->
<g id="node17" class="node">
<title>Node17</title>
<g id="a_node17"><a xlink:href="backend_8hpp_a1032f833666c3f810ac1c6210197d426.html#a1032f833666c3f810ac1c6210197d426" target="_top" xlink:title="causes a node to self&#45;invalidate its cache, and thus getting any updated values on subsequent accesse...">
<polygon fill="white" stroke="black" points="161,-56.5 161,-75.5 288,-75.5 288,-56.5 161,-56.5"/>
<text text-anchor="middle" x="224.5" y="-63.5" font-family="Helvetica,sans-Serif" font-size="10.00">argo::backend::acquire</text>
</a>
</g>
</g>
<!-- Node1&#45;&gt;Node17 -->
<g id="edge23" class="edge">
<title>Node1&#45;&gt;Node17</title>
<path fill="none" stroke="midnightblue" d="M102.23,-112.99C128.69,-102.74 163.43,-89.28 188.94,-79.39"/>
<polygon fill="midnightblue" stroke="midnightblue" points="190.52,-82.53 198.58,-75.66 187.99,-76.01 190.52,-82.53"/>
</g>
<!-- Node22 -->
<g id="node22" class="node">
<title>Node22</title>
<g id="a_node22"><a xlink:href="backend_8hpp_a8953c9cd9d3c56306740b6c9b97513a2.html#a8953c9cd9d3c56306740b6c9b97513a2" target="_top" xlink:title="causes a node to self&#45;downgrade its cache, making all previous writes to be propagated to the homenod...">
<polygon fill="white" stroke="black" points="161,-0.5 161,-19.5 288,-19.5 288,-0.5 161,-0.5"/>
<text text-anchor="middle" x="224.5" y="-7.5" font-family="Helvetica,sans-Serif" font-size="10.00">argo::backend::release</text>
</a>
</g>
</g>
<!-- Node1&#45;&gt;Node22 -->
<g id="edge32" class="edge">
<title>Node1&#45;&gt;Node22</title>
<path fill="none" stroke="midnightblue" d="M80.11,-112.81C99.01,-95.85 131.14,-68.04 161,-47 172.27,-39.06 185.32,-31.15 196.57,-24.69"/>
<polygon fill="midnightblue" stroke="midnightblue" points="198.53,-27.6 205.52,-19.64 195.09,-21.51 198.53,-27.6"/>
</g>
<!-- Node2&#45;&gt;Node2 -->
<g id="edge13" class="edge">
<title>Node2&#45;&gt;Node2</title>
<path fill="none" stroke="midnightblue" d="M196.27,-210.16C189.46,-219.56 198.87,-228.5 224.5,-228.5 240.12,-228.5 249.71,-225.18 253.29,-220.46"/>
<polygon fill="midnightblue" stroke="midnightblue" points="256.76,-219.96 252.73,-210.16 249.77,-220.33 256.76,-219.96"/>
</g>
<!-- Node3 -->
<g id="node3" class="node">
<title>Node3</title>
<g id="a_node3"><a xlink:href="mpi_8cpp_a9b1ef8bbaaf93b03603c2ab0ff3b6133.html#a9b1ef8bbaaf93b03603c2ab0ff3b6133" target="_top" xlink:title="Atomic fetch&amp;add for the MPI backend (for internal usage)">
<polygon fill="white" stroke="black" points="324,-190 324,-220 449,-220 449,-190 324,-190"/>
<text text-anchor="start" x="332" y="-208" font-family="Helvetica,sans-Serif" font-size="10.00">argo::backend::atomic</text>
<text text-anchor="middle" x="386.5" y="-197" font-family="Helvetica,sans-Serif" font-size="10.00">::_fetch_add</text>
</a>
</g>
</g>
<!-- Node2&#45;&gt;Node3 -->
<g id="edge2" class="edge">
<title>Node2&#45;&gt;Node3</title>
<path fill="none" stroke="midnightblue" d="M287.36,-198.87C295.96,-199.4 304.85,-199.96 313.61,-200.51"/>
<polygon fill="midnightblue" stroke="midnightblue" points="313.61,-204.01 323.8,-201.14 314.04,-197.03 313.61,-204.01"/>
</g>
<!-- Node12 -->
<g id="node12" class="node">
<title>Node12</title>
<g id="a_node12"><a xlink:href="mpi_8cpp_adea840e8c8d40f0f9eacddc3a8bc600f.html#adea840e8c8d40f0f9eacddc3a8bc600f" target="_top" xlink:title="Returns an MPI floating point type that exactly matches in size the argument given.">
<polygon fill="white" stroke="black" points="338.5,-151.5 338.5,-170.5 434.5,-170.5 434.5,-151.5 338.5,-151.5"/>
<text text-anchor="middle" x="386.5" y="-158.5" font-family="Helvetica,sans-Serif" font-size="10.00">fitting_mpi_float</text>
</a>
</g>
</g>
<!-- Node2&#45;&gt;Node12 -->
<g id="edge14" class="edge">
<title>Node2&#45;&gt;Node12</title>
<path fill="none" stroke="midnightblue" d="M287.36,-181.85C301.65,-178.82 316.76,-175.61 330.73,-172.64"/>
<polygon fill="midnightblue" stroke="midnightblue" points="331.62,-176.03 340.67,-170.53 330.16,-169.18 331.62,-176.03"/>
</g>
<!-- Node3&#45;&gt;Node3 -->
<g id="edge3" class="edge">
<title>Node3&#45;&gt;Node3</title>
<path fill="none" stroke="midnightblue" d="M358.27,-220.16C351.46,-229.56 360.87,-238.5 386.5,-238.5 402.12,-238.5 411.71,-235.18 415.29,-230.46"/>
<polygon fill="midnightblue" stroke="midnightblue" points="418.76,-229.96 414.73,-220.16 411.77,-230.33 418.76,-229.96"/>
</g>
<!-- Node4 -->
<g id="node4" class="node">
<title>Node4</title>
<g id="a_node4"><a xlink:href="swdsm_8cpp_af5bb31046df1aef1cccf72f19fe63640.html#af5bb31046df1aef1cccf72f19fe63640" target="_top" xlink:title="Gets the data window index based on the offset into the node&#39;s backing store.">
<polygon fill="white" stroke="black" points="491.5,-171.5 491.5,-190.5 605.5,-190.5 605.5,-171.5 491.5,-171.5"/>
<text text-anchor="middle" x="548.5" y="-178.5" font-family="Helvetica,sans-Serif" font-size="10.00">get_data_win_index</text>
</a>
</g>
</g>
<!-- Node3&#45;&gt;Node4 -->
<g id="edge4" class="edge">
<title>Node3&#45;&gt;Node4</title>
<path fill="none" stroke="midnightblue" d="M449.36,-195.72C459.82,-194.15 470.72,-192.52 481.29,-190.93"/>
<polygon fill="midnightblue" stroke="midnightblue" points="481.93,-194.38 491.3,-189.43 480.89,-187.45 481.93,-194.38"/>
</g>
<!-- Node5 -->
<g id="node5" class="node">
<title>Node5</title>
<g id="a_node5"><a xlink:href="swdsm_8cpp_a3f19b1fc7fe36a6eabdae48e53fb66fa.html#a3f19b1fc7fe36a6eabdae48e53fb66fa" target="_top" xlink:title="Gets the sharer window offset based on the classification index.">
<polygon fill="white" stroke="black" points="491,-133.5 491,-152.5 606,-152.5 606,-133.5 491,-133.5"/>
<text text-anchor="middle" x="548.5" y="-140.5" font-family="Helvetica,sans-Serif" font-size="10.00">get_data_win_offset</text>
</a>
</g>
</g>
<!-- Node3&#45;&gt;Node5 -->
<g id="edge5" class="edge">
<title>Node3&#45;&gt;Node5</title>
<path fill="none" stroke="midnightblue" d="M425.75,-189.99C433.49,-186.8 441.54,-183.37 449,-180 465.3,-172.63 468.38,-168.63 485,-162 490.6,-159.77 496.57,-157.64 502.52,-155.68"/>
<polygon fill="midnightblue" stroke="midnightblue" points="503.96,-158.89 512.43,-152.53 501.84,-152.22 503.96,-158.89"/>
</g>
<!-- Node6 -->
<g id="node6" class="node">
<title>Node6</title>
<g id="a_node6"><a xlink:href="classmpi__lock_a67301b26c3bb28c746e164c9f531d21d.html#a67301b26c3bb28c746e164c9f531d21d" target="_top" xlink:title="acquire mpi_lock">
<polygon fill="white" stroke="black" points="668,-191.5 668,-210.5 755,-210.5 755,-191.5 668,-191.5"/>
<text text-anchor="middle" x="711.5" y="-198.5" font-family="Helvetica,sans-Serif" font-size="10.00">mpi_lock::lock</text>
</a>
</g>
</g>
<!-- Node3&#45;&gt;Node6 -->
<g id="edge6" class="edge">
<title>Node3&#45;&gt;Node6</title>
<path fill="none" stroke="midnightblue" d="M449.01,-204.24C509.32,-203.49 600.3,-202.36 657.5,-201.66"/>
<polygon fill="midnightblue" stroke="midnightblue" points="657.82,-205.15 667.77,-201.53 657.73,-198.15 657.82,-205.15"/>
</g>
<!-- Node7 -->
<g id="node7" class="node">
<title>Node7</title>
<g id="a_node7"><a xlink:href="classargo_1_1data__distribution_1_1global__ptr_ac7d651586337d08cda18ef26ffcd34a0.html#ac7d651586337d08cda18ef26ffcd34a0" target="_top" xlink:title="return the home node of the value pointed to">
<polygon fill="white" stroke="black" points="485,-297 485,-327 612,-327 612,-297 485,-297"/>
<text text-anchor="start" x="493" y="-315" font-family="Helvetica,sans-Serif" font-size="10.00">argo::data_distribution</text>
<text text-anchor="middle" x="548.5" y="-304" font-family="Helvetica,sans-Serif" font-size="10.00">::global_ptr::node</text>
</a>
</g>
</g>
<!-- Node3&#45;&gt;Node7 -->
<g id="edge7" class="edge">
<title>Node3&#45;&gt;Node7</title>
<path fill="none" stroke="midnightblue" d="M411.81,-220.14C423.52,-227.88 437.48,-237.82 449,-248 466.92,-263.84 465.29,-274.45 485,-288 487.14,-289.47 489.38,-290.86 491.68,-292.19"/>
<polygon fill="midnightblue" stroke="midnightblue" points="490.36,-295.44 500.85,-296.94 493.58,-289.23 490.36,-295.44"/>
</g>
<!-- Node10 -->
<g id="node10" class="node">
<title>Node10</title>
<g id="a_node10"><a xlink:href="classargo_1_1data__distribution_1_1global__ptr_ad8c21c408fa2b926cfd9acfd87e8e4e6.html#ad8c21c408fa2b926cfd9acfd87e8e4e6" target="_top" xlink:title="return the offset on the home node&#39;s local memory share">
<polygon fill="white" stroke="black" points="485,-248 485,-278 612,-278 612,-248 485,-248"/>
<text text-anchor="start" x="493" y="-266" font-family="Helvetica,sans-Serif" font-size="10.00">argo::data_distribution</text>
<text text-anchor="middle" x="548.5" y="-255" font-family="Helvetica,sans-Serif" font-size="10.00">::global_ptr::offset</text>
</a>
</g>
</g>
<!-- Node3&#45;&gt;Node10 -->
<g id="edge10" class="edge">
<title>Node3&#45;&gt;Node10</title>
<path fill="none" stroke="midnightblue" d="M429.12,-220.09C449.77,-227.57 474.89,-236.68 496.66,-244.57"/>
<polygon fill="midnightblue" stroke="midnightblue" points="495.49,-247.87 506.09,-247.99 497.88,-241.29 495.49,-247.87"/>
</g>
<!-- Node11 -->
<g id="node11" class="node">
<title>Node11</title>
<g id="a_node11"><a xlink:href="classmpi__lock_a38cb3649cba54a2818810c444a8b475a.html#a38cb3649cba54a2818810c444a8b475a" target="_top" xlink:title="release mpi_lock">
<polygon fill="white" stroke="black" points="662,-97.5 662,-116.5 761,-116.5 761,-97.5 662,-97.5"/>
<text text-anchor="middle" x="711.5" y="-104.5" font-family="Helvetica,sans-Serif" font-size="10.00">mpi_lock::unlock</text>
</a>
</g>
</g>
<!-- Node3&#45;&gt;Node11 -->
<g id="edge12" class="edge">
<title>Node3&#45;&gt;Node11</title>
<path fill="none" stroke="midnightblue" d="M433.63,-189.97C439.11,-187.13 444.39,-183.83 449,-180 471.77,-161.1 459.58,-139.15 485,-124 535.38,-93.98 603.74,-93.21 651.95,-97.77"/>
<polygon fill="midnightblue" stroke="midnightblue" points="651.61,-101.25 661.92,-98.81 652.34,-94.29 651.61,-101.25"/>
</g>
<!-- Node8 -->
<g id="node8" class="node">
<title>Node8</title>
<g id="a_node8"><a xlink:href="classargo_1_1data__distribution_1_1global__ptr_ae4353680349f6abbd2cf262dace8e2f2.html#ae4353680349f6abbd2cf262dace8e2f2" target="_top" xlink:title="return a pointer to the selected allocation policy">
<polygon fill="white" stroke="black" points="648,-266 648,-296 775,-296 775,-266 648,-266"/>
<text text-anchor="start" x="656" y="-284" font-family="Helvetica,sans-Serif" font-size="10.00">argo::data_distribution</text>
<text text-anchor="middle" x="711.5" y="-273" font-family="Helvetica,sans-Serif" font-size="10.00">::global_ptr::policy</text>
</a>
</g>
</g>
<!-- Node7&#45;&gt;Node8 -->
<g id="edge8" class="edge">
<title>Node7&#45;&gt;Node8</title>
<path fill="none" stroke="midnightblue" d="M612.21,-299.93C620.65,-298.3 629.36,-296.62 637.96,-294.97"/>
<polygon fill="midnightblue" stroke="midnightblue" points="638.81,-298.37 647.96,-293.04 637.48,-291.5 638.81,-298.37"/>
</g>
<!-- Node9 -->
<g id="node9" class="node">
<title>Node9</title>
<g id="a_node9"><a xlink:href="namespaceargo_1_1env_a25a08cb2d0d11432d640ec7173063339.html#a25a08cb2d0d11432d640ec7173063339" target="_top" xlink:title="get the allocation policy requested by environment variable">
<polygon fill="white" stroke="black" points="811,-266 811,-296 927,-296 927,-266 811,-266"/>
<text text-anchor="start" x="819" y="-284" font-family="Helvetica,sans-Serif" font-size="10.00">argo::env::allocation</text>
<text text-anchor="middle" x="869" y="-273" font-family="Helvetica,sans-Serif" font-size="10.00">_policy</text>
</a>
</g>
</g>
<!-- Node8&#45;&gt;Node9 -->
<g id="edge9" class="edge">
<title>Node8&#45;&gt;Node9</title>
<path fill="none" stroke="midnightblue" d="M775.3,-281C783.69,-281 792.32,-281 800.78,-281"/>
<polygon fill="midnightblue" stroke="midnightblue" points="800.99,-284.5 810.99,-281 800.99,-277.5 800.99,-284.5"/>
</g>
<!-- Node10&#45;&gt;Node8 -->
<g id="edge11" class="edge">
<title>Node10&#45;&gt;Node8</title>
<path fill="none" stroke="midnightblue" d="M612.21,-270.01C620.65,-270.95 629.36,-271.93 637.96,-272.89"/>
<polygon fill="midnightblue" stroke="midnightblue" points="637.64,-276.38 647.96,-274.01 638.41,-269.42 637.64,-276.38"/>
</g>
<!-- Node13&#45;&gt;Node3 -->
<g id="edge16" class="edge">
<title>Node13&#45;&gt;Node3</title>
<path fill="none" stroke="midnightblue" d="M267.96,-246.87C288.11,-239.7 312.37,-231.05 333.6,-223.49"/>
<polygon fill="midnightblue" stroke="midnightblue" points="334.88,-226.75 343.12,-220.1 332.53,-220.16 334.88,-226.75"/>
</g>
<!-- Node13&#45;&gt;Node13 -->
<g id="edge17" class="edge">
<title>Node13&#45;&gt;Node13</title>
<path fill="none" stroke="midnightblue" d="M196.27,-277.16C189.46,-286.56 198.87,-295.5 224.5,-295.5 240.12,-295.5 249.71,-292.18 253.29,-287.46"/>
<polygon fill="midnightblue" stroke="midnightblue" points="256.76,-286.96 252.73,-277.16 249.77,-287.33 256.76,-286.96"/>
</g>
<!-- Node14 -->
<g id="node14" class="node">
<title>Node14</title>
<g id="a_node14"><a xlink:href="mpi_8cpp_a42bc863264a399b805b95e0fc53a9fed.html#a42bc863264a399b805b95e0fc53a9fed" target="_top" xlink:title="Returns an MPI integer type that exactly matches in size the argument given.">
<polygon fill="white" stroke="black" points="343,-257.5 343,-276.5 430,-276.5 430,-257.5 343,-257.5"/>
<text text-anchor="middle" x="386.5" y="-264.5" font-family="Helvetica,sans-Serif" font-size="10.00">fitting_mpi_int</text>
</a>
</g>
</g>
<!-- Node13&#45;&gt;Node14 -->
<g id="edge18" class="edge">
<title>Node13&#45;&gt;Node14</title>
<path fill="none" stroke="midnightblue" d="M287.36,-263.93C302.22,-264.4 317.96,-264.89 332.38,-265.34"/>
<polygon fill="midnightblue" stroke="midnightblue" points="332.52,-268.85 342.62,-265.66 332.74,-261.85 332.52,-268.85"/>
</g>
<!-- Node15&#45;&gt;Node3 -->
<g id="edge20" class="edge">
<title>Node15&#45;&gt;Node3</title>
<path fill="none" stroke="midnightblue" d="M252.31,-143.08C271.91,-153.88 299.28,-168.49 324,-180 328.34,-182.02 332.9,-184.05 337.48,-186.02"/>
<polygon fill="midnightblue" stroke="midnightblue" points="336.29,-189.32 346.86,-189.98 339.01,-182.87 336.29,-189.32"/>
</g>
<!-- Node15&#45;&gt;Node15 -->
<g id="edge21" class="edge">
<title>Node15&#45;&gt;Node15</title>
<path fill="none" stroke="midnightblue" d="M196.27,-143.16C189.46,-152.56 198.87,-161.5 224.5,-161.5 240.12,-161.5 249.71,-158.18 253.29,-153.46"/>
<polygon fill="midnightblue" stroke="midnightblue" points="256.76,-152.96 252.73,-143.16 249.77,-153.33 256.76,-152.96"/>
</g>
<!-- Node16 -->
<g id="node16" class="node">
<title>Node16</title>
<g id="a_node16"><a xlink:href="mpi_8cpp_ae015b5e2a129a9cfdd5ae15c33609c3f.html#ae015b5e2a129a9cfdd5ae15c33609c3f" target="_top" xlink:title="Returns an MPI unsigned integer type that exactly matches in size the argument given.">
<polygon fill="white" stroke="black" points="340,-113.5 340,-132.5 433,-132.5 433,-113.5 340,-113.5"/>
<text text-anchor="middle" x="386.5" y="-120.5" font-family="Helvetica,sans-Serif" font-size="10.00">fitting_mpi_uint</text>
</a>
</g>
</g>
<!-- Node15&#45;&gt;Node16 -->
<g id="edge22" class="edge">
<title>Node15&#45;&gt;Node16</title>
<path fill="none" stroke="midnightblue" d="M287.36,-126.07C301.24,-125.63 315.88,-125.18 329.5,-124.75"/>
<polygon fill="midnightblue" stroke="midnightblue" points="329.8,-128.24 339.69,-124.43 329.58,-121.25 329.8,-128.24"/>
</g>
<!-- Node17&#45;&gt;Node17 -->
<g id="edge24" class="edge">
<title>Node17&#45;&gt;Node17</title>
<path fill="none" stroke="midnightblue" d="M199.53,-75.76C187.38,-84.57 195.71,-94 224.5,-94 243.85,-94 253.95,-89.74 254.81,-84.27"/>
<polygon fill="midnightblue" stroke="midnightblue" points="257.75,-82.37 249.47,-75.76 251.82,-86.09 257.75,-82.37"/>
</g>
<!-- Node18 -->
<g id="node18" class="node">
<title>Node18</title>
<g id="a_node18"><a xlink:href="swdsm_8cpp_a44b8bb7a3c8b47b4f9552c8e10b25e4b.html#a44b8bb7a3c8b47b4f9552c8e10b25e4b" target="_top" xlink:title="acquire function for ArgoDSM (Acquire according to Release Consistency)">
<polygon fill="white" stroke="black" points="346.5,-56.5 346.5,-75.5 426.5,-75.5 426.5,-56.5 346.5,-56.5"/>
<text text-anchor="middle" x="386.5" y="-63.5" font-family="Helvetica,sans-Serif" font-size="10.00">argo_acquire</text>
</a>
</g>
</g>
<!-- Node17&#45;&gt;Node18 -->
<g id="edge25" class="edge">
<title>Node17&#45;&gt;Node18</title>
<path fill="none" stroke="midnightblue" d="M288.28,-66C304.21,-66 321.1,-66 336.26,-66"/>
<polygon fill="midnightblue" stroke="midnightblue" points="336.44,-69.5 346.44,-66 336.44,-62.5 336.44,-69.5"/>
</g>
<!-- Node19 -->
<g id="node19" class="node">
<title>Node19</title>
<g id="a_node19"><a xlink:href="swdsm_8cpp_aa7c3a2de6bbafdaf68fe6ceb6110ab97.html#aa7c3a2de6bbafdaf68fe6ceb6110ab97" target="_top" xlink:title="Self&#45;Invalidates all memory that has potential writers.">
<polygon fill="white" stroke="black" points="499.5,-56.5 499.5,-75.5 597.5,-75.5 597.5,-56.5 499.5,-56.5"/>
<text text-anchor="middle" x="548.5" y="-63.5" font-family="Helvetica,sans-Serif" font-size="10.00">self_invalidation</text>
</a>
</g>
</g>
<!-- Node18&#45;&gt;Node19 -->
<g id="edge26" class="edge">
<title>Node18&#45;&gt;Node19</title>
<path fill="none" stroke="midnightblue" d="M426.64,-66C445.48,-66 468.46,-66 489.3,-66"/>
<polygon fill="midnightblue" stroke="midnightblue" points="489.33,-69.5 499.33,-66 489.33,-62.5 489.33,-69.5"/>
</g>
<!-- Node19&#45;&gt;Node6 -->
<g id="edge29" class="edge">
<title>Node19&#45;&gt;Node6</title>
<path fill="none" stroke="midnightblue" d="M561.08,-75.71C588.46,-98.67 657.45,-156.51 691.24,-184.85"/>
<polygon fill="midnightblue" stroke="midnightblue" points="689.11,-187.64 699.03,-191.38 693.61,-182.27 689.11,-187.64"/>
</g>
<!-- Node19&#45;&gt;Node11 -->
<g id="edge30" class="edge">
<title>Node19&#45;&gt;Node11</title>
<path fill="none" stroke="midnightblue" d="M586.84,-75.51C609.62,-81.31 638.94,-88.78 663.32,-94.99"/>
<polygon fill="midnightblue" stroke="midnightblue" points="662.53,-98.4 673.08,-97.47 664.26,-91.61 662.53,-98.4"/>
</g>
<!-- Node20 -->
<g id="node20" class="node">
<title>Node20</title>
<g id="a_node20"><a xlink:href="swdsm_8cpp_aff9ea7ba7f37206d933c8dc8004dbc7b.html#aff9ea7ba7f37206d933c8dc8004dbc7b" target="_top" xlink:title="Gives an index to the sharer/writer vector depending on the address.">
<polygon fill="white" stroke="black" points="661,-48 661,-78 762,-78 762,-48 661,-48"/>
<text text-anchor="start" x="669" y="-66" font-family="Helvetica,sans-Serif" font-size="10.00">get_classification</text>
<text text-anchor="middle" x="711.5" y="-55" font-family="Helvetica,sans-Serif" font-size="10.00">_index</text>
</a>
</g>
</g>
<!-- Node19&#45;&gt;Node20 -->
<g id="edge27" class="edge">
<title>Node19&#45;&gt;Node20</title>
<path fill="none" stroke="midnightblue" d="M597.81,-65.1C614.45,-64.79 633.3,-64.44 650.75,-64.11"/>
<polygon fill="midnightblue" stroke="midnightblue" points="650.9,-67.61 660.83,-63.93 650.77,-60.61 650.9,-67.61"/>
</g>
<!-- Node21 -->
<g id="node21" class="node">
<title>Node21</title>
<g id="a_node21"><a xlink:href="swdsm_8cpp_a7d0d0386804df222465aaa199aab92da.html#a7d0d0386804df222465aaa199aab92da" target="_top" xlink:title="Gets the sharer window index based on the classification index.">
<polygon fill="white" stroke="black" points="650,-9.5 650,-28.5 773,-28.5 773,-9.5 650,-9.5"/>
<text text-anchor="middle" x="711.5" y="-16.5" font-family="Helvetica,sans-Serif" font-size="10.00">get_sharer_win_index</text>
</a>
</g>
</g>
<!-- Node19&#45;&gt;Node21 -->
<g id="edge28" class="edge">
<title>Node19&#45;&gt;Node21</title>
<path fill="none" stroke="midnightblue" d="M582.08,-56.49C606.77,-49.28 640.91,-39.32 667.78,-31.47"/>
<polygon fill="midnightblue" stroke="midnightblue" points="669.07,-34.74 677.69,-28.58 667.11,-28.02 669.07,-34.74"/>
</g>
<!-- Node22&#45;&gt;Node22 -->
<g id="edge34" class="edge">
<title>Node22&#45;&gt;Node22</title>
<path fill="none" stroke="midnightblue" d="M199.53,-19.76C187.38,-28.57 195.71,-38 224.5,-38 243.85,-38 253.95,-33.74 254.81,-28.27"/>
<polygon fill="midnightblue" stroke="midnightblue" points="257.75,-26.37 249.47,-19.76 251.82,-30.09 257.75,-26.37"/>
</g>
<!-- Node23 -->
<g id="node23" class="node">
<title>Node23</title>
<g id="a_node23"><a xlink:href="swdsm_8cpp_ad390eb58e1be03ed6a0939fae7ebd20a.html#ad390eb58e1be03ed6a0939fae7ebd20a" target="_top" xlink:title="Release function for ArgoDSM (Release according to Release Consistency)">
<polygon fill="white" stroke="black" points="346.5,-0.5 346.5,-19.5 426.5,-19.5 426.5,-0.5 346.5,-0.5"/>
<text text-anchor="middle" x="386.5" y="-7.5" font-family="Helvetica,sans-Serif" font-size="10.00">argo_release</text>
</a>
</g>
</g>
<!-- Node22&#45;&gt;Node23 -->
<g id="edge33" class="edge">
<title>Node22&#45;&gt;Node23</title>
<path fill="none" stroke="midnightblue" d="M288.28,-10C304.21,-10 321.1,-10 336.26,-10"/>
<polygon fill="midnightblue" stroke="midnightblue" points="336.44,-13.5 346.44,-10 336.44,-6.5 336.44,-13.5"/>
</g>
</g>
</svg>
