<?xml version="1.0" encoding="UTF-8" standalone="no"?>
<!DOCTYPE svg PUBLIC "-//W3C//DTD SVG 1.1//EN"
 "http://www.w3.org/Graphics/SVG/1.1/DTD/svg11.dtd">
<!-- Generated by graphviz version 2.43.0 (0)
 -->
<!-- Title: argo::backend::global_size Pages: 1 -->
<svg width="309pt" height="46pt"
 viewBox="0.00 0.00 309.00 46.00" xmlns="http://www.w3.org/2000/svg" xmlns:xlink="http://www.w3.org/1999/xlink">
<g id="graph0" class="graph" transform="scale(1 1) rotate(0) translate(4 42)">
<title>argo::backend::global_size</title>
<polygon fill="white" stroke="transparent" points="-4,4 -4,-42 305,-42 305,4 -4,4"/>
<!-- Node1 -->
<g id="node1" class="node">
<title>Node1</title>
<g id="a_node1"><a xlink:title="get the total amount of global memory">
<polygon fill="#bfbfbf" stroke="black" points="0,-0.5 0,-19.5 146,-19.5 146,-0.5 0,-0.5"/>
<text text-anchor="middle" x="73" y="-7.5" font-family="Helvetica,sans-Serif" font-size="10.00">argo::backend::global_size</text>
</a>
</g>
</g>
<!-- Node1&#45;&gt;Node1 -->
<g id="edge2" class="edge">
<title>Node1&#45;&gt;Node1</title>
<path fill="none" stroke="midnightblue" d="M47.11,-19.76C34.51,-28.57 43.14,-38 73,-38 93.06,-38 103.54,-33.74 104.44,-28.27"/>
<polygon fill="midnightblue" stroke="midnightblue" points="107.28,-26.23 98.89,-19.76 101.42,-30.05 107.28,-26.23"/>
</g>
<!-- Node2 -->
<g id="node2" class="node">
<title>Node2</title>
<g id="a_node2"><a xlink:href="swdsm_8cpp_a7fa0b4b75ca70b2147eefcececefec89.html#a7fa0b4b75ca70b2147eefcececefec89" target="_top" xlink:title="Size of global address space.">
<polygon fill="white" stroke="black" points="182,-0.5 182,-19.5 301,-19.5 301,-0.5 182,-0.5"/>
<text text-anchor="middle" x="241.5" y="-7.5" font-family="Helvetica,sans-Serif" font-size="10.00">argo_get_global_size</text>
</a>
</g>
</g>
<!-- Node1&#45;&gt;Node2 -->
<g id="edge1" class="edge">
<title>Node1&#45;&gt;Node2</title>
<path fill="none" stroke="midnightblue" d="M146.06,-10C154.56,-10 163.21,-10 171.67,-10"/>
<polygon fill="midnightblue" stroke="midnightblue" points="171.85,-13.5 181.85,-10 171.85,-6.5 171.85,-13.5"/>
</g>
</g>
</svg>
