<?xml version="1.0" encoding="UTF-8" standalone="no"?>
<!DOCTYPE svg PUBLIC "-//W3C//DTD SVG 1.1//EN"
 "http://www.w3.org/Graphics/SVG/1.1/DTD/svg11.dtd">
<!-- Generated by graphviz version 2.43.0 (0)
 -->
<!-- Title: argo::backend::_selective_release Pages: 1 -->
<svg width="915pt" height="294pt"
 viewBox="0.00 0.00 915.00 294.00" xmlns="http://www.w3.org/2000/svg" xmlns:xlink="http://www.w3.org/1999/xlink">
<g id="graph0" class="graph" transform="scale(1 1) rotate(0) translate(4 290)">
<title>argo::backend::_selective_release</title>
<polygon fill="white" stroke="transparent" points="-4,4 -4,-290 911,-290 911,4 -4,4"/>
<!-- Node1 -->
<g id="node1" class="node">
<title>Node1</title>
<g id="a_node1"><a xlink:title="backend internal type erased function for selective release">
<polygon fill="#bfbfbf" stroke="black" points="0,-204 0,-234 140,-234 140,-204 0,-204"/>
<text text-anchor="start" x="8" y="-222" font-family="Helvetica,sans-Serif" font-size="10.00">argo::backend::_selective</text>
<text text-anchor="middle" x="70" y="-211" font-family="Helvetica,sans-Serif" font-size="10.00">_release</text>
</a>
</g>
</g>
<!-- Node1&#45;&gt;Node1 -->
<g id="edge1" class="edge">
<title>Node1&#45;&gt;Node1</title>
<path fill="none" stroke="midnightblue" d="M43.16,-234.16C36.69,-243.56 45.64,-252.5 70,-252.5 84.85,-252.5 93.97,-249.18 97.36,-244.46"/>
<polygon fill="midnightblue" stroke="midnightblue" points="100.84,-243.97 96.84,-234.16 93.85,-244.32 100.84,-243.97"/>
</g>
<!-- Node2 -->
<g id="node2" class="node">
<title>Node2</title>
<g id="a_node2"><a xlink:href="swdsm_8cpp_a59e4c59c2940cc3727debeeff4af1889.html#a59e4c59c2940cc3727debeeff4af1889" target="_top" xlink:title="Gets cacheindex for a given address.">
<polygon fill="white" stroke="black" points="180.5,-266.5 180.5,-285.5 269.5,-285.5 269.5,-266.5 180.5,-266.5"/>
<text text-anchor="middle" x="225" y="-273.5" font-family="Helvetica,sans-Serif" font-size="10.00">getCacheIndex</text>
</a>
</g>
</g>
<!-- Node1&#45;&gt;Node2 -->
<g id="edge2" class="edge">
<title>Node1&#45;&gt;Node2</title>
<path fill="none" stroke="midnightblue" d="M111.6,-234.13C135.61,-243.07 165.73,-254.29 188.74,-262.87"/>
<polygon fill="midnightblue" stroke="midnightblue" points="187.54,-266.15 198.13,-266.36 189.98,-259.59 187.54,-266.15"/>
</g>
<!-- Node3 -->
<g id="node3" class="node">
<title>Node3</title>
<g id="a_node3"><a xlink:href="namespaceargo_a188a4648d6e7549bcef4cee36dcb5336.html#a188a4648d6e7549bcef4cee36dcb5336" target="_top" xlink:title="A unique ArgoDSM node identifier. Counting starts from 0.">
<polygon fill="white" stroke="black" points="183.5,-228.5 183.5,-247.5 266.5,-247.5 266.5,-228.5 183.5,-228.5"/>
<text text-anchor="middle" x="225" y="-235.5" font-family="Helvetica,sans-Serif" font-size="10.00">argo::node_id</text>
</a>
</g>
</g>
<!-- Node1&#45;&gt;Node3 -->
<g id="edge3" class="edge">
<title>Node1&#45;&gt;Node3</title>
<path fill="none" stroke="midnightblue" d="M140.34,-227.61C151.37,-228.98 162.6,-230.37 173.1,-231.68"/>
<polygon fill="midnightblue" stroke="midnightblue" points="172.97,-235.19 183.33,-232.95 173.83,-228.24 172.97,-235.19"/>
</g>
<!-- Node4 -->
<g id="node4" class="node">
<title>Node4</title>
<g id="a_node4"><a xlink:href="swdsm_8cpp_ac2a76a52d43c19cf7d5ed770e14c4409.html#ac2a76a52d43c19cf7d5ed770e14c4409" target="_top" xlink:title="Gives homenode for a given address.">
<polygon fill="white" stroke="black" points="176,-190.5 176,-209.5 274,-209.5 274,-190.5 176,-190.5"/>
<text text-anchor="middle" x="225" y="-197.5" font-family="Helvetica,sans-Serif" font-size="10.00">peek_homenode</text>
</a>
</g>
</g>
<!-- Node1&#45;&gt;Node4 -->
<g id="edge4" class="edge">
<title>Node1&#45;&gt;Node4</title>
<path fill="none" stroke="midnightblue" d="M140.34,-210.39C148.88,-209.33 157.55,-208.25 165.9,-207.22"/>
<polygon fill="midnightblue" stroke="midnightblue" points="166.41,-210.68 175.9,-205.97 165.55,-203.73 166.41,-210.68"/>
</g>
<!-- Node8 -->
<g id="node8" class="node">
<title>Node8</title>
<g id="a_node8"><a xlink:href="swdsm_8cpp_a3b6a6b2b244edb9faa79814ce8e5e9f5.html#a3b6a6b2b244edb9faa79814ce8e5e9f5" target="_top" xlink:title="stores a page remotely &#45; only writing back what has been written locally since last synchronization p...">
<polygon fill="white" stroke="black" points="181,-114.5 181,-133.5 269,-133.5 269,-114.5 181,-114.5"/>
<text text-anchor="middle" x="225" y="-121.5" font-family="Helvetica,sans-Serif" font-size="10.00">storepageDIFF</text>
</a>
</g>
</g>
<!-- Node1&#45;&gt;Node8 -->
<g id="edge8" class="edge">
<title>Node1&#45;&gt;Node8</title>
<path fill="none" stroke="midnightblue" d="M95.24,-203.95C123.83,-186.2 171.07,-156.86 199.69,-139.1"/>
<polygon fill="midnightblue" stroke="midnightblue" points="201.63,-142.01 208.28,-133.76 197.94,-136.06 201.63,-142.01"/>
</g>
<!-- Node5 -->
<g id="node5" class="node">
<title>Node5</title>
<g id="a_node5"><a xlink:href="classargo_1_1data__distribution_1_1global__ptr_a3e2cdd4d323ef91174615e27ab94e342.html#a3e2cdd4d323ef91174615e27ab94e342" target="_top" xlink:title="return the home node of the value pointed to, or a default value if the page has not yet been first&#45;t...">
<polygon fill="white" stroke="black" points="461,-196 461,-226 592,-226 592,-196 461,-196"/>
<text text-anchor="start" x="469" y="-214" font-family="Helvetica,sans-Serif" font-size="10.00">argo::data_distribution</text>
<text text-anchor="middle" x="526.5" y="-203" font-family="Helvetica,sans-Serif" font-size="10.00">::global_ptr::peek_node</text>
</a>
</g>
</g>
<!-- Node4&#45;&gt;Node5 -->
<g id="edge5" class="edge">
<title>Node4&#45;&gt;Node5</title>
<path fill="none" stroke="midnightblue" d="M260.04,-209.51C275.2,-213.27 293.36,-217.14 310,-219 356.58,-224.2 409.13,-222.4 450.68,-219.21"/>
<polygon fill="midnightblue" stroke="midnightblue" points="451.04,-222.69 460.72,-218.39 450.47,-215.71 451.04,-222.69"/>
</g>
<!-- Node6 -->
<g id="node6" class="node">
<title>Node6</title>
<g id="a_node6"><a xlink:href="classargo_1_1data__distribution_1_1global__ptr_ae4353680349f6abbd2cf262dace8e2f2.html#ae4353680349f6abbd2cf262dace8e2f2" target="_top" xlink:title="return a pointer to the selected allocation policy">
<polygon fill="white" stroke="black" points="628,-120 628,-150 755,-150 755,-120 628,-120"/>
<text text-anchor="start" x="636" y="-138" font-family="Helvetica,sans-Serif" font-size="10.00">argo::data_distribution</text>
<text text-anchor="middle" x="691.5" y="-127" font-family="Helvetica,sans-Serif" font-size="10.00">::global_ptr::policy</text>
</a>
</g>
</g>
<!-- Node5&#45;&gt;Node6 -->
<g id="edge6" class="edge">
<title>Node5&#45;&gt;Node6</title>
<path fill="none" stroke="midnightblue" d="M559.7,-195.98C585.29,-184.05 621.27,-167.28 649.02,-154.34"/>
<polygon fill="midnightblue" stroke="midnightblue" points="650.5,-157.51 658.08,-150.11 647.54,-151.17 650.5,-157.51"/>
</g>
<!-- Node7 -->
<g id="node7" class="node">
<title>Node7</title>
<g id="a_node7"><a xlink:href="namespaceargo_1_1env_a25a08cb2d0d11432d640ec7173063339.html#a25a08cb2d0d11432d640ec7173063339" target="_top" xlink:title="get the allocation policy requested by environment variable">
<polygon fill="white" stroke="black" points="791,-120 791,-150 907,-150 907,-120 791,-120"/>
<text text-anchor="start" x="799" y="-138" font-family="Helvetica,sans-Serif" font-size="10.00">argo::env::allocation</text>
<text text-anchor="middle" x="849" y="-127" font-family="Helvetica,sans-Serif" font-size="10.00">_policy</text>
</a>
</g>
</g>
<!-- Node6&#45;&gt;Node7 -->
<g id="edge7" class="edge">
<title>Node6&#45;&gt;Node7</title>
<path fill="none" stroke="midnightblue" d="M755.3,-135C763.69,-135 772.32,-135 780.78,-135"/>
<polygon fill="midnightblue" stroke="midnightblue" points="780.99,-138.5 790.99,-135 780.99,-131.5 780.99,-138.5"/>
</g>
<!-- Node9 -->
<g id="node9" class="node">
<title>Node9</title>
<g id="a_node9"><a xlink:href="swdsm_8cpp_af5bb31046df1aef1cccf72f19fe63640.html#af5bb31046df1aef1cccf72f19fe63640" target="_top" xlink:title="Gets the data window index based on the offset into the node&#39;s backing store.">
<polygon fill="white" stroke="black" points="310.5,-190.5 310.5,-209.5 424.5,-209.5 424.5,-190.5 310.5,-190.5"/>
<text text-anchor="middle" x="367.5" y="-197.5" font-family="Helvetica,sans-Serif" font-size="10.00">get_data_win_index</text>
</a>
</g>
</g>
<!-- Node8&#45;&gt;Node9 -->
<g id="edge9" class="edge">
<title>Node8&#45;&gt;Node9</title>
<path fill="none" stroke="midnightblue" d="M237.88,-133.61C253.59,-145.94 282.53,-167.38 310,-181 314.29,-183.13 318.88,-185.11 323.52,-186.93"/>
<polygon fill="midnightblue" stroke="midnightblue" points="322.43,-190.26 333.03,-190.42 324.85,-183.68 322.43,-190.26"/>
</g>
<!-- Node10 -->
<g id="node10" class="node">
<title>Node10</title>
<g id="a_node10"><a xlink:href="swdsm_8cpp_a3f19b1fc7fe36a6eabdae48e53fb66fa.html#a3f19b1fc7fe36a6eabdae48e53fb66fa" target="_top" xlink:title="Gets the sharer window offset based on the classification index.">
<polygon fill="white" stroke="black" points="310,-152.5 310,-171.5 425,-171.5 425,-152.5 310,-152.5"/>
<text text-anchor="middle" x="367.5" y="-159.5" font-family="Helvetica,sans-Serif" font-size="10.00">get_data_win_offset</text>
</a>
</g>
</g>
<!-- Node8&#45;&gt;Node10 -->
<g id="edge10" class="edge">
<title>Node8&#45;&gt;Node10</title>
<path fill="none" stroke="midnightblue" d="M261.45,-133.59C279.59,-138.49 301.87,-144.52 321.23,-149.76"/>
<polygon fill="midnightblue" stroke="midnightblue" points="320.49,-153.18 331.06,-152.41 322.32,-146.42 320.49,-153.18"/>
</g>
<!-- Node11 -->
<g id="node11" class="node">
<title>Node11</title>
<g id="a_node11"><a xlink:href="swdsm_8cpp_ab2e5fbbe4d1f44d25619f290dc37dd3e.html#ab2e5fbbe4d1f44d25619f290dc37dd3e" target="_top" xlink:title="Gives homenode for a given address.">
<polygon fill="white" stroke="black" points="323,-114.5 323,-133.5 412,-133.5 412,-114.5 323,-114.5"/>
<text text-anchor="middle" x="367.5" y="-121.5" font-family="Helvetica,sans-Serif" font-size="10.00">get_homenode</text>
</a>
</g>
</g>
<!-- Node8&#45;&gt;Node11 -->
<g id="edge11" class="edge">
<title>Node8&#45;&gt;Node11</title>
<path fill="none" stroke="midnightblue" d="M269.3,-124C282.93,-124 298.15,-124 312.42,-124"/>
<polygon fill="midnightblue" stroke="midnightblue" points="312.62,-127.5 322.62,-124 312.62,-120.5 312.62,-127.5"/>
</g>
<!-- Node13 -->
<g id="node13" class="node">
<title>Node13</title>
<g id="a_node13"><a xlink:href="swdsm_8cpp_a974f1a03f5461bb989248cceb41cd95b.html#a974f1a03f5461bb989248cceb41cd95b" target="_top" xlink:title="Gets the offset of an address on the local nodes part of the global memory.">
<polygon fill="white" stroke="black" points="335,-76.5 335,-95.5 400,-95.5 400,-76.5 335,-76.5"/>
<text text-anchor="middle" x="367.5" y="-83.5" font-family="Helvetica,sans-Serif" font-size="10.00">get_offset</text>
</a>
</g>
</g>
<!-- Node8&#45;&gt;Node13 -->
<g id="edge14" class="edge">
<title>Node8&#45;&gt;Node13</title>
<path fill="none" stroke="midnightblue" d="M261.45,-114.41C280.79,-109.18 304.82,-102.68 325.02,-97.22"/>
<polygon fill="midnightblue" stroke="midnightblue" points="326.15,-100.54 334.89,-94.55 324.33,-93.78 326.15,-100.54"/>
</g>
<!-- Node15 -->
<g id="node15" class="node">
<title>Node15</title>
<g id="a_node15"><a xlink:href="classmpi__lock_a67301b26c3bb28c746e164c9f531d21d.html#a67301b26c3bb28c746e164c9f531d21d" target="_top" xlink:title="acquire mpi_lock">
<polygon fill="white" stroke="black" points="324,-38.5 324,-57.5 411,-57.5 411,-38.5 324,-38.5"/>
<text text-anchor="middle" x="367.5" y="-45.5" font-family="Helvetica,sans-Serif" font-size="10.00">mpi_lock::lock</text>
</a>
</g>
</g>
<!-- Node8&#45;&gt;Node15 -->
<g id="edge17" class="edge">
<title>Node8&#45;&gt;Node15</title>
<path fill="none" stroke="midnightblue" d="M237.88,-114.39C253.59,-102.06 282.53,-80.62 310,-67 314.29,-64.87 318.88,-62.89 323.52,-61.07"/>
<polygon fill="midnightblue" stroke="midnightblue" points="324.85,-64.32 333.03,-57.58 322.43,-57.74 324.85,-64.32"/>
</g>
<!-- Node16 -->
<g id="node16" class="node">
<title>Node16</title>
<g id="a_node16"><a xlink:href="classmpi__lock_a38cb3649cba54a2818810c444a8b475a.html#a38cb3649cba54a2818810c444a8b475a" target="_top" xlink:title="release mpi_lock">
<polygon fill="white" stroke="black" points="318,-0.5 318,-19.5 417,-19.5 417,-0.5 318,-0.5"/>
<text text-anchor="middle" x="367.5" y="-7.5" font-family="Helvetica,sans-Serif" font-size="10.00">mpi_lock::unlock</text>
</a>
</g>
</g>
<!-- Node8&#45;&gt;Node16 -->
<g id="edge18" class="edge">
<title>Node8&#45;&gt;Node16</title>
<path fill="none" stroke="midnightblue" d="M231.94,-114.43C244.21,-95.43 274.22,-52.73 310,-29 313.07,-26.96 316.38,-25.13 319.8,-23.47"/>
<polygon fill="midnightblue" stroke="midnightblue" points="321.22,-26.67 329.03,-19.51 318.46,-20.24 321.22,-26.67"/>
</g>
<!-- Node12 -->
<g id="node12" class="node">
<title>Node12</title>
<g id="a_node12"><a xlink:href="classargo_1_1data__distribution_1_1global__ptr_ac7d651586337d08cda18ef26ffcd34a0.html#ac7d651586337d08cda18ef26ffcd34a0" target="_top" xlink:title="return the home node of the value pointed to">
<polygon fill="white" stroke="black" points="463,-120 463,-150 590,-150 590,-120 463,-120"/>
<text text-anchor="start" x="471" y="-138" font-family="Helvetica,sans-Serif" font-size="10.00">argo::data_distribution</text>
<text text-anchor="middle" x="526.5" y="-127" font-family="Helvetica,sans-Serif" font-size="10.00">::global_ptr::node</text>
</a>
</g>
</g>
<!-- Node11&#45;&gt;Node12 -->
<g id="edge12" class="edge">
<title>Node11&#45;&gt;Node12</title>
<path fill="none" stroke="midnightblue" d="M412.23,-127.06C424.86,-127.95 439,-128.94 452.89,-129.91"/>
<polygon fill="midnightblue" stroke="midnightblue" points="452.71,-133.41 462.93,-130.62 453.2,-126.43 452.71,-133.41"/>
</g>
<!-- Node12&#45;&gt;Node6 -->
<g id="edge13" class="edge">
<title>Node12&#45;&gt;Node6</title>
<path fill="none" stroke="midnightblue" d="M590.05,-135C599.06,-135 608.38,-135 617.57,-135"/>
<polygon fill="midnightblue" stroke="midnightblue" points="617.84,-138.5 627.84,-135 617.84,-131.5 617.84,-138.5"/>
</g>
<!-- Node14 -->
<g id="node14" class="node">
<title>Node14</title>
<g id="a_node14"><a xlink:href="classargo_1_1data__distribution_1_1global__ptr_ad8c21c408fa2b926cfd9acfd87e8e4e6.html#ad8c21c408fa2b926cfd9acfd87e8e4e6" target="_top" xlink:title="return the offset on the home node&#39;s local memory share">
<polygon fill="white" stroke="black" points="463,-71 463,-101 590,-101 590,-71 463,-71"/>
<text text-anchor="start" x="471" y="-89" font-family="Helvetica,sans-Serif" font-size="10.00">argo::data_distribution</text>
<text text-anchor="middle" x="526.5" y="-78" font-family="Helvetica,sans-Serif" font-size="10.00">::global_ptr::offset</text>
</a>
</g>
</g>
<!-- Node13&#45;&gt;Node14 -->
<g id="edge15" class="edge">
<title>Node13&#45;&gt;Node14</title>
<path fill="none" stroke="midnightblue" d="M400.27,-86C415.47,-86 434.34,-86 452.78,-86"/>
<polygon fill="midnightblue" stroke="midnightblue" points="452.95,-89.5 462.95,-86 452.95,-82.5 452.95,-89.5"/>
</g>
<!-- Node14&#45;&gt;Node6 -->
<g id="edge16" class="edge">
<title>Node14&#45;&gt;Node6</title>
<path fill="none" stroke="midnightblue" d="M577.74,-101.1C594.39,-106.11 613.1,-111.73 630.42,-116.94"/>
<polygon fill="midnightblue" stroke="midnightblue" points="629.85,-120.42 640.43,-119.95 631.86,-113.72 629.85,-120.42"/>
</g>
</g>
</svg>
