<?xml version="1.0" encoding="UTF-8" standalone="no"?>
<!DOCTYPE svg PUBLIC "-//W3C//DTD SVG 1.1//EN"
 "http://www.w3.org/Graphics/SVG/1.1/DTD/svg11.dtd">
<!-- Generated by graphviz version 2.43.0 (0)
 -->
<!-- Title: argo::backend::release Pages: 1 -->
<svg width="251pt" height="46pt"
 viewBox="0.00 0.00 251.00 46.00" xmlns="http://www.w3.org/2000/svg" xmlns:xlink="http://www.w3.org/1999/xlink">
<g id="graph0" class="graph" transform="scale(1 1) rotate(0) translate(4 42)">
<title>argo::backend::release</title>
<polygon fill="white" stroke="transparent" points="-4,4 -4,-42 247,-42 247,4 -4,4"/>
<!-- Node1 -->
<g id="node1" class="node">
<title>Node1</title>
<g id="a_node1"><a xlink:title="causes a node to self&#45;downgrade its cache, making all previous writes to be propagated to the homenod...">
<polygon fill="#bfbfbf" stroke="black" points="0,-0.5 0,-19.5 127,-19.5 127,-0.5 0,-0.5"/>
<text text-anchor="middle" x="63.5" y="-7.5" font-family="Helvetica,sans-Serif" font-size="10.00">argo::backend::release</text>
</a>
</g>
</g>
<!-- Node1&#45;&gt;Node1 -->
<g id="edge2" class="edge">
<title>Node1&#45;&gt;Node1</title>
<path fill="none" stroke="midnightblue" d="M42.23,-19.76C31.88,-28.57 38.97,-38 63.5,-38 79.21,-38 87.77,-34.13 89.17,-29.03"/>
<polygon fill="midnightblue" stroke="midnightblue" points="92.22,-27.29 84.77,-19.76 85.89,-30.29 92.22,-27.29"/>
</g>
<!-- Node2 -->
<g id="node2" class="node">
<title>Node2</title>
<g id="a_node2"><a xlink:href="swdsm_8cpp_ad390eb58e1be03ed6a0939fae7ebd20a.html#ad390eb58e1be03ed6a0939fae7ebd20a" target="_top" xlink:title="Release function for ArgoDSM (Release according to Release Consistency)">
<polygon fill="white" stroke="black" points="163,-0.5 163,-19.5 243,-19.5 243,-0.5 163,-0.5"/>
<text text-anchor="middle" x="203" y="-7.5" font-family="Helvetica,sans-Serif" font-size="10.00">argo_release</text>
</a>
</g>
</g>
<!-- Node1&#45;&gt;Node2 -->
<g id="edge1" class="edge">
<title>Node1&#45;&gt;Node2</title>
<path fill="none" stroke="midnightblue" d="M127.21,-10C135.78,-10 144.47,-10 152.75,-10"/>
<polygon fill="midnightblue" stroke="midnightblue" points="152.98,-13.5 162.98,-10 152.98,-6.5 152.98,-13.5"/>
</g>
</g>
</svg>
