<?xml version="1.0" encoding="UTF-8" standalone="no"?>
<!DOCTYPE svg PUBLIC "-//W3C//DTD SVG 1.1//EN"
 "http://www.w3.org/Graphics/SVG/1.1/DTD/svg11.dtd">
<!-- Generated by graphviz version 2.43.0 (0)
 -->
<!-- Title: argo::backend::atomic::store Pages: 1 -->
<svg width="1051pt" height="366pt"
 viewBox="0.00 0.00 1051.00 366.00" xmlns="http://www.w3.org/2000/svg" xmlns:xlink="http://www.w3.org/1999/xlink">
<g id="graph0" class="graph" transform="scale(1 1) rotate(0) translate(4 362)">
<title>argo::backend::atomic::store</title>
<polygon fill="white" stroke="transparent" points="-4,4 -4,-362 1047,-362 1047,4 -4,4"/>
<!-- Node1 -->
<g id="node1" class="node">
<title>Node1</title>
<g id="a_node1"><a xlink:title="Atomic store operation on a global address.">
<polygon fill="#bfbfbf" stroke="black" points="0,-94.5 0,-124.5 125,-124.5 125,-94.5 0,-94.5"/>
<text text-anchor="start" x="8" y="-112.5" font-family="Helvetica,sans-Serif" font-size="10.00">argo::backend::atomic</text>
<text text-anchor="middle" x="62.5" y="-101.5" font-family="Helvetica,sans-Serif" font-size="10.00">::store</text>
</a>
</g>
</g>
<!-- Node1&#45;&gt;Node1 -->
<g id="edge24" class="edge">
<title>Node1&#45;&gt;Node1</title>
<path fill="none" stroke="midnightblue" d="M34.27,-124.66C27.46,-134.06 36.87,-143 62.5,-143 78.12,-143 87.71,-139.68 91.29,-134.96"/>
<polygon fill="midnightblue" stroke="midnightblue" points="94.76,-134.46 90.73,-124.66 87.77,-134.83 94.76,-134.46"/>
</g>
<!-- Node2 -->
<g id="node2" class="node">
<title>Node2</title>
<g id="a_node2"><a xlink:href="backend_8hpp_ae76ec4647c992bfecf6309787f3dec4a.html#ae76ec4647c992bfecf6309787f3dec4a" target="_top" xlink:title="Backend internal type erased atomic store function.">
<polygon fill="white" stroke="black" points="440,-177.5 440,-207.5 565,-207.5 565,-177.5 440,-177.5"/>
<text text-anchor="start" x="448" y="-195.5" font-family="Helvetica,sans-Serif" font-size="10.00">argo::backend::atomic</text>
<text text-anchor="middle" x="502.5" y="-184.5" font-family="Helvetica,sans-Serif" font-size="10.00">::_store</text>
</a>
</g>
</g>
<!-- Node1&#45;&gt;Node2 -->
<g id="edge1" class="edge">
<title>Node1&#45;&gt;Node2</title>
<path fill="none" stroke="midnightblue" d="M97.63,-124.65C116.06,-132.27 139.41,-141.02 161,-146.5 252.21,-169.64 360.29,-181.73 429.83,-187.6"/>
<polygon fill="midnightblue" stroke="midnightblue" points="429.55,-191.09 439.8,-188.42 430.12,-184.11 429.55,-191.09"/>
</g>
<!-- Node12 -->
<g id="node12" class="node">
<title>Node12</title>
<g id="a_node12"><a xlink:href="backend_8hpp_a1032f833666c3f810ac1c6210197d426.html#a1032f833666c3f810ac1c6210197d426" target="_top" xlink:title="causes a node to self&#45;invalidate its cache, and thus getting any updated values on subsequent accesse...">
<polygon fill="white" stroke="black" points="161,-100 161,-119 288,-119 288,-100 161,-100"/>
<text text-anchor="middle" x="224.5" y="-107" font-family="Helvetica,sans-Serif" font-size="10.00">argo::backend::acquire</text>
</a>
</g>
</g>
<!-- Node1&#45;&gt;Node12 -->
<g id="edge13" class="edge">
<title>Node1&#45;&gt;Node12</title>
<path fill="none" stroke="midnightblue" d="M125.36,-109.5C133.61,-109.5 142.14,-109.5 150.56,-109.5"/>
<polygon fill="midnightblue" stroke="midnightblue" points="150.75,-113 160.75,-109.5 150.75,-106 150.75,-113"/>
</g>
<!-- Node17 -->
<g id="node17" class="node">
<title>Node17</title>
<g id="a_node17"><a xlink:href="backend_8hpp_a8953c9cd9d3c56306740b6c9b97513a2.html#a8953c9cd9d3c56306740b6c9b97513a2" target="_top" xlink:title="causes a node to self&#45;downgrade its cache, making all previous writes to be propagated to the homenod...">
<polygon fill="white" stroke="black" points="161,-44 161,-63 288,-63 288,-44 161,-44"/>
<text text-anchor="middle" x="224.5" y="-51" font-family="Helvetica,sans-Serif" font-size="10.00">argo::backend::release</text>
</a>
</g>
</g>
<!-- Node1&#45;&gt;Node17 -->
<g id="edge21" class="edge">
<title>Node1&#45;&gt;Node17</title>
<path fill="none" stroke="midnightblue" d="M106.38,-94.49C131.44,-85.72 162.74,-74.77 186.67,-66.39"/>
<polygon fill="midnightblue" stroke="midnightblue" points="187.83,-69.69 196.11,-63.08 185.52,-63.09 187.83,-69.69"/>
</g>
<!-- Node2&#45;&gt;Node2 -->
<g id="edge2" class="edge">
<title>Node2&#45;&gt;Node2</title>
<path fill="none" stroke="midnightblue" d="M478.45,-207.66C472.65,-217.06 480.67,-226 502.5,-226 515.8,-226 523.98,-222.68 527.02,-217.96"/>
<polygon fill="midnightblue" stroke="midnightblue" points="530.5,-217.49 526.55,-207.66 523.51,-217.81 530.5,-217.49"/>
</g>
<!-- Node3 -->
<g id="node3" class="node">
<title>Node3</title>
<g id="a_node3"><a xlink:href="mpi_8cpp_a42bc863264a399b805b95e0fc53a9fed.html#a42bc863264a399b805b95e0fc53a9fed" target="_top" xlink:title="Returns an MPI integer type that exactly matches in size the argument given.">
<polygon fill="white" stroke="black" points="621,-240 621,-259 708,-259 708,-240 621,-240"/>
<text text-anchor="middle" x="664.5" y="-247" font-family="Helvetica,sans-Serif" font-size="10.00">fitting_mpi_int</text>
</a>
</g>
</g>
<!-- Node2&#45;&gt;Node3 -->
<g id="edge3" class="edge">
<title>Node2&#45;&gt;Node3</title>
<path fill="none" stroke="midnightblue" d="M540.29,-207.61C558.45,-214.86 580.74,-223.48 601,-230.5 607.34,-232.69 614.08,-234.89 620.7,-236.97"/>
<polygon fill="midnightblue" stroke="midnightblue" points="619.68,-240.31 630.26,-239.91 621.74,-233.62 619.68,-240.31"/>
</g>
<!-- Node4 -->
<g id="node4" class="node">
<title>Node4</title>
<g id="a_node4"><a xlink:href="swdsm_8cpp_af5bb31046df1aef1cccf72f19fe63640.html#af5bb31046df1aef1cccf72f19fe63640" target="_top" xlink:title="Gets the data window index based on the offset into the node&#39;s backing store.">
<polygon fill="white" stroke="black" points="607.5,-202 607.5,-221 721.5,-221 721.5,-202 607.5,-202"/>
<text text-anchor="middle" x="664.5" y="-209" font-family="Helvetica,sans-Serif" font-size="10.00">get_data_win_index</text>
</a>
</g>
</g>
<!-- Node2&#45;&gt;Node4 -->
<g id="edge4" class="edge">
<title>Node2&#45;&gt;Node4</title>
<path fill="none" stroke="midnightblue" d="M565.36,-199.85C575.82,-201.09 586.72,-202.38 597.29,-203.64"/>
<polygon fill="midnightblue" stroke="midnightblue" points="596.95,-207.12 607.3,-204.83 597.78,-200.17 596.95,-207.12"/>
</g>
<!-- Node5 -->
<g id="node5" class="node">
<title>Node5</title>
<g id="a_node5"><a xlink:href="swdsm_8cpp_a3f19b1fc7fe36a6eabdae48e53fb66fa.html#a3f19b1fc7fe36a6eabdae48e53fb66fa" target="_top" xlink:title="Gets the sharer window offset based on the classification index.">
<polygon fill="white" stroke="black" points="607,-164 607,-183 722,-183 722,-164 607,-164"/>
<text text-anchor="middle" x="664.5" y="-171" font-family="Helvetica,sans-Serif" font-size="10.00">get_data_win_offset</text>
</a>
</g>
</g>
<!-- Node2&#45;&gt;Node5 -->
<g id="edge5" class="edge">
<title>Node2&#45;&gt;Node5</title>
<path fill="none" stroke="midnightblue" d="M565.36,-185.15C575.58,-183.94 586.22,-182.68 596.56,-181.45"/>
<polygon fill="midnightblue" stroke="midnightblue" points="597.26,-184.89 606.78,-180.24 596.43,-177.94 597.26,-184.89"/>
</g>
<!-- Node6 -->
<g id="node6" class="node">
<title>Node6</title>
<g id="a_node6"><a xlink:href="classmpi__lock_a67301b26c3bb28c746e164c9f531d21d.html#a67301b26c3bb28c746e164c9f531d21d" target="_top" xlink:title="acquire mpi_lock">
<polygon fill="white" stroke="black" points="621,-88 621,-107 708,-107 708,-88 621,-88"/>
<text text-anchor="middle" x="664.5" y="-95" font-family="Helvetica,sans-Serif" font-size="10.00">mpi_lock::lock</text>
</a>
</g>
</g>
<!-- Node2&#45;&gt;Node6 -->
<g id="edge6" class="edge">
<title>Node2&#45;&gt;Node6</title>
<path fill="none" stroke="midnightblue" d="M519.12,-177.32C537.39,-160.32 569.19,-133.01 601,-116.5 605.3,-114.27 609.91,-112.25 614.61,-110.44"/>
<polygon fill="midnightblue" stroke="midnightblue" points="616.03,-113.65 624.28,-107.01 613.69,-107.05 616.03,-113.65"/>
</g>
<!-- Node7 -->
<g id="node7" class="node">
<title>Node7</title>
<g id="a_node7"><a xlink:href="classargo_1_1data__distribution_1_1global__ptr_ac7d651586337d08cda18ef26ffcd34a0.html#ac7d651586337d08cda18ef26ffcd34a0" target="_top" xlink:title="return the home node of the value pointed to">
<polygon fill="white" stroke="black" points="601,-278.5 601,-308.5 728,-308.5 728,-278.5 601,-278.5"/>
<text text-anchor="start" x="609" y="-296.5" font-family="Helvetica,sans-Serif" font-size="10.00">argo::data_distribution</text>
<text text-anchor="middle" x="664.5" y="-285.5" font-family="Helvetica,sans-Serif" font-size="10.00">::global_ptr::node</text>
</a>
</g>
</g>
<!-- Node2&#45;&gt;Node7 -->
<g id="edge7" class="edge">
<title>Node2&#45;&gt;Node7</title>
<path fill="none" stroke="midnightblue" d="M520.06,-207.8C538.66,-224.39 570.29,-250.86 601,-268.5 604.44,-270.47 608.06,-272.36 611.76,-274.16"/>
<polygon fill="midnightblue" stroke="midnightblue" points="610.5,-277.43 621.05,-278.41 613.41,-271.06 610.5,-277.43"/>
</g>
<!-- Node10 -->
<g id="node10" class="node">
<title>Node10</title>
<g id="a_node10"><a xlink:href="classargo_1_1data__distribution_1_1global__ptr_ad8c21c408fa2b926cfd9acfd87e8e4e6.html#ad8c21c408fa2b926cfd9acfd87e8e4e6" target="_top" xlink:title="return the offset on the home node&#39;s local memory share">
<polygon fill="white" stroke="black" points="601,-327.5 601,-357.5 728,-357.5 728,-327.5 601,-327.5"/>
<text text-anchor="start" x="609" y="-345.5" font-family="Helvetica,sans-Serif" font-size="10.00">argo::data_distribution</text>
<text text-anchor="middle" x="664.5" y="-334.5" font-family="Helvetica,sans-Serif" font-size="10.00">::global_ptr::offset</text>
</a>
</g>
</g>
<!-- Node2&#45;&gt;Node10 -->
<g id="edge10" class="edge">
<title>Node2&#45;&gt;Node10</title>
<path fill="none" stroke="midnightblue" d="M511.65,-207.88C526.25,-234.06 559.27,-287.47 601,-318.5 602.86,-319.88 604.8,-321.19 606.81,-322.44"/>
<polygon fill="midnightblue" stroke="midnightblue" points="605.51,-325.71 615.96,-327.47 608.88,-319.58 605.51,-325.71"/>
</g>
<!-- Node11 -->
<g id="node11" class="node">
<title>Node11</title>
<g id="a_node11"><a xlink:href="classmpi__lock_a38cb3649cba54a2818810c444a8b475a.html#a38cb3649cba54a2818810c444a8b475a" target="_top" xlink:title="release mpi_lock">
<polygon fill="white" stroke="black" points="615,-126 615,-145 714,-145 714,-126 615,-126"/>
<text text-anchor="middle" x="664.5" y="-133" font-family="Helvetica,sans-Serif" font-size="10.00">mpi_lock::unlock</text>
</a>
</g>
</g>
<!-- Node2&#45;&gt;Node11 -->
<g id="edge12" class="edge">
<title>Node2&#45;&gt;Node11</title>
<path fill="none" stroke="midnightblue" d="M540.29,-177.39C558.45,-170.14 580.74,-161.52 601,-154.5 607.34,-152.31 614.08,-150.11 620.7,-148.03"/>
<polygon fill="midnightblue" stroke="midnightblue" points="621.74,-151.38 630.26,-145.09 619.68,-144.69 621.74,-151.38"/>
</g>
<!-- Node8 -->
<g id="node8" class="node">
<title>Node8</title>
<g id="a_node8"><a xlink:href="classargo_1_1data__distribution_1_1global__ptr_ae4353680349f6abbd2cf262dace8e2f2.html#ae4353680349f6abbd2cf262dace8e2f2" target="_top" xlink:title="return a pointer to the selected allocation policy">
<polygon fill="white" stroke="black" points="764,-302.5 764,-332.5 891,-332.5 891,-302.5 764,-302.5"/>
<text text-anchor="start" x="772" y="-320.5" font-family="Helvetica,sans-Serif" font-size="10.00">argo::data_distribution</text>
<text text-anchor="middle" x="827.5" y="-309.5" font-family="Helvetica,sans-Serif" font-size="10.00">::global_ptr::policy</text>
</a>
</g>
</g>
<!-- Node7&#45;&gt;Node8 -->
<g id="edge8" class="edge">
<title>Node7&#45;&gt;Node8</title>
<path fill="none" stroke="midnightblue" d="M728.21,-302.85C736.65,-304.11 745.36,-305.41 753.96,-306.69"/>
<polygon fill="midnightblue" stroke="midnightblue" points="753.56,-310.17 763.96,-308.18 754.59,-303.24 753.56,-310.17"/>
</g>
<!-- Node9 -->
<g id="node9" class="node">
<title>Node9</title>
<g id="a_node9"><a xlink:href="namespaceargo_1_1env_a25a08cb2d0d11432d640ec7173063339.html#a25a08cb2d0d11432d640ec7173063339" target="_top" xlink:title="get the allocation policy requested by environment variable">
<polygon fill="white" stroke="black" points="927,-302.5 927,-332.5 1043,-332.5 1043,-302.5 927,-302.5"/>
<text text-anchor="start" x="935" y="-320.5" font-family="Helvetica,sans-Serif" font-size="10.00">argo::env::allocation</text>
<text text-anchor="middle" x="985" y="-309.5" font-family="Helvetica,sans-Serif" font-size="10.00">_policy</text>
</a>
</g>
</g>
<!-- Node8&#45;&gt;Node9 -->
<g id="edge9" class="edge">
<title>Node8&#45;&gt;Node9</title>
<path fill="none" stroke="midnightblue" d="M891.3,-317.5C899.69,-317.5 908.32,-317.5 916.78,-317.5"/>
<polygon fill="midnightblue" stroke="midnightblue" points="916.99,-321 926.99,-317.5 916.99,-314 916.99,-321"/>
</g>
<!-- Node10&#45;&gt;Node8 -->
<g id="edge11" class="edge">
<title>Node10&#45;&gt;Node8</title>
<path fill="none" stroke="midnightblue" d="M728.21,-332.76C736.65,-331.45 745.36,-330.1 753.96,-328.76"/>
<polygon fill="midnightblue" stroke="midnightblue" points="754.62,-332.2 763.96,-327.21 753.54,-325.29 754.62,-332.2"/>
</g>
<!-- Node12&#45;&gt;Node12 -->
<g id="edge14" class="edge">
<title>Node12&#45;&gt;Node12</title>
<path fill="none" stroke="midnightblue" d="M203.23,-119.26C192.88,-128.07 199.97,-137.5 224.5,-137.5 240.21,-137.5 248.77,-133.63 250.17,-128.53"/>
<polygon fill="midnightblue" stroke="midnightblue" points="253.22,-126.79 245.77,-119.26 246.89,-129.79 253.22,-126.79"/>
</g>
<!-- Node13 -->
<g id="node13" class="node">
<title>Node13</title>
<g id="a_node13"><a xlink:href="swdsm_8cpp_a44b8bb7a3c8b47b4f9552c8e10b25e4b.html#a44b8bb7a3c8b47b4f9552c8e10b25e4b" target="_top" xlink:title="acquire function for ArgoDSM (Acquire according to Release Consistency)">
<polygon fill="white" stroke="black" points="324,-91 324,-110 404,-110 404,-91 324,-91"/>
<text text-anchor="middle" x="364" y="-98" font-family="Helvetica,sans-Serif" font-size="10.00">argo_acquire</text>
</a>
</g>
</g>
<!-- Node12&#45;&gt;Node13 -->
<g id="edge15" class="edge">
<title>Node12&#45;&gt;Node13</title>
<path fill="none" stroke="midnightblue" d="M288.21,-105.4C296.78,-104.83 305.47,-104.27 313.75,-103.72"/>
<polygon fill="midnightblue" stroke="midnightblue" points="314.23,-107.2 323.98,-103.05 313.77,-100.21 314.23,-107.2"/>
</g>
<!-- Node14 -->
<g id="node14" class="node">
<title>Node14</title>
<g id="a_node14"><a xlink:href="swdsm_8cpp_aa7c3a2de6bbafdaf68fe6ceb6110ab97.html#aa7c3a2de6bbafdaf68fe6ceb6110ab97" target="_top" xlink:title="Self&#45;Invalidates all memory that has potential writers.">
<polygon fill="white" stroke="black" points="453.5,-88 453.5,-107 551.5,-107 551.5,-88 453.5,-88"/>
<text text-anchor="middle" x="502.5" y="-95" font-family="Helvetica,sans-Serif" font-size="10.00">self_invalidation</text>
</a>
</g>
</g>
<!-- Node13&#45;&gt;Node14 -->
<g id="edge16" class="edge">
<title>Node13&#45;&gt;Node14</title>
<path fill="none" stroke="midnightblue" d="M404.12,-99.64C416.17,-99.38 429.73,-99.08 442.8,-98.79"/>
<polygon fill="midnightblue" stroke="midnightblue" points="443.23,-102.28 453.15,-98.56 443.08,-95.28 443.23,-102.28"/>
</g>
<!-- Node14&#45;&gt;Node6 -->
<g id="edge19" class="edge">
<title>Node14&#45;&gt;Node6</title>
<path fill="none" stroke="midnightblue" d="M551.51,-97.5C570.23,-97.5 591.76,-97.5 610.9,-97.5"/>
<polygon fill="midnightblue" stroke="midnightblue" points="610.96,-101 620.96,-97.5 610.96,-94 610.96,-101"/>
</g>
<!-- Node14&#45;&gt;Node11 -->
<g id="edge20" class="edge">
<title>Node14&#45;&gt;Node11</title>
<path fill="none" stroke="midnightblue" d="M543.87,-107.09C564.99,-112.1 591.03,-118.29 613.42,-123.61"/>
<polygon fill="midnightblue" stroke="midnightblue" points="612.88,-127.07 623.42,-125.98 614.49,-120.26 612.88,-127.07"/>
</g>
<!-- Node15 -->
<g id="node15" class="node">
<title>Node15</title>
<g id="a_node15"><a xlink:href="swdsm_8cpp_aff9ea7ba7f37206d933c8dc8004dbc7b.html#aff9ea7ba7f37206d933c8dc8004dbc7b" target="_top" xlink:title="Gives an index to the sharer/writer vector depending on the address.">
<polygon fill="white" stroke="black" points="614,-0.5 614,-30.5 715,-30.5 715,-0.5 614,-0.5"/>
<text text-anchor="start" x="622" y="-18.5" font-family="Helvetica,sans-Serif" font-size="10.00">get_classification</text>
<text text-anchor="middle" x="664.5" y="-7.5" font-family="Helvetica,sans-Serif" font-size="10.00">_index</text>
</a>
</g>
</g>
<!-- Node14&#45;&gt;Node15 -->
<g id="edge17" class="edge">
<title>Node14&#45;&gt;Node15</title>
<path fill="none" stroke="midnightblue" d="M518.32,-87.9C537.1,-75.95 570.7,-55.31 601,-40.5 605.07,-38.51 609.33,-36.55 613.65,-34.66"/>
<polygon fill="midnightblue" stroke="midnightblue" points="615.27,-37.77 623.1,-30.64 612.53,-31.33 615.27,-37.77"/>
</g>
<!-- Node16 -->
<g id="node16" class="node">
<title>Node16</title>
<g id="a_node16"><a xlink:href="swdsm_8cpp_a7d0d0386804df222465aaa199aab92da.html#a7d0d0386804df222465aaa199aab92da" target="_top" xlink:title="Gets the sharer window index based on the classification index.">
<polygon fill="white" stroke="black" points="603,-50 603,-69 726,-69 726,-50 603,-50"/>
<text text-anchor="middle" x="664.5" y="-57" font-family="Helvetica,sans-Serif" font-size="10.00">get_sharer_win_index</text>
</a>
</g>
</g>
<!-- Node14&#45;&gt;Node16 -->
<g id="edge18" class="edge">
<title>Node14&#45;&gt;Node16</title>
<path fill="none" stroke="midnightblue" d="M543.87,-87.91C564.99,-82.9 591.03,-76.71 613.42,-71.39"/>
<polygon fill="midnightblue" stroke="midnightblue" points="614.49,-74.74 623.42,-69.02 612.88,-67.93 614.49,-74.74"/>
</g>
<!-- Node17&#45;&gt;Node17 -->
<g id="edge23" class="edge">
<title>Node17&#45;&gt;Node17</title>
<path fill="none" stroke="midnightblue" d="M203.23,-63.26C192.88,-72.07 199.97,-81.5 224.5,-81.5 240.21,-81.5 248.77,-77.63 250.17,-72.53"/>
<polygon fill="midnightblue" stroke="midnightblue" points="253.22,-70.79 245.77,-63.26 246.89,-73.79 253.22,-70.79"/>
</g>
<!-- Node18 -->
<g id="node18" class="node">
<title>Node18</title>
<g id="a_node18"><a xlink:href="swdsm_8cpp_ad390eb58e1be03ed6a0939fae7ebd20a.html#ad390eb58e1be03ed6a0939fae7ebd20a" target="_top" xlink:title="Release function for ArgoDSM (Release according to Release Consistency)">
<polygon fill="white" stroke="black" points="324,-44 324,-63 404,-63 404,-44 324,-44"/>
<text text-anchor="middle" x="364" y="-51" font-family="Helvetica,sans-Serif" font-size="10.00">argo_release</text>
</a>
</g>
</g>
<!-- Node17&#45;&gt;Node18 -->
<g id="edge22" class="edge">
<title>Node17&#45;&gt;Node18</title>
<path fill="none" stroke="midnightblue" d="M288.21,-53.5C296.78,-53.5 305.47,-53.5 313.75,-53.5"/>
<polygon fill="midnightblue" stroke="midnightblue" points="313.98,-57 323.98,-53.5 313.98,-50 313.98,-57"/>
</g>
</g>
</svg>
