<?xml version="1.0" encoding="UTF-8" standalone="no"?>
<!DOCTYPE svg PUBLIC "-//W3C//DTD SVG 1.1//EN"
 "http://www.w3.org/Graphics/SVG/1.1/DTD/svg11.dtd">
<!-- Generated by graphviz version 2.43.0 (0)
 -->
<!-- Title: argo::backend::atomic::_fetch_add_int Pages: 1 -->
<svg width="772pt" height="241pt"
 viewBox="0.00 0.00 772.00 241.00" xmlns="http://www.w3.org/2000/svg" xmlns:xlink="http://www.w3.org/1999/xlink">
<g id="graph0" class="graph" transform="scale(1 1) rotate(0) translate(4 237)">
<title>argo::backend::atomic::_fetch_add_int</title>
<polygon fill="white" stroke="transparent" points="-4,4 -4,-237 768,-237 768,4 -4,4"/>
<!-- Node1 -->
<g id="node1" class="node">
<title>Node1</title>
<g id="a_node1"><a xlink:title="Backend internal type erased atomic (post)increment function for signed integers.">
<polygon fill="#bfbfbf" stroke="black" points="0,-88 0,-118 125,-118 125,-88 0,-88"/>
<text text-anchor="start" x="8" y="-106" font-family="Helvetica,sans-Serif" font-size="10.00">argo::backend::atomic</text>
<text text-anchor="middle" x="62.5" y="-95" font-family="Helvetica,sans-Serif" font-size="10.00">::_fetch_add_int</text>
</a>
</g>
</g>
<!-- Node1&#45;&gt;Node1 -->
<g id="edge12" class="edge">
<title>Node1&#45;&gt;Node1</title>
<path fill="none" stroke="midnightblue" d="M34.62,-118.16C27.89,-127.56 37.19,-136.5 62.5,-136.5 77.92,-136.5 87.4,-133.18 90.93,-128.46"/>
<polygon fill="midnightblue" stroke="midnightblue" points="94.41,-127.96 90.38,-118.16 87.42,-128.33 94.41,-127.96"/>
</g>
<!-- Node2 -->
<g id="node2" class="node">
<title>Node2</title>
<g id="a_node2"><a xlink:href="mpi_8cpp_a9b1ef8bbaaf93b03603c2ab0ff3b6133.html#a9b1ef8bbaaf93b03603c2ab0ff3b6133" target="_top" xlink:title="Atomic fetch&amp;add for the MPI backend (for internal usage)">
<polygon fill="white" stroke="black" points="161,-110 161,-140 286,-140 286,-110 161,-110"/>
<text text-anchor="start" x="169" y="-128" font-family="Helvetica,sans-Serif" font-size="10.00">argo::backend::atomic</text>
<text text-anchor="middle" x="223.5" y="-117" font-family="Helvetica,sans-Serif" font-size="10.00">::_fetch_add</text>
</a>
</g>
</g>
<!-- Node1&#45;&gt;Node2 -->
<g id="edge1" class="edge">
<title>Node1&#45;&gt;Node2</title>
<path fill="none" stroke="midnightblue" d="M125.43,-111.57C133.67,-112.71 142.18,-113.89 150.58,-115.05"/>
<polygon fill="midnightblue" stroke="midnightblue" points="150.35,-118.55 160.74,-116.45 151.31,-111.62 150.35,-118.55"/>
</g>
<!-- Node11 -->
<g id="node11" class="node">
<title>Node11</title>
<g id="a_node11"><a xlink:href="mpi_8cpp_a42bc863264a399b805b95e0fc53a9fed.html#a42bc863264a399b805b95e0fc53a9fed" target="_top" xlink:title="Returns an MPI integer type that exactly matches in size the argument given.">
<polygon fill="white" stroke="black" points="180,-71.5 180,-90.5 267,-90.5 267,-71.5 180,-71.5"/>
<text text-anchor="middle" x="223.5" y="-78.5" font-family="Helvetica,sans-Serif" font-size="10.00">fitting_mpi_int</text>
</a>
</g>
</g>
<!-- Node1&#45;&gt;Node11 -->
<g id="edge13" class="edge">
<title>Node1&#45;&gt;Node11</title>
<path fill="none" stroke="midnightblue" d="M125.43,-94.43C140.02,-92.41 155.45,-90.28 169.6,-88.32"/>
<polygon fill="midnightblue" stroke="midnightblue" points="170.23,-91.77 179.66,-86.93 169.27,-84.83 170.23,-91.77"/>
</g>
<!-- Node2&#45;&gt;Node2 -->
<g id="edge2" class="edge">
<title>Node2&#45;&gt;Node2</title>
<path fill="none" stroke="midnightblue" d="M195.62,-140.16C188.89,-149.56 198.19,-158.5 223.5,-158.5 238.92,-158.5 248.4,-155.18 251.93,-150.46"/>
<polygon fill="midnightblue" stroke="midnightblue" points="255.41,-149.96 251.38,-140.16 248.42,-150.33 255.41,-149.96"/>
</g>
<!-- Node3 -->
<g id="node3" class="node">
<title>Node3</title>
<g id="a_node3"><a xlink:href="swdsm_8cpp_af5bb31046df1aef1cccf72f19fe63640.html#af5bb31046df1aef1cccf72f19fe63640" target="_top" xlink:title="Gets the data window index based on the offset into the node&#39;s backing store.">
<polygon fill="white" stroke="black" points="328.5,-213.5 328.5,-232.5 442.5,-232.5 442.5,-213.5 328.5,-213.5"/>
<text text-anchor="middle" x="385.5" y="-220.5" font-family="Helvetica,sans-Serif" font-size="10.00">get_data_win_index</text>
</a>
</g>
</g>
<!-- Node2&#45;&gt;Node3 -->
<g id="edge3" class="edge">
<title>Node2&#45;&gt;Node3</title>
<path fill="none" stroke="midnightblue" d="M239.36,-140.19C257.41,-157.84 289.48,-186.74 322,-204 326.22,-206.24 330.75,-208.26 335.37,-210.07"/>
<polygon fill="midnightblue" stroke="midnightblue" points="334.3,-213.41 344.9,-213.49 336.67,-206.82 334.3,-213.41"/>
</g>
<!-- Node4 -->
<g id="node4" class="node">
<title>Node4</title>
<g id="a_node4"><a xlink:href="swdsm_8cpp_a3f19b1fc7fe36a6eabdae48e53fb66fa.html#a3f19b1fc7fe36a6eabdae48e53fb66fa" target="_top" xlink:title="Gets the sharer window offset based on the classification index.">
<polygon fill="white" stroke="black" points="328,-175.5 328,-194.5 443,-194.5 443,-175.5 328,-175.5"/>
<text text-anchor="middle" x="385.5" y="-182.5" font-family="Helvetica,sans-Serif" font-size="10.00">get_data_win_offset</text>
</a>
</g>
</g>
<!-- Node2&#45;&gt;Node4 -->
<g id="edge4" class="edge">
<title>Node2&#45;&gt;Node4</title>
<path fill="none" stroke="midnightblue" d="M258,-140.1C276.66,-148.24 300.41,-158.2 322,-166 328.09,-168.2 334.57,-170.36 340.97,-172.4"/>
<polygon fill="midnightblue" stroke="midnightblue" points="340.29,-175.85 350.88,-175.47 342.37,-169.17 340.29,-175.85"/>
</g>
<!-- Node5 -->
<g id="node5" class="node">
<title>Node5</title>
<g id="a_node5"><a xlink:href="classmpi__lock_a67301b26c3bb28c746e164c9f531d21d.html#a67301b26c3bb28c746e164c9f531d21d" target="_top" xlink:title="acquire mpi_lock">
<polygon fill="white" stroke="black" points="342,-137.5 342,-156.5 429,-156.5 429,-137.5 342,-137.5"/>
<text text-anchor="middle" x="385.5" y="-144.5" font-family="Helvetica,sans-Serif" font-size="10.00">mpi_lock::lock</text>
</a>
</g>
</g>
<!-- Node2&#45;&gt;Node5 -->
<g id="edge5" class="edge">
<title>Node2&#45;&gt;Node5</title>
<path fill="none" stroke="midnightblue" d="M286.36,-133.51C301.22,-135.55 316.96,-137.71 331.38,-139.7"/>
<polygon fill="midnightblue" stroke="midnightblue" points="331.24,-143.21 341.62,-141.1 332.19,-136.27 331.24,-143.21"/>
</g>
<!-- Node6 -->
<g id="node6" class="node">
<title>Node6</title>
<g id="a_node6"><a xlink:href="classargo_1_1data__distribution_1_1global__ptr_ac7d651586337d08cda18ef26ffcd34a0.html#ac7d651586337d08cda18ef26ffcd34a0" target="_top" xlink:title="return the home node of the value pointed to">
<polygon fill="white" stroke="black" points="322,-88 322,-118 449,-118 449,-88 322,-88"/>
<text text-anchor="start" x="330" y="-106" font-family="Helvetica,sans-Serif" font-size="10.00">argo::data_distribution</text>
<text text-anchor="middle" x="385.5" y="-95" font-family="Helvetica,sans-Serif" font-size="10.00">::global_ptr::node</text>
</a>
</g>
</g>
<!-- Node2&#45;&gt;Node6 -->
<g id="edge6" class="edge">
<title>Node2&#45;&gt;Node6</title>
<path fill="none" stroke="midnightblue" d="M286.36,-116.49C294.7,-115.35 303.32,-114.16 311.83,-112.99"/>
<polygon fill="midnightblue" stroke="midnightblue" points="312.32,-116.46 321.75,-111.63 311.36,-109.52 312.32,-116.46"/>
</g>
<!-- Node9 -->
<g id="node9" class="node">
<title>Node9</title>
<g id="a_node9"><a xlink:href="classargo_1_1data__distribution_1_1global__ptr_ad8c21c408fa2b926cfd9acfd87e8e4e6.html#ad8c21c408fa2b926cfd9acfd87e8e4e6" target="_top" xlink:title="return the offset on the home node&#39;s local memory share">
<polygon fill="white" stroke="black" points="322,-39 322,-69 449,-69 449,-39 322,-39"/>
<text text-anchor="start" x="330" y="-57" font-family="Helvetica,sans-Serif" font-size="10.00">argo::data_distribution</text>
<text text-anchor="middle" x="385.5" y="-46" font-family="Helvetica,sans-Serif" font-size="10.00">::global_ptr::offset</text>
</a>
</g>
</g>
<!-- Node2&#45;&gt;Node9 -->
<g id="edge9" class="edge">
<title>Node2&#45;&gt;Node9</title>
<path fill="none" stroke="midnightblue" d="M263.91,-109.95C271.33,-106.84 278.97,-103.46 286,-100 302.62,-91.83 305.36,-87.13 322,-79 326.24,-76.93 330.7,-74.89 335.2,-72.92"/>
<polygon fill="midnightblue" stroke="midnightblue" points="336.6,-76.13 344.44,-69 333.87,-69.69 336.6,-76.13"/>
</g>
<!-- Node10 -->
<g id="node10" class="node">
<title>Node10</title>
<g id="a_node10"><a xlink:href="classmpi__lock_a38cb3649cba54a2818810c444a8b475a.html#a38cb3649cba54a2818810c444a8b475a" target="_top" xlink:title="release mpi_lock">
<polygon fill="white" stroke="black" points="336,-0.5 336,-19.5 435,-19.5 435,-0.5 336,-0.5"/>
<text text-anchor="middle" x="385.5" y="-7.5" font-family="Helvetica,sans-Serif" font-size="10.00">mpi_lock::unlock</text>
</a>
</g>
</g>
<!-- Node2&#45;&gt;Node10 -->
<g id="edge11" class="edge">
<title>Node2&#45;&gt;Node10</title>
<path fill="none" stroke="midnightblue" d="M271.93,-109.87C277.01,-107.08 281.83,-103.81 286,-100 311.81,-76.39 295.3,-52.61 322,-30 324.56,-27.83 327.37,-25.89 330.32,-24.16"/>
<polygon fill="midnightblue" stroke="midnightblue" points="332.14,-27.17 339.54,-19.58 329.03,-20.9 332.14,-27.17"/>
</g>
<!-- Node7 -->
<g id="node7" class="node">
<title>Node7</title>
<g id="a_node7"><a xlink:href="classargo_1_1data__distribution_1_1global__ptr_ae4353680349f6abbd2cf262dace8e2f2.html#ae4353680349f6abbd2cf262dace8e2f2" target="_top" xlink:title="return a pointer to the selected allocation policy">
<polygon fill="white" stroke="black" points="485,-63 485,-93 612,-93 612,-63 485,-63"/>
<text text-anchor="start" x="493" y="-81" font-family="Helvetica,sans-Serif" font-size="10.00">argo::data_distribution</text>
<text text-anchor="middle" x="548.5" y="-70" font-family="Helvetica,sans-Serif" font-size="10.00">::global_ptr::policy</text>
</a>
</g>
</g>
<!-- Node6&#45;&gt;Node7 -->
<g id="edge7" class="edge">
<title>Node6&#45;&gt;Node7</title>
<path fill="none" stroke="midnightblue" d="M449.21,-93.26C457.65,-91.95 466.36,-90.6 474.96,-89.26"/>
<polygon fill="midnightblue" stroke="midnightblue" points="475.62,-92.7 484.96,-87.71 474.54,-85.79 475.62,-92.7"/>
</g>
<!-- Node8 -->
<g id="node8" class="node">
<title>Node8</title>
<g id="a_node8"><a xlink:href="namespaceargo_1_1env_a25a08cb2d0d11432d640ec7173063339.html#a25a08cb2d0d11432d640ec7173063339" target="_top" xlink:title="get the allocation policy requested by environment variable">
<polygon fill="white" stroke="black" points="648,-63 648,-93 764,-93 764,-63 648,-63"/>
<text text-anchor="start" x="656" y="-81" font-family="Helvetica,sans-Serif" font-size="10.00">argo::env::allocation</text>
<text text-anchor="middle" x="706" y="-70" font-family="Helvetica,sans-Serif" font-size="10.00">_policy</text>
</a>
</g>
</g>
<!-- Node7&#45;&gt;Node8 -->
<g id="edge8" class="edge">
<title>Node7&#45;&gt;Node8</title>
<path fill="none" stroke="midnightblue" d="M612.3,-78C620.69,-78 629.32,-78 637.78,-78"/>
<polygon fill="midnightblue" stroke="midnightblue" points="637.99,-81.5 647.99,-78 637.99,-74.5 637.99,-81.5"/>
</g>
<!-- Node9&#45;&gt;Node7 -->
<g id="edge10" class="edge">
<title>Node9&#45;&gt;Node7</title>
<path fill="none" stroke="midnightblue" d="M449.21,-63.35C457.65,-64.61 466.36,-65.91 474.96,-67.19"/>
<polygon fill="midnightblue" stroke="midnightblue" points="474.56,-70.67 484.96,-68.68 475.59,-63.74 474.56,-70.67"/>
</g>
</g>
</svg>
