<?xml version="1.0" encoding="UTF-8" standalone="no"?>
<!DOCTYPE svg PUBLIC "-//W3C//DTD SVG 1.1//EN"
 "http://www.w3.org/Graphics/SVG/1.1/DTD/svg11.dtd">
<!-- Generated by graphviz version 2.43.0 (0)
 -->
<!-- Title: TEST_F Pages: 1 -->
<!--zoomable 154 -->
<svg id="main" version="1.1" xmlns="http://www.w3.org/2000/svg" xmlns:xlink="http://www.w3.org/1999/xlink" xml:space="preserve" onload="init(evt)">
<style type="text/css"><![CDATA[
.edge:hover path { stroke: red; }
.edge:hover polygon { stroke: red; fill: red; }
]]></style>
<script type="text/javascript"><![CDATA[
var edges = document.getElementsByTagName('g');
if (edges && edges.length) {
  for (var i=0;i<edges.length;i++) {
    if (edges[i].id.substr(0,4)=='edge') {
      edges[i].setAttribute('class','edge');
    }
  }
}
]]></script>
        <defs>
                <circle id="rim" cx="0" cy="0" r="7"/>
                <circle id="rim2" cx="0" cy="0" r="3.5"/>
                <g id="zoomPlus">
                        <use xlink:href="#rim" fill="#404040">
                                <set attributeName="fill" to="#808080" begin="zoomplus.mouseover" end="zoomplus.mouseout"/>
                        </use>
                        <path d="M-4,0h8M0,-4v8" fill="none" stroke="white" stroke-width="1.5" pointer-events="none"/>
                </g>
                <g id="zoomMin">
                        <use xlink:href="#rim" fill="#404040">
                                <set attributeName="fill" to="#808080" begin="zoomminus.mouseover" end="zoomminus.mouseout"/>
                        </use>
                        <path d="M-4,0h8" fill="none" stroke="white" stroke-width="1.5" pointer-events="none"/>
                </g>
                <g id="dirArrow">
                        <path fill="none" stroke="white" stroke-width="1.5" d="M0,-3.0v7 M-2.5,-0.5L0,-3.0L2.5,-0.5"/>
                </g>
               <g id="resetDef">
                       <use xlink:href="#rim2" fill="#404040">
                               <set attributeName="fill" to="#808080" begin="reset.mouseover" end="reset.mouseout"/>
                       </use>
               </g>
        </defs>

<script type="text/javascript">
var viewWidth = 777;
var viewHeight = 154;
var sectionId = 'dynsection-0';
</script>
<script xlink:href="svgpan.js"/>
<svg id="graph" class="graph">
<g id="viewport">
<title>TEST_F</title>
<polygon fill="white" stroke="transparent" points="-4,4 -4,-149.5 773,-149.5 773,4 -4,4"/>
<!-- Node1 -->
<g id="node1" class="node">
<title>Node1</title>
<g id="a_node1"><a xlink:title="Test selective coherence on unaligned acquires and releases.">
<polygon fill="#bfbfbf" stroke="black" points="0,-38.5 0,-57.5 52,-57.5 52,-38.5 0,-38.5"/>
<text text-anchor="middle" x="26" y="-45.5" font-family="Helvetica,sans-Serif" font-size="10.00">TEST_F</text>
</a>
</g>
</g>
<!-- Node2 -->
<g id="node2" class="node">
<title>Node2</title>
<g id="a_node2"><a xlink:href="namespaceargo_a10bae1e1e60ff583384b937201a87c29.html#a10bae1e1e60ff583384b937201a87c29" target="_top" xlink:title="a barrier for ArgoDSM nodes">
<polygon fill="white" stroke="black" points="108,-76.5 108,-95.5 185,-95.5 185,-76.5 108,-76.5"/>
<text text-anchor="middle" x="146.5" y="-83.5" font-family="Helvetica,sans-Serif" font-size="10.00">argo::barrier</text>
</a>
</g>
</g>
<!-- Node1&#45;&gt;Node2 -->
<g id="edge1" class="edge">
<title>Node1&#45;&gt;Node2</title>
<path fill="none" stroke="midnightblue" d="M52.13,-56.06C67.84,-61.1 88.4,-67.69 106.22,-73.4"/>
<polygon fill="midnightblue" stroke="midnightblue" points="105.21,-76.75 115.8,-76.48 107.34,-70.09 105.21,-76.75"/>
</g>
<!-- Node3 -->
<g id="node3" class="node">
<title>Node3</title>
<g id="a_node3"><a xlink:href="namespaceargo_aa7e8ddf5784dd37c965cfd43cd65a330.html#aa7e8ddf5784dd37c965cfd43cd65a330" target="_top" xlink:title="Delete a globally collectively allocated array of objects.">
<polygon fill="white" stroke="black" points="88,-38.5 88,-57.5 205,-57.5 205,-38.5 88,-38.5"/>
<text text-anchor="middle" x="146.5" y="-45.5" font-family="Helvetica,sans-Serif" font-size="10.00">argo::codelete_array</text>
</a>
</g>
</g>
<!-- Node1&#45;&gt;Node3 -->
<g id="edge2" class="edge">
<title>Node1&#45;&gt;Node3</title>
<path fill="none" stroke="midnightblue" d="M52.13,-48C59.73,-48 68.47,-48 77.49,-48"/>
<polygon fill="midnightblue" stroke="midnightblue" points="77.74,-51.5 87.74,-48 77.74,-44.5 77.74,-51.5"/>
</g>
<!-- Node8 -->
<g id="node8" class="node">
<title>Node8</title>
<g id="a_node8"><a xlink:href="namespaceargo_a188a4648d6e7549bcef4cee36dcb5336.html#a188a4648d6e7549bcef4cee36dcb5336" target="_top" xlink:title="A unique ArgoDSM node identifier. Counting starts from 0.">
<polygon fill="white" stroke="black" points="280,-0.5 280,-19.5 363,-19.5 363,-0.5 280,-0.5"/>
<text text-anchor="middle" x="321.5" y="-7.5" font-family="Helvetica,sans-Serif" font-size="10.00">argo::node_id</text>
</a>
</g>
</g>
<!-- Node1&#45;&gt;Node8 -->
<g id="edge9" class="edge">
<title>Node1&#45;&gt;Node8</title>
<path fill="none" stroke="midnightblue" d="M52.2,-38.78C63.08,-35.16 76.02,-31.33 88,-29 149.86,-16.99 222.4,-12.56 269.8,-10.93"/>
<polygon fill="midnightblue" stroke="midnightblue" points="269.92,-14.43 279.81,-10.62 269.7,-7.44 269.92,-14.43"/>
</g>
<!-- Node4 -->
<g id="node4" class="node">
<title>Node4</title>
<g id="a_node4"><a xlink:href="classargo_1_1allocators_1_1generic__allocator_a6a7fe288a35b74a248c341d6f67c800c.html#a6a7fe288a35b74a248c341d6f67c800c" target="_top" xlink:title="How much space has been allocated for the given chunk.">
<polygon fill="white" stroke="black" points="247,-115 247,-145 396,-145 396,-115 247,-115"/>
<text text-anchor="start" x="255" y="-133" font-family="Helvetica,sans-Serif" font-size="10.00">argo::allocators::generic</text>
<text text-anchor="middle" x="321.5" y="-122" font-family="Helvetica,sans-Serif" font-size="10.00">_allocator::allocated_space</text>
</a>
</g>
</g>
<!-- Node3&#45;&gt;Node4 -->
<g id="edge3" class="edge">
<title>Node3&#45;&gt;Node4</title>
<path fill="none" stroke="midnightblue" d="M185.52,-57.6C192.28,-60.12 199.05,-63.22 205,-67 224.64,-79.47 221.27,-92.67 241,-105 244.35,-107.1 247.9,-109.03 251.56,-110.81"/>
<polygon fill="midnightblue" stroke="midnightblue" points="250.27,-114.07 260.83,-114.94 253.12,-107.68 250.27,-114.07"/>
</g>
<!-- Node5 -->
<g id="node5" class="node">
<title>Node5</title>
<g id="a_node5"><a xlink:href="src_2allocators_2allocators_8cpp_a215edf4fe9276398650302b518c52baf.html#a215edf4fe9276398650302b518c52baf" target="_top" xlink:title="basic free function for collective allocations, for C interface">
<polygon fill="white" stroke="black" points="277,-76.5 277,-95.5 366,-95.5 366,-76.5 277,-76.5"/>
<text text-anchor="middle" x="321.5" y="-83.5" font-family="Helvetica,sans-Serif" font-size="10.00">collective_free</text>
</a>
</g>
</g>
<!-- Node3&#45;&gt;Node5 -->
<g id="edge4" class="edge">
<title>Node3&#45;&gt;Node5</title>
<path fill="none" stroke="midnightblue" d="M191.16,-57.59C214.29,-62.67 242.9,-68.96 267.33,-74.32"/>
<polygon fill="midnightblue" stroke="midnightblue" points="266.64,-77.75 277.16,-76.48 268.14,-70.92 266.64,-77.75"/>
</g>
<!-- Node3&#45;&gt;Node8 -->
<g id="edge7" class="edge">
<title>Node3&#45;&gt;Node8</title>
<path fill="none" stroke="midnightblue" d="M191.16,-38.41C215.08,-33.15 244.87,-26.61 269.82,-21.13"/>
<polygon fill="midnightblue" stroke="midnightblue" points="270.81,-24.5 279.83,-18.93 269.31,-17.66 270.81,-24.5"/>
</g>
<!-- Node9 -->
<g id="node9" class="node">
<title>Node9</title>
<g id="a_node9"><a xlink:href="namespaceargo_1_1mempools_aaa24afb08a15776a8f2440531ba3121c.html#aaa24afb08a15776a8f2440531ba3121c" target="_top" xlink:title="synchronize memory metainformation (address) after growing to ensure visibility">
<polygon fill="white" stroke="black" points="241,-38.5 241,-57.5 402,-57.5 402,-38.5 241,-38.5"/>
<text text-anchor="middle" x="321.5" y="-45.5" font-family="Helvetica,sans-Serif" font-size="10.00">argo::mempools::synchronize</text>
</a>
</g>
</g>
<!-- Node3&#45;&gt;Node9 -->
<g id="edge8" class="edge">
<title>Node3&#45;&gt;Node9</title>
<path fill="none" stroke="midnightblue" d="M205.11,-48C213.37,-48 222.04,-48 230.74,-48"/>
<polygon fill="midnightblue" stroke="midnightblue" points="230.96,-51.5 240.96,-48 230.96,-44.5 230.96,-51.5"/>
</g>
<!-- Node6 -->
<g id="node6" class="node">
<title>Node6</title>
<g id="a_node6"><a xlink:href="classargo_1_1allocators_1_1generic__allocator_ab98a25e383864eecd7d602f95c49c420.html#ab98a25e383864eecd7d602f95c49c420" target="_top" xlink:title="free an allocated pointer">
<polygon fill="white" stroke="black" points="438,-71 438,-101 572,-101 572,-71 438,-71"/>
<text text-anchor="start" x="446" y="-89" font-family="Helvetica,sans-Serif" font-size="10.00">argo::allocators::generic</text>
<text text-anchor="middle" x="505" y="-78" font-family="Helvetica,sans-Serif" font-size="10.00">_allocator::free</text>
</a>
</g>
</g>
<!-- Node5&#45;&gt;Node6 -->
<g id="edge5" class="edge">
<title>Node5&#45;&gt;Node6</title>
<path fill="none" stroke="midnightblue" d="M366.44,-86C384.83,-86 406.75,-86 427.64,-86"/>
<polygon fill="midnightblue" stroke="midnightblue" points="427.78,-89.5 437.78,-86 427.78,-82.5 427.78,-89.5"/>
</g>
<!-- Node7 -->
<g id="node7" class="node">
<title>Node7</title>
<g id="a_node7"><a xlink:href="classargo_1_1allocators_1_1generic__allocator_a83b1a04add59963243bfa60b48d58db4.html#a83b1a04add59963243bfa60b48d58db4" target="_top" xlink:title="helper function for deallocation">
<polygon fill="white" stroke="black" points="608,-71 608,-101 769,-101 769,-71 608,-71"/>
<text text-anchor="start" x="616" y="-89" font-family="Helvetica,sans-Serif" font-size="10.00">argo::allocators::generic</text>
<text text-anchor="middle" x="688.5" y="-78" font-family="Helvetica,sans-Serif" font-size="10.00">_allocator::deallocate_nosync</text>
</a>
</g>
</g>
<!-- Node6&#45;&gt;Node7 -->
<g id="edge6" class="edge">
<title>Node6&#45;&gt;Node7</title>
<path fill="none" stroke="midnightblue" d="M572.04,-86C580.42,-86 589.1,-86 597.77,-86"/>
<polygon fill="midnightblue" stroke="midnightblue" points="597.92,-89.5 607.92,-86 597.92,-82.5 597.92,-89.5"/>
</g>
</g>
</svg>
        <g id="navigator" transform="translate(0 0)" fill="#404254">
                <rect fill="#f2f5e9" fill-opacity="0.5" stroke="#606060" stroke-width=".5" x="0" y="0" width="60" height="60"/>
                <use id="zoomplus" xlink:href="#zoomPlus" x="17" y="9" onmousedown="handleZoom(evt,'in')"/>
                <use id="zoomminus" xlink:href="#zoomMin" x="42" y="9" onmousedown="handleZoom(evt,'out')"/>
                <use id="reset" xlink:href="#resetDef" x="30" y="36" onmousedown="handleReset()"/>
                <g id="arrowUp" xlink:href="#dirArrow" transform="translate(30 24)" onmousedown="handlePan(0,-1)">
                  <use xlink:href="#rim" fill="#404040">
                        <set attributeName="fill" to="#808080" begin="arrowUp.mouseover" end="arrowUp.mouseout"/>
                  </use>
                  <path fill="none" stroke="white" stroke-width="1.5" d="M0,-3.0v7 M-2.5,-0.5L0,-3.0L2.5,-0.5"/>
                </g>
                <g id="arrowRight" xlink:href="#dirArrow" transform="rotate(90) translate(36 -43)" onmousedown="handlePan(1,0)">
                  <use xlink:href="#rim" fill="#404040">
                        <set attributeName="fill" to="#808080" begin="arrowRight.mouseover" end="arrowRight.mouseout"/>
                  </use>
                  <path fill="none" stroke="white" stroke-width="1.5" d="M0,-3.0v7 M-2.5,-0.5L0,-3.0L2.5,-0.5"/>
                </g>
                <g id="arrowDown" xlink:href="#dirArrow" transform="rotate(180) translate(-30 -48)" onmousedown="handlePan(0,1)">
                  <use xlink:href="#rim" fill="#404040">
                        <set attributeName="fill" to="#808080" begin="arrowDown.mouseover" end="arrowDown.mouseout"/>
                  </use>
                  <path fill="none" stroke="white" stroke-width="1.5" d="M0,-3.0v7 M-2.5,-0.5L0,-3.0L2.5,-0.5"/>
                </g>
                <g id="arrowLeft" xlink:href="#dirArrow" transform="rotate(270) translate(-36 17)" onmousedown="handlePan(-1,0)">
                  <use xlink:href="#rim" fill="#404040">
                        <set attributeName="fill" to="#808080" begin="arrowLeft.mouseover" end="arrowLeft.mouseout"/>
                  </use>
                  <path fill="none" stroke="white" stroke-width="1.5" d="M0,-3.0v7 M-2.5,-0.5L0,-3.0L2.5,-0.5"/>
                </g>
        </g>
        <svg viewBox="0 0 15 15" width="100%" height="30px" preserveAspectRatio="xMaxYMin meet">
         <g id="arrow_out" transform="scale(0.3 0.3)">
          <a xlink:href="backend_8cpp_a69e3eba1921c4f4f5665751a7ee4ad70_a69e3eba1921c4f4f5665751a7ee4ad70_cgraph_org.svg" target="_base">
           <rect id="button" ry="5" rx="5" y="6" x="6" height="38" width="38"
                fill="#f2f5e9" fill-opacity="0.5" stroke="#606060" stroke-width="1.0"/>
           <path id="arrow"
             d="M 11.500037,31.436501 C 11.940474,20.09759 22.043105,11.32322 32.158766,21.979434 L 37.068811,17.246167 C 37.068811,17.246167 37.088388,32 37.088388,32 L 22.160133,31.978069 C 22.160133,31.978069 26.997745,27.140456 26.997745,27.140456 C 18.528582,18.264221 13.291696,25.230495 11.500037,31.436501 z"
             style="fill:#404040;"/>
          </a>
         </g>
        </svg>
</svg>
