<?xml version="1.0" encoding="UTF-8" standalone="no"?>
<!DOCTYPE svg PUBLIC "-//W3C//DTD SVG 1.1//EN"
 "http://www.w3.org/Graphics/SVG/1.1/DTD/svg11.dtd">
<!-- Generated by graphviz version 2.43.0 (0)
 -->
<!-- Title: argo::backend::_selective_acquire Pages: 1 -->
<svg width="789pt" height="268pt"
 viewBox="0.00 0.00 789.00 267.50" xmlns="http://www.w3.org/2000/svg" xmlns:xlink="http://www.w3.org/1999/xlink">
<g id="graph0" class="graph" transform="scale(1 1) rotate(0) translate(4 263.5)">
<title>argo::backend::_selective_acquire</title>
<polygon fill="white" stroke="transparent" points="-4,4 -4,-263.5 785,-263.5 785,4 -4,4"/>
<!-- Node1 -->
<g id="node1" class="node">
<title>Node1</title>
<g id="a_node1"><a xlink:title="backend internal type erased function for selective acquire">
<polygon fill="#bfbfbf" stroke="black" points="0,-109 0,-139 140,-139 140,-109 0,-109"/>
<text text-anchor="start" x="8" y="-127" font-family="Helvetica,sans-Serif" font-size="10.00">argo::backend::_selective</text>
<text text-anchor="middle" x="70" y="-116" font-family="Helvetica,sans-Serif" font-size="10.00">_acquire</text>
</a>
</g>
</g>
<!-- Node1&#45;&gt;Node1 -->
<g id="edge1" class="edge">
<title>Node1&#45;&gt;Node1</title>
<path fill="none" stroke="midnightblue" d="M41.07,-139.16C34.1,-148.56 43.74,-157.5 70,-157.5 86,-157.5 95.84,-154.18 99.5,-149.46"/>
<polygon fill="midnightblue" stroke="midnightblue" points="102.97,-148.95 98.93,-139.16 95.98,-149.34 102.97,-148.95"/>
</g>
<!-- Node2 -->
<g id="node2" class="node">
<title>Node2</title>
<g id="a_node2"><a xlink:href="swdsm_8cpp_aff9ea7ba7f37206d933c8dc8004dbc7b.html#aff9ea7ba7f37206d933c8dc8004dbc7b" target="_top" xlink:title="Gives an index to the sharer/writer vector depending on the address.">
<polygon fill="white" stroke="black" points="187,-229 187,-259 288,-259 288,-229 187,-229"/>
<text text-anchor="start" x="195" y="-247" font-family="Helvetica,sans-Serif" font-size="10.00">get_classification</text>
<text text-anchor="middle" x="237.5" y="-236" font-family="Helvetica,sans-Serif" font-size="10.00">_index</text>
</a>
</g>
</g>
<!-- Node1&#45;&gt;Node2 -->
<g id="edge2" class="edge">
<title>Node1&#45;&gt;Node2</title>
<path fill="none" stroke="midnightblue" d="M84.64,-139.26C103.51,-159.65 139.43,-195.88 176,-219 178.97,-220.88 182.11,-222.67 185.33,-224.36"/>
<polygon fill="midnightblue" stroke="midnightblue" points="184.03,-227.62 194.55,-228.88 187.11,-221.34 184.03,-227.62"/>
</g>
<!-- Node3 -->
<g id="node3" class="node">
<title>Node3</title>
<g id="a_node3"><a xlink:href="swdsm_8cpp_a7d0d0386804df222465aaa199aab92da.html#a7d0d0386804df222465aaa199aab92da" target="_top" xlink:title="Gets the sharer window index based on the classification index.">
<polygon fill="white" stroke="black" points="176,-190.5 176,-209.5 299,-209.5 299,-190.5 176,-190.5"/>
<text text-anchor="middle" x="237.5" y="-197.5" font-family="Helvetica,sans-Serif" font-size="10.00">get_sharer_win_index</text>
</a>
</g>
</g>
<!-- Node1&#45;&gt;Node3 -->
<g id="edge3" class="edge">
<title>Node1&#45;&gt;Node3</title>
<path fill="none" stroke="midnightblue" d="M95.78,-139.23C116.64,-151.61 147.54,-168.94 176,-181 181.2,-183.2 186.73,-185.28 192.27,-187.2"/>
<polygon fill="midnightblue" stroke="midnightblue" points="191.57,-190.66 202.17,-190.48 193.77,-184.01 191.57,-190.66"/>
</g>
<!-- Node4 -->
<g id="node4" class="node">
<title>Node4</title>
<g id="a_node4"><a xlink:href="swdsm_8cpp_a59e4c59c2940cc3727debeeff4af1889.html#a59e4c59c2940cc3727debeeff4af1889" target="_top" xlink:title="Gets cacheindex for a given address.">
<polygon fill="white" stroke="black" points="193,-152.5 193,-171.5 282,-171.5 282,-152.5 193,-152.5"/>
<text text-anchor="middle" x="237.5" y="-159.5" font-family="Helvetica,sans-Serif" font-size="10.00">getCacheIndex</text>
</a>
</g>
</g>
<!-- Node1&#45;&gt;Node4 -->
<g id="edge4" class="edge">
<title>Node1&#45;&gt;Node4</title>
<path fill="none" stroke="midnightblue" d="M136.41,-139.02C152.57,-142.73 169.65,-146.65 185.04,-150.18"/>
<polygon fill="midnightblue" stroke="midnightblue" points="184.35,-153.62 194.88,-152.44 185.91,-146.79 184.35,-153.62"/>
</g>
<!-- Node5 -->
<g id="node5" class="node">
<title>Node5</title>
<g id="a_node5"><a xlink:href="classmpi__lock_a67301b26c3bb28c746e164c9f531d21d.html#a67301b26c3bb28c746e164c9f531d21d" target="_top" xlink:title="acquire mpi_lock">
<polygon fill="white" stroke="black" points="194,-114.5 194,-133.5 281,-133.5 281,-114.5 194,-114.5"/>
<text text-anchor="middle" x="237.5" y="-121.5" font-family="Helvetica,sans-Serif" font-size="10.00">mpi_lock::lock</text>
</a>
</g>
</g>
<!-- Node1&#45;&gt;Node5 -->
<g id="edge5" class="edge">
<title>Node1&#45;&gt;Node5</title>
<path fill="none" stroke="midnightblue" d="M140.23,-124C154.77,-124 169.88,-124 183.7,-124"/>
<polygon fill="midnightblue" stroke="midnightblue" points="183.99,-127.5 193.99,-124 183.99,-120.5 183.99,-127.5"/>
</g>
<!-- Node6 -->
<g id="node6" class="node">
<title>Node6</title>
<g id="a_node6"><a xlink:href="namespaceargo_a188a4648d6e7549bcef4cee36dcb5336.html#a188a4648d6e7549bcef4cee36dcb5336" target="_top" xlink:title="A unique ArgoDSM node identifier. Counting starts from 0.">
<polygon fill="white" stroke="black" points="196,-76.5 196,-95.5 279,-95.5 279,-76.5 196,-76.5"/>
<text text-anchor="middle" x="237.5" y="-83.5" font-family="Helvetica,sans-Serif" font-size="10.00">argo::node_id</text>
</a>
</g>
</g>
<!-- Node1&#45;&gt;Node6 -->
<g id="edge6" class="edge">
<title>Node1&#45;&gt;Node6</title>
<path fill="none" stroke="midnightblue" d="M136.41,-108.98C152.86,-105.2 170.28,-101.21 185.88,-97.62"/>
<polygon fill="midnightblue" stroke="midnightblue" points="186.89,-100.98 195.85,-95.33 185.32,-94.16 186.89,-100.98"/>
</g>
<!-- Node7 -->
<g id="node7" class="node">
<title>Node7</title>
<g id="a_node7"><a xlink:href="swdsm_8cpp_ac2a76a52d43c19cf7d5ed770e14c4409.html#ac2a76a52d43c19cf7d5ed770e14c4409" target="_top" xlink:title="Gives homenode for a given address.">
<polygon fill="white" stroke="black" points="188.5,-38.5 188.5,-57.5 286.5,-57.5 286.5,-38.5 188.5,-38.5"/>
<text text-anchor="middle" x="237.5" y="-45.5" font-family="Helvetica,sans-Serif" font-size="10.00">peek_homenode</text>
</a>
</g>
</g>
<!-- Node1&#45;&gt;Node7 -->
<g id="edge7" class="edge">
<title>Node1&#45;&gt;Node7</title>
<path fill="none" stroke="midnightblue" d="M95.78,-108.77C116.64,-96.39 147.54,-79.06 176,-67 181.2,-64.8 186.73,-62.72 192.27,-60.8"/>
<polygon fill="midnightblue" stroke="midnightblue" points="193.77,-63.99 202.17,-57.52 191.57,-57.34 193.77,-63.99"/>
</g>
<!-- Node11 -->
<g id="node11" class="node">
<title>Node11</title>
<g id="a_node11"><a xlink:href="classmpi__lock_a38cb3649cba54a2818810c444a8b475a.html#a38cb3649cba54a2818810c444a8b475a" target="_top" xlink:title="release mpi_lock">
<polygon fill="white" stroke="black" points="188,-0.5 188,-19.5 287,-19.5 287,-0.5 188,-0.5"/>
<text text-anchor="middle" x="237.5" y="-7.5" font-family="Helvetica,sans-Serif" font-size="10.00">mpi_lock::unlock</text>
</a>
</g>
</g>
<!-- Node1&#45;&gt;Node11 -->
<g id="edge11" class="edge">
<title>Node1&#45;&gt;Node11</title>
<path fill="none" stroke="midnightblue" d="M83.73,-108.97C102.09,-88.17 138.02,-50.74 176,-29 179.71,-26.88 183.68,-24.96 187.76,-23.24"/>
<polygon fill="midnightblue" stroke="midnightblue" points="189.28,-26.4 197.37,-19.56 186.78,-19.87 189.28,-26.4"/>
</g>
<!-- Node8 -->
<g id="node8" class="node">
<title>Node8</title>
<g id="a_node8"><a xlink:href="classargo_1_1data__distribution_1_1global__ptr_a3e2cdd4d323ef91174615e27ab94e342.html#a3e2cdd4d323ef91174615e27ab94e342" target="_top" xlink:title="return the home node of the value pointed to, or a default value if the page has not yet been first&#45;t...">
<polygon fill="white" stroke="black" points="335,-33 335,-63 466,-63 466,-33 335,-33"/>
<text text-anchor="start" x="343" y="-51" font-family="Helvetica,sans-Serif" font-size="10.00">argo::data_distribution</text>
<text text-anchor="middle" x="400.5" y="-40" font-family="Helvetica,sans-Serif" font-size="10.00">::global_ptr::peek_node</text>
</a>
</g>
</g>
<!-- Node7&#45;&gt;Node8 -->
<g id="edge8" class="edge">
<title>Node7&#45;&gt;Node8</title>
<path fill="none" stroke="midnightblue" d="M286.81,-48C298.72,-48 311.76,-48 324.61,-48"/>
<polygon fill="midnightblue" stroke="midnightblue" points="324.84,-51.5 334.84,-48 324.84,-44.5 324.84,-51.5"/>
</g>
<!-- Node9 -->
<g id="node9" class="node">
<title>Node9</title>
<g id="a_node9"><a xlink:href="classargo_1_1data__distribution_1_1global__ptr_ae4353680349f6abbd2cf262dace8e2f2.html#ae4353680349f6abbd2cf262dace8e2f2" target="_top" xlink:title="return a pointer to the selected allocation policy">
<polygon fill="white" stroke="black" points="502,-33 502,-63 629,-63 629,-33 502,-33"/>
<text text-anchor="start" x="510" y="-51" font-family="Helvetica,sans-Serif" font-size="10.00">argo::data_distribution</text>
<text text-anchor="middle" x="565.5" y="-40" font-family="Helvetica,sans-Serif" font-size="10.00">::global_ptr::policy</text>
</a>
</g>
</g>
<!-- Node8&#45;&gt;Node9 -->
<g id="edge9" class="edge">
<title>Node8&#45;&gt;Node9</title>
<path fill="none" stroke="midnightblue" d="M466.39,-48C474.72,-48 483.3,-48 491.74,-48"/>
<polygon fill="midnightblue" stroke="midnightblue" points="491.96,-51.5 501.96,-48 491.96,-44.5 491.96,-51.5"/>
</g>
<!-- Node10 -->
<g id="node10" class="node">
<title>Node10</title>
<g id="a_node10"><a xlink:href="namespaceargo_1_1env_a25a08cb2d0d11432d640ec7173063339.html#a25a08cb2d0d11432d640ec7173063339" target="_top" xlink:title="get the allocation policy requested by environment variable">
<polygon fill="white" stroke="black" points="665,-33 665,-63 781,-63 781,-33 665,-33"/>
<text text-anchor="start" x="673" y="-51" font-family="Helvetica,sans-Serif" font-size="10.00">argo::env::allocation</text>
<text text-anchor="middle" x="723" y="-40" font-family="Helvetica,sans-Serif" font-size="10.00">_policy</text>
</a>
</g>
</g>
<!-- Node9&#45;&gt;Node10 -->
<g id="edge10" class="edge">
<title>Node9&#45;&gt;Node10</title>
<path fill="none" stroke="midnightblue" d="M629.3,-48C637.69,-48 646.32,-48 654.78,-48"/>
<polygon fill="midnightblue" stroke="midnightblue" points="654.99,-51.5 664.99,-48 654.99,-44.5 654.99,-51.5"/>
</g>
</g>
</svg>
