<?xml version="1.0" encoding="UTF-8" standalone="no"?>
<!DOCTYPE svg PUBLIC "-//W3C//DTD SVG 1.1//EN"
 "http://www.w3.org/Graphics/SVG/1.1/DTD/svg11.dtd">
<!-- Generated by graphviz version 2.43.0 (0)
 -->
<!-- Title: argo::backend::atomic::_load Pages: 1 -->
<svg width="611pt" height="279pt"
 viewBox="0.00 0.00 611.00 279.00" xmlns="http://www.w3.org/2000/svg" xmlns:xlink="http://www.w3.org/1999/xlink">
<g id="graph0" class="graph" transform="scale(1 1) rotate(0) translate(4 275)">
<title>argo::backend::atomic::_load</title>
<polygon fill="white" stroke="transparent" points="-4,4 -4,-275 607,-275 607,4 -4,4"/>
<!-- Node1 -->
<g id="node1" class="node">
<title>Node1</title>
<g id="a_node1"><a xlink:title="Backend internal type erased atomic store function.">
<polygon fill="#bfbfbf" stroke="black" points="0,-132 0,-162 125,-162 125,-132 0,-132"/>
<text text-anchor="start" x="8" y="-150" font-family="Helvetica,sans-Serif" font-size="10.00">argo::backend::atomic</text>
<text text-anchor="middle" x="62.5" y="-139" font-family="Helvetica,sans-Serif" font-size="10.00">::_load</text>
</a>
</g>
</g>
<!-- Node1&#45;&gt;Node1 -->
<g id="edge1" class="edge">
<title>Node1&#45;&gt;Node1</title>
<path fill="none" stroke="midnightblue" d="M34.27,-162.16C27.46,-171.56 36.87,-180.5 62.5,-180.5 78.12,-180.5 87.71,-177.18 91.29,-172.46"/>
<polygon fill="midnightblue" stroke="midnightblue" points="94.76,-171.96 90.73,-162.16 87.77,-172.33 94.76,-171.96"/>
</g>
<!-- Node2 -->
<g id="node2" class="node">
<title>Node2</title>
<g id="a_node2"><a xlink:href="mpi_8cpp_a42bc863264a399b805b95e0fc53a9fed.html#a42bc863264a399b805b95e0fc53a9fed" target="_top" xlink:title="Returns an MPI integer type that exactly matches in size the argument given.">
<polygon fill="white" stroke="black" points="181,-251.5 181,-270.5 268,-270.5 268,-251.5 181,-251.5"/>
<text text-anchor="middle" x="224.5" y="-258.5" font-family="Helvetica,sans-Serif" font-size="10.00">fitting_mpi_int</text>
</a>
</g>
</g>
<!-- Node1&#45;&gt;Node2 -->
<g id="edge2" class="edge">
<title>Node1&#45;&gt;Node2</title>
<path fill="none" stroke="midnightblue" d="M75.05,-162.12C91.79,-183.03 124.78,-220.6 161,-242 164.62,-244.14 168.51,-246.06 172.51,-247.78"/>
<polygon fill="midnightblue" stroke="midnightblue" points="171.38,-251.1 181.97,-251.43 173.9,-244.56 171.38,-251.1"/>
</g>
<!-- Node3 -->
<g id="node3" class="node">
<title>Node3</title>
<g id="a_node3"><a xlink:href="swdsm_8cpp_af5bb31046df1aef1cccf72f19fe63640.html#af5bb31046df1aef1cccf72f19fe63640" target="_top" xlink:title="Gets the data window index based on the offset into the node&#39;s backing store.">
<polygon fill="white" stroke="black" points="167.5,-213.5 167.5,-232.5 281.5,-232.5 281.5,-213.5 167.5,-213.5"/>
<text text-anchor="middle" x="224.5" y="-220.5" font-family="Helvetica,sans-Serif" font-size="10.00">get_data_win_index</text>
</a>
</g>
</g>
<!-- Node1&#45;&gt;Node3 -->
<g id="edge3" class="edge">
<title>Node1&#45;&gt;Node3</title>
<path fill="none" stroke="midnightblue" d="M85.94,-162.17C105.21,-174.68 134.05,-192.22 161,-204 166.13,-206.24 171.61,-208.33 177.11,-210.23"/>
<polygon fill="midnightblue" stroke="midnightblue" points="176.36,-213.67 186.96,-213.46 178.54,-207.02 176.36,-213.67"/>
</g>
<!-- Node4 -->
<g id="node4" class="node">
<title>Node4</title>
<g id="a_node4"><a xlink:href="swdsm_8cpp_a3f19b1fc7fe36a6eabdae48e53fb66fa.html#a3f19b1fc7fe36a6eabdae48e53fb66fa" target="_top" xlink:title="Gets the sharer window offset based on the classification index.">
<polygon fill="white" stroke="black" points="167,-175.5 167,-194.5 282,-194.5 282,-175.5 167,-175.5"/>
<text text-anchor="middle" x="224.5" y="-182.5" font-family="Helvetica,sans-Serif" font-size="10.00">get_data_win_offset</text>
</a>
</g>
</g>
<!-- Node1&#45;&gt;Node4 -->
<g id="edge4" class="edge">
<title>Node1&#45;&gt;Node4</title>
<path fill="none" stroke="midnightblue" d="M125.36,-161.69C141.08,-165.43 157.78,-169.39 172.87,-172.98"/>
<polygon fill="midnightblue" stroke="midnightblue" points="172.49,-176.48 183.03,-175.39 174.1,-169.67 172.49,-176.48"/>
</g>
<!-- Node5 -->
<g id="node5" class="node">
<title>Node5</title>
<g id="a_node5"><a xlink:href="classmpi__lock_a67301b26c3bb28c746e164c9f531d21d.html#a67301b26c3bb28c746e164c9f531d21d" target="_top" xlink:title="acquire mpi_lock">
<polygon fill="white" stroke="black" points="181,-137.5 181,-156.5 268,-156.5 268,-137.5 181,-137.5"/>
<text text-anchor="middle" x="224.5" y="-144.5" font-family="Helvetica,sans-Serif" font-size="10.00">mpi_lock::lock</text>
</a>
</g>
</g>
<!-- Node1&#45;&gt;Node5 -->
<g id="edge5" class="edge">
<title>Node1&#45;&gt;Node5</title>
<path fill="none" stroke="midnightblue" d="M125.36,-147C140.22,-147 155.96,-147 170.38,-147"/>
<polygon fill="midnightblue" stroke="midnightblue" points="170.62,-150.5 180.62,-147 170.62,-143.5 170.62,-150.5"/>
</g>
<!-- Node6 -->
<g id="node6" class="node">
<title>Node6</title>
<g id="a_node6"><a xlink:href="classargo_1_1data__distribution_1_1global__ptr_ac7d651586337d08cda18ef26ffcd34a0.html#ac7d651586337d08cda18ef26ffcd34a0" target="_top" xlink:title="return the home node of the value pointed to">
<polygon fill="white" stroke="black" points="161,-88 161,-118 288,-118 288,-88 161,-88"/>
<text text-anchor="start" x="169" y="-106" font-family="Helvetica,sans-Serif" font-size="10.00">argo::data_distribution</text>
<text text-anchor="middle" x="224.5" y="-95" font-family="Helvetica,sans-Serif" font-size="10.00">::global_ptr::node</text>
</a>
</g>
</g>
<!-- Node1&#45;&gt;Node6 -->
<g id="edge6" class="edge">
<title>Node1&#45;&gt;Node6</title>
<path fill="none" stroke="midnightblue" d="M118.12,-131.98C131.3,-128.35 145.51,-124.45 159.1,-120.71"/>
<polygon fill="midnightblue" stroke="midnightblue" points="160.15,-124.05 168.86,-118.03 158.29,-117.3 160.15,-124.05"/>
</g>
<!-- Node9 -->
<g id="node9" class="node">
<title>Node9</title>
<g id="a_node9"><a xlink:href="classargo_1_1data__distribution_1_1global__ptr_ad8c21c408fa2b926cfd9acfd87e8e4e6.html#ad8c21c408fa2b926cfd9acfd87e8e4e6" target="_top" xlink:title="return the offset on the home node&#39;s local memory share">
<polygon fill="white" stroke="black" points="161,-39 161,-69 288,-69 288,-39 161,-39"/>
<text text-anchor="start" x="169" y="-57" font-family="Helvetica,sans-Serif" font-size="10.00">argo::data_distribution</text>
<text text-anchor="middle" x="224.5" y="-46" font-family="Helvetica,sans-Serif" font-size="10.00">::global_ptr::offset</text>
</a>
</g>
</g>
<!-- Node1&#45;&gt;Node9 -->
<g id="edge9" class="edge">
<title>Node1&#45;&gt;Node9</title>
<path fill="none" stroke="midnightblue" d="M82.45,-131.82C101.5,-117.04 132.12,-94.58 161,-79 164.7,-77 168.6,-75.07 172.56,-73.23"/>
<polygon fill="midnightblue" stroke="midnightblue" points="174.15,-76.35 181.87,-69.1 171.31,-69.96 174.15,-76.35"/>
</g>
<!-- Node10 -->
<g id="node10" class="node">
<title>Node10</title>
<g id="a_node10"><a xlink:href="classmpi__lock_a38cb3649cba54a2818810c444a8b475a.html#a38cb3649cba54a2818810c444a8b475a" target="_top" xlink:title="release mpi_lock">
<polygon fill="white" stroke="black" points="175,-0.5 175,-19.5 274,-19.5 274,-0.5 175,-0.5"/>
<text text-anchor="middle" x="224.5" y="-7.5" font-family="Helvetica,sans-Serif" font-size="10.00">mpi_lock::unlock</text>
</a>
</g>
</g>
<!-- Node1&#45;&gt;Node10 -->
<g id="edge11" class="edge">
<title>Node1&#45;&gt;Node10</title>
<path fill="none" stroke="midnightblue" d="M72.23,-131.7C87.23,-106.79 120.21,-57.48 161,-30 164.71,-27.5 168.76,-25.29 172.95,-23.35"/>
<polygon fill="midnightblue" stroke="midnightblue" points="174.37,-26.55 182.28,-19.51 171.7,-20.08 174.37,-26.55"/>
</g>
<!-- Node7 -->
<g id="node7" class="node">
<title>Node7</title>
<g id="a_node7"><a xlink:href="classargo_1_1data__distribution_1_1global__ptr_ae4353680349f6abbd2cf262dace8e2f2.html#ae4353680349f6abbd2cf262dace8e2f2" target="_top" xlink:title="return a pointer to the selected allocation policy">
<polygon fill="white" stroke="black" points="324,-63 324,-93 451,-93 451,-63 324,-63"/>
<text text-anchor="start" x="332" y="-81" font-family="Helvetica,sans-Serif" font-size="10.00">argo::data_distribution</text>
<text text-anchor="middle" x="387.5" y="-70" font-family="Helvetica,sans-Serif" font-size="10.00">::global_ptr::policy</text>
</a>
</g>
</g>
<!-- Node6&#45;&gt;Node7 -->
<g id="edge7" class="edge">
<title>Node6&#45;&gt;Node7</title>
<path fill="none" stroke="midnightblue" d="M288.21,-93.26C296.65,-91.95 305.36,-90.6 313.96,-89.26"/>
<polygon fill="midnightblue" stroke="midnightblue" points="314.62,-92.7 323.96,-87.71 313.54,-85.79 314.62,-92.7"/>
</g>
<!-- Node8 -->
<g id="node8" class="node">
<title>Node8</title>
<g id="a_node8"><a xlink:href="namespaceargo_1_1env_a25a08cb2d0d11432d640ec7173063339.html#a25a08cb2d0d11432d640ec7173063339" target="_top" xlink:title="get the allocation policy requested by environment variable">
<polygon fill="white" stroke="black" points="487,-63 487,-93 603,-93 603,-63 487,-63"/>
<text text-anchor="start" x="495" y="-81" font-family="Helvetica,sans-Serif" font-size="10.00">argo::env::allocation</text>
<text text-anchor="middle" x="545" y="-70" font-family="Helvetica,sans-Serif" font-size="10.00">_policy</text>
</a>
</g>
</g>
<!-- Node7&#45;&gt;Node8 -->
<g id="edge8" class="edge">
<title>Node7&#45;&gt;Node8</title>
<path fill="none" stroke="midnightblue" d="M451.3,-78C459.69,-78 468.32,-78 476.78,-78"/>
<polygon fill="midnightblue" stroke="midnightblue" points="476.99,-81.5 486.99,-78 476.99,-74.5 476.99,-81.5"/>
</g>
<!-- Node9&#45;&gt;Node7 -->
<g id="edge10" class="edge">
<title>Node9&#45;&gt;Node7</title>
<path fill="none" stroke="midnightblue" d="M288.21,-63.35C296.65,-64.61 305.36,-65.91 313.96,-67.19"/>
<polygon fill="midnightblue" stroke="midnightblue" points="313.56,-70.67 323.96,-68.68 314.59,-63.74 313.56,-70.67"/>
</g>
</g>
</svg>
