<?xml version="1.0" encoding="UTF-8" standalone="no"?>
<!DOCTYPE svg PUBLIC "-//W3C//DTD SVG 1.1//EN"
 "http://www.w3.org/Graphics/SVG/1.1/DTD/svg11.dtd">
<!-- Generated by graphviz version 2.43.0 (0)
 -->
<!-- Title: argo::backend::reset_stats Pages: 1 -->
<svg width="558pt" height="71pt"
 viewBox="0.00 0.00 558.00 70.50" xmlns="http://www.w3.org/2000/svg" xmlns:xlink="http://www.w3.org/1999/xlink">
<g id="graph0" class="graph" transform="scale(1 1) rotate(0) translate(4 66.5)">
<title>argo::backend::reset_stats</title>
<polygon fill="white" stroke="transparent" points="-4,4 -4,-66.5 554,-66.5 554,4 -4,4"/>
<!-- Node1 -->
<g id="node1" class="node">
<title>Node1</title>
<g id="a_node1"><a xlink:title="Resets statistics for the ArgoDSM backend in use.">
<polygon fill="#bfbfbf" stroke="black" points="0,-14 0,-44 116,-44 116,-14 0,-14"/>
<text text-anchor="start" x="8" y="-32" font-family="Helvetica,sans-Serif" font-size="10.00">argo::backend::reset</text>
<text text-anchor="middle" x="58" y="-21" font-family="Helvetica,sans-Serif" font-size="10.00">_stats</text>
</a>
</g>
</g>
<!-- Node1&#45;&gt;Node1 -->
<g id="edge5" class="edge">
<title>Node1&#45;&gt;Node1</title>
<path fill="none" stroke="midnightblue" d="M33.25,-44.16C27.29,-53.56 35.54,-62.5 58,-62.5 71.69,-62.5 80.1,-59.18 83.23,-54.46"/>
<polygon fill="midnightblue" stroke="midnightblue" points="86.71,-53.98 82.75,-44.16 79.72,-54.31 86.71,-53.98"/>
</g>
<!-- Node2 -->
<g id="node2" class="node">
<title>Node2</title>
<g id="a_node2"><a xlink:href="swdsm_8cpp_aef8dea0c8e31701818a5017a5ff20223.html#aef8dea0c8e31701818a5017a5ff20223" target="_top" xlink:title="Resets all ArgoDSM statistics.">
<polygon fill="white" stroke="black" points="152,-19.5 152,-38.5 250,-38.5 250,-19.5 152,-19.5"/>
<text text-anchor="middle" x="201" y="-26.5" font-family="Helvetica,sans-Serif" font-size="10.00">argo_reset_stats</text>
</a>
</g>
</g>
<!-- Node1&#45;&gt;Node2 -->
<g id="edge1" class="edge">
<title>Node1&#45;&gt;Node2</title>
<path fill="none" stroke="midnightblue" d="M116.35,-29C124.7,-29 133.3,-29 141.67,-29"/>
<polygon fill="midnightblue" stroke="midnightblue" points="141.72,-32.5 151.72,-29 141.72,-25.5 141.72,-32.5"/>
</g>
<!-- Node3 -->
<g id="node3" class="node">
<title>Node3</title>
<g id="a_node3"><a xlink:href="classmpi__lock_a79f6b3dc2765ee9189e33fbaf6b46ade.html#a79f6b3dc2765ee9189e33fbaf6b46ade" target="_top" xlink:title="reset the timekeeping statistics">
<polygon fill="white" stroke="black" points="291,-38.5 291,-57.5 412,-57.5 412,-38.5 291,-38.5"/>
<text text-anchor="middle" x="351.5" y="-45.5" font-family="Helvetica,sans-Serif" font-size="10.00">mpi_lock::reset_stats</text>
</a>
</g>
</g>
<!-- Node2&#45;&gt;Node3 -->
<g id="edge2" class="edge">
<title>Node2&#45;&gt;Node3</title>
<path fill="none" stroke="midnightblue" d="M250.21,-35.17C259.93,-36.41 270.33,-37.74 280.62,-39.06"/>
<polygon fill="midnightblue" stroke="midnightblue" points="280.48,-42.57 290.84,-40.37 281.36,-35.63 280.48,-42.57"/>
</g>
<!-- Node4 -->
<g id="node4" class="node">
<title>Node4</title>
<g id="a_node4"><a xlink:href="classcache__lock_afecdbd6c7a1eb2e109b55bb90d44a6cb.html#afecdbd6c7a1eb2e109b55bb90d44a6cb" target="_top" xlink:title="Clear all recorded statistics.">
<polygon fill="white" stroke="black" points="286,-0.5 286,-19.5 417,-19.5 417,-0.5 286,-0.5"/>
<text text-anchor="middle" x="351.5" y="-7.5" font-family="Helvetica,sans-Serif" font-size="10.00">cache_lock::reset_stats</text>
</a>
</g>
</g>
<!-- Node2&#45;&gt;Node4 -->
<g id="edge3" class="edge">
<title>Node2&#45;&gt;Node4</title>
<path fill="none" stroke="midnightblue" d="M250.21,-22.83C258.37,-21.79 267.01,-20.68 275.65,-19.58"/>
<polygon fill="midnightblue" stroke="midnightblue" points="276.31,-23.02 285.78,-18.28 275.42,-16.08 276.31,-23.02"/>
</g>
<!-- Node5 -->
<g id="node5" class="node">
<title>Node5</title>
<g id="a_node5"><a xlink:href="classcache__lock_a3a26cac78d1ee17663b7407b7599a9c0.html#a3a26cac78d1ee17663b7407b7599a9c0" target="_top" xlink:title="Acquire a cache lock.">
<polygon fill="white" stroke="black" points="453,-0.5 453,-19.5 550,-19.5 550,-0.5 453,-0.5"/>
<text text-anchor="middle" x="501.5" y="-7.5" font-family="Helvetica,sans-Serif" font-size="10.00">cache_lock::lock</text>
</a>
</g>
</g>
<!-- Node4&#45;&gt;Node5 -->
<g id="edge4" class="edge">
<title>Node4&#45;&gt;Node5</title>
<path fill="none" stroke="midnightblue" d="M417.41,-10C425.92,-10 434.58,-10 442.95,-10"/>
<polygon fill="midnightblue" stroke="midnightblue" points="442.99,-13.5 452.99,-10 442.99,-6.5 442.99,-13.5"/>
</g>
</g>
</svg>
