<?xml version="1.0" encoding="UTF-8" standalone="no"?>
<!DOCTYPE svg PUBLIC "-//W3C//DTD SVG 1.1//EN"
 "http://www.w3.org/Graphics/SVG/1.1/DTD/svg11.dtd">
<!-- Generated by graphviz version 2.43.0 (0)
 -->
<!-- Title: argo::backend::is_cached Pages: 1 -->
<svg width="869pt" height="110pt"
 viewBox="0.00 0.00 869.00 109.50" xmlns="http://www.w3.org/2000/svg" xmlns:xlink="http://www.w3.org/1999/xlink">
<g id="graph0" class="graph" transform="scale(1 1) rotate(0) translate(4 105.5)">
<title>argo::backend::is_cached</title>
<polygon fill="white" stroke="transparent" points="-4,4 -4,-105.5 865,-105.5 865,4 -4,4"/>
<!-- Node1 -->
<g id="node1" class="node">
<title>Node1</title>
<g id="a_node1"><a xlink:title="Check if a an address is cached or node local.">
<polygon fill="#bfbfbf" stroke="black" points="0,-44 0,-63 139,-63 139,-44 0,-44"/>
<text text-anchor="middle" x="69.5" y="-51" font-family="Helvetica,sans-Serif" font-size="10.00">argo::backend::is_cached</text>
</a>
</g>
</g>
<!-- Node1&#45;&gt;Node1 -->
<g id="edge8" class="edge">
<title>Node1&#45;&gt;Node1</title>
<path fill="none" stroke="midnightblue" d="M47.92,-63.26C37.42,-72.07 44.62,-81.5 69.5,-81.5 85.44,-81.5 94.12,-77.63 95.54,-72.53"/>
<polygon fill="midnightblue" stroke="midnightblue" points="98.57,-70.75 91.08,-63.26 92.26,-73.79 98.57,-70.75"/>
</g>
<!-- Node2 -->
<g id="node2" class="node">
<title>Node2</title>
<g id="a_node2"><a xlink:href="swdsm_8cpp_a93e3c7288ce47ac8b4ec8ff9f8a82435.html#a93e3c7288ce47ac8b4ec8ff9f8a82435" target="_top" xlink:title="Check whether a page is either cached on the node or locally backed.">
<polygon fill="white" stroke="black" points="175,-44 175,-63 245,-63 245,-44 175,-44"/>
<text text-anchor="middle" x="210" y="-51" font-family="Helvetica,sans-Serif" font-size="10.00">_is_cached</text>
</a>
</g>
</g>
<!-- Node1&#45;&gt;Node2 -->
<g id="edge1" class="edge">
<title>Node1&#45;&gt;Node2</title>
<path fill="none" stroke="midnightblue" d="M139.34,-53.5C148.03,-53.5 156.73,-53.5 164.89,-53.5"/>
<polygon fill="midnightblue" stroke="midnightblue" points="164.89,-57 174.89,-53.5 164.89,-50 164.89,-57"/>
</g>
<!-- Node3 -->
<g id="node3" class="node">
<title>Node3</title>
<g id="a_node3"><a xlink:href="swdsm_8cpp_ad56e0108259917bf97090212b3927f55.html#ad56e0108259917bf97090212b3927f55" target="_top" xlink:title="align an offset into a memory region to the beginning of its size block">
<polygon fill="white" stroke="black" points="281,-82 281,-101 379,-101 379,-82 281,-82"/>
<text text-anchor="middle" x="330" y="-89" font-family="Helvetica,sans-Serif" font-size="10.00">align_backwards</text>
</a>
</g>
</g>
<!-- Node2&#45;&gt;Node3 -->
<g id="edge2" class="edge">
<title>Node2&#45;&gt;Node3</title>
<path fill="none" stroke="midnightblue" d="M240.78,-63.09C255.59,-67.86 273.69,-73.69 289.63,-78.82"/>
<polygon fill="midnightblue" stroke="midnightblue" points="288.64,-82.18 299.23,-81.91 290.79,-75.52 288.64,-82.18"/>
</g>
<!-- Node4 -->
<g id="node4" class="node">
<title>Node4</title>
<g id="a_node4"><a xlink:href="swdsm_8cpp_a59e4c59c2940cc3727debeeff4af1889.html#a59e4c59c2940cc3727debeeff4af1889" target="_top" xlink:title="Gets cacheindex for a given address.">
<polygon fill="white" stroke="black" points="285.5,-44 285.5,-63 374.5,-63 374.5,-44 285.5,-44"/>
<text text-anchor="middle" x="330" y="-51" font-family="Helvetica,sans-Serif" font-size="10.00">getCacheIndex</text>
</a>
</g>
</g>
<!-- Node2&#45;&gt;Node4 -->
<g id="edge3" class="edge">
<title>Node2&#45;&gt;Node4</title>
<path fill="none" stroke="midnightblue" d="M245.13,-53.5C254.52,-53.5 264.95,-53.5 275.16,-53.5"/>
<polygon fill="midnightblue" stroke="midnightblue" points="275.26,-57 285.26,-53.5 275.26,-50 275.26,-57"/>
</g>
<!-- Node5 -->
<g id="node5" class="node">
<title>Node5</title>
<g id="a_node5"><a xlink:href="swdsm_8cpp_ac2a76a52d43c19cf7d5ed770e14c4409.html#ac2a76a52d43c19cf7d5ed770e14c4409" target="_top" xlink:title="Gives homenode for a given address.">
<polygon fill="white" stroke="black" points="281,-6 281,-25 379,-25 379,-6 281,-6"/>
<text text-anchor="middle" x="330" y="-13" font-family="Helvetica,sans-Serif" font-size="10.00">peek_homenode</text>
</a>
</g>
</g>
<!-- Node2&#45;&gt;Node5 -->
<g id="edge4" class="edge">
<title>Node2&#45;&gt;Node5</title>
<path fill="none" stroke="midnightblue" d="M240.78,-43.91C255.59,-39.14 273.69,-33.31 289.63,-28.18"/>
<polygon fill="midnightblue" stroke="midnightblue" points="290.79,-31.48 299.23,-25.09 288.64,-24.82 290.79,-31.48"/>
</g>
<!-- Node6 -->
<g id="node6" class="node">
<title>Node6</title>
<g id="a_node6"><a xlink:href="classargo_1_1data__distribution_1_1global__ptr_a3e2cdd4d323ef91174615e27ab94e342.html#a3e2cdd4d323ef91174615e27ab94e342" target="_top" xlink:title="return the home node of the value pointed to, or a default value if the page has not yet been first&#45;t...">
<polygon fill="white" stroke="black" points="415,-0.5 415,-30.5 546,-30.5 546,-0.5 415,-0.5"/>
<text text-anchor="start" x="423" y="-18.5" font-family="Helvetica,sans-Serif" font-size="10.00">argo::data_distribution</text>
<text text-anchor="middle" x="480.5" y="-7.5" font-family="Helvetica,sans-Serif" font-size="10.00">::global_ptr::peek_node</text>
</a>
</g>
</g>
<!-- Node5&#45;&gt;Node6 -->
<g id="edge5" class="edge">
<title>Node5&#45;&gt;Node6</title>
<path fill="none" stroke="midnightblue" d="M379.21,-15.5C387.37,-15.5 396.01,-15.5 404.65,-15.5"/>
<polygon fill="midnightblue" stroke="midnightblue" points="404.78,-19 414.78,-15.5 404.78,-12 404.78,-19"/>
</g>
<!-- Node7 -->
<g id="node7" class="node">
<title>Node7</title>
<g id="a_node7"><a xlink:href="classargo_1_1data__distribution_1_1global__ptr_ae4353680349f6abbd2cf262dace8e2f2.html#ae4353680349f6abbd2cf262dace8e2f2" target="_top" xlink:title="return a pointer to the selected allocation policy">
<polygon fill="white" stroke="black" points="582,-0.5 582,-30.5 709,-30.5 709,-0.5 582,-0.5"/>
<text text-anchor="start" x="590" y="-18.5" font-family="Helvetica,sans-Serif" font-size="10.00">argo::data_distribution</text>
<text text-anchor="middle" x="645.5" y="-7.5" font-family="Helvetica,sans-Serif" font-size="10.00">::global_ptr::policy</text>
</a>
</g>
</g>
<!-- Node6&#45;&gt;Node7 -->
<g id="edge6" class="edge">
<title>Node6&#45;&gt;Node7</title>
<path fill="none" stroke="midnightblue" d="M546.39,-15.5C554.72,-15.5 563.3,-15.5 571.74,-15.5"/>
<polygon fill="midnightblue" stroke="midnightblue" points="571.96,-19 581.96,-15.5 571.96,-12 571.96,-19"/>
</g>
<!-- Node8 -->
<g id="node8" class="node">
<title>Node8</title>
<g id="a_node8"><a xlink:href="namespaceargo_1_1env_a25a08cb2d0d11432d640ec7173063339.html#a25a08cb2d0d11432d640ec7173063339" target="_top" xlink:title="get the allocation policy requested by environment variable">
<polygon fill="white" stroke="black" points="745,-0.5 745,-30.5 861,-30.5 861,-0.5 745,-0.5"/>
<text text-anchor="start" x="753" y="-18.5" font-family="Helvetica,sans-Serif" font-size="10.00">argo::env::allocation</text>
<text text-anchor="middle" x="803" y="-7.5" font-family="Helvetica,sans-Serif" font-size="10.00">_policy</text>
</a>
</g>
</g>
<!-- Node7&#45;&gt;Node8 -->
<g id="edge7" class="edge">
<title>Node7&#45;&gt;Node8</title>
<path fill="none" stroke="midnightblue" d="M709.3,-15.5C717.69,-15.5 726.32,-15.5 734.78,-15.5"/>
<polygon fill="midnightblue" stroke="midnightblue" points="734.99,-19 744.99,-15.5 734.99,-12 734.99,-19"/>
</g>
</g>
</svg>
