<?xml version="1.0" encoding="UTF-8" standalone="no"?>
<!DOCTYPE svg PUBLIC "-//W3C//DTD SVG 1.1//EN"
 "http://www.w3.org/Graphics/SVG/1.1/DTD/svg11.dtd">
<!-- Generated by graphviz version 2.43.0 (0)
 -->
<!-- Title: argo::backend::acquire Pages: 1 -->
<svg width="544pt" height="154pt"
 viewBox="0.00 0.00 544.00 153.50" xmlns="http://www.w3.org/2000/svg" xmlns:xlink="http://www.w3.org/1999/xlink">
<g id="graph0" class="graph" transform="scale(1 1) rotate(0) translate(4 149.5)">
<title>argo::backend::acquire</title>
<polygon fill="white" stroke="transparent" points="-4,4 -4,-149.5 540,-149.5 540,4 -4,4"/>
<!-- Node1 -->
<g id="node1" class="node">
<title>Node1</title>
<g id="a_node1"><a xlink:title="causes a node to self&#45;invalidate its cache, and thus getting any updated values on subsequent accesse...">
<polygon fill="#bfbfbf" stroke="black" points="0,-57.5 0,-76.5 127,-76.5 127,-57.5 0,-57.5"/>
<text text-anchor="middle" x="63.5" y="-64.5" font-family="Helvetica,sans-Serif" font-size="10.00">argo::backend::acquire</text>
</a>
</g>
</g>
<!-- Node1&#45;&gt;Node1 -->
<g id="edge1" class="edge">
<title>Node1&#45;&gt;Node1</title>
<path fill="none" stroke="midnightblue" d="M42.23,-76.76C31.88,-85.57 38.97,-95 63.5,-95 79.21,-95 87.77,-91.13 89.17,-86.03"/>
<polygon fill="midnightblue" stroke="midnightblue" points="92.22,-84.29 84.77,-76.76 85.89,-87.29 92.22,-84.29"/>
</g>
<!-- Node2 -->
<g id="node2" class="node">
<title>Node2</title>
<g id="a_node2"><a xlink:href="swdsm_8cpp_a44b8bb7a3c8b47b4f9552c8e10b25e4b.html#a44b8bb7a3c8b47b4f9552c8e10b25e4b" target="_top" xlink:title="acquire function for ArgoDSM (Acquire according to Release Consistency)">
<polygon fill="white" stroke="black" points="163,-57.5 163,-76.5 243,-76.5 243,-57.5 163,-57.5"/>
<text text-anchor="middle" x="203" y="-64.5" font-family="Helvetica,sans-Serif" font-size="10.00">argo_acquire</text>
</a>
</g>
</g>
<!-- Node1&#45;&gt;Node2 -->
<g id="edge2" class="edge">
<title>Node1&#45;&gt;Node2</title>
<path fill="none" stroke="midnightblue" d="M127.21,-67C135.78,-67 144.47,-67 152.75,-67"/>
<polygon fill="midnightblue" stroke="midnightblue" points="152.98,-70.5 162.98,-67 152.98,-63.5 152.98,-70.5"/>
</g>
<!-- Node3 -->
<g id="node3" class="node">
<title>Node3</title>
<g id="a_node3"><a xlink:href="swdsm_8cpp_aa7c3a2de6bbafdaf68fe6ceb6110ab97.html#aa7c3a2de6bbafdaf68fe6ceb6110ab97" target="_top" xlink:title="Self&#45;Invalidates all memory that has potential writers.">
<polygon fill="white" stroke="black" points="279,-57.5 279,-76.5 377,-76.5 377,-57.5 279,-57.5"/>
<text text-anchor="middle" x="328" y="-64.5" font-family="Helvetica,sans-Serif" font-size="10.00">self_invalidation</text>
</a>
</g>
</g>
<!-- Node2&#45;&gt;Node3 -->
<g id="edge3" class="edge">
<title>Node2&#45;&gt;Node3</title>
<path fill="none" stroke="midnightblue" d="M243.26,-67C251.34,-67 260.02,-67 268.62,-67"/>
<polygon fill="midnightblue" stroke="midnightblue" points="268.63,-70.5 278.63,-67 268.63,-63.5 268.63,-70.5"/>
</g>
<!-- Node4 -->
<g id="node4" class="node">
<title>Node4</title>
<g id="a_node4"><a xlink:href="swdsm_8cpp_aff9ea7ba7f37206d933c8dc8004dbc7b.html#aff9ea7ba7f37206d933c8dc8004dbc7b" target="_top" xlink:title="Gives an index to the sharer/writer vector depending on the address.">
<polygon fill="white" stroke="black" points="424,-115 424,-145 525,-145 525,-115 424,-115"/>
<text text-anchor="start" x="432" y="-133" font-family="Helvetica,sans-Serif" font-size="10.00">get_classification</text>
<text text-anchor="middle" x="474.5" y="-122" font-family="Helvetica,sans-Serif" font-size="10.00">_index</text>
</a>
</g>
</g>
<!-- Node3&#45;&gt;Node4 -->
<g id="edge4" class="edge">
<title>Node3&#45;&gt;Node4</title>
<path fill="none" stroke="midnightblue" d="M349.63,-76.56C366.58,-84.36 391.26,-95.59 413,-105 417.64,-107.01 422.49,-109.07 427.35,-111.11"/>
<polygon fill="midnightblue" stroke="midnightblue" points="426.05,-114.36 436.63,-114.99 428.75,-107.91 426.05,-114.36"/>
</g>
<!-- Node5 -->
<g id="node5" class="node">
<title>Node5</title>
<g id="a_node5"><a xlink:href="swdsm_8cpp_a7d0d0386804df222465aaa199aab92da.html#a7d0d0386804df222465aaa199aab92da" target="_top" xlink:title="Gets the sharer window index based on the classification index.">
<polygon fill="white" stroke="black" points="413,-76.5 413,-95.5 536,-95.5 536,-76.5 413,-76.5"/>
<text text-anchor="middle" x="474.5" y="-83.5" font-family="Helvetica,sans-Serif" font-size="10.00">get_sharer_win_index</text>
</a>
</g>
</g>
<!-- Node3&#45;&gt;Node5 -->
<g id="edge5" class="edge">
<title>Node3&#45;&gt;Node5</title>
<path fill="none" stroke="midnightblue" d="M377.12,-73.33C385.38,-74.41 394.11,-75.56 402.82,-76.71"/>
<polygon fill="midnightblue" stroke="midnightblue" points="402.63,-80.21 413,-78.04 403.54,-73.27 402.63,-80.21"/>
</g>
<!-- Node6 -->
<g id="node6" class="node">
<title>Node6</title>
<g id="a_node6"><a xlink:href="classmpi__lock_a67301b26c3bb28c746e164c9f531d21d.html#a67301b26c3bb28c746e164c9f531d21d" target="_top" xlink:title="acquire mpi_lock">
<polygon fill="white" stroke="black" points="431,-38.5 431,-57.5 518,-57.5 518,-38.5 431,-38.5"/>
<text text-anchor="middle" x="474.5" y="-45.5" font-family="Helvetica,sans-Serif" font-size="10.00">mpi_lock::lock</text>
</a>
</g>
</g>
<!-- Node3&#45;&gt;Node6 -->
<g id="edge6" class="edge">
<title>Node3&#45;&gt;Node6</title>
<path fill="none" stroke="midnightblue" d="M377.12,-60.67C391.12,-58.83 406.49,-56.81 420.77,-54.93"/>
<polygon fill="midnightblue" stroke="midnightblue" points="421.47,-58.37 430.93,-53.6 420.56,-51.43 421.47,-58.37"/>
</g>
<!-- Node7 -->
<g id="node7" class="node">
<title>Node7</title>
<g id="a_node7"><a xlink:href="classmpi__lock_a38cb3649cba54a2818810c444a8b475a.html#a38cb3649cba54a2818810c444a8b475a" target="_top" xlink:title="release mpi_lock">
<polygon fill="white" stroke="black" points="425,-0.5 425,-19.5 524,-19.5 524,-0.5 425,-0.5"/>
<text text-anchor="middle" x="474.5" y="-7.5" font-family="Helvetica,sans-Serif" font-size="10.00">mpi_lock::unlock</text>
</a>
</g>
</g>
<!-- Node3&#45;&gt;Node7 -->
<g id="edge7" class="edge">
<title>Node3&#45;&gt;Node7</title>
<path fill="none" stroke="midnightblue" d="M348.41,-57.42C365.25,-49.29 390.42,-37.62 413,-29 418.67,-26.84 424.7,-24.73 430.67,-22.74"/>
<polygon fill="midnightblue" stroke="midnightblue" points="432.15,-25.94 440.6,-19.54 430.01,-19.28 432.15,-25.94"/>
</g>
</g>
</svg>
