<?xml version="1.0" encoding="UTF-8" standalone="no"?>
<!DOCTYPE svg PUBLIC "-//W3C//DTD SVG 1.1//EN"
 "http://www.w3.org/Graphics/SVG/1.1/DTD/svg11.dtd">
<!-- Generated by graphviz version 2.43.0 (0)
 -->
<!-- Title: /home/projectcs&#45;2022/argodsmBuffer/argodsmPrefetching/src/backend/backend.hpp Pages: 1 -->
<!--zoomable 397 -->
<svg id="main" version="1.1" xmlns="http://www.w3.org/2000/svg" xmlns:xlink="http://www.w3.org/1999/xlink" xml:space="preserve" onload="init(evt)">
<style type="text/css"><![CDATA[
.edge:hover path { stroke: red; }
.edge:hover polygon { stroke: red; fill: red; }
]]></style>
<script type="text/javascript"><![CDATA[
var edges = document.getElementsByTagName('g');
if (edges && edges.length) {
  for (var i=0;i<edges.length;i++) {
    if (edges[i].id.substr(0,4)=='edge') {
      edges[i].setAttribute('class','edge');
    }
  }
}
]]></script>
        <defs>
                <circle id="rim" cx="0" cy="0" r="7"/>
                <circle id="rim2" cx="0" cy="0" r="3.5"/>
                <g id="zoomPlus">
                        <use xlink:href="#rim" fill="#404040">
                                <set attributeName="fill" to="#808080" begin="zoomplus.mouseover" end="zoomplus.mouseout"/>
                        </use>
                        <path d="M-4,0h8M0,-4v8" fill="none" stroke="white" stroke-width="1.5" pointer-events="none"/>
                </g>
                <g id="zoomMin">
                        <use xlink:href="#rim" fill="#404040">
                                <set attributeName="fill" to="#808080" begin="zoomminus.mouseover" end="zoomminus.mouseout"/>
                        </use>
                        <path d="M-4,0h8" fill="none" stroke="white" stroke-width="1.5" pointer-events="none"/>
                </g>
                <g id="dirArrow">
                        <path fill="none" stroke="white" stroke-width="1.5" d="M0,-3.0v7 M-2.5,-0.5L0,-3.0L2.5,-0.5"/>
                </g>
               <g id="resetDef">
                       <use xlink:href="#rim2" fill="#404040">
                               <set attributeName="fill" to="#808080" begin="reset.mouseover" end="reset.mouseout"/>
                       </use>
               </g>
        </defs>

<script type="text/javascript">
var viewWidth = 1006;
var viewHeight = 397;
var sectionId = 'dynsection-0';
</script>
<script xlink:href="svgpan.js"/>
<svg id="graph" class="graph">
<g id="viewport">
<title>/home/projectcs&#45;2022/argodsmBuffer/argodsmPrefetching/src/backend/backend.hpp</title>
<polygon fill="white" stroke="transparent" points="-4,4 -4,-393 1001.89,-393 1001.89,4 -4,4"/>
<!-- Node1 -->
<g id="node1" class="node">
<title>Node1</title>
<g id="a_node1"><a xlink:title="This file provides the backend interface.">
<polygon fill="#bfbfbf" stroke="black" points="488.89,-347.5 488.89,-388.5 681.89,-388.5 681.89,-347.5 488.89,-347.5"/>
<text text-anchor="start" x="496.89" y="-376.5" font-family="Helvetica,sans-Serif" font-size="10.00">/home/projectcs&#45;2022</text>
<text text-anchor="start" x="496.89" y="-365.5" font-family="Helvetica,sans-Serif" font-size="10.00">/argodsmBuffer/argodsmPrefetching</text>
<text text-anchor="middle" x="585.39" y="-354.5" font-family="Helvetica,sans-Serif" font-size="10.00">/src/backend/backend.hpp</text>
</a>
</g>
</g>
<!-- Node2 -->
<g id="node2" class="node">
<title>Node2</title>
<g id="a_node2"><a xlink:title=" ">
<polygon fill="white" stroke="#bfbfbf" points="414.39,-286 414.39,-305 466.39,-305 466.39,-286 414.39,-286"/>
<text text-anchor="middle" x="440.39" y="-293" font-family="Helvetica,sans-Serif" font-size="10.00">cassert</text>
</a>
</g>
</g>
<!-- Node1&#45;&gt;Node2 -->
<g id="edge1" class="edge">
<title>Node1&#45;&gt;Node2</title>
<path fill="none" stroke="midnightblue" d="M545,-347.36C520.18,-335.29 489.07,-320.17 467.26,-309.56"/>
<polygon fill="midnightblue" stroke="midnightblue" points="468.75,-306.4 458.23,-305.17 465.69,-312.69 468.75,-306.4"/>
</g>
<!-- Node3 -->
<g id="node3" class="node">
<title>Node3</title>
<g id="a_node3"><a xlink:title=" ">
<polygon fill="white" stroke="#bfbfbf" points="484.39,-286 484.39,-305 534.39,-305 534.39,-286 484.39,-286"/>
<text text-anchor="middle" x="509.39" y="-293" font-family="Helvetica,sans-Serif" font-size="10.00">cstdint</text>
</a>
</g>
</g>
<!-- Node1&#45;&gt;Node3 -->
<g id="edge2" class="edge">
<title>Node1&#45;&gt;Node3</title>
<path fill="none" stroke="midnightblue" d="M564.22,-347.36C552.2,-336.21 537.37,-322.46 526.17,-312.06"/>
<polygon fill="midnightblue" stroke="midnightblue" points="528.45,-309.41 518.74,-305.17 523.69,-314.54 528.45,-309.41"/>
</g>
<!-- Node4 -->
<g id="node4" class="node">
<title>Node4</title>
<g id="a_node4"><a xlink:title=" ">
<polygon fill="white" stroke="#bfbfbf" points="552.89,-286 552.89,-305 617.89,-305 617.89,-286 552.89,-286"/>
<text text-anchor="middle" x="585.39" y="-293" font-family="Helvetica,sans-Serif" font-size="10.00">stdexcept</text>
</a>
</g>
</g>
<!-- Node1&#45;&gt;Node4 -->
<g id="edge3" class="edge">
<title>Node1&#45;&gt;Node4</title>
<path fill="none" stroke="midnightblue" d="M585.39,-347.36C585.39,-337.3 585.39,-325.1 585.39,-315.18"/>
<polygon fill="midnightblue" stroke="midnightblue" points="588.89,-315.17 585.39,-305.17 581.89,-315.17 588.89,-315.17"/>
</g>
<!-- Node5 -->
<g id="node5" class="node">
<title>Node5</title>
<g id="a_node5"><a xlink:href="global__ptr_8hpp.html" target="_top" xlink:title="This file provides the global pointer for ArgoDSM.">
<polygon fill="white" stroke="black" points="636.39,-280.5 636.39,-310.5 768.39,-310.5 768.39,-280.5 636.39,-280.5"/>
<text text-anchor="start" x="644.39" y="-298.5" font-family="Helvetica,sans-Serif" font-size="10.00">data_distribution/global</text>
<text text-anchor="middle" x="702.39" y="-287.5" font-family="Helvetica,sans-Serif" font-size="10.00">_ptr.hpp</text>
</a>
</g>
</g>
<!-- Node1&#45;&gt;Node5 -->
<g id="edge4" class="edge">
<title>Node1&#45;&gt;Node5</title>
<path fill="none" stroke="midnightblue" d="M617.98,-347.36C634.3,-337.53 653.99,-325.67 670.24,-315.87"/>
<polygon fill="midnightblue" stroke="midnightblue" points="672.12,-318.83 678.88,-310.67 668.5,-312.83 672.12,-318.83"/>
</g>
<!-- Node13 -->
<g id="node13" class="node">
<title>Node13</title>
<g id="a_node13"><a xlink:href="types_8hpp.html" target="_top" xlink:title="This file defines common types used in ArgoDSM.">
<polygon fill="white" stroke="black" points="902.89,-56.5 902.89,-75.5 997.89,-75.5 997.89,-56.5 902.89,-56.5"/>
<text text-anchor="middle" x="950.39" y="-63.5" font-family="Helvetica,sans-Serif" font-size="10.00">types/types.hpp</text>
</a>
</g>
</g>
<!-- Node1&#45;&gt;Node13 -->
<g id="edge28" class="edge">
<title>Node1&#45;&gt;Node13</title>
<path fill="none" stroke="midnightblue" d="M682.25,-351.53C790.38,-331.46 950.39,-292.11 950.39,-235 950.39,-235 950.39,-235 950.39,-177 950.39,-144.95 950.39,-107.64 950.39,-85.75"/>
<polygon fill="midnightblue" stroke="midnightblue" points="953.89,-85.56 950.39,-75.56 946.89,-85.56 953.89,-85.56"/>
</g>
<!-- Node6 -->
<g id="node6" class="node">
<title>Node6</title>
<g id="a_node6"><a xlink:title=" ">
<polygon fill="white" stroke="#bfbfbf" points="45.39,-56.5 45.39,-75.5 89.39,-75.5 89.39,-56.5 45.39,-56.5"/>
<text text-anchor="middle" x="67.39" y="-63.5" font-family="Helvetica,sans-Serif" font-size="10.00">string</text>
</a>
</g>
</g>
<!-- Node5&#45;&gt;Node6 -->
<g id="edge5" class="edge">
<title>Node5&#45;&gt;Node6</title>
<path fill="none" stroke="midnightblue" d="M636.1,-281.69C632.82,-281.11 629.57,-280.54 626.39,-280 489.72,-256.78 99.9,-293 9.39,-188 -18.59,-155.54 23.6,-107.24 49.55,-82.64"/>
<polygon fill="midnightblue" stroke="midnightblue" points="52,-85.15 56.99,-75.81 47.26,-79.99 52,-85.15"/>
</g>
<!-- Node7 -->
<g id="node7" class="node">
<title>Node7</title>
<g id="a_node7"><a xlink:href="data__distribution_8hpp.html" target="_top" xlink:title="This file provides an abstraction layer for distributing the shared memory space.">
<polygon fill="white" stroke="black" points="533.39,-224.5 533.39,-243.5 653.39,-243.5 653.39,-224.5 533.39,-224.5"/>
<text text-anchor="middle" x="593.39" y="-231.5" font-family="Helvetica,sans-Serif" font-size="10.00">data_distribution.hpp</text>
</a>
</g>
</g>
<!-- Node5&#45;&gt;Node7 -->
<g id="edge6" class="edge">
<title>Node5&#45;&gt;Node7</title>
<path fill="none" stroke="midnightblue" d="M676.56,-280.4C658.93,-270.77 635.69,-258.09 618.26,-248.58"/>
<polygon fill="midnightblue" stroke="midnightblue" points="619.71,-245.38 609.25,-243.66 616.35,-251.52 619.71,-245.38"/>
</g>
<!-- Node11 -->
<g id="node11" class="node">
<title>Node11</title>
<g id="a_node11"><a xlink:href="env_8hpp.html" target="_top" xlink:title="This file provides facilities for handling environment variables.">
<polygon fill="white" stroke="black" points="808.39,-56.5 808.39,-75.5 884.39,-75.5 884.39,-56.5 808.39,-56.5"/>
<text text-anchor="middle" x="846.39" y="-63.5" font-family="Helvetica,sans-Serif" font-size="10.00">env/env.hpp</text>
</a>
</g>
</g>
<!-- Node5&#45;&gt;Node11 -->
<g id="edge27" class="edge">
<title>Node5&#45;&gt;Node11</title>
<path fill="none" stroke="midnightblue" d="M745.9,-280.39C786.57,-264.73 845.26,-235.23 874.39,-188 892.16,-159.19 889.92,-144.17 879.39,-112 875.9,-101.34 868.82,-91.12 862.11,-83.12"/>
<polygon fill="midnightblue" stroke="midnightblue" points="864.7,-80.76 855.41,-75.66 859.49,-85.44 864.7,-80.76"/>
</g>
<!-- Node8 -->
<g id="node8" class="node">
<title>Node8</title>
<g id="a_node8"><a xlink:href="base__distribution_8hpp.html" target="_top" xlink:title="This file implements the base distribution class for all the policies to derive from.">
<polygon fill="white" stroke="black" points="487.39,-112.5 487.39,-131.5 609.39,-131.5 609.39,-112.5 487.39,-112.5"/>
<text text-anchor="middle" x="548.39" y="-119.5" font-family="Helvetica,sans-Serif" font-size="10.00">base_distribution.hpp</text>
</a>
</g>
</g>
<!-- Node7&#45;&gt;Node8 -->
<g id="edge7" class="edge">
<title>Node7&#45;&gt;Node8</title>
<path fill="none" stroke="midnightblue" d="M587.56,-224.36C581.81,-215.53 573.07,-201.27 567.39,-188 560.89,-172.8 555.8,-154.68 552.53,-141.44"/>
<polygon fill="midnightblue" stroke="midnightblue" points="555.92,-140.57 550.22,-131.64 549.11,-142.18 555.92,-140.57"/>
</g>
<!-- Node7&#45;&gt;Node11 -->
<g id="edge26" class="edge">
<title>Node7&#45;&gt;Node11</title>
<path fill="none" stroke="midnightblue" d="M653.44,-231.3C722.38,-227.93 829.21,-217.89 854.39,-188 878.83,-158.99 864.91,-110.88 854.51,-84.92"/>
<polygon fill="midnightblue" stroke="midnightblue" points="857.67,-83.39 850.53,-75.56 851.23,-86.14 857.67,-83.39"/>
</g>
<!-- Node14 -->
<g id="node14" class="node">
<title>Node14</title>
<g id="a_node14"><a xlink:href="cyclic__distribution_8hpp.html" target="_top" xlink:title="This file implements the cyclic data distribution.">
<polygon fill="white" stroke="black" points="576.39,-168.5 576.39,-187.5 702.39,-187.5 702.39,-168.5 576.39,-168.5"/>
<text text-anchor="middle" x="639.39" y="-175.5" font-family="Helvetica,sans-Serif" font-size="10.00">cyclic_distribution.hpp</text>
</a>
</g>
</g>
<!-- Node7&#45;&gt;Node14 -->
<g id="edge14" class="edge">
<title>Node7&#45;&gt;Node14</title>
<path fill="none" stroke="midnightblue" d="M600.99,-224.08C607.62,-216.3 617.41,-204.8 625.45,-195.37"/>
<polygon fill="midnightblue" stroke="midnightblue" points="628.12,-197.63 631.94,-187.75 622.79,-193.09 628.12,-197.63"/>
</g>
<!-- Node15 -->
<g id="node15" class="node">
<title>Node15</title>
<g id="a_node15"><a xlink:href="first__touch__distribution_8hpp.html" target="_top" xlink:title="This file implements the first&#45;touch data distribution.">
<polygon fill="white" stroke="black" points="18.89,-168.5 18.89,-187.5 167.89,-187.5 167.89,-168.5 18.89,-168.5"/>
<text text-anchor="middle" x="93.39" y="-175.5" font-family="Helvetica,sans-Serif" font-size="10.00">first_touch_distribution.hpp</text>
</a>
</g>
</g>
<!-- Node7&#45;&gt;Node15 -->
<g id="edge16" class="edge">
<title>Node7&#45;&gt;Node15</title>
<path fill="none" stroke="midnightblue" d="M533.08,-226.49C444.56,-216.93 279.08,-199.05 178.31,-188.17"/>
<polygon fill="midnightblue" stroke="midnightblue" points="178.48,-184.67 168.16,-187.08 177.73,-191.63 178.48,-184.67"/>
</g>
<!-- Node17 -->
<g id="node17" class="node">
<title>Node17</title>
<g id="a_node17"><a xlink:href="naive__distribution_8hpp.html" target="_top" xlink:title="This file implements the naive data distribution.">
<polygon fill="white" stroke="black" points="720.89,-168.5 720.89,-187.5 845.89,-187.5 845.89,-168.5 720.89,-168.5"/>
<text text-anchor="middle" x="783.39" y="-175.5" font-family="Helvetica,sans-Serif" font-size="10.00">naive_distribution.hpp</text>
</a>
</g>
</g>
<!-- Node7&#45;&gt;Node17 -->
<g id="edge20" class="edge">
<title>Node7&#45;&gt;Node17</title>
<path fill="none" stroke="midnightblue" d="M623.5,-224.44C656.02,-215.2 707.97,-200.44 743.78,-190.26"/>
<polygon fill="midnightblue" stroke="midnightblue" points="744.76,-193.62 753.43,-187.52 742.85,-186.88 744.76,-193.62"/>
</g>
<!-- Node18 -->
<g id="node18" class="node">
<title>Node18</title>
<g id="a_node18"><a xlink:href="prime__mapp__distribution_8hpp.html" target="_top" xlink:title="This file implements the prime&#45;mapp data distribution.">
<polygon fill="white" stroke="black" points="186.39,-168.5 186.39,-187.5 346.39,-187.5 346.39,-168.5 186.39,-168.5"/>
<text text-anchor="middle" x="266.39" y="-175.5" font-family="Helvetica,sans-Serif" font-size="10.00">prime_mapp_distribution.hpp</text>
</a>
</g>
</g>
<!-- Node7&#45;&gt;Node18 -->
<g id="edge22" class="edge">
<title>Node7&#45;&gt;Node18</title>
<path fill="none" stroke="midnightblue" d="M541.58,-224.44C483.58,-214.87 389.66,-199.36 327.96,-189.17"/>
<polygon fill="midnightblue" stroke="midnightblue" points="328.4,-185.69 317.96,-187.52 327.26,-192.6 328.4,-185.69"/>
</g>
<!-- Node19 -->
<g id="node19" class="node">
<title>Node19</title>
<g id="a_node19"><a xlink:href="skew__mapp__distribution_8hpp.html" target="_top" xlink:title="This file implements the skew&#45;mapp data distribution.">
<polygon fill="white" stroke="black" points="364.39,-168.5 364.39,-187.5 520.39,-187.5 520.39,-168.5 364.39,-168.5"/>
<text text-anchor="middle" x="442.39" y="-175.5" font-family="Helvetica,sans-Serif" font-size="10.00">skew_mapp_distribution.hpp</text>
</a>
</g>
</g>
<!-- Node7&#45;&gt;Node19 -->
<g id="edge24" class="edge">
<title>Node7&#45;&gt;Node19</title>
<path fill="none" stroke="midnightblue" d="M569.47,-224.44C544.17,-215.4 504.09,-201.06 475.71,-190.92"/>
<polygon fill="midnightblue" stroke="midnightblue" points="476.8,-187.59 466.21,-187.52 474.44,-194.18 476.8,-187.59"/>
</g>
<!-- Node8&#45;&gt;Node6 -->
<g id="edge10" class="edge">
<title>Node8&#45;&gt;Node6</title>
<path fill="none" stroke="midnightblue" d="M486.98,-114.11C383.94,-102.54 179.7,-79.61 100.17,-70.68"/>
<polygon fill="midnightblue" stroke="midnightblue" points="100.13,-67.15 89.8,-69.52 99.34,-74.11 100.13,-67.15"/>
</g>
<!-- Node9 -->
<g id="node9" class="node">
<title>Node9</title>
<g id="a_node9"><a xlink:title=" ">
<polygon fill="white" stroke="#bfbfbf" points="486.89,-56.5 486.89,-75.5 535.89,-75.5 535.89,-56.5 486.89,-56.5"/>
<text text-anchor="middle" x="511.39" y="-63.5" font-family="Helvetica,sans-Serif" font-size="10.00">cstdlib</text>
</a>
</g>
</g>
<!-- Node8&#45;&gt;Node9 -->
<g id="edge8" class="edge">
<title>Node8&#45;&gt;Node9</title>
<path fill="none" stroke="midnightblue" d="M542.28,-112.08C537.11,-104.53 529.55,-93.49 523.2,-84.23"/>
<polygon fill="midnightblue" stroke="midnightblue" points="525.93,-82.02 517.39,-75.75 520.15,-85.98 525.93,-82.02"/>
</g>
<!-- Node10 -->
<g id="node10" class="node">
<title>Node10</title>
<g id="a_node10"><a xlink:title=" ">
<polygon fill="white" stroke="#bfbfbf" points="554.39,-56.5 554.39,-75.5 614.39,-75.5 614.39,-56.5 554.39,-56.5"/>
<text text-anchor="middle" x="584.39" y="-63.5" font-family="Helvetica,sans-Serif" font-size="10.00">iostream</text>
</a>
</g>
</g>
<!-- Node8&#45;&gt;Node10 -->
<g id="edge9" class="edge">
<title>Node8&#45;&gt;Node10</title>
<path fill="none" stroke="midnightblue" d="M554.34,-112.08C559.37,-104.53 566.73,-93.49 572.91,-84.23"/>
<polygon fill="midnightblue" stroke="midnightblue" points="575.92,-86.01 578.56,-75.75 570.1,-82.13 575.92,-86.01"/>
</g>
<!-- Node8&#45;&gt;Node11 -->
<g id="edge11" class="edge">
<title>Node8&#45;&gt;Node11</title>
<path fill="none" stroke="midnightblue" d="M595.61,-112.44C651.08,-102.39 742.59,-85.81 798.39,-75.7"/>
<polygon fill="midnightblue" stroke="midnightblue" points="799.16,-79.12 808.38,-73.89 797.91,-72.23 799.16,-79.12"/>
</g>
<!-- Node8&#45;&gt;Node13 -->
<g id="edge13" class="edge">
<title>Node8&#45;&gt;Node13</title>
<path fill="none" stroke="midnightblue" d="M609.53,-113.53C676.39,-105.25 786.97,-91.22 892.61,-76.08"/>
<polygon fill="midnightblue" stroke="midnightblue" points="893.42,-79.5 902.82,-74.61 892.42,-72.57 893.42,-79.5"/>
</g>
<!-- Node12 -->
<g id="node12" class="node">
<title>Node12</title>
<g id="a_node12"><a xlink:title=" ">
<polygon fill="white" stroke="#bfbfbf" points="819.89,-0.5 819.89,-19.5 872.89,-19.5 872.89,-0.5 819.89,-0.5"/>
<text text-anchor="middle" x="846.39" y="-7.5" font-family="Helvetica,sans-Serif" font-size="10.00">cstddef</text>
</a>
</g>
</g>
<!-- Node11&#45;&gt;Node12 -->
<g id="edge12" class="edge">
<title>Node11&#45;&gt;Node12</title>
<path fill="none" stroke="midnightblue" d="M846.39,-56.08C846.39,-49.01 846.39,-38.86 846.39,-29.99"/>
<polygon fill="midnightblue" stroke="midnightblue" points="849.89,-29.75 846.39,-19.75 842.89,-29.75 849.89,-29.75"/>
</g>
<!-- Node14&#45;&gt;Node8 -->
<g id="edge15" class="edge">
<title>Node14&#45;&gt;Node8</title>
<path fill="none" stroke="midnightblue" d="M624.77,-168.32C610.44,-159.82 588.38,-146.73 571.64,-136.8"/>
<polygon fill="midnightblue" stroke="midnightblue" points="573.36,-133.75 562.98,-131.65 569.79,-139.77 573.36,-133.75"/>
</g>
<!-- Node15&#45;&gt;Node6 -->
<g id="edge18" class="edge">
<title>Node15&#45;&gt;Node6</title>
<path fill="none" stroke="midnightblue" d="M91.35,-168.37C87.16,-150.62 77.48,-109.67 71.79,-85.6"/>
<polygon fill="midnightblue" stroke="midnightblue" points="75.13,-84.52 69.42,-75.59 68.32,-86.13 75.13,-84.52"/>
</g>
<!-- Node15&#45;&gt;Node8 -->
<g id="edge19" class="edge">
<title>Node15&#45;&gt;Node8</title>
<path fill="none" stroke="midnightblue" d="M165.24,-168.47C250.54,-158.35 391.95,-141.57 477.04,-131.47"/>
<polygon fill="midnightblue" stroke="midnightblue" points="477.61,-134.93 487.13,-130.27 476.79,-127.97 477.61,-134.93"/>
</g>
<!-- Node16 -->
<g id="node16" class="node">
<title>Node16</title>
<g id="a_node16"><a xlink:title=" ">
<polygon fill="white" stroke="#bfbfbf" points="95.39,-112.5 95.39,-131.5 143.39,-131.5 143.39,-112.5 95.39,-112.5"/>
<text text-anchor="middle" x="119.39" y="-119.5" font-family="Helvetica,sans-Serif" font-size="10.00">mutex</text>
</a>
</g>
</g>
<!-- Node15&#45;&gt;Node16 -->
<g id="edge17" class="edge">
<title>Node15&#45;&gt;Node16</title>
<path fill="none" stroke="midnightblue" d="M97.69,-168.08C101.24,-160.69 106.41,-149.95 110.82,-140.81"/>
<polygon fill="midnightblue" stroke="midnightblue" points="113.99,-142.28 115.18,-131.75 107.69,-139.24 113.99,-142.28"/>
</g>
<!-- Node17&#45;&gt;Node8 -->
<g id="edge21" class="edge">
<title>Node17&#45;&gt;Node8</title>
<path fill="none" stroke="midnightblue" d="M746.16,-168.44C705.33,-159.06 639.75,-143.99 595.41,-133.8"/>
<polygon fill="midnightblue" stroke="midnightblue" points="595.98,-130.34 585.45,-131.52 594.42,-137.17 595.98,-130.34"/>
</g>
<!-- Node18&#45;&gt;Node8 -->
<g id="edge23" class="edge">
<title>Node18&#45;&gt;Node8</title>
<path fill="none" stroke="midnightblue" d="M311.08,-168.44C360.68,-158.94 440.76,-143.61 493.98,-133.42"/>
<polygon fill="midnightblue" stroke="midnightblue" points="494.75,-136.83 503.92,-131.52 493.44,-129.96 494.75,-136.83"/>
</g>
<!-- Node19&#45;&gt;Node8 -->
<g id="edge25" class="edge">
<title>Node19&#45;&gt;Node8</title>
<path fill="none" stroke="midnightblue" d="M459.42,-168.32C476.42,-159.66 502.77,-146.24 522.38,-136.25"/>
<polygon fill="midnightblue" stroke="midnightblue" points="524.08,-139.31 531.4,-131.65 520.9,-133.08 524.08,-139.31"/>
</g>
</g>
</svg>
        <g id="navigator" transform="translate(0 0)" fill="#404254">
                <rect fill="#f2f5e9" fill-opacity="0.5" stroke="#606060" stroke-width=".5" x="0" y="0" width="60" height="60"/>
                <use id="zoomplus" xlink:href="#zoomPlus" x="17" y="9" onmousedown="handleZoom(evt,'in')"/>
                <use id="zoomminus" xlink:href="#zoomMin" x="42" y="9" onmousedown="handleZoom(evt,'out')"/>
                <use id="reset" xlink:href="#resetDef" x="30" y="36" onmousedown="handleReset()"/>
                <g id="arrowUp" xlink:href="#dirArrow" transform="translate(30 24)" onmousedown="handlePan(0,-1)">
                  <use xlink:href="#rim" fill="#404040">
                        <set attributeName="fill" to="#808080" begin="arrowUp.mouseover" end="arrowUp.mouseout"/>
                  </use>
                  <path fill="none" stroke="white" stroke-width="1.5" d="M0,-3.0v7 M-2.5,-0.5L0,-3.0L2.5,-0.5"/>
                </g>
                <g id="arrowRight" xlink:href="#dirArrow" transform="rotate(90) translate(36 -43)" onmousedown="handlePan(1,0)">
                  <use xlink:href="#rim" fill="#404040">
                        <set attributeName="fill" to="#808080" begin="arrowRight.mouseover" end="arrowRight.mouseout"/>
                  </use>
                  <path fill="none" stroke="white" stroke-width="1.5" d="M0,-3.0v7 M-2.5,-0.5L0,-3.0L2.5,-0.5"/>
                </g>
                <g id="arrowDown" xlink:href="#dirArrow" transform="rotate(180) translate(-30 -48)" onmousedown="handlePan(0,1)">
                  <use xlink:href="#rim" fill="#404040">
                        <set attributeName="fill" to="#808080" begin="arrowDown.mouseover" end="arrowDown.mouseout"/>
                  </use>
                  <path fill="none" stroke="white" stroke-width="1.5" d="M0,-3.0v7 M-2.5,-0.5L0,-3.0L2.5,-0.5"/>
                </g>
                <g id="arrowLeft" xlink:href="#dirArrow" transform="rotate(270) translate(-36 17)" onmousedown="handlePan(-1,0)">
                  <use xlink:href="#rim" fill="#404040">
                        <set attributeName="fill" to="#808080" begin="arrowLeft.mouseover" end="arrowLeft.mouseout"/>
                  </use>
                  <path fill="none" stroke="white" stroke-width="1.5" d="M0,-3.0v7 M-2.5,-0.5L0,-3.0L2.5,-0.5"/>
                </g>
        </g>
        <svg viewBox="0 0 15 15" width="100%" height="30px" preserveAspectRatio="xMaxYMin meet">
         <g id="arrow_out" transform="scale(0.3 0.3)">
          <a xlink:href="backend_8hpp__incl_org.svg" target="_base">
           <rect id="button" ry="5" rx="5" y="6" x="6" height="38" width="38"
                fill="#f2f5e9" fill-opacity="0.5" stroke="#606060" stroke-width="1.0"/>
           <path id="arrow"
             d="M 11.500037,31.436501 C 11.940474,20.09759 22.043105,11.32322 32.158766,21.979434 L 37.068811,17.246167 C 37.068811,17.246167 37.088388,32 37.088388,32 L 22.160133,31.978069 C 22.160133,31.978069 26.997745,27.140456 26.997745,27.140456 C 18.528582,18.264221 13.291696,25.230495 11.500037,31.436501 z"
             style="fill:#404040;"/>
          </a>
         </g>
        </svg>
</svg>
