<?xml version="1.0" encoding="UTF-8" standalone="no"?>
<!DOCTYPE svg PUBLIC "-//W3C//DTD SVG 1.1//EN"
 "http://www.w3.org/Graphics/SVG/1.1/DTD/svg11.dtd">
<!-- Generated by graphviz version 2.43.0 (0)
 -->
<!-- Title: argo::backend::reset_coherence Pages: 1 -->
<!--zoomable 242 -->
<svg id="main" version="1.1" xmlns="http://www.w3.org/2000/svg" xmlns:xlink="http://www.w3.org/1999/xlink" xml:space="preserve" onload="init(evt)">
<style type="text/css"><![CDATA[
.edge:hover path { stroke: red; }
.edge:hover polygon { stroke: red; fill: red; }
]]></style>
<script type="text/javascript"><![CDATA[
var edges = document.getElementsByTagName('g');
if (edges && edges.length) {
  for (var i=0;i<edges.length;i++) {
    if (edges[i].id.substr(0,4)=='edge') {
      edges[i].setAttribute('class','edge');
    }
  }
}
]]></script>
        <defs>
                <circle id="rim" cx="0" cy="0" r="7"/>
                <circle id="rim2" cx="0" cy="0" r="3.5"/>
                <g id="zoomPlus">
                        <use xlink:href="#rim" fill="#404040">
                                <set attributeName="fill" to="#808080" begin="zoomplus.mouseover" end="zoomplus.mouseout"/>
                        </use>
                        <path d="M-4,0h8M0,-4v8" fill="none" stroke="white" stroke-width="1.5" pointer-events="none"/>
                </g>
                <g id="zoomMin">
                        <use xlink:href="#rim" fill="#404040">
                                <set attributeName="fill" to="#808080" begin="zoomminus.mouseover" end="zoomminus.mouseout"/>
                        </use>
                        <path d="M-4,0h8" fill="none" stroke="white" stroke-width="1.5" pointer-events="none"/>
                </g>
                <g id="dirArrow">
                        <path fill="none" stroke="white" stroke-width="1.5" d="M0,-3.0v7 M-2.5,-0.5L0,-3.0L2.5,-0.5"/>
                </g>
               <g id="resetDef">
                       <use xlink:href="#rim2" fill="#404040">
                               <set attributeName="fill" to="#808080" begin="reset.mouseover" end="reset.mouseout"/>
                       </use>
               </g>
        </defs>

<script type="text/javascript">
var viewWidth = 773;
var viewHeight = 242;
var sectionId = 'dynsection-0';
</script>
<script xlink:href="svgpan.js"/>
<svg id="graph" class="graph">
<g id="viewport">
<title>argo::backend::reset_coherence</title>
<polygon fill="white" stroke="transparent" points="-4,4 -4,-237.5 769,-237.5 769,4 -4,4"/>
<!-- Node1 -->
<g id="node1" class="node">
<title>Node1</title>
<g id="a_node1"><a xlink:title="Resets current ArgoDSM coherence.">
<polygon fill="#bfbfbf" stroke="black" points="0,-104.5 0,-134.5 116,-134.5 116,-104.5 0,-104.5"/>
<text text-anchor="start" x="8" y="-122.5" font-family="Helvetica,sans-Serif" font-size="10.00">argo::backend::reset</text>
<text text-anchor="middle" x="58" y="-111.5" font-family="Helvetica,sans-Serif" font-size="10.00">_coherence</text>
</a>
</g>
</g>
<!-- Node1&#45;&gt;Node1 -->
<g id="edge19" class="edge">
<title>Node1&#45;&gt;Node1</title>
<path fill="none" stroke="midnightblue" d="M30.81,-134.66C24.26,-144.06 33.32,-153 58,-153 73.04,-153 82.28,-149.68 85.72,-144.96"/>
<polygon fill="midnightblue" stroke="midnightblue" points="89.2,-144.46 85.19,-134.66 82.21,-144.83 89.2,-144.46"/>
</g>
<!-- Node2 -->
<g id="node2" class="node">
<title>Node2</title>
<g id="a_node2"><a xlink:href="swdsm_8cpp_adb17e929b24ae3fd6898035fce958122.html#adb17e929b24ae3fd6898035fce958122" target="_top" xlink:title="Resets current ArgoDSM coherence.">
<polygon fill="white" stroke="black" points="152,-110 152,-129 276,-129 276,-110 152,-110"/>
<text text-anchor="middle" x="214" y="-117" font-family="Helvetica,sans-Serif" font-size="10.00">argo_reset_coherence</text>
</a>
</g>
</g>
<!-- Node1&#45;&gt;Node2 -->
<g id="edge1" class="edge">
<title>Node1&#45;&gt;Node2</title>
<path fill="none" stroke="midnightblue" d="M116.34,-119.5C124.7,-119.5 133.39,-119.5 141.98,-119.5"/>
<polygon fill="midnightblue" stroke="midnightblue" points="142,-123 152,-119.5 142,-116 142,-123"/>
</g>
<!-- Node3 -->
<g id="node3" class="node">
<title>Node3</title>
<g id="a_node3"><a xlink:href="swdsm_8cpp_aef8dea0c8e31701818a5017a5ff20223.html#aef8dea0c8e31701818a5017a5ff20223" target="_top" xlink:title="Resets all ArgoDSM statistics.">
<polygon fill="white" stroke="black" points="326.5,-176 326.5,-195 424.5,-195 424.5,-176 326.5,-176"/>
<text text-anchor="middle" x="375.5" y="-183" font-family="Helvetica,sans-Serif" font-size="10.00">argo_reset_stats</text>
</a>
</g>
</g>
<!-- Node2&#45;&gt;Node3 -->
<g id="edge2" class="edge">
<title>Node2&#45;&gt;Node3</title>
<path fill="none" stroke="midnightblue" d="M232.51,-129.01C251.65,-139.17 283.42,-155.31 312,-166.5 317.82,-168.78 324.03,-170.96 330.2,-172.97"/>
<polygon fill="midnightblue" stroke="midnightblue" points="329.19,-176.33 339.78,-176 331.3,-169.65 329.19,-176.33"/>
</g>
<!-- Node7 -->
<g id="node7" class="node">
<title>Node7</title>
<g id="a_node7"><a xlink:href="namespaceargo_1_1data__distribution_a58576657391f45caf61bf0748a23b098.html#a58576657391f45caf61bf0748a23b098" target="_top" xlink:title="identifies if we distribute data using the first&#45;touch memory policy">
<polygon fill="white" stroke="black" points="312,-126.5 312,-156.5 439,-156.5 439,-126.5 312,-126.5"/>
<text text-anchor="start" x="320" y="-144.5" font-family="Helvetica,sans-Serif" font-size="10.00">argo::data_distribution</text>
<text text-anchor="middle" x="375.5" y="-133.5" font-family="Helvetica,sans-Serif" font-size="10.00">::is_first_touch_policy</text>
</a>
</g>
</g>
<!-- Node2&#45;&gt;Node7 -->
<g id="edge6" class="edge">
<title>Node2&#45;&gt;Node7</title>
<path fill="none" stroke="midnightblue" d="M276.21,-127.94C284.61,-129.1 293.3,-130.3 301.87,-131.48"/>
<polygon fill="midnightblue" stroke="midnightblue" points="301.48,-134.96 311.87,-132.86 302.44,-128.03 301.48,-134.96"/>
</g>
<!-- Node9 -->
<g id="node9" class="node">
<title>Node9</title>
<g id="a_node9"><a xlink:href="swdsm_8cpp_a2a2d9247bd62413b221876836b39dafb.html#a2a2d9247bd62413b221876836b39dafb" target="_top" xlink:title="Locks the correct mpi_lock_sharer, performs operation op and then unlocks the locked mpi_lock_sharer.">
<polygon fill="white" stroke="black" points="508,-88 508,-107 573,-107 573,-88 508,-88"/>
<text text-anchor="middle" x="540.5" y="-95" font-family="Helvetica,sans-Serif" font-size="10.00">sharer_op</text>
</a>
</g>
</g>
<!-- Node2&#45;&gt;Node9 -->
<g id="edge8" class="edge">
<title>Node2&#45;&gt;Node9</title>
<path fill="none" stroke="midnightblue" d="M276.04,-115.36C340.71,-110.98 441.12,-104.17 497.47,-100.35"/>
<polygon fill="midnightblue" stroke="midnightblue" points="498.05,-103.82 507.79,-99.65 497.58,-96.83 498.05,-103.82"/>
</g>
<!-- Node13 -->
<g id="node13" class="node">
<title>Node13</title>
<g id="a_node13"><a xlink:href="swdsm_8cpp_aca8a35703563223a3e182ebc897e2b40.html#aca8a35703563223a3e182ebc897e2b40" target="_top" xlink:title="Global barrier for ArgoDSM &#45; needs to be called by every thread in the system that need coherent view...">
<polygon fill="white" stroke="black" points="317.5,-50 317.5,-69 433.5,-69 433.5,-50 317.5,-50"/>
<text text-anchor="middle" x="375.5" y="-57" font-family="Helvetica,sans-Serif" font-size="10.00">swdsm_argo_barrier</text>
</a>
</g>
</g>
<!-- Node2&#45;&gt;Node13 -->
<g id="edge12" class="edge">
<title>Node2&#45;&gt;Node13</title>
<path fill="none" stroke="midnightblue" d="M240.27,-109.99C267.03,-99.93 309.45,-83.97 339.43,-72.69"/>
<polygon fill="midnightblue" stroke="midnightblue" points="340.95,-75.86 349.08,-69.06 338.49,-69.31 340.95,-75.86"/>
</g>
<!-- Node4 -->
<g id="node4" class="node">
<title>Node4</title>
<g id="a_node4"><a xlink:href="classmpi__lock_a79f6b3dc2765ee9189e33fbaf6b46ade.html#a79f6b3dc2765ee9189e33fbaf6b46ade" target="_top" xlink:title="reset the timekeeping statistics">
<polygon fill="white" stroke="black" points="480,-214 480,-233 601,-233 601,-214 480,-214"/>
<text text-anchor="middle" x="540.5" y="-221" font-family="Helvetica,sans-Serif" font-size="10.00">mpi_lock::reset_stats</text>
</a>
</g>
</g>
<!-- Node3&#45;&gt;Node4 -->
<g id="edge3" class="edge">
<title>Node3&#45;&gt;Node4</title>
<path fill="none" stroke="midnightblue" d="M417.63,-195.09C439.24,-200.13 465.91,-206.34 488.79,-211.68"/>
<polygon fill="midnightblue" stroke="midnightblue" points="488.13,-215.12 498.66,-213.98 489.72,-208.3 488.13,-215.12"/>
</g>
<!-- Node5 -->
<g id="node5" class="node">
<title>Node5</title>
<g id="a_node5"><a xlink:href="classcache__lock_afecdbd6c7a1eb2e109b55bb90d44a6cb.html#afecdbd6c7a1eb2e109b55bb90d44a6cb" target="_top" xlink:title="Clear all recorded statistics.">
<polygon fill="white" stroke="black" points="475,-176 475,-195 606,-195 606,-176 475,-176"/>
<text text-anchor="middle" x="540.5" y="-183" font-family="Helvetica,sans-Serif" font-size="10.00">cache_lock::reset_stats</text>
</a>
</g>
</g>
<!-- Node3&#45;&gt;Node5 -->
<g id="edge4" class="edge">
<title>Node3&#45;&gt;Node5</title>
<path fill="none" stroke="midnightblue" d="M424.52,-185.5C437.1,-185.5 450.95,-185.5 464.57,-185.5"/>
<polygon fill="midnightblue" stroke="midnightblue" points="464.9,-189 474.9,-185.5 464.9,-182 464.9,-189"/>
</g>
<!-- Node6 -->
<g id="node6" class="node">
<title>Node6</title>
<g id="a_node6"><a xlink:href="classcache__lock_a3a26cac78d1ee17663b7407b7599a9c0.html#a3a26cac78d1ee17663b7407b7599a9c0" target="_top" xlink:title="Acquire a cache lock.">
<polygon fill="white" stroke="black" points="655,-176 655,-195 752,-195 752,-176 655,-176"/>
<text text-anchor="middle" x="703.5" y="-183" font-family="Helvetica,sans-Serif" font-size="10.00">cache_lock::lock</text>
</a>
</g>
</g>
<!-- Node5&#45;&gt;Node6 -->
<g id="edge5" class="edge">
<title>Node5&#45;&gt;Node6</title>
<path fill="none" stroke="midnightblue" d="M606.06,-185.5C618.77,-185.5 632.03,-185.5 644.51,-185.5"/>
<polygon fill="midnightblue" stroke="midnightblue" points="644.78,-189 654.78,-185.5 644.78,-182 644.78,-189"/>
</g>
<!-- Node8 -->
<g id="node8" class="node">
<title>Node8</title>
<g id="a_node8"><a xlink:href="namespaceargo_1_1env_a25a08cb2d0d11432d640ec7173063339.html#a25a08cb2d0d11432d640ec7173063339" target="_top" xlink:title="get the allocation policy requested by environment variable">
<polygon fill="white" stroke="black" points="482.5,-126.5 482.5,-156.5 598.5,-156.5 598.5,-126.5 482.5,-126.5"/>
<text text-anchor="start" x="490.5" y="-144.5" font-family="Helvetica,sans-Serif" font-size="10.00">argo::env::allocation</text>
<text text-anchor="middle" x="540.5" y="-133.5" font-family="Helvetica,sans-Serif" font-size="10.00">_policy</text>
</a>
</g>
</g>
<!-- Node7&#45;&gt;Node8 -->
<g id="edge7" class="edge">
<title>Node7&#45;&gt;Node8</title>
<path fill="none" stroke="midnightblue" d="M439.05,-141.5C449.98,-141.5 461.39,-141.5 472.44,-141.5"/>
<polygon fill="midnightblue" stroke="midnightblue" points="472.45,-145 482.45,-141.5 472.45,-138 472.45,-145"/>
</g>
<!-- Node10 -->
<g id="node10" class="node">
<title>Node10</title>
<g id="a_node10"><a xlink:href="swdsm_8cpp_a7d0d0386804df222465aaa199aab92da.html#a7d0d0386804df222465aaa199aab92da" target="_top" xlink:title="Gets the sharer window index based on the classification index.">
<polygon fill="white" stroke="black" points="642,-126 642,-145 765,-145 765,-126 642,-126"/>
<text text-anchor="middle" x="703.5" y="-133" font-family="Helvetica,sans-Serif" font-size="10.00">get_sharer_win_index</text>
</a>
</g>
</g>
<!-- Node9&#45;&gt;Node10 -->
<g id="edge9" class="edge">
<title>Node9&#45;&gt;Node10</title>
<path fill="none" stroke="midnightblue" d="M573.31,-105.01C595.8,-110.32 626.41,-117.54 652.19,-123.63"/>
<polygon fill="midnightblue" stroke="midnightblue" points="651.64,-127.09 662.17,-125.98 653.25,-120.28 651.64,-127.09"/>
</g>
<!-- Node11 -->
<g id="node11" class="node">
<title>Node11</title>
<g id="a_node11"><a xlink:href="classmpi__lock_a67301b26c3bb28c746e164c9f531d21d.html#a67301b26c3bb28c746e164c9f531d21d" target="_top" xlink:title="acquire mpi_lock">
<polygon fill="white" stroke="black" points="660,-88 660,-107 747,-107 747,-88 660,-88"/>
<text text-anchor="middle" x="703.5" y="-95" font-family="Helvetica,sans-Serif" font-size="10.00">mpi_lock::lock</text>
</a>
</g>
</g>
<!-- Node9&#45;&gt;Node11 -->
<g id="edge10" class="edge">
<title>Node9&#45;&gt;Node11</title>
<path fill="none" stroke="midnightblue" d="M573.31,-97.5C595.06,-97.5 624.4,-97.5 649.62,-97.5"/>
<polygon fill="midnightblue" stroke="midnightblue" points="649.78,-101 659.78,-97.5 649.78,-94 649.78,-101"/>
</g>
<!-- Node12 -->
<g id="node12" class="node">
<title>Node12</title>
<g id="a_node12"><a xlink:href="classmpi__lock_a38cb3649cba54a2818810c444a8b475a.html#a38cb3649cba54a2818810c444a8b475a" target="_top" xlink:title="release mpi_lock">
<polygon fill="white" stroke="black" points="654,-50 654,-69 753,-69 753,-50 654,-50"/>
<text text-anchor="middle" x="703.5" y="-57" font-family="Helvetica,sans-Serif" font-size="10.00">mpi_lock::unlock</text>
</a>
</g>
</g>
<!-- Node9&#45;&gt;Node12 -->
<g id="edge11" class="edge">
<title>Node9&#45;&gt;Node12</title>
<path fill="none" stroke="midnightblue" d="M573.31,-89.99C595.8,-84.68 626.41,-77.46 652.19,-71.37"/>
<polygon fill="midnightblue" stroke="midnightblue" points="653.25,-74.72 662.17,-69.02 651.64,-67.91 653.25,-74.72"/>
</g>
<!-- Node14 -->
<g id="node14" class="node">
<title>Node14</title>
<g id="a_node14"><a xlink:href="swdsm_8cpp_af056be0ae2712fab13fc590d64ef2597.html#af056be0ae2712fab13fc590d64ef2597" target="_top" xlink:title="Gives number of ArgoDSM nodes.">
<polygon fill="white" stroke="black" points="493.5,-12 493.5,-31 587.5,-31 587.5,-12 493.5,-12"/>
<text text-anchor="middle" x="540.5" y="-19" font-family="Helvetica,sans-Serif" font-size="10.00">argo_get_nodes</text>
</a>
</g>
</g>
<!-- Node13&#45;&gt;Node14 -->
<g id="edge13" class="edge">
<title>Node13&#45;&gt;Node14</title>
<path fill="none" stroke="midnightblue" d="M417.63,-49.91C439.24,-44.87 465.91,-38.66 488.79,-33.32"/>
<polygon fill="midnightblue" stroke="midnightblue" points="489.72,-36.7 498.66,-31.02 488.13,-29.88 489.72,-36.7"/>
</g>
<!-- Node15 -->
<g id="node15" class="node">
<title>Node15</title>
<g id="a_node15"><a xlink:href="swdsm_8cpp_aa7c3a2de6bbafdaf68fe6ceb6110ab97.html#aa7c3a2de6bbafdaf68fe6ceb6110ab97" target="_top" xlink:title="Self&#45;Invalidates all memory that has potential writers.">
<polygon fill="white" stroke="black" points="491.5,-50 491.5,-69 589.5,-69 589.5,-50 491.5,-50"/>
<text text-anchor="middle" x="540.5" y="-57" font-family="Helvetica,sans-Serif" font-size="10.00">self_invalidation</text>
</a>
</g>
</g>
<!-- Node13&#45;&gt;Node15 -->
<g id="edge14" class="edge">
<title>Node13&#45;&gt;Node15</title>
<path fill="none" stroke="midnightblue" d="M433.51,-59.5C449.02,-59.5 465.84,-59.5 481.41,-59.5"/>
<polygon fill="midnightblue" stroke="midnightblue" points="481.44,-63 491.44,-59.5 481.44,-56 481.44,-63"/>
</g>
<!-- Node15&#45;&gt;Node10 -->
<g id="edge16" class="edge">
<title>Node15&#45;&gt;Node10</title>
<path fill="none" stroke="midnightblue" d="M585.51,-69.07C592.64,-71.56 599.73,-74.66 606,-78.5 625.84,-90.65 622.27,-104.17 642,-116.5 645.37,-118.61 648.99,-120.49 652.73,-122.19"/>
<polygon fill="midnightblue" stroke="midnightblue" points="651.59,-125.5 662.17,-126 654.21,-119.01 651.59,-125.5"/>
</g>
<!-- Node15&#45;&gt;Node11 -->
<g id="edge17" class="edge">
<title>Node15&#45;&gt;Node11</title>
<path fill="none" stroke="midnightblue" d="M582.13,-69.09C603.47,-74.13 629.81,-80.34 652.41,-85.68"/>
<polygon fill="midnightblue" stroke="midnightblue" points="651.63,-89.09 662.17,-87.98 653.24,-82.28 651.63,-89.09"/>
</g>
<!-- Node15&#45;&gt;Node12 -->
<g id="edge18" class="edge">
<title>Node15&#45;&gt;Node12</title>
<path fill="none" stroke="midnightblue" d="M589.81,-59.5C606.76,-59.5 626,-59.5 643.72,-59.5"/>
<polygon fill="midnightblue" stroke="midnightblue" points="643.95,-63 653.95,-59.5 643.95,-56 643.95,-63"/>
</g>
<!-- Node16 -->
<g id="node16" class="node">
<title>Node16</title>
<g id="a_node16"><a xlink:href="swdsm_8cpp_aff9ea7ba7f37206d933c8dc8004dbc7b.html#aff9ea7ba7f37206d933c8dc8004dbc7b" target="_top" xlink:title="Gives an index to the sharer/writer vector depending on the address.">
<polygon fill="white" stroke="black" points="653,-0.5 653,-30.5 754,-30.5 754,-0.5 653,-0.5"/>
<text text-anchor="start" x="661" y="-18.5" font-family="Helvetica,sans-Serif" font-size="10.00">get_classification</text>
<text text-anchor="middle" x="703.5" y="-7.5" font-family="Helvetica,sans-Serif" font-size="10.00">_index</text>
</a>
</g>
</g>
<!-- Node15&#45;&gt;Node16 -->
<g id="edge15" class="edge">
<title>Node15&#45;&gt;Node16</title>
<path fill="none" stroke="midnightblue" d="M576.43,-49.95C595.93,-44.62 620.74,-37.84 643.19,-31.71"/>
<polygon fill="midnightblue" stroke="midnightblue" points="644.25,-35.05 652.97,-29.04 642.4,-28.3 644.25,-35.05"/>
</g>
</g>
</svg>
        <g id="navigator" transform="translate(0 0)" fill="#404254">
                <rect fill="#f2f5e9" fill-opacity="0.5" stroke="#606060" stroke-width=".5" x="0" y="0" width="60" height="60"/>
                <use id="zoomplus" xlink:href="#zoomPlus" x="17" y="9" onmousedown="handleZoom(evt,'in')"/>
                <use id="zoomminus" xlink:href="#zoomMin" x="42" y="9" onmousedown="handleZoom(evt,'out')"/>
                <use id="reset" xlink:href="#resetDef" x="30" y="36" onmousedown="handleReset()"/>
                <g id="arrowUp" xlink:href="#dirArrow" transform="translate(30 24)" onmousedown="handlePan(0,-1)">
                  <use xlink:href="#rim" fill="#404040">
                        <set attributeName="fill" to="#808080" begin="arrowUp.mouseover" end="arrowUp.mouseout"/>
                  </use>
                  <path fill="none" stroke="white" stroke-width="1.5" d="M0,-3.0v7 M-2.5,-0.5L0,-3.0L2.5,-0.5"/>
                </g>
                <g id="arrowRight" xlink:href="#dirArrow" transform="rotate(90) translate(36 -43)" onmousedown="handlePan(1,0)">
                  <use xlink:href="#rim" fill="#404040">
                        <set attributeName="fill" to="#808080" begin="arrowRight.mouseover" end="arrowRight.mouseout"/>
                  </use>
                  <path fill="none" stroke="white" stroke-width="1.5" d="M0,-3.0v7 M-2.5,-0.5L0,-3.0L2.5,-0.5"/>
                </g>
                <g id="arrowDown" xlink:href="#dirArrow" transform="rotate(180) translate(-30 -48)" onmousedown="handlePan(0,1)">
                  <use xlink:href="#rim" fill="#404040">
                        <set attributeName="fill" to="#808080" begin="arrowDown.mouseover" end="arrowDown.mouseout"/>
                  </use>
                  <path fill="none" stroke="white" stroke-width="1.5" d="M0,-3.0v7 M-2.5,-0.5L0,-3.0L2.5,-0.5"/>
                </g>
                <g id="arrowLeft" xlink:href="#dirArrow" transform="rotate(270) translate(-36 17)" onmousedown="handlePan(-1,0)">
                  <use xlink:href="#rim" fill="#404040">
                        <set attributeName="fill" to="#808080" begin="arrowLeft.mouseover" end="arrowLeft.mouseout"/>
                  </use>
                  <path fill="none" stroke="white" stroke-width="1.5" d="M0,-3.0v7 M-2.5,-0.5L0,-3.0L2.5,-0.5"/>
                </g>
        </g>
        <svg viewBox="0 0 15 15" width="100%" height="30px" preserveAspectRatio="xMaxYMin meet">
         <g id="arrow_out" transform="scale(0.3 0.3)">
          <a xlink:href="backend_8hpp_acb57f009ad65913e26147c6813eda04e_acb57f009ad65913e26147c6813eda04e_cgraph_org.svg" target="_base">
           <rect id="button" ry="5" rx="5" y="6" x="6" height="38" width="38"
                fill="#f2f5e9" fill-opacity="0.5" stroke="#606060" stroke-width="1.0"/>
           <path id="arrow"
             d="M 11.500037,31.436501 C 11.940474,20.09759 22.043105,11.32322 32.158766,21.979434 L 37.068811,17.246167 C 37.068811,17.246167 37.088388,32 37.088388,32 L 22.160133,31.978069 C 22.160133,31.978069 26.997745,27.140456 26.997745,27.140456 C 18.528582,18.264221 13.291696,25.230495 11.500037,31.436501 z"
             style="fill:#404040;"/>
          </a>
         </g>
        </svg>
</svg>
