<?xml version="1.0" encoding="UTF-8" standalone="no"?>
<!DOCTYPE svg PUBLIC "-//W3C//DTD SVG 1.1//EN"
 "http://www.w3.org/Graphics/SVG/1.1/DTD/svg11.dtd">
<!-- Generated by graphviz version 2.43.0 (0)
 -->
<!-- Title: TEST_F Pages: 1 -->
<svg width="700pt" height="138pt"
 viewBox="0.00 0.00 700.00 138.49" xmlns="http://www.w3.org/2000/svg" xmlns:xlink="http://www.w3.org/1999/xlink">
<g id="graph0" class="graph" transform="scale(1 1) rotate(0) translate(4 134.49)">
<title>TEST_F</title>
<polygon fill="white" stroke="transparent" points="-4,4 -4,-134.49 696,-134.49 696,4 -4,4"/>
<!-- Node1 -->
<g id="node1" class="node">
<title>Node1</title>
<g id="a_node1"><a xlink:title="Unittest that checks that pages that have been upgraded and subsequently written correctly transition...">
<polygon fill="#bfbfbf" stroke="black" points="0,-60.5 0,-79.5 52,-79.5 52,-60.5 0,-60.5"/>
<text text-anchor="middle" x="26" y="-67.5" font-family="Helvetica,sans-Serif" font-size="10.00">TEST_F</text>
</a>
</g>
</g>
<!-- Node2 -->
<g id="node2" class="node">
<title>Node2</title>
<g id="a_node2"><a xlink:href="namespaceargo_a10bae1e1e60ff583384b937201a87c29.html#a10bae1e1e60ff583384b937201a87c29" target="_top" xlink:title="a barrier for ArgoDSM nodes">
<polygon fill="white" stroke="black" points="273,-104.5 273,-123.5 350,-123.5 350,-104.5 273,-104.5"/>
<text text-anchor="middle" x="311.5" y="-111.5" font-family="Helvetica,sans-Serif" font-size="10.00">argo::barrier</text>
</a>
</g>
</g>
<!-- Node1&#45;&gt;Node2 -->
<g id="edge1" class="edge">
<title>Node1&#45;&gt;Node2</title>
<path fill="none" stroke="midnightblue" d="M35.74,-79.87C46.65,-91.35 66.49,-109.67 88,-117 145.63,-136.63 216.62,-130.95 262.68,-123.69"/>
<polygon fill="midnightblue" stroke="midnightblue" points="263.4,-127.12 272.69,-122.03 262.25,-120.21 263.4,-127.12"/>
</g>
<!-- Node3 -->
<g id="node3" class="node">
<title>Node3</title>
<g id="a_node3"><a xlink:href="namespaceargo_a3c2fd778eb27bc574391f2ab515abe81.html#a3c2fd778eb27bc574391f2ab515abe81" target="_top" xlink:title="a barrier for ArgoDSM nodes">
<polygon fill="white" stroke="black" points="88,-77 88,-107 210,-107 210,-77 88,-77"/>
<text text-anchor="start" x="96" y="-95" font-family="Helvetica,sans-Serif" font-size="10.00">argo::barrier_upgrade</text>
<text text-anchor="middle" x="149" y="-84" font-family="Helvetica,sans-Serif" font-size="10.00">_writers</text>
</a>
</g>
</g>
<!-- Node1&#45;&gt;Node3 -->
<g id="edge2" class="edge">
<title>Node1&#45;&gt;Node3</title>
<path fill="none" stroke="midnightblue" d="M52.07,-74.56C59.75,-75.95 68.6,-77.56 77.76,-79.23"/>
<polygon fill="midnightblue" stroke="midnightblue" points="77.31,-82.7 87.77,-81.05 78.56,-75.82 77.31,-82.7"/>
</g>
<!-- Node4 -->
<g id="node4" class="node">
<title>Node4</title>
<g id="a_node4"><a xlink:href="namespaceargo_ab1d1a73e110d3631588ee61d1dd36002.html#ab1d1a73e110d3631588ee61d1dd36002" target="_top" xlink:title="Get the ArgoDSM node id where addr is physically backed.">
<polygon fill="white" stroke="black" points="90.5,-38.5 90.5,-57.5 207.5,-57.5 207.5,-38.5 90.5,-38.5"/>
<text text-anchor="middle" x="149" y="-45.5" font-family="Helvetica,sans-Serif" font-size="10.00">argo::get_homenode</text>
</a>
</g>
</g>
<!-- Node1&#45;&gt;Node4 -->
<g id="edge4" class="edge">
<title>Node1&#45;&gt;Node4</title>
<path fill="none" stroke="midnightblue" d="M52.07,-65.44C61.91,-63.65 73.69,-61.51 85.56,-59.35"/>
<polygon fill="midnightblue" stroke="midnightblue" points="86.31,-62.77 95.52,-57.54 85.05,-55.89 86.31,-62.77"/>
</g>
<!-- Node8 -->
<g id="node8" class="node">
<title>Node8</title>
<g id="a_node8"><a xlink:href="namespaceargo_a188a4648d6e7549bcef4cee36dcb5336.html#a188a4648d6e7549bcef4cee36dcb5336" target="_top" xlink:title="A unique ArgoDSM node identifier. Counting starts from 0.">
<polygon fill="white" stroke="black" points="107.5,-0.5 107.5,-19.5 190.5,-19.5 190.5,-0.5 107.5,-0.5"/>
<text text-anchor="middle" x="149" y="-7.5" font-family="Helvetica,sans-Serif" font-size="10.00">argo::node_id</text>
</a>
</g>
</g>
<!-- Node1&#45;&gt;Node8 -->
<g id="edge8" class="edge">
<title>Node1&#45;&gt;Node8</title>
<path fill="none" stroke="midnightblue" d="M38.99,-60.42C50.86,-51.32 69.84,-37.76 88,-29 92.62,-26.77 97.56,-24.72 102.55,-22.86"/>
<polygon fill="midnightblue" stroke="midnightblue" points="103.85,-26.12 112.13,-19.52 101.54,-19.51 103.85,-26.12"/>
</g>
<!-- Node3&#45;&gt;Node2 -->
<g id="edge3" class="edge">
<title>Node3&#45;&gt;Node2</title>
<path fill="none" stroke="midnightblue" d="M210.22,-100.25C227.61,-102.64 246.33,-105.2 262.84,-107.47"/>
<polygon fill="midnightblue" stroke="midnightblue" points="262.41,-110.94 272.8,-108.83 263.36,-104.01 262.41,-110.94"/>
</g>
<!-- Node5 -->
<g id="node5" class="node">
<title>Node5</title>
<g id="a_node5"><a xlink:href="classargo_1_1data__distribution_1_1global__ptr_a3e2cdd4d323ef91174615e27ab94e342.html#a3e2cdd4d323ef91174615e27ab94e342" target="_top" xlink:title="return the home node of the value pointed to, or a default value if the page has not yet been first&#45;t...">
<polygon fill="white" stroke="black" points="246,-33 246,-63 377,-63 377,-33 246,-33"/>
<text text-anchor="start" x="254" y="-51" font-family="Helvetica,sans-Serif" font-size="10.00">argo::data_distribution</text>
<text text-anchor="middle" x="311.5" y="-40" font-family="Helvetica,sans-Serif" font-size="10.00">::global_ptr::peek_node</text>
</a>
</g>
</g>
<!-- Node4&#45;&gt;Node5 -->
<g id="edge5" class="edge">
<title>Node4&#45;&gt;Node5</title>
<path fill="none" stroke="midnightblue" d="M207.94,-48C216.98,-48 226.42,-48 235.76,-48"/>
<polygon fill="midnightblue" stroke="midnightblue" points="235.84,-51.5 245.84,-48 235.84,-44.5 235.84,-51.5"/>
</g>
<!-- Node6 -->
<g id="node6" class="node">
<title>Node6</title>
<g id="a_node6"><a xlink:href="classargo_1_1data__distribution_1_1global__ptr_ae4353680349f6abbd2cf262dace8e2f2.html#ae4353680349f6abbd2cf262dace8e2f2" target="_top" xlink:title="return a pointer to the selected allocation policy">
<polygon fill="white" stroke="black" points="413,-33 413,-63 540,-63 540,-33 413,-33"/>
<text text-anchor="start" x="421" y="-51" font-family="Helvetica,sans-Serif" font-size="10.00">argo::data_distribution</text>
<text text-anchor="middle" x="476.5" y="-40" font-family="Helvetica,sans-Serif" font-size="10.00">::global_ptr::policy</text>
</a>
</g>
</g>
<!-- Node5&#45;&gt;Node6 -->
<g id="edge6" class="edge">
<title>Node5&#45;&gt;Node6</title>
<path fill="none" stroke="midnightblue" d="M377.39,-48C385.72,-48 394.3,-48 402.74,-48"/>
<polygon fill="midnightblue" stroke="midnightblue" points="402.96,-51.5 412.96,-48 402.96,-44.5 402.96,-51.5"/>
</g>
<!-- Node7 -->
<g id="node7" class="node">
<title>Node7</title>
<g id="a_node7"><a xlink:href="namespaceargo_1_1env_a25a08cb2d0d11432d640ec7173063339.html#a25a08cb2d0d11432d640ec7173063339" target="_top" xlink:title="get the allocation policy requested by environment variable">
<polygon fill="white" stroke="black" points="576,-33 576,-63 692,-63 692,-33 576,-33"/>
<text text-anchor="start" x="584" y="-51" font-family="Helvetica,sans-Serif" font-size="10.00">argo::env::allocation</text>
<text text-anchor="middle" x="634" y="-40" font-family="Helvetica,sans-Serif" font-size="10.00">_policy</text>
</a>
</g>
</g>
<!-- Node6&#45;&gt;Node7 -->
<g id="edge7" class="edge">
<title>Node6&#45;&gt;Node7</title>
<path fill="none" stroke="midnightblue" d="M540.3,-48C548.69,-48 557.32,-48 565.78,-48"/>
<polygon fill="midnightblue" stroke="midnightblue" points="565.99,-51.5 575.99,-48 565.99,-44.5 565.99,-51.5"/>
</g>
</g>
</svg>
