<?xml version="1.0" encoding="UTF-8" standalone="no"?>
<!DOCTYPE svg PUBLIC "-//W3C//DTD SVG 1.1//EN"
 "http://www.w3.org/Graphics/SVG/1.1/DTD/svg11.dtd">
<!-- Generated by graphviz version 2.43.0 (0)
 -->
<!-- Title: TEST_F Pages: 1 -->
<svg width="331pt" height="94pt"
 viewBox="0.00 0.00 331.00 94.00" xmlns="http://www.w3.org/2000/svg" xmlns:xlink="http://www.w3.org/1999/xlink">
<g id="graph0" class="graph" transform="scale(1 1) rotate(0) translate(4 90)">
<title>TEST_F</title>
<polygon fill="white" stroke="transparent" points="-4,4 -4,-90 327,-90 327,4 -4,4"/>
<!-- Node1 -->
<g id="node1" class="node">
<title>Node1</title>
<g id="a_node1"><a xlink:title="Unittest that checks that pages that have been written transition from S/SW to S following an upgrade...">
<polygon fill="#bfbfbf" stroke="black" points="0,-44.5 0,-63.5 52,-63.5 52,-44.5 0,-44.5"/>
<text text-anchor="middle" x="26" y="-51.5" font-family="Helvetica,sans-Serif" font-size="10.00">TEST_F</text>
</a>
</g>
</g>
<!-- Node2 -->
<g id="node2" class="node">
<title>Node2</title>
<g id="a_node2"><a xlink:href="namespaceargo_a10bae1e1e60ff583384b937201a87c29.html#a10bae1e1e60ff583384b937201a87c29" target="_top" xlink:title="a barrier for ArgoDSM nodes">
<polygon fill="white" stroke="black" points="246,-66.5 246,-85.5 323,-85.5 323,-66.5 246,-66.5"/>
<text text-anchor="middle" x="284.5" y="-73.5" font-family="Helvetica,sans-Serif" font-size="10.00">argo::barrier</text>
</a>
</g>
</g>
<!-- Node1&#45;&gt;Node2 -->
<g id="edge1" class="edge">
<title>Node1&#45;&gt;Node2</title>
<path fill="none" stroke="midnightblue" d="M45.1,-63.6C56.94,-69.33 72.95,-76.04 88,-79 137.79,-88.81 196.09,-86.14 235.99,-82.22"/>
<polygon fill="midnightblue" stroke="midnightblue" points="236.39,-85.7 245.97,-81.17 235.66,-78.73 236.39,-85.7"/>
</g>
<!-- Node3 -->
<g id="node3" class="node">
<title>Node3</title>
<g id="a_node3"><a xlink:href="namespaceargo_a3c2fd778eb27bc574391f2ab515abe81.html#a3c2fd778eb27bc574391f2ab515abe81" target="_top" xlink:title="a barrier for ArgoDSM nodes">
<polygon fill="white" stroke="black" points="88,-39 88,-69 210,-69 210,-39 88,-39"/>
<text text-anchor="start" x="96" y="-57" font-family="Helvetica,sans-Serif" font-size="10.00">argo::barrier_upgrade</text>
<text text-anchor="middle" x="149" y="-46" font-family="Helvetica,sans-Serif" font-size="10.00">_writers</text>
</a>
</g>
</g>
<!-- Node1&#45;&gt;Node3 -->
<g id="edge2" class="edge">
<title>Node1&#45;&gt;Node3</title>
<path fill="none" stroke="midnightblue" d="M52.07,-54C59.75,-54 68.6,-54 77.76,-54"/>
<polygon fill="midnightblue" stroke="midnightblue" points="77.77,-57.5 87.77,-54 77.77,-50.5 77.77,-57.5"/>
</g>
<!-- Node4 -->
<g id="node4" class="node">
<title>Node4</title>
<g id="a_node4"><a xlink:href="namespaceargo_a188a4648d6e7549bcef4cee36dcb5336.html#a188a4648d6e7549bcef4cee36dcb5336" target="_top" xlink:title="A unique ArgoDSM node identifier. Counting starts from 0.">
<polygon fill="white" stroke="black" points="107.5,-0.5 107.5,-19.5 190.5,-19.5 190.5,-0.5 107.5,-0.5"/>
<text text-anchor="middle" x="149" y="-7.5" font-family="Helvetica,sans-Serif" font-size="10.00">argo::node_id</text>
</a>
</g>
</g>
<!-- Node1&#45;&gt;Node4 -->
<g id="edge4" class="edge">
<title>Node1&#45;&gt;Node4</title>
<path fill="none" stroke="midnightblue" d="M50.35,-44.48C61.67,-39.95 75.48,-34.54 88,-30 94.59,-27.61 101.62,-25.17 108.47,-22.85"/>
<polygon fill="midnightblue" stroke="midnightblue" points="109.92,-26.05 118.29,-19.56 107.7,-19.41 109.92,-26.05"/>
</g>
<!-- Node3&#45;&gt;Node2 -->
<g id="edge3" class="edge">
<title>Node3&#45;&gt;Node2</title>
<path fill="none" stroke="midnightblue" d="M210.11,-63.91C218.77,-65.33 227.58,-66.78 235.95,-68.16"/>
<polygon fill="midnightblue" stroke="midnightblue" points="235.47,-71.63 245.9,-69.8 236.6,-64.72 235.47,-71.63"/>
</g>
</g>
</svg>
