<?xml version="1.0" encoding="UTF-8" standalone="no"?>
<!DOCTYPE svg PUBLIC "-//W3C//DTD SVG 1.1//EN"
 "http://www.w3.org/Graphics/SVG/1.1/DTD/svg11.dtd">
<!-- Generated by graphviz version 2.43.0 (0)
 -->
<!-- Title: TEST_F Pages: 1 -->
<!--zoomable 127 -->
<svg id="main" version="1.1" xmlns="http://www.w3.org/2000/svg" xmlns:xlink="http://www.w3.org/1999/xlink" xml:space="preserve" onload="init(evt)">
<style type="text/css"><![CDATA[
.edge:hover path { stroke: red; }
.edge:hover polygon { stroke: red; fill: red; }
]]></style>
<script type="text/javascript"><![CDATA[
var edges = document.getElementsByTagName('g');
if (edges && edges.length) {
  for (var i=0;i<edges.length;i++) {
    if (edges[i].id.substr(0,4)=='edge') {
      edges[i].setAttribute('class','edge');
    }
  }
}
]]></script>
        <defs>
                <circle id="rim" cx="0" cy="0" r="7"/>
                <circle id="rim2" cx="0" cy="0" r="3.5"/>
                <g id="zoomPlus">
                        <use xlink:href="#rim" fill="#404040">
                                <set attributeName="fill" to="#808080" begin="zoomplus.mouseover" end="zoomplus.mouseout"/>
                        </use>
                        <path d="M-4,0h8M0,-4v8" fill="none" stroke="white" stroke-width="1.5" pointer-events="none"/>
                </g>
                <g id="zoomMin">
                        <use xlink:href="#rim" fill="#404040">
                                <set attributeName="fill" to="#808080" begin="zoomminus.mouseover" end="zoomminus.mouseout"/>
                        </use>
                        <path d="M-4,0h8" fill="none" stroke="white" stroke-width="1.5" pointer-events="none"/>
                </g>
                <g id="dirArrow">
                        <path fill="none" stroke="white" stroke-width="1.5" d="M0,-3.0v7 M-2.5,-0.5L0,-3.0L2.5,-0.5"/>
                </g>
               <g id="resetDef">
                       <use xlink:href="#rim2" fill="#404040">
                               <set attributeName="fill" to="#808080" begin="reset.mouseover" end="reset.mouseout"/>
                       </use>
               </g>
        </defs>

<script type="text/javascript">
var viewWidth = 717;
var viewHeight = 127;
var sectionId = 'dynsection-0';
</script>
<script xlink:href="svgpan.js"/>
<svg id="graph" class="graph">
<g id="viewport">
<title>TEST_F</title>
<polygon fill="white" stroke="transparent" points="-4,4 -4,-123.35 713,-123.35 713,4 -4,4"/>
<!-- Node1 -->
<g id="node1" class="node">
<title>Node1</title>
<g id="a_node1"><a xlink:title="Unittest that checks that pages transition to state P following an upgrade all barrier,...">
<polygon fill="#bfbfbf" stroke="black" points="0,-57.5 0,-76.5 52,-76.5 52,-57.5 0,-57.5"/>
<text text-anchor="middle" x="26" y="-64.5" font-family="Helvetica,sans-Serif" font-size="10.00">TEST_F</text>
</a>
</g>
</g>
<!-- Node2 -->
<g id="node2" class="node">
<title>Node2</title>
<g id="a_node2"><a xlink:href="namespaceargo_a10bae1e1e60ff583384b937201a87c29.html#a10bae1e1e60ff583384b937201a87c29" target="_top" xlink:title="a barrier for ArgoDSM nodes">
<polygon fill="white" stroke="black" points="290,-98.5 290,-117.5 367,-117.5 367,-98.5 290,-98.5"/>
<text text-anchor="middle" x="328.5" y="-105.5" font-family="Helvetica,sans-Serif" font-size="10.00">argo::barrier</text>
</a>
</g>
</g>
<!-- Node1&#45;&gt;Node2 -->
<g id="edge1" class="edge">
<title>Node1&#45;&gt;Node2</title>
<path fill="none" stroke="midnightblue" d="M38.22,-76.66C49.8,-85.95 68.84,-99.39 88,-105 152.27,-123.82 230.46,-120.15 279.62,-114.83"/>
<polygon fill="midnightblue" stroke="midnightblue" points="280.12,-118.3 289.65,-113.68 279.32,-111.35 280.12,-118.3"/>
</g>
<!-- Node3 -->
<g id="node3" class="node">
<title>Node3</title>
<g id="a_node3"><a xlink:href="namespaceargo_a4e9bea5bf7f74b21448420f9f1573db7.html#a4e9bea5bf7f74b21448420f9f1573db7" target="_top" xlink:title="a barrier for ArgoDSM nodes">
<polygon fill="white" stroke="black" points="88,-76.5 88,-95.5 227,-95.5 227,-76.5 88,-76.5"/>
<text text-anchor="middle" x="157.5" y="-83.5" font-family="Helvetica,sans-Serif" font-size="10.00">argo::barrier_upgrade_all</text>
</a>
</g>
</g>
<!-- Node1&#45;&gt;Node3 -->
<g id="edge2" class="edge">
<title>Node1&#45;&gt;Node3</title>
<path fill="none" stroke="midnightblue" d="M52.28,-70.71C60.87,-71.97 70.96,-73.45 81.41,-74.98"/>
<polygon fill="midnightblue" stroke="midnightblue" points="81.12,-78.48 91.52,-76.47 82.13,-71.55 81.12,-78.48"/>
</g>
<!-- Node4 -->
<g id="node4" class="node">
<title>Node4</title>
<g id="a_node4"><a xlink:href="namespaceargo_ab1d1a73e110d3631588ee61d1dd36002.html#ab1d1a73e110d3631588ee61d1dd36002" target="_top" xlink:title="Get the ArgoDSM node id where addr is physically backed.">
<polygon fill="white" stroke="black" points="99,-38.5 99,-57.5 216,-57.5 216,-38.5 99,-38.5"/>
<text text-anchor="middle" x="157.5" y="-45.5" font-family="Helvetica,sans-Serif" font-size="10.00">argo::get_homenode</text>
</a>
</g>
</g>
<!-- Node1&#45;&gt;Node4 -->
<g id="edge4" class="edge">
<title>Node1&#45;&gt;Node4</title>
<path fill="none" stroke="midnightblue" d="M52.28,-63.29C62.89,-61.73 75.8,-59.84 88.86,-57.92"/>
<polygon fill="midnightblue" stroke="midnightblue" points="89.46,-61.37 98.85,-56.46 88.45,-54.45 89.46,-61.37"/>
</g>
<!-- Node8 -->
<g id="node8" class="node">
<title>Node8</title>
<g id="a_node8"><a xlink:href="namespaceargo_a188a4648d6e7549bcef4cee36dcb5336.html#a188a4648d6e7549bcef4cee36dcb5336" target="_top" xlink:title="A unique ArgoDSM node identifier. Counting starts from 0.">
<polygon fill="white" stroke="black" points="116,-0.5 116,-19.5 199,-19.5 199,-0.5 116,-0.5"/>
<text text-anchor="middle" x="157.5" y="-7.5" font-family="Helvetica,sans-Serif" font-size="10.00">argo::node_id</text>
</a>
</g>
</g>
<!-- Node1&#45;&gt;Node8 -->
<g id="edge8" class="edge">
<title>Node1&#45;&gt;Node8</title>
<path fill="none" stroke="midnightblue" d="M39.96,-57.39C51.91,-48.91 70.41,-36.73 88,-29 93.78,-26.46 99.99,-24.18 106.23,-22.15"/>
<polygon fill="midnightblue" stroke="midnightblue" points="107.44,-25.44 115.99,-19.17 105.4,-18.74 107.44,-25.44"/>
</g>
<!-- Node3&#45;&gt;Node2 -->
<g id="edge3" class="edge">
<title>Node3&#45;&gt;Node2</title>
<path fill="none" stroke="midnightblue" d="M227.24,-94.95C244.78,-97.23 263.26,-99.64 279.51,-101.75"/>
<polygon fill="midnightblue" stroke="midnightblue" points="279.47,-105.28 289.84,-103.1 280.37,-98.34 279.47,-105.28"/>
</g>
<!-- Node5 -->
<g id="node5" class="node">
<title>Node5</title>
<g id="a_node5"><a xlink:href="classargo_1_1data__distribution_1_1global__ptr_a3e2cdd4d323ef91174615e27ab94e342.html#a3e2cdd4d323ef91174615e27ab94e342" target="_top" xlink:title="return the home node of the value pointed to, or a default value if the page has not yet been first&#45;t...">
<polygon fill="white" stroke="black" points="263,-33 263,-63 394,-63 394,-33 263,-33"/>
<text text-anchor="start" x="271" y="-51" font-family="Helvetica,sans-Serif" font-size="10.00">argo::data_distribution</text>
<text text-anchor="middle" x="328.5" y="-40" font-family="Helvetica,sans-Serif" font-size="10.00">::global_ptr::peek_node</text>
</a>
</g>
</g>
<!-- Node4&#45;&gt;Node5 -->
<g id="edge5" class="edge">
<title>Node4&#45;&gt;Node5</title>
<path fill="none" stroke="midnightblue" d="M216.19,-48C227.92,-48 240.41,-48 252.64,-48"/>
<polygon fill="midnightblue" stroke="midnightblue" points="252.82,-51.5 262.82,-48 252.82,-44.5 252.82,-51.5"/>
</g>
<!-- Node6 -->
<g id="node6" class="node">
<title>Node6</title>
<g id="a_node6"><a xlink:href="classargo_1_1data__distribution_1_1global__ptr_ae4353680349f6abbd2cf262dace8e2f2.html#ae4353680349f6abbd2cf262dace8e2f2" target="_top" xlink:title="return a pointer to the selected allocation policy">
<polygon fill="white" stroke="black" points="430,-33 430,-63 557,-63 557,-33 430,-33"/>
<text text-anchor="start" x="438" y="-51" font-family="Helvetica,sans-Serif" font-size="10.00">argo::data_distribution</text>
<text text-anchor="middle" x="493.5" y="-40" font-family="Helvetica,sans-Serif" font-size="10.00">::global_ptr::policy</text>
</a>
</g>
</g>
<!-- Node5&#45;&gt;Node6 -->
<g id="edge6" class="edge">
<title>Node5&#45;&gt;Node6</title>
<path fill="none" stroke="midnightblue" d="M394.39,-48C402.72,-48 411.3,-48 419.74,-48"/>
<polygon fill="midnightblue" stroke="midnightblue" points="419.96,-51.5 429.96,-48 419.96,-44.5 419.96,-51.5"/>
</g>
<!-- Node7 -->
<g id="node7" class="node">
<title>Node7</title>
<g id="a_node7"><a xlink:href="namespaceargo_1_1env_a25a08cb2d0d11432d640ec7173063339.html#a25a08cb2d0d11432d640ec7173063339" target="_top" xlink:title="get the allocation policy requested by environment variable">
<polygon fill="white" stroke="black" points="593,-33 593,-63 709,-63 709,-33 593,-33"/>
<text text-anchor="start" x="601" y="-51" font-family="Helvetica,sans-Serif" font-size="10.00">argo::env::allocation</text>
<text text-anchor="middle" x="651" y="-40" font-family="Helvetica,sans-Serif" font-size="10.00">_policy</text>
</a>
</g>
</g>
<!-- Node6&#45;&gt;Node7 -->
<g id="edge7" class="edge">
<title>Node6&#45;&gt;Node7</title>
<path fill="none" stroke="midnightblue" d="M557.3,-48C565.69,-48 574.32,-48 582.78,-48"/>
<polygon fill="midnightblue" stroke="midnightblue" points="582.99,-51.5 592.99,-48 582.99,-44.5 582.99,-51.5"/>
</g>
</g>
</svg>
        <g id="navigator" transform="translate(0 0)" fill="#404254">
                <rect fill="#f2f5e9" fill-opacity="0.5" stroke="#606060" stroke-width=".5" x="0" y="0" width="60" height="60"/>
                <use id="zoomplus" xlink:href="#zoomPlus" x="17" y="9" onmousedown="handleZoom(evt,'in')"/>
                <use id="zoomminus" xlink:href="#zoomMin" x="42" y="9" onmousedown="handleZoom(evt,'out')"/>
                <use id="reset" xlink:href="#resetDef" x="30" y="36" onmousedown="handleReset()"/>
                <g id="arrowUp" xlink:href="#dirArrow" transform="translate(30 24)" onmousedown="handlePan(0,-1)">
                  <use xlink:href="#rim" fill="#404040">
                        <set attributeName="fill" to="#808080" begin="arrowUp.mouseover" end="arrowUp.mouseout"/>
                  </use>
                  <path fill="none" stroke="white" stroke-width="1.5" d="M0,-3.0v7 M-2.5,-0.5L0,-3.0L2.5,-0.5"/>
                </g>
                <g id="arrowRight" xlink:href="#dirArrow" transform="rotate(90) translate(36 -43)" onmousedown="handlePan(1,0)">
                  <use xlink:href="#rim" fill="#404040">
                        <set attributeName="fill" to="#808080" begin="arrowRight.mouseover" end="arrowRight.mouseout"/>
                  </use>
                  <path fill="none" stroke="white" stroke-width="1.5" d="M0,-3.0v7 M-2.5,-0.5L0,-3.0L2.5,-0.5"/>
                </g>
                <g id="arrowDown" xlink:href="#dirArrow" transform="rotate(180) translate(-30 -48)" onmousedown="handlePan(0,1)">
                  <use xlink:href="#rim" fill="#404040">
                        <set attributeName="fill" to="#808080" begin="arrowDown.mouseover" end="arrowDown.mouseout"/>
                  </use>
                  <path fill="none" stroke="white" stroke-width="1.5" d="M0,-3.0v7 M-2.5,-0.5L0,-3.0L2.5,-0.5"/>
                </g>
                <g id="arrowLeft" xlink:href="#dirArrow" transform="rotate(270) translate(-36 17)" onmousedown="handlePan(-1,0)">
                  <use xlink:href="#rim" fill="#404040">
                        <set attributeName="fill" to="#808080" begin="arrowLeft.mouseover" end="arrowLeft.mouseout"/>
                  </use>
                  <path fill="none" stroke="white" stroke-width="1.5" d="M0,-3.0v7 M-2.5,-0.5L0,-3.0L2.5,-0.5"/>
                </g>
        </g>
        <svg viewBox="0 0 15 15" width="100%" height="30px" preserveAspectRatio="xMaxYMin meet">
         <g id="arrow_out" transform="scale(0.3 0.3)">
          <a xlink:href="barrier_8cpp_a7b8f20222887f251e909be0271afce40_a7b8f20222887f251e909be0271afce40_cgraph_org.svg" target="_base">
           <rect id="button" ry="5" rx="5" y="6" x="6" height="38" width="38"
                fill="#f2f5e9" fill-opacity="0.5" stroke="#606060" stroke-width="1.0"/>
           <path id="arrow"
             d="M 11.500037,31.436501 C 11.940474,20.09759 22.043105,11.32322 32.158766,21.979434 L 37.068811,17.246167 C 37.068811,17.246167 37.088388,32 37.088388,32 L 22.160133,31.978069 C 22.160133,31.978069 26.997745,27.140456 26.997745,27.140456 C 18.528582,18.264221 13.291696,25.230495 11.500037,31.436501 z"
             style="fill:#404040;"/>
          </a>
         </g>
        </svg>
</svg>
