<?xml version="1.0" encoding="UTF-8" standalone="no"?>
<!DOCTYPE svg PUBLIC "-//W3C//DTD SVG 1.1//EN"
 "http://www.w3.org/Graphics/SVG/1.1/DTD/svg11.dtd">
<!-- Generated by graphviz version 2.43.0 (0)
 -->
<!-- Title: main Pages: 1 -->
<!--zoomable 396 -->
<svg id="main" version="1.1" xmlns="http://www.w3.org/2000/svg" xmlns:xlink="http://www.w3.org/1999/xlink" xml:space="preserve" onload="init(evt)">
<style type="text/css"><![CDATA[
.edge:hover path { stroke: red; }
.edge:hover polygon { stroke: red; fill: red; }
]]></style>
<script type="text/javascript"><![CDATA[
var edges = document.getElementsByTagName('g');
if (edges && edges.length) {
  for (var i=0;i<edges.length;i++) {
    if (edges[i].id.substr(0,4)=='edge') {
      edges[i].setAttribute('class','edge');
    }
  }
}
]]></script>
        <defs>
                <circle id="rim" cx="0" cy="0" r="7"/>
                <circle id="rim2" cx="0" cy="0" r="3.5"/>
                <g id="zoomPlus">
                        <use xlink:href="#rim" fill="#404040">
                                <set attributeName="fill" to="#808080" begin="zoomplus.mouseover" end="zoomplus.mouseout"/>
                        </use>
                        <path d="M-4,0h8M0,-4v8" fill="none" stroke="white" stroke-width="1.5" pointer-events="none"/>
                </g>
                <g id="zoomMin">
                        <use xlink:href="#rim" fill="#404040">
                                <set attributeName="fill" to="#808080" begin="zoomminus.mouseover" end="zoomminus.mouseout"/>
                        </use>
                        <path d="M-4,0h8" fill="none" stroke="white" stroke-width="1.5" pointer-events="none"/>
                </g>
                <g id="dirArrow">
                        <path fill="none" stroke="white" stroke-width="1.5" d="M0,-3.0v7 M-2.5,-0.5L0,-3.0L2.5,-0.5"/>
                </g>
               <g id="resetDef">
                       <use xlink:href="#rim2" fill="#404040">
                               <set attributeName="fill" to="#808080" begin="reset.mouseover" end="reset.mouseout"/>
                       </use>
               </g>
        </defs>

<script type="text/javascript">
var viewWidth = 791;
var viewHeight = 396;
var sectionId = 'dynsection-0';
</script>
<script xlink:href="svgpan.js"/>
<svg id="graph" class="graph">
<g id="viewport">
<title>main</title>
<polygon fill="white" stroke="transparent" points="-4,4 -4,-392 787,-392 787,4 -4,4"/>
<!-- Node1 -->
<g id="node1" class="node">
<title>Node1</title>
<g id="a_node1"><a xlink:title="The main function that runs the tests.">
<polygon fill="#bfbfbf" stroke="black" points="0,-213 0,-232 41,-232 41,-213 0,-213"/>
<text text-anchor="middle" x="20.5" y="-220" font-family="Helvetica,sans-Serif" font-size="10.00">main</text>
</a>
</g>
</g>
<!-- Node2 -->
<g id="node2" class="node">
<title>Node2</title>
<g id="a_node2"><a xlink:href="namespaceargo_aa6f830b22d3f1b054609c5ffa40af4b6.html#aa6f830b22d3f1b054609c5ffa40af4b6" target="_top" xlink:title="shut down ArgoDSM system">
<polygon fill="white" stroke="black" points="77,-232 77,-251 157,-251 157,-232 77,-232"/>
<text text-anchor="middle" x="117" y="-239" font-family="Helvetica,sans-Serif" font-size="10.00">argo::finalize</text>
</a>
</g>
</g>
<!-- Node1&#45;&gt;Node2 -->
<g id="edge1" class="edge">
<title>Node1&#45;&gt;Node2</title>
<path fill="none" stroke="midnightblue" d="M41.08,-226.44C48.7,-227.97 57.81,-229.8 67,-231.65"/>
<polygon fill="midnightblue" stroke="midnightblue" points="66.46,-235.11 76.95,-233.65 67.84,-228.25 66.46,-235.11"/>
</g>
<!-- Node3 -->
<g id="node3" class="node">
<title>Node3</title>
<g id="a_node3"><a xlink:href="namespaceargo_a31330d8b35bd7f9ef9880eec82339c54.html#a31330d8b35bd7f9ef9880eec82339c54" target="_top" xlink:title="initialize ArgoDSM system">
<polygon fill="white" stroke="black" points="87,-194 87,-213 147,-213 147,-194 87,-194"/>
<text text-anchor="middle" x="117" y="-201" font-family="Helvetica,sans-Serif" font-size="10.00">argo::init</text>
</a>
</g>
</g>
<!-- Node1&#45;&gt;Node3 -->
<g id="edge2" class="edge">
<title>Node1&#45;&gt;Node3</title>
<path fill="none" stroke="midnightblue" d="M41.08,-218.56C51.39,-216.49 64.4,-213.87 76.68,-211.4"/>
<polygon fill="midnightblue" stroke="midnightblue" points="77.64,-214.78 86.75,-209.38 76.26,-207.92 77.64,-214.78"/>
</g>
<!-- Node4 -->
<g id="node4" class="node">
<title>Node4</title>
<g id="a_node4"><a xlink:href="namespaceargo_1_1env_a30775a9aa41b956df7474a2c0cc317aa.html#a30775a9aa41b956df7474a2c0cc317aa" target="_top" xlink:title="get the allocation block size requested by environment variable">
<polygon fill="white" stroke="black" points="205,-357.5 205,-387.5 321,-387.5 321,-357.5 205,-357.5"/>
<text text-anchor="start" x="213" y="-375.5" font-family="Helvetica,sans-Serif" font-size="10.00">argo::env::allocation</text>
<text text-anchor="middle" x="263" y="-364.5" font-family="Helvetica,sans-Serif" font-size="10.00">_block_size</text>
</a>
</g>
</g>
<!-- Node3&#45;&gt;Node4 -->
<g id="edge3" class="edge">
<title>Node3&#45;&gt;Node4</title>
<path fill="none" stroke="midnightblue" d="M145.28,-213.07C149.67,-215.58 153.81,-218.69 157,-222.5 194.43,-267.12 153,-306.17 193,-348.5 194.2,-349.77 195.47,-350.97 196.79,-352.11"/>
<polygon fill="midnightblue" stroke="midnightblue" points="194.8,-354.98 204.97,-357.95 198.87,-349.29 194.8,-354.98"/>
</g>
<!-- Node5 -->
<g id="node5" class="node">
<title>Node5</title>
<g id="a_node5"><a xlink:href="namespaceargo_1_1env_a25a08cb2d0d11432d640ec7173063339.html#a25a08cb2d0d11432d640ec7173063339" target="_top" xlink:title="get the allocation policy requested by environment variable">
<polygon fill="white" stroke="black" points="205,-308.5 205,-338.5 321,-338.5 321,-308.5 205,-308.5"/>
<text text-anchor="start" x="213" y="-326.5" font-family="Helvetica,sans-Serif" font-size="10.00">argo::env::allocation</text>
<text text-anchor="middle" x="263" y="-315.5" font-family="Helvetica,sans-Serif" font-size="10.00">_policy</text>
</a>
</g>
</g>
<!-- Node3&#45;&gt;Node5 -->
<g id="edge4" class="edge">
<title>Node3&#45;&gt;Node5</title>
<path fill="none" stroke="midnightblue" d="M143.98,-213.08C148.7,-215.63 153.29,-218.75 157,-222.5 183.28,-249.07 165.35,-273.35 193,-298.5 194.72,-300.07 196.55,-301.54 198.46,-302.92"/>
<polygon fill="midnightblue" stroke="midnightblue" points="196.95,-306.1 207.29,-308.41 200.65,-300.15 196.95,-306.1"/>
</g>
<!-- Node6 -->
<g id="node6" class="node">
<title>Node6</title>
<g id="a_node6"><a xlink:href="namespaceargo_1_1env_aa118cb239143d769e04b17d2a98d48a2.html#aa118cb239143d769e04b17d2a98d48a2" target="_top" xlink:title="get the cache size requested by environment variable">
<polygon fill="white" stroke="black" points="202.5,-270 202.5,-289 323.5,-289 323.5,-270 202.5,-270"/>
<text text-anchor="middle" x="263" y="-277" font-family="Helvetica,sans-Serif" font-size="10.00">argo::env::cache_size</text>
</a>
</g>
</g>
<!-- Node3&#45;&gt;Node6 -->
<g id="edge5" class="edge">
<title>Node3&#45;&gt;Node6</title>
<path fill="none" stroke="midnightblue" d="M141.07,-213.04C146.51,-215.74 152.14,-218.94 157,-222.5 175.76,-236.26 173.05,-248.53 193,-260.5 196.6,-262.66 200.44,-264.58 204.41,-266.28"/>
<polygon fill="midnightblue" stroke="midnightblue" points="203.24,-269.58 213.83,-269.89 205.75,-263.05 203.24,-269.58"/>
</g>
<!-- Node7 -->
<g id="node7" class="node">
<title>Node7</title>
<g id="a_node7"><a xlink:href="namespaceargo_1_1env_a3b366d9bdcdee4e6d3ff4f95ecd5d56f.html#a3b366d9bdcdee4e6d3ff4f95ecd5d56f" target="_top" xlink:title="read and store environment variables used by ArgoDSM">
<polygon fill="white" stroke="black" points="221.5,-232 221.5,-251 304.5,-251 304.5,-232 221.5,-232"/>
<text text-anchor="middle" x="263" y="-239" font-family="Helvetica,sans-Serif" font-size="10.00">argo::env::init</text>
</a>
</g>
</g>
<!-- Node3&#45;&gt;Node7 -->
<g id="edge6" class="edge">
<title>Node3&#45;&gt;Node7</title>
<path fill="none" stroke="midnightblue" d="M147.14,-211.19C166.9,-216.4 193.43,-223.4 216.01,-229.36"/>
<polygon fill="midnightblue" stroke="midnightblue" points="215.18,-232.76 225.74,-231.93 216.97,-226 215.18,-232.76"/>
</g>
<!-- Node8 -->
<g id="node8" class="node">
<title>Node8</title>
<g id="a_node8"><a xlink:href="namespaceargo_1_1env_ae6176c970333c2145a90bf1280caad03.html#ae6176c970333c2145a90bf1280caad03" target="_top" xlink:title="get the number of pages fetched remotely per load requested by environment variable">
<polygon fill="white" stroke="black" points="206.5,-194 206.5,-213 319.5,-213 319.5,-194 206.5,-194"/>
<text text-anchor="middle" x="263" y="-201" font-family="Helvetica,sans-Serif" font-size="10.00">argo::env::load_size</text>
</a>
</g>
</g>
<!-- Node3&#45;&gt;Node8 -->
<g id="edge7" class="edge">
<title>Node3&#45;&gt;Node8</title>
<path fill="none" stroke="midnightblue" d="M147.14,-203.5C161.36,-203.5 179.09,-203.5 196.33,-203.5"/>
<polygon fill="midnightblue" stroke="midnightblue" points="196.39,-207 206.39,-203.5 196.39,-200 196.39,-207"/>
</g>
<!-- Node9 -->
<g id="node9" class="node">
<title>Node9</title>
<g id="a_node9"><a xlink:href="namespaceargo_1_1env_af1be596a06fd9e786462c96442172689.html#af1be596a06fd9e786462c96442172689" target="_top" xlink:title="get the memory size requested by environment variable">
<polygon fill="white" stroke="black" points="196,-156 196,-175 330,-175 330,-156 196,-156"/>
<text text-anchor="middle" x="263" y="-163" font-family="Helvetica,sans-Serif" font-size="10.00">argo::env::memory_size</text>
</a>
</g>
</g>
<!-- Node3&#45;&gt;Node9 -->
<g id="edge8" class="edge">
<title>Node3&#45;&gt;Node9</title>
<path fill="none" stroke="midnightblue" d="M147.14,-195.81C166.9,-190.6 193.43,-183.6 216.01,-177.64"/>
<polygon fill="midnightblue" stroke="midnightblue" points="216.97,-181 225.74,-175.07 215.18,-174.24 216.97,-181"/>
</g>
<!-- Node10 -->
<g id="node10" class="node">
<title>Node10</title>
<g id="a_node10"><a xlink:href="namespaceargo_1_1env_af0546797fdfef892582c5d398e7e08a4.html#af0546797fdfef892582c5d398e7e08a4" target="_top" xlink:title="get the number of MPI windows per node requested">
<polygon fill="white" stroke="black" points="196,-106.5 196,-136.5 330,-136.5 330,-106.5 196,-106.5"/>
<text text-anchor="start" x="204" y="-124.5" font-family="Helvetica,sans-Serif" font-size="10.00">argo::env::mpi_windows</text>
<text text-anchor="middle" x="263" y="-113.5" font-family="Helvetica,sans-Serif" font-size="10.00">_per_node</text>
</a>
</g>
</g>
<!-- Node3&#45;&gt;Node10 -->
<g id="edge9" class="edge">
<title>Node3&#45;&gt;Node10</title>
<path fill="none" stroke="midnightblue" d="M128.46,-193.89C142.34,-181.55 168.01,-160.11 193,-146.5 196.88,-144.39 200.98,-142.39 205.16,-140.51"/>
<polygon fill="midnightblue" stroke="midnightblue" points="206.56,-143.72 214.4,-136.59 203.83,-137.27 206.56,-143.72"/>
</g>
<!-- Node11 -->
<g id="node11" class="node">
<title>Node11</title>
<g id="a_node11"><a xlink:href="namespaceargo_1_1env_aa95264f94d7d3fa32d7f5c133818bdea.html#aa95264f94d7d3fa32d7f5c133818bdea" target="_top" xlink:title="Get the requested statistics print level.">
<polygon fill="white" stroke="black" points="193,-68 193,-87 333,-87 333,-68 193,-68"/>
<text text-anchor="middle" x="263" y="-75" font-family="Helvetica,sans-Serif" font-size="10.00">argo::env::print_statistics</text>
</a>
</g>
</g>
<!-- Node3&#45;&gt;Node11 -->
<g id="edge10" class="edge">
<title>Node3&#45;&gt;Node11</title>
<path fill="none" stroke="midnightblue" d="M122.06,-193.94C131.4,-173.14 156.45,-123.51 193,-97.5 196.43,-95.06 200.15,-92.91 204.04,-91.03"/>
<polygon fill="midnightblue" stroke="midnightblue" points="205.48,-94.22 213.32,-87.09 202.74,-87.78 205.48,-94.22"/>
</g>
<!-- Node12 -->
<g id="node12" class="node">
<title>Node12</title>
<g id="a_node12"><a xlink:href="namespaceargo_a7525b3ba02c8025202fd1cd6756e5e4e.html#a7525b3ba02c8025202fd1cd6756e5e4e" target="_top" xlink:title="reset ArgoDSM system">
<polygon fill="white" stroke="black" points="228.5,-30 228.5,-49 297.5,-49 297.5,-30 228.5,-30"/>
<text text-anchor="middle" x="263" y="-37" font-family="Helvetica,sans-Serif" font-size="10.00">argo::reset</text>
</a>
</g>
</g>
<!-- Node3&#45;&gt;Node12 -->
<g id="edge11" class="edge">
<title>Node3&#45;&gt;Node12</title>
<path fill="none" stroke="midnightblue" d="M120.18,-193.66C126.52,-167.45 147.42,-95.44 193,-58.5 200.3,-52.58 209.31,-48.5 218.38,-45.69"/>
<polygon fill="midnightblue" stroke="midnightblue" points="219.4,-49.05 228.18,-43.11 217.61,-42.28 219.4,-49.05"/>
</g>
<!-- Node13 -->
<g id="node13" class="node">
<title>Node13</title>
<g id="a_node13"><a xlink:href="namespaceargo_a618c32926aa8b74173868cf7e1fbcaf4.html#a618c32926aa8b74173868cf7e1fbcaf4" target="_top" xlink:title="reset ArgoDSM allocators">
<polygon fill="white" stroke="black" points="369,-30 369,-49 491,-49 491,-30 369,-30"/>
<text text-anchor="middle" x="430" y="-37" font-family="Helvetica,sans-Serif" font-size="10.00">argo::reset_allocators</text>
</a>
</g>
</g>
<!-- Node12&#45;&gt;Node13 -->
<g id="edge12" class="edge">
<title>Node12&#45;&gt;Node13</title>
<path fill="none" stroke="midnightblue" d="M297.79,-39.5C315.37,-39.5 337.55,-39.5 358.65,-39.5"/>
<polygon fill="midnightblue" stroke="midnightblue" points="358.89,-43 368.89,-39.5 358.89,-36 358.89,-43"/>
</g>
<!-- Node14 -->
<g id="node14" class="node">
<title>Node14</title>
<g id="a_node14"><a xlink:href="classargo_1_1mempools_1_1global__memory__pool_a382544f1b6de66b437e8034097313cc8.html#a382544f1b6de66b437e8034097313cc8" target="_top" xlink:title="Resets the memory pool to the initial state instead of de&#45;allocating and (re)allocating all buffers a...">
<polygon fill="white" stroke="black" points="529.5,-49.5 529.5,-79.5 661.5,-79.5 661.5,-49.5 529.5,-49.5"/>
<text text-anchor="start" x="537.5" y="-67.5" font-family="Helvetica,sans-Serif" font-size="10.00">argo::mempools::global</text>
<text text-anchor="middle" x="595.5" y="-56.5" font-family="Helvetica,sans-Serif" font-size="10.00">_memory_pool::reset</text>
</a>
</g>
</g>
<!-- Node13&#45;&gt;Node14 -->
<g id="edge13" class="edge">
<title>Node13&#45;&gt;Node14</title>
<path fill="none" stroke="midnightblue" d="M491.42,-48.74C500.5,-50.13 509.97,-51.57 519.31,-53"/>
<polygon fill="midnightblue" stroke="midnightblue" points="518.97,-56.49 529.39,-54.54 520.03,-49.57 518.97,-56.49"/>
</g>
<!-- Node16 -->
<g id="node16" class="node">
<title>Node16</title>
<g id="a_node16"><a xlink:href="classargo_1_1allocators_1_1generic__allocator_af7bba2f941e23af3efd7b06a7feeb296.html#af7bba2f941e23af3efd7b06a7feeb296" target="_top" xlink:title="set memory pool">
<polygon fill="white" stroke="black" points="527,-0.5 527,-30.5 664,-30.5 664,-0.5 527,-0.5"/>
<text text-anchor="start" x="535" y="-18.5" font-family="Helvetica,sans-Serif" font-size="10.00">argo::allocators::generic</text>
<text text-anchor="middle" x="595.5" y="-7.5" font-family="Helvetica,sans-Serif" font-size="10.00">_allocator::set_mempool</text>
</a>
</g>
</g>
<!-- Node13&#45;&gt;Node16 -->
<g id="edge15" class="edge">
<title>Node13&#45;&gt;Node16</title>
<path fill="none" stroke="midnightblue" d="M491.42,-30.63C499.72,-29.41 508.34,-28.15 516.9,-26.89"/>
<polygon fill="midnightblue" stroke="midnightblue" points="517.51,-30.34 526.89,-25.42 516.49,-23.41 517.51,-30.34"/>
</g>
<!-- Node15 -->
<g id="node15" class="node">
<title>Node15</title>
<g id="a_node15"><a xlink:href="namespaceargo_a188a4648d6e7549bcef4cee36dcb5336.html#a188a4648d6e7549bcef4cee36dcb5336" target="_top" xlink:title="A unique ArgoDSM node identifier. Counting starts from 0.">
<polygon fill="white" stroke="black" points="700,-55 700,-74 783,-74 783,-55 700,-55"/>
<text text-anchor="middle" x="741.5" y="-62" font-family="Helvetica,sans-Serif" font-size="10.00">argo::node_id</text>
</a>
</g>
</g>
<!-- Node14&#45;&gt;Node15 -->
<g id="edge14" class="edge">
<title>Node14&#45;&gt;Node15</title>
<path fill="none" stroke="midnightblue" d="M661.76,-64.5C671.07,-64.5 680.52,-64.5 689.5,-64.5"/>
<polygon fill="midnightblue" stroke="midnightblue" points="689.79,-68 699.79,-64.5 689.79,-61 689.79,-68"/>
</g>
</g>
</svg>
        <g id="navigator" transform="translate(0 0)" fill="#404254">
                <rect fill="#f2f5e9" fill-opacity="0.5" stroke="#606060" stroke-width=".5" x="0" y="0" width="60" height="60"/>
                <use id="zoomplus" xlink:href="#zoomPlus" x="17" y="9" onmousedown="handleZoom(evt,'in')"/>
                <use id="zoomminus" xlink:href="#zoomMin" x="42" y="9" onmousedown="handleZoom(evt,'out')"/>
                <use id="reset" xlink:href="#resetDef" x="30" y="36" onmousedown="handleReset()"/>
                <g id="arrowUp" xlink:href="#dirArrow" transform="translate(30 24)" onmousedown="handlePan(0,-1)">
                  <use xlink:href="#rim" fill="#404040">
                        <set attributeName="fill" to="#808080" begin="arrowUp.mouseover" end="arrowUp.mouseout"/>
                  </use>
                  <path fill="none" stroke="white" stroke-width="1.5" d="M0,-3.0v7 M-2.5,-0.5L0,-3.0L2.5,-0.5"/>
                </g>
                <g id="arrowRight" xlink:href="#dirArrow" transform="rotate(90) translate(36 -43)" onmousedown="handlePan(1,0)">
                  <use xlink:href="#rim" fill="#404040">
                        <set attributeName="fill" to="#808080" begin="arrowRight.mouseover" end="arrowRight.mouseout"/>
                  </use>
                  <path fill="none" stroke="white" stroke-width="1.5" d="M0,-3.0v7 M-2.5,-0.5L0,-3.0L2.5,-0.5"/>
                </g>
                <g id="arrowDown" xlink:href="#dirArrow" transform="rotate(180) translate(-30 -48)" onmousedown="handlePan(0,1)">
                  <use xlink:href="#rim" fill="#404040">
                        <set attributeName="fill" to="#808080" begin="arrowDown.mouseover" end="arrowDown.mouseout"/>
                  </use>
                  <path fill="none" stroke="white" stroke-width="1.5" d="M0,-3.0v7 M-2.5,-0.5L0,-3.0L2.5,-0.5"/>
                </g>
                <g id="arrowLeft" xlink:href="#dirArrow" transform="rotate(270) translate(-36 17)" onmousedown="handlePan(-1,0)">
                  <use xlink:href="#rim" fill="#404040">
                        <set attributeName="fill" to="#808080" begin="arrowLeft.mouseover" end="arrowLeft.mouseout"/>
                  </use>
                  <path fill="none" stroke="white" stroke-width="1.5" d="M0,-3.0v7 M-2.5,-0.5L0,-3.0L2.5,-0.5"/>
                </g>
        </g>
        <svg viewBox="0 0 15 15" width="100%" height="30px" preserveAspectRatio="xMaxYMin meet">
         <g id="arrow_out" transform="scale(0.3 0.3)">
          <a xlink:href="barrier_8cpp_a3c04138a5bfe5d72780bb7e82a18e627_a3c04138a5bfe5d72780bb7e82a18e627_cgraph_org.svg" target="_base">
           <rect id="button" ry="5" rx="5" y="6" x="6" height="38" width="38"
                fill="#f2f5e9" fill-opacity="0.5" stroke="#606060" stroke-width="1.0"/>
           <path id="arrow"
             d="M 11.500037,31.436501 C 11.940474,20.09759 22.043105,11.32322 32.158766,21.979434 L 37.068811,17.246167 C 37.068811,17.246167 37.088388,32 37.088388,32 L 22.160133,31.978069 C 22.160133,31.978069 26.997745,27.140456 26.997745,27.140456 C 18.528582,18.264221 13.291696,25.230495 11.500037,31.436501 z"
             style="fill:#404040;"/>
          </a>
         </g>
        </svg>
</svg>
