<?xml version="1.0" encoding="UTF-8" standalone="no"?>
<!DOCTYPE svg PUBLIC "-//W3C//DTD SVG 1.1//EN"
 "http://www.w3.org/Graphics/SVG/1.1/DTD/svg11.dtd">
<!-- Generated by graphviz version 2.43.0 (0)
 -->
<!-- Title: /home/projectcs&#45;2022/argodsmBuffer/argodsmPrefetching/src/data_distribution/base_distribution.hpp Pages: 1 -->
<svg width="405pt" height="173pt"
 viewBox="0.00 0.00 405.00 173.00" xmlns="http://www.w3.org/2000/svg" xmlns:xlink="http://www.w3.org/1999/xlink">
<g id="graph0" class="graph" transform="scale(1 1) rotate(0) translate(4 169)">
<title>/home/projectcs&#45;2022/argodsmBuffer/argodsmPrefetching/src/data_distribution/base_distribution.hpp</title>
<polygon fill="white" stroke="transparent" points="-4,4 -4,-169 401,-169 401,4 -4,4"/>
<!-- Node1 -->
<g id="node1" class="node">
<title>Node1</title>
<g id="a_node1"><a xlink:title="This file implements the base distribution class for all the policies to derive from.">
<polygon fill="#bfbfbf" stroke="black" points="71,-112.5 71,-164.5 264,-164.5 264,-112.5 71,-112.5"/>
<text text-anchor="start" x="79" y="-152.5" font-family="Helvetica,sans-Serif" font-size="10.00">/home/projectcs&#45;2022</text>
<text text-anchor="start" x="79" y="-141.5" font-family="Helvetica,sans-Serif" font-size="10.00">/argodsmBuffer/argodsmPrefetching</text>
<text text-anchor="start" x="79" y="-130.5" font-family="Helvetica,sans-Serif" font-size="10.00">/src/data_distribution/base</text>
<text text-anchor="middle" x="167.5" y="-119.5" font-family="Helvetica,sans-Serif" font-size="10.00">_distribution.hpp</text>
</a>
</g>
</g>
<!-- Node2 -->
<g id="node2" class="node">
<title>Node2</title>
<g id="a_node2"><a xlink:title=" ">
<polygon fill="white" stroke="#bfbfbf" points="0,-56.5 0,-75.5 49,-75.5 49,-56.5 0,-56.5"/>
<text text-anchor="middle" x="24.5" y="-63.5" font-family="Helvetica,sans-Serif" font-size="10.00">cstdlib</text>
</a>
</g>
</g>
<!-- Node1&#45;&gt;Node2 -->
<g id="edge1" class="edge">
<title>Node1&#45;&gt;Node2</title>
<path fill="none" stroke="midnightblue" d="M116.68,-112.45C94.5,-101.51 69.41,-89.14 51.01,-80.07"/>
<polygon fill="midnightblue" stroke="midnightblue" points="52.31,-76.81 41.8,-75.53 49.22,-83.09 52.31,-76.81"/>
</g>
<!-- Node3 -->
<g id="node3" class="node">
<title>Node3</title>
<g id="a_node3"><a xlink:title=" ">
<polygon fill="white" stroke="#bfbfbf" points="67.5,-56.5 67.5,-75.5 127.5,-75.5 127.5,-56.5 67.5,-56.5"/>
<text text-anchor="middle" x="97.5" y="-63.5" font-family="Helvetica,sans-Serif" font-size="10.00">iostream</text>
</a>
</g>
</g>
<!-- Node1&#45;&gt;Node3 -->
<g id="edge2" class="edge">
<title>Node1&#45;&gt;Node3</title>
<path fill="none" stroke="midnightblue" d="M142.62,-112.45C132.88,-102.63 121.98,-91.66 113.34,-82.95"/>
<polygon fill="midnightblue" stroke="midnightblue" points="115.66,-80.33 106.13,-75.7 110.7,-85.26 115.66,-80.33"/>
</g>
<!-- Node4 -->
<g id="node4" class="node">
<title>Node4</title>
<g id="a_node4"><a xlink:title=" ">
<polygon fill="white" stroke="#bfbfbf" points="145.5,-56.5 145.5,-75.5 189.5,-75.5 189.5,-56.5 145.5,-56.5"/>
<text text-anchor="middle" x="167.5" y="-63.5" font-family="Helvetica,sans-Serif" font-size="10.00">string</text>
</a>
</g>
</g>
<!-- Node1&#45;&gt;Node4 -->
<g id="edge3" class="edge">
<title>Node1&#45;&gt;Node4</title>
<path fill="none" stroke="midnightblue" d="M167.5,-112.45C167.5,-103.73 167.5,-94.1 167.5,-85.96"/>
<polygon fill="midnightblue" stroke="midnightblue" points="171,-85.7 167.5,-75.7 164,-85.7 171,-85.7"/>
</g>
<!-- Node5 -->
<g id="node5" class="node">
<title>Node5</title>
<g id="a_node5"><a xlink:href="env_8hpp.html" target="_top" xlink:title="This file provides facilities for handling environment variables.">
<polygon fill="white" stroke="black" points="207.5,-56.5 207.5,-75.5 283.5,-75.5 283.5,-56.5 207.5,-56.5"/>
<text text-anchor="middle" x="245.5" y="-63.5" font-family="Helvetica,sans-Serif" font-size="10.00">env/env.hpp</text>
</a>
</g>
</g>
<!-- Node1&#45;&gt;Node5 -->
<g id="edge4" class="edge">
<title>Node1&#45;&gt;Node5</title>
<path fill="none" stroke="midnightblue" d="M195.22,-112.45C206.3,-102.43 218.72,-91.21 228.44,-82.42"/>
<polygon fill="midnightblue" stroke="midnightblue" points="230.81,-85 235.88,-75.7 226.11,-79.8 230.81,-85"/>
</g>
<!-- Node7 -->
<g id="node7" class="node">
<title>Node7</title>
<g id="a_node7"><a xlink:href="types_8hpp.html" target="_top" xlink:title="This file defines common types used in ArgoDSM.">
<polygon fill="white" stroke="black" points="302,-56.5 302,-75.5 397,-75.5 397,-56.5 302,-56.5"/>
<text text-anchor="middle" x="349.5" y="-63.5" font-family="Helvetica,sans-Serif" font-size="10.00">types/types.hpp</text>
</a>
</g>
</g>
<!-- Node1&#45;&gt;Node7 -->
<g id="edge6" class="edge">
<title>Node1&#45;&gt;Node7</title>
<path fill="none" stroke="midnightblue" d="M232.18,-112.45C261.32,-101.16 294.41,-88.34 318,-79.2"/>
<polygon fill="midnightblue" stroke="midnightblue" points="319.43,-82.4 327.49,-75.53 316.9,-75.88 319.43,-82.4"/>
</g>
<!-- Node6 -->
<g id="node6" class="node">
<title>Node6</title>
<g id="a_node6"><a xlink:title=" ">
<polygon fill="white" stroke="#bfbfbf" points="219,-0.5 219,-19.5 272,-19.5 272,-0.5 219,-0.5"/>
<text text-anchor="middle" x="245.5" y="-7.5" font-family="Helvetica,sans-Serif" font-size="10.00">cstddef</text>
</a>
</g>
</g>
<!-- Node5&#45;&gt;Node6 -->
<g id="edge5" class="edge">
<title>Node5&#45;&gt;Node6</title>
<path fill="none" stroke="midnightblue" d="M245.5,-56.08C245.5,-49.01 245.5,-38.86 245.5,-29.99"/>
<polygon fill="midnightblue" stroke="midnightblue" points="249,-29.75 245.5,-19.75 242,-29.75 249,-29.75"/>
</g>
</g>
</svg>
