<?xml version="1.0" encoding="UTF-8" standalone="no"?>
<!DOCTYPE svg PUBLIC "-//W3C//DTD SVG 1.1//EN"
 "http://www.w3.org/Graphics/SVG/1.1/DTD/svg11.dtd">
<!-- Generated by graphviz version 2.43.0 (0)
 -->
<!-- Title: /home/projectcs&#45;2022/argodsmBuffer/argodsmPrefetching/src/synchronization/broadcast.hpp Pages: 1 -->
<svg width="2311pt" height="540pt"
 viewBox="0.00 0.00 2311.00 540.00" xmlns="http://www.w3.org/2000/svg" xmlns:xlink="http://www.w3.org/1999/xlink">
<g id="graph0" class="graph" transform="scale(1 1) rotate(0) translate(4 536)">
<title>/home/projectcs&#45;2022/argodsmBuffer/argodsmPrefetching/src/synchronization/broadcast.hpp</title>
<polygon fill="white" stroke="transparent" points="-4,4 -4,-536 2307,-536 2307,4 -4,4"/>
<!-- Node1 -->
<g id="node1" class="node">
<title>Node1</title>
<g id="a_node1"><a xlink:title="This file provides a broadcasting facility for a single value.">
<polygon fill="#bfbfbf" stroke="black" points="983,-490.5 983,-531.5 1176,-531.5 1176,-490.5 983,-490.5"/>
<text text-anchor="start" x="991" y="-519.5" font-family="Helvetica,sans-Serif" font-size="10.00">/home/projectcs&#45;2022</text>
<text text-anchor="start" x="991" y="-508.5" font-family="Helvetica,sans-Serif" font-size="10.00">/argodsmBuffer/argodsmPrefetching</text>
<text text-anchor="middle" x="1079.5" y="-497.5" font-family="Helvetica,sans-Serif" font-size="10.00">/src/synchronization/broadcast.hpp</text>
</a>
</g>
</g>
<!-- Node2 -->
<g id="node2" class="node">
<title>Node2</title>
<g id="a_node2"><a xlink:href="dynamic__mempool_8hpp.html" target="_top" xlink:title="This file provides a dynamically growing memory pool for ArgoDSM.">
<polygon fill="white" stroke="black" points="789.5,-412.5 789.5,-453.5 995.5,-453.5 995.5,-412.5 789.5,-412.5"/>
<text text-anchor="start" x="797.5" y="-441.5" font-family="Helvetica,sans-Serif" font-size="10.00">/home/projectcs&#45;2022</text>
<text text-anchor="start" x="797.5" y="-430.5" font-family="Helvetica,sans-Serif" font-size="10.00">/argodsmBuffer/argodsmPrefetching</text>
<text text-anchor="middle" x="892.5" y="-419.5" font-family="Helvetica,sans-Serif" font-size="10.00">/src/mempools/dynamic_mempool.hpp</text>
</a>
</g>
</g>
<!-- Node1&#45;&gt;Node2 -->
<g id="edge1" class="edge">
<title>Node1&#45;&gt;Node2</title>
<path fill="none" stroke="midnightblue" d="M1021.94,-486.61C995.84,-476 965.34,-463.6 940.49,-453.51"/>
<polygon fill="midnightblue" stroke="midnightblue" points="1020.76,-489.91 1031.34,-490.43 1023.4,-483.42 1020.76,-489.91"/>
</g>
<!-- Node21 -->
<g id="node21" class="node">
<title>Node21</title>
<g id="a_node21"><a xlink:href="synchronization_8hpp.html" target="_top" xlink:title="This file provides synchronization primitives for ArgoDSM.">
<polygon fill="white" stroke="black" points="1159,-412.5 1159,-453.5 1374,-453.5 1374,-412.5 1159,-412.5"/>
<text text-anchor="start" x="1167" y="-441.5" font-family="Helvetica,sans-Serif" font-size="10.00">/home/projectcs&#45;2022</text>
<text text-anchor="start" x="1167" y="-430.5" font-family="Helvetica,sans-Serif" font-size="10.00">/argodsmBuffer/argodsmPrefetching</text>
<text text-anchor="middle" x="1266.5" y="-419.5" font-family="Helvetica,sans-Serif" font-size="10.00">/src/synchronization/synchronization.hpp</text>
</a>
</g>
</g>
<!-- Node1&#45;&gt;Node21 -->
<g id="edge30" class="edge">
<title>Node1&#45;&gt;Node21</title>
<path fill="none" stroke="midnightblue" d="M1137.06,-486.61C1163.16,-476 1193.66,-463.6 1218.51,-453.51"/>
<polygon fill="midnightblue" stroke="midnightblue" points="1135.6,-483.42 1127.66,-490.43 1138.24,-489.91 1135.6,-483.42"/>
</g>
<!-- Node3 -->
<g id="node3" class="node">
<title>Node3</title>
<g id="a_node3"><a xlink:href="collective__allocator_8hpp.html" target="_top" xlink:title="This file provides the collective allocator for ArgoDSM.">
<polygon fill="white" stroke="black" points="637,-256.5 637,-297.5 840,-297.5 840,-256.5 637,-256.5"/>
<text text-anchor="start" x="645" y="-285.5" font-family="Helvetica,sans-Serif" font-size="10.00">/home/projectcs&#45;2022</text>
<text text-anchor="start" x="645" y="-274.5" font-family="Helvetica,sans-Serif" font-size="10.00">/argodsmBuffer/argodsmPrefetching</text>
<text text-anchor="middle" x="738.5" y="-263.5" font-family="Helvetica,sans-Serif" font-size="10.00">/src/allocators/collective_allocator.hpp</text>
</a>
</g>
</g>
<!-- Node2&#45;&gt;Node3 -->
<g id="edge2" class="edge">
<title>Node2&#45;&gt;Node3</title>
<path fill="none" stroke="midnightblue" d="M829.12,-407.82C813.13,-399.53 796.98,-388.98 784.5,-376 763.01,-353.64 750.11,-319.39 743.66,-297.87"/>
<polygon fill="midnightblue" stroke="midnightblue" points="827.96,-411.16 838.48,-412.45 831.06,-404.88 827.96,-411.16"/>
</g>
<!-- Node20 -->
<g id="node20" class="node">
<title>Node20</title>
<g id="a_node20"><a xlink:href="dynamic__allocator_8hpp.html" target="_top" xlink:title="This file provides the dynamic allocator for ArgoDSM.">
<polygon fill="white" stroke="black" points="793.5,-334.5 793.5,-375.5 991.5,-375.5 991.5,-334.5 793.5,-334.5"/>
<text text-anchor="start" x="801.5" y="-363.5" font-family="Helvetica,sans-Serif" font-size="10.00">/home/projectcs&#45;2022</text>
<text text-anchor="start" x="801.5" y="-352.5" font-family="Helvetica,sans-Serif" font-size="10.00">/argodsmBuffer/argodsmPrefetching</text>
<text text-anchor="middle" x="892.5" y="-341.5" font-family="Helvetica,sans-Serif" font-size="10.00">/src/allocators/dynamic_allocator.hpp</text>
</a>
</g>
</g>
<!-- Node2&#45;&gt;Node20 -->
<g id="edge26" class="edge">
<title>Node2&#45;&gt;Node20</title>
<path fill="none" stroke="midnightblue" d="M892.5,-402.3C892.5,-393.3 892.5,-383.65 892.5,-375.51"/>
<polygon fill="midnightblue" stroke="midnightblue" points="889,-402.43 892.5,-412.43 896,-402.43 889,-402.43"/>
</g>
<!-- Node4 -->
<g id="node4" class="node">
<title>Node4</title>
<g id="a_node4"><a xlink:href="allocators_8hpp.html" target="_top" xlink:title="This file provides all C++ allocators for ArgoDSM.">
<polygon fill="white" stroke="black" points="796,-173 796,-214 989,-214 989,-173 796,-173"/>
<text text-anchor="start" x="804" y="-202" font-family="Helvetica,sans-Serif" font-size="10.00">/home/projectcs&#45;2022</text>
<text text-anchor="start" x="804" y="-191" font-family="Helvetica,sans-Serif" font-size="10.00">/argodsmBuffer/argodsmPrefetching</text>
<text text-anchor="middle" x="892.5" y="-180" font-family="Helvetica,sans-Serif" font-size="10.00">/src/allocators/allocators.hpp</text>
</a>
</g>
</g>
<!-- Node3&#45;&gt;Node4 -->
<g id="edge3" class="edge">
<title>Node3&#45;&gt;Node4</title>
<path fill="none" stroke="midnightblue" d="M784.51,-251.65C807.24,-239.62 834.3,-225.3 855.65,-214"/>
<polygon fill="midnightblue" stroke="midnightblue" points="782.59,-248.71 775.39,-256.48 785.86,-254.89 782.59,-248.71"/>
</g>
<!-- Node7 -->
<g id="node7" class="node">
<title>Node7</title>
<g id="a_node7"><a xlink:href="argo_8cpp.html" target="_top" xlink:title="This file implements some of the basic ArgoDSM calls.">
<polygon fill="white" stroke="black" points="2110,-0.5 2110,-41.5 2303,-41.5 2303,-0.5 2110,-0.5"/>
<text text-anchor="start" x="2118" y="-29.5" font-family="Helvetica,sans-Serif" font-size="10.00">/home/projectcs&#45;2022</text>
<text text-anchor="start" x="2118" y="-18.5" font-family="Helvetica,sans-Serif" font-size="10.00">/argodsmBuffer/argodsmPrefetching</text>
<text text-anchor="middle" x="2206.5" y="-7.5" font-family="Helvetica,sans-Serif" font-size="10.00">/src/argo.cpp</text>
</a>
</g>
</g>
<!-- Node3&#45;&gt;Node7 -->
<g id="edge17" class="edge">
<title>Node3&#45;&gt;Node7</title>
<path fill="none" stroke="midnightblue" d="M850.21,-256.58C896.32,-247.34 949.99,-235.01 997.5,-220 1094.55,-189.33 1118.53,-178.58 1208.5,-131 1246.86,-110.71 1249.16,-91.2 1290.5,-78 1462.35,-23.13 1922.32,-62.93 2101.5,-42 2104.26,-41.68 2107.07,-41.32 2109.89,-40.94"/>
<polygon fill="midnightblue" stroke="midnightblue" points="849.32,-253.19 840.19,-258.56 850.68,-260.05 849.32,-253.19"/>
</g>
<!-- Node8 -->
<g id="node8" class="node">
<title>Node8</title>
<g id="a_node8"><a xlink:href="tests_2allocators_8cpp.html" target="_top" xlink:title="This file provides unit tests for the ArgoDSM allocators and memory pools.">
<polygon fill="white" stroke="black" points="844,-0.5 844,-41.5 1037,-41.5 1037,-0.5 844,-0.5"/>
<text text-anchor="start" x="852" y="-29.5" font-family="Helvetica,sans-Serif" font-size="10.00">/home/projectcs&#45;2022</text>
<text text-anchor="start" x="852" y="-18.5" font-family="Helvetica,sans-Serif" font-size="10.00">/argodsmBuffer/argodsmPrefetching</text>
<text text-anchor="middle" x="940.5" y="-7.5" font-family="Helvetica,sans-Serif" font-size="10.00">/tests/allocators.cpp</text>
</a>
</g>
</g>
<!-- Node3&#45;&gt;Node8 -->
<g id="edge21" class="edge">
<title>Node3&#45;&gt;Node8</title>
<path fill="none" stroke="midnightblue" d="M744.9,-246.41C756.62,-192.75 780.83,-84.33 786.5,-78 801.68,-61.04 822.41,-49.21 843.74,-40.96"/>
<polygon fill="midnightblue" stroke="midnightblue" points="741.44,-245.84 742.74,-256.36 748.28,-247.33 741.44,-245.84"/>
</g>
<!-- Node9 -->
<g id="node9" class="node">
<title>Node9</title>
<g id="a_node9"><a xlink:href="api_8cpp.html" target="_top" xlink:title="This file provides unit tests for the ArgoDSM API functions.">
<polygon fill="white" stroke="black" points="211,-0.5 211,-41.5 404,-41.5 404,-0.5 211,-0.5"/>
<text text-anchor="start" x="219" y="-29.5" font-family="Helvetica,sans-Serif" font-size="10.00">/home/projectcs&#45;2022</text>
<text text-anchor="start" x="219" y="-18.5" font-family="Helvetica,sans-Serif" font-size="10.00">/argodsmBuffer/argodsmPrefetching</text>
<text text-anchor="middle" x="307.5" y="-7.5" font-family="Helvetica,sans-Serif" font-size="10.00">/tests/api.cpp</text>
</a>
</g>
</g>
<!-- Node3&#45;&gt;Node9 -->
<g id="edge22" class="edge">
<title>Node3&#45;&gt;Node9</title>
<path fill="none" stroke="midnightblue" d="M695.6,-251.1C680.64,-241.87 663.97,-230.97 649.5,-220 574.51,-163.18 574.4,-124.31 492.5,-78 464.31,-62.06 431.09,-50.18 400.63,-41.57"/>
<polygon fill="midnightblue" stroke="midnightblue" points="693.83,-254.11 704.19,-256.32 697.47,-248.13 693.83,-254.11"/>
</g>
<!-- Node12 -->
<g id="node12" class="node">
<title>Node12</title>
<g id="a_node12"><a xlink:href="lock_8cpp.html" target="_top" xlink:title="This file provides unit tests for the ArgoDSM locks.">
<polygon fill="white" stroke="black" points="0,-0.5 0,-41.5 193,-41.5 193,-0.5 0,-0.5"/>
<text text-anchor="start" x="8" y="-29.5" font-family="Helvetica,sans-Serif" font-size="10.00">/home/projectcs&#45;2022</text>
<text text-anchor="start" x="8" y="-18.5" font-family="Helvetica,sans-Serif" font-size="10.00">/argodsmBuffer/argodsmPrefetching</text>
<text text-anchor="middle" x="96.5" y="-7.5" font-family="Helvetica,sans-Serif" font-size="10.00">/tests/lock.cpp</text>
</a>
</g>
</g>
<!-- Node3&#45;&gt;Node12 -->
<g id="edge23" class="edge">
<title>Node3&#45;&gt;Node12</title>
<path fill="none" stroke="midnightblue" d="M626.59,-271.02C511.14,-264.35 339.94,-249.73 281.5,-220 198.69,-177.87 133.54,-82.9 108.09,-41.69"/>
<polygon fill="midnightblue" stroke="midnightblue" points="626.71,-274.53 636.89,-271.6 627.1,-267.55 626.71,-274.53"/>
</g>
<!-- Node13 -->
<g id="node13" class="node">
<title>Node13</title>
<g id="a_node13"><a xlink:href="omp_8cpp.html" target="_top" xlink:title="This file provides tests using OpenMP in ArgoDSM.">
<polygon fill="white" stroke="black" points="422,-0.5 422,-41.5 615,-41.5 615,-0.5 422,-0.5"/>
<text text-anchor="start" x="430" y="-29.5" font-family="Helvetica,sans-Serif" font-size="10.00">/home/projectcs&#45;2022</text>
<text text-anchor="start" x="430" y="-18.5" font-family="Helvetica,sans-Serif" font-size="10.00">/argodsmBuffer/argodsmPrefetching</text>
<text text-anchor="middle" x="518.5" y="-7.5" font-family="Helvetica,sans-Serif" font-size="10.00">/tests/omp.cpp</text>
</a>
</g>
</g>
<!-- Node3&#45;&gt;Node13 -->
<g id="edge24" class="edge">
<title>Node3&#45;&gt;Node13</title>
<path fill="none" stroke="midnightblue" d="M716.78,-248.14C686.1,-209.17 627.86,-136.61 574.5,-78 563.11,-65.5 549.74,-52.08 538.92,-41.51"/>
<polygon fill="midnightblue" stroke="midnightblue" points="714.32,-250.68 723.25,-256.38 719.83,-246.35 714.32,-250.68"/>
</g>
<!-- Node14 -->
<g id="node14" class="node">
<title>Node14</title>
<g id="a_node14"><a xlink:href="prefetch_8cpp.html" target="_top" xlink:title="This file provides unit tests for the ArgoDSM prefetch mechanism.">
<polygon fill="white" stroke="black" points="633,-0.5 633,-41.5 826,-41.5 826,-0.5 633,-0.5"/>
<text text-anchor="start" x="641" y="-29.5" font-family="Helvetica,sans-Serif" font-size="10.00">/home/projectcs&#45;2022</text>
<text text-anchor="start" x="641" y="-18.5" font-family="Helvetica,sans-Serif" font-size="10.00">/argodsmBuffer/argodsmPrefetching</text>
<text text-anchor="middle" x="729.5" y="-7.5" font-family="Helvetica,sans-Serif" font-size="10.00">/tests/prefetch.cpp</text>
</a>
</g>
</g>
<!-- Node3&#45;&gt;Node14 -->
<g id="edge25" class="edge">
<title>Node3&#45;&gt;Node14</title>
<path fill="none" stroke="midnightblue" d="M737.45,-246.48C735.59,-194.01 731.76,-85.87 730.19,-41.58"/>
<polygon fill="midnightblue" stroke="midnightblue" points="733.96,-246.62 737.81,-256.49 740.95,-246.37 733.96,-246.62"/>
</g>
<!-- Node18 -->
<g id="node18" class="node">
<title>Node18</title>
<g id="a_node18"><a xlink:href="cohort__lock_8hpp.html" target="_top" xlink:title="This file provides a cohort lock for the ArgoDSM system.">
<polygon fill="white" stroke="black" points="291,-167.5 291,-219.5 484,-219.5 484,-167.5 291,-167.5"/>
<text text-anchor="start" x="299" y="-207.5" font-family="Helvetica,sans-Serif" font-size="10.00">/home/projectcs&#45;2022</text>
<text text-anchor="start" x="299" y="-196.5" font-family="Helvetica,sans-Serif" font-size="10.00">/argodsmBuffer/argodsmPrefetching</text>
<text text-anchor="start" x="299" y="-185.5" font-family="Helvetica,sans-Serif" font-size="10.00">/src/synchronization/cohort</text>
<text text-anchor="middle" x="387.5" y="-174.5" font-family="Helvetica,sans-Serif" font-size="10.00">_lock.hpp</text>
</a>
</g>
</g>
<!-- Node3&#45;&gt;Node18 -->
<g id="edge18" class="edge">
<title>Node3&#45;&gt;Node18</title>
<path fill="none" stroke="midnightblue" d="M644.66,-254.21C595.06,-242.69 534.26,-228.58 484.24,-216.96"/>
<polygon fill="midnightblue" stroke="midnightblue" points="643.89,-257.63 654.43,-256.48 645.48,-250.81 643.89,-257.63"/>
</g>
<!-- Node5 -->
<g id="node5" class="node">
<title>Node5</title>
<g id="a_node5"><a xlink:href="src_2allocators_2allocators_8cpp.html" target="_top" xlink:title="This file provides the default allocators.">
<polygon fill="white" stroke="black" points="796,-84 796,-125 989,-125 989,-84 796,-84"/>
<text text-anchor="start" x="804" y="-113" font-family="Helvetica,sans-Serif" font-size="10.00">/home/projectcs&#45;2022</text>
<text text-anchor="start" x="804" y="-102" font-family="Helvetica,sans-Serif" font-size="10.00">/argodsmBuffer/argodsmPrefetching</text>
<text text-anchor="middle" x="892.5" y="-91" font-family="Helvetica,sans-Serif" font-size="10.00">/src/allocators/allocators.cpp</text>
</a>
</g>
</g>
<!-- Node4&#45;&gt;Node5 -->
<g id="edge4" class="edge">
<title>Node4&#45;&gt;Node5</title>
<path fill="none" stroke="midnightblue" d="M892.5,-162.44C892.5,-150.1 892.5,-136.16 892.5,-125.16"/>
<polygon fill="midnightblue" stroke="midnightblue" points="889,-162.76 892.5,-172.76 896,-162.76 889,-162.76"/>
</g>
<!-- Node6 -->
<g id="node6" class="node">
<title>Node6</title>
<g id="a_node6"><a xlink:href="argo_8hpp.html" target="_top" xlink:title="This file provides the full C++ interface to ArgoDSM.">
<polygon fill="white" stroke="black" points="1007,-84 1007,-125 1200,-125 1200,-84 1007,-84"/>
<text text-anchor="start" x="1015" y="-113" font-family="Helvetica,sans-Serif" font-size="10.00">/home/projectcs&#45;2022</text>
<text text-anchor="start" x="1015" y="-102" font-family="Helvetica,sans-Serif" font-size="10.00">/argodsmBuffer/argodsmPrefetching</text>
<text text-anchor="middle" x="1103.5" y="-91" font-family="Helvetica,sans-Serif" font-size="10.00">/src/argo.hpp</text>
</a>
</g>
</g>
<!-- Node4&#45;&gt;Node6 -->
<g id="edge5" class="edge">
<title>Node4&#45;&gt;Node6</title>
<path fill="none" stroke="midnightblue" d="M949.46,-169.01C982.79,-155.27 1024.38,-138.12 1055.94,-125.11"/>
<polygon fill="midnightblue" stroke="midnightblue" points="947.76,-165.93 939.85,-172.98 950.43,-172.4 947.76,-165.93"/>
</g>
<!-- Node6&#45;&gt;Node7 -->
<g id="edge6" class="edge">
<title>Node6&#45;&gt;Node7</title>
<path fill="none" stroke="midnightblue" d="M1190.16,-81.98C1198.35,-80.43 1206.56,-79.06 1214.5,-78 1605.55,-25.61 1709.53,-87.03 2101.5,-42 2104.27,-41.68 2107.07,-41.33 2109.89,-40.96"/>
<polygon fill="midnightblue" stroke="midnightblue" points="1189.32,-78.57 1180.19,-83.94 1190.68,-85.44 1189.32,-78.57"/>
</g>
<!-- Node6&#45;&gt;Node8 -->
<g id="edge7" class="edge">
<title>Node6&#45;&gt;Node8</title>
<path fill="none" stroke="midnightblue" d="M1055.44,-79.47C1031.25,-67.37 1002.3,-52.9 979.51,-41.5"/>
<polygon fill="midnightblue" stroke="midnightblue" points="1053.95,-82.64 1064.46,-83.98 1057.08,-76.38 1053.95,-82.64"/>
</g>
<!-- Node6&#45;&gt;Node9 -->
<g id="edge8" class="edge">
<title>Node6&#45;&gt;Node9</title>
<path fill="none" stroke="midnightblue" d="M1019.38,-81.86C1012.01,-80.39 1004.64,-79.07 997.5,-78 739.89,-39.39 670.96,-74.44 412.5,-42 409.74,-41.65 406.94,-41.28 404.12,-40.88"/>
<polygon fill="midnightblue" stroke="midnightblue" points="1018.9,-85.33 1029.4,-83.94 1020.33,-78.48 1018.9,-85.33"/>
</g>
<!-- Node10 -->
<g id="node10" class="node">
<title>Node10</title>
<g id="a_node10"><a xlink:href="backend_8cpp.html" target="_top" xlink:title="This file provides tests for the backends.">
<polygon fill="white" stroke="black" points="1477,-0.5 1477,-41.5 1670,-41.5 1670,-0.5 1477,-0.5"/>
<text text-anchor="start" x="1485" y="-29.5" font-family="Helvetica,sans-Serif" font-size="10.00">/home/projectcs&#45;2022</text>
<text text-anchor="start" x="1485" y="-18.5" font-family="Helvetica,sans-Serif" font-size="10.00">/argodsmBuffer/argodsmPrefetching</text>
<text text-anchor="middle" x="1573.5" y="-7.5" font-family="Helvetica,sans-Serif" font-size="10.00">/tests/backend.cpp</text>
</a>
</g>
</g>
<!-- Node6&#45;&gt;Node10 -->
<g id="edge9" class="edge">
<title>Node6&#45;&gt;Node10</title>
<path fill="none" stroke="midnightblue" d="M1194.68,-81.9C1201.37,-80.52 1208.03,-79.2 1214.5,-78 1326.61,-57.22 1356.02,-60.67 1468.5,-42 1471.25,-41.54 1474.03,-41.07 1476.84,-40.59"/>
<polygon fill="midnightblue" stroke="midnightblue" points="1193.93,-78.48 1184.87,-83.97 1195.38,-85.33 1193.93,-78.48"/>
</g>
<!-- Node11 -->
<g id="node11" class="node">
<title>Node11</title>
<g id="a_node11"><a xlink:href="barrier_8cpp.html" target="_top" xlink:title="This file provides tests for the barrier synchronization.">
<polygon fill="white" stroke="black" points="1688,-0.5 1688,-41.5 1881,-41.5 1881,-0.5 1688,-0.5"/>
<text text-anchor="start" x="1696" y="-29.5" font-family="Helvetica,sans-Serif" font-size="10.00">/home/projectcs&#45;2022</text>
<text text-anchor="start" x="1696" y="-18.5" font-family="Helvetica,sans-Serif" font-size="10.00">/argodsmBuffer/argodsmPrefetching</text>
<text text-anchor="middle" x="1784.5" y="-7.5" font-family="Helvetica,sans-Serif" font-size="10.00">/tests/barrier.cpp</text>
</a>
</g>
</g>
<!-- Node6&#45;&gt;Node11 -->
<g id="edge10" class="edge">
<title>Node6&#45;&gt;Node11</title>
<path fill="none" stroke="midnightblue" d="M1191.79,-81.97C1199.45,-80.49 1207.09,-79.13 1214.5,-78 1419.41,-46.71 1474.04,-69.43 1679.5,-42 1682.26,-41.63 1685.06,-41.24 1687.87,-40.82"/>
<polygon fill="midnightblue" stroke="midnightblue" points="1190.86,-78.59 1181.75,-84 1192.24,-85.45 1190.86,-78.59"/>
</g>
<!-- Node6&#45;&gt;Node12 -->
<g id="edge11" class="edge">
<title>Node6&#45;&gt;Node12</title>
<path fill="none" stroke="midnightblue" d="M1020.25,-81.9C1012.6,-80.39 1004.93,-79.05 997.5,-78 646.86,-28.36 553.23,-83.24 201.5,-42 198.74,-41.68 195.93,-41.32 193.11,-40.94"/>
<polygon fill="midnightblue" stroke="midnightblue" points="1019.79,-85.38 1030.29,-83.97 1021.2,-78.52 1019.79,-85.38"/>
</g>
<!-- Node6&#45;&gt;Node13 -->
<g id="edge12" class="edge">
<title>Node6&#45;&gt;Node13</title>
<path fill="none" stroke="midnightblue" d="M1017.86,-81.82C1011,-80.41 1004.15,-79.11 997.5,-78 832.81,-50.4 788.81,-65.65 623.5,-42 620.74,-41.61 617.95,-41.19 615.13,-40.75"/>
<polygon fill="midnightblue" stroke="midnightblue" points="1017.4,-85.3 1027.91,-83.95 1018.86,-78.45 1017.4,-85.3"/>
</g>
<!-- Node6&#45;&gt;Node14 -->
<g id="edge13" class="edge">
<title>Node6&#45;&gt;Node14</title>
<path fill="none" stroke="midnightblue" d="M1013.58,-81.67C1008.14,-80.41 1002.75,-79.18 997.5,-78 940.81,-65.26 877.14,-51.92 826.1,-41.45"/>
<polygon fill="midnightblue" stroke="midnightblue" points="1012.87,-85.1 1023.4,-83.96 1014.45,-78.28 1012.87,-85.1"/>
</g>
<!-- Node15 -->
<g id="node15" class="node">
<title>Node15</title>
<g id="a_node15"><a xlink:href="stlallocation_8cpp.html" target="_top" xlink:title="This file provides tests using C++ interfaces in ArgoDSM.">
<polygon fill="white" stroke="black" points="1899,-0.5 1899,-41.5 2092,-41.5 2092,-0.5 1899,-0.5"/>
<text text-anchor="start" x="1907" y="-29.5" font-family="Helvetica,sans-Serif" font-size="10.00">/home/projectcs&#45;2022</text>
<text text-anchor="start" x="1907" y="-18.5" font-family="Helvetica,sans-Serif" font-size="10.00">/argodsmBuffer/argodsmPrefetching</text>
<text text-anchor="middle" x="1995.5" y="-7.5" font-family="Helvetica,sans-Serif" font-size="10.00">/tests/stlallocation.cpp</text>
</a>
</g>
</g>
<!-- Node6&#45;&gt;Node15 -->
<g id="edge14" class="edge">
<title>Node6&#45;&gt;Node15</title>
<path fill="none" stroke="midnightblue" d="M1190.87,-81.95C1198.83,-80.44 1206.79,-79.08 1214.5,-78 1512.45,-36.16 1591.82,-78.23 1890.5,-42 1893.26,-41.66 1896.06,-41.3 1898.89,-40.91"/>
<polygon fill="midnightblue" stroke="midnightblue" points="1189.94,-78.57 1180.81,-83.95 1191.3,-85.43 1189.94,-78.57"/>
</g>
<!-- Node16 -->
<g id="node16" class="node">
<title>Node16</title>
<g id="a_node16"><a xlink:href="trivial_8cpp.html" target="_top" xlink:title="This file provides unit tests for trivial sanity checks when using ArgoDSM.">
<polygon fill="white" stroke="black" points="1055,-0.5 1055,-41.5 1248,-41.5 1248,-0.5 1055,-0.5"/>
<text text-anchor="start" x="1063" y="-29.5" font-family="Helvetica,sans-Serif" font-size="10.00">/home/projectcs&#45;2022</text>
<text text-anchor="start" x="1063" y="-18.5" font-family="Helvetica,sans-Serif" font-size="10.00">/argodsmBuffer/argodsmPrefetching</text>
<text text-anchor="middle" x="1151.5" y="-7.5" font-family="Helvetica,sans-Serif" font-size="10.00">/tests/trivial.cpp</text>
</a>
</g>
</g>
<!-- Node6&#45;&gt;Node16 -->
<g id="edge15" class="edge">
<title>Node6&#45;&gt;Node16</title>
<path fill="none" stroke="midnightblue" d="M1120.35,-74.89C1126.84,-63.87 1134.11,-51.53 1139.99,-41.55"/>
<polygon fill="midnightblue" stroke="midnightblue" points="1117.18,-73.38 1115.12,-83.77 1123.21,-76.93 1117.18,-73.38"/>
</g>
<!-- Node17 -->
<g id="node17" class="node">
<title>Node17</title>
<g id="a_node17"><a xlink:href="uninitialized_8cpp.html" target="_top" xlink:title="This file provides unit tests for accessing ArgoDSM memory in various ways.">
<polygon fill="white" stroke="black" points="1266,-0.5 1266,-41.5 1459,-41.5 1459,-0.5 1266,-0.5"/>
<text text-anchor="start" x="1274" y="-29.5" font-family="Helvetica,sans-Serif" font-size="10.00">/home/projectcs&#45;2022</text>
<text text-anchor="start" x="1274" y="-18.5" font-family="Helvetica,sans-Serif" font-size="10.00">/argodsmBuffer/argodsmPrefetching</text>
<text text-anchor="middle" x="1362.5" y="-7.5" font-family="Helvetica,sans-Serif" font-size="10.00">/tests/uninitialized.cpp</text>
</a>
</g>
</g>
<!-- Node6&#45;&gt;Node17 -->
<g id="edge16" class="edge">
<title>Node6&#45;&gt;Node17</title>
<path fill="none" stroke="midnightblue" d="M1175.33,-80.9C1214.64,-68.53 1262.87,-53.35 1300.52,-41.5"/>
<polygon fill="midnightblue" stroke="midnightblue" points="1174.03,-77.64 1165.54,-83.98 1176.13,-84.32 1174.03,-77.64"/>
</g>
<!-- Node18&#45;&gt;Node12 -->
<g id="edge20" class="edge">
<title>Node18&#45;&gt;Node12</title>
<path fill="none" stroke="midnightblue" d="M334.08,-162.41C317.13,-152.62 298.4,-141.56 281.5,-131 245.64,-108.6 238.8,-99.68 202.5,-78 180.88,-65.09 156.02,-51.87 135.81,-41.52"/>
<polygon fill="midnightblue" stroke="midnightblue" points="332.35,-165.45 342.76,-167.4 335.84,-159.39 332.35,-165.45"/>
</g>
<!-- Node19 -->
<g id="node19" class="node">
<title>Node19</title>
<g id="a_node19"><a xlink:href="cohort__lock_8cpp.html" target="_top" xlink:title="This file provides a C interface for ArgoDSM&#45;based cohort locks.">
<polygon fill="white" stroke="black" points="291,-78.5 291,-130.5 484,-130.5 484,-78.5 291,-78.5"/>
<text text-anchor="start" x="299" y="-118.5" font-family="Helvetica,sans-Serif" font-size="10.00">/home/projectcs&#45;2022</text>
<text text-anchor="start" x="299" y="-107.5" font-family="Helvetica,sans-Serif" font-size="10.00">/argodsmBuffer/argodsmPrefetching</text>
<text text-anchor="start" x="299" y="-96.5" font-family="Helvetica,sans-Serif" font-size="10.00">/src/synchronization/cohort</text>
<text text-anchor="middle" x="387.5" y="-85.5" font-family="Helvetica,sans-Serif" font-size="10.00">_lock.cpp</text>
</a>
</g>
</g>
<!-- Node18&#45;&gt;Node19 -->
<g id="edge19" class="edge">
<title>Node18&#45;&gt;Node19</title>
<path fill="none" stroke="midnightblue" d="M387.5,-157.19C387.5,-148.28 387.5,-138.9 387.5,-130.61"/>
<polygon fill="midnightblue" stroke="midnightblue" points="384,-157.34 387.5,-167.34 391,-157.34 384,-157.34"/>
</g>
<!-- Node20&#45;&gt;Node3 -->
<g id="edge28" class="edge">
<title>Node20&#45;&gt;Node3</title>
<path fill="none" stroke="midnightblue" d="M843.68,-329.91C822.51,-319.46 798.03,-307.38 778.02,-297.51"/>
<polygon fill="midnightblue" stroke="midnightblue" points="842.32,-333.14 852.84,-334.43 845.42,-326.86 842.32,-333.14"/>
</g>
<!-- Node20&#45;&gt;Node4 -->
<g id="edge27" class="edge">
<title>Node20&#45;&gt;Node4</title>
<path fill="none" stroke="midnightblue" d="M892.5,-324.3C892.5,-292.16 892.5,-241.81 892.5,-214.22"/>
<polygon fill="midnightblue" stroke="midnightblue" points="889,-324.44 892.5,-334.44 896,-324.44 889,-324.44"/>
</g>
<!-- Node20&#45;&gt;Node7 -->
<g id="edge29" class="edge">
<title>Node20&#45;&gt;Node7</title>
<path fill="none" stroke="midnightblue" d="M979.6,-331.99C1221.65,-270.84 1899.64,-99.53 2129.31,-41.5"/>
<polygon fill="midnightblue" stroke="midnightblue" points="978.63,-328.63 969.79,-334.47 980.34,-335.41 978.63,-328.63"/>
</g>
<!-- Node21&#45;&gt;Node6 -->
<g id="edge31" class="edge">
<title>Node21&#45;&gt;Node6</title>
<path fill="none" stroke="midnightblue" d="M1251.89,-402.73C1219.21,-337.27 1140.91,-180.43 1113.32,-125.17"/>
<polygon fill="midnightblue" stroke="midnightblue" points="1248.95,-404.68 1256.55,-412.07 1255.21,-401.56 1248.95,-404.68"/>
</g>
<!-- Node22 -->
<g id="node22" class="node">
<title>Node22</title>
<g id="a_node22"><a xlink:href="synchronization_8cpp.html" target="_top" xlink:title="This file implements synchronization primitives for ArgoDSM.">
<polygon fill="white" stroke="black" points="1295,-334.5 1295,-375.5 1510,-375.5 1510,-334.5 1295,-334.5"/>
<text text-anchor="start" x="1303" y="-363.5" font-family="Helvetica,sans-Serif" font-size="10.00">/home/projectcs&#45;2022</text>
<text text-anchor="start" x="1303" y="-352.5" font-family="Helvetica,sans-Serif" font-size="10.00">/argodsmBuffer/argodsmPrefetching</text>
<text text-anchor="middle" x="1402.5" y="-341.5" font-family="Helvetica,sans-Serif" font-size="10.00">/src/synchronization/synchronization.cpp</text>
</a>
</g>
</g>
<!-- Node21&#45;&gt;Node22 -->
<g id="edge32" class="edge">
<title>Node21&#45;&gt;Node22</title>
<path fill="none" stroke="midnightblue" d="M1310.37,-407.49C1328.89,-397.13 1350.16,-385.25 1367.6,-375.51"/>
<polygon fill="midnightblue" stroke="midnightblue" points="1308.55,-404.49 1301.52,-412.43 1311.96,-410.61 1308.55,-404.49"/>
</g>
</g>
</svg>
