<?xml version="1.0" encoding="UTF-8" standalone="no"?>
<!DOCTYPE svg PUBLIC "-//W3C//DTD SVG 1.1//EN"
 "http://www.w3.org/Graphics/SVG/1.1/DTD/svg11.dtd">
<!-- Generated by graphviz version 2.43.0 (0)
 -->
<!-- Title: argo::globallock::global_tas_lock::unlock Pages: 1 -->
<svg width="483pt" height="137pt"
 viewBox="0.00 0.00 483.00 137.00" xmlns="http://www.w3.org/2000/svg" xmlns:xlink="http://www.w3.org/1999/xlink">
<g id="graph0" class="graph" transform="scale(1 1) rotate(0) translate(4 133)">
<title>argo::globallock::global_tas_lock::unlock</title>
<polygon fill="white" stroke="transparent" points="-4,4 -4,-133 479,-133 479,4 -4,4"/>
<!-- Node1 -->
<g id="node1" class="node">
<title>Node1</title>
<g id="a_node1"><a xlink:title="release the lock">
<polygon fill="#bfbfbf" stroke="black" points="344,-49.5 344,-79.5 475,-79.5 475,-49.5 344,-49.5"/>
<text text-anchor="start" x="352" y="-67.5" font-family="Helvetica,sans-Serif" font-size="10.00">argo::globallock::global</text>
<text text-anchor="middle" x="409.5" y="-56.5" font-family="Helvetica,sans-Serif" font-size="10.00">_tas_lock::unlock</text>
</a>
</g>
</g>
<!-- Node2 -->
<g id="node2" class="node">
<title>Node2</title>
<g id="a_node2"><a xlink:href="classargo_1_1mempools_1_1global__memory__pool_ac37f5714010e1f4b482e6c6a8a246c05.html#ac37f5714010e1f4b482e6c6a8a246c05" target="_top" xlink:title="check remaining available memory in pool">
<polygon fill="white" stroke="black" points="168,-98.5 168,-128.5 308,-128.5 308,-98.5 168,-98.5"/>
<text text-anchor="start" x="176" y="-116.5" font-family="Helvetica,sans-Serif" font-size="10.00">argo::mempools::global</text>
<text text-anchor="middle" x="238" y="-105.5" font-family="Helvetica,sans-Serif" font-size="10.00">_memory_pool::available</text>
</a>
</g>
</g>
<!-- Node1&#45;&gt;Node2 -->
<g id="edge1" class="edge">
<title>Node1&#45;&gt;Node2</title>
<path fill="none" stroke="midnightblue" d="M346.6,-82.39C328.37,-87.66 308.61,-93.38 291.07,-98.45"/>
<polygon fill="midnightblue" stroke="midnightblue" points="347.63,-85.74 356.26,-79.6 345.68,-79.02 347.63,-85.74"/>
</g>
<!-- Node4 -->
<g id="node4" class="node">
<title>Node4</title>
<g id="a_node4"><a xlink:href="classargo_1_1mempools_1_1global__memory__pool_af2ce384d7ee177371521c875045c565c.html#af2ce384d7ee177371521c875045c565c" target="_top" xlink:title="Reserve more memory.">
<polygon fill="white" stroke="black" points="172,-49.5 172,-79.5 304,-79.5 304,-49.5 172,-49.5"/>
<text text-anchor="start" x="180" y="-67.5" font-family="Helvetica,sans-Serif" font-size="10.00">argo::mempools::global</text>
<text text-anchor="middle" x="238" y="-56.5" font-family="Helvetica,sans-Serif" font-size="10.00">_memory_pool::reserve</text>
</a>
</g>
</g>
<!-- Node1&#45;&gt;Node4 -->
<g id="edge3" class="edge">
<title>Node1&#45;&gt;Node4</title>
<path fill="none" stroke="midnightblue" d="M333.77,-64.5C323.92,-64.5 313.9,-64.5 304.23,-64.5"/>
<polygon fill="midnightblue" stroke="midnightblue" points="333.94,-68 343.94,-64.5 333.94,-61 333.94,-68"/>
</g>
<!-- Node5 -->
<g id="node5" class="node">
<title>Node5</title>
<g id="a_node5"><a xlink:href="classargo_1_1globallock_1_1cohort__lock_ac937f13d00780ca9ff8f4dd826c6c12b.html#ac937f13d00780ca9ff8f4dd826c6c12b" target="_top" xlink:title="Release the lock.">
<polygon fill="white" stroke="black" points="172.5,-0.5 172.5,-30.5 303.5,-30.5 303.5,-0.5 172.5,-0.5"/>
<text text-anchor="start" x="180.5" y="-18.5" font-family="Helvetica,sans-Serif" font-size="10.00">argo::globallock::cohort</text>
<text text-anchor="middle" x="238" y="-7.5" font-family="Helvetica,sans-Serif" font-size="10.00">_lock::unlock</text>
</a>
</g>
</g>
<!-- Node1&#45;&gt;Node5 -->
<g id="edge4" class="edge">
<title>Node1&#45;&gt;Node5</title>
<path fill="none" stroke="midnightblue" d="M346.6,-46.61C328.37,-41.34 308.61,-35.62 291.07,-30.55"/>
<polygon fill="midnightblue" stroke="midnightblue" points="345.68,-49.98 356.26,-49.4 347.63,-43.26 345.68,-49.98"/>
</g>
<!-- Node3 -->
<g id="node3" class="node">
<title>Node3</title>
<g id="a_node3"><a xlink:href="tests_2allocators_8cpp_ab6f86a07c7fdc11016618b4a93bd5045.html#ab6f86a07c7fdc11016618b4a93bd5045" target="_top" xlink:title="Unittest that checks that the global address space is at least as large as requested.">
<polygon fill="white" stroke="black" points="40,-104 40,-123 92,-123 92,-104 40,-104"/>
<text text-anchor="middle" x="66" y="-111" font-family="Helvetica,sans-Serif" font-size="10.00">TEST_F</text>
</a>
</g>
</g>
<!-- Node2&#45;&gt;Node3 -->
<g id="edge2" class="edge">
<title>Node2&#45;&gt;Node3</title>
<path fill="none" stroke="midnightblue" d="M157.78,-113.5C134.13,-113.5 109.88,-113.5 92.4,-113.5"/>
<polygon fill="midnightblue" stroke="midnightblue" points="157.85,-117 167.85,-113.5 157.85,-110 157.85,-117"/>
</g>
<!-- Node6 -->
<g id="node6" class="node">
<title>Node6</title>
<g id="a_node6"><a xlink:href="cohort__lock_8cpp_aecc3694b56dfe7472a345995d7559e89.html#aecc3694b56dfe7472a345995d7559e89" target="_top" xlink:title="unlock a cohort lock">
<polygon fill="white" stroke="black" points="0,-6 0,-25 132,-25 132,-6 0,-6"/>
<text text-anchor="middle" x="66" y="-13" font-family="Helvetica,sans-Serif" font-size="10.00">argo_cohortlock_unlock</text>
</a>
</g>
</g>
<!-- Node5&#45;&gt;Node6 -->
<g id="edge5" class="edge">
<title>Node5&#45;&gt;Node6</title>
<path fill="none" stroke="midnightblue" d="M161.97,-15.5C152.03,-15.5 141.9,-15.5 132.14,-15.5"/>
<polygon fill="midnightblue" stroke="midnightblue" points="162.25,-19 172.25,-15.5 162.25,-12 162.25,-19"/>
</g>
</g>
</svg>
