<?xml version="1.0" encoding="UTF-8" standalone="no"?>
<!DOCTYPE svg PUBLIC "-//W3C//DTD SVG 1.1//EN"
 "http://www.w3.org/Graphics/SVG/1.1/DTD/svg11.dtd">
<!-- Generated by graphviz version 2.43.0 (0)
 -->
<!-- Title: argo::data_distribution::prime_mapp_distribution::local_offset Pages: 1 -->
<svg width="486pt" height="74pt"
 viewBox="0.00 0.00 486.00 74.00" xmlns="http://www.w3.org/2000/svg" xmlns:xlink="http://www.w3.org/1999/xlink">
<g id="graph0" class="graph" transform="scale(1 1) rotate(0) translate(4 70)">
<title>argo::data_distribution::prime_mapp_distribution::local_offset</title>
<polygon fill="white" stroke="transparent" points="-4,4 -4,-70 482,-70 482,4 -4,4"/>
<!-- Node1 -->
<g id="node1" class="node">
<title>Node1</title>
<g id="a_node1"><a xlink:title="compute the offset of ptr in the backing store on ptr&#39;s homenode">
<polygon fill="#bfbfbf" stroke="black" points="0,-24.5 0,-65.5 145,-65.5 145,-24.5 0,-24.5"/>
<text text-anchor="start" x="8" y="-53.5" font-family="Helvetica,sans-Serif" font-size="10.00">argo::data_distribution</text>
<text text-anchor="start" x="8" y="-42.5" font-family="Helvetica,sans-Serif" font-size="10.00">::prime_mapp_distribution</text>
<text text-anchor="middle" x="72.5" y="-31.5" font-family="Helvetica,sans-Serif" font-size="10.00">::local_offset</text>
</a>
</g>
</g>
<!-- Node2 -->
<g id="node2" class="node">
<title>Node2</title>
<g id="a_node2"><a xlink:href="namespaceargo_1_1env_a30775a9aa41b956df7474a2c0cc317aa.html#a30775a9aa41b956df7474a2c0cc317aa" target="_top" xlink:title="get the allocation block size requested by environment variable">
<polygon fill="white" stroke="black" points="362,-30 362,-60 478,-60 478,-30 362,-30"/>
<text text-anchor="start" x="370" y="-48" font-family="Helvetica,sans-Serif" font-size="10.00">argo::env::allocation</text>
<text text-anchor="middle" x="420" y="-37" font-family="Helvetica,sans-Serif" font-size="10.00">_block_size</text>
</a>
</g>
</g>
<!-- Node1&#45;&gt;Node2 -->
<g id="edge1" class="edge">
<title>Node1&#45;&gt;Node2</title>
<path fill="none" stroke="midnightblue" d="M145.18,-49.56C157.14,-50.16 169.42,-50.68 181,-51 245.42,-52.8 261.59,-53.08 326,-51 334.37,-50.73 343.15,-50.32 351.85,-49.85"/>
<polygon fill="midnightblue" stroke="midnightblue" points="352.2,-53.33 361.98,-49.26 351.79,-46.35 352.2,-53.33"/>
</g>
<!-- Node3 -->
<g id="node3" class="node">
<title>Node3</title>
<g id="a_node3"><a xlink:href="classargo_1_1data__distribution_1_1prime__mapp__distribution_ad1e401583e34588a77b0634758fa1f75.html#ad1e401583e34588a77b0634758fa1f75" target="_top" xlink:title="compute home node of an address">
<polygon fill="white" stroke="black" points="181,-0.5 181,-41.5 326,-41.5 326,-0.5 181,-0.5"/>
<text text-anchor="start" x="189" y="-29.5" font-family="Helvetica,sans-Serif" font-size="10.00">argo::data_distribution</text>
<text text-anchor="start" x="189" y="-18.5" font-family="Helvetica,sans-Serif" font-size="10.00">::prime_mapp_distribution</text>
<text text-anchor="middle" x="253.5" y="-7.5" font-family="Helvetica,sans-Serif" font-size="10.00">::homenode</text>
</a>
</g>
</g>
<!-- Node1&#45;&gt;Node3 -->
<g id="edge2" class="edge">
<title>Node1&#45;&gt;Node3</title>
<path fill="none" stroke="midnightblue" d="M145.02,-35.41C153.49,-34.28 162.18,-33.11 170.78,-31.96"/>
<polygon fill="midnightblue" stroke="midnightblue" points="171.36,-35.41 180.8,-30.61 170.43,-28.47 171.36,-35.41"/>
</g>
<!-- Node3&#45;&gt;Node2 -->
<g id="edge3" class="edge">
<title>Node3&#45;&gt;Node2</title>
<path fill="none" stroke="midnightblue" d="M326.17,-31.46C334.67,-32.7 343.32,-33.96 351.75,-35.19"/>
<polygon fill="midnightblue" stroke="midnightblue" points="351.49,-38.69 361.9,-36.67 352.51,-31.76 351.49,-38.69"/>
</g>
</g>
</svg>
