<?xml version="1.0" encoding="UTF-8" standalone="no"?>
<!DOCTYPE svg PUBLIC "-//W3C//DTD SVG 1.1//EN"
 "http://www.w3.org/Graphics/SVG/1.1/DTD/svg11.dtd">
<!-- Generated by graphviz version 2.43.0 (0)
 -->
<!-- Title: argo::data_distribution::prime_mapp_distribution::peek_homenode Pages: 1 -->
<svg width="486pt" height="50pt"
 viewBox="0.00 0.00 486.00 50.00" xmlns="http://www.w3.org/2000/svg" xmlns:xlink="http://www.w3.org/1999/xlink">
<g id="graph0" class="graph" transform="scale(1 1) rotate(0) translate(4 46)">
<title>argo::data_distribution::prime_mapp_distribution::peek_homenode</title>
<polygon fill="white" stroke="transparent" points="-4,4 -4,-46 482,-46 482,4 -4,4"/>
<!-- Node1 -->
<g id="node1" class="node">
<title>Node1</title>
<g id="a_node1"><a xlink:title="compute home node of an address">
<polygon fill="#bfbfbf" stroke="black" points="0,-0.5 0,-41.5 145,-41.5 145,-0.5 0,-0.5"/>
<text text-anchor="start" x="8" y="-29.5" font-family="Helvetica,sans-Serif" font-size="10.00">argo::data_distribution</text>
<text text-anchor="start" x="8" y="-18.5" font-family="Helvetica,sans-Serif" font-size="10.00">::prime_mapp_distribution</text>
<text text-anchor="middle" x="72.5" y="-7.5" font-family="Helvetica,sans-Serif" font-size="10.00">::peek_homenode</text>
</a>
</g>
</g>
<!-- Node2 -->
<g id="node2" class="node">
<title>Node2</title>
<g id="a_node2"><a xlink:href="classargo_1_1data__distribution_1_1prime__mapp__distribution_ad1e401583e34588a77b0634758fa1f75.html#ad1e401583e34588a77b0634758fa1f75" target="_top" xlink:title="compute home node of an address">
<polygon fill="white" stroke="black" points="181,-0.5 181,-41.5 326,-41.5 326,-0.5 181,-0.5"/>
<text text-anchor="start" x="189" y="-29.5" font-family="Helvetica,sans-Serif" font-size="10.00">argo::data_distribution</text>
<text text-anchor="start" x="189" y="-18.5" font-family="Helvetica,sans-Serif" font-size="10.00">::prime_mapp_distribution</text>
<text text-anchor="middle" x="253.5" y="-7.5" font-family="Helvetica,sans-Serif" font-size="10.00">::homenode</text>
</a>
</g>
</g>
<!-- Node1&#45;&gt;Node2 -->
<g id="edge1" class="edge">
<title>Node1&#45;&gt;Node2</title>
<path fill="none" stroke="midnightblue" d="M145.02,-21C153.49,-21 162.18,-21 170.78,-21"/>
<polygon fill="midnightblue" stroke="midnightblue" points="170.8,-24.5 180.8,-21 170.8,-17.5 170.8,-24.5"/>
</g>
<!-- Node3 -->
<g id="node3" class="node">
<title>Node3</title>
<g id="a_node3"><a xlink:href="namespaceargo_1_1env_a30775a9aa41b956df7474a2c0cc317aa.html#a30775a9aa41b956df7474a2c0cc317aa" target="_top" xlink:title="get the allocation block size requested by environment variable">
<polygon fill="white" stroke="black" points="362,-6 362,-36 478,-36 478,-6 362,-6"/>
<text text-anchor="start" x="370" y="-24" font-family="Helvetica,sans-Serif" font-size="10.00">argo::env::allocation</text>
<text text-anchor="middle" x="420" y="-13" font-family="Helvetica,sans-Serif" font-size="10.00">_block_size</text>
</a>
</g>
</g>
<!-- Node2&#45;&gt;Node3 -->
<g id="edge2" class="edge">
<title>Node2&#45;&gt;Node3</title>
<path fill="none" stroke="midnightblue" d="M326.17,-21C334.67,-21 343.32,-21 351.75,-21"/>
<polygon fill="midnightblue" stroke="midnightblue" points="351.9,-24.5 361.9,-21 351.9,-17.5 351.9,-24.5"/>
</g>
</g>
</svg>
