<?xml version="1.0" encoding="UTF-8" standalone="no"?>
<!DOCTYPE svg PUBLIC "-//W3C//DTD SVG 1.1//EN"
 "http://www.w3.org/Graphics/SVG/1.1/DTD/svg11.dtd">
<!-- Generated by graphviz version 2.43.0 (0)
 -->
<!-- Title: argo::data_distribution::prime_mapp_distribution::local_offset Pages: 1 -->
<svg width="334pt" height="50pt"
 viewBox="0.00 0.00 334.00 50.00" xmlns="http://www.w3.org/2000/svg" xmlns:xlink="http://www.w3.org/1999/xlink">
<g id="graph0" class="graph" transform="scale(1 1) rotate(0) translate(4 46)">
<title>argo::data_distribution::prime_mapp_distribution::local_offset</title>
<polygon fill="white" stroke="transparent" points="-4,4 -4,-46 330,-46 330,4 -4,4"/>
<!-- Node1 -->
<g id="node1" class="node">
<title>Node1</title>
<g id="a_node1"><a xlink:title="compute the offset of ptr in the backing store on ptr&#39;s homenode">
<polygon fill="#bfbfbf" stroke="black" points="181,-0.5 181,-41.5 326,-41.5 326,-0.5 181,-0.5"/>
<text text-anchor="start" x="189" y="-29.5" font-family="Helvetica,sans-Serif" font-size="10.00">argo::data_distribution</text>
<text text-anchor="start" x="189" y="-18.5" font-family="Helvetica,sans-Serif" font-size="10.00">::prime_mapp_distribution</text>
<text text-anchor="middle" x="253.5" y="-7.5" font-family="Helvetica,sans-Serif" font-size="10.00">::local_offset</text>
</a>
</g>
</g>
<!-- Node2 -->
<g id="node2" class="node">
<title>Node2</title>
<g id="a_node2"><a xlink:href="classargo_1_1data__distribution_1_1prime__mapp__distribution_a6bb902ae385e53f0f93da022338d19d6.html#a6bb902ae385e53f0f93da022338d19d6" target="_top" xlink:title="compute the offset of ptr in the backing store on ptr&#39;s homenode">
<polygon fill="white" stroke="black" points="0,-0.5 0,-41.5 145,-41.5 145,-0.5 0,-0.5"/>
<text text-anchor="start" x="8" y="-29.5" font-family="Helvetica,sans-Serif" font-size="10.00">argo::data_distribution</text>
<text text-anchor="start" x="8" y="-18.5" font-family="Helvetica,sans-Serif" font-size="10.00">::prime_mapp_distribution</text>
<text text-anchor="middle" x="72.5" y="-7.5" font-family="Helvetica,sans-Serif" font-size="10.00">::peek_local_offset</text>
</a>
</g>
</g>
<!-- Node1&#45;&gt;Node2 -->
<g id="edge1" class="edge">
<title>Node1&#45;&gt;Node2</title>
<path fill="none" stroke="midnightblue" d="M170.96,-21C162.36,-21 153.67,-21 145.2,-21"/>
<polygon fill="midnightblue" stroke="midnightblue" points="170.98,-24.5 180.98,-21 170.98,-17.5 170.98,-24.5"/>
</g>
</g>
</svg>
