<?xml version="1.0" encoding="UTF-8" standalone="no"?>
<!DOCTYPE svg PUBLIC "-//W3C//DTD SVG 1.1//EN"
 "http://www.w3.org/Graphics/SVG/1.1/DTD/svg11.dtd">
<!-- Generated by graphviz version 2.43.0 (0)
 -->
<!-- Title: argo::globallock::cohort_lock Pages: 1 -->
<!--zoomable 337 -->
<svg id="main" version="1.1" xmlns="http://www.w3.org/2000/svg" xmlns:xlink="http://www.w3.org/1999/xlink" xml:space="preserve" onload="init(evt)">
<style type="text/css"><![CDATA[
.edge:hover path { stroke: red; }
.edge:hover polygon { stroke: red; fill: red; }
]]></style>
<script type="text/javascript"><![CDATA[
var edges = document.getElementsByTagName('g');
if (edges && edges.length) {
  for (var i=0;i<edges.length;i++) {
    if (edges[i].id.substr(0,4)=='edge') {
      edges[i].setAttribute('class','edge');
    }
  }
}
]]></script>
        <defs>
                <circle id="rim" cx="0" cy="0" r="7"/>
                <circle id="rim2" cx="0" cy="0" r="3.5"/>
                <g id="zoomPlus">
                        <use xlink:href="#rim" fill="#404040">
                                <set attributeName="fill" to="#808080" begin="zoomplus.mouseover" end="zoomplus.mouseout"/>
                        </use>
                        <path d="M-4,0h8M0,-4v8" fill="none" stroke="white" stroke-width="1.5" pointer-events="none"/>
                </g>
                <g id="zoomMin">
                        <use xlink:href="#rim" fill="#404040">
                                <set attributeName="fill" to="#808080" begin="zoomminus.mouseover" end="zoomminus.mouseout"/>
                        </use>
                        <path d="M-4,0h8" fill="none" stroke="white" stroke-width="1.5" pointer-events="none"/>
                </g>
                <g id="dirArrow">
                        <path fill="none" stroke="white" stroke-width="1.5" d="M0,-3.0v7 M-2.5,-0.5L0,-3.0L2.5,-0.5"/>
                </g>
               <g id="resetDef">
                       <use xlink:href="#rim2" fill="#404040">
                               <set attributeName="fill" to="#808080" begin="reset.mouseover" end="reset.mouseout"/>
                       </use>
               </g>
        </defs>

<script type="text/javascript">
var viewWidth = 1459;
var viewHeight = 337;
var sectionId = 'dynsection-0';
</script>
<script xlink:href="svgpan.js"/>
<svg id="graph" class="graph">
<g id="viewport">
<title>argo::globallock::cohort_lock</title>
<polygon fill="white" stroke="transparent" points="-4,4 -4,-332.5 1455,-332.5 1455,4 -4,4"/>
<!-- Node1 -->
<g id="node1" class="node">
<title>Node1</title>
<g id="a_node1"><a xlink:title="a global &#39;cohort&#39; lock &#45; needs to be called collectively">
<polygon fill="#bfbfbf" stroke="black" points="1294,-97 1294,-116 1451,-116 1451,-97 1294,-97"/>
<text text-anchor="middle" x="1372.5" y="-104" font-family="Helvetica,sans-Serif" font-size="10.00">argo::globallock::cohort_lock</text>
</a>
</g>
</g>
<!-- Node2 -->
<g id="node2" class="node">
<title>Node2</title>
<g id="a_node2"><a xlink:title=" ">
<polygon fill="white" stroke="#bfbfbf" points="760,-143 760,-162 867,-162 867,-143 760,-143"/>
<text text-anchor="middle" x="813.5" y="-150" font-family="Helvetica,sans-Serif" font-size="10.00">std::atomic&lt; int &gt;</text>
</a>
</g>
</g>
<!-- Node2&#45;&gt;Node1 -->
<g id="edge1" class="edge">
<title>Node2&#45;&gt;Node1</title>
<path fill="none" stroke="#9a32cd" stroke-dasharray="5,2" d="M877.44,-150.11C966.42,-146.31 1134.01,-137.63 1276,-121.5 1289.01,-120.02 1302.95,-118.05 1316.06,-116.03"/>
<polygon fill="#9a32cd" stroke="#9a32cd" points="877.09,-146.62 867.24,-150.54 877.38,-153.62 877.09,-146.62"/>
<text text-anchor="middle" x="1126" y="-142.5" font-family="Helvetica,sans-Serif" font-size="10.00"> nodelockowner</text>
</g>
<!-- Node5 -->
<g id="node5" class="node">
<title>Node5</title>
<g id="a_node5"><a xlink:href="classargo_1_1locallock_1_1ticket__lock.html" target="_top" xlink:title="a global ticket lock">
<polygon fill="white" stroke="black" points="1053,-97 1053,-116 1199,-116 1199,-97 1053,-97"/>
<text text-anchor="middle" x="1126" y="-104" font-family="Helvetica,sans-Serif" font-size="10.00">argo::locallock::ticket_lock</text>
</a>
</g>
</g>
<!-- Node2&#45;&gt;Node5 -->
<g id="edge5" class="edge">
<title>Node2&#45;&gt;Node5</title>
<path fill="none" stroke="#9a32cd" stroke-dasharray="5,2" d="M842.25,-138.35C859.3,-130.38 881.87,-121.13 903,-116.5 952.28,-105.7 1009.13,-103.33 1052.96,-103.59"/>
<polygon fill="#9a32cd" stroke="#9a32cd" points="840.39,-135.36 832.89,-142.85 843.42,-141.67 840.39,-135.36"/>
<text text-anchor="middle" x="969" y="-130.5" font-family="Helvetica,sans-Serif" font-size="10.00"> in_counter</text>
<text text-anchor="middle" x="969" y="-119.5" font-family="Helvetica,sans-Serif" font-size="10.00">out_counter</text>
</g>
<!-- Node3 -->
<g id="node3" class="node">
<title>Node3</title>
<g id="a_node3"><a xlink:title=" ">
<polygon fill="white" stroke="#bfbfbf" points="471.5,-181 471.5,-200 571.5,-200 571.5,-181 471.5,-181"/>
<text text-anchor="middle" x="521.5" y="-188" font-family="Helvetica,sans-Serif" font-size="10.00">std::atomic&lt; T &gt;</text>
</a>
</g>
</g>
<!-- Node3&#45;&gt;Node2 -->
<g id="edge2" class="edge">
<title>Node3&#45;&gt;Node2</title>
<path fill="none" stroke="orange" stroke-dasharray="5,2" d="M580.39,-179.18C587.98,-177.85 595.67,-176.58 603,-175.5 656.21,-167.63 717.39,-161.22 759.84,-157.18"/>
<polygon fill="orange" stroke="orange" points="579.73,-175.74 570.5,-180.95 580.96,-182.63 579.73,-175.74"/>
<text text-anchor="middle" x="663.5" y="-178.5" font-family="Helvetica,sans-Serif" font-size="10.00"> &lt; int &gt;</text>
</g>
<!-- Node14 -->
<g id="node14" class="node">
<title>Node14</title>
<g id="a_node14"><a xlink:title=" ">
<polygon fill="white" stroke="#bfbfbf" points="757.5,-219 757.5,-260 869.5,-260 869.5,-219 757.5,-219"/>
<text text-anchor="start" x="765.5" y="-248" font-family="Helvetica,sans-Serif" font-size="10.00">std::atomic&lt; argo::</text>
<text text-anchor="start" x="765.5" y="-237" font-family="Helvetica,sans-Serif" font-size="10.00">locallock::mcs_lock</text>
<text text-anchor="middle" x="813.5" y="-226" font-family="Helvetica,sans-Serif" font-size="10.00">::mcs_node * &gt;</text>
</a>
</g>
</g>
<!-- Node3&#45;&gt;Node14 -->
<g id="edge16" class="edge">
<title>Node3&#45;&gt;Node14</title>
<path fill="none" stroke="orange" stroke-dasharray="5,2" d="M582.09,-201.77C589.14,-203.05 596.23,-204.32 603,-205.5 655.27,-214.61 715.03,-224.23 757.3,-230.9"/>
<polygon fill="orange" stroke="orange" points="582.32,-198.25 571.85,-199.88 581.05,-205.13 582.32,-198.25"/>
<text text-anchor="start" x="603" y="-238.5" font-family="Helvetica,sans-Serif" font-size="10.00"> &lt; argo::locallock::</text>
<text text-anchor="middle" x="663.5" y="-227.5" font-family="Helvetica,sans-Serif" font-size="10.00">mcs_lock::mcs_node * &gt;</text>
</g>
<!-- Node17 -->
<g id="node17" class="node">
<title>Node17</title>
<g id="a_node17"><a xlink:title=" ">
<polygon fill="white" stroke="#bfbfbf" points="756,-181 756,-200 871,-200 871,-181 756,-181"/>
<text text-anchor="middle" x="813.5" y="-188" font-family="Helvetica,sans-Serif" font-size="10.00">std::atomic&lt; bool &gt;</text>
</a>
</g>
</g>
<!-- Node3&#45;&gt;Node17 -->
<g id="edge20" class="edge">
<title>Node3&#45;&gt;Node17</title>
<path fill="none" stroke="orange" stroke-dasharray="5,2" d="M581.89,-190.5C632.83,-190.5 705.72,-190.5 755.85,-190.5"/>
<polygon fill="orange" stroke="orange" points="581.69,-187 571.69,-190.5 581.69,-194 581.69,-187"/>
<text text-anchor="middle" x="663.5" y="-193.5" font-family="Helvetica,sans-Serif" font-size="10.00"> &lt; bool &gt;</text>
</g>
<!-- Node4 -->
<g id="node4" class="node">
<title>Node4</title>
<g id="a_node4"><a xlink:title=" ">
<polygon fill="white" stroke="#bfbfbf" points="291,-181 291,-200 320,-200 320,-181 291,-181"/>
<text text-anchor="middle" x="305.5" y="-188" font-family="Helvetica,sans-Serif" font-size="10.00">T</text>
</a>
</g>
</g>
<!-- Node4&#45;&gt;Node3 -->
<g id="edge3" class="edge">
<title>Node4&#45;&gt;Node3</title>
<path fill="none" stroke="#9a32cd" stroke-dasharray="5,2" d="M330.56,-190.5C364.54,-190.5 427.35,-190.5 471.41,-190.5"/>
<polygon fill="#9a32cd" stroke="#9a32cd" points="330.21,-187 320.21,-190.5 330.21,-194 330.21,-187"/>
<text text-anchor="middle" x="415.5" y="-193.5" font-family="Helvetica,sans-Serif" font-size="10.00"> ptr</text>
</g>
<!-- Node7 -->
<g id="node7" class="node">
<title>Node7</title>
<g id="a_node7"><a xlink:title=" ">
<polygon fill="white" stroke="#bfbfbf" points="473,-116 473,-135 570,-135 570,-116 473,-116"/>
<text text-anchor="middle" x="521.5" y="-123" font-family="Helvetica,sans-Serif" font-size="10.00">std::vector&lt; T &gt;</text>
</a>
</g>
</g>
<!-- Node4&#45;&gt;Node7 -->
<g id="edge8" class="edge">
<title>Node4&#45;&gt;Node7</title>
<path fill="none" stroke="#9a32cd" stroke-dasharray="5,2" d="M330.05,-183.35C368.77,-171.58 445.88,-148.16 489.17,-135.02"/>
<polygon fill="#9a32cd" stroke="#9a32cd" points="328.76,-180.08 320.21,-186.34 330.8,-186.78 328.76,-180.08"/>
<text text-anchor="middle" x="415.5" y="-166.5" font-family="Helvetica,sans-Serif" font-size="10.00"> elements</text>
</g>
<!-- Node18 -->
<g id="node18" class="node">
<title>Node18</title>
<g id="a_node18"><a xlink:title=" ">
<polygon fill="white" stroke="#bfbfbf" points="471,-289 471,-308 572,-308 572,-289 471,-289"/>
<text text-anchor="middle" x="521.5" y="-296" font-family="Helvetica,sans-Serif" font-size="10.00">std::map&lt; K, T &gt;</text>
</a>
</g>
</g>
<!-- Node4&#45;&gt;Node18 -->
<g id="edge25" class="edge">
<title>Node4&#45;&gt;Node18</title>
<path fill="none" stroke="#9a32cd" stroke-dasharray="5,2" d="M329.2,-201.96C371.62,-223.37 462.18,-269.07 501.56,-288.94"/>
<polygon fill="#9a32cd" stroke="#9a32cd" points="330.72,-198.8 320.21,-197.42 327.56,-205.05 330.72,-198.8"/>
<text text-anchor="middle" x="415.5" y="-259.5" font-family="Helvetica,sans-Serif" font-size="10.00"> elements</text>
</g>
<!-- Node5&#45;&gt;Node1 -->
<g id="edge4" class="edge">
<title>Node5&#45;&gt;Node1</title>
<path fill="none" stroke="#9a32cd" stroke-dasharray="5,2" d="M1209.31,-106.5C1236.52,-106.5 1266.71,-106.5 1293.58,-106.5"/>
<polygon fill="#9a32cd" stroke="#9a32cd" points="1209.04,-103 1199.04,-106.5 1209.04,-110 1209.04,-103"/>
<text text-anchor="middle" x="1246.5" y="-109.5" font-family="Helvetica,sans-Serif" font-size="10.00"> node_lock</text>
</g>
<!-- Node6 -->
<g id="node6" class="node">
<title>Node6</title>
<g id="a_node6"><a xlink:title=" ">
<polygon fill="white" stroke="#bfbfbf" points="917,-65 917,-84 1021,-84 1021,-65 917,-65"/>
<text text-anchor="middle" x="969" y="-72" font-family="Helvetica,sans-Serif" font-size="10.00">std::vector&lt; int &gt;</text>
</a>
</g>
</g>
<!-- Node6&#45;&gt;Node1 -->
<g id="edge6" class="edge">
<title>Node6&#45;&gt;Node1</title>
<path fill="none" stroke="#9a32cd" stroke-dasharray="5,2" d="M1031.2,-72.33C1077.4,-71.34 1142.31,-71.36 1199,-76.5 1243.35,-80.52 1293.43,-89.77 1328.16,-96.94"/>
<polygon fill="#9a32cd" stroke="#9a32cd" points="1030.97,-68.83 1021.05,-72.57 1031.13,-75.83 1030.97,-68.83"/>
<text text-anchor="middle" x="1126" y="-79.5" font-family="Helvetica,sans-Serif" font-size="10.00"> numa_mapping</text>
</g>
<!-- Node7&#45;&gt;Node6 -->
<g id="edge7" class="edge">
<title>Node7&#45;&gt;Node6</title>
<path fill="none" stroke="orange" stroke-dasharray="5,2" d="M580.22,-118.89C667.92,-108.85 833.34,-89.92 916.92,-80.35"/>
<polygon fill="orange" stroke="orange" points="579.71,-115.43 570.18,-120.04 580.51,-122.38 579.71,-115.43"/>
<text text-anchor="middle" x="663.5" y="-118.5" font-family="Helvetica,sans-Serif" font-size="10.00"> &lt; int &gt;</text>
</g>
<!-- Node8 -->
<g id="node8" class="node">
<title>Node8</title>
<g id="a_node8"><a xlink:href="classargo_1_1globallock_1_1global__tas__lock.html" target="_top" xlink:title="a global test&#45;and&#45;set lock">
<polygon fill="white" stroke="black" points="1060.5,-0.5 1060.5,-30.5 1191.5,-30.5 1191.5,-0.5 1060.5,-0.5"/>
<text text-anchor="start" x="1068.5" y="-18.5" font-family="Helvetica,sans-Serif" font-size="10.00">argo::globallock::global</text>
<text text-anchor="middle" x="1126" y="-7.5" font-family="Helvetica,sans-Serif" font-size="10.00">_tas_lock</text>
</a>
</g>
</g>
<!-- Node8&#45;&gt;Node1 -->
<g id="edge9" class="edge">
<title>Node8&#45;&gt;Node1</title>
<path fill="none" stroke="#9a32cd" stroke-dasharray="5,2" d="M1201.59,-22.88C1225.92,-26.89 1252.66,-33.05 1276,-42.5 1309.67,-56.14 1343.73,-82.73 1360.61,-96.97"/>
<polygon fill="#9a32cd" stroke="#9a32cd" points="1202.11,-19.42 1191.69,-21.34 1201.04,-26.33 1202.11,-19.42"/>
<text text-anchor="middle" x="1246.5" y="-45.5" font-family="Helvetica,sans-Serif" font-size="10.00"> global_lock</text>
</g>
<!-- Node9 -->
<g id="node9" class="node">
<title>Node9</title>
<g id="a_node9"><a xlink:href="classargo_1_1data__distribution_1_1global__ptr.html" target="_top" xlink:title=" ">
<polygon fill="white" stroke="black" points="742,-0.5 742,-30.5 885,-30.5 885,-0.5 742,-0.5"/>
<text text-anchor="start" x="750" y="-18.5" font-family="Helvetica,sans-Serif" font-size="10.00">argo::data_distribution</text>
<text text-anchor="middle" x="813.5" y="-7.5" font-family="Helvetica,sans-Serif" font-size="10.00">::global_ptr&lt; std::size_t &gt;</text>
</a>
</g>
</g>
<!-- Node9&#45;&gt;Node8 -->
<g id="edge10" class="edge">
<title>Node9&#45;&gt;Node8</title>
<path fill="none" stroke="#9a32cd" stroke-dasharray="5,2" d="M895.42,-15.5C946.79,-15.5 1012.37,-15.5 1060.28,-15.5"/>
<polygon fill="#9a32cd" stroke="#9a32cd" points="895.35,-12 885.35,-15.5 895.35,-19 895.35,-12"/>
<text text-anchor="middle" x="969" y="-18.5" font-family="Helvetica,sans-Serif" font-size="10.00"> lastuser</text>
</g>
<!-- Node10 -->
<g id="node10" class="node">
<title>Node10</title>
<g id="a_node10"><a xlink:href="classargo_1_1data__distribution_1_1global__ptr.html" target="_top" xlink:title="smart pointers for global memory addresses">
<polygon fill="white" stroke="black" points="458,-0.5 458,-30.5 585,-30.5 585,-0.5 458,-0.5"/>
<text text-anchor="start" x="466" y="-18.5" font-family="Helvetica,sans-Serif" font-size="10.00">argo::data_distribution</text>
<text text-anchor="middle" x="521.5" y="-7.5" font-family="Helvetica,sans-Serif" font-size="10.00">::global_ptr&lt; T, Dist &gt;</text>
</a>
</g>
</g>
<!-- Node10&#45;&gt;Node9 -->
<g id="edge11" class="edge">
<title>Node10&#45;&gt;Node9</title>
<path fill="none" stroke="orange" stroke-dasharray="5,2" d="M595.32,-15.5C640.19,-15.5 697.44,-15.5 741.89,-15.5"/>
<polygon fill="orange" stroke="orange" points="595.07,-12 585.07,-15.5 595.07,-19 595.07,-12"/>
<text text-anchor="middle" x="663.5" y="-18.5" font-family="Helvetica,sans-Serif" font-size="10.00"> &lt; std::size_t &gt;</text>
</g>
<!-- Node11 -->
<g id="node11" class="node">
<title>Node11</title>
<g id="a_node11"><a xlink:href="classargo_1_1data__distribution_1_1base__distribution.html" target="_top" xlink:title=" ">
<polygon fill="white" stroke="black" points="238,-0.5 238,-30.5 373,-30.5 373,-0.5 238,-0.5"/>
<text text-anchor="start" x="246" y="-18.5" font-family="Helvetica,sans-Serif" font-size="10.00">argo::data_distribution</text>
<text text-anchor="middle" x="305.5" y="-7.5" font-family="Helvetica,sans-Serif" font-size="10.00">::base_distribution&lt; 0 &gt;</text>
</a>
</g>
</g>
<!-- Node11&#45;&gt;Node10 -->
<g id="edge12" class="edge">
<title>Node11&#45;&gt;Node10</title>
<path fill="none" stroke="#9a32cd" stroke-dasharray="5,2" d="M383.33,-15.5C407.72,-15.5 434.38,-15.5 457.66,-15.5"/>
<polygon fill="#9a32cd" stroke="#9a32cd" points="383.04,-12 373.04,-15.5 383.04,-19 383.04,-12"/>
<text text-anchor="middle" x="415.5" y="-18.5" font-family="Helvetica,sans-Serif" font-size="10.00"> policies</text>
</g>
<!-- Node12 -->
<g id="node12" class="node">
<title>Node12</title>
<g id="a_node12"><a xlink:href="classargo_1_1data__distribution_1_1base__distribution.html" target="_top" xlink:title="the base data distribution class">
<polygon fill="white" stroke="black" points="0,-0.5 0,-30.5 170,-30.5 170,-0.5 0,-0.5"/>
<text text-anchor="start" x="8" y="-18.5" font-family="Helvetica,sans-Serif" font-size="10.00">argo::data_distribution</text>
<text text-anchor="middle" x="85" y="-7.5" font-family="Helvetica,sans-Serif" font-size="10.00">::base_distribution&lt; instance &gt;</text>
</a>
</g>
</g>
<!-- Node12&#45;&gt;Node11 -->
<g id="edge13" class="edge">
<title>Node12&#45;&gt;Node11</title>
<path fill="none" stroke="orange" stroke-dasharray="5,2" d="M180.21,-15.5C199.55,-15.5 219.53,-15.5 237.67,-15.5"/>
<polygon fill="orange" stroke="orange" points="180.17,-12 170.17,-15.5 180.17,-19 180.17,-12"/>
<text text-anchor="middle" x="204" y="-18.5" font-family="Helvetica,sans-Serif" font-size="10.00"> &lt; 0 &gt;</text>
</g>
<!-- Node13 -->
<g id="node13" class="node">
<title>Node13</title>
<g id="a_node13"><a xlink:href="classargo_1_1locallock_1_1mcs__lock.html" target="_top" xlink:title="MCS mutual exclusion lock (intranode)">
<polygon fill="white" stroke="black" points="1056,-209 1056,-228 1196,-228 1196,-209 1056,-209"/>
<text text-anchor="middle" x="1126" y="-216" font-family="Helvetica,sans-Serif" font-size="10.00">argo::locallock::mcs_lock</text>
</a>
</g>
</g>
<!-- Node13&#45;&gt;Node1 -->
<g id="edge14" class="edge">
<title>Node13&#45;&gt;Node1</title>
<path fill="none" stroke="#9a32cd" stroke-dasharray="5,2" d="M1166.57,-205.7C1197.04,-195.35 1239.92,-179.7 1276,-162.5 1305.84,-148.27 1338.69,-127.88 1357.04,-116.04"/>
<polygon fill="#9a32cd" stroke="#9a32cd" points="1165.1,-202.5 1156.74,-209 1167.33,-209.13 1165.1,-202.5"/>
<text text-anchor="middle" x="1246.5" y="-188.5" font-family="Helvetica,sans-Serif" font-size="10.00"> local_lock</text>
</g>
<!-- Node15 -->
<g id="node15" class="node">
<title>Node15</title>
<g id="a_node15"><a xlink:title=" ">
<polygon fill="white" stroke="#bfbfbf" points="1295.5,-249 1295.5,-290 1449.5,-290 1449.5,-249 1295.5,-249"/>
<text text-anchor="start" x="1303.5" y="-278" font-family="Helvetica,sans-Serif" font-size="10.00">std::map&lt; argo::locallock</text>
<text text-anchor="start" x="1303.5" y="-267" font-family="Helvetica,sans-Serif" font-size="10.00">::mcs_lock *, argo::locallock</text>
<text text-anchor="middle" x="1372.5" y="-256" font-family="Helvetica,sans-Serif" font-size="10.00">::mcs_lock::mcs_node &gt;</text>
</a>
</g>
</g>
<!-- Node13&#45;&gt;Node15 -->
<g id="edge22" class="edge">
<title>Node13&#45;&gt;Node15</title>
<path fill="none" stroke="#9a32cd" stroke-dasharray="5,2" d="M1206.37,-214.35C1229.12,-214.84 1253.78,-217.01 1276,-222.5 1297.89,-227.9 1320.6,-238.83 1338.39,-248.79"/>
<polygon fill="#9a32cd" stroke="#9a32cd" points="1206.11,-210.84 1196.07,-214.23 1206.03,-217.84 1206.11,-210.84"/>
<text text-anchor="middle" x="1246.5" y="-225.5" font-family="Helvetica,sans-Serif" font-size="10.00"> keys</text>
</g>
<!-- Node14&#45;&gt;Node13 -->
<g id="edge15" class="edge">
<title>Node14&#45;&gt;Node13</title>
<path fill="none" stroke="#9a32cd" stroke-dasharray="5,2" d="M879.86,-231.65C887.65,-230.85 895.5,-230.11 903,-229.5 954.15,-225.35 1012.08,-222.54 1055.93,-220.8"/>
<polygon fill="#9a32cd" stroke="#9a32cd" points="879.26,-228.19 869.68,-232.72 880,-235.15 879.26,-228.19"/>
<text text-anchor="middle" x="969" y="-232.5" font-family="Helvetica,sans-Serif" font-size="10.00"> _tail</text>
</g>
<!-- Node16 -->
<g id="node16" class="node">
<title>Node16</title>
<g id="a_node16"><a xlink:href="structargo_1_1locallock_1_1mcs__lock_1_1mcs__node.html" target="_top" xlink:title="Thread nodes for the lock.">
<polygon fill="white" stroke="black" points="1069,-247.5 1069,-277.5 1183,-277.5 1183,-247.5 1069,-247.5"/>
<text text-anchor="start" x="1077" y="-265.5" font-family="Helvetica,sans-Serif" font-size="10.00">argo::locallock::mcs</text>
<text text-anchor="middle" x="1126" y="-254.5" font-family="Helvetica,sans-Serif" font-size="10.00">_lock::mcs_node</text>
</a>
</g>
</g>
<!-- Node14&#45;&gt;Node16 -->
<g id="edge21" class="edge">
<title>Node14&#45;&gt;Node16</title>
<path fill="none" stroke="#9a32cd" stroke-dasharray="5,2" d="M879.82,-244.34C935.8,-248.49 1015.61,-254.4 1068.79,-258.34"/>
<polygon fill="#9a32cd" stroke="#9a32cd" points="879.88,-240.83 869.65,-243.59 879.37,-247.81 879.88,-240.83"/>
<text text-anchor="middle" x="969" y="-258.5" font-family="Helvetica,sans-Serif" font-size="10.00"> next</text>
</g>
<!-- Node15&#45;&gt;Node13 -->
<g id="edge17" class="edge">
<title>Node15&#45;&gt;Node13</title>
<path fill="none" stroke="#9a32cd" stroke-dasharray="5,2" d="M1285.23,-251.51C1247.3,-243.59 1204.29,-234.62 1172.7,-228.03"/>
<polygon fill="#9a32cd" stroke="#9a32cd" points="1284.76,-254.98 1295.27,-253.6 1286.19,-248.13 1284.76,-254.98"/>
<text text-anchor="middle" x="1246.5" y="-251.5" font-family="Helvetica,sans-Serif" font-size="10.00"> selfs</text>
</g>
<!-- Node16&#45;&gt;Node15 -->
<g id="edge18" class="edge">
<title>Node16&#45;&gt;Node15</title>
<path fill="none" stroke="#9a32cd" stroke-dasharray="5,2" d="M1193.09,-264.39C1224.63,-265.3 1262.54,-266.38 1295.29,-267.32"/>
<polygon fill="#9a32cd" stroke="#9a32cd" points="1193.19,-260.89 1183.09,-264.11 1192.99,-267.89 1193.19,-260.89"/>
<text text-anchor="middle" x="1246.5" y="-269.5" font-family="Helvetica,sans-Serif" font-size="10.00"> elements</text>
</g>
<!-- Node17&#45;&gt;Node16 -->
<g id="edge19" class="edge">
<title>Node17&#45;&gt;Node16</title>
<path fill="none" stroke="#9a32cd" stroke-dasharray="5,2" d="M879.62,-179.97C926.34,-175.86 988.91,-177.69 1035,-206.5 1048.51,-214.94 1040.71,-227.37 1053,-237.5 1057.8,-241.46 1063.26,-244.8 1068.98,-247.63"/>
<polygon fill="#9a32cd" stroke="#9a32cd" points="879.22,-176.5 869.61,-180.97 879.91,-183.46 879.22,-176.5"/>
<text text-anchor="middle" x="969" y="-209.5" font-family="Helvetica,sans-Serif" font-size="10.00"> locked</text>
</g>
<!-- Node18&#45;&gt;Node15 -->
<g id="edge23" class="edge">
<title>Node18&#45;&gt;Node15</title>
<path fill="none" stroke="orange" stroke-dasharray="5,2" d="M582.45,-298.76C700.53,-299 971.49,-298.2 1199,-287.5 1233.29,-285.89 1241.85,-284.97 1276,-281.5 1282.32,-280.86 1288.86,-280.14 1295.43,-279.39"/>
<polygon fill="orange" stroke="orange" points="582.19,-295.26 572.18,-298.74 582.18,-302.26 582.19,-295.26"/>
<text text-anchor="start" x="903" y="-320.5" font-family="Helvetica,sans-Serif" font-size="10.00"> &lt; argo::locallock::</text>
<text text-anchor="start" x="903" y="-309.5" font-family="Helvetica,sans-Serif" font-size="10.00">mcs_lock *, argo::locallock</text>
<text text-anchor="middle" x="969" y="-298.5" font-family="Helvetica,sans-Serif" font-size="10.00">::mcs_lock::mcs_node &gt;</text>
</g>
<!-- Node19 -->
<g id="node19" class="node">
<title>Node19</title>
<g id="a_node19"><a xlink:title=" ">
<polygon fill="white" stroke="#bfbfbf" points="291,-289 291,-308 320,-308 320,-289 291,-289"/>
<text text-anchor="middle" x="305.5" y="-296" font-family="Helvetica,sans-Serif" font-size="10.00">K</text>
</a>
</g>
</g>
<!-- Node19&#45;&gt;Node18 -->
<g id="edge24" class="edge">
<title>Node19&#45;&gt;Node18</title>
<path fill="none" stroke="#9a32cd" stroke-dasharray="5,2" d="M330.53,-298.5C364.38,-298.5 426.9,-298.5 470.95,-298.5"/>
<polygon fill="#9a32cd" stroke="#9a32cd" points="330.21,-295 320.21,-298.5 330.21,-302 330.21,-295"/>
<text text-anchor="middle" x="415.5" y="-301.5" font-family="Helvetica,sans-Serif" font-size="10.00"> keys</text>
</g>
</g>
</svg>
        <g id="navigator" transform="translate(0 0)" fill="#404254">
                <rect fill="#f2f5e9" fill-opacity="0.5" stroke="#606060" stroke-width=".5" x="0" y="0" width="60" height="60"/>
                <use id="zoomplus" xlink:href="#zoomPlus" x="17" y="9" onmousedown="handleZoom(evt,'in')"/>
                <use id="zoomminus" xlink:href="#zoomMin" x="42" y="9" onmousedown="handleZoom(evt,'out')"/>
                <use id="reset" xlink:href="#resetDef" x="30" y="36" onmousedown="handleReset()"/>
                <g id="arrowUp" xlink:href="#dirArrow" transform="translate(30 24)" onmousedown="handlePan(0,-1)">
                  <use xlink:href="#rim" fill="#404040">
                        <set attributeName="fill" to="#808080" begin="arrowUp.mouseover" end="arrowUp.mouseout"/>
                  </use>
                  <path fill="none" stroke="white" stroke-width="1.5" d="M0,-3.0v7 M-2.5,-0.5L0,-3.0L2.5,-0.5"/>
                </g>
                <g id="arrowRight" xlink:href="#dirArrow" transform="rotate(90) translate(36 -43)" onmousedown="handlePan(1,0)">
                  <use xlink:href="#rim" fill="#404040">
                        <set attributeName="fill" to="#808080" begin="arrowRight.mouseover" end="arrowRight.mouseout"/>
                  </use>
                  <path fill="none" stroke="white" stroke-width="1.5" d="M0,-3.0v7 M-2.5,-0.5L0,-3.0L2.5,-0.5"/>
                </g>
                <g id="arrowDown" xlink:href="#dirArrow" transform="rotate(180) translate(-30 -48)" onmousedown="handlePan(0,1)">
                  <use xlink:href="#rim" fill="#404040">
                        <set attributeName="fill" to="#808080" begin="arrowDown.mouseover" end="arrowDown.mouseout"/>
                  </use>
                  <path fill="none" stroke="white" stroke-width="1.5" d="M0,-3.0v7 M-2.5,-0.5L0,-3.0L2.5,-0.5"/>
                </g>
                <g id="arrowLeft" xlink:href="#dirArrow" transform="rotate(270) translate(-36 17)" onmousedown="handlePan(-1,0)">
                  <use xlink:href="#rim" fill="#404040">
                        <set attributeName="fill" to="#808080" begin="arrowLeft.mouseover" end="arrowLeft.mouseout"/>
                  </use>
                  <path fill="none" stroke="white" stroke-width="1.5" d="M0,-3.0v7 M-2.5,-0.5L0,-3.0L2.5,-0.5"/>
                </g>
        </g>
        <svg viewBox="0 0 15 15" width="100%" height="30px" preserveAspectRatio="xMaxYMin meet">
         <g id="arrow_out" transform="scale(0.3 0.3)">
          <a xlink:href="classargo_1_1globallock_1_1cohort__lock__coll__graph_org.svg" target="_base">
           <rect id="button" ry="5" rx="5" y="6" x="6" height="38" width="38"
                fill="#f2f5e9" fill-opacity="0.5" stroke="#606060" stroke-width="1.0"/>
           <path id="arrow"
             d="M 11.500037,31.436501 C 11.940474,20.09759 22.043105,11.32322 32.158766,21.979434 L 37.068811,17.246167 C 37.068811,17.246167 37.088388,32 37.088388,32 L 22.160133,31.978069 C 22.160133,31.978069 26.997745,27.140456 26.997745,27.140456 C 18.528582,18.264221 13.291696,25.230495 11.500037,31.436501 z"
             style="fill:#404040;"/>
          </a>
         </g>
        </svg>
</svg>
