<?xml version="1.0" encoding="UTF-8" standalone="no"?>
<!DOCTYPE svg PUBLIC "-//W3C//DTD SVG 1.1//EN"
 "http://www.w3.org/Graphics/SVG/1.1/DTD/svg11.dtd">
<!-- Generated by graphviz version 2.43.0 (0)
 -->
<!-- Title: argo::data_distribution::global_ptr::offset Pages: 1 -->
<svg width="1228pt" height="693pt"
 viewBox="0.00 0.00 1228.00 693.00" xmlns="http://www.w3.org/2000/svg" xmlns:xlink="http://www.w3.org/1999/xlink">
<g id="graph0" class="graph" transform="scale(1 1) rotate(0) translate(4 689)">
<title>argo::data_distribution::global_ptr::offset</title>
<polygon fill="white" stroke="transparent" points="-4,4 -4,-689 1224,-689 1224,4 -4,4"/>
<!-- Node1 -->
<g id="node1" class="node">
<title>Node1</title>
<g id="a_node1"><a xlink:title="return the offset on the home node&#39;s local memory share">
<polygon fill="#bfbfbf" stroke="black" points="1093,-375.5 1093,-405.5 1220,-405.5 1220,-375.5 1093,-375.5"/>
<text text-anchor="start" x="1101" y="-393.5" font-family="Helvetica,sans-Serif" font-size="10.00">argo::data_distribution</text>
<text text-anchor="middle" x="1156.5" y="-382.5" font-family="Helvetica,sans-Serif" font-size="10.00">::global_ptr::offset</text>
</a>
</g>
</g>
<!-- Node2 -->
<g id="node2" class="node">
<title>Node2</title>
<g id="a_node2"><a xlink:href="backend_8hpp_ab1a7511272b2801f891b966a67b2a4dc.html#ab1a7511272b2801f891b966a67b2a4dc" target="_top" xlink:title="Backend internal type erased atomic CAS function.">
<polygon fill="white" stroke="black" points="932,-623.5 932,-653.5 1057,-653.5 1057,-623.5 932,-623.5"/>
<text text-anchor="start" x="940" y="-641.5" font-family="Helvetica,sans-Serif" font-size="10.00">argo::backend::atomic</text>
<text text-anchor="middle" x="994.5" y="-630.5" font-family="Helvetica,sans-Serif" font-size="10.00">::_compare_exchange</text>
</a>
</g>
</g>
<!-- Node1&#45;&gt;Node2 -->
<g id="edge1" class="edge">
<title>Node1&#45;&gt;Node2</title>
<path fill="none" stroke="midnightblue" d="M1147.87,-415.3C1134.47,-455.9 1103.64,-537.61 1057,-593.5 1047.17,-605.28 1033.62,-615.63 1021.74,-623.42"/>
<polygon fill="midnightblue" stroke="midnightblue" points="1151.23,-416.27 1150.97,-405.68 1144.57,-414.12 1151.23,-416.27"/>
</g>
<!-- Node4 -->
<g id="node4" class="node">
<title>Node4</title>
<g id="a_node4"><a xlink:href="backend_8hpp_a59102c6814043d49f3b2623f367f6ba2.html#a59102c6814043d49f3b2623f367f6ba2" target="_top" xlink:title="Backend internal type erased atomic exchange function.">
<polygon fill="white" stroke="black" points="932,-535.5 932,-565.5 1057,-565.5 1057,-535.5 932,-535.5"/>
<text text-anchor="start" x="940" y="-553.5" font-family="Helvetica,sans-Serif" font-size="10.00">argo::backend::atomic</text>
<text text-anchor="middle" x="994.5" y="-542.5" font-family="Helvetica,sans-Serif" font-size="10.00">::_exchange</text>
</a>
</g>
</g>
<!-- Node1&#45;&gt;Node4 -->
<g id="edge5" class="edge">
<title>Node1&#45;&gt;Node4</title>
<path fill="none" stroke="midnightblue" d="M1133.06,-412.94C1099.96,-446.04 1038.92,-507.08 1010.63,-535.37"/>
<polygon fill="midnightblue" stroke="midnightblue" points="1135.85,-415.1 1140.45,-405.55 1130.9,-410.15 1135.85,-415.1"/>
</g>
<!-- Node6 -->
<g id="node6" class="node">
<title>Node6</title>
<g id="a_node6"><a xlink:href="mpi_8cpp_a9b1ef8bbaaf93b03603c2ab0ff3b6133.html#a9b1ef8bbaaf93b03603c2ab0ff3b6133" target="_top" xlink:title="Atomic fetch&amp;add for the MPI backend (for internal usage)">
<polygon fill="white" stroke="black" points="932,-426.5 932,-456.5 1057,-456.5 1057,-426.5 932,-426.5"/>
<text text-anchor="start" x="940" y="-444.5" font-family="Helvetica,sans-Serif" font-size="10.00">argo::backend::atomic</text>
<text text-anchor="middle" x="994.5" y="-433.5" font-family="Helvetica,sans-Serif" font-size="10.00">::_fetch_add</text>
</a>
</g>
</g>
<!-- Node1&#45;&gt;Node6 -->
<g id="edge9" class="edge">
<title>Node1&#45;&gt;Node6</title>
<path fill="none" stroke="midnightblue" d="M1098.66,-408.62C1080.3,-414.47 1060.15,-420.89 1042.58,-426.49"/>
<polygon fill="midnightblue" stroke="midnightblue" points="1099.9,-411.9 1108.36,-405.53 1097.77,-405.23 1099.9,-411.9"/>
</g>
<!-- Node11 -->
<g id="node11" class="node">
<title>Node11</title>
<g id="a_node11"><a xlink:href="backend_8hpp_ad05287a5a2d303811b5c9e7a488bda59.html#ad05287a5a2d303811b5c9e7a488bda59" target="_top" xlink:title="Backend internal type erased atomic store function.">
<polygon fill="white" stroke="black" points="932,-342.5 932,-372.5 1057,-372.5 1057,-342.5 932,-342.5"/>
<text text-anchor="start" x="940" y="-360.5" font-family="Helvetica,sans-Serif" font-size="10.00">argo::backend::atomic</text>
<text text-anchor="middle" x="994.5" y="-349.5" font-family="Helvetica,sans-Serif" font-size="10.00">::_load</text>
</a>
</g>
</g>
<!-- Node1&#45;&gt;Node11 -->
<g id="edge21" class="edge">
<title>Node1&#45;&gt;Node11</title>
<path fill="none" stroke="midnightblue" d="M1082.73,-375.49C1074.14,-373.72 1065.45,-371.93 1057.05,-370.19"/>
<polygon fill="midnightblue" stroke="midnightblue" points="1082.22,-378.96 1092.72,-377.55 1083.64,-372.1 1082.22,-378.96"/>
</g>
<!-- Node13 -->
<g id="node13" class="node">
<title>Node13</title>
<g id="a_node13"><a xlink:href="backend_8hpp_ae76ec4647c992bfecf6309787f3dec4a.html#ae76ec4647c992bfecf6309787f3dec4a" target="_top" xlink:title="Backend internal type erased atomic store function.">
<polygon fill="white" stroke="black" points="932,-242.5 932,-272.5 1057,-272.5 1057,-242.5 932,-242.5"/>
<text text-anchor="start" x="940" y="-260.5" font-family="Helvetica,sans-Serif" font-size="10.00">argo::backend::atomic</text>
<text text-anchor="middle" x="994.5" y="-249.5" font-family="Helvetica,sans-Serif" font-size="10.00">::_store</text>
</a>
</g>
</g>
<!-- Node1&#45;&gt;Node13 -->
<g id="edge25" class="edge">
<title>Node1&#45;&gt;Node13</title>
<path fill="none" stroke="midnightblue" d="M1129.37,-368.78C1096.8,-341.7 1041.96,-296.12 1013.64,-272.58"/>
<polygon fill="midnightblue" stroke="midnightblue" points="1127.22,-371.54 1137.15,-375.24 1131.69,-366.16 1127.22,-371.54"/>
</g>
<!-- Node15 -->
<g id="node15" class="node">
<title>Node15</title>
<g id="a_node15"><a xlink:href="swdsm_8cpp_a974f1a03f5461bb989248cceb41cd95b.html#a974f1a03f5461bb989248cceb41cd95b" target="_top" xlink:title="Gets the offset of an address on the local nodes part of the global memory.">
<polygon fill="white" stroke="black" points="962,-177 962,-196 1027,-196 1027,-177 962,-177"/>
<text text-anchor="middle" x="994.5" y="-184" font-family="Helvetica,sans-Serif" font-size="10.00">get_offset</text>
</a>
</g>
</g>
<!-- Node1&#45;&gt;Node15 -->
<g id="edge29" class="edge">
<title>Node1&#45;&gt;Node15</title>
<path fill="none" stroke="midnightblue" d="M1143.78,-366.24C1127.34,-333.74 1095.12,-275.3 1057,-233.5 1043.33,-218.51 1024.39,-204.85 1011.15,-196.17"/>
<polygon fill="midnightblue" stroke="midnightblue" points="1140.78,-368.06 1148.37,-375.45 1147.04,-364.94 1140.78,-368.06"/>
</g>
<!-- Node2&#45;&gt;Node2 -->
<g id="edge2" class="edge">
<title>Node2&#45;&gt;Node2</title>
<path fill="none" stroke="midnightblue" d="M1022.93,-663.96C1019.4,-668.68 1009.92,-672 994.5,-672 969.19,-672 959.89,-663.06 966.62,-653.66"/>
<polygon fill="midnightblue" stroke="midnightblue" points="1026.41,-663.46 1022.38,-653.66 1019.42,-663.83 1026.41,-663.46"/>
</g>
<!-- Node3 -->
<g id="node3" class="node">
<title>Node3</title>
<g id="a_node3"><a xlink:href="backend_8hpp_a8e7144eaa88e3a94eb4e5fb8efb423a4.html#a8e7144eaa88e3a94eb4e5fb8efb423a4" target="_top" xlink:title="Atomic CAS operation on a global address.">
<polygon fill="white" stroke="black" points="771,-636.5 771,-666.5 896,-666.5 896,-636.5 771,-636.5"/>
<text text-anchor="start" x="779" y="-654.5" font-family="Helvetica,sans-Serif" font-size="10.00">argo::backend::atomic</text>
<text text-anchor="middle" x="833.5" y="-643.5" font-family="Helvetica,sans-Serif" font-size="10.00">::compare_exchange</text>
</a>
</g>
</g>
<!-- Node2&#45;&gt;Node3 -->
<g id="edge3" class="edge">
<title>Node2&#45;&gt;Node3</title>
<path fill="none" stroke="midnightblue" d="M921.41,-644.39C913.01,-645.08 904.5,-645.78 896.26,-646.45"/>
<polygon fill="midnightblue" stroke="midnightblue" points="921.89,-647.87 931.57,-643.56 921.32,-640.89 921.89,-647.87"/>
</g>
<!-- Node3&#45;&gt;Node3 -->
<g id="edge4" class="edge">
<title>Node3&#45;&gt;Node3</title>
<path fill="none" stroke="midnightblue" d="M861.93,-676.96C858.4,-681.68 848.92,-685 833.5,-685 808.19,-685 798.89,-676.06 805.62,-666.66"/>
<polygon fill="midnightblue" stroke="midnightblue" points="865.41,-676.46 861.38,-666.66 858.42,-676.83 865.41,-676.46"/>
</g>
<!-- Node4&#45;&gt;Node4 -->
<g id="edge6" class="edge">
<title>Node4&#45;&gt;Node4</title>
<path fill="none" stroke="midnightblue" d="M1022.93,-575.96C1019.4,-580.68 1009.92,-584 994.5,-584 969.19,-584 959.89,-575.06 966.62,-565.66"/>
<polygon fill="midnightblue" stroke="midnightblue" points="1026.41,-575.46 1022.38,-565.66 1019.42,-575.83 1026.41,-575.46"/>
</g>
<!-- Node5 -->
<g id="node5" class="node">
<title>Node5</title>
<g id="a_node5"><a xlink:href="backend_8hpp_abe831501c00abf39b0519eef6789933f.html#abe831501c00abf39b0519eef6789933f" target="_top" xlink:title="atomic swap operation on a global address">
<polygon fill="white" stroke="black" points="771,-569.5 771,-599.5 896,-599.5 896,-569.5 771,-569.5"/>
<text text-anchor="start" x="779" y="-587.5" font-family="Helvetica,sans-Serif" font-size="10.00">argo::backend::atomic</text>
<text text-anchor="middle" x="833.5" y="-576.5" font-family="Helvetica,sans-Serif" font-size="10.00">::exchange</text>
</a>
</g>
</g>
<!-- Node4&#45;&gt;Node5 -->
<g id="edge7" class="edge">
<title>Node4&#45;&gt;Node5</title>
<path fill="none" stroke="midnightblue" d="M921.68,-565.86C913.2,-567.67 904.59,-569.51 896.26,-571.29"/>
<polygon fill="midnightblue" stroke="midnightblue" points="922.52,-569.26 931.57,-563.74 921.06,-562.41 922.52,-569.26"/>
</g>
<!-- Node5&#45;&gt;Node5 -->
<g id="edge8" class="edge">
<title>Node5&#45;&gt;Node5</title>
<path fill="none" stroke="midnightblue" d="M861.93,-609.96C858.4,-614.68 848.92,-618 833.5,-618 808.19,-618 798.89,-609.06 805.62,-599.66"/>
<polygon fill="midnightblue" stroke="midnightblue" points="865.41,-609.46 861.38,-599.66 858.42,-609.83 865.41,-609.46"/>
</g>
<!-- Node6&#45;&gt;Node6 -->
<g id="edge10" class="edge">
<title>Node6&#45;&gt;Node6</title>
<path fill="none" stroke="midnightblue" d="M1022.93,-466.96C1019.4,-471.68 1009.92,-475 994.5,-475 969.19,-475 959.89,-466.06 966.62,-456.66"/>
<polygon fill="midnightblue" stroke="midnightblue" points="1026.41,-466.46 1022.38,-456.66 1019.42,-466.83 1026.41,-466.46"/>
</g>
<!-- Node7 -->
<g id="node7" class="node">
<title>Node7</title>
<g id="a_node7"><a xlink:href="backend_8hpp_a62d5f2da9f560d2d8a956be88861af7b.html#a62d5f2da9f560d2d8a956be88861af7b" target="_top" xlink:title="Backend internal type erased atomic (post)increment function for floating point numbers.">
<polygon fill="white" stroke="black" points="771,-502.5 771,-532.5 896,-532.5 896,-502.5 771,-502.5"/>
<text text-anchor="start" x="779" y="-520.5" font-family="Helvetica,sans-Serif" font-size="10.00">argo::backend::atomic</text>
<text text-anchor="middle" x="833.5" y="-509.5" font-family="Helvetica,sans-Serif" font-size="10.00">::_fetch_add_float</text>
</a>
</g>
</g>
<!-- Node6&#45;&gt;Node7 -->
<g id="edge11" class="edge">
<title>Node6&#45;&gt;Node7</title>
<path fill="none" stroke="midnightblue" d="M958.18,-461.63C939.88,-471.73 917.02,-483.83 896,-493.5 889.34,-496.56 882.16,-499.6 875.14,-502.42"/>
<polygon fill="midnightblue" stroke="midnightblue" points="959.99,-464.63 967.03,-456.71 956.59,-458.51 959.99,-464.63"/>
</g>
<!-- Node9 -->
<g id="node9" class="node">
<title>Node9</title>
<g id="a_node9"><a xlink:href="backend_8hpp_a42d4f07adf3b439564928f89022b74b5.html#a42d4f07adf3b439564928f89022b74b5" target="_top" xlink:title="Backend internal type erased atomic (post)increment function for signed integers.">
<polygon fill="white" stroke="black" points="771,-435.5 771,-465.5 896,-465.5 896,-435.5 771,-435.5"/>
<text text-anchor="start" x="779" y="-453.5" font-family="Helvetica,sans-Serif" font-size="10.00">argo::backend::atomic</text>
<text text-anchor="middle" x="833.5" y="-442.5" font-family="Helvetica,sans-Serif" font-size="10.00">::_fetch_add_int</text>
</a>
</g>
</g>
<!-- Node6&#45;&gt;Node9 -->
<g id="edge15" class="edge">
<title>Node6&#45;&gt;Node9</title>
<path fill="none" stroke="midnightblue" d="M921.41,-445.58C913.01,-446.06 904.5,-446.54 896.26,-447"/>
<polygon fill="midnightblue" stroke="midnightblue" points="921.78,-449.07 931.57,-445.01 921.39,-442.08 921.78,-449.07"/>
</g>
<!-- Node10 -->
<g id="node10" class="node">
<title>Node10</title>
<g id="a_node10"><a xlink:href="backend_8hpp_ab1a86cdd5235a54afdf0ac3d9f9f6f9c.html#ab1a86cdd5235a54afdf0ac3d9f9f6f9c" target="_top" xlink:title="Backend internal type erased atomic (post)increment function for unsigned integers.">
<polygon fill="white" stroke="black" points="771,-368.5 771,-398.5 896,-398.5 896,-368.5 771,-368.5"/>
<text text-anchor="start" x="779" y="-386.5" font-family="Helvetica,sans-Serif" font-size="10.00">argo::backend::atomic</text>
<text text-anchor="middle" x="833.5" y="-375.5" font-family="Helvetica,sans-Serif" font-size="10.00">::_fetch_add_uint</text>
</a>
</g>
</g>
<!-- Node6&#45;&gt;Node10 -->
<g id="edge18" class="edge">
<title>Node6&#45;&gt;Node10</title>
<path fill="none" stroke="midnightblue" d="M942.47,-422.89C920.88,-415.01 896.05,-405.95 875.65,-398.51"/>
<polygon fill="midnightblue" stroke="midnightblue" points="941.55,-426.27 952.14,-426.41 943.94,-419.7 941.55,-426.27"/>
</g>
<!-- Node7&#45;&gt;Node7 -->
<g id="edge12" class="edge">
<title>Node7&#45;&gt;Node7</title>
<path fill="none" stroke="midnightblue" d="M861.93,-542.96C858.4,-547.68 848.92,-551 833.5,-551 808.19,-551 798.89,-542.06 805.62,-532.66"/>
<polygon fill="midnightblue" stroke="midnightblue" points="865.41,-542.46 861.38,-532.66 858.42,-542.83 865.41,-542.46"/>
</g>
<!-- Node8 -->
<g id="node8" class="node">
<title>Node8</title>
<g id="a_node8"><a xlink:href="backend_8hpp_afd1987dffd4e9100c88c457234f64a52.html#afd1987dffd4e9100c88c457234f64a52" target="_top" xlink:title="Atomic fetch and add operation on a global address.">
<polygon fill="white" stroke="black" points="602.5,-435.5 602.5,-465.5 727.5,-465.5 727.5,-435.5 602.5,-435.5"/>
<text text-anchor="start" x="610.5" y="-453.5" font-family="Helvetica,sans-Serif" font-size="10.00">argo::backend::atomic</text>
<text text-anchor="middle" x="665" y="-442.5" font-family="Helvetica,sans-Serif" font-size="10.00">::fetch_add</text>
</a>
</g>
</g>
<!-- Node7&#45;&gt;Node8 -->
<g id="edge13" class="edge">
<title>Node7&#45;&gt;Node8</title>
<path fill="none" stroke="midnightblue" d="M784.09,-498.7C779.66,-496.95 775.25,-495.2 771,-493.5 748.14,-484.36 722.57,-473.89 702.38,-465.57"/>
<polygon fill="midnightblue" stroke="midnightblue" points="783.16,-502.09 793.75,-502.49 785.72,-495.58 783.16,-502.09"/>
</g>
<!-- Node8&#45;&gt;Node8 -->
<g id="edge14" class="edge">
<title>Node8&#45;&gt;Node8</title>
<path fill="none" stroke="midnightblue" d="M694.85,-475.96C691.15,-480.68 681.2,-484 665,-484 638.42,-484 628.66,-475.06 635.72,-465.66"/>
<polygon fill="midnightblue" stroke="midnightblue" points="698.33,-475.45 694.28,-465.66 691.34,-475.84 698.33,-475.45"/>
</g>
<!-- Node9&#45;&gt;Node8 -->
<g id="edge17" class="edge">
<title>Node9&#45;&gt;Node8</title>
<path fill="none" stroke="midnightblue" d="M760.88,-450.5C749.78,-450.5 738.4,-450.5 727.55,-450.5"/>
<polygon fill="midnightblue" stroke="midnightblue" points="760.97,-454 770.97,-450.5 760.97,-447 760.97,-454"/>
</g>
<!-- Node9&#45;&gt;Node9 -->
<g id="edge16" class="edge">
<title>Node9&#45;&gt;Node9</title>
<path fill="none" stroke="midnightblue" d="M861.93,-475.96C858.4,-480.68 848.92,-484 833.5,-484 808.19,-484 798.89,-475.06 805.62,-465.66"/>
<polygon fill="midnightblue" stroke="midnightblue" points="865.41,-475.46 861.38,-465.66 858.42,-475.83 865.41,-475.46"/>
</g>
<!-- Node10&#45;&gt;Node8 -->
<g id="edge20" class="edge">
<title>Node10&#45;&gt;Node8</title>
<path fill="none" stroke="midnightblue" d="M785.85,-402.27C759.85,-412.74 727.9,-425.59 703.53,-435.4"/>
<polygon fill="midnightblue" stroke="midnightblue" points="787.16,-405.52 795.13,-398.54 784.55,-399.02 787.16,-405.52"/>
</g>
<!-- Node10&#45;&gt;Node10 -->
<g id="edge19" class="edge">
<title>Node10&#45;&gt;Node10</title>
<path fill="none" stroke="midnightblue" d="M861.93,-408.96C858.4,-413.68 848.92,-417 833.5,-417 808.19,-417 798.89,-408.06 805.62,-398.66"/>
<polygon fill="midnightblue" stroke="midnightblue" points="865.41,-408.46 861.38,-398.66 858.42,-408.83 865.41,-408.46"/>
</g>
<!-- Node11&#45;&gt;Node11 -->
<g id="edge22" class="edge">
<title>Node11&#45;&gt;Node11</title>
<path fill="none" stroke="midnightblue" d="M1022.93,-382.96C1019.4,-387.68 1009.92,-391 994.5,-391 969.19,-391 959.89,-382.06 966.62,-372.66"/>
<polygon fill="midnightblue" stroke="midnightblue" points="1026.41,-382.46 1022.38,-372.66 1019.42,-382.83 1026.41,-382.46"/>
</g>
<!-- Node12 -->
<g id="node12" class="node">
<title>Node12</title>
<g id="a_node12"><a xlink:href="backend_8hpp_abcb3b11cf70d5b8009edfabaa08def9d.html#abcb3b11cf70d5b8009edfabaa08def9d" target="_top" xlink:title="Atomic load operation on a global address.">
<polygon fill="white" stroke="black" points="771,-301.5 771,-331.5 896,-331.5 896,-301.5 771,-301.5"/>
<text text-anchor="start" x="779" y="-319.5" font-family="Helvetica,sans-Serif" font-size="10.00">argo::backend::atomic</text>
<text text-anchor="middle" x="833.5" y="-308.5" font-family="Helvetica,sans-Serif" font-size="10.00">::load</text>
</a>
</g>
</g>
<!-- Node11&#45;&gt;Node12 -->
<g id="edge23" class="edge">
<title>Node11&#45;&gt;Node12</title>
<path fill="none" stroke="midnightblue" d="M925.35,-339.93C914.51,-337.13 903.38,-334.26 892.8,-331.53"/>
<polygon fill="midnightblue" stroke="midnightblue" points="924.64,-343.36 935.2,-342.47 926.39,-336.58 924.64,-343.36"/>
</g>
<!-- Node12&#45;&gt;Node12 -->
<g id="edge24" class="edge">
<title>Node12&#45;&gt;Node12</title>
<path fill="none" stroke="midnightblue" d="M861.93,-341.96C858.4,-346.68 848.92,-350 833.5,-350 808.19,-350 798.89,-341.06 805.62,-331.66"/>
<polygon fill="midnightblue" stroke="midnightblue" points="865.41,-341.46 861.38,-331.66 858.42,-341.83 865.41,-341.46"/>
</g>
<!-- Node13&#45;&gt;Node13 -->
<g id="edge26" class="edge">
<title>Node13&#45;&gt;Node13</title>
<path fill="none" stroke="midnightblue" d="M1022.93,-282.96C1019.4,-287.68 1009.92,-291 994.5,-291 969.19,-291 959.89,-282.06 966.62,-272.66"/>
<polygon fill="midnightblue" stroke="midnightblue" points="1026.41,-282.46 1022.38,-272.66 1019.42,-282.83 1026.41,-282.46"/>
</g>
<!-- Node14 -->
<g id="node14" class="node">
<title>Node14</title>
<g id="a_node14"><a xlink:href="backend_8hpp_a360aa0082e4b2bfe2f6c19d333ff56fa.html#a360aa0082e4b2bfe2f6c19d333ff56fa" target="_top" xlink:title="Atomic store operation on a global address.">
<polygon fill="white" stroke="black" points="771,-234.5 771,-264.5 896,-264.5 896,-234.5 771,-234.5"/>
<text text-anchor="start" x="779" y="-252.5" font-family="Helvetica,sans-Serif" font-size="10.00">argo::backend::atomic</text>
<text text-anchor="middle" x="833.5" y="-241.5" font-family="Helvetica,sans-Serif" font-size="10.00">::store</text>
</a>
</g>
</g>
<!-- Node13&#45;&gt;Node14 -->
<g id="edge27" class="edge">
<title>Node13&#45;&gt;Node14</title>
<path fill="none" stroke="midnightblue" d="M921.41,-253.87C913.01,-253.45 904.5,-253.02 896.26,-252.61"/>
<polygon fill="midnightblue" stroke="midnightblue" points="921.41,-257.38 931.57,-254.38 921.76,-250.39 921.41,-257.38"/>
</g>
<!-- Node14&#45;&gt;Node14 -->
<g id="edge28" class="edge">
<title>Node14&#45;&gt;Node14</title>
<path fill="none" stroke="midnightblue" d="M861.93,-274.96C858.4,-279.68 848.92,-283 833.5,-283 808.19,-283 798.89,-274.06 805.62,-264.66"/>
<polygon fill="midnightblue" stroke="midnightblue" points="865.41,-274.46 861.38,-264.66 858.42,-274.83 865.41,-274.46"/>
</g>
<!-- Node16 -->
<g id="node16" class="node">
<title>Node16</title>
<g id="a_node16"><a xlink:href="swdsm_8cpp_adb24c11067d42b9bc8515a78a524e2c7.html#adb24c11067d42b9bc8515a78a524e2c7" target="_top" xlink:title="Catches memory accesses to memory not yet cached in ArgoDSM. Launches remote requests for memory not ...">
<polygon fill="white" stroke="black" points="465,-177 465,-196 518,-196 518,-177 465,-177"/>
<text text-anchor="middle" x="491.5" y="-184" font-family="Helvetica,sans-Serif" font-size="10.00">handler</text>
</a>
</g>
</g>
<!-- Node15&#45;&gt;Node16 -->
<g id="edge30" class="edge">
<title>Node15&#45;&gt;Node16</title>
<path fill="none" stroke="midnightblue" d="M951.59,-188.6C934.38,-189.36 914.23,-190.13 896,-190.5 753.47,-193.42 582.57,-189.17 518.47,-187.3"/>
<polygon fill="midnightblue" stroke="midnightblue" points="952.07,-192.08 961.89,-188.13 951.75,-185.09 952.07,-192.08"/>
</g>
<!-- Node19 -->
<g id="node19" class="node">
<title>Node19</title>
<g id="a_node19"><a xlink:href="swdsm_8cpp_a92a73a9ea2009afcbef38b3e88b9ac0f.html#a92a73a9ea2009afcbef38b3e88b9ac0f" target="_top" xlink:title="load into cache helper function">
<polygon fill="white" stroke="black" points="614,-158 614,-177 716,-177 716,-158 614,-158"/>
<text text-anchor="middle" x="665" y="-165" font-family="Helvetica,sans-Serif" font-size="10.00">load_cache_entry</text>
</a>
</g>
</g>
<!-- Node15&#45;&gt;Node19 -->
<g id="edge33" class="edge">
<title>Node15&#45;&gt;Node19</title>
<path fill="none" stroke="midnightblue" d="M951.51,-184.06C891.26,-180.57 780.44,-174.14 716.02,-170.4"/>
<polygon fill="midnightblue" stroke="midnightblue" points="951.61,-187.58 961.8,-184.66 952.02,-180.59 951.61,-187.58"/>
</g>
<!-- Node20 -->
<g id="node20" class="node">
<title>Node20</title>
<g id="a_node20"><a xlink:href="swdsm_8cpp_a3b6a6b2b244edb9faa79814ce8e5e9f5.html#a3b6a6b2b244edb9faa79814ce8e5e9f5" target="_top" xlink:title="stores a page remotely &#45; only writing back what has been written locally since last synchronization p...">
<polygon fill="white" stroke="black" points="789.5,-108 789.5,-127 877.5,-127 877.5,-108 789.5,-108"/>
<text text-anchor="middle" x="833.5" y="-115" font-family="Helvetica,sans-Serif" font-size="10.00">storepageDIFF</text>
</a>
</g>
</g>
<!-- Node15&#45;&gt;Node20 -->
<g id="edge35" class="edge">
<title>Node15&#45;&gt;Node20</title>
<path fill="none" stroke="midnightblue" d="M961.85,-172.77C930.64,-159.22 883.74,-138.87 856.42,-127.01"/>
<polygon fill="midnightblue" stroke="midnightblue" points="960.82,-176.14 971.39,-176.91 963.61,-169.71 960.82,-176.14"/>
</g>
<!-- Node17 -->
<g id="node17" class="node">
<title>Node17</title>
<g id="a_node17"><a xlink:href="swdsm_8cpp_a31ba60e8ddccfa922da8d7e6a10f7b1d.html#a31ba60e8ddccfa922da8d7e6a10f7b1d" target="_top" xlink:title="Initializes ArgoDSM runtime.">
<polygon fill="white" stroke="black" points="290,-177 290,-196 376,-196 376,-177 290,-177"/>
<text text-anchor="middle" x="333" y="-184" font-family="Helvetica,sans-Serif" font-size="10.00">argo_initialize</text>
</a>
</g>
</g>
<!-- Node16&#45;&gt;Node17 -->
<g id="edge31" class="edge">
<title>Node16&#45;&gt;Node17</title>
<path fill="none" stroke="midnightblue" d="M454.48,-186.5C431.12,-186.5 400.59,-186.5 376.11,-186.5"/>
<polygon fill="midnightblue" stroke="midnightblue" points="454.66,-190 464.66,-186.5 454.66,-183 454.66,-190"/>
</g>
<!-- Node18 -->
<g id="node18" class="node">
<title>Node18</title>
<g id="a_node18"><a xlink:href="backend_8hpp_aab3cabb3e1c0b9696b339416b684f78c.html#aab3cabb3e1c0b9696b339416b684f78c" target="_top" xlink:title="initialize backend">
<polygon fill="white" stroke="black" points="135,-177 135,-196 242,-196 242,-177 135,-177"/>
<text text-anchor="middle" x="188.5" y="-184" font-family="Helvetica,sans-Serif" font-size="10.00">argo::backend::init</text>
</a>
</g>
</g>
<!-- Node17&#45;&gt;Node18 -->
<g id="edge32" class="edge">
<title>Node17&#45;&gt;Node18</title>
<path fill="none" stroke="midnightblue" d="M279.57,-186.5C267.34,-186.5 254.3,-186.5 242.06,-186.5"/>
<polygon fill="midnightblue" stroke="midnightblue" points="279.63,-190 289.63,-186.5 279.63,-183 279.63,-190"/>
</g>
<!-- Node19&#45;&gt;Node16 -->
<g id="edge34" class="edge">
<title>Node19&#45;&gt;Node16</title>
<path fill="none" stroke="midnightblue" d="M603.75,-174.17C574.37,-177.43 540.6,-181.17 518.05,-183.67"/>
<polygon fill="midnightblue" stroke="midnightblue" points="604.38,-177.63 613.93,-173.05 603.61,-170.67 604.38,-177.63"/>
</g>
<!-- Node20&#45;&gt;Node19 -->
<g id="edge40" class="edge">
<title>Node20&#45;&gt;Node19</title>
<path fill="none" stroke="midnightblue" d="M794.05,-130.11C776.15,-135.88 754.54,-142.71 735,-148.5 724.28,-151.68 712.57,-154.97 701.89,-157.9"/>
<polygon fill="midnightblue" stroke="midnightblue" points="795.14,-133.43 803.58,-127.02 792.99,-126.77 795.14,-133.43"/>
</g>
<!-- Node21 -->
<g id="node21" class="node">
<title>Node21</title>
<g id="a_node21"><a xlink:href="backend_8hpp_ac3350bde3c8baf64753e515336fad3be.html#ac3350bde3c8baf64753e515336fad3be" target="_top" xlink:title="backend internal type erased function for selective release">
<polygon fill="white" stroke="black" points="595,-90.5 595,-120.5 735,-120.5 735,-90.5 595,-90.5"/>
<text text-anchor="start" x="603" y="-108.5" font-family="Helvetica,sans-Serif" font-size="10.00">argo::backend::_selective</text>
<text text-anchor="middle" x="665" y="-97.5" font-family="Helvetica,sans-Serif" font-size="10.00">_release</text>
</a>
</g>
</g>
<!-- Node20&#45;&gt;Node21 -->
<g id="edge36" class="edge">
<title>Node20&#45;&gt;Node21</title>
<path fill="none" stroke="midnightblue" d="M778.84,-113.63C764.95,-112.63 749.79,-111.54 735.22,-110.49"/>
<polygon fill="midnightblue" stroke="midnightblue" points="778.96,-117.15 789.19,-114.38 779.47,-110.17 778.96,-117.15"/>
</g>
<!-- Node23 -->
<g id="node23" class="node">
<title>Node23</title>
<g id="a_node23"><a xlink:href="classwrite__buffer_a066de0a724f3f13272780ad7ca8e6502.html#a066de0a724f3f13272780ad7ca8e6502" target="_top" xlink:title="Perform writeback of a single cached page.">
<polygon fill="white" stroke="black" points="612,-41.5 612,-71.5 718,-71.5 718,-41.5 612,-41.5"/>
<text text-anchor="start" x="620" y="-59.5" font-family="Helvetica,sans-Serif" font-size="10.00">write_buffer::write</text>
<text text-anchor="middle" x="665" y="-48.5" font-family="Helvetica,sans-Serif" font-size="10.00">_back_index</text>
</a>
</g>
</g>
<!-- Node20&#45;&gt;Node23 -->
<g id="edge41" class="edge">
<title>Node20&#45;&gt;Node23</title>
<path fill="none" stroke="midnightblue" d="M797.35,-104.46C778.81,-97.6 755.68,-89.07 735,-81.5 726.15,-78.26 716.64,-74.81 707.61,-71.53"/>
<polygon fill="midnightblue" stroke="midnightblue" points="796.26,-107.79 806.86,-107.98 798.69,-101.23 796.26,-107.79"/>
</g>
<!-- Node21&#45;&gt;Node21 -->
<g id="edge37" class="edge">
<title>Node21&#45;&gt;Node21</title>
<path fill="none" stroke="midnightblue" d="M694.85,-130.96C691.15,-135.68 681.2,-139 665,-139 638.42,-139 628.66,-130.06 635.72,-120.66"/>
<polygon fill="midnightblue" stroke="midnightblue" points="698.33,-130.45 694.28,-120.66 691.34,-130.84 698.33,-130.45"/>
</g>
<!-- Node22 -->
<g id="node22" class="node">
<title>Node22</title>
<g id="a_node22"><a xlink:href="backend_8hpp_a37c88e1409650776ddb3a33d7f2744cb.html#a37c88e1409650776ddb3a33d7f2744cb" target="_top" xlink:title="causes a node to self&#45;downgrade specified pages from its cache, making all previous writes to be prop...">
<polygon fill="white" stroke="black" points="424,-90.5 424,-120.5 559,-120.5 559,-90.5 424,-90.5"/>
<text text-anchor="start" x="432" y="-108.5" font-family="Helvetica,sans-Serif" font-size="10.00">argo::backend::selective</text>
<text text-anchor="middle" x="491.5" y="-97.5" font-family="Helvetica,sans-Serif" font-size="10.00">_release</text>
</a>
</g>
</g>
<!-- Node21&#45;&gt;Node22 -->
<g id="edge38" class="edge">
<title>Node21&#45;&gt;Node22</title>
<path fill="none" stroke="midnightblue" d="M584.5,-105.5C576.05,-105.5 567.52,-105.5 559.24,-105.5"/>
<polygon fill="midnightblue" stroke="midnightblue" points="584.74,-109 594.74,-105.5 584.74,-102 584.74,-109"/>
</g>
<!-- Node22&#45;&gt;Node22 -->
<g id="edge39" class="edge">
<title>Node22&#45;&gt;Node22</title>
<path fill="none" stroke="midnightblue" d="M519.57,-130.96C516.09,-135.68 506.73,-139 491.5,-139 466.5,-139 457.33,-130.06 463.97,-120.66"/>
<polygon fill="midnightblue" stroke="midnightblue" points="523.05,-130.46 519.03,-120.66 516.06,-130.83 523.05,-130.46"/>
</g>
<!-- Node24 -->
<g id="node24" class="node">
<title>Node24</title>
<g id="a_node24"><a xlink:href="classwrite__buffer_ad01396b3a57acdae3d76a31ae6253f48.html#ad01396b3a57acdae3d76a31ae6253f48" target="_top" xlink:title="Internal implementation of flush.">
<polygon fill="white" stroke="black" points="436.5,-50 436.5,-69 546.5,-69 546.5,-50 436.5,-50"/>
<text text-anchor="middle" x="491.5" y="-57" font-family="Helvetica,sans-Serif" font-size="10.00">write_buffer::_flush</text>
</a>
</g>
</g>
<!-- Node23&#45;&gt;Node24 -->
<g id="edge42" class="edge">
<title>Node23&#45;&gt;Node24</title>
<path fill="none" stroke="midnightblue" d="M601.51,-57.59C583.53,-57.91 564.07,-58.25 546.64,-58.55"/>
<polygon fill="midnightblue" stroke="midnightblue" points="601.68,-61.09 611.61,-57.42 601.55,-54.09 601.68,-61.09"/>
</g>
<!-- Node27 -->
<g id="node27" class="node">
<title>Node27</title>
<g id="a_node27"><a xlink:href="classwrite__buffer_aa6a1c2c3aa3a7cde744bbca3b14f599a.html#aa6a1c2c3aa3a7cde744bbca3b14f599a" target="_top" xlink:title="Flushes first _write_back_size elements of the ArgoDSM write buffer to memory.">
<polygon fill="white" stroke="black" points="439.5,-0.5 439.5,-30.5 543.5,-30.5 543.5,-0.5 439.5,-0.5"/>
<text text-anchor="start" x="447.5" y="-18.5" font-family="Helvetica,sans-Serif" font-size="10.00">write_buffer::flush</text>
<text text-anchor="middle" x="491.5" y="-7.5" font-family="Helvetica,sans-Serif" font-size="10.00">_partial</text>
</a>
</g>
</g>
<!-- Node23&#45;&gt;Node27 -->
<g id="edge45" class="edge">
<title>Node23&#45;&gt;Node27</title>
<path fill="none" stroke="midnightblue" d="M601.81,-41.63C582.72,-37.07 561.95,-32.1 543.68,-27.74"/>
<polygon fill="midnightblue" stroke="midnightblue" points="601.07,-45.05 611.61,-43.98 602.7,-38.25 601.07,-45.05"/>
</g>
<!-- Node25 -->
<g id="node25" class="node">
<title>Node25</title>
<g id="a_node25"><a xlink:href="classwrite__buffer_adbf59cdee2664f9db4a5e0dfd4f273ef.html#adbf59cdee2664f9db4a5e0dfd4f273ef" target="_top" xlink:title="Helper function to call _flush.">
<polygon fill="white" stroke="black" points="278,-44.5 278,-74.5 388,-74.5 388,-44.5 278,-44.5"/>
<text text-anchor="start" x="286" y="-62.5" font-family="Helvetica,sans-Serif" font-size="10.00">write_buffer::_flush</text>
<text text-anchor="middle" x="333" y="-51.5" font-family="Helvetica,sans-Serif" font-size="10.00">_helper</text>
</a>
</g>
</g>
<!-- Node24&#45;&gt;Node25 -->
<g id="edge43" class="edge">
<title>Node24&#45;&gt;Node25</title>
<path fill="none" stroke="midnightblue" d="M425.84,-59.5C413.32,-59.5 400.34,-59.5 388.2,-59.5"/>
<polygon fill="midnightblue" stroke="midnightblue" points="426.2,-63 436.2,-59.5 426.2,-56 426.2,-63"/>
</g>
<!-- Node26 -->
<g id="node26" class="node">
<title>Node26</title>
<g id="a_node26"><a xlink:href="classwrite__buffer_aca2e330e17a38c1cc8d8c60701ce9dd7.html#aca2e330e17a38c1cc8d8c60701ce9dd7" target="_top" xlink:title="Flushes the ArgoDSM write buffer to memory.">
<polygon fill="white" stroke="black" points="136.5,-50 136.5,-69 240.5,-69 240.5,-50 136.5,-50"/>
<text text-anchor="middle" x="188.5" y="-57" font-family="Helvetica,sans-Serif" font-size="10.00">write_buffer::flush</text>
</a>
</g>
</g>
<!-- Node25&#45;&gt;Node26 -->
<g id="edge44" class="edge">
<title>Node25&#45;&gt;Node26</title>
<path fill="none" stroke="midnightblue" d="M267.66,-59.5C258.66,-59.5 249.52,-59.5 240.81,-59.5"/>
<polygon fill="midnightblue" stroke="midnightblue" points="267.72,-63 277.72,-59.5 267.72,-56 267.72,-63"/>
</g>
<!-- Node28 -->
<g id="node28" class="node">
<title>Node28</title>
<g id="a_node28"><a xlink:href="classwrite__buffer_a327be1f65770b56442b1e8ee967be23d.html#a327be1f65770b56442b1e8ee967be23d" target="_top" xlink:title="Internal function to add an element to the write buffer.">
<polygon fill="white" stroke="black" points="281,-6 281,-25 385,-25 385,-6 281,-6"/>
<text text-anchor="middle" x="333" y="-13" font-family="Helvetica,sans-Serif" font-size="10.00">write_buffer::_add</text>
</a>
</g>
</g>
<!-- Node27&#45;&gt;Node28 -->
<g id="edge46" class="edge">
<title>Node27&#45;&gt;Node28</title>
<path fill="none" stroke="midnightblue" d="M428.87,-15.5C414.37,-15.5 399.07,-15.5 385.09,-15.5"/>
<polygon fill="midnightblue" stroke="midnightblue" points="429.26,-19 439.26,-15.5 429.26,-12 429.26,-19"/>
</g>
<!-- Node29 -->
<g id="node29" class="node">
<title>Node29</title>
<g id="a_node29"><a xlink:href="classwrite__buffer_ab5f16d0de074372b34cc4ebba9c58550.html#ab5f16d0de074372b34cc4ebba9c58550" target="_top" xlink:title="Helper function to call _add.">
<polygon fill="white" stroke="black" points="136.5,-0.5 136.5,-30.5 240.5,-30.5 240.5,-0.5 136.5,-0.5"/>
<text text-anchor="start" x="144.5" y="-18.5" font-family="Helvetica,sans-Serif" font-size="10.00">write_buffer::_add</text>
<text text-anchor="middle" x="188.5" y="-7.5" font-family="Helvetica,sans-Serif" font-size="10.00">_helper</text>
</a>
</g>
</g>
<!-- Node28&#45;&gt;Node29 -->
<g id="edge47" class="edge">
<title>Node28&#45;&gt;Node29</title>
<path fill="none" stroke="midnightblue" d="M270.66,-15.5C260.66,-15.5 250.39,-15.5 240.67,-15.5"/>
<polygon fill="midnightblue" stroke="midnightblue" points="270.96,-19 280.96,-15.5 270.96,-12 270.96,-19"/>
</g>
<!-- Node30 -->
<g id="node30" class="node">
<title>Node30</title>
<g id="a_node30"><a xlink:href="classwrite__buffer_a23b0dbc463111cacbbf83b267e76ac9f.html#a23b0dbc463111cacbbf83b267e76ac9f" target="_top" xlink:title="Adds a new element to the write buffer.">
<polygon fill="white" stroke="black" points="0,-6 0,-25 99,-25 99,-6 0,-6"/>
<text text-anchor="middle" x="49.5" y="-13" font-family="Helvetica,sans-Serif" font-size="10.00">write_buffer::add</text>
</a>
</g>
</g>
<!-- Node29&#45;&gt;Node30 -->
<g id="edge48" class="edge">
<title>Node29&#45;&gt;Node30</title>
<path fill="none" stroke="midnightblue" d="M126.36,-15.5C117.29,-15.5 108.05,-15.5 99.28,-15.5"/>
<polygon fill="midnightblue" stroke="midnightblue" points="126.49,-19 136.49,-15.5 126.49,-12 126.49,-19"/>
</g>
</g>
</svg>
