<?xml version="1.0" encoding="UTF-8" standalone="no"?>
<!DOCTYPE svg PUBLIC "-//W3C//DTD SVG 1.1//EN"
 "http://www.w3.org/Graphics/SVG/1.1/DTD/svg11.dtd">
<!-- Generated by graphviz version 2.43.0 (0)
 -->
<!-- Title: cache_lock::lock Pages: 1 -->
<svg width="876pt" height="197pt"
 viewBox="0.00 0.00 876.00 196.50" xmlns="http://www.w3.org/2000/svg" xmlns:xlink="http://www.w3.org/1999/xlink">
<g id="graph0" class="graph" transform="scale(1 1) rotate(0) translate(4 192.5)">
<title>cache_lock::lock</title>
<polygon fill="white" stroke="transparent" points="-4,4 -4,-192.5 872,-192.5 872,4 -4,4"/>
<!-- Node1 -->
<g id="node1" class="node">
<title>Node1</title>
<g id="a_node1"><a xlink:title="Acquire a cache lock.">
<polygon fill="#bfbfbf" stroke="black" points="771,-109 771,-128 868,-128 868,-109 771,-109"/>
<text text-anchor="middle" x="819.5" y="-116" font-family="Helvetica,sans-Serif" font-size="10.00">cache_lock::lock</text>
</a>
</g>
</g>
<!-- Node2 -->
<g id="node2" class="node">
<title>Node2</title>
<g id="a_node2"><a xlink:href="classcache__lock_aa7122e81c30f6d68707c8f5c13506c5d.html#aa7122e81c30f6d68707c8f5c13506c5d" target="_top" xlink:title="Get the time spent holding the lock.">
<polygon fill="white" stroke="black" points="589,-169 589,-188 735,-188 735,-169 589,-169"/>
<text text-anchor="middle" x="662" y="-176" font-family="Helvetica,sans-Serif" font-size="10.00">cache_lock::get_hold_time</text>
</a>
</g>
</g>
<!-- Node1&#45;&gt;Node2 -->
<g id="edge1" class="edge">
<title>Node1&#45;&gt;Node2</title>
<path fill="none" stroke="midnightblue" d="M792.79,-132.78C776.57,-141.37 754.98,-152.04 735,-159.5 725.43,-163.07 714.91,-166.25 704.94,-168.93"/>
<polygon fill="midnightblue" stroke="midnightblue" points="794.52,-135.82 801.67,-128 791.2,-129.66 794.52,-135.82"/>
</g>
<!-- Node3 -->
<g id="node3" class="node">
<title>Node3</title>
<g id="a_node3"><a xlink:href="classcache__lock_a20765dc9363f22615608c3936acbea12.html#a20765dc9363f22615608c3936acbea12" target="_top" xlink:title="Get the time spent waiting for the lock.">
<polygon fill="white" stroke="black" points="589,-131 589,-150 735,-150 735,-131 589,-131"/>
<text text-anchor="middle" x="662" y="-138" font-family="Helvetica,sans-Serif" font-size="10.00">cache_lock::get_lock_time</text>
</a>
</g>
</g>
<!-- Node1&#45;&gt;Node3 -->
<g id="edge2" class="edge">
<title>Node1&#45;&gt;Node3</title>
<path fill="none" stroke="midnightblue" d="M760.82,-126.66C750.86,-128.07 740.43,-129.55 730.24,-130.99"/>
<polygon fill="midnightblue" stroke="midnightblue" points="761.59,-130.09 771,-125.22 760.61,-123.16 761.59,-130.09"/>
</g>
<!-- Node6 -->
<g id="node6" class="node">
<title>Node6</title>
<g id="a_node6"><a xlink:href="classcache__lock_a7c2050c2d1fe11a3a2772a0305c0905e.html#a7c2050c2d1fe11a3a2772a0305c0905e" target="_top" xlink:title="Get the number of times this lock was held.">
<polygon fill="white" stroke="black" points="602.5,-81.5 602.5,-111.5 721.5,-111.5 721.5,-81.5 602.5,-81.5"/>
<text text-anchor="start" x="610.5" y="-99.5" font-family="Helvetica,sans-Serif" font-size="10.00">cache_lock::get_num</text>
<text text-anchor="middle" x="662" y="-88.5" font-family="Helvetica,sans-Serif" font-size="10.00">_locks</text>
</a>
</g>
</g>
<!-- Node1&#45;&gt;Node6 -->
<g id="edge5" class="edge">
<title>Node1&#45;&gt;Node6</title>
<path fill="none" stroke="midnightblue" d="M760.94,-110.36C748.15,-108.55 734.58,-106.63 721.74,-104.81"/>
<polygon fill="midnightblue" stroke="midnightblue" points="760.61,-113.84 771,-111.78 761.59,-106.91 760.61,-113.84"/>
</g>
<!-- Node7 -->
<g id="node7" class="node">
<title>Node7</title>
<g id="a_node7"><a xlink:href="classcache__lock_afecdbd6c7a1eb2e109b55bb90d44a6cb.html#afecdbd6c7a1eb2e109b55bb90d44a6cb" target="_top" xlink:title="Clear all recorded statistics.">
<polygon fill="white" stroke="black" points="596.5,-43 596.5,-62 727.5,-62 727.5,-43 596.5,-43"/>
<text text-anchor="middle" x="662" y="-50" font-family="Helvetica,sans-Serif" font-size="10.00">cache_lock::reset_stats</text>
</a>
</g>
</g>
<!-- Node1&#45;&gt;Node7 -->
<g id="edge7" class="edge">
<title>Node1&#45;&gt;Node7</title>
<path fill="none" stroke="midnightblue" d="M794.79,-103.49C778.46,-93.65 756.01,-81.07 735,-72.5 725.15,-68.48 714.22,-64.99 703.92,-62.09"/>
<polygon fill="midnightblue" stroke="midnightblue" points="793.28,-106.67 803.64,-108.92 796.94,-100.71 793.28,-106.67"/>
</g>
<!-- Node4 -->
<g id="node4" class="node">
<title>Node4</title>
<g id="a_node4"><a xlink:href="swdsm_8cpp_a3c8a8769158025ec9e929601b9df6439.html#a3c8a8769158025ec9e929601b9df6439" target="_top" xlink:title="Prints collected statistics.">
<polygon fill="white" stroke="black" points="459.5,-109 459.5,-128 548.5,-128 548.5,-109 459.5,-109"/>
<text text-anchor="middle" x="504" y="-116" font-family="Helvetica,sans-Serif" font-size="10.00">print_statistics</text>
</a>
</g>
</g>
<!-- Node3&#45;&gt;Node4 -->
<g id="edge3" class="edge">
<title>Node3&#45;&gt;Node4</title>
<path fill="none" stroke="midnightblue" d="M583.49,-129.57C571.55,-127.89 559.61,-126.2 548.76,-124.67"/>
<polygon fill="midnightblue" stroke="midnightblue" points="583.09,-133.05 593.48,-130.98 584.07,-126.12 583.09,-133.05"/>
</g>
<!-- Node5 -->
<g id="node5" class="node">
<title>Node5</title>
<g id="a_node5"><a xlink:href="swdsm_8cpp_aa954d5e0bcaee69ff6e03e697bcaf68b.html#aa954d5e0bcaee69ff6e03e697bcaf68b" target="_top" xlink:title="shut down ArgoDSM system">
<polygon fill="white" stroke="black" points="317.5,-109 317.5,-128 396.5,-128 396.5,-109 317.5,-109"/>
<text text-anchor="middle" x="357" y="-116" font-family="Helvetica,sans-Serif" font-size="10.00">argo_finalize</text>
</a>
</g>
</g>
<!-- Node4&#45;&gt;Node5 -->
<g id="edge4" class="edge">
<title>Node4&#45;&gt;Node5</title>
<path fill="none" stroke="midnightblue" d="M449.39,-118.5C431.86,-118.5 412.74,-118.5 396.55,-118.5"/>
<polygon fill="midnightblue" stroke="midnightblue" points="449.5,-122 459.5,-118.5 449.5,-115 449.5,-122"/>
</g>
<!-- Node6&#45;&gt;Node4 -->
<g id="edge6" class="edge">
<title>Node6&#45;&gt;Node4</title>
<path fill="none" stroke="midnightblue" d="M592.32,-106.19C577.53,-108.27 562.28,-110.42 548.74,-112.33"/>
<polygon fill="midnightblue" stroke="midnightblue" points="593.05,-109.62 602.47,-104.75 592.08,-102.69 593.05,-109.62"/>
</g>
<!-- Node8 -->
<g id="node8" class="node">
<title>Node8</title>
<g id="a_node8"><a xlink:href="swdsm_8cpp_aef8dea0c8e31701818a5017a5ff20223.html#aef8dea0c8e31701818a5017a5ff20223" target="_top" xlink:title="Resets all ArgoDSM statistics.">
<polygon fill="white" stroke="black" points="455,-43 455,-62 553,-62 553,-43 455,-43"/>
<text text-anchor="middle" x="504" y="-50" font-family="Helvetica,sans-Serif" font-size="10.00">argo_reset_stats</text>
</a>
</g>
</g>
<!-- Node7&#45;&gt;Node8 -->
<g id="edge8" class="edge">
<title>Node7&#45;&gt;Node8</title>
<path fill="none" stroke="midnightblue" d="M586,-52.5C574.84,-52.5 563.6,-52.5 553.19,-52.5"/>
<polygon fill="midnightblue" stroke="midnightblue" points="586.2,-56 596.2,-52.5 586.2,-49 586.2,-56"/>
</g>
<!-- Node9 -->
<g id="node9" class="node">
<title>Node9</title>
<g id="a_node9"><a xlink:href="swdsm_8cpp_adb17e929b24ae3fd6898035fce958122.html#adb17e929b24ae3fd6898035fce958122" target="_top" xlink:title="Resets current ArgoDSM coherence.">
<polygon fill="white" stroke="black" points="295,-68 295,-87 419,-87 419,-68 295,-68"/>
<text text-anchor="middle" x="357" y="-75" font-family="Helvetica,sans-Serif" font-size="10.00">argo_reset_coherence</text>
</a>
</g>
</g>
<!-- Node8&#45;&gt;Node9 -->
<g id="edge9" class="edge">
<title>Node8&#45;&gt;Node9</title>
<path fill="none" stroke="midnightblue" d="M444.57,-62.57C434.26,-64.35 423.56,-66.2 413.34,-67.96"/>
<polygon fill="midnightblue" stroke="midnightblue" points="445.46,-65.97 454.72,-60.82 444.27,-59.07 445.46,-65.97"/>
</g>
<!-- Node13 -->
<g id="node13" class="node">
<title>Node13</title>
<g id="a_node13"><a xlink:href="backend_8hpp_af6ad14f66aee964bd630b7d194a699de.html#af6ad14f66aee964bd630b7d194a699de" target="_top" xlink:title="Resets statistics for the ArgoDSM backend in use.">
<polygon fill="white" stroke="black" points="299,-0.5 299,-30.5 415,-30.5 415,-0.5 299,-0.5"/>
<text text-anchor="start" x="307" y="-18.5" font-family="Helvetica,sans-Serif" font-size="10.00">argo::backend::reset</text>
<text text-anchor="middle" x="357" y="-7.5" font-family="Helvetica,sans-Serif" font-size="10.00">_stats</text>
</a>
</g>
</g>
<!-- Node8&#45;&gt;Node13 -->
<g id="edge14" class="edge">
<title>Node8&#45;&gt;Node13</title>
<path fill="none" stroke="midnightblue" d="M455.61,-40.41C442.71,-37.11 428.59,-33.51 415.21,-30.1"/>
<polygon fill="midnightblue" stroke="midnightblue" points="455.1,-43.89 465.66,-42.97 456.83,-37.11 455.1,-43.89"/>
</g>
<!-- Node10 -->
<g id="node10" class="node">
<title>Node10</title>
<g id="a_node10"><a xlink:href="swdsm_8cpp_a31ba60e8ddccfa922da8d7e6a10f7b1d.html#a31ba60e8ddccfa922da8d7e6a10f7b1d" target="_top" xlink:title="Initializes ArgoDSM runtime.">
<polygon fill="white" stroke="black" points="158,-99 158,-118 244,-118 244,-99 158,-99"/>
<text text-anchor="middle" x="201" y="-106" font-family="Helvetica,sans-Serif" font-size="10.00">argo_initialize</text>
</a>
</g>
</g>
<!-- Node9&#45;&gt;Node10 -->
<g id="edge10" class="edge">
<title>Node9&#45;&gt;Node10</title>
<path fill="none" stroke="midnightblue" d="M298.67,-89.04C280.57,-92.68 260.92,-96.64 244.09,-100.03"/>
<polygon fill="midnightblue" stroke="midnightblue" points="299.43,-92.46 308.54,-87.05 298.04,-85.6 299.43,-92.46"/>
</g>
<!-- Node12 -->
<g id="node12" class="node">
<title>Node12</title>
<g id="a_node12"><a xlink:href="backend_8hpp_acb57f009ad65913e26147c6813eda04e.html#acb57f009ad65913e26147c6813eda04e" target="_top" xlink:title="Resets current ArgoDSM coherence.">
<polygon fill="white" stroke="black" points="143,-31.5 143,-61.5 259,-61.5 259,-31.5 143,-31.5"/>
<text text-anchor="start" x="151" y="-49.5" font-family="Helvetica,sans-Serif" font-size="10.00">argo::backend::reset</text>
<text text-anchor="middle" x="201" y="-38.5" font-family="Helvetica,sans-Serif" font-size="10.00">_coherence</text>
</a>
</g>
</g>
<!-- Node9&#45;&gt;Node12 -->
<g id="edge12" class="edge">
<title>Node9&#45;&gt;Node12</title>
<path fill="none" stroke="midnightblue" d="M298.41,-65.91C285.54,-63.32 271.9,-60.57 259.05,-57.98"/>
<polygon fill="midnightblue" stroke="midnightblue" points="298.04,-69.4 308.54,-67.95 299.43,-62.54 298.04,-69.4"/>
</g>
<!-- Node11 -->
<g id="node11" class="node">
<title>Node11</title>
<g id="a_node11"><a xlink:href="backend_8hpp_aab3cabb3e1c0b9696b339416b684f78c.html#aab3cabb3e1c0b9696b339416b684f78c" target="_top" xlink:title="initialize backend">
<polygon fill="white" stroke="black" points="0,-99 0,-118 107,-118 107,-99 0,-99"/>
<text text-anchor="middle" x="53.5" y="-106" font-family="Helvetica,sans-Serif" font-size="10.00">argo::backend::init</text>
</a>
</g>
</g>
<!-- Node10&#45;&gt;Node11 -->
<g id="edge11" class="edge">
<title>Node10&#45;&gt;Node11</title>
<path fill="none" stroke="midnightblue" d="M147.6,-108.5C134.42,-108.5 120.29,-108.5 107.1,-108.5"/>
<polygon fill="midnightblue" stroke="midnightblue" points="147.92,-112 157.92,-108.5 147.92,-105 147.92,-112"/>
</g>
<!-- Node12&#45;&gt;Node12 -->
<g id="edge13" class="edge">
<title>Node12&#45;&gt;Node12</title>
<path fill="none" stroke="midnightblue" d="M226.94,-71.96C223.72,-76.68 215.08,-80 201,-80 177.9,-80 169.42,-71.06 175.56,-61.66"/>
<polygon fill="midnightblue" stroke="midnightblue" points="230.42,-71.48 226.44,-61.66 223.43,-71.82 230.42,-71.48"/>
</g>
<!-- Node13&#45;&gt;Node13 -->
<g id="edge15" class="edge">
<title>Node13&#45;&gt;Node13</title>
<path fill="none" stroke="midnightblue" d="M382.94,-40.96C379.72,-45.68 371.08,-49 357,-49 333.9,-49 325.42,-40.06 331.56,-30.66"/>
<polygon fill="midnightblue" stroke="midnightblue" points="386.42,-40.48 382.44,-30.66 379.43,-40.82 386.42,-40.48"/>
</g>
</g>
</svg>
