<?xml version="1.0" encoding="UTF-8" standalone="no"?>
<!DOCTYPE svg PUBLIC "-//W3C//DTD SVG 1.1//EN"
 "http://www.w3.org/Graphics/SVG/1.1/DTD/svg11.dtd">
<!-- Generated by graphviz version 2.43.0 (0)
 -->
<!-- Title: argo::data_distribution::global_ptr::offset Pages: 1 -->
<svg width="450pt" height="39pt"
 viewBox="0.00 0.00 450.00 39.00" xmlns="http://www.w3.org/2000/svg" xmlns:xlink="http://www.w3.org/1999/xlink">
<g id="graph0" class="graph" transform="scale(1 1) rotate(0) translate(4 35)">
<title>argo::data_distribution::global_ptr::offset</title>
<polygon fill="white" stroke="transparent" points="-4,4 -4,-35 446,-35 446,4 -4,4"/>
<!-- Node1 -->
<g id="node1" class="node">
<title>Node1</title>
<g id="a_node1"><a xlink:title="return the offset on the home node&#39;s local memory share">
<polygon fill="#bfbfbf" stroke="black" points="0,-0.5 0,-30.5 127,-30.5 127,-0.5 0,-0.5"/>
<text text-anchor="start" x="8" y="-18.5" font-family="Helvetica,sans-Serif" font-size="10.00">argo::data_distribution</text>
<text text-anchor="middle" x="63.5" y="-7.5" font-family="Helvetica,sans-Serif" font-size="10.00">::global_ptr::offset</text>
</a>
</g>
</g>
<!-- Node2 -->
<g id="node2" class="node">
<title>Node2</title>
<g id="a_node2"><a xlink:href="classargo_1_1data__distribution_1_1global__ptr_ae4353680349f6abbd2cf262dace8e2f2.html#ae4353680349f6abbd2cf262dace8e2f2" target="_top" xlink:title="return a pointer to the selected allocation policy">
<polygon fill="white" stroke="black" points="163,-0.5 163,-30.5 290,-30.5 290,-0.5 163,-0.5"/>
<text text-anchor="start" x="171" y="-18.5" font-family="Helvetica,sans-Serif" font-size="10.00">argo::data_distribution</text>
<text text-anchor="middle" x="226.5" y="-7.5" font-family="Helvetica,sans-Serif" font-size="10.00">::global_ptr::policy</text>
</a>
</g>
</g>
<!-- Node1&#45;&gt;Node2 -->
<g id="edge1" class="edge">
<title>Node1&#45;&gt;Node2</title>
<path fill="none" stroke="midnightblue" d="M127.21,-15.5C135.65,-15.5 144.36,-15.5 152.96,-15.5"/>
<polygon fill="midnightblue" stroke="midnightblue" points="152.96,-19 162.96,-15.5 152.96,-12 152.96,-19"/>
</g>
<!-- Node3 -->
<g id="node3" class="node">
<title>Node3</title>
<g id="a_node3"><a xlink:href="namespaceargo_1_1env_a25a08cb2d0d11432d640ec7173063339.html#a25a08cb2d0d11432d640ec7173063339" target="_top" xlink:title="get the allocation policy requested by environment variable">
<polygon fill="white" stroke="black" points="326,-0.5 326,-30.5 442,-30.5 442,-0.5 326,-0.5"/>
<text text-anchor="start" x="334" y="-18.5" font-family="Helvetica,sans-Serif" font-size="10.00">argo::env::allocation</text>
<text text-anchor="middle" x="384" y="-7.5" font-family="Helvetica,sans-Serif" font-size="10.00">_policy</text>
</a>
</g>
</g>
<!-- Node2&#45;&gt;Node3 -->
<g id="edge2" class="edge">
<title>Node2&#45;&gt;Node3</title>
<path fill="none" stroke="midnightblue" d="M290.3,-15.5C298.69,-15.5 307.32,-15.5 315.78,-15.5"/>
<polygon fill="midnightblue" stroke="midnightblue" points="315.99,-19 325.99,-15.5 315.99,-12 315.99,-19"/>
</g>
</g>
</svg>
