<?xml version="1.0" encoding="UTF-8" standalone="no"?>
<!DOCTYPE svg PUBLIC "-//W3C//DTD SVG 1.1//EN"
 "http://www.w3.org/Graphics/SVG/1.1/DTD/svg11.dtd">
<!-- Generated by graphviz version 2.43.0 (0)
 -->
<!-- Title: argo::globallock::cohort_lock::~cohort_lock Pages: 1 -->
<svg width="831pt" height="110pt"
 viewBox="0.00 0.00 831.00 109.50" xmlns="http://www.w3.org/2000/svg" xmlns:xlink="http://www.w3.org/1999/xlink">
<g id="graph0" class="graph" transform="scale(1 1) rotate(0) translate(4 105.5)">
<title>argo::globallock::cohort_lock::~cohort_lock</title>
<polygon fill="white" stroke="transparent" points="-4,4 -4,-105.5 827,-105.5 827,4 -4,4"/>
<!-- Node1 -->
<g id="node1" class="node">
<title>Node1</title>
<g id="a_node1"><a xlink:title=" ">
<polygon fill="#bfbfbf" stroke="black" points="0,-33 0,-63 131,-63 131,-33 0,-33"/>
<text text-anchor="start" x="8" y="-51" font-family="Helvetica,sans-Serif" font-size="10.00">argo::globallock::cohort</text>
<text text-anchor="middle" x="65.5" y="-40" font-family="Helvetica,sans-Serif" font-size="10.00">_lock::~cohort_lock</text>
</a>
</g>
</g>
<!-- Node2 -->
<g id="node2" class="node">
<title>Node2</title>
<g id="a_node2"><a xlink:href="namespaceargo_a09ca0ec2df9dbed721fb14b26cfa39a3.html#a09ca0ec2df9dbed721fb14b26cfa39a3" target="_top" xlink:title="template function to delete objects that were allocated using collective_new">
<polygon fill="white" stroke="black" points="167,-38.5 167,-57.5 259,-57.5 259,-38.5 167,-38.5"/>
<text text-anchor="middle" x="213" y="-45.5" font-family="Helvetica,sans-Serif" font-size="10.00">argo::codelete_</text>
</a>
</g>
</g>
<!-- Node1&#45;&gt;Node2 -->
<g id="edge1" class="edge">
<title>Node1&#45;&gt;Node2</title>
<path fill="none" stroke="midnightblue" d="M131.17,-48C139.6,-48 148.18,-48 156.44,-48"/>
<polygon fill="midnightblue" stroke="midnightblue" points="156.71,-51.5 166.71,-48 156.71,-44.5 156.71,-51.5"/>
</g>
<!-- Node3 -->
<g id="node3" class="node">
<title>Node3</title>
<g id="a_node3"><a xlink:href="src_2allocators_2allocators_8cpp_a215edf4fe9276398650302b518c52baf.html#a215edf4fe9276398650302b518c52baf" target="_top" xlink:title="basic free function for collective allocations, for C interface">
<polygon fill="white" stroke="black" points="331,-76.5 331,-95.5 420,-95.5 420,-76.5 331,-76.5"/>
<text text-anchor="middle" x="375.5" y="-83.5" font-family="Helvetica,sans-Serif" font-size="10.00">collective_free</text>
</a>
</g>
</g>
<!-- Node2&#45;&gt;Node3 -->
<g id="edge2" class="edge">
<title>Node2&#45;&gt;Node3</title>
<path fill="none" stroke="midnightblue" d="M254.5,-57.59C275.68,-62.6 301.8,-68.79 324.26,-74.11"/>
<polygon fill="midnightblue" stroke="midnightblue" points="323.75,-77.58 334.29,-76.48 325.37,-70.77 323.75,-77.58"/>
</g>
<!-- Node6 -->
<g id="node6" class="node">
<title>Node6</title>
<g id="a_node6"><a xlink:href="namespaceargo_a188a4648d6e7549bcef4cee36dcb5336.html#a188a4648d6e7549bcef4cee36dcb5336" target="_top" xlink:title="A unique ArgoDSM node identifier. Counting starts from 0.">
<polygon fill="white" stroke="black" points="334,-38.5 334,-57.5 417,-57.5 417,-38.5 334,-38.5"/>
<text text-anchor="middle" x="375.5" y="-45.5" font-family="Helvetica,sans-Serif" font-size="10.00">argo::node_id</text>
</a>
</g>
</g>
<!-- Node2&#45;&gt;Node6 -->
<g id="edge5" class="edge">
<title>Node2&#45;&gt;Node6</title>
<path fill="none" stroke="midnightblue" d="M259.14,-48C279.2,-48 302.92,-48 323.61,-48"/>
<polygon fill="midnightblue" stroke="midnightblue" points="323.81,-51.5 333.81,-48 323.81,-44.5 323.81,-51.5"/>
</g>
<!-- Node7 -->
<g id="node7" class="node">
<title>Node7</title>
<g id="a_node7"><a xlink:href="namespaceargo_1_1mempools_aaa24afb08a15776a8f2440531ba3121c.html#aaa24afb08a15776a8f2440531ba3121c" target="_top" xlink:title="synchronize memory metainformation (address) after growing to ensure visibility">
<polygon fill="white" stroke="black" points="295,-0.5 295,-19.5 456,-19.5 456,-0.5 295,-0.5"/>
<text text-anchor="middle" x="375.5" y="-7.5" font-family="Helvetica,sans-Serif" font-size="10.00">argo::mempools::synchronize</text>
</a>
</g>
</g>
<!-- Node2&#45;&gt;Node7 -->
<g id="edge6" class="edge">
<title>Node2&#45;&gt;Node7</title>
<path fill="none" stroke="midnightblue" d="M254.5,-38.41C275.68,-33.4 301.8,-27.21 324.26,-21.89"/>
<polygon fill="midnightblue" stroke="midnightblue" points="325.37,-25.23 334.29,-19.52 323.75,-18.42 325.37,-25.23"/>
</g>
<!-- Node4 -->
<g id="node4" class="node">
<title>Node4</title>
<g id="a_node4"><a xlink:href="classargo_1_1allocators_1_1generic__allocator_ab98a25e383864eecd7d602f95c49c420.html#ab98a25e383864eecd7d602f95c49c420" target="_top" xlink:title="free an allocated pointer">
<polygon fill="white" stroke="black" points="492,-71 492,-101 626,-101 626,-71 492,-71"/>
<text text-anchor="start" x="500" y="-89" font-family="Helvetica,sans-Serif" font-size="10.00">argo::allocators::generic</text>
<text text-anchor="middle" x="559" y="-78" font-family="Helvetica,sans-Serif" font-size="10.00">_allocator::free</text>
</a>
</g>
</g>
<!-- Node3&#45;&gt;Node4 -->
<g id="edge3" class="edge">
<title>Node3&#45;&gt;Node4</title>
<path fill="none" stroke="midnightblue" d="M420.44,-86C438.83,-86 460.75,-86 481.64,-86"/>
<polygon fill="midnightblue" stroke="midnightblue" points="481.78,-89.5 491.78,-86 481.78,-82.5 481.78,-89.5"/>
</g>
<!-- Node5 -->
<g id="node5" class="node">
<title>Node5</title>
<g id="a_node5"><a xlink:href="classargo_1_1allocators_1_1generic__allocator_a83b1a04add59963243bfa60b48d58db4.html#a83b1a04add59963243bfa60b48d58db4" target="_top" xlink:title="helper function for deallocation">
<polygon fill="white" stroke="black" points="662,-71 662,-101 823,-101 823,-71 662,-71"/>
<text text-anchor="start" x="670" y="-89" font-family="Helvetica,sans-Serif" font-size="10.00">argo::allocators::generic</text>
<text text-anchor="middle" x="742.5" y="-78" font-family="Helvetica,sans-Serif" font-size="10.00">_allocator::deallocate_nosync</text>
</a>
</g>
</g>
<!-- Node4&#45;&gt;Node5 -->
<g id="edge4" class="edge">
<title>Node4&#45;&gt;Node5</title>
<path fill="none" stroke="midnightblue" d="M626.04,-86C634.42,-86 643.1,-86 651.77,-86"/>
<polygon fill="midnightblue" stroke="midnightblue" points="651.92,-89.5 661.92,-86 651.92,-82.5 651.92,-89.5"/>
</g>
</g>
</svg>
