<?xml version="1.0" encoding="UTF-8" standalone="no"?>
<!DOCTYPE svg PUBLIC "-//W3C//DTD SVG 1.1//EN"
 "http://www.w3.org/Graphics/SVG/1.1/DTD/svg11.dtd">
<!-- Generated by graphviz version 2.43.0 (0)
 -->
<!-- Title: argo::mempools::global_memory_pool::reset Pages: 1 -->
<svg width="602pt" height="85pt"
 viewBox="0.00 0.00 602.00 85.00" xmlns="http://www.w3.org/2000/svg" xmlns:xlink="http://www.w3.org/1999/xlink">
<g id="graph0" class="graph" transform="scale(1 1) rotate(0) translate(4 81)">
<title>argo::mempools::global_memory_pool::reset</title>
<polygon fill="white" stroke="transparent" points="-4,4 -4,-81 598,-81 598,4 -4,4"/>
<!-- Node1 -->
<g id="node1" class="node">
<title>Node1</title>
<g id="a_node1"><a xlink:title="Resets the memory pool to the initial state instead of de&#45;allocating and (re)allocating all buffers a...">
<polygon fill="#bfbfbf" stroke="black" points="462,-33 462,-63 594,-63 594,-33 462,-33"/>
<text text-anchor="start" x="470" y="-51" font-family="Helvetica,sans-Serif" font-size="10.00">argo::mempools::global</text>
<text text-anchor="middle" x="528" y="-40" font-family="Helvetica,sans-Serif" font-size="10.00">_memory_pool::reset</text>
</a>
</g>
</g>
<!-- Node2 -->
<g id="node2" class="node">
<title>Node2</title>
<g id="a_node2"><a xlink:href="namespaceargo_a618c32926aa8b74173868cf7e1fbcaf4.html#a618c32926aa8b74173868cf7e1fbcaf4" target="_top" xlink:title="reset ArgoDSM allocators">
<polygon fill="white" stroke="black" points="304,-38.5 304,-57.5 426,-57.5 426,-38.5 304,-38.5"/>
<text text-anchor="middle" x="365" y="-45.5" font-family="Helvetica,sans-Serif" font-size="10.00">argo::reset_allocators</text>
</a>
</g>
</g>
<!-- Node1&#45;&gt;Node2 -->
<g id="edge1" class="edge">
<title>Node1&#45;&gt;Node2</title>
<path fill="none" stroke="midnightblue" d="M451.88,-48C443.22,-48 434.48,-48 426.06,-48"/>
<polygon fill="midnightblue" stroke="midnightblue" points="451.98,-51.5 461.98,-48 451.98,-44.5 451.98,-51.5"/>
</g>
<!-- Node3 -->
<g id="node3" class="node">
<title>Node3</title>
<g id="a_node3"><a xlink:href="namespaceargo_a7525b3ba02c8025202fd1cd6756e5e4e.html#a7525b3ba02c8025202fd1cd6756e5e4e" target="_top" xlink:title="reset ArgoDSM system">
<polygon fill="white" stroke="black" points="199,-38.5 199,-57.5 268,-57.5 268,-38.5 199,-38.5"/>
<text text-anchor="middle" x="233.5" y="-45.5" font-family="Helvetica,sans-Serif" font-size="10.00">argo::reset</text>
</a>
</g>
</g>
<!-- Node2&#45;&gt;Node3 -->
<g id="edge2" class="edge">
<title>Node2&#45;&gt;Node3</title>
<path fill="none" stroke="midnightblue" d="M293.71,-48C284.79,-48 276.02,-48 268.07,-48"/>
<polygon fill="midnightblue" stroke="midnightblue" points="293.8,-51.5 303.8,-48 293.8,-44.5 293.8,-51.5"/>
</g>
<!-- Node4 -->
<g id="node4" class="node">
<title>Node4</title>
<g id="a_node4"><a xlink:href="argo_8cpp_a5a8515fc3191ad0f3398d8ac1441b57a.html#a5a8515fc3191ad0f3398d8ac1441b57a" target="_top" xlink:title="reset ArgoDSM system">
<polygon fill="white" stroke="black" points="95,-57.5 95,-76.5 163,-76.5 163,-57.5 95,-57.5"/>
<text text-anchor="middle" x="129" y="-64.5" font-family="Helvetica,sans-Serif" font-size="10.00">argo_reset</text>
</a>
</g>
</g>
<!-- Node3&#45;&gt;Node4 -->
<g id="edge3" class="edge">
<title>Node3&#45;&gt;Node4</title>
<path fill="none" stroke="midnightblue" d="M189.02,-56.06C180.41,-57.66 171.5,-59.31 163.29,-60.83"/>
<polygon fill="midnightblue" stroke="midnightblue" points="189.74,-59.49 198.94,-54.22 188.47,-52.6 189.74,-59.49"/>
</g>
<!-- Node5 -->
<g id="node5" class="node">
<title>Node5</title>
<g id="a_node5"><a xlink:href="namespaceargo_a31330d8b35bd7f9ef9880eec82339c54.html#a31330d8b35bd7f9ef9880eec82339c54" target="_top" xlink:title="initialize ArgoDSM system">
<polygon fill="white" stroke="black" points="99,-19.5 99,-38.5 159,-38.5 159,-19.5 99,-19.5"/>
<text text-anchor="middle" x="129" y="-26.5" font-family="Helvetica,sans-Serif" font-size="10.00">argo::init</text>
</a>
</g>
</g>
<!-- Node3&#45;&gt;Node5 -->
<g id="edge4" class="edge">
<title>Node3&#45;&gt;Node5</title>
<path fill="none" stroke="midnightblue" d="M189.05,-39.95C178.96,-38.08 168.46,-36.13 159.16,-34.4"/>
<polygon fill="midnightblue" stroke="midnightblue" points="188.47,-43.4 198.94,-41.78 189.74,-36.51 188.47,-43.4"/>
</g>
<!-- Node6 -->
<g id="node6" class="node">
<title>Node6</title>
<g id="a_node6"><a xlink:href="argo_8cpp_aa84680ad78c3598c30a482ff71ec6bbc.html#aa84680ad78c3598c30a482ff71ec6bbc" target="_top" xlink:title="initialize ArgoDSM system">
<polygon fill="white" stroke="black" points="0,-38.5 0,-57.5 59,-57.5 59,-38.5 0,-38.5"/>
<text text-anchor="middle" x="29.5" y="-45.5" font-family="Helvetica,sans-Serif" font-size="10.00">argo_init</text>
</a>
</g>
</g>
<!-- Node5&#45;&gt;Node6 -->
<g id="edge5" class="edge">
<title>Node5&#45;&gt;Node6</title>
<path fill="none" stroke="midnightblue" d="M88.69,-36.66C78.78,-38.59 68.33,-40.63 59.06,-42.43"/>
<polygon fill="midnightblue" stroke="midnightblue" points="89.6,-40.05 98.75,-34.7 88.26,-33.18 89.6,-40.05"/>
</g>
<!-- Node7 -->
<g id="node7" class="node">
<title>Node7</title>
<g id="a_node7"><a xlink:href="tests_2allocators_8cpp_a3c04138a5bfe5d72780bb7e82a18e627.html#a3c04138a5bfe5d72780bb7e82a18e627" target="_top" xlink:title="The main function that runs the tests.">
<polygon fill="white" stroke="black" points="9,-0.5 9,-19.5 50,-19.5 50,-0.5 9,-0.5"/>
<text text-anchor="middle" x="29.5" y="-7.5" font-family="Helvetica,sans-Serif" font-size="10.00">main</text>
</a>
</g>
</g>
<!-- Node5&#45;&gt;Node7 -->
<g id="edge6" class="edge">
<title>Node5&#45;&gt;Node7</title>
<path fill="none" stroke="midnightblue" d="M88.84,-21.37C75.55,-18.78 61.27,-16 50.16,-13.83"/>
<polygon fill="midnightblue" stroke="midnightblue" points="88.26,-24.82 98.75,-23.3 89.6,-17.95 88.26,-24.82"/>
</g>
</g>
</svg>
