<?xml version="1.0" encoding="UTF-8" standalone="no"?>
<!DOCTYPE svg PUBLIC "-//W3C//DTD SVG 1.1//EN"
 "http://www.w3.org/Graphics/SVG/1.1/DTD/svg11.dtd">
<!-- Generated by graphviz version 2.43.0 (0)
 -->
<!-- Title: argo::allocators::generic_allocator::allocated_space Pages: 1 -->
<svg width="398pt" height="66pt"
 viewBox="0.00 0.00 398.00 66.00" xmlns="http://www.w3.org/2000/svg" xmlns:xlink="http://www.w3.org/1999/xlink">
<g id="graph0" class="graph" transform="scale(1 1) rotate(0) translate(4 62)">
<title>argo::allocators::generic_allocator::allocated_space</title>
<polygon fill="white" stroke="transparent" points="-4,4 -4,-62 394,-62 394,4 -4,4"/>
<!-- Node1 -->
<g id="node1" class="node">
<title>Node1</title>
<g id="a_node1"><a xlink:title="How much space has been allocated for the given chunk.">
<polygon fill="#bfbfbf" stroke="black" points="241,-14 241,-44 390,-44 390,-14 241,-14"/>
<text text-anchor="start" x="249" y="-32" font-family="Helvetica,sans-Serif" font-size="10.00">argo::allocators::generic</text>
<text text-anchor="middle" x="315.5" y="-21" font-family="Helvetica,sans-Serif" font-size="10.00">_allocator::allocated_space</text>
</a>
</g>
</g>
<!-- Node2 -->
<g id="node2" class="node">
<title>Node2</title>
<g id="a_node2"><a xlink:href="namespaceargo_aa7e8ddf5784dd37c965cfd43cd65a330.html#aa7e8ddf5784dd37c965cfd43cd65a330" target="_top" xlink:title="Delete a globally collectively allocated array of objects.">
<polygon fill="white" stroke="black" points="88,-38.5 88,-57.5 205,-57.5 205,-38.5 88,-38.5"/>
<text text-anchor="middle" x="146.5" y="-45.5" font-family="Helvetica,sans-Serif" font-size="10.00">argo::codelete_array</text>
</a>
</g>
</g>
<!-- Node1&#45;&gt;Node2 -->
<g id="edge1" class="edge">
<title>Node1&#45;&gt;Node2</title>
<path fill="none" stroke="midnightblue" d="M230.62,-38.54C221.97,-39.53 213.31,-40.51 205.04,-41.45"/>
<polygon fill="midnightblue" stroke="midnightblue" points="231.23,-42 240.77,-37.39 230.43,-35.04 231.23,-42"/>
</g>
<!-- Node4 -->
<g id="node4" class="node">
<title>Node4</title>
<g id="a_node4"><a xlink:href="namespaceargo_aeb7666a0539b817876610d8eaaf38566.html#aeb7666a0539b817876610d8eaaf38566" target="_top" xlink:title="Delete a globally allocated array of object.">
<polygon fill="white" stroke="black" points="93.5,-0.5 93.5,-19.5 199.5,-19.5 199.5,-0.5 93.5,-0.5"/>
<text text-anchor="middle" x="146.5" y="-7.5" font-family="Helvetica,sans-Serif" font-size="10.00">argo::delete_array</text>
</a>
</g>
</g>
<!-- Node1&#45;&gt;Node4 -->
<g id="edge3" class="edge">
<title>Node1&#45;&gt;Node4</title>
<path fill="none" stroke="midnightblue" d="M230.69,-19.47C220.17,-18.27 209.65,-17.07 199.8,-15.95"/>
<polygon fill="midnightblue" stroke="midnightblue" points="230.43,-22.96 240.77,-20.61 231.23,-16 230.43,-22.96"/>
</g>
<!-- Node3 -->
<g id="node3" class="node">
<title>Node3</title>
<g id="a_node3"><a xlink:href="tests_2allocators_8cpp_a0571f7229f019db2f46d8f56bebd01d0.html#a0571f7229f019db2f46d8f56bebd01d0" target="_top" xlink:title="mixes dynamic and collective allocation and stores dynamic arrays in a collective arrays to communica...">
<polygon fill="white" stroke="black" points="0,-19.5 0,-38.5 52,-38.5 52,-19.5 0,-19.5"/>
<text text-anchor="middle" x="26" y="-26.5" font-family="Helvetica,sans-Serif" font-size="10.00">TEST_F</text>
</a>
</g>
</g>
<!-- Node2&#45;&gt;Node3 -->
<g id="edge2" class="edge">
<title>Node2&#45;&gt;Node3</title>
<path fill="none" stroke="midnightblue" d="M77.95,-37.17C68.76,-35.7 59.84,-34.27 52.1,-33.03"/>
<polygon fill="midnightblue" stroke="midnightblue" points="77.56,-40.65 87.99,-38.78 78.67,-33.74 77.56,-40.65"/>
</g>
<!-- Node4&#45;&gt;Node3 -->
<g id="edge4" class="edge">
<title>Node4&#45;&gt;Node3</title>
<path fill="none" stroke="midnightblue" d="M83.11,-20C72.14,-21.76 61.31,-23.5 52.14,-24.97"/>
<polygon fill="midnightblue" stroke="midnightblue" points="83.86,-23.43 93.18,-18.39 82.75,-16.52 83.86,-23.43"/>
</g>
</g>
</svg>
