<?xml version="1.0" encoding="UTF-8" standalone="no"?>
<!DOCTYPE svg PUBLIC "-//W3C//DTD SVG 1.1//EN"
 "http://www.w3.org/Graphics/SVG/1.1/DTD/svg11.dtd">
<!-- Generated by graphviz version 2.43.0 (0)
 -->
<!-- Title: write_buffer::add Pages: 1 -->
<!--zoomable 218 -->
<svg id="main" version="1.1" xmlns="http://www.w3.org/2000/svg" xmlns:xlink="http://www.w3.org/1999/xlink" xml:space="preserve" onload="init(evt)">
<style type="text/css"><![CDATA[
.edge:hover path { stroke: red; }
.edge:hover polygon { stroke: red; fill: red; }
]]></style>
<script type="text/javascript"><![CDATA[
var edges = document.getElementsByTagName('g');
if (edges && edges.length) {
  for (var i=0;i<edges.length;i++) {
    if (edges[i].id.substr(0,4)=='edge') {
      edges[i].setAttribute('class','edge');
    }
  }
}
]]></script>
        <defs>
                <circle id="rim" cx="0" cy="0" r="7"/>
                <circle id="rim2" cx="0" cy="0" r="3.5"/>
                <g id="zoomPlus">
                        <use xlink:href="#rim" fill="#404040">
                                <set attributeName="fill" to="#808080" begin="zoomplus.mouseover" end="zoomplus.mouseout"/>
                        </use>
                        <path d="M-4,0h8M0,-4v8" fill="none" stroke="white" stroke-width="1.5" pointer-events="none"/>
                </g>
                <g id="zoomMin">
                        <use xlink:href="#rim" fill="#404040">
                                <set attributeName="fill" to="#808080" begin="zoomminus.mouseover" end="zoomminus.mouseout"/>
                        </use>
                        <path d="M-4,0h8" fill="none" stroke="white" stroke-width="1.5" pointer-events="none"/>
                </g>
                <g id="dirArrow">
                        <path fill="none" stroke="white" stroke-width="1.5" d="M0,-3.0v7 M-2.5,-0.5L0,-3.0L2.5,-0.5"/>
                </g>
               <g id="resetDef">
                       <use xlink:href="#rim2" fill="#404040">
                               <set attributeName="fill" to="#808080" begin="reset.mouseover" end="reset.mouseout"/>
                       </use>
               </g>
        </defs>

<script type="text/javascript">
var viewWidth = 1470;
var viewHeight = 218;
var sectionId = 'dynsection-0';
</script>
<script xlink:href="svgpan.js"/>
<svg id="graph" class="graph">
<g id="viewport">
<title>write_buffer::add</title>
<polygon fill="white" stroke="transparent" points="-4,4 -4,-214 1466,-214 1466,4 -4,4"/>
<!-- Node1 -->
<g id="node1" class="node">
<title>Node1</title>
<g id="a_node1"><a xlink:title="Adds a new element to the write buffer.">
<polygon fill="#bfbfbf" stroke="black" points="0,-95.5 0,-114.5 99,-114.5 99,-95.5 0,-95.5"/>
<text text-anchor="middle" x="49.5" y="-102.5" font-family="Helvetica,sans-Serif" font-size="10.00">write_buffer::add</text>
</a>
</g>
</g>
<!-- Node2 -->
<g id="node2" class="node">
<title>Node2</title>
<g id="a_node2"><a xlink:href="classwrite__buffer_ab5f16d0de074372b34cc4ebba9c58550.html#ab5f16d0de074372b34cc4ebba9c58550" target="_top" xlink:title="Helper function to call _add.">
<polygon fill="white" stroke="black" points="135,-90 135,-120 239,-120 239,-90 135,-90"/>
<text text-anchor="start" x="143" y="-108" font-family="Helvetica,sans-Serif" font-size="10.00">write_buffer::_add</text>
<text text-anchor="middle" x="187" y="-97" font-family="Helvetica,sans-Serif" font-size="10.00">_helper</text>
</a>
</g>
</g>
<!-- Node1&#45;&gt;Node2 -->
<g id="edge1" class="edge">
<title>Node1&#45;&gt;Node2</title>
<path fill="none" stroke="midnightblue" d="M99.04,-105C107.24,-105 115.86,-105 124.35,-105"/>
<polygon fill="midnightblue" stroke="midnightblue" points="124.6,-108.5 134.6,-105 124.6,-101.5 124.6,-108.5"/>
</g>
<!-- Node3 -->
<g id="node3" class="node">
<title>Node3</title>
<g id="a_node3"><a xlink:href="classwrite__buffer_a327be1f65770b56442b1e8ee967be23d.html#a327be1f65770b56442b1e8ee967be23d" target="_top" xlink:title="Internal function to add an element to the write buffer.">
<polygon fill="white" stroke="black" points="275,-95.5 275,-114.5 379,-114.5 379,-95.5 275,-95.5"/>
<text text-anchor="middle" x="327" y="-102.5" font-family="Helvetica,sans-Serif" font-size="10.00">write_buffer::_add</text>
</a>
</g>
</g>
<!-- Node2&#45;&gt;Node3 -->
<g id="edge2" class="edge">
<title>Node2&#45;&gt;Node3</title>
<path fill="none" stroke="midnightblue" d="M239.39,-105C247.56,-105 256.08,-105 264.46,-105"/>
<polygon fill="midnightblue" stroke="midnightblue" points="264.57,-108.5 274.57,-105 264.57,-101.5 264.57,-108.5"/>
</g>
<!-- Node4 -->
<g id="node4" class="node">
<title>Node4</title>
<g id="a_node4"><a xlink:href="classwrite__buffer_ae51b3a3d02d35cc4f280690b6860d20f.html#ae51b3a3d02d35cc4f280690b6860d20f" target="_top" xlink:title="Constructs a new element and emplaces it at the back of the buffer.">
<polygon fill="white" stroke="black" points="415,-161.5 415,-180.5 567,-180.5 567,-161.5 415,-161.5"/>
<text text-anchor="middle" x="491" y="-168.5" font-family="Helvetica,sans-Serif" font-size="10.00">write_buffer::emplace_back</text>
</a>
</g>
</g>
<!-- Node3&#45;&gt;Node4 -->
<g id="edge3" class="edge">
<title>Node3&#45;&gt;Node4</title>
<path fill="none" stroke="midnightblue" d="M342.85,-114.5C359.75,-124.96 388.45,-141.65 415,-152 421.31,-154.46 428.04,-156.69 434.78,-158.68"/>
<polygon fill="midnightblue" stroke="midnightblue" points="434.04,-162.1 444.62,-161.42 435.93,-155.36 434.04,-162.1"/>
</g>
<!-- Node5 -->
<g id="node5" class="node">
<title>Node5</title>
<g id="a_node5"><a xlink:href="classwrite__buffer_aa6a1c2c3aa3a7cde744bbca3b14f599a.html#aa6a1c2c3aa3a7cde744bbca3b14f599a" target="_top" xlink:title="Flushes first _write_back_size elements of the ArgoDSM write buffer to memory.">
<polygon fill="white" stroke="black" points="439,-112 439,-142 543,-142 543,-112 439,-112"/>
<text text-anchor="start" x="447" y="-130" font-family="Helvetica,sans-Serif" font-size="10.00">write_buffer::flush</text>
<text text-anchor="middle" x="491" y="-119" font-family="Helvetica,sans-Serif" font-size="10.00">_partial</text>
</a>
</g>
</g>
<!-- Node3&#45;&gt;Node5 -->
<g id="edge4" class="edge">
<title>Node3&#45;&gt;Node5</title>
<path fill="none" stroke="midnightblue" d="M379.26,-111.96C394.99,-114.1 412.47,-116.47 428.8,-118.69"/>
<polygon fill="midnightblue" stroke="midnightblue" points="428.42,-122.17 438.8,-120.05 429.36,-115.23 428.42,-122.17"/>
</g>
<!-- Node19 -->
<g id="node19" class="node">
<title>Node19</title>
<g id="a_node19"><a xlink:href="classwrite__buffer_a6103a2e16740ac4064c5936dbe5ea06d.html#a6103a2e16740ac4064c5936dbe5ea06d" target="_top" xlink:title="Check if val exists in the buffer.">
<polygon fill="white" stroke="black" points="442,-73.5 442,-92.5 540,-92.5 540,-73.5 442,-73.5"/>
<text text-anchor="middle" x="491" y="-80.5" font-family="Helvetica,sans-Serif" font-size="10.00">write_buffer::has</text>
</a>
</g>
</g>
<!-- Node3&#45;&gt;Node19 -->
<g id="edge19" class="edge">
<title>Node3&#45;&gt;Node19</title>
<path fill="none" stroke="midnightblue" d="M379.26,-98.04C396,-95.77 414.7,-93.23 431.9,-90.89"/>
<polygon fill="midnightblue" stroke="midnightblue" points="432.4,-94.36 441.83,-89.54 431.45,-87.42 432.4,-94.36"/>
</g>
<!-- Node20 -->
<g id="node20" class="node">
<title>Node20</title>
<g id="a_node20"><a xlink:href="classwrite__buffer_a6cd208e8e94ef77f0b19e83bf20059c6.html#a6cd208e8e94ef77f0b19e83bf20059c6" target="_top" xlink:title="Get the size of the buffer.">
<polygon fill="white" stroke="black" points="440.5,-35.5 440.5,-54.5 541.5,-54.5 541.5,-35.5 440.5,-35.5"/>
<text text-anchor="middle" x="491" y="-42.5" font-family="Helvetica,sans-Serif" font-size="10.00">write_buffer::size</text>
</a>
</g>
</g>
<!-- Node3&#45;&gt;Node20 -->
<g id="edge20" class="edge">
<title>Node3&#45;&gt;Node20</title>
<path fill="none" stroke="midnightblue" d="M345.57,-95.49C362.85,-86.43 390.17,-72.9 415,-64 421.87,-61.54 429.2,-59.27 436.48,-57.21"/>
<polygon fill="midnightblue" stroke="midnightblue" points="437.6,-60.54 446.34,-54.55 435.78,-53.78 437.6,-60.54"/>
</g>
<!-- Node6 -->
<g id="node6" class="node">
<title>Node6</title>
<g id="a_node6"><a xlink:href="classwrite__buffer_ae065d3ee59035ad508eb8ce6670d2c89.html#ae065d3ee59035ad508eb8ce6670d2c89" target="_top" xlink:title="Removes the front element from the buffer and returns it.">
<polygon fill="white" stroke="black" points="606.5,-139.5 606.5,-158.5 705.5,-158.5 705.5,-139.5 606.5,-139.5"/>
<text text-anchor="middle" x="656" y="-146.5" font-family="Helvetica,sans-Serif" font-size="10.00">write_buffer::pop</text>
</a>
</g>
</g>
<!-- Node5&#45;&gt;Node6 -->
<g id="edge5" class="edge">
<title>Node5&#45;&gt;Node6</title>
<path fill="none" stroke="midnightblue" d="M543.13,-133.9C559.99,-136.18 578.87,-138.72 596.25,-141.07"/>
<polygon fill="midnightblue" stroke="midnightblue" points="595.9,-144.56 606.28,-142.42 596.84,-137.62 595.9,-144.56"/>
</g>
<!-- Node7 -->
<g id="node7" class="node">
<title>Node7</title>
<g id="a_node7"><a xlink:href="classwrite__buffer_a066de0a724f3f13272780ad7ca8e6502.html#a066de0a724f3f13272780ad7ca8e6502" target="_top" xlink:title="Perform writeback of a single cached page.">
<polygon fill="white" stroke="black" points="603,-90 603,-120 709,-120 709,-90 603,-90"/>
<text text-anchor="start" x="611" y="-108" font-family="Helvetica,sans-Serif" font-size="10.00">write_buffer::write</text>
<text text-anchor="middle" x="656" y="-97" font-family="Helvetica,sans-Serif" font-size="10.00">_back_index</text>
</a>
</g>
</g>
<!-- Node5&#45;&gt;Node7 -->
<g id="edge6" class="edge">
<title>Node5&#45;&gt;Node7</title>
<path fill="none" stroke="midnightblue" d="M543.13,-120.1C558.9,-117.97 576.44,-115.6 592.87,-113.39"/>
<polygon fill="midnightblue" stroke="midnightblue" points="593.49,-116.83 602.93,-112.03 592.55,-109.9 593.49,-116.83"/>
</g>
<!-- Node8 -->
<g id="node8" class="node">
<title>Node8</title>
<g id="a_node8"><a xlink:href="swdsm_8cpp_a3b6a6b2b244edb9faa79814ce8e5e9f5.html#a3b6a6b2b244edb9faa79814ce8e5e9f5" target="_top" xlink:title="stores a page remotely &#45; only writing back what has been written locally since last synchronization p...">
<polygon fill="white" stroke="black" points="745,-95.5 745,-114.5 833,-114.5 833,-95.5 745,-95.5"/>
<text text-anchor="middle" x="789" y="-102.5" font-family="Helvetica,sans-Serif" font-size="10.00">storepageDIFF</text>
</a>
</g>
</g>
<!-- Node7&#45;&gt;Node8 -->
<g id="edge7" class="edge">
<title>Node7&#45;&gt;Node8</title>
<path fill="none" stroke="midnightblue" d="M709.15,-105C717.57,-105 726.3,-105 734.75,-105"/>
<polygon fill="midnightblue" stroke="midnightblue" points="734.87,-108.5 744.87,-105 734.87,-101.5 734.87,-108.5"/>
</g>
<!-- Node9 -->
<g id="node9" class="node">
<title>Node9</title>
<g id="a_node9"><a xlink:href="swdsm_8cpp_af5bb31046df1aef1cccf72f19fe63640.html#af5bb31046df1aef1cccf72f19fe63640" target="_top" xlink:title="Gets the data window index based on the offset into the node&#39;s backing store.">
<polygon fill="white" stroke="black" points="869.5,-190.5 869.5,-209.5 983.5,-209.5 983.5,-190.5 869.5,-190.5"/>
<text text-anchor="middle" x="926.5" y="-197.5" font-family="Helvetica,sans-Serif" font-size="10.00">get_data_win_index</text>
</a>
</g>
</g>
<!-- Node8&#45;&gt;Node9 -->
<g id="edge8" class="edge">
<title>Node8&#45;&gt;Node9</title>
<path fill="none" stroke="midnightblue" d="M797.49,-114.56C810.44,-130.5 838.57,-162.54 869,-181 872.39,-183.05 876.02,-184.92 879.76,-186.61"/>
<polygon fill="midnightblue" stroke="midnightblue" points="878.59,-189.91 889.17,-190.43 881.23,-183.42 878.59,-189.91"/>
</g>
<!-- Node10 -->
<g id="node10" class="node">
<title>Node10</title>
<g id="a_node10"><a xlink:href="swdsm_8cpp_a3f19b1fc7fe36a6eabdae48e53fb66fa.html#a3f19b1fc7fe36a6eabdae48e53fb66fa" target="_top" xlink:title="Gets the sharer window offset based on the classification index.">
<polygon fill="white" stroke="black" points="869,-152.5 869,-171.5 984,-171.5 984,-152.5 869,-152.5"/>
<text text-anchor="middle" x="926.5" y="-159.5" font-family="Helvetica,sans-Serif" font-size="10.00">get_data_win_offset</text>
</a>
</g>
</g>
<!-- Node8&#45;&gt;Node10 -->
<g id="edge9" class="edge">
<title>Node8&#45;&gt;Node10</title>
<path fill="none" stroke="midnightblue" d="M808.22,-114.56C824.05,-122.68 847.71,-134.34 869,-143 874.15,-145.1 879.63,-147.15 885.07,-149.09"/>
<polygon fill="midnightblue" stroke="midnightblue" points="884.16,-152.47 894.75,-152.43 886.44,-145.86 884.16,-152.47"/>
</g>
<!-- Node11 -->
<g id="node11" class="node">
<title>Node11</title>
<g id="a_node11"><a xlink:href="swdsm_8cpp_ab2e5fbbe4d1f44d25619f290dc37dd3e.html#ab2e5fbbe4d1f44d25619f290dc37dd3e" target="_top" xlink:title="Gives homenode for a given address.">
<polygon fill="white" stroke="black" points="882,-114.5 882,-133.5 971,-133.5 971,-114.5 882,-114.5"/>
<text text-anchor="middle" x="926.5" y="-121.5" font-family="Helvetica,sans-Serif" font-size="10.00">get_homenode</text>
</a>
</g>
</g>
<!-- Node8&#45;&gt;Node11 -->
<g id="edge10" class="edge">
<title>Node8&#45;&gt;Node11</title>
<path fill="none" stroke="midnightblue" d="M833.25,-111.06C845.47,-112.78 858.92,-114.66 871.68,-116.45"/>
<polygon fill="midnightblue" stroke="midnightblue" points="871.35,-119.94 881.74,-117.86 872.32,-113.01 871.35,-119.94"/>
</g>
<!-- Node15 -->
<g id="node15" class="node">
<title>Node15</title>
<g id="a_node15"><a xlink:href="swdsm_8cpp_a974f1a03f5461bb989248cceb41cd95b.html#a974f1a03f5461bb989248cceb41cd95b" target="_top" xlink:title="Gets the offset of an address on the local nodes part of the global memory.">
<polygon fill="white" stroke="black" points="894,-76.5 894,-95.5 959,-95.5 959,-76.5 894,-76.5"/>
<text text-anchor="middle" x="926.5" y="-83.5" font-family="Helvetica,sans-Serif" font-size="10.00">get_offset</text>
</a>
</g>
</g>
<!-- Node8&#45;&gt;Node15 -->
<g id="edge14" class="edge">
<title>Node8&#45;&gt;Node15</title>
<path fill="none" stroke="midnightblue" d="M833.25,-98.94C849.38,-96.67 867.66,-94.11 883.67,-91.87"/>
<polygon fill="midnightblue" stroke="midnightblue" points="884.4,-95.3 893.82,-90.44 883.43,-88.37 884.4,-95.3"/>
</g>
<!-- Node17 -->
<g id="node17" class="node">
<title>Node17</title>
<g id="a_node17"><a xlink:href="classmpi__lock_a67301b26c3bb28c746e164c9f531d21d.html#a67301b26c3bb28c746e164c9f531d21d" target="_top" xlink:title="acquire mpi_lock">
<polygon fill="white" stroke="black" points="883,-38.5 883,-57.5 970,-57.5 970,-38.5 883,-38.5"/>
<text text-anchor="middle" x="926.5" y="-45.5" font-family="Helvetica,sans-Serif" font-size="10.00">mpi_lock::lock</text>
</a>
</g>
</g>
<!-- Node8&#45;&gt;Node17 -->
<g id="edge17" class="edge">
<title>Node8&#45;&gt;Node17</title>
<path fill="none" stroke="midnightblue" d="M808.22,-95.44C824.05,-87.32 847.71,-75.66 869,-67 874.15,-64.9 879.63,-62.85 885.07,-60.91"/>
<polygon fill="midnightblue" stroke="midnightblue" points="886.44,-64.14 894.75,-57.57 884.16,-57.53 886.44,-64.14"/>
</g>
<!-- Node18 -->
<g id="node18" class="node">
<title>Node18</title>
<g id="a_node18"><a xlink:href="classmpi__lock_a38cb3649cba54a2818810c444a8b475a.html#a38cb3649cba54a2818810c444a8b475a" target="_top" xlink:title="release mpi_lock">
<polygon fill="white" stroke="black" points="877,-0.5 877,-19.5 976,-19.5 976,-0.5 877,-0.5"/>
<text text-anchor="middle" x="926.5" y="-7.5" font-family="Helvetica,sans-Serif" font-size="10.00">mpi_lock::unlock</text>
</a>
</g>
</g>
<!-- Node8&#45;&gt;Node18 -->
<g id="edge18" class="edge">
<title>Node8&#45;&gt;Node18</title>
<path fill="none" stroke="midnightblue" d="M797.49,-95.44C810.44,-79.5 838.57,-47.46 869,-29 872.39,-26.95 876.02,-25.08 879.76,-23.39"/>
<polygon fill="midnightblue" stroke="midnightblue" points="881.23,-26.58 889.17,-19.57 878.59,-20.09 881.23,-26.58"/>
</g>
<!-- Node12 -->
<g id="node12" class="node">
<title>Node12</title>
<g id="a_node12"><a xlink:href="classargo_1_1data__distribution_1_1global__ptr_ac7d651586337d08cda18ef26ffcd34a0.html#ac7d651586337d08cda18ef26ffcd34a0" target="_top" xlink:title="return the home node of the value pointed to">
<polygon fill="white" stroke="black" points="1020,-114 1020,-144 1147,-144 1147,-114 1020,-114"/>
<text text-anchor="start" x="1028" y="-132" font-family="Helvetica,sans-Serif" font-size="10.00">argo::data_distribution</text>
<text text-anchor="middle" x="1083.5" y="-121" font-family="Helvetica,sans-Serif" font-size="10.00">::global_ptr::node</text>
</a>
</g>
</g>
<!-- Node11&#45;&gt;Node12 -->
<g id="edge11" class="edge">
<title>Node11&#45;&gt;Node12</title>
<path fill="none" stroke="midnightblue" d="M971.09,-125.41C983.15,-125.8 996.57,-126.23 1009.81,-126.66"/>
<polygon fill="midnightblue" stroke="midnightblue" points="1009.76,-130.16 1019.86,-126.98 1009.98,-123.16 1009.76,-130.16"/>
</g>
<!-- Node13 -->
<g id="node13" class="node">
<title>Node13</title>
<g id="a_node13"><a xlink:href="classargo_1_1data__distribution_1_1global__ptr_ae4353680349f6abbd2cf262dace8e2f2.html#ae4353680349f6abbd2cf262dace8e2f2" target="_top" xlink:title="return a pointer to the selected allocation policy">
<polygon fill="white" stroke="black" points="1183,-89 1183,-119 1310,-119 1310,-89 1183,-89"/>
<text text-anchor="start" x="1191" y="-107" font-family="Helvetica,sans-Serif" font-size="10.00">argo::data_distribution</text>
<text text-anchor="middle" x="1246.5" y="-96" font-family="Helvetica,sans-Serif" font-size="10.00">::global_ptr::policy</text>
</a>
</g>
</g>
<!-- Node12&#45;&gt;Node13 -->
<g id="edge12" class="edge">
<title>Node12&#45;&gt;Node13</title>
<path fill="none" stroke="midnightblue" d="M1147.21,-119.26C1155.65,-117.95 1164.36,-116.6 1172.96,-115.26"/>
<polygon fill="midnightblue" stroke="midnightblue" points="1173.62,-118.7 1182.96,-113.71 1172.54,-111.79 1173.62,-118.7"/>
</g>
<!-- Node14 -->
<g id="node14" class="node">
<title>Node14</title>
<g id="a_node14"><a xlink:href="namespaceargo_1_1env_a25a08cb2d0d11432d640ec7173063339.html#a25a08cb2d0d11432d640ec7173063339" target="_top" xlink:title="get the allocation policy requested by environment variable">
<polygon fill="white" stroke="black" points="1346,-89 1346,-119 1462,-119 1462,-89 1346,-89"/>
<text text-anchor="start" x="1354" y="-107" font-family="Helvetica,sans-Serif" font-size="10.00">argo::env::allocation</text>
<text text-anchor="middle" x="1404" y="-96" font-family="Helvetica,sans-Serif" font-size="10.00">_policy</text>
</a>
</g>
</g>
<!-- Node13&#45;&gt;Node14 -->
<g id="edge13" class="edge">
<title>Node13&#45;&gt;Node14</title>
<path fill="none" stroke="midnightblue" d="M1310.3,-104C1318.69,-104 1327.32,-104 1335.78,-104"/>
<polygon fill="midnightblue" stroke="midnightblue" points="1335.99,-107.5 1345.99,-104 1335.99,-100.5 1335.99,-107.5"/>
</g>
<!-- Node16 -->
<g id="node16" class="node">
<title>Node16</title>
<g id="a_node16"><a xlink:href="classargo_1_1data__distribution_1_1global__ptr_ad8c21c408fa2b926cfd9acfd87e8e4e6.html#ad8c21c408fa2b926cfd9acfd87e8e4e6" target="_top" xlink:title="return the offset on the home node&#39;s local memory share">
<polygon fill="white" stroke="black" points="1020,-65 1020,-95 1147,-95 1147,-65 1020,-65"/>
<text text-anchor="start" x="1028" y="-83" font-family="Helvetica,sans-Serif" font-size="10.00">argo::data_distribution</text>
<text text-anchor="middle" x="1083.5" y="-72" font-family="Helvetica,sans-Serif" font-size="10.00">::global_ptr::offset</text>
</a>
</g>
</g>
<!-- Node15&#45;&gt;Node16 -->
<g id="edge15" class="edge">
<title>Node15&#45;&gt;Node16</title>
<path fill="none" stroke="midnightblue" d="M959.24,-84.77C973.83,-84.21 991.78,-83.51 1009.43,-82.83"/>
<polygon fill="midnightblue" stroke="midnightblue" points="1009.9,-86.31 1019.75,-82.43 1009.63,-79.32 1009.9,-86.31"/>
</g>
<!-- Node16&#45;&gt;Node13 -->
<g id="edge16" class="edge">
<title>Node16&#45;&gt;Node13</title>
<path fill="none" stroke="midnightblue" d="M1147.21,-89.35C1155.65,-90.61 1164.36,-91.91 1172.96,-93.19"/>
<polygon fill="midnightblue" stroke="midnightblue" points="1172.56,-96.67 1182.96,-94.68 1173.59,-89.74 1172.56,-96.67"/>
</g>
</g>
</svg>
        <g id="navigator" transform="translate(0 0)" fill="#404254">
                <rect fill="#f2f5e9" fill-opacity="0.5" stroke="#606060" stroke-width=".5" x="0" y="0" width="60" height="60"/>
                <use id="zoomplus" xlink:href="#zoomPlus" x="17" y="9" onmousedown="handleZoom(evt,'in')"/>
                <use id="zoomminus" xlink:href="#zoomMin" x="42" y="9" onmousedown="handleZoom(evt,'out')"/>
                <use id="reset" xlink:href="#resetDef" x="30" y="36" onmousedown="handleReset()"/>
                <g id="arrowUp" xlink:href="#dirArrow" transform="translate(30 24)" onmousedown="handlePan(0,-1)">
                  <use xlink:href="#rim" fill="#404040">
                        <set attributeName="fill" to="#808080" begin="arrowUp.mouseover" end="arrowUp.mouseout"/>
                  </use>
                  <path fill="none" stroke="white" stroke-width="1.5" d="M0,-3.0v7 M-2.5,-0.5L0,-3.0L2.5,-0.5"/>
                </g>
                <g id="arrowRight" xlink:href="#dirArrow" transform="rotate(90) translate(36 -43)" onmousedown="handlePan(1,0)">
                  <use xlink:href="#rim" fill="#404040">
                        <set attributeName="fill" to="#808080" begin="arrowRight.mouseover" end="arrowRight.mouseout"/>
                  </use>
                  <path fill="none" stroke="white" stroke-width="1.5" d="M0,-3.0v7 M-2.5,-0.5L0,-3.0L2.5,-0.5"/>
                </g>
                <g id="arrowDown" xlink:href="#dirArrow" transform="rotate(180) translate(-30 -48)" onmousedown="handlePan(0,1)">
                  <use xlink:href="#rim" fill="#404040">
                        <set attributeName="fill" to="#808080" begin="arrowDown.mouseover" end="arrowDown.mouseout"/>
                  </use>
                  <path fill="none" stroke="white" stroke-width="1.5" d="M0,-3.0v7 M-2.5,-0.5L0,-3.0L2.5,-0.5"/>
                </g>
                <g id="arrowLeft" xlink:href="#dirArrow" transform="rotate(270) translate(-36 17)" onmousedown="handlePan(-1,0)">
                  <use xlink:href="#rim" fill="#404040">
                        <set attributeName="fill" to="#808080" begin="arrowLeft.mouseover" end="arrowLeft.mouseout"/>
                  </use>
                  <path fill="none" stroke="white" stroke-width="1.5" d="M0,-3.0v7 M-2.5,-0.5L0,-3.0L2.5,-0.5"/>
                </g>
        </g>
        <svg viewBox="0 0 15 15" width="100%" height="30px" preserveAspectRatio="xMaxYMin meet">
         <g id="arrow_out" transform="scale(0.3 0.3)">
          <a xlink:href="classwrite__buffer_a23b0dbc463111cacbbf83b267e76ac9f_a23b0dbc463111cacbbf83b267e76ac9f_cgraph_org.svg" target="_base">
           <rect id="button" ry="5" rx="5" y="6" x="6" height="38" width="38"
                fill="#f2f5e9" fill-opacity="0.5" stroke="#606060" stroke-width="1.0"/>
           <path id="arrow"
             d="M 11.500037,31.436501 C 11.940474,20.09759 22.043105,11.32322 32.158766,21.979434 L 37.068811,17.246167 C 37.068811,17.246167 37.088388,32 37.088388,32 L 22.160133,31.978069 C 22.160133,31.978069 26.997745,27.140456 26.997745,27.140456 C 18.528582,18.264221 13.291696,25.230495 11.500037,31.436501 z"
             style="fill:#404040;"/>
          </a>
         </g>
        </svg>
</svg>
