<?xml version="1.0" encoding="UTF-8" standalone="no"?>
<!DOCTYPE svg PUBLIC "-//W3C//DTD SVG 1.1//EN"
 "http://www.w3.org/Graphics/SVG/1.1/DTD/svg11.dtd">
<!-- Generated by graphviz version 2.43.0 (0)
 -->
<!-- Title: argo::allocators::generic_allocator::deallocate_nosync Pages: 1 -->
<svg width="858pt" height="241pt"
 viewBox="0.00 0.00 858.00 240.50" xmlns="http://www.w3.org/2000/svg" xmlns:xlink="http://www.w3.org/1999/xlink">
<g id="graph0" class="graph" transform="scale(1 1) rotate(0) translate(4 236.5)">
<title>argo::allocators::generic_allocator::deallocate_nosync</title>
<polygon fill="white" stroke="transparent" points="-4,4 -4,-236.5 854,-236.5 854,4 -4,4"/>
<!-- Node1 -->
<g id="node1" class="node">
<title>Node1</title>
<g id="a_node1"><a xlink:title="helper function for deallocation">
<polygon fill="#bfbfbf" stroke="black" points="689,-112 689,-142 850,-142 850,-112 689,-112"/>
<text text-anchor="start" x="697" y="-130" font-family="Helvetica,sans-Serif" font-size="10.00">argo::allocators::generic</text>
<text text-anchor="middle" x="769.5" y="-119" font-family="Helvetica,sans-Serif" font-size="10.00">_allocator::deallocate_nosync</text>
</a>
</g>
</g>
<!-- Node2 -->
<g id="node2" class="node">
<title>Node2</title>
<g id="a_node2"><a xlink:href="classargo_1_1allocators_1_1generic__allocator_a1a2969ade518e34118290316e9fe2887.html#a1a2969ade518e34118290316e9fe2887" target="_top" xlink:title="deallocate memory">
<polygon fill="white" stroke="black" points="519,-153 519,-183 653,-183 653,-153 519,-153"/>
<text text-anchor="start" x="527" y="-171" font-family="Helvetica,sans-Serif" font-size="10.00">argo::allocators::generic</text>
<text text-anchor="middle" x="586" y="-160" font-family="Helvetica,sans-Serif" font-size="10.00">_allocator::deallocate</text>
</a>
</g>
</g>
<!-- Node1&#45;&gt;Node2 -->
<g id="edge1" class="edge">
<title>Node1&#45;&gt;Node2</title>
<path fill="none" stroke="midnightblue" d="M692.15,-144.25C679.22,-147.17 665.89,-150.18 653.24,-153.04"/>
<polygon fill="midnightblue" stroke="midnightblue" points="692.96,-147.65 701.95,-142.03 691.42,-140.82 692.96,-147.65"/>
</g>
<!-- Node5 -->
<g id="node5" class="node">
<title>Node5</title>
<g id="a_node5"><a xlink:href="classargo_1_1allocators_1_1generic__allocator_ab98a25e383864eecd7d602f95c49c420.html#ab98a25e383864eecd7d602f95c49c420" target="_top" xlink:title="free an allocated pointer">
<polygon fill="white" stroke="black" points="519,-88 519,-118 653,-118 653,-88 519,-88"/>
<text text-anchor="start" x="527" y="-106" font-family="Helvetica,sans-Serif" font-size="10.00">argo::allocators::generic</text>
<text text-anchor="middle" x="586" y="-95" font-family="Helvetica,sans-Serif" font-size="10.00">_allocator::free</text>
</a>
</g>
</g>
<!-- Node1&#45;&gt;Node5 -->
<g id="edge4" class="edge">
<title>Node1&#45;&gt;Node5</title>
<path fill="none" stroke="midnightblue" d="M678.8,-115.14C670.19,-114 661.56,-112.86 653.23,-111.76"/>
<polygon fill="midnightblue" stroke="midnightblue" points="678.52,-118.63 688.89,-116.47 679.44,-111.69 678.52,-118.63"/>
</g>
<!-- Node3 -->
<g id="node3" class="node">
<title>Node3</title>
<g id="a_node3"><a xlink:href="classargo_1_1allocators_1_1generic__allocator_af385cffc52b180a7b61b8459b2c8f869.html#af385cffc52b180a7b61b8459b2c8f869" target="_top" xlink:title=" ">
<polygon fill="white" stroke="black" points="320,-153 320,-183 483,-183 483,-153 320,-153"/>
<text text-anchor="start" x="328" y="-171" font-family="Helvetica,sans-Serif" font-size="10.00">argo::allocators::generic</text>
<text text-anchor="middle" x="401.5" y="-160" font-family="Helvetica,sans-Serif" font-size="10.00">_allocator::~generic_allocator</text>
</a>
</g>
</g>
<!-- Node2&#45;&gt;Node3 -->
<g id="edge2" class="edge">
<title>Node2&#45;&gt;Node3</title>
<path fill="none" stroke="midnightblue" d="M508.64,-168C500.18,-168 491.55,-168 483.04,-168"/>
<polygon fill="midnightblue" stroke="midnightblue" points="508.86,-171.5 518.86,-168 508.86,-164.5 508.86,-171.5"/>
</g>
<!-- Node4 -->
<g id="node4" class="node">
<title>Node4</title>
<g id="a_node4"><a xlink:href="classargo_1_1allocators_1_1dynamic__allocator_a56d95163348064bb5279caae40316934.html#a56d95163348064bb5279caae40316934" target="_top" xlink:title="deallocate memory">
<polygon fill="white" stroke="black" points="331.5,-202 331.5,-232 471.5,-232 471.5,-202 331.5,-202"/>
<text text-anchor="start" x="339.5" y="-220" font-family="Helvetica,sans-Serif" font-size="10.00">argo::allocators::dynamic</text>
<text text-anchor="middle" x="401.5" y="-209" font-family="Helvetica,sans-Serif" font-size="10.00">_allocator::deallocate</text>
</a>
</g>
</g>
<!-- Node2&#45;&gt;Node4 -->
<g id="edge3" class="edge">
<title>Node2&#45;&gt;Node4</title>
<path fill="none" stroke="midnightblue" d="M518.9,-185.75C499.12,-191.06 477.63,-196.83 458.56,-201.95"/>
<polygon fill="midnightblue" stroke="midnightblue" points="520,-189.07 528.75,-183.1 518.19,-182.31 520,-189.07"/>
</g>
<!-- Node6 -->
<g id="node6" class="node">
<title>Node6</title>
<g id="a_node6"><a xlink:href="src_2allocators_2allocators_8cpp_a215edf4fe9276398650302b518c52baf.html#a215edf4fe9276398650302b518c52baf" target="_top" xlink:title="basic free function for collective allocations, for C interface">
<polygon fill="white" stroke="black" points="357,-114.5 357,-133.5 446,-133.5 446,-114.5 357,-114.5"/>
<text text-anchor="middle" x="401.5" y="-121.5" font-family="Helvetica,sans-Serif" font-size="10.00">collective_free</text>
</a>
</g>
</g>
<!-- Node5&#45;&gt;Node6 -->
<g id="edge5" class="edge">
<title>Node5&#45;&gt;Node6</title>
<path fill="none" stroke="midnightblue" d="M508.82,-111.77C487.46,-114.22 464.98,-116.81 446.22,-118.97"/>
<polygon fill="midnightblue" stroke="midnightblue" points="509.32,-115.23 518.86,-110.61 508.52,-108.28 509.32,-115.23"/>
</g>
<!-- Node12 -->
<g id="node12" class="node">
<title>Node12</title>
<g id="a_node12"><a xlink:href="src_2allocators_2allocators_8cpp_aedf7f793412ce612ef67c33098b25a8e.html#aedf7f793412ce612ef67c33098b25a8e" target="_top" xlink:title="basic free function for dynamic allocations, for C interface">
<polygon fill="white" stroke="black" points="360,-76.5 360,-95.5 443,-95.5 443,-76.5 360,-76.5"/>
<text text-anchor="middle" x="401.5" y="-83.5" font-family="Helvetica,sans-Serif" font-size="10.00">dynamic_free</text>
</a>
</g>
</g>
<!-- Node5&#45;&gt;Node12 -->
<g id="edge12" class="edge">
<title>Node5&#45;&gt;Node12</title>
<path fill="none" stroke="midnightblue" d="M508.65,-95.89C486.2,-93.8 462.51,-91.59 443.23,-89.79"/>
<polygon fill="midnightblue" stroke="midnightblue" points="508.57,-99.4 518.86,-96.84 509.22,-92.43 508.57,-99.4"/>
</g>
<!-- Node15 -->
<g id="node15" class="node">
<title>Node15</title>
<g id="a_node15"><a xlink:href="classargo_1_1allocators_1_1dynamic__allocator_af42fd4fcae7dc04fc7ea77e23a6cc5ff.html#af42fd4fcae7dc04fc7ea77e23a6cc5ff" target="_top" xlink:title="free an allocated pointer">
<polygon fill="white" stroke="black" points="331.5,-27 331.5,-57 471.5,-57 471.5,-27 331.5,-27"/>
<text text-anchor="start" x="339.5" y="-45" font-family="Helvetica,sans-Serif" font-size="10.00">argo::allocators::dynamic</text>
<text text-anchor="middle" x="401.5" y="-34" font-family="Helvetica,sans-Serif" font-size="10.00">_allocator::free</text>
</a>
</g>
</g>
<!-- Node5&#45;&gt;Node15 -->
<g id="edge18" class="edge">
<title>Node5&#45;&gt;Node15</title>
<path fill="none" stroke="midnightblue" d="M533.63,-84.44C517.47,-78.72 499.53,-72.48 483,-67 473,-63.68 462.26,-60.25 451.98,-57.04"/>
<polygon fill="midnightblue" stroke="midnightblue" points="532.84,-87.87 543.44,-87.93 535.19,-81.28 532.84,-87.87"/>
</g>
<!-- Node7 -->
<g id="node7" class="node">
<title>Node7</title>
<g id="a_node7"><a xlink:href="namespaceargo_a09ca0ec2df9dbed721fb14b26cfa39a3.html#a09ca0ec2df9dbed721fb14b26cfa39a3" target="_top" xlink:title="template function to delete objects that were allocated using collective_new">
<polygon fill="white" stroke="black" points="179.5,-190.5 179.5,-209.5 271.5,-209.5 271.5,-190.5 179.5,-190.5"/>
<text text-anchor="middle" x="225.5" y="-197.5" font-family="Helvetica,sans-Serif" font-size="10.00">argo::codelete_</text>
</a>
</g>
</g>
<!-- Node6&#45;&gt;Node7 -->
<g id="edge6" class="edge">
<title>Node6&#45;&gt;Node7</title>
<path fill="none" stroke="midnightblue" d="M347.21,-133.37C337.85,-136.09 328.41,-139.56 320,-144 301.06,-153.98 302.13,-164.61 284,-176 274.93,-181.7 264.28,-186.58 254.62,-190.42"/>
<polygon fill="midnightblue" stroke="midnightblue" points="348.13,-136.74 356.9,-130.8 346.34,-129.98 348.13,-136.74"/>
</g>
<!-- Node9 -->
<g id="node9" class="node">
<title>Node9</title>
<g id="a_node9"><a xlink:href="tests_2allocators_8cpp_a13fc720238a04e385587d7b2cef0f3bc.html#a13fc720238a04e385587d7b2cef0f3bc" target="_top" xlink:title="Test if it is possible to delete a null pointer with no errors.">
<polygon fill="white" stroke="black" points="39.5,-111.5 39.5,-130.5 91.5,-130.5 91.5,-111.5 39.5,-111.5"/>
<text text-anchor="middle" x="65.5" y="-118.5" font-family="Helvetica,sans-Serif" font-size="10.00">TEST_F</text>
</a>
</g>
</g>
<!-- Node6&#45;&gt;Node9 -->
<g id="edge11" class="edge">
<title>Node6&#45;&gt;Node9</title>
<path fill="none" stroke="midnightblue" d="M346.73,-134.63C327.08,-138.02 304.61,-141.33 284,-143 232.17,-147.2 218.7,-148.59 167,-143 141.07,-140.2 112.03,-133.43 91.86,-128.14"/>
<polygon fill="midnightblue" stroke="midnightblue" points="347.49,-138.05 356.73,-132.86 346.27,-131.16 347.49,-138.05"/>
</g>
<!-- Node10 -->
<g id="node10" class="node">
<title>Node10</title>
<g id="a_node10"><a xlink:href="namespaceargo_aa7e8ddf5784dd37c965cfd43cd65a330.html#aa7e8ddf5784dd37c965cfd43cd65a330" target="_top" xlink:title="Delete a globally collectively allocated array of objects.">
<polygon fill="white" stroke="black" points="167,-114.5 167,-133.5 284,-133.5 284,-114.5 167,-114.5"/>
<text text-anchor="middle" x="225.5" y="-121.5" font-family="Helvetica,sans-Serif" font-size="10.00">argo::codelete_array</text>
</a>
</g>
</g>
<!-- Node6&#45;&gt;Node10 -->
<g id="edge9" class="edge">
<title>Node6&#45;&gt;Node10</title>
<path fill="none" stroke="midnightblue" d="M346.52,-124C326.75,-124 304.3,-124 284.21,-124"/>
<polygon fill="midnightblue" stroke="midnightblue" points="346.59,-127.5 356.59,-124 346.59,-120.5 346.59,-127.5"/>
</g>
<!-- Node8 -->
<g id="node8" class="node">
<title>Node8</title>
<g id="a_node8"><a xlink:href="classargo_1_1globallock_1_1cohort__lock_a48e63a5ba24a93d3799a3993c663a30b.html#a48e63a5ba24a93d3799a3993c663a30b" target="_top" xlink:title=" ">
<polygon fill="white" stroke="black" points="0,-185 0,-215 131,-215 131,-185 0,-185"/>
<text text-anchor="start" x="8" y="-203" font-family="Helvetica,sans-Serif" font-size="10.00">argo::globallock::cohort</text>
<text text-anchor="middle" x="65.5" y="-192" font-family="Helvetica,sans-Serif" font-size="10.00">_lock::~cohort_lock</text>
</a>
</g>
</g>
<!-- Node7&#45;&gt;Node8 -->
<g id="edge7" class="edge">
<title>Node7&#45;&gt;Node8</title>
<path fill="none" stroke="midnightblue" d="M169.15,-200C156.9,-200 143.8,-200 131.21,-200"/>
<polygon fill="midnightblue" stroke="midnightblue" points="169.22,-203.5 179.22,-200 169.22,-196.5 169.22,-203.5"/>
</g>
<!-- Node7&#45;&gt;Node9 -->
<g id="edge8" class="edge">
<title>Node7&#45;&gt;Node9</title>
<path fill="none" stroke="midnightblue" d="M190.64,-186.56C182.8,-183.26 174.56,-179.63 167,-176 136.7,-161.44 102.61,-142.13 82.94,-130.69"/>
<polygon fill="midnightblue" stroke="midnightblue" points="189.33,-189.81 199.91,-190.4 192.01,-183.34 189.33,-189.81"/>
</g>
<!-- Node11 -->
<g id="node11" class="node">
<title>Node11</title>
<g id="a_node11"><a xlink:href="tests_2allocators_8cpp_a0571f7229f019db2f46d8f56bebd01d0.html#a0571f7229f019db2f46d8f56bebd01d0" target="_top" xlink:title="mixes dynamic and collective allocation and stores dynamic arrays in a collective arrays to communica...">
<polygon fill="white" stroke="black" points="39.5,-54.5 39.5,-73.5 91.5,-73.5 91.5,-54.5 39.5,-54.5"/>
<text text-anchor="middle" x="65.5" y="-61.5" font-family="Helvetica,sans-Serif" font-size="10.00">TEST_F</text>
</a>
</g>
</g>
<!-- Node10&#45;&gt;Node11 -->
<g id="edge10" class="edge">
<title>Node10&#45;&gt;Node11</title>
<path fill="none" stroke="midnightblue" d="M189.92,-110.87C160.27,-99.61 118.24,-83.65 91.68,-73.56"/>
<polygon fill="midnightblue" stroke="midnightblue" points="188.87,-114.21 199.46,-114.49 191.36,-107.67 188.87,-114.21"/>
</g>
<!-- Node12&#45;&gt;Node9 -->
<g id="edge17" class="edge">
<title>Node12&#45;&gt;Node9</title>
<path fill="none" stroke="midnightblue" d="M349.91,-88.99C302.53,-92.06 229.83,-97.45 167,-105 141.21,-108.1 111.9,-112.91 91.62,-116.45"/>
<polygon fill="midnightblue" stroke="midnightblue" points="350.15,-92.48 359.91,-88.36 349.71,-85.5 350.15,-92.48"/>
</g>
<!-- Node13 -->
<g id="node13" class="node">
<title>Node13</title>
<g id="a_node13"><a xlink:href="namespaceargo_a084a7639e719e866e4f0e88af71f6dff.html#a084a7639e719e866e4f0e88af71f6dff" target="_top" xlink:title="template function to delete objects that were allocated using dynamic_new">
<polygon fill="white" stroke="black" points="185.5,-38.5 185.5,-57.5 265.5,-57.5 265.5,-38.5 185.5,-38.5"/>
<text text-anchor="middle" x="225.5" y="-45.5" font-family="Helvetica,sans-Serif" font-size="10.00">argo::delete_</text>
</a>
</g>
</g>
<!-- Node12&#45;&gt;Node13 -->
<g id="edge13" class="edge">
<title>Node12&#45;&gt;Node13</title>
<path fill="none" stroke="midnightblue" d="M349.71,-74.91C322.86,-69.04 290.4,-61.96 265.54,-56.53"/>
<polygon fill="midnightblue" stroke="midnightblue" points="349.19,-78.38 359.7,-77.09 350.68,-71.54 349.19,-78.38"/>
</g>
<!-- Node14 -->
<g id="node14" class="node">
<title>Node14</title>
<g id="a_node14"><a xlink:href="namespaceargo_aeb7666a0539b817876610d8eaaf38566.html#aeb7666a0539b817876610d8eaaf38566" target="_top" xlink:title="Delete a globally allocated array of object.">
<polygon fill="white" stroke="black" points="172.5,-0.5 172.5,-19.5 278.5,-19.5 278.5,-0.5 172.5,-0.5"/>
<text text-anchor="middle" x="225.5" y="-7.5" font-family="Helvetica,sans-Serif" font-size="10.00">argo::delete_array</text>
</a>
</g>
</g>
<!-- Node12&#45;&gt;Node14 -->
<g id="edge15" class="edge">
<title>Node12&#45;&gt;Node14</title>
<path fill="none" stroke="midnightblue" d="M350.09,-78.04C339.72,-75.17 329.18,-71.27 320,-66 300.1,-54.57 303.45,-41.17 284,-29 277.94,-25.21 271.04,-22.09 264.18,-19.55"/>
<polygon fill="midnightblue" stroke="midnightblue" points="349.38,-81.47 359.93,-80.49 351.08,-74.67 349.38,-81.47"/>
</g>
<!-- Node13&#45;&gt;Node9 -->
<g id="edge14" class="edge">
<title>Node13&#45;&gt;Node9</title>
<path fill="none" stroke="midnightblue" d="M191.4,-61.43C183.38,-64.79 174.85,-68.45 167,-72 138.17,-85.03 105.31,-101.33 85.24,-111.46"/>
<polygon fill="midnightblue" stroke="midnightblue" points="192.97,-64.57 200.87,-57.5 190.29,-58.1 192.97,-64.57"/>
</g>
<!-- Node14&#45;&gt;Node11 -->
<g id="edge16" class="edge">
<title>Node14&#45;&gt;Node11</title>
<path fill="none" stroke="midnightblue" d="M185.62,-22.76C179.38,-24.83 173.01,-26.96 167,-29 141.28,-37.73 111.96,-47.97 91.66,-55.11"/>
<polygon fill="midnightblue" stroke="midnightblue" points="186.83,-26.04 195.22,-19.58 184.62,-19.4 186.83,-26.04"/>
</g>
</g>
</svg>
