<?xml version="1.0" encoding="UTF-8" standalone="no"?>
<!DOCTYPE svg PUBLIC "-//W3C//DTD SVG 1.1//EN"
 "http://www.w3.org/Graphics/SVG/1.1/DTD/svg11.dtd">
<!-- Generated by graphviz version 2.43.0 (0)
 -->
<!-- Title: argo::data_distribution::skew_mapp_distribution::peek_local_offset Pages: 1 -->
<svg width="478pt" height="50pt"
 viewBox="0.00 0.00 478.00 50.00" xmlns="http://www.w3.org/2000/svg" xmlns:xlink="http://www.w3.org/1999/xlink">
<g id="graph0" class="graph" transform="scale(1 1) rotate(0) translate(4 46)">
<title>argo::data_distribution::skew_mapp_distribution::peek_local_offset</title>
<polygon fill="white" stroke="transparent" points="-4,4 -4,-46 474,-46 474,4 -4,4"/>
<!-- Node1 -->
<g id="node1" class="node">
<title>Node1</title>
<g id="a_node1"><a xlink:title="compute the offset of ptr in the backing store on ptr&#39;s homenode">
<polygon fill="#bfbfbf" stroke="black" points="0,-0.5 0,-41.5 141,-41.5 141,-0.5 0,-0.5"/>
<text text-anchor="start" x="8" y="-29.5" font-family="Helvetica,sans-Serif" font-size="10.00">argo::data_distribution</text>
<text text-anchor="start" x="8" y="-18.5" font-family="Helvetica,sans-Serif" font-size="10.00">::skew_mapp_distribution</text>
<text text-anchor="middle" x="70.5" y="-7.5" font-family="Helvetica,sans-Serif" font-size="10.00">::peek_local_offset</text>
</a>
</g>
</g>
<!-- Node2 -->
<g id="node2" class="node">
<title>Node2</title>
<g id="a_node2"><a xlink:href="classargo_1_1data__distribution_1_1skew__mapp__distribution_aa92e600a1e5813de3e0da1f016b7edd7.html#aa92e600a1e5813de3e0da1f016b7edd7" target="_top" xlink:title="compute the offset of ptr in the backing store on ptr&#39;s homenode">
<polygon fill="white" stroke="black" points="177,-0.5 177,-41.5 318,-41.5 318,-0.5 177,-0.5"/>
<text text-anchor="start" x="185" y="-29.5" font-family="Helvetica,sans-Serif" font-size="10.00">argo::data_distribution</text>
<text text-anchor="start" x="185" y="-18.5" font-family="Helvetica,sans-Serif" font-size="10.00">::skew_mapp_distribution</text>
<text text-anchor="middle" x="247.5" y="-7.5" font-family="Helvetica,sans-Serif" font-size="10.00">::local_offset</text>
</a>
</g>
</g>
<!-- Node1&#45;&gt;Node2 -->
<g id="edge1" class="edge">
<title>Node1&#45;&gt;Node2</title>
<path fill="none" stroke="midnightblue" d="M141.17,-21C149.5,-21 158.06,-21 166.53,-21"/>
<polygon fill="midnightblue" stroke="midnightblue" points="166.79,-24.5 176.79,-21 166.79,-17.5 166.79,-24.5"/>
</g>
<!-- Node3 -->
<g id="node3" class="node">
<title>Node3</title>
<g id="a_node3"><a xlink:href="namespaceargo_1_1env_a30775a9aa41b956df7474a2c0cc317aa.html#a30775a9aa41b956df7474a2c0cc317aa" target="_top" xlink:title="get the allocation block size requested by environment variable">
<polygon fill="white" stroke="black" points="354,-6 354,-36 470,-36 470,-6 354,-6"/>
<text text-anchor="start" x="362" y="-24" font-family="Helvetica,sans-Serif" font-size="10.00">argo::env::allocation</text>
<text text-anchor="middle" x="412" y="-13" font-family="Helvetica,sans-Serif" font-size="10.00">_block_size</text>
</a>
</g>
</g>
<!-- Node2&#45;&gt;Node3 -->
<g id="edge2" class="edge">
<title>Node2&#45;&gt;Node3</title>
<path fill="none" stroke="midnightblue" d="M318.36,-21C326.8,-21 335.4,-21 343.8,-21"/>
<polygon fill="midnightblue" stroke="midnightblue" points="343.92,-24.5 353.92,-21 343.92,-17.5 343.92,-24.5"/>
</g>
</g>
</svg>
