<?xml version="1.0" encoding="UTF-8" standalone="no"?>
<!DOCTYPE svg PUBLIC "-//W3C//DTD SVG 1.1//EN"
 "http://www.w3.org/Graphics/SVG/1.1/DTD/svg11.dtd">
<!-- Generated by graphviz version 2.43.0 (0)
 -->
<!-- Title: write_buffer::pop Pages: 1 -->
<!--zoomable 83 -->
<svg id="main" version="1.1" xmlns="http://www.w3.org/2000/svg" xmlns:xlink="http://www.w3.org/1999/xlink" xml:space="preserve" onload="init(evt)">
<style type="text/css"><![CDATA[
.edge:hover path { stroke: red; }
.edge:hover polygon { stroke: red; fill: red; }
]]></style>
<script type="text/javascript"><![CDATA[
var edges = document.getElementsByTagName('g');
if (edges && edges.length) {
  for (var i=0;i<edges.length;i++) {
    if (edges[i].id.substr(0,4)=='edge') {
      edges[i].setAttribute('class','edge');
    }
  }
}
]]></script>
        <defs>
                <circle id="rim" cx="0" cy="0" r="7"/>
                <circle id="rim2" cx="0" cy="0" r="3.5"/>
                <g id="zoomPlus">
                        <use xlink:href="#rim" fill="#404040">
                                <set attributeName="fill" to="#808080" begin="zoomplus.mouseover" end="zoomplus.mouseout"/>
                        </use>
                        <path d="M-4,0h8M0,-4v8" fill="none" stroke="white" stroke-width="1.5" pointer-events="none"/>
                </g>
                <g id="zoomMin">
                        <use xlink:href="#rim" fill="#404040">
                                <set attributeName="fill" to="#808080" begin="zoomminus.mouseover" end="zoomminus.mouseout"/>
                        </use>
                        <path d="M-4,0h8" fill="none" stroke="white" stroke-width="1.5" pointer-events="none"/>
                </g>
                <g id="dirArrow">
                        <path fill="none" stroke="white" stroke-width="1.5" d="M0,-3.0v7 M-2.5,-0.5L0,-3.0L2.5,-0.5"/>
                </g>
               <g id="resetDef">
                       <use xlink:href="#rim2" fill="#404040">
                               <set attributeName="fill" to="#808080" begin="reset.mouseover" end="reset.mouseout"/>
                       </use>
               </g>
        </defs>

<script type="text/javascript">
var viewWidth = 674;
var viewHeight = 83;
var sectionId = 'dynsection-0';
</script>
<script xlink:href="svgpan.js"/>
<svg id="graph" class="graph">
<g id="viewport">
<title>write_buffer::pop</title>
<polygon fill="white" stroke="transparent" points="-4,4 -4,-79 670,-79 670,4 -4,4"/>
<!-- Node1 -->
<g id="node1" class="node">
<title>Node1</title>
<g id="a_node1"><a xlink:title="Removes the front element from the buffer and returns it.">
<polygon fill="#bfbfbf" stroke="black" points="567,-28 567,-47 666,-47 666,-28 567,-28"/>
<text text-anchor="middle" x="616.5" y="-35" font-family="Helvetica,sans-Serif" font-size="10.00">write_buffer::pop</text>
</a>
</g>
</g>
<!-- Node2 -->
<g id="node2" class="node">
<title>Node2</title>
<g id="a_node2"><a xlink:href="classwrite__buffer_ad01396b3a57acdae3d76a31ae6253f48.html#ad01396b3a57acdae3d76a31ae6253f48" target="_top" xlink:title="Internal implementation of flush.">
<polygon fill="white" stroke="black" points="421,-50 421,-69 531,-69 531,-50 421,-50"/>
<text text-anchor="middle" x="476" y="-57" font-family="Helvetica,sans-Serif" font-size="10.00">write_buffer::_flush</text>
</a>
</g>
</g>
<!-- Node1&#45;&gt;Node2 -->
<g id="edge1" class="edge">
<title>Node1&#45;&gt;Node2</title>
<path fill="none" stroke="midnightblue" d="M556.78,-46.83C548.24,-48.18 539.49,-49.57 531.05,-50.91"/>
<polygon fill="midnightblue" stroke="midnightblue" points="557.34,-50.28 566.67,-45.26 556.24,-43.37 557.34,-50.28"/>
</g>
<!-- Node5 -->
<g id="node5" class="node">
<title>Node5</title>
<g id="a_node5"><a xlink:href="classwrite__buffer_aa6a1c2c3aa3a7cde744bbca3b14f599a.html#aa6a1c2c3aa3a7cde744bbca3b14f599a" target="_top" xlink:title="Flushes first _write_back_size elements of the ArgoDSM write buffer to memory.">
<polygon fill="white" stroke="black" points="424,-0.5 424,-30.5 528,-30.5 528,-0.5 424,-0.5"/>
<text text-anchor="start" x="432" y="-18.5" font-family="Helvetica,sans-Serif" font-size="10.00">write_buffer::flush</text>
<text text-anchor="middle" x="476" y="-7.5" font-family="Helvetica,sans-Serif" font-size="10.00">_partial</text>
</a>
</g>
</g>
<!-- Node1&#45;&gt;Node5 -->
<g id="edge4" class="edge">
<title>Node1&#45;&gt;Node5</title>
<path fill="none" stroke="midnightblue" d="M556.57,-28.14C547.13,-26.64 537.44,-25.1 528.2,-23.63"/>
<polygon fill="midnightblue" stroke="midnightblue" points="556.24,-31.63 566.67,-29.74 557.34,-24.72 556.24,-31.63"/>
</g>
<!-- Node3 -->
<g id="node3" class="node">
<title>Node3</title>
<g id="a_node3"><a xlink:href="classwrite__buffer_adbf59cdee2664f9db4a5e0dfd4f273ef.html#adbf59cdee2664f9db4a5e0dfd4f273ef" target="_top" xlink:title="Helper function to call _flush.">
<polygon fill="white" stroke="black" points="275,-44.5 275,-74.5 385,-74.5 385,-44.5 275,-44.5"/>
<text text-anchor="start" x="283" y="-62.5" font-family="Helvetica,sans-Serif" font-size="10.00">write_buffer::_flush</text>
<text text-anchor="middle" x="330" y="-51.5" font-family="Helvetica,sans-Serif" font-size="10.00">_helper</text>
</a>
</g>
</g>
<!-- Node2&#45;&gt;Node3 -->
<g id="edge2" class="edge">
<title>Node2&#45;&gt;Node3</title>
<path fill="none" stroke="midnightblue" d="M410.73,-59.5C402.25,-59.5 393.62,-59.5 385.33,-59.5"/>
<polygon fill="midnightblue" stroke="midnightblue" points="410.97,-63 420.97,-59.5 410.97,-56 410.97,-63"/>
</g>
<!-- Node4 -->
<g id="node4" class="node">
<title>Node4</title>
<g id="a_node4"><a xlink:href="classwrite__buffer_aca2e330e17a38c1cc8d8c60701ce9dd7.html#aca2e330e17a38c1cc8d8c60701ce9dd7" target="_top" xlink:title="Flushes the ArgoDSM write buffer to memory.">
<polygon fill="white" stroke="black" points="135,-50 135,-69 239,-69 239,-50 135,-50"/>
<text text-anchor="middle" x="187" y="-57" font-family="Helvetica,sans-Serif" font-size="10.00">write_buffer::flush</text>
</a>
</g>
</g>
<!-- Node3&#45;&gt;Node4 -->
<g id="edge3" class="edge">
<title>Node3&#45;&gt;Node4</title>
<path fill="none" stroke="midnightblue" d="M264.66,-59.5C256.2,-59.5 247.62,-59.5 239.42,-59.5"/>
<polygon fill="midnightblue" stroke="midnightblue" points="264.89,-63 274.89,-59.5 264.89,-56 264.89,-63"/>
</g>
<!-- Node6 -->
<g id="node6" class="node">
<title>Node6</title>
<g id="a_node6"><a xlink:href="classwrite__buffer_a327be1f65770b56442b1e8ee967be23d.html#a327be1f65770b56442b1e8ee967be23d" target="_top" xlink:title="Internal function to add an element to the write buffer.">
<polygon fill="white" stroke="black" points="278,-6 278,-25 382,-25 382,-6 278,-6"/>
<text text-anchor="middle" x="330" y="-13" font-family="Helvetica,sans-Serif" font-size="10.00">write_buffer::_add</text>
</a>
</g>
</g>
<!-- Node5&#45;&gt;Node6 -->
<g id="edge5" class="edge">
<title>Node5&#45;&gt;Node6</title>
<path fill="none" stroke="midnightblue" d="M413.8,-15.5C403.21,-15.5 392.29,-15.5 382.01,-15.5"/>
<polygon fill="midnightblue" stroke="midnightblue" points="413.83,-19 423.83,-15.5 413.83,-12 413.83,-19"/>
</g>
<!-- Node7 -->
<g id="node7" class="node">
<title>Node7</title>
<g id="a_node7"><a xlink:href="classwrite__buffer_ab5f16d0de074372b34cc4ebba9c58550.html#ab5f16d0de074372b34cc4ebba9c58550" target="_top" xlink:title="Helper function to call _add.">
<polygon fill="white" stroke="black" points="135,-0.5 135,-30.5 239,-30.5 239,-0.5 135,-0.5"/>
<text text-anchor="start" x="143" y="-18.5" font-family="Helvetica,sans-Serif" font-size="10.00">write_buffer::_add</text>
<text text-anchor="middle" x="187" y="-7.5" font-family="Helvetica,sans-Serif" font-size="10.00">_helper</text>
</a>
</g>
</g>
<!-- Node6&#45;&gt;Node7 -->
<g id="edge6" class="edge">
<title>Node6&#45;&gt;Node7</title>
<path fill="none" stroke="midnightblue" d="M267.5,-15.5C258,-15.5 248.27,-15.5 239.03,-15.5"/>
<polygon fill="midnightblue" stroke="midnightblue" points="267.7,-19 277.7,-15.5 267.7,-12 267.7,-19"/>
</g>
<!-- Node8 -->
<g id="node8" class="node">
<title>Node8</title>
<g id="a_node8"><a xlink:href="classwrite__buffer_a23b0dbc463111cacbbf83b267e76ac9f.html#a23b0dbc463111cacbbf83b267e76ac9f" target="_top" xlink:title="Adds a new element to the write buffer.">
<polygon fill="white" stroke="black" points="0,-6 0,-25 99,-25 99,-6 0,-6"/>
<text text-anchor="middle" x="49.5" y="-13" font-family="Helvetica,sans-Serif" font-size="10.00">write_buffer::add</text>
</a>
</g>
</g>
<!-- Node7&#45;&gt;Node8 -->
<g id="edge7" class="edge">
<title>Node7&#45;&gt;Node8</title>
<path fill="none" stroke="midnightblue" d="M124.5,-15.5C115.99,-15.5 107.34,-15.5 99.11,-15.5"/>
<polygon fill="midnightblue" stroke="midnightblue" points="124.77,-19 134.77,-15.5 124.77,-12 124.77,-19"/>
</g>
</g>
</svg>
        <g id="navigator" transform="translate(0 0)" fill="#404254">
                <rect fill="#f2f5e9" fill-opacity="0.5" stroke="#606060" stroke-width=".5" x="0" y="0" width="60" height="60"/>
                <use id="zoomplus" xlink:href="#zoomPlus" x="17" y="9" onmousedown="handleZoom(evt,'in')"/>
                <use id="zoomminus" xlink:href="#zoomMin" x="42" y="9" onmousedown="handleZoom(evt,'out')"/>
                <use id="reset" xlink:href="#resetDef" x="30" y="36" onmousedown="handleReset()"/>
                <g id="arrowUp" xlink:href="#dirArrow" transform="translate(30 24)" onmousedown="handlePan(0,-1)">
                  <use xlink:href="#rim" fill="#404040">
                        <set attributeName="fill" to="#808080" begin="arrowUp.mouseover" end="arrowUp.mouseout"/>
                  </use>
                  <path fill="none" stroke="white" stroke-width="1.5" d="M0,-3.0v7 M-2.5,-0.5L0,-3.0L2.5,-0.5"/>
                </g>
                <g id="arrowRight" xlink:href="#dirArrow" transform="rotate(90) translate(36 -43)" onmousedown="handlePan(1,0)">
                  <use xlink:href="#rim" fill="#404040">
                        <set attributeName="fill" to="#808080" begin="arrowRight.mouseover" end="arrowRight.mouseout"/>
                  </use>
                  <path fill="none" stroke="white" stroke-width="1.5" d="M0,-3.0v7 M-2.5,-0.5L0,-3.0L2.5,-0.5"/>
                </g>
                <g id="arrowDown" xlink:href="#dirArrow" transform="rotate(180) translate(-30 -48)" onmousedown="handlePan(0,1)">
                  <use xlink:href="#rim" fill="#404040">
                        <set attributeName="fill" to="#808080" begin="arrowDown.mouseover" end="arrowDown.mouseout"/>
                  </use>
                  <path fill="none" stroke="white" stroke-width="1.5" d="M0,-3.0v7 M-2.5,-0.5L0,-3.0L2.5,-0.5"/>
                </g>
                <g id="arrowLeft" xlink:href="#dirArrow" transform="rotate(270) translate(-36 17)" onmousedown="handlePan(-1,0)">
                  <use xlink:href="#rim" fill="#404040">
                        <set attributeName="fill" to="#808080" begin="arrowLeft.mouseover" end="arrowLeft.mouseout"/>
                  </use>
                  <path fill="none" stroke="white" stroke-width="1.5" d="M0,-3.0v7 M-2.5,-0.5L0,-3.0L2.5,-0.5"/>
                </g>
        </g>
        <svg viewBox="0 0 15 15" width="100%" height="30px" preserveAspectRatio="xMaxYMin meet">
         <g id="arrow_out" transform="scale(0.3 0.3)">
          <a xlink:href="classwrite__buffer_ae065d3ee59035ad508eb8ce6670d2c89_ae065d3ee59035ad508eb8ce6670d2c89_icgraph_org.svg" target="_base">
           <rect id="button" ry="5" rx="5" y="6" x="6" height="38" width="38"
                fill="#f2f5e9" fill-opacity="0.5" stroke="#606060" stroke-width="1.0"/>
           <path id="arrow"
             d="M 11.500037,31.436501 C 11.940474,20.09759 22.043105,11.32322 32.158766,21.979434 L 37.068811,17.246167 C 37.068811,17.246167 37.088388,32 37.088388,32 L 22.160133,31.978069 C 22.160133,31.978069 26.997745,27.140456 26.997745,27.140456 C 18.528582,18.264221 13.291696,25.230495 11.500037,31.436501 z"
             style="fill:#404040;"/>
          </a>
         </g>
        </svg>
</svg>
