<?xml version="1.0" encoding="UTF-8" standalone="no"?>
<!DOCTYPE svg PUBLIC "-//W3C//DTD SVG 1.1//EN"
 "http://www.w3.org/Graphics/SVG/1.1/DTD/svg11.dtd">
<!-- Generated by graphviz version 2.43.0 (0)
 -->
<!-- Title: write_buffer::write_back_index Pages: 1 -->
<!--zoomable 218 -->
<svg id="main" version="1.1" xmlns="http://www.w3.org/2000/svg" xmlns:xlink="http://www.w3.org/1999/xlink" xml:space="preserve" onload="init(evt)">
<style type="text/css"><![CDATA[
.edge:hover path { stroke: red; }
.edge:hover polygon { stroke: red; fill: red; }
]]></style>
<script type="text/javascript"><![CDATA[
var edges = document.getElementsByTagName('g');
if (edges && edges.length) {
  for (var i=0;i<edges.length;i++) {
    if (edges[i].id.substr(0,4)=='edge') {
      edges[i].setAttribute('class','edge');
    }
  }
}
]]></script>
        <defs>
                <circle id="rim" cx="0" cy="0" r="7"/>
                <circle id="rim2" cx="0" cy="0" r="3.5"/>
                <g id="zoomPlus">
                        <use xlink:href="#rim" fill="#404040">
                                <set attributeName="fill" to="#808080" begin="zoomplus.mouseover" end="zoomplus.mouseout"/>
                        </use>
                        <path d="M-4,0h8M0,-4v8" fill="none" stroke="white" stroke-width="1.5" pointer-events="none"/>
                </g>
                <g id="zoomMin">
                        <use xlink:href="#rim" fill="#404040">
                                <set attributeName="fill" to="#808080" begin="zoomminus.mouseover" end="zoomminus.mouseout"/>
                        </use>
                        <path d="M-4,0h8" fill="none" stroke="white" stroke-width="1.5" pointer-events="none"/>
                </g>
                <g id="dirArrow">
                        <path fill="none" stroke="white" stroke-width="1.5" d="M0,-3.0v7 M-2.5,-0.5L0,-3.0L2.5,-0.5"/>
                </g>
               <g id="resetDef">
                       <use xlink:href="#rim2" fill="#404040">
                               <set attributeName="fill" to="#808080" begin="reset.mouseover" end="reset.mouseout"/>
                       </use>
               </g>
        </defs>

<script type="text/javascript">
var viewWidth = 867;
var viewHeight = 218;
var sectionId = 'dynsection-0';
</script>
<script xlink:href="svgpan.js"/>
<svg id="graph" class="graph">
<g id="viewport">
<title>write_buffer::write_back_index</title>
<polygon fill="white" stroke="transparent" points="-4,4 -4,-214 863,-214 863,4 -4,4"/>
<!-- Node1 -->
<g id="node1" class="node">
<title>Node1</title>
<g id="a_node1"><a xlink:title="Perform writeback of a single cached page.">
<polygon fill="#bfbfbf" stroke="black" points="0,-90 0,-120 106,-120 106,-90 0,-90"/>
<text text-anchor="start" x="8" y="-108" font-family="Helvetica,sans-Serif" font-size="10.00">write_buffer::write</text>
<text text-anchor="middle" x="53" y="-97" font-family="Helvetica,sans-Serif" font-size="10.00">_back_index</text>
</a>
</g>
</g>
<!-- Node2 -->
<g id="node2" class="node">
<title>Node2</title>
<g id="a_node2"><a xlink:href="swdsm_8cpp_a3b6a6b2b244edb9faa79814ce8e5e9f5.html#a3b6a6b2b244edb9faa79814ce8e5e9f5" target="_top" xlink:title="stores a page remotely &#45; only writing back what has been written locally since last synchronization p...">
<polygon fill="white" stroke="black" points="142,-95.5 142,-114.5 230,-114.5 230,-95.5 142,-95.5"/>
<text text-anchor="middle" x="186" y="-102.5" font-family="Helvetica,sans-Serif" font-size="10.00">storepageDIFF</text>
</a>
</g>
</g>
<!-- Node1&#45;&gt;Node2 -->
<g id="edge1" class="edge">
<title>Node1&#45;&gt;Node2</title>
<path fill="none" stroke="midnightblue" d="M106.15,-105C114.57,-105 123.3,-105 131.75,-105"/>
<polygon fill="midnightblue" stroke="midnightblue" points="131.87,-108.5 141.87,-105 131.87,-101.5 131.87,-108.5"/>
</g>
<!-- Node3 -->
<g id="node3" class="node">
<title>Node3</title>
<g id="a_node3"><a xlink:href="swdsm_8cpp_af5bb31046df1aef1cccf72f19fe63640.html#af5bb31046df1aef1cccf72f19fe63640" target="_top" xlink:title="Gets the data window index based on the offset into the node&#39;s backing store.">
<polygon fill="white" stroke="black" points="266.5,-190.5 266.5,-209.5 380.5,-209.5 380.5,-190.5 266.5,-190.5"/>
<text text-anchor="middle" x="323.5" y="-197.5" font-family="Helvetica,sans-Serif" font-size="10.00">get_data_win_index</text>
</a>
</g>
</g>
<!-- Node2&#45;&gt;Node3 -->
<g id="edge2" class="edge">
<title>Node2&#45;&gt;Node3</title>
<path fill="none" stroke="midnightblue" d="M194.49,-114.56C207.44,-130.5 235.57,-162.54 266,-181 269.39,-183.05 273.02,-184.92 276.76,-186.61"/>
<polygon fill="midnightblue" stroke="midnightblue" points="275.59,-189.91 286.17,-190.43 278.23,-183.42 275.59,-189.91"/>
</g>
<!-- Node4 -->
<g id="node4" class="node">
<title>Node4</title>
<g id="a_node4"><a xlink:href="swdsm_8cpp_a3f19b1fc7fe36a6eabdae48e53fb66fa.html#a3f19b1fc7fe36a6eabdae48e53fb66fa" target="_top" xlink:title="Gets the sharer window offset based on the classification index.">
<polygon fill="white" stroke="black" points="266,-152.5 266,-171.5 381,-171.5 381,-152.5 266,-152.5"/>
<text text-anchor="middle" x="323.5" y="-159.5" font-family="Helvetica,sans-Serif" font-size="10.00">get_data_win_offset</text>
</a>
</g>
</g>
<!-- Node2&#45;&gt;Node4 -->
<g id="edge3" class="edge">
<title>Node2&#45;&gt;Node4</title>
<path fill="none" stroke="midnightblue" d="M205.22,-114.56C221.05,-122.68 244.71,-134.34 266,-143 271.15,-145.1 276.63,-147.15 282.07,-149.09"/>
<polygon fill="midnightblue" stroke="midnightblue" points="281.16,-152.47 291.75,-152.43 283.44,-145.86 281.16,-152.47"/>
</g>
<!-- Node5 -->
<g id="node5" class="node">
<title>Node5</title>
<g id="a_node5"><a xlink:href="swdsm_8cpp_ab2e5fbbe4d1f44d25619f290dc37dd3e.html#ab2e5fbbe4d1f44d25619f290dc37dd3e" target="_top" xlink:title="Gives homenode for a given address.">
<polygon fill="white" stroke="black" points="279,-114.5 279,-133.5 368,-133.5 368,-114.5 279,-114.5"/>
<text text-anchor="middle" x="323.5" y="-121.5" font-family="Helvetica,sans-Serif" font-size="10.00">get_homenode</text>
</a>
</g>
</g>
<!-- Node2&#45;&gt;Node5 -->
<g id="edge4" class="edge">
<title>Node2&#45;&gt;Node5</title>
<path fill="none" stroke="midnightblue" d="M230.25,-111.06C242.47,-112.78 255.92,-114.66 268.68,-116.45"/>
<polygon fill="midnightblue" stroke="midnightblue" points="268.35,-119.94 278.74,-117.86 269.32,-113.01 268.35,-119.94"/>
</g>
<!-- Node9 -->
<g id="node9" class="node">
<title>Node9</title>
<g id="a_node9"><a xlink:href="swdsm_8cpp_a974f1a03f5461bb989248cceb41cd95b.html#a974f1a03f5461bb989248cceb41cd95b" target="_top" xlink:title="Gets the offset of an address on the local nodes part of the global memory.">
<polygon fill="white" stroke="black" points="291,-76.5 291,-95.5 356,-95.5 356,-76.5 291,-76.5"/>
<text text-anchor="middle" x="323.5" y="-83.5" font-family="Helvetica,sans-Serif" font-size="10.00">get_offset</text>
</a>
</g>
</g>
<!-- Node2&#45;&gt;Node9 -->
<g id="edge8" class="edge">
<title>Node2&#45;&gt;Node9</title>
<path fill="none" stroke="midnightblue" d="M230.25,-98.94C246.38,-96.67 264.66,-94.11 280.67,-91.87"/>
<polygon fill="midnightblue" stroke="midnightblue" points="281.4,-95.3 290.82,-90.44 280.43,-88.37 281.4,-95.3"/>
</g>
<!-- Node11 -->
<g id="node11" class="node">
<title>Node11</title>
<g id="a_node11"><a xlink:href="classmpi__lock_a67301b26c3bb28c746e164c9f531d21d.html#a67301b26c3bb28c746e164c9f531d21d" target="_top" xlink:title="acquire mpi_lock">
<polygon fill="white" stroke="black" points="280,-38.5 280,-57.5 367,-57.5 367,-38.5 280,-38.5"/>
<text text-anchor="middle" x="323.5" y="-45.5" font-family="Helvetica,sans-Serif" font-size="10.00">mpi_lock::lock</text>
</a>
</g>
</g>
<!-- Node2&#45;&gt;Node11 -->
<g id="edge11" class="edge">
<title>Node2&#45;&gt;Node11</title>
<path fill="none" stroke="midnightblue" d="M205.22,-95.44C221.05,-87.32 244.71,-75.66 266,-67 271.15,-64.9 276.63,-62.85 282.07,-60.91"/>
<polygon fill="midnightblue" stroke="midnightblue" points="283.44,-64.14 291.75,-57.57 281.16,-57.53 283.44,-64.14"/>
</g>
<!-- Node12 -->
<g id="node12" class="node">
<title>Node12</title>
<g id="a_node12"><a xlink:href="classmpi__lock_a38cb3649cba54a2818810c444a8b475a.html#a38cb3649cba54a2818810c444a8b475a" target="_top" xlink:title="release mpi_lock">
<polygon fill="white" stroke="black" points="274,-0.5 274,-19.5 373,-19.5 373,-0.5 274,-0.5"/>
<text text-anchor="middle" x="323.5" y="-7.5" font-family="Helvetica,sans-Serif" font-size="10.00">mpi_lock::unlock</text>
</a>
</g>
</g>
<!-- Node2&#45;&gt;Node12 -->
<g id="edge12" class="edge">
<title>Node2&#45;&gt;Node12</title>
<path fill="none" stroke="midnightblue" d="M194.49,-95.44C207.44,-79.5 235.57,-47.46 266,-29 269.39,-26.95 273.02,-25.08 276.76,-23.39"/>
<polygon fill="midnightblue" stroke="midnightblue" points="278.23,-26.58 286.17,-19.57 275.59,-20.09 278.23,-26.58"/>
</g>
<!-- Node6 -->
<g id="node6" class="node">
<title>Node6</title>
<g id="a_node6"><a xlink:href="classargo_1_1data__distribution_1_1global__ptr_ac7d651586337d08cda18ef26ffcd34a0.html#ac7d651586337d08cda18ef26ffcd34a0" target="_top" xlink:title="return the home node of the value pointed to">
<polygon fill="white" stroke="black" points="417,-114 417,-144 544,-144 544,-114 417,-114"/>
<text text-anchor="start" x="425" y="-132" font-family="Helvetica,sans-Serif" font-size="10.00">argo::data_distribution</text>
<text text-anchor="middle" x="480.5" y="-121" font-family="Helvetica,sans-Serif" font-size="10.00">::global_ptr::node</text>
</a>
</g>
</g>
<!-- Node5&#45;&gt;Node6 -->
<g id="edge5" class="edge">
<title>Node5&#45;&gt;Node6</title>
<path fill="none" stroke="midnightblue" d="M368.09,-125.41C380.15,-125.8 393.57,-126.23 406.81,-126.66"/>
<polygon fill="midnightblue" stroke="midnightblue" points="406.76,-130.16 416.86,-126.98 406.98,-123.16 406.76,-130.16"/>
</g>
<!-- Node7 -->
<g id="node7" class="node">
<title>Node7</title>
<g id="a_node7"><a xlink:href="classargo_1_1data__distribution_1_1global__ptr_ae4353680349f6abbd2cf262dace8e2f2.html#ae4353680349f6abbd2cf262dace8e2f2" target="_top" xlink:title="return a pointer to the selected allocation policy">
<polygon fill="white" stroke="black" points="580,-89 580,-119 707,-119 707,-89 580,-89"/>
<text text-anchor="start" x="588" y="-107" font-family="Helvetica,sans-Serif" font-size="10.00">argo::data_distribution</text>
<text text-anchor="middle" x="643.5" y="-96" font-family="Helvetica,sans-Serif" font-size="10.00">::global_ptr::policy</text>
</a>
</g>
</g>
<!-- Node6&#45;&gt;Node7 -->
<g id="edge6" class="edge">
<title>Node6&#45;&gt;Node7</title>
<path fill="none" stroke="midnightblue" d="M544.21,-119.26C552.65,-117.95 561.36,-116.6 569.96,-115.26"/>
<polygon fill="midnightblue" stroke="midnightblue" points="570.62,-118.7 579.96,-113.71 569.54,-111.79 570.62,-118.7"/>
</g>
<!-- Node8 -->
<g id="node8" class="node">
<title>Node8</title>
<g id="a_node8"><a xlink:href="namespaceargo_1_1env_a25a08cb2d0d11432d640ec7173063339.html#a25a08cb2d0d11432d640ec7173063339" target="_top" xlink:title="get the allocation policy requested by environment variable">
<polygon fill="white" stroke="black" points="743,-89 743,-119 859,-119 859,-89 743,-89"/>
<text text-anchor="start" x="751" y="-107" font-family="Helvetica,sans-Serif" font-size="10.00">argo::env::allocation</text>
<text text-anchor="middle" x="801" y="-96" font-family="Helvetica,sans-Serif" font-size="10.00">_policy</text>
</a>
</g>
</g>
<!-- Node7&#45;&gt;Node8 -->
<g id="edge7" class="edge">
<title>Node7&#45;&gt;Node8</title>
<path fill="none" stroke="midnightblue" d="M707.3,-104C715.69,-104 724.32,-104 732.78,-104"/>
<polygon fill="midnightblue" stroke="midnightblue" points="732.99,-107.5 742.99,-104 732.99,-100.5 732.99,-107.5"/>
</g>
<!-- Node10 -->
<g id="node10" class="node">
<title>Node10</title>
<g id="a_node10"><a xlink:href="classargo_1_1data__distribution_1_1global__ptr_ad8c21c408fa2b926cfd9acfd87e8e4e6.html#ad8c21c408fa2b926cfd9acfd87e8e4e6" target="_top" xlink:title="return the offset on the home node&#39;s local memory share">
<polygon fill="white" stroke="black" points="417,-65 417,-95 544,-95 544,-65 417,-65"/>
<text text-anchor="start" x="425" y="-83" font-family="Helvetica,sans-Serif" font-size="10.00">argo::data_distribution</text>
<text text-anchor="middle" x="480.5" y="-72" font-family="Helvetica,sans-Serif" font-size="10.00">::global_ptr::offset</text>
</a>
</g>
</g>
<!-- Node9&#45;&gt;Node10 -->
<g id="edge9" class="edge">
<title>Node9&#45;&gt;Node10</title>
<path fill="none" stroke="midnightblue" d="M356.24,-84.77C370.83,-84.21 388.78,-83.51 406.43,-82.83"/>
<polygon fill="midnightblue" stroke="midnightblue" points="406.9,-86.31 416.75,-82.43 406.63,-79.32 406.9,-86.31"/>
</g>
<!-- Node10&#45;&gt;Node7 -->
<g id="edge10" class="edge">
<title>Node10&#45;&gt;Node7</title>
<path fill="none" stroke="midnightblue" d="M544.21,-89.35C552.65,-90.61 561.36,-91.91 569.96,-93.19"/>
<polygon fill="midnightblue" stroke="midnightblue" points="569.56,-96.67 579.96,-94.68 570.59,-89.74 569.56,-96.67"/>
</g>
</g>
</svg>
        <g id="navigator" transform="translate(0 0)" fill="#404254">
                <rect fill="#f2f5e9" fill-opacity="0.5" stroke="#606060" stroke-width=".5" x="0" y="0" width="60" height="60"/>
                <use id="zoomplus" xlink:href="#zoomPlus" x="17" y="9" onmousedown="handleZoom(evt,'in')"/>
                <use id="zoomminus" xlink:href="#zoomMin" x="42" y="9" onmousedown="handleZoom(evt,'out')"/>
                <use id="reset" xlink:href="#resetDef" x="30" y="36" onmousedown="handleReset()"/>
                <g id="arrowUp" xlink:href="#dirArrow" transform="translate(30 24)" onmousedown="handlePan(0,-1)">
                  <use xlink:href="#rim" fill="#404040">
                        <set attributeName="fill" to="#808080" begin="arrowUp.mouseover" end="arrowUp.mouseout"/>
                  </use>
                  <path fill="none" stroke="white" stroke-width="1.5" d="M0,-3.0v7 M-2.5,-0.5L0,-3.0L2.5,-0.5"/>
                </g>
                <g id="arrowRight" xlink:href="#dirArrow" transform="rotate(90) translate(36 -43)" onmousedown="handlePan(1,0)">
                  <use xlink:href="#rim" fill="#404040">
                        <set attributeName="fill" to="#808080" begin="arrowRight.mouseover" end="arrowRight.mouseout"/>
                  </use>
                  <path fill="none" stroke="white" stroke-width="1.5" d="M0,-3.0v7 M-2.5,-0.5L0,-3.0L2.5,-0.5"/>
                </g>
                <g id="arrowDown" xlink:href="#dirArrow" transform="rotate(180) translate(-30 -48)" onmousedown="handlePan(0,1)">
                  <use xlink:href="#rim" fill="#404040">
                        <set attributeName="fill" to="#808080" begin="arrowDown.mouseover" end="arrowDown.mouseout"/>
                  </use>
                  <path fill="none" stroke="white" stroke-width="1.5" d="M0,-3.0v7 M-2.5,-0.5L0,-3.0L2.5,-0.5"/>
                </g>
                <g id="arrowLeft" xlink:href="#dirArrow" transform="rotate(270) translate(-36 17)" onmousedown="handlePan(-1,0)">
                  <use xlink:href="#rim" fill="#404040">
                        <set attributeName="fill" to="#808080" begin="arrowLeft.mouseover" end="arrowLeft.mouseout"/>
                  </use>
                  <path fill="none" stroke="white" stroke-width="1.5" d="M0,-3.0v7 M-2.5,-0.5L0,-3.0L2.5,-0.5"/>
                </g>
        </g>
        <svg viewBox="0 0 15 15" width="100%" height="30px" preserveAspectRatio="xMaxYMin meet">
         <g id="arrow_out" transform="scale(0.3 0.3)">
          <a xlink:href="classwrite__buffer_a066de0a724f3f13272780ad7ca8e6502_a066de0a724f3f13272780ad7ca8e6502_cgraph_org.svg" target="_base">
           <rect id="button" ry="5" rx="5" y="6" x="6" height="38" width="38"
                fill="#f2f5e9" fill-opacity="0.5" stroke="#606060" stroke-width="1.0"/>
           <path id="arrow"
             d="M 11.500037,31.436501 C 11.940474,20.09759 22.043105,11.32322 32.158766,21.979434 L 37.068811,17.246167 C 37.068811,17.246167 37.088388,32 37.088388,32 L 22.160133,31.978069 C 22.160133,31.978069 26.997745,27.140456 26.997745,27.140456 C 18.528582,18.264221 13.291696,25.230495 11.500037,31.436501 z"
             style="fill:#404040;"/>
          </a>
         </g>
        </svg>
</svg>
