<?xml version="1.0" encoding="UTF-8" standalone="no"?>
<!DOCTYPE svg PUBLIC "-//W3C//DTD SVG 1.1//EN"
 "http://www.w3.org/Graphics/SVG/1.1/DTD/svg11.dtd">
<!-- Generated by graphviz version 2.43.0 (0)
 -->
<!-- Title: argo::data_distribution::global_ptr::peek_offset Pages: 1 -->
<svg width="744pt" height="39pt"
 viewBox="0.00 0.00 744.00 39.00" xmlns="http://www.w3.org/2000/svg" xmlns:xlink="http://www.w3.org/1999/xlink">
<g id="graph0" class="graph" transform="scale(1 1) rotate(0) translate(4 35)">
<title>argo::data_distribution::global_ptr::peek_offset</title>
<polygon fill="white" stroke="transparent" points="-4,4 -4,-35 740,-35 740,4 -4,4"/>
<!-- Node1 -->
<g id="node1" class="node">
<title>Node1</title>
<g id="a_node1"><a xlink:title="return the offset on the home node&#39;s local memory share or a default value if the page has not yet be...">
<polygon fill="#bfbfbf" stroke="black" points="602,-0.5 602,-30.5 736,-30.5 736,-0.5 602,-0.5"/>
<text text-anchor="start" x="610" y="-18.5" font-family="Helvetica,sans-Serif" font-size="10.00">argo::data_distribution</text>
<text text-anchor="middle" x="669" y="-7.5" font-family="Helvetica,sans-Serif" font-size="10.00">::global_ptr::peek_offset</text>
</a>
</g>
</g>
<!-- Node2 -->
<g id="node2" class="node">
<title>Node2</title>
<g id="a_node2"><a xlink:href="swdsm_8cpp_aa5da42b70088b546b0f16d0a8031cfd1.html#aa5da42b70088b546b0f16d0a8031cfd1" target="_top" xlink:title="Gets the offset of an address on the local nodes part of the global memory.">
<polygon fill="white" stroke="black" points="492,-6 492,-25 566,-25 566,-6 492,-6"/>
<text text-anchor="middle" x="529" y="-13" font-family="Helvetica,sans-Serif" font-size="10.00">peek_offset</text>
</a>
</g>
</g>
<!-- Node1&#45;&gt;Node2 -->
<g id="edge1" class="edge">
<title>Node1&#45;&gt;Node2</title>
<path fill="none" stroke="midnightblue" d="M591.73,-15.5C582.83,-15.5 574.08,-15.5 566.1,-15.5"/>
<polygon fill="midnightblue" stroke="midnightblue" points="591.83,-19 601.83,-15.5 591.83,-12 591.83,-19"/>
</g>
<!-- Node3 -->
<g id="node3" class="node">
<title>Node3</title>
<g id="a_node3"><a xlink:href="swdsm_8cpp_a92a73a9ea2009afcbef38b3e88b9ac0f.html#a92a73a9ea2009afcbef38b3e88b9ac0f" target="_top" xlink:title="load into cache helper function">
<polygon fill="white" stroke="black" points="354,-6 354,-25 456,-25 456,-6 354,-6"/>
<text text-anchor="middle" x="405" y="-13" font-family="Helvetica,sans-Serif" font-size="10.00">load_cache_entry</text>
</a>
</g>
</g>
<!-- Node2&#45;&gt;Node3 -->
<g id="edge2" class="edge">
<title>Node2&#45;&gt;Node3</title>
<path fill="none" stroke="midnightblue" d="M481.54,-15.5C473.31,-15.5 464.7,-15.5 456.36,-15.5"/>
<polygon fill="midnightblue" stroke="midnightblue" points="481.73,-19 491.73,-15.5 481.73,-12 481.73,-19"/>
</g>
<!-- Node4 -->
<g id="node4" class="node">
<title>Node4</title>
<g id="a_node4"><a xlink:href="swdsm_8cpp_adb24c11067d42b9bc8515a78a524e2c7.html#adb24c11067d42b9bc8515a78a524e2c7" target="_top" xlink:title="Catches memory accesses to memory not yet cached in ArgoDSM. Launches remote requests for memory not ...">
<polygon fill="white" stroke="black" points="265,-6 265,-25 318,-25 318,-6 265,-6"/>
<text text-anchor="middle" x="291.5" y="-13" font-family="Helvetica,sans-Serif" font-size="10.00">handler</text>
</a>
</g>
</g>
<!-- Node3&#45;&gt;Node4 -->
<g id="edge3" class="edge">
<title>Node3&#45;&gt;Node4</title>
<path fill="none" stroke="midnightblue" d="M343.62,-15.5C334.62,-15.5 325.78,-15.5 318.05,-15.5"/>
<polygon fill="midnightblue" stroke="midnightblue" points="343.8,-19 353.8,-15.5 343.8,-12 343.8,-19"/>
</g>
<!-- Node5 -->
<g id="node5" class="node">
<title>Node5</title>
<g id="a_node5"><a xlink:href="swdsm_8cpp_a31ba60e8ddccfa922da8d7e6a10f7b1d.html#a31ba60e8ddccfa922da8d7e6a10f7b1d" target="_top" xlink:title="Initializes ArgoDSM runtime.">
<polygon fill="white" stroke="black" points="143,-6 143,-25 229,-25 229,-6 143,-6"/>
<text text-anchor="middle" x="186" y="-13" font-family="Helvetica,sans-Serif" font-size="10.00">argo_initialize</text>
</a>
</g>
</g>
<!-- Node4&#45;&gt;Node5 -->
<g id="edge4" class="edge">
<title>Node4&#45;&gt;Node5</title>
<path fill="none" stroke="midnightblue" d="M254.85,-15.5C246.59,-15.5 237.72,-15.5 229.2,-15.5"/>
<polygon fill="midnightblue" stroke="midnightblue" points="254.92,-19 264.92,-15.5 254.92,-12 254.92,-19"/>
</g>
<!-- Node6 -->
<g id="node6" class="node">
<title>Node6</title>
<g id="a_node6"><a xlink:href="backend_8hpp_aab3cabb3e1c0b9696b339416b684f78c.html#aab3cabb3e1c0b9696b339416b684f78c" target="_top" xlink:title="initialize backend">
<polygon fill="white" stroke="black" points="0,-6 0,-25 107,-25 107,-6 0,-6"/>
<text text-anchor="middle" x="53.5" y="-13" font-family="Helvetica,sans-Serif" font-size="10.00">argo::backend::init</text>
</a>
</g>
</g>
<!-- Node5&#45;&gt;Node6 -->
<g id="edge5" class="edge">
<title>Node5&#45;&gt;Node6</title>
<path fill="none" stroke="midnightblue" d="M132.94,-15.5C124.54,-15.5 115.84,-15.5 107.43,-15.5"/>
<polygon fill="midnightblue" stroke="midnightblue" points="132.99,-19 142.99,-15.5 132.99,-12 132.99,-19"/>
</g>
</g>
</svg>
