<?xml version="1.0" encoding="UTF-8" standalone="no"?>
<!DOCTYPE svg PUBLIC "-//W3C//DTD SVG 1.1//EN"
 "http://www.w3.org/Graphics/SVG/1.1/DTD/svg11.dtd">
<!-- Generated by graphviz version 2.43.0 (0)
 -->
<!-- Title: argo::allocators::generic_allocator::align_up Pages: 1 -->
<svg width="654pt" height="241pt"
 viewBox="0.00 0.00 654.00 240.50" xmlns="http://www.w3.org/2000/svg" xmlns:xlink="http://www.w3.org/1999/xlink">
<g id="graph0" class="graph" transform="scale(1 1) rotate(0) translate(4 236.5)">
<title>argo::allocators::generic_allocator::align_up</title>
<polygon fill="white" stroke="transparent" points="-4,4 -4,-236.5 650,-236.5 650,4 -4,4"/>
<!-- Node1 -->
<g id="node1" class="node">
<title>Node1</title>
<g id="a_node1"><a xlink:title="helper function to align a number up to the next alignment">
<polygon fill="#bfbfbf" stroke="black" points="512,-73.5 512,-103.5 646,-103.5 646,-73.5 512,-73.5"/>
<text text-anchor="start" x="520" y="-91.5" font-family="Helvetica,sans-Serif" font-size="10.00">argo::allocators::generic</text>
<text text-anchor="middle" x="579" y="-80.5" font-family="Helvetica,sans-Serif" font-size="10.00">_allocator::align_up</text>
</a>
</g>
</g>
<!-- Node2 -->
<g id="node2" class="node">
<title>Node2</title>
<g id="a_node2"><a xlink:href="classargo_1_1allocators_1_1generic__allocator_ae0df0734076478aeaeb689cdb902497a.html#ae0df0734076478aeaeb689cdb902497a" target="_top" xlink:title="Allocate memory.">
<polygon fill="white" stroke="black" points="342,-114.5 342,-144.5 476,-144.5 476,-114.5 342,-114.5"/>
<text text-anchor="start" x="350" y="-132.5" font-family="Helvetica,sans-Serif" font-size="10.00">argo::allocators::generic</text>
<text text-anchor="middle" x="409" y="-121.5" font-family="Helvetica,sans-Serif" font-size="10.00">_allocator::allocate</text>
</a>
</g>
</g>
<!-- Node1&#45;&gt;Node2 -->
<g id="edge1" class="edge">
<title>Node1&#45;&gt;Node2</title>
<path fill="none" stroke="midnightblue" d="M506.34,-105.99C494.78,-108.81 482.89,-111.71 471.6,-114.47"/>
<polygon fill="midnightblue" stroke="midnightblue" points="507.51,-109.31 516.4,-103.53 505.85,-102.5 507.51,-109.31"/>
</g>
<!-- Node12 -->
<g id="node12" class="node">
<title>Node12</title>
<g id="a_node12"><a xlink:href="classargo_1_1allocators_1_1generic__allocator_a1a2969ade518e34118290316e9fe2887.html#a1a2969ade518e34118290316e9fe2887" target="_top" xlink:title="deallocate memory">
<polygon fill="white" stroke="black" points="342,-49.5 342,-79.5 476,-79.5 476,-49.5 342,-49.5"/>
<text text-anchor="start" x="350" y="-67.5" font-family="Helvetica,sans-Serif" font-size="10.00">argo::allocators::generic</text>
<text text-anchor="middle" x="409" y="-56.5" font-family="Helvetica,sans-Serif" font-size="10.00">_allocator::deallocate</text>
</a>
</g>
</g>
<!-- Node1&#45;&gt;Node12 -->
<g id="edge11" class="edge">
<title>Node1&#45;&gt;Node12</title>
<path fill="none" stroke="midnightblue" d="M501.68,-77.6C493.17,-76.38 484.56,-75.15 476.19,-73.96"/>
<polygon fill="midnightblue" stroke="midnightblue" points="501.21,-81.07 511.6,-79.01 502.2,-74.14 501.21,-81.07"/>
</g>
<!-- Node3 -->
<g id="node3" class="node">
<title>Node3</title>
<g id="a_node3"><a xlink:href="classargo_1_1allocators_1_1dynamic__allocator_ae2d3947b274b46e05898cba8a6cab8b3.html#ae2d3947b274b46e05898cba8a6cab8b3" target="_top" xlink:title="allocate Ts using the default dynamic allocator">
<polygon fill="white" stroke="black" points="154.5,-175.5 154.5,-205.5 294.5,-205.5 294.5,-175.5 154.5,-175.5"/>
<text text-anchor="start" x="162.5" y="-193.5" font-family="Helvetica,sans-Serif" font-size="10.00">argo::allocators::dynamic</text>
<text text-anchor="middle" x="224.5" y="-182.5" font-family="Helvetica,sans-Serif" font-size="10.00">_allocator::allocate</text>
</a>
</g>
</g>
<!-- Node2&#45;&gt;Node3 -->
<g id="edge2" class="edge">
<title>Node2&#45;&gt;Node3</title>
<path fill="none" stroke="midnightblue" d="M356.63,-148.06C340.47,-153.78 322.53,-160.02 306,-165.5 296,-168.82 285.26,-172.25 274.98,-175.46"/>
<polygon fill="midnightblue" stroke="midnightblue" points="358.19,-151.22 366.44,-144.57 355.84,-144.63 358.19,-151.22"/>
</g>
<!-- Node4 -->
<g id="node4" class="node">
<title>Node4</title>
<g id="a_node4"><a xlink:href="src_2allocators_2allocators_8cpp_a4e8d23563c42daa5dfce669293d7e389.html#a4e8d23563c42daa5dfce669293d7e389" target="_top" xlink:title="basic collective allocation function, for C interface">
<polygon fill="white" stroke="black" points="178.5,-137 178.5,-156 270.5,-156 270.5,-137 178.5,-137"/>
<text text-anchor="middle" x="224.5" y="-144" font-family="Helvetica,sans-Serif" font-size="10.00">collective_alloc</text>
</a>
</g>
</g>
<!-- Node2&#45;&gt;Node4 -->
<g id="edge3" class="edge">
<title>Node2&#45;&gt;Node4</title>
<path fill="none" stroke="midnightblue" d="M331.75,-136.6C310.94,-138.54 289.06,-140.58 270.6,-142.3"/>
<polygon fill="midnightblue" stroke="midnightblue" points="332.22,-140.07 341.86,-135.66 331.57,-133.1 332.22,-140.07"/>
</g>
<!-- Node8 -->
<g id="node8" class="node">
<title>Node8</title>
<g id="a_node8"><a xlink:href="src_2allocators_2allocators_8cpp_a0b0fd53a1ebb7a9c44163c77ec91c853.html#a0b0fd53a1ebb7a9c44163c77ec91c853" target="_top" xlink:title="dynamic allocation function, for C interface">
<polygon fill="white" stroke="black" points="181,-99 181,-118 268,-118 268,-99 181,-99"/>
<text text-anchor="middle" x="224.5" y="-106" font-family="Helvetica,sans-Serif" font-size="10.00">dynamic_alloc</text>
</a>
</g>
</g>
<!-- Node2&#45;&gt;Node8 -->
<g id="edge7" class="edge">
<title>Node2&#45;&gt;Node8</title>
<path fill="none" stroke="midnightblue" d="M331.64,-120.71C309.93,-118.21 287.05,-115.58 268.12,-113.4"/>
<polygon fill="midnightblue" stroke="midnightblue" points="331.52,-124.22 341.86,-121.89 332.32,-117.27 331.52,-124.22"/>
</g>
<!-- Node5 -->
<g id="node5" class="node">
<title>Node5</title>
<g id="a_node5"><a xlink:href="namespaceargo_a43db7086bc5f4070897fc687ea7e950c.html#a43db7086bc5f4070897fc687ea7e950c" target="_top" xlink:title="template function to construct new objects using collective allocation">
<polygon fill="white" stroke="black" points="13,-213 13,-232 94,-232 94,-213 13,-213"/>
<text text-anchor="middle" x="53.5" y="-220" font-family="Helvetica,sans-Serif" font-size="10.00">argo::conew_</text>
</a>
</g>
</g>
<!-- Node4&#45;&gt;Node5 -->
<g id="edge4" class="edge">
<title>Node4&#45;&gt;Node5</title>
<path fill="none" stroke="midnightblue" d="M168.71,-155.74C159.78,-158.46 150.89,-161.97 143,-166.5 123.1,-177.93 126.28,-191.06 107,-203.5 101.22,-207.23 94.6,-210.36 88.07,-212.92"/>
<polygon fill="midnightblue" stroke="midnightblue" points="169.64,-159.11 178.36,-153.09 167.79,-152.36 169.64,-159.11"/>
</g>
<!-- Node6 -->
<g id="node6" class="node">
<title>Node6</title>
<g id="a_node6"><a xlink:href="namespaceargo_a532a530aefb04b559d017b8ac402feb5.html#a532a530aefb04b559d017b8ac402feb5" target="_top" xlink:title="Collectively construct a new array of objects in the global memory.">
<polygon fill="white" stroke="black" points="0,-175 0,-194 107,-194 107,-175 0,-175"/>
<text text-anchor="middle" x="53.5" y="-182" font-family="Helvetica,sans-Serif" font-size="10.00">argo::conew_array</text>
</a>
</g>
</g>
<!-- Node4&#45;&gt;Node6 -->
<g id="edge5" class="edge">
<title>Node4&#45;&gt;Node6</title>
<path fill="none" stroke="midnightblue" d="M170.91,-158.32C147.09,-163.68 119.29,-169.93 96.84,-174.98"/>
<polygon fill="midnightblue" stroke="midnightblue" points="171.87,-161.7 180.85,-156.09 170.33,-154.87 171.87,-161.7"/>
</g>
<!-- Node7 -->
<g id="node7" class="node">
<title>Node7</title>
<g id="a_node7"><a xlink:href="tests_2allocators_8cpp_a1837b5eb3f1a85c0c59ad6405738e398.html#a1837b5eb3f1a85c0c59ad6405738e398" target="_top" xlink:title="Unittest that checks that allocating 0 bytes collectively is allowed.">
<polygon fill="white" stroke="black" points="27.5,-137 27.5,-156 79.5,-156 79.5,-137 27.5,-137"/>
<text text-anchor="middle" x="53.5" y="-144" font-family="Helvetica,sans-Serif" font-size="10.00">TEST_F</text>
</a>
</g>
</g>
<!-- Node4&#45;&gt;Node7 -->
<g id="edge6" class="edge">
<title>Node4&#45;&gt;Node7</title>
<path fill="none" stroke="midnightblue" d="M167.97,-146.5C138.28,-146.5 103.18,-146.5 79.96,-146.5"/>
<polygon fill="midnightblue" stroke="midnightblue" points="168.21,-150 178.21,-146.5 168.21,-143 168.21,-150"/>
</g>
<!-- Node9 -->
<g id="node9" class="node">
<title>Node9</title>
<g id="a_node9"><a xlink:href="namespaceargo_abf8f4f896d56dcc711d50e395ff02bf6.html#abf8f4f896d56dcc711d50e395ff02bf6" target="_top" xlink:title="template function to construct new objects">
<polygon fill="white" stroke="black" points="18.5,-99 18.5,-118 88.5,-118 88.5,-99 18.5,-99"/>
<text text-anchor="middle" x="53.5" y="-106" font-family="Helvetica,sans-Serif" font-size="10.00">argo::new_</text>
</a>
</g>
</g>
<!-- Node8&#45;&gt;Node9 -->
<g id="edge8" class="edge">
<title>Node8&#45;&gt;Node9</title>
<path fill="none" stroke="midnightblue" d="M170.85,-108.5C144.03,-108.5 112.21,-108.5 88.62,-108.5"/>
<polygon fill="midnightblue" stroke="midnightblue" points="170.85,-112 180.85,-108.5 170.85,-105 170.85,-112"/>
</g>
<!-- Node10 -->
<g id="node10" class="node">
<title>Node10</title>
<g id="a_node10"><a xlink:href="namespaceargo_a9fef671adb114cd54a04a846d5a860dd.html#a9fef671adb114cd54a04a846d5a860dd" target="_top" xlink:title="Construct a new array of objects in the global memory.">
<polygon fill="white" stroke="black" points="6,-61 6,-80 101,-80 101,-61 6,-61"/>
<text text-anchor="middle" x="53.5" y="-68" font-family="Helvetica,sans-Serif" font-size="10.00">argo::new_array</text>
</a>
</g>
</g>
<!-- Node8&#45;&gt;Node10 -->
<g id="edge9" class="edge">
<title>Node8&#45;&gt;Node10</title>
<path fill="none" stroke="midnightblue" d="M170.91,-96.68C147.09,-91.32 119.29,-85.07 96.84,-80.02"/>
<polygon fill="midnightblue" stroke="midnightblue" points="170.33,-100.13 180.85,-98.91 171.87,-93.3 170.33,-100.13"/>
</g>
<!-- Node11 -->
<g id="node11" class="node">
<title>Node11</title>
<g id="a_node11"><a xlink:href="tests_2allocators_8cpp_a100f23c9297b2b8356f61ededc2431a5.html#a100f23c9297b2b8356f61ededc2431a5" target="_top" xlink:title="Unittest that checks that allocating 0 bytes dynamically by all nodes is allowed.">
<polygon fill="white" stroke="black" points="27.5,-23 27.5,-42 79.5,-42 79.5,-23 27.5,-23"/>
<text text-anchor="middle" x="53.5" y="-30" font-family="Helvetica,sans-Serif" font-size="10.00">TEST_F</text>
</a>
</g>
</g>
<!-- Node8&#45;&gt;Node11 -->
<g id="edge10" class="edge">
<title>Node8&#45;&gt;Node11</title>
<path fill="none" stroke="midnightblue" d="M170.83,-100.72C161.19,-98.02 151.5,-94.39 143,-89.5 122.83,-77.9 126.46,-64.25 107,-51.5 98.73,-46.08 88.71,-41.97 79.66,-38.97"/>
<polygon fill="midnightblue" stroke="midnightblue" points="170.27,-104.19 180.82,-103.21 171.96,-97.39 170.27,-104.19"/>
</g>
<!-- Node13 -->
<g id="node13" class="node">
<title>Node13</title>
<g id="a_node13"><a xlink:href="classargo_1_1allocators_1_1generic__allocator_af385cffc52b180a7b61b8459b2c8f869.html#af385cffc52b180a7b61b8459b2c8f869" target="_top" xlink:title=" ">
<polygon fill="white" stroke="black" points="143,-49.5 143,-79.5 306,-79.5 306,-49.5 143,-49.5"/>
<text text-anchor="start" x="151" y="-67.5" font-family="Helvetica,sans-Serif" font-size="10.00">argo::allocators::generic</text>
<text text-anchor="middle" x="224.5" y="-56.5" font-family="Helvetica,sans-Serif" font-size="10.00">_allocator::~generic_allocator</text>
</a>
</g>
</g>
<!-- Node12&#45;&gt;Node13 -->
<g id="edge12" class="edge">
<title>Node12&#45;&gt;Node13</title>
<path fill="none" stroke="midnightblue" d="M331.64,-64.5C323.18,-64.5 314.55,-64.5 306.04,-64.5"/>
<polygon fill="midnightblue" stroke="midnightblue" points="331.86,-68 341.86,-64.5 331.86,-61 331.86,-68"/>
</g>
<!-- Node14 -->
<g id="node14" class="node">
<title>Node14</title>
<g id="a_node14"><a xlink:href="classargo_1_1allocators_1_1dynamic__allocator_a56d95163348064bb5279caae40316934.html#a56d95163348064bb5279caae40316934" target="_top" xlink:title="deallocate memory">
<polygon fill="white" stroke="black" points="154.5,-0.5 154.5,-30.5 294.5,-30.5 294.5,-0.5 154.5,-0.5"/>
<text text-anchor="start" x="162.5" y="-18.5" font-family="Helvetica,sans-Serif" font-size="10.00">argo::allocators::dynamic</text>
<text text-anchor="middle" x="224.5" y="-7.5" font-family="Helvetica,sans-Serif" font-size="10.00">_allocator::deallocate</text>
</a>
</g>
</g>
<!-- Node12&#45;&gt;Node14 -->
<g id="edge13" class="edge">
<title>Node12&#45;&gt;Node14</title>
<path fill="none" stroke="midnightblue" d="M341.9,-46.75C322.12,-41.44 300.63,-35.67 281.56,-30.55"/>
<polygon fill="midnightblue" stroke="midnightblue" points="341.19,-50.19 351.75,-49.4 343,-43.43 341.19,-50.19"/>
</g>
</g>
</svg>
