<?xml version="1.0" encoding="UTF-8" standalone="no"?>
<!DOCTYPE svg PUBLIC "-//W3C//DTD SVG 1.1//EN"
 "http://www.w3.org/Graphics/SVG/1.1/DTD/svg11.dtd">
<!-- Generated by graphviz version 2.43.0 (0)
 -->
<!-- Title: write_buffer::_add_helper Pages: 1 -->
<svg width="1335pt" height="218pt"
 viewBox="0.00 0.00 1335.00 218.00" xmlns="http://www.w3.org/2000/svg" xmlns:xlink="http://www.w3.org/1999/xlink">
<g id="graph0" class="graph" transform="scale(1 1) rotate(0) translate(4 214)">
<title>write_buffer::_add_helper</title>
<polygon fill="white" stroke="transparent" points="-4,4 -4,-214 1331,-214 1331,4 -4,4"/>
<!-- Node1 -->
<g id="node1" class="node">
<title>Node1</title>
<g id="a_node1"><a xlink:title="Helper function to call _add.">
<polygon fill="#bfbfbf" stroke="black" points="0,-90 0,-120 104,-120 104,-90 0,-90"/>
<text text-anchor="start" x="8" y="-108" font-family="Helvetica,sans-Serif" font-size="10.00">write_buffer::_add</text>
<text text-anchor="middle" x="52" y="-97" font-family="Helvetica,sans-Serif" font-size="10.00">_helper</text>
</a>
</g>
</g>
<!-- Node2 -->
<g id="node2" class="node">
<title>Node2</title>
<g id="a_node2"><a xlink:href="classwrite__buffer_a327be1f65770b56442b1e8ee967be23d.html#a327be1f65770b56442b1e8ee967be23d" target="_top" xlink:title="Internal function to add an element to the write buffer.">
<polygon fill="white" stroke="black" points="140,-95.5 140,-114.5 244,-114.5 244,-95.5 140,-95.5"/>
<text text-anchor="middle" x="192" y="-102.5" font-family="Helvetica,sans-Serif" font-size="10.00">write_buffer::_add</text>
</a>
</g>
</g>
<!-- Node1&#45;&gt;Node2 -->
<g id="edge1" class="edge">
<title>Node1&#45;&gt;Node2</title>
<path fill="none" stroke="midnightblue" d="M104.39,-105C112.56,-105 121.08,-105 129.46,-105"/>
<polygon fill="midnightblue" stroke="midnightblue" points="129.57,-108.5 139.57,-105 129.57,-101.5 129.57,-108.5"/>
</g>
<!-- Node3 -->
<g id="node3" class="node">
<title>Node3</title>
<g id="a_node3"><a xlink:href="classwrite__buffer_ae51b3a3d02d35cc4f280690b6860d20f.html#ae51b3a3d02d35cc4f280690b6860d20f" target="_top" xlink:title="Constructs a new element and emplaces it at the back of the buffer.">
<polygon fill="white" stroke="black" points="280,-161.5 280,-180.5 432,-180.5 432,-161.5 280,-161.5"/>
<text text-anchor="middle" x="356" y="-168.5" font-family="Helvetica,sans-Serif" font-size="10.00">write_buffer::emplace_back</text>
</a>
</g>
</g>
<!-- Node2&#45;&gt;Node3 -->
<g id="edge2" class="edge">
<title>Node2&#45;&gt;Node3</title>
<path fill="none" stroke="midnightblue" d="M207.85,-114.5C224.75,-124.96 253.45,-141.65 280,-152 286.31,-154.46 293.04,-156.69 299.78,-158.68"/>
<polygon fill="midnightblue" stroke="midnightblue" points="299.04,-162.1 309.62,-161.42 300.93,-155.36 299.04,-162.1"/>
</g>
<!-- Node4 -->
<g id="node4" class="node">
<title>Node4</title>
<g id="a_node4"><a xlink:href="classwrite__buffer_aa6a1c2c3aa3a7cde744bbca3b14f599a.html#aa6a1c2c3aa3a7cde744bbca3b14f599a" target="_top" xlink:title="Flushes first _write_back_size elements of the ArgoDSM write buffer to memory.">
<polygon fill="white" stroke="black" points="304,-112 304,-142 408,-142 408,-112 304,-112"/>
<text text-anchor="start" x="312" y="-130" font-family="Helvetica,sans-Serif" font-size="10.00">write_buffer::flush</text>
<text text-anchor="middle" x="356" y="-119" font-family="Helvetica,sans-Serif" font-size="10.00">_partial</text>
</a>
</g>
</g>
<!-- Node2&#45;&gt;Node4 -->
<g id="edge3" class="edge">
<title>Node2&#45;&gt;Node4</title>
<path fill="none" stroke="midnightblue" d="M244.26,-111.96C259.99,-114.1 277.47,-116.47 293.8,-118.69"/>
<polygon fill="midnightblue" stroke="midnightblue" points="293.42,-122.17 303.8,-120.05 294.36,-115.23 293.42,-122.17"/>
</g>
<!-- Node18 -->
<g id="node18" class="node">
<title>Node18</title>
<g id="a_node18"><a xlink:href="classwrite__buffer_a6103a2e16740ac4064c5936dbe5ea06d.html#a6103a2e16740ac4064c5936dbe5ea06d" target="_top" xlink:title="Check if val exists in the buffer.">
<polygon fill="white" stroke="black" points="307,-73.5 307,-92.5 405,-92.5 405,-73.5 307,-73.5"/>
<text text-anchor="middle" x="356" y="-80.5" font-family="Helvetica,sans-Serif" font-size="10.00">write_buffer::has</text>
</a>
</g>
</g>
<!-- Node2&#45;&gt;Node18 -->
<g id="edge18" class="edge">
<title>Node2&#45;&gt;Node18</title>
<path fill="none" stroke="midnightblue" d="M244.26,-98.04C261,-95.77 279.7,-93.23 296.9,-90.89"/>
<polygon fill="midnightblue" stroke="midnightblue" points="297.4,-94.36 306.83,-89.54 296.45,-87.42 297.4,-94.36"/>
</g>
<!-- Node19 -->
<g id="node19" class="node">
<title>Node19</title>
<g id="a_node19"><a xlink:href="classwrite__buffer_a6cd208e8e94ef77f0b19e83bf20059c6.html#a6cd208e8e94ef77f0b19e83bf20059c6" target="_top" xlink:title="Get the size of the buffer.">
<polygon fill="white" stroke="black" points="305.5,-35.5 305.5,-54.5 406.5,-54.5 406.5,-35.5 305.5,-35.5"/>
<text text-anchor="middle" x="356" y="-42.5" font-family="Helvetica,sans-Serif" font-size="10.00">write_buffer::size</text>
</a>
</g>
</g>
<!-- Node2&#45;&gt;Node19 -->
<g id="edge19" class="edge">
<title>Node2&#45;&gt;Node19</title>
<path fill="none" stroke="midnightblue" d="M210.57,-95.49C227.85,-86.43 255.17,-72.9 280,-64 286.87,-61.54 294.2,-59.27 301.48,-57.21"/>
<polygon fill="midnightblue" stroke="midnightblue" points="302.6,-60.54 311.34,-54.55 300.78,-53.78 302.6,-60.54"/>
</g>
<!-- Node5 -->
<g id="node5" class="node">
<title>Node5</title>
<g id="a_node5"><a xlink:href="classwrite__buffer_ae065d3ee59035ad508eb8ce6670d2c89.html#ae065d3ee59035ad508eb8ce6670d2c89" target="_top" xlink:title="Removes the front element from the buffer and returns it.">
<polygon fill="white" stroke="black" points="471.5,-139.5 471.5,-158.5 570.5,-158.5 570.5,-139.5 471.5,-139.5"/>
<text text-anchor="middle" x="521" y="-146.5" font-family="Helvetica,sans-Serif" font-size="10.00">write_buffer::pop</text>
</a>
</g>
</g>
<!-- Node4&#45;&gt;Node5 -->
<g id="edge4" class="edge">
<title>Node4&#45;&gt;Node5</title>
<path fill="none" stroke="midnightblue" d="M408.13,-133.9C424.99,-136.18 443.87,-138.72 461.25,-141.07"/>
<polygon fill="midnightblue" stroke="midnightblue" points="460.9,-144.56 471.28,-142.42 461.84,-137.62 460.9,-144.56"/>
</g>
<!-- Node6 -->
<g id="node6" class="node">
<title>Node6</title>
<g id="a_node6"><a xlink:href="classwrite__buffer_a066de0a724f3f13272780ad7ca8e6502.html#a066de0a724f3f13272780ad7ca8e6502" target="_top" xlink:title="Perform writeback of a single cached page.">
<polygon fill="white" stroke="black" points="468,-90 468,-120 574,-120 574,-90 468,-90"/>
<text text-anchor="start" x="476" y="-108" font-family="Helvetica,sans-Serif" font-size="10.00">write_buffer::write</text>
<text text-anchor="middle" x="521" y="-97" font-family="Helvetica,sans-Serif" font-size="10.00">_back_index</text>
</a>
</g>
</g>
<!-- Node4&#45;&gt;Node6 -->
<g id="edge5" class="edge">
<title>Node4&#45;&gt;Node6</title>
<path fill="none" stroke="midnightblue" d="M408.13,-120.1C423.9,-117.97 441.44,-115.6 457.87,-113.39"/>
<polygon fill="midnightblue" stroke="midnightblue" points="458.49,-116.83 467.93,-112.03 457.55,-109.9 458.49,-116.83"/>
</g>
<!-- Node7 -->
<g id="node7" class="node">
<title>Node7</title>
<g id="a_node7"><a xlink:href="swdsm_8cpp_a3b6a6b2b244edb9faa79814ce8e5e9f5.html#a3b6a6b2b244edb9faa79814ce8e5e9f5" target="_top" xlink:title="stores a page remotely &#45; only writing back what has been written locally since last synchronization p...">
<polygon fill="white" stroke="black" points="610,-95.5 610,-114.5 698,-114.5 698,-95.5 610,-95.5"/>
<text text-anchor="middle" x="654" y="-102.5" font-family="Helvetica,sans-Serif" font-size="10.00">storepageDIFF</text>
</a>
</g>
</g>
<!-- Node6&#45;&gt;Node7 -->
<g id="edge6" class="edge">
<title>Node6&#45;&gt;Node7</title>
<path fill="none" stroke="midnightblue" d="M574.15,-105C582.57,-105 591.3,-105 599.75,-105"/>
<polygon fill="midnightblue" stroke="midnightblue" points="599.87,-108.5 609.87,-105 599.87,-101.5 599.87,-108.5"/>
</g>
<!-- Node8 -->
<g id="node8" class="node">
<title>Node8</title>
<g id="a_node8"><a xlink:href="swdsm_8cpp_af5bb31046df1aef1cccf72f19fe63640.html#af5bb31046df1aef1cccf72f19fe63640" target="_top" xlink:title="Gets the data window index based on the offset into the node&#39;s backing store.">
<polygon fill="white" stroke="black" points="734.5,-190.5 734.5,-209.5 848.5,-209.5 848.5,-190.5 734.5,-190.5"/>
<text text-anchor="middle" x="791.5" y="-197.5" font-family="Helvetica,sans-Serif" font-size="10.00">get_data_win_index</text>
</a>
</g>
</g>
<!-- Node7&#45;&gt;Node8 -->
<g id="edge7" class="edge">
<title>Node7&#45;&gt;Node8</title>
<path fill="none" stroke="midnightblue" d="M662.49,-114.56C675.44,-130.5 703.57,-162.54 734,-181 737.39,-183.05 741.02,-184.92 744.76,-186.61"/>
<polygon fill="midnightblue" stroke="midnightblue" points="743.59,-189.91 754.17,-190.43 746.23,-183.42 743.59,-189.91"/>
</g>
<!-- Node9 -->
<g id="node9" class="node">
<title>Node9</title>
<g id="a_node9"><a xlink:href="swdsm_8cpp_a3f19b1fc7fe36a6eabdae48e53fb66fa.html#a3f19b1fc7fe36a6eabdae48e53fb66fa" target="_top" xlink:title="Gets the sharer window offset based on the classification index.">
<polygon fill="white" stroke="black" points="734,-152.5 734,-171.5 849,-171.5 849,-152.5 734,-152.5"/>
<text text-anchor="middle" x="791.5" y="-159.5" font-family="Helvetica,sans-Serif" font-size="10.00">get_data_win_offset</text>
</a>
</g>
</g>
<!-- Node7&#45;&gt;Node9 -->
<g id="edge8" class="edge">
<title>Node7&#45;&gt;Node9</title>
<path fill="none" stroke="midnightblue" d="M673.22,-114.56C689.05,-122.68 712.71,-134.34 734,-143 739.15,-145.1 744.63,-147.15 750.07,-149.09"/>
<polygon fill="midnightblue" stroke="midnightblue" points="749.16,-152.47 759.75,-152.43 751.44,-145.86 749.16,-152.47"/>
</g>
<!-- Node10 -->
<g id="node10" class="node">
<title>Node10</title>
<g id="a_node10"><a xlink:href="swdsm_8cpp_ab2e5fbbe4d1f44d25619f290dc37dd3e.html#ab2e5fbbe4d1f44d25619f290dc37dd3e" target="_top" xlink:title="Gives homenode for a given address.">
<polygon fill="white" stroke="black" points="747,-114.5 747,-133.5 836,-133.5 836,-114.5 747,-114.5"/>
<text text-anchor="middle" x="791.5" y="-121.5" font-family="Helvetica,sans-Serif" font-size="10.00">get_homenode</text>
</a>
</g>
</g>
<!-- Node7&#45;&gt;Node10 -->
<g id="edge9" class="edge">
<title>Node7&#45;&gt;Node10</title>
<path fill="none" stroke="midnightblue" d="M698.25,-111.06C710.47,-112.78 723.92,-114.66 736.68,-116.45"/>
<polygon fill="midnightblue" stroke="midnightblue" points="736.35,-119.94 746.74,-117.86 737.32,-113.01 736.35,-119.94"/>
</g>
<!-- Node14 -->
<g id="node14" class="node">
<title>Node14</title>
<g id="a_node14"><a xlink:href="swdsm_8cpp_a974f1a03f5461bb989248cceb41cd95b.html#a974f1a03f5461bb989248cceb41cd95b" target="_top" xlink:title="Gets the offset of an address on the local nodes part of the global memory.">
<polygon fill="white" stroke="black" points="759,-76.5 759,-95.5 824,-95.5 824,-76.5 759,-76.5"/>
<text text-anchor="middle" x="791.5" y="-83.5" font-family="Helvetica,sans-Serif" font-size="10.00">get_offset</text>
</a>
</g>
</g>
<!-- Node7&#45;&gt;Node14 -->
<g id="edge13" class="edge">
<title>Node7&#45;&gt;Node14</title>
<path fill="none" stroke="midnightblue" d="M698.25,-98.94C714.38,-96.67 732.66,-94.11 748.67,-91.87"/>
<polygon fill="midnightblue" stroke="midnightblue" points="749.4,-95.3 758.82,-90.44 748.43,-88.37 749.4,-95.3"/>
</g>
<!-- Node16 -->
<g id="node16" class="node">
<title>Node16</title>
<g id="a_node16"><a xlink:href="classmpi__lock_a67301b26c3bb28c746e164c9f531d21d.html#a67301b26c3bb28c746e164c9f531d21d" target="_top" xlink:title="acquire mpi_lock">
<polygon fill="white" stroke="black" points="748,-38.5 748,-57.5 835,-57.5 835,-38.5 748,-38.5"/>
<text text-anchor="middle" x="791.5" y="-45.5" font-family="Helvetica,sans-Serif" font-size="10.00">mpi_lock::lock</text>
</a>
</g>
</g>
<!-- Node7&#45;&gt;Node16 -->
<g id="edge16" class="edge">
<title>Node7&#45;&gt;Node16</title>
<path fill="none" stroke="midnightblue" d="M673.22,-95.44C689.05,-87.32 712.71,-75.66 734,-67 739.15,-64.9 744.63,-62.85 750.07,-60.91"/>
<polygon fill="midnightblue" stroke="midnightblue" points="751.44,-64.14 759.75,-57.57 749.16,-57.53 751.44,-64.14"/>
</g>
<!-- Node17 -->
<g id="node17" class="node">
<title>Node17</title>
<g id="a_node17"><a xlink:href="classmpi__lock_a38cb3649cba54a2818810c444a8b475a.html#a38cb3649cba54a2818810c444a8b475a" target="_top" xlink:title="release mpi_lock">
<polygon fill="white" stroke="black" points="742,-0.5 742,-19.5 841,-19.5 841,-0.5 742,-0.5"/>
<text text-anchor="middle" x="791.5" y="-7.5" font-family="Helvetica,sans-Serif" font-size="10.00">mpi_lock::unlock</text>
</a>
</g>
</g>
<!-- Node7&#45;&gt;Node17 -->
<g id="edge17" class="edge">
<title>Node7&#45;&gt;Node17</title>
<path fill="none" stroke="midnightblue" d="M662.49,-95.44C675.44,-79.5 703.57,-47.46 734,-29 737.39,-26.95 741.02,-25.08 744.76,-23.39"/>
<polygon fill="midnightblue" stroke="midnightblue" points="746.23,-26.58 754.17,-19.57 743.59,-20.09 746.23,-26.58"/>
</g>
<!-- Node11 -->
<g id="node11" class="node">
<title>Node11</title>
<g id="a_node11"><a xlink:href="classargo_1_1data__distribution_1_1global__ptr_ac7d651586337d08cda18ef26ffcd34a0.html#ac7d651586337d08cda18ef26ffcd34a0" target="_top" xlink:title="return the home node of the value pointed to">
<polygon fill="white" stroke="black" points="885,-114 885,-144 1012,-144 1012,-114 885,-114"/>
<text text-anchor="start" x="893" y="-132" font-family="Helvetica,sans-Serif" font-size="10.00">argo::data_distribution</text>
<text text-anchor="middle" x="948.5" y="-121" font-family="Helvetica,sans-Serif" font-size="10.00">::global_ptr::node</text>
</a>
</g>
</g>
<!-- Node10&#45;&gt;Node11 -->
<g id="edge10" class="edge">
<title>Node10&#45;&gt;Node11</title>
<path fill="none" stroke="midnightblue" d="M836.09,-125.41C848.15,-125.8 861.57,-126.23 874.81,-126.66"/>
<polygon fill="midnightblue" stroke="midnightblue" points="874.76,-130.16 884.86,-126.98 874.98,-123.16 874.76,-130.16"/>
</g>
<!-- Node12 -->
<g id="node12" class="node">
<title>Node12</title>
<g id="a_node12"><a xlink:href="classargo_1_1data__distribution_1_1global__ptr_ae4353680349f6abbd2cf262dace8e2f2.html#ae4353680349f6abbd2cf262dace8e2f2" target="_top" xlink:title="return a pointer to the selected allocation policy">
<polygon fill="white" stroke="black" points="1048,-89 1048,-119 1175,-119 1175,-89 1048,-89"/>
<text text-anchor="start" x="1056" y="-107" font-family="Helvetica,sans-Serif" font-size="10.00">argo::data_distribution</text>
<text text-anchor="middle" x="1111.5" y="-96" font-family="Helvetica,sans-Serif" font-size="10.00">::global_ptr::policy</text>
</a>
</g>
</g>
<!-- Node11&#45;&gt;Node12 -->
<g id="edge11" class="edge">
<title>Node11&#45;&gt;Node12</title>
<path fill="none" stroke="midnightblue" d="M1012.21,-119.26C1020.65,-117.95 1029.36,-116.6 1037.96,-115.26"/>
<polygon fill="midnightblue" stroke="midnightblue" points="1038.62,-118.7 1047.96,-113.71 1037.54,-111.79 1038.62,-118.7"/>
</g>
<!-- Node13 -->
<g id="node13" class="node">
<title>Node13</title>
<g id="a_node13"><a xlink:href="namespaceargo_1_1env_a25a08cb2d0d11432d640ec7173063339.html#a25a08cb2d0d11432d640ec7173063339" target="_top" xlink:title="get the allocation policy requested by environment variable">
<polygon fill="white" stroke="black" points="1211,-89 1211,-119 1327,-119 1327,-89 1211,-89"/>
<text text-anchor="start" x="1219" y="-107" font-family="Helvetica,sans-Serif" font-size="10.00">argo::env::allocation</text>
<text text-anchor="middle" x="1269" y="-96" font-family="Helvetica,sans-Serif" font-size="10.00">_policy</text>
</a>
</g>
</g>
<!-- Node12&#45;&gt;Node13 -->
<g id="edge12" class="edge">
<title>Node12&#45;&gt;Node13</title>
<path fill="none" stroke="midnightblue" d="M1175.3,-104C1183.69,-104 1192.32,-104 1200.78,-104"/>
<polygon fill="midnightblue" stroke="midnightblue" points="1200.99,-107.5 1210.99,-104 1200.99,-100.5 1200.99,-107.5"/>
</g>
<!-- Node15 -->
<g id="node15" class="node">
<title>Node15</title>
<g id="a_node15"><a xlink:href="classargo_1_1data__distribution_1_1global__ptr_ad8c21c408fa2b926cfd9acfd87e8e4e6.html#ad8c21c408fa2b926cfd9acfd87e8e4e6" target="_top" xlink:title="return the offset on the home node&#39;s local memory share">
<polygon fill="white" stroke="black" points="885,-65 885,-95 1012,-95 1012,-65 885,-65"/>
<text text-anchor="start" x="893" y="-83" font-family="Helvetica,sans-Serif" font-size="10.00">argo::data_distribution</text>
<text text-anchor="middle" x="948.5" y="-72" font-family="Helvetica,sans-Serif" font-size="10.00">::global_ptr::offset</text>
</a>
</g>
</g>
<!-- Node14&#45;&gt;Node15 -->
<g id="edge14" class="edge">
<title>Node14&#45;&gt;Node15</title>
<path fill="none" stroke="midnightblue" d="M824.24,-84.77C838.83,-84.21 856.78,-83.51 874.43,-82.83"/>
<polygon fill="midnightblue" stroke="midnightblue" points="874.9,-86.31 884.75,-82.43 874.63,-79.32 874.9,-86.31"/>
</g>
<!-- Node15&#45;&gt;Node12 -->
<g id="edge15" class="edge">
<title>Node15&#45;&gt;Node12</title>
<path fill="none" stroke="midnightblue" d="M1012.21,-89.35C1020.65,-90.61 1029.36,-91.91 1037.96,-93.19"/>
<polygon fill="midnightblue" stroke="midnightblue" points="1037.56,-96.67 1047.96,-94.68 1038.59,-89.74 1037.56,-96.67"/>
</g>
</g>
</svg>
