<?xml version="1.0" encoding="UTF-8" standalone="no"?>
<!DOCTYPE svg PUBLIC "-//W3C//DTD SVG 1.1//EN"
 "http://www.w3.org/Graphics/SVG/1.1/DTD/svg11.dtd">
<!-- Generated by graphviz version 2.43.0 (0)
 -->
<!-- Title: mpi_lock::unlock Pages: 1 -->
<svg width="1069pt" height="823pt"
 viewBox="0.00 0.00 1069.00 823.00" xmlns="http://www.w3.org/2000/svg" xmlns:xlink="http://www.w3.org/1999/xlink">
<g id="graph0" class="graph" transform="scale(1 1) rotate(0) translate(4 819)">
<title>mpi_lock::unlock</title>
<polygon fill="white" stroke="transparent" points="-4,4 -4,-819 1065,-819 1065,4 -4,4"/>
<!-- Node1 -->
<g id="node1" class="node">
<title>Node1</title>
<g id="a_node1"><a xlink:title="release mpi_lock">
<polygon fill="#bfbfbf" stroke="black" points="962,-385 962,-404 1061,-404 1061,-385 962,-385"/>
<text text-anchor="middle" x="1011.5" y="-392" font-family="Helvetica,sans-Serif" font-size="10.00">mpi_lock::unlock</text>
</a>
</g>
</g>
<!-- Node2 -->
<g id="node2" class="node">
<title>Node2</title>
<g id="a_node2"><a xlink:href="backend_8hpp_ab1a7511272b2801f891b966a67b2a4dc.html#ab1a7511272b2801f891b966a67b2a4dc" target="_top" xlink:title="Backend internal type erased atomic CAS function.">
<polygon fill="white" stroke="black" points="793.5,-588.5 793.5,-618.5 918.5,-618.5 918.5,-588.5 793.5,-588.5"/>
<text text-anchor="start" x="801.5" y="-606.5" font-family="Helvetica,sans-Serif" font-size="10.00">argo::backend::atomic</text>
<text text-anchor="middle" x="856" y="-595.5" font-family="Helvetica,sans-Serif" font-size="10.00">::_compare_exchange</text>
</a>
</g>
</g>
<!-- Node1&#45;&gt;Node2 -->
<g id="edge1" class="edge">
<title>Node1&#45;&gt;Node2</title>
<path fill="none" stroke="midnightblue" d="M1006.83,-414.24C998.84,-451.74 976.4,-533.61 926,-579.5 922.25,-582.92 917.98,-585.85 913.46,-588.37"/>
<polygon fill="midnightblue" stroke="midnightblue" points="1010.32,-414.61 1008.86,-404.12 1003.46,-413.24 1010.32,-414.61"/>
</g>
<!-- Node4 -->
<g id="node4" class="node">
<title>Node4</title>
<g id="a_node4"><a xlink:href="backend_8hpp_a59102c6814043d49f3b2623f367f6ba2.html#a59102c6814043d49f3b2623f367f6ba2" target="_top" xlink:title="Backend internal type erased atomic exchange function.">
<polygon fill="white" stroke="black" points="793.5,-521.5 793.5,-551.5 918.5,-551.5 918.5,-521.5 793.5,-521.5"/>
<text text-anchor="start" x="801.5" y="-539.5" font-family="Helvetica,sans-Serif" font-size="10.00">argo::backend::atomic</text>
<text text-anchor="middle" x="856" y="-528.5" font-family="Helvetica,sans-Serif" font-size="10.00">::_exchange</text>
</a>
</g>
</g>
<!-- Node1&#45;&gt;Node4 -->
<g id="edge5" class="edge">
<title>Node1&#45;&gt;Node4</title>
<path fill="none" stroke="midnightblue" d="M1001.63,-413.45C988.57,-439.38 961.81,-485.73 926,-512.5 921.43,-515.92 916.33,-518.88 911.04,-521.43"/>
<polygon fill="midnightblue" stroke="midnightblue" points="1004.85,-414.82 1006.09,-404.3 998.56,-411.75 1004.85,-414.82"/>
</g>
<!-- Node6 -->
<g id="node6" class="node">
<title>Node6</title>
<g id="a_node6"><a xlink:href="mpi_8cpp_a9b1ef8bbaaf93b03603c2ab0ff3b6133.html#a9b1ef8bbaaf93b03603c2ab0ff3b6133" target="_top" xlink:title="Atomic fetch&amp;add for the MPI backend (for internal usage)">
<polygon fill="white" stroke="black" points="617.5,-686.5 617.5,-716.5 742.5,-716.5 742.5,-686.5 617.5,-686.5"/>
<text text-anchor="start" x="625.5" y="-704.5" font-family="Helvetica,sans-Serif" font-size="10.00">argo::backend::atomic</text>
<text text-anchor="middle" x="680" y="-693.5" font-family="Helvetica,sans-Serif" font-size="10.00">::_fetch_add</text>
</a>
</g>
</g>
<!-- Node1&#45;&gt;Node6 -->
<g id="edge9" class="edge">
<title>Node1&#45;&gt;Node6</title>
<path fill="none" stroke="midnightblue" d="M1010.08,-414.19C1007.96,-461.77 995.63,-583.68 926,-646.5 876.07,-691.54 797.36,-702.27 742.68,-703.69"/>
<polygon fill="midnightblue" stroke="midnightblue" points="1013.59,-414.13 1010.43,-404.01 1006.59,-413.89 1013.59,-414.13"/>
</g>
<!-- Node11 -->
<g id="node11" class="node">
<title>Node11</title>
<g id="a_node11"><a xlink:href="backend_8hpp_ad05287a5a2d303811b5c9e7a488bda59.html#ad05287a5a2d303811b5c9e7a488bda59" target="_top" xlink:title="Backend internal type erased atomic store function.">
<polygon fill="white" stroke="black" points="793.5,-348.5 793.5,-378.5 918.5,-378.5 918.5,-348.5 793.5,-348.5"/>
<text text-anchor="start" x="801.5" y="-366.5" font-family="Helvetica,sans-Serif" font-size="10.00">argo::backend::atomic</text>
<text text-anchor="middle" x="856" y="-355.5" font-family="Helvetica,sans-Serif" font-size="10.00">::_load</text>
</a>
</g>
</g>
<!-- Node1&#45;&gt;Node11 -->
<g id="edge21" class="edge">
<title>Node1&#45;&gt;Node11</title>
<path fill="none" stroke="midnightblue" d="M953.06,-382.9C941.8,-380.63 929.96,-378.23 918.58,-375.94"/>
<polygon fill="midnightblue" stroke="midnightblue" points="952.7,-386.4 963.19,-384.95 954.08,-379.54 952.7,-386.4"/>
</g>
<!-- Node13 -->
<g id="node13" class="node">
<title>Node13</title>
<g id="a_node13"><a xlink:href="backend_8hpp_a0fb29a8253f0d9aefc999d93414b1758.html#a0fb29a8253f0d9aefc999d93414b1758" target="_top" xlink:title="backend internal type erased function for selective acquire">
<polygon fill="white" stroke="black" points="786,-454.5 786,-484.5 926,-484.5 926,-454.5 786,-454.5"/>
<text text-anchor="start" x="794" y="-472.5" font-family="Helvetica,sans-Serif" font-size="10.00">argo::backend::_selective</text>
<text text-anchor="middle" x="856" y="-461.5" font-family="Helvetica,sans-Serif" font-size="10.00">_acquire</text>
</a>
</g>
</g>
<!-- Node1&#45;&gt;Node13 -->
<g id="edge25" class="edge">
<title>Node1&#45;&gt;Node13</title>
<path fill="none" stroke="midnightblue" d="M987.79,-409.52C971.13,-420.13 947.72,-434.25 926,-444.5 918.51,-448.03 910.38,-451.39 902.41,-454.42"/>
<polygon fill="midnightblue" stroke="midnightblue" points="989.79,-412.39 996.3,-404.02 986,-406.51 989.79,-412.39"/>
</g>
<!-- Node15 -->
<g id="node15" class="node">
<title>Node15</title>
<g id="a_node15"><a xlink:href="backend_8hpp_ae76ec4647c992bfecf6309787f3dec4a.html#ae76ec4647c992bfecf6309787f3dec4a" target="_top" xlink:title="Backend internal type erased atomic store function.">
<polygon fill="white" stroke="black" points="793.5,-281.5 793.5,-311.5 918.5,-311.5 918.5,-281.5 793.5,-281.5"/>
<text text-anchor="start" x="801.5" y="-299.5" font-family="Helvetica,sans-Serif" font-size="10.00">argo::backend::atomic</text>
<text text-anchor="middle" x="856" y="-288.5" font-family="Helvetica,sans-Serif" font-size="10.00">::_store</text>
</a>
</g>
</g>
<!-- Node1&#45;&gt;Node15 -->
<g id="edge29" class="edge">
<title>Node1&#45;&gt;Node15</title>
<path fill="none" stroke="midnightblue" d="M987.23,-379.18C970.3,-368.08 946.8,-352.75 926,-339.5 911.24,-330.1 894.59,-319.71 881.34,-311.51"/>
<polygon fill="midnightblue" stroke="midnightblue" points="985.62,-382.31 995.9,-384.87 989.46,-376.46 985.62,-382.31"/>
</g>
<!-- Node17 -->
<g id="node17" class="node">
<title>Node17</title>
<g id="a_node17"><a xlink:href="swdsm_8cpp_a92a73a9ea2009afcbef38b3e88b9ac0f.html#a92a73a9ea2009afcbef38b3e88b9ac0f" target="_top" xlink:title="load into cache helper function">
<polygon fill="white" stroke="black" points="629,-158 629,-177 731,-177 731,-158 629,-158"/>
<text text-anchor="middle" x="680" y="-165" font-family="Helvetica,sans-Serif" font-size="10.00">load_cache_entry</text>
</a>
</g>
</g>
<!-- Node1&#45;&gt;Node17 -->
<g id="edge33" class="edge">
<title>Node1&#45;&gt;Node17</title>
<path fill="none" stroke="midnightblue" d="M1006.39,-374.4C997.97,-338.48 975.22,-263.42 926,-224.5 869.82,-180.08 785.07,-169.18 731.42,-167.08"/>
<polygon fill="midnightblue" stroke="midnightblue" points="1003.07,-375.58 1008.64,-384.59 1009.91,-374.07 1003.07,-375.58"/>
</g>
<!-- Node21 -->
<g id="node21" class="node">
<title>Node21</title>
<g id="a_node21"><a xlink:href="swdsm_8cpp_aa7c3a2de6bbafdaf68fe6ceb6110ab97.html#aa7c3a2de6bbafdaf68fe6ceb6110ab97" target="_top" xlink:title="Self&#45;Invalidates all memory that has potential writers.">
<polygon fill="white" stroke="black" points="807,-416 807,-435 905,-435 905,-416 807,-416"/>
<text text-anchor="middle" x="856" y="-423" font-family="Helvetica,sans-Serif" font-size="10.00">self_invalidation</text>
</a>
</g>
</g>
<!-- Node1&#45;&gt;Node21 -->
<g id="edge37" class="edge">
<title>Node1&#45;&gt;Node21</title>
<path fill="none" stroke="midnightblue" d="M953.3,-406.05C937.11,-409.32 919.68,-412.84 904.15,-415.98"/>
<polygon fill="midnightblue" stroke="midnightblue" points="954.08,-409.46 963.19,-404.05 952.7,-402.6 954.08,-409.46"/>
</g>
<!-- Node30 -->
<g id="node30" class="node">
<title>Node30</title>
<g id="a_node30"><a xlink:href="swdsm_8cpp_a2a2d9247bd62413b221876836b39dafb.html#a2a2d9247bd62413b221876836b39dafb" target="_top" xlink:title="Locks the correct mpi_lock_sharer, performs operation op and then unlocks the locked mpi_lock_sharer.">
<polygon fill="white" stroke="black" points="823.5,-234 823.5,-253 888.5,-253 888.5,-234 823.5,-234"/>
<text text-anchor="middle" x="856" y="-241" font-family="Helvetica,sans-Serif" font-size="10.00">sharer_op</text>
</a>
</g>
</g>
<!-- Node1&#45;&gt;Node30 -->
<g id="edge54" class="edge">
<title>Node1&#45;&gt;Node30</title>
<path fill="none" stroke="midnightblue" d="M1001.74,-375.62C988.66,-349.26 961.68,-301.44 926,-272.5 915.1,-263.66 901.12,-257.12 888.59,-252.51"/>
<polygon fill="midnightblue" stroke="midnightblue" points="998.71,-377.39 1006.2,-384.88 1005.02,-374.35 998.71,-377.39"/>
</g>
<!-- Node32 -->
<g id="node32" class="node">
<title>Node32</title>
<g id="a_node32"><a xlink:href="swdsm_8cpp_a3b6a6b2b244edb9faa79814ce8e5e9f5.html#a3b6a6b2b244edb9faa79814ce8e5e9f5" target="_top" xlink:title="stores a page remotely &#45; only writing back what has been written locally since last synchronization p...">
<polygon fill="white" stroke="black" points="812,-127 812,-146 900,-146 900,-127 812,-127"/>
<text text-anchor="middle" x="856" y="-134" font-family="Helvetica,sans-Serif" font-size="10.00">storepageDIFF</text>
</a>
</g>
</g>
<!-- Node1&#45;&gt;Node32 -->
<g id="edge59" class="edge">
<title>Node1&#45;&gt;Node32</title>
<path fill="none" stroke="midnightblue" d="M1005.86,-374.87C996.09,-336.6 970.56,-250.59 926,-191.5 911.43,-172.17 888.56,-155.75 873.19,-146.01"/>
<polygon fill="midnightblue" stroke="midnightblue" points="1002.5,-375.87 1008.29,-384.74 1009.29,-374.19 1002.5,-375.87"/>
</g>
<!-- Node2&#45;&gt;Node2 -->
<g id="edge2" class="edge">
<title>Node2&#45;&gt;Node2</title>
<path fill="none" stroke="midnightblue" d="M883.36,-628.96C879.97,-633.68 870.85,-637 856,-637 831.64,-637 822.69,-628.06 829.16,-618.66"/>
<polygon fill="midnightblue" stroke="midnightblue" points="886.84,-628.47 882.84,-618.66 879.85,-628.82 886.84,-628.47"/>
</g>
<!-- Node3 -->
<g id="node3" class="node">
<title>Node3</title>
<g id="a_node3"><a xlink:href="backend_8hpp_a8e7144eaa88e3a94eb4e5fb8efb423a4.html#a8e7144eaa88e3a94eb4e5fb8efb423a4" target="_top" xlink:title="Atomic CAS operation on a global address.">
<polygon fill="white" stroke="black" points="278,-575.5 278,-605.5 403,-605.5 403,-575.5 278,-575.5"/>
<text text-anchor="start" x="286" y="-593.5" font-family="Helvetica,sans-Serif" font-size="10.00">argo::backend::atomic</text>
<text text-anchor="middle" x="340.5" y="-582.5" font-family="Helvetica,sans-Serif" font-size="10.00">::compare_exchange</text>
</a>
</g>
</g>
<!-- Node2&#45;&gt;Node3 -->
<g id="edge3" class="edge">
<title>Node2&#45;&gt;Node3</title>
<path fill="none" stroke="midnightblue" d="M783.18,-601.68C681.91,-599.12 498.87,-594.48 403.33,-592.07"/>
<polygon fill="midnightblue" stroke="midnightblue" points="783.23,-605.18 793.32,-601.94 783.41,-598.19 783.23,-605.18"/>
</g>
<!-- Node3&#45;&gt;Node3 -->
<g id="edge4" class="edge">
<title>Node3&#45;&gt;Node3</title>
<path fill="none" stroke="midnightblue" d="M367.51,-615.96C364.16,-620.68 355.15,-624 340.5,-624 316.45,-624 307.62,-615.06 314.01,-605.66"/>
<polygon fill="midnightblue" stroke="midnightblue" points="370.99,-615.47 366.99,-605.66 364,-615.82 370.99,-615.47"/>
</g>
<!-- Node4&#45;&gt;Node4 -->
<g id="edge6" class="edge">
<title>Node4&#45;&gt;Node4</title>
<path fill="none" stroke="midnightblue" d="M883.36,-561.96C879.97,-566.68 870.85,-570 856,-570 831.64,-570 822.69,-561.06 829.16,-551.66"/>
<polygon fill="midnightblue" stroke="midnightblue" points="886.84,-561.47 882.84,-551.66 879.85,-561.82 886.84,-561.47"/>
</g>
<!-- Node5 -->
<g id="node5" class="node">
<title>Node5</title>
<g id="a_node5"><a xlink:href="backend_8hpp_abe831501c00abf39b0519eef6789933f.html#abe831501c00abf39b0519eef6789933f" target="_top" xlink:title="atomic swap operation on a global address">
<polygon fill="white" stroke="black" points="278,-495.5 278,-525.5 403,-525.5 403,-495.5 278,-495.5"/>
<text text-anchor="start" x="286" y="-513.5" font-family="Helvetica,sans-Serif" font-size="10.00">argo::backend::atomic</text>
<text text-anchor="middle" x="340.5" y="-502.5" font-family="Helvetica,sans-Serif" font-size="10.00">::exchange</text>
</a>
</g>
</g>
<!-- Node4&#45;&gt;Node5 -->
<g id="edge7" class="edge">
<title>Node4&#45;&gt;Node5</title>
<path fill="none" stroke="midnightblue" d="M783.31,-546.85C699.88,-556.91 558.3,-567.82 439,-546.5 416.44,-542.47 392.27,-533.58 373.64,-525.64"/>
<polygon fill="midnightblue" stroke="midnightblue" points="783.95,-550.29 793.44,-545.59 783.09,-543.35 783.95,-550.29"/>
</g>
<!-- Node5&#45;&gt;Node5 -->
<g id="edge8" class="edge">
<title>Node5&#45;&gt;Node5</title>
<path fill="none" stroke="midnightblue" d="M367.51,-535.96C364.16,-540.68 355.15,-544 340.5,-544 316.45,-544 307.62,-535.06 314.01,-525.66"/>
<polygon fill="midnightblue" stroke="midnightblue" points="370.99,-535.47 366.99,-525.66 364,-535.82 370.99,-535.47"/>
</g>
<!-- Node6&#45;&gt;Node6 -->
<g id="edge10" class="edge">
<title>Node6&#45;&gt;Node6</title>
<path fill="none" stroke="midnightblue" d="M710.56,-726.96C706.77,-731.68 696.58,-735 680,-735 652.79,-735 642.8,-726.06 650.03,-716.66"/>
<polygon fill="midnightblue" stroke="midnightblue" points="714.04,-726.44 709.97,-716.66 707.05,-726.84 714.04,-726.44"/>
</g>
<!-- Node7 -->
<g id="node7" class="node">
<title>Node7</title>
<g id="a_node7"><a xlink:href="backend_8hpp_a62d5f2da9f560d2d8a956be88861af7b.html#a62d5f2da9f560d2d8a956be88861af7b" target="_top" xlink:title="Backend internal type erased atomic (post)increment function for floating point numbers.">
<polygon fill="white" stroke="black" points="444,-632.5 444,-662.5 569,-662.5 569,-632.5 444,-632.5"/>
<text text-anchor="start" x="452" y="-650.5" font-family="Helvetica,sans-Serif" font-size="10.00">argo::backend::atomic</text>
<text text-anchor="middle" x="506.5" y="-639.5" font-family="Helvetica,sans-Serif" font-size="10.00">::_fetch_add_float</text>
</a>
</g>
</g>
<!-- Node6&#45;&gt;Node7 -->
<g id="edge11" class="edge">
<title>Node6&#45;&gt;Node7</title>
<path fill="none" stroke="midnightblue" d="M621.56,-683.41C600.05,-676.64 575.86,-669.02 555.31,-662.55"/>
<polygon fill="midnightblue" stroke="midnightblue" points="620.64,-686.79 631.23,-686.46 622.74,-680.12 620.64,-686.79"/>
</g>
<!-- Node9 -->
<g id="node9" class="node">
<title>Node9</title>
<g id="a_node9"><a xlink:href="backend_8hpp_a42d4f07adf3b439564928f89022b74b5.html#a42d4f07adf3b439564928f89022b74b5" target="_top" xlink:title="Backend internal type erased atomic (post)increment function for signed integers.">
<polygon fill="white" stroke="black" points="444,-766.5 444,-796.5 569,-796.5 569,-766.5 444,-766.5"/>
<text text-anchor="start" x="452" y="-784.5" font-family="Helvetica,sans-Serif" font-size="10.00">argo::backend::atomic</text>
<text text-anchor="middle" x="506.5" y="-773.5" font-family="Helvetica,sans-Serif" font-size="10.00">::_fetch_add_int</text>
</a>
</g>
</g>
<!-- Node6&#45;&gt;Node9 -->
<g id="edge15" class="edge">
<title>Node6&#45;&gt;Node9</title>
<path fill="none" stroke="midnightblue" d="M644.38,-721.59C624.2,-732.88 598.07,-746.81 574,-757.5 566.93,-760.64 559.32,-763.69 551.85,-766.5"/>
<polygon fill="midnightblue" stroke="midnightblue" points="646.21,-724.57 653.2,-716.6 642.77,-718.47 646.21,-724.57"/>
</g>
<!-- Node10 -->
<g id="node10" class="node">
<title>Node10</title>
<g id="a_node10"><a xlink:href="backend_8hpp_ab1a86cdd5235a54afdf0ac3d9f9f6f9c.html#ab1a86cdd5235a54afdf0ac3d9f9f6f9c" target="_top" xlink:title="Backend internal type erased atomic (post)increment function for unsigned integers.">
<polygon fill="white" stroke="black" points="444,-699.5 444,-729.5 569,-729.5 569,-699.5 444,-699.5"/>
<text text-anchor="start" x="452" y="-717.5" font-family="Helvetica,sans-Serif" font-size="10.00">argo::backend::atomic</text>
<text text-anchor="middle" x="506.5" y="-706.5" font-family="Helvetica,sans-Serif" font-size="10.00">::_fetch_add_uint</text>
</a>
</g>
</g>
<!-- Node6&#45;&gt;Node10 -->
<g id="edge18" class="edge">
<title>Node6&#45;&gt;Node10</title>
<path fill="none" stroke="midnightblue" d="M607.06,-706.95C594.41,-707.91 581.36,-708.9 569.04,-709.84"/>
<polygon fill="midnightblue" stroke="midnightblue" points="607.38,-710.44 617.08,-706.19 606.85,-703.46 607.38,-710.44"/>
</g>
<!-- Node7&#45;&gt;Node7 -->
<g id="edge12" class="edge">
<title>Node7&#45;&gt;Node7</title>
<path fill="none" stroke="midnightblue" d="M536,-672.96C532.34,-677.68 522.5,-681 506.5,-681 480.24,-681 470.6,-672.06 477.57,-662.66"/>
<polygon fill="midnightblue" stroke="midnightblue" points="539.47,-672.45 535.43,-662.66 532.48,-672.84 539.47,-672.45"/>
</g>
<!-- Node8 -->
<g id="node8" class="node">
<title>Node8</title>
<g id="a_node8"><a xlink:href="backend_8hpp_afd1987dffd4e9100c88c457234f64a52.html#afd1987dffd4e9100c88c457234f64a52" target="_top" xlink:title="Atomic fetch and add operation on a global address.">
<polygon fill="white" stroke="black" points="278,-644.5 278,-674.5 403,-674.5 403,-644.5 278,-644.5"/>
<text text-anchor="start" x="286" y="-662.5" font-family="Helvetica,sans-Serif" font-size="10.00">argo::backend::atomic</text>
<text text-anchor="middle" x="340.5" y="-651.5" font-family="Helvetica,sans-Serif" font-size="10.00">::fetch_add</text>
</a>
</g>
</g>
<!-- Node7&#45;&gt;Node8 -->
<g id="edge13" class="edge">
<title>Node7&#45;&gt;Node8</title>
<path fill="none" stroke="midnightblue" d="M433.82,-652.74C423.59,-653.49 413.13,-654.26 403.11,-654.99"/>
<polygon fill="midnightblue" stroke="midnightblue" points="434.25,-656.22 443.97,-652 433.74,-649.24 434.25,-656.22"/>
</g>
<!-- Node8&#45;&gt;Node8 -->
<g id="edge14" class="edge">
<title>Node8&#45;&gt;Node8</title>
<path fill="none" stroke="midnightblue" d="M367.51,-684.96C364.16,-689.68 355.15,-693 340.5,-693 316.45,-693 307.62,-684.06 314.01,-674.66"/>
<polygon fill="midnightblue" stroke="midnightblue" points="370.99,-684.47 366.99,-674.66 364,-684.82 370.99,-684.47"/>
</g>
<!-- Node9&#45;&gt;Node8 -->
<g id="edge17" class="edge">
<title>Node9&#45;&gt;Node8</title>
<path fill="none" stroke="midnightblue" d="M447,-762.12C444.24,-760.67 441.56,-759.13 439,-757.5 402.77,-734.42 369.53,-695.7 352.82,-674.5"/>
<polygon fill="midnightblue" stroke="midnightblue" points="445.49,-765.28 456.02,-766.45 448.52,-758.96 445.49,-765.28"/>
</g>
<!-- Node9&#45;&gt;Node9 -->
<g id="edge16" class="edge">
<title>Node9&#45;&gt;Node9</title>
<path fill="none" stroke="midnightblue" d="M536,-806.96C532.34,-811.68 522.5,-815 506.5,-815 480.24,-815 470.6,-806.06 477.57,-796.66"/>
<polygon fill="midnightblue" stroke="midnightblue" points="539.47,-806.45 535.43,-796.66 532.48,-806.84 539.47,-806.45"/>
</g>
<!-- Node10&#45;&gt;Node8 -->
<g id="edge20" class="edge">
<title>Node10&#45;&gt;Node8</title>
<path fill="none" stroke="midnightblue" d="M450.94,-696.2C429.94,-689.16 406.23,-681.21 386.26,-674.51"/>
<polygon fill="midnightblue" stroke="midnightblue" points="450.09,-699.61 460.69,-699.47 452.32,-692.97 450.09,-699.61"/>
</g>
<!-- Node10&#45;&gt;Node10 -->
<g id="edge19" class="edge">
<title>Node10&#45;&gt;Node10</title>
<path fill="none" stroke="midnightblue" d="M536,-739.96C532.34,-744.68 522.5,-748 506.5,-748 480.24,-748 470.6,-739.06 477.57,-729.66"/>
<polygon fill="midnightblue" stroke="midnightblue" points="539.47,-739.45 535.43,-729.66 532.48,-739.84 539.47,-739.45"/>
</g>
<!-- Node11&#45;&gt;Node11 -->
<g id="edge22" class="edge">
<title>Node11&#45;&gt;Node11</title>
<path fill="none" stroke="midnightblue" d="M883.36,-388.96C879.97,-393.68 870.85,-397 856,-397 831.64,-397 822.69,-388.06 829.16,-378.66"/>
<polygon fill="midnightblue" stroke="midnightblue" points="886.84,-388.47 882.84,-378.66 879.85,-388.82 886.84,-388.47"/>
</g>
<!-- Node12 -->
<g id="node12" class="node">
<title>Node12</title>
<g id="a_node12"><a xlink:href="backend_8hpp_abcb3b11cf70d5b8009edfabaa08def9d.html#abcb3b11cf70d5b8009edfabaa08def9d" target="_top" xlink:title="Atomic load operation on a global address.">
<polygon fill="white" stroke="black" points="278,-414.5 278,-444.5 403,-444.5 403,-414.5 278,-414.5"/>
<text text-anchor="start" x="286" y="-432.5" font-family="Helvetica,sans-Serif" font-size="10.00">argo::backend::atomic</text>
<text text-anchor="middle" x="340.5" y="-421.5" font-family="Helvetica,sans-Serif" font-size="10.00">::load</text>
</a>
</g>
</g>
<!-- Node11&#45;&gt;Node12 -->
<g id="edge23" class="edge">
<title>Node11&#45;&gt;Node12</title>
<path fill="none" stroke="midnightblue" d="M783.21,-355.83C699.11,-349.09 556.33,-344.71 439,-376.5 410.55,-384.21 381.28,-401.63 362.33,-414.41"/>
<polygon fill="midnightblue" stroke="midnightblue" points="783.17,-359.34 793.42,-356.68 783.75,-352.36 783.17,-359.34"/>
</g>
<!-- Node12&#45;&gt;Node12 -->
<g id="edge24" class="edge">
<title>Node12&#45;&gt;Node12</title>
<path fill="none" stroke="midnightblue" d="M367.51,-454.96C364.16,-459.68 355.15,-463 340.5,-463 316.45,-463 307.62,-454.06 314.01,-444.66"/>
<polygon fill="midnightblue" stroke="midnightblue" points="370.99,-454.47 366.99,-444.66 364,-454.82 370.99,-454.47"/>
</g>
<!-- Node13&#45;&gt;Node13 -->
<g id="edge26" class="edge">
<title>Node13&#45;&gt;Node13</title>
<path fill="none" stroke="midnightblue" d="M883.36,-494.96C879.97,-499.68 870.85,-503 856,-503 831.64,-503 822.69,-494.06 829.16,-484.66"/>
<polygon fill="midnightblue" stroke="midnightblue" points="886.84,-494.47 882.84,-484.66 879.85,-494.82 886.84,-494.47"/>
</g>
<!-- Node14 -->
<g id="node14" class="node">
<title>Node14</title>
<g id="a_node14"><a xlink:href="backend_8hpp_aad1b8c62447de8cc06b7b4f031b77b01.html#aad1b8c62447de8cc06b7b4f031b77b01" target="_top" xlink:title="causes a node to self&#45;invalidate the specified pages from its cache, and thus getting any updated val...">
<polygon fill="white" stroke="black" points="612.5,-482.5 612.5,-512.5 747.5,-512.5 747.5,-482.5 612.5,-482.5"/>
<text text-anchor="start" x="620.5" y="-500.5" font-family="Helvetica,sans-Serif" font-size="10.00">argo::backend::selective</text>
<text text-anchor="middle" x="680" y="-489.5" font-family="Helvetica,sans-Serif" font-size="10.00">_acquire</text>
</a>
</g>
</g>
<!-- Node13&#45;&gt;Node14 -->
<g id="edge27" class="edge">
<title>Node13&#45;&gt;Node14</title>
<path fill="none" stroke="midnightblue" d="M775.83,-482.24C766.42,-483.75 756.88,-485.29 747.67,-486.77"/>
<polygon fill="midnightblue" stroke="midnightblue" points="776.66,-485.65 785.98,-480.61 775.55,-478.74 776.66,-485.65"/>
</g>
<!-- Node14&#45;&gt;Node14 -->
<g id="edge28" class="edge">
<title>Node14&#45;&gt;Node14</title>
<path fill="none" stroke="midnightblue" d="M710.56,-522.96C706.77,-527.68 696.58,-531 680,-531 652.79,-531 642.8,-522.06 650.03,-512.66"/>
<polygon fill="midnightblue" stroke="midnightblue" points="714.04,-522.44 709.97,-512.66 707.05,-522.84 714.04,-522.44"/>
</g>
<!-- Node15&#45;&gt;Node15 -->
<g id="edge30" class="edge">
<title>Node15&#45;&gt;Node15</title>
<path fill="none" stroke="midnightblue" d="M883.36,-321.96C879.97,-326.68 870.85,-330 856,-330 831.64,-330 822.69,-321.06 829.16,-311.66"/>
<polygon fill="midnightblue" stroke="midnightblue" points="886.84,-321.47 882.84,-311.66 879.85,-321.82 886.84,-321.47"/>
</g>
<!-- Node16 -->
<g id="node16" class="node">
<title>Node16</title>
<g id="a_node16"><a xlink:href="backend_8hpp_a360aa0082e4b2bfe2f6c19d333ff56fa.html#a360aa0082e4b2bfe2f6c19d333ff56fa" target="_top" xlink:title="Atomic store operation on a global address.">
<polygon fill="white" stroke="black" points="278,-319.5 278,-349.5 403,-349.5 403,-319.5 278,-319.5"/>
<text text-anchor="start" x="286" y="-337.5" font-family="Helvetica,sans-Serif" font-size="10.00">argo::backend::atomic</text>
<text text-anchor="middle" x="340.5" y="-326.5" font-family="Helvetica,sans-Serif" font-size="10.00">::store</text>
</a>
</g>
</g>
<!-- Node15&#45;&gt;Node16 -->
<g id="edge31" class="edge">
<title>Node15&#45;&gt;Node16</title>
<path fill="none" stroke="midnightblue" d="M783.18,-301.81C681.91,-309.31 498.87,-322.85 403.33,-329.92"/>
<polygon fill="midnightblue" stroke="midnightblue" points="783.6,-305.29 793.32,-301.06 783.08,-298.31 783.6,-305.29"/>
</g>
<!-- Node16&#45;&gt;Node16 -->
<g id="edge32" class="edge">
<title>Node16&#45;&gt;Node16</title>
<path fill="none" stroke="midnightblue" d="M367.51,-359.96C364.16,-364.68 355.15,-368 340.5,-368 316.45,-368 307.62,-359.06 314.01,-349.66"/>
<polygon fill="midnightblue" stroke="midnightblue" points="370.99,-359.47 366.99,-349.66 364,-359.82 370.99,-359.47"/>
</g>
<!-- Node18 -->
<g id="node18" class="node">
<title>Node18</title>
<g id="a_node18"><a xlink:href="swdsm_8cpp_adb24c11067d42b9bc8515a78a524e2c7.html#adb24c11067d42b9bc8515a78a524e2c7" target="_top" xlink:title="Catches memory accesses to memory not yet cached in ArgoDSM. Launches remote requests for memory not ...">
<polygon fill="white" stroke="black" points="480,-195 480,-214 533,-214 533,-195 480,-195"/>
<text text-anchor="middle" x="506.5" y="-202" font-family="Helvetica,sans-Serif" font-size="10.00">handler</text>
</a>
</g>
</g>
<!-- Node17&#45;&gt;Node18 -->
<g id="edge34" class="edge">
<title>Node17&#45;&gt;Node18</title>
<path fill="none" stroke="midnightblue" d="M624.75,-179.21C594.22,-185.79 557.5,-193.71 533.39,-198.91"/>
<polygon fill="midnightblue" stroke="midnightblue" points="625.8,-182.56 634.83,-177.03 624.32,-175.72 625.8,-182.56"/>
</g>
<!-- Node19 -->
<g id="node19" class="node">
<title>Node19</title>
<g id="a_node19"><a xlink:href="swdsm_8cpp_a31ba60e8ddccfa922da8d7e6a10f7b1d.html#a31ba60e8ddccfa922da8d7e6a10f7b1d" target="_top" xlink:title="Initializes ArgoDSM runtime.">
<polygon fill="white" stroke="black" points="297.5,-195 297.5,-214 383.5,-214 383.5,-195 297.5,-195"/>
<text text-anchor="middle" x="340.5" y="-202" font-family="Helvetica,sans-Serif" font-size="10.00">argo_initialize</text>
</a>
</g>
</g>
<!-- Node18&#45;&gt;Node19 -->
<g id="edge35" class="edge">
<title>Node18&#45;&gt;Node19</title>
<path fill="none" stroke="midnightblue" d="M469.59,-204.5C444.22,-204.5 410.15,-204.5 383.52,-204.5"/>
<polygon fill="midnightblue" stroke="midnightblue" points="469.88,-208 479.88,-204.5 469.87,-201 469.88,-208"/>
</g>
<!-- Node20 -->
<g id="node20" class="node">
<title>Node20</title>
<g id="a_node20"><a xlink:href="backend_8hpp_aab3cabb3e1c0b9696b339416b684f78c.html#aab3cabb3e1c0b9696b339416b684f78c" target="_top" xlink:title="initialize backend">
<polygon fill="white" stroke="black" points="135,-195 135,-214 242,-214 242,-195 135,-195"/>
<text text-anchor="middle" x="188.5" y="-202" font-family="Helvetica,sans-Serif" font-size="10.00">argo::backend::init</text>
</a>
</g>
</g>
<!-- Node19&#45;&gt;Node20 -->
<g id="edge36" class="edge">
<title>Node19&#45;&gt;Node20</title>
<path fill="none" stroke="midnightblue" d="M286.97,-204.5C272.42,-204.5 256.62,-204.5 242.06,-204.5"/>
<polygon fill="midnightblue" stroke="midnightblue" points="287.32,-208 297.32,-204.5 287.32,-201 287.32,-208"/>
</g>
<!-- Node22 -->
<g id="node22" class="node">
<title>Node22</title>
<g id="a_node22"><a xlink:href="swdsm_8cpp_a44b8bb7a3c8b47b4f9552c8e10b25e4b.html#a44b8bb7a3c8b47b4f9552c8e10b25e4b" target="_top" xlink:title="acquire function for ArgoDSM (Acquire according to Release Consistency)">
<polygon fill="white" stroke="black" points="640,-444 640,-463 720,-463 720,-444 640,-444"/>
<text text-anchor="middle" x="680" y="-451" font-family="Helvetica,sans-Serif" font-size="10.00">argo_acquire</text>
</a>
</g>
</g>
<!-- Node21&#45;&gt;Node22 -->
<g id="edge38" class="edge">
<title>Node21&#45;&gt;Node22</title>
<path fill="none" stroke="midnightblue" d="M796.79,-434.87C771.55,-438.93 742.67,-443.58 720.06,-447.21"/>
<polygon fill="midnightblue" stroke="midnightblue" points="797.68,-438.27 806.99,-433.23 796.56,-431.36 797.68,-438.27"/>
</g>
<!-- Node25 -->
<g id="node25" class="node">
<title>Node25</title>
<g id="a_node25"><a xlink:href="swdsm_8cpp_aca8a35703563223a3e182ebc897e2b40.html#aca8a35703563223a3e182ebc897e2b40" target="_top" xlink:title="Global barrier for ArgoDSM &#45; needs to be called by every thread in the system that need coherent view...">
<polygon fill="white" stroke="black" points="622,-393 622,-412 738,-412 738,-393 622,-393"/>
<text text-anchor="middle" x="680" y="-400" font-family="Helvetica,sans-Serif" font-size="10.00">swdsm_argo_barrier</text>
</a>
</g>
</g>
<!-- Node21&#45;&gt;Node25 -->
<g id="edge47" class="edge">
<title>Node21&#45;&gt;Node25</title>
<path fill="none" stroke="midnightblue" d="M797,-417.83C778.04,-415.33 757.01,-412.55 738.11,-410.05"/>
<polygon fill="midnightblue" stroke="midnightblue" points="796.62,-421.31 806.99,-419.15 797.54,-414.37 796.62,-421.31"/>
</g>
<!-- Node23 -->
<g id="node23" class="node">
<title>Node23</title>
<g id="a_node23"><a xlink:href="backend_8hpp_a1032f833666c3f810ac1c6210197d426.html#a1032f833666c3f810ac1c6210197d426" target="_top" xlink:title="causes a node to self&#45;invalidate its cache, and thus getting any updated values on subsequent accesse...">
<polygon fill="white" stroke="black" points="443,-500 443,-519 570,-519 570,-500 443,-500"/>
<text text-anchor="middle" x="506.5" y="-507" font-family="Helvetica,sans-Serif" font-size="10.00">argo::backend::acquire</text>
</a>
</g>
</g>
<!-- Node22&#45;&gt;Node23 -->
<g id="edge39" class="edge">
<title>Node22&#45;&gt;Node23</title>
<path fill="none" stroke="midnightblue" d="M632.34,-465.93C624.81,-468.25 617.14,-470.8 610,-473.5 593.45,-479.76 590.56,-484.27 574,-490.5 564.78,-493.97 554.65,-497.16 545.13,-499.9"/>
<polygon fill="midnightblue" stroke="midnightblue" points="633.53,-469.23 642.12,-463.02 631.53,-462.52 633.53,-469.23"/>
</g>
<!-- Node24 -->
<g id="node24" class="node">
<title>Node24</title>
<g id="a_node24"><a xlink:href="swdsm_8cpp_ac0b665f72bc2a28dc663ed204c526e1b.html#ac0b665f72bc2a28dc663ed204c526e1b" target="_top" xlink:title="acquire&#45;release function for ArgoDSM (Both acquire and release according to Release Consistency)">
<polygon fill="white" stroke="black" points="467,-462 467,-481 546,-481 546,-462 467,-462"/>
<text text-anchor="middle" x="506.5" y="-469" font-family="Helvetica,sans-Serif" font-size="10.00">argo_acq_rel</text>
</a>
</g>
</g>
<!-- Node22&#45;&gt;Node24 -->
<g id="edge46" class="edge">
<title>Node22&#45;&gt;Node24</title>
<path fill="none" stroke="midnightblue" d="M629.42,-458.7C602.89,-461.49 570.71,-464.87 546.07,-467.45"/>
<polygon fill="midnightblue" stroke="midnightblue" points="630.07,-462.15 639.65,-457.63 629.34,-455.19 630.07,-462.15"/>
</g>
<!-- Node23&#45;&gt;Node3 -->
<g id="edge41" class="edge">
<title>Node23&#45;&gt;Node3</title>
<path fill="none" stroke="midnightblue" d="M476.76,-523.7C447.42,-538.18 402.07,-560.58 372.09,-575.39"/>
<polygon fill="midnightblue" stroke="midnightblue" points="478.63,-526.68 486.04,-519.11 475.53,-520.4 478.63,-526.68"/>
</g>
<!-- Node23&#45;&gt;Node5 -->
<g id="edge42" class="edge">
<title>Node23&#45;&gt;Node5</title>
<path fill="none" stroke="midnightblue" d="M432.46,-509.95C422.69,-510 412.74,-510.07 403.19,-510.12"/>
<polygon fill="midnightblue" stroke="midnightblue" points="432.58,-513.44 442.56,-509.88 432.54,-506.44 432.58,-513.44"/>
</g>
<!-- Node23&#45;&gt;Node8 -->
<g id="edge43" class="edge">
<title>Node23&#45;&gt;Node8</title>
<path fill="none" stroke="midnightblue" d="M494.4,-527.9C477.58,-554.42 443.3,-603.49 403,-633.5 397.42,-637.65 391.08,-641.29 384.64,-644.42"/>
<polygon fill="midnightblue" stroke="midnightblue" points="497.48,-529.57 499.78,-519.23 491.53,-525.88 497.48,-529.57"/>
</g>
<!-- Node23&#45;&gt;Node12 -->
<g id="edge44" class="edge">
<title>Node23&#45;&gt;Node12</title>
<path fill="none" stroke="midnightblue" d="M455.58,-496.9C449.91,-494.98 444.27,-492.85 439,-490.5 410.72,-477.92 380.95,-458.21 361.85,-444.62"/>
<polygon fill="midnightblue" stroke="midnightblue" points="454.53,-500.24 465.12,-499.93 456.65,-493.57 454.53,-500.24"/>
</g>
<!-- Node23&#45;&gt;Node16 -->
<g id="edge45" class="edge">
<title>Node23&#45;&gt;Node16</title>
<path fill="none" stroke="midnightblue" d="M445.18,-495.17C443,-493.76 440.93,-492.21 439,-490.5 408.27,-463.32 424.7,-440.32 403,-405.5 389.89,-384.46 370.67,-363.38 357.21,-349.72"/>
<polygon fill="midnightblue" stroke="midnightblue" points="443.56,-498.28 454.02,-499.97 446.9,-492.12 443.56,-498.28"/>
</g>
<!-- Node23&#45;&gt;Node23 -->
<g id="edge40" class="edge">
<title>Node23&#45;&gt;Node23</title>
<path fill="none" stroke="midnightblue" d="M537.56,-527.77C536.68,-533.24 526.32,-537.5 506.5,-537.5 477,-537.5 468.47,-528.07 480.91,-519.26"/>
<polygon fill="midnightblue" stroke="midnightblue" points="540.44,-525.77 532.09,-519.26 534.55,-529.56 540.44,-525.77"/>
</g>
<!-- Node26 -->
<g id="node26" class="node">
<title>Node26</title>
<g id="a_node26"><a xlink:href="swdsm_8cpp_aa954d5e0bcaee69ff6e03e697bcaf68b.html#aa954d5e0bcaee69ff6e03e697bcaf68b" target="_top" xlink:title="shut down ArgoDSM system">
<polygon fill="white" stroke="black" points="467,-424 467,-443 546,-443 546,-424 467,-424"/>
<text text-anchor="middle" x="506.5" y="-431" font-family="Helvetica,sans-Serif" font-size="10.00">argo_finalize</text>
</a>
</g>
</g>
<!-- Node25&#45;&gt;Node26 -->
<g id="edge48" class="edge">
<title>Node25&#45;&gt;Node26</title>
<path fill="none" stroke="midnightblue" d="M616.24,-413.84C592.72,-418.1 566.71,-422.8 546.02,-426.54"/>
<polygon fill="midnightblue" stroke="midnightblue" points="616.93,-417.28 626.14,-412.05 615.68,-410.39 616.93,-417.28"/>
</g>
<!-- Node27 -->
<g id="node27" class="node">
<title>Node27</title>
<g id="a_node27"><a xlink:href="swdsm_8cpp_adb17e929b24ae3fd6898035fce958122.html#adb17e929b24ae3fd6898035fce958122" target="_top" xlink:title="Resets current ArgoDSM coherence.">
<polygon fill="white" stroke="black" points="444.5,-236 444.5,-255 568.5,-255 568.5,-236 444.5,-236"/>
<text text-anchor="middle" x="506.5" y="-243" font-family="Helvetica,sans-Serif" font-size="10.00">argo_reset_coherence</text>
</a>
</g>
</g>
<!-- Node25&#45;&gt;Node27 -->
<g id="edge49" class="edge">
<title>Node25&#45;&gt;Node27</title>
<path fill="none" stroke="midnightblue" d="M660.81,-385.85C625.12,-353.18 546.9,-281.57 518.27,-255.36"/>
<polygon fill="midnightblue" stroke="midnightblue" points="658.79,-388.74 668.53,-392.92 663.52,-383.58 658.79,-388.74"/>
</g>
<!-- Node29 -->
<g id="node29" class="node">
<title>Node29</title>
<g id="a_node29"><a xlink:href="backend_8hpp_adc47b610451cff63f21d023dc31b1945.html#adc47b610451cff63f21d023dc31b1945" target="_top" xlink:title="a simple collective barrier">
<polygon fill="white" stroke="black" points="445,-386 445,-405 568,-405 568,-386 445,-386"/>
<text text-anchor="middle" x="506.5" y="-393" font-family="Helvetica,sans-Serif" font-size="10.00">argo::backend::barrier</text>
</a>
</g>
</g>
<!-- Node25&#45;&gt;Node29 -->
<g id="edge53" class="edge">
<title>Node25&#45;&gt;Node29</title>
<path fill="none" stroke="midnightblue" d="M611.61,-399.75C597.28,-399.16 582.24,-398.55 568.18,-397.98"/>
<polygon fill="midnightblue" stroke="midnightblue" points="611.76,-403.26 621.89,-400.17 612.04,-396.26 611.76,-403.26"/>
</g>
<!-- Node27&#45;&gt;Node19 -->
<g id="edge50" class="edge">
<title>Node27&#45;&gt;Node19</title>
<path fill="none" stroke="midnightblue" d="M457.52,-233.51C432.71,-227.3 402.83,-219.83 379.61,-214.03"/>
<polygon fill="midnightblue" stroke="midnightblue" points="456.91,-236.96 467.46,-235.99 458.61,-230.17 456.91,-236.96"/>
</g>
<!-- Node28 -->
<g id="node28" class="node">
<title>Node28</title>
<g id="a_node28"><a xlink:href="backend_8hpp_acb57f009ad65913e26147c6813eda04e.html#acb57f009ad65913e26147c6813eda04e" target="_top" xlink:title="Resets current ArgoDSM coherence.">
<polygon fill="white" stroke="black" points="282.5,-233.5 282.5,-263.5 398.5,-263.5 398.5,-233.5 282.5,-233.5"/>
<text text-anchor="start" x="290.5" y="-251.5" font-family="Helvetica,sans-Serif" font-size="10.00">argo::backend::reset</text>
<text text-anchor="middle" x="340.5" y="-240.5" font-family="Helvetica,sans-Serif" font-size="10.00">_coherence</text>
</a>
</g>
</g>
<!-- Node27&#45;&gt;Node28 -->
<g id="edge51" class="edge">
<title>Node27&#45;&gt;Node28</title>
<path fill="none" stroke="midnightblue" d="M434.09,-246.81C422.2,-247.02 410.01,-247.25 398.55,-247.46"/>
<polygon fill="midnightblue" stroke="midnightblue" points="434.5,-250.3 444.43,-246.62 434.37,-243.3 434.5,-250.3"/>
</g>
<!-- Node28&#45;&gt;Node28 -->
<g id="edge52" class="edge">
<title>Node28&#45;&gt;Node28</title>
<path fill="none" stroke="midnightblue" d="M367.51,-273.96C364.16,-278.68 355.15,-282 340.5,-282 316.45,-282 307.62,-273.06 314.01,-263.66"/>
<polygon fill="midnightblue" stroke="midnightblue" points="370.99,-273.47 366.99,-263.66 364,-273.82 370.99,-273.47"/>
</g>
<!-- Node30&#45;&gt;Node17 -->
<g id="edge57" class="edge">
<title>Node30&#45;&gt;Node17</title>
<path fill="none" stroke="midnightblue" d="M813.62,-231.57C804.29,-228.21 794.6,-224.18 786,-219.5 768.19,-209.82 767.81,-201.18 750,-191.5 739.3,-185.69 726.92,-180.86 715.63,-177.09"/>
<polygon fill="midnightblue" stroke="midnightblue" points="812.57,-234.91 823.17,-234.83 814.83,-228.29 812.57,-234.91"/>
</g>
<!-- Node30&#45;&gt;Node18 -->
<g id="edge56" class="edge">
<title>Node30&#45;&gt;Node18</title>
<path fill="none" stroke="midnightblue" d="M813.07,-238.79C740.33,-230.63 592.83,-214.08 533.29,-207.39"/>
<polygon fill="midnightblue" stroke="midnightblue" points="812.91,-242.3 823.24,-239.94 813.69,-235.34 812.91,-242.3"/>
</g>
<!-- Node30&#45;&gt;Node27 -->
<g id="edge55" class="edge">
<title>Node30&#45;&gt;Node27</title>
<path fill="none" stroke="midnightblue" d="M813.22,-243.74C752.33,-244.09 638.82,-244.74 568.56,-245.15"/>
<polygon fill="midnightblue" stroke="midnightblue" points="813.26,-247.24 823.24,-243.68 813.22,-240.24 813.26,-247.24"/>
</g>
<!-- Node31 -->
<g id="node31" class="node">
<title>Node31</title>
<g id="a_node31"><a xlink:href="swdsm_8cpp_adafea891224a2b1860cbc6afe9610334.html#adafea891224a2b1860cbc6afe9610334" target="_top" xlink:title="Perform upgrade of page classifications.">
<polygon fill="white" stroke="black" points="640,-272 640,-291 720,-291 720,-272 640,-272"/>
<text text-anchor="middle" x="680" y="-279" font-family="Helvetica,sans-Serif" font-size="10.00">self_upgrade</text>
</a>
</g>
</g>
<!-- Node30&#45;&gt;Node31 -->
<g id="edge58" class="edge">
<title>Node30&#45;&gt;Node31</title>
<path fill="none" stroke="midnightblue" d="M813.51,-252.56C785.22,-258.74 747.99,-266.87 720.2,-272.94"/>
<polygon fill="midnightblue" stroke="midnightblue" points="814.47,-255.93 823.49,-250.38 812.97,-249.1 814.47,-255.93"/>
</g>
<!-- Node32&#45;&gt;Node17 -->
<g id="edge64" class="edge">
<title>Node32&#45;&gt;Node17</title>
<path fill="none" stroke="midnightblue" d="M801.94,-145.95C779.46,-149.96 753.39,-154.6 731.23,-158.55"/>
<polygon fill="midnightblue" stroke="midnightblue" points="802.76,-149.36 811.99,-144.16 801.53,-142.47 802.76,-149.36"/>
</g>
<!-- Node33 -->
<g id="node33" class="node">
<title>Node33</title>
<g id="a_node33"><a xlink:href="backend_8hpp_ac3350bde3c8baf64753e515336fad3be.html#ac3350bde3c8baf64753e515336fad3be" target="_top" xlink:title="backend internal type erased function for selective release">
<polygon fill="white" stroke="black" points="610,-90.5 610,-120.5 750,-120.5 750,-90.5 610,-90.5"/>
<text text-anchor="start" x="618" y="-108.5" font-family="Helvetica,sans-Serif" font-size="10.00">argo::backend::_selective</text>
<text text-anchor="middle" x="680" y="-97.5" font-family="Helvetica,sans-Serif" font-size="10.00">_release</text>
</a>
</g>
</g>
<!-- Node32&#45;&gt;Node33 -->
<g id="edge60" class="edge">
<title>Node32&#45;&gt;Node33</title>
<path fill="none" stroke="midnightblue" d="M802.09,-127.07C785.76,-124.16 767.52,-120.91 750.26,-117.84"/>
<polygon fill="midnightblue" stroke="midnightblue" points="801.53,-130.53 811.99,-128.84 802.76,-123.64 801.53,-130.53"/>
</g>
<!-- Node35 -->
<g id="node35" class="node">
<title>Node35</title>
<g id="a_node35"><a xlink:href="classwrite__buffer_a066de0a724f3f13272780ad7ca8e6502.html#a066de0a724f3f13272780ad7ca8e6502" target="_top" xlink:title="Perform writeback of a single cached page.">
<polygon fill="white" stroke="black" points="627,-41.5 627,-71.5 733,-71.5 733,-41.5 627,-41.5"/>
<text text-anchor="start" x="635" y="-59.5" font-family="Helvetica,sans-Serif" font-size="10.00">write_buffer::write</text>
<text text-anchor="middle" x="680" y="-48.5" font-family="Helvetica,sans-Serif" font-size="10.00">_back_index</text>
</a>
</g>
</g>
<!-- Node32&#45;&gt;Node35 -->
<g id="edge65" class="edge">
<title>Node32&#45;&gt;Node35</title>
<path fill="none" stroke="midnightblue" d="M830.15,-121.83C809.21,-109.82 778.23,-92.85 750,-80.5 742.8,-77.35 735.03,-74.32 727.41,-71.53"/>
<polygon fill="midnightblue" stroke="midnightblue" points="828.61,-124.99 839.02,-126.97 832.12,-118.93 828.61,-124.99"/>
</g>
<!-- Node33&#45;&gt;Node33 -->
<g id="edge61" class="edge">
<title>Node33&#45;&gt;Node33</title>
<path fill="none" stroke="midnightblue" d="M710.56,-130.96C706.77,-135.68 696.58,-139 680,-139 652.79,-139 642.8,-130.06 650.03,-120.66"/>
<polygon fill="midnightblue" stroke="midnightblue" points="714.04,-130.44 709.97,-120.66 707.05,-130.84 714.04,-130.44"/>
</g>
<!-- Node34 -->
<g id="node34" class="node">
<title>Node34</title>
<g id="a_node34"><a xlink:href="backend_8hpp_a37c88e1409650776ddb3a33d7f2744cb.html#a37c88e1409650776ddb3a33d7f2744cb" target="_top" xlink:title="causes a node to self&#45;downgrade specified pages from its cache, making all previous writes to be prop...">
<polygon fill="white" stroke="black" points="439,-90.5 439,-120.5 574,-120.5 574,-90.5 439,-90.5"/>
<text text-anchor="start" x="447" y="-108.5" font-family="Helvetica,sans-Serif" font-size="10.00">argo::backend::selective</text>
<text text-anchor="middle" x="506.5" y="-97.5" font-family="Helvetica,sans-Serif" font-size="10.00">_release</text>
</a>
</g>
</g>
<!-- Node33&#45;&gt;Node34 -->
<g id="edge62" class="edge">
<title>Node33&#45;&gt;Node34</title>
<path fill="none" stroke="midnightblue" d="M599.5,-105.5C591.05,-105.5 582.52,-105.5 574.24,-105.5"/>
<polygon fill="midnightblue" stroke="midnightblue" points="599.74,-109 609.74,-105.5 599.74,-102 599.74,-109"/>
</g>
<!-- Node34&#45;&gt;Node34 -->
<g id="edge63" class="edge">
<title>Node34&#45;&gt;Node34</title>
<path fill="none" stroke="midnightblue" d="M536,-130.96C532.34,-135.68 522.5,-139 506.5,-139 480.24,-139 470.6,-130.06 477.57,-120.66"/>
<polygon fill="midnightblue" stroke="midnightblue" points="539.47,-130.45 535.43,-120.66 532.48,-130.84 539.47,-130.45"/>
</g>
<!-- Node36 -->
<g id="node36" class="node">
<title>Node36</title>
<g id="a_node36"><a xlink:href="classwrite__buffer_ad01396b3a57acdae3d76a31ae6253f48.html#ad01396b3a57acdae3d76a31ae6253f48" target="_top" xlink:title="Internal implementation of flush.">
<polygon fill="white" stroke="black" points="451.5,-50 451.5,-69 561.5,-69 561.5,-50 451.5,-50"/>
<text text-anchor="middle" x="506.5" y="-57" font-family="Helvetica,sans-Serif" font-size="10.00">write_buffer::_flush</text>
</a>
</g>
</g>
<!-- Node35&#45;&gt;Node36 -->
<g id="edge66" class="edge">
<title>Node35&#45;&gt;Node36</title>
<path fill="none" stroke="midnightblue" d="M616.51,-57.59C598.53,-57.91 579.07,-58.25 561.64,-58.55"/>
<polygon fill="midnightblue" stroke="midnightblue" points="616.68,-61.09 626.61,-57.42 616.55,-54.09 616.68,-61.09"/>
</g>
<!-- Node39 -->
<g id="node39" class="node">
<title>Node39</title>
<g id="a_node39"><a xlink:href="classwrite__buffer_aa6a1c2c3aa3a7cde744bbca3b14f599a.html#aa6a1c2c3aa3a7cde744bbca3b14f599a" target="_top" xlink:title="Flushes first _write_back_size elements of the ArgoDSM write buffer to memory.">
<polygon fill="white" stroke="black" points="454.5,-0.5 454.5,-30.5 558.5,-30.5 558.5,-0.5 454.5,-0.5"/>
<text text-anchor="start" x="462.5" y="-18.5" font-family="Helvetica,sans-Serif" font-size="10.00">write_buffer::flush</text>
<text text-anchor="middle" x="506.5" y="-7.5" font-family="Helvetica,sans-Serif" font-size="10.00">_partial</text>
</a>
</g>
</g>
<!-- Node35&#45;&gt;Node39 -->
<g id="edge69" class="edge">
<title>Node35&#45;&gt;Node39</title>
<path fill="none" stroke="midnightblue" d="M616.81,-41.63C597.72,-37.07 576.95,-32.1 558.68,-27.74"/>
<polygon fill="midnightblue" stroke="midnightblue" points="616.07,-45.05 626.61,-43.98 617.7,-38.25 616.07,-45.05"/>
</g>
<!-- Node37 -->
<g id="node37" class="node">
<title>Node37</title>
<g id="a_node37"><a xlink:href="classwrite__buffer_adbf59cdee2664f9db4a5e0dfd4f273ef.html#adbf59cdee2664f9db4a5e0dfd4f273ef" target="_top" xlink:title="Helper function to call _flush.">
<polygon fill="white" stroke="black" points="285.5,-44.5 285.5,-74.5 395.5,-74.5 395.5,-44.5 285.5,-44.5"/>
<text text-anchor="start" x="293.5" y="-62.5" font-family="Helvetica,sans-Serif" font-size="10.00">write_buffer::_flush</text>
<text text-anchor="middle" x="340.5" y="-51.5" font-family="Helvetica,sans-Serif" font-size="10.00">_helper</text>
</a>
</g>
</g>
<!-- Node36&#45;&gt;Node37 -->
<g id="edge67" class="edge">
<title>Node36&#45;&gt;Node37</title>
<path fill="none" stroke="midnightblue" d="M441.08,-59.5C426.03,-59.5 410.15,-59.5 395.6,-59.5"/>
<polygon fill="midnightblue" stroke="midnightblue" points="441.35,-63 451.35,-59.5 441.35,-56 441.35,-63"/>
</g>
<!-- Node38 -->
<g id="node38" class="node">
<title>Node38</title>
<g id="a_node38"><a xlink:href="classwrite__buffer_aca2e330e17a38c1cc8d8c60701ce9dd7.html#aca2e330e17a38c1cc8d8c60701ce9dd7" target="_top" xlink:title="Flushes the ArgoDSM write buffer to memory.">
<polygon fill="white" stroke="black" points="136.5,-50 136.5,-69 240.5,-69 240.5,-50 136.5,-50"/>
<text text-anchor="middle" x="188.5" y="-57" font-family="Helvetica,sans-Serif" font-size="10.00">write_buffer::flush</text>
</a>
</g>
</g>
<!-- Node37&#45;&gt;Node38 -->
<g id="edge68" class="edge">
<title>Node37&#45;&gt;Node38</title>
<path fill="none" stroke="midnightblue" d="M275.27,-59.5C263.68,-59.5 251.73,-59.5 240.57,-59.5"/>
<polygon fill="midnightblue" stroke="midnightblue" points="275.35,-63 285.35,-59.5 275.35,-56 275.35,-63"/>
</g>
<!-- Node40 -->
<g id="node40" class="node">
<title>Node40</title>
<g id="a_node40"><a xlink:href="classwrite__buffer_a327be1f65770b56442b1e8ee967be23d.html#a327be1f65770b56442b1e8ee967be23d" target="_top" xlink:title="Internal function to add an element to the write buffer.">
<polygon fill="white" stroke="black" points="288.5,-6 288.5,-25 392.5,-25 392.5,-6 288.5,-6"/>
<text text-anchor="middle" x="340.5" y="-13" font-family="Helvetica,sans-Serif" font-size="10.00">write_buffer::_add</text>
</a>
</g>
</g>
<!-- Node39&#45;&gt;Node40 -->
<g id="edge70" class="edge">
<title>Node39&#45;&gt;Node40</title>
<path fill="none" stroke="midnightblue" d="M443.77,-15.5C426.96,-15.5 408.92,-15.5 392.76,-15.5"/>
<polygon fill="midnightblue" stroke="midnightblue" points="444.06,-19 454.06,-15.5 444.06,-12 444.06,-19"/>
</g>
<!-- Node41 -->
<g id="node41" class="node">
<title>Node41</title>
<g id="a_node41"><a xlink:href="classwrite__buffer_ab5f16d0de074372b34cc4ebba9c58550.html#ab5f16d0de074372b34cc4ebba9c58550" target="_top" xlink:title="Helper function to call _add.">
<polygon fill="white" stroke="black" points="136.5,-0.5 136.5,-30.5 240.5,-30.5 240.5,-0.5 136.5,-0.5"/>
<text text-anchor="start" x="144.5" y="-18.5" font-family="Helvetica,sans-Serif" font-size="10.00">write_buffer::_add</text>
<text text-anchor="middle" x="188.5" y="-7.5" font-family="Helvetica,sans-Serif" font-size="10.00">_helper</text>
</a>
</g>
</g>
<!-- Node40&#45;&gt;Node41 -->
<g id="edge71" class="edge">
<title>Node40&#45;&gt;Node41</title>
<path fill="none" stroke="midnightblue" d="M278.03,-15.5C265.64,-15.5 252.73,-15.5 240.73,-15.5"/>
<polygon fill="midnightblue" stroke="midnightblue" points="278.3,-19 288.3,-15.5 278.3,-12 278.3,-19"/>
</g>
<!-- Node42 -->
<g id="node42" class="node">
<title>Node42</title>
<g id="a_node42"><a xlink:href="classwrite__buffer_a23b0dbc463111cacbbf83b267e76ac9f.html#a23b0dbc463111cacbbf83b267e76ac9f" target="_top" xlink:title="Adds a new element to the write buffer.">
<polygon fill="white" stroke="black" points="0,-6 0,-25 99,-25 99,-6 0,-6"/>
<text text-anchor="middle" x="49.5" y="-13" font-family="Helvetica,sans-Serif" font-size="10.00">write_buffer::add</text>
</a>
</g>
</g>
<!-- Node41&#45;&gt;Node42 -->
<g id="edge72" class="edge">
<title>Node41&#45;&gt;Node42</title>
<path fill="none" stroke="midnightblue" d="M126.36,-15.5C117.29,-15.5 108.05,-15.5 99.28,-15.5"/>
<polygon fill="midnightblue" stroke="midnightblue" points="126.49,-19 136.49,-15.5 126.49,-12 126.49,-19"/>
</g>
</g>
</svg>
