<?xml version="1.0" encoding="UTF-8" standalone="no"?>
<!DOCTYPE svg PUBLIC "-//W3C//DTD SVG 1.1//EN"
 "http://www.w3.org/Graphics/SVG/1.1/DTD/svg11.dtd">
<!-- Generated by graphviz version 2.43.0 (0)
 -->
<!-- Title: argo::data_distribution::first_touch_distribution&lt; instance &gt; Pages: 1 -->
<svg width="278pt" height="128pt"
 viewBox="0.00 0.00 278.00 128.00" xmlns="http://www.w3.org/2000/svg" xmlns:xlink="http://www.w3.org/1999/xlink">
<g id="graph0" class="graph" transform="scale(1 1) rotate(0) translate(4 124)">
<title>argo::data_distribution::first_touch_distribution&lt; instance &gt;</title>
<polygon fill="white" stroke="transparent" points="-4,4 -4,-124 274,-124 274,4 -4,4"/>
<!-- Node1 -->
<g id="node1" class="node">
<title>Node1</title>
<g id="a_node1"><a xlink:title="the first&#45;touch data distribution">
<polygon fill="#bfbfbf" stroke="black" points="87,-0.5 87,-41.5 221,-41.5 221,-0.5 87,-0.5"/>
<text text-anchor="start" x="95" y="-29.5" font-family="Helvetica,sans-Serif" font-size="10.00">argo::data_distribution</text>
<text text-anchor="start" x="95" y="-18.5" font-family="Helvetica,sans-Serif" font-size="10.00">::first_touch_distribution</text>
<text text-anchor="middle" x="154" y="-7.5" font-family="Helvetica,sans-Serif" font-size="10.00">&lt; instance &gt;</text>
</a>
</g>
</g>
<!-- Node2 -->
<g id="node2" class="node">
<title>Node2</title>
<g id="a_node2"><a xlink:href="classargo_1_1data__distribution_1_1base__distribution.html" target="_top" xlink:title="the base data distribution class">
<polygon fill="white" stroke="black" points="0,-89.5 0,-119.5 170,-119.5 170,-89.5 0,-89.5"/>
<text text-anchor="start" x="8" y="-107.5" font-family="Helvetica,sans-Serif" font-size="10.00">argo::data_distribution</text>
<text text-anchor="middle" x="85" y="-96.5" font-family="Helvetica,sans-Serif" font-size="10.00">::base_distribution&lt; instance &gt;</text>
</a>
</g>
</g>
<!-- Node2&#45;&gt;Node1 -->
<g id="edge1" class="edge">
<title>Node2&#45;&gt;Node1</title>
<path fill="none" stroke="midnightblue" d="M103.54,-81.6C114.11,-69.11 127.25,-53.6 137.47,-41.53"/>
<polygon fill="midnightblue" stroke="midnightblue" points="100.81,-79.41 97.02,-89.3 106.15,-83.93 100.81,-79.41"/>
</g>
<!-- Node3 -->
<g id="node3" class="node">
<title>Node3</title>
<g id="a_node3"><a xlink:title=" ">
<polygon fill="white" stroke="#bfbfbf" points="188.5,-95 188.5,-114 257.5,-114 257.5,-95 188.5,-95"/>
<text text-anchor="middle" x="223" y="-102" font-family="Helvetica,sans-Serif" font-size="10.00">std::mutex</text>
</a>
</g>
</g>
<!-- Node3&#45;&gt;Node1 -->
<g id="edge2" class="edge">
<title>Node3&#45;&gt;Node1</title>
<path fill="none" stroke="#9a32cd" stroke-dasharray="5,2" d="M209.07,-87.04C198,-73.97 182.47,-55.63 170.73,-41.76"/>
<polygon fill="#9a32cd" stroke="#9a32cd" points="206.48,-89.41 215.62,-94.78 211.83,-84.88 206.48,-89.41"/>
<text text-anchor="middle" x="232" y="-63" font-family="Helvetica,sans-Serif" font-size="10.00"> owners_mutex</text>
</g>
</g>
</svg>
