<?xml version="1.0" encoding="UTF-8" standalone="no"?>
<!DOCTYPE svg PUBLIC "-//W3C//DTD SVG 1.1//EN"
 "http://www.w3.org/Graphics/SVG/1.1/DTD/svg11.dtd">
<!-- Generated by graphviz version 2.43.0 (0)
 -->
<!-- Title: write_buffer::erase Pages: 1 -->
<svg width="414pt" height="39pt"
 viewBox="0.00 0.00 414.00 39.00" xmlns="http://www.w3.org/2000/svg" xmlns:xlink="http://www.w3.org/1999/xlink">
<g id="graph0" class="graph" transform="scale(1 1) rotate(0) translate(4 35)">
<title>write_buffer::erase</title>
<polygon fill="white" stroke="transparent" points="-4,4 -4,-35 410,-35 410,4 -4,4"/>
<!-- Node1 -->
<g id="node1" class="node">
<title>Node1</title>
<g id="a_node1"><a xlink:title="If val exists in buffer, delete it. Else, do nothing.">
<polygon fill="#bfbfbf" stroke="black" points="0,-6 0,-25 108,-25 108,-6 0,-6"/>
<text text-anchor="middle" x="54" y="-13" font-family="Helvetica,sans-Serif" font-size="10.00">write_buffer::erase</text>
</a>
</g>
</g>
<!-- Node2 -->
<g id="node2" class="node">
<title>Node2</title>
<g id="a_node2"><a xlink:href="classwrite__buffer_a9023b7d810dcc5538456f77f9dcfe666.html#a9023b7d810dcc5538456f77f9dcfe666" target="_top" xlink:title="Helper function to call _erase.">
<polygon fill="white" stroke="black" points="144,-0.5 144,-30.5 257,-30.5 257,-0.5 144,-0.5"/>
<text text-anchor="start" x="152" y="-18.5" font-family="Helvetica,sans-Serif" font-size="10.00">write_buffer::_erase</text>
<text text-anchor="middle" x="200.5" y="-7.5" font-family="Helvetica,sans-Serif" font-size="10.00">_helper</text>
</a>
</g>
</g>
<!-- Node1&#45;&gt;Node2 -->
<g id="edge1" class="edge">
<title>Node1&#45;&gt;Node2</title>
<path fill="none" stroke="midnightblue" d="M108.4,-15.5C116.63,-15.5 125.21,-15.5 133.67,-15.5"/>
<polygon fill="midnightblue" stroke="midnightblue" points="133.9,-19 143.9,-15.5 133.9,-12 133.9,-19"/>
</g>
<!-- Node3 -->
<g id="node3" class="node">
<title>Node3</title>
<g id="a_node3"><a xlink:href="classwrite__buffer_ac9452944dc09a1b0b1a7528d66f6f916.html#ac9452944dc09a1b0b1a7528d66f6f916" target="_top" xlink:title="Internal implementation of erase.">
<polygon fill="white" stroke="black" points="293,-6 293,-25 406,-25 406,-6 293,-6"/>
<text text-anchor="middle" x="349.5" y="-13" font-family="Helvetica,sans-Serif" font-size="10.00">write_buffer::_erase</text>
</a>
</g>
</g>
<!-- Node2&#45;&gt;Node3 -->
<g id="edge2" class="edge">
<title>Node2&#45;&gt;Node3</title>
<path fill="none" stroke="midnightblue" d="M257.07,-15.5C265.49,-15.5 274.24,-15.5 282.84,-15.5"/>
<polygon fill="midnightblue" stroke="midnightblue" points="282.85,-19 292.85,-15.5 282.85,-12 282.85,-19"/>
</g>
</g>
</svg>
