<?xml version="1.0" encoding="UTF-8" standalone="no"?>
<!DOCTYPE svg PUBLIC "-//W3C//DTD SVG 1.1//EN"
 "http://www.w3.org/Graphics/SVG/1.1/DTD/svg11.dtd">
<!-- Generated by graphviz version 2.43.0 (0)
 -->
<!-- Title: write_buffer::_add Pages: 1 -->
<!--zoomable 218 -->
<svg id="main" version="1.1" xmlns="http://www.w3.org/2000/svg" xmlns:xlink="http://www.w3.org/1999/xlink" xml:space="preserve" onload="init(evt)">
<style type="text/css"><![CDATA[
.edge:hover path { stroke: red; }
.edge:hover polygon { stroke: red; fill: red; }
]]></style>
<script type="text/javascript"><![CDATA[
var edges = document.getElementsByTagName('g');
if (edges && edges.length) {
  for (var i=0;i<edges.length;i++) {
    if (edges[i].id.substr(0,4)=='edge') {
      edges[i].setAttribute('class','edge');
    }
  }
}
]]></script>
        <defs>
                <circle id="rim" cx="0" cy="0" r="7"/>
                <circle id="rim2" cx="0" cy="0" r="3.5"/>
                <g id="zoomPlus">
                        <use xlink:href="#rim" fill="#404040">
                                <set attributeName="fill" to="#808080" begin="zoomplus.mouseover" end="zoomplus.mouseout"/>
                        </use>
                        <path d="M-4,0h8M0,-4v8" fill="none" stroke="white" stroke-width="1.5" pointer-events="none"/>
                </g>
                <g id="zoomMin">
                        <use xlink:href="#rim" fill="#404040">
                                <set attributeName="fill" to="#808080" begin="zoomminus.mouseover" end="zoomminus.mouseout"/>
                        </use>
                        <path d="M-4,0h8" fill="none" stroke="white" stroke-width="1.5" pointer-events="none"/>
                </g>
                <g id="dirArrow">
                        <path fill="none" stroke="white" stroke-width="1.5" d="M0,-3.0v7 M-2.5,-0.5L0,-3.0L2.5,-0.5"/>
                </g>
               <g id="resetDef">
                       <use xlink:href="#rim2" fill="#404040">
                               <set attributeName="fill" to="#808080" begin="reset.mouseover" end="reset.mouseout"/>
                       </use>
               </g>
        </defs>

<script type="text/javascript">
var viewWidth = 1195;
var viewHeight = 218;
var sectionId = 'dynsection-0';
</script>
<script xlink:href="svgpan.js"/>
<svg id="graph" class="graph">
<g id="viewport">
<title>write_buffer::_add</title>
<polygon fill="white" stroke="transparent" points="-4,4 -4,-214 1191,-214 1191,4 -4,4"/>
<!-- Node1 -->
<g id="node1" class="node">
<title>Node1</title>
<g id="a_node1"><a xlink:title="Internal function to add an element to the write buffer.">
<polygon fill="#bfbfbf" stroke="black" points="0,-95.5 0,-114.5 104,-114.5 104,-95.5 0,-95.5"/>
<text text-anchor="middle" x="52" y="-102.5" font-family="Helvetica,sans-Serif" font-size="10.00">write_buffer::_add</text>
</a>
</g>
</g>
<!-- Node2 -->
<g id="node2" class="node">
<title>Node2</title>
<g id="a_node2"><a xlink:href="classwrite__buffer_ae51b3a3d02d35cc4f280690b6860d20f.html#ae51b3a3d02d35cc4f280690b6860d20f" target="_top" xlink:title="Constructs a new element and emplaces it at the back of the buffer.">
<polygon fill="white" stroke="black" points="140,-161.5 140,-180.5 292,-180.5 292,-161.5 140,-161.5"/>
<text text-anchor="middle" x="216" y="-168.5" font-family="Helvetica,sans-Serif" font-size="10.00">write_buffer::emplace_back</text>
</a>
</g>
</g>
<!-- Node1&#45;&gt;Node2 -->
<g id="edge1" class="edge">
<title>Node1&#45;&gt;Node2</title>
<path fill="none" stroke="midnightblue" d="M67.85,-114.5C84.75,-124.96 113.45,-141.65 140,-152 146.31,-154.46 153.04,-156.69 159.78,-158.68"/>
<polygon fill="midnightblue" stroke="midnightblue" points="159.04,-162.1 169.62,-161.42 160.93,-155.36 159.04,-162.1"/>
</g>
<!-- Node3 -->
<g id="node3" class="node">
<title>Node3</title>
<g id="a_node3"><a xlink:href="classwrite__buffer_aa6a1c2c3aa3a7cde744bbca3b14f599a.html#aa6a1c2c3aa3a7cde744bbca3b14f599a" target="_top" xlink:title="Flushes first _write_back_size elements of the ArgoDSM write buffer to memory.">
<polygon fill="white" stroke="black" points="164,-112 164,-142 268,-142 268,-112 164,-112"/>
<text text-anchor="start" x="172" y="-130" font-family="Helvetica,sans-Serif" font-size="10.00">write_buffer::flush</text>
<text text-anchor="middle" x="216" y="-119" font-family="Helvetica,sans-Serif" font-size="10.00">_partial</text>
</a>
</g>
</g>
<!-- Node1&#45;&gt;Node3 -->
<g id="edge2" class="edge">
<title>Node1&#45;&gt;Node3</title>
<path fill="none" stroke="midnightblue" d="M104.26,-111.96C119.99,-114.1 137.47,-116.47 153.8,-118.69"/>
<polygon fill="midnightblue" stroke="midnightblue" points="153.42,-122.17 163.8,-120.05 154.36,-115.23 153.42,-122.17"/>
</g>
<!-- Node17 -->
<g id="node17" class="node">
<title>Node17</title>
<g id="a_node17"><a xlink:href="classwrite__buffer_a6103a2e16740ac4064c5936dbe5ea06d.html#a6103a2e16740ac4064c5936dbe5ea06d" target="_top" xlink:title="Check if val exists in the buffer.">
<polygon fill="white" stroke="black" points="167,-73.5 167,-92.5 265,-92.5 265,-73.5 167,-73.5"/>
<text text-anchor="middle" x="216" y="-80.5" font-family="Helvetica,sans-Serif" font-size="10.00">write_buffer::has</text>
</a>
</g>
</g>
<!-- Node1&#45;&gt;Node17 -->
<g id="edge17" class="edge">
<title>Node1&#45;&gt;Node17</title>
<path fill="none" stroke="midnightblue" d="M104.26,-98.04C121,-95.77 139.7,-93.23 156.9,-90.89"/>
<polygon fill="midnightblue" stroke="midnightblue" points="157.4,-94.36 166.83,-89.54 156.45,-87.42 157.4,-94.36"/>
</g>
<!-- Node18 -->
<g id="node18" class="node">
<title>Node18</title>
<g id="a_node18"><a xlink:href="classwrite__buffer_a6cd208e8e94ef77f0b19e83bf20059c6.html#a6cd208e8e94ef77f0b19e83bf20059c6" target="_top" xlink:title="Get the size of the buffer.">
<polygon fill="white" stroke="black" points="165.5,-35.5 165.5,-54.5 266.5,-54.5 266.5,-35.5 165.5,-35.5"/>
<text text-anchor="middle" x="216" y="-42.5" font-family="Helvetica,sans-Serif" font-size="10.00">write_buffer::size</text>
</a>
</g>
</g>
<!-- Node1&#45;&gt;Node18 -->
<g id="edge18" class="edge">
<title>Node1&#45;&gt;Node18</title>
<path fill="none" stroke="midnightblue" d="M70.57,-95.49C87.85,-86.43 115.17,-72.9 140,-64 146.87,-61.54 154.2,-59.27 161.48,-57.21"/>
<polygon fill="midnightblue" stroke="midnightblue" points="162.6,-60.54 171.34,-54.55 160.78,-53.78 162.6,-60.54"/>
</g>
<!-- Node4 -->
<g id="node4" class="node">
<title>Node4</title>
<g id="a_node4"><a xlink:href="classwrite__buffer_ae065d3ee59035ad508eb8ce6670d2c89.html#ae065d3ee59035ad508eb8ce6670d2c89" target="_top" xlink:title="Removes the front element from the buffer and returns it.">
<polygon fill="white" stroke="black" points="331.5,-139.5 331.5,-158.5 430.5,-158.5 430.5,-139.5 331.5,-139.5"/>
<text text-anchor="middle" x="381" y="-146.5" font-family="Helvetica,sans-Serif" font-size="10.00">write_buffer::pop</text>
</a>
</g>
</g>
<!-- Node3&#45;&gt;Node4 -->
<g id="edge3" class="edge">
<title>Node3&#45;&gt;Node4</title>
<path fill="none" stroke="midnightblue" d="M268.13,-133.9C284.99,-136.18 303.87,-138.72 321.25,-141.07"/>
<polygon fill="midnightblue" stroke="midnightblue" points="320.9,-144.56 331.28,-142.42 321.84,-137.62 320.9,-144.56"/>
</g>
<!-- Node5 -->
<g id="node5" class="node">
<title>Node5</title>
<g id="a_node5"><a xlink:href="classwrite__buffer_a066de0a724f3f13272780ad7ca8e6502.html#a066de0a724f3f13272780ad7ca8e6502" target="_top" xlink:title="Perform writeback of a single cached page.">
<polygon fill="white" stroke="black" points="328,-90 328,-120 434,-120 434,-90 328,-90"/>
<text text-anchor="start" x="336" y="-108" font-family="Helvetica,sans-Serif" font-size="10.00">write_buffer::write</text>
<text text-anchor="middle" x="381" y="-97" font-family="Helvetica,sans-Serif" font-size="10.00">_back_index</text>
</a>
</g>
</g>
<!-- Node3&#45;&gt;Node5 -->
<g id="edge4" class="edge">
<title>Node3&#45;&gt;Node5</title>
<path fill="none" stroke="midnightblue" d="M268.13,-120.1C283.9,-117.97 301.44,-115.6 317.87,-113.39"/>
<polygon fill="midnightblue" stroke="midnightblue" points="318.49,-116.83 327.93,-112.03 317.55,-109.9 318.49,-116.83"/>
</g>
<!-- Node6 -->
<g id="node6" class="node">
<title>Node6</title>
<g id="a_node6"><a xlink:href="swdsm_8cpp_a3b6a6b2b244edb9faa79814ce8e5e9f5.html#a3b6a6b2b244edb9faa79814ce8e5e9f5" target="_top" xlink:title="stores a page remotely &#45; only writing back what has been written locally since last synchronization p...">
<polygon fill="white" stroke="black" points="470,-95.5 470,-114.5 558,-114.5 558,-95.5 470,-95.5"/>
<text text-anchor="middle" x="514" y="-102.5" font-family="Helvetica,sans-Serif" font-size="10.00">storepageDIFF</text>
</a>
</g>
</g>
<!-- Node5&#45;&gt;Node6 -->
<g id="edge5" class="edge">
<title>Node5&#45;&gt;Node6</title>
<path fill="none" stroke="midnightblue" d="M434.15,-105C442.57,-105 451.3,-105 459.75,-105"/>
<polygon fill="midnightblue" stroke="midnightblue" points="459.87,-108.5 469.87,-105 459.87,-101.5 459.87,-108.5"/>
</g>
<!-- Node7 -->
<g id="node7" class="node">
<title>Node7</title>
<g id="a_node7"><a xlink:href="swdsm_8cpp_af5bb31046df1aef1cccf72f19fe63640.html#af5bb31046df1aef1cccf72f19fe63640" target="_top" xlink:title="Gets the data window index based on the offset into the node&#39;s backing store.">
<polygon fill="white" stroke="black" points="594.5,-190.5 594.5,-209.5 708.5,-209.5 708.5,-190.5 594.5,-190.5"/>
<text text-anchor="middle" x="651.5" y="-197.5" font-family="Helvetica,sans-Serif" font-size="10.00">get_data_win_index</text>
</a>
</g>
</g>
<!-- Node6&#45;&gt;Node7 -->
<g id="edge6" class="edge">
<title>Node6&#45;&gt;Node7</title>
<path fill="none" stroke="midnightblue" d="M522.49,-114.56C535.44,-130.5 563.57,-162.54 594,-181 597.39,-183.05 601.02,-184.92 604.76,-186.61"/>
<polygon fill="midnightblue" stroke="midnightblue" points="603.59,-189.91 614.17,-190.43 606.23,-183.42 603.59,-189.91"/>
</g>
<!-- Node8 -->
<g id="node8" class="node">
<title>Node8</title>
<g id="a_node8"><a xlink:href="swdsm_8cpp_a3f19b1fc7fe36a6eabdae48e53fb66fa.html#a3f19b1fc7fe36a6eabdae48e53fb66fa" target="_top" xlink:title="Gets the sharer window offset based on the classification index.">
<polygon fill="white" stroke="black" points="594,-152.5 594,-171.5 709,-171.5 709,-152.5 594,-152.5"/>
<text text-anchor="middle" x="651.5" y="-159.5" font-family="Helvetica,sans-Serif" font-size="10.00">get_data_win_offset</text>
</a>
</g>
</g>
<!-- Node6&#45;&gt;Node8 -->
<g id="edge7" class="edge">
<title>Node6&#45;&gt;Node8</title>
<path fill="none" stroke="midnightblue" d="M533.22,-114.56C549.05,-122.68 572.71,-134.34 594,-143 599.15,-145.1 604.63,-147.15 610.07,-149.09"/>
<polygon fill="midnightblue" stroke="midnightblue" points="609.16,-152.47 619.75,-152.43 611.44,-145.86 609.16,-152.47"/>
</g>
<!-- Node9 -->
<g id="node9" class="node">
<title>Node9</title>
<g id="a_node9"><a xlink:href="swdsm_8cpp_ab2e5fbbe4d1f44d25619f290dc37dd3e.html#ab2e5fbbe4d1f44d25619f290dc37dd3e" target="_top" xlink:title="Gives homenode for a given address.">
<polygon fill="white" stroke="black" points="607,-114.5 607,-133.5 696,-133.5 696,-114.5 607,-114.5"/>
<text text-anchor="middle" x="651.5" y="-121.5" font-family="Helvetica,sans-Serif" font-size="10.00">get_homenode</text>
</a>
</g>
</g>
<!-- Node6&#45;&gt;Node9 -->
<g id="edge8" class="edge">
<title>Node6&#45;&gt;Node9</title>
<path fill="none" stroke="midnightblue" d="M558.25,-111.06C570.47,-112.78 583.92,-114.66 596.68,-116.45"/>
<polygon fill="midnightblue" stroke="midnightblue" points="596.35,-119.94 606.74,-117.86 597.32,-113.01 596.35,-119.94"/>
</g>
<!-- Node13 -->
<g id="node13" class="node">
<title>Node13</title>
<g id="a_node13"><a xlink:href="swdsm_8cpp_a974f1a03f5461bb989248cceb41cd95b.html#a974f1a03f5461bb989248cceb41cd95b" target="_top" xlink:title="Gets the offset of an address on the local nodes part of the global memory.">
<polygon fill="white" stroke="black" points="619,-76.5 619,-95.5 684,-95.5 684,-76.5 619,-76.5"/>
<text text-anchor="middle" x="651.5" y="-83.5" font-family="Helvetica,sans-Serif" font-size="10.00">get_offset</text>
</a>
</g>
</g>
<!-- Node6&#45;&gt;Node13 -->
<g id="edge12" class="edge">
<title>Node6&#45;&gt;Node13</title>
<path fill="none" stroke="midnightblue" d="M558.25,-98.94C574.38,-96.67 592.66,-94.11 608.67,-91.87"/>
<polygon fill="midnightblue" stroke="midnightblue" points="609.4,-95.3 618.82,-90.44 608.43,-88.37 609.4,-95.3"/>
</g>
<!-- Node15 -->
<g id="node15" class="node">
<title>Node15</title>
<g id="a_node15"><a xlink:href="classmpi__lock_a67301b26c3bb28c746e164c9f531d21d.html#a67301b26c3bb28c746e164c9f531d21d" target="_top" xlink:title="acquire mpi_lock">
<polygon fill="white" stroke="black" points="608,-38.5 608,-57.5 695,-57.5 695,-38.5 608,-38.5"/>
<text text-anchor="middle" x="651.5" y="-45.5" font-family="Helvetica,sans-Serif" font-size="10.00">mpi_lock::lock</text>
</a>
</g>
</g>
<!-- Node6&#45;&gt;Node15 -->
<g id="edge15" class="edge">
<title>Node6&#45;&gt;Node15</title>
<path fill="none" stroke="midnightblue" d="M533.22,-95.44C549.05,-87.32 572.71,-75.66 594,-67 599.15,-64.9 604.63,-62.85 610.07,-60.91"/>
<polygon fill="midnightblue" stroke="midnightblue" points="611.44,-64.14 619.75,-57.57 609.16,-57.53 611.44,-64.14"/>
</g>
<!-- Node16 -->
<g id="node16" class="node">
<title>Node16</title>
<g id="a_node16"><a xlink:href="classmpi__lock_a38cb3649cba54a2818810c444a8b475a.html#a38cb3649cba54a2818810c444a8b475a" target="_top" xlink:title="release mpi_lock">
<polygon fill="white" stroke="black" points="602,-0.5 602,-19.5 701,-19.5 701,-0.5 602,-0.5"/>
<text text-anchor="middle" x="651.5" y="-7.5" font-family="Helvetica,sans-Serif" font-size="10.00">mpi_lock::unlock</text>
</a>
</g>
</g>
<!-- Node6&#45;&gt;Node16 -->
<g id="edge16" class="edge">
<title>Node6&#45;&gt;Node16</title>
<path fill="none" stroke="midnightblue" d="M522.49,-95.44C535.44,-79.5 563.57,-47.46 594,-29 597.39,-26.95 601.02,-25.08 604.76,-23.39"/>
<polygon fill="midnightblue" stroke="midnightblue" points="606.23,-26.58 614.17,-19.57 603.59,-20.09 606.23,-26.58"/>
</g>
<!-- Node10 -->
<g id="node10" class="node">
<title>Node10</title>
<g id="a_node10"><a xlink:href="classargo_1_1data__distribution_1_1global__ptr_ac7d651586337d08cda18ef26ffcd34a0.html#ac7d651586337d08cda18ef26ffcd34a0" target="_top" xlink:title="return the home node of the value pointed to">
<polygon fill="white" stroke="black" points="745,-114 745,-144 872,-144 872,-114 745,-114"/>
<text text-anchor="start" x="753" y="-132" font-family="Helvetica,sans-Serif" font-size="10.00">argo::data_distribution</text>
<text text-anchor="middle" x="808.5" y="-121" font-family="Helvetica,sans-Serif" font-size="10.00">::global_ptr::node</text>
</a>
</g>
</g>
<!-- Node9&#45;&gt;Node10 -->
<g id="edge9" class="edge">
<title>Node9&#45;&gt;Node10</title>
<path fill="none" stroke="midnightblue" d="M696.09,-125.41C708.15,-125.8 721.57,-126.23 734.81,-126.66"/>
<polygon fill="midnightblue" stroke="midnightblue" points="734.76,-130.16 744.86,-126.98 734.98,-123.16 734.76,-130.16"/>
</g>
<!-- Node11 -->
<g id="node11" class="node">
<title>Node11</title>
<g id="a_node11"><a xlink:href="classargo_1_1data__distribution_1_1global__ptr_ae4353680349f6abbd2cf262dace8e2f2.html#ae4353680349f6abbd2cf262dace8e2f2" target="_top" xlink:title="return a pointer to the selected allocation policy">
<polygon fill="white" stroke="black" points="908,-89 908,-119 1035,-119 1035,-89 908,-89"/>
<text text-anchor="start" x="916" y="-107" font-family="Helvetica,sans-Serif" font-size="10.00">argo::data_distribution</text>
<text text-anchor="middle" x="971.5" y="-96" font-family="Helvetica,sans-Serif" font-size="10.00">::global_ptr::policy</text>
</a>
</g>
</g>
<!-- Node10&#45;&gt;Node11 -->
<g id="edge10" class="edge">
<title>Node10&#45;&gt;Node11</title>
<path fill="none" stroke="midnightblue" d="M872.21,-119.26C880.65,-117.95 889.36,-116.6 897.96,-115.26"/>
<polygon fill="midnightblue" stroke="midnightblue" points="898.62,-118.7 907.96,-113.71 897.54,-111.79 898.62,-118.7"/>
</g>
<!-- Node12 -->
<g id="node12" class="node">
<title>Node12</title>
<g id="a_node12"><a xlink:href="namespaceargo_1_1env_a25a08cb2d0d11432d640ec7173063339.html#a25a08cb2d0d11432d640ec7173063339" target="_top" xlink:title="get the allocation policy requested by environment variable">
<polygon fill="white" stroke="black" points="1071,-89 1071,-119 1187,-119 1187,-89 1071,-89"/>
<text text-anchor="start" x="1079" y="-107" font-family="Helvetica,sans-Serif" font-size="10.00">argo::env::allocation</text>
<text text-anchor="middle" x="1129" y="-96" font-family="Helvetica,sans-Serif" font-size="10.00">_policy</text>
</a>
</g>
</g>
<!-- Node11&#45;&gt;Node12 -->
<g id="edge11" class="edge">
<title>Node11&#45;&gt;Node12</title>
<path fill="none" stroke="midnightblue" d="M1035.3,-104C1043.69,-104 1052.32,-104 1060.78,-104"/>
<polygon fill="midnightblue" stroke="midnightblue" points="1060.99,-107.5 1070.99,-104 1060.99,-100.5 1060.99,-107.5"/>
</g>
<!-- Node14 -->
<g id="node14" class="node">
<title>Node14</title>
<g id="a_node14"><a xlink:href="classargo_1_1data__distribution_1_1global__ptr_ad8c21c408fa2b926cfd9acfd87e8e4e6.html#ad8c21c408fa2b926cfd9acfd87e8e4e6" target="_top" xlink:title="return the offset on the home node&#39;s local memory share">
<polygon fill="white" stroke="black" points="745,-65 745,-95 872,-95 872,-65 745,-65"/>
<text text-anchor="start" x="753" y="-83" font-family="Helvetica,sans-Serif" font-size="10.00">argo::data_distribution</text>
<text text-anchor="middle" x="808.5" y="-72" font-family="Helvetica,sans-Serif" font-size="10.00">::global_ptr::offset</text>
</a>
</g>
</g>
<!-- Node13&#45;&gt;Node14 -->
<g id="edge13" class="edge">
<title>Node13&#45;&gt;Node14</title>
<path fill="none" stroke="midnightblue" d="M684.24,-84.77C698.83,-84.21 716.78,-83.51 734.43,-82.83"/>
<polygon fill="midnightblue" stroke="midnightblue" points="734.9,-86.31 744.75,-82.43 734.63,-79.32 734.9,-86.31"/>
</g>
<!-- Node14&#45;&gt;Node11 -->
<g id="edge14" class="edge">
<title>Node14&#45;&gt;Node11</title>
<path fill="none" stroke="midnightblue" d="M872.21,-89.35C880.65,-90.61 889.36,-91.91 897.96,-93.19"/>
<polygon fill="midnightblue" stroke="midnightblue" points="897.56,-96.67 907.96,-94.68 898.59,-89.74 897.56,-96.67"/>
</g>
</g>
</svg>
        <g id="navigator" transform="translate(0 0)" fill="#404254">
                <rect fill="#f2f5e9" fill-opacity="0.5" stroke="#606060" stroke-width=".5" x="0" y="0" width="60" height="60"/>
                <use id="zoomplus" xlink:href="#zoomPlus" x="17" y="9" onmousedown="handleZoom(evt,'in')"/>
                <use id="zoomminus" xlink:href="#zoomMin" x="42" y="9" onmousedown="handleZoom(evt,'out')"/>
                <use id="reset" xlink:href="#resetDef" x="30" y="36" onmousedown="handleReset()"/>
                <g id="arrowUp" xlink:href="#dirArrow" transform="translate(30 24)" onmousedown="handlePan(0,-1)">
                  <use xlink:href="#rim" fill="#404040">
                        <set attributeName="fill" to="#808080" begin="arrowUp.mouseover" end="arrowUp.mouseout"/>
                  </use>
                  <path fill="none" stroke="white" stroke-width="1.5" d="M0,-3.0v7 M-2.5,-0.5L0,-3.0L2.5,-0.5"/>
                </g>
                <g id="arrowRight" xlink:href="#dirArrow" transform="rotate(90) translate(36 -43)" onmousedown="handlePan(1,0)">
                  <use xlink:href="#rim" fill="#404040">
                        <set attributeName="fill" to="#808080" begin="arrowRight.mouseover" end="arrowRight.mouseout"/>
                  </use>
                  <path fill="none" stroke="white" stroke-width="1.5" d="M0,-3.0v7 M-2.5,-0.5L0,-3.0L2.5,-0.5"/>
                </g>
                <g id="arrowDown" xlink:href="#dirArrow" transform="rotate(180) translate(-30 -48)" onmousedown="handlePan(0,1)">
                  <use xlink:href="#rim" fill="#404040">
                        <set attributeName="fill" to="#808080" begin="arrowDown.mouseover" end="arrowDown.mouseout"/>
                  </use>
                  <path fill="none" stroke="white" stroke-width="1.5" d="M0,-3.0v7 M-2.5,-0.5L0,-3.0L2.5,-0.5"/>
                </g>
                <g id="arrowLeft" xlink:href="#dirArrow" transform="rotate(270) translate(-36 17)" onmousedown="handlePan(-1,0)">
                  <use xlink:href="#rim" fill="#404040">
                        <set attributeName="fill" to="#808080" begin="arrowLeft.mouseover" end="arrowLeft.mouseout"/>
                  </use>
                  <path fill="none" stroke="white" stroke-width="1.5" d="M0,-3.0v7 M-2.5,-0.5L0,-3.0L2.5,-0.5"/>
                </g>
        </g>
        <svg viewBox="0 0 15 15" width="100%" height="30px" preserveAspectRatio="xMaxYMin meet">
         <g id="arrow_out" transform="scale(0.3 0.3)">
          <a xlink:href="classwrite__buffer_a327be1f65770b56442b1e8ee967be23d_a327be1f65770b56442b1e8ee967be23d_cgraph_org.svg" target="_base">
           <rect id="button" ry="5" rx="5" y="6" x="6" height="38" width="38"
                fill="#f2f5e9" fill-opacity="0.5" stroke="#606060" stroke-width="1.0"/>
           <path id="arrow"
             d="M 11.500037,31.436501 C 11.940474,20.09759 22.043105,11.32322 32.158766,21.979434 L 37.068811,17.246167 C 37.068811,17.246167 37.088388,32 37.088388,32 L 22.160133,31.978069 C 22.160133,31.978069 26.997745,27.140456 26.997745,27.140456 C 18.528582,18.264221 13.291696,25.230495 11.500037,31.436501 z"
             style="fill:#404040;"/>
          </a>
         </g>
        </svg>
</svg>
