<?xml version="1.0" encoding="UTF-8" standalone="no"?>
<!DOCTYPE svg PUBLIC "-//W3C//DTD SVG 1.1//EN"
 "http://www.w3.org/Graphics/SVG/1.1/DTD/svg11.dtd">
<!-- Generated by graphviz version 2.43.0 (0)
 -->
<!-- Title: write_buffer::_flush_helper Pages: 1 -->
<svg width="1166pt" height="218pt"
 viewBox="0.00 0.00 1166.00 218.00" xmlns="http://www.w3.org/2000/svg" xmlns:xlink="http://www.w3.org/1999/xlink">
<g id="graph0" class="graph" transform="scale(1 1) rotate(0) translate(4 214)">
<title>write_buffer::_flush_helper</title>
<polygon fill="white" stroke="transparent" points="-4,4 -4,-214 1162,-214 1162,4 -4,4"/>
<!-- Node1 -->
<g id="node1" class="node">
<title>Node1</title>
<g id="a_node1"><a xlink:title="Helper function to call _flush.">
<polygon fill="#bfbfbf" stroke="black" points="0,-134 0,-164 110,-164 110,-134 0,-134"/>
<text text-anchor="start" x="8" y="-152" font-family="Helvetica,sans-Serif" font-size="10.00">write_buffer::_flush</text>
<text text-anchor="middle" x="55" y="-141" font-family="Helvetica,sans-Serif" font-size="10.00">_helper</text>
</a>
</g>
</g>
<!-- Node2 -->
<g id="node2" class="node">
<title>Node2</title>
<g id="a_node2"><a xlink:href="classwrite__buffer_ad01396b3a57acdae3d76a31ae6253f48.html#ad01396b3a57acdae3d76a31ae6253f48" target="_top" xlink:title="Internal implementation of flush.">
<polygon fill="white" stroke="black" points="146,-139.5 146,-158.5 256,-158.5 256,-139.5 146,-139.5"/>
<text text-anchor="middle" x="201" y="-146.5" font-family="Helvetica,sans-Serif" font-size="10.00">write_buffer::_flush</text>
</a>
</g>
</g>
<!-- Node1&#45;&gt;Node2 -->
<g id="edge1" class="edge">
<title>Node1&#45;&gt;Node2</title>
<path fill="none" stroke="midnightblue" d="M110.03,-149C118.31,-149 126.94,-149 135.42,-149"/>
<polygon fill="midnightblue" stroke="midnightblue" points="135.67,-152.5 145.67,-149 135.67,-145.5 135.67,-152.5"/>
</g>
<!-- Node3 -->
<g id="node3" class="node">
<title>Node3</title>
<g id="a_node3"><a xlink:href="classwrite__buffer_a3a8044d07151ac96722c00acd0dd3e18.html#a3a8044d07151ac96722c00acd0dd3e18" target="_top" xlink:title="Check if the write buffer is empty.">
<polygon fill="white" stroke="black" points="292,-177.5 292,-196.5 405,-196.5 405,-177.5 292,-177.5"/>
<text text-anchor="middle" x="348.5" y="-184.5" font-family="Helvetica,sans-Serif" font-size="10.00">write_buffer::empty</text>
</a>
</g>
</g>
<!-- Node2&#45;&gt;Node3 -->
<g id="edge2" class="edge">
<title>Node2&#45;&gt;Node3</title>
<path fill="none" stroke="midnightblue" d="M238.72,-158.59C257.66,-163.54 280.96,-169.62 301.13,-174.89"/>
<polygon fill="midnightblue" stroke="midnightblue" points="300.49,-178.34 311.05,-177.48 302.26,-171.57 300.49,-178.34"/>
</g>
<!-- Node4 -->
<g id="node4" class="node">
<title>Node4</title>
<g id="a_node4"><a xlink:href="classwrite__buffer_ae065d3ee59035ad508eb8ce6670d2c89.html#ae065d3ee59035ad508eb8ce6670d2c89" target="_top" xlink:title="Removes the front element from the buffer and returns it.">
<polygon fill="white" stroke="black" points="299,-139.5 299,-158.5 398,-158.5 398,-139.5 299,-139.5"/>
<text text-anchor="middle" x="348.5" y="-146.5" font-family="Helvetica,sans-Serif" font-size="10.00">write_buffer::pop</text>
</a>
</g>
</g>
<!-- Node2&#45;&gt;Node4 -->
<g id="edge3" class="edge">
<title>Node2&#45;&gt;Node4</title>
<path fill="none" stroke="midnightblue" d="M256.18,-149C266.71,-149 277.8,-149 288.48,-149"/>
<polygon fill="midnightblue" stroke="midnightblue" points="288.56,-152.5 298.56,-149 288.56,-145.5 288.56,-152.5"/>
</g>
<!-- Node5 -->
<g id="node5" class="node">
<title>Node5</title>
<g id="a_node5"><a xlink:href="classwrite__buffer_a066de0a724f3f13272780ad7ca8e6502.html#a066de0a724f3f13272780ad7ca8e6502" target="_top" xlink:title="Perform writeback of a single cached page.">
<polygon fill="white" stroke="black" points="295.5,-90 295.5,-120 401.5,-120 401.5,-90 295.5,-90"/>
<text text-anchor="start" x="303.5" y="-108" font-family="Helvetica,sans-Serif" font-size="10.00">write_buffer::write</text>
<text text-anchor="middle" x="348.5" y="-97" font-family="Helvetica,sans-Serif" font-size="10.00">_back_index</text>
</a>
</g>
</g>
<!-- Node2&#45;&gt;Node5 -->
<g id="edge4" class="edge">
<title>Node2&#45;&gt;Node5</title>
<path fill="none" stroke="midnightblue" d="M233.57,-139.45C249.51,-134.63 269.39,-128.62 288.06,-122.98"/>
<polygon fill="midnightblue" stroke="midnightblue" points="289.12,-126.31 297.68,-120.07 287.1,-119.61 289.12,-126.31"/>
</g>
<!-- Node6 -->
<g id="node6" class="node">
<title>Node6</title>
<g id="a_node6"><a xlink:href="swdsm_8cpp_a3b6a6b2b244edb9faa79814ce8e5e9f5.html#a3b6a6b2b244edb9faa79814ce8e5e9f5" target="_top" xlink:title="stores a page remotely &#45; only writing back what has been written locally since last synchronization p...">
<polygon fill="white" stroke="black" points="441,-95.5 441,-114.5 529,-114.5 529,-95.5 441,-95.5"/>
<text text-anchor="middle" x="485" y="-102.5" font-family="Helvetica,sans-Serif" font-size="10.00">storepageDIFF</text>
</a>
</g>
</g>
<!-- Node5&#45;&gt;Node6 -->
<g id="edge5" class="edge">
<title>Node5&#45;&gt;Node6</title>
<path fill="none" stroke="midnightblue" d="M401.5,-105C411.06,-105 421.04,-105 430.64,-105"/>
<polygon fill="midnightblue" stroke="midnightblue" points="430.85,-108.5 440.85,-105 430.85,-101.5 430.85,-108.5"/>
</g>
<!-- Node7 -->
<g id="node7" class="node">
<title>Node7</title>
<g id="a_node7"><a xlink:href="swdsm_8cpp_af5bb31046df1aef1cccf72f19fe63640.html#af5bb31046df1aef1cccf72f19fe63640" target="_top" xlink:title="Gets the data window index based on the offset into the node&#39;s backing store.">
<polygon fill="white" stroke="black" points="565.5,-190.5 565.5,-209.5 679.5,-209.5 679.5,-190.5 565.5,-190.5"/>
<text text-anchor="middle" x="622.5" y="-197.5" font-family="Helvetica,sans-Serif" font-size="10.00">get_data_win_index</text>
</a>
</g>
</g>
<!-- Node6&#45;&gt;Node7 -->
<g id="edge6" class="edge">
<title>Node6&#45;&gt;Node7</title>
<path fill="none" stroke="midnightblue" d="M493.49,-114.56C506.44,-130.5 534.57,-162.54 565,-181 568.39,-183.05 572.02,-184.92 575.76,-186.61"/>
<polygon fill="midnightblue" stroke="midnightblue" points="574.59,-189.91 585.17,-190.43 577.23,-183.42 574.59,-189.91"/>
</g>
<!-- Node8 -->
<g id="node8" class="node">
<title>Node8</title>
<g id="a_node8"><a xlink:href="swdsm_8cpp_a3f19b1fc7fe36a6eabdae48e53fb66fa.html#a3f19b1fc7fe36a6eabdae48e53fb66fa" target="_top" xlink:title="Gets the sharer window offset based on the classification index.">
<polygon fill="white" stroke="black" points="565,-152.5 565,-171.5 680,-171.5 680,-152.5 565,-152.5"/>
<text text-anchor="middle" x="622.5" y="-159.5" font-family="Helvetica,sans-Serif" font-size="10.00">get_data_win_offset</text>
</a>
</g>
</g>
<!-- Node6&#45;&gt;Node8 -->
<g id="edge7" class="edge">
<title>Node6&#45;&gt;Node8</title>
<path fill="none" stroke="midnightblue" d="M504.22,-114.56C520.05,-122.68 543.71,-134.34 565,-143 570.15,-145.1 575.63,-147.15 581.07,-149.09"/>
<polygon fill="midnightblue" stroke="midnightblue" points="580.16,-152.47 590.75,-152.43 582.44,-145.86 580.16,-152.47"/>
</g>
<!-- Node9 -->
<g id="node9" class="node">
<title>Node9</title>
<g id="a_node9"><a xlink:href="swdsm_8cpp_ab2e5fbbe4d1f44d25619f290dc37dd3e.html#ab2e5fbbe4d1f44d25619f290dc37dd3e" target="_top" xlink:title="Gives homenode for a given address.">
<polygon fill="white" stroke="black" points="578,-114.5 578,-133.5 667,-133.5 667,-114.5 578,-114.5"/>
<text text-anchor="middle" x="622.5" y="-121.5" font-family="Helvetica,sans-Serif" font-size="10.00">get_homenode</text>
</a>
</g>
</g>
<!-- Node6&#45;&gt;Node9 -->
<g id="edge8" class="edge">
<title>Node6&#45;&gt;Node9</title>
<path fill="none" stroke="midnightblue" d="M529.25,-111.06C541.47,-112.78 554.92,-114.66 567.68,-116.45"/>
<polygon fill="midnightblue" stroke="midnightblue" points="567.35,-119.94 577.74,-117.86 568.32,-113.01 567.35,-119.94"/>
</g>
<!-- Node13 -->
<g id="node13" class="node">
<title>Node13</title>
<g id="a_node13"><a xlink:href="swdsm_8cpp_a974f1a03f5461bb989248cceb41cd95b.html#a974f1a03f5461bb989248cceb41cd95b" target="_top" xlink:title="Gets the offset of an address on the local nodes part of the global memory.">
<polygon fill="white" stroke="black" points="590,-76.5 590,-95.5 655,-95.5 655,-76.5 590,-76.5"/>
<text text-anchor="middle" x="622.5" y="-83.5" font-family="Helvetica,sans-Serif" font-size="10.00">get_offset</text>
</a>
</g>
</g>
<!-- Node6&#45;&gt;Node13 -->
<g id="edge12" class="edge">
<title>Node6&#45;&gt;Node13</title>
<path fill="none" stroke="midnightblue" d="M529.25,-98.94C545.38,-96.67 563.66,-94.11 579.67,-91.87"/>
<polygon fill="midnightblue" stroke="midnightblue" points="580.4,-95.3 589.82,-90.44 579.43,-88.37 580.4,-95.3"/>
</g>
<!-- Node15 -->
<g id="node15" class="node">
<title>Node15</title>
<g id="a_node15"><a xlink:href="classmpi__lock_a67301b26c3bb28c746e164c9f531d21d.html#a67301b26c3bb28c746e164c9f531d21d" target="_top" xlink:title="acquire mpi_lock">
<polygon fill="white" stroke="black" points="579,-38.5 579,-57.5 666,-57.5 666,-38.5 579,-38.5"/>
<text text-anchor="middle" x="622.5" y="-45.5" font-family="Helvetica,sans-Serif" font-size="10.00">mpi_lock::lock</text>
</a>
</g>
</g>
<!-- Node6&#45;&gt;Node15 -->
<g id="edge15" class="edge">
<title>Node6&#45;&gt;Node15</title>
<path fill="none" stroke="midnightblue" d="M504.22,-95.44C520.05,-87.32 543.71,-75.66 565,-67 570.15,-64.9 575.63,-62.85 581.07,-60.91"/>
<polygon fill="midnightblue" stroke="midnightblue" points="582.44,-64.14 590.75,-57.57 580.16,-57.53 582.44,-64.14"/>
</g>
<!-- Node16 -->
<g id="node16" class="node">
<title>Node16</title>
<g id="a_node16"><a xlink:href="classmpi__lock_a38cb3649cba54a2818810c444a8b475a.html#a38cb3649cba54a2818810c444a8b475a" target="_top" xlink:title="release mpi_lock">
<polygon fill="white" stroke="black" points="573,-0.5 573,-19.5 672,-19.5 672,-0.5 573,-0.5"/>
<text text-anchor="middle" x="622.5" y="-7.5" font-family="Helvetica,sans-Serif" font-size="10.00">mpi_lock::unlock</text>
</a>
</g>
</g>
<!-- Node6&#45;&gt;Node16 -->
<g id="edge16" class="edge">
<title>Node6&#45;&gt;Node16</title>
<path fill="none" stroke="midnightblue" d="M493.49,-95.44C506.44,-79.5 534.57,-47.46 565,-29 568.39,-26.95 572.02,-25.08 575.76,-23.39"/>
<polygon fill="midnightblue" stroke="midnightblue" points="577.23,-26.58 585.17,-19.57 574.59,-20.09 577.23,-26.58"/>
</g>
<!-- Node10 -->
<g id="node10" class="node">
<title>Node10</title>
<g id="a_node10"><a xlink:href="classargo_1_1data__distribution_1_1global__ptr_ac7d651586337d08cda18ef26ffcd34a0.html#ac7d651586337d08cda18ef26ffcd34a0" target="_top" xlink:title="return the home node of the value pointed to">
<polygon fill="white" stroke="black" points="716,-114 716,-144 843,-144 843,-114 716,-114"/>
<text text-anchor="start" x="724" y="-132" font-family="Helvetica,sans-Serif" font-size="10.00">argo::data_distribution</text>
<text text-anchor="middle" x="779.5" y="-121" font-family="Helvetica,sans-Serif" font-size="10.00">::global_ptr::node</text>
</a>
</g>
</g>
<!-- Node9&#45;&gt;Node10 -->
<g id="edge9" class="edge">
<title>Node9&#45;&gt;Node10</title>
<path fill="none" stroke="midnightblue" d="M667.09,-125.41C679.15,-125.8 692.57,-126.23 705.81,-126.66"/>
<polygon fill="midnightblue" stroke="midnightblue" points="705.76,-130.16 715.86,-126.98 705.98,-123.16 705.76,-130.16"/>
</g>
<!-- Node11 -->
<g id="node11" class="node">
<title>Node11</title>
<g id="a_node11"><a xlink:href="classargo_1_1data__distribution_1_1global__ptr_ae4353680349f6abbd2cf262dace8e2f2.html#ae4353680349f6abbd2cf262dace8e2f2" target="_top" xlink:title="return a pointer to the selected allocation policy">
<polygon fill="white" stroke="black" points="879,-89 879,-119 1006,-119 1006,-89 879,-89"/>
<text text-anchor="start" x="887" y="-107" font-family="Helvetica,sans-Serif" font-size="10.00">argo::data_distribution</text>
<text text-anchor="middle" x="942.5" y="-96" font-family="Helvetica,sans-Serif" font-size="10.00">::global_ptr::policy</text>
</a>
</g>
</g>
<!-- Node10&#45;&gt;Node11 -->
<g id="edge10" class="edge">
<title>Node10&#45;&gt;Node11</title>
<path fill="none" stroke="midnightblue" d="M843.21,-119.26C851.65,-117.95 860.36,-116.6 868.96,-115.26"/>
<polygon fill="midnightblue" stroke="midnightblue" points="869.62,-118.7 878.96,-113.71 868.54,-111.79 869.62,-118.7"/>
</g>
<!-- Node12 -->
<g id="node12" class="node">
<title>Node12</title>
<g id="a_node12"><a xlink:href="namespaceargo_1_1env_a25a08cb2d0d11432d640ec7173063339.html#a25a08cb2d0d11432d640ec7173063339" target="_top" xlink:title="get the allocation policy requested by environment variable">
<polygon fill="white" stroke="black" points="1042,-89 1042,-119 1158,-119 1158,-89 1042,-89"/>
<text text-anchor="start" x="1050" y="-107" font-family="Helvetica,sans-Serif" font-size="10.00">argo::env::allocation</text>
<text text-anchor="middle" x="1100" y="-96" font-family="Helvetica,sans-Serif" font-size="10.00">_policy</text>
</a>
</g>
</g>
<!-- Node11&#45;&gt;Node12 -->
<g id="edge11" class="edge">
<title>Node11&#45;&gt;Node12</title>
<path fill="none" stroke="midnightblue" d="M1006.3,-104C1014.69,-104 1023.32,-104 1031.78,-104"/>
<polygon fill="midnightblue" stroke="midnightblue" points="1031.99,-107.5 1041.99,-104 1031.99,-100.5 1031.99,-107.5"/>
</g>
<!-- Node14 -->
<g id="node14" class="node">
<title>Node14</title>
<g id="a_node14"><a xlink:href="classargo_1_1data__distribution_1_1global__ptr_ad8c21c408fa2b926cfd9acfd87e8e4e6.html#ad8c21c408fa2b926cfd9acfd87e8e4e6" target="_top" xlink:title="return the offset on the home node&#39;s local memory share">
<polygon fill="white" stroke="black" points="716,-65 716,-95 843,-95 843,-65 716,-65"/>
<text text-anchor="start" x="724" y="-83" font-family="Helvetica,sans-Serif" font-size="10.00">argo::data_distribution</text>
<text text-anchor="middle" x="779.5" y="-72" font-family="Helvetica,sans-Serif" font-size="10.00">::global_ptr::offset</text>
</a>
</g>
</g>
<!-- Node13&#45;&gt;Node14 -->
<g id="edge13" class="edge">
<title>Node13&#45;&gt;Node14</title>
<path fill="none" stroke="midnightblue" d="M655.24,-84.77C669.83,-84.21 687.78,-83.51 705.43,-82.83"/>
<polygon fill="midnightblue" stroke="midnightblue" points="705.9,-86.31 715.75,-82.43 705.63,-79.32 705.9,-86.31"/>
</g>
<!-- Node14&#45;&gt;Node11 -->
<g id="edge14" class="edge">
<title>Node14&#45;&gt;Node11</title>
<path fill="none" stroke="midnightblue" d="M843.21,-89.35C851.65,-90.61 860.36,-91.91 868.96,-93.19"/>
<polygon fill="midnightblue" stroke="midnightblue" points="868.56,-96.67 878.96,-94.68 869.59,-89.74 868.56,-96.67"/>
</g>
</g>
</svg>
