<?xml version="1.0" encoding="UTF-8" standalone="no"?>
<!DOCTYPE svg PUBLIC "-//W3C//DTD SVG 1.1//EN"
 "http://www.w3.org/Graphics/SVG/1.1/DTD/svg11.dtd">
<!-- Generated by graphviz version 2.43.0 (0)
 -->
<!-- Title: argo::globallock::global_tas_lock::try_lock Pages: 1 -->
<svg width="638pt" height="137pt"
 viewBox="0.00 0.00 638.00 137.00" xmlns="http://www.w3.org/2000/svg" xmlns:xlink="http://www.w3.org/1999/xlink">
<g id="graph0" class="graph" transform="scale(1 1) rotate(0) translate(4 133)">
<title>argo::globallock::global_tas_lock::try_lock</title>
<polygon fill="white" stroke="transparent" points="-4,4 -4,-133 634,-133 634,4 -4,4"/>
<!-- Node1 -->
<g id="node1" class="node">
<title>Node1</title>
<g id="a_node1"><a xlink:title="try to lock">
<polygon fill="#bfbfbf" stroke="black" points="499,-49.5 499,-79.5 630,-79.5 630,-49.5 499,-49.5"/>
<text text-anchor="start" x="507" y="-67.5" font-family="Helvetica,sans-Serif" font-size="10.00">argo::globallock::global</text>
<text text-anchor="middle" x="564.5" y="-56.5" font-family="Helvetica,sans-Serif" font-size="10.00">_tas_lock::try_lock</text>
</a>
</g>
</g>
<!-- Node2 -->
<g id="node2" class="node">
<title>Node2</title>
<g id="a_node2"><a xlink:href="classargo_1_1globallock_1_1global__tas__lock_ae1a2cc75c9371ed191ac68f4e72f227e.html#ae1a2cc75c9371ed191ac68f4e72f227e" target="_top" xlink:title="take the lock">
<polygon fill="white" stroke="black" points="332,-49.5 332,-79.5 463,-79.5 463,-49.5 332,-49.5"/>
<text text-anchor="start" x="340" y="-67.5" font-family="Helvetica,sans-Serif" font-size="10.00">argo::globallock::global</text>
<text text-anchor="middle" x="397.5" y="-56.5" font-family="Helvetica,sans-Serif" font-size="10.00">_tas_lock::lock</text>
</a>
</g>
</g>
<!-- Node1&#45;&gt;Node2 -->
<g id="edge1" class="edge">
<title>Node1&#45;&gt;Node2</title>
<path fill="none" stroke="midnightblue" d="M488.76,-64.5C480.18,-64.5 471.48,-64.5 463.05,-64.5"/>
<polygon fill="midnightblue" stroke="midnightblue" points="488.76,-68 498.76,-64.5 488.76,-61 488.76,-68"/>
</g>
<!-- Node3 -->
<g id="node3" class="node">
<title>Node3</title>
<g id="a_node3"><a xlink:href="classargo_1_1mempools_1_1global__memory__pool_ac37f5714010e1f4b482e6c6a8a246c05.html#ac37f5714010e1f4b482e6c6a8a246c05" target="_top" xlink:title="check remaining available memory in pool">
<polygon fill="white" stroke="black" points="156,-98.5 156,-128.5 296,-128.5 296,-98.5 156,-98.5"/>
<text text-anchor="start" x="164" y="-116.5" font-family="Helvetica,sans-Serif" font-size="10.00">argo::mempools::global</text>
<text text-anchor="middle" x="226" y="-105.5" font-family="Helvetica,sans-Serif" font-size="10.00">_memory_pool::available</text>
</a>
</g>
</g>
<!-- Node2&#45;&gt;Node3 -->
<g id="edge2" class="edge">
<title>Node2&#45;&gt;Node3</title>
<path fill="none" stroke="midnightblue" d="M334.6,-82.39C316.37,-87.66 296.61,-93.38 279.07,-98.45"/>
<polygon fill="midnightblue" stroke="midnightblue" points="335.63,-85.74 344.26,-79.6 333.68,-79.02 335.63,-85.74"/>
</g>
<!-- Node5 -->
<g id="node5" class="node">
<title>Node5</title>
<g id="a_node5"><a xlink:href="classargo_1_1globallock_1_1cohort__lock_ae6e70438d85a8ae5698d198ce11d9a89.html#ae6e70438d85a8ae5698d198ce11d9a89" target="_top" xlink:title="Acquire the lock.">
<polygon fill="white" stroke="black" points="160.5,-49.5 160.5,-79.5 291.5,-79.5 291.5,-49.5 160.5,-49.5"/>
<text text-anchor="start" x="168.5" y="-67.5" font-family="Helvetica,sans-Serif" font-size="10.00">argo::globallock::cohort</text>
<text text-anchor="middle" x="226" y="-56.5" font-family="Helvetica,sans-Serif" font-size="10.00">_lock::lock</text>
</a>
</g>
</g>
<!-- Node2&#45;&gt;Node5 -->
<g id="edge4" class="edge">
<title>Node2&#45;&gt;Node5</title>
<path fill="none" stroke="midnightblue" d="M321.93,-64.5C311.85,-64.5 301.56,-64.5 291.67,-64.5"/>
<polygon fill="midnightblue" stroke="midnightblue" points="321.94,-68 331.94,-64.5 321.94,-61 321.94,-68"/>
</g>
<!-- Node7 -->
<g id="node7" class="node">
<title>Node7</title>
<g id="a_node7"><a xlink:href="classargo_1_1mempools_1_1global__memory__pool_af2ce384d7ee177371521c875045c565c.html#af2ce384d7ee177371521c875045c565c" target="_top" xlink:title="Reserve more memory.">
<polygon fill="white" stroke="black" points="160,-0.5 160,-30.5 292,-30.5 292,-0.5 160,-0.5"/>
<text text-anchor="start" x="168" y="-18.5" font-family="Helvetica,sans-Serif" font-size="10.00">argo::mempools::global</text>
<text text-anchor="middle" x="226" y="-7.5" font-family="Helvetica,sans-Serif" font-size="10.00">_memory_pool::reserve</text>
</a>
</g>
</g>
<!-- Node2&#45;&gt;Node7 -->
<g id="edge6" class="edge">
<title>Node2&#45;&gt;Node7</title>
<path fill="none" stroke="midnightblue" d="M334.6,-46.61C316.37,-41.34 296.61,-35.62 279.07,-30.55"/>
<polygon fill="midnightblue" stroke="midnightblue" points="333.68,-49.98 344.26,-49.4 335.63,-43.26 333.68,-49.98"/>
</g>
<!-- Node4 -->
<g id="node4" class="node">
<title>Node4</title>
<g id="a_node4"><a xlink:href="tests_2allocators_8cpp_ab6f86a07c7fdc11016618b4a93bd5045.html#ab6f86a07c7fdc11016618b4a93bd5045" target="_top" xlink:title="Unittest that checks that the global address space is at least as large as requested.">
<polygon fill="white" stroke="black" points="34,-104 34,-123 86,-123 86,-104 34,-104"/>
<text text-anchor="middle" x="60" y="-111" font-family="Helvetica,sans-Serif" font-size="10.00">TEST_F</text>
</a>
</g>
</g>
<!-- Node3&#45;&gt;Node4 -->
<g id="edge3" class="edge">
<title>Node3&#45;&gt;Node4</title>
<path fill="none" stroke="midnightblue" d="M145.73,-113.5C124.19,-113.5 102.4,-113.5 86.31,-113.5"/>
<polygon fill="midnightblue" stroke="midnightblue" points="145.92,-117 155.92,-113.5 145.92,-110 145.92,-117"/>
</g>
<!-- Node6 -->
<g id="node6" class="node">
<title>Node6</title>
<g id="a_node6"><a xlink:href="cohort__lock_8cpp_a3518d9666b8fe266f34c7aea2b4a583e.html#a3518d9666b8fe266f34c7aea2b4a583e" target="_top" xlink:title="lock a cohort lock">
<polygon fill="white" stroke="black" points="0,-55 0,-74 120,-74 120,-55 0,-55"/>
<text text-anchor="middle" x="60" y="-62" font-family="Helvetica,sans-Serif" font-size="10.00">argo_cohortlock_lock</text>
</a>
</g>
</g>
<!-- Node5&#45;&gt;Node6 -->
<g id="edge5" class="edge">
<title>Node5&#45;&gt;Node6</title>
<path fill="none" stroke="midnightblue" d="M150.15,-64.5C140.05,-64.5 129.8,-64.5 120.02,-64.5"/>
<polygon fill="midnightblue" stroke="midnightblue" points="150.18,-68 160.18,-64.5 150.18,-61 150.18,-68"/>
</g>
</g>
</svg>
