<?xml version="1.0" encoding="UTF-8" standalone="no"?>
<!DOCTYPE svg PUBLIC "-//W3C//DTD SVG 1.1//EN"
 "http://www.w3.org/Graphics/SVG/1.1/DTD/svg11.dtd">
<!-- Generated by graphviz version 2.43.0 (0)
 -->
<!-- Title: argo::allocators::generic_allocator::free Pages: 1 -->
<svg width="638pt" height="224pt"
 viewBox="0.00 0.00 638.00 223.50" xmlns="http://www.w3.org/2000/svg" xmlns:xlink="http://www.w3.org/1999/xlink">
<g id="graph0" class="graph" transform="scale(1 1) rotate(0) translate(4 219.5)">
<title>argo::allocators::generic_allocator::free</title>
<polygon fill="white" stroke="transparent" points="-4,4 -4,-219.5 634,-219.5 634,4 -4,4"/>
<!-- Node1 -->
<g id="node1" class="node">
<title>Node1</title>
<g id="a_node1"><a xlink:title="free an allocated pointer">
<polygon fill="#bfbfbf" stroke="black" points="496,-52 496,-82 630,-82 630,-52 496,-52"/>
<text text-anchor="start" x="504" y="-70" font-family="Helvetica,sans-Serif" font-size="10.00">argo::allocators::generic</text>
<text text-anchor="middle" x="563" y="-59" font-family="Helvetica,sans-Serif" font-size="10.00">_allocator::free</text>
</a>
</g>
</g>
<!-- Node2 -->
<g id="node2" class="node">
<title>Node2</title>
<g id="a_node2"><a xlink:href="src_2allocators_2allocators_8cpp_a215edf4fe9276398650302b518c52baf.html#a215edf4fe9276398650302b518c52baf" target="_top" xlink:title="basic free function for collective allocations, for C interface">
<polygon fill="white" stroke="black" points="345.5,-133.5 345.5,-152.5 434.5,-152.5 434.5,-133.5 345.5,-133.5"/>
<text text-anchor="middle" x="390" y="-140.5" font-family="Helvetica,sans-Serif" font-size="10.00">collective_free</text>
</a>
</g>
</g>
<!-- Node1&#45;&gt;Node2 -->
<g id="edge1" class="edge">
<title>Node1&#45;&gt;Node2</title>
<path fill="none" stroke="midnightblue" d="M519.02,-86.1C485.18,-101.14 439.44,-121.47 412.79,-133.32"/>
<polygon fill="midnightblue" stroke="midnightblue" points="520.5,-89.27 528.22,-82.02 517.66,-82.88 520.5,-89.27"/>
</g>
<!-- Node8 -->
<g id="node8" class="node">
<title>Node8</title>
<g id="a_node8"><a xlink:href="src_2allocators_2allocators_8cpp_aedf7f793412ce612ef67c33098b25a8e.html#aedf7f793412ce612ef67c33098b25a8e" target="_top" xlink:title="basic free function for dynamic allocations, for C interface">
<polygon fill="white" stroke="black" points="348.5,-57.5 348.5,-76.5 431.5,-76.5 431.5,-57.5 348.5,-57.5"/>
<text text-anchor="middle" x="390" y="-64.5" font-family="Helvetica,sans-Serif" font-size="10.00">dynamic_free</text>
</a>
</g>
</g>
<!-- Node1&#45;&gt;Node8 -->
<g id="edge8" class="edge">
<title>Node1&#45;&gt;Node8</title>
<path fill="none" stroke="midnightblue" d="M485.65,-67C467.07,-67 447.91,-67 431.73,-67"/>
<polygon fill="midnightblue" stroke="midnightblue" points="485.89,-70.5 495.89,-67 485.89,-63.5 485.89,-70.5"/>
</g>
<!-- Node11 -->
<g id="node11" class="node">
<title>Node11</title>
<g id="a_node11"><a xlink:href="classargo_1_1allocators_1_1dynamic__allocator_af42fd4fcae7dc04fc7ea77e23a6cc5ff.html#af42fd4fcae7dc04fc7ea77e23a6cc5ff" target="_top" xlink:title="free an allocated pointer">
<polygon fill="white" stroke="black" points="320,-8 320,-38 460,-38 460,-8 320,-8"/>
<text text-anchor="start" x="328" y="-26" font-family="Helvetica,sans-Serif" font-size="10.00">argo::allocators::dynamic</text>
<text text-anchor="middle" x="390" y="-15" font-family="Helvetica,sans-Serif" font-size="10.00">_allocator::free</text>
</a>
</g>
</g>
<!-- Node1&#45;&gt;Node11 -->
<g id="edge14" class="edge">
<title>Node1&#45;&gt;Node11</title>
<path fill="none" stroke="midnightblue" d="M493.62,-49.41C478.97,-45.64 463.63,-41.69 449.4,-38.03"/>
<polygon fill="midnightblue" stroke="midnightblue" points="493.07,-52.88 503.63,-51.98 494.82,-46.1 493.07,-52.88"/>
</g>
<!-- Node3 -->
<g id="node3" class="node">
<title>Node3</title>
<g id="a_node3"><a xlink:href="namespaceargo_a09ca0ec2df9dbed721fb14b26cfa39a3.html#a09ca0ec2df9dbed721fb14b26cfa39a3" target="_top" xlink:title="template function to delete objects that were allocated using collective_new">
<polygon fill="white" stroke="black" points="179.5,-190.5 179.5,-209.5 271.5,-209.5 271.5,-190.5 179.5,-190.5"/>
<text text-anchor="middle" x="225.5" y="-197.5" font-family="Helvetica,sans-Serif" font-size="10.00">argo::codelete_</text>
</a>
</g>
</g>
<!-- Node2&#45;&gt;Node3 -->
<g id="edge2" class="edge">
<title>Node2&#45;&gt;Node3</title>
<path fill="none" stroke="midnightblue" d="M352.14,-155.93C322.24,-166.42 280.77,-180.96 253.79,-190.43"/>
<polygon fill="midnightblue" stroke="midnightblue" points="353.52,-159.15 361.8,-152.54 351.21,-152.55 353.52,-159.15"/>
</g>
<!-- Node5 -->
<g id="node5" class="node">
<title>Node5</title>
<g id="a_node5"><a xlink:href="tests_2allocators_8cpp_a13fc720238a04e385587d7b2cef0f3bc.html#a13fc720238a04e385587d7b2cef0f3bc" target="_top" xlink:title="Test if it is possible to delete a null pointer with no errors.">
<polygon fill="white" stroke="black" points="39.5,-111.5 39.5,-130.5 91.5,-130.5 91.5,-111.5 39.5,-111.5"/>
<text text-anchor="middle" x="65.5" y="-118.5" font-family="Helvetica,sans-Serif" font-size="10.00">TEST_F</text>
</a>
</g>
</g>
<!-- Node2&#45;&gt;Node5 -->
<g id="edge7" class="edge">
<title>Node2&#45;&gt;Node5</title>
<path fill="none" stroke="midnightblue" d="M335.32,-146.22C290.25,-148.16 224.23,-149.19 167,-143 141.07,-140.2 112.03,-133.43 91.86,-128.14"/>
<polygon fill="midnightblue" stroke="midnightblue" points="335.63,-149.71 345.46,-145.76 335.31,-142.72 335.63,-149.71"/>
</g>
<!-- Node6 -->
<g id="node6" class="node">
<title>Node6</title>
<g id="a_node6"><a xlink:href="namespaceargo_aa7e8ddf5784dd37c965cfd43cd65a330.html#aa7e8ddf5784dd37c965cfd43cd65a330" target="_top" xlink:title="Delete a globally collectively allocated array of objects.">
<polygon fill="white" stroke="black" points="167,-114.5 167,-133.5 284,-133.5 284,-114.5 167,-114.5"/>
<text text-anchor="middle" x="225.5" y="-121.5" font-family="Helvetica,sans-Serif" font-size="10.00">argo::codelete_array</text>
</a>
</g>
</g>
<!-- Node2&#45;&gt;Node6 -->
<g id="edge5" class="edge">
<title>Node2&#45;&gt;Node6</title>
<path fill="none" stroke="midnightblue" d="M335.48,-136.74C319.06,-134.82 300.92,-132.7 284.23,-130.75"/>
<polygon fill="midnightblue" stroke="midnightblue" points="335.11,-140.22 345.45,-137.91 335.93,-133.27 335.11,-140.22"/>
</g>
<!-- Node4 -->
<g id="node4" class="node">
<title>Node4</title>
<g id="a_node4"><a xlink:href="classargo_1_1globallock_1_1cohort__lock_a48e63a5ba24a93d3799a3993c663a30b.html#a48e63a5ba24a93d3799a3993c663a30b" target="_top" xlink:title=" ">
<polygon fill="white" stroke="black" points="0,-185 0,-215 131,-215 131,-185 0,-185"/>
<text text-anchor="start" x="8" y="-203" font-family="Helvetica,sans-Serif" font-size="10.00">argo::globallock::cohort</text>
<text text-anchor="middle" x="65.5" y="-192" font-family="Helvetica,sans-Serif" font-size="10.00">_lock::~cohort_lock</text>
</a>
</g>
</g>
<!-- Node3&#45;&gt;Node4 -->
<g id="edge3" class="edge">
<title>Node3&#45;&gt;Node4</title>
<path fill="none" stroke="midnightblue" d="M169.15,-200C156.9,-200 143.8,-200 131.21,-200"/>
<polygon fill="midnightblue" stroke="midnightblue" points="169.22,-203.5 179.22,-200 169.22,-196.5 169.22,-203.5"/>
</g>
<!-- Node3&#45;&gt;Node5 -->
<g id="edge4" class="edge">
<title>Node3&#45;&gt;Node5</title>
<path fill="none" stroke="midnightblue" d="M190.64,-186.56C182.8,-183.26 174.56,-179.63 167,-176 136.7,-161.44 102.61,-142.13 82.94,-130.69"/>
<polygon fill="midnightblue" stroke="midnightblue" points="189.33,-189.81 199.91,-190.4 192.01,-183.34 189.33,-189.81"/>
</g>
<!-- Node7 -->
<g id="node7" class="node">
<title>Node7</title>
<g id="a_node7"><a xlink:href="tests_2allocators_8cpp_a0571f7229f019db2f46d8f56bebd01d0.html#a0571f7229f019db2f46d8f56bebd01d0" target="_top" xlink:title="mixes dynamic and collective allocation and stores dynamic arrays in a collective arrays to communica...">
<polygon fill="white" stroke="black" points="39.5,-54.5 39.5,-73.5 91.5,-73.5 91.5,-54.5 39.5,-54.5"/>
<text text-anchor="middle" x="65.5" y="-61.5" font-family="Helvetica,sans-Serif" font-size="10.00">TEST_F</text>
</a>
</g>
</g>
<!-- Node6&#45;&gt;Node7 -->
<g id="edge6" class="edge">
<title>Node6&#45;&gt;Node7</title>
<path fill="none" stroke="midnightblue" d="M184.48,-111.17C178.6,-109.17 172.62,-107.07 167,-105 139.77,-94.96 108.93,-82.16 88.68,-73.56"/>
<polygon fill="midnightblue" stroke="midnightblue" points="183.63,-114.57 194.23,-114.43 185.85,-107.93 183.63,-114.57"/>
</g>
<!-- Node8&#45;&gt;Node5 -->
<g id="edge13" class="edge">
<title>Node8&#45;&gt;Node5</title>
<path fill="none" stroke="midnightblue" d="M337.95,-60.02C292.38,-55.42 224.21,-52.6 167,-67 149.42,-71.42 105.62,-97.12 82.07,-111.41"/>
<polygon fill="midnightblue" stroke="midnightblue" points="337.85,-63.53 348.17,-61.12 338.6,-56.57 337.85,-63.53"/>
</g>
<!-- Node9 -->
<g id="node9" class="node">
<title>Node9</title>
<g id="a_node9"><a xlink:href="namespaceargo_a084a7639e719e866e4f0e88af71f6dff.html#a084a7639e719e866e4f0e88af71f6dff" target="_top" xlink:title="template function to delete objects that were allocated using dynamic_new">
<polygon fill="white" stroke="black" points="185.5,-76.5 185.5,-95.5 265.5,-95.5 265.5,-76.5 185.5,-76.5"/>
<text text-anchor="middle" x="225.5" y="-83.5" font-family="Helvetica,sans-Serif" font-size="10.00">argo::delete_</text>
</a>
</g>
</g>
<!-- Node8&#45;&gt;Node9 -->
<g id="edge9" class="edge">
<title>Node8&#45;&gt;Node9</title>
<path fill="none" stroke="midnightblue" d="M338.31,-72.93C314.9,-75.66 287.53,-78.86 265.73,-81.41"/>
<polygon fill="midnightblue" stroke="midnightblue" points="338.89,-76.38 348.41,-71.75 338.07,-69.43 338.89,-76.38"/>
</g>
<!-- Node10 -->
<g id="node10" class="node">
<title>Node10</title>
<g id="a_node10"><a xlink:href="namespaceargo_aeb7666a0539b817876610d8eaaf38566.html#aeb7666a0539b817876610d8eaaf38566" target="_top" xlink:title="Delete a globally allocated array of object.">
<polygon fill="white" stroke="black" points="172.5,-0.5 172.5,-19.5 278.5,-19.5 278.5,-0.5 172.5,-0.5"/>
<text text-anchor="middle" x="225.5" y="-7.5" font-family="Helvetica,sans-Serif" font-size="10.00">argo::delete_array</text>
</a>
</g>
</g>
<!-- Node8&#45;&gt;Node10 -->
<g id="edge11" class="edge">
<title>Node8&#45;&gt;Node10</title>
<path fill="none" stroke="midnightblue" d="M344.05,-54.64C336,-52.24 327.72,-49.64 320,-47 295.39,-38.58 267.75,-27.43 248.95,-19.58"/>
<polygon fill="midnightblue" stroke="midnightblue" points="343.12,-58.01 353.7,-57.46 345.08,-51.29 343.12,-58.01"/>
</g>
<!-- Node9&#45;&gt;Node5 -->
<g id="edge10" class="edge">
<title>Node9&#45;&gt;Node5</title>
<path fill="none" stroke="midnightblue" d="M175.52,-96.85C147.8,-102.99 114.29,-110.41 91.8,-115.4"/>
<polygon fill="midnightblue" stroke="midnightblue" points="176.44,-100.23 185.44,-94.65 174.92,-93.4 176.44,-100.23"/>
</g>
<!-- Node10&#45;&gt;Node7 -->
<g id="edge12" class="edge">
<title>Node10&#45;&gt;Node7</title>
<path fill="none" stroke="midnightblue" d="M187.06,-22.8C157.54,-32.88 117.21,-46.67 91.5,-55.45"/>
<polygon fill="midnightblue" stroke="midnightblue" points="188.29,-26.08 196.62,-19.53 186.02,-19.45 188.29,-26.08"/>
</g>
</g>
</svg>
