<?xml version="1.0" encoding="UTF-8" standalone="no"?>
<!DOCTYPE svg PUBLIC "-//W3C//DTD SVG 1.1//EN"
 "http://www.w3.org/Graphics/SVG/1.1/DTD/svg11.dtd">
<!-- Generated by graphviz version 2.43.0 (0)
 -->
<!-- Title: write_buffer::_add Pages: 1 -->
<svg width="387pt" height="39pt"
 viewBox="0.00 0.00 387.00 39.00" xmlns="http://www.w3.org/2000/svg" xmlns:xlink="http://www.w3.org/1999/xlink">
<g id="graph0" class="graph" transform="scale(1 1) rotate(0) translate(4 35)">
<title>write_buffer::_add</title>
<polygon fill="white" stroke="transparent" points="-4,4 -4,-35 383,-35 383,4 -4,4"/>
<!-- Node1 -->
<g id="node1" class="node">
<title>Node1</title>
<g id="a_node1"><a xlink:title="Internal function to add an element to the write buffer.">
<polygon fill="#bfbfbf" stroke="black" points="275,-6 275,-25 379,-25 379,-6 275,-6"/>
<text text-anchor="middle" x="327" y="-13" font-family="Helvetica,sans-Serif" font-size="10.00">write_buffer::_add</text>
</a>
</g>
</g>
<!-- Node2 -->
<g id="node2" class="node">
<title>Node2</title>
<g id="a_node2"><a xlink:href="classwrite__buffer_ab5f16d0de074372b34cc4ebba9c58550.html#ab5f16d0de074372b34cc4ebba9c58550" target="_top" xlink:title="Helper function to call _add.">
<polygon fill="white" stroke="black" points="135,-0.5 135,-30.5 239,-30.5 239,-0.5 135,-0.5"/>
<text text-anchor="start" x="143" y="-18.5" font-family="Helvetica,sans-Serif" font-size="10.00">write_buffer::_add</text>
<text text-anchor="middle" x="187" y="-7.5" font-family="Helvetica,sans-Serif" font-size="10.00">_helper</text>
</a>
</g>
</g>
<!-- Node1&#45;&gt;Node2 -->
<g id="edge1" class="edge">
<title>Node1&#45;&gt;Node2</title>
<path fill="none" stroke="midnightblue" d="M264.5,-15.5C256.13,-15.5 247.6,-15.5 239.43,-15.5"/>
<polygon fill="midnightblue" stroke="midnightblue" points="264.61,-19 274.61,-15.5 264.61,-12 264.61,-19"/>
</g>
<!-- Node3 -->
<g id="node3" class="node">
<title>Node3</title>
<g id="a_node3"><a xlink:href="classwrite__buffer_a23b0dbc463111cacbbf83b267e76ac9f.html#a23b0dbc463111cacbbf83b267e76ac9f" target="_top" xlink:title="Adds a new element to the write buffer.">
<polygon fill="white" stroke="black" points="0,-6 0,-25 99,-25 99,-6 0,-6"/>
<text text-anchor="middle" x="49.5" y="-13" font-family="Helvetica,sans-Serif" font-size="10.00">write_buffer::add</text>
</a>
</g>
</g>
<!-- Node2&#45;&gt;Node3 -->
<g id="edge2" class="edge">
<title>Node2&#45;&gt;Node3</title>
<path fill="none" stroke="midnightblue" d="M124.5,-15.5C115.99,-15.5 107.34,-15.5 99.11,-15.5"/>
<polygon fill="midnightblue" stroke="midnightblue" points="124.77,-19 134.77,-15.5 124.77,-12 124.77,-19"/>
</g>
</g>
</svg>
