<?xml version="1.0" encoding="UTF-8" standalone="no"?>
<!DOCTYPE svg PUBLIC "-//W3C//DTD SVG 1.1//EN"
 "http://www.w3.org/Graphics/SVG/1.1/DTD/svg11.dtd">
<!-- Generated by graphviz version 2.43.0 (0)
 -->
<!-- Title: argo::globallock::cohort_lock::lock Pages: 1 -->
<svg width="592pt" height="186pt"
 viewBox="0.00 0.00 592.00 186.00" xmlns="http://www.w3.org/2000/svg" xmlns:xlink="http://www.w3.org/1999/xlink">
<g id="graph0" class="graph" transform="scale(1 1) rotate(0) translate(4 182)">
<title>argo::globallock::cohort_lock::lock</title>
<polygon fill="white" stroke="transparent" points="-4,4 -4,-182 588,-182 588,4 -4,4"/>
<!-- Node1 -->
<g id="node1" class="node">
<title>Node1</title>
<g id="a_node1"><a xlink:title="Acquire the lock.">
<polygon fill="#bfbfbf" stroke="black" points="0,-73.5 0,-103.5 131,-103.5 131,-73.5 0,-73.5"/>
<text text-anchor="start" x="8" y="-91.5" font-family="Helvetica,sans-Serif" font-size="10.00">argo::globallock::cohort</text>
<text text-anchor="middle" x="65.5" y="-80.5" font-family="Helvetica,sans-Serif" font-size="10.00">_lock::lock</text>
</a>
</g>
</g>
<!-- Node2 -->
<g id="node2" class="node">
<title>Node2</title>
<g id="a_node2"><a xlink:href="classargo_1_1globallock_1_1global__tas__lock_ae1a2cc75c9371ed191ac68f4e72f227e.html#ae1a2cc75c9371ed191ac68f4e72f227e" target="_top" xlink:title="take the lock">
<polygon fill="white" stroke="black" points="167,-147.5 167,-177.5 298,-177.5 298,-147.5 167,-147.5"/>
<text text-anchor="start" x="175" y="-165.5" font-family="Helvetica,sans-Serif" font-size="10.00">argo::globallock::global</text>
<text text-anchor="middle" x="232.5" y="-154.5" font-family="Helvetica,sans-Serif" font-size="10.00">_tas_lock::lock</text>
</a>
</g>
</g>
<!-- Node1&#45;&gt;Node2 -->
<g id="edge1" class="edge">
<title>Node1&#45;&gt;Node2</title>
<path fill="none" stroke="midnightblue" d="M94.71,-103.54C114.65,-113.91 142.15,-127.73 167,-138.5 171.06,-140.26 175.29,-142.01 179.56,-143.72"/>
<polygon fill="midnightblue" stroke="midnightblue" points="178.33,-147 188.92,-147.38 180.88,-140.48 178.33,-147"/>
</g>
<!-- Node5 -->
<g id="node5" class="node">
<title>Node5</title>
<g id="a_node5"><a xlink:href="classargo_1_1locallock_1_1mcs__lock_ab9dea14c529f5aa40bd13f4a250f82b8.html#ab9dea14c529f5aa40bd13f4a250f82b8" target="_top" xlink:title="Acquire the MCS lock.">
<polygon fill="white" stroke="black" points="175.5,-98.5 175.5,-128.5 289.5,-128.5 289.5,-98.5 175.5,-98.5"/>
<text text-anchor="start" x="183.5" y="-116.5" font-family="Helvetica,sans-Serif" font-size="10.00">argo::locallock::mcs</text>
<text text-anchor="middle" x="232.5" y="-105.5" font-family="Helvetica,sans-Serif" font-size="10.00">_lock::lock</text>
</a>
</g>
</g>
<!-- Node1&#45;&gt;Node5 -->
<g id="edge4" class="edge">
<title>Node1&#45;&gt;Node5</title>
<path fill="none" stroke="midnightblue" d="M131.24,-98.31C142.37,-100 153.95,-101.75 165.12,-103.44"/>
<polygon fill="midnightblue" stroke="midnightblue" points="164.83,-106.94 175.24,-104.98 165.88,-100.02 164.83,-106.94"/>
</g>
<!-- Node6 -->
<g id="node6" class="node">
<title>Node6</title>
<g id="a_node6"><a xlink:href="classargo_1_1locallock_1_1ticket__lock_a7baa6d6cc449a11a569233d2de7a33bd.html#a7baa6d6cc449a11a569233d2de7a33bd" target="_top" xlink:title="take the lock by fetching your ticket and wait untill out_counter matches your ticket">
<polygon fill="white" stroke="black" points="172,-49.5 172,-79.5 293,-79.5 293,-49.5 172,-49.5"/>
<text text-anchor="start" x="180" y="-67.5" font-family="Helvetica,sans-Serif" font-size="10.00">argo::locallock::ticket</text>
<text text-anchor="middle" x="232.5" y="-56.5" font-family="Helvetica,sans-Serif" font-size="10.00">_lock::lock</text>
</a>
</g>
</g>
<!-- Node1&#45;&gt;Node6 -->
<g id="edge5" class="edge">
<title>Node1&#45;&gt;Node6</title>
<path fill="none" stroke="midnightblue" d="M131.24,-79.08C141.26,-77.63 151.65,-76.11 161.77,-74.64"/>
<polygon fill="midnightblue" stroke="midnightblue" points="162.4,-78.09 171.79,-73.19 161.39,-71.16 162.4,-78.09"/>
</g>
<!-- Node7 -->
<g id="node7" class="node">
<title>Node7</title>
<g id="a_node7"><a xlink:href="classargo_1_1globallock_1_1cohort__lock_a72d2407df0f6b78fceaf17b1a3f6bfce.html#a72d2407df0f6b78fceaf17b1a3f6bfce" target="_top" xlink:title="Return the NUMA node in which the calling thread is being run.">
<polygon fill="white" stroke="black" points="167,-0.5 167,-30.5 298,-30.5 298,-0.5 167,-0.5"/>
<text text-anchor="start" x="175" y="-18.5" font-family="Helvetica,sans-Serif" font-size="10.00">argo::globallock::cohort</text>
<text text-anchor="middle" x="232.5" y="-7.5" font-family="Helvetica,sans-Serif" font-size="10.00">_lock::numa_node</text>
</a>
</g>
</g>
<!-- Node1&#45;&gt;Node7 -->
<g id="edge6" class="edge">
<title>Node1&#45;&gt;Node7</title>
<path fill="none" stroke="midnightblue" d="M96.57,-73.4C116.4,-63.63 143.04,-50.85 167,-40.5 171.77,-38.44 176.77,-36.36 181.79,-34.33"/>
<polygon fill="midnightblue" stroke="midnightblue" points="183.4,-37.45 191.4,-30.5 180.81,-30.95 183.4,-37.45"/>
</g>
<!-- Node3 -->
<g id="node3" class="node">
<title>Node3</title>
<g id="a_node3"><a xlink:href="classargo_1_1globallock_1_1global__tas__lock_a89bbe556d8a271dd64d65b421993da00.html#a89bbe556d8a271dd64d65b421993da00" target="_top" xlink:title="try to lock">
<polygon fill="white" stroke="black" points="334,-147.5 334,-177.5 465,-177.5 465,-147.5 334,-147.5"/>
<text text-anchor="start" x="342" y="-165.5" font-family="Helvetica,sans-Serif" font-size="10.00">argo::globallock::global</text>
<text text-anchor="middle" x="399.5" y="-154.5" font-family="Helvetica,sans-Serif" font-size="10.00">_tas_lock::try_lock</text>
</a>
</g>
</g>
<!-- Node2&#45;&gt;Node3 -->
<g id="edge2" class="edge">
<title>Node2&#45;&gt;Node3</title>
<path fill="none" stroke="midnightblue" d="M298.24,-162.5C306.58,-162.5 315.18,-162.5 323.67,-162.5"/>
<polygon fill="midnightblue" stroke="midnightblue" points="323.95,-166 333.95,-162.5 323.95,-159 323.95,-166"/>
</g>
<!-- Node4 -->
<g id="node4" class="node">
<title>Node4</title>
<g id="a_node4"><a xlink:href="namespaceargo_a188a4648d6e7549bcef4cee36dcb5336.html#a188a4648d6e7549bcef4cee36dcb5336" target="_top" xlink:title="A unique ArgoDSM node identifier. Counting starts from 0.">
<polygon fill="white" stroke="black" points="501,-153 501,-172 584,-172 584,-153 501,-153"/>
<text text-anchor="middle" x="542.5" y="-160" font-family="Helvetica,sans-Serif" font-size="10.00">argo::node_id</text>
</a>
</g>
</g>
<!-- Node3&#45;&gt;Node4 -->
<g id="edge3" class="edge">
<title>Node3&#45;&gt;Node4</title>
<path fill="none" stroke="midnightblue" d="M465.22,-162.5C473.77,-162.5 482.44,-162.5 490.71,-162.5"/>
<polygon fill="midnightblue" stroke="midnightblue" points="490.94,-166 500.94,-162.5 490.94,-159 490.94,-166"/>
</g>
</g>
</svg>
