<?xml version="1.0" encoding="UTF-8" standalone="no"?>
<!DOCTYPE svg PUBLIC "-//W3C//DTD SVG 1.1//EN"
 "http://www.w3.org/Graphics/SVG/1.1/DTD/svg11.dtd">
<!-- Generated by graphviz version 2.43.0 (0)
 -->
<!-- Title: argo::allocators::generic_allocator&lt; T, MemoryPool, LockType &gt; Pages: 1 -->
<svg width="352pt" height="251pt"
 viewBox="0.00 0.00 351.50 251.00" xmlns="http://www.w3.org/2000/svg" xmlns:xlink="http://www.w3.org/1999/xlink">
<g id="graph0" class="graph" transform="scale(1 1) rotate(0) translate(4 247)">
<title>argo::allocators::generic_allocator&lt; T, MemoryPool, LockType &gt;</title>
<polygon fill="white" stroke="transparent" points="-4,4 -4,-247 347.5,-247 347.5,4 -4,4"/>
<!-- Node1 -->
<g id="node1" class="node">
<title>Node1</title>
<g id="a_node1"><a xlink:title="generic template for memory allocators">
<polygon fill="#bfbfbf" stroke="black" points="76.5,-0.5 76.5,-41.5 228.5,-41.5 228.5,-0.5 76.5,-0.5"/>
<text text-anchor="start" x="84.5" y="-29.5" font-family="Helvetica,sans-Serif" font-size="10.00">argo::allocators::generic</text>
<text text-anchor="start" x="84.5" y="-18.5" font-family="Helvetica,sans-Serif" font-size="10.00">_allocator&lt; T, MemoryPool,</text>
<text text-anchor="middle" x="152.5" y="-7.5" font-family="Helvetica,sans-Serif" font-size="10.00"> LockType &gt;</text>
</a>
</g>
</g>
<!-- Node2 -->
<g id="node2" class="node">
<title>Node2</title>
<g id="a_node2"><a xlink:title=" ">
<polygon fill="white" stroke="#bfbfbf" points="6,-89.5 6,-108.5 137,-108.5 137,-89.5 6,-89.5"/>
<text text-anchor="middle" x="71.5" y="-96.5" font-family="Helvetica,sans-Serif" font-size="10.00">std::map&lt; T *, size_t &gt;</text>
</a>
</g>
</g>
<!-- Node2&#45;&gt;Node1 -->
<g id="edge1" class="edge">
<title>Node2&#45;&gt;Node1</title>
<path fill="none" stroke="#9a32cd" stroke-dasharray="5,2" d="M88.28,-82.26C100.83,-70.48 118.09,-54.29 131.55,-41.66"/>
<polygon fill="#9a32cd" stroke="#9a32cd" points="85.69,-79.89 80.79,-89.28 90.48,-84.99 85.69,-79.89"/>
<text text-anchor="middle" x="150.5" y="-63" font-family="Helvetica,sans-Serif" font-size="10.00"> allocation_size</text>
</g>
<!-- Node3 -->
<g id="node3" class="node">
<title>Node3</title>
<g id="a_node3"><a xlink:title=" ">
<polygon fill="white" stroke="#bfbfbf" points="136,-223.5 136,-242.5 165,-242.5 165,-223.5 136,-223.5"/>
<text text-anchor="middle" x="150.5" y="-230.5" font-family="Helvetica,sans-Serif" font-size="10.00">T</text>
</a>
</g>
</g>
<!-- Node3&#45;&gt;Node2 -->
<g id="edge2" class="edge">
<title>Node3&#45;&gt;Node2</title>
<path fill="none" stroke="#9a32cd" stroke-dasharray="5,2" d="M126.58,-223.87C105.98,-215.45 77.56,-200.09 64.5,-176 52.63,-154.1 61.97,-123.38 67.77,-108.6"/>
<polygon fill="#9a32cd" stroke="#9a32cd" points="125.37,-227.16 135.96,-227.46 127.87,-220.62 125.37,-227.16"/>
<text text-anchor="middle" x="77.5" y="-163.5" font-family="Helvetica,sans-Serif" font-size="10.00"> keys</text>
</g>
<!-- Node4 -->
<g id="node4" class="node">
<title>Node4</title>
<g id="a_node4"><a xlink:title=" ">
<polygon fill="white" stroke="#bfbfbf" points="100,-156.5 100,-175.5 201,-175.5 201,-156.5 100,-156.5"/>
<text text-anchor="middle" x="150.5" y="-163.5" font-family="Helvetica,sans-Serif" font-size="10.00">std::map&lt; K, T &gt;</text>
</a>
</g>
</g>
<!-- Node3&#45;&gt;Node4 -->
<g id="edge5" class="edge">
<title>Node3&#45;&gt;Node4</title>
<path fill="none" stroke="#9a32cd" stroke-dasharray="5,2" d="M150.5,-213.04C150.5,-200.67 150.5,-185.12 150.5,-175.63"/>
<polygon fill="#9a32cd" stroke="#9a32cd" points="147,-213.23 150.5,-223.23 154,-213.23 147,-213.23"/>
<text text-anchor="middle" x="175" y="-197" font-family="Helvetica,sans-Serif" font-size="10.00"> elements</text>
</g>
<!-- Node7 -->
<g id="node7" class="node">
<title>Node7</title>
<g id="a_node7"><a xlink:title=" ">
<polygon fill="white" stroke="#bfbfbf" points="243.5,-156.5 243.5,-175.5 335.5,-175.5 335.5,-156.5 243.5,-156.5"/>
<text text-anchor="middle" x="289.5" y="-163.5" font-family="Helvetica,sans-Serif" font-size="10.00">std::stack&lt; T &gt;</text>
</a>
</g>
</g>
<!-- Node3&#45;&gt;Node7 -->
<g id="edge8" class="edge">
<title>Node3&#45;&gt;Node7</title>
<path fill="none" stroke="#9a32cd" stroke-dasharray="5,2" d="M174.39,-220.83C201.83,-207.99 246.28,-187.21 271.15,-175.58"/>
<polygon fill="#9a32cd" stroke="#9a32cd" points="172.69,-217.76 165.11,-225.17 175.65,-224.1 172.69,-217.76"/>
<text text-anchor="middle" x="252" y="-197" font-family="Helvetica,sans-Serif" font-size="10.00"> elements</text>
</g>
<!-- Node4&#45;&gt;Node2 -->
<g id="edge3" class="edge">
<title>Node4&#45;&gt;Node2</title>
<path fill="none" stroke="orange" stroke-dasharray="5,2" d="M110.68,-152.31C103.02,-148.57 95.51,-143.86 89.5,-138 81.14,-129.85 76.2,-117.04 73.67,-108.58"/>
<polygon fill="orange" stroke="orange" points="109.45,-155.59 120.02,-156.39 112.26,-149.18 109.45,-155.59"/>
<text text-anchor="middle" x="127" y="-130" font-family="Helvetica,sans-Serif" font-size="10.00"> &lt; T *, size_t &gt;</text>
</g>
<!-- Node6 -->
<g id="node6" class="node">
<title>Node6</title>
<g id="a_node6"><a xlink:title=" ">
<polygon fill="white" stroke="#bfbfbf" points="155.5,-89.5 155.5,-108.5 315.5,-108.5 315.5,-89.5 155.5,-89.5"/>
<text text-anchor="middle" x="235.5" y="-96.5" font-family="Helvetica,sans-Serif" font-size="10.00">std::map&lt; size_t, freelist_t &gt;</text>
</a>
</g>
</g>
<!-- Node4&#45;&gt;Node6 -->
<g id="edge9" class="edge">
<title>Node4&#45;&gt;Node6</title>
<path fill="none" stroke="orange" stroke-dasharray="5,2" d="M162.92,-148.03C168.65,-140.96 175.88,-133.01 183.5,-127 192.93,-119.57 204.71,-113.25 214.68,-108.6"/>
<polygon fill="orange" stroke="orange" points="159.87,-146.26 156.54,-156.31 165.41,-150.53 159.87,-146.26"/>
<text text-anchor="middle" x="235.5" y="-130" font-family="Helvetica,sans-Serif" font-size="10.00"> &lt; size_t, freelist_t &gt;</text>
</g>
<!-- Node5 -->
<g id="node5" class="node">
<title>Node5</title>
<g id="a_node5"><a xlink:title=" ">
<polygon fill="white" stroke="#bfbfbf" points="0,-223.5 0,-242.5 29,-242.5 29,-223.5 0,-223.5"/>
<text text-anchor="middle" x="14.5" y="-230.5" font-family="Helvetica,sans-Serif" font-size="10.00">K</text>
</a>
</g>
</g>
<!-- Node5&#45;&gt;Node4 -->
<g id="edge4" class="edge">
<title>Node5&#45;&gt;Node4</title>
<path fill="none" stroke="#9a32cd" stroke-dasharray="5,2" d="M38.16,-220.69C65.06,-207.83 108.39,-187.12 132.62,-175.54"/>
<polygon fill="#9a32cd" stroke="#9a32cd" points="36.57,-217.57 29.05,-225.04 39.59,-223.89 36.57,-217.57"/>
<text text-anchor="middle" x="104.5" y="-197" font-family="Helvetica,sans-Serif" font-size="10.00"> keys</text>
</g>
<!-- Node6&#45;&gt;Node1 -->
<g id="edge6" class="edge">
<title>Node6&#45;&gt;Node1</title>
<path fill="none" stroke="#9a32cd" stroke-dasharray="5,2" d="M218.31,-82.26C205.44,-70.48 187.76,-54.29 173.97,-41.66"/>
<polygon fill="#9a32cd" stroke="#9a32cd" points="216.24,-85.11 225.98,-89.28 220.97,-79.95 216.24,-85.11"/>
<text text-anchor="middle" x="222.5" y="-63" font-family="Helvetica,sans-Serif" font-size="10.00"> freelist</text>
</g>
<!-- Node7&#45;&gt;Node6 -->
<g id="edge7" class="edge">
<title>Node7&#45;&gt;Node6</title>
<path fill="none" stroke="#9a32cd" stroke-dasharray="5,2" d="M294.71,-146.33C295.49,-139.79 295.06,-132.66 291.5,-127 286.16,-118.5 277.31,-112.61 268.21,-108.56"/>
<polygon fill="#9a32cd" stroke="#9a32cd" points="291.22,-145.94 292.6,-156.44 298.07,-147.37 291.22,-145.94"/>
<text text-anchor="middle" x="319" y="-130" font-family="Helvetica,sans-Serif" font-size="10.00"> elements</text>
</g>
</g>
</svg>
