<?xml version="1.0" encoding="UTF-8" standalone="no"?>
<!DOCTYPE svg PUBLIC "-//W3C//DTD SVG 1.1//EN"
 "http://www.w3.org/Graphics/SVG/1.1/DTD/svg11.dtd">
<!-- Generated by graphviz version 2.43.0 (0)
 -->
<!-- Title: argo::data_distribution::prime_mapp_distribution::homenode Pages: 1 -->
<svg width="515pt" height="110pt"
 viewBox="0.00 0.00 515.00 110.00" xmlns="http://www.w3.org/2000/svg" xmlns:xlink="http://www.w3.org/1999/xlink">
<g id="graph0" class="graph" transform="scale(1 1) rotate(0) translate(4 106)">
<title>argo::data_distribution::prime_mapp_distribution::homenode</title>
<polygon fill="white" stroke="transparent" points="-4,4 -4,-106 511,-106 511,4 -4,4"/>
<!-- Node1 -->
<g id="node1" class="node">
<title>Node1</title>
<g id="a_node1"><a xlink:title="compute home node of an address">
<polygon fill="#bfbfbf" stroke="black" points="362,-30.5 362,-71.5 507,-71.5 507,-30.5 362,-30.5"/>
<text text-anchor="start" x="370" y="-59.5" font-family="Helvetica,sans-Serif" font-size="10.00">argo::data_distribution</text>
<text text-anchor="start" x="370" y="-48.5" font-family="Helvetica,sans-Serif" font-size="10.00">::prime_mapp_distribution</text>
<text text-anchor="middle" x="434.5" y="-37.5" font-family="Helvetica,sans-Serif" font-size="10.00">::homenode</text>
</a>
</g>
</g>
<!-- Node2 -->
<g id="node2" class="node">
<title>Node2</title>
<g id="a_node2"><a xlink:href="classargo_1_1data__distribution_1_1prime__mapp__distribution_a253fb788715eda52fd5f52c26c02b444.html#a253fb788715eda52fd5f52c26c02b444" target="_top" xlink:title="compute the offset of ptr in the backing store on ptr&#39;s homenode">
<polygon fill="white" stroke="black" points="181,-60.5 181,-101.5 326,-101.5 326,-60.5 181,-60.5"/>
<text text-anchor="start" x="189" y="-89.5" font-family="Helvetica,sans-Serif" font-size="10.00">argo::data_distribution</text>
<text text-anchor="start" x="189" y="-78.5" font-family="Helvetica,sans-Serif" font-size="10.00">::prime_mapp_distribution</text>
<text text-anchor="middle" x="253.5" y="-67.5" font-family="Helvetica,sans-Serif" font-size="10.00">::local_offset</text>
</a>
</g>
</g>
<!-- Node1&#45;&gt;Node2 -->
<g id="edge1" class="edge">
<title>Node1&#45;&gt;Node2</title>
<path fill="none" stroke="midnightblue" d="M351.96,-64.67C343.36,-66.11 334.67,-67.56 326.2,-68.98"/>
<polygon fill="midnightblue" stroke="midnightblue" points="352.7,-68.09 361.98,-62.99 351.54,-61.19 352.7,-68.09"/>
</g>
<!-- Node4 -->
<g id="node4" class="node">
<title>Node4</title>
<g id="a_node4"><a xlink:href="classargo_1_1data__distribution_1_1prime__mapp__distribution_ac3a060772fce13bb7925d01c40ff30eb.html#ac3a060772fce13bb7925d01c40ff30eb" target="_top" xlink:title="compute home node of an address">
<polygon fill="white" stroke="black" points="181,-0.5 181,-41.5 326,-41.5 326,-0.5 181,-0.5"/>
<text text-anchor="start" x="189" y="-29.5" font-family="Helvetica,sans-Serif" font-size="10.00">argo::data_distribution</text>
<text text-anchor="start" x="189" y="-18.5" font-family="Helvetica,sans-Serif" font-size="10.00">::prime_mapp_distribution</text>
<text text-anchor="middle" x="253.5" y="-7.5" font-family="Helvetica,sans-Serif" font-size="10.00">::peek_homenode</text>
</a>
</g>
</g>
<!-- Node1&#45;&gt;Node4 -->
<g id="edge3" class="edge">
<title>Node1&#45;&gt;Node4</title>
<path fill="none" stroke="midnightblue" d="M351.96,-37.33C343.36,-35.89 334.67,-34.44 326.2,-33.02"/>
<polygon fill="midnightblue" stroke="midnightblue" points="351.54,-40.81 361.98,-39.01 352.7,-33.91 351.54,-40.81"/>
</g>
<!-- Node3 -->
<g id="node3" class="node">
<title>Node3</title>
<g id="a_node3"><a xlink:href="classargo_1_1data__distribution_1_1prime__mapp__distribution_a6bb902ae385e53f0f93da022338d19d6.html#a6bb902ae385e53f0f93da022338d19d6" target="_top" xlink:title="compute the offset of ptr in the backing store on ptr&#39;s homenode">
<polygon fill="white" stroke="black" points="0,-60.5 0,-101.5 145,-101.5 145,-60.5 0,-60.5"/>
<text text-anchor="start" x="8" y="-89.5" font-family="Helvetica,sans-Serif" font-size="10.00">argo::data_distribution</text>
<text text-anchor="start" x="8" y="-78.5" font-family="Helvetica,sans-Serif" font-size="10.00">::prime_mapp_distribution</text>
<text text-anchor="middle" x="72.5" y="-67.5" font-family="Helvetica,sans-Serif" font-size="10.00">::peek_local_offset</text>
</a>
</g>
</g>
<!-- Node2&#45;&gt;Node3 -->
<g id="edge2" class="edge">
<title>Node2&#45;&gt;Node3</title>
<path fill="none" stroke="midnightblue" d="M170.96,-81C162.36,-81 153.67,-81 145.2,-81"/>
<polygon fill="midnightblue" stroke="midnightblue" points="170.98,-84.5 180.98,-81 170.98,-77.5 170.98,-84.5"/>
</g>
</g>
</svg>
