<?xml version="1.0" encoding="UTF-8" standalone="no"?>
<!DOCTYPE svg PUBLIC "-//W3C//DTD SVG 1.1//EN"
 "http://www.w3.org/Graphics/SVG/1.1/DTD/svg11.dtd">
<!-- Generated by graphviz version 2.43.0 (0)
 -->
<!-- Title: write_buffer::_flush Pages: 1 -->
<svg width="1020pt" height="218pt"
 viewBox="0.00 0.00 1020.00 218.00" xmlns="http://www.w3.org/2000/svg" xmlns:xlink="http://www.w3.org/1999/xlink">
<g id="graph0" class="graph" transform="scale(1 1) rotate(0) translate(4 214)">
<title>write_buffer::_flush</title>
<polygon fill="white" stroke="transparent" points="-4,4 -4,-214 1016,-214 1016,4 -4,4"/>
<!-- Node1 -->
<g id="node1" class="node">
<title>Node1</title>
<g id="a_node1"><a xlink:title="Internal implementation of flush.">
<polygon fill="#bfbfbf" stroke="black" points="0,-139.5 0,-158.5 110,-158.5 110,-139.5 0,-139.5"/>
<text text-anchor="middle" x="55" y="-146.5" font-family="Helvetica,sans-Serif" font-size="10.00">write_buffer::_flush</text>
</a>
</g>
</g>
<!-- Node2 -->
<g id="node2" class="node">
<title>Node2</title>
<g id="a_node2"><a xlink:href="classwrite__buffer_a3a8044d07151ac96722c00acd0dd3e18.html#a3a8044d07151ac96722c00acd0dd3e18" target="_top" xlink:title="Check if the write buffer is empty.">
<polygon fill="white" stroke="black" points="146,-177.5 146,-196.5 259,-196.5 259,-177.5 146,-177.5"/>
<text text-anchor="middle" x="202.5" y="-184.5" font-family="Helvetica,sans-Serif" font-size="10.00">write_buffer::empty</text>
</a>
</g>
</g>
<!-- Node1&#45;&gt;Node2 -->
<g id="edge1" class="edge">
<title>Node1&#45;&gt;Node2</title>
<path fill="none" stroke="midnightblue" d="M92.72,-158.59C111.66,-163.54 134.96,-169.62 155.13,-174.89"/>
<polygon fill="midnightblue" stroke="midnightblue" points="154.49,-178.34 165.05,-177.48 156.26,-171.57 154.49,-178.34"/>
</g>
<!-- Node3 -->
<g id="node3" class="node">
<title>Node3</title>
<g id="a_node3"><a xlink:href="classwrite__buffer_ae065d3ee59035ad508eb8ce6670d2c89.html#ae065d3ee59035ad508eb8ce6670d2c89" target="_top" xlink:title="Removes the front element from the buffer and returns it.">
<polygon fill="white" stroke="black" points="153,-139.5 153,-158.5 252,-158.5 252,-139.5 153,-139.5"/>
<text text-anchor="middle" x="202.5" y="-146.5" font-family="Helvetica,sans-Serif" font-size="10.00">write_buffer::pop</text>
</a>
</g>
</g>
<!-- Node1&#45;&gt;Node3 -->
<g id="edge2" class="edge">
<title>Node1&#45;&gt;Node3</title>
<path fill="none" stroke="midnightblue" d="M110.18,-149C120.71,-149 131.8,-149 142.48,-149"/>
<polygon fill="midnightblue" stroke="midnightblue" points="142.56,-152.5 152.56,-149 142.56,-145.5 142.56,-152.5"/>
</g>
<!-- Node4 -->
<g id="node4" class="node">
<title>Node4</title>
<g id="a_node4"><a xlink:href="classwrite__buffer_a066de0a724f3f13272780ad7ca8e6502.html#a066de0a724f3f13272780ad7ca8e6502" target="_top" xlink:title="Perform writeback of a single cached page.">
<polygon fill="white" stroke="black" points="149.5,-90 149.5,-120 255.5,-120 255.5,-90 149.5,-90"/>
<text text-anchor="start" x="157.5" y="-108" font-family="Helvetica,sans-Serif" font-size="10.00">write_buffer::write</text>
<text text-anchor="middle" x="202.5" y="-97" font-family="Helvetica,sans-Serif" font-size="10.00">_back_index</text>
</a>
</g>
</g>
<!-- Node1&#45;&gt;Node4 -->
<g id="edge3" class="edge">
<title>Node1&#45;&gt;Node4</title>
<path fill="none" stroke="midnightblue" d="M87.57,-139.45C103.51,-134.63 123.39,-128.62 142.06,-122.98"/>
<polygon fill="midnightblue" stroke="midnightblue" points="143.12,-126.31 151.68,-120.07 141.1,-119.61 143.12,-126.31"/>
</g>
<!-- Node5 -->
<g id="node5" class="node">
<title>Node5</title>
<g id="a_node5"><a xlink:href="swdsm_8cpp_a3b6a6b2b244edb9faa79814ce8e5e9f5.html#a3b6a6b2b244edb9faa79814ce8e5e9f5" target="_top" xlink:title="stores a page remotely &#45; only writing back what has been written locally since last synchronization p...">
<polygon fill="white" stroke="black" points="295,-95.5 295,-114.5 383,-114.5 383,-95.5 295,-95.5"/>
<text text-anchor="middle" x="339" y="-102.5" font-family="Helvetica,sans-Serif" font-size="10.00">storepageDIFF</text>
</a>
</g>
</g>
<!-- Node4&#45;&gt;Node5 -->
<g id="edge4" class="edge">
<title>Node4&#45;&gt;Node5</title>
<path fill="none" stroke="midnightblue" d="M255.5,-105C265.06,-105 275.04,-105 284.64,-105"/>
<polygon fill="midnightblue" stroke="midnightblue" points="284.85,-108.5 294.85,-105 284.85,-101.5 284.85,-108.5"/>
</g>
<!-- Node6 -->
<g id="node6" class="node">
<title>Node6</title>
<g id="a_node6"><a xlink:href="swdsm_8cpp_af5bb31046df1aef1cccf72f19fe63640.html#af5bb31046df1aef1cccf72f19fe63640" target="_top" xlink:title="Gets the data window index based on the offset into the node&#39;s backing store.">
<polygon fill="white" stroke="black" points="419.5,-190.5 419.5,-209.5 533.5,-209.5 533.5,-190.5 419.5,-190.5"/>
<text text-anchor="middle" x="476.5" y="-197.5" font-family="Helvetica,sans-Serif" font-size="10.00">get_data_win_index</text>
</a>
</g>
</g>
<!-- Node5&#45;&gt;Node6 -->
<g id="edge5" class="edge">
<title>Node5&#45;&gt;Node6</title>
<path fill="none" stroke="midnightblue" d="M347.49,-114.56C360.44,-130.5 388.57,-162.54 419,-181 422.39,-183.05 426.02,-184.92 429.76,-186.61"/>
<polygon fill="midnightblue" stroke="midnightblue" points="428.59,-189.91 439.17,-190.43 431.23,-183.42 428.59,-189.91"/>
</g>
<!-- Node7 -->
<g id="node7" class="node">
<title>Node7</title>
<g id="a_node7"><a xlink:href="swdsm_8cpp_a3f19b1fc7fe36a6eabdae48e53fb66fa.html#a3f19b1fc7fe36a6eabdae48e53fb66fa" target="_top" xlink:title="Gets the sharer window offset based on the classification index.">
<polygon fill="white" stroke="black" points="419,-152.5 419,-171.5 534,-171.5 534,-152.5 419,-152.5"/>
<text text-anchor="middle" x="476.5" y="-159.5" font-family="Helvetica,sans-Serif" font-size="10.00">get_data_win_offset</text>
</a>
</g>
</g>
<!-- Node5&#45;&gt;Node7 -->
<g id="edge6" class="edge">
<title>Node5&#45;&gt;Node7</title>
<path fill="none" stroke="midnightblue" d="M358.22,-114.56C374.05,-122.68 397.71,-134.34 419,-143 424.15,-145.1 429.63,-147.15 435.07,-149.09"/>
<polygon fill="midnightblue" stroke="midnightblue" points="434.16,-152.47 444.75,-152.43 436.44,-145.86 434.16,-152.47"/>
</g>
<!-- Node8 -->
<g id="node8" class="node">
<title>Node8</title>
<g id="a_node8"><a xlink:href="swdsm_8cpp_ab2e5fbbe4d1f44d25619f290dc37dd3e.html#ab2e5fbbe4d1f44d25619f290dc37dd3e" target="_top" xlink:title="Gives homenode for a given address.">
<polygon fill="white" stroke="black" points="432,-114.5 432,-133.5 521,-133.5 521,-114.5 432,-114.5"/>
<text text-anchor="middle" x="476.5" y="-121.5" font-family="Helvetica,sans-Serif" font-size="10.00">get_homenode</text>
</a>
</g>
</g>
<!-- Node5&#45;&gt;Node8 -->
<g id="edge7" class="edge">
<title>Node5&#45;&gt;Node8</title>
<path fill="none" stroke="midnightblue" d="M383.25,-111.06C395.47,-112.78 408.92,-114.66 421.68,-116.45"/>
<polygon fill="midnightblue" stroke="midnightblue" points="421.35,-119.94 431.74,-117.86 422.32,-113.01 421.35,-119.94"/>
</g>
<!-- Node12 -->
<g id="node12" class="node">
<title>Node12</title>
<g id="a_node12"><a xlink:href="swdsm_8cpp_a974f1a03f5461bb989248cceb41cd95b.html#a974f1a03f5461bb989248cceb41cd95b" target="_top" xlink:title="Gets the offset of an address on the local nodes part of the global memory.">
<polygon fill="white" stroke="black" points="444,-76.5 444,-95.5 509,-95.5 509,-76.5 444,-76.5"/>
<text text-anchor="middle" x="476.5" y="-83.5" font-family="Helvetica,sans-Serif" font-size="10.00">get_offset</text>
</a>
</g>
</g>
<!-- Node5&#45;&gt;Node12 -->
<g id="edge11" class="edge">
<title>Node5&#45;&gt;Node12</title>
<path fill="none" stroke="midnightblue" d="M383.25,-98.94C399.38,-96.67 417.66,-94.11 433.67,-91.87"/>
<polygon fill="midnightblue" stroke="midnightblue" points="434.4,-95.3 443.82,-90.44 433.43,-88.37 434.4,-95.3"/>
</g>
<!-- Node14 -->
<g id="node14" class="node">
<title>Node14</title>
<g id="a_node14"><a xlink:href="classmpi__lock_a67301b26c3bb28c746e164c9f531d21d.html#a67301b26c3bb28c746e164c9f531d21d" target="_top" xlink:title="acquire mpi_lock">
<polygon fill="white" stroke="black" points="433,-38.5 433,-57.5 520,-57.5 520,-38.5 433,-38.5"/>
<text text-anchor="middle" x="476.5" y="-45.5" font-family="Helvetica,sans-Serif" font-size="10.00">mpi_lock::lock</text>
</a>
</g>
</g>
<!-- Node5&#45;&gt;Node14 -->
<g id="edge14" class="edge">
<title>Node5&#45;&gt;Node14</title>
<path fill="none" stroke="midnightblue" d="M358.22,-95.44C374.05,-87.32 397.71,-75.66 419,-67 424.15,-64.9 429.63,-62.85 435.07,-60.91"/>
<polygon fill="midnightblue" stroke="midnightblue" points="436.44,-64.14 444.75,-57.57 434.16,-57.53 436.44,-64.14"/>
</g>
<!-- Node15 -->
<g id="node15" class="node">
<title>Node15</title>
<g id="a_node15"><a xlink:href="classmpi__lock_a38cb3649cba54a2818810c444a8b475a.html#a38cb3649cba54a2818810c444a8b475a" target="_top" xlink:title="release mpi_lock">
<polygon fill="white" stroke="black" points="427,-0.5 427,-19.5 526,-19.5 526,-0.5 427,-0.5"/>
<text text-anchor="middle" x="476.5" y="-7.5" font-family="Helvetica,sans-Serif" font-size="10.00">mpi_lock::unlock</text>
</a>
</g>
</g>
<!-- Node5&#45;&gt;Node15 -->
<g id="edge15" class="edge">
<title>Node5&#45;&gt;Node15</title>
<path fill="none" stroke="midnightblue" d="M347.49,-95.44C360.44,-79.5 388.57,-47.46 419,-29 422.39,-26.95 426.02,-25.08 429.76,-23.39"/>
<polygon fill="midnightblue" stroke="midnightblue" points="431.23,-26.58 439.17,-19.57 428.59,-20.09 431.23,-26.58"/>
</g>
<!-- Node9 -->
<g id="node9" class="node">
<title>Node9</title>
<g id="a_node9"><a xlink:href="classargo_1_1data__distribution_1_1global__ptr_ac7d651586337d08cda18ef26ffcd34a0.html#ac7d651586337d08cda18ef26ffcd34a0" target="_top" xlink:title="return the home node of the value pointed to">
<polygon fill="white" stroke="black" points="570,-114 570,-144 697,-144 697,-114 570,-114"/>
<text text-anchor="start" x="578" y="-132" font-family="Helvetica,sans-Serif" font-size="10.00">argo::data_distribution</text>
<text text-anchor="middle" x="633.5" y="-121" font-family="Helvetica,sans-Serif" font-size="10.00">::global_ptr::node</text>
</a>
</g>
</g>
<!-- Node8&#45;&gt;Node9 -->
<g id="edge8" class="edge">
<title>Node8&#45;&gt;Node9</title>
<path fill="none" stroke="midnightblue" d="M521.09,-125.41C533.15,-125.8 546.57,-126.23 559.81,-126.66"/>
<polygon fill="midnightblue" stroke="midnightblue" points="559.76,-130.16 569.86,-126.98 559.98,-123.16 559.76,-130.16"/>
</g>
<!-- Node10 -->
<g id="node10" class="node">
<title>Node10</title>
<g id="a_node10"><a xlink:href="classargo_1_1data__distribution_1_1global__ptr_ae4353680349f6abbd2cf262dace8e2f2.html#ae4353680349f6abbd2cf262dace8e2f2" target="_top" xlink:title="return a pointer to the selected allocation policy">
<polygon fill="white" stroke="black" points="733,-89 733,-119 860,-119 860,-89 733,-89"/>
<text text-anchor="start" x="741" y="-107" font-family="Helvetica,sans-Serif" font-size="10.00">argo::data_distribution</text>
<text text-anchor="middle" x="796.5" y="-96" font-family="Helvetica,sans-Serif" font-size="10.00">::global_ptr::policy</text>
</a>
</g>
</g>
<!-- Node9&#45;&gt;Node10 -->
<g id="edge9" class="edge">
<title>Node9&#45;&gt;Node10</title>
<path fill="none" stroke="midnightblue" d="M697.21,-119.26C705.65,-117.95 714.36,-116.6 722.96,-115.26"/>
<polygon fill="midnightblue" stroke="midnightblue" points="723.62,-118.7 732.96,-113.71 722.54,-111.79 723.62,-118.7"/>
</g>
<!-- Node11 -->
<g id="node11" class="node">
<title>Node11</title>
<g id="a_node11"><a xlink:href="namespaceargo_1_1env_a25a08cb2d0d11432d640ec7173063339.html#a25a08cb2d0d11432d640ec7173063339" target="_top" xlink:title="get the allocation policy requested by environment variable">
<polygon fill="white" stroke="black" points="896,-89 896,-119 1012,-119 1012,-89 896,-89"/>
<text text-anchor="start" x="904" y="-107" font-family="Helvetica,sans-Serif" font-size="10.00">argo::env::allocation</text>
<text text-anchor="middle" x="954" y="-96" font-family="Helvetica,sans-Serif" font-size="10.00">_policy</text>
</a>
</g>
</g>
<!-- Node10&#45;&gt;Node11 -->
<g id="edge10" class="edge">
<title>Node10&#45;&gt;Node11</title>
<path fill="none" stroke="midnightblue" d="M860.3,-104C868.69,-104 877.32,-104 885.78,-104"/>
<polygon fill="midnightblue" stroke="midnightblue" points="885.99,-107.5 895.99,-104 885.99,-100.5 885.99,-107.5"/>
</g>
<!-- Node13 -->
<g id="node13" class="node">
<title>Node13</title>
<g id="a_node13"><a xlink:href="classargo_1_1data__distribution_1_1global__ptr_ad8c21c408fa2b926cfd9acfd87e8e4e6.html#ad8c21c408fa2b926cfd9acfd87e8e4e6" target="_top" xlink:title="return the offset on the home node&#39;s local memory share">
<polygon fill="white" stroke="black" points="570,-65 570,-95 697,-95 697,-65 570,-65"/>
<text text-anchor="start" x="578" y="-83" font-family="Helvetica,sans-Serif" font-size="10.00">argo::data_distribution</text>
<text text-anchor="middle" x="633.5" y="-72" font-family="Helvetica,sans-Serif" font-size="10.00">::global_ptr::offset</text>
</a>
</g>
</g>
<!-- Node12&#45;&gt;Node13 -->
<g id="edge12" class="edge">
<title>Node12&#45;&gt;Node13</title>
<path fill="none" stroke="midnightblue" d="M509.24,-84.77C523.83,-84.21 541.78,-83.51 559.43,-82.83"/>
<polygon fill="midnightblue" stroke="midnightblue" points="559.9,-86.31 569.75,-82.43 559.63,-79.32 559.9,-86.31"/>
</g>
<!-- Node13&#45;&gt;Node10 -->
<g id="edge13" class="edge">
<title>Node13&#45;&gt;Node10</title>
<path fill="none" stroke="midnightblue" d="M697.21,-89.35C705.65,-90.61 714.36,-91.91 722.96,-93.19"/>
<polygon fill="midnightblue" stroke="midnightblue" points="722.56,-96.67 732.96,-94.68 723.59,-89.74 722.56,-96.67"/>
</g>
</g>
</svg>
