<?xml version="1.0" encoding="UTF-8" standalone="no"?>
<!DOCTYPE svg PUBLIC "-//W3C//DTD SVG 1.1//EN"
 "http://www.w3.org/Graphics/SVG/1.1/DTD/svg11.dtd">
<!-- Generated by graphviz version 2.43.0 (0)
 -->
<!-- Title: argo::data_distribution::skew_mapp_distribution::homenode Pages: 1 -->
<svg width="326pt" height="50pt"
 viewBox="0.00 0.00 326.00 50.00" xmlns="http://www.w3.org/2000/svg" xmlns:xlink="http://www.w3.org/1999/xlink">
<g id="graph0" class="graph" transform="scale(1 1) rotate(0) translate(4 46)">
<title>argo::data_distribution::skew_mapp_distribution::homenode</title>
<polygon fill="white" stroke="transparent" points="-4,4 -4,-46 322,-46 322,4 -4,4"/>
<!-- Node1 -->
<g id="node1" class="node">
<title>Node1</title>
<g id="a_node1"><a xlink:title="compute home node of an address">
<polygon fill="#bfbfbf" stroke="black" points="177,-0.5 177,-41.5 318,-41.5 318,-0.5 177,-0.5"/>
<text text-anchor="start" x="185" y="-29.5" font-family="Helvetica,sans-Serif" font-size="10.00">argo::data_distribution</text>
<text text-anchor="start" x="185" y="-18.5" font-family="Helvetica,sans-Serif" font-size="10.00">::skew_mapp_distribution</text>
<text text-anchor="middle" x="247.5" y="-7.5" font-family="Helvetica,sans-Serif" font-size="10.00">::homenode</text>
</a>
</g>
</g>
<!-- Node2 -->
<g id="node2" class="node">
<title>Node2</title>
<g id="a_node2"><a xlink:href="classargo_1_1data__distribution_1_1skew__mapp__distribution_acf1e91b02698596d4bd80bc7a43c3915.html#acf1e91b02698596d4bd80bc7a43c3915" target="_top" xlink:title="compute home node of an address">
<polygon fill="white" stroke="black" points="0,-0.5 0,-41.5 141,-41.5 141,-0.5 0,-0.5"/>
<text text-anchor="start" x="8" y="-29.5" font-family="Helvetica,sans-Serif" font-size="10.00">argo::data_distribution</text>
<text text-anchor="start" x="8" y="-18.5" font-family="Helvetica,sans-Serif" font-size="10.00">::skew_mapp_distribution</text>
<text text-anchor="middle" x="70.5" y="-7.5" font-family="Helvetica,sans-Serif" font-size="10.00">::peek_homenode</text>
</a>
</g>
</g>
<!-- Node1&#45;&gt;Node2 -->
<g id="edge1" class="edge">
<title>Node1&#45;&gt;Node2</title>
<path fill="none" stroke="midnightblue" d="M166.58,-21C158.11,-21 149.55,-21 141.21,-21"/>
<polygon fill="midnightblue" stroke="midnightblue" points="166.83,-24.5 176.83,-21 166.83,-17.5 166.83,-24.5"/>
</g>
</g>
</svg>
