<?xml version="1.0" encoding="UTF-8" standalone="no"?>
<!DOCTYPE svg PUBLIC "-//W3C//DTD SVG 1.1//EN"
 "http://www.w3.org/Graphics/SVG/1.1/DTD/svg11.dtd">
<!-- Generated by graphviz version 2.43.0 (0)
 -->
<!-- Title: argo::data_distribution::first_touch_distribution::peek_homenode Pages: 1 -->
<svg width="601pt" height="113pt"
 viewBox="0.00 0.00 601.00 113.10" xmlns="http://www.w3.org/2000/svg" xmlns:xlink="http://www.w3.org/1999/xlink">
<g id="graph0" class="graph" transform="scale(1 1) rotate(0) translate(4 109.1)">
<title>argo::data_distribution::first_touch_distribution::peek_homenode</title>
<polygon fill="white" stroke="transparent" points="-4,4 -4,-109.1 597,-109.1 597,4 -4,4"/>
<!-- Node1 -->
<g id="node1" class="node">
<title>Node1</title>
<g id="a_node1"><a xlink:title="compute home node of an address">
<polygon fill="#bfbfbf" stroke="black" points="0,-14.6 0,-55.6 134,-55.6 134,-14.6 0,-14.6"/>
<text text-anchor="start" x="8" y="-43.6" font-family="Helvetica,sans-Serif" font-size="10.00">argo::data_distribution</text>
<text text-anchor="start" x="8" y="-32.6" font-family="Helvetica,sans-Serif" font-size="10.00">::first_touch_distribution</text>
<text text-anchor="middle" x="67" y="-21.6" font-family="Helvetica,sans-Serif" font-size="10.00">::peek_homenode</text>
</a>
</g>
</g>
<!-- Node2 -->
<g id="node2" class="node">
<title>Node2</title>
<g id="a_node2"><a xlink:href="classargo_1_1data__distribution_1_1first__touch__distribution_a3072e6056edc945f0714bbdb775718ed.html#a3072e6056edc945f0714bbdb775718ed" target="_top" xlink:title="compute home node of an address">
<polygon fill="white" stroke="black" points="170,-63.6 170,-104.6 304,-104.6 304,-63.6 170,-63.6"/>
<text text-anchor="start" x="178" y="-92.6" font-family="Helvetica,sans-Serif" font-size="10.00">argo::data_distribution</text>
<text text-anchor="start" x="178" y="-81.6" font-family="Helvetica,sans-Serif" font-size="10.00">::first_touch_distribution</text>
<text text-anchor="middle" x="237" y="-70.6" font-family="Helvetica,sans-Serif" font-size="10.00">::homenode</text>
</a>
</g>
</g>
<!-- Node1&#45;&gt;Node2 -->
<g id="edge1" class="edge">
<title>Node1&#45;&gt;Node2</title>
<path fill="none" stroke="midnightblue" d="M134.4,-54.47C142.86,-56.94 151.57,-59.48 160.17,-61.99"/>
<polygon fill="midnightblue" stroke="midnightblue" points="159.23,-65.36 169.81,-64.8 161.19,-58.64 159.23,-65.36"/>
</g>
<!-- Node3 -->
<g id="node3" class="node">
<title>Node3</title>
<g id="a_node3"><a xlink:href="namespaceargo_a188a4648d6e7549bcef4cee36dcb5336.html#a188a4648d6e7549bcef4cee36dcb5336" target="_top" xlink:title="A unique ArgoDSM node identifier. Counting starts from 0.">
<polygon fill="white" stroke="black" points="510,-31.6 510,-50.6 593,-50.6 593,-31.6 510,-31.6"/>
<text text-anchor="middle" x="551.5" y="-38.6" font-family="Helvetica,sans-Serif" font-size="10.00">argo::node_id</text>
</a>
</g>
</g>
<!-- Node1&#45;&gt;Node3 -->
<g id="edge5" class="edge">
<title>Node1&#45;&gt;Node3</title>
<path fill="none" stroke="midnightblue" d="M134.03,-21.37C214.89,-6.81 355.71,11.26 474,-11.1 490.74,-14.27 508.51,-21.01 522.71,-27.3"/>
<polygon fill="midnightblue" stroke="midnightblue" points="521.36,-30.53 531.91,-31.54 524.29,-24.18 521.36,-30.53"/>
</g>
<!-- Node4 -->
<g id="node4" class="node">
<title>Node4</title>
<g id="a_node4"><a xlink:href="classargo_1_1data__distribution_1_1first__touch__distribution_a4d637cba39bb57ea4686e726252df51e.html#a4d637cba39bb57ea4686e726252df51e" target="_top" xlink:title="perform the necessary directory actions">
<polygon fill="white" stroke="black" points="340,-20.6 340,-61.6 474,-61.6 474,-20.6 340,-20.6"/>
<text text-anchor="start" x="348" y="-49.6" font-family="Helvetica,sans-Serif" font-size="10.00">argo::data_distribution</text>
<text text-anchor="start" x="348" y="-38.6" font-family="Helvetica,sans-Serif" font-size="10.00">::first_touch_distribution</text>
<text text-anchor="middle" x="407" y="-27.6" font-family="Helvetica,sans-Serif" font-size="10.00">::update_dirs</text>
</a>
</g>
</g>
<!-- Node1&#45;&gt;Node4 -->
<g id="edge6" class="edge">
<title>Node1&#45;&gt;Node4</title>
<path fill="none" stroke="midnightblue" d="M134.37,-36.28C190.42,-37.28 270.69,-38.7 329.44,-39.74"/>
<polygon fill="midnightblue" stroke="midnightblue" points="329.72,-43.25 339.78,-39.93 329.84,-36.25 329.72,-43.25"/>
</g>
<!-- Node2&#45;&gt;Node3 -->
<g id="edge2" class="edge">
<title>Node2&#45;&gt;Node3</title>
<path fill="none" stroke="midnightblue" d="M304.11,-86.04C351.85,-86.09 417.57,-83.39 474,-71.1 490.42,-67.53 507.93,-60.89 522.05,-54.76"/>
<polygon fill="midnightblue" stroke="midnightblue" points="523.53,-57.93 531.23,-50.65 520.67,-51.55 523.53,-57.93"/>
</g>
<!-- Node2&#45;&gt;Node4 -->
<g id="edge3" class="edge">
<title>Node2&#45;&gt;Node4</title>
<path fill="none" stroke="midnightblue" d="M304.4,-67.11C312.77,-64.96 321.39,-62.76 329.89,-60.58"/>
<polygon fill="midnightblue" stroke="midnightblue" points="330.99,-63.91 339.81,-58.04 329.25,-57.13 330.99,-63.91"/>
</g>
<!-- Node4&#45;&gt;Node3 -->
<g id="edge4" class="edge">
<title>Node4&#45;&gt;Node3</title>
<path fill="none" stroke="midnightblue" d="M474.24,-41.1C482.73,-41.1 491.31,-41.1 499.49,-41.1"/>
<polygon fill="midnightblue" stroke="midnightblue" points="499.62,-44.6 509.62,-41.1 499.62,-37.6 499.62,-44.6"/>
</g>
</g>
</svg>
