<?xml version="1.0" encoding="UTF-8" standalone="no"?>
<!DOCTYPE svg PUBLIC "-//W3C//DTD SVG 1.1//EN"
 "http://www.w3.org/Graphics/SVG/1.1/DTD/svg11.dtd">
<!-- Generated by graphviz version 2.43.0 (0)
 -->
<!-- Title: barrierTest Pages: 1 -->
<svg width="256pt" height="95pt"
 viewBox="0.00 0.00 255.50 95.00" xmlns="http://www.w3.org/2000/svg" xmlns:xlink="http://www.w3.org/1999/xlink">
<g id="graph0" class="graph" transform="scale(1 1) rotate(0) translate(4 91)">
<title>barrierTest</title>
<polygon fill="white" stroke="transparent" points="-4,4 -4,-91 251.5,-91 251.5,4 -4,4"/>
<!-- Node1 -->
<g id="node1" class="node">
<title>Node1</title>
<g id="a_node1"><a xlink:title="Class for the gtests fixture tests. Will reset the allocators to a clean state for every test.">
<polygon fill="#bfbfbf" stroke="black" points="70,-0.5 70,-19.5 138,-19.5 138,-0.5 70,-0.5"/>
<text text-anchor="middle" x="104" y="-7.5" font-family="Helvetica,sans-Serif" font-size="10.00">barrierTest</text>
</a>
</g>
</g>
<!-- Node2 -->
<g id="node2" class="node">
<title>Node2</title>
<g id="a_node2"><a xlink:title=" ">
<polygon fill="white" stroke="#bfbfbf" points="0,-62 0,-81 76,-81 76,-62 0,-62"/>
<text text-anchor="middle" x="38" y="-69" font-family="Helvetica,sans-Serif" font-size="10.00">testing::Test</text>
</a>
</g>
</g>
<!-- Node2&#45;&gt;Node1 -->
<g id="edge1" class="edge">
<title>Node2&#45;&gt;Node1</title>
<path fill="none" stroke="midnightblue" d="M55.03,-55.15C67.61,-43.81 84.28,-28.78 94.56,-19.51"/>
<polygon fill="midnightblue" stroke="midnightblue" points="52.54,-52.68 47.46,-61.98 57.23,-57.88 52.54,-52.68"/>
</g>
<!-- Node3 -->
<g id="node3" class="node">
<title>Node3</title>
<g id="a_node3"><a xlink:title=" ">
<polygon fill="white" stroke="#bfbfbf" points="94.5,-56.5 94.5,-86.5 247.5,-86.5 247.5,-56.5 94.5,-56.5"/>
<text text-anchor="start" x="102.5" y="-74.5" font-family="Helvetica,sans-Serif" font-size="10.00">testing::WithParamInterface</text>
<text text-anchor="middle" x="171" y="-63.5" font-family="Helvetica,sans-Serif" font-size="10.00">&lt; int &gt;</text>
</a>
</g>
</g>
<!-- Node3&#45;&gt;Node1 -->
<g id="edge2" class="edge">
<title>Node3&#45;&gt;Node1</title>
<path fill="none" stroke="midnightblue" d="M147.46,-49.6C135.88,-39.32 122.56,-27.48 113.75,-19.66"/>
<polygon fill="midnightblue" stroke="midnightblue" points="145.32,-52.38 155.12,-56.4 149.97,-47.14 145.32,-52.38"/>
</g>
</g>
</svg>
