<?xml version="1.0" encoding="UTF-8" standalone="no"?>
<!DOCTYPE svg PUBLIC "-//W3C//DTD SVG 1.1//EN"
 "http://www.w3.org/Graphics/SVG/1.1/DTD/svg11.dtd">
<!-- Generated by graphviz version 2.43.0 (0)
 -->
<!-- Title: argo::data_distribution::naive_distribution::homenode Pages: 1 -->
<svg width="461pt" height="110pt"
 viewBox="0.00 0.00 461.00 110.00" xmlns="http://www.w3.org/2000/svg" xmlns:xlink="http://www.w3.org/1999/xlink">
<g id="graph0" class="graph" transform="scale(1 1) rotate(0) translate(4 106)">
<title>argo::data_distribution::naive_distribution::homenode</title>
<polygon fill="white" stroke="transparent" points="-4,4 -4,-106 457,-106 457,4 -4,4"/>
<!-- Node1 -->
<g id="node1" class="node">
<title>Node1</title>
<g id="a_node1"><a xlink:title="compute home node of an address">
<polygon fill="#bfbfbf" stroke="black" points="326,-30.5 326,-71.5 453,-71.5 453,-30.5 326,-30.5"/>
<text text-anchor="start" x="334" y="-59.5" font-family="Helvetica,sans-Serif" font-size="10.00">argo::data_distribution</text>
<text text-anchor="start" x="334" y="-48.5" font-family="Helvetica,sans-Serif" font-size="10.00">::naive_distribution::</text>
<text text-anchor="middle" x="389.5" y="-37.5" font-family="Helvetica,sans-Serif" font-size="10.00">homenode</text>
</a>
</g>
</g>
<!-- Node2 -->
<g id="node2" class="node">
<title>Node2</title>
<g id="a_node2"><a xlink:href="classargo_1_1data__distribution_1_1naive__distribution_a619080ce7c979d6dfcf18872dd8f6f25.html#a619080ce7c979d6dfcf18872dd8f6f25" target="_top" xlink:title="compute the offset of ptr in the backing store on ptr&#39;s homenode">
<polygon fill="white" stroke="black" points="163,-60.5 163,-101.5 290,-101.5 290,-60.5 163,-60.5"/>
<text text-anchor="start" x="171" y="-89.5" font-family="Helvetica,sans-Serif" font-size="10.00">argo::data_distribution</text>
<text text-anchor="start" x="171" y="-78.5" font-family="Helvetica,sans-Serif" font-size="10.00">::naive_distribution::</text>
<text text-anchor="middle" x="226.5" y="-67.5" font-family="Helvetica,sans-Serif" font-size="10.00">local_offset</text>
</a>
</g>
</g>
<!-- Node1&#45;&gt;Node2 -->
<g id="edge1" class="edge">
<title>Node1&#45;&gt;Node2</title>
<path fill="none" stroke="midnightblue" d="M315.78,-64.55C307.19,-66.15 298.47,-67.78 290.04,-69.35"/>
<polygon fill="midnightblue" stroke="midnightblue" points="316.6,-67.96 325.79,-62.68 315.32,-61.08 316.6,-67.96"/>
</g>
<!-- Node4 -->
<g id="node4" class="node">
<title>Node4</title>
<g id="a_node4"><a xlink:href="classargo_1_1data__distribution_1_1naive__distribution_adb1f76a7f7ae28409c807b91c2b10d11.html#adb1f76a7f7ae28409c807b91c2b10d11" target="_top" xlink:title="compute home node of an address">
<polygon fill="white" stroke="black" points="163,-0.5 163,-41.5 290,-41.5 290,-0.5 163,-0.5"/>
<text text-anchor="start" x="171" y="-29.5" font-family="Helvetica,sans-Serif" font-size="10.00">argo::data_distribution</text>
<text text-anchor="start" x="171" y="-18.5" font-family="Helvetica,sans-Serif" font-size="10.00">::naive_distribution::</text>
<text text-anchor="middle" x="226.5" y="-7.5" font-family="Helvetica,sans-Serif" font-size="10.00">peek_homenode</text>
</a>
</g>
</g>
<!-- Node1&#45;&gt;Node4 -->
<g id="edge3" class="edge">
<title>Node1&#45;&gt;Node4</title>
<path fill="none" stroke="midnightblue" d="M315.78,-37.45C307.19,-35.85 298.47,-34.22 290.04,-32.65"/>
<polygon fill="midnightblue" stroke="midnightblue" points="315.32,-40.92 325.79,-39.32 316.6,-34.04 315.32,-40.92"/>
</g>
<!-- Node3 -->
<g id="node3" class="node">
<title>Node3</title>
<g id="a_node3"><a xlink:href="classargo_1_1data__distribution_1_1naive__distribution_a660d96f00c9eb100b08e590fa02efce7.html#a660d96f00c9eb100b08e590fa02efce7" target="_top" xlink:title="compute the offset of ptr in the backing store on ptr&#39;s homenode">
<polygon fill="white" stroke="black" points="0,-60.5 0,-101.5 127,-101.5 127,-60.5 0,-60.5"/>
<text text-anchor="start" x="8" y="-89.5" font-family="Helvetica,sans-Serif" font-size="10.00">argo::data_distribution</text>
<text text-anchor="start" x="8" y="-78.5" font-family="Helvetica,sans-Serif" font-size="10.00">::naive_distribution::</text>
<text text-anchor="middle" x="63.5" y="-67.5" font-family="Helvetica,sans-Serif" font-size="10.00">peek_local_offset</text>
</a>
</g>
</g>
<!-- Node2&#45;&gt;Node3 -->
<g id="edge2" class="edge">
<title>Node2&#45;&gt;Node3</title>
<path fill="none" stroke="midnightblue" d="M152.78,-81C144.19,-81 135.47,-81 127.04,-81"/>
<polygon fill="midnightblue" stroke="midnightblue" points="152.79,-84.5 162.79,-81 152.79,-77.5 152.79,-84.5"/>
</g>
</g>
</svg>
