<?xml version="1.0" encoding="UTF-8" standalone="no"?>
<!DOCTYPE svg PUBLIC "-//W3C//DTD SVG 1.1//EN"
 "http://www.w3.org/Graphics/SVG/1.1/DTD/svg11.dtd">
<!-- Generated by graphviz version 2.43.0 (0)
 -->
<!-- Title: argo::globallock::global_tas_lock Pages: 1 -->
<svg width="178pt" height="351pt"
 viewBox="0.00 0.00 178.00 351.00" xmlns="http://www.w3.org/2000/svg" xmlns:xlink="http://www.w3.org/1999/xlink">
<g id="graph0" class="graph" transform="scale(1 1) rotate(0) translate(4 347)">
<title>argo::globallock::global_tas_lock</title>
<polygon fill="white" stroke="transparent" points="-4,4 -4,-347 174,-347 174,4 -4,4"/>
<!-- Node1 -->
<g id="node1" class="node">
<title>Node1</title>
<g id="a_node1"><a xlink:title="a global test&#45;and&#45;set lock">
<polygon fill="#bfbfbf" stroke="black" points="19.5,-0.5 19.5,-30.5 150.5,-30.5 150.5,-0.5 19.5,-0.5"/>
<text text-anchor="start" x="27.5" y="-18.5" font-family="Helvetica,sans-Serif" font-size="10.00">argo::globallock::global</text>
<text text-anchor="middle" x="85" y="-7.5" font-family="Helvetica,sans-Serif" font-size="10.00">_tas_lock</text>
</a>
</g>
</g>
<!-- Node2 -->
<g id="node2" class="node">
<title>Node2</title>
<g id="a_node2"><a xlink:href="classargo_1_1data__distribution_1_1global__ptr.html" target="_top" xlink:title=" ">
<polygon fill="white" stroke="black" points="13.5,-78.5 13.5,-108.5 156.5,-108.5 156.5,-78.5 13.5,-78.5"/>
<text text-anchor="start" x="21.5" y="-96.5" font-family="Helvetica,sans-Serif" font-size="10.00">argo::data_distribution</text>
<text text-anchor="middle" x="85" y="-85.5" font-family="Helvetica,sans-Serif" font-size="10.00">::global_ptr&lt; std::size_t &gt;</text>
</a>
</g>
</g>
<!-- Node2&#45;&gt;Node1 -->
<g id="edge1" class="edge">
<title>Node2&#45;&gt;Node1</title>
<path fill="none" stroke="#9a32cd" stroke-dasharray="5,2" d="M85,-68.09C85,-55.76 85,-41.22 85,-30.73"/>
<polygon fill="#9a32cd" stroke="#9a32cd" points="81.5,-68.2 85,-78.2 88.5,-68.21 81.5,-68.2"/>
<text text-anchor="middle" x="106.5" y="-52" font-family="Helvetica,sans-Serif" font-size="10.00"> lastuser</text>
</g>
<!-- Node3 -->
<g id="node3" class="node">
<title>Node3</title>
<g id="a_node3"><a xlink:href="classargo_1_1data__distribution_1_1global__ptr.html" target="_top" xlink:title="smart pointers for global memory addresses">
<polygon fill="white" stroke="black" points="21.5,-156.5 21.5,-186.5 148.5,-186.5 148.5,-156.5 21.5,-156.5"/>
<text text-anchor="start" x="29.5" y="-174.5" font-family="Helvetica,sans-Serif" font-size="10.00">argo::data_distribution</text>
<text text-anchor="middle" x="85" y="-163.5" font-family="Helvetica,sans-Serif" font-size="10.00">::global_ptr&lt; T, Dist &gt;</text>
</a>
</g>
</g>
<!-- Node3&#45;&gt;Node2 -->
<g id="edge2" class="edge">
<title>Node3&#45;&gt;Node2</title>
<path fill="none" stroke="orange" stroke-dasharray="5,2" d="M85,-146.09C85,-133.76 85,-119.22 85,-108.73"/>
<polygon fill="orange" stroke="orange" points="81.5,-146.2 85,-156.2 88.5,-146.21 81.5,-146.2"/>
<text text-anchor="middle" x="123" y="-130" font-family="Helvetica,sans-Serif" font-size="10.00"> &lt; std::size_t &gt;</text>
</g>
<!-- Node4 -->
<g id="node4" class="node">
<title>Node4</title>
<g id="a_node4"><a xlink:href="classargo_1_1data__distribution_1_1base__distribution.html" target="_top" xlink:title=" ">
<polygon fill="white" stroke="black" points="17.5,-234.5 17.5,-264.5 152.5,-264.5 152.5,-234.5 17.5,-234.5"/>
<text text-anchor="start" x="25.5" y="-252.5" font-family="Helvetica,sans-Serif" font-size="10.00">argo::data_distribution</text>
<text text-anchor="middle" x="85" y="-241.5" font-family="Helvetica,sans-Serif" font-size="10.00">::base_distribution&lt; 0 &gt;</text>
</a>
</g>
</g>
<!-- Node4&#45;&gt;Node3 -->
<g id="edge3" class="edge">
<title>Node4&#45;&gt;Node3</title>
<path fill="none" stroke="#9a32cd" stroke-dasharray="5,2" d="M85,-224.09C85,-211.76 85,-197.22 85,-186.73"/>
<polygon fill="#9a32cd" stroke="#9a32cd" points="81.5,-224.2 85,-234.2 88.5,-224.21 81.5,-224.2"/>
<text text-anchor="middle" x="105.5" y="-208" font-family="Helvetica,sans-Serif" font-size="10.00"> policies</text>
</g>
<!-- Node5 -->
<g id="node5" class="node">
<title>Node5</title>
<g id="a_node5"><a xlink:href="classargo_1_1data__distribution_1_1base__distribution.html" target="_top" xlink:title="the base data distribution class">
<polygon fill="white" stroke="black" points="0,-312.5 0,-342.5 170,-342.5 170,-312.5 0,-312.5"/>
<text text-anchor="start" x="8" y="-330.5" font-family="Helvetica,sans-Serif" font-size="10.00">argo::data_distribution</text>
<text text-anchor="middle" x="85" y="-319.5" font-family="Helvetica,sans-Serif" font-size="10.00">::base_distribution&lt; instance &gt;</text>
</a>
</g>
</g>
<!-- Node5&#45;&gt;Node4 -->
<g id="edge4" class="edge">
<title>Node5&#45;&gt;Node4</title>
<path fill="none" stroke="orange" stroke-dasharray="5,2" d="M85,-302.09C85,-289.76 85,-275.22 85,-264.73"/>
<polygon fill="orange" stroke="orange" points="81.5,-302.2 85,-312.2 88.5,-302.21 81.5,-302.2"/>
<text text-anchor="middle" x="101" y="-286" font-family="Helvetica,sans-Serif" font-size="10.00"> &lt; 0 &gt;</text>
</g>
</g>
</svg>
