<?xml version="1.0" encoding="UTF-8" standalone="no"?>
<!DOCTYPE svg PUBLIC "-//W3C//DTD SVG 1.1//EN"
 "http://www.w3.org/Graphics/SVG/1.1/DTD/svg11.dtd">
<!-- Generated by graphviz version 2.43.0 (0)
 -->
<!-- Title: argo::signal::signal_handler::argo_signal_handler Pages: 1 -->
<svg width="552pt" height="50pt"
 viewBox="0.00 0.00 552.00 50.00" xmlns="http://www.w3.org/2000/svg" xmlns:xlink="http://www.w3.org/1999/xlink">
<g id="graph0" class="graph" transform="scale(1 1) rotate(0) translate(4 46)">
<title>argo::signal::signal_handler::argo_signal_handler</title>
<polygon fill="white" stroke="transparent" points="-4,4 -4,-46 548,-46 548,4 -4,4"/>
<!-- Node1 -->
<g id="node1" class="node">
<title>Node1</title>
<g id="a_node1"><a xlink:title="a generic signal handler function">
<polygon fill="#bfbfbf" stroke="black" points="423,-0.5 423,-41.5 544,-41.5 544,-0.5 423,-0.5"/>
<text text-anchor="start" x="431" y="-29.5" font-family="Helvetica,sans-Serif" font-size="10.00">argo::signal::signal</text>
<text text-anchor="start" x="431" y="-18.5" font-family="Helvetica,sans-Serif" font-size="10.00">_handler::argo_signal</text>
<text text-anchor="middle" x="483.5" y="-7.5" font-family="Helvetica,sans-Serif" font-size="10.00">_handler</text>
</a>
</g>
</g>
<!-- Node2 -->
<g id="node2" class="node">
<title>Node2</title>
<g id="a_node2"><a xlink:href="classargo_1_1signal_1_1signal__handler_a07112cd878d25cae303dc9a65c73d059.html#a07112cd878d25cae303dc9a65c73d059" target="_top" xlink:title="install a signal handler for ArgoDSM">
<polygon fill="white" stroke="black" points="265,-0.5 265,-41.5 387,-41.5 387,-0.5 265,-0.5"/>
<text text-anchor="start" x="273" y="-29.5" font-family="Helvetica,sans-Serif" font-size="10.00">argo::signal::signal</text>
<text text-anchor="start" x="273" y="-18.5" font-family="Helvetica,sans-Serif" font-size="10.00">_handler::install_argo</text>
<text text-anchor="middle" x="326" y="-7.5" font-family="Helvetica,sans-Serif" font-size="10.00">_handler</text>
</a>
</g>
</g>
<!-- Node1&#45;&gt;Node2 -->
<g id="edge1" class="edge">
<title>Node1&#45;&gt;Node2</title>
<path fill="none" stroke="midnightblue" d="M412.81,-21C404.21,-21 395.47,-21 387.03,-21"/>
<polygon fill="midnightblue" stroke="midnightblue" points="412.82,-24.5 422.82,-21 412.82,-17.5 412.82,-24.5"/>
</g>
<!-- Node3 -->
<g id="node3" class="node">
<title>Node3</title>
<g id="a_node3"><a xlink:href="swdsm_8cpp_a31ba60e8ddccfa922da8d7e6a10f7b1d.html#a31ba60e8ddccfa922da8d7e6a10f7b1d" target="_top" xlink:title="Initializes ArgoDSM runtime.">
<polygon fill="white" stroke="black" points="143,-11.5 143,-30.5 229,-30.5 229,-11.5 143,-11.5"/>
<text text-anchor="middle" x="186" y="-18.5" font-family="Helvetica,sans-Serif" font-size="10.00">argo_initialize</text>
</a>
</g>
</g>
<!-- Node2&#45;&gt;Node3 -->
<g id="edge2" class="edge">
<title>Node2&#45;&gt;Node3</title>
<path fill="none" stroke="midnightblue" d="M254.65,-21C245.92,-21 237.22,-21 229.1,-21"/>
<polygon fill="midnightblue" stroke="midnightblue" points="254.87,-24.5 264.87,-21 254.87,-17.5 254.87,-24.5"/>
</g>
<!-- Node4 -->
<g id="node4" class="node">
<title>Node4</title>
<g id="a_node4"><a xlink:href="backend_8hpp_aab3cabb3e1c0b9696b339416b684f78c.html#aab3cabb3e1c0b9696b339416b684f78c" target="_top" xlink:title="initialize backend">
<polygon fill="white" stroke="black" points="0,-11.5 0,-30.5 107,-30.5 107,-11.5 0,-11.5"/>
<text text-anchor="middle" x="53.5" y="-18.5" font-family="Helvetica,sans-Serif" font-size="10.00">argo::backend::init</text>
</a>
</g>
</g>
<!-- Node3&#45;&gt;Node4 -->
<g id="edge3" class="edge">
<title>Node3&#45;&gt;Node4</title>
<path fill="none" stroke="midnightblue" d="M132.94,-21C124.54,-21 115.84,-21 107.43,-21"/>
<polygon fill="midnightblue" stroke="midnightblue" points="132.99,-24.5 142.99,-21 132.99,-17.5 132.99,-24.5"/>
</g>
</g>
</svg>
