<?xml version="1.0" encoding="UTF-8" standalone="no"?>
<!DOCTYPE svg PUBLIC "-//W3C//DTD SVG 1.1//EN"
 "http://www.w3.org/Graphics/SVG/1.1/DTD/svg11.dtd">
<!-- Generated by graphviz version 2.43.0 (0)
 -->
<!-- Title: argo::data_distribution::base_distribution&lt; instance &gt; Pages: 1 -->
<svg width="391pt" height="340pt"
 viewBox="0.00 0.00 391.00 339.50" xmlns="http://www.w3.org/2000/svg" xmlns:xlink="http://www.w3.org/1999/xlink">
<g id="graph0" class="graph" transform="scale(1 1) rotate(0) translate(4 335.5)">
<title>argo::data_distribution::base_distribution&lt; instance &gt;</title>
<polygon fill="white" stroke="transparent" points="-4,4 -4,-335.5 387,-335.5 387,4 -4,4"/>
<!-- Node1 -->
<g id="node1" class="node">
<title>Node1</title>
<g id="a_node1"><a xlink:title="the base data distribution class">
<polygon fill="#bfbfbf" stroke="black" points="0,-145.5 0,-175.5 170,-175.5 170,-145.5 0,-145.5"/>
<text text-anchor="start" x="8" y="-163.5" font-family="Helvetica,sans-Serif" font-size="10.00">argo::data_distribution</text>
<text text-anchor="middle" x="85" y="-152.5" font-family="Helvetica,sans-Serif" font-size="10.00">::base_distribution&lt; instance &gt;</text>
</a>
</g>
</g>
<!-- Node2 -->
<g id="node2" class="node">
<title>Node2</title>
<g id="a_node2"><a xlink:href="classargo_1_1data__distribution_1_1cyclic__distribution.html" target="_top" xlink:title="the cyclic data distribution">
<polygon fill="white" stroke="black" points="247,-290 247,-331 374,-331 374,-290 247,-290"/>
<text text-anchor="start" x="255" y="-319" font-family="Helvetica,sans-Serif" font-size="10.00">argo::data_distribution</text>
<text text-anchor="start" x="255" y="-308" font-family="Helvetica,sans-Serif" font-size="10.00">::cyclic_distribution</text>
<text text-anchor="middle" x="310.5" y="-297" font-family="Helvetica,sans-Serif" font-size="10.00">&lt; instance &gt;</text>
</a>
</g>
</g>
<!-- Node1&#45;&gt;Node2 -->
<g id="edge1" class="edge">
<title>Node1&#45;&gt;Node2</title>
<path fill="none" stroke="midnightblue" d="M109.72,-182.61C138.43,-208.54 189.03,-251.62 238,-280.5 243.68,-283.85 249.81,-287.02 256,-289.95"/>
<polygon fill="midnightblue" stroke="midnightblue" points="111.98,-179.93 102.23,-175.78 107.26,-185.1 111.98,-179.93"/>
</g>
<!-- Node3 -->
<g id="node3" class="node">
<title>Node3</title>
<g id="a_node3"><a xlink:href="classargo_1_1data__distribution_1_1first__touch__distribution.html" target="_top" xlink:title="the first&#45;touch data distribution">
<polygon fill="white" stroke="black" points="243.5,-230 243.5,-271 377.5,-271 377.5,-230 243.5,-230"/>
<text text-anchor="start" x="251.5" y="-259" font-family="Helvetica,sans-Serif" font-size="10.00">argo::data_distribution</text>
<text text-anchor="start" x="251.5" y="-248" font-family="Helvetica,sans-Serif" font-size="10.00">::first_touch_distribution</text>
<text text-anchor="middle" x="310.5" y="-237" font-family="Helvetica,sans-Serif" font-size="10.00">&lt; instance &gt;</text>
</a>
</g>
</g>
<!-- Node1&#45;&gt;Node3 -->
<g id="edge2" class="edge">
<title>Node1&#45;&gt;Node3</title>
<path fill="none" stroke="midnightblue" d="M132.9,-179.39C169.68,-194.2 220.78,-214.77 258.56,-229.99"/>
<polygon fill="midnightblue" stroke="midnightblue" points="133.99,-176.05 123.41,-175.56 131.38,-182.55 133.99,-176.05"/>
</g>
<!-- Node4 -->
<g id="node4" class="node">
<title>Node4</title>
<g id="a_node4"><a xlink:href="classargo_1_1data__distribution_1_1naive__distribution.html" target="_top" xlink:title="the naive data distribution">
<polygon fill="white" stroke="black" points="247,-170 247,-211 374,-211 374,-170 247,-170"/>
<text text-anchor="start" x="255" y="-199" font-family="Helvetica,sans-Serif" font-size="10.00">argo::data_distribution</text>
<text text-anchor="start" x="255" y="-188" font-family="Helvetica,sans-Serif" font-size="10.00">::naive_distribution&lt;</text>
<text text-anchor="middle" x="310.5" y="-177" font-family="Helvetica,sans-Serif" font-size="10.00"> instance &gt;</text>
</a>
</g>
</g>
<!-- Node1&#45;&gt;Node4 -->
<g id="edge3" class="edge">
<title>Node1&#45;&gt;Node4</title>
<path fill="none" stroke="midnightblue" d="M180.38,-173.17C202.75,-176.17 226.08,-179.3 246.66,-182.06"/>
<polygon fill="midnightblue" stroke="midnightblue" points="180.55,-169.66 170.18,-171.8 179.62,-176.6 180.55,-169.66"/>
</g>
<!-- Node5 -->
<g id="node5" class="node">
<title>Node5</title>
<g id="a_node5"><a xlink:href="classargo_1_1data__distribution_1_1prime__mapp__distribution.html" target="_top" xlink:title="the prime&#45;mapp data distribution">
<polygon fill="white" stroke="black" points="238,-110 238,-151 383,-151 383,-110 238,-110"/>
<text text-anchor="start" x="246" y="-139" font-family="Helvetica,sans-Serif" font-size="10.00">argo::data_distribution</text>
<text text-anchor="start" x="246" y="-128" font-family="Helvetica,sans-Serif" font-size="10.00">::prime_mapp_distribution</text>
<text text-anchor="middle" x="310.5" y="-117" font-family="Helvetica,sans-Serif" font-size="10.00">&lt; instance &gt;</text>
</a>
</g>
</g>
<!-- Node1&#45;&gt;Node5 -->
<g id="edge4" class="edge">
<title>Node1&#45;&gt;Node5</title>
<path fill="none" stroke="midnightblue" d="M180.19,-147.86C199.48,-145.27 219.48,-142.58 237.82,-140.12"/>
<polygon fill="midnightblue" stroke="midnightblue" points="179.62,-144.4 170.18,-149.2 180.55,-151.34 179.62,-144.4"/>
</g>
<!-- Node6 -->
<g id="node6" class="node">
<title>Node6</title>
<g id="a_node6"><a xlink:href="classargo_1_1data__distribution_1_1skew__mapp__distribution.html" target="_top" xlink:title="the skew&#45;mapp data distribution">
<polygon fill="white" stroke="black" points="240,-50 240,-91 381,-91 381,-50 240,-50"/>
<text text-anchor="start" x="248" y="-79" font-family="Helvetica,sans-Serif" font-size="10.00">argo::data_distribution</text>
<text text-anchor="start" x="248" y="-68" font-family="Helvetica,sans-Serif" font-size="10.00">::skew_mapp_distribution</text>
<text text-anchor="middle" x="310.5" y="-57" font-family="Helvetica,sans-Serif" font-size="10.00">&lt; instance &gt;</text>
</a>
</g>
</g>
<!-- Node1&#45;&gt;Node6 -->
<g id="edge5" class="edge">
<title>Node1&#45;&gt;Node6</title>
<path fill="none" stroke="midnightblue" d="M132.9,-141.61C169.68,-126.8 220.78,-106.23 258.56,-91.01"/>
<polygon fill="midnightblue" stroke="midnightblue" points="131.38,-138.45 123.41,-145.44 133.99,-144.95 131.38,-138.45"/>
</g>
<!-- Node7 -->
<g id="node7" class="node">
<title>Node7</title>
<g id="a_node7"><a xlink:href="classargo_1_1data__distribution_1_1base__distribution.html" target="_top" xlink:title=" ">
<polygon fill="white" stroke="black" points="243,-0.5 243,-30.5 378,-30.5 378,-0.5 243,-0.5"/>
<text text-anchor="start" x="251" y="-18.5" font-family="Helvetica,sans-Serif" font-size="10.00">argo::data_distribution</text>
<text text-anchor="middle" x="310.5" y="-7.5" font-family="Helvetica,sans-Serif" font-size="10.00">::base_distribution&lt; 0 &gt;</text>
</a>
</g>
</g>
<!-- Node1&#45;&gt;Node7 -->
<g id="edge6" class="edge">
<title>Node1&#45;&gt;Node7</title>
<path fill="none" stroke="orange" stroke-dasharray="5,2" d="M108.97,-138.3C137.3,-111.91 187.9,-68.02 238,-40.5 244.68,-36.83 252.01,-33.54 259.34,-30.64"/>
<polygon fill="orange" stroke="orange" points="106.47,-135.84 101.58,-145.24 111.27,-140.94 106.47,-135.84"/>
<text text-anchor="middle" x="204" y="-74.5" font-family="Helvetica,sans-Serif" font-size="10.00"> &lt; 0 &gt;</text>
</g>
</g>
</svg>
