<?xml version="1.0" encoding="UTF-8" standalone="no"?>
<!DOCTYPE svg PUBLIC "-//W3C//DTD SVG 1.1//EN"
 "http://www.w3.org/Graphics/SVG/1.1/DTD/svg11.dtd">
<!-- Generated by graphviz version 2.43.0 (0)
 -->
<!-- Title: argo::data_distribution::prime_mapp_distribution::peek_local_offset Pages: 1 -->
<svg width="667pt" height="74pt"
 viewBox="0.00 0.00 667.00 74.00" xmlns="http://www.w3.org/2000/svg" xmlns:xlink="http://www.w3.org/1999/xlink">
<g id="graph0" class="graph" transform="scale(1 1) rotate(0) translate(4 70)">
<title>argo::data_distribution::prime_mapp_distribution::peek_local_offset</title>
<polygon fill="white" stroke="transparent" points="-4,4 -4,-70 663,-70 663,4 -4,4"/>
<!-- Node1 -->
<g id="node1" class="node">
<title>Node1</title>
<g id="a_node1"><a xlink:title="compute the offset of ptr in the backing store on ptr&#39;s homenode">
<polygon fill="#bfbfbf" stroke="black" points="0,-24.5 0,-65.5 145,-65.5 145,-24.5 0,-24.5"/>
<text text-anchor="start" x="8" y="-53.5" font-family="Helvetica,sans-Serif" font-size="10.00">argo::data_distribution</text>
<text text-anchor="start" x="8" y="-42.5" font-family="Helvetica,sans-Serif" font-size="10.00">::prime_mapp_distribution</text>
<text text-anchor="middle" x="72.5" y="-31.5" font-family="Helvetica,sans-Serif" font-size="10.00">::peek_local_offset</text>
</a>
</g>
</g>
<!-- Node2 -->
<g id="node2" class="node">
<title>Node2</title>
<g id="a_node2"><a xlink:href="classargo_1_1data__distribution_1_1prime__mapp__distribution_a253fb788715eda52fd5f52c26c02b444.html#a253fb788715eda52fd5f52c26c02b444" target="_top" xlink:title="compute the offset of ptr in the backing store on ptr&#39;s homenode">
<polygon fill="white" stroke="black" points="181,-24.5 181,-65.5 326,-65.5 326,-24.5 181,-24.5"/>
<text text-anchor="start" x="189" y="-53.5" font-family="Helvetica,sans-Serif" font-size="10.00">argo::data_distribution</text>
<text text-anchor="start" x="189" y="-42.5" font-family="Helvetica,sans-Serif" font-size="10.00">::prime_mapp_distribution</text>
<text text-anchor="middle" x="253.5" y="-31.5" font-family="Helvetica,sans-Serif" font-size="10.00">::local_offset</text>
</a>
</g>
</g>
<!-- Node1&#45;&gt;Node2 -->
<g id="edge1" class="edge">
<title>Node1&#45;&gt;Node2</title>
<path fill="none" stroke="midnightblue" d="M145.02,-45C153.49,-45 162.18,-45 170.78,-45"/>
<polygon fill="midnightblue" stroke="midnightblue" points="170.8,-48.5 180.8,-45 170.8,-41.5 170.8,-48.5"/>
</g>
<!-- Node3 -->
<g id="node3" class="node">
<title>Node3</title>
<g id="a_node3"><a xlink:href="namespaceargo_1_1env_a30775a9aa41b956df7474a2c0cc317aa.html#a30775a9aa41b956df7474a2c0cc317aa" target="_top" xlink:title="get the allocation block size requested by environment variable">
<polygon fill="white" stroke="black" points="543,-30 543,-60 659,-60 659,-30 543,-30"/>
<text text-anchor="start" x="551" y="-48" font-family="Helvetica,sans-Serif" font-size="10.00">argo::env::allocation</text>
<text text-anchor="middle" x="601" y="-37" font-family="Helvetica,sans-Serif" font-size="10.00">_block_size</text>
</a>
</g>
</g>
<!-- Node2&#45;&gt;Node3 -->
<g id="edge2" class="edge">
<title>Node2&#45;&gt;Node3</title>
<path fill="none" stroke="midnightblue" d="M326.18,-49.56C338.14,-50.16 350.42,-50.68 362,-51 426.42,-52.8 442.59,-53.08 507,-51 515.37,-50.73 524.15,-50.32 532.85,-49.85"/>
<polygon fill="midnightblue" stroke="midnightblue" points="533.2,-53.33 542.98,-49.26 532.79,-46.35 533.2,-53.33"/>
</g>
<!-- Node4 -->
<g id="node4" class="node">
<title>Node4</title>
<g id="a_node4"><a xlink:href="classargo_1_1data__distribution_1_1prime__mapp__distribution_ad1e401583e34588a77b0634758fa1f75.html#ad1e401583e34588a77b0634758fa1f75" target="_top" xlink:title="compute home node of an address">
<polygon fill="white" stroke="black" points="362,-0.5 362,-41.5 507,-41.5 507,-0.5 362,-0.5"/>
<text text-anchor="start" x="370" y="-29.5" font-family="Helvetica,sans-Serif" font-size="10.00">argo::data_distribution</text>
<text text-anchor="start" x="370" y="-18.5" font-family="Helvetica,sans-Serif" font-size="10.00">::prime_mapp_distribution</text>
<text text-anchor="middle" x="434.5" y="-7.5" font-family="Helvetica,sans-Serif" font-size="10.00">::homenode</text>
</a>
</g>
</g>
<!-- Node2&#45;&gt;Node4 -->
<g id="edge3" class="edge">
<title>Node2&#45;&gt;Node4</title>
<path fill="none" stroke="midnightblue" d="M326.02,-35.41C334.49,-34.28 343.18,-33.11 351.78,-31.96"/>
<polygon fill="midnightblue" stroke="midnightblue" points="352.36,-35.41 361.8,-30.61 351.43,-28.47 352.36,-35.41"/>
</g>
<!-- Node4&#45;&gt;Node3 -->
<g id="edge4" class="edge">
<title>Node4&#45;&gt;Node3</title>
<path fill="none" stroke="midnightblue" d="M507.17,-31.46C515.67,-32.7 524.32,-33.96 532.75,-35.19"/>
<polygon fill="midnightblue" stroke="midnightblue" points="532.49,-38.69 542.9,-36.67 533.51,-31.76 532.49,-38.69"/>
</g>
</g>
</svg>
