<?xml version="1.0" encoding="UTF-8" standalone="no"?>
<!DOCTYPE svg PUBLIC "-//W3C//DTD SVG 1.1//EN"
 "http://www.w3.org/Graphics/SVG/1.1/DTD/svg11.dtd">
<!-- Generated by graphviz version 2.43.0 (0)
 -->
<!-- Title: cache_lock::reset_stats Pages: 1 -->
<svg width="728pt" height="127pt"
 viewBox="0.00 0.00 728.00 126.50" xmlns="http://www.w3.org/2000/svg" xmlns:xlink="http://www.w3.org/1999/xlink">
<g id="graph0" class="graph" transform="scale(1 1) rotate(0) translate(4 122.5)">
<title>cache_lock::reset_stats</title>
<polygon fill="white" stroke="transparent" points="-4,4 -4,-122.5 724,-122.5 724,4 -4,4"/>
<!-- Node1 -->
<g id="node1" class="node">
<title>Node1</title>
<g id="a_node1"><a xlink:title="Clear all recorded statistics.">
<polygon fill="#bfbfbf" stroke="black" points="589,-37 589,-56 720,-56 720,-37 589,-37"/>
<text text-anchor="middle" x="654.5" y="-44" font-family="Helvetica,sans-Serif" font-size="10.00">cache_lock::reset_stats</text>
</a>
</g>
</g>
<!-- Node2 -->
<g id="node2" class="node">
<title>Node2</title>
<g id="a_node2"><a xlink:href="swdsm_8cpp_aef8dea0c8e31701818a5017a5ff20223.html#aef8dea0c8e31701818a5017a5ff20223" target="_top" xlink:title="Resets all ArgoDSM statistics.">
<polygon fill="white" stroke="black" points="455,-37 455,-56 553,-56 553,-37 455,-37"/>
<text text-anchor="middle" x="504" y="-44" font-family="Helvetica,sans-Serif" font-size="10.00">argo_reset_stats</text>
</a>
</g>
</g>
<!-- Node1&#45;&gt;Node2 -->
<g id="edge1" class="edge">
<title>Node1&#45;&gt;Node2</title>
<path fill="none" stroke="midnightblue" d="M578.72,-46.5C570.12,-46.5 561.53,-46.5 553.41,-46.5"/>
<polygon fill="midnightblue" stroke="midnightblue" points="578.8,-50 588.8,-46.5 578.8,-43 578.8,-50"/>
</g>
<!-- Node3 -->
<g id="node3" class="node">
<title>Node3</title>
<g id="a_node3"><a xlink:href="swdsm_8cpp_adb17e929b24ae3fd6898035fce958122.html#adb17e929b24ae3fd6898035fce958122" target="_top" xlink:title="Resets current ArgoDSM coherence.">
<polygon fill="white" stroke="black" points="295,-68 295,-87 419,-87 419,-68 295,-68"/>
<text text-anchor="middle" x="357" y="-75" font-family="Helvetica,sans-Serif" font-size="10.00">argo_reset_coherence</text>
</a>
</g>
</g>
<!-- Node2&#45;&gt;Node3 -->
<g id="edge2" class="edge">
<title>Node2&#45;&gt;Node3</title>
<path fill="none" stroke="midnightblue" d="M448.15,-58.23C433.18,-61.43 417.13,-64.86 402.79,-67.92"/>
<polygon fill="midnightblue" stroke="midnightblue" points="449.26,-61.57 458.31,-56.05 447.8,-54.72 449.26,-61.57"/>
</g>
<!-- Node7 -->
<g id="node7" class="node">
<title>Node7</title>
<g id="a_node7"><a xlink:href="backend_8hpp_af6ad14f66aee964bd630b7d194a699de.html#af6ad14f66aee964bd630b7d194a699de" target="_top" xlink:title="Resets statistics for the ArgoDSM backend in use.">
<polygon fill="white" stroke="black" points="299,-0.5 299,-30.5 415,-30.5 415,-0.5 299,-0.5"/>
<text text-anchor="start" x="307" y="-18.5" font-family="Helvetica,sans-Serif" font-size="10.00">argo::backend::reset</text>
<text text-anchor="middle" x="357" y="-7.5" font-family="Helvetica,sans-Serif" font-size="10.00">_stats</text>
</a>
</g>
</g>
<!-- Node2&#45;&gt;Node7 -->
<g id="edge7" class="edge">
<title>Node2&#45;&gt;Node7</title>
<path fill="none" stroke="midnightblue" d="M448.49,-34.85C437.59,-32.52 426.11,-30.06 415.12,-27.71"/>
<polygon fill="midnightblue" stroke="midnightblue" points="447.8,-38.28 458.31,-36.95 449.26,-31.43 447.8,-38.28"/>
</g>
<!-- Node4 -->
<g id="node4" class="node">
<title>Node4</title>
<g id="a_node4"><a xlink:href="swdsm_8cpp_a31ba60e8ddccfa922da8d7e6a10f7b1d.html#a31ba60e8ddccfa922da8d7e6a10f7b1d" target="_top" xlink:title="Initializes ArgoDSM runtime.">
<polygon fill="white" stroke="black" points="158,-99 158,-118 244,-118 244,-99 158,-99"/>
<text text-anchor="middle" x="201" y="-106" font-family="Helvetica,sans-Serif" font-size="10.00">argo_initialize</text>
</a>
</g>
</g>
<!-- Node3&#45;&gt;Node4 -->
<g id="edge3" class="edge">
<title>Node3&#45;&gt;Node4</title>
<path fill="none" stroke="midnightblue" d="M298.67,-89.04C280.57,-92.68 260.92,-96.64 244.09,-100.03"/>
<polygon fill="midnightblue" stroke="midnightblue" points="299.43,-92.46 308.54,-87.05 298.04,-85.6 299.43,-92.46"/>
</g>
<!-- Node6 -->
<g id="node6" class="node">
<title>Node6</title>
<g id="a_node6"><a xlink:href="backend_8hpp_acb57f009ad65913e26147c6813eda04e.html#acb57f009ad65913e26147c6813eda04e" target="_top" xlink:title="Resets current ArgoDSM coherence.">
<polygon fill="white" stroke="black" points="143,-31.5 143,-61.5 259,-61.5 259,-31.5 143,-31.5"/>
<text text-anchor="start" x="151" y="-49.5" font-family="Helvetica,sans-Serif" font-size="10.00">argo::backend::reset</text>
<text text-anchor="middle" x="201" y="-38.5" font-family="Helvetica,sans-Serif" font-size="10.00">_coherence</text>
</a>
</g>
</g>
<!-- Node3&#45;&gt;Node6 -->
<g id="edge5" class="edge">
<title>Node3&#45;&gt;Node6</title>
<path fill="none" stroke="midnightblue" d="M298.41,-65.91C285.54,-63.32 271.9,-60.57 259.05,-57.98"/>
<polygon fill="midnightblue" stroke="midnightblue" points="298.04,-69.4 308.54,-67.95 299.43,-62.54 298.04,-69.4"/>
</g>
<!-- Node5 -->
<g id="node5" class="node">
<title>Node5</title>
<g id="a_node5"><a xlink:href="backend_8hpp_aab3cabb3e1c0b9696b339416b684f78c.html#aab3cabb3e1c0b9696b339416b684f78c" target="_top" xlink:title="initialize backend">
<polygon fill="white" stroke="black" points="0,-99 0,-118 107,-118 107,-99 0,-99"/>
<text text-anchor="middle" x="53.5" y="-106" font-family="Helvetica,sans-Serif" font-size="10.00">argo::backend::init</text>
</a>
</g>
</g>
<!-- Node4&#45;&gt;Node5 -->
<g id="edge4" class="edge">
<title>Node4&#45;&gt;Node5</title>
<path fill="none" stroke="midnightblue" d="M147.6,-108.5C134.42,-108.5 120.29,-108.5 107.1,-108.5"/>
<polygon fill="midnightblue" stroke="midnightblue" points="147.92,-112 157.92,-108.5 147.92,-105 147.92,-112"/>
</g>
<!-- Node6&#45;&gt;Node6 -->
<g id="edge6" class="edge">
<title>Node6&#45;&gt;Node6</title>
<path fill="none" stroke="midnightblue" d="M226.94,-71.96C223.72,-76.68 215.08,-80 201,-80 177.9,-80 169.42,-71.06 175.56,-61.66"/>
<polygon fill="midnightblue" stroke="midnightblue" points="230.42,-71.48 226.44,-61.66 223.43,-71.82 230.42,-71.48"/>
</g>
<!-- Node7&#45;&gt;Node7 -->
<g id="edge8" class="edge">
<title>Node7&#45;&gt;Node7</title>
<path fill="none" stroke="midnightblue" d="M382.94,-40.96C379.72,-45.68 371.08,-49 357,-49 333.9,-49 325.42,-40.06 331.56,-30.66"/>
<polygon fill="midnightblue" stroke="midnightblue" points="386.42,-40.48 382.44,-30.66 379.43,-40.82 386.42,-40.48"/>
</g>
</g>
</svg>
