<?xml version="1.0" encoding="UTF-8" standalone="no"?>
<!DOCTYPE svg PUBLIC "-//W3C//DTD SVG 1.1//EN"
 "http://www.w3.org/Graphics/SVG/1.1/DTD/svg11.dtd">
<!-- Generated by graphviz version 2.43.0 (0)
 -->
<!-- Title: argo::data_distribution::first_touch_distribution::update_dirs Pages: 1 -->
<svg width="482pt" height="208pt"
 viewBox="0.00 0.00 482.00 208.00" xmlns="http://www.w3.org/2000/svg" xmlns:xlink="http://www.w3.org/1999/xlink">
<g id="graph0" class="graph" transform="scale(1 1) rotate(0) translate(4 204)">
<title>argo::data_distribution::first_touch_distribution::update_dirs</title>
<polygon fill="white" stroke="transparent" points="-4,4 -4,-204 478,-204 478,4 -4,4"/>
<!-- Node1 -->
<g id="node1" class="node">
<title>Node1</title>
<g id="a_node1"><a xlink:title="perform the necessary directory actions">
<polygon fill="#bfbfbf" stroke="black" points="340,-84.5 340,-125.5 474,-125.5 474,-84.5 340,-84.5"/>
<text text-anchor="start" x="348" y="-113.5" font-family="Helvetica,sans-Serif" font-size="10.00">argo::data_distribution</text>
<text text-anchor="start" x="348" y="-102.5" font-family="Helvetica,sans-Serif" font-size="10.00">::first_touch_distribution</text>
<text text-anchor="middle" x="407" y="-91.5" font-family="Helvetica,sans-Serif" font-size="10.00">::update_dirs</text>
</a>
</g>
</g>
<!-- Node2 -->
<g id="node2" class="node">
<title>Node2</title>
<g id="a_node2"><a xlink:href="classargo_1_1data__distribution_1_1first__touch__distribution_a3072e6056edc945f0714bbdb775718ed.html#a3072e6056edc945f0714bbdb775718ed" target="_top" xlink:title="compute home node of an address">
<polygon fill="white" stroke="black" points="170,-158.5 170,-199.5 304,-199.5 304,-158.5 170,-158.5"/>
<text text-anchor="start" x="178" y="-187.5" font-family="Helvetica,sans-Serif" font-size="10.00">argo::data_distribution</text>
<text text-anchor="start" x="178" y="-176.5" font-family="Helvetica,sans-Serif" font-size="10.00">::first_touch_distribution</text>
<text text-anchor="middle" x="237" y="-165.5" font-family="Helvetica,sans-Serif" font-size="10.00">::homenode</text>
</a>
</g>
</g>
<!-- Node1&#45;&gt;Node2 -->
<g id="edge1" class="edge">
<title>Node1&#45;&gt;Node2</title>
<path fill="none" stroke="midnightblue" d="M349.97,-129.68C328.74,-139.03 304.81,-149.57 284.55,-158.5"/>
<polygon fill="midnightblue" stroke="midnightblue" points="351.46,-132.85 359.2,-125.61 348.64,-126.44 351.46,-132.85"/>
</g>
<!-- Node3 -->
<g id="node3" class="node">
<title>Node3</title>
<g id="a_node3"><a xlink:href="classargo_1_1data__distribution_1_1first__touch__distribution_ac1f2f15350c218a5dff4e5e06110e655.html#ac1f2f15350c218a5dff4e5e06110e655" target="_top" xlink:title="compute home node of an address">
<polygon fill="white" stroke="black" points="0,-133.5 0,-174.5 134,-174.5 134,-133.5 0,-133.5"/>
<text text-anchor="start" x="8" y="-162.5" font-family="Helvetica,sans-Serif" font-size="10.00">argo::data_distribution</text>
<text text-anchor="start" x="8" y="-151.5" font-family="Helvetica,sans-Serif" font-size="10.00">::first_touch_distribution</text>
<text text-anchor="middle" x="67" y="-140.5" font-family="Helvetica,sans-Serif" font-size="10.00">::peek_homenode</text>
</a>
</g>
</g>
<!-- Node1&#45;&gt;Node3 -->
<g id="edge4" class="edge">
<title>Node1&#45;&gt;Node3</title>
<path fill="none" stroke="midnightblue" d="M329.64,-116.07C270.82,-124.6 190.34,-136.26 134.22,-144.4"/>
<polygon fill="midnightblue" stroke="midnightblue" points="330.23,-119.52 339.63,-114.62 329.23,-112.59 330.23,-119.52"/>
</g>
<!-- Node4 -->
<g id="node4" class="node">
<title>Node4</title>
<g id="a_node4"><a xlink:href="classargo_1_1data__distribution_1_1first__touch__distribution_aa8574afc7f9e197c51ea71df78f4908d.html#aa8574afc7f9e197c51ea71df78f4908d" target="_top" xlink:title="compute the offset of ptr in the backing store on ptr&#39;s homenode">
<polygon fill="white" stroke="black" points="170,-60.5 170,-101.5 304,-101.5 304,-60.5 170,-60.5"/>
<text text-anchor="start" x="178" y="-89.5" font-family="Helvetica,sans-Serif" font-size="10.00">argo::data_distribution</text>
<text text-anchor="start" x="178" y="-78.5" font-family="Helvetica,sans-Serif" font-size="10.00">::first_touch_distribution</text>
<text text-anchor="middle" x="237" y="-67.5" font-family="Helvetica,sans-Serif" font-size="10.00">::local_offset</text>
</a>
</g>
</g>
<!-- Node1&#45;&gt;Node4 -->
<g id="edge3" class="edge">
<title>Node1&#45;&gt;Node4</title>
<path fill="none" stroke="midnightblue" d="M329.68,-94.1C321.17,-92.88 312.56,-91.65 304.19,-90.46"/>
<polygon fill="midnightblue" stroke="midnightblue" points="329.21,-97.57 339.6,-95.51 330.2,-90.64 329.21,-97.57"/>
</g>
<!-- Node5 -->
<g id="node5" class="node">
<title>Node5</title>
<g id="a_node5"><a xlink:href="classargo_1_1data__distribution_1_1first__touch__distribution_a7ba49b6dd4f8d6c226bb2fb140a59bdf.html#a7ba49b6dd4f8d6c226bb2fb140a59bdf" target="_top" xlink:title="compute the offset of ptr in the backing store on ptr&#39;s homenode">
<polygon fill="white" stroke="black" points="170,-0.5 170,-41.5 304,-41.5 304,-0.5 170,-0.5"/>
<text text-anchor="start" x="178" y="-29.5" font-family="Helvetica,sans-Serif" font-size="10.00">argo::data_distribution</text>
<text text-anchor="start" x="178" y="-18.5" font-family="Helvetica,sans-Serif" font-size="10.00">::first_touch_distribution</text>
<text text-anchor="middle" x="237" y="-7.5" font-family="Helvetica,sans-Serif" font-size="10.00">::peek_local_offset</text>
</a>
</g>
</g>
<!-- Node1&#45;&gt;Node5 -->
<g id="edge5" class="edge">
<title>Node1&#45;&gt;Node5</title>
<path fill="none" stroke="midnightblue" d="M359.68,-79.72C342.33,-70.46 322.38,-60.03 304,-51 297.67,-47.89 290.96,-44.71 284.32,-41.63"/>
<polygon fill="midnightblue" stroke="midnightblue" points="358.03,-82.81 368.5,-84.45 361.34,-76.64 358.03,-82.81"/>
</g>
<!-- Node2&#45;&gt;Node3 -->
<g id="edge2" class="edge">
<title>Node2&#45;&gt;Node3</title>
<path fill="none" stroke="midnightblue" d="M159.68,-167.64C151.17,-166.38 142.56,-165.1 134.19,-163.85"/>
<polygon fill="midnightblue" stroke="midnightblue" points="159.2,-171.11 169.6,-169.12 160.23,-164.19 159.2,-171.11"/>
</g>
</g>
</svg>
