<?xml version="1.0" encoding="UTF-8" standalone="no"?>
<!DOCTYPE svg PUBLIC "-//W3C//DTD SVG 1.1//EN"
 "http://www.w3.org/Graphics/SVG/1.1/DTD/svg11.dtd">
<!-- Generated by graphviz version 2.43.0 (0)
 -->
<!-- Title: argo::mempools::global_memory_pool::global_memory_pool Pages: 1 -->
<svg width="373pt" height="126pt"
 viewBox="0.00 0.00 373.00 126.00" xmlns="http://www.w3.org/2000/svg" xmlns:xlink="http://www.w3.org/1999/xlink">
<g id="graph0" class="graph" transform="scale(1 1) rotate(0) translate(4 122)">
<title>argo::mempools::global_memory_pool::global_memory_pool</title>
<polygon fill="white" stroke="transparent" points="-4,4 -4,-122 369,-122 369,4 -4,4"/>
<!-- Node1 -->
<g id="node1" class="node">
<title>Node1</title>
<g id="a_node1"><a xlink:title="Default constructor: initializes memory on heap and sets offset to 0.">
<polygon fill="#bfbfbf" stroke="black" points="0,-55 0,-85 198,-85 198,-55 0,-55"/>
<text text-anchor="start" x="8" y="-73" font-family="Helvetica,sans-Serif" font-size="10.00">argo::mempools::global</text>
<text text-anchor="middle" x="99" y="-62" font-family="Helvetica,sans-Serif" font-size="10.00">_memory_pool::global_memory_pool</text>
</a>
</g>
</g>
<!-- Node2 -->
<g id="node2" class="node">
<title>Node2</title>
<g id="a_node2"><a xlink:href="namespaceargo_a188a4648d6e7549bcef4cee36dcb5336.html#a188a4648d6e7549bcef4cee36dcb5336" target="_top" xlink:title="A unique ArgoDSM node identifier. Counting starts from 0.">
<polygon fill="white" stroke="black" points="258,-98.5 258,-117.5 341,-117.5 341,-98.5 258,-98.5"/>
<text text-anchor="middle" x="299.5" y="-105.5" font-family="Helvetica,sans-Serif" font-size="10.00">argo::node_id</text>
</a>
</g>
</g>
<!-- Node1&#45;&gt;Node2 -->
<g id="edge1" class="edge">
<title>Node1&#45;&gt;Node2</title>
<path fill="none" stroke="midnightblue" d="M178.45,-85.02C201.83,-89.49 226.81,-94.28 247.91,-98.31"/>
<polygon fill="midnightblue" stroke="midnightblue" points="247.44,-101.79 257.92,-100.23 248.76,-94.91 247.44,-101.79"/>
</g>
<!-- Node3 -->
<g id="node3" class="node">
<title>Node3</title>
<g id="a_node3"><a xlink:href="namespaceargo_a7839b1673e9af449cad0e94dce253721.html#a7839b1673e9af449cad0e94dce253721" target="_top" xlink:title="Number of ArgoDSM nodes being run.">
<polygon fill="white" stroke="black" points="234,-60.5 234,-79.5 365,-79.5 365,-60.5 234,-60.5"/>
<text text-anchor="middle" x="299.5" y="-67.5" font-family="Helvetica,sans-Serif" font-size="10.00">argo::number_of_nodes</text>
</a>
</g>
</g>
<!-- Node1&#45;&gt;Node3 -->
<g id="edge2" class="edge">
<title>Node1&#45;&gt;Node3</title>
<path fill="none" stroke="midnightblue" d="M198.09,-70C206.7,-70 215.32,-70 223.69,-70"/>
<polygon fill="midnightblue" stroke="midnightblue" points="223.77,-73.5 233.77,-70 223.77,-66.5 223.77,-73.5"/>
</g>
<!-- Node4 -->
<g id="node4" class="node">
<title>Node4</title>
<g id="a_node4"><a xlink:href="classargo_1_1data__distribution_1_1base__distribution_a4b275eeffdafd81ecbd739ea03942666.html#a4b275eeffdafd81ecbd739ea03942666" target="_top" xlink:title="set runtime parameters for global memory space">
<polygon fill="white" stroke="black" points="235,-0.5 235,-41.5 364,-41.5 364,-0.5 235,-0.5"/>
<text text-anchor="start" x="243" y="-29.5" font-family="Helvetica,sans-Serif" font-size="10.00">argo::data_distribution</text>
<text text-anchor="start" x="243" y="-18.5" font-family="Helvetica,sans-Serif" font-size="10.00">::base_distribution&lt; 0</text>
<text text-anchor="middle" x="299.5" y="-7.5" font-family="Helvetica,sans-Serif" font-size="10.00"> &gt;::set_memory_space</text>
</a>
</g>
</g>
<!-- Node1&#45;&gt;Node4 -->
<g id="edge3" class="edge">
<title>Node1&#45;&gt;Node4</title>
<path fill="none" stroke="midnightblue" d="M160.91,-54.97C181.17,-49.96 203.96,-44.34 225.07,-39.13"/>
<polygon fill="midnightblue" stroke="midnightblue" points="226.09,-42.48 234.96,-36.68 224.41,-35.68 226.09,-42.48"/>
</g>
</g>
</svg>
