<?xml version="1.0" encoding="UTF-8" standalone="no"?>
<!DOCTYPE svg PUBLIC "-//W3C//DTD SVG 1.1//EN"
 "http://www.w3.org/Graphics/SVG/1.1/DTD/svg11.dtd">
<!-- Generated by graphviz version 2.43.0 (0)
 -->
<!-- Title: argo::allocators::generic_allocator::allocate Pages: 1 -->
<svg width="461pt" height="218pt"
 viewBox="0.00 0.00 461.00 218.00" xmlns="http://www.w3.org/2000/svg" xmlns:xlink="http://www.w3.org/1999/xlink">
<g id="graph0" class="graph" transform="scale(1 1) rotate(0) translate(4 214)">
<title>argo::allocators::generic_allocator::allocate</title>
<polygon fill="white" stroke="transparent" points="-4,4 -4,-214 457,-214 457,4 -4,4"/>
<!-- Node1 -->
<g id="node1" class="node">
<title>Node1</title>
<g id="a_node1"><a xlink:title="Allocate memory.">
<polygon fill="#bfbfbf" stroke="black" points="319,-118 319,-148 453,-148 453,-118 319,-118"/>
<text text-anchor="start" x="327" y="-136" font-family="Helvetica,sans-Serif" font-size="10.00">argo::allocators::generic</text>
<text text-anchor="middle" x="386" y="-125" font-family="Helvetica,sans-Serif" font-size="10.00">_allocator::allocate</text>
</a>
</g>
</g>
<!-- Node2 -->
<g id="node2" class="node">
<title>Node2</title>
<g id="a_node2"><a xlink:href="classargo_1_1allocators_1_1dynamic__allocator_ae2d3947b274b46e05898cba8a6cab8b3.html#ae2d3947b274b46e05898cba8a6cab8b3" target="_top" xlink:title="allocate Ts using the default dynamic allocator">
<polygon fill="white" stroke="black" points="143,-162 143,-192 283,-192 283,-162 143,-162"/>
<text text-anchor="start" x="151" y="-180" font-family="Helvetica,sans-Serif" font-size="10.00">argo::allocators::dynamic</text>
<text text-anchor="middle" x="213" y="-169" font-family="Helvetica,sans-Serif" font-size="10.00">_allocator::allocate</text>
</a>
</g>
</g>
<!-- Node1&#45;&gt;Node2 -->
<g id="edge1" class="edge">
<title>Node1&#45;&gt;Node2</title>
<path fill="none" stroke="midnightblue" d="M316.62,-150.59C301.97,-154.36 286.63,-158.31 272.4,-161.97"/>
<polygon fill="midnightblue" stroke="midnightblue" points="317.82,-153.9 326.63,-148.02 316.07,-147.12 317.82,-153.9"/>
</g>
<!-- Node3 -->
<g id="node3" class="node">
<title>Node3</title>
<g id="a_node3"><a xlink:href="src_2allocators_2allocators_8cpp_a4e8d23563c42daa5dfce669293d7e389.html#a4e8d23563c42daa5dfce669293d7e389" target="_top" xlink:title="basic collective allocation function, for C interface">
<polygon fill="white" stroke="black" points="167,-123.5 167,-142.5 259,-142.5 259,-123.5 167,-123.5"/>
<text text-anchor="middle" x="213" y="-130.5" font-family="Helvetica,sans-Serif" font-size="10.00">collective_alloc</text>
</a>
</g>
</g>
<!-- Node1&#45;&gt;Node3 -->
<g id="edge2" class="edge">
<title>Node1&#45;&gt;Node3</title>
<path fill="none" stroke="midnightblue" d="M308.46,-133C291.57,-133 274.21,-133 259.05,-133"/>
<polygon fill="midnightblue" stroke="midnightblue" points="308.89,-136.5 318.89,-133 308.89,-129.5 308.89,-136.5"/>
</g>
<!-- Node7 -->
<g id="node7" class="node">
<title>Node7</title>
<g id="a_node7"><a xlink:href="src_2allocators_2allocators_8cpp_a0b0fd53a1ebb7a9c44163c77ec91c853.html#a0b0fd53a1ebb7a9c44163c77ec91c853" target="_top" xlink:title="dynamic allocation function, for C interface">
<polygon fill="white" stroke="black" points="169.5,-66.5 169.5,-85.5 256.5,-85.5 256.5,-66.5 169.5,-66.5"/>
<text text-anchor="middle" x="213" y="-73.5" font-family="Helvetica,sans-Serif" font-size="10.00">dynamic_alloc</text>
</a>
</g>
</g>
<!-- Node1&#45;&gt;Node7 -->
<g id="edge6" class="edge">
<title>Node1&#45;&gt;Node7</title>
<path fill="none" stroke="midnightblue" d="M329.99,-114.66C300.92,-104.97 266.43,-93.48 242.65,-85.55"/>
<polygon fill="midnightblue" stroke="midnightblue" points="329.03,-118.03 339.62,-117.87 331.24,-111.39 329.03,-118.03"/>
</g>
<!-- Node4 -->
<g id="node4" class="node">
<title>Node4</title>
<g id="a_node4"><a xlink:href="namespaceargo_a43db7086bc5f4070897fc687ea7e950c.html#a43db7086bc5f4070897fc687ea7e950c" target="_top" xlink:title="template function to construct new objects using collective allocation">
<polygon fill="white" stroke="black" points="13,-190.5 13,-209.5 94,-209.5 94,-190.5 13,-190.5"/>
<text text-anchor="middle" x="53.5" y="-197.5" font-family="Helvetica,sans-Serif" font-size="10.00">argo::conew_</text>
</a>
</g>
</g>
<!-- Node3&#45;&gt;Node4 -->
<g id="edge3" class="edge">
<title>Node3&#45;&gt;Node4</title>
<path fill="none" stroke="midnightblue" d="M159.71,-145.85C153.95,-147.94 148.27,-150.31 143,-153 124.94,-162.21 124.75,-171.21 107,-181 100.46,-184.61 93.11,-187.76 86.02,-190.41"/>
<polygon fill="midnightblue" stroke="midnightblue" points="161.06,-149.09 169.43,-142.59 158.84,-142.45 161.06,-149.09"/>
</g>
<!-- Node5 -->
<g id="node5" class="node">
<title>Node5</title>
<g id="a_node5"><a xlink:href="namespaceargo_a532a530aefb04b559d017b8ac402feb5.html#a532a530aefb04b559d017b8ac402feb5" target="_top" xlink:title="Collectively construct a new array of objects in the global memory.">
<polygon fill="white" stroke="black" points="0,-152.5 0,-171.5 107,-171.5 107,-152.5 0,-152.5"/>
<text text-anchor="middle" x="53.5" y="-159.5" font-family="Helvetica,sans-Serif" font-size="10.00">argo::conew_array</text>
</a>
</g>
</g>
<!-- Node3&#45;&gt;Node5 -->
<g id="edge4" class="edge">
<title>Node3&#45;&gt;Node5</title>
<path fill="none" stroke="midnightblue" d="M156.86,-143.15C140.44,-146.18 122.51,-149.48 106.3,-152.46"/>
<polygon fill="midnightblue" stroke="midnightblue" points="157.67,-146.56 166.87,-141.31 156.4,-139.68 157.67,-146.56"/>
</g>
<!-- Node6 -->
<g id="node6" class="node">
<title>Node6</title>
<g id="a_node6"><a xlink:href="tests_2allocators_8cpp_a1837b5eb3f1a85c0c59ad6405738e398.html#a1837b5eb3f1a85c0c59ad6405738e398" target="_top" xlink:title="Unittest that checks that allocating 0 bytes collectively is allowed.">
<polygon fill="white" stroke="black" points="27.5,-114.5 27.5,-133.5 79.5,-133.5 79.5,-114.5 27.5,-114.5"/>
<text text-anchor="middle" x="53.5" y="-121.5" font-family="Helvetica,sans-Serif" font-size="10.00">TEST_F</text>
</a>
</g>
</g>
<!-- Node3&#45;&gt;Node6 -->
<g id="edge5" class="edge">
<title>Node3&#45;&gt;Node6</title>
<path fill="none" stroke="midnightblue" d="M156.63,-129.84C130.35,-128.33 100.24,-126.61 79.56,-125.43"/>
<polygon fill="midnightblue" stroke="midnightblue" points="156.68,-133.34 166.87,-130.42 157.08,-126.36 156.68,-133.34"/>
</g>
<!-- Node8 -->
<g id="node8" class="node">
<title>Node8</title>
<g id="a_node8"><a xlink:href="namespaceargo_abf8f4f896d56dcc711d50e395ff02bf6.html#abf8f4f896d56dcc711d50e395ff02bf6" target="_top" xlink:title="template function to construct new objects">
<polygon fill="white" stroke="black" points="18.5,-76.5 18.5,-95.5 88.5,-95.5 88.5,-76.5 18.5,-76.5"/>
<text text-anchor="middle" x="53.5" y="-83.5" font-family="Helvetica,sans-Serif" font-size="10.00">argo::new_</text>
</a>
</g>
</g>
<!-- Node7&#45;&gt;Node8 -->
<g id="edge7" class="edge">
<title>Node7&#45;&gt;Node8</title>
<path fill="none" stroke="midnightblue" d="M159.3,-79.35C136.01,-80.82 109.31,-82.52 88.68,-83.83"/>
<polygon fill="midnightblue" stroke="midnightblue" points="159.62,-82.83 169.38,-78.71 159.18,-75.85 159.62,-82.83"/>
</g>
<!-- Node9 -->
<g id="node9" class="node">
<title>Node9</title>
<g id="a_node9"><a xlink:href="namespaceargo_a9fef671adb114cd54a04a846d5a860dd.html#a9fef671adb114cd54a04a846d5a860dd" target="_top" xlink:title="Construct a new array of objects in the global memory.">
<polygon fill="white" stroke="black" points="6,-38.5 6,-57.5 101,-57.5 101,-38.5 6,-38.5"/>
<text text-anchor="middle" x="53.5" y="-45.5" font-family="Helvetica,sans-Serif" font-size="10.00">argo::new_array</text>
</a>
</g>
</g>
<!-- Node7&#45;&gt;Node9 -->
<g id="edge8" class="edge">
<title>Node7&#45;&gt;Node9</title>
<path fill="none" stroke="midnightblue" d="M159.44,-66.66C140.54,-63.3 119.38,-59.53 101.03,-56.27"/>
<polygon fill="midnightblue" stroke="midnightblue" points="158.92,-70.12 169.38,-68.42 160.15,-63.23 158.92,-70.12"/>
</g>
<!-- Node10 -->
<g id="node10" class="node">
<title>Node10</title>
<g id="a_node10"><a xlink:href="tests_2allocators_8cpp_a100f23c9297b2b8356f61ededc2431a5.html#a100f23c9297b2b8356f61ededc2431a5" target="_top" xlink:title="Unittest that checks that allocating 0 bytes dynamically by all nodes is allowed.">
<polygon fill="white" stroke="black" points="27.5,-0.5 27.5,-19.5 79.5,-19.5 79.5,-0.5 27.5,-0.5"/>
<text text-anchor="middle" x="53.5" y="-7.5" font-family="Helvetica,sans-Serif" font-size="10.00">TEST_F</text>
</a>
</g>
</g>
<!-- Node7&#45;&gt;Node10 -->
<g id="edge9" class="edge">
<title>Node7&#45;&gt;Node10</title>
<path fill="none" stroke="midnightblue" d="M182.37,-62.04C161.48,-52.36 132.74,-39.4 107,-29 98.19,-25.44 88.43,-21.82 79.74,-18.71"/>
<polygon fill="midnightblue" stroke="midnightblue" points="181.13,-65.32 191.67,-66.36 184.08,-58.97 181.13,-65.32"/>
</g>
</g>
</svg>
