<?xml version="1.0" encoding="UTF-8" standalone="no"?>
<!DOCTYPE svg PUBLIC "-//W3C//DTD SVG 1.1//EN"
 "http://www.w3.org/Graphics/SVG/1.1/DTD/svg11.dtd">
<!-- Generated by graphviz version 2.43.0 (0)
 -->
<!-- Title: argo::data_distribution::first_touch_distribution::peek_local_offset Pages: 1 -->
<svg width="431pt" height="74pt"
 viewBox="0.00 0.00 431.00 74.00" xmlns="http://www.w3.org/2000/svg" xmlns:xlink="http://www.w3.org/1999/xlink">
<g id="graph0" class="graph" transform="scale(1 1) rotate(0) translate(4 70)">
<title>argo::data_distribution::first_touch_distribution::peek_local_offset</title>
<polygon fill="white" stroke="transparent" points="-4,4 -4,-70 427,-70 427,4 -4,4"/>
<!-- Node1 -->
<g id="node1" class="node">
<title>Node1</title>
<g id="a_node1"><a xlink:title="compute the offset of ptr in the backing store on ptr&#39;s homenode">
<polygon fill="#bfbfbf" stroke="black" points="0,-24.5 0,-65.5 134,-65.5 134,-24.5 0,-24.5"/>
<text text-anchor="start" x="8" y="-53.5" font-family="Helvetica,sans-Serif" font-size="10.00">argo::data_distribution</text>
<text text-anchor="start" x="8" y="-42.5" font-family="Helvetica,sans-Serif" font-size="10.00">::first_touch_distribution</text>
<text text-anchor="middle" x="67" y="-31.5" font-family="Helvetica,sans-Serif" font-size="10.00">::peek_local_offset</text>
</a>
</g>
</g>
<!-- Node2 -->
<g id="node2" class="node">
<title>Node2</title>
<g id="a_node2"><a xlink:href="namespaceargo_a188a4648d6e7549bcef4cee36dcb5336.html#a188a4648d6e7549bcef4cee36dcb5336" target="_top" xlink:title="A unique ArgoDSM node identifier. Counting starts from 0.">
<polygon fill="white" stroke="black" points="340,-35.5 340,-54.5 423,-54.5 423,-35.5 340,-35.5"/>
<text text-anchor="middle" x="381.5" y="-42.5" font-family="Helvetica,sans-Serif" font-size="10.00">argo::node_id</text>
</a>
</g>
</g>
<!-- Node1&#45;&gt;Node2 -->
<g id="edge1" class="edge">
<title>Node1&#45;&gt;Node2</title>
<path fill="none" stroke="midnightblue" d="M134.09,-49.46C146.04,-50.1 158.39,-50.66 170,-51 229.53,-52.75 244.49,-53.33 304,-51 312.23,-50.68 320.95,-50.16 329.45,-49.56"/>
<polygon fill="midnightblue" stroke="midnightblue" points="329.93,-53.04 339.64,-48.8 329.41,-46.06 329.93,-53.04"/>
</g>
<!-- Node3 -->
<g id="node3" class="node">
<title>Node3</title>
<g id="a_node3"><a xlink:href="classargo_1_1data__distribution_1_1first__touch__distribution_a4d637cba39bb57ea4686e726252df51e.html#a4d637cba39bb57ea4686e726252df51e" target="_top" xlink:title="perform the necessary directory actions">
<polygon fill="white" stroke="black" points="170,-0.5 170,-41.5 304,-41.5 304,-0.5 170,-0.5"/>
<text text-anchor="start" x="178" y="-29.5" font-family="Helvetica,sans-Serif" font-size="10.00">argo::data_distribution</text>
<text text-anchor="start" x="178" y="-18.5" font-family="Helvetica,sans-Serif" font-size="10.00">::first_touch_distribution</text>
<text text-anchor="middle" x="237" y="-7.5" font-family="Helvetica,sans-Serif" font-size="10.00">::update_dirs</text>
</a>
</g>
</g>
<!-- Node1&#45;&gt;Node3 -->
<g id="edge2" class="edge">
<title>Node1&#45;&gt;Node3</title>
<path fill="none" stroke="midnightblue" d="M134.4,-35.51C142.77,-34.32 151.39,-33.09 159.89,-31.87"/>
<polygon fill="midnightblue" stroke="midnightblue" points="160.4,-35.33 169.81,-30.46 159.41,-28.41 160.4,-35.33"/>
</g>
<!-- Node3&#45;&gt;Node2 -->
<g id="edge3" class="edge">
<title>Node3&#45;&gt;Node2</title>
<path fill="none" stroke="midnightblue" d="M304.24,-32.16C312.73,-33.59 321.31,-35.03 329.49,-36.41"/>
<polygon fill="midnightblue" stroke="midnightblue" points="329.18,-39.91 339.62,-38.12 330.34,-33 329.18,-39.91"/>
</g>
</g>
</svg>
