<?xml version="1.0" encoding="UTF-8" standalone="no"?>
<!DOCTYPE svg PUBLIC "-//W3C//DTD SVG 1.1//EN"
 "http://www.w3.org/Graphics/SVG/1.1/DTD/svg11.dtd">
<!-- Generated by graphviz version 2.43.0 (0)
 -->
<!-- Title: LockTest Pages: 1 -->
<svg width="1614pt" height="401pt"
 viewBox="0.00 0.00 1614.00 400.50" xmlns="http://www.w3.org/2000/svg" xmlns:xlink="http://www.w3.org/1999/xlink">
<g id="graph0" class="graph" transform="scale(1 1) rotate(0) translate(4 396.5)">
<title>LockTest</title>
<polygon fill="white" stroke="transparent" points="-4,4 -4,-396.5 1610,-396.5 1610,4 -4,4"/>
<!-- Node1 -->
<g id="node1" class="node">
<title>Node1</title>
<g id="a_node1"><a xlink:title="Class for the gtests fixture tests. Will reset the allocators to a clean state for every test.">
<polygon fill="#bfbfbf" stroke="black" points="1547,-148 1547,-167 1606,-167 1606,-148 1547,-148"/>
<text text-anchor="middle" x="1576.5" y="-155" font-family="Helvetica,sans-Serif" font-size="10.00">LockTest</text>
</a>
</g>
</g>
<!-- Node2 -->
<g id="node2" class="node">
<title>Node2</title>
<g id="a_node2"><a xlink:title=" ">
<polygon fill="white" stroke="#bfbfbf" points="1334.5,-373 1334.5,-392 1410.5,-392 1410.5,-373 1334.5,-373"/>
<text text-anchor="middle" x="1372.5" y="-380" font-family="Helvetica,sans-Serif" font-size="10.00">testing::Test</text>
</a>
</g>
</g>
<!-- Node2&#45;&gt;Node1 -->
<g id="edge1" class="edge">
<title>Node2&#45;&gt;Node1</title>
<path fill="none" stroke="midnightblue" d="M1420.8,-387.78C1455.13,-388.86 1500.38,-384.21 1529,-357.5 1557.54,-330.87 1571.28,-203.44 1574.66,-167.16"/>
<polygon fill="midnightblue" stroke="midnightblue" points="1420.69,-384.27 1410.53,-387.27 1420.35,-391.26 1420.69,-384.27"/>
</g>
<!-- Node3 -->
<g id="node3" class="node">
<title>Node3</title>
<g id="a_node3"><a xlink:href="classargo_1_1locallock_1_1ticket__lock.html" target="_top" xlink:title="a global ticket lock">
<polygon fill="white" stroke="black" points="1053,-147 1053,-166 1199,-166 1199,-147 1053,-147"/>
<text text-anchor="middle" x="1126" y="-154" font-family="Helvetica,sans-Serif" font-size="10.00">argo::locallock::ticket_lock</text>
</a>
</g>
</g>
<!-- Node3&#45;&gt;Node1 -->
<g id="edge2" class="edge">
<title>Node3&#45;&gt;Node1</title>
<path fill="none" stroke="#9a32cd" stroke-dasharray="5,2" d="M1209.33,-156.68C1311.42,-156.91 1480.13,-157.29 1546.96,-157.44"/>
<polygon fill="#9a32cd" stroke="#9a32cd" points="1209.07,-153.18 1199.06,-156.66 1209.05,-160.18 1209.07,-153.18"/>
<text text-anchor="middle" x="1372.5" y="-159.5" font-family="Helvetica,sans-Serif" font-size="10.00"> ticket_lock</text>
</g>
<!-- Node7 -->
<g id="node7" class="node">
<title>Node7</title>
<g id="a_node7"><a xlink:href="classargo_1_1globallock_1_1cohort__lock.html" target="_top" xlink:title="a global &#39;cohort&#39; lock &#45; needs to be called collectively">
<polygon fill="white" stroke="black" points="1294,-96 1294,-115 1451,-115 1451,-96 1294,-96"/>
<text text-anchor="middle" x="1372.5" y="-103" font-family="Helvetica,sans-Serif" font-size="10.00">argo::globallock::cohort_lock</text>
</a>
</g>
</g>
<!-- Node3&#45;&gt;Node7 -->
<g id="edge8" class="edge">
<title>Node3&#45;&gt;Node7</title>
<path fill="none" stroke="#9a32cd" stroke-dasharray="5,2" d="M1170.07,-144.19C1184.88,-140.18 1201.6,-135.89 1217,-132.5 1247.31,-125.82 1281.27,-119.74 1309.61,-115.04"/>
<polygon fill="#9a32cd" stroke="#9a32cd" points="1168.88,-140.89 1160.17,-146.91 1170.74,-147.64 1168.88,-140.89"/>
<text text-anchor="middle" x="1246.5" y="-135.5" font-family="Helvetica,sans-Serif" font-size="10.00"> node_lock</text>
</g>
<!-- Node4 -->
<g id="node4" class="node">
<title>Node4</title>
<g id="a_node4"><a xlink:title=" ">
<polygon fill="white" stroke="#bfbfbf" points="760,-146 760,-165 867,-165 867,-146 760,-146"/>
<text text-anchor="middle" x="813.5" y="-153" font-family="Helvetica,sans-Serif" font-size="10.00">std::atomic&lt; int &gt;</text>
</a>
</g>
</g>
<!-- Node4&#45;&gt;Node3 -->
<g id="edge3" class="edge">
<title>Node4&#45;&gt;Node3</title>
<path fill="none" stroke="#9a32cd" stroke-dasharray="5,2" d="M877.36,-155.7C928.16,-155.87 999.69,-156.1 1052.82,-156.27"/>
<polygon fill="#9a32cd" stroke="#9a32cd" points="877.18,-152.2 867.17,-155.67 877.16,-159.2 877.18,-152.2"/>
<text text-anchor="middle" x="969" y="-169.5" font-family="Helvetica,sans-Serif" font-size="10.00"> in_counter</text>
<text text-anchor="middle" x="969" y="-158.5" font-family="Helvetica,sans-Serif" font-size="10.00">out_counter</text>
</g>
<!-- Node4&#45;&gt;Node7 -->
<g id="edge7" class="edge">
<title>Node4&#45;&gt;Node7</title>
<path fill="none" stroke="#9a32cd" stroke-dasharray="5,2" d="M877.39,-146.89C925.42,-140.55 993.29,-132.09 1053,-126.5 1135.07,-118.81 1229.3,-112.97 1293.85,-109.42"/>
<polygon fill="#9a32cd" stroke="#9a32cd" points="876.91,-143.43 867.46,-148.21 877.83,-150.36 876.91,-143.43"/>
<text text-anchor="middle" x="1126" y="-129.5" font-family="Helvetica,sans-Serif" font-size="10.00"> nodelockowner</text>
</g>
<!-- Node5 -->
<g id="node5" class="node">
<title>Node5</title>
<g id="a_node5"><a xlink:title=" ">
<polygon fill="white" stroke="#bfbfbf" points="471.5,-187 471.5,-206 571.5,-206 571.5,-187 471.5,-187"/>
<text text-anchor="middle" x="521.5" y="-194" font-family="Helvetica,sans-Serif" font-size="10.00">std::atomic&lt; T &gt;</text>
</a>
</g>
</g>
<!-- Node5&#45;&gt;Node4 -->
<g id="edge4" class="edge">
<title>Node5&#45;&gt;Node4</title>
<path fill="none" stroke="orange" stroke-dasharray="5,2" d="M580.96,-185.18C588.37,-183.87 595.85,-182.61 603,-181.5 656.24,-173.24 717.42,-165.9 759.86,-161.14"/>
<polygon fill="orange" stroke="orange" points="580.17,-181.76 570.95,-186.98 581.41,-188.65 580.17,-181.76"/>
<text text-anchor="middle" x="663.5" y="-184.5" font-family="Helvetica,sans-Serif" font-size="10.00"> &lt; int &gt;</text>
</g>
<!-- Node16 -->
<g id="node16" class="node">
<title>Node16</title>
<g id="a_node16"><a xlink:title=" ">
<polygon fill="white" stroke="#bfbfbf" points="757.5,-225 757.5,-266 869.5,-266 869.5,-225 757.5,-225"/>
<text text-anchor="start" x="765.5" y="-254" font-family="Helvetica,sans-Serif" font-size="10.00">std::atomic&lt; argo::</text>
<text text-anchor="start" x="765.5" y="-243" font-family="Helvetica,sans-Serif" font-size="10.00">locallock::mcs_lock</text>
<text text-anchor="middle" x="813.5" y="-232" font-family="Helvetica,sans-Serif" font-size="10.00">::mcs_node * &gt;</text>
</a>
</g>
</g>
<!-- Node5&#45;&gt;Node16 -->
<g id="edge19" class="edge">
<title>Node5&#45;&gt;Node16</title>
<path fill="none" stroke="orange" stroke-dasharray="5,2" d="M582.09,-207.77C589.14,-209.05 596.23,-210.32 603,-211.5 655.27,-220.61 715.03,-230.23 757.3,-236.9"/>
<polygon fill="orange" stroke="orange" points="582.32,-204.25 571.85,-205.88 581.05,-211.13 582.32,-204.25"/>
<text text-anchor="start" x="603" y="-244.5" font-family="Helvetica,sans-Serif" font-size="10.00"> &lt; argo::locallock::</text>
<text text-anchor="middle" x="663.5" y="-233.5" font-family="Helvetica,sans-Serif" font-size="10.00">mcs_lock::mcs_node * &gt;</text>
</g>
<!-- Node19 -->
<g id="node19" class="node">
<title>Node19</title>
<g id="a_node19"><a xlink:title=" ">
<polygon fill="white" stroke="#bfbfbf" points="756,-187 756,-206 871,-206 871,-187 756,-187"/>
<text text-anchor="middle" x="813.5" y="-194" font-family="Helvetica,sans-Serif" font-size="10.00">std::atomic&lt; bool &gt;</text>
</a>
</g>
</g>
<!-- Node5&#45;&gt;Node19 -->
<g id="edge23" class="edge">
<title>Node5&#45;&gt;Node19</title>
<path fill="none" stroke="orange" stroke-dasharray="5,2" d="M581.89,-196.5C632.83,-196.5 705.72,-196.5 755.85,-196.5"/>
<polygon fill="orange" stroke="orange" points="581.69,-193 571.69,-196.5 581.69,-200 581.69,-193"/>
<text text-anchor="middle" x="663.5" y="-199.5" font-family="Helvetica,sans-Serif" font-size="10.00"> &lt; bool &gt;</text>
</g>
<!-- Node6 -->
<g id="node6" class="node">
<title>Node6</title>
<g id="a_node6"><a xlink:title=" ">
<polygon fill="white" stroke="#bfbfbf" points="291,-187 291,-206 320,-206 320,-187 291,-187"/>
<text text-anchor="middle" x="305.5" y="-194" font-family="Helvetica,sans-Serif" font-size="10.00">T</text>
</a>
</g>
</g>
<!-- Node6&#45;&gt;Node5 -->
<g id="edge5" class="edge">
<title>Node6&#45;&gt;Node5</title>
<path fill="none" stroke="#9a32cd" stroke-dasharray="5,2" d="M330.56,-196.5C364.54,-196.5 427.35,-196.5 471.41,-196.5"/>
<polygon fill="#9a32cd" stroke="#9a32cd" points="330.21,-193 320.21,-196.5 330.21,-200 330.21,-193"/>
<text text-anchor="middle" x="415.5" y="-199.5" font-family="Helvetica,sans-Serif" font-size="10.00"> ptr</text>
</g>
<!-- Node9 -->
<g id="node9" class="node">
<title>Node9</title>
<g id="a_node9"><a xlink:title=" ">
<polygon fill="white" stroke="#bfbfbf" points="473,-122 473,-141 570,-141 570,-122 473,-122"/>
<text text-anchor="middle" x="521.5" y="-129" font-family="Helvetica,sans-Serif" font-size="10.00">std::vector&lt; T &gt;</text>
</a>
</g>
</g>
<!-- Node6&#45;&gt;Node9 -->
<g id="edge11" class="edge">
<title>Node6&#45;&gt;Node9</title>
<path fill="none" stroke="#9a32cd" stroke-dasharray="5,2" d="M330.05,-189.35C368.77,-177.58 445.88,-154.16 489.17,-141.02"/>
<polygon fill="#9a32cd" stroke="#9a32cd" points="328.76,-186.08 320.21,-192.34 330.8,-192.78 328.76,-186.08"/>
<text text-anchor="middle" x="415.5" y="-172.5" font-family="Helvetica,sans-Serif" font-size="10.00"> elements</text>
</g>
<!-- Node20 -->
<g id="node20" class="node">
<title>Node20</title>
<g id="a_node20"><a xlink:title=" ">
<polygon fill="white" stroke="#bfbfbf" points="471,-295 471,-314 572,-314 572,-295 471,-295"/>
<text text-anchor="middle" x="521.5" y="-302" font-family="Helvetica,sans-Serif" font-size="10.00">std::map&lt; K, T &gt;</text>
</a>
</g>
</g>
<!-- Node6&#45;&gt;Node20 -->
<g id="edge28" class="edge">
<title>Node6&#45;&gt;Node20</title>
<path fill="none" stroke="#9a32cd" stroke-dasharray="5,2" d="M329.2,-207.96C371.62,-229.37 462.18,-275.07 501.56,-294.94"/>
<polygon fill="#9a32cd" stroke="#9a32cd" points="330.72,-204.8 320.21,-203.42 327.56,-211.05 330.72,-204.8"/>
<text text-anchor="middle" x="415.5" y="-265.5" font-family="Helvetica,sans-Serif" font-size="10.00"> elements</text>
</g>
<!-- Node7&#45;&gt;Node1 -->
<g id="edge6" class="edge">
<title>Node7&#45;&gt;Node1</title>
<path fill="none" stroke="#9a32cd" stroke-dasharray="5,2" d="M1460.96,-115.63C1483.49,-119.6 1507.45,-125.06 1529,-132.5 1540.09,-136.33 1551.71,-142.58 1560.57,-147.87"/>
<polygon fill="#9a32cd" stroke="#9a32cd" points="1461.5,-112.17 1451.06,-113.96 1460.34,-119.07 1461.5,-112.17"/>
<text text-anchor="middle" x="1499" y="-135.5" font-family="Helvetica,sans-Serif" font-size="10.00"> cohort_lock</text>
</g>
<!-- Node8 -->
<g id="node8" class="node">
<title>Node8</title>
<g id="a_node8"><a xlink:title=" ">
<polygon fill="white" stroke="#bfbfbf" points="917,-72 917,-91 1021,-91 1021,-72 917,-72"/>
<text text-anchor="middle" x="969" y="-79" font-family="Helvetica,sans-Serif" font-size="10.00">std::vector&lt; int &gt;</text>
</a>
</g>
</g>
<!-- Node8&#45;&gt;Node7 -->
<g id="edge9" class="edge">
<title>Node8&#45;&gt;Node7</title>
<path fill="none" stroke="#9a32cd" stroke-dasharray="5,2" d="M1031.09,-78.4C1093.02,-76.13 1191.49,-74.9 1276,-84.5 1296.24,-86.8 1318.49,-91.56 1336.42,-95.96"/>
<polygon fill="#9a32cd" stroke="#9a32cd" points="1030.95,-74.91 1021.09,-78.79 1031.22,-81.9 1030.95,-74.91"/>
<text text-anchor="middle" x="1126" y="-81.5" font-family="Helvetica,sans-Serif" font-size="10.00"> numa_mapping</text>
</g>
<!-- Node9&#45;&gt;Node8 -->
<g id="edge10" class="edge">
<title>Node9&#45;&gt;Node8</title>
<path fill="none" stroke="orange" stroke-dasharray="5,2" d="M580.22,-125.02C667.92,-115.18 833.34,-96.61 916.92,-87.23"/>
<polygon fill="orange" stroke="orange" points="579.72,-121.56 570.18,-126.15 580.5,-128.51 579.72,-121.56"/>
<text text-anchor="middle" x="663.5" y="-124.5" font-family="Helvetica,sans-Serif" font-size="10.00"> &lt; int &gt;</text>
</g>
<!-- Node10 -->
<g id="node10" class="node">
<title>Node10</title>
<g id="a_node10"><a xlink:href="classargo_1_1globallock_1_1global__tas__lock.html" target="_top" xlink:title="a global test&#45;and&#45;set lock">
<polygon fill="white" stroke="black" points="1060.5,-0.5 1060.5,-30.5 1191.5,-30.5 1191.5,-0.5 1060.5,-0.5"/>
<text text-anchor="start" x="1068.5" y="-18.5" font-family="Helvetica,sans-Serif" font-size="10.00">argo::globallock::global</text>
<text text-anchor="middle" x="1126" y="-7.5" font-family="Helvetica,sans-Serif" font-size="10.00">_tas_lock</text>
</a>
</g>
</g>
<!-- Node10&#45;&gt;Node1 -->
<g id="edge29" class="edge">
<title>Node10&#45;&gt;Node1</title>
<path fill="none" stroke="#9a32cd" stroke-dasharray="5,2" d="M1201.6,-17.41C1225.49,-18.85 1251.98,-21.31 1276,-25.5 1355.69,-39.4 1375.31,-46.96 1451,-75.5 1486.9,-89.04 1497.46,-90.65 1529,-112.5 1543.96,-122.87 1558.61,-138.13 1567.35,-147.95"/>
<polygon fill="#9a32cd" stroke="#9a32cd" points="1201.71,-13.91 1191.53,-16.86 1201.32,-20.9 1201.71,-13.91"/>
<text text-anchor="middle" x="1372.5" y="-78.5" font-family="Helvetica,sans-Serif" font-size="10.00"> global_tas_lock</text>
</g>
<!-- Node10&#45;&gt;Node7 -->
<g id="edge12" class="edge">
<title>Node10&#45;&gt;Node7</title>
<path fill="none" stroke="#9a32cd" stroke-dasharray="5,2" d="M1201.44,-25.03C1225.75,-29.57 1252.52,-36.13 1276,-45.5 1308.37,-58.42 1341.9,-82.38 1359.32,-95.78"/>
<polygon fill="#9a32cd" stroke="#9a32cd" points="1202,-21.58 1191.54,-23.27 1200.77,-28.47 1202,-21.58"/>
<text text-anchor="middle" x="1246.5" y="-48.5" font-family="Helvetica,sans-Serif" font-size="10.00"> global_lock</text>
</g>
<!-- Node11 -->
<g id="node11" class="node">
<title>Node11</title>
<g id="a_node11"><a xlink:href="classargo_1_1data__distribution_1_1global__ptr.html" target="_top" xlink:title=" ">
<polygon fill="white" stroke="black" points="742,-0.5 742,-30.5 885,-30.5 885,-0.5 742,-0.5"/>
<text text-anchor="start" x="750" y="-18.5" font-family="Helvetica,sans-Serif" font-size="10.00">argo::data_distribution</text>
<text text-anchor="middle" x="813.5" y="-7.5" font-family="Helvetica,sans-Serif" font-size="10.00">::global_ptr&lt; std::size_t &gt;</text>
</a>
</g>
</g>
<!-- Node11&#45;&gt;Node10 -->
<g id="edge13" class="edge">
<title>Node11&#45;&gt;Node10</title>
<path fill="none" stroke="#9a32cd" stroke-dasharray="5,2" d="M895.42,-15.5C946.79,-15.5 1012.37,-15.5 1060.28,-15.5"/>
<polygon fill="#9a32cd" stroke="#9a32cd" points="895.35,-12 885.35,-15.5 895.35,-19 895.35,-12"/>
<text text-anchor="middle" x="969" y="-18.5" font-family="Helvetica,sans-Serif" font-size="10.00"> lastuser</text>
</g>
<!-- Node12 -->
<g id="node12" class="node">
<title>Node12</title>
<g id="a_node12"><a xlink:href="classargo_1_1data__distribution_1_1global__ptr.html" target="_top" xlink:title="smart pointers for global memory addresses">
<polygon fill="white" stroke="black" points="458,-0.5 458,-30.5 585,-30.5 585,-0.5 458,-0.5"/>
<text text-anchor="start" x="466" y="-18.5" font-family="Helvetica,sans-Serif" font-size="10.00">argo::data_distribution</text>
<text text-anchor="middle" x="521.5" y="-7.5" font-family="Helvetica,sans-Serif" font-size="10.00">::global_ptr&lt; T, Dist &gt;</text>
</a>
</g>
</g>
<!-- Node12&#45;&gt;Node11 -->
<g id="edge14" class="edge">
<title>Node12&#45;&gt;Node11</title>
<path fill="none" stroke="orange" stroke-dasharray="5,2" d="M595.32,-15.5C640.19,-15.5 697.44,-15.5 741.89,-15.5"/>
<polygon fill="orange" stroke="orange" points="595.07,-12 585.07,-15.5 595.07,-19 595.07,-12"/>
<text text-anchor="middle" x="663.5" y="-18.5" font-family="Helvetica,sans-Serif" font-size="10.00"> &lt; std::size_t &gt;</text>
</g>
<!-- Node13 -->
<g id="node13" class="node">
<title>Node13</title>
<g id="a_node13"><a xlink:href="classargo_1_1data__distribution_1_1base__distribution.html" target="_top" xlink:title=" ">
<polygon fill="white" stroke="black" points="238,-0.5 238,-30.5 373,-30.5 373,-0.5 238,-0.5"/>
<text text-anchor="start" x="246" y="-18.5" font-family="Helvetica,sans-Serif" font-size="10.00">argo::data_distribution</text>
<text text-anchor="middle" x="305.5" y="-7.5" font-family="Helvetica,sans-Serif" font-size="10.00">::base_distribution&lt; 0 &gt;</text>
</a>
</g>
</g>
<!-- Node13&#45;&gt;Node12 -->
<g id="edge15" class="edge">
<title>Node13&#45;&gt;Node12</title>
<path fill="none" stroke="#9a32cd" stroke-dasharray="5,2" d="M383.33,-15.5C407.72,-15.5 434.38,-15.5 457.66,-15.5"/>
<polygon fill="#9a32cd" stroke="#9a32cd" points="383.04,-12 373.04,-15.5 383.04,-19 383.04,-12"/>
<text text-anchor="middle" x="415.5" y="-18.5" font-family="Helvetica,sans-Serif" font-size="10.00"> policies</text>
</g>
<!-- Node14 -->
<g id="node14" class="node">
<title>Node14</title>
<g id="a_node14"><a xlink:href="classargo_1_1data__distribution_1_1base__distribution.html" target="_top" xlink:title="the base data distribution class">
<polygon fill="white" stroke="black" points="0,-0.5 0,-30.5 170,-30.5 170,-0.5 0,-0.5"/>
<text text-anchor="start" x="8" y="-18.5" font-family="Helvetica,sans-Serif" font-size="10.00">argo::data_distribution</text>
<text text-anchor="middle" x="85" y="-7.5" font-family="Helvetica,sans-Serif" font-size="10.00">::base_distribution&lt; instance &gt;</text>
</a>
</g>
</g>
<!-- Node14&#45;&gt;Node13 -->
<g id="edge16" class="edge">
<title>Node14&#45;&gt;Node13</title>
<path fill="none" stroke="orange" stroke-dasharray="5,2" d="M180.21,-15.5C199.55,-15.5 219.53,-15.5 237.67,-15.5"/>
<polygon fill="orange" stroke="orange" points="180.17,-12 170.17,-15.5 180.17,-19 180.17,-12"/>
<text text-anchor="middle" x="204" y="-18.5" font-family="Helvetica,sans-Serif" font-size="10.00"> &lt; 0 &gt;</text>
</g>
<!-- Node15 -->
<g id="node15" class="node">
<title>Node15</title>
<g id="a_node15"><a xlink:href="classargo_1_1locallock_1_1mcs__lock.html" target="_top" xlink:title="MCS mutual exclusion lock (intranode)">
<polygon fill="white" stroke="black" points="1056,-259 1056,-278 1196,-278 1196,-259 1056,-259"/>
<text text-anchor="middle" x="1126" y="-266" font-family="Helvetica,sans-Serif" font-size="10.00">argo::locallock::mcs_lock</text>
</a>
</g>
</g>
<!-- Node15&#45;&gt;Node1 -->
<g id="edge30" class="edge">
<title>Node15&#45;&gt;Node1</title>
<path fill="none" stroke="#9a32cd" stroke-dasharray="5,2" d="M1158.33,-282C1218.24,-305.67 1351.89,-348.03 1451,-302.5 1514.32,-273.41 1557.53,-194.47 1571.02,-167.05"/>
<polygon fill="#9a32cd" stroke="#9a32cd" points="1159.28,-278.61 1148.7,-278.1 1156.65,-285.1 1159.28,-278.61"/>
<text text-anchor="middle" x="1372.5" y="-325.5" font-family="Helvetica,sans-Serif" font-size="10.00"> mcs_lock</text>
</g>
<!-- Node15&#45;&gt;Node7 -->
<g id="edge17" class="edge">
<title>Node15&#45;&gt;Node7</title>
<path fill="none" stroke="#9a32cd" stroke-dasharray="5,2" d="M1191.53,-254.45C1194.14,-252.96 1196.65,-251.32 1199,-249.5 1211.91,-239.52 1207.34,-230.65 1217,-217.5 1246.58,-177.2 1252.54,-163.44 1294,-135.5 1307.04,-126.71 1323.03,-119.97 1337.08,-115.12"/>
<polygon fill="#9a32cd" stroke="#9a32cd" points="1189.75,-251.42 1182.27,-258.92 1192.79,-257.72 1189.75,-251.42"/>
<text text-anchor="middle" x="1246.5" y="-220.5" font-family="Helvetica,sans-Serif" font-size="10.00"> local_lock</text>
</g>
<!-- Node17 -->
<g id="node17" class="node">
<title>Node17</title>
<g id="a_node17"><a xlink:title=" ">
<polygon fill="white" stroke="#bfbfbf" points="1295.5,-252 1295.5,-293 1449.5,-293 1449.5,-252 1295.5,-252"/>
<text text-anchor="start" x="1303.5" y="-281" font-family="Helvetica,sans-Serif" font-size="10.00">std::map&lt; argo::locallock</text>
<text text-anchor="start" x="1303.5" y="-270" font-family="Helvetica,sans-Serif" font-size="10.00">::mcs_lock *, argo::locallock</text>
<text text-anchor="middle" x="1372.5" y="-259" font-family="Helvetica,sans-Serif" font-size="10.00">::mcs_lock::mcs_node &gt;</text>
</a>
</g>
</g>
<!-- Node15&#45;&gt;Node17 -->
<g id="edge25" class="edge">
<title>Node15&#45;&gt;Node17</title>
<path fill="none" stroke="#9a32cd" stroke-dasharray="5,2" d="M1206.42,-270.31C1210,-270.37 1213.54,-270.44 1217,-270.5 1242.48,-270.95 1270.33,-271.34 1295.27,-271.65"/>
<polygon fill="#9a32cd" stroke="#9a32cd" points="1206.35,-266.8 1196.28,-270.1 1206.21,-273.8 1206.35,-266.8"/>
<text text-anchor="middle" x="1246.5" y="-273.5" font-family="Helvetica,sans-Serif" font-size="10.00"> keys</text>
</g>
<!-- Node16&#45;&gt;Node15 -->
<g id="edge18" class="edge">
<title>Node16&#45;&gt;Node15</title>
<path fill="none" stroke="#9a32cd" stroke-dasharray="5,2" d="M879.7,-250.33C931.36,-254.16 1003.34,-259.49 1055.96,-263.39"/>
<polygon fill="#9a32cd" stroke="#9a32cd" points="879.88,-246.83 869.65,-249.59 879.37,-253.81 879.88,-246.83"/>
<text text-anchor="middle" x="969" y="-264.5" font-family="Helvetica,sans-Serif" font-size="10.00"> _tail</text>
</g>
<!-- Node18 -->
<g id="node18" class="node">
<title>Node18</title>
<g id="a_node18"><a xlink:href="structargo_1_1locallock_1_1mcs__lock_1_1mcs__node.html" target="_top" xlink:title="Thread nodes for the lock.">
<polygon fill="white" stroke="black" points="1069,-209.5 1069,-239.5 1183,-239.5 1183,-209.5 1069,-209.5"/>
<text text-anchor="start" x="1077" y="-227.5" font-family="Helvetica,sans-Serif" font-size="10.00">argo::locallock::mcs</text>
<text text-anchor="middle" x="1126" y="-216.5" font-family="Helvetica,sans-Serif" font-size="10.00">_lock::mcs_node</text>
</a>
</g>
</g>
<!-- Node16&#45;&gt;Node18 -->
<g id="edge24" class="edge">
<title>Node16&#45;&gt;Node18</title>
<path fill="none" stroke="#9a32cd" stroke-dasharray="5,2" d="M879.86,-237.65C887.65,-236.85 895.5,-236.11 903,-235.5 959.35,-230.93 1023.91,-227.98 1068.82,-226.3"/>
<polygon fill="#9a32cd" stroke="#9a32cd" points="879.26,-234.19 869.68,-238.72 880,-241.15 879.26,-234.19"/>
<text text-anchor="middle" x="969" y="-238.5" font-family="Helvetica,sans-Serif" font-size="10.00"> next</text>
</g>
<!-- Node17&#45;&gt;Node15 -->
<g id="edge20" class="edge">
<title>Node17&#45;&gt;Node15</title>
<path fill="none" stroke="#9a32cd" stroke-dasharray="5,2" d="M1285.35,-260.23C1282.2,-259.95 1279.07,-259.71 1276,-259.5 1249.84,-257.73 1243.19,-258.19 1217,-259.5 1210.26,-259.84 1203.24,-260.31 1196.23,-260.88"/>
<polygon fill="#9a32cd" stroke="#9a32cd" points="1285.2,-263.73 1295.49,-261.21 1285.87,-256.76 1285.2,-263.73"/>
<text text-anchor="middle" x="1246.5" y="-262.5" font-family="Helvetica,sans-Serif" font-size="10.00"> selfs</text>
</g>
<!-- Node18&#45;&gt;Node17 -->
<g id="edge21" class="edge">
<title>Node18&#45;&gt;Node17</title>
<path fill="none" stroke="#9a32cd" stroke-dasharray="5,2" d="M1193.41,-229.88C1219.35,-232.67 1249.24,-236.73 1276,-242.5 1287.81,-245.04 1300.24,-248.42 1312.09,-251.98"/>
<polygon fill="#9a32cd" stroke="#9a32cd" points="1193.61,-226.38 1183.3,-228.83 1192.89,-233.34 1193.61,-226.38"/>
<text text-anchor="middle" x="1246.5" y="-245.5" font-family="Helvetica,sans-Serif" font-size="10.00"> elements</text>
</g>
<!-- Node19&#45;&gt;Node18 -->
<g id="edge22" class="edge">
<title>Node19&#45;&gt;Node18</title>
<path fill="none" stroke="#9a32cd" stroke-dasharray="5,2" d="M881.46,-200.31C925.21,-203.06 983.57,-207.21 1035,-212.5 1045.98,-213.63 1057.68,-215.04 1068.89,-216.49"/>
<polygon fill="#9a32cd" stroke="#9a32cd" points="881.43,-196.8 871.23,-199.68 880.99,-203.79 881.43,-196.8"/>
<text text-anchor="middle" x="969" y="-215.5" font-family="Helvetica,sans-Serif" font-size="10.00"> locked</text>
</g>
<!-- Node20&#45;&gt;Node17 -->
<g id="edge26" class="edge">
<title>Node20&#45;&gt;Node17</title>
<path fill="none" stroke="orange" stroke-dasharray="5,2" d="M582.41,-303.01C700.42,-300.08 971.27,-293.32 1199,-287.5 1233.22,-286.63 1241.88,-288.26 1276,-285.5 1282.34,-284.99 1288.9,-284.34 1295.48,-283.61"/>
<polygon fill="orange" stroke="orange" points="582.06,-299.52 572.15,-303.27 582.24,-306.52 582.06,-299.52"/>
<text text-anchor="start" x="903" y="-319.5" font-family="Helvetica,sans-Serif" font-size="10.00"> &lt; argo::locallock::</text>
<text text-anchor="start" x="903" y="-308.5" font-family="Helvetica,sans-Serif" font-size="10.00">mcs_lock *, argo::locallock</text>
<text text-anchor="middle" x="969" y="-297.5" font-family="Helvetica,sans-Serif" font-size="10.00">::mcs_lock::mcs_node &gt;</text>
</g>
<!-- Node21 -->
<g id="node21" class="node">
<title>Node21</title>
<g id="a_node21"><a xlink:title=" ">
<polygon fill="white" stroke="#bfbfbf" points="291,-295 291,-314 320,-314 320,-295 291,-295"/>
<text text-anchor="middle" x="305.5" y="-302" font-family="Helvetica,sans-Serif" font-size="10.00">K</text>
</a>
</g>
</g>
<!-- Node21&#45;&gt;Node20 -->
<g id="edge27" class="edge">
<title>Node21&#45;&gt;Node20</title>
<path fill="none" stroke="#9a32cd" stroke-dasharray="5,2" d="M330.53,-304.5C364.38,-304.5 426.9,-304.5 470.95,-304.5"/>
<polygon fill="#9a32cd" stroke="#9a32cd" points="330.21,-301 320.21,-304.5 330.21,-308 330.21,-301"/>
<text text-anchor="middle" x="415.5" y="-307.5" font-family="Helvetica,sans-Serif" font-size="10.00"> keys</text>
</g>
</g>
</svg>
