<?xml version="1.0" encoding="UTF-8" standalone="no"?>
<!DOCTYPE svg PUBLIC "-//W3C//DTD SVG 1.1//EN"
 "http://www.w3.org/Graphics/SVG/1.1/DTD/svg11.dtd">
<!-- Generated by graphviz version 2.43.0 (0)
 -->
<!-- Title: argo::globallock::cohort_lock::unlock Pages: 1 -->
<svg width="425pt" height="186pt"
 viewBox="0.00 0.00 425.00 186.00" xmlns="http://www.w3.org/2000/svg" xmlns:xlink="http://www.w3.org/1999/xlink">
<g id="graph0" class="graph" transform="scale(1 1) rotate(0) translate(4 182)">
<title>argo::globallock::cohort_lock::unlock</title>
<polygon fill="white" stroke="transparent" points="-4,4 -4,-182 421,-182 421,4 -4,4"/>
<!-- Node1 -->
<g id="node1" class="node">
<title>Node1</title>
<g id="a_node1"><a xlink:title="Release the lock.">
<polygon fill="#bfbfbf" stroke="black" points="0,-73.5 0,-103.5 131,-103.5 131,-73.5 0,-73.5"/>
<text text-anchor="start" x="8" y="-91.5" font-family="Helvetica,sans-Serif" font-size="10.00">argo::globallock::cohort</text>
<text text-anchor="middle" x="65.5" y="-80.5" font-family="Helvetica,sans-Serif" font-size="10.00">_lock::unlock</text>
</a>
</g>
</g>
<!-- Node2 -->
<g id="node2" class="node">
<title>Node2</title>
<g id="a_node2"><a xlink:href="classargo_1_1locallock_1_1ticket__lock_a3ba3f8383bdfe989c4f2e4f00636b431.html#a3ba3f8383bdfe989c4f2e4f00636b431" target="_top" xlink:title="Checks if the lock is contended by comparing in vs out counters.">
<polygon fill="white" stroke="black" points="172,-147.5 172,-177.5 293,-177.5 293,-147.5 172,-147.5"/>
<text text-anchor="start" x="180" y="-165.5" font-family="Helvetica,sans-Serif" font-size="10.00">argo::locallock::ticket</text>
<text text-anchor="middle" x="232.5" y="-154.5" font-family="Helvetica,sans-Serif" font-size="10.00">_lock::is_contended</text>
</a>
</g>
</g>
<!-- Node1&#45;&gt;Node2 -->
<g id="edge1" class="edge">
<title>Node1&#45;&gt;Node2</title>
<path fill="none" stroke="midnightblue" d="M94.71,-103.54C114.65,-113.91 142.15,-127.73 167,-138.5 171.06,-140.26 175.29,-142.01 179.56,-143.72"/>
<polygon fill="midnightblue" stroke="midnightblue" points="178.33,-147 188.92,-147.38 180.88,-140.48 178.33,-147"/>
</g>
<!-- Node3 -->
<g id="node3" class="node">
<title>Node3</title>
<g id="a_node3"><a xlink:href="classargo_1_1globallock_1_1global__tas__lock_a55bd610c8555b8d986541c3f669789a2.html#a55bd610c8555b8d986541c3f669789a2" target="_top" xlink:title="release the lock">
<polygon fill="white" stroke="black" points="167,-98.5 167,-128.5 298,-128.5 298,-98.5 167,-98.5"/>
<text text-anchor="start" x="175" y="-116.5" font-family="Helvetica,sans-Serif" font-size="10.00">argo::globallock::global</text>
<text text-anchor="middle" x="232.5" y="-105.5" font-family="Helvetica,sans-Serif" font-size="10.00">_tas_lock::unlock</text>
</a>
</g>
</g>
<!-- Node1&#45;&gt;Node3 -->
<g id="edge2" class="edge">
<title>Node1&#45;&gt;Node3</title>
<path fill="none" stroke="midnightblue" d="M131.24,-98.31C139.67,-99.59 148.37,-100.9 156.95,-102.2"/>
<polygon fill="midnightblue" stroke="midnightblue" points="156.54,-105.68 166.95,-103.72 157.59,-98.76 156.54,-105.68"/>
</g>
<!-- Node5 -->
<g id="node5" class="node">
<title>Node5</title>
<g id="a_node5"><a xlink:href="classargo_1_1locallock_1_1mcs__lock_adf8ad5e4d2ebfbc0bf88b6dd31afe40d.html#adf8ad5e4d2ebfbc0bf88b6dd31afe40d" target="_top" xlink:title="Release the MCS lock.">
<polygon fill="white" stroke="black" points="175.5,-49.5 175.5,-79.5 289.5,-79.5 289.5,-49.5 175.5,-49.5"/>
<text text-anchor="start" x="183.5" y="-67.5" font-family="Helvetica,sans-Serif" font-size="10.00">argo::locallock::mcs</text>
<text text-anchor="middle" x="232.5" y="-56.5" font-family="Helvetica,sans-Serif" font-size="10.00">_lock::unlock</text>
</a>
</g>
</g>
<!-- Node1&#45;&gt;Node5 -->
<g id="edge4" class="edge">
<title>Node1&#45;&gt;Node5</title>
<path fill="none" stroke="midnightblue" d="M131.24,-79.08C142.37,-77.46 153.95,-75.78 165.12,-74.16"/>
<polygon fill="midnightblue" stroke="midnightblue" points="165.85,-77.59 175.24,-72.68 164.84,-70.66 165.85,-77.59"/>
</g>
<!-- Node6 -->
<g id="node6" class="node">
<title>Node6</title>
<g id="a_node6"><a xlink:href="classargo_1_1locallock_1_1ticket__lock_acd35e341f8d1c0919ff9782d685ecd4a.html#acd35e341f8d1c0919ff9782d685ecd4a" target="_top" xlink:title="release the lock">
<polygon fill="white" stroke="black" points="172,-0.5 172,-30.5 293,-30.5 293,-0.5 172,-0.5"/>
<text text-anchor="start" x="180" y="-18.5" font-family="Helvetica,sans-Serif" font-size="10.00">argo::locallock::ticket</text>
<text text-anchor="middle" x="232.5" y="-7.5" font-family="Helvetica,sans-Serif" font-size="10.00">_lock::unlock</text>
</a>
</g>
</g>
<!-- Node1&#45;&gt;Node6 -->
<g id="edge5" class="edge">
<title>Node1&#45;&gt;Node6</title>
<path fill="none" stroke="midnightblue" d="M96.57,-73.4C116.4,-63.63 143.04,-50.85 167,-40.5 171.77,-38.44 176.77,-36.36 181.79,-34.33"/>
<polygon fill="midnightblue" stroke="midnightblue" points="183.4,-37.45 191.4,-30.5 180.81,-30.95 183.4,-37.45"/>
</g>
<!-- Node4 -->
<g id="node4" class="node">
<title>Node4</title>
<g id="a_node4"><a xlink:href="namespaceargo_a188a4648d6e7549bcef4cee36dcb5336.html#a188a4648d6e7549bcef4cee36dcb5336" target="_top" xlink:title="A unique ArgoDSM node identifier. Counting starts from 0.">
<polygon fill="white" stroke="black" points="334,-104 334,-123 417,-123 417,-104 334,-104"/>
<text text-anchor="middle" x="375.5" y="-111" font-family="Helvetica,sans-Serif" font-size="10.00">argo::node_id</text>
</a>
</g>
</g>
<!-- Node3&#45;&gt;Node4 -->
<g id="edge3" class="edge">
<title>Node3&#45;&gt;Node4</title>
<path fill="none" stroke="midnightblue" d="M298.22,-113.5C306.77,-113.5 315.44,-113.5 323.71,-113.5"/>
<polygon fill="midnightblue" stroke="midnightblue" points="323.94,-117 333.94,-113.5 323.94,-110 323.94,-117"/>
</g>
</g>
</svg>
