<?xml version="1.0" encoding="UTF-8" standalone="no"?>
<!DOCTYPE svg PUBLIC "-//W3C//DTD SVG 1.1//EN"
 "http://www.w3.org/Graphics/SVG/1.1/DTD/svg11.dtd">
<!-- Generated by graphviz version 2.43.0 (0)
 -->
<!-- Title: /home/projectcs&#45;2022/argodsmBuffer/argodsmPrefetching/src/backend/mpi/coherence.cpp Pages: 1 -->
<svg width="2183pt" height="520pt"
 viewBox="0.00 0.00 2183.15 520.00" xmlns="http://www.w3.org/2000/svg" xmlns:xlink="http://www.w3.org/1999/xlink">
<g id="graph0" class="graph" transform="scale(1 1) rotate(0) translate(4 516)">
<title>/home/projectcs&#45;2022/argodsmBuffer/argodsmPrefetching/src/backend/mpi/coherence.cpp</title>
<polygon fill="white" stroke="transparent" points="-4,4 -4,-516 2179.15,-516 2179.15,4 -4,4"/>
<!-- Node1 -->
<g id="node1" class="node">
<title>Node1</title>
<g id="a_node1"><a xlink:title="This file implements selective coherence mechanisms for ArgoDSM.">
<polygon fill="#bfbfbf" stroke="black" points="50.65,-470.5 50.65,-511.5 243.65,-511.5 243.65,-470.5 50.65,-470.5"/>
<text text-anchor="start" x="58.65" y="-499.5" font-family="Helvetica,sans-Serif" font-size="10.00">/home/projectcs&#45;2022</text>
<text text-anchor="start" x="58.65" y="-488.5" font-family="Helvetica,sans-Serif" font-size="10.00">/argodsmBuffer/argodsmPrefetching</text>
<text text-anchor="middle" x="147.15" y="-477.5" font-family="Helvetica,sans-Serif" font-size="10.00">/src/backend/mpi/coherence.cpp</text>
</a>
</g>
</g>
<!-- Node2 -->
<g id="node2" class="node">
<title>Node2</title>
<g id="a_node2"><a xlink:title=" ">
<polygon fill="white" stroke="#bfbfbf" points="19.15,-358.5 19.15,-377.5 105.15,-377.5 105.15,-358.5 19.15,-358.5"/>
<text text-anchor="middle" x="62.15" y="-365.5" font-family="Helvetica,sans-Serif" font-size="10.00">shared_mutex</text>
</a>
</g>
</g>
<!-- Node1&#45;&gt;Node2 -->
<g id="edge1" class="edge">
<title>Node1&#45;&gt;Node2</title>
<path fill="none" stroke="midnightblue" d="M133.31,-470.29C116.84,-446.85 89.64,-408.13 74.07,-385.96"/>
<polygon fill="midnightblue" stroke="midnightblue" points="76.79,-383.75 68.18,-377.57 71.06,-387.77 76.79,-383.75"/>
</g>
<!-- Node3 -->
<g id="node3" class="node">
<title>Node3</title>
<g id="a_node3"><a xlink:title=" ">
<polygon fill="white" stroke="#bfbfbf" points="123.65,-358.5 123.65,-377.5 170.65,-377.5 170.65,-358.5 123.65,-358.5"/>
<text text-anchor="middle" x="147.15" y="-365.5" font-family="Helvetica,sans-Serif" font-size="10.00">vector</text>
</a>
</g>
</g>
<!-- Node1&#45;&gt;Node3 -->
<g id="edge2" class="edge">
<title>Node1&#45;&gt;Node3</title>
<path fill="none" stroke="midnightblue" d="M147.15,-470.29C147.15,-447.48 147.15,-410.19 147.15,-387.78"/>
<polygon fill="midnightblue" stroke="midnightblue" points="150.65,-387.57 147.15,-377.57 143.65,-387.57 150.65,-387.57"/>
</g>
<!-- Node4 -->
<g id="node4" class="node">
<title>Node4</title>
<g id="a_node4"><a xlink:href="backend_8hpp.html" target="_top" xlink:title="This file provides the backend interface.">
<polygon fill="white" stroke="black" points="1932.15,-297 1932.15,-316 2054.15,-316 2054.15,-297 1932.15,-297"/>
<text text-anchor="middle" x="1993.15" y="-304" font-family="Helvetica,sans-Serif" font-size="10.00">backend/backend.hpp</text>
</a>
</g>
</g>
<!-- Node1&#45;&gt;Node4 -->
<g id="edge3" class="edge">
<title>Node1&#45;&gt;Node4</title>
<path fill="none" stroke="midnightblue" d="M243.95,-487.98C624,-479.56 1996.29,-444.65 2059.15,-378 2077.8,-358.23 2046.37,-335.23 2020.81,-321.02"/>
<polygon fill="midnightblue" stroke="midnightblue" points="2022.23,-317.81 2011.76,-316.2 2018.94,-323.99 2022.23,-317.81"/>
</g>
<!-- Node23 -->
<g id="node19" class="node">
<title>Node23</title>
<g id="a_node19"><a xlink:href="swdsm_8h.html" target="_top" xlink:title="this is a legacy file from the ArgoDSM prototype">
<polygon fill="white" stroke="black" points="952.65,-414.5 952.65,-433.5 1077.65,-433.5 1077.65,-414.5 952.65,-414.5"/>
<text text-anchor="middle" x="1015.15" y="-421.5" font-family="Helvetica,sans-Serif" font-size="10.00">backend/mpi/swdsm.h</text>
</a>
</g>
</g>
<!-- Node1&#45;&gt;Node23 -->
<g id="edge27" class="edge">
<title>Node1&#45;&gt;Node23</title>
<path fill="none" stroke="midnightblue" d="M243.78,-482.76C419.05,-469.64 785.69,-442.18 942.01,-430.48"/>
<polygon fill="midnightblue" stroke="midnightblue" points="942.74,-433.93 952.45,-429.7 942.21,-426.95 942.74,-433.93"/>
</g>
<!-- Node54 -->
<g id="node50" class="node">
<title>Node54</title>
<g id="a_node50"><a xlink:href="virtual__memory_8hpp.html" target="_top" xlink:title="This file provides facilities for handling virtual memory and virtual address space.">
<polygon fill="white" stroke="black" points="230.65,-291.5 230.65,-321.5 359.65,-321.5 359.65,-291.5 230.65,-291.5"/>
<text text-anchor="start" x="238.65" y="-309.5" font-family="Helvetica,sans-Serif" font-size="10.00">virtual_memory/virtual</text>
<text text-anchor="middle" x="295.15" y="-298.5" font-family="Helvetica,sans-Serif" font-size="10.00">_memory.hpp</text>
</a>
</g>
</g>
<!-- Node1&#45;&gt;Node54 -->
<g id="edge74" class="edge">
<title>Node1&#45;&gt;Node54</title>
<path fill="none" stroke="midnightblue" d="M100.29,-470.5C47.52,-445.82 -26.38,-401.29 10.15,-358 39.15,-323.63 160.07,-329.73 220.71,-321.78"/>
<polygon fill="midnightblue" stroke="midnightblue" points="221.25,-325.24 230.6,-320.25 220.18,-318.32 221.25,-325.24"/>
</g>
<!-- Node5 -->
<g id="node5" class="node">
<title>Node5</title>
<g id="a_node5"><a xlink:title=" ">
<polygon fill="white" stroke="#bfbfbf" points="2027.15,-230 2027.15,-249 2079.15,-249 2079.15,-230 2027.15,-230"/>
<text text-anchor="middle" x="2053.15" y="-237" font-family="Helvetica,sans-Serif" font-size="10.00">cassert</text>
</a>
</g>
</g>
<!-- Node4&#45;&gt;Node5 -->
<g id="edge4" class="edge">
<title>Node4&#45;&gt;Node5</title>
<path fill="none" stroke="midnightblue" d="M2001.24,-296.73C2010.69,-286.5 2026.51,-269.36 2038.2,-256.69"/>
<polygon fill="midnightblue" stroke="midnightblue" points="2040.98,-258.85 2045.19,-249.13 2035.83,-254.1 2040.98,-258.85"/>
</g>
<!-- Node6 -->
<g id="node6" class="node">
<title>Node6</title>
<g id="a_node6"><a xlink:title=" ">
<polygon fill="white" stroke="#bfbfbf" points="2097.15,-230 2097.15,-249 2147.15,-249 2147.15,-230 2097.15,-230"/>
<text text-anchor="middle" x="2122.15" y="-237" font-family="Helvetica,sans-Serif" font-size="10.00">cstdint</text>
</a>
</g>
</g>
<!-- Node4&#45;&gt;Node6 -->
<g id="edge5" class="edge">
<title>Node4&#45;&gt;Node6</title>
<path fill="none" stroke="midnightblue" d="M2010.28,-296.87C2032.16,-285.84 2070.24,-266.66 2095.82,-253.77"/>
<polygon fill="midnightblue" stroke="midnightblue" points="2097.6,-256.79 2104.95,-249.17 2094.45,-250.54 2097.6,-256.79"/>
</g>
<!-- Node7 -->
<g id="node7" class="node">
<title>Node7</title>
<g id="a_node7"><a xlink:title=" ">
<polygon fill="white" stroke="#bfbfbf" points="1943.65,-230 1943.65,-249 2008.65,-249 2008.65,-230 1943.65,-230"/>
<text text-anchor="middle" x="1976.15" y="-237" font-family="Helvetica,sans-Serif" font-size="10.00">stdexcept</text>
</a>
</g>
</g>
<!-- Node4&#45;&gt;Node7 -->
<g id="edge6" class="edge">
<title>Node4&#45;&gt;Node7</title>
<path fill="none" stroke="midnightblue" d="M1990.86,-296.73C1988.34,-287.09 1984.21,-271.3 1980.97,-258.91"/>
<polygon fill="midnightblue" stroke="midnightblue" points="1984.32,-257.92 1978.41,-249.13 1977.55,-259.69 1984.32,-257.92"/>
</g>
<!-- Node8 -->
<g id="node8" class="node">
<title>Node8</title>
<g id="a_node8"><a xlink:href="global__ptr_8hpp.html" target="_top" xlink:title="This file provides the global pointer for ArgoDSM.">
<polygon fill="white" stroke="black" points="1793.15,-224.5 1793.15,-254.5 1925.15,-254.5 1925.15,-224.5 1793.15,-224.5"/>
<text text-anchor="start" x="1801.15" y="-242.5" font-family="Helvetica,sans-Serif" font-size="10.00">data_distribution/global</text>
<text text-anchor="middle" x="1859.15" y="-231.5" font-family="Helvetica,sans-Serif" font-size="10.00">_ptr.hpp</text>
</a>
</g>
</g>
<!-- Node4&#45;&gt;Node8 -->
<g id="edge7" class="edge">
<title>Node4&#45;&gt;Node8</title>
<path fill="none" stroke="midnightblue" d="M1975.36,-296.87C1955.51,-287.24 1922.83,-271.39 1897.17,-258.94"/>
<polygon fill="midnightblue" stroke="midnightblue" points="1898.6,-255.74 1888.07,-254.53 1895.54,-262.04 1898.6,-255.74"/>
</g>
<!-- Node16 -->
<g id="node13" class="node">
<title>Node16</title>
<g id="a_node13"><a xlink:href="types_8hpp.html" target="_top" xlink:title="This file defines common types used in ArgoDSM.">
<polygon fill="white" stroke="black" points="1308.65,-0.5 1308.65,-19.5 1403.65,-19.5 1403.65,-0.5 1308.65,-0.5"/>
<text text-anchor="middle" x="1356.15" y="-7.5" font-family="Helvetica,sans-Serif" font-size="10.00">types/types.hpp</text>
</a>
</g>
</g>
<!-- Node4&#45;&gt;Node16 -->
<g id="edge26" class="edge">
<title>Node4&#45;&gt;Node16</title>
<path fill="none" stroke="midnightblue" d="M1932.05,-303C1735.03,-294.13 1129.15,-260.25 1129.15,-179 1129.15,-179 1129.15,-179 1129.15,-121 1129.15,-45.81 1231.25,-22 1298.5,-14.47"/>
<polygon fill="midnightblue" stroke="midnightblue" points="1298.98,-17.94 1308.57,-13.43 1298.26,-10.98 1298.98,-17.94"/>
</g>
<!-- Node9 -->
<g id="node9" class="node">
<title>Node9</title>
<g id="a_node9"><a xlink:title=" ">
<polygon fill="white" stroke="#bfbfbf" points="1789.15,-0.5 1789.15,-19.5 1833.15,-19.5 1833.15,-0.5 1789.15,-0.5"/>
<text text-anchor="middle" x="1811.15" y="-7.5" font-family="Helvetica,sans-Serif" font-size="10.00">string</text>
</a>
</g>
</g>
<!-- Node8&#45;&gt;Node9 -->
<g id="edge8" class="edge">
<title>Node8&#45;&gt;Node9</title>
<path fill="none" stroke="midnightblue" d="M1875.71,-224.3C1911.01,-192.3 1987.2,-112.95 1946.15,-56 1922.86,-23.68 1875.34,-14.22 1843.36,-11.65"/>
<polygon fill="midnightblue" stroke="midnightblue" points="1843.36,-8.14 1833.17,-11.02 1842.93,-15.13 1843.36,-8.14"/>
</g>
<!-- Node10 -->
<g id="node10" class="node">
<title>Node10</title>
<g id="a_node10"><a xlink:href="data__distribution_8hpp.html" target="_top" xlink:title="This file provides an abstraction layer for distributing the shared memory space.">
<polygon fill="white" stroke="red" points="1452.15,-168.5 1452.15,-187.5 1572.15,-187.5 1572.15,-168.5 1452.15,-168.5"/>
<text text-anchor="middle" x="1512.15" y="-175.5" font-family="Helvetica,sans-Serif" font-size="10.00">data_distribution.hpp</text>
</a>
</g>
</g>
<!-- Node8&#45;&gt;Node10 -->
<g id="edge9" class="edge">
<title>Node8&#45;&gt;Node10</title>
<path fill="none" stroke="midnightblue" d="M1793.07,-227.17C1729.27,-216.23 1633.53,-199.81 1571.94,-189.25"/>
<polygon fill="midnightblue" stroke="midnightblue" points="1572.43,-185.79 1561.99,-187.55 1571.25,-192.68 1572.43,-185.79"/>
</g>
<!-- Node14 -->
<g id="node12" class="node">
<title>Node14</title>
<g id="a_node12"><a xlink:href="env_8hpp.html" target="_top" xlink:title="This file provides facilities for handling environment variables.">
<polygon fill="white" stroke="red" points="1148.15,-0.5 1148.15,-19.5 1224.15,-19.5 1224.15,-0.5 1148.15,-0.5"/>
<text text-anchor="middle" x="1186.15" y="-7.5" font-family="Helvetica,sans-Serif" font-size="10.00">env/env.hpp</text>
</a>
</g>
</g>
<!-- Node8&#45;&gt;Node14 -->
<g id="edge25" class="edge">
<title>Node8&#45;&gt;Node14</title>
<path fill="none" stroke="midnightblue" d="M1792.94,-236.51C1644.48,-230.71 1291.24,-208.95 1205.15,-132 1176.58,-106.46 1178.82,-56.9 1182.65,-29.8"/>
<polygon fill="midnightblue" stroke="midnightblue" points="1186.14,-30.14 1184.31,-19.7 1179.24,-29.01 1186.14,-30.14"/>
</g>
<!-- Node11 -->
<g id="node11" class="node">
<title>Node11</title>
<g id="a_node11"><a xlink:href="base__distribution_8hpp.html" target="_top" xlink:title="This file implements the base distribution class for all the policies to derive from.">
<polygon fill="white" stroke="red" points="1406.15,-56.5 1406.15,-75.5 1528.15,-75.5 1528.15,-56.5 1406.15,-56.5"/>
<text text-anchor="middle" x="1467.15" y="-63.5" font-family="Helvetica,sans-Serif" font-size="10.00">base_distribution.hpp</text>
</a>
</g>
</g>
<!-- Node10&#45;&gt;Node11 -->
<g id="edge10" class="edge">
<title>Node10&#45;&gt;Node11</title>
<path fill="none" stroke="midnightblue" d="M1486.65,-168.47C1470.16,-161.48 1450.01,-149.79 1440.15,-132 1431.41,-116.22 1441.73,-97.02 1452.04,-83.59"/>
<polygon fill="midnightblue" stroke="midnightblue" points="1454.9,-85.62 1458.61,-75.7 1449.52,-81.15 1454.9,-85.62"/>
</g>
<!-- Node10&#45;&gt;Node14 -->
<g id="edge24" class="edge">
<title>Node10&#45;&gt;Node14</title>
<path fill="none" stroke="midnightblue" d="M1452.07,-174.92C1377.88,-171.13 1257.42,-160.64 1224.15,-132 1194.07,-106.11 1187.51,-56.69 1186.26,-29.71"/>
<polygon fill="midnightblue" stroke="midnightblue" points="1189.76,-29.56 1186,-19.66 1182.76,-29.75 1189.76,-29.56"/>
</g>
<!-- Node17 -->
<g id="node14" class="node">
<title>Node17</title>
<g id="a_node14"><a xlink:href="cyclic__distribution_8hpp.html" target="_top" xlink:title="This file implements the cyclic data distribution.">
<polygon fill="white" stroke="black" points="1449.15,-112.5 1449.15,-131.5 1575.15,-131.5 1575.15,-112.5 1449.15,-112.5"/>
<text text-anchor="middle" x="1512.15" y="-119.5" font-family="Helvetica,sans-Serif" font-size="10.00">cyclic_distribution.hpp</text>
</a>
</g>
</g>
<!-- Node10&#45;&gt;Node17 -->
<g id="edge14" class="edge">
<title>Node10&#45;&gt;Node17</title>
<path fill="none" stroke="midnightblue" d="M1512.15,-168.08C1512.15,-161.01 1512.15,-150.86 1512.15,-141.99"/>
<polygon fill="midnightblue" stroke="midnightblue" points="1515.65,-141.75 1512.15,-131.75 1508.65,-141.75 1515.65,-141.75"/>
</g>
<!-- Node18 -->
<g id="node15" class="node">
<title>Node18</title>
<g id="a_node15"><a xlink:href="first__touch__distribution_8hpp.html" target="_top" xlink:title="This file implements the first&#45;touch data distribution.">
<polygon fill="white" stroke="black" points="1736.65,-112.5 1736.65,-131.5 1885.65,-131.5 1885.65,-112.5 1736.65,-112.5"/>
<text text-anchor="middle" x="1811.15" y="-119.5" font-family="Helvetica,sans-Serif" font-size="10.00">first_touch_distribution.hpp</text>
</a>
</g>
</g>
<!-- Node10&#45;&gt;Node18 -->
<g id="edge16" class="edge">
<title>Node10&#45;&gt;Node18</title>
<path fill="none" stroke="midnightblue" d="M1559.53,-168.44C1612.24,-158.92 1697.38,-143.55 1753.81,-133.36"/>
<polygon fill="midnightblue" stroke="midnightblue" points="1754.78,-136.74 1764,-131.52 1753.53,-129.85 1754.78,-136.74"/>
</g>
<!-- Node20 -->
<g id="node17" class="node">
<title>Node20</title>
<g id="a_node17"><a xlink:href="naive__distribution_8hpp.html" target="_top" xlink:title="This file implements the naive data distribution.">
<polygon fill="white" stroke="black" points="1593.65,-112.5 1593.65,-131.5 1718.65,-131.5 1718.65,-112.5 1593.65,-112.5"/>
<text text-anchor="middle" x="1656.15" y="-119.5" font-family="Helvetica,sans-Serif" font-size="10.00">naive_distribution.hpp</text>
</a>
</g>
</g>
<!-- Node10&#45;&gt;Node20 -->
<g id="edge20" class="edge">
<title>Node10&#45;&gt;Node20</title>
<path fill="none" stroke="midnightblue" d="M1534.97,-168.44C1558.98,-159.44 1596.98,-145.19 1624.02,-135.05"/>
<polygon fill="midnightblue" stroke="midnightblue" points="1625.31,-138.3 1633.44,-131.52 1622.85,-131.75 1625.31,-138.3"/>
</g>
<!-- Node21 -->
<g id="node18" class="node">
<title>Node21</title>
<g id="a_node18"><a xlink:href="prime__mapp__distribution_8hpp.html" target="_top" xlink:title="This file implements the prime&#45;mapp data distribution.">
<polygon fill="white" stroke="black" points="1233.15,-112.5 1233.15,-131.5 1393.15,-131.5 1393.15,-112.5 1233.15,-112.5"/>
<text text-anchor="middle" x="1313.15" y="-119.5" font-family="Helvetica,sans-Serif" font-size="10.00">prime_mapp_distribution.hpp</text>
</a>
</g>
</g>
<!-- Node10&#45;&gt;Node21 -->
<g id="edge22" class="edge">
<title>Node10&#45;&gt;Node21</title>
<path fill="none" stroke="midnightblue" d="M1480.62,-168.44C1446.56,-159.2 1392.15,-144.44 1354.64,-134.26"/>
<polygon fill="midnightblue" stroke="midnightblue" points="1355.1,-130.76 1344.54,-131.52 1353.27,-137.51 1355.1,-130.76"/>
</g>
<!-- Node11&#45;&gt;Node9 -->
<g id="edge11" class="edge">
<title>Node11&#45;&gt;Node9</title>
<path fill="none" stroke="midnightblue" d="M1521.66,-56.44C1594.07,-45.08 1719.7,-25.36 1778.73,-16.09"/>
<polygon fill="midnightblue" stroke="midnightblue" points="1779.62,-19.49 1788.96,-14.48 1778.53,-12.58 1779.62,-19.49"/>
</g>
<!-- Node11&#45;&gt;Node14 -->
<g id="edge12" class="edge">
<title>Node11&#45;&gt;Node14</title>
<path fill="none" stroke="midnightblue" d="M1422.63,-56.44C1371.27,-46.57 1287.13,-30.41 1234.29,-20.25"/>
<polygon fill="midnightblue" stroke="midnightblue" points="1234.64,-16.75 1224.16,-18.3 1233.32,-23.63 1234.64,-16.75"/>
</g>
<!-- Node11&#45;&gt;Node16 -->
<g id="edge13" class="edge">
<title>Node11&#45;&gt;Node16</title>
<path fill="none" stroke="midnightblue" d="M1449.32,-56.32C1431.44,-47.62 1403.68,-34.12 1383.11,-24.11"/>
<polygon fill="midnightblue" stroke="midnightblue" points="1384.47,-20.88 1373.94,-19.65 1381.4,-27.18 1384.47,-20.88"/>
</g>
<!-- Node17&#45;&gt;Node11 -->
<g id="edge15" class="edge">
<title>Node17&#45;&gt;Node11</title>
<path fill="none" stroke="midnightblue" d="M1504.72,-112.08C1498.3,-104.38 1488.85,-93.03 1481.03,-83.65"/>
<polygon fill="midnightblue" stroke="midnightblue" points="1483.53,-81.19 1474.44,-75.75 1478.16,-85.67 1483.53,-81.19"/>
</g>
<!-- Node18&#45;&gt;Node9 -->
<g id="edge18" class="edge">
<title>Node18&#45;&gt;Node9</title>
<path fill="none" stroke="midnightblue" d="M1811.15,-112.37C1811.15,-94.62 1811.15,-53.67 1811.15,-29.6"/>
<polygon fill="midnightblue" stroke="midnightblue" points="1814.65,-29.59 1811.15,-19.59 1807.65,-29.59 1814.65,-29.59"/>
</g>
<!-- Node18&#45;&gt;Node11 -->
<g id="edge19" class="edge">
<title>Node18&#45;&gt;Node11</title>
<path fill="none" stroke="midnightblue" d="M1756.64,-112.44C1695.5,-102.85 1596.42,-87.29 1531.52,-77.1"/>
<polygon fill="midnightblue" stroke="midnightblue" points="1531.83,-73.61 1521.4,-75.52 1530.74,-80.52 1531.83,-73.61"/>
</g>
<!-- Node19 -->
<g id="node16" class="node">
<title>Node19</title>
<g id="a_node16"><a xlink:title=" ">
<polygon fill="white" stroke="#bfbfbf" points="1889.15,-56.5 1889.15,-75.5 1937.15,-75.5 1937.15,-56.5 1889.15,-56.5"/>
<text text-anchor="middle" x="1913.15" y="-63.5" font-family="Helvetica,sans-Serif" font-size="10.00">mutex</text>
</a>
</g>
</g>
<!-- Node18&#45;&gt;Node19 -->
<g id="edge17" class="edge">
<title>Node18&#45;&gt;Node19</title>
<path fill="none" stroke="midnightblue" d="M1827.54,-112.32C1843.82,-103.7 1869.02,-90.36 1887.87,-80.39"/>
<polygon fill="midnightblue" stroke="midnightblue" points="1889.6,-83.43 1896.8,-75.65 1886.33,-77.24 1889.6,-83.43"/>
</g>
<!-- Node20&#45;&gt;Node11 -->
<g id="edge21" class="edge">
<title>Node20&#45;&gt;Node11</title>
<path fill="none" stroke="midnightblue" d="M1626.2,-112.44C1593.99,-103.24 1542.62,-88.56 1507.01,-78.39"/>
<polygon fill="midnightblue" stroke="midnightblue" points="1507.54,-74.9 1496.96,-75.52 1505.61,-81.63 1507.54,-74.9"/>
</g>
<!-- Node21&#45;&gt;Node11 -->
<g id="edge23" class="edge">
<title>Node21&#45;&gt;Node11</title>
<path fill="none" stroke="midnightblue" d="M1337.55,-112.44C1363.35,-103.4 1404.23,-89.06 1433.17,-78.92"/>
<polygon fill="midnightblue" stroke="midnightblue" points="1434.59,-82.13 1442.86,-75.52 1432.27,-75.52 1434.59,-82.13"/>
</g>
<!-- Node23&#45;&gt;Node2 -->
<g id="edge51" class="edge">
<title>Node23&#45;&gt;Node2</title>
<path fill="none" stroke="midnightblue" d="M952.41,-422.48C807.02,-420.73 435.7,-412.99 115.63,-378.02"/>
<polygon fill="midnightblue" stroke="midnightblue" points="115.55,-374.49 105.22,-376.87 114.78,-381.45 115.55,-374.49"/>
</g>
<!-- Node23&#45;&gt;Node3 -->
<g id="edge54" class="edge">
<title>Node23&#45;&gt;Node3</title>
<path fill="none" stroke="midnightblue" d="M952.57,-423.4C813.69,-423.47 469.56,-419.05 185.15,-378 183.68,-377.79 182.19,-377.55 180.68,-377.28"/>
<polygon fill="midnightblue" stroke="midnightblue" points="181.24,-373.82 170.74,-375.28 179.85,-380.69 181.24,-373.82"/>
</g>
<!-- Node23&#45;&gt;Node4 -->
<g id="edge56" class="edge">
<title>Node23&#45;&gt;Node4</title>
<path fill="none" stroke="midnightblue" d="M1077.82,-422.61C1295.68,-420.97 2008.72,-412.93 2042.15,-378 2058.84,-360.57 2034.83,-336.99 2014.92,-322.01"/>
<polygon fill="midnightblue" stroke="midnightblue" points="2016.93,-319.15 2006.77,-316.16 2012.85,-324.84 2016.93,-319.15"/>
</g>
<!-- Node23&#45;&gt;Node6 -->
<g id="edge48" class="edge">
<title>Node23&#45;&gt;Node6</title>
<path fill="none" stroke="midnightblue" d="M1077.99,-422.09C1297.41,-418.69 2018.34,-405.45 2059.15,-378 2099.72,-350.71 2114.6,-290.37 2119.7,-259.5"/>
<polygon fill="midnightblue" stroke="midnightblue" points="2123.22,-259.64 2121.21,-249.24 2116.29,-258.63 2123.22,-259.64"/>
</g>
<!-- Node23&#45;&gt;Node19 -->
<g id="edge50" class="edge">
<title>Node23&#45;&gt;Node19</title>
<path fill="none" stroke="midnightblue" d="M1078.02,-422.57C1292.87,-420.81 1989.89,-412.47 2084.15,-378 2132.2,-360.43 2175.15,-358.66 2175.15,-307.5 2175.15,-307.5 2175.15,-307.5 2175.15,-238.5 2175.15,-130.94 2018.67,-87.2 1947.57,-72.88"/>
<polygon fill="midnightblue" stroke="midnightblue" points="1947.81,-69.36 1937.33,-70.9 1946.49,-76.23 1947.81,-69.36"/>
</g>
<!-- Node24 -->
<g id="node20" class="node">
<title>Node24</title>
<g id="a_node20"><a xlink:title=" ">
<polygon fill="white" stroke="#bfbfbf" points="555.15,-358.5 555.15,-377.5 611.15,-377.5 611.15,-358.5 555.15,-358.5"/>
<text text-anchor="middle" x="583.15" y="-365.5" font-family="Helvetica,sans-Serif" font-size="10.00">assert.h</text>
</a>
</g>
</g>
<!-- Node23&#45;&gt;Node24 -->
<g id="edge28" class="edge">
<title>Node23&#45;&gt;Node24</title>
<path fill="none" stroke="midnightblue" d="M952.55,-418.3C876.42,-412.05 743.91,-399.42 621.3,-378"/>
<polygon fill="midnightblue" stroke="midnightblue" points="621.81,-374.54 611.36,-376.25 620.59,-381.44 621.81,-374.54"/>
</g>
<!-- Node25 -->
<g id="node21" class="node">
<title>Node25</title>
<g id="a_node21"><a xlink:title=" ">
<polygon fill="white" stroke="#bfbfbf" points="629.65,-358.5 629.65,-377.5 680.65,-377.5 680.65,-358.5 629.65,-358.5"/>
<text text-anchor="middle" x="655.15" y="-365.5" font-family="Helvetica,sans-Serif" font-size="10.00">errno.h</text>
</a>
</g>
</g>
<!-- Node23&#45;&gt;Node25 -->
<g id="edge29" class="edge">
<title>Node23&#45;&gt;Node25</title>
<path fill="none" stroke="midnightblue" d="M952.58,-416.65C888.86,-409.67 787.08,-397.1 690.61,-378.1"/>
<polygon fill="midnightblue" stroke="midnightblue" points="691.19,-374.64 680.69,-376.12 689.81,-381.51 691.19,-374.64"/>
</g>
<!-- Node26 -->
<g id="node22" class="node">
<title>Node26</title>
<g id="a_node22"><a xlink:title=" ">
<polygon fill="white" stroke="#bfbfbf" points="698.65,-358.5 698.65,-377.5 745.65,-377.5 745.65,-358.5 698.65,-358.5"/>
<text text-anchor="middle" x="722.15" y="-365.5" font-family="Helvetica,sans-Serif" font-size="10.00">fcntl.h</text>
</a>
</g>
</g>
<!-- Node23&#45;&gt;Node26 -->
<g id="edge30" class="edge">
<title>Node23&#45;&gt;Node26</title>
<path fill="none" stroke="midnightblue" d="M955.2,-414.47C904.36,-406.82 829.33,-394.58 755.75,-378.19"/>
<polygon fill="midnightblue" stroke="midnightblue" points="756.37,-374.74 745.85,-375.96 754.83,-381.57 756.37,-374.74"/>
</g>
<!-- Node27 -->
<g id="node23" class="node">
<title>Node27</title>
<g id="a_node23"><a xlink:title=" ">
<polygon fill="white" stroke="#bfbfbf" points="763.65,-358.5 763.65,-377.5 822.65,-377.5 822.65,-358.5 763.65,-358.5"/>
<text text-anchor="middle" x="793.15" y="-365.5" font-family="Helvetica,sans-Serif" font-size="10.00">malloc.h</text>
</a>
</g>
</g>
<!-- Node23&#45;&gt;Node27 -->
<g id="edge31" class="edge">
<title>Node23&#45;&gt;Node27</title>
<path fill="none" stroke="midnightblue" d="M979.98,-414.44C939.88,-404.69 874.5,-388.79 832.67,-378.61"/>
<polygon fill="midnightblue" stroke="midnightblue" points="833.38,-375.18 822.84,-376.22 831.72,-381.98 833.38,-375.18"/>
</g>
<!-- Node28 -->
<g id="node24" class="node">
<title>Node28</title>
<g id="a_node24"><a xlink:title=" ">
<polygon fill="white" stroke="#bfbfbf" points="840.65,-358.5 840.65,-377.5 891.65,-377.5 891.65,-358.5 840.65,-358.5"/>
<text text-anchor="middle" x="866.15" y="-365.5" font-family="Helvetica,sans-Serif" font-size="10.00">math.h</text>
</a>
</g>
</g>
<!-- Node23&#45;&gt;Node28 -->
<g id="edge32" class="edge">
<title>Node23&#45;&gt;Node28</title>
<path fill="none" stroke="midnightblue" d="M991.54,-414.44C966.69,-405.44 927.38,-391.19 899.4,-381.05"/>
<polygon fill="midnightblue" stroke="midnightblue" points="900.24,-377.63 889.65,-377.52 897.86,-384.21 900.24,-377.63"/>
</g>
<!-- Node29 -->
<g id="node25" class="node">
<title>Node29</title>
<g id="a_node25"><a xlink:title=" ">
<polygon fill="white" stroke="#bfbfbf" points="378.15,-297 378.15,-316 422.15,-316 422.15,-297 378.15,-297"/>
<text text-anchor="middle" x="400.15" y="-304" font-family="Helvetica,sans-Serif" font-size="10.00">mpi.h</text>
</a>
</g>
</g>
<!-- Node23&#45;&gt;Node29 -->
<g id="edge33" class="edge">
<title>Node23&#45;&gt;Node29</title>
<path fill="none" stroke="midnightblue" d="M952.44,-422.12C808.59,-419.57 464.07,-410.13 423.15,-378 407.52,-365.73 402.38,-342.62 400.76,-326.21"/>
<polygon fill="midnightblue" stroke="midnightblue" points="404.24,-325.89 400.11,-316.13 397.26,-326.33 404.24,-325.89"/>
</g>
<!-- Node30 -->
<g id="node26" class="node">
<title>Node30</title>
<g id="a_node26"><a xlink:title=" ">
<polygon fill="white" stroke="#bfbfbf" points="909.65,-358.5 909.65,-377.5 956.65,-377.5 956.65,-358.5 909.65,-358.5"/>
<text text-anchor="middle" x="933.15" y="-365.5" font-family="Helvetica,sans-Serif" font-size="10.00">omp.h</text>
</a>
</g>
</g>
<!-- Node23&#45;&gt;Node30 -->
<g id="edge34" class="edge">
<title>Node23&#45;&gt;Node30</title>
<path fill="none" stroke="midnightblue" d="M1001.98,-414.32C989.3,-405.98 969.92,-393.21 954.95,-383.35"/>
<polygon fill="midnightblue" stroke="midnightblue" points="956.57,-380.23 946.29,-377.65 952.72,-386.08 956.57,-380.23"/>
</g>
<!-- Node31 -->
<g id="node27" class="node">
<title>Node31</title>
<g id="a_node27"><a xlink:title=" ">
<polygon fill="white" stroke="#bfbfbf" points="149.65,-297 149.65,-316 212.65,-316 212.65,-297 149.65,-297"/>
<text text-anchor="middle" x="181.15" y="-304" font-family="Helvetica,sans-Serif" font-size="10.00">pthread.h</text>
</a>
</g>
</g>
<!-- Node23&#45;&gt;Node31 -->
<g id="edge35" class="edge">
<title>Node23&#45;&gt;Node31</title>
<path fill="none" stroke="midnightblue" d="M952.37,-421.73C781.96,-417.92 319.27,-405.2 256.15,-378 229.7,-366.6 206.83,-341.62 193.52,-324.67"/>
<polygon fill="midnightblue" stroke="midnightblue" points="195.96,-322.09 187.14,-316.21 190.37,-326.31 195.96,-322.09"/>
</g>
<!-- Node32 -->
<g id="node28" class="node">
<title>Node32</title>
<g id="a_node28"><a xlink:title=" ">
<polygon fill="white" stroke="#bfbfbf" points="975.15,-358.5 975.15,-377.5 1055.15,-377.5 1055.15,-358.5 975.15,-358.5"/>
<text text-anchor="middle" x="1015.15" y="-365.5" font-family="Helvetica,sans-Serif" font-size="10.00">semaphore.h</text>
</a>
</g>
</g>
<!-- Node23&#45;&gt;Node32 -->
<g id="edge36" class="edge">
<title>Node23&#45;&gt;Node32</title>
<path fill="none" stroke="midnightblue" d="M1015.15,-414.08C1015.15,-407.01 1015.15,-396.86 1015.15,-387.99"/>
<polygon fill="midnightblue" stroke="midnightblue" points="1018.65,-387.75 1015.15,-377.75 1011.65,-387.75 1018.65,-387.75"/>
</g>
<!-- Node33 -->
<g id="node29" class="node">
<title>Node33</title>
<g id="a_node29"><a xlink:title=" ">
<polygon fill="white" stroke="#bfbfbf" points="1073.65,-358.5 1073.65,-377.5 1128.65,-377.5 1128.65,-358.5 1073.65,-358.5"/>
<text text-anchor="middle" x="1101.15" y="-365.5" font-family="Helvetica,sans-Serif" font-size="10.00">signal.h</text>
</a>
</g>
</g>
<!-- Node23&#45;&gt;Node33 -->
<g id="edge37" class="edge">
<title>Node23&#45;&gt;Node33</title>
<path fill="none" stroke="midnightblue" d="M1028.97,-414.32C1042.38,-405.9 1062.98,-392.97 1078.74,-383.07"/>
<polygon fill="midnightblue" stroke="midnightblue" points="1080.76,-385.94 1087.37,-377.65 1077.04,-380.01 1080.76,-385.94"/>
</g>
<!-- Node34 -->
<g id="node30" class="node">
<title>Node34</title>
<g id="a_node30"><a xlink:title=" ">
<polygon fill="white" stroke="#bfbfbf" points="1147.15,-358.5 1147.15,-377.5 1197.15,-377.5 1197.15,-358.5 1147.15,-358.5"/>
<text text-anchor="middle" x="1172.15" y="-365.5" font-family="Helvetica,sans-Serif" font-size="10.00">stdio.h</text>
</a>
</g>
</g>
<!-- Node23&#45;&gt;Node34 -->
<g id="edge38" class="edge">
<title>Node23&#45;&gt;Node34</title>
<path fill="none" stroke="midnightblue" d="M1040.03,-414.44C1066.44,-405.36 1108.37,-390.94 1137.89,-380.78"/>
<polygon fill="midnightblue" stroke="midnightblue" points="1139.07,-384.08 1147.39,-377.52 1136.8,-377.46 1139.07,-384.08"/>
</g>
<!-- Node35 -->
<g id="node31" class="node">
<title>Node35</title>
<g id="a_node31"><a xlink:title=" ">
<polygon fill="white" stroke="#bfbfbf" points="1215.65,-358.5 1215.65,-377.5 1268.65,-377.5 1268.65,-358.5 1215.65,-358.5"/>
<text text-anchor="middle" x="1242.15" y="-365.5" font-family="Helvetica,sans-Serif" font-size="10.00">stdlib.h</text>
</a>
</g>
</g>
<!-- Node23&#45;&gt;Node35 -->
<g id="edge39" class="edge">
<title>Node23&#45;&gt;Node35</title>
<path fill="none" stroke="midnightblue" d="M1052.16,-414.44C1088.63,-405.96 1146.21,-392.5 1205.51,-378.13"/>
<polygon fill="midnightblue" stroke="midnightblue" points="1206.53,-381.48 1215.43,-375.72 1204.88,-374.68 1206.53,-381.48"/>
</g>
<!-- Node36 -->
<g id="node32" class="node">
<title>Node36</title>
<g id="a_node32"><a xlink:title=" ">
<polygon fill="white" stroke="#bfbfbf" points="1286.65,-358.5 1286.65,-377.5 1339.65,-377.5 1339.65,-358.5 1286.65,-358.5"/>
<text text-anchor="middle" x="1313.15" y="-365.5" font-family="Helvetica,sans-Serif" font-size="10.00">string.h</text>
</a>
</g>
</g>
<!-- Node23&#45;&gt;Node36 -->
<g id="edge40" class="edge">
<title>Node23&#45;&gt;Node36</title>
<path fill="none" stroke="midnightblue" d="M1072.11,-414.48C1123.16,-406.55 1200.28,-393.88 1276.67,-377.97"/>
<polygon fill="midnightblue" stroke="midnightblue" points="1277.4,-381.39 1286.47,-375.91 1275.96,-374.54 1277.4,-381.39"/>
</g>
<!-- Node37 -->
<g id="node33" class="node">
<title>Node37</title>
<g id="a_node33"><a xlink:title=" ">
<polygon fill="white" stroke="#bfbfbf" points="1357.65,-358.5 1357.65,-377.5 1434.65,-377.5 1434.65,-358.5 1357.65,-358.5"/>
<text text-anchor="middle" x="1396.15" y="-365.5" font-family="Helvetica,sans-Serif" font-size="10.00">sys/mman.h</text>
</a>
</g>
</g>
<!-- Node23&#45;&gt;Node37 -->
<g id="edge41" class="edge">
<title>Node23&#45;&gt;Node37</title>
<path fill="none" stroke="midnightblue" d="M1077.89,-415.49C1142.78,-407.51 1247.27,-394.04 1347.42,-378.05"/>
<polygon fill="midnightblue" stroke="midnightblue" points="1348.09,-381.48 1357.41,-376.44 1346.98,-374.57 1348.09,-381.48"/>
</g>
<!-- Node38 -->
<g id="node34" class="node">
<title>Node38</title>
<g id="a_node34"><a xlink:title=" ">
<polygon fill="white" stroke="#bfbfbf" points="1453.15,-358.5 1453.15,-377.5 1517.15,-377.5 1517.15,-358.5 1453.15,-358.5"/>
<text text-anchor="middle" x="1485.15" y="-365.5" font-family="Helvetica,sans-Serif" font-size="10.00">sys/stat.h</text>
</a>
</g>
</g>
<!-- Node23&#45;&gt;Node38 -->
<g id="edge42" class="edge">
<title>Node23&#45;&gt;Node38</title>
<path fill="none" stroke="midnightblue" d="M1077.8,-418.51C1161.44,-412.04 1314.03,-398.56 1443.15,-378 1443.25,-377.98 1443.35,-377.97 1443.46,-377.95"/>
<polygon fill="midnightblue" stroke="midnightblue" points="1443.88,-381.43 1453.11,-376.23 1442.66,-374.54 1443.88,-381.43"/>
</g>
<!-- Node39 -->
<g id="node35" class="node">
<title>Node39</title>
<g id="a_node35"><a xlink:title=" ">
<polygon fill="white" stroke="#bfbfbf" points="1535.15,-358.5 1535.15,-377.5 1607.15,-377.5 1607.15,-358.5 1535.15,-358.5"/>
<text text-anchor="middle" x="1571.15" y="-365.5" font-family="Helvetica,sans-Serif" font-size="10.00">sys/types.h</text>
</a>
</g>
</g>
<!-- Node23&#45;&gt;Node39 -->
<g id="edge43" class="edge">
<title>Node23&#45;&gt;Node39</title>
<path fill="none" stroke="midnightblue" d="M1077.94,-419.69C1172.71,-414.21 1358.07,-401.58 1524.91,-378.03"/>
<polygon fill="midnightblue" stroke="midnightblue" points="1525.46,-381.49 1534.86,-376.61 1524.47,-374.56 1525.46,-381.49"/>
</g>
<!-- Node40 -->
<g id="node36" class="node">
<title>Node40</title>
<g id="a_node36"><a xlink:title=" ">
<polygon fill="white" stroke="#bfbfbf" points="1625.15,-358.5 1625.15,-377.5 1673.15,-377.5 1673.15,-358.5 1625.15,-358.5"/>
<text text-anchor="middle" x="1649.15" y="-365.5" font-family="Helvetica,sans-Serif" font-size="10.00">time.h</text>
</a>
</g>
</g>
<!-- Node23&#45;&gt;Node40 -->
<g id="edge44" class="edge">
<title>Node23&#45;&gt;Node40</title>
<path fill="none" stroke="midnightblue" d="M1077.93,-422.24C1185.98,-420.08 1414.04,-411.75 1614.97,-377.86"/>
<polygon fill="midnightblue" stroke="midnightblue" points="1615.85,-381.26 1625.12,-376.13 1614.67,-374.36 1615.85,-381.26"/>
</g>
<!-- Node41 -->
<g id="node37" class="node">
<title>Node41</title>
<g id="a_node37"><a xlink:title=" ">
<polygon fill="white" stroke="#bfbfbf" points="1691.15,-358.5 1691.15,-377.5 1747.15,-377.5 1747.15,-358.5 1691.15,-358.5"/>
<text text-anchor="middle" x="1719.15" y="-365.5" font-family="Helvetica,sans-Serif" font-size="10.00">unistd.h</text>
</a>
</g>
</g>
<!-- Node23&#45;&gt;Node41 -->
<g id="edge45" class="edge">
<title>Node23&#45;&gt;Node41</title>
<path fill="none" stroke="midnightblue" d="M1078.08,-422.34C1195.11,-420.32 1454.18,-412.2 1680.88,-377.93"/>
<polygon fill="midnightblue" stroke="midnightblue" points="1681.62,-381.36 1690.97,-376.38 1680.55,-374.44 1681.62,-381.36"/>
</g>
<!-- Node42 -->
<g id="node38" class="node">
<title>Node42</title>
<g id="a_node38"><a xlink:title=" ">
<polygon fill="white" stroke="#bfbfbf" points="440.15,-297 440.15,-316 490.15,-316 490.15,-297 440.15,-297"/>
<text text-anchor="middle" x="465.15" y="-304" font-family="Helvetica,sans-Serif" font-size="10.00">atomic</text>
</a>
</g>
</g>
<!-- Node23&#45;&gt;Node42 -->
<g id="edge46" class="edge">
<title>Node23&#45;&gt;Node42</title>
<path fill="none" stroke="midnightblue" d="M952.39,-422.86C808.98,-421.87 466.94,-415.57 432.15,-378 417.61,-362.29 433.7,-339.03 448.08,-323.58"/>
<polygon fill="midnightblue" stroke="midnightblue" points="450.74,-325.87 455.27,-316.29 445.75,-320.95 450.74,-325.87"/>
</g>
<!-- Node43 -->
<g id="node39" class="node">
<title>Node43</title>
<g id="a_node39"><a xlink:title=" ">
<polygon fill="white" stroke="#bfbfbf" points="1765.65,-358.5 1765.65,-377.5 1812.65,-377.5 1812.65,-358.5 1765.65,-358.5"/>
<text text-anchor="middle" x="1789.15" y="-365.5" font-family="Helvetica,sans-Serif" font-size="10.00">cmath</text>
</a>
</g>
</g>
<!-- Node23&#45;&gt;Node43 -->
<g id="edge47" class="edge">
<title>Node23&#45;&gt;Node43</title>
<path fill="none" stroke="midnightblue" d="M1078.09,-423.52C1204.81,-423.62 1499.64,-419.12 1755.26,-377.76"/>
<polygon fill="midnightblue" stroke="midnightblue" points="1756.19,-381.15 1765.49,-376.08 1755.05,-374.25 1756.19,-381.15"/>
</g>
<!-- Node44 -->
<g id="node40" class="node">
<title>Node44</title>
<g id="a_node40"><a xlink:title=" ">
<polygon fill="white" stroke="#bfbfbf" points="1830.65,-358.5 1830.65,-377.5 1895.65,-377.5 1895.65,-358.5 1830.65,-358.5"/>
<text text-anchor="middle" x="1863.15" y="-365.5" font-family="Helvetica,sans-Serif" font-size="10.00">functional</text>
</a>
</g>
</g>
<!-- Node23&#45;&gt;Node44 -->
<g id="edge49" class="edge">
<title>Node23&#45;&gt;Node44</title>
<path fill="none" stroke="midnightblue" d="M1077.66,-422.81C1211.95,-421.68 1538.02,-415.12 1820.2,-377.9"/>
<polygon fill="midnightblue" stroke="midnightblue" points="1820.77,-381.35 1830.22,-376.56 1819.85,-374.42 1820.77,-381.35"/>
</g>
<!-- Node45 -->
<g id="node41" class="node">
<title>Node45</title>
<g id="a_node41"><a xlink:title=" ">
<polygon fill="white" stroke="#bfbfbf" points="1913.65,-358.5 1913.65,-377.5 1982.65,-377.5 1982.65,-358.5 1913.65,-358.5"/>
<text text-anchor="middle" x="1948.15" y="-365.5" font-family="Helvetica,sans-Serif" font-size="10.00">type_traits</text>
</a>
</g>
</g>
<!-- Node23&#45;&gt;Node45 -->
<g id="edge52" class="edge">
<title>Node23&#45;&gt;Node45</title>
<path fill="none" stroke="midnightblue" d="M1077.68,-423.07C1221.67,-422.55 1587.83,-417.23 1903.39,-377.87"/>
<polygon fill="midnightblue" stroke="midnightblue" points="1904.16,-381.3 1913.65,-376.57 1903.29,-374.35 1904.16,-381.3"/>
</g>
<!-- Node46 -->
<g id="node42" class="node">
<title>Node46</title>
<g id="a_node42"><a xlink:title=" ">
<polygon fill="white" stroke="#bfbfbf" points="272.65,-230 272.65,-249 317.65,-249 317.65,-230 272.65,-230"/>
<text text-anchor="middle" x="295.15" y="-237" font-family="Helvetica,sans-Serif" font-size="10.00">utility</text>
</a>
</g>
</g>
<!-- Node23&#45;&gt;Node46 -->
<g id="edge53" class="edge">
<title>Node23&#45;&gt;Node46</title>
<path fill="none" stroke="midnightblue" d="M952.62,-421.38C777.49,-416.57 290.48,-401.25 222.15,-378 201.26,-370.89 150.45,-341.51 140.15,-322 133.72,-309.82 132.06,-302.15 140.15,-291 168,-252.64 225.74,-242.86 262.35,-240.68"/>
<polygon fill="midnightblue" stroke="midnightblue" points="262.69,-244.17 272.53,-240.24 262.38,-237.18 262.69,-244.17"/>
</g>
<!-- Node47 -->
<g id="node43" class="node">
<title>Node47</title>
<g id="a_node43"><a xlink:title=" ">
<polygon fill="white" stroke="#bfbfbf" points="2001.15,-358.5 2001.15,-377.5 2033.15,-377.5 2033.15,-358.5 2001.15,-358.5"/>
<text text-anchor="middle" x="2017.15" y="-365.5" font-family="Helvetica,sans-Serif" font-size="10.00">list</text>
</a>
</g>
</g>
<!-- Node23&#45;&gt;Node47 -->
<g id="edge55" class="edge">
<title>Node23&#45;&gt;Node47</title>
<path fill="none" stroke="midnightblue" d="M1077.73,-422.46C1264.38,-420.46 1815.09,-411.8 1991.15,-378 1991.25,-377.98 1991.36,-377.96 1991.46,-377.94"/>
<polygon fill="midnightblue" stroke="midnightblue" points="1992.37,-381.32 2001.12,-375.35 1990.56,-374.56 1992.37,-381.32"/>
</g>
<!-- Node48 -->
<g id="node44" class="node">
<title>Node48</title>
<g id="a_node44"><a xlink:href="mpi__lock_8hpp.html" target="_top" xlink:title="Declaration of MPI lock.">
<polygon fill="white" stroke="black" points="265.15,-358.5 265.15,-377.5 347.15,-377.5 347.15,-358.5 265.15,-358.5"/>
<text text-anchor="middle" x="306.15" y="-365.5" font-family="Helvetica,sans-Serif" font-size="10.00">mpi_lock.hpp</text>
</a>
</g>
</g>
<!-- Node23&#45;&gt;Node48 -->
<g id="edge57" class="edge">
<title>Node23&#45;&gt;Node48</title>
<path fill="none" stroke="midnightblue" d="M952.3,-420.63C835.53,-415.8 577.36,-403.07 361.15,-378 359.88,-377.85 358.6,-377.7 357.3,-377.53"/>
<polygon fill="midnightblue" stroke="midnightblue" points="357.62,-374.04 347.24,-376.15 356.67,-380.98 357.62,-374.04"/>
</g>
<!-- Node49 -->
<g id="node45" class="node">
<title>Node49</title>
<g id="a_node45"><a xlink:href="write__buffer_8hpp.html" target="_top" xlink:title="This file provides an interface for the ArgoDSM write buffer.">
<polygon fill="white" stroke="black" points="441.65,-358.5 441.65,-377.5 536.65,-377.5 536.65,-358.5 441.65,-358.5"/>
<text text-anchor="middle" x="489.15" y="-365.5" font-family="Helvetica,sans-Serif" font-size="10.00">write_buffer.hpp</text>
</a>
</g>
</g>
<!-- Node23&#45;&gt;Node49 -->
<g id="edge60" class="edge">
<title>Node23&#45;&gt;Node49</title>
<path fill="none" stroke="midnightblue" d="M952.63,-418.67C863.08,-411.85 693.29,-397.47 543.81,-378.82"/>
<polygon fill="midnightblue" stroke="midnightblue" points="543.9,-375.31 533.54,-377.53 543.02,-382.25 543.9,-375.31"/>
</g>
<!-- Node48&#45;&gt;Node29 -->
<g id="edge58" class="edge">
<title>Node48&#45;&gt;Node29</title>
<path fill="none" stroke="midnightblue" d="M319.62,-358.48C334.84,-348.84 359.84,-333.02 377.95,-321.55"/>
<polygon fill="midnightblue" stroke="midnightblue" points="380.13,-324.31 386.71,-316.01 376.39,-318.4 380.13,-324.31"/>
</g>
<!-- Node48&#45;&gt;Node31 -->
<g id="edge59" class="edge">
<title>Node48&#45;&gt;Node31</title>
<path fill="none" stroke="midnightblue" d="M288.24,-358.48C267.26,-348.49 232.3,-331.85 208.06,-320.31"/>
<polygon fill="midnightblue" stroke="midnightblue" points="209.56,-317.15 199.03,-316.01 206.55,-323.47 209.56,-317.15"/>
</g>
<!-- Node49&#45;&gt;Node4 -->
<g id="edge69" class="edge">
<title>Node49&#45;&gt;Node4</title>
<path fill="none" stroke="midnightblue" d="M536.68,-359.03C539.88,-358.64 543.06,-358.29 546.15,-358 1092.02,-307.14 1231.56,-348.54 1779.15,-322 1826.74,-319.69 1880.22,-316.07 1921.81,-313.02"/>
<polygon fill="midnightblue" stroke="midnightblue" points="1922.13,-316.51 1931.85,-312.28 1921.61,-309.53 1922.13,-316.51"/>
</g>
<!-- Node49&#45;&gt;Node14 -->
<g id="edge70" class="edge">
<title>Node49&#45;&gt;Node14</title>
<path fill="none" stroke="midnightblue" d="M536.72,-359.39C539.91,-358.91 543.08,-358.44 546.15,-358 644.84,-343.82 979.15,-340.2 979.15,-240.5 979.15,-240.5 979.15,-240.5 979.15,-121 979.15,-49.64 1076.28,-24.43 1137.47,-15.62"/>
<polygon fill="midnightblue" stroke="midnightblue" points="1138.25,-19.05 1147.7,-14.26 1137.33,-12.11 1138.25,-19.05"/>
</g>
<!-- Node49&#45;&gt;Node19 -->
<g id="edge66" class="edge">
<title>Node49&#45;&gt;Node19</title>
<path fill="none" stroke="midnightblue" d="M536.7,-359.21C539.89,-358.78 543.07,-358.37 546.15,-358 744.06,-334.44 795.91,-350.62 993.15,-322 1398.16,-263.23 1593.91,-410.1 1894.15,-132 1906.81,-120.27 1911.2,-100.63 1912.64,-86"/>
<polygon fill="midnightblue" stroke="midnightblue" points="1916.16,-85.78 1913.27,-75.59 1909.17,-85.36 1916.16,-85.78"/>
</g>
<!-- Node49&#45;&gt;Node23 -->
<g id="edge68" class="edge">
<title>Node49&#45;&gt;Node23</title>
<path fill="none" stroke="midnightblue" d="M536.94,-375.47C543.1,-376.38 549.29,-377.26 555.15,-378 691.7,-395.31 851.36,-409.31 942.21,-416.87"/>
<polygon fill="midnightblue" stroke="midnightblue" points="942.15,-420.37 952.4,-417.71 942.72,-413.4 942.15,-420.37"/>
</g>
<!-- Node49&#45;&gt;Node29 -->
<g id="edge61" class="edge">
<title>Node49&#45;&gt;Node29</title>
<path fill="none" stroke="midnightblue" d="M476.4,-358.48C462.12,-348.93 438.75,-333.31 421.64,-321.87"/>
<polygon fill="midnightblue" stroke="midnightblue" points="423.14,-318.66 412.88,-316.01 419.25,-324.48 423.14,-318.66"/>
</g>
<!-- Node49&#45;&gt;Node42 -->
<g id="edge63" class="edge">
<title>Node49&#45;&gt;Node42</title>
<path fill="none" stroke="midnightblue" d="M485.71,-358.48C482.26,-349.9 476.82,-336.43 472.41,-325.48"/>
<polygon fill="midnightblue" stroke="midnightblue" points="475.57,-323.97 468.58,-316.01 469.08,-326.59 475.57,-323.97"/>
</g>
<!-- Node49&#45;&gt;Node46 -->
<g id="edge67" class="edge">
<title>Node49&#45;&gt;Node46</title>
<path fill="none" stroke="midnightblue" d="M493.91,-358.42C501.68,-343.13 514.74,-310.91 499.15,-291 478.22,-264.25 379.84,-249.7 327.73,-243.75"/>
<polygon fill="midnightblue" stroke="midnightblue" points="327.98,-240.26 317.66,-242.64 327.22,-247.22 327.98,-240.26"/>
</g>
<!-- Node50 -->
<g id="node46" class="node">
<title>Node50</title>
<g id="a_node46"><a xlink:title=" ">
<polygon fill="white" stroke="#bfbfbf" points="546.15,-297 546.15,-316 610.15,-316 610.15,-297 546.15,-297"/>
<text text-anchor="middle" x="578.15" y="-304" font-family="Helvetica,sans-Serif" font-size="10.00">algorithm</text>
</a>
</g>
</g>
<!-- Node49&#45;&gt;Node50 -->
<g id="edge62" class="edge">
<title>Node49&#45;&gt;Node50</title>
<path fill="none" stroke="midnightblue" d="M501.9,-358.48C516.18,-348.93 539.55,-333.31 556.66,-321.87"/>
<polygon fill="midnightblue" stroke="midnightblue" points="559.06,-324.48 565.42,-316.01 555.17,-318.66 559.06,-324.48"/>
</g>
<!-- Node51 -->
<g id="node47" class="node">
<title>Node51</title>
<g id="a_node47"><a xlink:title=" ">
<polygon fill="white" stroke="#bfbfbf" points="628.65,-297 628.65,-316 675.65,-316 675.65,-297 628.65,-297"/>
<text text-anchor="middle" x="652.15" y="-304" font-family="Helvetica,sans-Serif" font-size="10.00">deque</text>
</a>
</g>
</g>
<!-- Node49&#45;&gt;Node51 -->
<g id="edge64" class="edge">
<title>Node49&#45;&gt;Node51</title>
<path fill="none" stroke="midnightblue" d="M515.77,-358.48C542.21,-349.86 583.8,-335.86 619.15,-322 620.75,-321.37 622.39,-320.71 624.04,-320.03"/>
<polygon fill="midnightblue" stroke="midnightblue" points="625.58,-323.18 633.41,-316.05 622.84,-316.74 625.58,-323.18"/>
</g>
<!-- Node52 -->
<g id="node48" class="node">
<title>Node52</title>
<g id="a_node48"><a xlink:title=" ">
<polygon fill="white" stroke="#bfbfbf" points="693.65,-297 693.65,-316 746.65,-316 746.65,-297 693.65,-297"/>
<text text-anchor="middle" x="720.15" y="-304" font-family="Helvetica,sans-Serif" font-size="10.00">iterator</text>
</a>
</g>
</g>
<!-- Node49&#45;&gt;Node52 -->
<g id="edge65" class="edge">
<title>Node49&#45;&gt;Node52</title>
<path fill="none" stroke="midnightblue" d="M535.4,-358.45C575.26,-350.57 634.11,-337.75 684.15,-322 686.43,-321.28 688.77,-320.49 691.1,-319.65"/>
<polygon fill="midnightblue" stroke="midnightblue" points="692.45,-322.88 700.55,-316.04 689.96,-316.34 692.45,-322.88"/>
</g>
<!-- Node53 -->
<g id="node49" class="node">
<title>Node53</title>
<g id="a_node49"><a xlink:title=" ">
<polygon fill="white" stroke="#bfbfbf" points="765.15,-297 765.15,-316 815.15,-316 815.15,-297 765.15,-297"/>
<text text-anchor="middle" x="790.15" y="-304" font-family="Helvetica,sans-Serif" font-size="10.00">qd.hpp</text>
</a>
</g>
</g>
<!-- Node49&#45;&gt;Node53 -->
<g id="edge71" class="edge">
<title>Node49&#45;&gt;Node53</title>
<path fill="none" stroke="midnightblue" d="M536.78,-359.23C610.46,-347.16 744.74,-325 755.15,-322 757.44,-321.34 759.79,-320.58 762.13,-319.75"/>
<polygon fill="midnightblue" stroke="midnightblue" points="763.47,-322.99 771.54,-316.12 760.95,-316.45 763.47,-322.99"/>
</g>
<!-- Node49&#45;&gt;Node54 -->
<g id="edge72" class="edge">
<title>Node49&#45;&gt;Node54</title>
<path fill="none" stroke="midnightblue" d="M461.36,-358.48C432.63,-349.66 386.99,-335.67 350.81,-324.57"/>
<polygon fill="midnightblue" stroke="midnightblue" points="351.46,-321.11 340.87,-321.52 349.41,-327.8 351.46,-321.11"/>
</g>
<!-- Node54&#45;&gt;Node46 -->
<g id="edge73" class="edge">
<title>Node54&#45;&gt;Node46</title>
<path fill="none" stroke="midnightblue" d="M295.15,-291.4C295.15,-282.06 295.15,-269.71 295.15,-259.52"/>
<polygon fill="midnightblue" stroke="midnightblue" points="298.65,-259.19 295.15,-249.19 291.65,-259.19 298.65,-259.19"/>
</g>
</g>
</svg>
