<?xml version="1.0" encoding="UTF-8" standalone="no"?>
<!DOCTYPE svg PUBLIC "-//W3C//DTD SVG 1.1//EN"
 "http://www.w3.org/Graphics/SVG/1.1/DTD/svg11.dtd">
<!-- Generated by graphviz version 2.43.0 (0)
 -->
<!-- Title: argo_cohortlock_lock Pages: 1 -->
<!--zoomable 186 -->
<svg id="main" version="1.1" xmlns="http://www.w3.org/2000/svg" xmlns:xlink="http://www.w3.org/1999/xlink" xml:space="preserve" onload="init(evt)">
<style type="text/css"><![CDATA[
.edge:hover path { stroke: red; }
.edge:hover polygon { stroke: red; fill: red; }
]]></style>
<script type="text/javascript"><![CDATA[
var edges = document.getElementsByTagName('g');
if (edges && edges.length) {
  for (var i=0;i<edges.length;i++) {
    if (edges[i].id.substr(0,4)=='edge') {
      edges[i].setAttribute('class','edge');
    }
  }
}
]]></script>
        <defs>
                <circle id="rim" cx="0" cy="0" r="7"/>
                <circle id="rim2" cx="0" cy="0" r="3.5"/>
                <g id="zoomPlus">
                        <use xlink:href="#rim" fill="#404040">
                                <set attributeName="fill" to="#808080" begin="zoomplus.mouseover" end="zoomplus.mouseout"/>
                        </use>
                        <path d="M-4,0h8M0,-4v8" fill="none" stroke="white" stroke-width="1.5" pointer-events="none"/>
                </g>
                <g id="zoomMin">
                        <use xlink:href="#rim" fill="#404040">
                                <set attributeName="fill" to="#808080" begin="zoomminus.mouseover" end="zoomminus.mouseout"/>
                        </use>
                        <path d="M-4,0h8" fill="none" stroke="white" stroke-width="1.5" pointer-events="none"/>
                </g>
                <g id="dirArrow">
                        <path fill="none" stroke="white" stroke-width="1.5" d="M0,-3.0v7 M-2.5,-0.5L0,-3.0L2.5,-0.5"/>
                </g>
               <g id="resetDef">
                       <use xlink:href="#rim2" fill="#404040">
                               <set attributeName="fill" to="#808080" begin="reset.mouseover" end="reset.mouseout"/>
                       </use>
               </g>
        </defs>

<script type="text/javascript">
var viewWidth = 748;
var viewHeight = 186;
var sectionId = 'dynsection-0';
</script>
<script xlink:href="svgpan.js"/>
<svg id="graph" class="graph">
<g id="viewport">
<title>argo_cohortlock_lock</title>
<polygon fill="white" stroke="transparent" points="-4,4 -4,-182 744,-182 744,4 -4,4"/>
<!-- Node1 -->
<g id="node1" class="node">
<title>Node1</title>
<g id="a_node1"><a xlink:title="lock a cohort lock">
<polygon fill="#bfbfbf" stroke="black" points="0,-79 0,-98 120,-98 120,-79 0,-79"/>
<text text-anchor="middle" x="60" y="-86" font-family="Helvetica,sans-Serif" font-size="10.00">argo_cohortlock_lock</text>
</a>
</g>
</g>
<!-- Node2 -->
<g id="node2" class="node">
<title>Node2</title>
<g id="a_node2"><a xlink:href="classargo_1_1globallock_1_1cohort__lock_ae6e70438d85a8ae5698d198ce11d9a89.html#ae6e70438d85a8ae5698d198ce11d9a89" target="_top" xlink:title="Acquire the lock.">
<polygon fill="white" stroke="black" points="156,-73.5 156,-103.5 287,-103.5 287,-73.5 156,-73.5"/>
<text text-anchor="start" x="164" y="-91.5" font-family="Helvetica,sans-Serif" font-size="10.00">argo::globallock::cohort</text>
<text text-anchor="middle" x="221.5" y="-80.5" font-family="Helvetica,sans-Serif" font-size="10.00">_lock::lock</text>
</a>
</g>
</g>
<!-- Node1&#45;&gt;Node2 -->
<g id="edge1" class="edge">
<title>Node1&#45;&gt;Node2</title>
<path fill="none" stroke="midnightblue" d="M120.39,-88.5C128.73,-88.5 137.39,-88.5 145.97,-88.5"/>
<polygon fill="midnightblue" stroke="midnightblue" points="145.97,-92 155.97,-88.5 145.97,-85 145.97,-92"/>
</g>
<!-- Node3 -->
<g id="node3" class="node">
<title>Node3</title>
<g id="a_node3"><a xlink:href="classargo_1_1globallock_1_1global__tas__lock_ae1a2cc75c9371ed191ac68f4e72f227e.html#ae1a2cc75c9371ed191ac68f4e72f227e" target="_top" xlink:title="take the lock">
<polygon fill="white" stroke="black" points="323,-147.5 323,-177.5 454,-177.5 454,-147.5 323,-147.5"/>
<text text-anchor="start" x="331" y="-165.5" font-family="Helvetica,sans-Serif" font-size="10.00">argo::globallock::global</text>
<text text-anchor="middle" x="388.5" y="-154.5" font-family="Helvetica,sans-Serif" font-size="10.00">_tas_lock::lock</text>
</a>
</g>
</g>
<!-- Node2&#45;&gt;Node3 -->
<g id="edge2" class="edge">
<title>Node2&#45;&gt;Node3</title>
<path fill="none" stroke="midnightblue" d="M250.71,-103.54C270.65,-113.91 298.15,-127.73 323,-138.5 327.06,-140.26 331.29,-142.01 335.56,-143.72"/>
<polygon fill="midnightblue" stroke="midnightblue" points="334.33,-147 344.92,-147.38 336.88,-140.48 334.33,-147"/>
</g>
<!-- Node6 -->
<g id="node6" class="node">
<title>Node6</title>
<g id="a_node6"><a xlink:href="classargo_1_1locallock_1_1mcs__lock_ab9dea14c529f5aa40bd13f4a250f82b8.html#ab9dea14c529f5aa40bd13f4a250f82b8" target="_top" xlink:title="Acquire the MCS lock.">
<polygon fill="white" stroke="black" points="331.5,-98.5 331.5,-128.5 445.5,-128.5 445.5,-98.5 331.5,-98.5"/>
<text text-anchor="start" x="339.5" y="-116.5" font-family="Helvetica,sans-Serif" font-size="10.00">argo::locallock::mcs</text>
<text text-anchor="middle" x="388.5" y="-105.5" font-family="Helvetica,sans-Serif" font-size="10.00">_lock::lock</text>
</a>
</g>
</g>
<!-- Node2&#45;&gt;Node6 -->
<g id="edge5" class="edge">
<title>Node2&#45;&gt;Node6</title>
<path fill="none" stroke="midnightblue" d="M287.24,-98.31C298.37,-100 309.95,-101.75 321.12,-103.44"/>
<polygon fill="midnightblue" stroke="midnightblue" points="320.83,-106.94 331.24,-104.98 321.88,-100.02 320.83,-106.94"/>
</g>
<!-- Node7 -->
<g id="node7" class="node">
<title>Node7</title>
<g id="a_node7"><a xlink:href="classargo_1_1locallock_1_1ticket__lock_a7baa6d6cc449a11a569233d2de7a33bd.html#a7baa6d6cc449a11a569233d2de7a33bd" target="_top" xlink:title="take the lock by fetching your ticket and wait untill out_counter matches your ticket">
<polygon fill="white" stroke="black" points="328,-49.5 328,-79.5 449,-79.5 449,-49.5 328,-49.5"/>
<text text-anchor="start" x="336" y="-67.5" font-family="Helvetica,sans-Serif" font-size="10.00">argo::locallock::ticket</text>
<text text-anchor="middle" x="388.5" y="-56.5" font-family="Helvetica,sans-Serif" font-size="10.00">_lock::lock</text>
</a>
</g>
</g>
<!-- Node2&#45;&gt;Node7 -->
<g id="edge6" class="edge">
<title>Node2&#45;&gt;Node7</title>
<path fill="none" stroke="midnightblue" d="M287.24,-79.08C297.26,-77.63 307.65,-76.11 317.77,-74.64"/>
<polygon fill="midnightblue" stroke="midnightblue" points="318.4,-78.09 327.79,-73.19 317.39,-71.16 318.4,-78.09"/>
</g>
<!-- Node8 -->
<g id="node8" class="node">
<title>Node8</title>
<g id="a_node8"><a xlink:href="classargo_1_1globallock_1_1cohort__lock_a72d2407df0f6b78fceaf17b1a3f6bfce.html#a72d2407df0f6b78fceaf17b1a3f6bfce" target="_top" xlink:title="Return the NUMA node in which the calling thread is being run.">
<polygon fill="white" stroke="black" points="323,-0.5 323,-30.5 454,-30.5 454,-0.5 323,-0.5"/>
<text text-anchor="start" x="331" y="-18.5" font-family="Helvetica,sans-Serif" font-size="10.00">argo::globallock::cohort</text>
<text text-anchor="middle" x="388.5" y="-7.5" font-family="Helvetica,sans-Serif" font-size="10.00">_lock::numa_node</text>
</a>
</g>
</g>
<!-- Node2&#45;&gt;Node8 -->
<g id="edge7" class="edge">
<title>Node2&#45;&gt;Node8</title>
<path fill="none" stroke="midnightblue" d="M252.57,-73.4C272.4,-63.63 299.04,-50.85 323,-40.5 327.77,-38.44 332.77,-36.36 337.79,-34.33"/>
<polygon fill="midnightblue" stroke="midnightblue" points="339.4,-37.45 347.4,-30.5 336.81,-30.95 339.4,-37.45"/>
</g>
<!-- Node4 -->
<g id="node4" class="node">
<title>Node4</title>
<g id="a_node4"><a xlink:href="classargo_1_1globallock_1_1global__tas__lock_a89bbe556d8a271dd64d65b421993da00.html#a89bbe556d8a271dd64d65b421993da00" target="_top" xlink:title="try to lock">
<polygon fill="white" stroke="black" points="490,-147.5 490,-177.5 621,-177.5 621,-147.5 490,-147.5"/>
<text text-anchor="start" x="498" y="-165.5" font-family="Helvetica,sans-Serif" font-size="10.00">argo::globallock::global</text>
<text text-anchor="middle" x="555.5" y="-154.5" font-family="Helvetica,sans-Serif" font-size="10.00">_tas_lock::try_lock</text>
</a>
</g>
</g>
<!-- Node3&#45;&gt;Node4 -->
<g id="edge3" class="edge">
<title>Node3&#45;&gt;Node4</title>
<path fill="none" stroke="midnightblue" d="M454.24,-162.5C462.58,-162.5 471.18,-162.5 479.67,-162.5"/>
<polygon fill="midnightblue" stroke="midnightblue" points="479.95,-166 489.95,-162.5 479.95,-159 479.95,-166"/>
</g>
<!-- Node5 -->
<g id="node5" class="node">
<title>Node5</title>
<g id="a_node5"><a xlink:href="namespaceargo_a188a4648d6e7549bcef4cee36dcb5336.html#a188a4648d6e7549bcef4cee36dcb5336" target="_top" xlink:title="A unique ArgoDSM node identifier. Counting starts from 0.">
<polygon fill="white" stroke="black" points="657,-153 657,-172 740,-172 740,-153 657,-153"/>
<text text-anchor="middle" x="698.5" y="-160" font-family="Helvetica,sans-Serif" font-size="10.00">argo::node_id</text>
</a>
</g>
</g>
<!-- Node4&#45;&gt;Node5 -->
<g id="edge4" class="edge">
<title>Node4&#45;&gt;Node5</title>
<path fill="none" stroke="midnightblue" d="M621.22,-162.5C629.77,-162.5 638.44,-162.5 646.71,-162.5"/>
<polygon fill="midnightblue" stroke="midnightblue" points="646.94,-166 656.94,-162.5 646.94,-159 646.94,-166"/>
</g>
</g>
</svg>
        <g id="navigator" transform="translate(0 0)" fill="#404254">
                <rect fill="#f2f5e9" fill-opacity="0.5" stroke="#606060" stroke-width=".5" x="0" y="0" width="60" height="60"/>
                <use id="zoomplus" xlink:href="#zoomPlus" x="17" y="9" onmousedown="handleZoom(evt,'in')"/>
                <use id="zoomminus" xlink:href="#zoomMin" x="42" y="9" onmousedown="handleZoom(evt,'out')"/>
                <use id="reset" xlink:href="#resetDef" x="30" y="36" onmousedown="handleReset()"/>
                <g id="arrowUp" xlink:href="#dirArrow" transform="translate(30 24)" onmousedown="handlePan(0,-1)">
                  <use xlink:href="#rim" fill="#404040">
                        <set attributeName="fill" to="#808080" begin="arrowUp.mouseover" end="arrowUp.mouseout"/>
                  </use>
                  <path fill="none" stroke="white" stroke-width="1.5" d="M0,-3.0v7 M-2.5,-0.5L0,-3.0L2.5,-0.5"/>
                </g>
                <g id="arrowRight" xlink:href="#dirArrow" transform="rotate(90) translate(36 -43)" onmousedown="handlePan(1,0)">
                  <use xlink:href="#rim" fill="#404040">
                        <set attributeName="fill" to="#808080" begin="arrowRight.mouseover" end="arrowRight.mouseout"/>
                  </use>
                  <path fill="none" stroke="white" stroke-width="1.5" d="M0,-3.0v7 M-2.5,-0.5L0,-3.0L2.5,-0.5"/>
                </g>
                <g id="arrowDown" xlink:href="#dirArrow" transform="rotate(180) translate(-30 -48)" onmousedown="handlePan(0,1)">
                  <use xlink:href="#rim" fill="#404040">
                        <set attributeName="fill" to="#808080" begin="arrowDown.mouseover" end="arrowDown.mouseout"/>
                  </use>
                  <path fill="none" stroke="white" stroke-width="1.5" d="M0,-3.0v7 M-2.5,-0.5L0,-3.0L2.5,-0.5"/>
                </g>
                <g id="arrowLeft" xlink:href="#dirArrow" transform="rotate(270) translate(-36 17)" onmousedown="handlePan(-1,0)">
                  <use xlink:href="#rim" fill="#404040">
                        <set attributeName="fill" to="#808080" begin="arrowLeft.mouseover" end="arrowLeft.mouseout"/>
                  </use>
                  <path fill="none" stroke="white" stroke-width="1.5" d="M0,-3.0v7 M-2.5,-0.5L0,-3.0L2.5,-0.5"/>
                </g>
        </g>
        <svg viewBox="0 0 15 15" width="100%" height="30px" preserveAspectRatio="xMaxYMin meet">
         <g id="arrow_out" transform="scale(0.3 0.3)">
          <a xlink:href="cohort__lock_8cpp_a3518d9666b8fe266f34c7aea2b4a583e_a3518d9666b8fe266f34c7aea2b4a583e_cgraph_org.svg" target="_base">
           <rect id="button" ry="5" rx="5" y="6" x="6" height="38" width="38"
                fill="#f2f5e9" fill-opacity="0.5" stroke="#606060" stroke-width="1.0"/>
           <path id="arrow"
             d="M 11.500037,31.436501 C 11.940474,20.09759 22.043105,11.32322 32.158766,21.979434 L 37.068811,17.246167 C 37.068811,17.246167 37.088388,32 37.088388,32 L 22.160133,31.978069 C 22.160133,31.978069 26.997745,27.140456 26.997745,27.140456 C 18.528582,18.264221 13.291696,25.230495 11.500037,31.436501 z"
             style="fill:#404040;"/>
          </a>
         </g>
        </svg>
</svg>
