<?xml version="1.0" encoding="UTF-8" standalone="no"?>
<!DOCTYPE svg PUBLIC "-//W3C//DTD SVG 1.1//EN"
 "http://www.w3.org/Graphics/SVG/1.1/DTD/svg11.dtd">
<!-- Generated by graphviz version 2.43.0 (0)
 -->
<!-- Title: argo_cohortlock_unlock Pages: 1 -->
<!--zoomable 186 -->
<svg id="main" version="1.1" xmlns="http://www.w3.org/2000/svg" xmlns:xlink="http://www.w3.org/1999/xlink" xml:space="preserve" onload="init(evt)">
<style type="text/css"><![CDATA[
.edge:hover path { stroke: red; }
.edge:hover polygon { stroke: red; fill: red; }
]]></style>
<script type="text/javascript"><![CDATA[
var edges = document.getElementsByTagName('g');
if (edges && edges.length) {
  for (var i=0;i<edges.length;i++) {
    if (edges[i].id.substr(0,4)=='edge') {
      edges[i].setAttribute('class','edge');
    }
  }
}
]]></script>
        <defs>
                <circle id="rim" cx="0" cy="0" r="7"/>
                <circle id="rim2" cx="0" cy="0" r="3.5"/>
                <g id="zoomPlus">
                        <use xlink:href="#rim" fill="#404040">
                                <set attributeName="fill" to="#808080" begin="zoomplus.mouseover" end="zoomplus.mouseout"/>
                        </use>
                        <path d="M-4,0h8M0,-4v8" fill="none" stroke="white" stroke-width="1.5" pointer-events="none"/>
                </g>
                <g id="zoomMin">
                        <use xlink:href="#rim" fill="#404040">
                                <set attributeName="fill" to="#808080" begin="zoomminus.mouseover" end="zoomminus.mouseout"/>
                        </use>
                        <path d="M-4,0h8" fill="none" stroke="white" stroke-width="1.5" pointer-events="none"/>
                </g>
                <g id="dirArrow">
                        <path fill="none" stroke="white" stroke-width="1.5" d="M0,-3.0v7 M-2.5,-0.5L0,-3.0L2.5,-0.5"/>
                </g>
               <g id="resetDef">
                       <use xlink:href="#rim2" fill="#404040">
                               <set attributeName="fill" to="#808080" begin="reset.mouseover" end="reset.mouseout"/>
                       </use>
               </g>
        </defs>

<script type="text/javascript">
var viewWidth = 593;
var viewHeight = 186;
var sectionId = 'dynsection-0';
</script>
<script xlink:href="svgpan.js"/>
<svg id="graph" class="graph">
<g id="viewport">
<title>argo_cohortlock_unlock</title>
<polygon fill="white" stroke="transparent" points="-4,4 -4,-182 589,-182 589,4 -4,4"/>
<!-- Node1 -->
<g id="node1" class="node">
<title>Node1</title>
<g id="a_node1"><a xlink:title="unlock a cohort lock">
<polygon fill="#bfbfbf" stroke="black" points="0,-79 0,-98 132,-98 132,-79 0,-79"/>
<text text-anchor="middle" x="66" y="-86" font-family="Helvetica,sans-Serif" font-size="10.00">argo_cohortlock_unlock</text>
</a>
</g>
</g>
<!-- Node2 -->
<g id="node2" class="node">
<title>Node2</title>
<g id="a_node2"><a xlink:href="classargo_1_1globallock_1_1cohort__lock_ac937f13d00780ca9ff8f4dd826c6c12b.html#ac937f13d00780ca9ff8f4dd826c6c12b" target="_top" xlink:title="Release the lock.">
<polygon fill="white" stroke="black" points="168,-73.5 168,-103.5 299,-103.5 299,-73.5 168,-73.5"/>
<text text-anchor="start" x="176" y="-91.5" font-family="Helvetica,sans-Serif" font-size="10.00">argo::globallock::cohort</text>
<text text-anchor="middle" x="233.5" y="-80.5" font-family="Helvetica,sans-Serif" font-size="10.00">_lock::unlock</text>
</a>
</g>
</g>
<!-- Node1&#45;&gt;Node2 -->
<g id="edge1" class="edge">
<title>Node1&#45;&gt;Node2</title>
<path fill="none" stroke="midnightblue" d="M132.41,-88.5C140.7,-88.5 149.23,-88.5 157.64,-88.5"/>
<polygon fill="midnightblue" stroke="midnightblue" points="157.84,-92 167.84,-88.5 157.84,-85 157.84,-92"/>
</g>
<!-- Node3 -->
<g id="node3" class="node">
<title>Node3</title>
<g id="a_node3"><a xlink:href="classargo_1_1locallock_1_1ticket__lock_a3ba3f8383bdfe989c4f2e4f00636b431.html#a3ba3f8383bdfe989c4f2e4f00636b431" target="_top" xlink:title="Checks if the lock is contended by comparing in vs out counters.">
<polygon fill="white" stroke="black" points="340,-147.5 340,-177.5 461,-177.5 461,-147.5 340,-147.5"/>
<text text-anchor="start" x="348" y="-165.5" font-family="Helvetica,sans-Serif" font-size="10.00">argo::locallock::ticket</text>
<text text-anchor="middle" x="400.5" y="-154.5" font-family="Helvetica,sans-Serif" font-size="10.00">_lock::is_contended</text>
</a>
</g>
</g>
<!-- Node2&#45;&gt;Node3 -->
<g id="edge2" class="edge">
<title>Node2&#45;&gt;Node3</title>
<path fill="none" stroke="midnightblue" d="M262.71,-103.54C282.65,-113.91 310.15,-127.73 335,-138.5 339.06,-140.26 343.29,-142.01 347.56,-143.72"/>
<polygon fill="midnightblue" stroke="midnightblue" points="346.33,-147 356.92,-147.38 348.88,-140.48 346.33,-147"/>
</g>
<!-- Node4 -->
<g id="node4" class="node">
<title>Node4</title>
<g id="a_node4"><a xlink:href="classargo_1_1globallock_1_1global__tas__lock_a55bd610c8555b8d986541c3f669789a2.html#a55bd610c8555b8d986541c3f669789a2" target="_top" xlink:title="release the lock">
<polygon fill="white" stroke="black" points="335,-98.5 335,-128.5 466,-128.5 466,-98.5 335,-98.5"/>
<text text-anchor="start" x="343" y="-116.5" font-family="Helvetica,sans-Serif" font-size="10.00">argo::globallock::global</text>
<text text-anchor="middle" x="400.5" y="-105.5" font-family="Helvetica,sans-Serif" font-size="10.00">_tas_lock::unlock</text>
</a>
</g>
</g>
<!-- Node2&#45;&gt;Node4 -->
<g id="edge3" class="edge">
<title>Node2&#45;&gt;Node4</title>
<path fill="none" stroke="midnightblue" d="M299.24,-98.31C307.67,-99.59 316.37,-100.9 324.95,-102.2"/>
<polygon fill="midnightblue" stroke="midnightblue" points="324.54,-105.68 334.95,-103.72 325.59,-98.76 324.54,-105.68"/>
</g>
<!-- Node6 -->
<g id="node6" class="node">
<title>Node6</title>
<g id="a_node6"><a xlink:href="classargo_1_1locallock_1_1mcs__lock_adf8ad5e4d2ebfbc0bf88b6dd31afe40d.html#adf8ad5e4d2ebfbc0bf88b6dd31afe40d" target="_top" xlink:title="Release the MCS lock.">
<polygon fill="white" stroke="black" points="343.5,-49.5 343.5,-79.5 457.5,-79.5 457.5,-49.5 343.5,-49.5"/>
<text text-anchor="start" x="351.5" y="-67.5" font-family="Helvetica,sans-Serif" font-size="10.00">argo::locallock::mcs</text>
<text text-anchor="middle" x="400.5" y="-56.5" font-family="Helvetica,sans-Serif" font-size="10.00">_lock::unlock</text>
</a>
</g>
</g>
<!-- Node2&#45;&gt;Node6 -->
<g id="edge5" class="edge">
<title>Node2&#45;&gt;Node6</title>
<path fill="none" stroke="midnightblue" d="M299.24,-79.08C310.37,-77.46 321.95,-75.78 333.12,-74.16"/>
<polygon fill="midnightblue" stroke="midnightblue" points="333.85,-77.59 343.24,-72.68 332.84,-70.66 333.85,-77.59"/>
</g>
<!-- Node7 -->
<g id="node7" class="node">
<title>Node7</title>
<g id="a_node7"><a xlink:href="classargo_1_1locallock_1_1ticket__lock_acd35e341f8d1c0919ff9782d685ecd4a.html#acd35e341f8d1c0919ff9782d685ecd4a" target="_top" xlink:title="release the lock">
<polygon fill="white" stroke="black" points="340,-0.5 340,-30.5 461,-30.5 461,-0.5 340,-0.5"/>
<text text-anchor="start" x="348" y="-18.5" font-family="Helvetica,sans-Serif" font-size="10.00">argo::locallock::ticket</text>
<text text-anchor="middle" x="400.5" y="-7.5" font-family="Helvetica,sans-Serif" font-size="10.00">_lock::unlock</text>
</a>
</g>
</g>
<!-- Node2&#45;&gt;Node7 -->
<g id="edge6" class="edge">
<title>Node2&#45;&gt;Node7</title>
<path fill="none" stroke="midnightblue" d="M264.57,-73.4C284.4,-63.63 311.04,-50.85 335,-40.5 339.77,-38.44 344.77,-36.36 349.79,-34.33"/>
<polygon fill="midnightblue" stroke="midnightblue" points="351.4,-37.45 359.4,-30.5 348.81,-30.95 351.4,-37.45"/>
</g>
<!-- Node5 -->
<g id="node5" class="node">
<title>Node5</title>
<g id="a_node5"><a xlink:href="namespaceargo_a188a4648d6e7549bcef4cee36dcb5336.html#a188a4648d6e7549bcef4cee36dcb5336" target="_top" xlink:title="A unique ArgoDSM node identifier. Counting starts from 0.">
<polygon fill="white" stroke="black" points="502,-104 502,-123 585,-123 585,-104 502,-104"/>
<text text-anchor="middle" x="543.5" y="-111" font-family="Helvetica,sans-Serif" font-size="10.00">argo::node_id</text>
</a>
</g>
</g>
<!-- Node4&#45;&gt;Node5 -->
<g id="edge4" class="edge">
<title>Node4&#45;&gt;Node5</title>
<path fill="none" stroke="midnightblue" d="M466.22,-113.5C474.77,-113.5 483.44,-113.5 491.71,-113.5"/>
<polygon fill="midnightblue" stroke="midnightblue" points="491.94,-117 501.94,-113.5 491.94,-110 491.94,-117"/>
</g>
</g>
</svg>
        <g id="navigator" transform="translate(0 0)" fill="#404254">
                <rect fill="#f2f5e9" fill-opacity="0.5" stroke="#606060" stroke-width=".5" x="0" y="0" width="60" height="60"/>
                <use id="zoomplus" xlink:href="#zoomPlus" x="17" y="9" onmousedown="handleZoom(evt,'in')"/>
                <use id="zoomminus" xlink:href="#zoomMin" x="42" y="9" onmousedown="handleZoom(evt,'out')"/>
                <use id="reset" xlink:href="#resetDef" x="30" y="36" onmousedown="handleReset()"/>
                <g id="arrowUp" xlink:href="#dirArrow" transform="translate(30 24)" onmousedown="handlePan(0,-1)">
                  <use xlink:href="#rim" fill="#404040">
                        <set attributeName="fill" to="#808080" begin="arrowUp.mouseover" end="arrowUp.mouseout"/>
                  </use>
                  <path fill="none" stroke="white" stroke-width="1.5" d="M0,-3.0v7 M-2.5,-0.5L0,-3.0L2.5,-0.5"/>
                </g>
                <g id="arrowRight" xlink:href="#dirArrow" transform="rotate(90) translate(36 -43)" onmousedown="handlePan(1,0)">
                  <use xlink:href="#rim" fill="#404040">
                        <set attributeName="fill" to="#808080" begin="arrowRight.mouseover" end="arrowRight.mouseout"/>
                  </use>
                  <path fill="none" stroke="white" stroke-width="1.5" d="M0,-3.0v7 M-2.5,-0.5L0,-3.0L2.5,-0.5"/>
                </g>
                <g id="arrowDown" xlink:href="#dirArrow" transform="rotate(180) translate(-30 -48)" onmousedown="handlePan(0,1)">
                  <use xlink:href="#rim" fill="#404040">
                        <set attributeName="fill" to="#808080" begin="arrowDown.mouseover" end="arrowDown.mouseout"/>
                  </use>
                  <path fill="none" stroke="white" stroke-width="1.5" d="M0,-3.0v7 M-2.5,-0.5L0,-3.0L2.5,-0.5"/>
                </g>
                <g id="arrowLeft" xlink:href="#dirArrow" transform="rotate(270) translate(-36 17)" onmousedown="handlePan(-1,0)">
                  <use xlink:href="#rim" fill="#404040">
                        <set attributeName="fill" to="#808080" begin="arrowLeft.mouseover" end="arrowLeft.mouseout"/>
                  </use>
                  <path fill="none" stroke="white" stroke-width="1.5" d="M0,-3.0v7 M-2.5,-0.5L0,-3.0L2.5,-0.5"/>
                </g>
        </g>
        <svg viewBox="0 0 15 15" width="100%" height="30px" preserveAspectRatio="xMaxYMin meet">
         <g id="arrow_out" transform="scale(0.3 0.3)">
          <a xlink:href="cohort__lock_8h_aecc3694b56dfe7472a345995d7559e89_aecc3694b56dfe7472a345995d7559e89_cgraph_org.svg" target="_base">
           <rect id="button" ry="5" rx="5" y="6" x="6" height="38" width="38"
                fill="#f2f5e9" fill-opacity="0.5" stroke="#606060" stroke-width="1.0"/>
           <path id="arrow"
             d="M 11.500037,31.436501 C 11.940474,20.09759 22.043105,11.32322 32.158766,21.979434 L 37.068811,17.246167 C 37.068811,17.246167 37.088388,32 37.088388,32 L 22.160133,31.978069 C 22.160133,31.978069 26.997745,27.140456 26.997745,27.140456 C 18.528582,18.264221 13.291696,25.230495 11.500037,31.436501 z"
             style="fill:#404040;"/>
          </a>
         </g>
        </svg>
</svg>
