<?xml version="1.0" encoding="UTF-8" standalone="no"?>
<!DOCTYPE svg PUBLIC "-//W3C//DTD SVG 1.1//EN"
 "http://www.w3.org/Graphics/SVG/1.1/DTD/svg11.dtd">
<!-- Generated by graphviz version 2.43.0 (0)
 -->
<!-- Title: /home/projectcs&#45;2022/argodsmBuffer/argodsmPrefetching/src/synchronization/cohort_lock.hpp Pages: 1 -->
<svg width="1751pt" height="732pt"
 viewBox="0.00 0.00 1751.00 732.00" xmlns="http://www.w3.org/2000/svg" xmlns:xlink="http://www.w3.org/1999/xlink">
<g id="graph0" class="graph" transform="scale(1 1) rotate(0) translate(4 728)">
<title>/home/projectcs&#45;2022/argodsmBuffer/argodsmPrefetching/src/synchronization/cohort_lock.hpp</title>
<polygon fill="white" stroke="transparent" points="-4,4 -4,-728 1747,-728 1747,4 -4,4"/>
<!-- Node1 -->
<g id="node1" class="node">
<title>Node1</title>
<g id="a_node1"><a xlink:title="This file provides a cohort lock for the ArgoDSM system.">
<polygon fill="#bfbfbf" stroke="black" points="290.5,-671.5 290.5,-723.5 483.5,-723.5 483.5,-671.5 290.5,-671.5"/>
<text text-anchor="start" x="298.5" y="-711.5" font-family="Helvetica,sans-Serif" font-size="10.00">/home/projectcs&#45;2022</text>
<text text-anchor="start" x="298.5" y="-700.5" font-family="Helvetica,sans-Serif" font-size="10.00">/argodsmBuffer/argodsmPrefetching</text>
<text text-anchor="start" x="298.5" y="-689.5" font-family="Helvetica,sans-Serif" font-size="10.00">/src/synchronization/cohort</text>
<text text-anchor="middle" x="387" y="-678.5" font-family="Helvetica,sans-Serif" font-size="10.00">_lock.hpp</text>
</a>
</g>
</g>
<!-- Node2 -->
<g id="node2" class="node">
<title>Node2</title>
<g id="a_node2"><a xlink:title=" ">
<polygon fill="white" stroke="#bfbfbf" points="0,-610 0,-629 54,-629 54,-610 0,-610"/>
<text text-anchor="middle" x="27" y="-617" font-family="Helvetica,sans-Serif" font-size="10.00">sched.h</text>
</a>
</g>
</g>
<!-- Node1&#45;&gt;Node2 -->
<g id="edge1" class="edge">
<title>Node1&#45;&gt;Node2</title>
<path fill="none" stroke="midnightblue" d="M290.49,-683.24C225.45,-673.07 138.13,-657.03 63,-635 60.57,-634.29 58.07,-633.47 55.59,-632.6"/>
<polygon fill="midnightblue" stroke="midnightblue" points="56.78,-629.3 46.19,-629.03 54.3,-635.85 56.78,-629.3"/>
</g>
<!-- Node3 -->
<g id="node3" class="node">
<title>Node3</title>
<g id="a_node3"><a xlink:title=" ">
<polygon fill="white" stroke="#bfbfbf" points="72,-610 72,-629 128,-629 128,-610 72,-610"/>
<text text-anchor="middle" x="100" y="-617" font-family="Helvetica,sans-Serif" font-size="10.00">unistd.h</text>
</a>
</g>
</g>
<!-- Node1&#45;&gt;Node3 -->
<g id="edge2" class="edge">
<title>Node1&#45;&gt;Node3</title>
<path fill="none" stroke="midnightblue" d="M290.31,-675.86C243.59,-665.09 186.95,-650.86 137,-635 134.73,-634.28 132.39,-633.49 130.05,-632.66"/>
<polygon fill="midnightblue" stroke="midnightblue" points="131.16,-629.34 120.57,-629.12 128.71,-635.89 131.16,-629.34"/>
</g>
<!-- Node4 -->
<g id="node4" class="node">
<title>Node4</title>
<g id="a_node4"><a xlink:href="cohort__lock_8h.html" target="_top" xlink:title="This file provides a C interface for ArgoDSM&#45;based cohort locks.">
<polygon fill="white" stroke="black" points="146,-604.5 146,-634.5 274,-634.5 274,-604.5 146,-604.5"/>
<text text-anchor="start" x="154" y="-622.5" font-family="Helvetica,sans-Serif" font-size="10.00">synchronization/cohort</text>
<text text-anchor="middle" x="210" y="-611.5" font-family="Helvetica,sans-Serif" font-size="10.00">_lock.h</text>
</a>
</g>
</g>
<!-- Node1&#45;&gt;Node4 -->
<g id="edge3" class="edge">
<title>Node1&#45;&gt;Node4</title>
<path fill="none" stroke="midnightblue" d="M328.55,-671.4C303.62,-660.7 275.07,-648.44 252.24,-638.64"/>
<polygon fill="midnightblue" stroke="midnightblue" points="253.4,-635.33 242.83,-634.6 250.64,-641.76 253.4,-635.33"/>
</g>
<!-- Node5 -->
<g id="node5" class="node">
<title>Node5</title>
<g id="a_node5"><a xlink:title=" ">
<polygon fill="white" stroke="#bfbfbf" points="292.5,-610 292.5,-629 339.5,-629 339.5,-610 292.5,-610"/>
<text text-anchor="middle" x="316" y="-617" font-family="Helvetica,sans-Serif" font-size="10.00">vector</text>
</a>
</g>
</g>
<!-- Node1&#45;&gt;Node5 -->
<g id="edge4" class="edge">
<title>Node1&#45;&gt;Node5</title>
<path fill="none" stroke="midnightblue" d="M363.36,-671.19C352.77,-659.86 340.59,-646.82 331.23,-636.81"/>
<polygon fill="midnightblue" stroke="midnightblue" points="333.52,-634.13 324.14,-629.21 328.41,-638.91 333.52,-634.13"/>
</g>
<!-- Node6 -->
<g id="node6" class="node">
<title>Node6</title>
<g id="a_node6"><a xlink:href="collective__allocator_8hpp.html" target="_top" xlink:title="This file provides the collective allocator for ArgoDSM.">
<polygon fill="white" stroke="black" points="1097.5,-604.5 1097.5,-634.5 1212.5,-634.5 1212.5,-604.5 1097.5,-604.5"/>
<text text-anchor="start" x="1105.5" y="-622.5" font-family="Helvetica,sans-Serif" font-size="10.00">allocators/collective</text>
<text text-anchor="middle" x="1155" y="-611.5" font-family="Helvetica,sans-Serif" font-size="10.00">_allocator.hpp</text>
</a>
</g>
</g>
<!-- Node1&#45;&gt;Node6 -->
<g id="edge5" class="edge">
<title>Node1&#45;&gt;Node6</title>
<path fill="none" stroke="midnightblue" d="M483.88,-686.91C641.67,-671.3 950.28,-640.76 1087.01,-627.23"/>
<polygon fill="midnightblue" stroke="midnightblue" points="1087.73,-630.67 1097.34,-626.21 1087.04,-623.71 1087.73,-630.67"/>
</g>
<!-- Node11 -->
<g id="node11" class="node">
<title>Node11</title>
<g id="a_node11"><a xlink:href="backend_8hpp.html" target="_top" xlink:title="This file provides the backend interface.">
<polygon fill="white" stroke="black" points="1130,-347.5 1130,-366.5 1252,-366.5 1252,-347.5 1130,-347.5"/>
<text text-anchor="middle" x="1191" y="-354.5" font-family="Helvetica,sans-Serif" font-size="10.00">backend/backend.hpp</text>
</a>
</g>
</g>
<!-- Node1&#45;&gt;Node11 -->
<g id="edge72" class="edge">
<title>Node1&#45;&gt;Node11</title>
<path fill="none" stroke="midnightblue" d="M483.52,-676.52C508.74,-667.38 534.11,-654.14 553,-635 580.01,-607.64 582,-591.95 582,-553.5 582,-553.5 582,-553.5 582,-484.5 582,-428.87 625.72,-424.57 677,-403 754.92,-370.22 997.36,-361.31 1119.35,-358.9"/>
<polygon fill="midnightblue" stroke="midnightblue" points="1119.78,-362.39 1129.71,-358.7 1119.64,-355.39 1119.78,-362.39"/>
</g>
<!-- Node17 -->
<g id="node17" class="node">
<title>Node17</title>
<g id="a_node17"><a xlink:href="data__distribution_8hpp.html" target="_top" xlink:title="This file provides an abstraction layer for distributing the shared memory space.">
<polygon fill="white" stroke="black" points="586,-224.5 586,-243.5 706,-243.5 706,-224.5 586,-224.5"/>
<text text-anchor="middle" x="646" y="-231.5" font-family="Helvetica,sans-Serif" font-size="10.00">data_distribution.hpp</text>
</a>
</g>
</g>
<!-- Node1&#45;&gt;Node17 -->
<g id="edge73" class="edge">
<title>Node1&#45;&gt;Node17</title>
<path fill="none" stroke="midnightblue" d="M412.28,-671.22C444.95,-636.45 499.89,-570.29 519,-501 522.66,-487.72 526.96,-481.25 519,-470 491.23,-430.76 444.77,-473.24 417,-434 409.04,-422.75 412.8,-416.12 417,-403 444.67,-316.67 550.72,-267.68 608.29,-246.94"/>
<polygon fill="midnightblue" stroke="midnightblue" points="609.49,-250.22 617.77,-243.62 607.17,-243.62 609.49,-250.22"/>
</g>
<!-- Node35 -->
<g id="node35" class="node">
<title>Node35</title>
<g id="a_node35"><a xlink:href="global__tas__lock_8hpp.html" target="_top" xlink:title="This file provides a tas lock for the ArgoDSM system based on the TAS lock made by David Klaftenegger...">
<polygon fill="white" stroke="black" points="426.5,-403.5 426.5,-433.5 553.5,-433.5 553.5,-403.5 426.5,-403.5"/>
<text text-anchor="start" x="434.5" y="-421.5" font-family="Helvetica,sans-Serif" font-size="10.00">synchronization/global</text>
<text text-anchor="middle" x="490" y="-410.5" font-family="Helvetica,sans-Serif" font-size="10.00">_tas_lock.hpp</text>
</a>
</g>
</g>
<!-- Node1&#45;&gt;Node35 -->
<g id="edge74" class="edge">
<title>Node1&#45;&gt;Node35</title>
<path fill="none" stroke="midnightblue" d="M390.67,-671.46C394.49,-639.67 398.48,-583.37 387,-537 379.56,-506.96 350.8,-495.73 368,-470 379.39,-452.96 397.7,-441.67 416.71,-434.18"/>
<polygon fill="midnightblue" stroke="midnightblue" points="418.15,-437.38 426.38,-430.7 415.78,-430.79 418.15,-437.38"/>
</g>
<!-- Node43 -->
<g id="node43" class="node">
<title>Node43</title>
<g id="a_node43"><a xlink:href="mcs__lock_8hpp.html" target="_top" xlink:title="MCS lock for local use.">
<polygon fill="white" stroke="black" points="377.5,-476 377.5,-495 510.5,-495 510.5,-476 377.5,-476"/>
<text text-anchor="middle" x="444" y="-483" font-family="Helvetica,sans-Serif" font-size="10.00">intranode/mcs_lock.hpp</text>
</a>
</g>
</g>
<!-- Node1&#45;&gt;Node43 -->
<g id="edge75" class="edge">
<title>Node1&#45;&gt;Node43</title>
<path fill="none" stroke="midnightblue" d="M402.96,-671.33C409.15,-660.52 415.77,-647.51 420,-635 435.23,-589.99 440.94,-533.96 442.96,-505.3"/>
<polygon fill="midnightblue" stroke="midnightblue" points="446.47,-505.31 443.6,-495.11 439.48,-504.87 446.47,-505.31"/>
</g>
<!-- Node44 -->
<g id="node44" class="node">
<title>Node44</title>
<g id="a_node44"><a xlink:href="ticket__lock_8hpp.html" target="_top" xlink:title="This file provides a (local) ticket lock for intranode locking in the ArgoDSM system.">
<polygon fill="white" stroke="black" points="238,-543 238,-562 378,-562 378,-543 238,-543"/>
<text text-anchor="middle" x="308" y="-550" font-family="Helvetica,sans-Serif" font-size="10.00">intranode/ticket_lock.hpp</text>
</a>
</g>
</g>
<!-- Node1&#45;&gt;Node44 -->
<g id="edge78" class="edge">
<title>Node1&#45;&gt;Node44</title>
<path fill="none" stroke="midnightblue" d="M378.48,-671.28C371.53,-652.16 360.78,-625.6 348,-604 340.85,-591.91 331.09,-579.54 323,-570.06"/>
<polygon fill="midnightblue" stroke="midnightblue" points="325.39,-567.47 316.16,-562.26 320.13,-572.09 325.39,-567.47"/>
</g>
<!-- Node7 -->
<g id="node7" class="node">
<title>Node7</title>
<g id="a_node7"><a xlink:title=" ">
<polygon fill="white" stroke="#bfbfbf" points="967,-409 967,-428 1005,-428 1005,-409 967,-409"/>
<text text-anchor="middle" x="986" y="-416" font-family="Helvetica,sans-Serif" font-size="10.00">map</text>
</a>
</g>
</g>
<!-- Node6&#45;&gt;Node7 -->
<g id="edge6" class="edge">
<title>Node6&#45;&gt;Node7</title>
<path fill="none" stroke="midnightblue" d="M1097.34,-613.89C1030.41,-604.92 924.21,-578.56 885,-501 878.78,-488.7 877.72,-481.7 885,-470 904.1,-439.28 925.71,-450.32 958,-434 958.81,-433.59 959.64,-433.17 960.47,-432.75"/>
<polygon fill="midnightblue" stroke="midnightblue" points="962.15,-435.82 969.45,-428.14 958.95,-429.59 962.15,-435.82"/>
</g>
<!-- Node8 -->
<g id="node8" class="node">
<title>Node8</title>
<g id="a_node8"><a xlink:title=" ">
<polygon fill="white" stroke="#bfbfbf" points="891,-409 891,-428 949,-428 949,-409 891,-409"/>
<text text-anchor="middle" x="920" y="-416" font-family="Helvetica,sans-Serif" font-size="10.00">memory</text>
</a>
</g>
</g>
<!-- Node6&#45;&gt;Node8 -->
<g id="edge7" class="edge">
<title>Node6&#45;&gt;Node8</title>
<path fill="none" stroke="midnightblue" d="M1097.48,-612.33C1034.88,-604.62 939.83,-589.77 911,-568 874.09,-540.13 859.78,-513.31 876,-470 881.1,-456.39 891.71,-444.03 901.23,-434.94"/>
<polygon fill="midnightblue" stroke="midnightblue" points="903.72,-437.41 908.83,-428.13 899.05,-432.2 903.72,-437.41"/>
</g>
<!-- Node9 -->
<g id="node9" class="node">
<title>Node9</title>
<g id="a_node9"><a xlink:title=" ">
<polygon fill="white" stroke="#bfbfbf" points="1290.5,-409 1290.5,-428 1333.5,-428 1333.5,-409 1290.5,-409"/>
<text text-anchor="middle" x="1312" y="-416" font-family="Helvetica,sans-Serif" font-size="10.00">stack</text>
</a>
</g>
</g>
<!-- Node6&#45;&gt;Node9 -->
<g id="edge8" class="edge">
<title>Node6&#45;&gt;Node9</title>
<path fill="none" stroke="midnightblue" d="M1212.69,-612.57C1278.54,-602.36 1383.27,-574.79 1431,-501 1438.48,-489.43 1438.77,-481.38 1431,-470 1406.25,-433.73 1378.86,-452.42 1339,-434 1338.15,-433.61 1337.3,-433.2 1336.44,-432.79"/>
<polygon fill="midnightblue" stroke="midnightblue" points="1337.76,-429.53 1327.26,-428.1 1334.58,-435.77 1337.76,-429.53"/>
</g>
<!-- Node10 -->
<g id="node10" class="node">
<title>Node10</title>
<g id="a_node10"><a xlink:title=" ">
<polygon fill="white" stroke="#bfbfbf" points="894.5,-476 894.5,-495 939.5,-495 939.5,-476 894.5,-476"/>
<text text-anchor="middle" x="917" y="-483" font-family="Helvetica,sans-Serif" font-size="10.00">utility</text>
</a>
</g>
</g>
<!-- Node6&#45;&gt;Node10 -->
<g id="edge9" class="edge">
<title>Node6&#45;&gt;Node10</title>
<path fill="none" stroke="midnightblue" d="M1110.68,-604.47C1085.15,-595.59 1052.9,-582.96 1026,-568 991.15,-548.62 954.89,-519.38 934.21,-501.69"/>
<polygon fill="midnightblue" stroke="midnightblue" points="936.45,-499 926.6,-495.1 931.86,-504.29 936.45,-499"/>
</g>
<!-- Node6&#45;&gt;Node11 -->
<g id="edge10" class="edge">
<title>Node6&#45;&gt;Node11</title>
<path fill="none" stroke="midnightblue" d="M1212.54,-616.7C1317.81,-612.65 1536.88,-600.48 1605,-568 1643.3,-549.74 1656.62,-540.14 1673,-501 1678.32,-488.29 1681.5,-480.85 1673,-470 1653.8,-445.5 1431.33,-409.98 1401,-403 1347.01,-390.57 1284.95,-377.41 1242.37,-368.55"/>
<polygon fill="midnightblue" stroke="midnightblue" points="1243.02,-365.11 1232.52,-366.51 1241.6,-371.97 1243.02,-365.11"/>
</g>
<!-- Node30 -->
<g id="node30" class="node">
<title>Node30</title>
<g id="a_node30"><a xlink:href="dynamic__mempool_8hpp.html" target="_top" xlink:title="This file provides a dynamically growing memory pool for ArgoDSM.">
<polygon fill="white" stroke="black" points="1478,-476 1478,-495 1664,-495 1664,-476 1478,-476"/>
<text text-anchor="middle" x="1571" y="-483" font-family="Helvetica,sans-Serif" font-size="10.00">mempools/dynamic_mempool.hpp</text>
</a>
</g>
</g>
<!-- Node6&#45;&gt;Node30 -->
<g id="edge39" class="edge">
<title>Node6&#45;&gt;Node30</title>
<path fill="none" stroke="midnightblue" d="M1212.86,-615.96C1325.08,-610.43 1563.47,-595.56 1588,-568 1603.57,-550.51 1592.63,-522.52 1582.49,-504.32"/>
<polygon fill="midnightblue" stroke="midnightblue" points="1585.26,-502.13 1577.12,-495.35 1579.25,-505.73 1585.26,-502.13"/>
</g>
<!-- Node32 -->
<g id="node32" class="node">
<title>Node32</title>
<g id="a_node32"><a xlink:href="global__mempool_8hpp.html" target="_top" xlink:title="This file provides a dynamically growing memory pool for ArgoDSM.">
<polygon fill="white" stroke="black" points="626,-476 626,-495 800,-495 800,-476 626,-476"/>
<text text-anchor="middle" x="713" y="-483" font-family="Helvetica,sans-Serif" font-size="10.00">mempools/global_mempool.hpp</text>
</a>
</g>
</g>
<!-- Node6&#45;&gt;Node32 -->
<g id="edge44" class="edge">
<title>Node6&#45;&gt;Node32</title>
<path fill="none" stroke="midnightblue" d="M1097.26,-619.06C1027.34,-617.73 907.32,-608.89 814,-568 778.79,-552.57 745.65,-521.5 727.46,-502.5"/>
<polygon fill="midnightblue" stroke="midnightblue" points="730,-500.09 720.62,-495.17 724.88,-504.87 730,-500.09"/>
</g>
<!-- Node38 -->
<g id="node38" class="node">
<title>Node38</title>
<g id="a_node38"><a xlink:href="dynamic__allocator_8hpp.html" target="_top" xlink:title="This file provides the dynamic allocator for ArgoDSM.">
<polygon fill="white" stroke="black" points="1035.5,-543 1035.5,-562 1162.5,-562 1162.5,-543 1035.5,-543"/>
<text text-anchor="middle" x="1099" y="-550" font-family="Helvetica,sans-Serif" font-size="10.00">dynamic_allocator.hpp</text>
</a>
</g>
</g>
<!-- Node6&#45;&gt;Node38 -->
<g id="edge56" class="edge">
<title>Node6&#45;&gt;Node38</title>
<path fill="none" stroke="midnightblue" d="M1142.85,-604.4C1134.12,-594.26 1122.32,-580.57 1113.16,-569.94"/>
<polygon fill="midnightblue" stroke="midnightblue" points="1115.67,-567.49 1106.49,-562.19 1110.37,-572.06 1115.67,-567.49"/>
</g>
<!-- Node39 -->
<g id="node39" class="node">
<title>Node39</title>
<g id="a_node39"><a xlink:href="generic__allocator_8hpp.html" target="_top" xlink:title="This file provides a generic allocator template for ArgoDSM.">
<polygon fill="white" stroke="black" points="1162.5,-476 1162.5,-495 1283.5,-495 1283.5,-476 1162.5,-476"/>
<text text-anchor="middle" x="1223" y="-483" font-family="Helvetica,sans-Serif" font-size="10.00">generic_allocator.hpp</text>
</a>
</g>
</g>
<!-- Node6&#45;&gt;Node39 -->
<g id="edge69" class="edge">
<title>Node6&#45;&gt;Node39</title>
<path fill="none" stroke="midnightblue" d="M1162.28,-604.37C1174.79,-580.08 1200.36,-530.44 1213.99,-504"/>
<polygon fill="midnightblue" stroke="midnightblue" points="1217.1,-505.59 1218.57,-495.1 1210.88,-502.38 1217.1,-505.59"/>
</g>
<!-- Node40 -->
<g id="node40" class="node">
<title>Node40</title>
<g id="a_node40"><a xlink:href="null__lock_8hpp.html" target="_top" xlink:title="dummy lock, not intended for public use">
<polygon fill="white" stroke="black" points="1340.5,-476 1340.5,-495 1421.5,-495 1421.5,-476 1340.5,-476"/>
<text text-anchor="middle" x="1381" y="-483" font-family="Helvetica,sans-Serif" font-size="10.00">null_lock.hpp</text>
</a>
</g>
</g>
<!-- Node6&#45;&gt;Node40 -->
<g id="edge70" class="edge">
<title>Node6&#45;&gt;Node40</title>
<path fill="none" stroke="midnightblue" d="M1179.19,-604.37C1222.89,-578.85 1314.49,-525.35 1357.61,-500.16"/>
<polygon fill="midnightblue" stroke="midnightblue" points="1359.41,-503.16 1366.28,-495.1 1355.88,-497.12 1359.41,-503.16"/>
</g>
<!-- Node42 -->
<g id="node42" class="node">
<title>Node42</title>
<g id="a_node42"><a xlink:href="collective__allocator_8h.html" target="_top" xlink:title="This file provides the collective allocator for ArgoDSM.">
<polygon fill="white" stroke="black" points="1463.5,-537.5 1463.5,-567.5 1578.5,-567.5 1578.5,-537.5 1463.5,-537.5"/>
<text text-anchor="start" x="1471.5" y="-555.5" font-family="Helvetica,sans-Serif" font-size="10.00">allocators/collective</text>
<text text-anchor="middle" x="1521" y="-544.5" font-family="Helvetica,sans-Serif" font-size="10.00">_allocator.h</text>
</a>
</g>
</g>
<!-- Node6&#45;&gt;Node42 -->
<g id="edge71" class="edge">
<title>Node6&#45;&gt;Node42</title>
<path fill="none" stroke="midnightblue" d="M1212.55,-609.12C1271.88,-599.32 1367.03,-583.29 1449,-568 1450.45,-567.73 1451.91,-567.45 1453.39,-567.17"/>
<polygon fill="midnightblue" stroke="midnightblue" points="1454.1,-570.6 1463.26,-565.28 1452.78,-563.73 1454.1,-570.6"/>
</g>
<!-- Node12 -->
<g id="node12" class="node">
<title>Node12</title>
<g id="a_node12"><a xlink:title=" ">
<polygon fill="white" stroke="#bfbfbf" points="1158,-286 1158,-305 1210,-305 1210,-286 1158,-286"/>
<text text-anchor="middle" x="1184" y="-293" font-family="Helvetica,sans-Serif" font-size="10.00">cassert</text>
</a>
</g>
</g>
<!-- Node11&#45;&gt;Node12 -->
<g id="edge11" class="edge">
<title>Node11&#45;&gt;Node12</title>
<path fill="none" stroke="midnightblue" d="M1190,-347.48C1189.01,-339.08 1187.47,-325.98 1186.2,-315.16"/>
<polygon fill="midnightblue" stroke="midnightblue" points="1189.65,-314.53 1185,-305.01 1182.69,-315.35 1189.65,-314.53"/>
</g>
<!-- Node13 -->
<g id="node13" class="node">
<title>Node13</title>
<g id="a_node13"><a xlink:title=" ">
<polygon fill="white" stroke="#bfbfbf" points="1228,-286 1228,-305 1278,-305 1278,-286 1228,-286"/>
<text text-anchor="middle" x="1253" y="-293" font-family="Helvetica,sans-Serif" font-size="10.00">cstdint</text>
</a>
</g>
</g>
<!-- Node11&#45;&gt;Node13 -->
<g id="edge12" class="edge">
<title>Node11&#45;&gt;Node13</title>
<path fill="none" stroke="midnightblue" d="M1199.88,-347.48C1209.46,-338.28 1224.91,-323.46 1236.69,-312.16"/>
<polygon fill="midnightblue" stroke="midnightblue" points="1239.34,-314.46 1244.13,-305.01 1234.49,-309.41 1239.34,-314.46"/>
</g>
<!-- Node14 -->
<g id="node14" class="node">
<title>Node14</title>
<g id="a_node14"><a xlink:title=" ">
<polygon fill="white" stroke="#bfbfbf" points="1074.5,-286 1074.5,-305 1139.5,-305 1139.5,-286 1074.5,-286"/>
<text text-anchor="middle" x="1107" y="-293" font-family="Helvetica,sans-Serif" font-size="10.00">stdexcept</text>
</a>
</g>
</g>
<!-- Node11&#45;&gt;Node14 -->
<g id="edge13" class="edge">
<title>Node11&#45;&gt;Node14</title>
<path fill="none" stroke="midnightblue" d="M1178.96,-347.48C1165.49,-337.93 1143.43,-322.31 1127.28,-310.87"/>
<polygon fill="midnightblue" stroke="midnightblue" points="1129.2,-307.93 1119.01,-305.01 1125.15,-313.65 1129.2,-307.93"/>
</g>
<!-- Node15 -->
<g id="node15" class="node">
<title>Node15</title>
<g id="a_node15"><a xlink:href="global__ptr_8hpp.html" target="_top" xlink:title="This file provides the global pointer for ArgoDSM.">
<polygon fill="white" stroke="black" points="732,-280.5 732,-310.5 864,-310.5 864,-280.5 732,-280.5"/>
<text text-anchor="start" x="740" y="-298.5" font-family="Helvetica,sans-Serif" font-size="10.00">data_distribution/global</text>
<text text-anchor="middle" x="798" y="-287.5" font-family="Helvetica,sans-Serif" font-size="10.00">_ptr.hpp</text>
</a>
</g>
</g>
<!-- Node11&#45;&gt;Node15 -->
<g id="edge14" class="edge">
<title>Node11&#45;&gt;Node15</title>
<path fill="none" stroke="midnightblue" d="M1134.69,-347.48C1066.24,-337.11 950.43,-319.58 874.08,-308.02"/>
<polygon fill="midnightblue" stroke="midnightblue" points="874.46,-304.54 864.05,-306.5 873.41,-311.46 874.46,-304.54"/>
</g>
<!-- Node23 -->
<g id="node23" class="node">
<title>Node23</title>
<g id="a_node23"><a xlink:href="types_8hpp.html" target="_top" xlink:title="This file defines common types used in ArgoDSM.">
<polygon fill="white" stroke="black" points="1258.5,-56.5 1258.5,-75.5 1353.5,-75.5 1353.5,-56.5 1258.5,-56.5"/>
<text text-anchor="middle" x="1306" y="-63.5" font-family="Helvetica,sans-Serif" font-size="10.00">types/types.hpp</text>
</a>
</g>
</g>
<!-- Node11&#45;&gt;Node23 -->
<g id="edge38" class="edge">
<title>Node11&#45;&gt;Node23</title>
<path fill="none" stroke="midnightblue" d="M1226.82,-347.45C1247.27,-340.79 1271.79,-329.47 1287,-311 1309.13,-284.12 1306,-269.82 1306,-235 1306,-235 1306,-235 1306,-177 1306,-144.95 1306,-107.64 1306,-85.75"/>
<polygon fill="midnightblue" stroke="midnightblue" points="1309.5,-85.56 1306,-75.56 1302.5,-85.56 1309.5,-85.56"/>
</g>
<!-- Node16 -->
<g id="node16" class="node">
<title>Node16</title>
<g id="a_node16"><a xlink:title=" ">
<polygon fill="white" stroke="#bfbfbf" points="869,-56.5 869,-75.5 913,-75.5 913,-56.5 869,-56.5"/>
<text text-anchor="middle" x="891" y="-63.5" font-family="Helvetica,sans-Serif" font-size="10.00">string</text>
</a>
</g>
</g>
<!-- Node15&#45;&gt;Node16 -->
<g id="edge15" class="edge">
<title>Node15&#45;&gt;Node16</title>
<path fill="none" stroke="midnightblue" d="M846.81,-280.38C889.41,-265.17 948.56,-236.4 976,-188 992.66,-158.62 993.42,-140.94 976,-112 964.49,-92.88 941.81,-81.45 922.78,-74.9"/>
<polygon fill="midnightblue" stroke="midnightblue" points="923.83,-71.56 913.24,-71.91 921.73,-78.24 923.83,-71.56"/>
</g>
<!-- Node15&#45;&gt;Node17 -->
<g id="edge16" class="edge">
<title>Node15&#45;&gt;Node17</title>
<path fill="none" stroke="midnightblue" d="M761.98,-280.4C736.36,-270.37 702.27,-257.03 677.69,-247.4"/>
<polygon fill="midnightblue" stroke="midnightblue" points="678.71,-244.04 668.12,-243.66 676.15,-250.56 678.71,-244.04"/>
</g>
<!-- Node21 -->
<g id="node21" class="node">
<title>Node21</title>
<g id="a_node21"><a xlink:href="env_8hpp.html" target="_top" xlink:title="This file provides facilities for handling environment variables.">
<polygon fill="white" stroke="black" points="1033,-56.5 1033,-75.5 1109,-75.5 1109,-56.5 1033,-56.5"/>
<text text-anchor="middle" x="1071" y="-63.5" font-family="Helvetica,sans-Serif" font-size="10.00">env/env.hpp</text>
</a>
</g>
</g>
<!-- Node15&#45;&gt;Node21 -->
<g id="edge37" class="edge">
<title>Node15&#45;&gt;Node21</title>
<path fill="none" stroke="midnightblue" d="M860.31,-280.47C888.43,-272.43 921.26,-260.58 948,-244 1006.77,-207.56 1023.6,-193.09 1056,-132 1063.63,-117.61 1067.4,-99.42 1069.26,-85.94"/>
<polygon fill="midnightblue" stroke="midnightblue" points="1072.74,-86.25 1070.4,-75.92 1065.79,-85.45 1072.74,-86.25"/>
</g>
<!-- Node18 -->
<g id="node18" class="node">
<title>Node18</title>
<g id="a_node18"><a xlink:href="base__distribution_8hpp.html" target="_top" xlink:title="This file implements the base distribution class for all the policies to derive from.">
<polygon fill="white" stroke="black" points="631,-112.5 631,-131.5 753,-131.5 753,-112.5 631,-112.5"/>
<text text-anchor="middle" x="692" y="-119.5" font-family="Helvetica,sans-Serif" font-size="10.00">base_distribution.hpp</text>
</a>
</g>
</g>
<!-- Node17&#45;&gt;Node18 -->
<g id="edge17" class="edge">
<title>Node17&#45;&gt;Node18</title>
<path fill="none" stroke="midnightblue" d="M647.79,-224.34C650.57,-211.65 656.52,-187.39 665,-168 669.2,-158.4 675.07,-148.35 680.27,-140.18"/>
<polygon fill="midnightblue" stroke="midnightblue" points="683.34,-141.88 685.92,-131.6 677.5,-138.03 683.34,-141.88"/>
</g>
<!-- Node17&#45;&gt;Node21 -->
<g id="edge36" class="edge">
<title>Node17&#45;&gt;Node21</title>
<path fill="none" stroke="midnightblue" d="M706.11,-230.18C788.45,-225.41 931.22,-213.66 976,-188 1018.53,-163.63 1048.91,-112 1062.7,-84.73"/>
<polygon fill="midnightblue" stroke="midnightblue" points="1065.93,-86.1 1067.16,-75.58 1059.63,-83.03 1065.93,-86.1"/>
</g>
<!-- Node24 -->
<g id="node24" class="node">
<title>Node24</title>
<g id="a_node24"><a xlink:href="cyclic__distribution_8hpp.html" target="_top" xlink:title="This file implements the cyclic data distribution.">
<polygon fill="white" stroke="black" points="674,-168.5 674,-187.5 800,-187.5 800,-168.5 674,-168.5"/>
<text text-anchor="middle" x="737" y="-175.5" font-family="Helvetica,sans-Serif" font-size="10.00">cyclic_distribution.hpp</text>
</a>
</g>
</g>
<!-- Node17&#45;&gt;Node24 -->
<g id="edge24" class="edge">
<title>Node17&#45;&gt;Node24</title>
<path fill="none" stroke="midnightblue" d="M660.62,-224.32C674.95,-215.82 697.01,-202.73 713.75,-192.8"/>
<polygon fill="midnightblue" stroke="midnightblue" points="715.6,-195.77 722.42,-187.65 712.03,-189.75 715.6,-195.77"/>
</g>
<!-- Node25 -->
<g id="node25" class="node">
<title>Node25</title>
<g id="a_node25"><a xlink:href="first__touch__distribution_8hpp.html" target="_top" xlink:title="This file implements the first&#45;touch data distribution.">
<polygon fill="white" stroke="black" points="818.5,-168.5 818.5,-187.5 967.5,-187.5 967.5,-168.5 818.5,-168.5"/>
<text text-anchor="middle" x="893" y="-175.5" font-family="Helvetica,sans-Serif" font-size="10.00">first_touch_distribution.hpp</text>
</a>
</g>
</g>
<!-- Node17&#45;&gt;Node25 -->
<g id="edge26" class="edge">
<title>Node17&#45;&gt;Node25</title>
<path fill="none" stroke="midnightblue" d="M685.14,-224.44C728.23,-215.02 797.56,-199.87 844.17,-189.68"/>
<polygon fill="midnightblue" stroke="midnightblue" points="845.02,-193.07 854.05,-187.52 843.53,-186.23 845.02,-193.07"/>
</g>
<!-- Node27 -->
<g id="node27" class="node">
<title>Node27</title>
<g id="a_node27"><a xlink:href="naive__distribution_8hpp.html" target="_top" xlink:title="This file implements the naive data distribution.">
<polygon fill="white" stroke="black" points="140.5,-168.5 140.5,-187.5 265.5,-187.5 265.5,-168.5 140.5,-168.5"/>
<text text-anchor="middle" x="203" y="-175.5" font-family="Helvetica,sans-Serif" font-size="10.00">naive_distribution.hpp</text>
</a>
</g>
</g>
<!-- Node17&#45;&gt;Node27 -->
<g id="edge30" class="edge">
<title>Node17&#45;&gt;Node27</title>
<path fill="none" stroke="midnightblue" d="M585.91,-225.78C514.61,-217.2 391.83,-202.37 275.94,-188.11"/>
<polygon fill="midnightblue" stroke="midnightblue" points="276.18,-184.62 265.83,-186.87 275.32,-191.56 276.18,-184.62"/>
</g>
<!-- Node28 -->
<g id="node28" class="node">
<title>Node28</title>
<g id="a_node28"><a xlink:href="prime__mapp__distribution_8hpp.html" target="_top" xlink:title="This file implements the prime&#45;mapp data distribution.">
<polygon fill="white" stroke="black" points="284,-168.5 284,-187.5 444,-187.5 444,-168.5 284,-168.5"/>
<text text-anchor="middle" x="364" y="-175.5" font-family="Helvetica,sans-Serif" font-size="10.00">prime_mapp_distribution.hpp</text>
</a>
</g>
</g>
<!-- Node17&#45;&gt;Node28 -->
<g id="edge32" class="edge">
<title>Node17&#45;&gt;Node28</title>
<path fill="none" stroke="midnightblue" d="M601.32,-224.44C551.71,-214.94 471.64,-199.61 418.41,-189.42"/>
<polygon fill="midnightblue" stroke="midnightblue" points="418.95,-185.96 408.47,-187.52 417.64,-192.83 418.95,-185.96"/>
</g>
<!-- Node29 -->
<g id="node29" class="node">
<title>Node29</title>
<g id="a_node29"><a xlink:href="skew__mapp__distribution_8hpp.html" target="_top" xlink:title="This file implements the skew&#45;mapp data distribution.">
<polygon fill="white" stroke="black" points="462,-168.5 462,-187.5 618,-187.5 618,-168.5 462,-168.5"/>
<text text-anchor="middle" x="540" y="-175.5" font-family="Helvetica,sans-Serif" font-size="10.00">skew_mapp_distribution.hpp</text>
</a>
</g>
</g>
<!-- Node17&#45;&gt;Node29 -->
<g id="edge34" class="edge">
<title>Node17&#45;&gt;Node29</title>
<path fill="none" stroke="midnightblue" d="M628.97,-224.32C611.97,-215.66 585.62,-202.24 566.01,-192.25"/>
<polygon fill="midnightblue" stroke="midnightblue" points="567.49,-189.08 556.99,-187.65 564.31,-195.31 567.49,-189.08"/>
</g>
<!-- Node18&#45;&gt;Node16 -->
<g id="edge20" class="edge">
<title>Node18&#45;&gt;Node16</title>
<path fill="none" stroke="midnightblue" d="M723.53,-112.44C760.6,-102.39 821.77,-85.79 859.02,-75.68"/>
<polygon fill="midnightblue" stroke="midnightblue" points="860.12,-79.01 868.86,-73.01 858.29,-72.25 860.12,-79.01"/>
</g>
<!-- Node19 -->
<g id="node19" class="node">
<title>Node19</title>
<g id="a_node19"><a xlink:title=" ">
<polygon fill="white" stroke="#bfbfbf" points="667.5,-56.5 667.5,-75.5 716.5,-75.5 716.5,-56.5 667.5,-56.5"/>
<text text-anchor="middle" x="692" y="-63.5" font-family="Helvetica,sans-Serif" font-size="10.00">cstdlib</text>
</a>
</g>
</g>
<!-- Node18&#45;&gt;Node19 -->
<g id="edge18" class="edge">
<title>Node18&#45;&gt;Node19</title>
<path fill="none" stroke="midnightblue" d="M692,-112.08C692,-105.01 692,-94.86 692,-85.99"/>
<polygon fill="midnightblue" stroke="midnightblue" points="695.5,-85.75 692,-75.75 688.5,-85.75 695.5,-85.75"/>
</g>
<!-- Node20 -->
<g id="node20" class="node">
<title>Node20</title>
<g id="a_node20"><a xlink:title=" ">
<polygon fill="white" stroke="#bfbfbf" points="313,-56.5 313,-75.5 373,-75.5 373,-56.5 313,-56.5"/>
<text text-anchor="middle" x="343" y="-63.5" font-family="Helvetica,sans-Serif" font-size="10.00">iostream</text>
</a>
</g>
</g>
<!-- Node18&#45;&gt;Node20 -->
<g id="edge19" class="edge">
<title>Node18&#45;&gt;Node20</title>
<path fill="none" stroke="midnightblue" d="M636.7,-112.44C566.2,-101.54 445.99,-82.93 383.46,-73.26"/>
<polygon fill="midnightblue" stroke="midnightblue" points="383.63,-69.75 373.21,-71.67 382.56,-76.66 383.63,-69.75"/>
</g>
<!-- Node18&#45;&gt;Node21 -->
<g id="edge21" class="edge">
<title>Node18&#45;&gt;Node21</title>
<path fill="none" stroke="midnightblue" d="M752.05,-112.44C827,-101.77 953.69,-83.71 1022.69,-73.88"/>
<polygon fill="midnightblue" stroke="midnightblue" points="1023.44,-77.31 1032.85,-72.44 1022.45,-70.38 1023.44,-77.31"/>
</g>
<!-- Node18&#45;&gt;Node23 -->
<g id="edge23" class="edge">
<title>Node18&#45;&gt;Node23</title>
<path fill="none" stroke="midnightblue" d="M753.12,-115.62C871.78,-105.19 1131.87,-82.31 1248,-72.1"/>
<polygon fill="midnightblue" stroke="midnightblue" points="1248.46,-75.57 1258.12,-71.21 1247.85,-68.6 1248.46,-75.57"/>
</g>
<!-- Node22 -->
<g id="node22" class="node">
<title>Node22</title>
<g id="a_node22"><a xlink:title=" ">
<polygon fill="white" stroke="#bfbfbf" points="1044.5,-0.5 1044.5,-19.5 1097.5,-19.5 1097.5,-0.5 1044.5,-0.5"/>
<text text-anchor="middle" x="1071" y="-7.5" font-family="Helvetica,sans-Serif" font-size="10.00">cstddef</text>
</a>
</g>
</g>
<!-- Node21&#45;&gt;Node22 -->
<g id="edge22" class="edge">
<title>Node21&#45;&gt;Node22</title>
<path fill="none" stroke="midnightblue" d="M1071,-56.08C1071,-49.01 1071,-38.86 1071,-29.99"/>
<polygon fill="midnightblue" stroke="midnightblue" points="1074.5,-29.75 1071,-19.75 1067.5,-29.75 1074.5,-29.75"/>
</g>
<!-- Node24&#45;&gt;Node18 -->
<g id="edge25" class="edge">
<title>Node24&#45;&gt;Node18</title>
<path fill="none" stroke="midnightblue" d="M729.57,-168.08C723.15,-160.38 713.69,-149.03 705.88,-139.65"/>
<polygon fill="midnightblue" stroke="midnightblue" points="708.38,-137.19 699.29,-131.75 703.01,-141.67 708.38,-137.19"/>
</g>
<!-- Node25&#45;&gt;Node16 -->
<g id="edge28" class="edge">
<title>Node25&#45;&gt;Node16</title>
<path fill="none" stroke="midnightblue" d="M892.84,-168.37C892.52,-150.62 891.78,-109.67 891.34,-85.6"/>
<polygon fill="midnightblue" stroke="midnightblue" points="894.84,-85.53 891.16,-75.59 887.84,-85.65 894.84,-85.53"/>
</g>
<!-- Node25&#45;&gt;Node18 -->
<g id="edge29" class="edge">
<title>Node25&#45;&gt;Node18</title>
<path fill="none" stroke="midnightblue" d="M861.15,-168.44C826.6,-159.16 771.32,-144.31 733.42,-134.13"/>
<polygon fill="midnightblue" stroke="midnightblue" points="734.27,-130.73 723.7,-131.52 732.45,-137.49 734.27,-130.73"/>
</g>
<!-- Node26 -->
<g id="node26" class="node">
<title>Node26</title>
<g id="a_node26"><a xlink:title=" ">
<polygon fill="white" stroke="#bfbfbf" points="919,-112.5 919,-131.5 967,-131.5 967,-112.5 919,-112.5"/>
<text text-anchor="middle" x="943" y="-119.5" font-family="Helvetica,sans-Serif" font-size="10.00">mutex</text>
</a>
</g>
</g>
<!-- Node25&#45;&gt;Node26 -->
<g id="edge27" class="edge">
<title>Node25&#45;&gt;Node26</title>
<path fill="none" stroke="midnightblue" d="M901.26,-168.08C908.46,-160.3 919.11,-148.8 927.85,-139.37"/>
<polygon fill="midnightblue" stroke="midnightblue" points="930.67,-141.47 934.9,-131.75 925.53,-136.71 930.67,-141.47"/>
</g>
<!-- Node27&#45;&gt;Node18 -->
<g id="edge31" class="edge">
<title>Node27&#45;&gt;Node18</title>
<path fill="none" stroke="midnightblue" d="M265.82,-169.08C268.92,-168.71 272,-168.35 275,-168 396.33,-153.87 537.71,-138.94 620.76,-130.32"/>
<polygon fill="midnightblue" stroke="midnightblue" points="621.26,-133.79 630.84,-129.27 620.54,-126.82 621.26,-133.79"/>
</g>
<!-- Node28&#45;&gt;Node18 -->
<g id="edge33" class="edge">
<title>Node28&#45;&gt;Node18</title>
<path fill="none" stroke="midnightblue" d="M415.97,-168.44C474.15,-158.87 568.36,-143.36 630.25,-133.17"/>
<polygon fill="midnightblue" stroke="midnightblue" points="630.97,-136.59 640.27,-131.52 629.83,-129.69 630.97,-136.59"/>
</g>
<!-- Node29&#45;&gt;Node18 -->
<g id="edge35" class="edge">
<title>Node29&#45;&gt;Node18</title>
<path fill="none" stroke="midnightblue" d="M564.08,-168.44C589.54,-159.4 629.89,-145.06 658.46,-134.92"/>
<polygon fill="midnightblue" stroke="midnightblue" points="659.78,-138.16 668.03,-131.52 657.43,-131.57 659.78,-138.16"/>
</g>
<!-- Node30&#45;&gt;Node11 -->
<g id="edge40" class="edge">
<title>Node30&#45;&gt;Node11</title>
<path fill="none" stroke="midnightblue" d="M1548.49,-475.98C1507.74,-460.67 1418.92,-427.79 1343,-403 1305.51,-390.76 1262.36,-378.12 1231.64,-369.37"/>
<polygon fill="midnightblue" stroke="midnightblue" points="1232.3,-365.92 1221.72,-366.55 1230.39,-372.65 1232.3,-365.92"/>
</g>
<!-- Node31 -->
<g id="node31" class="node">
<title>Node31</title>
<g id="a_node31"><a xlink:href="broadcast_8hpp.html" target="_top" xlink:title="This file provides a broadcasting facility for a single value.">
<polygon fill="white" stroke="black" points="1577,-409 1577,-428 1743,-428 1743,-409 1577,-409"/>
<text text-anchor="middle" x="1660" y="-416" font-family="Helvetica,sans-Serif" font-size="10.00">synchronization/broadcast.hpp</text>
</a>
</g>
</g>
<!-- Node30&#45;&gt;Node31 -->
<g id="edge41" class="edge">
<title>Node30&#45;&gt;Node31</title>
<path fill="none" stroke="midnightblue" d="M1583,-475.73C1597.55,-465.11 1622.28,-447.05 1639.78,-434.26"/>
<polygon fill="midnightblue" stroke="midnightblue" points="1642.18,-436.85 1648.19,-428.13 1638.05,-431.2 1642.18,-436.85"/>
</g>
<!-- Node31&#45;&gt;Node11 -->
<g id="edge42" class="edge">
<title>Node31&#45;&gt;Node11</title>
<path fill="none" stroke="midnightblue" d="M1604.89,-408.99C1591.22,-406.95 1576.58,-404.84 1563,-403 1458.64,-388.89 1337.51,-374.63 1262.55,-366.05"/>
<polygon fill="midnightblue" stroke="midnightblue" points="1262.62,-362.54 1252.29,-364.88 1261.82,-369.49 1262.62,-362.54"/>
</g>
<!-- Node31&#45;&gt;Node23 -->
<g id="edge43" class="edge">
<title>Node31&#45;&gt;Node23</title>
<path fill="none" stroke="midnightblue" d="M1609.53,-408.96C1551.45,-395.9 1464,-364.88 1464,-296.5 1464,-296.5 1464,-296.5 1464,-177 1464,-122.39 1399.65,-92.68 1353.08,-78.33"/>
<polygon fill="midnightblue" stroke="midnightblue" points="1354.02,-74.96 1343.44,-75.5 1352.05,-81.68 1354.02,-74.96"/>
</g>
<!-- Node32&#45;&gt;Node8 -->
<g id="edge48" class="edge">
<title>Node32&#45;&gt;Node8</title>
<path fill="none" stroke="midnightblue" d="M741.51,-475.97C774.29,-466.11 829.65,-449.27 877,-434 879.74,-433.12 882.58,-432.19 885.42,-431.25"/>
<polygon fill="midnightblue" stroke="midnightblue" points="886.65,-434.53 895.03,-428.05 884.43,-427.89 886.65,-434.53"/>
</g>
<!-- Node32&#45;&gt;Node11 -->
<g id="edge49" class="edge">
<title>Node32&#45;&gt;Node11</title>
<path fill="none" stroke="midnightblue" d="M742.28,-475.93C769.4,-467.35 810.35,-452.74 843,-434 862.2,-422.98 861.68,-411.79 882,-403 958.75,-369.81 1055.19,-360.28 1119.73,-357.95"/>
<polygon fill="midnightblue" stroke="midnightblue" points="1119.92,-361.44 1129.81,-357.63 1119.71,-354.45 1119.92,-361.44"/>
</g>
<!-- Node32&#45;&gt;Node15 -->
<g id="edge50" class="edge">
<title>Node32&#45;&gt;Node15</title>
<path fill="none" stroke="midnightblue" d="M704.19,-475.91C690.05,-461.03 665.02,-429.5 677,-403 694.5,-364.29 733.79,-334.04 762.87,-315.83"/>
<polygon fill="midnightblue" stroke="midnightblue" points="764.81,-318.75 771.54,-310.57 761.17,-312.77 764.81,-318.75"/>
</g>
<!-- Node32&#45;&gt;Node20 -->
<g id="edge47" class="edge">
<title>Node32&#45;&gt;Node20</title>
<path fill="none" stroke="midnightblue" d="M702.89,-475.81C675.45,-452.54 596.73,-387.84 523,-347 358.54,-255.89 236.03,-343.94 131,-188 85.31,-120.16 229.02,-85.83 302.51,-73.05"/>
<polygon fill="midnightblue" stroke="midnightblue" points="303.53,-76.43 312.81,-71.32 302.37,-69.52 303.53,-76.43"/>
</g>
<!-- Node33 -->
<g id="node33" class="node">
<title>Node33</title>
<g id="a_node33"><a xlink:title=" ">
<polygon fill="white" stroke="#bfbfbf" points="686.5,-409 686.5,-428 739.5,-428 739.5,-409 686.5,-409"/>
<text text-anchor="middle" x="713" y="-416" font-family="Helvetica,sans-Serif" font-size="10.00">stdlib.h</text>
</a>
</g>
</g>
<!-- Node32&#45;&gt;Node33 -->
<g id="edge45" class="edge">
<title>Node32&#45;&gt;Node33</title>
<path fill="none" stroke="midnightblue" d="M713,-475.73C713,-466.18 713,-450.62 713,-438.28"/>
<polygon fill="midnightblue" stroke="midnightblue" points="716.5,-438.13 713,-428.13 709.5,-438.13 716.5,-438.13"/>
</g>
<!-- Node34 -->
<g id="node34" class="node">
<title>Node34</title>
<g id="a_node34"><a xlink:title=" ">
<polygon fill="white" stroke="#bfbfbf" points="757.5,-409 757.5,-428 834.5,-428 834.5,-409 757.5,-409"/>
<text text-anchor="middle" x="796" y="-416" font-family="Helvetica,sans-Serif" font-size="10.00">sys/mman.h</text>
</a>
</g>
</g>
<!-- Node32&#45;&gt;Node34 -->
<g id="edge46" class="edge">
<title>Node32&#45;&gt;Node34</title>
<path fill="none" stroke="midnightblue" d="M724.19,-475.73C737.63,-465.21 760.4,-447.38 776.7,-434.62"/>
<polygon fill="midnightblue" stroke="midnightblue" points="779.27,-437.05 784.98,-428.13 774.95,-431.54 779.27,-437.05"/>
</g>
<!-- Node32&#45;&gt;Node35 -->
<g id="edge51" class="edge">
<title>Node32&#45;&gt;Node35</title>
<path fill="none" stroke="midnightblue" d="M683.39,-475.87C648.98,-465.84 591.4,-449.06 547.99,-436.4"/>
<polygon fill="midnightblue" stroke="midnightblue" points="548.71,-432.97 538.13,-433.53 546.75,-439.69 548.71,-432.97"/>
</g>
<!-- Node35&#45;&gt;Node11 -->
<g id="edge54" class="edge">
<title>Node35&#45;&gt;Node11</title>
<path fill="none" stroke="midnightblue" d="M553.76,-405.05C558.57,-404.29 563.36,-403.6 568,-403 766.89,-377.41 1003.51,-365.31 1119.58,-360.56"/>
<polygon fill="midnightblue" stroke="midnightblue" points="1119.91,-364.05 1129.76,-360.15 1119.62,-357.06 1119.91,-364.05"/>
</g>
<!-- Node35&#45;&gt;Node15 -->
<g id="edge55" class="edge">
<title>Node35&#45;&gt;Node15</title>
<path fill="none" stroke="midnightblue" d="M518.25,-403.4C548.83,-388.42 599.23,-364.52 644,-347 675.66,-334.61 711.75,-322.66 741.02,-313.5"/>
<polygon fill="midnightblue" stroke="midnightblue" points="742.16,-316.81 750.67,-310.51 740.09,-310.13 742.16,-316.81"/>
</g>
<!-- Node36 -->
<g id="node36" class="node">
<title>Node36</title>
<g id="a_node36"><a xlink:title=" ">
<polygon fill="white" stroke="#bfbfbf" points="320,-347.5 320,-366.5 370,-366.5 370,-347.5 320,-347.5"/>
<text text-anchor="middle" x="345" y="-354.5" font-family="Helvetica,sans-Serif" font-size="10.00">atomic</text>
</a>
</g>
</g>
<!-- Node35&#45;&gt;Node36 -->
<g id="edge52" class="edge">
<title>Node35&#45;&gt;Node36</title>
<path fill="none" stroke="midnightblue" d="M455.64,-403.4C431.31,-393.42 398.97,-380.15 375.54,-370.53"/>
<polygon fill="midnightblue" stroke="midnightblue" points="376.68,-367.22 366.1,-366.66 374.02,-373.69 376.68,-367.22"/>
</g>
<!-- Node37 -->
<g id="node37" class="node">
<title>Node37</title>
<g id="a_node37"><a xlink:title=" ">
<polygon fill="white" stroke="#bfbfbf" points="466,-347.5 466,-366.5 514,-366.5 514,-347.5 466,-347.5"/>
<text text-anchor="middle" x="490" y="-354.5" font-family="Helvetica,sans-Serif" font-size="10.00">thread</text>
</a>
</g>
</g>
<!-- Node35&#45;&gt;Node37 -->
<g id="edge53" class="edge">
<title>Node35&#45;&gt;Node37</title>
<path fill="none" stroke="midnightblue" d="M490,-403.4C490,-395.47 490,-385.46 490,-376.86"/>
<polygon fill="midnightblue" stroke="midnightblue" points="493.5,-376.66 490,-366.66 486.5,-376.66 493.5,-376.66"/>
</g>
<!-- Node38&#45;&gt;Node7 -->
<g id="edge57" class="edge">
<title>Node38&#45;&gt;Node7</title>
<path fill="none" stroke="midnightblue" d="M1058.01,-542.92C1034.68,-535.79 1007.17,-523.1 992,-501 979.29,-482.49 980,-455.72 982.4,-437.98"/>
<polygon fill="midnightblue" stroke="midnightblue" points="985.87,-438.46 984.05,-428.02 978.96,-437.32 985.87,-438.46"/>
</g>
<!-- Node38&#45;&gt;Node9 -->
<g id="edge59" class="edge">
<title>Node38&#45;&gt;Node9</title>
<path fill="none" stroke="midnightblue" d="M1157.94,-542.98C1207.89,-534.57 1274.3,-520.19 1293,-501 1309.21,-484.37 1312.58,-456.74 1312.83,-438.32"/>
<polygon fill="midnightblue" stroke="midnightblue" points="1316.33,-438.17 1312.67,-428.23 1309.33,-438.28 1316.33,-438.17"/>
</g>
<!-- Node38&#45;&gt;Node10 -->
<g id="edge60" class="edge">
<title>Node38&#45;&gt;Node10</title>
<path fill="none" stroke="midnightblue" d="M1073.49,-542.94C1044.44,-533.13 995.63,-516.4 954,-501 952.11,-500.3 950.16,-499.57 948.21,-498.83"/>
<polygon fill="midnightblue" stroke="midnightblue" points="949.06,-495.4 938.47,-495.07 946.54,-501.94 949.06,-495.4"/>
</g>
<!-- Node38&#45;&gt;Node26 -->
<g id="edge58" class="edge">
<title>Node38&#45;&gt;Node26</title>
<path fill="none" stroke="midnightblue" d="M1076.34,-542.99C1058.8,-535.05 1035.75,-521.35 1025,-501 1018.56,-488.82 1024.51,-483.77 1025,-470 1026.78,-420.13 1033,-407.9 1033,-358 1033,-358 1033,-358 1033,-233 1033,-190.66 992.56,-155.66 965.9,-137.18"/>
<polygon fill="midnightblue" stroke="midnightblue" points="967.72,-134.19 957.46,-131.56 963.84,-140.02 967.72,-134.19"/>
</g>
<!-- Node38&#45;&gt;Node30 -->
<g id="edge61" class="edge">
<title>Node38&#45;&gt;Node30</title>
<path fill="none" stroke="midnightblue" d="M1161.19,-542.94C1248.42,-530.92 1406.72,-509.12 1498.96,-496.42"/>
<polygon fill="midnightblue" stroke="midnightblue" points="1499.62,-499.86 1509.05,-495.03 1498.66,-492.93 1499.62,-499.86"/>
</g>
<!-- Node38&#45;&gt;Node32 -->
<g id="edge62" class="edge">
<title>Node38&#45;&gt;Node32</title>
<path fill="none" stroke="midnightblue" d="M1048.14,-542.94C977.31,-531.01 849.18,-509.43 773.53,-496.69"/>
<polygon fill="midnightblue" stroke="midnightblue" points="774.11,-493.24 763.67,-495.03 772.95,-500.14 774.11,-493.24"/>
</g>
<!-- Node38&#45;&gt;Node39 -->
<g id="edge63" class="edge">
<title>Node38&#45;&gt;Node39</title>
<path fill="none" stroke="midnightblue" d="M1115.47,-542.87C1136.4,-531.89 1172.78,-512.82 1197.36,-499.94"/>
<polygon fill="midnightblue" stroke="midnightblue" points="1199.23,-502.91 1206.47,-495.17 1195.98,-496.71 1199.23,-502.91"/>
</g>
<!-- Node38&#45;&gt;Node40 -->
<g id="edge67" class="edge">
<title>Node38&#45;&gt;Node40</title>
<path fill="none" stroke="midnightblue" d="M1139.71,-542.94C1185.22,-533.26 1261.07,-516.77 1326,-501 1330.38,-499.94 1334.95,-498.79 1339.5,-497.62"/>
<polygon fill="midnightblue" stroke="midnightblue" points="1340.55,-500.97 1349.35,-495.07 1338.79,-494.19 1340.55,-500.97"/>
</g>
<!-- Node41 -->
<g id="node41" class="node">
<title>Node41</title>
<g id="a_node41"><a xlink:href="dynamic__allocator_8h.html" target="_top" xlink:title="This file provides the dynamic allocator for ArgoDSM.">
<polygon fill="white" stroke="black" points="1034,-470.5 1034,-500.5 1144,-500.5 1144,-470.5 1034,-470.5"/>
<text text-anchor="start" x="1042" y="-488.5" font-family="Helvetica,sans-Serif" font-size="10.00">allocators/dynamic</text>
<text text-anchor="middle" x="1089" y="-477.5" font-family="Helvetica,sans-Serif" font-size="10.00">_allocator.h</text>
</a>
</g>
</g>
<!-- Node38&#45;&gt;Node41 -->
<g id="edge68" class="edge">
<title>Node38&#45;&gt;Node41</title>
<path fill="none" stroke="midnightblue" d="M1097.65,-542.73C1096.39,-534.54 1094.45,-521.92 1092.73,-510.71"/>
<polygon fill="midnightblue" stroke="midnightblue" points="1096.15,-509.94 1091.17,-500.59 1089.23,-511 1096.15,-509.94"/>
</g>
<!-- Node39&#45;&gt;Node7 -->
<g id="edge64" class="edge">
<title>Node39&#45;&gt;Node7</title>
<path fill="none" stroke="midnightblue" d="M1191.53,-475.87C1145.27,-463.18 1059.58,-439.68 1014.86,-427.41"/>
<polygon fill="midnightblue" stroke="midnightblue" points="1015.76,-424.03 1005.19,-424.76 1013.91,-430.78 1015.76,-424.03"/>
</g>
<!-- Node39&#45;&gt;Node9 -->
<g id="edge65" class="edge">
<title>Node39&#45;&gt;Node9</title>
<path fill="none" stroke="midnightblue" d="M1235,-475.73C1249.55,-465.11 1274.28,-447.05 1291.78,-434.26"/>
<polygon fill="midnightblue" stroke="midnightblue" points="1294.18,-436.85 1300.19,-428.13 1290.05,-431.2 1294.18,-436.85"/>
</g>
<!-- Node39&#45;&gt;Node11 -->
<g id="edge66" class="edge">
<title>Node39&#45;&gt;Node11</title>
<path fill="none" stroke="midnightblue" d="M1220.8,-475.81C1215.66,-455.49 1202.78,-404.55 1195.75,-376.78"/>
<polygon fill="midnightblue" stroke="midnightblue" points="1199.06,-375.59 1193.21,-366.76 1192.27,-377.31 1199.06,-375.59"/>
</g>
<!-- Node43&#45;&gt;Node7 -->
<g id="edge77" class="edge">
<title>Node43&#45;&gt;Node7</title>
<path fill="none" stroke="midnightblue" d="M510.71,-478.62C644.98,-466.69 936.87,-440.26 958,-434 959.48,-433.56 960.97,-433.05 962.45,-432.47"/>
<polygon fill="midnightblue" stroke="midnightblue" points="964.29,-435.48 971.91,-428.12 961.36,-429.12 964.29,-435.48"/>
</g>
<!-- Node43&#45;&gt;Node36 -->
<g id="edge76" class="edge">
<title>Node43&#45;&gt;Node36</title>
<path fill="none" stroke="midnightblue" d="M430.74,-475.71C417.62,-466.51 397.57,-451.04 384,-434 369.75,-416.11 358.52,-392.19 351.83,-376"/>
<polygon fill="midnightblue" stroke="midnightblue" points="355.05,-374.63 348.12,-366.62 348.55,-377.21 355.05,-374.63"/>
</g>
<!-- Node44&#45;&gt;Node36 -->
<g id="edge79" class="edge">
<title>Node44&#45;&gt;Node36</title>
<path fill="none" stroke="midnightblue" d="M309.64,-542.94C315.21,-513.79 333.53,-417.97 341.38,-376.93"/>
<polygon fill="midnightblue" stroke="midnightblue" points="344.86,-377.39 343.3,-366.91 337.98,-376.07 344.86,-377.39"/>
</g>
</g>
</svg>
