<?xml version="1.0" encoding="UTF-8" standalone="no"?>
<!DOCTYPE svg PUBLIC "-//W3C//DTD SVG 1.1//EN"
 "http://www.w3.org/Graphics/SVG/1.1/DTD/svg11.dtd">
<!-- Generated by graphviz version 2.43.0 (0)
 -->
<!-- Title: /home/projectcs&#45;2022/argodsmBuffer/argodsmPrefetching/src/synchronization/cohort_lock.hpp Pages: 1 -->
<svg width="412pt" height="150pt"
 viewBox="0.00 0.00 412.00 150.00" xmlns="http://www.w3.org/2000/svg" xmlns:xlink="http://www.w3.org/1999/xlink">
<g id="graph0" class="graph" transform="scale(1 1) rotate(0) translate(4 146)">
<title>/home/projectcs&#45;2022/argodsmBuffer/argodsmPrefetching/src/synchronization/cohort_lock.hpp</title>
<polygon fill="white" stroke="transparent" points="-4,4 -4,-146 408,-146 408,4 -4,4"/>
<!-- Node1 -->
<g id="node1" class="node">
<title>Node1</title>
<g id="a_node1"><a xlink:title="This file provides a cohort lock for the ArgoDSM system.">
<polygon fill="#bfbfbf" stroke="black" points="105,-89.5 105,-141.5 298,-141.5 298,-89.5 105,-89.5"/>
<text text-anchor="start" x="113" y="-129.5" font-family="Helvetica,sans-Serif" font-size="10.00">/home/projectcs&#45;2022</text>
<text text-anchor="start" x="113" y="-118.5" font-family="Helvetica,sans-Serif" font-size="10.00">/argodsmBuffer/argodsmPrefetching</text>
<text text-anchor="start" x="113" y="-107.5" font-family="Helvetica,sans-Serif" font-size="10.00">/src/synchronization/cohort</text>
<text text-anchor="middle" x="201.5" y="-96.5" font-family="Helvetica,sans-Serif" font-size="10.00">_lock.hpp</text>
</a>
</g>
</g>
<!-- Node2 -->
<g id="node2" class="node">
<title>Node2</title>
<g id="a_node2"><a xlink:href="cohort__lock_8cpp.html" target="_top" xlink:title="This file provides a C interface for ArgoDSM&#45;based cohort locks.">
<polygon fill="white" stroke="black" points="0,-0.5 0,-52.5 193,-52.5 193,-0.5 0,-0.5"/>
<text text-anchor="start" x="8" y="-40.5" font-family="Helvetica,sans-Serif" font-size="10.00">/home/projectcs&#45;2022</text>
<text text-anchor="start" x="8" y="-29.5" font-family="Helvetica,sans-Serif" font-size="10.00">/argodsmBuffer/argodsmPrefetching</text>
<text text-anchor="start" x="8" y="-18.5" font-family="Helvetica,sans-Serif" font-size="10.00">/src/synchronization/cohort</text>
<text text-anchor="middle" x="96.5" y="-7.5" font-family="Helvetica,sans-Serif" font-size="10.00">_lock.cpp</text>
</a>
</g>
</g>
<!-- Node1&#45;&gt;Node2 -->
<g id="edge1" class="edge">
<title>Node1&#45;&gt;Node2</title>
<path fill="none" stroke="midnightblue" d="M163.4,-82.93C151.36,-72.96 138.22,-62.07 126.8,-52.61"/>
<polygon fill="midnightblue" stroke="midnightblue" points="161.2,-85.65 171.13,-89.34 165.66,-80.26 161.2,-85.65"/>
</g>
<!-- Node3 -->
<g id="node3" class="node">
<title>Node3</title>
<g id="a_node3"><a xlink:href="lock_8cpp.html" target="_top" xlink:title="This file provides unit tests for the ArgoDSM locks.">
<polygon fill="white" stroke="black" points="211,-6 211,-47 404,-47 404,-6 211,-6"/>
<text text-anchor="start" x="219" y="-35" font-family="Helvetica,sans-Serif" font-size="10.00">/home/projectcs&#45;2022</text>
<text text-anchor="start" x="219" y="-24" font-family="Helvetica,sans-Serif" font-size="10.00">/argodsmBuffer/argodsmPrefetching</text>
<text text-anchor="middle" x="307.5" y="-13" font-family="Helvetica,sans-Serif" font-size="10.00">/tests/lock.cpp</text>
</a>
</g>
</g>
<!-- Node1&#45;&gt;Node3 -->
<g id="edge2" class="edge">
<title>Node1&#45;&gt;Node3</title>
<path fill="none" stroke="midnightblue" d="M240.07,-82.85C254.64,-70.88 270.8,-57.62 283.64,-47.08"/>
<polygon fill="midnightblue" stroke="midnightblue" points="237.67,-80.29 232.16,-89.34 242.11,-85.7 237.67,-80.29"/>
</g>
</g>
</svg>
