<?xml version="1.0" encoding="UTF-8" standalone="no"?>
<!DOCTYPE svg PUBLIC "-//W3C//DTD SVG 1.1//EN"
 "http://www.w3.org/Graphics/SVG/1.1/DTD/svg11.dtd">
<!-- Generated by graphviz version 2.43.0 (0)
 -->
<!-- Title: /home/projectcs&#45;2022/argodsmBuffer/argodsmPrefetching/src/allocators/collective_allocator.hpp Pages: 1 -->
<!--zoomable 654 -->
<svg id="main" version="1.1" xmlns="http://www.w3.org/2000/svg" xmlns:xlink="http://www.w3.org/1999/xlink" xml:space="preserve" onload="init(evt)">
<style type="text/css"><![CDATA[
.edge:hover path { stroke: red; }
.edge:hover polygon { stroke: red; fill: red; }
]]></style>
<script type="text/javascript"><![CDATA[
var edges = document.getElementsByTagName('g');
if (edges && edges.length) {
  for (var i=0;i<edges.length;i++) {
    if (edges[i].id.substr(0,4)=='edge') {
      edges[i].setAttribute('class','edge');
    }
  }
}
]]></script>
        <defs>
                <circle id="rim" cx="0" cy="0" r="7"/>
                <circle id="rim2" cx="0" cy="0" r="3.5"/>
                <g id="zoomPlus">
                        <use xlink:href="#rim" fill="#404040">
                                <set attributeName="fill" to="#808080" begin="zoomplus.mouseover" end="zoomplus.mouseout"/>
                        </use>
                        <path d="M-4,0h8M0,-4v8" fill="none" stroke="white" stroke-width="1.5" pointer-events="none"/>
                </g>
                <g id="zoomMin">
                        <use xlink:href="#rim" fill="#404040">
                                <set attributeName="fill" to="#808080" begin="zoomminus.mouseover" end="zoomminus.mouseout"/>
                        </use>
                        <path d="M-4,0h8" fill="none" stroke="white" stroke-width="1.5" pointer-events="none"/>
                </g>
                <g id="dirArrow">
                        <path fill="none" stroke="white" stroke-width="1.5" d="M0,-3.0v7 M-2.5,-0.5L0,-3.0L2.5,-0.5"/>
                </g>
               <g id="resetDef">
                       <use xlink:href="#rim2" fill="#404040">
                               <set attributeName="fill" to="#808080" begin="reset.mouseover" end="reset.mouseout"/>
                       </use>
               </g>
        </defs>

<script type="text/javascript">
var viewWidth = 1589;
var viewHeight = 654;
var sectionId = 'dynsection-0';
</script>
<script xlink:href="svgpan.js"/>
<svg id="graph" class="graph">
<g id="viewport">
<title>/home/projectcs&#45;2022/argodsmBuffer/argodsmPrefetching/src/allocators/collective_allocator.hpp</title>
<polygon fill="white" stroke="transparent" points="-4,4 -4,-650 1585,-650 1585,4 -4,4"/>
<!-- Node1 -->
<g id="node1" class="node">
<title>Node1</title>
<g id="a_node1"><a xlink:title="This file provides the collective allocator for ArgoDSM.">
<polygon fill="#bfbfbf" stroke="black" points="944,-604.5 944,-645.5 1147,-645.5 1147,-604.5 944,-604.5"/>
<text text-anchor="start" x="952" y="-633.5" font-family="Helvetica,sans-Serif" font-size="10.00">/home/projectcs&#45;2022</text>
<text text-anchor="start" x="952" y="-622.5" font-family="Helvetica,sans-Serif" font-size="10.00">/argodsmBuffer/argodsmPrefetching</text>
<text text-anchor="middle" x="1045.5" y="-611.5" font-family="Helvetica,sans-Serif" font-size="10.00">/src/allocators/collective_allocator.hpp</text>
</a>
</g>
</g>
<!-- Node2 -->
<g id="node2" class="node">
<title>Node2</title>
<g id="a_node2"><a xlink:title=" ">
<polygon fill="white" stroke="#bfbfbf" points="1242.5,-409 1242.5,-428 1280.5,-428 1280.5,-409 1242.5,-409"/>
<text text-anchor="middle" x="1261.5" y="-416" font-family="Helvetica,sans-Serif" font-size="10.00">map</text>
</a>
</g>
</g>
<!-- Node1&#45;&gt;Node2 -->
<g id="edge1" class="edge">
<title>Node1&#45;&gt;Node2</title>
<path fill="none" stroke="midnightblue" d="M1147.11,-620.82C1206.25,-615.14 1280.37,-601.19 1338.5,-568 1372.96,-548.33 1383.49,-538.12 1397.5,-501 1402.37,-488.11 1405.37,-481.31 1397.5,-470 1373.6,-435.63 1323.41,-424.6 1291.13,-421.1"/>
<polygon fill="midnightblue" stroke="midnightblue" points="1291.22,-417.59 1280.94,-420.17 1290.59,-424.56 1291.22,-417.59"/>
</g>
<!-- Node3 -->
<g id="node3" class="node">
<title>Node3</title>
<g id="a_node3"><a xlink:title=" ">
<polygon fill="white" stroke="#bfbfbf" points="540.5,-409 540.5,-428 598.5,-428 598.5,-409 540.5,-409"/>
<text text-anchor="middle" x="569.5" y="-416" font-family="Helvetica,sans-Serif" font-size="10.00">memory</text>
</a>
</g>
</g>
<!-- Node1&#45;&gt;Node3 -->
<g id="edge2" class="edge">
<title>Node1&#45;&gt;Node3</title>
<path fill="none" stroke="midnightblue" d="M943.74,-611.73C856.93,-597.13 732.27,-565.98 642.5,-501 617.34,-482.79 594.54,-454.6 581.35,-436.6"/>
<polygon fill="midnightblue" stroke="midnightblue" points="584.03,-434.33 575.37,-428.22 578.33,-438.4 584.03,-434.33"/>
</g>
<!-- Node4 -->
<g id="node4" class="node">
<title>Node4</title>
<g id="a_node4"><a xlink:title=" ">
<polygon fill="white" stroke="#bfbfbf" points="1151,-409 1151,-428 1194,-428 1194,-409 1151,-409"/>
<text text-anchor="middle" x="1172.5" y="-416" font-family="Helvetica,sans-Serif" font-size="10.00">stack</text>
</a>
</g>
</g>
<!-- Node1&#45;&gt;Node4 -->
<g id="edge3" class="edge">
<title>Node1&#45;&gt;Node4</title>
<path fill="none" stroke="midnightblue" d="M1147.11,-617.02C1225.39,-605.65 1328.71,-576.29 1380.5,-501 1388.31,-489.65 1389.02,-480.83 1380.5,-470 1379.81,-469.12 1262.04,-440.89 1204.04,-427.03"/>
<polygon fill="midnightblue" stroke="midnightblue" points="1204.82,-423.61 1194.28,-424.7 1203.19,-430.42 1204.82,-423.61"/>
</g>
<!-- Node5 -->
<g id="node5" class="node">
<title>Node5</title>
<g id="a_node5"><a xlink:title=" ">
<polygon fill="white" stroke="#bfbfbf" points="652,-476 652,-495 697,-495 697,-476 652,-476"/>
<text text-anchor="middle" x="674.5" y="-483" font-family="Helvetica,sans-Serif" font-size="10.00">utility</text>
</a>
</g>
</g>
<!-- Node1&#45;&gt;Node5 -->
<g id="edge4" class="edge">
<title>Node1&#45;&gt;Node5</title>
<path fill="none" stroke="midnightblue" d="M987.4,-604.45C919.47,-581.25 803.91,-540.67 706.5,-501 705.09,-500.42 703.65,-499.82 702.19,-499.21"/>
<polygon fill="midnightblue" stroke="midnightblue" points="703.23,-495.84 692.67,-495.03 700.42,-502.25 703.23,-495.84"/>
</g>
<!-- Node6 -->
<g id="node6" class="node">
<title>Node6</title>
<g id="a_node6"><a xlink:href="backend_8hpp.html" target="_top" xlink:title="This file provides the backend interface.">
<polygon fill="white" stroke="black" points="464.5,-347.5 464.5,-366.5 586.5,-366.5 586.5,-347.5 464.5,-347.5"/>
<text text-anchor="middle" x="525.5" y="-354.5" font-family="Helvetica,sans-Serif" font-size="10.00">backend/backend.hpp</text>
</a>
</g>
</g>
<!-- Node1&#45;&gt;Node6 -->
<g id="edge5" class="edge">
<title>Node1&#45;&gt;Node6</title>
<path fill="none" stroke="midnightblue" d="M943.94,-621.08C843.7,-616.17 686.83,-603.06 555.5,-568 482.99,-548.64 465.58,-538.38 400.5,-501 356.95,-475.99 332.16,-478.82 309.5,-434 279.61,-374.87 380.18,-360.52 454.02,-357.7"/>
<polygon fill="midnightblue" stroke="midnightblue" points="454.36,-361.2 464.25,-357.38 454.14,-354.2 454.36,-361.2"/>
</g>
<!-- Node25 -->
<g id="node25" class="node">
<title>Node25</title>
<g id="a_node25"><a xlink:href="dynamic__mempool_8hpp.html" target="_top" xlink:title="This file provides a dynamically growing memory pool for ArgoDSM.">
<polygon fill="white" stroke="black" points="409.5,-476 409.5,-495 595.5,-495 595.5,-476 409.5,-476"/>
<text text-anchor="middle" x="502.5" y="-483" font-family="Helvetica,sans-Serif" font-size="10.00">mempools/dynamic_mempool.hpp</text>
</a>
</g>
</g>
<!-- Node1&#45;&gt;Node25 -->
<g id="edge34" class="edge">
<title>Node1&#45;&gt;Node25</title>
<path fill="none" stroke="midnightblue" d="M943.95,-617.06C834.53,-608.5 668.19,-592.08 609.5,-568 572.47,-552.81 537.07,-521.43 517.71,-502.35"/>
<polygon fill="midnightblue" stroke="midnightblue" points="520.18,-499.87 510.65,-495.23 515.21,-504.8 520.18,-499.87"/>
</g>
<!-- Node27 -->
<g id="node27" class="node">
<title>Node27</title>
<g id="a_node27"><a xlink:href="global__mempool_8hpp.html" target="_top" xlink:title="This file provides a dynamically growing memory pool for ArgoDSM.">
<polygon fill="white" stroke="black" points="715.5,-476 715.5,-495 889.5,-495 889.5,-476 715.5,-476"/>
<text text-anchor="middle" x="802.5" y="-483" font-family="Helvetica,sans-Serif" font-size="10.00">mempools/global_mempool.hpp</text>
</a>
</g>
</g>
<!-- Node1&#45;&gt;Node27 -->
<g id="edge39" class="edge">
<title>Node1&#45;&gt;Node27</title>
<path fill="none" stroke="midnightblue" d="M1010.94,-604.45C961,-576.18 869.89,-524.63 826.59,-500.13"/>
<polygon fill="midnightblue" stroke="midnightblue" points="828.05,-496.94 817.63,-495.06 824.61,-503.03 828.05,-496.94"/>
</g>
<!-- Node33 -->
<g id="node33" class="node">
<title>Node33</title>
<g id="a_node33"><a xlink:href="dynamic__allocator_8hpp.html" target="_top" xlink:title="This file provides the dynamic allocator for ArgoDSM.">
<polygon fill="white" stroke="black" points="982,-543 982,-562 1109,-562 1109,-543 982,-543"/>
<text text-anchor="middle" x="1045.5" y="-550" font-family="Helvetica,sans-Serif" font-size="10.00">dynamic_allocator.hpp</text>
</a>
</g>
</g>
<!-- Node1&#45;&gt;Node33 -->
<g id="edge51" class="edge">
<title>Node1&#45;&gt;Node33</title>
<path fill="none" stroke="midnightblue" d="M1045.5,-604.36C1045.5,-594.3 1045.5,-582.1 1045.5,-572.18"/>
<polygon fill="midnightblue" stroke="midnightblue" points="1049,-572.17 1045.5,-562.17 1042,-572.17 1049,-572.17"/>
</g>
<!-- Node34 -->
<g id="node34" class="node">
<title>Node34</title>
<g id="a_node34"><a xlink:href="generic__allocator_8hpp.html" target="_top" xlink:title="This file provides a generic allocator template for ArgoDSM.">
<polygon fill="white" stroke="black" points="1112,-476 1112,-495 1233,-495 1233,-476 1112,-476"/>
<text text-anchor="middle" x="1172.5" y="-483" font-family="Helvetica,sans-Serif" font-size="10.00">generic_allocator.hpp</text>
</a>
</g>
</g>
<!-- Node1&#45;&gt;Node34 -->
<g id="edge64" class="edge">
<title>Node1&#45;&gt;Node34</title>
<path fill="none" stroke="midnightblue" d="M1075.42,-604.48C1089.41,-594.54 1105.75,-581.66 1118.5,-568 1136.99,-548.19 1153.42,-521.38 1163.17,-504.02"/>
<polygon fill="midnightblue" stroke="midnightblue" points="1166.37,-505.46 1168.1,-495.01 1160.23,-502.1 1166.37,-505.46"/>
</g>
<!-- Node35 -->
<g id="node35" class="node">
<title>Node35</title>
<g id="a_node35"><a xlink:href="null__lock_8hpp.html" target="_top" xlink:title="dummy lock, not intended for public use">
<polygon fill="white" stroke="black" points="1290,-476 1290,-495 1371,-495 1371,-476 1290,-476"/>
<text text-anchor="middle" x="1330.5" y="-483" font-family="Helvetica,sans-Serif" font-size="10.00">null_lock.hpp</text>
</a>
</g>
</g>
<!-- Node1&#45;&gt;Node35 -->
<g id="edge65" class="edge">
<title>Node1&#45;&gt;Node35</title>
<path fill="none" stroke="midnightblue" d="M1086.03,-604.45C1145.1,-575.95 1253.26,-523.76 1303.51,-499.52"/>
<polygon fill="midnightblue" stroke="midnightblue" points="1305.27,-502.56 1312.76,-495.06 1302.23,-496.25 1305.27,-502.56"/>
</g>
<!-- Node37 -->
<g id="node37" class="node">
<title>Node37</title>
<g id="a_node37"><a xlink:href="collective__allocator_8h.html" target="_top" xlink:title="This file provides the collective allocator for ArgoDSM.">
<polygon fill="white" stroke="black" points="1466,-537.5 1466,-567.5 1581,-567.5 1581,-537.5 1466,-537.5"/>
<text text-anchor="start" x="1474" y="-555.5" font-family="Helvetica,sans-Serif" font-size="10.00">allocators/collective</text>
<text text-anchor="middle" x="1523.5" y="-544.5" font-family="Helvetica,sans-Serif" font-size="10.00">_allocator.h</text>
</a>
</g>
</g>
<!-- Node1&#45;&gt;Node37 -->
<g id="edge66" class="edge">
<title>Node1&#45;&gt;Node37</title>
<path fill="none" stroke="midnightblue" d="M1147.13,-611.75C1229.41,-601.4 1348.2,-585.51 1451.5,-568 1452.95,-567.75 1454.42,-567.5 1455.9,-567.24"/>
<polygon fill="midnightblue" stroke="midnightblue" points="1456.57,-570.68 1465.79,-565.45 1455.33,-563.79 1456.57,-570.68"/>
</g>
<!-- Node7 -->
<g id="node7" class="node">
<title>Node7</title>
<g id="a_node7"><a xlink:title=" ">
<polygon fill="white" stroke="#bfbfbf" points="576.5,-286 576.5,-305 628.5,-305 628.5,-286 576.5,-286"/>
<text text-anchor="middle" x="602.5" y="-293" font-family="Helvetica,sans-Serif" font-size="10.00">cassert</text>
</a>
</g>
</g>
<!-- Node6&#45;&gt;Node7 -->
<g id="edge6" class="edge">
<title>Node6&#45;&gt;Node7</title>
<path fill="none" stroke="midnightblue" d="M536.53,-347.48C548.77,-338.02 568.73,-322.6 583.49,-311.19"/>
<polygon fill="midnightblue" stroke="midnightblue" points="585.72,-313.89 591.49,-305.01 581.44,-308.35 585.72,-313.89"/>
</g>
<!-- Node8 -->
<g id="node8" class="node">
<title>Node8</title>
<g id="a_node8"><a xlink:title=" ">
<polygon fill="white" stroke="#bfbfbf" points="424.5,-286 424.5,-305 474.5,-305 474.5,-286 424.5,-286"/>
<text text-anchor="middle" x="449.5" y="-293" font-family="Helvetica,sans-Serif" font-size="10.00">cstdint</text>
</a>
</g>
</g>
<!-- Node6&#45;&gt;Node8 -->
<g id="edge7" class="edge">
<title>Node6&#45;&gt;Node8</title>
<path fill="none" stroke="midnightblue" d="M514.61,-347.48C502.53,-338.02 482.83,-322.6 468.26,-311.19"/>
<polygon fill="midnightblue" stroke="midnightblue" points="470.4,-308.42 460.37,-305.01 466.09,-313.93 470.4,-308.42"/>
</g>
<!-- Node9 -->
<g id="node9" class="node">
<title>Node9</title>
<g id="a_node9"><a xlink:title=" ">
<polygon fill="white" stroke="#bfbfbf" points="493,-286 493,-305 558,-305 558,-286 493,-286"/>
<text text-anchor="middle" x="525.5" y="-293" font-family="Helvetica,sans-Serif" font-size="10.00">stdexcept</text>
</a>
</g>
</g>
<!-- Node6&#45;&gt;Node9 -->
<g id="edge8" class="edge">
<title>Node6&#45;&gt;Node9</title>
<path fill="none" stroke="midnightblue" d="M525.5,-347.48C525.5,-339.08 525.5,-325.98 525.5,-315.16"/>
<polygon fill="midnightblue" stroke="midnightblue" points="529,-315.01 525.5,-305.01 522,-315.01 529,-315.01"/>
</g>
<!-- Node10 -->
<g id="node10" class="node">
<title>Node10</title>
<g id="a_node10"><a xlink:href="global__ptr_8hpp.html" target="_top" xlink:title="This file provides the global pointer for ArgoDSM.">
<polygon fill="white" stroke="black" points="659.5,-280.5 659.5,-310.5 791.5,-310.5 791.5,-280.5 659.5,-280.5"/>
<text text-anchor="start" x="667.5" y="-298.5" font-family="Helvetica,sans-Serif" font-size="10.00">data_distribution/global</text>
<text text-anchor="middle" x="725.5" y="-287.5" font-family="Helvetica,sans-Serif" font-size="10.00">_ptr.hpp</text>
</a>
</g>
</g>
<!-- Node6&#45;&gt;Node10 -->
<g id="edge9" class="edge">
<title>Node6&#45;&gt;Node10</title>
<path fill="none" stroke="midnightblue" d="M554.16,-347.48C583.9,-338.63 631.22,-324.55 668.6,-313.43"/>
<polygon fill="midnightblue" stroke="midnightblue" points="669.78,-316.73 678.36,-310.52 667.78,-310.02 669.78,-316.73"/>
</g>
<!-- Node18 -->
<g id="node18" class="node">
<title>Node18</title>
<g id="a_node18"><a xlink:href="types_8hpp.html" target="_top" xlink:title="This file defines common types used in ArgoDSM.">
<polygon fill="white" stroke="black" points="0,-56.5 0,-75.5 95,-75.5 95,-56.5 0,-56.5"/>
<text text-anchor="middle" x="47.5" y="-63.5" font-family="Helvetica,sans-Serif" font-size="10.00">types/types.hpp</text>
</a>
</g>
</g>
<!-- Node6&#45;&gt;Node18 -->
<g id="edge33" class="edge">
<title>Node6&#45;&gt;Node18</title>
<path fill="none" stroke="midnightblue" d="M464.36,-352.84C338.37,-344.66 61.5,-317.31 61.5,-235 61.5,-235 61.5,-235 61.5,-177 61.5,-144.54 55.43,-107.12 51.28,-85.36"/>
<polygon fill="midnightblue" stroke="midnightblue" points="54.71,-84.64 49.33,-75.51 47.84,-86 54.71,-84.64"/>
</g>
<!-- Node11 -->
<g id="node11" class="node">
<title>Node11</title>
<g id="a_node11"><a xlink:title=" ">
<polygon fill="white" stroke="#bfbfbf" points="896.5,-56.5 896.5,-75.5 940.5,-75.5 940.5,-56.5 896.5,-56.5"/>
<text text-anchor="middle" x="918.5" y="-63.5" font-family="Helvetica,sans-Serif" font-size="10.00">string</text>
</a>
</g>
</g>
<!-- Node10&#45;&gt;Node11 -->
<g id="edge10" class="edge">
<title>Node10&#45;&gt;Node11</title>
<path fill="none" stroke="midnightblue" d="M791.68,-289.6C857.32,-280.81 954.65,-256.29 1001.5,-188 1027.98,-149.41 973.7,-103.88 940.94,-81.26"/>
<polygon fill="midnightblue" stroke="midnightblue" points="942.61,-78.17 932.36,-75.51 938.72,-83.98 942.61,-78.17"/>
</g>
<!-- Node12 -->
<g id="node12" class="node">
<title>Node12</title>
<g id="a_node12"><a xlink:href="data__distribution_8hpp.html" target="_top" xlink:title="This file provides an abstraction layer for distributing the shared memory space.">
<polygon fill="white" stroke="black" points="558.5,-224.5 558.5,-243.5 678.5,-243.5 678.5,-224.5 558.5,-224.5"/>
<text text-anchor="middle" x="618.5" y="-231.5" font-family="Helvetica,sans-Serif" font-size="10.00">data_distribution.hpp</text>
</a>
</g>
</g>
<!-- Node10&#45;&gt;Node12 -->
<g id="edge11" class="edge">
<title>Node10&#45;&gt;Node12</title>
<path fill="none" stroke="midnightblue" d="M700.14,-280.4C682.83,-270.77 660.02,-258.09 642.92,-248.58"/>
<polygon fill="midnightblue" stroke="midnightblue" points="644.51,-245.46 634.07,-243.66 641.11,-251.58 644.51,-245.46"/>
</g>
<!-- Node16 -->
<g id="node16" class="node">
<title>Node16</title>
<g id="a_node16"><a xlink:href="env_8hpp.html" target="_top" xlink:title="This file provides facilities for handling environment variables.">
<polygon fill="white" stroke="black" points="113.5,-56.5 113.5,-75.5 189.5,-75.5 189.5,-56.5 113.5,-56.5"/>
<text text-anchor="middle" x="151.5" y="-63.5" font-family="Helvetica,sans-Serif" font-size="10.00">env/env.hpp</text>
</a>
</g>
</g>
<!-- Node10&#45;&gt;Node16 -->
<g id="edge32" class="edge">
<title>Node10&#45;&gt;Node16</title>
<path fill="none" stroke="midnightblue" d="M659.41,-283.51C508.4,-258.26 150.35,-197.53 141.5,-188 115.54,-160.05 131.28,-111.15 142.74,-84.88"/>
<polygon fill="midnightblue" stroke="midnightblue" points="145.95,-86.27 146.97,-75.72 139.6,-83.34 145.95,-86.27"/>
</g>
<!-- Node13 -->
<g id="node13" class="node">
<title>Node13</title>
<g id="a_node13"><a xlink:href="base__distribution_8hpp.html" target="_top" xlink:title="This file implements the base distribution class for all the policies to derive from.">
<polygon fill="white" stroke="black" points="557.5,-112.5 557.5,-131.5 679.5,-131.5 679.5,-112.5 557.5,-112.5"/>
<text text-anchor="middle" x="618.5" y="-119.5" font-family="Helvetica,sans-Serif" font-size="10.00">base_distribution.hpp</text>
</a>
</g>
</g>
<!-- Node12&#45;&gt;Node13 -->
<g id="edge12" class="edge">
<title>Node12&#45;&gt;Node13</title>
<path fill="none" stroke="midnightblue" d="M628.47,-224.15C640.88,-212 659.63,-189.25 652.5,-168 648.9,-157.25 641.6,-147.02 634.68,-139.04"/>
<polygon fill="midnightblue" stroke="midnightblue" points="637.15,-136.56 627.79,-131.61 632.02,-141.32 637.15,-136.56"/>
</g>
<!-- Node12&#45;&gt;Node16 -->
<g id="edge31" class="edge">
<title>Node12&#45;&gt;Node16</title>
<path fill="none" stroke="midnightblue" d="M558.28,-231.46C439.38,-227.8 183.6,-216.65 156.5,-188 130.59,-160.6 138.53,-112.19 145.61,-85.67"/>
<polygon fill="midnightblue" stroke="midnightblue" points="149.06,-86.34 148.49,-75.76 142.34,-84.39 149.06,-86.34"/>
</g>
<!-- Node19 -->
<g id="node19" class="node">
<title>Node19</title>
<g id="a_node19"><a xlink:href="cyclic__distribution_8hpp.html" target="_top" xlink:title="This file implements the cyclic data distribution.">
<polygon fill="white" stroke="black" points="699.5,-168.5 699.5,-187.5 825.5,-187.5 825.5,-168.5 699.5,-168.5"/>
<text text-anchor="middle" x="762.5" y="-175.5" font-family="Helvetica,sans-Serif" font-size="10.00">cyclic_distribution.hpp</text>
</a>
</g>
</g>
<!-- Node12&#45;&gt;Node19 -->
<g id="edge19" class="edge">
<title>Node12&#45;&gt;Node19</title>
<path fill="none" stroke="midnightblue" d="M641.32,-224.44C665.33,-215.44 703.33,-201.19 730.37,-191.05"/>
<polygon fill="midnightblue" stroke="midnightblue" points="731.66,-194.3 739.79,-187.52 729.2,-187.75 731.66,-194.3"/>
</g>
<!-- Node20 -->
<g id="node20" class="node">
<title>Node20</title>
<g id="a_node20"><a xlink:href="first__touch__distribution_8hpp.html" target="_top" xlink:title="This file implements the first&#45;touch data distribution.">
<polygon fill="white" stroke="black" points="844,-168.5 844,-187.5 993,-187.5 993,-168.5 844,-168.5"/>
<text text-anchor="middle" x="918.5" y="-175.5" font-family="Helvetica,sans-Serif" font-size="10.00">first_touch_distribution.hpp</text>
</a>
</g>
</g>
<!-- Node12&#45;&gt;Node20 -->
<g id="edge21" class="edge">
<title>Node12&#45;&gt;Node20</title>
<path fill="none" stroke="midnightblue" d="M666.04,-224.44C719.03,-214.9 804.7,-199.48 861.32,-189.29"/>
<polygon fill="midnightblue" stroke="midnightblue" points="861.96,-192.73 871.19,-187.52 860.72,-185.84 861.96,-192.73"/>
</g>
<!-- Node22 -->
<g id="node22" class="node">
<title>Node22</title>
<g id="a_node22"><a xlink:href="naive__distribution_8hpp.html" target="_top" xlink:title="This file implements the naive data distribution.">
<polygon fill="white" stroke="black" points="166,-168.5 166,-187.5 291,-187.5 291,-168.5 166,-168.5"/>
<text text-anchor="middle" x="228.5" y="-175.5" font-family="Helvetica,sans-Serif" font-size="10.00">naive_distribution.hpp</text>
</a>
</g>
</g>
<!-- Node12&#45;&gt;Node22 -->
<g id="edge25" class="edge">
<title>Node12&#45;&gt;Node22</title>
<path fill="none" stroke="midnightblue" d="M558.42,-224.68C488.83,-215.05 374.28,-199.18 300.13,-188.92"/>
<polygon fill="midnightblue" stroke="midnightblue" points="300.32,-185.41 289.94,-187.51 299.36,-192.35 300.32,-185.41"/>
</g>
<!-- Node23 -->
<g id="node23" class="node">
<title>Node23</title>
<g id="a_node23"><a xlink:href="prime__mapp__distribution_8hpp.html" target="_top" xlink:title="This file implements the prime&#45;mapp data distribution.">
<polygon fill="white" stroke="black" points="309.5,-168.5 309.5,-187.5 469.5,-187.5 469.5,-168.5 309.5,-168.5"/>
<text text-anchor="middle" x="389.5" y="-175.5" font-family="Helvetica,sans-Serif" font-size="10.00">prime_mapp_distribution.hpp</text>
</a>
</g>
</g>
<!-- Node12&#45;&gt;Node23 -->
<g id="edge27" class="edge">
<title>Node12&#45;&gt;Node23</title>
<path fill="none" stroke="midnightblue" d="M582.21,-224.44C542.52,-215.08 478.79,-200.06 435.59,-189.87"/>
<polygon fill="midnightblue" stroke="midnightblue" points="436.15,-186.41 425.62,-187.52 434.55,-193.22 436.15,-186.41"/>
</g>
<!-- Node24 -->
<g id="node24" class="node">
<title>Node24</title>
<g id="a_node24"><a xlink:href="skew__mapp__distribution_8hpp.html" target="_top" xlink:title="This file implements the skew&#45;mapp data distribution.">
<polygon fill="white" stroke="black" points="487.5,-168.5 487.5,-187.5 643.5,-187.5 643.5,-168.5 487.5,-168.5"/>
<text text-anchor="middle" x="565.5" y="-175.5" font-family="Helvetica,sans-Serif" font-size="10.00">skew_mapp_distribution.hpp</text>
</a>
</g>
</g>
<!-- Node12&#45;&gt;Node24 -->
<g id="edge29" class="edge">
<title>Node12&#45;&gt;Node24</title>
<path fill="none" stroke="midnightblue" d="M609.75,-224.08C602.03,-216.22 590.6,-204.57 581.28,-195.08"/>
<polygon fill="midnightblue" stroke="midnightblue" points="583.59,-192.44 574.09,-187.75 578.6,-197.34 583.59,-192.44"/>
</g>
<!-- Node13&#45;&gt;Node11 -->
<g id="edge15" class="edge">
<title>Node13&#45;&gt;Node11</title>
<path fill="none" stroke="midnightblue" d="M666.04,-112.44C727.68,-101.35 833.56,-82.29 886.46,-72.77"/>
<polygon fill="midnightblue" stroke="midnightblue" points="887.08,-76.21 896.31,-71 885.84,-69.32 887.08,-76.21"/>
</g>
<!-- Node14 -->
<g id="node14" class="node">
<title>Node14</title>
<g id="a_node14"><a xlink:title=" ">
<polygon fill="white" stroke="#bfbfbf" points="594,-56.5 594,-75.5 643,-75.5 643,-56.5 594,-56.5"/>
<text text-anchor="middle" x="618.5" y="-63.5" font-family="Helvetica,sans-Serif" font-size="10.00">cstdlib</text>
</a>
</g>
</g>
<!-- Node13&#45;&gt;Node14 -->
<g id="edge13" class="edge">
<title>Node13&#45;&gt;Node14</title>
<path fill="none" stroke="midnightblue" d="M618.5,-112.08C618.5,-105.01 618.5,-94.86 618.5,-85.99"/>
<polygon fill="midnightblue" stroke="midnightblue" points="622,-85.75 618.5,-75.75 615,-85.75 622,-85.75"/>
</g>
<!-- Node15 -->
<g id="node15" class="node">
<title>Node15</title>
<g id="a_node15"><a xlink:title=" ">
<polygon fill="white" stroke="#bfbfbf" points="1026.5,-56.5 1026.5,-75.5 1086.5,-75.5 1086.5,-56.5 1026.5,-56.5"/>
<text text-anchor="middle" x="1056.5" y="-63.5" font-family="Helvetica,sans-Serif" font-size="10.00">iostream</text>
</a>
</g>
</g>
<!-- Node13&#45;&gt;Node15 -->
<g id="edge14" class="edge">
<title>Node13&#45;&gt;Node15</title>
<path fill="none" stroke="midnightblue" d="M679.86,-113.43C770.82,-102.22 938.95,-81.49 1016.01,-71.99"/>
<polygon fill="midnightblue" stroke="midnightblue" points="1016.76,-75.43 1026.26,-70.73 1015.9,-68.48 1016.76,-75.43"/>
</g>
<!-- Node13&#45;&gt;Node16 -->
<g id="edge16" class="edge">
<title>Node13&#45;&gt;Node16</title>
<path fill="none" stroke="midnightblue" d="M557.45,-113.94C463.48,-103.08 285.34,-82.48 199.77,-72.58"/>
<polygon fill="midnightblue" stroke="midnightblue" points="200.14,-69.1 189.8,-71.43 199.33,-76.05 200.14,-69.1"/>
</g>
<!-- Node13&#45;&gt;Node18 -->
<g id="edge18" class="edge">
<title>Node13&#45;&gt;Node18</title>
<path fill="none" stroke="midnightblue" d="M557.43,-117.03C462.89,-110.58 275.17,-96.56 105.19,-76"/>
<polygon fill="midnightblue" stroke="midnightblue" points="105.4,-72.5 95.05,-74.76 104.55,-79.45 105.4,-72.5"/>
</g>
<!-- Node17 -->
<g id="node17" class="node">
<title>Node17</title>
<g id="a_node17"><a xlink:title=" ">
<polygon fill="white" stroke="#bfbfbf" points="125,-0.5 125,-19.5 178,-19.5 178,-0.5 125,-0.5"/>
<text text-anchor="middle" x="151.5" y="-7.5" font-family="Helvetica,sans-Serif" font-size="10.00">cstddef</text>
</a>
</g>
</g>
<!-- Node16&#45;&gt;Node17 -->
<g id="edge17" class="edge">
<title>Node16&#45;&gt;Node17</title>
<path fill="none" stroke="midnightblue" d="M151.5,-56.08C151.5,-49.01 151.5,-38.86 151.5,-29.99"/>
<polygon fill="midnightblue" stroke="midnightblue" points="155,-29.75 151.5,-19.75 148,-29.75 155,-29.75"/>
</g>
<!-- Node19&#45;&gt;Node13 -->
<g id="edge20" class="edge">
<title>Node19&#45;&gt;Node13</title>
<path fill="none" stroke="midnightblue" d="M739.68,-168.44C715.67,-159.44 677.67,-145.19 650.63,-135.05"/>
<polygon fill="midnightblue" stroke="midnightblue" points="651.8,-131.75 641.21,-131.52 649.34,-138.3 651.8,-131.75"/>
</g>
<!-- Node20&#45;&gt;Node11 -->
<g id="edge23" class="edge">
<title>Node20&#45;&gt;Node11</title>
<path fill="none" stroke="midnightblue" d="M918.5,-168.37C918.5,-150.62 918.5,-109.67 918.5,-85.6"/>
<polygon fill="midnightblue" stroke="midnightblue" points="922,-85.59 918.5,-75.59 915,-85.59 922,-85.59"/>
</g>
<!-- Node20&#45;&gt;Node13 -->
<g id="edge24" class="edge">
<title>Node20&#45;&gt;Node13</title>
<path fill="none" stroke="midnightblue" d="M870.96,-168.44C817.97,-158.9 732.3,-143.48 675.68,-133.29"/>
<polygon fill="midnightblue" stroke="midnightblue" points="676.28,-129.84 665.81,-131.52 675.04,-136.73 676.28,-129.84"/>
</g>
<!-- Node21 -->
<g id="node21" class="node">
<title>Node21</title>
<g id="a_node21"><a xlink:title=" ">
<polygon fill="white" stroke="#bfbfbf" points="1048.5,-112.5 1048.5,-131.5 1096.5,-131.5 1096.5,-112.5 1048.5,-112.5"/>
<text text-anchor="middle" x="1072.5" y="-119.5" font-family="Helvetica,sans-Serif" font-size="10.00">mutex</text>
</a>
</g>
</g>
<!-- Node20&#45;&gt;Node21 -->
<g id="edge22" class="edge">
<title>Node20&#45;&gt;Node21</title>
<path fill="none" stroke="midnightblue" d="M942.9,-168.44C968.77,-159.37 1009.82,-144.98 1038.77,-134.83"/>
<polygon fill="midnightblue" stroke="midnightblue" points="1040.19,-138.04 1048.47,-131.43 1037.87,-131.43 1040.19,-138.04"/>
</g>
<!-- Node22&#45;&gt;Node13 -->
<g id="edge26" class="edge">
<title>Node22&#45;&gt;Node13</title>
<path fill="none" stroke="midnightblue" d="M290.3,-168.44C360.15,-158.77 473.67,-143.05 547.21,-132.87"/>
<polygon fill="midnightblue" stroke="midnightblue" points="547.89,-136.31 557.31,-131.47 546.93,-129.38 547.89,-136.31"/>
</g>
<!-- Node23&#45;&gt;Node13 -->
<g id="edge28" class="edge">
<title>Node23&#45;&gt;Node13</title>
<path fill="none" stroke="midnightblue" d="M425.79,-168.44C465.48,-159.08 529.21,-144.06 572.41,-133.87"/>
<polygon fill="midnightblue" stroke="midnightblue" points="573.45,-137.22 582.38,-131.52 571.85,-130.41 573.45,-137.22"/>
</g>
<!-- Node24&#45;&gt;Node13 -->
<g id="edge30" class="edge">
<title>Node24&#45;&gt;Node13</title>
<path fill="none" stroke="midnightblue" d="M574.25,-168.08C581.97,-160.22 593.4,-148.57 602.72,-139.08"/>
<polygon fill="midnightblue" stroke="midnightblue" points="605.4,-141.34 609.91,-131.75 600.41,-136.44 605.4,-141.34"/>
</g>
<!-- Node25&#45;&gt;Node6 -->
<g id="edge35" class="edge">
<title>Node25&#45;&gt;Node6</title>
<path fill="none" stroke="midnightblue" d="M504.08,-475.81C507.77,-455.49 517.04,-404.55 522.09,-376.78"/>
<polygon fill="midnightblue" stroke="midnightblue" points="525.56,-377.22 523.91,-366.76 518.68,-375.97 525.56,-377.22"/>
</g>
<!-- Node26 -->
<g id="node26" class="node">
<title>Node26</title>
<g id="a_node26"><a xlink:href="broadcast_8hpp.html" target="_top" xlink:title="This file provides a broadcasting facility for a single value.">
<polygon fill="white" stroke="black" points="318.5,-409 318.5,-428 484.5,-428 484.5,-409 318.5,-409"/>
<text text-anchor="middle" x="401.5" y="-416" font-family="Helvetica,sans-Serif" font-size="10.00">synchronization/broadcast.hpp</text>
</a>
</g>
</g>
<!-- Node25&#45;&gt;Node26 -->
<g id="edge36" class="edge">
<title>Node25&#45;&gt;Node26</title>
<path fill="none" stroke="midnightblue" d="M488.88,-475.73C472.07,-464.92 443.27,-446.38 423.36,-433.57"/>
<polygon fill="midnightblue" stroke="midnightblue" points="425.21,-430.6 414.91,-428.13 421.42,-436.48 425.21,-430.6"/>
</g>
<!-- Node26&#45;&gt;Node6 -->
<g id="edge37" class="edge">
<title>Node26&#45;&gt;Node6</title>
<path fill="none" stroke="midnightblue" d="M419.27,-408.98C439.98,-399.03 474.45,-382.49 498.49,-370.96"/>
<polygon fill="midnightblue" stroke="midnightblue" points="500.27,-373.99 507.77,-366.51 497.24,-367.68 500.27,-373.99"/>
</g>
<!-- Node26&#45;&gt;Node18 -->
<g id="edge38" class="edge">
<title>Node26&#45;&gt;Node18</title>
<path fill="none" stroke="midnightblue" d="M326.82,-408.97C216.66,-394.29 23.5,-359.55 23.5,-296.5 23.5,-296.5 23.5,-296.5 23.5,-177 23.5,-144.06 33.9,-106.82 41.01,-85.21"/>
<polygon fill="midnightblue" stroke="midnightblue" points="44.34,-86.29 44.26,-75.7 37.72,-84.03 44.34,-86.29"/>
</g>
<!-- Node27&#45;&gt;Node3 -->
<g id="edge43" class="edge">
<title>Node27&#45;&gt;Node3</title>
<path fill="none" stroke="midnightblue" d="M764.4,-475.96C724.83,-466.78 661.3,-451.17 607.5,-434 605.09,-433.23 602.6,-432.39 600.12,-431.52"/>
<polygon fill="midnightblue" stroke="midnightblue" points="601.25,-428.2 590.66,-428.05 598.84,-434.78 601.25,-428.2"/>
</g>
<!-- Node27&#45;&gt;Node6 -->
<g id="edge44" class="edge">
<title>Node27&#45;&gt;Node6</title>
<path fill="none" stroke="midnightblue" d="M802.13,-475.79C800.91,-458.94 795.7,-421.86 773.5,-403 747.34,-380.78 660.13,-368.9 596.51,-363.02"/>
<polygon fill="midnightblue" stroke="midnightblue" points="596.78,-359.53 586.51,-362.13 596.16,-366.51 596.78,-359.53"/>
</g>
<!-- Node27&#45;&gt;Node10 -->
<g id="edge45" class="edge">
<title>Node27&#45;&gt;Node10</title>
<path fill="none" stroke="midnightblue" d="M846.39,-475.95C900.44,-464.97 986.29,-445.93 995.5,-434 1003.92,-423.09 997.74,-416.59 995.5,-403 991.22,-377.07 996.24,-364.35 976.5,-347 950.87,-324.47 865.7,-310.8 801.63,-303.47"/>
<polygon fill="midnightblue" stroke="midnightblue" points="801.86,-299.97 791.54,-302.34 801.09,-306.93 801.86,-299.97"/>
</g>
<!-- Node27&#45;&gt;Node15 -->
<g id="edge42" class="edge">
<title>Node27&#45;&gt;Node15</title>
<path fill="none" stroke="midnightblue" d="M860.43,-475.99C914.06,-467.17 988.95,-452.13 1012.5,-434 1042.91,-410.59 1053.5,-396.38 1053.5,-358 1053.5,-358 1053.5,-358 1053.5,-294.5 1053.5,-218.67 1093.8,-206.92 1105.5,-132 1106.87,-123.22 1109.08,-120.14 1105.5,-112 1100.11,-99.73 1089.54,-89.34 1079.6,-81.65"/>
<polygon fill="midnightblue" stroke="midnightblue" points="1081.33,-78.58 1071.16,-75.6 1077.25,-84.27 1081.33,-78.58"/>
</g>
<!-- Node28 -->
<g id="node28" class="node">
<title>Node28</title>
<g id="a_node28"><a xlink:title=" ">
<polygon fill="white" stroke="#bfbfbf" points="617,-409 617,-428 670,-428 670,-409 617,-409"/>
<text text-anchor="middle" x="643.5" y="-416" font-family="Helvetica,sans-Serif" font-size="10.00">stdlib.h</text>
</a>
</g>
</g>
<!-- Node27&#45;&gt;Node28 -->
<g id="edge40" class="edge">
<title>Node27&#45;&gt;Node28</title>
<path fill="none" stroke="midnightblue" d="M781.42,-475.96C756.74,-465.95 714.62,-448.84 678.5,-434 676.91,-433.35 675.28,-432.68 673.64,-432"/>
<polygon fill="midnightblue" stroke="midnightblue" points="674.8,-428.69 664.22,-428.11 672.13,-435.16 674.8,-428.69"/>
</g>
<!-- Node29 -->
<g id="node29" class="node">
<title>Node29</title>
<g id="a_node29"><a xlink:title=" ">
<polygon fill="white" stroke="#bfbfbf" points="688,-409 688,-428 765,-428 765,-409 688,-409"/>
<text text-anchor="middle" x="726.5" y="-416" font-family="Helvetica,sans-Serif" font-size="10.00">sys/mman.h</text>
</a>
</g>
</g>
<!-- Node27&#45;&gt;Node29 -->
<g id="edge41" class="edge">
<title>Node27&#45;&gt;Node29</title>
<path fill="none" stroke="midnightblue" d="M792.25,-475.73C780.06,-465.31 759.48,-447.71 744.59,-434.97"/>
<polygon fill="midnightblue" stroke="midnightblue" points="746.46,-431.97 736.59,-428.13 741.91,-437.29 746.46,-431.97"/>
</g>
<!-- Node30 -->
<g id="node30" class="node">
<title>Node30</title>
<g id="a_node30"><a xlink:href="global__tas__lock_8hpp.html" target="_top" xlink:title="This file provides a tas lock for the ArgoDSM system based on the TAS lock made by David Klaftenegger...">
<polygon fill="white" stroke="black" points="860,-403.5 860,-433.5 987,-433.5 987,-403.5 860,-403.5"/>
<text text-anchor="start" x="868" y="-421.5" font-family="Helvetica,sans-Serif" font-size="10.00">synchronization/global</text>
<text text-anchor="middle" x="923.5" y="-410.5" font-family="Helvetica,sans-Serif" font-size="10.00">_tas_lock.hpp</text>
</a>
</g>
</g>
<!-- Node27&#45;&gt;Node30 -->
<g id="edge46" class="edge">
<title>Node27&#45;&gt;Node30</title>
<path fill="none" stroke="midnightblue" d="M818.82,-475.73C836.51,-466.23 865.28,-450.78 888.18,-438.47"/>
<polygon fill="midnightblue" stroke="midnightblue" points="890.12,-441.4 897.27,-433.59 886.81,-435.24 890.12,-441.4"/>
</g>
<!-- Node30&#45;&gt;Node6 -->
<g id="edge49" class="edge">
<title>Node30&#45;&gt;Node6</title>
<path fill="none" stroke="midnightblue" d="M859.69,-405.4C854.89,-404.56 850.12,-403.75 845.5,-403 760.22,-389.08 661.74,-375.63 596.8,-367.11"/>
<polygon fill="midnightblue" stroke="midnightblue" points="597.04,-363.61 586.67,-365.79 596.13,-370.55 597.04,-363.61"/>
</g>
<!-- Node30&#45;&gt;Node10 -->
<g id="edge50" class="edge">
<title>Node30&#45;&gt;Node10</title>
<path fill="none" stroke="midnightblue" d="M900.4,-403.38C864.93,-381.71 796.97,-340.18 757.01,-315.76"/>
<polygon fill="midnightblue" stroke="midnightblue" points="758.81,-312.76 748.45,-310.53 755.16,-318.73 758.81,-312.76"/>
</g>
<!-- Node31 -->
<g id="node31" class="node">
<title>Node31</title>
<g id="a_node31"><a xlink:title=" ">
<polygon fill="white" stroke="#bfbfbf" points="851.5,-347.5 851.5,-366.5 901.5,-366.5 901.5,-347.5 851.5,-347.5"/>
<text text-anchor="middle" x="876.5" y="-354.5" font-family="Helvetica,sans-Serif" font-size="10.00">atomic</text>
</a>
</g>
</g>
<!-- Node30&#45;&gt;Node31 -->
<g id="edge47" class="edge">
<title>Node30&#45;&gt;Node31</title>
<path fill="none" stroke="midnightblue" d="M912.36,-403.4C905.53,-394.75 896.76,-383.64 889.59,-374.58"/>
<polygon fill="midnightblue" stroke="midnightblue" points="892.28,-372.34 883.34,-366.66 886.79,-376.67 892.28,-372.34"/>
</g>
<!-- Node32 -->
<g id="node32" class="node">
<title>Node32</title>
<g id="a_node32"><a xlink:title=" ">
<polygon fill="white" stroke="#bfbfbf" points="919.5,-347.5 919.5,-366.5 967.5,-366.5 967.5,-347.5 919.5,-347.5"/>
<text text-anchor="middle" x="943.5" y="-354.5" font-family="Helvetica,sans-Serif" font-size="10.00">thread</text>
</a>
</g>
</g>
<!-- Node30&#45;&gt;Node32 -->
<g id="edge48" class="edge">
<title>Node30&#45;&gt;Node32</title>
<path fill="none" stroke="midnightblue" d="M928.24,-403.4C930.97,-395.29 934.42,-385.01 937.36,-376.28"/>
<polygon fill="midnightblue" stroke="midnightblue" points="940.72,-377.25 940.59,-366.66 934.09,-375.02 940.72,-377.25"/>
</g>
<!-- Node33&#45;&gt;Node2 -->
<g id="edge52" class="edge">
<title>Node33&#45;&gt;Node2</title>
<path fill="none" stroke="midnightblue" d="M1106.34,-542.93C1156.93,-534.57 1223.61,-520.31 1242.5,-501 1258.74,-484.4 1262.11,-456.76 1262.35,-438.34"/>
<polygon fill="midnightblue" stroke="midnightblue" points="1265.84,-438.18 1262.18,-428.24 1258.84,-438.29 1265.84,-438.18"/>
</g>
<!-- Node33&#45;&gt;Node4 -->
<g id="edge54" class="edge">
<title>Node33&#45;&gt;Node4</title>
<path fill="none" stroke="midnightblue" d="M1050.31,-542.97C1059.38,-527.36 1080.2,-493.61 1103.5,-470 1117.36,-455.96 1135.42,-442.89 1149.59,-433.56"/>
<polygon fill="midnightblue" stroke="midnightblue" points="1151.73,-436.35 1158.26,-428 1147.95,-430.46 1151.73,-436.35"/>
</g>
<!-- Node33&#45;&gt;Node5 -->
<g id="edge55" class="edge">
<title>Node33&#45;&gt;Node5</title>
<path fill="none" stroke="midnightblue" d="M981.89,-547.31C912.9,-541.56 800.1,-528.59 706.5,-501 704.57,-500.43 702.6,-499.77 700.65,-499.04"/>
<polygon fill="midnightblue" stroke="midnightblue" points="701.68,-495.68 691.1,-495.08 698.99,-502.15 701.68,-495.68"/>
</g>
<!-- Node33&#45;&gt;Node21 -->
<g id="edge53" class="edge">
<title>Node33&#45;&gt;Node21</title>
<path fill="none" stroke="midnightblue" d="M1049.11,-542.8C1059.95,-515.86 1091.5,-431.2 1091.5,-358 1091.5,-358 1091.5,-358 1091.5,-294.5 1091.5,-238.47 1081.36,-172.77 1075.89,-141.44"/>
<polygon fill="midnightblue" stroke="midnightblue" points="1079.33,-140.75 1074.12,-131.53 1072.44,-141.99 1079.33,-140.75"/>
</g>
<!-- Node33&#45;&gt;Node25 -->
<g id="edge56" class="edge">
<title>Node33&#45;&gt;Node25</title>
<path fill="none" stroke="midnightblue" d="M981.88,-543.88C882.89,-532.03 692.11,-509.2 583.45,-496.19"/>
<polygon fill="midnightblue" stroke="midnightblue" points="583.86,-492.71 573.52,-495 583.03,-499.67 583.86,-492.71"/>
</g>
<!-- Node33&#45;&gt;Node27 -->
<g id="edge57" class="edge">
<title>Node33&#45;&gt;Node27</title>
<path fill="none" stroke="midnightblue" d="M1013.48,-542.94C970.05,-531.32 892.38,-510.54 844.36,-497.7"/>
<polygon fill="midnightblue" stroke="midnightblue" points="845.15,-494.29 834.59,-495.08 843.34,-501.05 845.15,-494.29"/>
</g>
<!-- Node33&#45;&gt;Node34 -->
<g id="edge58" class="edge">
<title>Node33&#45;&gt;Node34</title>
<path fill="none" stroke="midnightblue" d="M1062.36,-542.87C1083.9,-531.84 1121.4,-512.66 1146.58,-499.77"/>
<polygon fill="midnightblue" stroke="midnightblue" points="1148.26,-502.84 1155.57,-495.17 1145.07,-496.61 1148.26,-502.84"/>
</g>
<!-- Node33&#45;&gt;Node35 -->
<g id="edge62" class="edge">
<title>Node33&#45;&gt;Node35</title>
<path fill="none" stroke="midnightblue" d="M1086.75,-542.98C1132.87,-533.34 1209.73,-516.88 1275.5,-501 1279.94,-499.93 1284.57,-498.77 1289.18,-497.59"/>
<polygon fill="midnightblue" stroke="midnightblue" points="1290.34,-500.91 1299.15,-495.01 1288.59,-494.13 1290.34,-500.91"/>
</g>
<!-- Node36 -->
<g id="node36" class="node">
<title>Node36</title>
<g id="a_node36"><a xlink:href="dynamic__allocator_8h.html" target="_top" xlink:title="This file provides the dynamic allocator for ArgoDSM.">
<polygon fill="white" stroke="black" points="907.5,-470.5 907.5,-500.5 1017.5,-500.5 1017.5,-470.5 907.5,-470.5"/>
<text text-anchor="start" x="915.5" y="-488.5" font-family="Helvetica,sans-Serif" font-size="10.00">allocators/dynamic</text>
<text text-anchor="middle" x="962.5" y="-477.5" font-family="Helvetica,sans-Serif" font-size="10.00">_allocator.h</text>
</a>
</g>
</g>
<!-- Node33&#45;&gt;Node36 -->
<g id="edge63" class="edge">
<title>Node33&#45;&gt;Node36</title>
<path fill="none" stroke="midnightblue" d="M1034.31,-542.73C1022.66,-533.61 1004,-519 988.63,-506.96"/>
<polygon fill="midnightblue" stroke="midnightblue" points="990.52,-504 980.49,-500.59 986.21,-509.51 990.52,-504"/>
</g>
<!-- Node34&#45;&gt;Node2 -->
<g id="edge59" class="edge">
<title>Node34&#45;&gt;Node2</title>
<path fill="none" stroke="midnightblue" d="M1184.5,-475.73C1199.05,-465.11 1223.78,-447.05 1241.28,-434.26"/>
<polygon fill="midnightblue" stroke="midnightblue" points="1243.68,-436.85 1249.69,-428.13 1239.55,-431.2 1243.68,-436.85"/>
</g>
<!-- Node34&#45;&gt;Node4 -->
<g id="edge60" class="edge">
<title>Node34&#45;&gt;Node4</title>
<path fill="none" stroke="midnightblue" d="M1172.5,-475.73C1172.5,-466.18 1172.5,-450.62 1172.5,-438.28"/>
<polygon fill="midnightblue" stroke="midnightblue" points="1176,-438.13 1172.5,-428.13 1169,-438.13 1176,-438.13"/>
</g>
<!-- Node34&#45;&gt;Node6 -->
<g id="edge61" class="edge">
<title>Node34&#45;&gt;Node6</title>
<path fill="none" stroke="midnightblue" d="M1111.88,-477.78C1032.35,-468.49 897.4,-450.94 850.5,-434 825.19,-424.86 823.77,-412.24 798.5,-403 732.56,-378.9 652.93,-367.65 596.74,-362.43"/>
<polygon fill="midnightblue" stroke="midnightblue" points="596.79,-358.92 586.52,-361.53 596.18,-365.9 596.79,-358.92"/>
</g>
</g>
</svg>
        <g id="navigator" transform="translate(0 0)" fill="#404254">
                <rect fill="#f2f5e9" fill-opacity="0.5" stroke="#606060" stroke-width=".5" x="0" y="0" width="60" height="60"/>
                <use id="zoomplus" xlink:href="#zoomPlus" x="17" y="9" onmousedown="handleZoom(evt,'in')"/>
                <use id="zoomminus" xlink:href="#zoomMin" x="42" y="9" onmousedown="handleZoom(evt,'out')"/>
                <use id="reset" xlink:href="#resetDef" x="30" y="36" onmousedown="handleReset()"/>
                <g id="arrowUp" xlink:href="#dirArrow" transform="translate(30 24)" onmousedown="handlePan(0,-1)">
                  <use xlink:href="#rim" fill="#404040">
                        <set attributeName="fill" to="#808080" begin="arrowUp.mouseover" end="arrowUp.mouseout"/>
                  </use>
                  <path fill="none" stroke="white" stroke-width="1.5" d="M0,-3.0v7 M-2.5,-0.5L0,-3.0L2.5,-0.5"/>
                </g>
                <g id="arrowRight" xlink:href="#dirArrow" transform="rotate(90) translate(36 -43)" onmousedown="handlePan(1,0)">
                  <use xlink:href="#rim" fill="#404040">
                        <set attributeName="fill" to="#808080" begin="arrowRight.mouseover" end="arrowRight.mouseout"/>
                  </use>
                  <path fill="none" stroke="white" stroke-width="1.5" d="M0,-3.0v7 M-2.5,-0.5L0,-3.0L2.5,-0.5"/>
                </g>
                <g id="arrowDown" xlink:href="#dirArrow" transform="rotate(180) translate(-30 -48)" onmousedown="handlePan(0,1)">
                  <use xlink:href="#rim" fill="#404040">
                        <set attributeName="fill" to="#808080" begin="arrowDown.mouseover" end="arrowDown.mouseout"/>
                  </use>
                  <path fill="none" stroke="white" stroke-width="1.5" d="M0,-3.0v7 M-2.5,-0.5L0,-3.0L2.5,-0.5"/>
                </g>
                <g id="arrowLeft" xlink:href="#dirArrow" transform="rotate(270) translate(-36 17)" onmousedown="handlePan(-1,0)">
                  <use xlink:href="#rim" fill="#404040">
                        <set attributeName="fill" to="#808080" begin="arrowLeft.mouseover" end="arrowLeft.mouseout"/>
                  </use>
                  <path fill="none" stroke="white" stroke-width="1.5" d="M0,-3.0v7 M-2.5,-0.5L0,-3.0L2.5,-0.5"/>
                </g>
        </g>
        <svg viewBox="0 0 15 15" width="100%" height="30px" preserveAspectRatio="xMaxYMin meet">
         <g id="arrow_out" transform="scale(0.3 0.3)">
          <a xlink:href="collective__allocator_8hpp__incl_org.svg" target="_base">
           <rect id="button" ry="5" rx="5" y="6" x="6" height="38" width="38"
                fill="#f2f5e9" fill-opacity="0.5" stroke="#606060" stroke-width="1.0"/>
           <path id="arrow"
             d="M 11.500037,31.436501 C 11.940474,20.09759 22.043105,11.32322 32.158766,21.979434 L 37.068811,17.246167 C 37.068811,17.246167 37.088388,32 37.088388,32 L 22.160133,31.978069 C 22.160133,31.978069 26.997745,27.140456 26.997745,27.140456 C 18.528582,18.264221 13.291696,25.230495 11.500037,31.436501 z"
             style="fill:#404040;"/>
          </a>
         </g>
        </svg>
</svg>
