<?xml version="1.0" encoding="UTF-8" standalone="no"?>
<!DOCTYPE svg PUBLIC "-//W3C//DTD SVG 1.1//EN"
 "http://www.w3.org/Graphics/SVG/1.1/DTD/svg11.dtd">
<!-- Generated by graphviz version 2.43.0 (0)
 -->
<!-- Title: /home/projectcs&#45;2022/argodsmBuffer/argodsmPrefetching/src/data_distribution/data_distribution.hpp Pages: 1 -->
<svg width="869pt" height="285pt"
 viewBox="0.00 0.00 869.00 285.00" xmlns="http://www.w3.org/2000/svg" xmlns:xlink="http://www.w3.org/1999/xlink">
<g id="graph0" class="graph" transform="scale(1 1) rotate(0) translate(4 281)">
<title>/home/projectcs&#45;2022/argodsmBuffer/argodsmPrefetching/src/data_distribution/data_distribution.hpp</title>
<polygon fill="white" stroke="transparent" points="-4,4 -4,-281 865,-281 865,4 -4,4"/>
<!-- Node1 -->
<g id="node1" class="node">
<title>Node1</title>
<g id="a_node1"><a xlink:title="This file provides an abstraction layer for distributing the shared memory space.">
<polygon fill="#bfbfbf" stroke="black" points="447.5,-224.5 447.5,-276.5 640.5,-276.5 640.5,-224.5 447.5,-224.5"/>
<text text-anchor="start" x="455.5" y="-264.5" font-family="Helvetica,sans-Serif" font-size="10.00">/home/projectcs&#45;2022</text>
<text text-anchor="start" x="455.5" y="-253.5" font-family="Helvetica,sans-Serif" font-size="10.00">/argodsmBuffer/argodsmPrefetching</text>
<text text-anchor="start" x="455.5" y="-242.5" font-family="Helvetica,sans-Serif" font-size="10.00">/src/data_distribution/data</text>
<text text-anchor="middle" x="544" y="-231.5" font-family="Helvetica,sans-Serif" font-size="10.00">_distribution.hpp</text>
</a>
</g>
</g>
<!-- Node2 -->
<g id="node2" class="node">
<title>Node2</title>
<g id="a_node2"><a xlink:href="base__distribution_8hpp.html" target="_top" xlink:title="This file implements the base distribution class for all the policies to derive from.">
<polygon fill="white" stroke="black" points="483,-112.5 483,-131.5 605,-131.5 605,-112.5 483,-112.5"/>
<text text-anchor="middle" x="544" y="-119.5" font-family="Helvetica,sans-Serif" font-size="10.00">base_distribution.hpp</text>
</a>
</g>
</g>
<!-- Node1&#45;&gt;Node2 -->
<g id="edge1" class="edge">
<title>Node1&#45;&gt;Node2</title>
<path fill="none" stroke="midnightblue" d="M600.18,-224.33C624.35,-209.73 644.34,-189.92 631,-168 621.54,-152.46 604.79,-142.05 588.5,-135.19"/>
<polygon fill="midnightblue" stroke="midnightblue" points="589.6,-131.87 579.01,-131.55 587.1,-138.4 589.6,-131.87"/>
</g>
<!-- Node6 -->
<g id="node6" class="node">
<title>Node6</title>
<g id="a_node6"><a xlink:href="env_8hpp.html" target="_top" xlink:title="This file provides facilities for handling environment variables.">
<polygon fill="white" stroke="black" points="785,-56.5 785,-75.5 861,-75.5 861,-56.5 785,-56.5"/>
<text text-anchor="middle" x="823" y="-63.5" font-family="Helvetica,sans-Serif" font-size="10.00">env/env.hpp</text>
</a>
</g>
</g>
<!-- Node1&#45;&gt;Node6 -->
<g id="edge20" class="edge">
<title>Node1&#45;&gt;Node6</title>
<path fill="none" stroke="midnightblue" d="M640.56,-241.99C715.53,-233.92 810.69,-217.98 835,-188 858.84,-158.6 843.4,-111.03 832.01,-85.16"/>
<polygon fill="midnightblue" stroke="midnightblue" points="835.04,-83.39 827.64,-75.81 828.7,-86.35 835.04,-83.39"/>
</g>
<!-- Node9 -->
<g id="node9" class="node">
<title>Node9</title>
<g id="a_node9"><a xlink:href="cyclic__distribution_8hpp.html" target="_top" xlink:title="This file implements the cyclic data distribution.">
<polygon fill="white" stroke="black" points="0,-168.5 0,-187.5 126,-187.5 126,-168.5 0,-168.5"/>
<text text-anchor="middle" x="63" y="-175.5" font-family="Helvetica,sans-Serif" font-size="10.00">cyclic_distribution.hpp</text>
</a>
</g>
</g>
<!-- Node1&#45;&gt;Node9 -->
<g id="edge8" class="edge">
<title>Node1&#45;&gt;Node9</title>
<path fill="none" stroke="midnightblue" d="M447.24,-235.32C353.49,-221.58 213.7,-201.09 131.11,-188.98"/>
<polygon fill="midnightblue" stroke="midnightblue" points="131.48,-185.5 121.08,-187.51 130.46,-192.43 131.48,-185.5"/>
</g>
<!-- Node10 -->
<g id="node10" class="node">
<title>Node10</title>
<g id="a_node10"><a xlink:href="first__touch__distribution_8hpp.html" target="_top" xlink:title="This file implements the first&#45;touch data distribution.">
<polygon fill="white" stroke="black" points="677.5,-168.5 677.5,-187.5 826.5,-187.5 826.5,-168.5 677.5,-168.5"/>
<text text-anchor="middle" x="752" y="-175.5" font-family="Helvetica,sans-Serif" font-size="10.00">first_touch_distribution.hpp</text>
</a>
</g>
</g>
<!-- Node1&#45;&gt;Node10 -->
<g id="edge10" class="edge">
<title>Node1&#45;&gt;Node10</title>
<path fill="none" stroke="midnightblue" d="M617.92,-224.45C651.67,-213.01 690.05,-200 717.08,-190.84"/>
<polygon fill="midnightblue" stroke="midnightblue" points="718.5,-194.05 726.84,-187.53 716.25,-187.42 718.5,-194.05"/>
</g>
<!-- Node12 -->
<g id="node12" class="node">
<title>Node12</title>
<g id="a_node12"><a xlink:href="naive__distribution_8hpp.html" target="_top" xlink:title="This file implements the naive data distribution.">
<polygon fill="white" stroke="black" points="144.5,-168.5 144.5,-187.5 269.5,-187.5 269.5,-168.5 144.5,-168.5"/>
<text text-anchor="middle" x="207" y="-175.5" font-family="Helvetica,sans-Serif" font-size="10.00">naive_distribution.hpp</text>
</a>
</g>
</g>
<!-- Node1&#45;&gt;Node12 -->
<g id="edge14" class="edge">
<title>Node1&#45;&gt;Node12</title>
<path fill="none" stroke="midnightblue" d="M447.43,-229.3C385.56,-216.36 307.77,-200.08 257.72,-189.61"/>
<polygon fill="midnightblue" stroke="midnightblue" points="258.29,-186.15 247.78,-187.53 256.85,-193 258.29,-186.15"/>
</g>
<!-- Node13 -->
<g id="node13" class="node">
<title>Node13</title>
<g id="a_node13"><a xlink:href="prime__mapp__distribution_8hpp.html" target="_top" xlink:title="This file implements the prime&#45;mapp data distribution.">
<polygon fill="white" stroke="black" points="288,-168.5 288,-187.5 448,-187.5 448,-168.5 288,-168.5"/>
<text text-anchor="middle" x="368" y="-175.5" font-family="Helvetica,sans-Serif" font-size="10.00">prime_mapp_distribution.hpp</text>
</a>
</g>
</g>
<!-- Node1&#45;&gt;Node13 -->
<g id="edge16" class="edge">
<title>Node1&#45;&gt;Node13</title>
<path fill="none" stroke="midnightblue" d="M481.45,-224.45C453.4,-213.21 421.56,-200.45 398.77,-191.33"/>
<polygon fill="midnightblue" stroke="midnightblue" points="399.87,-188 389.29,-187.53 397.27,-194.49 399.87,-188"/>
</g>
<!-- Node14 -->
<g id="node14" class="node">
<title>Node14</title>
<g id="a_node14"><a xlink:href="skew__mapp__distribution_8hpp.html" target="_top" xlink:title="This file implements the skew&#45;mapp data distribution.">
<polygon fill="white" stroke="black" points="466,-168.5 466,-187.5 622,-187.5 622,-168.5 466,-168.5"/>
<text text-anchor="middle" x="544" y="-175.5" font-family="Helvetica,sans-Serif" font-size="10.00">skew_mapp_distribution.hpp</text>
</a>
</g>
</g>
<!-- Node1&#45;&gt;Node14 -->
<g id="edge18" class="edge">
<title>Node1&#45;&gt;Node14</title>
<path fill="none" stroke="midnightblue" d="M544,-224.45C544,-215.73 544,-206.1 544,-197.96"/>
<polygon fill="midnightblue" stroke="midnightblue" points="547.5,-197.7 544,-187.7 540.5,-197.7 547.5,-197.7"/>
</g>
<!-- Node3 -->
<g id="node3" class="node">
<title>Node3</title>
<g id="a_node3"><a xlink:title=" ">
<polygon fill="white" stroke="#bfbfbf" points="432.5,-56.5 432.5,-75.5 481.5,-75.5 481.5,-56.5 432.5,-56.5"/>
<text text-anchor="middle" x="457" y="-63.5" font-family="Helvetica,sans-Serif" font-size="10.00">cstdlib</text>
</a>
</g>
</g>
<!-- Node2&#45;&gt;Node3 -->
<g id="edge2" class="edge">
<title>Node2&#45;&gt;Node3</title>
<path fill="none" stroke="midnightblue" d="M530.02,-112.32C516.45,-103.9 495.62,-90.97 479.68,-81.07"/>
<polygon fill="midnightblue" stroke="midnightblue" points="481.29,-77.95 470.94,-75.65 477.59,-83.9 481.29,-77.95"/>
</g>
<!-- Node4 -->
<g id="node4" class="node">
<title>Node4</title>
<g id="a_node4"><a xlink:title=" ">
<polygon fill="white" stroke="#bfbfbf" points="500,-56.5 500,-75.5 560,-75.5 560,-56.5 500,-56.5"/>
<text text-anchor="middle" x="530" y="-63.5" font-family="Helvetica,sans-Serif" font-size="10.00">iostream</text>
</a>
</g>
</g>
<!-- Node2&#45;&gt;Node4 -->
<g id="edge3" class="edge">
<title>Node2&#45;&gt;Node4</title>
<path fill="none" stroke="midnightblue" d="M541.69,-112.08C539.83,-104.93 537.16,-94.64 534.85,-85.69"/>
<polygon fill="midnightblue" stroke="midnightblue" points="538.17,-84.55 532.27,-75.75 531.39,-86.31 538.17,-84.55"/>
</g>
<!-- Node5 -->
<g id="node5" class="node">
<title>Node5</title>
<g id="a_node5"><a xlink:title=" ">
<polygon fill="white" stroke="#bfbfbf" points="692,-56.5 692,-75.5 736,-75.5 736,-56.5 692,-56.5"/>
<text text-anchor="middle" x="714" y="-63.5" font-family="Helvetica,sans-Serif" font-size="10.00">string</text>
</a>
</g>
</g>
<!-- Node2&#45;&gt;Node5 -->
<g id="edge4" class="edge">
<title>Node2&#45;&gt;Node5</title>
<path fill="none" stroke="midnightblue" d="M570.94,-112.44C601.1,-102.86 649.94,-87.35 682.01,-77.16"/>
<polygon fill="midnightblue" stroke="midnightblue" points="683.32,-80.42 691.79,-74.05 681.2,-73.75 683.32,-80.42"/>
</g>
<!-- Node2&#45;&gt;Node6 -->
<g id="edge5" class="edge">
<title>Node2&#45;&gt;Node6</title>
<path fill="none" stroke="midnightblue" d="M588.21,-112.44C639.06,-102.6 722.27,-86.5 774.76,-76.34"/>
<polygon fill="midnightblue" stroke="midnightblue" points="775.67,-79.72 784.83,-74.39 774.34,-72.85 775.67,-79.72"/>
</g>
<!-- Node8 -->
<g id="node8" class="node">
<title>Node8</title>
<g id="a_node8"><a xlink:href="types_8hpp.html" target="_top" xlink:title="This file defines common types used in ArgoDSM.">
<polygon fill="white" stroke="black" points="578.5,-56.5 578.5,-75.5 673.5,-75.5 673.5,-56.5 578.5,-56.5"/>
<text text-anchor="middle" x="626" y="-63.5" font-family="Helvetica,sans-Serif" font-size="10.00">types/types.hpp</text>
</a>
</g>
</g>
<!-- Node2&#45;&gt;Node8 -->
<g id="edge7" class="edge">
<title>Node2&#45;&gt;Node8</title>
<path fill="none" stroke="midnightblue" d="M557.17,-112.32C569.85,-103.98 589.23,-91.21 604.21,-81.35"/>
<polygon fill="midnightblue" stroke="midnightblue" points="606.43,-84.08 612.86,-75.65 602.58,-78.23 606.43,-84.08"/>
</g>
<!-- Node7 -->
<g id="node7" class="node">
<title>Node7</title>
<g id="a_node7"><a xlink:title=" ">
<polygon fill="white" stroke="#bfbfbf" points="796.5,-0.5 796.5,-19.5 849.5,-19.5 849.5,-0.5 796.5,-0.5"/>
<text text-anchor="middle" x="823" y="-7.5" font-family="Helvetica,sans-Serif" font-size="10.00">cstddef</text>
</a>
</g>
</g>
<!-- Node6&#45;&gt;Node7 -->
<g id="edge6" class="edge">
<title>Node6&#45;&gt;Node7</title>
<path fill="none" stroke="midnightblue" d="M823,-56.08C823,-49.01 823,-38.86 823,-29.99"/>
<polygon fill="midnightblue" stroke="midnightblue" points="826.5,-29.75 823,-19.75 819.5,-29.75 826.5,-29.75"/>
</g>
<!-- Node9&#45;&gt;Node2 -->
<g id="edge9" class="edge">
<title>Node9&#45;&gt;Node2</title>
<path fill="none" stroke="midnightblue" d="M126.21,-169.05C129.18,-168.69 132.12,-168.34 135,-168 253.39,-154.09 391.21,-139.19 472.83,-130.51"/>
<polygon fill="midnightblue" stroke="midnightblue" points="473.42,-133.97 482.99,-129.43 472.68,-127.01 473.42,-133.97"/>
</g>
<!-- Node10&#45;&gt;Node2 -->
<g id="edge13" class="edge">
<title>Node10&#45;&gt;Node2</title>
<path fill="none" stroke="midnightblue" d="M719.04,-168.44C683.21,-159.14 625.84,-144.25 586.61,-134.06"/>
<polygon fill="midnightblue" stroke="midnightblue" points="587.36,-130.64 576.8,-131.52 585.6,-137.42 587.36,-130.64"/>
</g>
<!-- Node10&#45;&gt;Node5 -->
<g id="edge12" class="edge">
<title>Node10&#45;&gt;Node5</title>
<path fill="none" stroke="midnightblue" d="M748.06,-168.49C743.99,-159.53 737.61,-144.94 733,-132 727.46,-116.42 722.27,-98.35 718.72,-85.22"/>
<polygon fill="midnightblue" stroke="midnightblue" points="722.1,-84.29 716.15,-75.51 715.33,-86.08 722.1,-84.29"/>
</g>
<!-- Node11 -->
<g id="node11" class="node">
<title>Node11</title>
<g id="a_node11"><a xlink:title=" ">
<polygon fill="white" stroke="#bfbfbf" points="742,-112.5 742,-131.5 790,-131.5 790,-112.5 742,-112.5"/>
<text text-anchor="middle" x="766" y="-119.5" font-family="Helvetica,sans-Serif" font-size="10.00">mutex</text>
</a>
</g>
</g>
<!-- Node10&#45;&gt;Node11 -->
<g id="edge11" class="edge">
<title>Node10&#45;&gt;Node11</title>
<path fill="none" stroke="midnightblue" d="M754.31,-168.08C756.17,-160.93 758.84,-150.64 761.15,-141.69"/>
<polygon fill="midnightblue" stroke="midnightblue" points="764.61,-142.31 763.73,-131.75 757.83,-140.55 764.61,-142.31"/>
</g>
<!-- Node12&#45;&gt;Node2 -->
<g id="edge15" class="edge">
<title>Node12&#45;&gt;Node2</title>
<path fill="none" stroke="midnightblue" d="M260.4,-168.44C320.3,-158.85 417.37,-143.29 480.95,-133.1"/>
<polygon fill="midnightblue" stroke="midnightblue" points="481.53,-136.55 490.85,-131.52 480.42,-129.64 481.53,-136.55"/>
</g>
<!-- Node13&#45;&gt;Node2 -->
<g id="edge17" class="edge">
<title>Node13&#45;&gt;Node2</title>
<path fill="none" stroke="midnightblue" d="M395.89,-168.44C425.75,-159.28 473.31,-144.69 506.46,-134.52"/>
<polygon fill="midnightblue" stroke="midnightblue" points="507.71,-137.8 516.24,-131.52 505.66,-131.1 507.71,-137.8"/>
</g>
<!-- Node14&#45;&gt;Node2 -->
<g id="edge19" class="edge">
<title>Node14&#45;&gt;Node2</title>
<path fill="none" stroke="midnightblue" d="M544,-168.08C544,-161.01 544,-150.86 544,-141.99"/>
<polygon fill="midnightblue" stroke="midnightblue" points="547.5,-141.75 544,-131.75 540.5,-141.75 547.5,-141.75"/>
</g>
</g>
</svg>
