<?xml version="1.0" encoding="UTF-8" standalone="no"?>
<!DOCTYPE svg PUBLIC "-//W3C//DTD SVG 1.1//EN"
 "http://www.w3.org/Graphics/SVG/1.1/DTD/svg11.dtd">
<!-- Generated by graphviz version 2.43.0 (0)
 -->
<!-- Title: /home/projectcs&#45;2022/argodsmBuffer/argodsmPrefetching/src/mempools Pages: 1 -->
<svg width="174pt" height="311pt"
 viewBox="0.00 0.00 174.00 311.00" xmlns="http://www.w3.org/2000/svg" xmlns:xlink="http://www.w3.org/1999/xlink">
<g id="graph0" class="graph" transform="scale(1 1) rotate(0) translate(4 307)">
<title>/home/projectcs&#45;2022/argodsmBuffer/argodsmPrefetching/src/mempools</title>
<polygon fill="white" stroke="transparent" points="-4,4 -4,-307 170,-307 170,4 -4,4"/>
<g id="clust1" class="cluster">
<title>clusterdir_68267d1309a1af8e8297ef4c3efbcdba</title>
<g id="a_clust1"><a xlink:href="dir_68267d1309a1af8e8297ef4c3efbcdba.html" target="_top" xlink:title="src">
<polygon fill="#ddddee" stroke="black" points="8,-8 8,-295 158,-295 158,-8 8,-8"/>
<text text-anchor="middle" x="83" y="-283" font-family="Helvetica,sans-Serif" font-size="10.00">src</text>
</a>
</g>
</g>
<!-- dir_1261e2a6fb671f7d089a05433e0b6ee6 -->
<g id="node1" class="node">
<title>dir_1261e2a6fb671f7d089a05433e0b6ee6</title>
<g id="a_node1"><a xlink:href="dir_1261e2a6fb671f7d089a05433e0b6ee6.html" target="_top" xlink:title="synchronization">
<polygon fill="white" stroke="red" points="130,-196 36,-196 36,-160 130,-160 130,-196"/>
<text text-anchor="middle" x="83" y="-175.5" font-family="Helvetica,sans-Serif" font-size="10.00">synchronization</text>
</a>
</g>
</g>
<!-- dir_303c75b2167b8ee1fb608a7a61a02a87 -->
<g id="node2" class="node">
<title>dir_303c75b2167b8ee1fb608a7a61a02a87</title>
<g id="a_node2"><a xlink:href="dir_303c75b2167b8ee1fb608a7a61a02a87.html" target="_top" xlink:title="data_distribution">
<polygon fill="none" stroke="black" points="115.5,-52 16.5,-52 16.5,-16 115.5,-16 115.5,-52"/>
<text text-anchor="middle" x="66" y="-31.5" font-family="Helvetica,sans-Serif" font-size="10.00">data_distribution</text>
</a>
</g>
</g>
<!-- dir_1261e2a6fb671f7d089a05433e0b6ee6&#45;&gt;dir_303c75b2167b8ee1fb608a7a61a02a87 -->
<g id="edge6" class="edge">
<title>dir_1261e2a6fb671f7d089a05433e0b6ee6&#45;&gt;dir_303c75b2167b8ee1fb608a7a61a02a87</title>
<path fill="none" stroke="black" d="M74.28,-159.83C69.63,-149.69 64.38,-136.44 62,-124 58.11,-103.62 59.39,-80.16 61.5,-62.44"/>
<polygon fill="black" stroke="black" points="65.01,-62.61 62.88,-52.23 58.07,-61.67 65.01,-62.61"/>
<g id="a_edge6&#45;headlabel"><a xlink:href="dir_000010_000006.html" target="_top" xlink:title="2">
<text text-anchor="middle" x="67.34" y="-64.05" font-family="Helvetica,sans-Serif" font-size="10.00">2</text>
</a>
</g>
</g>
<!-- dir_3f615ade772d23cefe5e20dcb18424a2 -->
<g id="node3" class="node">
<title>dir_3f615ade772d23cefe5e20dcb18424a2</title>
<g id="a_node3"><a xlink:href="dir_3f615ade772d23cefe5e20dcb18424a2.html" target="_top" xlink:title="backend">
<polygon fill="white" stroke="red" points="127.5,-124 70.5,-124 70.5,-88 127.5,-88 127.5,-124"/>
<text text-anchor="middle" x="99" y="-103.5" font-family="Helvetica,sans-Serif" font-size="10.00">backend</text>
</a>
</g>
</g>
<!-- dir_1261e2a6fb671f7d089a05433e0b6ee6&#45;&gt;dir_3f615ade772d23cefe5e20dcb18424a2 -->
<g id="edge7" class="edge">
<title>dir_1261e2a6fb671f7d089a05433e0b6ee6&#45;&gt;dir_3f615ade772d23cefe5e20dcb18424a2</title>
<path fill="none" stroke="black" d="M81.04,-159.7C82.02,-151.9 83.94,-142.51 86.28,-133.83"/>
<polygon fill="black" stroke="black" points="89.68,-134.69 89.2,-124.1 82.97,-132.68 89.68,-134.69"/>
<g id="a_edge7&#45;headlabel"><a xlink:href="dir_000010_000003.html" target="_top" xlink:title="4">
<text text-anchor="middle" x="91.37" y="-136.45" font-family="Helvetica,sans-Serif" font-size="10.00">4</text>
</a>
</g>
</g>
<!-- dir_3f615ade772d23cefe5e20dcb18424a2&#45;&gt;dir_1261e2a6fb671f7d089a05433e0b6ee6 -->
<g id="edge2" class="edge">
<title>dir_3f615ade772d23cefe5e20dcb18424a2&#45;&gt;dir_1261e2a6fb671f7d089a05433e0b6ee6</title>
<path fill="none" stroke="black" d="M100.99,-124.1C100.02,-131.88 98.11,-141.26 95.78,-149.95"/>
<polygon fill="black" stroke="black" points="92.37,-149.11 92.87,-159.7 99.08,-151.11 92.37,-149.11"/>
<g id="a_edge2&#45;headlabel"><a xlink:href="dir_000003_000010.html" target="_top" xlink:title="1">
<text text-anchor="middle" x="90.68" y="-142.36" font-family="Helvetica,sans-Serif" font-size="10.00">1</text>
</a>
</g>
</g>
<!-- dir_3f615ade772d23cefe5e20dcb18424a2&#45;&gt;dir_303c75b2167b8ee1fb608a7a61a02a87 -->
<g id="edge1" class="edge">
<title>dir_3f615ade772d23cefe5e20dcb18424a2&#45;&gt;dir_303c75b2167b8ee1fb608a7a61a02a87</title>
<path fill="none" stroke="black" d="M90.84,-87.7C87.09,-79.73 82.55,-70.1 78.38,-61.26"/>
<polygon fill="black" stroke="black" points="81.49,-59.66 74.06,-52.1 75.16,-62.64 81.49,-59.66"/>
<g id="a_edge1&#45;headlabel"><a xlink:href="dir_000003_000006.html" target="_top" xlink:title="3">
<text text-anchor="middle" x="85.59" y="-59.2" font-family="Helvetica,sans-Serif" font-size="10.00">3</text>
</a>
</g>
</g>
<!-- dir_2146dfdfab3df05eabf1c1d9a0b60864 -->
<g id="node4" class="node">
<title>dir_2146dfdfab3df05eabf1c1d9a0b60864</title>
<g id="a_node4"><a xlink:href="dir_2146dfdfab3df05eabf1c1d9a0b60864.html" target="_top" xlink:title="mempools">
<polygon fill="#eeeeff" stroke="black" points="117,-268 49,-268 49,-232 117,-232 117,-268"/>
<text text-anchor="middle" x="83" y="-247.5" font-family="Helvetica,sans-Serif" font-size="10.00">mempools</text>
</a>
</g>
</g>
<!-- dir_2146dfdfab3df05eabf1c1d9a0b60864&#45;&gt;dir_1261e2a6fb671f7d089a05433e0b6ee6 -->
<g id="edge3" class="edge">
<title>dir_2146dfdfab3df05eabf1c1d9a0b60864&#45;&gt;dir_1261e2a6fb671f7d089a05433e0b6ee6</title>
<path fill="none" stroke="black" d="M83,-231.7C83,-223.98 83,-214.71 83,-206.11"/>
<polygon fill="black" stroke="black" points="86.5,-206.1 83,-196.1 79.5,-206.1 86.5,-206.1"/>
<g id="a_edge3&#45;headlabel"><a xlink:href="dir_000008_000010.html" target="_top" xlink:title="2">
<text text-anchor="middle" x="89.34" y="-207.2" font-family="Helvetica,sans-Serif" font-size="10.00">2</text>
</a>
</g>
</g>
<!-- dir_2146dfdfab3df05eabf1c1d9a0b60864&#45;&gt;dir_303c75b2167b8ee1fb608a7a61a02a87 -->
<g id="edge4" class="edge">
<title>dir_2146dfdfab3df05eabf1c1d9a0b60864&#45;&gt;dir_303c75b2167b8ee1fb608a7a61a02a87</title>
<path fill="none" stroke="black" d="M56.88,-231.82C45.42,-222.69 33.19,-210.39 27,-196 7.44,-150.56 31.78,-93.49 49.85,-60.94"/>
<polygon fill="black" stroke="black" points="53.01,-62.46 54.97,-52.05 46.94,-58.97 53.01,-62.46"/>
<g id="a_edge4&#45;headlabel"><a xlink:href="dir_000008_000006.html" target="_top" xlink:title="1">
<text text-anchor="middle" x="53.68" y="-64.5" font-family="Helvetica,sans-Serif" font-size="10.00">1</text>
</a>
</g>
</g>
<!-- dir_2146dfdfab3df05eabf1c1d9a0b60864&#45;&gt;dir_3f615ade772d23cefe5e20dcb18424a2 -->
<g id="edge5" class="edge">
<title>dir_2146dfdfab3df05eabf1c1d9a0b60864&#45;&gt;dir_3f615ade772d23cefe5e20dcb18424a2</title>
<path fill="none" stroke="black" d="M109.12,-231.82C120.58,-222.69 132.81,-210.39 139,-196 145.33,-181.3 144.08,-175.17 139,-160 135.65,-150 129.58,-140.38 123.17,-132.14"/>
<polygon fill="black" stroke="black" points="125.82,-129.85 116.73,-124.4 120.44,-134.33 125.82,-129.85"/>
<g id="a_edge5&#45;headlabel"><a xlink:href="dir_000008_000003.html" target="_top" xlink:title="2">
<text text-anchor="middle" x="130.3" y="-128.3" font-family="Helvetica,sans-Serif" font-size="10.00">2</text>
</a>
</g>
</g>
</g>
</svg>
