<?xml version="1.0" encoding="UTF-8" standalone="no"?>
<!DOCTYPE svg PUBLIC "-//W3C//DTD SVG 1.1//EN"
 "http://www.w3.org/Graphics/SVG/1.1/DTD/svg11.dtd">
<!-- Generated by graphviz version 2.43.0 (0)
 -->
<!-- Title: /home/projectcs&#45;2022/argodsmBuffer/argodsmPrefetching/src/allocators Pages: 1 -->
<svg width="128pt" height="239pt"
 viewBox="0.00 0.00 128.00 239.00" xmlns="http://www.w3.org/2000/svg" xmlns:xlink="http://www.w3.org/1999/xlink">
<g id="graph0" class="graph" transform="scale(1 1) rotate(0) translate(4 235)">
<title>/home/projectcs&#45;2022/argodsmBuffer/argodsmPrefetching/src/allocators</title>
<polygon fill="white" stroke="transparent" points="-4,4 -4,-235 124,-235 124,4 -4,4"/>
<g id="clust1" class="cluster">
<title>clusterdir_68267d1309a1af8e8297ef4c3efbcdba</title>
<g id="a_clust1"><a xlink:href="dir_68267d1309a1af8e8297ef4c3efbcdba.html" target="_top" xlink:title="src">
<polygon fill="#ddddee" stroke="black" points="8,-8 8,-223 112,-223 112,-8 8,-8"/>
<text text-anchor="middle" x="60" y="-211" font-family="Helvetica,sans-Serif" font-size="10.00">src</text>
</a>
</g>
</g>
<!-- dir_2146dfdfab3df05eabf1c1d9a0b60864 -->
<g id="node1" class="node">
<title>dir_2146dfdfab3df05eabf1c1d9a0b60864</title>
<g id="a_node1"><a xlink:href="dir_2146dfdfab3df05eabf1c1d9a0b60864.html" target="_top" xlink:title="mempools">
<polygon fill="none" stroke="black" points="84,-124 16,-124 16,-88 84,-88 84,-124"/>
<text text-anchor="middle" x="50" y="-103.5" font-family="Helvetica,sans-Serif" font-size="10.00">mempools</text>
</a>
</g>
</g>
<!-- dir_3f615ade772d23cefe5e20dcb18424a2 -->
<g id="node2" class="node">
<title>dir_3f615ade772d23cefe5e20dcb18424a2</title>
<g id="a_node2"><a xlink:href="dir_3f615ade772d23cefe5e20dcb18424a2.html" target="_top" xlink:title="backend">
<polygon fill="white" stroke="red" points="90.5,-52 33.5,-52 33.5,-16 90.5,-16 90.5,-52"/>
<text text-anchor="middle" x="62" y="-31.5" font-family="Helvetica,sans-Serif" font-size="10.00">backend</text>
</a>
</g>
</g>
<!-- dir_2146dfdfab3df05eabf1c1d9a0b60864&#45;&gt;dir_3f615ade772d23cefe5e20dcb18424a2 -->
<g id="edge1" class="edge">
<title>dir_2146dfdfab3df05eabf1c1d9a0b60864&#45;&gt;dir_3f615ade772d23cefe5e20dcb18424a2</title>
<path fill="none" stroke="black" d="M52.97,-87.7C54.29,-79.98 55.88,-70.71 57.35,-62.11"/>
<polygon fill="black" stroke="black" points="60.83,-62.55 59.07,-52.1 53.93,-61.37 60.83,-62.55"/>
<g id="a_edge1&#45;headlabel"><a xlink:href="dir_000008_000003.html" target="_top" xlink:title="2">
<text text-anchor="middle" x="63.02" y="-64.07" font-family="Helvetica,sans-Serif" font-size="10.00">2</text>
</a>
</g>
</g>
<!-- dir_6c23b03f1c1f5d39fa4681c6907c68b5 -->
<g id="node3" class="node">
<title>dir_6c23b03f1c1f5d39fa4681c6907c68b5</title>
<g id="a_node3"><a xlink:href="dir_6c23b03f1c1f5d39fa4681c6907c68b5.html" target="_top" xlink:title="allocators">
<polygon fill="#eeeeff" stroke="black" points="92.5,-196 27.5,-196 27.5,-160 92.5,-160 92.5,-196"/>
<text text-anchor="middle" x="60" y="-175.5" font-family="Helvetica,sans-Serif" font-size="10.00">allocators</text>
</a>
</g>
</g>
<!-- dir_6c23b03f1c1f5d39fa4681c6907c68b5&#45;&gt;dir_2146dfdfab3df05eabf1c1d9a0b60864 -->
<g id="edge2" class="edge">
<title>dir_6c23b03f1c1f5d39fa4681c6907c68b5&#45;&gt;dir_2146dfdfab3df05eabf1c1d9a0b60864</title>
<path fill="none" stroke="black" d="M57.53,-159.7C56.43,-151.98 55.1,-142.71 53.87,-134.11"/>
<polygon fill="black" stroke="black" points="57.32,-133.51 52.44,-124.1 50.39,-134.5 57.32,-133.51"/>
<g id="a_edge2&#45;headlabel"><a xlink:href="dir_000001_000008.html" target="_top" xlink:title="4">
<text text-anchor="middle" x="60.64" y="-134.17" font-family="Helvetica,sans-Serif" font-size="10.00">4</text>
</a>
</g>
</g>
<!-- dir_6c23b03f1c1f5d39fa4681c6907c68b5&#45;&gt;dir_3f615ade772d23cefe5e20dcb18424a2 -->
<g id="edge3" class="edge">
<title>dir_6c23b03f1c1f5d39fa4681c6907c68b5&#45;&gt;dir_3f615ade772d23cefe5e20dcb18424a2</title>
<path fill="none" stroke="black" d="M74.33,-159.57C81.45,-149.76 89.31,-136.92 93,-124 97.4,-108.62 97.18,-103.44 93,-88 90.42,-78.48 85.66,-68.92 80.62,-60.59"/>
<polygon fill="black" stroke="black" points="83.51,-58.6 75.15,-52.09 77.62,-62.39 83.51,-58.6"/>
<g id="a_edge3&#45;headlabel"><a xlink:href="dir_000001_000003.html" target="_top" xlink:title="2">
<text text-anchor="middle" x="87.84" y="-57.58" font-family="Helvetica,sans-Serif" font-size="10.00">2</text>
</a>
</g>
</g>
</g>
</svg>
