<?xml version="1.0" encoding="UTF-8" standalone="no"?>
<!DOCTYPE svg PUBLIC "-//W3C//DTD SVG 1.1//EN"
 "http://www.w3.org/Graphics/SVG/1.1/DTD/svg11.dtd">
<!-- Generated by graphviz version 2.43.0 (0)
 -->
<!-- Title: /home/projectcs&#45;2022/argodsmBuffer/argodsmPrefetching/src/synchronization Pages: 1 -->
<svg width="256pt" height="391pt"
 viewBox="0.00 0.00 256.00 391.00" xmlns="http://www.w3.org/2000/svg" xmlns:xlink="http://www.w3.org/1999/xlink">
<g id="graph0" class="graph" transform="scale(1 1) rotate(0) translate(4 387)">
<title>/home/projectcs&#45;2022/argodsmBuffer/argodsmPrefetching/src/synchronization</title>
<polygon fill="white" stroke="transparent" points="-4,4 -4,-387 252,-387 252,4 -4,4"/>
<g id="clust1" class="cluster">
<title>clusterdir_68267d1309a1af8e8297ef4c3efbcdba</title>
<g id="a_clust1"><a xlink:href="dir_68267d1309a1af8e8297ef4c3efbcdba.html" target="_top" xlink:title="src">
<polygon fill="#ddddee" stroke="black" points="8,-8 8,-375 240,-375 240,-8 8,-8"/>
<text text-anchor="middle" x="124" y="-363" font-family="Helvetica,sans-Serif" font-size="10.00">src</text>
</a>
</g>
</g>
<g id="clust2" class="cluster">
<title>clusterdir_1261e2a6fb671f7d089a05433e0b6ee6</title>
<g id="a_clust2"><a xlink:href="dir_1261e2a6fb671f7d089a05433e0b6ee6.html" target="_top">
<polygon fill="#eeeeff" stroke="black" points="16,-224 16,-348 126,-348 126,-224 16,-224"/>
</a>
</g>
</g>
<!-- dir_0c0c9fa8a58db41e576adc3ce68c5ee9 -->
<g id="node1" class="node">
<title>dir_0c0c9fa8a58db41e576adc3ce68c5ee9</title>
<g id="a_node1"><a xlink:href="dir_0c0c9fa8a58db41e576adc3ce68c5ee9.html" target="_top" xlink:title="types">
<polygon fill="none" stroke="black" points="189,-52 135,-52 135,-16 189,-16 189,-52"/>
<text text-anchor="middle" x="162" y="-31.5" font-family="Helvetica,sans-Serif" font-size="10.00">types</text>
</a>
</g>
</g>
<!-- dir_303c75b2167b8ee1fb608a7a61a02a87 -->
<g id="node2" class="node">
<title>dir_303c75b2167b8ee1fb608a7a61a02a87</title>
<g id="a_node2"><a xlink:href="dir_303c75b2167b8ee1fb608a7a61a02a87.html" target="_top" xlink:title="data_distribution">
<polygon fill="none" stroke="black" points="211.5,-124 112.5,-124 112.5,-88 211.5,-88 211.5,-124"/>
<text text-anchor="middle" x="162" y="-103.5" font-family="Helvetica,sans-Serif" font-size="10.00">data_distribution</text>
</a>
</g>
</g>
<!-- dir_303c75b2167b8ee1fb608a7a61a02a87&#45;&gt;dir_0c0c9fa8a58db41e576adc3ce68c5ee9 -->
<g id="edge3" class="edge">
<title>dir_303c75b2167b8ee1fb608a7a61a02a87&#45;&gt;dir_0c0c9fa8a58db41e576adc3ce68c5ee9</title>
<path fill="none" stroke="black" d="M162,-87.7C162,-79.98 162,-70.71 162,-62.11"/>
<polygon fill="black" stroke="black" points="165.5,-62.1 162,-52.1 158.5,-62.1 165.5,-62.1"/>
<g id="a_edge3&#45;headlabel"><a xlink:href="dir_000006_000012.html" target="_top" xlink:title="1">
<text text-anchor="middle" x="168.34" y="-63.2" font-family="Helvetica,sans-Serif" font-size="10.00">1</text>
</a>
</g>
</g>
<!-- dir_3f615ade772d23cefe5e20dcb18424a2 -->
<g id="node3" class="node">
<title>dir_3f615ade772d23cefe5e20dcb18424a2</title>
<g id="a_node3"><a xlink:href="dir_3f615ade772d23cefe5e20dcb18424a2.html" target="_top" xlink:title="backend">
<polygon fill="white" stroke="red" points="215.5,-196 158.5,-196 158.5,-160 215.5,-160 215.5,-196"/>
<text text-anchor="middle" x="187" y="-175.5" font-family="Helvetica,sans-Serif" font-size="10.00">backend</text>
</a>
</g>
</g>
<!-- dir_3f615ade772d23cefe5e20dcb18424a2&#45;&gt;dir_0c0c9fa8a58db41e576adc3ce68c5ee9 -->
<g id="edge1" class="edge">
<title>dir_3f615ade772d23cefe5e20dcb18424a2&#45;&gt;dir_0c0c9fa8a58db41e576adc3ce68c5ee9</title>
<path fill="none" stroke="black" d="M201.8,-159.71C215.4,-141.61 231.91,-112.47 221,-88 215.83,-76.41 206.73,-66.29 197.21,-58.09"/>
<polygon fill="black" stroke="black" points="199.17,-55.18 189.18,-51.66 194.8,-60.65 199.17,-55.18"/>
<g id="a_edge1&#45;headlabel"><a xlink:href="dir_000003_000012.html" target="_top" xlink:title="3">
<text text-anchor="middle" x="203.76" y="-52.71" font-family="Helvetica,sans-Serif" font-size="10.00">3</text>
</a>
</g>
</g>
<!-- dir_3f615ade772d23cefe5e20dcb18424a2&#45;&gt;dir_303c75b2167b8ee1fb608a7a61a02a87 -->
<g id="edge2" class="edge">
<title>dir_3f615ade772d23cefe5e20dcb18424a2&#45;&gt;dir_303c75b2167b8ee1fb608a7a61a02a87</title>
<path fill="none" stroke="black" d="M180.82,-159.7C178,-151.81 174.61,-142.3 171.48,-133.55"/>
<polygon fill="black" stroke="black" points="174.77,-132.34 168.11,-124.1 168.18,-134.7 174.77,-132.34"/>
<g id="a_edge2&#45;headlabel"><a xlink:href="dir_000003_000006.html" target="_top" xlink:title="3">
<text text-anchor="middle" x="178.65" y="-132.27" font-family="Helvetica,sans-Serif" font-size="10.00">3</text>
</a>
</g>
</g>
<!-- dir_6c23b03f1c1f5d39fa4681c6907c68b5 -->
<g id="node4" class="node">
<title>dir_6c23b03f1c1f5d39fa4681c6907c68b5</title>
<g id="a_node4"><a xlink:href="dir_6c23b03f1c1f5d39fa4681c6907c68b5.html" target="_top" xlink:title="allocators">
<polygon fill="none" stroke="black" points="231.5,-268 166.5,-268 166.5,-232 231.5,-232 231.5,-268"/>
<text text-anchor="middle" x="199" y="-247.5" font-family="Helvetica,sans-Serif" font-size="10.00">allocators</text>
</a>
</g>
</g>
<!-- dir_6c23b03f1c1f5d39fa4681c6907c68b5&#45;&gt;dir_3f615ade772d23cefe5e20dcb18424a2 -->
<g id="edge9" class="edge">
<title>dir_6c23b03f1c1f5d39fa4681c6907c68b5&#45;&gt;dir_3f615ade772d23cefe5e20dcb18424a2</title>
<path fill="none" stroke="black" d="M196.03,-231.7C194.71,-223.98 193.12,-214.71 191.65,-206.11"/>
<polygon fill="black" stroke="black" points="195.07,-205.37 189.93,-196.1 188.17,-206.55 195.07,-205.37"/>
<g id="a_edge9&#45;headlabel"><a xlink:href="dir_000001_000003.html" target="_top" xlink:title="2">
<text text-anchor="middle" x="198.48" y="-205.93" font-family="Helvetica,sans-Serif" font-size="10.00">2</text>
</a>
</g>
</g>
<!-- dir_1261e2a6fb671f7d089a05433e0b6ee6 -->
<g id="node5" class="node">
<title>dir_1261e2a6fb671f7d089a05433e0b6ee6</title>
<text text-anchor="middle" x="71" y="-319.5" font-family="Helvetica,sans-Serif" font-size="10.00">synchronization</text>
</g>
<!-- dir_1261e2a6fb671f7d089a05433e0b6ee6&#45;&gt;dir_0c0c9fa8a58db41e576adc3ce68c5ee9 -->
<g id="edge4" class="edge">
<title>dir_1261e2a6fb671f7d089a05433e0b6ee6&#45;&gt;dir_0c0c9fa8a58db41e576adc3ce68c5ee9</title>
<path fill="none" stroke="black" d="M81.86,-303.56C87.49,-293.56 93.84,-280.52 97,-268 116.61,-190.38 70.29,-160.62 104,-88 109.25,-76.69 118.15,-66.7 127.41,-58.53"/>
<polygon fill="black" stroke="black" points="129.72,-61.16 135.21,-52.1 125.27,-55.76 129.72,-61.16"/>
<g id="a_edge4&#45;headlabel"><a xlink:href="dir_000010_000012.html" target="_top" xlink:title="1">
<text text-anchor="middle" x="128.75" y="-63.14" font-family="Helvetica,sans-Serif" font-size="10.00">1</text>
</a>
</g>
</g>
<!-- dir_1261e2a6fb671f7d089a05433e0b6ee6&#45;&gt;dir_303c75b2167b8ee1fb608a7a61a02a87 -->
<g id="edge5" class="edge">
<title>dir_1261e2a6fb671f7d089a05433e0b6ee6&#45;&gt;dir_303c75b2167b8ee1fb608a7a61a02a87</title>
<path fill="none" stroke="black" d="M86.75,-303.94C95.2,-294.05 105.23,-281 112,-268 124.28,-244.4 144.33,-173.16 154.92,-133.82"/>
<polygon fill="black" stroke="black" points="158.32,-134.65 157.52,-124.09 151.56,-132.85 158.32,-134.65"/>
<g id="a_edge5&#45;headlabel"><a xlink:href="dir_000010_000006.html" target="_top" xlink:title="2">
<text text-anchor="middle" x="160.13" y="-136.36" font-family="Helvetica,sans-Serif" font-size="10.00">2</text>
</a>
</g>
</g>
<!-- dir_1261e2a6fb671f7d089a05433e0b6ee6&#45;&gt;dir_3f615ade772d23cefe5e20dcb18424a2 -->
<g id="edge6" class="edge">
<title>dir_1261e2a6fb671f7d089a05433e0b6ee6&#45;&gt;dir_3f615ade772d23cefe5e20dcb18424a2</title>
<path fill="none" stroke="black" d="M94.05,-303.92C106.21,-294.22 120.87,-281.37 132,-268 146.54,-250.55 146.07,-243.33 158,-224 161.81,-217.84 165.98,-211.25 169.95,-205.08"/>
<polygon fill="black" stroke="black" points="173.06,-206.72 175.55,-196.42 167.18,-202.92 173.06,-206.72"/>
<g id="a_edge6&#45;headlabel"><a xlink:href="dir_000010_000003.html" target="_top" xlink:title="4">
<text text-anchor="middle" x="173.49" y="-208.78" font-family="Helvetica,sans-Serif" font-size="10.00">4</text>
</a>
</g>
</g>
<!-- dir_1261e2a6fb671f7d089a05433e0b6ee6&#45;&gt;dir_6c23b03f1c1f5d39fa4681c6907c68b5 -->
<g id="edge8" class="edge">
<title>dir_1261e2a6fb671f7d089a05433e0b6ee6&#45;&gt;dir_6c23b03f1c1f5d39fa4681c6907c68b5</title>
<path fill="none" stroke="black" d="M102.31,-303.88C119.2,-294.64 140.25,-283.13 158.38,-273.21"/>
<polygon fill="black" stroke="black" points="160.47,-276.06 167.57,-268.19 157.11,-269.92 160.47,-276.06"/>
<g id="a_edge8&#45;headlabel"><a xlink:href="dir_000010_000001.html" target="_top" xlink:title="1">
<text text-anchor="middle" x="158.68" y="-277.77" font-family="Helvetica,sans-Serif" font-size="10.00">1</text>
</a>
</g>
</g>
<!-- dir_4e1a752013cff925742df276cedeae16 -->
<g id="node6" class="node">
<title>dir_4e1a752013cff925742df276cedeae16</title>
<g id="a_node6"><a xlink:href="dir_4e1a752013cff925742df276cedeae16.html" target="_top" xlink:title="intranode">
<polygon fill="white" stroke="black" points="87.5,-268 24.5,-268 24.5,-232 87.5,-232 87.5,-268"/>
<text text-anchor="middle" x="56" y="-247.5" font-family="Helvetica,sans-Serif" font-size="10.00">intranode</text>
</a>
</g>
</g>
<!-- dir_1261e2a6fb671f7d089a05433e0b6ee6&#45;&gt;dir_4e1a752013cff925742df276cedeae16 -->
<g id="edge7" class="edge">
<title>dir_1261e2a6fb671f7d089a05433e0b6ee6&#45;&gt;dir_4e1a752013cff925742df276cedeae16</title>
<path fill="none" stroke="black" d="M67.29,-303.7C65.64,-295.98 63.65,-286.71 61.81,-278.11"/>
<polygon fill="black" stroke="black" points="65.18,-277.15 59.67,-268.1 58.34,-278.62 65.18,-277.15"/>
<g id="a_edge7&#45;headlabel"><a xlink:href="dir_000010_000011.html" target="_top" xlink:title="2">
<text text-anchor="middle" x="68.71" y="-277.57" font-family="Helvetica,sans-Serif" font-size="10.00">2</text>
</a>
</g>
</g>
</g>
</svg>
