<?xml version="1.0" encoding="UTF-8" standalone="no"?>
<!DOCTYPE svg PUBLIC "-//W3C//DTD SVG 1.1//EN"
 "http://www.w3.org/Graphics/SVG/1.1/DTD/svg11.dtd">
<!-- Generated by graphviz version 2.43.0 (0)
 -->
<!-- Title: /home/projectcs&#45;2022/argodsmBuffer/argodsmPrefetching/src/backend Pages: 1 -->
<svg width="378pt" height="266pt"
 viewBox="0.00 0.00 378.00 265.82" xmlns="http://www.w3.org/2000/svg" xmlns:xlink="http://www.w3.org/1999/xlink">
<g id="graph0" class="graph" transform="scale(1 1) rotate(0) translate(4 261.82)">
<title>/home/projectcs&#45;2022/argodsmBuffer/argodsmPrefetching/src/backend</title>
<polygon fill="white" stroke="transparent" points="-4,4 -4,-261.82 374,-261.82 374,4 -4,4"/>
<g id="clust1" class="cluster">
<title>clusterdir_68267d1309a1af8e8297ef4c3efbcdba</title>
<g id="a_clust1"><a xlink:href="dir_68267d1309a1af8e8297ef4c3efbcdba.html" target="_top" xlink:title="src">
<polygon fill="#ddddee" stroke="black" points="8,-8 8,-231 362,-231 362,-8 8,-8"/>
<text text-anchor="middle" x="185" y="-219" font-family="Helvetica,sans-Serif" font-size="10.00">src</text>
</a>
</g>
</g>
<g id="clust2" class="cluster">
<title>clusterdir_3f615ade772d23cefe5e20dcb18424a2</title>
<g id="a_clust2"><a xlink:href="dir_3f615ade772d23cefe5e20dcb18424a2.html" target="_top">
<polygon fill="#eeeeff" stroke="black" points="120,-152 120,-204 354,-204 354,-152 120,-152"/>
</a>
</g>
</g>
<!-- dir_0c0c9fa8a58db41e576adc3ce68c5ee9 -->
<g id="node1" class="node">
<title>dir_0c0c9fa8a58db41e576adc3ce68c5ee9</title>
<g id="a_node1"><a xlink:href="dir_0c0c9fa8a58db41e576adc3ce68c5ee9.html" target="_top" xlink:title="types">
<polygon fill="none" stroke="black" points="120,-52 66,-52 66,-16 120,-16 120,-52"/>
<text text-anchor="middle" x="93" y="-31.5" font-family="Helvetica,sans-Serif" font-size="10.00">types</text>
</a>
</g>
</g>
<!-- dir_303c75b2167b8ee1fb608a7a61a02a87 -->
<g id="node2" class="node">
<title>dir_303c75b2167b8ee1fb608a7a61a02a87</title>
<g id="a_node2"><a xlink:href="dir_303c75b2167b8ee1fb608a7a61a02a87.html" target="_top" xlink:title="data_distribution">
<polygon fill="none" stroke="black" points="201.5,-124 102.5,-124 102.5,-88 201.5,-88 201.5,-124"/>
<text text-anchor="middle" x="152" y="-103.5" font-family="Helvetica,sans-Serif" font-size="10.00">data_distribution</text>
</a>
</g>
</g>
<!-- dir_303c75b2167b8ee1fb608a7a61a02a87&#45;&gt;dir_0c0c9fa8a58db41e576adc3ce68c5ee9 -->
<g id="edge4" class="edge">
<title>dir_303c75b2167b8ee1fb608a7a61a02a87&#45;&gt;dir_0c0c9fa8a58db41e576adc3ce68c5ee9</title>
<path fill="none" stroke="black" d="M137.42,-87.7C130.34,-79.3 121.72,-69.07 113.95,-59.86"/>
<polygon fill="black" stroke="black" points="116.54,-57.49 107.42,-52.1 111.19,-62.01 116.54,-57.49"/>
<g id="a_edge4&#45;headlabel"><a xlink:href="dir_000006_000012.html" target="_top" xlink:title="1">
<text text-anchor="middle" x="121.03" y="-55.91" font-family="Helvetica,sans-Serif" font-size="10.00">1</text>
</a>
</g>
</g>
<!-- dir_51e5b56c5a94789e05e3a3352a90e377 -->
<g id="node4" class="node">
<title>dir_51e5b56c5a94789e05e3a3352a90e377</title>
<g id="a_node4"><a xlink:href="dir_51e5b56c5a94789e05e3a3352a90e377.html" target="_top" xlink:title="env">
<polygon fill="none" stroke="black" points="211,-52 157,-52 157,-16 211,-16 211,-52"/>
<text text-anchor="middle" x="184" y="-31.5" font-family="Helvetica,sans-Serif" font-size="10.00">env</text>
</a>
</g>
</g>
<!-- dir_303c75b2167b8ee1fb608a7a61a02a87&#45;&gt;dir_51e5b56c5a94789e05e3a3352a90e377 -->
<g id="edge5" class="edge">
<title>dir_303c75b2167b8ee1fb608a7a61a02a87&#45;&gt;dir_51e5b56c5a94789e05e3a3352a90e377</title>
<path fill="none" stroke="black" d="M159.91,-87.7C163.55,-79.73 167.95,-70.1 171.99,-61.26"/>
<polygon fill="black" stroke="black" points="175.21,-62.65 176.18,-52.1 168.84,-59.74 175.21,-62.65"/>
<g id="a_edge5&#45;headlabel"><a xlink:href="dir_000006_000007.html" target="_top" xlink:title="3">
<text text-anchor="middle" x="176.29" y="-64.6" font-family="Helvetica,sans-Serif" font-size="10.00">3</text>
</a>
</g>
</g>
<!-- dir_eaca60f7b9e9ea2ccc0f3ac48dc19de2 -->
<g id="node3" class="node">
<title>dir_eaca60f7b9e9ea2ccc0f3ac48dc19de2</title>
<g id="a_node3"><a xlink:href="dir_eaca60f7b9e9ea2ccc0f3ac48dc19de2.html" target="_top" xlink:title="virtual_memory">
<polygon fill="none" stroke="black" points="334.5,-52 239.5,-52 239.5,-16 334.5,-16 334.5,-52"/>
<text text-anchor="middle" x="287" y="-31.5" font-family="Helvetica,sans-Serif" font-size="10.00">virtual_memory</text>
</a>
</g>
</g>
<!-- dir_e681bd22f1a85a89d9c18b68cc50d922 -->
<g id="node5" class="node">
<title>dir_e681bd22f1a85a89d9c18b68cc50d922</title>
<g id="a_node5"><a xlink:href="dir_e681bd22f1a85a89d9c18b68cc50d922.html" target="_top" xlink:title="signal">
<polygon fill="none" stroke="black" points="314,-124 260,-124 260,-88 314,-88 314,-124"/>
<text text-anchor="middle" x="287" y="-103.5" font-family="Helvetica,sans-Serif" font-size="10.00">signal</text>
</a>
</g>
</g>
<!-- dir_e681bd22f1a85a89d9c18b68cc50d922&#45;&gt;dir_eaca60f7b9e9ea2ccc0f3ac48dc19de2 -->
<g id="edge3" class="edge">
<title>dir_e681bd22f1a85a89d9c18b68cc50d922&#45;&gt;dir_eaca60f7b9e9ea2ccc0f3ac48dc19de2</title>
<path fill="none" stroke="black" d="M287,-87.7C287,-79.98 287,-70.71 287,-62.11"/>
<polygon fill="black" stroke="black" points="290.5,-62.1 287,-52.1 283.5,-62.1 290.5,-62.1"/>
<g id="a_edge3&#45;headlabel"><a xlink:href="dir_000009_000013.html" target="_top" xlink:title="1">
<text text-anchor="middle" x="293.34" y="-63.2" font-family="Helvetica,sans-Serif" font-size="10.00">1</text>
</a>
</g>
</g>
<!-- dir_1261e2a6fb671f7d089a05433e0b6ee6 -->
<g id="node6" class="node">
<title>dir_1261e2a6fb671f7d089a05433e0b6ee6</title>
<g id="a_node6"><a xlink:href="dir_1261e2a6fb671f7d089a05433e0b6ee6.html" target="_top" xlink:title="synchronization">
<polygon fill="white" stroke="red" points="110,-196 16,-196 16,-160 110,-160 110,-196"/>
<text text-anchor="middle" x="63" y="-175.5" font-family="Helvetica,sans-Serif" font-size="10.00">synchronization</text>
</a>
</g>
</g>
<!-- dir_1261e2a6fb671f7d089a05433e0b6ee6&#45;&gt;dir_0c0c9fa8a58db41e576adc3ce68c5ee9 -->
<g id="edge11" class="edge">
<title>dir_1261e2a6fb671f7d089a05433e0b6ee6&#45;&gt;dir_0c0c9fa8a58db41e576adc3ce68c5ee9</title>
<path fill="none" stroke="black" d="M65.33,-159.83C67.9,-141.83 72.43,-112.76 78,-88 79.94,-79.38 82.44,-70.07 84.83,-61.7"/>
<polygon fill="black" stroke="black" points="88.2,-62.65 87.66,-52.06 81.48,-60.67 88.2,-62.65"/>
<g id="a_edge11&#45;headlabel"><a xlink:href="dir_000010_000012.html" target="_top" xlink:title="1">
<text text-anchor="middle" x="89.91" y="-64.39" font-family="Helvetica,sans-Serif" font-size="10.00">1</text>
</a>
</g>
</g>
<!-- dir_1261e2a6fb671f7d089a05433e0b6ee6&#45;&gt;dir_303c75b2167b8ee1fb608a7a61a02a87 -->
<g id="edge12" class="edge">
<title>dir_1261e2a6fb671f7d089a05433e0b6ee6&#45;&gt;dir_303c75b2167b8ee1fb608a7a61a02a87</title>
<path fill="none" stroke="black" d="M85,-159.7C96.21,-150.88 110,-140.03 122.15,-130.47"/>
<polygon fill="black" stroke="black" points="124.56,-133.04 130.25,-124.1 120.23,-127.54 124.56,-133.04"/>
<g id="a_edge12&#45;headlabel"><a xlink:href="dir_000010_000006.html" target="_top" xlink:title="2">
<text text-anchor="middle" x="123.49" y="-134.99" font-family="Helvetica,sans-Serif" font-size="10.00">2</text>
</a>
</g>
</g>
<!-- dir_3f615ade772d23cefe5e20dcb18424a2 -->
<g id="node7" class="node">
<title>dir_3f615ade772d23cefe5e20dcb18424a2</title>
<text text-anchor="middle" x="157" y="-175.5" font-family="Helvetica,sans-Serif" font-size="10.00">backend</text>
</g>
<!-- dir_1261e2a6fb671f7d089a05433e0b6ee6&#45;&gt;dir_3f615ade772d23cefe5e20dcb18424a2 -->
<g id="edge13" class="edge">
<title>dir_1261e2a6fb671f7d089a05433e0b6ee6&#45;&gt;dir_3f615ade772d23cefe5e20dcb18424a2</title>
<path fill="none" stroke="black" d="M110.37,-178C112.97,-178 115.57,-178 118.18,-178"/>
<polygon fill="black" stroke="black" points="118.22,-181.5 128.22,-178 118.22,-174.5 118.22,-181.5"/>
<g id="a_edge13&#45;headlabel"><a xlink:href="dir_000010_000003.html" target="_top" xlink:title="4">
<text text-anchor="middle" x="114.62" y="-181.84" font-family="Helvetica,sans-Serif" font-size="10.00">4</text>
</a>
</g>
</g>
<!-- dir_3f615ade772d23cefe5e20dcb18424a2&#45;&gt;dir_0c0c9fa8a58db41e576adc3ce68c5ee9 -->
<g id="edge1" class="edge">
<title>dir_3f615ade772d23cefe5e20dcb18424a2&#45;&gt;dir_0c0c9fa8a58db41e576adc3ce68c5ee9</title>
<path fill="none" stroke="black" d="M134.72,-159.76C117.53,-146.21 96.29,-128.85 94,-124 84.9,-104.73 85.31,-80.39 87.63,-62.03"/>
<polygon fill="black" stroke="black" points="91.11,-62.42 89.16,-52 84.19,-61.36 91.11,-62.42"/>
<g id="a_edge1&#45;headlabel"><a xlink:href="dir_000003_000012.html" target="_top" xlink:title="3">
<text text-anchor="middle" x="93.38" y="-63.9" font-family="Helvetica,sans-Serif" font-size="10.00">3</text>
</a>
</g>
</g>
<!-- dir_3f615ade772d23cefe5e20dcb18424a2&#45;&gt;dir_303c75b2167b8ee1fb608a7a61a02a87 -->
<g id="edge2" class="edge">
<title>dir_3f615ade772d23cefe5e20dcb18424a2&#45;&gt;dir_303c75b2167b8ee1fb608a7a61a02a87</title>
<path fill="none" stroke="black" d="M155.76,-159.7C155.21,-151.98 154.55,-142.71 153.94,-134.11"/>
<polygon fill="black" stroke="black" points="157.43,-133.83 153.22,-124.1 150.44,-134.33 157.43,-133.83"/>
<g id="a_edge2&#45;headlabel"><a xlink:href="dir_000003_000006.html" target="_top" xlink:title="3">
<text text-anchor="middle" x="160.51" y="-134.71" font-family="Helvetica,sans-Serif" font-size="10.00">3</text>
</a>
</g>
</g>
<!-- dir_cd56f9bb444c4dcc895557544c79ce2a -->
<g id="node8" class="node">
<title>dir_cd56f9bb444c4dcc895557544c79ce2a</title>
<g id="a_node8"><a xlink:href="dir_cd56f9bb444c4dcc895557544c79ce2a.html" target="_top" xlink:title="mpi">
<polygon fill="white" stroke="black" points="346,-196 292,-196 292,-160 346,-160 346,-196"/>
<text text-anchor="middle" x="319" y="-175.5" font-family="Helvetica,sans-Serif" font-size="10.00">mpi</text>
</a>
</g>
</g>
<!-- dir_cd56f9bb444c4dcc895557544c79ce2a&#45;&gt;dir_303c75b2167b8ee1fb608a7a61a02a87 -->
<g id="edge14" class="edge">
<title>dir_cd56f9bb444c4dcc895557544c79ce2a&#45;&gt;dir_303c75b2167b8ee1fb608a7a61a02a87</title>
<path fill="none" stroke="black" d="M296.35,-159.88C292.04,-157.03 287.48,-154.27 283,-152 260.38,-140.54 234.17,-130.89 211.17,-123.5"/>
<polygon fill="black" stroke="black" points="212.11,-120.13 201.52,-120.47 210.02,-126.8 212.11,-120.13"/>
<g id="a_edge14&#45;headlabel"><a xlink:href="dir_000004_000006.html" target="_top" xlink:title="1">
<text text-anchor="middle" x="216.39" y="-115.99" font-family="Helvetica,sans-Serif" font-size="10.00">1</text>
</a>
</g>
</g>
<!-- dir_cd56f9bb444c4dcc895557544c79ce2a&#45;&gt;dir_eaca60f7b9e9ea2ccc0f3ac48dc19de2 -->
<g id="edge17" class="edge">
<title>dir_cd56f9bb444c4dcc895557544c79ce2a&#45;&gt;dir_eaca60f7b9e9ea2ccc0f3ac48dc19de2</title>
<path fill="none" stroke="black" d="M328.51,-159.75C337.29,-141.44 347.63,-111.89 338,-88 333.65,-77.21 325.94,-67.39 317.81,-59.21"/>
<polygon fill="black" stroke="black" points="320,-56.46 310.3,-52.18 315.21,-61.57 320,-56.46"/>
<g id="a_edge17&#45;headlabel"><a xlink:href="dir_000004_000013.html" target="_top" xlink:title="3">
<text text-anchor="middle" x="324.56" y="-54.35" font-family="Helvetica,sans-Serif" font-size="10.00">3</text>
</a>
</g>
</g>
<!-- dir_cd56f9bb444c4dcc895557544c79ce2a&#45;&gt;dir_51e5b56c5a94789e05e3a3352a90e377 -->
<g id="edge15" class="edge">
<title>dir_cd56f9bb444c4dcc895557544c79ce2a&#45;&gt;dir_51e5b56c5a94789e05e3a3352a90e377</title>
<path fill="none" stroke="black" d="M325.43,-159.92C331.49,-140.66 337.65,-109.27 323,-88 321.45,-85.75 261.33,-63.36 220.67,-48.41"/>
<polygon fill="black" stroke="black" points="221.65,-45.04 211.05,-44.88 219.23,-51.61 221.65,-45.04"/>
<g id="a_edge15&#45;headlabel"><a xlink:href="dir_000004_000007.html" target="_top" xlink:title="2">
<text text-anchor="middle" x="226" y="-41.11" font-family="Helvetica,sans-Serif" font-size="10.00">2</text>
</a>
</g>
</g>
<!-- dir_cd56f9bb444c4dcc895557544c79ce2a&#45;&gt;dir_e681bd22f1a85a89d9c18b68cc50d922 -->
<g id="edge16" class="edge">
<title>dir_cd56f9bb444c4dcc895557544c79ce2a&#45;&gt;dir_e681bd22f1a85a89d9c18b68cc50d922</title>
<path fill="none" stroke="black" d="M311.09,-159.7C307.45,-151.73 303.05,-142.1 299.01,-133.26"/>
<polygon fill="black" stroke="black" points="302.16,-131.74 294.82,-124.1 295.79,-134.65 302.16,-131.74"/>
<g id="a_edge16&#45;headlabel"><a xlink:href="dir_000004_000009.html" target="_top" xlink:title="1">
<text text-anchor="middle" x="306.24" y="-131.33" font-family="Helvetica,sans-Serif" font-size="10.00">1</text>
</a>
</g>
</g>
<!-- dir_ccbe1ad6d82ba60b68f32a18ae1af660 -->
<g id="node9" class="node">
<title>dir_ccbe1ad6d82ba60b68f32a18ae1af660</title>
<g id="a_node9"><a xlink:href="dir_ccbe1ad6d82ba60b68f32a18ae1af660.html" target="_top" xlink:title="singlenode">
<polygon fill="white" stroke="black" points="274,-196 204,-196 204,-160 274,-160 274,-196"/>
<text text-anchor="middle" x="239" y="-175.5" font-family="Helvetica,sans-Serif" font-size="10.00">singlenode</text>
</a>
</g>
</g>
<!-- dir_ccbe1ad6d82ba60b68f32a18ae1af660&#45;&gt;dir_0c0c9fa8a58db41e576adc3ce68c5ee9 -->
<g id="edge6" class="edge">
<title>dir_ccbe1ad6d82ba60b68f32a18ae1af660&#45;&gt;dir_0c0c9fa8a58db41e576adc3ce68c5ee9</title>
<path fill="none" stroke="black" d="M237.76,-159.89C235.49,-140.31 229.08,-108.34 211,-88 199.62,-75.2 159.93,-58.85 129.69,-47.71"/>
<polygon fill="black" stroke="black" points="130.85,-44.41 120.25,-44.29 128.46,-50.99 130.85,-44.41"/>
<g id="a_edge6&#45;headlabel"><a xlink:href="dir_000005_000012.html" target="_top" xlink:title="1">
<text text-anchor="middle" x="135.19" y="-40.46" font-family="Helvetica,sans-Serif" font-size="10.00">1</text>
</a>
</g>
</g>
<!-- dir_ccbe1ad6d82ba60b68f32a18ae1af660&#45;&gt;dir_303c75b2167b8ee1fb608a7a61a02a87 -->
<g id="edge8" class="edge">
<title>dir_ccbe1ad6d82ba60b68f32a18ae1af660&#45;&gt;dir_303c75b2167b8ee1fb608a7a61a02a87</title>
<path fill="none" stroke="black" d="M217.49,-159.7C206.54,-150.88 193.05,-140.03 181.18,-130.47"/>
<polygon fill="black" stroke="black" points="183.24,-127.65 173.26,-124.1 178.86,-133.1 183.24,-127.65"/>
<g id="a_edge8&#45;headlabel"><a xlink:href="dir_000005_000006.html" target="_top" xlink:title="1">
<text text-anchor="middle" x="187.82" y="-125.19" font-family="Helvetica,sans-Serif" font-size="10.00">1</text>
</a>
</g>
</g>
<!-- dir_ccbe1ad6d82ba60b68f32a18ae1af660&#45;&gt;dir_eaca60f7b9e9ea2ccc0f3ac48dc19de2 -->
<g id="edge10" class="edge">
<title>dir_ccbe1ad6d82ba60b68f32a18ae1af660&#45;&gt;dir_eaca60f7b9e9ea2ccc0f3ac48dc19de2</title>
<path fill="none" stroke="black" d="M239.01,-159.69C239.54,-141.33 241.92,-111.74 251,-88 254.66,-78.44 260.34,-68.9 266.11,-60.61"/>
<polygon fill="black" stroke="black" points="268.99,-62.6 272.09,-52.47 263.35,-58.46 268.99,-62.6"/>
<g id="a_edge10&#45;headlabel"><a xlink:href="dir_000005_000013.html" target="_top" xlink:title="1">
<text text-anchor="middle" x="269.16" y="-64.68" font-family="Helvetica,sans-Serif" font-size="10.00">1</text>
</a>
</g>
</g>
<!-- dir_ccbe1ad6d82ba60b68f32a18ae1af660&#45;&gt;dir_e681bd22f1a85a89d9c18b68cc50d922 -->
<g id="edge9" class="edge">
<title>dir_ccbe1ad6d82ba60b68f32a18ae1af660&#45;&gt;dir_e681bd22f1a85a89d9c18b68cc50d922</title>
<path fill="none" stroke="black" d="M250.87,-159.7C256.5,-151.47 263.35,-141.48 269.57,-132.42"/>
<polygon fill="black" stroke="black" points="272.5,-134.33 275.27,-124.1 266.73,-130.37 272.5,-134.33"/>
<g id="a_edge9&#45;headlabel"><a xlink:href="dir_000005_000009.html" target="_top" xlink:title="1">
<text text-anchor="middle" x="272.81" y="-136.4" font-family="Helvetica,sans-Serif" font-size="10.00">1</text>
</a>
</g>
</g>
<!-- dir_ccbe1ad6d82ba60b68f32a18ae1af660&#45;&gt;dir_1261e2a6fb671f7d089a05433e0b6ee6 -->
<g id="edge7" class="edge">
<title>dir_ccbe1ad6d82ba60b68f32a18ae1af660&#45;&gt;dir_1261e2a6fb671f7d089a05433e0b6ee6</title>
<path fill="none" stroke="black" d="M231.36,-196.13C223.01,-213.3 207.86,-238.04 186,-249 161.76,-261.15 149.68,-260.22 125,-249 105.01,-239.92 88.95,-220.86 78.18,-204.77"/>
<polygon fill="black" stroke="black" points="81.07,-202.79 72.76,-196.22 75.16,-206.54 81.07,-202.79"/>
<g id="a_edge7&#45;headlabel"><a xlink:href="dir_000005_000010.html" target="_top" xlink:title="1">
<text text-anchor="middle" x="85.39" y="-201.8" font-family="Helvetica,sans-Serif" font-size="10.00">1</text>
</a>
</g>
</g>
</g>
</svg>
