<?xml version="1.0" encoding="UTF-8" standalone="no"?>
<!DOCTYPE svg PUBLIC "-//W3C//DTD SVG 1.1//EN"
 "http://www.w3.org/Graphics/SVG/1.1/DTD/svg11.dtd">
<!-- Generated by graphviz version 2.43.0 (0)
 -->
<!-- Title: /home/projectcs&#45;2022/argodsmBuffer/argodsmPrefetching/src Pages: 1 -->
<svg width="314pt" height="508pt"
 viewBox="0.00 0.00 314.00 508.00" xmlns="http://www.w3.org/2000/svg" xmlns:xlink="http://www.w3.org/1999/xlink">
<g id="graph0" class="graph" transform="scale(1 1) rotate(0) translate(4 504)">
<title>/home/projectcs&#45;2022/argodsmBuffer/argodsmPrefetching/src</title>
<polygon fill="white" stroke="transparent" points="-4,4 -4,-504 310,-504 310,4 -4,4"/>
<g id="clust1" class="cluster">
<title>clusterdir_68267d1309a1af8e8297ef4c3efbcdba</title>
<g id="a_clust1"><a xlink:href="dir_68267d1309a1af8e8297ef4c3efbcdba.html" target="_top">
<polygon fill="#eeeeff" stroke="black" points="8,-8 8,-492 298,-492 298,-8 8,-8"/>
</a>
</g>
</g>
<!-- dir_68267d1309a1af8e8297ef4c3efbcdba -->
<g id="node1" class="node">
<title>dir_68267d1309a1af8e8297ef4c3efbcdba</title>
<text text-anchor="middle" x="182" y="-463.5" font-family="Helvetica,sans-Serif" font-size="10.00">src</text>
</g>
<!-- dir_6c23b03f1c1f5d39fa4681c6907c68b5 -->
<g id="node2" class="node">
<title>dir_6c23b03f1c1f5d39fa4681c6907c68b5</title>
<g id="a_node2"><a xlink:href="dir_6c23b03f1c1f5d39fa4681c6907c68b5.html" target="_top" xlink:title="allocators">
<polygon fill="white" stroke="black" points="214.5,-412 149.5,-412 149.5,-376 214.5,-376 214.5,-412"/>
<text text-anchor="middle" x="182" y="-391.5" font-family="Helvetica,sans-Serif" font-size="10.00">allocators</text>
</a>
</g>
</g>
<!-- dir_68267d1309a1af8e8297ef4c3efbcdba&#45;&gt;dir_6c23b03f1c1f5d39fa4681c6907c68b5 -->
<g id="edge1" class="edge">
<title>dir_68267d1309a1af8e8297ef4c3efbcdba&#45;&gt;dir_6c23b03f1c1f5d39fa4681c6907c68b5</title>
<path fill="none" stroke="black" d="M182,-447.7C182,-439.98 182,-430.71 182,-422.11"/>
<polygon fill="black" stroke="black" points="185.5,-422.1 182,-412.1 178.5,-422.1 185.5,-422.1"/>
<g id="a_edge1&#45;headlabel"><a xlink:href="dir_000000_000001.html" target="_top" xlink:title="5">
<text text-anchor="middle" x="188.34" y="-423.2" font-family="Helvetica,sans-Serif" font-size="10.00">5</text>
</a>
</g>
</g>
<!-- dir_3f615ade772d23cefe5e20dcb18424a2 -->
<g id="node3" class="node">
<title>dir_3f615ade772d23cefe5e20dcb18424a2</title>
<g id="a_node3"><a xlink:href="dir_3f615ade772d23cefe5e20dcb18424a2.html" target="_top" xlink:title="backend">
<polygon fill="white" stroke="red" points="157.5,-268 100.5,-268 100.5,-232 157.5,-232 157.5,-268"/>
<text text-anchor="middle" x="129" y="-247.5" font-family="Helvetica,sans-Serif" font-size="10.00">backend</text>
</a>
</g>
</g>
<!-- dir_6c23b03f1c1f5d39fa4681c6907c68b5&#45;&gt;dir_3f615ade772d23cefe5e20dcb18424a2 -->
<g id="edge19" class="edge">
<title>dir_6c23b03f1c1f5d39fa4681c6907c68b5&#45;&gt;dir_3f615ade772d23cefe5e20dcb18424a2</title>
<path fill="none" stroke="black" d="M163.58,-375.6C154.61,-365.99 144.59,-353.33 139,-340 130.8,-320.43 128.5,-296.44 128.14,-278.3"/>
<polygon fill="black" stroke="black" points="131.64,-278.1 128.13,-268.11 124.64,-278.11 131.64,-278.1"/>
<g id="a_edge19&#45;headlabel"><a xlink:href="dir_000001_000003.html" target="_top" xlink:title="2">
<text text-anchor="middle" x="134.49" y="-279.2" font-family="Helvetica,sans-Serif" font-size="10.00">2</text>
</a>
</g>
</g>
<!-- dir_2146dfdfab3df05eabf1c1d9a0b60864 -->
<g id="node6" class="node">
<title>dir_2146dfdfab3df05eabf1c1d9a0b60864</title>
<g id="a_node6"><a xlink:href="dir_2146dfdfab3df05eabf1c1d9a0b60864.html" target="_top" xlink:title="mempools">
<polygon fill="white" stroke="black" points="216,-340 148,-340 148,-304 216,-304 216,-340"/>
<text text-anchor="middle" x="182" y="-319.5" font-family="Helvetica,sans-Serif" font-size="10.00">mempools</text>
</a>
</g>
</g>
<!-- dir_6c23b03f1c1f5d39fa4681c6907c68b5&#45;&gt;dir_2146dfdfab3df05eabf1c1d9a0b60864 -->
<g id="edge18" class="edge">
<title>dir_6c23b03f1c1f5d39fa4681c6907c68b5&#45;&gt;dir_2146dfdfab3df05eabf1c1d9a0b60864</title>
<path fill="none" stroke="black" d="M182,-375.7C182,-367.98 182,-358.71 182,-350.11"/>
<polygon fill="black" stroke="black" points="185.5,-350.1 182,-340.1 178.5,-350.1 185.5,-350.1"/>
<g id="a_edge18&#45;headlabel"><a xlink:href="dir_000001_000008.html" target="_top" xlink:title="4">
<text text-anchor="middle" x="188.34" y="-351.2" font-family="Helvetica,sans-Serif" font-size="10.00">4</text>
</a>
</g>
</g>
<!-- dir_303c75b2167b8ee1fb608a7a61a02a87 -->
<g id="node4" class="node">
<title>dir_303c75b2167b8ee1fb608a7a61a02a87</title>
<g id="a_node4"><a xlink:href="dir_303c75b2167b8ee1fb608a7a61a02a87.html" target="_top" xlink:title="data_distribution">
<polygon fill="white" stroke="black" points="269.5,-124 170.5,-124 170.5,-88 269.5,-88 269.5,-124"/>
<text text-anchor="middle" x="220" y="-103.5" font-family="Helvetica,sans-Serif" font-size="10.00">data_distribution</text>
</a>
</g>
</g>
<!-- dir_3f615ade772d23cefe5e20dcb18424a2&#45;&gt;dir_303c75b2167b8ee1fb608a7a61a02a87 -->
<g id="edge3" class="edge">
<title>dir_3f615ade772d23cefe5e20dcb18424a2&#45;&gt;dir_303c75b2167b8ee1fb608a7a61a02a87</title>
<path fill="none" stroke="black" d="M135.58,-231.82C143.05,-213.3 156.27,-183.34 172,-160 178.69,-150.07 187.16,-140.1 195.11,-131.52"/>
<polygon fill="black" stroke="black" points="197.83,-133.74 202.2,-124.09 192.77,-128.91 197.83,-133.74"/>
<g id="a_edge3&#45;headlabel"><a xlink:href="dir_000003_000006.html" target="_top" xlink:title="3">
<text text-anchor="middle" x="197.41" y="-135.8" font-family="Helvetica,sans-Serif" font-size="10.00">3</text>
</a>
</g>
</g>
<!-- dir_51e5b56c5a94789e05e3a3352a90e377 -->
<g id="node5" class="node">
<title>dir_51e5b56c5a94789e05e3a3352a90e377</title>
<g id="a_node5"><a xlink:href="dir_51e5b56c5a94789e05e3a3352a90e377.html" target="_top" xlink:title="env">
<polygon fill="white" stroke="black" points="166,-52 112,-52 112,-16 166,-16 166,-52"/>
<text text-anchor="middle" x="139" y="-31.5" font-family="Helvetica,sans-Serif" font-size="10.00">env</text>
</a>
</g>
</g>
<!-- dir_3f615ade772d23cefe5e20dcb18424a2&#45;&gt;dir_51e5b56c5a94789e05e3a3352a90e377 -->
<g id="edge5" class="edge">
<title>dir_3f615ade772d23cefe5e20dcb18424a2&#45;&gt;dir_51e5b56c5a94789e05e3a3352a90e377</title>
<path fill="none" stroke="black" d="M129.46,-231.93C129.97,-214.01 130.88,-185.02 132,-160 133.5,-126.52 135.73,-88.03 137.27,-62.7"/>
<polygon fill="black" stroke="black" points="140.79,-62.58 137.9,-52.38 133.8,-62.15 140.79,-62.58"/>
<g id="a_edge5&#45;headlabel"><a xlink:href="dir_000003_000007.html" target="_top" xlink:title="2">
<text text-anchor="middle" x="143.4" y="-63.84" font-family="Helvetica,sans-Serif" font-size="10.00">2</text>
</a>
</g>
</g>
<!-- dir_e681bd22f1a85a89d9c18b68cc50d922 -->
<g id="node7" class="node">
<title>dir_e681bd22f1a85a89d9c18b68cc50d922</title>
<g id="a_node7"><a xlink:href="dir_e681bd22f1a85a89d9c18b68cc50d922.html" target="_top" xlink:title="signal">
<polygon fill="white" stroke="black" points="78,-196 24,-196 24,-160 78,-160 78,-196"/>
<text text-anchor="middle" x="51" y="-175.5" font-family="Helvetica,sans-Serif" font-size="10.00">signal</text>
</a>
</g>
</g>
<!-- dir_3f615ade772d23cefe5e20dcb18424a2&#45;&gt;dir_e681bd22f1a85a89d9c18b68cc50d922 -->
<g id="edge6" class="edge">
<title>dir_3f615ade772d23cefe5e20dcb18424a2&#45;&gt;dir_e681bd22f1a85a89d9c18b68cc50d922</title>
<path fill="none" stroke="black" d="M109.72,-231.7C100.08,-223.05 88.27,-212.45 77.77,-203.03"/>
<polygon fill="black" stroke="black" points="79.84,-200.18 70.06,-196.1 75.16,-205.39 79.84,-200.18"/>
<g id="a_edge6&#45;headlabel"><a xlink:href="dir_000003_000009.html" target="_top" xlink:title="2">
<text text-anchor="middle" x="84.41" y="-197.97" font-family="Helvetica,sans-Serif" font-size="10.00">2</text>
</a>
</g>
</g>
<!-- dir_1261e2a6fb671f7d089a05433e0b6ee6 -->
<g id="node8" class="node">
<title>dir_1261e2a6fb671f7d089a05433e0b6ee6</title>
<g id="a_node8"><a xlink:href="dir_1261e2a6fb671f7d089a05433e0b6ee6.html" target="_top" xlink:title="synchronization">
<polygon fill="white" stroke="red" points="290,-196 196,-196 196,-160 290,-160 290,-196"/>
<text text-anchor="middle" x="243" y="-175.5" font-family="Helvetica,sans-Serif" font-size="10.00">synchronization</text>
</a>
</g>
</g>
<!-- dir_3f615ade772d23cefe5e20dcb18424a2&#45;&gt;dir_1261e2a6fb671f7d089a05433e0b6ee6 -->
<g id="edge7" class="edge">
<title>dir_3f615ade772d23cefe5e20dcb18424a2&#45;&gt;dir_1261e2a6fb671f7d089a05433e0b6ee6</title>
<path fill="none" stroke="black" d="M150.99,-231.88C164.94,-222.72 183.32,-211.34 200.03,-201.48"/>
<polygon fill="black" stroke="black" points="202.23,-204.25 209.1,-196.19 198.7,-198.21 202.23,-204.25"/>
<g id="a_edge7&#45;headlabel"><a xlink:href="dir_000003_000010.html" target="_top" xlink:title="1">
<text text-anchor="middle" x="200.56" y="-206.02" font-family="Helvetica,sans-Serif" font-size="10.00">1</text>
</a>
</g>
</g>
<!-- dir_0c0c9fa8a58db41e576adc3ce68c5ee9 -->
<g id="node9" class="node">
<title>dir_0c0c9fa8a58db41e576adc3ce68c5ee9</title>
<g id="a_node9"><a xlink:href="dir_0c0c9fa8a58db41e576adc3ce68c5ee9.html" target="_top" xlink:title="types">
<polygon fill="white" stroke="black" points="247,-52 193,-52 193,-16 247,-16 247,-52"/>
<text text-anchor="middle" x="220" y="-31.5" font-family="Helvetica,sans-Serif" font-size="10.00">types</text>
</a>
</g>
</g>
<!-- dir_3f615ade772d23cefe5e20dcb18424a2&#45;&gt;dir_0c0c9fa8a58db41e576adc3ce68c5ee9 -->
<g id="edge2" class="edge">
<title>dir_3f615ade772d23cefe5e20dcb18424a2&#45;&gt;dir_0c0c9fa8a58db41e576adc3ce68c5ee9</title>
<path fill="none" stroke="black" d="M131.16,-231.73C135.92,-195.43 148.02,-112.54 162,-88 168.28,-76.98 177.65,-66.98 187.03,-58.7"/>
<polygon fill="black" stroke="black" points="189.42,-61.27 194.85,-52.17 184.93,-55.89 189.42,-61.27"/>
<g id="a_edge2&#45;headlabel"><a xlink:href="dir_000003_000012.html" target="_top" xlink:title="3">
<text text-anchor="middle" x="188.48" y="-63.25" font-family="Helvetica,sans-Serif" font-size="10.00">3</text>
</a>
</g>
</g>
<!-- dir_eaca60f7b9e9ea2ccc0f3ac48dc19de2 -->
<g id="node10" class="node">
<title>dir_eaca60f7b9e9ea2ccc0f3ac48dc19de2</title>
<g id="a_node10"><a xlink:href="dir_eaca60f7b9e9ea2ccc0f3ac48dc19de2.html" target="_top" xlink:title="virtual_memory">
<polygon fill="white" stroke="black" points="111.5,-124 16.5,-124 16.5,-88 111.5,-88 111.5,-124"/>
<text text-anchor="middle" x="64" y="-103.5" font-family="Helvetica,sans-Serif" font-size="10.00">virtual_memory</text>
</a>
</g>
</g>
<!-- dir_3f615ade772d23cefe5e20dcb18424a2&#45;&gt;dir_eaca60f7b9e9ea2ccc0f3ac48dc19de2 -->
<g id="edge4" class="edge">
<title>dir_3f615ade772d23cefe5e20dcb18424a2&#45;&gt;dir_eaca60f7b9e9ea2ccc0f3ac48dc19de2</title>
<path fill="none" stroke="black" d="M121.16,-231.87C109.98,-207.46 89.37,-162.43 76.19,-133.64"/>
<polygon fill="black" stroke="black" points="79.21,-131.83 71.87,-124.19 72.85,-134.74 79.21,-131.83"/>
<g id="a_edge4&#45;headlabel"><a xlink:href="dir_000003_000013.html" target="_top" xlink:title="4">
<text text-anchor="middle" x="83.29" y="-131.41" font-family="Helvetica,sans-Serif" font-size="10.00">4</text>
</a>
</g>
</g>
<!-- dir_303c75b2167b8ee1fb608a7a61a02a87&#45;&gt;dir_51e5b56c5a94789e05e3a3352a90e377 -->
<g id="edge10" class="edge">
<title>dir_303c75b2167b8ee1fb608a7a61a02a87&#45;&gt;dir_51e5b56c5a94789e05e3a3352a90e377</title>
<path fill="none" stroke="black" d="M199.98,-87.7C189.87,-78.97 177.46,-68.24 166.48,-58.75"/>
<polygon fill="black" stroke="black" points="168.65,-55.99 158.79,-52.1 164.07,-61.29 168.65,-55.99"/>
<g id="a_edge10&#45;headlabel"><a xlink:href="dir_000006_000007.html" target="_top" xlink:title="3">
<text text-anchor="middle" x="173.22" y="-53.7" font-family="Helvetica,sans-Serif" font-size="10.00">3</text>
</a>
</g>
</g>
<!-- dir_303c75b2167b8ee1fb608a7a61a02a87&#45;&gt;dir_0c0c9fa8a58db41e576adc3ce68c5ee9 -->
<g id="edge9" class="edge">
<title>dir_303c75b2167b8ee1fb608a7a61a02a87&#45;&gt;dir_0c0c9fa8a58db41e576adc3ce68c5ee9</title>
<path fill="none" stroke="black" d="M220,-87.7C220,-79.98 220,-70.71 220,-62.11"/>
<polygon fill="black" stroke="black" points="223.5,-62.1 220,-52.1 216.5,-62.1 223.5,-62.1"/>
<g id="a_edge9&#45;headlabel"><a xlink:href="dir_000006_000012.html" target="_top" xlink:title="1">
<text text-anchor="middle" x="226.34" y="-63.2" font-family="Helvetica,sans-Serif" font-size="10.00">1</text>
</a>
</g>
</g>
<!-- dir_2146dfdfab3df05eabf1c1d9a0b60864&#45;&gt;dir_3f615ade772d23cefe5e20dcb18424a2 -->
<g id="edge13" class="edge">
<title>dir_2146dfdfab3df05eabf1c1d9a0b60864&#45;&gt;dir_3f615ade772d23cefe5e20dcb18424a2</title>
<path fill="none" stroke="black" d="M168.9,-303.7C162.61,-295.39 154.95,-285.28 148.04,-276.14"/>
<polygon fill="black" stroke="black" points="150.78,-273.96 141.95,-268.1 145.2,-278.19 150.78,-273.96"/>
<g id="a_edge13&#45;headlabel"><a xlink:href="dir_000008_000003.html" target="_top" xlink:title="2">
<text text-anchor="middle" x="155.21" y="-272.62" font-family="Helvetica,sans-Serif" font-size="10.00">2</text>
</a>
</g>
</g>
<!-- dir_2146dfdfab3df05eabf1c1d9a0b60864&#45;&gt;dir_303c75b2167b8ee1fb608a7a61a02a87 -->
<g id="edge12" class="edge">
<title>dir_2146dfdfab3df05eabf1c1d9a0b60864&#45;&gt;dir_303c75b2167b8ee1fb608a7a61a02a87</title>
<path fill="none" stroke="black" d="M179.65,-303.61C176.21,-273.56 171.77,-210.32 187,-160 189.91,-150.4 195.02,-140.82 200.37,-132.49"/>
<polygon fill="black" stroke="black" points="203.42,-134.24 206.17,-124.01 197.64,-130.29 203.42,-134.24"/>
<g id="a_edge12&#45;headlabel"><a xlink:href="dir_000008_000006.html" target="_top" xlink:title="1">
<text text-anchor="middle" x="203.73" y="-136.31" font-family="Helvetica,sans-Serif" font-size="10.00">1</text>
</a>
</g>
</g>
<!-- dir_2146dfdfab3df05eabf1c1d9a0b60864&#45;&gt;dir_1261e2a6fb671f7d089a05433e0b6ee6 -->
<g id="edge11" class="edge">
<title>dir_2146dfdfab3df05eabf1c1d9a0b60864&#45;&gt;dir_1261e2a6fb671f7d089a05433e0b6ee6</title>
<path fill="none" stroke="black" d="M189.36,-303.87C199.85,-279.46 219.19,-234.43 231.56,-205.64"/>
<polygon fill="black" stroke="black" points="234.88,-206.76 235.62,-196.19 228.45,-204 234.88,-206.76"/>
<g id="a_edge11&#45;headlabel"><a xlink:href="dir_000008_000010.html" target="_top" xlink:title="2">
<text text-anchor="middle" x="236.07" y="-208.68" font-family="Helvetica,sans-Serif" font-size="10.00">2</text>
</a>
</g>
</g>
<!-- dir_e681bd22f1a85a89d9c18b68cc50d922&#45;&gt;dir_eaca60f7b9e9ea2ccc0f3ac48dc19de2 -->
<g id="edge8" class="edge">
<title>dir_e681bd22f1a85a89d9c18b68cc50d922&#45;&gt;dir_eaca60f7b9e9ea2ccc0f3ac48dc19de2</title>
<path fill="none" stroke="black" d="M54.21,-159.7C55.65,-151.98 57.37,-142.71 58.96,-134.11"/>
<polygon fill="black" stroke="black" points="62.44,-134.58 60.82,-124.1 55.56,-133.3 62.44,-134.58"/>
<g id="a_edge8&#45;headlabel"><a xlink:href="dir_000009_000013.html" target="_top" xlink:title="1">
<text text-anchor="middle" x="64.57" y="-136.13" font-family="Helvetica,sans-Serif" font-size="10.00">1</text>
</a>
</g>
</g>
<!-- dir_1261e2a6fb671f7d089a05433e0b6ee6&#45;&gt;dir_6c23b03f1c1f5d39fa4681c6907c68b5 -->
<g id="edge17" class="edge">
<title>dir_1261e2a6fb671f7d089a05433e0b6ee6&#45;&gt;dir_6c23b03f1c1f5d39fa4681c6907c68b5</title>
<path fill="none" stroke="black" d="M244.16,-196.24C245.56,-226.58 245.53,-290.97 225,-340 220.81,-350 214.13,-359.62 207.26,-367.86"/>
<polygon fill="black" stroke="black" points="204.42,-365.79 200.42,-375.6 209.67,-370.42 204.42,-365.79"/>
<g id="a_edge17&#45;headlabel"><a xlink:href="dir_000010_000001.html" target="_top" xlink:title="1">
<text text-anchor="middle" x="204.67" y="-358.71" font-family="Helvetica,sans-Serif" font-size="10.00">1</text>
</a>
</g>
</g>
<!-- dir_1261e2a6fb671f7d089a05433e0b6ee6&#45;&gt;dir_3f615ade772d23cefe5e20dcb18424a2 -->
<g id="edge16" class="edge">
<title>dir_1261e2a6fb671f7d089a05433e0b6ee6&#45;&gt;dir_3f615ade772d23cefe5e20dcb18424a2</title>
<path fill="none" stroke="black" d="M221.03,-196.11C205.6,-206.23 184.75,-219.09 166.73,-229.59"/>
<polygon fill="black" stroke="black" points="164.54,-226.81 157.62,-234.83 168.03,-232.88 164.54,-226.81"/>
<g id="a_edge16&#45;headlabel"><a xlink:href="dir_000010_000003.html" target="_top" xlink:title="4">
<text text-anchor="middle" x="166.24" y="-220.06" font-family="Helvetica,sans-Serif" font-size="10.00">4</text>
</a>
</g>
</g>
<!-- dir_1261e2a6fb671f7d089a05433e0b6ee6&#45;&gt;dir_303c75b2167b8ee1fb608a7a61a02a87 -->
<g id="edge15" class="edge">
<title>dir_1261e2a6fb671f7d089a05433e0b6ee6&#45;&gt;dir_303c75b2167b8ee1fb608a7a61a02a87</title>
<path fill="none" stroke="black" d="M237.31,-159.7C234.75,-151.9 231.67,-142.51 228.82,-133.83"/>
<polygon fill="black" stroke="black" points="232.07,-132.51 225.62,-124.1 225.42,-134.7 232.07,-132.51"/>
<g id="a_edge15&#45;headlabel"><a xlink:href="dir_000010_000006.html" target="_top" xlink:title="2">
<text text-anchor="middle" x="235.89" y="-132.54" font-family="Helvetica,sans-Serif" font-size="10.00">2</text>
</a>
</g>
</g>
<!-- dir_1261e2a6fb671f7d089a05433e0b6ee6&#45;&gt;dir_0c0c9fa8a58db41e576adc3ce68c5ee9 -->
<g id="edge14" class="edge">
<title>dir_1261e2a6fb671f7d089a05433e0b6ee6&#45;&gt;dir_0c0c9fa8a58db41e576adc3ce68c5ee9</title>
<path fill="none" stroke="black" d="M258.44,-159.79C272.66,-141.75 290,-112.66 279,-88 273.83,-76.41 264.73,-66.29 255.21,-58.09"/>
<polygon fill="black" stroke="black" points="257.17,-55.18 247.18,-51.66 252.8,-60.65 257.17,-55.18"/>
<g id="a_edge14&#45;headlabel"><a xlink:href="dir_000010_000012.html" target="_top" xlink:title="1">
<text text-anchor="middle" x="261.76" y="-52.71" font-family="Helvetica,sans-Serif" font-size="10.00">1</text>
</a>
</g>
</g>
</g>
</svg>
