<?xml version="1.0" encoding="UTF-8" standalone="no"?>
<!DOCTYPE svg PUBLIC "-//W3C//DTD SVG 1.1//EN"
 "http://www.w3.org/Graphics/SVG/1.1/DTD/svg11.dtd">
<!-- Generated by graphviz version 2.43.0 (0)
 -->
<!-- Title: /home/projectcs&#45;2022/argodsmBuffer/argodsmPrefetching/src/backend/mpi Pages: 1 -->
<svg width="265pt" height="223pt"
 viewBox="0.00 0.00 265.00 223.00" xmlns="http://www.w3.org/2000/svg" xmlns:xlink="http://www.w3.org/1999/xlink">
<g id="graph0" class="graph" transform="scale(1 1) rotate(0) translate(4 219)">
<title>/home/projectcs&#45;2022/argodsmBuffer/argodsmPrefetching/src/backend/mpi</title>
<polygon fill="white" stroke="transparent" points="-4,4 -4,-219 261,-219 261,4 -4,4"/>
<g id="clust1" class="cluster">
<title>clusterdir_3f615ade772d23cefe5e20dcb18424a2</title>
<g id="a_clust1"><a xlink:href="dir_3f615ade772d23cefe5e20dcb18424a2.html" target="_top" xlink:title="backend">
<polygon fill="#ddddee" stroke="black" points="119.5,-136 119.5,-207 189.5,-207 189.5,-136 119.5,-136"/>
<text text-anchor="middle" x="154.5" y="-195" font-family="Helvetica,sans-Serif" font-size="10.00">backend</text>
</a>
</g>
</g>
<!-- dir_cd56f9bb444c4dcc895557544c79ce2a -->
<g id="node1" class="node">
<title>dir_cd56f9bb444c4dcc895557544c79ce2a</title>
<g id="a_node1"><a xlink:href="dir_cd56f9bb444c4dcc895557544c79ce2a.html" target="_top" xlink:title="mpi">
<polygon fill="#eeeeff" stroke="black" points="181.5,-180 127.5,-180 127.5,-144 181.5,-144 181.5,-180"/>
<text text-anchor="middle" x="154.5" y="-159.5" font-family="Helvetica,sans-Serif" font-size="10.00">mpi</text>
</a>
</g>
</g>
<!-- dir_303c75b2167b8ee1fb608a7a61a02a87 -->
<g id="node2" class="node">
<title>dir_303c75b2167b8ee1fb608a7a61a02a87</title>
<g id="a_node2"><a xlink:href="dir_303c75b2167b8ee1fb608a7a61a02a87.html" target="_top" xlink:title="data_distribution">
<polygon fill="none" stroke="black" points="99,-108 0,-108 0,-72 99,-72 99,-108"/>
<text text-anchor="middle" x="49.5" y="-87.5" font-family="Helvetica,sans-Serif" font-size="10.00">data_distribution</text>
</a>
</g>
</g>
<!-- dir_cd56f9bb444c4dcc895557544c79ce2a&#45;&gt;dir_303c75b2167b8ee1fb608a7a61a02a87 -->
<g id="edge3" class="edge">
<title>dir_cd56f9bb444c4dcc895557544c79ce2a&#45;&gt;dir_303c75b2167b8ee1fb608a7a61a02a87</title>
<path fill="none" stroke="black" d="M128.81,-143.88C115.21,-134.81 98.33,-123.55 83.64,-113.76"/>
<polygon fill="black" stroke="black" points="85.55,-110.82 75.28,-108.19 81.66,-116.65 85.55,-110.82"/>
<g id="a_edge3&#45;headlabel"><a xlink:href="dir_000004_000006.html" target="_top" xlink:title="1">
<text text-anchor="middle" x="90.11" y="-107.96" font-family="Helvetica,sans-Serif" font-size="10.00">1</text>
</a>
</g>
</g>
<!-- dir_51e5b56c5a94789e05e3a3352a90e377 -->
<g id="node3" class="node">
<title>dir_51e5b56c5a94789e05e3a3352a90e377</title>
<g id="a_node3"><a xlink:href="dir_51e5b56c5a94789e05e3a3352a90e377.html" target="_top" xlink:title="env">
<polygon fill="none" stroke="black" points="123.5,-36 69.5,-36 69.5,0 123.5,0 123.5,-36"/>
<text text-anchor="middle" x="96.5" y="-15.5" font-family="Helvetica,sans-Serif" font-size="10.00">env</text>
</a>
</g>
</g>
<!-- dir_cd56f9bb444c4dcc895557544c79ce2a&#45;&gt;dir_51e5b56c5a94789e05e3a3352a90e377 -->
<g id="edge4" class="edge">
<title>dir_cd56f9bb444c4dcc895557544c79ce2a&#45;&gt;dir_51e5b56c5a94789e05e3a3352a90e377</title>
<path fill="none" stroke="black" d="M147.5,-143.87C137.53,-119.46 119.14,-74.43 107.38,-45.64"/>
<polygon fill="black" stroke="black" points="110.54,-44.12 103.52,-36.19 104.06,-46.77 110.54,-44.12"/>
<g id="a_edge4&#45;headlabel"><a xlink:href="dir_000004_000007.html" target="_top" xlink:title="2">
<text text-anchor="middle" x="114.53" y="-43.88" font-family="Helvetica,sans-Serif" font-size="10.00">2</text>
</a>
</g>
</g>
<!-- dir_e681bd22f1a85a89d9c18b68cc50d922 -->
<g id="node4" class="node">
<title>dir_e681bd22f1a85a89d9c18b68cc50d922</title>
<g id="a_node4"><a xlink:href="dir_e681bd22f1a85a89d9c18b68cc50d922.html" target="_top" xlink:title="signal">
<polygon fill="none" stroke="black" points="209.5,-108 155.5,-108 155.5,-72 209.5,-72 209.5,-108"/>
<text text-anchor="middle" x="182.5" y="-87.5" font-family="Helvetica,sans-Serif" font-size="10.00">signal</text>
</a>
</g>
</g>
<!-- dir_cd56f9bb444c4dcc895557544c79ce2a&#45;&gt;dir_e681bd22f1a85a89d9c18b68cc50d922 -->
<g id="edge5" class="edge">
<title>dir_cd56f9bb444c4dcc895557544c79ce2a&#45;&gt;dir_e681bd22f1a85a89d9c18b68cc50d922</title>
<path fill="none" stroke="black" d="M161.42,-143.7C164.57,-135.81 168.38,-126.3 171.88,-117.55"/>
<polygon fill="black" stroke="black" points="175.19,-118.69 175.66,-108.1 168.69,-116.09 175.19,-118.69"/>
<g id="a_edge5&#45;headlabel"><a xlink:href="dir_000004_000009.html" target="_top" xlink:title="1">
<text text-anchor="middle" x="176.5" y="-120.58" font-family="Helvetica,sans-Serif" font-size="10.00">1</text>
</a>
</g>
</g>
<!-- dir_eaca60f7b9e9ea2ccc0f3ac48dc19de2 -->
<g id="node5" class="node">
<title>dir_eaca60f7b9e9ea2ccc0f3ac48dc19de2</title>
<g id="a_node5"><a xlink:href="dir_eaca60f7b9e9ea2ccc0f3ac48dc19de2.html" target="_top" xlink:title="virtual_memory">
<polygon fill="none" stroke="black" points="257,-36 162,-36 162,0 257,0 257,-36"/>
<text text-anchor="middle" x="209.5" y="-15.5" font-family="Helvetica,sans-Serif" font-size="10.00">virtual_memory</text>
</a>
</g>
</g>
<!-- dir_cd56f9bb444c4dcc895557544c79ce2a&#45;&gt;dir_eaca60f7b9e9ea2ccc0f3ac48dc19de2 -->
<g id="edge6" class="edge">
<title>dir_cd56f9bb444c4dcc895557544c79ce2a&#45;&gt;dir_eaca60f7b9e9ea2ccc0f3ac48dc19de2</title>
<path fill="none" stroke="black" d="M181.6,-146.39C195.39,-137.34 210.83,-124.32 218.5,-108 227.6,-88.64 224.31,-64.35 219.32,-46.04"/>
<polygon fill="black" stroke="black" points="222.61,-44.84 216.35,-36.29 215.91,-46.88 222.61,-44.84"/>
<g id="a_edge6&#45;headlabel"><a xlink:href="dir_000004_000013.html" target="_top" xlink:title="3">
<text text-anchor="middle" x="226.37" y="-44.95" font-family="Helvetica,sans-Serif" font-size="10.00">3</text>
</a>
</g>
</g>
<!-- dir_303c75b2167b8ee1fb608a7a61a02a87&#45;&gt;dir_51e5b56c5a94789e05e3a3352a90e377 -->
<g id="edge2" class="edge">
<title>dir_303c75b2167b8ee1fb608a7a61a02a87&#45;&gt;dir_51e5b56c5a94789e05e3a3352a90e377</title>
<path fill="none" stroke="black" d="M61.12,-71.7C66.64,-63.47 73.35,-53.48 79.43,-44.42"/>
<polygon fill="black" stroke="black" points="82.35,-46.36 85.02,-36.1 76.54,-42.46 82.35,-46.36"/>
<g id="a_edge2&#45;headlabel"><a xlink:href="dir_000006_000007.html" target="_top" xlink:title="3">
<text text-anchor="middle" x="82.7" y="-48.42" font-family="Helvetica,sans-Serif" font-size="10.00">3</text>
</a>
</g>
</g>
<!-- dir_e681bd22f1a85a89d9c18b68cc50d922&#45;&gt;dir_eaca60f7b9e9ea2ccc0f3ac48dc19de2 -->
<g id="edge1" class="edge">
<title>dir_e681bd22f1a85a89d9c18b68cc50d922&#45;&gt;dir_eaca60f7b9e9ea2ccc0f3ac48dc19de2</title>
<path fill="none" stroke="black" d="M189.17,-71.7C192.21,-63.81 195.88,-54.3 199.26,-45.55"/>
<polygon fill="black" stroke="black" points="202.57,-46.69 202.9,-36.1 196.04,-44.17 202.57,-46.69"/>
<g id="a_edge1&#45;headlabel"><a xlink:href="dir_000009_000013.html" target="_top" xlink:title="1">
<text text-anchor="middle" x="203.92" y="-48.57" font-family="Helvetica,sans-Serif" font-size="10.00">1</text>
</a>
</g>
</g>
</g>
</svg>
