<?xml version="1.0" encoding="UTF-8" standalone="no"?>
<!DOCTYPE svg PUBLIC "-//W3C//DTD SVG 1.1//EN"
 "http://www.w3.org/Graphics/SVG/1.1/DTD/svg11.dtd">
<!-- Generated by graphviz version 2.43.0 (0)
 -->
<!-- Title: /home/projectcs&#45;2022/argodsmBuffer/argodsmPrefetching/src/backend/singlenode Pages: 1 -->
<svg width="301pt" height="295pt"
 viewBox="0.00 0.00 300.95 295.00" xmlns="http://www.w3.org/2000/svg" xmlns:xlink="http://www.w3.org/1999/xlink">
<g id="graph0" class="graph" transform="scale(1 1) rotate(0) translate(4 291)">
<title>/home/projectcs&#45;2022/argodsmBuffer/argodsmPrefetching/src/backend/singlenode</title>
<polygon fill="white" stroke="transparent" points="-4,4 -4,-291 296.95,-291 296.95,4 -4,4"/>
<g id="clust1" class="cluster">
<title>clusterdir_3f615ade772d23cefe5e20dcb18424a2</title>
<g id="a_clust1"><a xlink:href="dir_3f615ade772d23cefe5e20dcb18424a2.html" target="_top" xlink:title="backend">
<polygon fill="#ddddee" stroke="black" points="100.45,-208 100.45,-279 186.45,-279 186.45,-208 100.45,-208"/>
<text text-anchor="middle" x="143.45" y="-267" font-family="Helvetica,sans-Serif" font-size="10.00">backend</text>
</a>
</g>
</g>
<!-- dir_ccbe1ad6d82ba60b68f32a18ae1af660 -->
<g id="node1" class="node">
<title>dir_ccbe1ad6d82ba60b68f32a18ae1af660</title>
<g id="a_node1"><a xlink:href="dir_ccbe1ad6d82ba60b68f32a18ae1af660.html" target="_top" xlink:title="singlenode">
<polygon fill="#eeeeff" stroke="black" points="178.45,-252 108.45,-252 108.45,-216 178.45,-216 178.45,-252"/>
<text text-anchor="middle" x="143.45" y="-231.5" font-family="Helvetica,sans-Serif" font-size="10.00">singlenode</text>
</a>
</g>
</g>
<!-- dir_0c0c9fa8a58db41e576adc3ce68c5ee9 -->
<g id="node2" class="node">
<title>dir_0c0c9fa8a58db41e576adc3ce68c5ee9</title>
<g id="a_node2"><a xlink:href="dir_0c0c9fa8a58db41e576adc3ce68c5ee9.html" target="_top" xlink:title="types">
<polygon fill="none" stroke="black" points="72.45,-36 18.45,-36 18.45,0 72.45,0 72.45,-36"/>
<text text-anchor="middle" x="45.45" y="-15.5" font-family="Helvetica,sans-Serif" font-size="10.00">types</text>
</a>
</g>
</g>
<!-- dir_ccbe1ad6d82ba60b68f32a18ae1af660&#45;&gt;dir_0c0c9fa8a58db41e576adc3ce68c5ee9 -->
<g id="edge3" class="edge">
<title>dir_ccbe1ad6d82ba60b68f32a18ae1af660&#45;&gt;dir_0c0c9fa8a58db41e576adc3ce68c5ee9</title>
<path fill="none" stroke="black" d="M108.29,-229.48C77.25,-224.31 33.71,-211.53 12.45,-180 -15.4,-138.7 10.09,-78.85 29.11,-44.96"/>
<polygon fill="black" stroke="black" points="32.25,-46.53 34.26,-36.13 26.2,-43.01 32.25,-46.53"/>
<g id="a_edge3&#45;headlabel"><a xlink:href="dir_000005_000012.html" target="_top" xlink:title="1">
<text text-anchor="middle" x="32.89" y="-48.57" font-family="Helvetica,sans-Serif" font-size="10.00">1</text>
</a>
</g>
</g>
<!-- dir_1261e2a6fb671f7d089a05433e0b6ee6 -->
<g id="node3" class="node">
<title>dir_1261e2a6fb671f7d089a05433e0b6ee6</title>
<g id="a_node3"><a xlink:href="dir_1261e2a6fb671f7d089a05433e0b6ee6.html" target="_top" xlink:title="synchronization">
<polygon fill="white" stroke="red" points="115.45,-180 21.45,-180 21.45,-144 115.45,-144 115.45,-180"/>
<text text-anchor="middle" x="68.45" y="-159.5" font-family="Helvetica,sans-Serif" font-size="10.00">synchronization</text>
</a>
</g>
</g>
<!-- dir_ccbe1ad6d82ba60b68f32a18ae1af660&#45;&gt;dir_1261e2a6fb671f7d089a05433e0b6ee6 -->
<g id="edge4" class="edge">
<title>dir_ccbe1ad6d82ba60b68f32a18ae1af660&#45;&gt;dir_1261e2a6fb671f7d089a05433e0b6ee6</title>
<path fill="none" stroke="black" d="M124.91,-215.7C115.65,-207.05 104.29,-196.45 94.19,-187.03"/>
<polygon fill="black" stroke="black" points="96.47,-184.37 86.78,-180.1 91.7,-189.49 96.47,-184.37"/>
<g id="a_edge4&#45;headlabel"><a xlink:href="dir_000005_000010.html" target="_top" xlink:title="1">
<text text-anchor="middle" x="101.04" y="-182.25" font-family="Helvetica,sans-Serif" font-size="10.00">1</text>
</a>
</g>
</g>
<!-- dir_303c75b2167b8ee1fb608a7a61a02a87 -->
<g id="node4" class="node">
<title>dir_303c75b2167b8ee1fb608a7a61a02a87</title>
<g id="a_node4"><a xlink:href="dir_303c75b2167b8ee1fb608a7a61a02a87.html" target="_top" xlink:title="data_distribution">
<polygon fill="none" stroke="black" points="172.95,-108 73.95,-108 73.95,-72 172.95,-72 172.95,-108"/>
<text text-anchor="middle" x="123.45" y="-87.5" font-family="Helvetica,sans-Serif" font-size="10.00">data_distribution</text>
</a>
</g>
</g>
<!-- dir_ccbe1ad6d82ba60b68f32a18ae1af660&#45;&gt;dir_303c75b2167b8ee1fb608a7a61a02a87 -->
<g id="edge5" class="edge">
<title>dir_ccbe1ad6d82ba60b68f32a18ae1af660&#45;&gt;dir_303c75b2167b8ee1fb608a7a61a02a87</title>
<path fill="none" stroke="black" d="M141.04,-215.87C137.63,-191.67 131.37,-147.21 127.31,-118.39"/>
<polygon fill="black" stroke="black" points="130.73,-117.6 125.87,-108.19 123.8,-118.58 130.73,-117.6"/>
<g id="a_edge5&#45;headlabel"><a xlink:href="dir_000005_000006.html" target="_top" xlink:title="1">
<text text-anchor="middle" x="134.04" y="-118.27" font-family="Helvetica,sans-Serif" font-size="10.00">1</text>
</a>
</g>
</g>
<!-- dir_e681bd22f1a85a89d9c18b68cc50d922 -->
<g id="node5" class="node">
<title>dir_e681bd22f1a85a89d9c18b68cc50d922</title>
<g id="a_node5"><a xlink:href="dir_e681bd22f1a85a89d9c18b68cc50d922.html" target="_top" xlink:title="signal">
<polygon fill="none" stroke="black" points="225.45,-180 171.45,-180 171.45,-144 225.45,-144 225.45,-180"/>
<text text-anchor="middle" x="198.45" y="-159.5" font-family="Helvetica,sans-Serif" font-size="10.00">signal</text>
</a>
</g>
</g>
<!-- dir_ccbe1ad6d82ba60b68f32a18ae1af660&#45;&gt;dir_e681bd22f1a85a89d9c18b68cc50d922 -->
<g id="edge6" class="edge">
<title>dir_ccbe1ad6d82ba60b68f32a18ae1af660&#45;&gt;dir_e681bd22f1a85a89d9c18b68cc50d922</title>
<path fill="none" stroke="black" d="M157.04,-215.7C163.57,-207.39 171.52,-197.28 178.7,-188.14"/>
<polygon fill="black" stroke="black" points="181.58,-190.13 185.01,-180.1 176.08,-185.81 181.58,-190.13"/>
<g id="a_edge6&#45;headlabel"><a xlink:href="dir_000005_000009.html" target="_top" xlink:title="1">
<text text-anchor="middle" x="181.6" y="-192.21" font-family="Helvetica,sans-Serif" font-size="10.00">1</text>
</a>
</g>
</g>
<!-- dir_eaca60f7b9e9ea2ccc0f3ac48dc19de2 -->
<g id="node6" class="node">
<title>dir_eaca60f7b9e9ea2ccc0f3ac48dc19de2</title>
<g id="a_node6"><a xlink:href="dir_eaca60f7b9e9ea2ccc0f3ac48dc19de2.html" target="_top" xlink:title="virtual_memory">
<polygon fill="none" stroke="black" points="292.95,-108 197.95,-108 197.95,-72 292.95,-72 292.95,-108"/>
<text text-anchor="middle" x="245.45" y="-87.5" font-family="Helvetica,sans-Serif" font-size="10.00">virtual_memory</text>
</a>
</g>
</g>
<!-- dir_ccbe1ad6d82ba60b68f32a18ae1af660&#45;&gt;dir_eaca60f7b9e9ea2ccc0f3ac48dc19de2 -->
<g id="edge7" class="edge">
<title>dir_ccbe1ad6d82ba60b68f32a18ae1af660&#45;&gt;dir_eaca60f7b9e9ea2ccc0f3ac48dc19de2</title>
<path fill="none" stroke="black" d="M178.83,-221.35C198.46,-212.99 221.46,-199.69 234.45,-180 246.4,-161.88 248.6,-137.1 248.12,-118.29"/>
<polygon fill="black" stroke="black" points="251.61,-118.07 247.6,-108.27 244.62,-118.43 251.61,-118.07"/>
<g id="a_edge7&#45;headlabel"><a xlink:href="dir_000005_000013.html" target="_top" xlink:title="1">
<text text-anchor="middle" x="254.63" y="-119.02" font-family="Helvetica,sans-Serif" font-size="10.00">1</text>
</a>
</g>
</g>
<!-- dir_1261e2a6fb671f7d089a05433e0b6ee6&#45;&gt;dir_0c0c9fa8a58db41e576adc3ce68c5ee9 -->
<g id="edge8" class="edge">
<title>dir_1261e2a6fb671f7d089a05433e0b6ee6&#45;&gt;dir_0c0c9fa8a58db41e576adc3ce68c5ee9</title>
<path fill="none" stroke="black" d="M65.67,-143.87C61.75,-119.67 54.55,-75.21 49.89,-46.39"/>
<polygon fill="black" stroke="black" points="53.29,-45.5 48.23,-36.19 46.38,-46.62 53.29,-45.5"/>
<g id="a_edge8&#45;headlabel"><a xlink:href="dir_000010_000012.html" target="_top" xlink:title="1">
<text text-anchor="middle" x="56.66" y="-46.1" font-family="Helvetica,sans-Serif" font-size="10.00">1</text>
</a>
</g>
</g>
<!-- dir_1261e2a6fb671f7d089a05433e0b6ee6&#45;&gt;dir_303c75b2167b8ee1fb608a7a61a02a87 -->
<g id="edge9" class="edge">
<title>dir_1261e2a6fb671f7d089a05433e0b6ee6&#45;&gt;dir_303c75b2167b8ee1fb608a7a61a02a87</title>
<path fill="none" stroke="black" d="M82.04,-143.7C88.57,-135.39 96.52,-125.28 103.7,-116.14"/>
<polygon fill="black" stroke="black" points="106.58,-118.13 110.01,-108.1 101.08,-113.81 106.58,-118.13"/>
<g id="a_edge9&#45;headlabel"><a xlink:href="dir_000010_000006.html" target="_top" xlink:title="2">
<text text-anchor="middle" x="106.6" y="-120.21" font-family="Helvetica,sans-Serif" font-size="10.00">2</text>
</a>
</g>
</g>
<!-- dir_303c75b2167b8ee1fb608a7a61a02a87&#45;&gt;dir_0c0c9fa8a58db41e576adc3ce68c5ee9 -->
<g id="edge2" class="edge">
<title>dir_303c75b2167b8ee1fb608a7a61a02a87&#45;&gt;dir_0c0c9fa8a58db41e576adc3ce68c5ee9</title>
<path fill="none" stroke="black" d="M104.17,-71.7C94.53,-63.05 82.72,-52.45 72.22,-43.03"/>
<polygon fill="black" stroke="black" points="74.29,-40.18 64.51,-36.1 69.61,-45.39 74.29,-40.18"/>
<g id="a_edge2&#45;headlabel"><a xlink:href="dir_000006_000012.html" target="_top" xlink:title="1">
<text text-anchor="middle" x="78.86" y="-37.97" font-family="Helvetica,sans-Serif" font-size="10.00">1</text>
</a>
</g>
</g>
<!-- dir_e681bd22f1a85a89d9c18b68cc50d922&#45;&gt;dir_eaca60f7b9e9ea2ccc0f3ac48dc19de2 -->
<g id="edge1" class="edge">
<title>dir_e681bd22f1a85a89d9c18b68cc50d922&#45;&gt;dir_eaca60f7b9e9ea2ccc0f3ac48dc19de2</title>
<path fill="none" stroke="black" d="M210.07,-143.7C215.59,-135.47 222.3,-125.48 228.38,-116.42"/>
<polygon fill="black" stroke="black" points="231.3,-118.36 233.96,-108.1 225.48,-114.46 231.3,-118.36"/>
<g id="a_edge1&#45;headlabel"><a xlink:href="dir_000009_000013.html" target="_top" xlink:title="1">
<text text-anchor="middle" x="231.65" y="-120.42" font-family="Helvetica,sans-Serif" font-size="10.00">1</text>
</a>
</g>
</g>
</g>
</svg>
