<?xml version="1.0" encoding="UTF-8" standalone="no"?>
<!DOCTYPE svg PUBLIC "-//W3C//DTD SVG 1.1//EN"
 "http://www.w3.org/Graphics/SVG/1.1/DTD/svg11.dtd">
<!-- Generated by graphviz version 2.43.0 (0)
 -->
<!-- Title: /home/projectcs&#45;2022/argodsmBuffer/argodsmPrefetching/src/allocators/dynamic_allocator.h Pages: 1 -->
<svg width="2311pt" height="462pt"
 viewBox="0.00 0.00 2311.00 462.00" xmlns="http://www.w3.org/2000/svg" xmlns:xlink="http://www.w3.org/1999/xlink">
<g id="graph0" class="graph" transform="scale(1 1) rotate(0) translate(4 458)">
<title>/home/projectcs&#45;2022/argodsmBuffer/argodsmPrefetching/src/allocators/dynamic_allocator.h</title>
<polygon fill="white" stroke="transparent" points="-4,4 -4,-458 2307,-458 2307,4 -4,4"/>
<!-- Node1 -->
<g id="node1" class="node">
<title>Node1</title>
<g id="a_node1"><a xlink:title="This file provides the dynamic allocator for ArgoDSM.">
<polygon fill="#bfbfbf" stroke="black" points="1196,-412.5 1196,-453.5 1389,-453.5 1389,-412.5 1196,-412.5"/>
<text text-anchor="start" x="1204" y="-441.5" font-family="Helvetica,sans-Serif" font-size="10.00">/home/projectcs&#45;2022</text>
<text text-anchor="start" x="1204" y="-430.5" font-family="Helvetica,sans-Serif" font-size="10.00">/argodsmBuffer/argodsmPrefetching</text>
<text text-anchor="middle" x="1292.5" y="-419.5" font-family="Helvetica,sans-Serif" font-size="10.00">/src/allocators/dynamic_allocator.h</text>
</a>
</g>
</g>
<!-- Node2 -->
<g id="node2" class="node">
<title>Node2</title>
<g id="a_node2"><a xlink:href="allocators_8h.html" target="_top" xlink:title="This file provides all C allocators for ArgoDSM.">
<polygon fill="white" stroke="black" points="1089,-334.5 1089,-375.5 1282,-375.5 1282,-334.5 1089,-334.5"/>
<text text-anchor="start" x="1097" y="-363.5" font-family="Helvetica,sans-Serif" font-size="10.00">/home/projectcs&#45;2022</text>
<text text-anchor="start" x="1097" y="-352.5" font-family="Helvetica,sans-Serif" font-size="10.00">/argodsmBuffer/argodsmPrefetching</text>
<text text-anchor="middle" x="1185.5" y="-341.5" font-family="Helvetica,sans-Serif" font-size="10.00">/src/allocators/allocators.h</text>
</a>
</g>
</g>
<!-- Node1&#45;&gt;Node2 -->
<g id="edge1" class="edge">
<title>Node1&#45;&gt;Node2</title>
<path fill="none" stroke="midnightblue" d="M1256.79,-406.64C1242.5,-396.49 1226.3,-384.98 1212.96,-375.51"/>
<polygon fill="midnightblue" stroke="midnightblue" points="1254.77,-409.49 1264.94,-412.43 1258.82,-403.78 1254.77,-409.49"/>
</g>
<!-- Node16 -->
<g id="node16" class="node">
<title>Node16</title>
<g id="a_node16"><a xlink:href="dynamic__allocator_8hpp.html" target="_top" xlink:title="This file provides the dynamic allocator for ArgoDSM.">
<polygon fill="white" stroke="black" points="1301.5,-334.5 1301.5,-375.5 1499.5,-375.5 1499.5,-334.5 1301.5,-334.5"/>
<text text-anchor="start" x="1309.5" y="-363.5" font-family="Helvetica,sans-Serif" font-size="10.00">/home/projectcs&#45;2022</text>
<text text-anchor="start" x="1309.5" y="-352.5" font-family="Helvetica,sans-Serif" font-size="10.00">/argodsmBuffer/argodsmPrefetching</text>
<text text-anchor="middle" x="1400.5" y="-341.5" font-family="Helvetica,sans-Serif" font-size="10.00">/src/allocators/dynamic_allocator.hpp</text>
</a>
</g>
</g>
<!-- Node1&#45;&gt;Node16 -->
<g id="edge15" class="edge">
<title>Node1&#45;&gt;Node16</title>
<path fill="none" stroke="midnightblue" d="M1328.54,-406.64C1342.97,-396.49 1359.32,-384.98 1372.78,-375.51"/>
<polygon fill="midnightblue" stroke="midnightblue" points="1326.48,-403.81 1320.31,-412.43 1330.51,-409.54 1326.48,-403.81"/>
</g>
<!-- Node3 -->
<g id="node3" class="node">
<title>Node3</title>
<g id="a_node3"><a xlink:href="argo_8h.html" target="_top" xlink:title="This file provides the full C interface to ArgoDSM.">
<polygon fill="white" stroke="black" points="1015,-256.5 1015,-297.5 1208,-297.5 1208,-256.5 1015,-256.5"/>
<text text-anchor="start" x="1023" y="-285.5" font-family="Helvetica,sans-Serif" font-size="10.00">/home/projectcs&#45;2022</text>
<text text-anchor="start" x="1023" y="-274.5" font-family="Helvetica,sans-Serif" font-size="10.00">/argodsmBuffer/argodsmPrefetching</text>
<text text-anchor="middle" x="1111.5" y="-263.5" font-family="Helvetica,sans-Serif" font-size="10.00">/src/argo.h</text>
</a>
</g>
</g>
<!-- Node2&#45;&gt;Node3 -->
<g id="edge2" class="edge">
<title>Node2&#45;&gt;Node3</title>
<path fill="none" stroke="midnightblue" d="M1159.41,-327.2C1149.88,-317.42 1139.29,-306.54 1130.49,-297.51"/>
<polygon fill="midnightblue" stroke="midnightblue" points="1156.96,-329.71 1166.44,-334.43 1161.97,-324.82 1156.96,-329.71"/>
</g>
<!-- Node4 -->
<g id="node4" class="node">
<title>Node4</title>
<g id="a_node4"><a xlink:href="argo_8hpp.html" target="_top" xlink:title="This file provides the full C++ interface to ArgoDSM.">
<polygon fill="white" stroke="black" points="1055,-84 1055,-125 1248,-125 1248,-84 1055,-84"/>
<text text-anchor="start" x="1063" y="-113" font-family="Helvetica,sans-Serif" font-size="10.00">/home/projectcs&#45;2022</text>
<text text-anchor="start" x="1063" y="-102" font-family="Helvetica,sans-Serif" font-size="10.00">/argodsmBuffer/argodsmPrefetching</text>
<text text-anchor="middle" x="1151.5" y="-91" font-family="Helvetica,sans-Serif" font-size="10.00">/src/argo.hpp</text>
</a>
</g>
</g>
<!-- Node3&#45;&gt;Node4 -->
<g id="edge3" class="edge">
<title>Node3&#45;&gt;Node4</title>
<path fill="none" stroke="midnightblue" d="M1118.44,-246.4C1126.61,-211.61 1139.92,-154.84 1146.9,-125.09"/>
<polygon fill="midnightblue" stroke="midnightblue" points="1114.97,-245.91 1116.09,-256.44 1121.78,-247.51 1114.97,-245.91"/>
</g>
<!-- Node5 -->
<g id="node5" class="node">
<title>Node5</title>
<g id="a_node5"><a xlink:href="argo_8cpp.html" target="_top" xlink:title="This file implements some of the basic ArgoDSM calls.">
<polygon fill="white" stroke="black" points="2110,-0.5 2110,-41.5 2303,-41.5 2303,-0.5 2110,-0.5"/>
<text text-anchor="start" x="2118" y="-29.5" font-family="Helvetica,sans-Serif" font-size="10.00">/home/projectcs&#45;2022</text>
<text text-anchor="start" x="2118" y="-18.5" font-family="Helvetica,sans-Serif" font-size="10.00">/argodsmBuffer/argodsmPrefetching</text>
<text text-anchor="middle" x="2206.5" y="-7.5" font-family="Helvetica,sans-Serif" font-size="10.00">/src/argo.cpp</text>
</a>
</g>
</g>
<!-- Node4&#45;&gt;Node5 -->
<g id="edge4" class="edge">
<title>Node4&#45;&gt;Node5</title>
<path fill="none" stroke="midnightblue" d="M1258.32,-88.3C1288.4,-84.45 1321.19,-80.66 1351.5,-78 1683.94,-48.87 1770.11,-81.32 2101.5,-42 2104.26,-41.67 2107.06,-41.31 2109.89,-40.93"/>
<polygon fill="midnightblue" stroke="midnightblue" points="1257.7,-84.85 1248.23,-89.6 1258.59,-91.79 1257.7,-84.85"/>
</g>
<!-- Node6 -->
<g id="node6" class="node">
<title>Node6</title>
<g id="a_node6"><a xlink:href="tests_2allocators_8cpp.html" target="_top" xlink:title="This file provides unit tests for the ArgoDSM allocators and memory pools.">
<polygon fill="white" stroke="black" points="1688,-0.5 1688,-41.5 1881,-41.5 1881,-0.5 1688,-0.5"/>
<text text-anchor="start" x="1696" y="-29.5" font-family="Helvetica,sans-Serif" font-size="10.00">/home/projectcs&#45;2022</text>
<text text-anchor="start" x="1696" y="-18.5" font-family="Helvetica,sans-Serif" font-size="10.00">/argodsmBuffer/argodsmPrefetching</text>
<text text-anchor="middle" x="1784.5" y="-7.5" font-family="Helvetica,sans-Serif" font-size="10.00">/tests/allocators.cpp</text>
</a>
</g>
</g>
<!-- Node4&#45;&gt;Node6 -->
<g id="edge5" class="edge">
<title>Node4&#45;&gt;Node6</title>
<path fill="none" stroke="midnightblue" d="M1250.32,-82.13C1258.81,-80.61 1267.29,-79.21 1275.5,-78 1453.85,-51.8 1500.96,-66.9 1679.5,-42 1682.26,-41.62 1685.05,-41.21 1687.87,-40.78"/>
<polygon fill="midnightblue" stroke="midnightblue" points="1249.56,-78.71 1240.35,-83.96 1250.82,-85.59 1249.56,-78.71"/>
</g>
<!-- Node7 -->
<g id="node7" class="node">
<title>Node7</title>
<g id="a_node7"><a xlink:href="api_8cpp.html" target="_top" xlink:title="This file provides unit tests for the ArgoDSM API functions.">
<polygon fill="white" stroke="black" points="1899,-0.5 1899,-41.5 2092,-41.5 2092,-0.5 1899,-0.5"/>
<text text-anchor="start" x="1907" y="-29.5" font-family="Helvetica,sans-Serif" font-size="10.00">/home/projectcs&#45;2022</text>
<text text-anchor="start" x="1907" y="-18.5" font-family="Helvetica,sans-Serif" font-size="10.00">/argodsmBuffer/argodsmPrefetching</text>
<text text-anchor="middle" x="1995.5" y="-7.5" font-family="Helvetica,sans-Serif" font-size="10.00">/tests/api.cpp</text>
</a>
</g>
</g>
<!-- Node4&#45;&gt;Node7 -->
<g id="edge6" class="edge">
<title>Node4&#45;&gt;Node7</title>
<path fill="none" stroke="midnightblue" d="M1257.99,-85.28C1276.46,-82.54 1295.51,-79.97 1313.5,-78 1568.91,-49.99 1635.57,-74.1 1890.5,-42 1893.26,-41.65 1896.06,-41.28 1898.88,-40.88"/>
<polygon fill="midnightblue" stroke="midnightblue" points="1257.47,-81.82 1248.1,-86.77 1258.51,-88.74 1257.47,-81.82"/>
</g>
<!-- Node8 -->
<g id="node8" class="node">
<title>Node8</title>
<g id="a_node8"><a xlink:href="backend_8cpp.html" target="_top" xlink:title="This file provides tests for the backends.">
<polygon fill="white" stroke="black" points="633,-0.5 633,-41.5 826,-41.5 826,-0.5 633,-0.5"/>
<text text-anchor="start" x="641" y="-29.5" font-family="Helvetica,sans-Serif" font-size="10.00">/home/projectcs&#45;2022</text>
<text text-anchor="start" x="641" y="-18.5" font-family="Helvetica,sans-Serif" font-size="10.00">/argodsmBuffer/argodsmPrefetching</text>
<text text-anchor="middle" x="729.5" y="-7.5" font-family="Helvetica,sans-Serif" font-size="10.00">/tests/backend.cpp</text>
</a>
</g>
</g>
<!-- Node4&#45;&gt;Node8 -->
<g id="edge7" class="edge">
<title>Node4&#45;&gt;Node8</title>
<path fill="none" stroke="midnightblue" d="M1044.76,-82.88C977.57,-69.91 891.56,-53.3 826.35,-40.7"/>
<polygon fill="midnightblue" stroke="midnightblue" points="1044.47,-86.39 1054.95,-84.85 1045.79,-79.52 1044.47,-86.39"/>
</g>
<!-- Node9 -->
<g id="node9" class="node">
<title>Node9</title>
<g id="a_node9"><a xlink:href="barrier_8cpp.html" target="_top" xlink:title="This file provides tests for the barrier synchronization.">
<polygon fill="white" stroke="black" points="844,-0.5 844,-41.5 1037,-41.5 1037,-0.5 844,-0.5"/>
<text text-anchor="start" x="852" y="-29.5" font-family="Helvetica,sans-Serif" font-size="10.00">/home/projectcs&#45;2022</text>
<text text-anchor="start" x="852" y="-18.5" font-family="Helvetica,sans-Serif" font-size="10.00">/argodsmBuffer/argodsmPrefetching</text>
<text text-anchor="middle" x="940.5" y="-7.5" font-family="Helvetica,sans-Serif" font-size="10.00">/tests/barrier.cpp</text>
</a>
</g>
</g>
<!-- Node4&#45;&gt;Node9 -->
<g id="edge8" class="edge">
<title>Node4&#45;&gt;Node9</title>
<path fill="none" stroke="midnightblue" d="M1091.35,-80.27C1059.63,-68.01 1021.15,-53.15 990.99,-41.5"/>
<polygon fill="midnightblue" stroke="midnightblue" points="1090.37,-83.64 1100.96,-83.98 1092.89,-77.11 1090.37,-83.64"/>
</g>
<!-- Node10 -->
<g id="node10" class="node">
<title>Node10</title>
<g id="a_node10"><a xlink:href="lock_8cpp.html" target="_top" xlink:title="This file provides unit tests for the ArgoDSM locks.">
<polygon fill="white" stroke="black" points="422,-0.5 422,-41.5 615,-41.5 615,-0.5 422,-0.5"/>
<text text-anchor="start" x="430" y="-29.5" font-family="Helvetica,sans-Serif" font-size="10.00">/home/projectcs&#45;2022</text>
<text text-anchor="start" x="430" y="-18.5" font-family="Helvetica,sans-Serif" font-size="10.00">/argodsmBuffer/argodsmPrefetching</text>
<text text-anchor="middle" x="518.5" y="-7.5" font-family="Helvetica,sans-Serif" font-size="10.00">/tests/lock.cpp</text>
</a>
</g>
</g>
<!-- Node4&#45;&gt;Node10 -->
<g id="edge9" class="edge">
<title>Node4&#45;&gt;Node10</title>
<path fill="none" stroke="midnightblue" d="M1044.63,-89.27C1015.42,-85.49 983.75,-81.49 954.5,-78 808,-60.53 770.43,-63.69 624.5,-42 621.44,-41.55 618.34,-41.07 615.21,-40.57"/>
<polygon fill="midnightblue" stroke="midnightblue" points="1044.49,-92.78 1054.86,-90.6 1045.39,-85.84 1044.49,-92.78"/>
</g>
<!-- Node11 -->
<g id="node11" class="node">
<title>Node11</title>
<g id="a_node11"><a xlink:href="omp_8cpp.html" target="_top" xlink:title="This file provides tests using OpenMP in ArgoDSM.">
<polygon fill="white" stroke="black" points="0,-0.5 0,-41.5 193,-41.5 193,-0.5 0,-0.5"/>
<text text-anchor="start" x="8" y="-29.5" font-family="Helvetica,sans-Serif" font-size="10.00">/home/projectcs&#45;2022</text>
<text text-anchor="start" x="8" y="-18.5" font-family="Helvetica,sans-Serif" font-size="10.00">/argodsmBuffer/argodsmPrefetching</text>
<text text-anchor="middle" x="96.5" y="-7.5" font-family="Helvetica,sans-Serif" font-size="10.00">/tests/omp.cpp</text>
</a>
</g>
</g>
<!-- Node4&#45;&gt;Node11 -->
<g id="edge10" class="edge">
<title>Node4&#45;&gt;Node11</title>
<path fill="none" stroke="midnightblue" d="M1044.84,-96.64C797.76,-80.74 206.69,-42.66 201.5,-42 198.74,-41.65 195.94,-41.27 193.12,-40.87"/>
<polygon fill="midnightblue" stroke="midnightblue" points="1044.71,-100.14 1054.92,-97.29 1045.16,-93.15 1044.71,-100.14"/>
</g>
<!-- Node12 -->
<g id="node12" class="node">
<title>Node12</title>
<g id="a_node12"><a xlink:href="prefetch_8cpp.html" target="_top" xlink:title="This file provides unit tests for the ArgoDSM prefetch mechanism.">
<polygon fill="white" stroke="black" points="211,-0.5 211,-41.5 404,-41.5 404,-0.5 211,-0.5"/>
<text text-anchor="start" x="219" y="-29.5" font-family="Helvetica,sans-Serif" font-size="10.00">/home/projectcs&#45;2022</text>
<text text-anchor="start" x="219" y="-18.5" font-family="Helvetica,sans-Serif" font-size="10.00">/argodsmBuffer/argodsmPrefetching</text>
<text text-anchor="middle" x="307.5" y="-7.5" font-family="Helvetica,sans-Serif" font-size="10.00">/tests/prefetch.cpp</text>
</a>
</g>
</g>
<!-- Node4&#45;&gt;Node12 -->
<g id="edge11" class="edge">
<title>Node4&#45;&gt;Node12</title>
<path fill="none" stroke="midnightblue" d="M1044.59,-98.07C900.7,-89.96 636.98,-72.31 413.5,-42 410.44,-41.58 407.33,-41.14 404.2,-40.67"/>
<polygon fill="midnightblue" stroke="midnightblue" points="1044.56,-101.57 1054.74,-98.63 1044.95,-94.58 1044.56,-101.57"/>
</g>
<!-- Node13 -->
<g id="node13" class="node">
<title>Node13</title>
<g id="a_node13"><a xlink:href="stlallocation_8cpp.html" target="_top" xlink:title="This file provides tests using C++ interfaces in ArgoDSM.">
<polygon fill="white" stroke="black" points="1055,-0.5 1055,-41.5 1248,-41.5 1248,-0.5 1055,-0.5"/>
<text text-anchor="start" x="1063" y="-29.5" font-family="Helvetica,sans-Serif" font-size="10.00">/home/projectcs&#45;2022</text>
<text text-anchor="start" x="1063" y="-18.5" font-family="Helvetica,sans-Serif" font-size="10.00">/argodsmBuffer/argodsmPrefetching</text>
<text text-anchor="middle" x="1151.5" y="-7.5" font-family="Helvetica,sans-Serif" font-size="10.00">/tests/stlallocation.cpp</text>
</a>
</g>
</g>
<!-- Node4&#45;&gt;Node13 -->
<g id="edge12" class="edge">
<title>Node4&#45;&gt;Node13</title>
<path fill="none" stroke="midnightblue" d="M1151.5,-73.56C1151.5,-62.88 1151.5,-51.13 1151.5,-41.55"/>
<polygon fill="midnightblue" stroke="midnightblue" points="1148,-73.77 1151.5,-83.77 1155,-73.77 1148,-73.77"/>
</g>
<!-- Node14 -->
<g id="node14" class="node">
<title>Node14</title>
<g id="a_node14"><a xlink:href="trivial_8cpp.html" target="_top" xlink:title="This file provides unit tests for trivial sanity checks when using ArgoDSM.">
<polygon fill="white" stroke="black" points="1266,-0.5 1266,-41.5 1459,-41.5 1459,-0.5 1266,-0.5"/>
<text text-anchor="start" x="1274" y="-29.5" font-family="Helvetica,sans-Serif" font-size="10.00">/home/projectcs&#45;2022</text>
<text text-anchor="start" x="1274" y="-18.5" font-family="Helvetica,sans-Serif" font-size="10.00">/argodsmBuffer/argodsmPrefetching</text>
<text text-anchor="middle" x="1362.5" y="-7.5" font-family="Helvetica,sans-Serif" font-size="10.00">/tests/trivial.cpp</text>
</a>
</g>
</g>
<!-- Node4&#45;&gt;Node14 -->
<g id="edge13" class="edge">
<title>Node4&#45;&gt;Node14</title>
<path fill="none" stroke="midnightblue" d="M1211.65,-80.27C1243.37,-68.01 1281.85,-53.15 1312.01,-41.5"/>
<polygon fill="midnightblue" stroke="midnightblue" points="1210.11,-77.11 1202.04,-83.98 1212.63,-83.64 1210.11,-77.11"/>
</g>
<!-- Node15 -->
<g id="node15" class="node">
<title>Node15</title>
<g id="a_node15"><a xlink:href="uninitialized_8cpp.html" target="_top" xlink:title="This file provides unit tests for accessing ArgoDSM memory in various ways.">
<polygon fill="white" stroke="black" points="1477,-0.5 1477,-41.5 1670,-41.5 1670,-0.5 1477,-0.5"/>
<text text-anchor="start" x="1485" y="-29.5" font-family="Helvetica,sans-Serif" font-size="10.00">/home/projectcs&#45;2022</text>
<text text-anchor="start" x="1485" y="-18.5" font-family="Helvetica,sans-Serif" font-size="10.00">/argodsmBuffer/argodsmPrefetching</text>
<text text-anchor="middle" x="1573.5" y="-7.5" font-family="Helvetica,sans-Serif" font-size="10.00">/tests/uninitialized.cpp</text>
</a>
</g>
</g>
<!-- Node4&#45;&gt;Node15 -->
<g id="edge14" class="edge">
<title>Node4&#45;&gt;Node15</title>
<path fill="none" stroke="midnightblue" d="M1255.51,-81.97C1262.27,-80.61 1268.98,-79.28 1275.5,-78 1361.13,-61.21 1382.75,-58.16 1468.5,-42 1471.24,-41.48 1474.01,-40.96 1476.81,-40.43"/>
<polygon fill="midnightblue" stroke="midnightblue" points="1254.69,-78.56 1245.57,-83.96 1256.07,-85.42 1254.69,-78.56"/>
</g>
<!-- Node16&#45;&gt;Node5 -->
<g id="edge30" class="edge">
<title>Node16&#45;&gt;Node5</title>
<path fill="none" stroke="midnightblue" d="M1457.51,-330.52C1608.97,-268.13 2019.39,-99.07 2159.15,-41.5"/>
<polygon fill="midnightblue" stroke="midnightblue" points="1455.82,-327.43 1447.91,-334.47 1458.49,-333.9 1455.82,-327.43"/>
</g>
<!-- Node17 -->
<g id="node17" class="node">
<title>Node17</title>
<g id="a_node17"><a xlink:href="allocators_8hpp.html" target="_top" xlink:title="This file provides all C++ allocators for ArgoDSM.">
<polygon fill="white" stroke="black" points="1394,-173 1394,-214 1587,-214 1587,-173 1394,-173"/>
<text text-anchor="start" x="1402" y="-202" font-family="Helvetica,sans-Serif" font-size="10.00">/home/projectcs&#45;2022</text>
<text text-anchor="start" x="1402" y="-191" font-family="Helvetica,sans-Serif" font-size="10.00">/argodsmBuffer/argodsmPrefetching</text>
<text text-anchor="middle" x="1490.5" y="-180" font-family="Helvetica,sans-Serif" font-size="10.00">/src/allocators/allocators.hpp</text>
</a>
</g>
</g>
<!-- Node16&#45;&gt;Node17 -->
<g id="edge16" class="edge">
<title>Node16&#45;&gt;Node17</title>
<path fill="none" stroke="midnightblue" d="M1420.52,-326.05C1426.55,-317.23 1433.01,-307.35 1438.5,-298 1455.1,-269.73 1471.64,-235.5 1481.47,-214.36"/>
<polygon fill="midnightblue" stroke="midnightblue" points="1417.51,-324.24 1414.69,-334.45 1423.26,-328.23 1417.51,-324.24"/>
</g>
<!-- Node19 -->
<g id="node19" class="node">
<title>Node19</title>
<g id="a_node19"><a xlink:href="collective__allocator_8hpp.html" target="_top" xlink:title="This file provides the collective allocator for ArgoDSM.">
<polygon fill="white" stroke="black" points="1226,-256.5 1226,-297.5 1429,-297.5 1429,-256.5 1226,-256.5"/>
<text text-anchor="start" x="1234" y="-285.5" font-family="Helvetica,sans-Serif" font-size="10.00">/home/projectcs&#45;2022</text>
<text text-anchor="start" x="1234" y="-274.5" font-family="Helvetica,sans-Serif" font-size="10.00">/argodsmBuffer/argodsmPrefetching</text>
<text text-anchor="middle" x="1327.5" y="-263.5" font-family="Helvetica,sans-Serif" font-size="10.00">/src/allocators/collective_allocator.hpp</text>
</a>
</g>
</g>
<!-- Node16&#45;&gt;Node19 -->
<g id="edge19" class="edge">
<title>Node16&#45;&gt;Node19</title>
<path fill="none" stroke="midnightblue" d="M1374.76,-327.2C1365.36,-317.42 1354.91,-306.54 1346.24,-297.51"/>
<polygon fill="midnightblue" stroke="midnightblue" points="1372.25,-329.64 1381.7,-334.43 1377.3,-324.79 1372.25,-329.64"/>
</g>
<!-- Node17&#45;&gt;Node4 -->
<g id="edge18" class="edge">
<title>Node17&#45;&gt;Node4</title>
<path fill="none" stroke="midnightblue" d="M1404.43,-170.41C1349.93,-156.42 1280.09,-138.5 1227.62,-125.03"/>
<polygon fill="midnightblue" stroke="midnightblue" points="1403.87,-173.88 1414.42,-172.98 1405.61,-167.1 1403.87,-173.88"/>
</g>
<!-- Node18 -->
<g id="node18" class="node">
<title>Node18</title>
<g id="a_node18"><a xlink:href="src_2allocators_2allocators_8cpp.html" target="_top" xlink:title="This file provides the default allocators.">
<polygon fill="white" stroke="black" points="1394,-84 1394,-125 1587,-125 1587,-84 1394,-84"/>
<text text-anchor="start" x="1402" y="-113" font-family="Helvetica,sans-Serif" font-size="10.00">/home/projectcs&#45;2022</text>
<text text-anchor="start" x="1402" y="-102" font-family="Helvetica,sans-Serif" font-size="10.00">/argodsmBuffer/argodsmPrefetching</text>
<text text-anchor="middle" x="1490.5" y="-91" font-family="Helvetica,sans-Serif" font-size="10.00">/src/allocators/allocators.cpp</text>
</a>
</g>
</g>
<!-- Node17&#45;&gt;Node18 -->
<g id="edge17" class="edge">
<title>Node17&#45;&gt;Node18</title>
<path fill="none" stroke="midnightblue" d="M1490.5,-162.44C1490.5,-150.1 1490.5,-136.16 1490.5,-125.16"/>
<polygon fill="midnightblue" stroke="midnightblue" points="1487,-162.76 1490.5,-172.76 1494,-162.76 1487,-162.76"/>
</g>
<!-- Node19&#45;&gt;Node5 -->
<g id="edge21" class="edge">
<title>Node19&#45;&gt;Node5</title>
<path fill="none" stroke="midnightblue" d="M1331.93,-246.39C1340.06,-196.47 1358.99,-98.92 1385.5,-78 1448.03,-28.66 2022.41,-51.47 2101.5,-42 2104.26,-41.67 2107.06,-41.31 2109.89,-40.92"/>
<polygon fill="midnightblue" stroke="midnightblue" points="1328.47,-245.85 1330.36,-256.28 1335.39,-246.95 1328.47,-245.85"/>
</g>
<!-- Node19&#45;&gt;Node6 -->
<g id="edge25" class="edge">
<title>Node19&#45;&gt;Node6</title>
<path fill="none" stroke="midnightblue" d="M1313.92,-247.14C1296.05,-204.39 1271.52,-124.31 1313.5,-78 1340.94,-47.72 1639.05,-47.83 1679.5,-42 1682.26,-41.6 1685.05,-41.18 1687.86,-40.75"/>
<polygon fill="midnightblue" stroke="midnightblue" points="1310.76,-248.63 1317.94,-256.41 1317.18,-245.85 1310.76,-248.63"/>
</g>
<!-- Node19&#45;&gt;Node7 -->
<g id="edge26" class="edge">
<title>Node19&#45;&gt;Node7</title>
<path fill="none" stroke="midnightblue" d="M1320.83,-246.46C1312.89,-202.71 1305.87,-121.23 1351.5,-78 1395.07,-36.72 1830.96,-49.63 1890.5,-42 1893.26,-41.65 1896.06,-41.27 1898.88,-40.86"/>
<polygon fill="midnightblue" stroke="midnightblue" points="1317.43,-247.32 1322.78,-256.47 1324.3,-245.98 1317.43,-247.32"/>
</g>
<!-- Node19&#45;&gt;Node10 -->
<g id="edge27" class="edge">
<title>Node19&#45;&gt;Node10</title>
<path fill="none" stroke="midnightblue" d="M1270.5,-252.64C1171.53,-212.71 960.89,-130.59 777.5,-78 747.26,-69.33 675.42,-53.94 615.06,-41.49"/>
<polygon fill="midnightblue" stroke="midnightblue" points="1269.43,-255.98 1280.01,-256.48 1272.05,-249.49 1269.43,-255.98"/>
</g>
<!-- Node19&#45;&gt;Node11 -->
<g id="edge28" class="edge">
<title>Node19&#45;&gt;Node11</title>
<path fill="none" stroke="midnightblue" d="M1215.64,-255.88C914.51,-222.39 827.75,-290.61 536.5,-220 374.9,-180.83 199.37,-83.36 128.66,-41.55"/>
<polygon fill="midnightblue" stroke="midnightblue" points="1215.65,-259.4 1225.98,-257.06 1216.44,-252.45 1215.65,-259.4"/>
</g>
<!-- Node19&#45;&gt;Node12 -->
<g id="edge29" class="edge">
<title>Node19&#45;&gt;Node12</title>
<path fill="none" stroke="midnightblue" d="M1215.76,-255.88C972.38,-227.73 899.43,-287.72 667.5,-220 531.93,-180.41 390.72,-83.62 333.69,-41.79"/>
<polygon fill="midnightblue" stroke="midnightblue" points="1215.63,-259.39 1225.98,-257.1 1216.46,-252.44 1215.63,-259.39"/>
</g>
<!-- Node19&#45;&gt;Node17 -->
<g id="edge20" class="edge">
<title>Node19&#45;&gt;Node17</title>
<path fill="none" stroke="midnightblue" d="M1375.56,-251.97C1399.75,-239.87 1428.7,-225.4 1451.49,-214"/>
<polygon fill="midnightblue" stroke="midnightblue" points="1373.92,-248.88 1366.54,-256.48 1377.05,-255.14 1373.92,-248.88"/>
</g>
<!-- Node20 -->
<g id="node20" class="node">
<title>Node20</title>
<g id="a_node20"><a xlink:href="cohort__lock_8hpp.html" target="_top" xlink:title="This file provides a cohort lock for the ArgoDSM system.">
<polygon fill="white" stroke="black" points="676,-167.5 676,-219.5 869,-219.5 869,-167.5 676,-167.5"/>
<text text-anchor="start" x="684" y="-207.5" font-family="Helvetica,sans-Serif" font-size="10.00">/home/projectcs&#45;2022</text>
<text text-anchor="start" x="684" y="-196.5" font-family="Helvetica,sans-Serif" font-size="10.00">/argodsmBuffer/argodsmPrefetching</text>
<text text-anchor="start" x="684" y="-185.5" font-family="Helvetica,sans-Serif" font-size="10.00">/src/synchronization/cohort</text>
<text text-anchor="middle" x="772.5" y="-174.5" font-family="Helvetica,sans-Serif" font-size="10.00">_lock.hpp</text>
</a>
</g>
</g>
<!-- Node19&#45;&gt;Node20 -->
<g id="edge22" class="edge">
<title>Node19&#45;&gt;Node20</title>
<path fill="none" stroke="midnightblue" d="M1215.69,-255.77C1086.93,-236.44 1052.2,-238.17 926.5,-220 907.99,-217.32 888.28,-214.24 869.34,-211.16"/>
<polygon fill="midnightblue" stroke="midnightblue" points="1215.54,-259.28 1225.95,-257.32 1216.58,-252.36 1215.54,-259.28"/>
</g>
<!-- Node20&#45;&gt;Node10 -->
<g id="edge24" class="edge">
<title>Node20&#45;&gt;Node10</title>
<path fill="none" stroke="midnightblue" d="M776.17,-156.92C776.72,-131.75 772.98,-98.89 753.5,-78 748.34,-72.47 674.38,-55.39 610.8,-41.54"/>
<polygon fill="midnightblue" stroke="midnightblue" points="772.66,-157.03 775.7,-167.18 779.65,-157.35 772.66,-157.03"/>
</g>
<!-- Node21 -->
<g id="node21" class="node">
<title>Node21</title>
<g id="a_node21"><a xlink:href="cohort__lock_8cpp.html" target="_top" xlink:title="This file provides a C interface for ArgoDSM&#45;based cohort locks.">
<polygon fill="white" stroke="black" points="551,-78.5 551,-130.5 744,-130.5 744,-78.5 551,-78.5"/>
<text text-anchor="start" x="559" y="-118.5" font-family="Helvetica,sans-Serif" font-size="10.00">/home/projectcs&#45;2022</text>
<text text-anchor="start" x="559" y="-107.5" font-family="Helvetica,sans-Serif" font-size="10.00">/argodsmBuffer/argodsmPrefetching</text>
<text text-anchor="start" x="559" y="-96.5" font-family="Helvetica,sans-Serif" font-size="10.00">/src/synchronization/cohort</text>
<text text-anchor="middle" x="647.5" y="-85.5" font-family="Helvetica,sans-Serif" font-size="10.00">_lock.cpp</text>
</a>
</g>
</g>
<!-- Node20&#45;&gt;Node21 -->
<g id="edge23" class="edge">
<title>Node20&#45;&gt;Node21</title>
<path fill="none" stroke="midnightblue" d="M727.96,-161.5C713.41,-151.37 697.43,-140.25 683.57,-130.61"/>
<polygon fill="midnightblue" stroke="midnightblue" points="726.14,-164.5 736.34,-167.34 730.14,-158.75 726.14,-164.5"/>
</g>
</g>
</svg>
