<?xml version="1.0" encoding="UTF-8" standalone="no"?>
<!DOCTYPE svg PUBLIC "-//W3C//DTD SVG 1.1//EN"
 "http://www.w3.org/Graphics/SVG/1.1/DTD/svg11.dtd">
<!-- Generated by graphviz version 2.43.0 (0)
 -->
<!-- Title: /home/projectcs&#45;2022/argodsmBuffer/argodsmPrefetching/src/allocators/dynamic_allocator.hpp Pages: 1 -->
<svg width="1200pt" height="587pt"
 viewBox="0.00 0.00 1199.50 587.00" xmlns="http://www.w3.org/2000/svg" xmlns:xlink="http://www.w3.org/1999/xlink">
<g id="graph0" class="graph" transform="scale(1 1) rotate(0) translate(4 583)">
<title>/home/projectcs&#45;2022/argodsmBuffer/argodsmPrefetching/src/allocators/dynamic_allocator.hpp</title>
<polygon fill="white" stroke="transparent" points="-4,4 -4,-583 1195.5,-583 1195.5,4 -4,4"/>
<!-- Node1 -->
<g id="node1" class="node">
<title>Node1</title>
<g id="a_node1"><a xlink:title="This file provides the dynamic allocator for ArgoDSM.">
<polygon fill="#bfbfbf" stroke="black" points="180,-537.5 180,-578.5 378,-578.5 378,-537.5 180,-537.5"/>
<text text-anchor="start" x="188" y="-566.5" font-family="Helvetica,sans-Serif" font-size="10.00">/home/projectcs&#45;2022</text>
<text text-anchor="start" x="188" y="-555.5" font-family="Helvetica,sans-Serif" font-size="10.00">/argodsmBuffer/argodsmPrefetching</text>
<text text-anchor="middle" x="279" y="-544.5" font-family="Helvetica,sans-Serif" font-size="10.00">/src/allocators/dynamic_allocator.hpp</text>
</a>
</g>
</g>
<!-- Node2 -->
<g id="node2" class="node">
<title>Node2</title>
<g id="a_node2"><a xlink:title=" ">
<polygon fill="white" stroke="#bfbfbf" points="39,-409 39,-428 77,-428 77,-409 39,-409"/>
<text text-anchor="middle" x="58" y="-416" font-family="Helvetica,sans-Serif" font-size="10.00">map</text>
</a>
</g>
</g>
<!-- Node1&#45;&gt;Node2 -->
<g id="edge1" class="edge">
<title>Node1&#45;&gt;Node2</title>
<path fill="none" stroke="midnightblue" d="M179.73,-544.05C128.13,-535.07 72.63,-521.07 57,-501 43.11,-483.17 46.94,-455.85 51.79,-437.84"/>
<polygon fill="midnightblue" stroke="midnightblue" points="55.16,-438.8 54.71,-428.22 48.46,-436.77 55.16,-438.8"/>
</g>
<!-- Node3 -->
<g id="node3" class="node">
<title>Node3</title>
<g id="a_node3"><a xlink:title=" ">
<polygon fill="white" stroke="#bfbfbf" points="243,-112.5 243,-131.5 291,-131.5 291,-112.5 243,-112.5"/>
<text text-anchor="middle" x="267" y="-119.5" font-family="Helvetica,sans-Serif" font-size="10.00">mutex</text>
</a>
</g>
</g>
<!-- Node1&#45;&gt;Node3 -->
<g id="edge2" class="edge">
<title>Node1&#45;&gt;Node3</title>
<path fill="none" stroke="midnightblue" d="M179.94,-551.7C134.68,-544.97 82.67,-530.69 44,-501 11.35,-475.93 0,-460.66 0,-419.5 0,-419.5 0,-419.5 0,-294.5 0,-185.02 160.9,-142.16 232.89,-128.47"/>
<polygon fill="midnightblue" stroke="midnightblue" points="233.62,-131.89 242.83,-126.66 232.37,-125.01 233.62,-131.89"/>
</g>
<!-- Node4 -->
<g id="node4" class="node">
<title>Node4</title>
<g id="a_node4"><a xlink:title=" ">
<polygon fill="white" stroke="#bfbfbf" points="144.5,-409 144.5,-428 187.5,-428 187.5,-409 144.5,-409"/>
<text text-anchor="middle" x="166" y="-416" font-family="Helvetica,sans-Serif" font-size="10.00">stack</text>
</a>
</g>
</g>
<!-- Node1&#45;&gt;Node4 -->
<g id="edge3" class="edge">
<title>Node1&#45;&gt;Node4</title>
<path fill="none" stroke="midnightblue" d="M278.98,-537.45C278.01,-518.43 273.91,-489.62 259,-470 254.5,-464.07 218.41,-445.4 192.54,-432.51"/>
<polygon fill="midnightblue" stroke="midnightblue" points="194.07,-429.36 183.55,-428.05 190.96,-435.63 194.07,-429.36"/>
</g>
<!-- Node5 -->
<g id="node5" class="node">
<title>Node5</title>
<g id="a_node5"><a xlink:title=" ">
<polygon fill="white" stroke="#bfbfbf" points="205.5,-476 205.5,-495 250.5,-495 250.5,-476 205.5,-476"/>
<text text-anchor="middle" x="228" y="-483" font-family="Helvetica,sans-Serif" font-size="10.00">utility</text>
</a>
</g>
</g>
<!-- Node1&#45;&gt;Node5 -->
<g id="edge4" class="edge">
<title>Node1&#45;&gt;Node5</title>
<path fill="none" stroke="midnightblue" d="M264.79,-537.36C257.04,-526.65 247.55,-513.52 240.15,-503.29"/>
<polygon fill="midnightblue" stroke="midnightblue" points="242.97,-501.22 234.27,-495.17 237.3,-505.33 242.97,-501.22"/>
</g>
<!-- Node6 -->
<g id="node6" class="node">
<title>Node6</title>
<g id="a_node6"><a xlink:href="dynamic__mempool_8hpp.html" target="_top" xlink:title="This file provides a dynamically growing memory pool for ArgoDSM.">
<polygon fill="white" stroke="black" points="307,-476 307,-495 493,-495 493,-476 307,-476"/>
<text text-anchor="middle" x="400" y="-483" font-family="Helvetica,sans-Serif" font-size="10.00">mempools/dynamic_mempool.hpp</text>
</a>
</g>
</g>
<!-- Node1&#45;&gt;Node6 -->
<g id="edge5" class="edge">
<title>Node1&#45;&gt;Node6</title>
<path fill="none" stroke="midnightblue" d="M312.71,-537.36C332.95,-525.57 358.21,-510.85 376.35,-500.28"/>
<polygon fill="midnightblue" stroke="midnightblue" points="378.24,-503.23 385.11,-495.17 374.71,-497.18 378.24,-503.23"/>
</g>
<!-- Node26 -->
<g id="node26" class="node">
<title>Node26</title>
<g id="a_node26"><a xlink:href="global__mempool_8hpp.html" target="_top" xlink:title="This file provides a dynamically growing memory pool for ArgoDSM.">
<polygon fill="white" stroke="black" points="511,-476 511,-495 685,-495 685,-476 511,-476"/>
<text text-anchor="middle" x="598" y="-483" font-family="Helvetica,sans-Serif" font-size="10.00">mempools/global_mempool.hpp</text>
</a>
</g>
</g>
<!-- Node1&#45;&gt;Node26 -->
<g id="edge38" class="edge">
<title>Node1&#45;&gt;Node26</title>
<path fill="none" stroke="midnightblue" d="M367.44,-537.46C426.31,-524.44 501.42,-507.84 549.62,-497.19"/>
<polygon fill="midnightblue" stroke="midnightblue" points="550.47,-500.59 559.48,-495.01 548.96,-493.75 550.47,-500.59"/>
</g>
<!-- Node33 -->
<g id="node33" class="node">
<title>Node33</title>
<g id="a_node33"><a xlink:href="generic__allocator_8hpp.html" target="_top" xlink:title="This file provides a generic allocator template for ArgoDSM.">
<polygon fill="white" stroke="black" points="66.5,-476 66.5,-495 187.5,-495 187.5,-476 66.5,-476"/>
<text text-anchor="middle" x="127" y="-483" font-family="Helvetica,sans-Serif" font-size="10.00">generic_allocator.hpp</text>
</a>
</g>
</g>
<!-- Node1&#45;&gt;Node33 -->
<g id="edge50" class="edge">
<title>Node1&#45;&gt;Node33</title>
<path fill="none" stroke="midnightblue" d="M236.66,-537.36C210.53,-525.24 177.74,-510.03 154.85,-499.42"/>
<polygon fill="midnightblue" stroke="midnightblue" points="156.24,-496.21 145.7,-495.17 153.3,-502.56 156.24,-496.21"/>
</g>
<!-- Node34 -->
<g id="node34" class="node">
<title>Node34</title>
<g id="a_node34"><a xlink:href="null__lock_8hpp.html" target="_top" xlink:title="dummy lock, not intended for public use">
<polygon fill="white" stroke="black" points="703.5,-476 703.5,-495 784.5,-495 784.5,-476 703.5,-476"/>
<text text-anchor="middle" x="744" y="-483" font-family="Helvetica,sans-Serif" font-size="10.00">null_lock.hpp</text>
</a>
</g>
</g>
<!-- Node1&#45;&gt;Node34 -->
<g id="edge54" class="edge">
<title>Node1&#45;&gt;Node34</title>
<path fill="none" stroke="midnightblue" d="M378.23,-547.79C462.75,-538.94 587.12,-523.58 694,-501 698.4,-500.07 702.97,-498.96 707.49,-497.76"/>
<polygon fill="midnightblue" stroke="midnightblue" points="708.5,-501.11 717.2,-495.06 706.63,-494.37 708.5,-501.11"/>
</g>
<!-- Node35 -->
<g id="node35" class="node">
<title>Node35</title>
<g id="a_node35"><a xlink:href="dynamic__allocator_8h.html" target="_top" xlink:title="This file provides the dynamic allocator for ArgoDSM.">
<polygon fill="white" stroke="black" points="803,-470.5 803,-500.5 913,-500.5 913,-470.5 803,-470.5"/>
<text text-anchor="start" x="811" y="-488.5" font-family="Helvetica,sans-Serif" font-size="10.00">allocators/dynamic</text>
<text text-anchor="middle" x="858" y="-477.5" font-family="Helvetica,sans-Serif" font-size="10.00">_allocator.h</text>
</a>
</g>
</g>
<!-- Node1&#45;&gt;Node35 -->
<g id="edge55" class="edge">
<title>Node1&#45;&gt;Node35</title>
<path fill="none" stroke="midnightblue" d="M378.19,-549.61C479.9,-541.25 642.78,-525.73 792.61,-501.11"/>
<polygon fill="midnightblue" stroke="midnightblue" points="793.63,-504.49 802.92,-499.4 792.48,-497.58 793.63,-504.49"/>
</g>
<!-- Node7 -->
<g id="node7" class="node">
<title>Node7</title>
<g id="a_node7"><a xlink:href="backend_8hpp.html" target="_top" xlink:title="This file provides the backend interface.">
<polygon fill="white" stroke="black" points="339,-347.5 339,-366.5 461,-366.5 461,-347.5 339,-347.5"/>
<text text-anchor="middle" x="400" y="-354.5" font-family="Helvetica,sans-Serif" font-size="10.00">backend/backend.hpp</text>
</a>
</g>
</g>
<!-- Node6&#45;&gt;Node7 -->
<g id="edge6" class="edge">
<title>Node6&#45;&gt;Node7</title>
<path fill="none" stroke="midnightblue" d="M400,-475.81C400,-455.49 400,-404.55 400,-376.78"/>
<polygon fill="midnightblue" stroke="midnightblue" points="403.5,-376.76 400,-366.76 396.5,-376.76 403.5,-376.76"/>
</g>
<!-- Node25 -->
<g id="node25" class="node">
<title>Node25</title>
<g id="a_node25"><a xlink:href="broadcast_8hpp.html" target="_top" xlink:title="This file provides a broadcasting facility for a single value.">
<polygon fill="white" stroke="black" points="206,-409 206,-428 372,-428 372,-409 206,-409"/>
<text text-anchor="middle" x="289" y="-416" font-family="Helvetica,sans-Serif" font-size="10.00">synchronization/broadcast.hpp</text>
</a>
</g>
</g>
<!-- Node6&#45;&gt;Node25 -->
<g id="edge35" class="edge">
<title>Node6&#45;&gt;Node25</title>
<path fill="none" stroke="midnightblue" d="M385.03,-475.73C366.39,-464.82 334.34,-446.05 312.43,-433.22"/>
<polygon fill="midnightblue" stroke="midnightblue" points="314.13,-430.16 303.73,-428.13 310.59,-436.2 314.13,-430.16"/>
</g>
<!-- Node8 -->
<g id="node8" class="node">
<title>Node8</title>
<g id="a_node8"><a xlink:title=" ">
<polygon fill="white" stroke="#bfbfbf" points="451,-286 451,-305 503,-305 503,-286 451,-286"/>
<text text-anchor="middle" x="477" y="-293" font-family="Helvetica,sans-Serif" font-size="10.00">cassert</text>
</a>
</g>
</g>
<!-- Node7&#45;&gt;Node8 -->
<g id="edge7" class="edge">
<title>Node7&#45;&gt;Node8</title>
<path fill="none" stroke="midnightblue" d="M411.03,-347.48C423.27,-338.02 443.23,-322.6 457.99,-311.19"/>
<polygon fill="midnightblue" stroke="midnightblue" points="460.22,-313.89 465.99,-305.01 455.94,-308.35 460.22,-313.89"/>
</g>
<!-- Node9 -->
<g id="node9" class="node">
<title>Node9</title>
<g id="a_node9"><a xlink:title=" ">
<polygon fill="white" stroke="#bfbfbf" points="299,-286 299,-305 349,-305 349,-286 299,-286"/>
<text text-anchor="middle" x="324" y="-293" font-family="Helvetica,sans-Serif" font-size="10.00">cstdint</text>
</a>
</g>
</g>
<!-- Node7&#45;&gt;Node9 -->
<g id="edge8" class="edge">
<title>Node7&#45;&gt;Node9</title>
<path fill="none" stroke="midnightblue" d="M389.11,-347.48C377.03,-338.02 357.33,-322.6 342.76,-311.19"/>
<polygon fill="midnightblue" stroke="midnightblue" points="344.9,-308.42 334.87,-305.01 340.59,-313.93 344.9,-308.42"/>
</g>
<!-- Node10 -->
<g id="node10" class="node">
<title>Node10</title>
<g id="a_node10"><a xlink:title=" ">
<polygon fill="white" stroke="#bfbfbf" points="367.5,-286 367.5,-305 432.5,-305 432.5,-286 367.5,-286"/>
<text text-anchor="middle" x="400" y="-293" font-family="Helvetica,sans-Serif" font-size="10.00">stdexcept</text>
</a>
</g>
</g>
<!-- Node7&#45;&gt;Node10 -->
<g id="edge9" class="edge">
<title>Node7&#45;&gt;Node10</title>
<path fill="none" stroke="midnightblue" d="M400,-347.48C400,-339.08 400,-325.98 400,-315.16"/>
<polygon fill="midnightblue" stroke="midnightblue" points="403.5,-315.01 400,-305.01 396.5,-315.01 403.5,-315.01"/>
</g>
<!-- Node11 -->
<g id="node11" class="node">
<title>Node11</title>
<g id="a_node11"><a xlink:href="global__ptr_8hpp.html" target="_top" xlink:title="This file provides the global pointer for ArgoDSM.">
<polygon fill="white" stroke="black" points="579,-280.5 579,-310.5 711,-310.5 711,-280.5 579,-280.5"/>
<text text-anchor="start" x="587" y="-298.5" font-family="Helvetica,sans-Serif" font-size="10.00">data_distribution/global</text>
<text text-anchor="middle" x="645" y="-287.5" font-family="Helvetica,sans-Serif" font-size="10.00">_ptr.hpp</text>
</a>
</g>
</g>
<!-- Node7&#45;&gt;Node11 -->
<g id="edge10" class="edge">
<title>Node7&#45;&gt;Node11</title>
<path fill="none" stroke="midnightblue" d="M435.1,-347.48C472.08,-338.49 531.24,-324.13 577.34,-312.93"/>
<polygon fill="midnightblue" stroke="midnightblue" points="578.37,-316.28 587.26,-310.52 576.71,-309.48 578.37,-316.28"/>
</g>
<!-- Node19 -->
<g id="node19" class="node">
<title>Node19</title>
<g id="a_node19"><a xlink:href="types_8hpp.html" target="_top" xlink:title="This file defines common types used in ArgoDSM.">
<polygon fill="white" stroke="black" points="28.5,-56.5 28.5,-75.5 123.5,-75.5 123.5,-56.5 28.5,-56.5"/>
<text text-anchor="middle" x="76" y="-63.5" font-family="Helvetica,sans-Serif" font-size="10.00">types/types.hpp</text>
</a>
</g>
</g>
<!-- Node7&#45;&gt;Node19 -->
<g id="edge34" class="edge">
<title>Node7&#45;&gt;Node19</title>
<path fill="none" stroke="midnightblue" d="M346.86,-347.46C254.94,-331.17 76,-292.12 76,-235 76,-235 76,-235 76,-177 76,-144.95 76,-107.64 76,-85.75"/>
<polygon fill="midnightblue" stroke="midnightblue" points="79.5,-85.56 76,-75.56 72.5,-85.56 79.5,-85.56"/>
</g>
<!-- Node12 -->
<g id="node12" class="node">
<title>Node12</title>
<g id="a_node12"><a xlink:title=" ">
<polygon fill="white" stroke="#bfbfbf" points="495,-56.5 495,-75.5 539,-75.5 539,-56.5 495,-56.5"/>
<text text-anchor="middle" x="517" y="-63.5" font-family="Helvetica,sans-Serif" font-size="10.00">string</text>
</a>
</g>
</g>
<!-- Node11&#45;&gt;Node12 -->
<g id="edge11" class="edge">
<title>Node11&#45;&gt;Node12</title>
<path fill="none" stroke="midnightblue" d="M711.2,-295.37C849.16,-295 1147.08,-281.46 1053,-168 988.14,-89.77 655.28,-71.72 549.39,-67.93"/>
<polygon fill="midnightblue" stroke="midnightblue" points="549.42,-64.43 539.3,-67.59 549.18,-71.43 549.42,-64.43"/>
</g>
<!-- Node13 -->
<g id="node13" class="node">
<title>Node13</title>
<g id="a_node13"><a xlink:href="data__distribution_8hpp.html" target="_top" xlink:title="This file provides an abstraction layer for distributing the shared memory space.">
<polygon fill="white" stroke="black" points="497,-224.5 497,-243.5 617,-243.5 617,-224.5 497,-224.5"/>
<text text-anchor="middle" x="557" y="-231.5" font-family="Helvetica,sans-Serif" font-size="10.00">data_distribution.hpp</text>
</a>
</g>
</g>
<!-- Node11&#45;&gt;Node13 -->
<g id="edge12" class="edge">
<title>Node11&#45;&gt;Node13</title>
<path fill="none" stroke="midnightblue" d="M624.15,-280.4C610.3,-271.04 592.19,-258.79 578.26,-249.38"/>
<polygon fill="midnightblue" stroke="midnightblue" points="580.05,-246.36 569.8,-243.66 576.13,-252.16 580.05,-246.36"/>
</g>
<!-- Node17 -->
<g id="node17" class="node">
<title>Node17</title>
<g id="a_node17"><a xlink:href="env_8hpp.html" target="_top" xlink:title="This file provides facilities for handling environment variables.">
<polygon fill="white" stroke="black" points="152,-56.5 152,-75.5 228,-75.5 228,-56.5 152,-56.5"/>
<text text-anchor="middle" x="190" y="-63.5" font-family="Helvetica,sans-Serif" font-size="10.00">env/env.hpp</text>
</a>
</g>
</g>
<!-- Node11&#45;&gt;Node17 -->
<g id="edge33" class="edge">
<title>Node11&#45;&gt;Node17</title>
<path fill="none" stroke="midnightblue" d="M578.8,-287.84C466,-275.12 243.63,-243.53 191,-188 164.96,-160.53 175.08,-111.79 183.36,-85.33"/>
<polygon fill="midnightblue" stroke="midnightblue" points="186.7,-86.37 186.58,-75.77 180.07,-84.13 186.7,-86.37"/>
</g>
<!-- Node14 -->
<g id="node14" class="node">
<title>Node14</title>
<g id="a_node14"><a xlink:href="base__distribution_8hpp.html" target="_top" xlink:title="This file implements the base distribution class for all the policies to derive from.">
<polygon fill="white" stroke="black" points="424,-112.5 424,-131.5 546,-131.5 546,-112.5 424,-112.5"/>
<text text-anchor="middle" x="485" y="-119.5" font-family="Helvetica,sans-Serif" font-size="10.00">base_distribution.hpp</text>
</a>
</g>
</g>
<!-- Node13&#45;&gt;Node14 -->
<g id="edge13" class="edge">
<title>Node13&#45;&gt;Node14</title>
<path fill="none" stroke="midnightblue" d="M496.97,-230.32C466.62,-225.54 432.24,-214.17 413,-188 397.63,-167.09 426.84,-147.81 452.54,-135.76"/>
<polygon fill="midnightblue" stroke="midnightblue" points="454.04,-138.93 461.76,-131.67 451.2,-132.53 454.04,-138.93"/>
</g>
<!-- Node13&#45;&gt;Node17 -->
<g id="edge32" class="edge">
<title>Node13&#45;&gt;Node17</title>
<path fill="none" stroke="midnightblue" d="M496.69,-233.65C407.78,-233.27 247.75,-226.98 208,-188 180.67,-161.2 182.9,-112.15 186.62,-85.47"/>
<polygon fill="midnightblue" stroke="midnightblue" points="190.08,-85.97 188.22,-75.54 183.17,-84.85 190.08,-85.97"/>
</g>
<!-- Node20 -->
<g id="node20" class="node">
<title>Node20</title>
<g id="a_node20"><a xlink:href="cyclic__distribution_8hpp.html" target="_top" xlink:title="This file implements the cyclic data distribution.">
<polygon fill="white" stroke="black" points="422,-168.5 422,-187.5 548,-187.5 548,-168.5 422,-168.5"/>
<text text-anchor="middle" x="485" y="-175.5" font-family="Helvetica,sans-Serif" font-size="10.00">cyclic_distribution.hpp</text>
</a>
</g>
</g>
<!-- Node13&#45;&gt;Node20 -->
<g id="edge20" class="edge">
<title>Node13&#45;&gt;Node20</title>
<path fill="none" stroke="midnightblue" d="M545.43,-224.32C534.58,-216.18 518.12,-203.84 505.12,-194.09"/>
<polygon fill="midnightblue" stroke="midnightblue" points="506.88,-191.03 496.78,-187.83 502.68,-196.63 506.88,-191.03"/>
</g>
<!-- Node21 -->
<g id="node21" class="node">
<title>Node21</title>
<g id="a_node21"><a xlink:href="first__touch__distribution_8hpp.html" target="_top" xlink:title="This file implements the first&#45;touch data distribution.">
<polygon fill="white" stroke="black" points="217.5,-168.5 217.5,-187.5 366.5,-187.5 366.5,-168.5 217.5,-168.5"/>
<text text-anchor="middle" x="292" y="-175.5" font-family="Helvetica,sans-Serif" font-size="10.00">first_touch_distribution.hpp</text>
</a>
</g>
</g>
<!-- Node13&#45;&gt;Node21 -->
<g id="edge22" class="edge">
<title>Node13&#45;&gt;Node21</title>
<path fill="none" stroke="midnightblue" d="M515.01,-224.44C468.59,-214.98 393.77,-199.74 343.76,-189.55"/>
<polygon fill="midnightblue" stroke="midnightblue" points="344.29,-186.08 333.79,-187.52 342.89,-192.94 344.29,-186.08"/>
</g>
<!-- Node22 -->
<g id="node22" class="node">
<title>Node22</title>
<g id="a_node22"><a xlink:href="naive__distribution_8hpp.html" target="_top" xlink:title="This file implements the naive data distribution.">
<polygon fill="white" stroke="black" points="566.5,-168.5 566.5,-187.5 691.5,-187.5 691.5,-168.5 566.5,-168.5"/>
<text text-anchor="middle" x="629" y="-175.5" font-family="Helvetica,sans-Serif" font-size="10.00">naive_distribution.hpp</text>
</a>
</g>
</g>
<!-- Node13&#45;&gt;Node22 -->
<g id="edge26" class="edge">
<title>Node13&#45;&gt;Node22</title>
<path fill="none" stroke="midnightblue" d="M568.57,-224.32C579.42,-216.18 595.88,-203.84 608.88,-194.09"/>
<polygon fill="midnightblue" stroke="midnightblue" points="611.32,-196.63 617.22,-187.83 607.12,-191.03 611.32,-196.63"/>
</g>
<!-- Node23 -->
<g id="node23" class="node">
<title>Node23</title>
<g id="a_node23"><a xlink:href="prime__mapp__distribution_8hpp.html" target="_top" xlink:title="This file implements the prime&#45;mapp data distribution.">
<polygon fill="white" stroke="black" points="710,-168.5 710,-187.5 870,-187.5 870,-168.5 710,-168.5"/>
<text text-anchor="middle" x="790" y="-175.5" font-family="Helvetica,sans-Serif" font-size="10.00">prime_mapp_distribution.hpp</text>
</a>
</g>
</g>
<!-- Node13&#45;&gt;Node23 -->
<g id="edge28" class="edge">
<title>Node13&#45;&gt;Node23</title>
<path fill="none" stroke="midnightblue" d="M593.92,-224.44C634.4,-215.06 699.42,-199.99 743.38,-189.8"/>
<polygon fill="midnightblue" stroke="midnightblue" points="744.3,-193.18 753.25,-187.52 742.72,-186.36 744.3,-193.18"/>
</g>
<!-- Node24 -->
<g id="node24" class="node">
<title>Node24</title>
<g id="a_node24"><a xlink:href="skew__mapp__distribution_8hpp.html" target="_top" xlink:title="This file implements the skew&#45;mapp data distribution.">
<polygon fill="white" stroke="black" points="888,-168.5 888,-187.5 1044,-187.5 1044,-168.5 888,-168.5"/>
<text text-anchor="middle" x="966" y="-175.5" font-family="Helvetica,sans-Serif" font-size="10.00">skew_mapp_distribution.hpp</text>
</a>
</g>
</g>
<!-- Node13&#45;&gt;Node24 -->
<g id="edge30" class="edge">
<title>Node13&#45;&gt;Node24</title>
<path fill="none" stroke="midnightblue" d="M617.35,-225.03C690.08,-215.43 812.3,-199.29 891.02,-188.9"/>
<polygon fill="midnightblue" stroke="midnightblue" points="891.89,-192.31 901.35,-187.54 890.98,-185.38 891.89,-192.31"/>
</g>
<!-- Node14&#45;&gt;Node12 -->
<g id="edge16" class="edge">
<title>Node14&#45;&gt;Node12</title>
<path fill="none" stroke="midnightblue" d="M490.28,-112.08C494.71,-104.61 501.16,-93.72 506.62,-84.52"/>
<polygon fill="midnightblue" stroke="midnightblue" points="509.73,-86.14 511.81,-75.75 503.71,-82.57 509.73,-86.14"/>
</g>
<!-- Node15 -->
<g id="node15" class="node">
<title>Node15</title>
<g id="a_node15"><a xlink:title=" ">
<polygon fill="white" stroke="#bfbfbf" points="427.5,-56.5 427.5,-75.5 476.5,-75.5 476.5,-56.5 427.5,-56.5"/>
<text text-anchor="middle" x="452" y="-63.5" font-family="Helvetica,sans-Serif" font-size="10.00">cstdlib</text>
</a>
</g>
</g>
<!-- Node14&#45;&gt;Node15 -->
<g id="edge14" class="edge">
<title>Node14&#45;&gt;Node15</title>
<path fill="none" stroke="midnightblue" d="M479.55,-112.08C474.99,-104.61 468.33,-93.72 462.71,-84.52"/>
<polygon fill="midnightblue" stroke="midnightblue" points="465.55,-82.46 457.35,-75.75 459.58,-86.11 465.55,-82.46"/>
</g>
<!-- Node16 -->
<g id="node16" class="node">
<title>Node16</title>
<g id="a_node16"><a xlink:title=" ">
<polygon fill="white" stroke="#bfbfbf" points="834,-56.5 834,-75.5 894,-75.5 894,-56.5 834,-56.5"/>
<text text-anchor="middle" x="864" y="-63.5" font-family="Helvetica,sans-Serif" font-size="10.00">iostream</text>
</a>
</g>
</g>
<!-- Node14&#45;&gt;Node16 -->
<g id="edge15" class="edge">
<title>Node14&#45;&gt;Node16</title>
<path fill="none" stroke="midnightblue" d="M545.05,-112.44C622.92,-101.35 756.63,-82.3 823.48,-72.77"/>
<polygon fill="midnightblue" stroke="midnightblue" points="824.21,-76.21 833.61,-71.33 823.22,-69.27 824.21,-76.21"/>
</g>
<!-- Node14&#45;&gt;Node17 -->
<g id="edge17" class="edge">
<title>Node14&#45;&gt;Node17</title>
<path fill="none" stroke="midnightblue" d="M438.26,-112.44C383.5,-102.42 293.26,-85.9 237.98,-75.78"/>
<polygon fill="midnightblue" stroke="midnightblue" points="238.55,-72.33 228.08,-73.97 237.29,-79.21 238.55,-72.33"/>
</g>
<!-- Node14&#45;&gt;Node19 -->
<g id="edge19" class="edge">
<title>Node14&#45;&gt;Node19</title>
<path fill="none" stroke="midnightblue" d="M423.83,-113C355.4,-104.04 241.25,-89.06 143,-76 139.96,-75.6 136.84,-75.18 133.69,-74.76"/>
<polygon fill="midnightblue" stroke="midnightblue" points="133.96,-71.26 123.58,-73.41 133.03,-78.2 133.96,-71.26"/>
</g>
<!-- Node18 -->
<g id="node18" class="node">
<title>Node18</title>
<g id="a_node18"><a xlink:title=" ">
<polygon fill="white" stroke="#bfbfbf" points="163.5,-0.5 163.5,-19.5 216.5,-19.5 216.5,-0.5 163.5,-0.5"/>
<text text-anchor="middle" x="190" y="-7.5" font-family="Helvetica,sans-Serif" font-size="10.00">cstddef</text>
</a>
</g>
</g>
<!-- Node17&#45;&gt;Node18 -->
<g id="edge18" class="edge">
<title>Node17&#45;&gt;Node18</title>
<path fill="none" stroke="midnightblue" d="M190,-56.08C190,-49.01 190,-38.86 190,-29.99"/>
<polygon fill="midnightblue" stroke="midnightblue" points="193.5,-29.75 190,-19.75 186.5,-29.75 193.5,-29.75"/>
</g>
<!-- Node20&#45;&gt;Node14 -->
<g id="edge21" class="edge">
<title>Node20&#45;&gt;Node14</title>
<path fill="none" stroke="midnightblue" d="M485,-168.08C485,-161.01 485,-150.86 485,-141.99"/>
<polygon fill="midnightblue" stroke="midnightblue" points="488.5,-141.75 485,-131.75 481.5,-141.75 488.5,-141.75"/>
</g>
<!-- Node21&#45;&gt;Node3 -->
<g id="edge23" class="edge">
<title>Node21&#45;&gt;Node3</title>
<path fill="none" stroke="midnightblue" d="M287.87,-168.08C284.49,-160.77 279.58,-150.18 275.38,-141.1"/>
<polygon fill="midnightblue" stroke="midnightblue" points="278.43,-139.36 271.05,-131.75 272.08,-142.3 278.43,-139.36"/>
</g>
<!-- Node21&#45;&gt;Node12 -->
<g id="edge24" class="edge">
<title>Node21&#45;&gt;Node12</title>
<path fill="none" stroke="midnightblue" d="M307.35,-168.44C330.46,-155.65 375.65,-131.05 415,-112 438.95,-100.4 466.6,-88.28 487.07,-79.55"/>
<polygon fill="midnightblue" stroke="midnightblue" points="488.65,-82.68 496.49,-75.55 485.91,-76.23 488.65,-82.68"/>
</g>
<!-- Node21&#45;&gt;Node14 -->
<g id="edge25" class="edge">
<title>Node21&#45;&gt;Node14</title>
<path fill="none" stroke="midnightblue" d="M322.58,-168.44C355.61,-159.2 408.39,-144.44 444.77,-134.26"/>
<polygon fill="midnightblue" stroke="midnightblue" points="445.87,-137.58 454.56,-131.52 443.99,-130.84 445.87,-137.58"/>
</g>
<!-- Node22&#45;&gt;Node14 -->
<g id="edge27" class="edge">
<title>Node22&#45;&gt;Node14</title>
<path fill="none" stroke="midnightblue" d="M606.18,-168.44C582.17,-159.44 544.17,-145.19 517.13,-135.05"/>
<polygon fill="midnightblue" stroke="midnightblue" points="518.3,-131.75 507.71,-131.52 515.84,-138.3 518.3,-131.75"/>
</g>
<!-- Node23&#45;&gt;Node14 -->
<g id="edge29" class="edge">
<title>Node23&#45;&gt;Node14</title>
<path fill="none" stroke="midnightblue" d="M741.67,-168.44C687.8,-158.9 600.69,-143.48 543.14,-133.29"/>
<polygon fill="midnightblue" stroke="midnightblue" points="543.56,-129.81 533.1,-131.52 542.34,-136.71 543.56,-129.81"/>
</g>
<!-- Node24&#45;&gt;Node14 -->
<g id="edge31" class="edge">
<title>Node24&#45;&gt;Node14</title>
<path fill="none" stroke="midnightblue" d="M890.05,-168.47C798.41,-158.19 645.54,-141.02 556.12,-130.98"/>
<polygon fill="midnightblue" stroke="midnightblue" points="556.4,-127.49 546.07,-129.86 555.61,-134.45 556.4,-127.49"/>
</g>
<!-- Node25&#45;&gt;Node7 -->
<g id="edge36" class="edge">
<title>Node25&#45;&gt;Node7</title>
<path fill="none" stroke="midnightblue" d="M304.9,-408.98C323.28,-399.12 353.76,-382.79 375.24,-371.27"/>
<polygon fill="midnightblue" stroke="midnightblue" points="376.97,-374.32 384.13,-366.51 373.66,-368.15 376.97,-374.32"/>
</g>
<!-- Node25&#45;&gt;Node19 -->
<g id="edge37" class="edge">
<title>Node25&#45;&gt;Node19</title>
<path fill="none" stroke="midnightblue" d="M255.93,-408.99C187.77,-390.47 38,-344.33 38,-296.5 38,-296.5 38,-296.5 38,-177 38,-142.81 54.6,-105.76 65.86,-84.57"/>
<polygon fill="midnightblue" stroke="midnightblue" points="68.95,-86.22 70.72,-75.77 62.82,-82.83 68.95,-86.22"/>
</g>
<!-- Node26&#45;&gt;Node7 -->
<g id="edge43" class="edge">
<title>Node26&#45;&gt;Node7</title>
<path fill="none" stroke="midnightblue" d="M554.79,-475.94C525.15,-468.5 486.08,-455.46 457,-434 435.81,-418.37 418.88,-392.67 409.14,-375.55"/>
<polygon fill="midnightblue" stroke="midnightblue" points="412.12,-373.7 404.26,-366.59 405.97,-377.05 412.12,-373.7"/>
</g>
<!-- Node26&#45;&gt;Node11 -->
<g id="edge44" class="edge">
<title>Node26&#45;&gt;Node11</title>
<path fill="none" stroke="midnightblue" d="M654.2,-475.95C700.32,-467.65 760.32,-453.45 775,-434 809.74,-387.96 735.68,-340.4 685.72,-315.05"/>
<polygon fill="midnightblue" stroke="midnightblue" points="687.22,-311.89 676.7,-310.59 684.11,-318.16 687.22,-311.89"/>
</g>
<!-- Node26&#45;&gt;Node16 -->
<g id="edge41" class="edge">
<title>Node26&#45;&gt;Node16</title>
<path fill="none" stroke="midnightblue" d="M642.1,-475.96C766.29,-451.6 1110,-382.01 1110,-358 1110,-358 1110,-358 1110,-177 1110,-88 974.16,-70.53 904.36,-67.43"/>
<polygon fill="midnightblue" stroke="midnightblue" points="904.29,-63.92 894.16,-67.06 904.03,-70.92 904.29,-63.92"/>
</g>
<!-- Node27 -->
<g id="node27" class="node">
<title>Node27</title>
<g id="a_node27"><a xlink:title=" ">
<polygon fill="white" stroke="#bfbfbf" points="1138.5,-409 1138.5,-428 1191.5,-428 1191.5,-409 1138.5,-409"/>
<text text-anchor="middle" x="1165" y="-416" font-family="Helvetica,sans-Serif" font-size="10.00">stdlib.h</text>
</a>
</g>
</g>
<!-- Node26&#45;&gt;Node27 -->
<g id="edge39" class="edge">
<title>Node26&#45;&gt;Node27</title>
<path fill="none" stroke="midnightblue" d="M650.78,-475.98C665.1,-473.84 680.62,-471.68 695,-470 885.05,-447.84 936.94,-474.23 1124,-434 1127.43,-433.26 1130.96,-432.32 1134.44,-431.26"/>
<polygon fill="midnightblue" stroke="midnightblue" points="1135.63,-434.55 1144.02,-428.08 1133.43,-427.91 1135.63,-434.55"/>
</g>
<!-- Node28 -->
<g id="node28" class="node">
<title>Node28</title>
<g id="a_node28"><a xlink:title=" ">
<polygon fill="white" stroke="#bfbfbf" points="466.5,-409 466.5,-428 543.5,-428 543.5,-409 466.5,-409"/>
<text text-anchor="middle" x="505" y="-416" font-family="Helvetica,sans-Serif" font-size="10.00">sys/mman.h</text>
</a>
</g>
</g>
<!-- Node26&#45;&gt;Node28 -->
<g id="edge40" class="edge">
<title>Node26&#45;&gt;Node28</title>
<path fill="none" stroke="midnightblue" d="M585.46,-475.73C570.12,-465.01 543.94,-446.72 525.62,-433.91"/>
<polygon fill="midnightblue" stroke="midnightblue" points="527.55,-430.99 517.34,-428.13 523.54,-436.72 527.55,-430.99"/>
</g>
<!-- Node29 -->
<g id="node29" class="node">
<title>Node29</title>
<g id="a_node29"><a xlink:title=" ">
<polygon fill="white" stroke="#bfbfbf" points="562,-409 562,-428 620,-428 620,-409 562,-409"/>
<text text-anchor="middle" x="591" y="-416" font-family="Helvetica,sans-Serif" font-size="10.00">memory</text>
</a>
</g>
</g>
<!-- Node26&#45;&gt;Node29 -->
<g id="edge42" class="edge">
<title>Node26&#45;&gt;Node29</title>
<path fill="none" stroke="midnightblue" d="M597.06,-475.73C596.03,-466.18 594.35,-450.62 593.02,-438.28"/>
<polygon fill="midnightblue" stroke="midnightblue" points="596.48,-437.7 591.93,-428.13 589.52,-438.44 596.48,-437.7"/>
</g>
<!-- Node30 -->
<g id="node30" class="node">
<title>Node30</title>
<g id="a_node30"><a xlink:href="global__tas__lock_8hpp.html" target="_top" xlink:title="This file provides a tas lock for the ArgoDSM system based on the TAS lock made by David Klaftenegger...">
<polygon fill="white" stroke="black" points="638.5,-403.5 638.5,-433.5 765.5,-433.5 765.5,-403.5 638.5,-403.5"/>
<text text-anchor="start" x="646.5" y="-421.5" font-family="Helvetica,sans-Serif" font-size="10.00">synchronization/global</text>
<text text-anchor="middle" x="702" y="-410.5" font-family="Helvetica,sans-Serif" font-size="10.00">_tas_lock.hpp</text>
</a>
</g>
</g>
<!-- Node26&#45;&gt;Node30 -->
<g id="edge45" class="edge">
<title>Node26&#45;&gt;Node30</title>
<path fill="none" stroke="midnightblue" d="M612.03,-475.73C627.03,-466.36 651.3,-451.19 670.85,-438.97"/>
<polygon fill="midnightblue" stroke="midnightblue" points="672.83,-441.86 679.46,-433.59 669.12,-435.92 672.83,-441.86"/>
</g>
<!-- Node30&#45;&gt;Node7 -->
<g id="edge48" class="edge">
<title>Node30&#45;&gt;Node7</title>
<path fill="none" stroke="midnightblue" d="M638.3,-404.84C635.16,-404.22 632.04,-403.6 629,-403 568.82,-391.11 499.73,-377.55 453.32,-368.45"/>
<polygon fill="midnightblue" stroke="midnightblue" points="453.97,-365.01 443.48,-366.52 452.62,-371.88 453.97,-365.01"/>
</g>
<!-- Node30&#45;&gt;Node11 -->
<g id="edge49" class="edge">
<title>Node30&#45;&gt;Node11</title>
<path fill="none" stroke="midnightblue" d="M707.56,-403.49C712.52,-388.69 717.75,-365.04 709,-347 702.95,-334.52 692.15,-324.19 681.12,-316.2"/>
<polygon fill="midnightblue" stroke="midnightblue" points="682.98,-313.22 672.72,-310.54 679.07,-319.03 682.98,-313.22"/>
</g>
<!-- Node31 -->
<g id="node31" class="node">
<title>Node31</title>
<g id="a_node31"><a xlink:title=" ">
<polygon fill="white" stroke="#bfbfbf" points="584,-347.5 584,-366.5 634,-366.5 634,-347.5 584,-347.5"/>
<text text-anchor="middle" x="609" y="-354.5" font-family="Helvetica,sans-Serif" font-size="10.00">atomic</text>
</a>
</g>
</g>
<!-- Node30&#45;&gt;Node31 -->
<g id="edge46" class="edge">
<title>Node30&#45;&gt;Node31</title>
<path fill="none" stroke="midnightblue" d="M679.96,-403.4C665.19,-393.95 645.82,-381.56 631.05,-372.11"/>
<polygon fill="midnightblue" stroke="midnightblue" points="632.84,-369.1 622.53,-366.66 629.07,-375 632.84,-369.1"/>
</g>
<!-- Node32 -->
<g id="node32" class="node">
<title>Node32</title>
<g id="a_node32"><a xlink:title=" ">
<polygon fill="white" stroke="#bfbfbf" points="652,-347.5 652,-366.5 700,-366.5 700,-347.5 652,-347.5"/>
<text text-anchor="middle" x="676" y="-354.5" font-family="Helvetica,sans-Serif" font-size="10.00">thread</text>
</a>
</g>
</g>
<!-- Node30&#45;&gt;Node32 -->
<g id="edge47" class="edge">
<title>Node30&#45;&gt;Node32</title>
<path fill="none" stroke="midnightblue" d="M695.84,-403.4C692.26,-395.2 687.7,-384.78 683.86,-375.99"/>
<polygon fill="midnightblue" stroke="midnightblue" points="686.99,-374.42 679.78,-366.66 680.58,-377.22 686.99,-374.42"/>
</g>
<!-- Node33&#45;&gt;Node2 -->
<g id="edge51" class="edge">
<title>Node33&#45;&gt;Node2</title>
<path fill="none" stroke="midnightblue" d="M117.69,-475.73C106.73,-465.4 88.29,-448.04 74.81,-435.33"/>
<polygon fill="midnightblue" stroke="midnightblue" points="76.84,-432.44 67.16,-428.13 72.04,-437.53 76.84,-432.44"/>
</g>
<!-- Node33&#45;&gt;Node4 -->
<g id="edge52" class="edge">
<title>Node33&#45;&gt;Node4</title>
<path fill="none" stroke="midnightblue" d="M132.26,-475.73C138.22,-465.79 148.1,-449.34 155.63,-436.79"/>
<polygon fill="midnightblue" stroke="midnightblue" points="158.68,-438.5 160.82,-428.13 152.68,-434.9 158.68,-438.5"/>
</g>
<!-- Node33&#45;&gt;Node7 -->
<g id="edge53" class="edge">
<title>Node33&#45;&gt;Node7</title>
<path fill="none" stroke="midnightblue" d="M124.82,-475.77C121.25,-459.2 116.29,-423.07 135,-403 160.7,-375.42 259.5,-364.73 328.9,-360.6"/>
<polygon fill="midnightblue" stroke="midnightblue" points="329.13,-364.09 338.92,-360.03 328.74,-357.1 329.13,-364.09"/>
</g>
</g>
</svg>
