<?xml version="1.0" encoding="UTF-8" standalone="no"?>
<!DOCTYPE svg PUBLIC "-//W3C//DTD SVG 1.1//EN"
 "http://www.w3.org/Graphics/SVG/1.1/DTD/svg11.dtd">
<!-- Generated by graphviz version 2.43.0 (0)
 -->
<!-- Title: /home/projectcs&#45;2022/argodsmBuffer/argodsmPrefetching/src/allocators/dynamic_allocator.hpp Pages: 1 -->
<!--zoomable 384 -->
<svg id="main" version="1.1" xmlns="http://www.w3.org/2000/svg" xmlns:xlink="http://www.w3.org/1999/xlink" xml:space="preserve" onload="init(evt)">
<style type="text/css"><![CDATA[
.edge:hover path { stroke: red; }
.edge:hover polygon { stroke: red; fill: red; }
]]></style>
<script type="text/javascript"><![CDATA[
var edges = document.getElementsByTagName('g');
if (edges && edges.length) {
  for (var i=0;i<edges.length;i++) {
    if (edges[i].id.substr(0,4)=='edge') {
      edges[i].setAttribute('class','edge');
    }
  }
}
]]></script>
        <defs>
                <circle id="rim" cx="0" cy="0" r="7"/>
                <circle id="rim2" cx="0" cy="0" r="3.5"/>
                <g id="zoomPlus">
                        <use xlink:href="#rim" fill="#404040">
                                <set attributeName="fill" to="#808080" begin="zoomplus.mouseover" end="zoomplus.mouseout"/>
                        </use>
                        <path d="M-4,0h8M0,-4v8" fill="none" stroke="white" stroke-width="1.5" pointer-events="none"/>
                </g>
                <g id="zoomMin">
                        <use xlink:href="#rim" fill="#404040">
                                <set attributeName="fill" to="#808080" begin="zoomminus.mouseover" end="zoomminus.mouseout"/>
                        </use>
                        <path d="M-4,0h8" fill="none" stroke="white" stroke-width="1.5" pointer-events="none"/>
                </g>
                <g id="dirArrow">
                        <path fill="none" stroke="white" stroke-width="1.5" d="M0,-3.0v7 M-2.5,-0.5L0,-3.0L2.5,-0.5"/>
                </g>
               <g id="resetDef">
                       <use xlink:href="#rim2" fill="#404040">
                               <set attributeName="fill" to="#808080" begin="reset.mouseover" end="reset.mouseout"/>
                       </use>
               </g>
        </defs>

<script type="text/javascript">
var viewWidth = 2311;
var viewHeight = 384;
var sectionId = 'dynsection-1';
</script>
<script xlink:href="svgpan.js"/>
<svg id="graph" class="graph">
<g id="viewport">
<title>/home/projectcs&#45;2022/argodsmBuffer/argodsmPrefetching/src/allocators/dynamic_allocator.hpp</title>
<polygon fill="white" stroke="transparent" points="-4,4 -4,-380 2307,-380 2307,4 -4,4"/>
<!-- Node1 -->
<g id="node1" class="node">
<title>Node1</title>
<g id="a_node1"><a xlink:title="This file provides the dynamic allocator for ArgoDSM.">
<polygon fill="#bfbfbf" stroke="black" points="929.5,-334.5 929.5,-375.5 1127.5,-375.5 1127.5,-334.5 929.5,-334.5"/>
<text text-anchor="start" x="937.5" y="-363.5" font-family="Helvetica,sans-Serif" font-size="10.00">/home/projectcs&#45;2022</text>
<text text-anchor="start" x="937.5" y="-352.5" font-family="Helvetica,sans-Serif" font-size="10.00">/argodsmBuffer/argodsmPrefetching</text>
<text text-anchor="middle" x="1028.5" y="-341.5" font-family="Helvetica,sans-Serif" font-size="10.00">/src/allocators/dynamic_allocator.hpp</text>
</a>
</g>
</g>
<!-- Node2 -->
<g id="node2" class="node">
<title>Node2</title>
<g id="a_node2"><a xlink:href="allocators_8hpp.html" target="_top" xlink:title="This file provides all C++ allocators for ArgoDSM.">
<polygon fill="white" stroke="black" points="932,-173 932,-214 1125,-214 1125,-173 932,-173"/>
<text text-anchor="start" x="940" y="-202" font-family="Helvetica,sans-Serif" font-size="10.00">/home/projectcs&#45;2022</text>
<text text-anchor="start" x="940" y="-191" font-family="Helvetica,sans-Serif" font-size="10.00">/argodsmBuffer/argodsmPrefetching</text>
<text text-anchor="middle" x="1028.5" y="-180" font-family="Helvetica,sans-Serif" font-size="10.00">/src/allocators/allocators.hpp</text>
</a>
</g>
</g>
<!-- Node1&#45;&gt;Node2 -->
<g id="edge1" class="edge">
<title>Node1&#45;&gt;Node2</title>
<path fill="none" stroke="midnightblue" d="M1028.5,-324.3C1028.5,-292.16 1028.5,-241.81 1028.5,-214.22"/>
<polygon fill="midnightblue" stroke="midnightblue" points="1025,-324.44 1028.5,-334.44 1032,-324.44 1025,-324.44"/>
</g>
<!-- Node5 -->
<g id="node5" class="node">
<title>Node5</title>
<g id="a_node5"><a xlink:href="argo_8cpp.html" target="_top" xlink:title="This file implements some of the basic ArgoDSM calls.">
<polygon fill="white" stroke="black" points="0,-0.5 0,-41.5 193,-41.5 193,-0.5 0,-0.5"/>
<text text-anchor="start" x="8" y="-29.5" font-family="Helvetica,sans-Serif" font-size="10.00">/home/projectcs&#45;2022</text>
<text text-anchor="start" x="8" y="-18.5" font-family="Helvetica,sans-Serif" font-size="10.00">/argodsmBuffer/argodsmPrefetching</text>
<text text-anchor="middle" x="96.5" y="-7.5" font-family="Helvetica,sans-Serif" font-size="10.00">/src/argo.cpp</text>
</a>
</g>
</g>
<!-- Node1&#45;&gt;Node5 -->
<g id="edge26" class="edge">
<title>Node1&#45;&gt;Node5</title>
<path fill="none" stroke="midnightblue" d="M964.15,-331.08C790.29,-269.14 313.34,-99.24 151.25,-41.5"/>
<polygon fill="midnightblue" stroke="midnightblue" points="963.08,-334.41 973.68,-334.47 965.43,-327.82 963.08,-334.41"/>
</g>
<!-- Node16 -->
<g id="node16" class="node">
<title>Node16</title>
<g id="a_node16"><a xlink:href="collective__allocator_8hpp.html" target="_top" xlink:title="This file provides the collective allocator for ArgoDSM.">
<polygon fill="white" stroke="black" points="1472,-256.5 1472,-297.5 1675,-297.5 1675,-256.5 1472,-256.5"/>
<text text-anchor="start" x="1480" y="-285.5" font-family="Helvetica,sans-Serif" font-size="10.00">/home/projectcs&#45;2022</text>
<text text-anchor="start" x="1480" y="-274.5" font-family="Helvetica,sans-Serif" font-size="10.00">/argodsmBuffer/argodsmPrefetching</text>
<text text-anchor="middle" x="1573.5" y="-263.5" font-family="Helvetica,sans-Serif" font-size="10.00">/src/allocators/collective_allocator.hpp</text>
</a>
</g>
</g>
<!-- Node1&#45;&gt;Node16 -->
<g id="edge15" class="edge">
<title>Node1&#45;&gt;Node16</title>
<path fill="none" stroke="midnightblue" d="M1137.69,-338.77C1235.19,-325.18 1376.87,-305.42 1471.96,-292.16"/>
<polygon fill="midnightblue" stroke="midnightblue" points="1136.93,-335.35 1127.51,-340.19 1137.9,-342.28 1136.93,-335.35"/>
</g>
<!-- Node3 -->
<g id="node3" class="node">
<title>Node3</title>
<g id="a_node3"><a xlink:href="src_2allocators_2allocators_8cpp.html" target="_top" xlink:title="This file provides the default allocators.">
<polygon fill="white" stroke="black" points="932,-84 932,-125 1125,-125 1125,-84 932,-84"/>
<text text-anchor="start" x="940" y="-113" font-family="Helvetica,sans-Serif" font-size="10.00">/home/projectcs&#45;2022</text>
<text text-anchor="start" x="940" y="-102" font-family="Helvetica,sans-Serif" font-size="10.00">/argodsmBuffer/argodsmPrefetching</text>
<text text-anchor="middle" x="1028.5" y="-91" font-family="Helvetica,sans-Serif" font-size="10.00">/src/allocators/allocators.cpp</text>
</a>
</g>
</g>
<!-- Node2&#45;&gt;Node3 -->
<g id="edge2" class="edge">
<title>Node2&#45;&gt;Node3</title>
<path fill="none" stroke="midnightblue" d="M1028.5,-162.44C1028.5,-150.1 1028.5,-136.16 1028.5,-125.16"/>
<polygon fill="midnightblue" stroke="midnightblue" points="1025,-162.76 1028.5,-172.76 1032,-162.76 1025,-162.76"/>
</g>
<!-- Node4 -->
<g id="node4" class="node">
<title>Node4</title>
<g id="a_node4"><a xlink:href="argo_8hpp.html" target="_top" xlink:title="This file provides the full C++ interface to ArgoDSM.">
<polygon fill="white" stroke="black" points="1182,-84 1182,-125 1375,-125 1375,-84 1182,-84"/>
<text text-anchor="start" x="1190" y="-113" font-family="Helvetica,sans-Serif" font-size="10.00">/home/projectcs&#45;2022</text>
<text text-anchor="start" x="1190" y="-102" font-family="Helvetica,sans-Serif" font-size="10.00">/argodsmBuffer/argodsmPrefetching</text>
<text text-anchor="middle" x="1278.5" y="-91" font-family="Helvetica,sans-Serif" font-size="10.00">/src/argo.hpp</text>
</a>
</g>
</g>
<!-- Node2&#45;&gt;Node4 -->
<g id="edge3" class="edge">
<title>Node2&#45;&gt;Node4</title>
<path fill="none" stroke="midnightblue" d="M1094.22,-169.63C1134,-155.79 1184.19,-138.32 1222.15,-125.11"/>
<polygon fill="midnightblue" stroke="midnightblue" points="1092.9,-166.38 1084.6,-172.98 1095.2,-172.99 1092.9,-166.38"/>
</g>
<!-- Node4&#45;&gt;Node5 -->
<g id="edge4" class="edge">
<title>Node4&#45;&gt;Node5</title>
<path fill="none" stroke="midnightblue" d="M1192.06,-81.99C1183.8,-80.43 1175.51,-79.06 1167.5,-78 741.58,-21.65 628.4,-90.33 201.5,-42 198.73,-41.69 195.93,-41.34 193.11,-40.97"/>
<polygon fill="midnightblue" stroke="midnightblue" points="1191.63,-85.47 1202.11,-83.97 1192.98,-78.6 1191.63,-85.47"/>
</g>
<!-- Node6 -->
<g id="node6" class="node">
<title>Node6</title>
<g id="a_node6"><a xlink:href="tests_2allocators_8cpp.html" target="_top" xlink:title="This file provides unit tests for the ArgoDSM allocators and memory pools.">
<polygon fill="white" stroke="black" points="1266,-0.5 1266,-41.5 1459,-41.5 1459,-0.5 1266,-0.5"/>
<text text-anchor="start" x="1274" y="-29.5" font-family="Helvetica,sans-Serif" font-size="10.00">/home/projectcs&#45;2022</text>
<text text-anchor="start" x="1274" y="-18.5" font-family="Helvetica,sans-Serif" font-size="10.00">/argodsmBuffer/argodsmPrefetching</text>
<text text-anchor="middle" x="1362.5" y="-7.5" font-family="Helvetica,sans-Serif" font-size="10.00">/tests/allocators.cpp</text>
</a>
</g>
</g>
<!-- Node4&#45;&gt;Node6 -->
<g id="edge5" class="edge">
<title>Node4&#45;&gt;Node6</title>
<path fill="none" stroke="midnightblue" d="M1306.29,-76.54C1318.07,-65.1 1331.55,-52.03 1342.35,-41.55"/>
<polygon fill="midnightblue" stroke="midnightblue" points="1303.57,-74.3 1298.83,-83.77 1308.45,-79.32 1303.57,-74.3"/>
</g>
<!-- Node7 -->
<g id="node7" class="node">
<title>Node7</title>
<g id="a_node7"><a xlink:href="api_8cpp.html" target="_top" xlink:title="This file provides unit tests for the ArgoDSM API functions.">
<polygon fill="white" stroke="black" points="1477,-0.5 1477,-41.5 1670,-41.5 1670,-0.5 1477,-0.5"/>
<text text-anchor="start" x="1485" y="-29.5" font-family="Helvetica,sans-Serif" font-size="10.00">/home/projectcs&#45;2022</text>
<text text-anchor="start" x="1485" y="-18.5" font-family="Helvetica,sans-Serif" font-size="10.00">/argodsmBuffer/argodsmPrefetching</text>
<text text-anchor="middle" x="1573.5" y="-7.5" font-family="Helvetica,sans-Serif" font-size="10.00">/tests/api.cpp</text>
</a>
</g>
</g>
<!-- Node4&#45;&gt;Node7 -->
<g id="edge6" class="edge">
<title>Node4&#45;&gt;Node7</title>
<path fill="none" stroke="midnightblue" d="M1358.89,-81.29C1403.93,-68.85 1459.57,-53.48 1502.91,-41.5"/>
<polygon fill="midnightblue" stroke="midnightblue" points="1357.87,-77.94 1349.16,-83.98 1359.73,-84.69 1357.87,-77.94"/>
</g>
<!-- Node8 -->
<g id="node8" class="node">
<title>Node8</title>
<g id="a_node8"><a xlink:href="backend_8cpp.html" target="_top" xlink:title="This file provides tests for the backends.">
<polygon fill="white" stroke="black" points="1055,-0.5 1055,-41.5 1248,-41.5 1248,-0.5 1055,-0.5"/>
<text text-anchor="start" x="1063" y="-29.5" font-family="Helvetica,sans-Serif" font-size="10.00">/home/projectcs&#45;2022</text>
<text text-anchor="start" x="1063" y="-18.5" font-family="Helvetica,sans-Serif" font-size="10.00">/argodsmBuffer/argodsmPrefetching</text>
<text text-anchor="middle" x="1151.5" y="-7.5" font-family="Helvetica,sans-Serif" font-size="10.00">/tests/backend.cpp</text>
</a>
</g>
</g>
<!-- Node4&#45;&gt;Node8 -->
<g id="edge7" class="edge">
<title>Node4&#45;&gt;Node8</title>
<path fill="none" stroke="midnightblue" d="M1239.59,-78.53C1221.12,-66.68 1199.38,-52.72 1182.11,-41.64"/>
<polygon fill="midnightblue" stroke="midnightblue" points="1237.77,-81.52 1248.08,-83.98 1241.55,-75.63 1237.77,-81.52"/>
</g>
<!-- Node9 -->
<g id="node9" class="node">
<title>Node9</title>
<g id="a_node9"><a xlink:href="barrier_8cpp.html" target="_top" xlink:title="This file provides tests for the barrier synchronization.">
<polygon fill="white" stroke="black" points="211,-0.5 211,-41.5 404,-41.5 404,-0.5 211,-0.5"/>
<text text-anchor="start" x="219" y="-29.5" font-family="Helvetica,sans-Serif" font-size="10.00">/home/projectcs&#45;2022</text>
<text text-anchor="start" x="219" y="-18.5" font-family="Helvetica,sans-Serif" font-size="10.00">/argodsmBuffer/argodsmPrefetching</text>
<text text-anchor="middle" x="307.5" y="-7.5" font-family="Helvetica,sans-Serif" font-size="10.00">/tests/barrier.cpp</text>
</a>
</g>
</g>
<!-- Node4&#45;&gt;Node9 -->
<g id="edge8" class="edge">
<title>Node4&#45;&gt;Node9</title>
<path fill="none" stroke="midnightblue" d="M1191.62,-81.99C1183.5,-80.45 1175.37,-79.08 1167.5,-78 834.7,-32.21 746.1,-81.53 412.5,-42 409.74,-41.67 406.94,-41.31 404.11,-40.93"/>
<polygon fill="midnightblue" stroke="midnightblue" points="1191.01,-85.44 1201.5,-83.95 1192.37,-78.58 1191.01,-85.44"/>
</g>
<!-- Node10 -->
<g id="node10" class="node">
<title>Node10</title>
<g id="a_node10"><a xlink:href="lock_8cpp.html" target="_top" xlink:title="This file provides unit tests for the ArgoDSM locks.">
<polygon fill="white" stroke="black" points="2110,-0.5 2110,-41.5 2303,-41.5 2303,-0.5 2110,-0.5"/>
<text text-anchor="start" x="2118" y="-29.5" font-family="Helvetica,sans-Serif" font-size="10.00">/home/projectcs&#45;2022</text>
<text text-anchor="start" x="2118" y="-18.5" font-family="Helvetica,sans-Serif" font-size="10.00">/argodsmBuffer/argodsmPrefetching</text>
<text text-anchor="middle" x="2206.5" y="-7.5" font-family="Helvetica,sans-Serif" font-size="10.00">/tests/lock.cpp</text>
</a>
</g>
</g>
<!-- Node4&#45;&gt;Node10 -->
<g id="edge9" class="edge">
<title>Node4&#45;&gt;Node10</title>
<path fill="none" stroke="midnightblue" d="M1385.31,-99.4C1542.65,-92.48 1845.75,-75.8 2101.5,-42 2104.26,-41.64 2107.06,-41.24 2109.88,-40.83"/>
<polygon fill="midnightblue" stroke="midnightblue" points="1385,-95.91 1375.16,-99.84 1385.3,-102.9 1385,-95.91"/>
</g>
<!-- Node11 -->
<g id="node11" class="node">
<title>Node11</title>
<g id="a_node11"><a xlink:href="omp_8cpp.html" target="_top" xlink:title="This file provides tests using OpenMP in ArgoDSM.">
<polygon fill="white" stroke="black" points="1688,-0.5 1688,-41.5 1881,-41.5 1881,-0.5 1688,-0.5"/>
<text text-anchor="start" x="1696" y="-29.5" font-family="Helvetica,sans-Serif" font-size="10.00">/home/projectcs&#45;2022</text>
<text text-anchor="start" x="1696" y="-18.5" font-family="Helvetica,sans-Serif" font-size="10.00">/argodsmBuffer/argodsmPrefetching</text>
<text text-anchor="middle" x="1784.5" y="-7.5" font-family="Helvetica,sans-Serif" font-size="10.00">/tests/omp.cpp</text>
</a>
</g>
</g>
<!-- Node4&#45;&gt;Node11 -->
<g id="edge10" class="edge">
<title>Node4&#45;&gt;Node11</title>
<path fill="none" stroke="midnightblue" d="M1385.27,-88.19C1466.16,-76.34 1579.98,-59.1 1679.5,-42 1682.24,-41.53 1685.03,-41.04 1687.83,-40.55"/>
<polygon fill="midnightblue" stroke="midnightblue" points="1384.47,-84.77 1375.08,-89.68 1385.48,-91.7 1384.47,-84.77"/>
</g>
<!-- Node12 -->
<g id="node12" class="node">
<title>Node12</title>
<g id="a_node12"><a xlink:href="prefetch_8cpp.html" target="_top" xlink:title="This file provides unit tests for the ArgoDSM prefetch mechanism.">
<polygon fill="white" stroke="black" points="1899,-0.5 1899,-41.5 2092,-41.5 2092,-0.5 1899,-0.5"/>
<text text-anchor="start" x="1907" y="-29.5" font-family="Helvetica,sans-Serif" font-size="10.00">/home/projectcs&#45;2022</text>
<text text-anchor="start" x="1907" y="-18.5" font-family="Helvetica,sans-Serif" font-size="10.00">/argodsmBuffer/argodsmPrefetching</text>
<text text-anchor="middle" x="1995.5" y="-7.5" font-family="Helvetica,sans-Serif" font-size="10.00">/tests/prefetch.cpp</text>
</a>
</g>
</g>
<!-- Node4&#45;&gt;Node12 -->
<g id="edge11" class="edge">
<title>Node4&#45;&gt;Node12</title>
<path fill="none" stroke="midnightblue" d="M1385.13,-95.65C1507.52,-85.97 1714.09,-67.61 1890.5,-42 1893.25,-41.6 1896.05,-41.18 1898.86,-40.74"/>
<polygon fill="midnightblue" stroke="midnightblue" points="1384.71,-92.17 1375.01,-96.44 1385.26,-99.15 1384.71,-92.17"/>
</g>
<!-- Node13 -->
<g id="node13" class="node">
<title>Node13</title>
<g id="a_node13"><a xlink:href="stlallocation_8cpp.html" target="_top" xlink:title="This file provides tests using C++ interfaces in ArgoDSM.">
<polygon fill="white" stroke="black" points="422,-0.5 422,-41.5 615,-41.5 615,-0.5 422,-0.5"/>
<text text-anchor="start" x="430" y="-29.5" font-family="Helvetica,sans-Serif" font-size="10.00">/home/projectcs&#45;2022</text>
<text text-anchor="start" x="430" y="-18.5" font-family="Helvetica,sans-Serif" font-size="10.00">/argodsmBuffer/argodsmPrefetching</text>
<text text-anchor="middle" x="518.5" y="-7.5" font-family="Helvetica,sans-Serif" font-size="10.00">/tests/stlallocation.cpp</text>
</a>
</g>
</g>
<!-- Node4&#45;&gt;Node13 -->
<g id="edge12" class="edge">
<title>Node4&#45;&gt;Node13</title>
<path fill="none" stroke="midnightblue" d="M1190.69,-81.97C1182.88,-80.47 1175.07,-79.11 1167.5,-78 927.77,-42.76 863.85,-72.73 623.5,-42 620.74,-41.65 617.94,-41.27 615.12,-40.86"/>
<polygon fill="midnightblue" stroke="midnightblue" points="1190.08,-85.42 1200.57,-83.95 1191.45,-78.56 1190.08,-85.42"/>
</g>
<!-- Node14 -->
<g id="node14" class="node">
<title>Node14</title>
<g id="a_node14"><a xlink:href="trivial_8cpp.html" target="_top" xlink:title="This file provides unit tests for trivial sanity checks when using ArgoDSM.">
<polygon fill="white" stroke="black" points="633,-0.5 633,-41.5 826,-41.5 826,-0.5 633,-0.5"/>
<text text-anchor="start" x="641" y="-29.5" font-family="Helvetica,sans-Serif" font-size="10.00">/home/projectcs&#45;2022</text>
<text text-anchor="start" x="641" y="-18.5" font-family="Helvetica,sans-Serif" font-size="10.00">/argodsmBuffer/argodsmPrefetching</text>
<text text-anchor="middle" x="729.5" y="-7.5" font-family="Helvetica,sans-Serif" font-size="10.00">/tests/trivial.cpp</text>
</a>
</g>
</g>
<!-- Node4&#45;&gt;Node14 -->
<g id="edge13" class="edge">
<title>Node4&#45;&gt;Node14</title>
<path fill="none" stroke="midnightblue" d="M1188.87,-81.96C1181.66,-80.52 1174.47,-79.17 1167.5,-78 1020.7,-53.29 981.74,-63.94 834.5,-42 831.75,-41.59 828.96,-41.16 826.14,-40.71"/>
<polygon fill="midnightblue" stroke="midnightblue" points="1188.19,-85.39 1198.69,-83.98 1189.61,-78.54 1188.19,-85.39"/>
</g>
<!-- Node15 -->
<g id="node15" class="node">
<title>Node15</title>
<g id="a_node15"><a xlink:href="uninitialized_8cpp.html" target="_top" xlink:title="This file provides unit tests for accessing ArgoDSM memory in various ways.">
<polygon fill="white" stroke="black" points="844,-0.5 844,-41.5 1037,-41.5 1037,-0.5 844,-0.5"/>
<text text-anchor="start" x="852" y="-29.5" font-family="Helvetica,sans-Serif" font-size="10.00">/home/projectcs&#45;2022</text>
<text text-anchor="start" x="852" y="-18.5" font-family="Helvetica,sans-Serif" font-size="10.00">/argodsmBuffer/argodsmPrefetching</text>
<text text-anchor="middle" x="940.5" y="-7.5" font-family="Helvetica,sans-Serif" font-size="10.00">/tests/uninitialized.cpp</text>
</a>
</g>
</g>
<!-- Node4&#45;&gt;Node15 -->
<g id="edge14" class="edge">
<title>Node4&#45;&gt;Node15</title>
<path fill="none" stroke="midnightblue" d="M1187.68,-81.6C1135.86,-69.11 1071.46,-53.58 1021.38,-41.5"/>
<polygon fill="midnightblue" stroke="midnightblue" points="1187,-85.04 1197.54,-83.98 1188.64,-78.23 1187,-85.04"/>
</g>
<!-- Node16&#45;&gt;Node2 -->
<g id="edge16" class="edge">
<title>Node16&#45;&gt;Node2</title>
<path fill="none" stroke="midnightblue" d="M1461.79,-264.62C1373.87,-254.93 1248.41,-239.49 1139.5,-220 1129.67,-218.24 1119.4,-216.18 1109.24,-214.01"/>
<polygon fill="midnightblue" stroke="midnightblue" points="1461.47,-268.1 1471.79,-265.71 1462.23,-261.14 1461.47,-268.1"/>
</g>
<!-- Node16&#45;&gt;Node5 -->
<g id="edge17" class="edge">
<title>Node16&#45;&gt;Node5</title>
<path fill="none" stroke="midnightblue" d="M1461.91,-254.27C1376.36,-233.44 1258.73,-195.43 1172.5,-131 1149.07,-113.49 1159.34,-91.7 1133.5,-78 1041.94,-29.46 304.47,-53.73 201.5,-42 198.73,-41.68 195.93,-41.34 193.11,-40.96"/>
<polygon fill="midnightblue" stroke="midnightblue" points="1461.11,-257.68 1471.65,-256.6 1462.74,-250.87 1461.11,-257.68"/>
</g>
<!-- Node16&#45;&gt;Node6 -->
<g id="edge21" class="edge">
<title>Node16&#45;&gt;Node6</title>
<path fill="none" stroke="midnightblue" d="M1550.86,-248.74C1508.03,-197.18 1416.1,-86.52 1378.76,-41.58"/>
<polygon fill="midnightblue" stroke="midnightblue" points="1548.21,-251.04 1557.29,-256.49 1553.6,-246.56 1548.21,-251.04"/>
</g>
<!-- Node16&#45;&gt;Node7 -->
<g id="edge22" class="edge">
<title>Node16&#45;&gt;Node7</title>
<path fill="none" stroke="midnightblue" d="M1573.5,-246.48C1573.5,-194.01 1573.5,-85.87 1573.5,-41.58"/>
<polygon fill="midnightblue" stroke="midnightblue" points="1570,-246.49 1573.5,-256.49 1577,-246.49 1570,-246.49"/>
</g>
<!-- Node16&#45;&gt;Node10 -->
<g id="edge23" class="edge">
<title>Node16&#45;&gt;Node10</title>
<path fill="none" stroke="midnightblue" d="M1638.2,-252.86C1662.76,-243.46 1690.76,-231.99 1715.5,-220 1771.95,-192.64 1901.12,-100.98 1959.5,-78 1986.81,-67.25 2052.81,-52.48 2109.72,-40.81"/>
<polygon fill="midnightblue" stroke="midnightblue" points="1636.72,-249.67 1628.61,-256.49 1639.2,-256.22 1636.72,-249.67"/>
</g>
<!-- Node16&#45;&gt;Node11 -->
<g id="edge24" class="edge">
<title>Node16&#45;&gt;Node11</title>
<path fill="none" stroke="midnightblue" d="M1596.14,-248.74C1638.97,-197.18 1730.9,-86.52 1768.24,-41.58"/>
<polygon fill="midnightblue" stroke="midnightblue" points="1593.4,-246.56 1589.71,-256.49 1598.79,-251.04 1593.4,-246.56"/>
</g>
<!-- Node16&#45;&gt;Node12 -->
<g id="edge25" class="edge">
<title>Node16&#45;&gt;Node12</title>
<path fill="none" stroke="midnightblue" d="M1612.5,-250.61C1671.99,-212.13 1789.28,-137.26 1891.5,-78 1913.14,-65.45 1937.78,-52.14 1957.64,-41.65"/>
<polygon fill="midnightblue" stroke="midnightblue" points="1610.3,-247.86 1603.81,-256.24 1614.1,-253.74 1610.3,-247.86"/>
</g>
<!-- Node17 -->
<g id="node17" class="node">
<title>Node17</title>
<g id="a_node17"><a xlink:href="cohort__lock_8hpp.html" target="_top" xlink:title="This file provides a cohort lock for the ArgoDSM system.">
<polygon fill="white" stroke="black" points="1968,-167.5 1968,-219.5 2161,-219.5 2161,-167.5 1968,-167.5"/>
<text text-anchor="start" x="1976" y="-207.5" font-family="Helvetica,sans-Serif" font-size="10.00">/home/projectcs&#45;2022</text>
<text text-anchor="start" x="1976" y="-196.5" font-family="Helvetica,sans-Serif" font-size="10.00">/argodsmBuffer/argodsmPrefetching</text>
<text text-anchor="start" x="1976" y="-185.5" font-family="Helvetica,sans-Serif" font-size="10.00">/src/synchronization/cohort</text>
<text text-anchor="middle" x="2064.5" y="-174.5" font-family="Helvetica,sans-Serif" font-size="10.00">_lock.hpp</text>
</a>
</g>
</g>
<!-- Node16&#45;&gt;Node17 -->
<g id="edge18" class="edge">
<title>Node16&#45;&gt;Node17</title>
<path fill="none" stroke="midnightblue" d="M1685.64,-258.25C1753.39,-247.42 1841.45,-233.18 1919.5,-220 1935.13,-217.36 1951.69,-214.51 1967.82,-211.69"/>
<polygon fill="midnightblue" stroke="midnightblue" points="1684.7,-254.85 1675.38,-259.89 1685.8,-261.77 1684.7,-254.85"/>
</g>
<!-- Node17&#45;&gt;Node10 -->
<g id="edge20" class="edge">
<title>Node17&#45;&gt;Node10</title>
<path fill="none" stroke="midnightblue" d="M2133.87,-162.06C2147.45,-153.58 2160.54,-143.26 2170.5,-131 2191.86,-104.7 2200.72,-65.26 2204.27,-41.73"/>
<polygon fill="midnightblue" stroke="midnightblue" points="2131.73,-159.26 2124.91,-167.36 2135.29,-165.28 2131.73,-159.26"/>
</g>
<!-- Node18 -->
<g id="node18" class="node">
<title>Node18</title>
<g id="a_node18"><a xlink:href="cohort__lock_8cpp.html" target="_top" xlink:title="This file provides a C interface for ArgoDSM&#45;based cohort locks.">
<polygon fill="white" stroke="black" points="1968,-78.5 1968,-130.5 2161,-130.5 2161,-78.5 1968,-78.5"/>
<text text-anchor="start" x="1976" y="-118.5" font-family="Helvetica,sans-Serif" font-size="10.00">/home/projectcs&#45;2022</text>
<text text-anchor="start" x="1976" y="-107.5" font-family="Helvetica,sans-Serif" font-size="10.00">/argodsmBuffer/argodsmPrefetching</text>
<text text-anchor="start" x="1976" y="-96.5" font-family="Helvetica,sans-Serif" font-size="10.00">/src/synchronization/cohort</text>
<text text-anchor="middle" x="2064.5" y="-85.5" font-family="Helvetica,sans-Serif" font-size="10.00">_lock.cpp</text>
</a>
</g>
</g>
<!-- Node17&#45;&gt;Node18 -->
<g id="edge19" class="edge">
<title>Node17&#45;&gt;Node18</title>
<path fill="none" stroke="midnightblue" d="M2064.5,-157.19C2064.5,-148.28 2064.5,-138.9 2064.5,-130.61"/>
<polygon fill="midnightblue" stroke="midnightblue" points="2061,-157.34 2064.5,-167.34 2068,-157.34 2061,-157.34"/>
</g>
</g>
</svg>
        <g id="navigator" transform="translate(0 0)" fill="#404254">
                <rect fill="#f2f5e9" fill-opacity="0.5" stroke="#606060" stroke-width=".5" x="0" y="0" width="60" height="60"/>
                <use id="zoomplus" xlink:href="#zoomPlus" x="17" y="9" onmousedown="handleZoom(evt,'in')"/>
                <use id="zoomminus" xlink:href="#zoomMin" x="42" y="9" onmousedown="handleZoom(evt,'out')"/>
                <use id="reset" xlink:href="#resetDef" x="30" y="36" onmousedown="handleReset()"/>
                <g id="arrowUp" xlink:href="#dirArrow" transform="translate(30 24)" onmousedown="handlePan(0,-1)">
                  <use xlink:href="#rim" fill="#404040">
                        <set attributeName="fill" to="#808080" begin="arrowUp.mouseover" end="arrowUp.mouseout"/>
                  </use>
                  <path fill="none" stroke="white" stroke-width="1.5" d="M0,-3.0v7 M-2.5,-0.5L0,-3.0L2.5,-0.5"/>
                </g>
                <g id="arrowRight" xlink:href="#dirArrow" transform="rotate(90) translate(36 -43)" onmousedown="handlePan(1,0)">
                  <use xlink:href="#rim" fill="#404040">
                        <set attributeName="fill" to="#808080" begin="arrowRight.mouseover" end="arrowRight.mouseout"/>
                  </use>
                  <path fill="none" stroke="white" stroke-width="1.5" d="M0,-3.0v7 M-2.5,-0.5L0,-3.0L2.5,-0.5"/>
                </g>
                <g id="arrowDown" xlink:href="#dirArrow" transform="rotate(180) translate(-30 -48)" onmousedown="handlePan(0,1)">
                  <use xlink:href="#rim" fill="#404040">
                        <set attributeName="fill" to="#808080" begin="arrowDown.mouseover" end="arrowDown.mouseout"/>
                  </use>
                  <path fill="none" stroke="white" stroke-width="1.5" d="M0,-3.0v7 M-2.5,-0.5L0,-3.0L2.5,-0.5"/>
                </g>
                <g id="arrowLeft" xlink:href="#dirArrow" transform="rotate(270) translate(-36 17)" onmousedown="handlePan(-1,0)">
                  <use xlink:href="#rim" fill="#404040">
                        <set attributeName="fill" to="#808080" begin="arrowLeft.mouseover" end="arrowLeft.mouseout"/>
                  </use>
                  <path fill="none" stroke="white" stroke-width="1.5" d="M0,-3.0v7 M-2.5,-0.5L0,-3.0L2.5,-0.5"/>
                </g>
        </g>
        <svg viewBox="0 0 15 15" width="100%" height="30px" preserveAspectRatio="xMaxYMin meet">
         <g id="arrow_out" transform="scale(0.3 0.3)">
          <a xlink:href="dynamic__allocator_8hpp__dep__incl_org.svg" target="_base">
           <rect id="button" ry="5" rx="5" y="6" x="6" height="38" width="38"
                fill="#f2f5e9" fill-opacity="0.5" stroke="#606060" stroke-width="1.0"/>
           <path id="arrow"
             d="M 11.500037,31.436501 C 11.940474,20.09759 22.043105,11.32322 32.158766,21.979434 L 37.068811,17.246167 C 37.068811,17.246167 37.088388,32 37.088388,32 L 22.160133,31.978069 C 22.160133,31.978069 26.997745,27.140456 26.997745,27.140456 C 18.528582,18.264221 13.291696,25.230495 11.500037,31.436501 z"
             style="fill:#404040;"/>
          </a>
         </g>
        </svg>
</svg>
