<?xml version="1.0" encoding="UTF-8" standalone="no"?>
<!DOCTYPE svg PUBLIC "-//W3C//DTD SVG 1.1//EN"
 "http://www.w3.org/Graphics/SVG/1.1/DTD/svg11.dtd">
<!-- Generated by graphviz version 2.43.0 (0)
 -->
<!-- Title: /home/projectcs&#45;2022/argodsmBuffer/argodsmPrefetching/src/mempools/dynamic_mempool.hpp Pages: 1 -->
<svg width="1212pt" height="509pt"
 viewBox="0.00 0.00 1212.00 509.00" xmlns="http://www.w3.org/2000/svg" xmlns:xlink="http://www.w3.org/1999/xlink">
<g id="graph0" class="graph" transform="scale(1 1) rotate(0) translate(4 505)">
<title>/home/projectcs&#45;2022/argodsmBuffer/argodsmPrefetching/src/mempools/dynamic_mempool.hpp</title>
<polygon fill="white" stroke="transparent" points="-4,4 -4,-505 1208,-505 1208,4 -4,4"/>
<!-- Node1 -->
<g id="node1" class="node">
<title>Node1</title>
<g id="a_node1"><a xlink:title="This file provides a dynamically growing memory pool for ArgoDSM.">
<polygon fill="#bfbfbf" stroke="black" points="962,-459.5 962,-500.5 1168,-500.5 1168,-459.5 962,-459.5"/>
<text text-anchor="start" x="970" y="-488.5" font-family="Helvetica,sans-Serif" font-size="10.00">/home/projectcs&#45;2022</text>
<text text-anchor="start" x="970" y="-477.5" font-family="Helvetica,sans-Serif" font-size="10.00">/argodsmBuffer/argodsmPrefetching</text>
<text text-anchor="middle" x="1065" y="-466.5" font-family="Helvetica,sans-Serif" font-size="10.00">/src/mempools/dynamic_mempool.hpp</text>
</a>
</g>
</g>
<!-- Node2 -->
<g id="node2" class="node">
<title>Node2</title>
<g id="a_node2"><a xlink:href="backend_8hpp.html" target="_top" xlink:title="This file provides the backend interface.">
<polygon fill="white" stroke="black" points="949,-347.5 949,-366.5 1071,-366.5 1071,-347.5 949,-347.5"/>
<text text-anchor="middle" x="1010" y="-354.5" font-family="Helvetica,sans-Serif" font-size="10.00">backend/backend.hpp</text>
</a>
</g>
</g>
<!-- Node1&#45;&gt;Node2 -->
<g id="edge1" class="edge">
<title>Node1&#45;&gt;Node2</title>
<path fill="none" stroke="midnightblue" d="M1050.37,-459.32C1043.16,-448.93 1034.8,-435.72 1029,-423 1022.14,-407.96 1017.08,-389.83 1013.92,-376.54"/>
<polygon fill="midnightblue" stroke="midnightblue" points="1017.31,-375.68 1011.71,-366.69 1010.48,-377.22 1017.31,-375.68"/>
</g>
<!-- Node21 -->
<g id="node21" class="node">
<title>Node21</title>
<g id="a_node21"><a xlink:href="broadcast_8hpp.html" target="_top" xlink:title="This file provides a broadcasting facility for a single value.">
<polygon fill="white" stroke="black" points="1038,-403.5 1038,-422.5 1204,-422.5 1204,-403.5 1038,-403.5"/>
<text text-anchor="middle" x="1121" y="-410.5" font-family="Helvetica,sans-Serif" font-size="10.00">synchronization/broadcast.hpp</text>
</a>
</g>
</g>
<!-- Node1&#45;&gt;Node21 -->
<g id="edge30" class="edge">
<title>Node1&#45;&gt;Node21</title>
<path fill="none" stroke="midnightblue" d="M1081.8,-459.5C1089.81,-450.2 1099.28,-439.21 1106.91,-430.36"/>
<polygon fill="midnightblue" stroke="midnightblue" points="1109.67,-432.51 1113.55,-422.65 1104.37,-427.94 1109.67,-432.51"/>
</g>
<!-- Node3 -->
<g id="node3" class="node">
<title>Node3</title>
<g id="a_node3"><a xlink:title=" ">
<polygon fill="white" stroke="#bfbfbf" points="949,-286 949,-305 1001,-305 1001,-286 949,-286"/>
<text text-anchor="middle" x="975" y="-293" font-family="Helvetica,sans-Serif" font-size="10.00">cassert</text>
</a>
</g>
</g>
<!-- Node2&#45;&gt;Node3 -->
<g id="edge2" class="edge">
<title>Node2&#45;&gt;Node3</title>
<path fill="none" stroke="midnightblue" d="M1004.99,-347.48C999.84,-338.73 991.69,-324.87 985.18,-313.81"/>
<polygon fill="midnightblue" stroke="midnightblue" points="988.09,-311.85 980.01,-305.01 982.06,-315.4 988.09,-311.85"/>
</g>
<!-- Node4 -->
<g id="node4" class="node">
<title>Node4</title>
<g id="a_node4"><a xlink:title=" ">
<polygon fill="white" stroke="#bfbfbf" points="1019,-286 1019,-305 1069,-305 1069,-286 1019,-286"/>
<text text-anchor="middle" x="1044" y="-293" font-family="Helvetica,sans-Serif" font-size="10.00">cstdint</text>
</a>
</g>
</g>
<!-- Node2&#45;&gt;Node4 -->
<g id="edge3" class="edge">
<title>Node2&#45;&gt;Node4</title>
<path fill="none" stroke="midnightblue" d="M1014.87,-347.48C1019.87,-338.73 1027.79,-324.87 1034.11,-313.81"/>
<polygon fill="midnightblue" stroke="midnightblue" points="1037.22,-315.43 1039.14,-305.01 1031.14,-311.96 1037.22,-315.43"/>
</g>
<!-- Node5 -->
<g id="node5" class="node">
<title>Node5</title>
<g id="a_node5"><a xlink:title=" ">
<polygon fill="white" stroke="#bfbfbf" points="1087.5,-286 1087.5,-305 1152.5,-305 1152.5,-286 1087.5,-286"/>
<text text-anchor="middle" x="1120" y="-293" font-family="Helvetica,sans-Serif" font-size="10.00">stdexcept</text>
</a>
</g>
</g>
<!-- Node2&#45;&gt;Node5 -->
<g id="edge4" class="edge">
<title>Node2&#45;&gt;Node5</title>
<path fill="none" stroke="midnightblue" d="M1025.76,-347.48C1043.98,-337.62 1074.17,-321.29 1095.47,-309.77"/>
<polygon fill="midnightblue" stroke="midnightblue" points="1097.14,-312.85 1104.27,-305.01 1093.81,-306.69 1097.14,-312.85"/>
</g>
<!-- Node6 -->
<g id="node6" class="node">
<title>Node6</title>
<g id="a_node6"><a xlink:href="global__ptr_8hpp.html" target="_top" xlink:title="This file provides the global pointer for ArgoDSM.">
<polygon fill="white" stroke="black" points="154,-280.5 154,-310.5 286,-310.5 286,-280.5 154,-280.5"/>
<text text-anchor="start" x="162" y="-298.5" font-family="Helvetica,sans-Serif" font-size="10.00">data_distribution/global</text>
<text text-anchor="middle" x="220" y="-287.5" font-family="Helvetica,sans-Serif" font-size="10.00">_ptr.hpp</text>
</a>
</g>
</g>
<!-- Node2&#45;&gt;Node6 -->
<g id="edge5" class="edge">
<title>Node2&#45;&gt;Node6</title>
<path fill="none" stroke="midnightblue" d="M948.99,-351.41C806.54,-340.68 452.28,-313.99 296.06,-302.23"/>
<polygon fill="midnightblue" stroke="midnightblue" points="296.3,-298.74 286.06,-301.48 295.77,-305.72 296.3,-298.74"/>
</g>
<!-- Node14 -->
<g id="node14" class="node">
<title>Node14</title>
<g id="a_node14"><a xlink:href="types_8hpp.html" target="_top" xlink:title="This file defines common types used in ArgoDSM.">
<polygon fill="white" stroke="black" points="873.5,-56.5 873.5,-75.5 968.5,-75.5 968.5,-56.5 873.5,-56.5"/>
<text text-anchor="middle" x="921" y="-63.5" font-family="Helvetica,sans-Serif" font-size="10.00">types/types.hpp</text>
</a>
</g>
</g>
<!-- Node2&#45;&gt;Node14 -->
<g id="edge29" class="edge">
<title>Node2&#45;&gt;Node14</title>
<path fill="none" stroke="midnightblue" d="M988.49,-347.4C972.76,-340.03 952.13,-327.91 940,-311 919.71,-282.71 921,-269.82 921,-235 921,-235 921,-235 921,-177 921,-144.95 921,-107.64 921,-85.75"/>
<polygon fill="midnightblue" stroke="midnightblue" points="924.5,-85.56 921,-75.56 917.5,-85.56 924.5,-85.56"/>
</g>
<!-- Node7 -->
<g id="node7" class="node">
<title>Node7</title>
<g id="a_node7"><a xlink:title=" ">
<polygon fill="white" stroke="#bfbfbf" points="145,-56.5 145,-75.5 189,-75.5 189,-56.5 145,-56.5"/>
<text text-anchor="middle" x="167" y="-63.5" font-family="Helvetica,sans-Serif" font-size="10.00">string</text>
</a>
</g>
</g>
<!-- Node6&#45;&gt;Node7 -->
<g id="edge6" class="edge">
<title>Node6&#45;&gt;Node7</title>
<path fill="none" stroke="midnightblue" d="M177.55,-280.35C138.07,-264.66 81.59,-235.14 56,-188 42.04,-162.29 77.32,-116.94 82,-112 96.74,-96.47 118.05,-85.2 135.64,-77.83"/>
<polygon fill="midnightblue" stroke="midnightblue" points="136.96,-81.07 144.96,-74.13 134.38,-74.56 136.96,-81.07"/>
</g>
<!-- Node8 -->
<g id="node8" class="node">
<title>Node8</title>
<g id="a_node8"><a xlink:href="data__distribution_8hpp.html" target="_top" xlink:title="This file provides an abstraction layer for distributing the shared memory space.">
<polygon fill="white" stroke="black" points="308,-224.5 308,-243.5 428,-243.5 428,-224.5 308,-224.5"/>
<text text-anchor="middle" x="368" y="-231.5" font-family="Helvetica,sans-Serif" font-size="10.00">data_distribution.hpp</text>
</a>
</g>
</g>
<!-- Node6&#45;&gt;Node8 -->
<g id="edge7" class="edge">
<title>Node6&#45;&gt;Node8</title>
<path fill="none" stroke="midnightblue" d="M255.07,-280.4C280.02,-270.37 313.21,-257.03 337.14,-247.4"/>
<polygon fill="midnightblue" stroke="midnightblue" points="338.49,-250.64 346.46,-243.66 335.88,-244.14 338.49,-250.64"/>
</g>
<!-- Node12 -->
<g id="node12" class="node">
<title>Node12</title>
<g id="a_node12"><a xlink:href="env_8hpp.html" target="_top" xlink:title="This file provides facilities for handling environment variables.">
<polygon fill="white" stroke="black" points="0,-56.5 0,-75.5 76,-75.5 76,-56.5 0,-56.5"/>
<text text-anchor="middle" x="38" y="-63.5" font-family="Helvetica,sans-Serif" font-size="10.00">env/env.hpp</text>
</a>
</g>
</g>
<!-- Node6&#45;&gt;Node12 -->
<g id="edge28" class="edge">
<title>Node6&#45;&gt;Node12</title>
<path fill="none" stroke="midnightblue" d="M153.84,-280.76C128.96,-273.1 101.72,-261.45 81,-244 34.08,-204.47 33.58,-123.2 36.09,-86.16"/>
<polygon fill="midnightblue" stroke="midnightblue" points="39.61,-86.05 36.95,-75.8 32.63,-85.47 39.61,-86.05"/>
</g>
<!-- Node9 -->
<g id="node9" class="node">
<title>Node9</title>
<g id="a_node9"><a xlink:href="base__distribution_8hpp.html" target="_top" xlink:title="This file implements the base distribution class for all the policies to derive from.">
<polygon fill="white" stroke="black" points="379,-112.5 379,-131.5 501,-131.5 501,-112.5 379,-112.5"/>
<text text-anchor="middle" x="440" y="-119.5" font-family="Helvetica,sans-Serif" font-size="10.00">base_distribution.hpp</text>
</a>
</g>
</g>
<!-- Node8&#45;&gt;Node9 -->
<g id="edge8" class="edge">
<title>Node8&#45;&gt;Node9</title>
<path fill="none" stroke="midnightblue" d="M428.4,-231.98C554.21,-229.24 835.14,-219.6 864,-188 912.7,-134.68 644.25,-124.84 511.24,-123.21"/>
<polygon fill="midnightblue" stroke="midnightblue" points="511.17,-119.71 501.13,-123.1 511.09,-126.71 511.17,-119.71"/>
</g>
<!-- Node8&#45;&gt;Node12 -->
<g id="edge27" class="edge">
<title>Node8&#45;&gt;Node12</title>
<path fill="none" stroke="midnightblue" d="M307.69,-232.57C227.1,-230.65 90.42,-222.27 56,-188 28.87,-160.99 31.02,-112.03 34.67,-85.42"/>
<polygon fill="midnightblue" stroke="midnightblue" points="38.13,-85.94 36.24,-75.51 31.22,-84.84 38.13,-85.94"/>
</g>
<!-- Node15 -->
<g id="node15" class="node">
<title>Node15</title>
<g id="a_node15"><a xlink:href="cyclic__distribution_8hpp.html" target="_top" xlink:title="This file implements the cyclic data distribution.">
<polygon fill="white" stroke="black" points="233,-168.5 233,-187.5 359,-187.5 359,-168.5 233,-168.5"/>
<text text-anchor="middle" x="296" y="-175.5" font-family="Helvetica,sans-Serif" font-size="10.00">cyclic_distribution.hpp</text>
</a>
</g>
</g>
<!-- Node8&#45;&gt;Node15 -->
<g id="edge15" class="edge">
<title>Node8&#45;&gt;Node15</title>
<path fill="none" stroke="midnightblue" d="M356.43,-224.32C345.58,-216.18 329.12,-203.84 316.12,-194.09"/>
<polygon fill="midnightblue" stroke="midnightblue" points="317.88,-191.03 307.78,-187.83 313.68,-196.63 317.88,-191.03"/>
</g>
<!-- Node16 -->
<g id="node16" class="node">
<title>Node16</title>
<g id="a_node16"><a xlink:href="first__touch__distribution_8hpp.html" target="_top" xlink:title="This file implements the first&#45;touch data distribution.">
<polygon fill="white" stroke="black" points="65.5,-168.5 65.5,-187.5 214.5,-187.5 214.5,-168.5 65.5,-168.5"/>
<text text-anchor="middle" x="140" y="-175.5" font-family="Helvetica,sans-Serif" font-size="10.00">first_touch_distribution.hpp</text>
</a>
</g>
</g>
<!-- Node8&#45;&gt;Node16 -->
<g id="edge17" class="edge">
<title>Node8&#45;&gt;Node16</title>
<path fill="none" stroke="midnightblue" d="M331.87,-224.44C292.35,-215.08 228.9,-200.06 185.89,-189.87"/>
<polygon fill="midnightblue" stroke="midnightblue" points="186.5,-186.42 175.96,-187.52 184.88,-193.23 186.5,-186.42"/>
</g>
<!-- Node18 -->
<g id="node18" class="node">
<title>Node18</title>
<g id="a_node18"><a xlink:href="naive__distribution_8hpp.html" target="_top" xlink:title="This file implements the naive data distribution.">
<polygon fill="white" stroke="black" points="377.5,-168.5 377.5,-187.5 502.5,-187.5 502.5,-168.5 377.5,-168.5"/>
<text text-anchor="middle" x="440" y="-175.5" font-family="Helvetica,sans-Serif" font-size="10.00">naive_distribution.hpp</text>
</a>
</g>
</g>
<!-- Node8&#45;&gt;Node18 -->
<g id="edge21" class="edge">
<title>Node8&#45;&gt;Node18</title>
<path fill="none" stroke="midnightblue" d="M379.57,-224.32C390.42,-216.18 406.88,-203.84 419.88,-194.09"/>
<polygon fill="midnightblue" stroke="midnightblue" points="422.32,-196.63 428.22,-187.83 418.12,-191.03 422.32,-196.63"/>
</g>
<!-- Node19 -->
<g id="node19" class="node">
<title>Node19</title>
<g id="a_node19"><a xlink:href="prime__mapp__distribution_8hpp.html" target="_top" xlink:title="This file implements the prime&#45;mapp data distribution.">
<polygon fill="white" stroke="black" points="521,-168.5 521,-187.5 681,-187.5 681,-168.5 521,-168.5"/>
<text text-anchor="middle" x="601" y="-175.5" font-family="Helvetica,sans-Serif" font-size="10.00">prime_mapp_distribution.hpp</text>
</a>
</g>
</g>
<!-- Node8&#45;&gt;Node19 -->
<g id="edge23" class="edge">
<title>Node8&#45;&gt;Node19</title>
<path fill="none" stroke="midnightblue" d="M404.92,-224.44C445.4,-215.06 510.42,-199.99 554.38,-189.8"/>
<polygon fill="midnightblue" stroke="midnightblue" points="555.3,-193.18 564.25,-187.52 553.72,-186.36 555.3,-193.18"/>
</g>
<!-- Node20 -->
<g id="node20" class="node">
<title>Node20</title>
<g id="a_node20"><a xlink:href="skew__mapp__distribution_8hpp.html" target="_top" xlink:title="This file implements the skew&#45;mapp data distribution.">
<polygon fill="white" stroke="black" points="699,-168.5 699,-187.5 855,-187.5 855,-168.5 699,-168.5"/>
<text text-anchor="middle" x="777" y="-175.5" font-family="Helvetica,sans-Serif" font-size="10.00">skew_mapp_distribution.hpp</text>
</a>
</g>
</g>
<!-- Node8&#45;&gt;Node20 -->
<g id="edge25" class="edge">
<title>Node8&#45;&gt;Node20</title>
<path fill="none" stroke="midnightblue" d="M428.35,-225.03C501.08,-215.43 623.3,-199.29 702.02,-188.9"/>
<polygon fill="midnightblue" stroke="midnightblue" points="702.89,-192.31 712.35,-187.54 701.98,-185.38 702.89,-192.31"/>
</g>
<!-- Node9&#45;&gt;Node7 -->
<g id="edge11" class="edge">
<title>Node9&#45;&gt;Node7</title>
<path fill="none" stroke="midnightblue" d="M396.74,-112.44C341.83,-101.58 248.37,-83.09 199.29,-73.39"/>
<polygon fill="midnightblue" stroke="midnightblue" points="199.72,-69.9 189.23,-71.4 198.36,-76.77 199.72,-69.9"/>
</g>
<!-- Node10 -->
<g id="node10" class="node">
<title>Node10</title>
<g id="a_node10"><a xlink:title=" ">
<polygon fill="white" stroke="#bfbfbf" points="378.5,-56.5 378.5,-75.5 427.5,-75.5 427.5,-56.5 378.5,-56.5"/>
<text text-anchor="middle" x="403" y="-63.5" font-family="Helvetica,sans-Serif" font-size="10.00">cstdlib</text>
</a>
</g>
</g>
<!-- Node9&#45;&gt;Node10 -->
<g id="edge9" class="edge">
<title>Node9&#45;&gt;Node10</title>
<path fill="none" stroke="midnightblue" d="M433.89,-112.08C428.72,-104.53 421.15,-93.49 414.81,-84.23"/>
<polygon fill="midnightblue" stroke="midnightblue" points="417.54,-82.02 409,-75.75 411.76,-85.98 417.54,-82.02"/>
</g>
<!-- Node11 -->
<g id="node11" class="node">
<title>Node11</title>
<g id="a_node11"><a xlink:title=" ">
<polygon fill="white" stroke="#bfbfbf" points="446,-56.5 446,-75.5 506,-75.5 506,-56.5 446,-56.5"/>
<text text-anchor="middle" x="476" y="-63.5" font-family="Helvetica,sans-Serif" font-size="10.00">iostream</text>
</a>
</g>
</g>
<!-- Node9&#45;&gt;Node11 -->
<g id="edge10" class="edge">
<title>Node9&#45;&gt;Node11</title>
<path fill="none" stroke="midnightblue" d="M445.94,-112.08C450.98,-104.53 458.34,-93.49 464.51,-84.23"/>
<polygon fill="midnightblue" stroke="midnightblue" points="467.53,-86.01 470.17,-75.75 461.71,-82.13 467.53,-86.01"/>
</g>
<!-- Node9&#45;&gt;Node12 -->
<g id="edge12" class="edge">
<title>Node9&#45;&gt;Node12</title>
<path fill="none" stroke="midnightblue" d="M378.94,-112.8C298.76,-102.03 159.6,-83.33 86.32,-73.49"/>
<polygon fill="midnightblue" stroke="midnightblue" points="86.38,-69.97 76,-72.1 85.45,-76.91 86.38,-69.97"/>
</g>
<!-- Node9&#45;&gt;Node14 -->
<g id="edge14" class="edge">
<title>Node9&#45;&gt;Node14</title>
<path fill="none" stroke="midnightblue" d="M501.41,-114.11C594.93,-103.61 771.81,-83.75 863.16,-73.49"/>
<polygon fill="midnightblue" stroke="midnightblue" points="863.78,-76.95 873.33,-72.35 863,-69.99 863.78,-76.95"/>
</g>
<!-- Node13 -->
<g id="node13" class="node">
<title>Node13</title>
<g id="a_node13"><a xlink:title=" ">
<polygon fill="white" stroke="#bfbfbf" points="11.5,-0.5 11.5,-19.5 64.5,-19.5 64.5,-0.5 11.5,-0.5"/>
<text text-anchor="middle" x="38" y="-7.5" font-family="Helvetica,sans-Serif" font-size="10.00">cstddef</text>
</a>
</g>
</g>
<!-- Node12&#45;&gt;Node13 -->
<g id="edge13" class="edge">
<title>Node12&#45;&gt;Node13</title>
<path fill="none" stroke="midnightblue" d="M38,-56.08C38,-49.01 38,-38.86 38,-29.99"/>
<polygon fill="midnightblue" stroke="midnightblue" points="41.5,-29.75 38,-19.75 34.5,-29.75 41.5,-29.75"/>
</g>
<!-- Node15&#45;&gt;Node9 -->
<g id="edge16" class="edge">
<title>Node15&#45;&gt;Node9</title>
<path fill="none" stroke="midnightblue" d="M318.82,-168.44C342.83,-159.44 380.83,-145.19 407.87,-135.05"/>
<polygon fill="midnightblue" stroke="midnightblue" points="409.16,-138.3 417.29,-131.52 406.7,-131.75 409.16,-138.3"/>
</g>
<!-- Node16&#45;&gt;Node7 -->
<g id="edge19" class="edge">
<title>Node16&#45;&gt;Node7</title>
<path fill="none" stroke="midnightblue" d="M142.12,-168.37C146.48,-150.62 156.53,-109.67 162.44,-85.6"/>
<polygon fill="midnightblue" stroke="midnightblue" points="165.91,-86.14 164.89,-75.59 159.11,-84.47 165.91,-86.14"/>
</g>
<!-- Node16&#45;&gt;Node9 -->
<g id="edge20" class="edge">
<title>Node16&#45;&gt;Node9</title>
<path fill="none" stroke="midnightblue" d="M187.54,-168.44C240.53,-158.9 326.2,-143.48 382.82,-133.29"/>
<polygon fill="midnightblue" stroke="midnightblue" points="383.46,-136.73 392.69,-131.52 382.22,-129.84 383.46,-136.73"/>
</g>
<!-- Node17 -->
<g id="node17" class="node">
<title>Node17</title>
<g id="a_node17"><a xlink:title=" ">
<polygon fill="white" stroke="#bfbfbf" points="91,-112.5 91,-131.5 139,-131.5 139,-112.5 91,-112.5"/>
<text text-anchor="middle" x="115" y="-119.5" font-family="Helvetica,sans-Serif" font-size="10.00">mutex</text>
</a>
</g>
</g>
<!-- Node16&#45;&gt;Node17 -->
<g id="edge18" class="edge">
<title>Node16&#45;&gt;Node17</title>
<path fill="none" stroke="midnightblue" d="M135.87,-168.08C132.49,-160.77 127.58,-150.18 123.38,-141.1"/>
<polygon fill="midnightblue" stroke="midnightblue" points="126.43,-139.36 119.05,-131.75 120.08,-142.3 126.43,-139.36"/>
</g>
<!-- Node18&#45;&gt;Node9 -->
<g id="edge22" class="edge">
<title>Node18&#45;&gt;Node9</title>
<path fill="none" stroke="midnightblue" d="M440,-168.08C440,-161.01 440,-150.86 440,-141.99"/>
<polygon fill="midnightblue" stroke="midnightblue" points="443.5,-141.75 440,-131.75 436.5,-141.75 443.5,-141.75"/>
</g>
<!-- Node19&#45;&gt;Node9 -->
<g id="edge24" class="edge">
<title>Node19&#45;&gt;Node9</title>
<path fill="none" stroke="midnightblue" d="M575.49,-168.44C548.4,-159.36 505.41,-144.94 475.13,-134.78"/>
<polygon fill="midnightblue" stroke="midnightblue" points="475.99,-131.38 465.39,-131.52 473.76,-138.01 475.99,-131.38"/>
</g>
<!-- Node20&#45;&gt;Node9 -->
<g id="edge26" class="edge">
<title>Node20&#45;&gt;Node9</title>
<path fill="none" stroke="midnightblue" d="M723.6,-168.44C663.7,-158.85 566.63,-143.29 503.05,-133.1"/>
<polygon fill="midnightblue" stroke="midnightblue" points="503.58,-129.64 493.15,-131.52 502.47,-136.55 503.58,-129.64"/>
</g>
<!-- Node21&#45;&gt;Node2 -->
<g id="edge31" class="edge">
<title>Node21&#45;&gt;Node2</title>
<path fill="none" stroke="midnightblue" d="M1103.17,-403.32C1085.28,-394.62 1057.52,-381.12 1036.95,-371.11"/>
<polygon fill="midnightblue" stroke="midnightblue" points="1038.31,-367.88 1027.79,-366.65 1035.25,-374.18 1038.31,-367.88"/>
</g>
<!-- Node21&#45;&gt;Node14 -->
<g id="edge32" class="edge">
<title>Node21&#45;&gt;Node14</title>
<path fill="none" stroke="midnightblue" d="M1129.34,-403.24C1145.83,-384.96 1181,-340.79 1181,-296.5 1181,-296.5 1181,-296.5 1181,-177 1181,-89.75 1055.29,-70.65 978.69,-67.11"/>
<polygon fill="midnightblue" stroke="midnightblue" points="978.82,-63.62 968.69,-66.73 978.55,-70.61 978.82,-63.62"/>
</g>
</g>
</svg>
