<?xml version="1.0" encoding="UTF-8" standalone="no"?>
<!DOCTYPE svg PUBLIC "-//W3C//DTD SVG 1.1//EN"
 "http://www.w3.org/Graphics/SVG/1.1/DTD/svg11.dtd">
<!-- Generated by graphviz version 2.43.0 (0)
 -->
<!-- Title: broadcast Pages: 1 -->
<svg width="270pt" height="88pt"
 viewBox="0.00 0.00 270.00 88.00" xmlns="http://www.w3.org/2000/svg" xmlns:xlink="http://www.w3.org/1999/xlink">
<g id="graph0" class="graph" transform="scale(1 1) rotate(0) translate(4 84)">
<title>broadcast</title>
<polygon fill="white" stroke="transparent" points="-4,4 -4,-84 266,-84 266,4 -4,4"/>
<!-- Node1 -->
<g id="node1" class="node">
<title>Node1</title>
<g id="a_node1"><a xlink:title="explicit instantiation for pointers to raw memory">
<polygon fill="#bfbfbf" stroke="black" points="197,-30 197,-49 262,-49 262,-30 197,-30"/>
<text text-anchor="middle" x="229.5" y="-37" font-family="Helvetica,sans-Serif" font-size="10.00">broadcast</text>
</a>
</g>
</g>
<!-- Node2 -->
<g id="node2" class="node">
<title>Node2</title>
<g id="a_node2"><a xlink:href="broadcast_8hpp_aed4a254909b428f98f2d877182d5fbb3.html#aed4a254909b428f98f2d877182d5fbb3" target="_top" xlink:title="broadcast a single value">
<polygon fill="white" stroke="black" points="19.5,-49.5 19.5,-79.5 141.5,-79.5 141.5,-49.5 19.5,-49.5"/>
<text text-anchor="start" x="27.5" y="-67.5" font-family="Helvetica,sans-Serif" font-size="10.00">argo::synchronization</text>
<text text-anchor="middle" x="80.5" y="-56.5" font-family="Helvetica,sans-Serif" font-size="10.00">::broadcast</text>
</a>
</g>
</g>
<!-- Node1&#45;&gt;Node2 -->
<g id="edge1" class="edge">
<title>Node1&#45;&gt;Node2</title>
<path fill="none" stroke="midnightblue" d="M187.1,-46.54C173.02,-48.93 156.99,-51.66 141.75,-54.25"/>
<polygon fill="midnightblue" stroke="midnightblue" points="187.69,-49.99 196.96,-44.86 186.52,-43.09 187.69,-49.99"/>
</g>
<!-- Node3 -->
<g id="node3" class="node">
<title>Node3</title>
<g id="a_node3"><a xlink:href="namespaceargo_1_1mempools_a06f9a6c5d45716a00b40c6caa37988f9.html#a06f9a6c5d45716a00b40c6caa37988f9" target="_top" xlink:title="synchronize memory metainformation (address) after growing to ensure visibility">
<polygon fill="white" stroke="black" points="0,-0.5 0,-30.5 161,-30.5 161,-0.5 0,-0.5"/>
<text text-anchor="start" x="8" y="-18.5" font-family="Helvetica,sans-Serif" font-size="10.00">argo::mempools::synchronize</text>
<text text-anchor="middle" x="80.5" y="-7.5" font-family="Helvetica,sans-Serif" font-size="10.00">&lt; NODE_ZERO_ONLY &gt;</text>
</a>
</g>
</g>
<!-- Node1&#45;&gt;Node3 -->
<g id="edge2" class="edge">
<title>Node1&#45;&gt;Node3</title>
<path fill="none" stroke="midnightblue" d="M186.99,-32.72C178.81,-31.39 169.96,-29.94 161,-28.48"/>
<polygon fill="midnightblue" stroke="midnightblue" points="186.53,-36.19 196.96,-34.35 187.66,-29.29 186.53,-36.19"/>
</g>
</g>
</svg>
