<?xml version="1.0" encoding="UTF-8" standalone="no"?>
<!DOCTYPE svg PUBLIC "-//W3C//DTD SVG 1.1//EN"
 "http://www.w3.org/Graphics/SVG/1.1/DTD/svg11.dtd">
<!-- Generated by graphviz version 2.43.0 (0)
 -->
<!-- Title: /home/projectcs&#45;2022/argodsmBuffer/argodsmPrefetching/src/allocators/generic_allocator.hpp Pages: 1 -->
<svg width="2311pt" height="462pt"
 viewBox="0.00 0.00 2311.00 462.00" xmlns="http://www.w3.org/2000/svg" xmlns:xlink="http://www.w3.org/1999/xlink">
<g id="graph0" class="graph" transform="scale(1 1) rotate(0) translate(4 458)">
<title>/home/projectcs&#45;2022/argodsmBuffer/argodsmPrefetching/src/allocators/generic_allocator.hpp</title>
<polygon fill="white" stroke="transparent" points="-4,4 -4,-458 2307,-458 2307,4 -4,4"/>
<!-- Node1 -->
<g id="node1" class="node">
<title>Node1</title>
<g id="a_node1"><a xlink:title="This file provides a generic allocator template for ArgoDSM.">
<polygon fill="#bfbfbf" stroke="black" points="1664,-412.5 1664,-453.5 1857,-453.5 1857,-412.5 1664,-412.5"/>
<text text-anchor="start" x="1672" y="-441.5" font-family="Helvetica,sans-Serif" font-size="10.00">/home/projectcs&#45;2022</text>
<text text-anchor="start" x="1672" y="-430.5" font-family="Helvetica,sans-Serif" font-size="10.00">/argodsmBuffer/argodsmPrefetching</text>
<text text-anchor="middle" x="1760.5" y="-419.5" font-family="Helvetica,sans-Serif" font-size="10.00">/src/allocators/generic_allocator.hpp</text>
</a>
</g>
</g>
<!-- Node2 -->
<g id="node2" class="node">
<title>Node2</title>
<g id="a_node2"><a xlink:href="collective__allocator_8hpp.html" target="_top" xlink:title="This file provides the collective allocator for ArgoDSM.">
<polygon fill="white" stroke="black" points="1479,-256.5 1479,-297.5 1682,-297.5 1682,-256.5 1479,-256.5"/>
<text text-anchor="start" x="1487" y="-285.5" font-family="Helvetica,sans-Serif" font-size="10.00">/home/projectcs&#45;2022</text>
<text text-anchor="start" x="1487" y="-274.5" font-family="Helvetica,sans-Serif" font-size="10.00">/argodsmBuffer/argodsmPrefetching</text>
<text text-anchor="middle" x="1580.5" y="-263.5" font-family="Helvetica,sans-Serif" font-size="10.00">/src/allocators/collective_allocator.hpp</text>
</a>
</g>
</g>
<!-- Node1&#45;&gt;Node2 -->
<g id="edge1" class="edge">
<title>Node1&#45;&gt;Node2</title>
<path fill="none" stroke="midnightblue" d="M1734.4,-405.32C1714.1,-385.03 1684.86,-356.8 1657.5,-334 1642.13,-321.2 1624.09,-307.99 1609.34,-297.61"/>
<polygon fill="midnightblue" stroke="midnightblue" points="1731.93,-407.8 1741.46,-412.42 1736.89,-402.86 1731.93,-407.8"/>
</g>
<!-- Node7 -->
<g id="node7" class="node">
<title>Node7</title>
<g id="a_node7"><a xlink:href="tests_2allocators_8cpp.html" target="_top" xlink:title="This file provides unit tests for the ArgoDSM allocators and memory pools.">
<polygon fill="white" stroke="black" points="2110,-0.5 2110,-41.5 2303,-41.5 2303,-0.5 2110,-0.5"/>
<text text-anchor="start" x="2118" y="-29.5" font-family="Helvetica,sans-Serif" font-size="10.00">/home/projectcs&#45;2022</text>
<text text-anchor="start" x="2118" y="-18.5" font-family="Helvetica,sans-Serif" font-size="10.00">/argodsmBuffer/argodsmPrefetching</text>
<text text-anchor="middle" x="2206.5" y="-7.5" font-family="Helvetica,sans-Serif" font-size="10.00">/tests/allocators.cpp</text>
</a>
</g>
</g>
<!-- Node1&#45;&gt;Node7 -->
<g id="edge29" class="edge">
<title>Node1&#45;&gt;Node7</title>
<path fill="none" stroke="midnightblue" d="M1867.34,-410.2C1979.12,-384.24 2138.5,-336.9 2138.5,-278 2138.5,-278 2138.5,-278 2138.5,-192.5 2138.5,-134.34 2173.06,-72.45 2192.9,-41.71"/>
<polygon fill="midnightblue" stroke="midnightblue" points="1866.32,-406.84 1857.35,-412.49 1867.88,-413.67 1866.32,-406.84"/>
</g>
<!-- Node11 -->
<g id="node11" class="node">
<title>Node11</title>
<g id="a_node11"><a xlink:href="lock_8cpp.html" target="_top" xlink:title="This file provides unit tests for the ArgoDSM locks.">
<polygon fill="white" stroke="black" points="1477,-0.5 1477,-41.5 1670,-41.5 1670,-0.5 1477,-0.5"/>
<text text-anchor="start" x="1485" y="-29.5" font-family="Helvetica,sans-Serif" font-size="10.00">/home/projectcs&#45;2022</text>
<text text-anchor="start" x="1485" y="-18.5" font-family="Helvetica,sans-Serif" font-size="10.00">/argodsmBuffer/argodsmPrefetching</text>
<text text-anchor="middle" x="1573.5" y="-7.5" font-family="Helvetica,sans-Serif" font-size="10.00">/tests/lock.cpp</text>
</a>
</g>
</g>
<!-- Node1&#45;&gt;Node11 -->
<g id="edge30" class="edge">
<title>Node1&#45;&gt;Node11</title>
<path fill="none" stroke="midnightblue" d="M1754.59,-402.04C1749.02,-371.11 1741.5,-321.38 1741.5,-278 1741.5,-278 1741.5,-278 1741.5,-192.5 1741.5,-120.82 1665.22,-68.32 1615.46,-41.71"/>
<polygon fill="midnightblue" stroke="midnightblue" points="1751.21,-402.97 1756.47,-412.16 1758.09,-401.69 1751.21,-402.97"/>
</g>
<!-- Node12 -->
<g id="node12" class="node">
<title>Node12</title>
<g id="a_node12"><a xlink:href="omp_8cpp.html" target="_top" xlink:title="This file provides tests using OpenMP in ArgoDSM.">
<polygon fill="white" stroke="black" points="1688,-0.5 1688,-41.5 1881,-41.5 1881,-0.5 1688,-0.5"/>
<text text-anchor="start" x="1696" y="-29.5" font-family="Helvetica,sans-Serif" font-size="10.00">/home/projectcs&#45;2022</text>
<text text-anchor="start" x="1696" y="-18.5" font-family="Helvetica,sans-Serif" font-size="10.00">/argodsmBuffer/argodsmPrefetching</text>
<text text-anchor="middle" x="1784.5" y="-7.5" font-family="Helvetica,sans-Serif" font-size="10.00">/tests/omp.cpp</text>
</a>
</g>
</g>
<!-- Node1&#45;&gt;Node12 -->
<g id="edge31" class="edge">
<title>Node1&#45;&gt;Node12</title>
<path fill="none" stroke="midnightblue" d="M1767.03,-402.07C1773.19,-371.16 1781.5,-321.45 1781.5,-278 1781.5,-278 1781.5,-278 1781.5,-192.5 1781.5,-137.88 1783.06,-73.43 1783.93,-41.69"/>
<polygon fill="midnightblue" stroke="midnightblue" points="1763.54,-401.68 1764.95,-412.18 1770.39,-403.09 1763.54,-401.68"/>
</g>
<!-- Node13 -->
<g id="node13" class="node">
<title>Node13</title>
<g id="a_node13"><a xlink:href="prefetch_8cpp.html" target="_top" xlink:title="This file provides unit tests for the ArgoDSM prefetch mechanism.">
<polygon fill="white" stroke="black" points="1899,-0.5 1899,-41.5 2092,-41.5 2092,-0.5 1899,-0.5"/>
<text text-anchor="start" x="1907" y="-29.5" font-family="Helvetica,sans-Serif" font-size="10.00">/home/projectcs&#45;2022</text>
<text text-anchor="start" x="1907" y="-18.5" font-family="Helvetica,sans-Serif" font-size="10.00">/argodsmBuffer/argodsmPrefetching</text>
<text text-anchor="middle" x="1995.5" y="-7.5" font-family="Helvetica,sans-Serif" font-size="10.00">/tests/prefetch.cpp</text>
</a>
</g>
</g>
<!-- Node1&#45;&gt;Node13 -->
<g id="edge32" class="edge">
<title>Node1&#45;&gt;Node13</title>
<path fill="none" stroke="midnightblue" d="M1840.14,-408.99C1899.56,-386.37 1970.5,-345.27 1970.5,-278 1970.5,-278 1970.5,-278 1970.5,-192.5 1970.5,-137.3 1983.49,-73.11 1990.74,-41.55"/>
<polygon fill="midnightblue" stroke="midnightblue" points="1838.89,-405.72 1830.72,-412.46 1841.31,-412.29 1838.89,-405.72"/>
</g>
<!-- Node19 -->
<g id="node19" class="node">
<title>Node19</title>
<g id="a_node19"><a xlink:href="dynamic__allocator_8hpp.html" target="_top" xlink:title="This file provides the dynamic allocator for ArgoDSM.">
<polygon fill="white" stroke="black" points="1450.5,-334.5 1450.5,-375.5 1648.5,-375.5 1648.5,-334.5 1450.5,-334.5"/>
<text text-anchor="start" x="1458.5" y="-363.5" font-family="Helvetica,sans-Serif" font-size="10.00">/home/projectcs&#45;2022</text>
<text text-anchor="start" x="1458.5" y="-352.5" font-family="Helvetica,sans-Serif" font-size="10.00">/argodsmBuffer/argodsmPrefetching</text>
<text text-anchor="middle" x="1549.5" y="-341.5" font-family="Helvetica,sans-Serif" font-size="10.00">/src/allocators/dynamic_allocator.hpp</text>
</a>
</g>
</g>
<!-- Node1&#45;&gt;Node19 -->
<g id="edge25" class="edge">
<title>Node1&#45;&gt;Node19</title>
<path fill="none" stroke="midnightblue" d="M1696.72,-409.03C1667.01,-398.33 1632.05,-385.73 1603.65,-375.51"/>
<polygon fill="midnightblue" stroke="midnightblue" points="1695.57,-412.33 1706.16,-412.43 1697.94,-405.75 1695.57,-412.33"/>
</g>
<!-- Node3 -->
<g id="node3" class="node">
<title>Node3</title>
<g id="a_node3"><a xlink:href="allocators_8hpp.html" target="_top" xlink:title="This file provides all C++ allocators for ArgoDSM.">
<polygon fill="white" stroke="black" points="891,-173 891,-214 1084,-214 1084,-173 891,-173"/>
<text text-anchor="start" x="899" y="-202" font-family="Helvetica,sans-Serif" font-size="10.00">/home/projectcs&#45;2022</text>
<text text-anchor="start" x="899" y="-191" font-family="Helvetica,sans-Serif" font-size="10.00">/argodsmBuffer/argodsmPrefetching</text>
<text text-anchor="middle" x="987.5" y="-180" font-family="Helvetica,sans-Serif" font-size="10.00">/src/allocators/allocators.hpp</text>
</a>
</g>
</g>
<!-- Node2&#45;&gt;Node3 -->
<g id="edge2" class="edge">
<title>Node2&#45;&gt;Node3</title>
<path fill="none" stroke="midnightblue" d="M1468.72,-266.53C1370.71,-257.39 1224.58,-241.74 1098.5,-220 1088.47,-218.27 1077.98,-216.2 1067.62,-214.01"/>
<polygon fill="midnightblue" stroke="midnightblue" points="1468.67,-270.04 1478.95,-267.48 1469.31,-263.07 1468.67,-270.04"/>
</g>
<!-- Node6 -->
<g id="node6" class="node">
<title>Node6</title>
<g id="a_node6"><a xlink:href="argo_8cpp.html" target="_top" xlink:title="This file implements some of the basic ArgoDSM calls.">
<polygon fill="white" stroke="black" points="0,-0.5 0,-41.5 193,-41.5 193,-0.5 0,-0.5"/>
<text text-anchor="start" x="8" y="-29.5" font-family="Helvetica,sans-Serif" font-size="10.00">/home/projectcs&#45;2022</text>
<text text-anchor="start" x="8" y="-18.5" font-family="Helvetica,sans-Serif" font-size="10.00">/argodsmBuffer/argodsmPrefetching</text>
<text text-anchor="middle" x="96.5" y="-7.5" font-family="Helvetica,sans-Serif" font-size="10.00">/src/argo.cpp</text>
</a>
</g>
</g>
<!-- Node2&#45;&gt;Node6 -->
<g id="edge16" class="edge">
<title>Node2&#45;&gt;Node6</title>
<path fill="none" stroke="midnightblue" d="M1468.56,-260.56C1371.64,-242.64 1231.66,-205.45 1131.5,-131 1108.03,-113.55 1118.33,-91.72 1092.5,-78 1005,-31.51 299.93,-53.3 201.5,-42 198.73,-41.68 195.93,-41.33 193.11,-40.96"/>
<polygon fill="midnightblue" stroke="midnightblue" points="1468.22,-264.05 1478.69,-262.38 1469.47,-257.16 1468.22,-264.05"/>
</g>
<!-- Node2&#45;&gt;Node7 -->
<g id="edge20" class="edge">
<title>Node2&#45;&gt;Node7</title>
<path fill="none" stroke="midnightblue" d="M1648.82,-253.19C1677.31,-243.38 1710.66,-231.55 1740.5,-220 1897.9,-159.09 2081.32,-78.17 2163.2,-41.52"/>
<polygon fill="midnightblue" stroke="midnightblue" points="1647.68,-249.88 1639.35,-256.43 1649.94,-256.5 1647.68,-249.88"/>
</g>
<!-- Node8 -->
<g id="node8" class="node">
<title>Node8</title>
<g id="a_node8"><a xlink:href="api_8cpp.html" target="_top" xlink:title="This file provides unit tests for the ArgoDSM API functions.">
<polygon fill="white" stroke="black" points="1266,-0.5 1266,-41.5 1459,-41.5 1459,-0.5 1266,-0.5"/>
<text text-anchor="start" x="1274" y="-29.5" font-family="Helvetica,sans-Serif" font-size="10.00">/home/projectcs&#45;2022</text>
<text text-anchor="start" x="1274" y="-18.5" font-family="Helvetica,sans-Serif" font-size="10.00">/argodsmBuffer/argodsmPrefetching</text>
<text text-anchor="middle" x="1362.5" y="-7.5" font-family="Helvetica,sans-Serif" font-size="10.00">/tests/api.cpp</text>
</a>
</g>
</g>
<!-- Node2&#45;&gt;Node8 -->
<g id="edge21" class="edge">
<title>Node2&#45;&gt;Node8</title>
<path fill="none" stroke="midnightblue" d="M1473.04,-252.67C1453.56,-244.74 1434.65,-234.14 1419.5,-220 1368.25,-172.16 1362.06,-81.51 1361.98,-41.65"/>
<polygon fill="midnightblue" stroke="midnightblue" points="1472.05,-256.04 1482.64,-256.35 1474.56,-249.5 1472.05,-256.04"/>
</g>
<!-- Node2&#45;&gt;Node11 -->
<g id="edge22" class="edge">
<title>Node2&#45;&gt;Node11</title>
<path fill="none" stroke="midnightblue" d="M1611.54,-249.16C1619.22,-240.69 1626.41,-230.72 1630.5,-220 1638.9,-197.99 1633.22,-190.4 1630.5,-167 1625.8,-126.63 1625.38,-115.41 1609.5,-78 1604.03,-65.13 1595.69,-51.91 1588.42,-41.56"/>
<polygon fill="midnightblue" stroke="midnightblue" points="1608.88,-246.88 1604.43,-256.49 1613.91,-251.75 1608.88,-246.88"/>
</g>
<!-- Node2&#45;&gt;Node12 -->
<g id="edge23" class="edge">
<title>Node2&#45;&gt;Node12</title>
<path fill="none" stroke="midnightblue" d="M1614.88,-250.25C1625.87,-241.26 1637.71,-230.72 1647.5,-220 1701.75,-160.57 1751.88,-78.56 1773.41,-41.53"/>
<polygon fill="midnightblue" stroke="midnightblue" points="1612.69,-247.52 1607.08,-256.5 1617.07,-252.98 1612.69,-247.52"/>
</g>
<!-- Node2&#45;&gt;Node13 -->
<g id="edge24" class="edge">
<title>Node2&#45;&gt;Node13</title>
<path fill="none" stroke="midnightblue" d="M1626.59,-251.48C1644.22,-241.9 1664.42,-230.67 1682.5,-220 1788.27,-157.59 1910.45,-78.09 1965.67,-41.74"/>
<polygon fill="midnightblue" stroke="midnightblue" points="1624.76,-248.49 1617.64,-256.33 1628.1,-254.65 1624.76,-248.49"/>
</g>
<!-- Node17 -->
<g id="node17" class="node">
<title>Node17</title>
<g id="a_node17"><a xlink:href="cohort__lock_8hpp.html" target="_top" xlink:title="This file provides a cohort lock for the ArgoDSM system.">
<polygon fill="white" stroke="black" points="1429,-167.5 1429,-219.5 1622,-219.5 1622,-167.5 1429,-167.5"/>
<text text-anchor="start" x="1437" y="-207.5" font-family="Helvetica,sans-Serif" font-size="10.00">/home/projectcs&#45;2022</text>
<text text-anchor="start" x="1437" y="-196.5" font-family="Helvetica,sans-Serif" font-size="10.00">/argodsmBuffer/argodsmPrefetching</text>
<text text-anchor="start" x="1437" y="-185.5" font-family="Helvetica,sans-Serif" font-size="10.00">/src/synchronization/cohort</text>
<text text-anchor="middle" x="1525.5" y="-174.5" font-family="Helvetica,sans-Serif" font-size="10.00">_lock.hpp</text>
</a>
</g>
</g>
<!-- Node2&#45;&gt;Node17 -->
<g id="edge17" class="edge">
<title>Node2&#45;&gt;Node17</title>
<path fill="none" stroke="midnightblue" d="M1561.49,-247.83C1555.3,-238.66 1548.47,-228.54 1542.44,-219.61"/>
<polygon fill="midnightblue" stroke="midnightblue" points="1558.69,-249.94 1567.19,-256.27 1564.49,-246.02 1558.69,-249.94"/>
</g>
<!-- Node4 -->
<g id="node4" class="node">
<title>Node4</title>
<g id="a_node4"><a xlink:href="src_2allocators_2allocators_8cpp.html" target="_top" xlink:title="This file provides the default allocators.">
<polygon fill="white" stroke="black" points="891,-84 891,-125 1084,-125 1084,-84 891,-84"/>
<text text-anchor="start" x="899" y="-113" font-family="Helvetica,sans-Serif" font-size="10.00">/home/projectcs&#45;2022</text>
<text text-anchor="start" x="899" y="-102" font-family="Helvetica,sans-Serif" font-size="10.00">/argodsmBuffer/argodsmPrefetching</text>
<text text-anchor="middle" x="987.5" y="-91" font-family="Helvetica,sans-Serif" font-size="10.00">/src/allocators/allocators.cpp</text>
</a>
</g>
</g>
<!-- Node3&#45;&gt;Node4 -->
<g id="edge3" class="edge">
<title>Node3&#45;&gt;Node4</title>
<path fill="none" stroke="midnightblue" d="M987.5,-162.44C987.5,-150.1 987.5,-136.16 987.5,-125.16"/>
<polygon fill="midnightblue" stroke="midnightblue" points="984,-162.76 987.5,-172.76 991,-162.76 984,-162.76"/>
</g>
<!-- Node5 -->
<g id="node5" class="node">
<title>Node5</title>
<g id="a_node5"><a xlink:href="argo_8hpp.html" target="_top" xlink:title="This file provides the full C++ interface to ArgoDSM.">
<polygon fill="white" stroke="black" points="1141,-84 1141,-125 1334,-125 1334,-84 1141,-84"/>
<text text-anchor="start" x="1149" y="-113" font-family="Helvetica,sans-Serif" font-size="10.00">/home/projectcs&#45;2022</text>
<text text-anchor="start" x="1149" y="-102" font-family="Helvetica,sans-Serif" font-size="10.00">/argodsmBuffer/argodsmPrefetching</text>
<text text-anchor="middle" x="1237.5" y="-91" font-family="Helvetica,sans-Serif" font-size="10.00">/src/argo.hpp</text>
</a>
</g>
</g>
<!-- Node3&#45;&gt;Node5 -->
<g id="edge4" class="edge">
<title>Node3&#45;&gt;Node5</title>
<path fill="none" stroke="midnightblue" d="M1053.22,-169.63C1093,-155.79 1143.19,-138.32 1181.15,-125.11"/>
<polygon fill="midnightblue" stroke="midnightblue" points="1051.9,-166.38 1043.6,-172.98 1054.2,-172.99 1051.9,-166.38"/>
</g>
<!-- Node5&#45;&gt;Node6 -->
<g id="edge5" class="edge">
<title>Node5&#45;&gt;Node6</title>
<path fill="none" stroke="midnightblue" d="M1151.06,-82C1142.8,-80.44 1134.51,-79.07 1126.5,-78 718.68,-23.7 610.27,-88.62 201.5,-42 198.73,-41.68 195.93,-41.34 193.11,-40.96"/>
<polygon fill="midnightblue" stroke="midnightblue" points="1150.62,-85.48 1161.11,-83.99 1151.98,-78.62 1150.62,-85.48"/>
</g>
<!-- Node5&#45;&gt;Node7 -->
<g id="edge6" class="edge">
<title>Node5&#45;&gt;Node7</title>
<path fill="none" stroke="midnightblue" d="M1344.12,-83.08C1356.69,-81.13 1369.36,-79.37 1381.5,-78 1699.43,-42.03 1782.78,-79.75 2100.5,-42 2103.57,-41.64 2106.68,-41.23 2109.82,-40.8"/>
<polygon fill="midnightblue" stroke="midnightblue" points="1343.41,-79.65 1334.08,-84.68 1344.51,-86.57 1343.41,-79.65"/>
</g>
<!-- Node5&#45;&gt;Node8 -->
<g id="edge7" class="edge">
<title>Node5&#45;&gt;Node8</title>
<path fill="none" stroke="midnightblue" d="M1276.05,-78.37C1294.17,-66.55 1315.45,-52.67 1332.37,-41.64"/>
<polygon fill="midnightblue" stroke="midnightblue" points="1273.91,-75.59 1267.44,-83.98 1277.73,-81.45 1273.91,-75.59"/>
</g>
<!-- Node9 -->
<g id="node9" class="node">
<title>Node9</title>
<g id="a_node9"><a xlink:href="backend_8cpp.html" target="_top" xlink:title="This file provides tests for the backends.">
<polygon fill="white" stroke="black" points="844,-0.5 844,-41.5 1037,-41.5 1037,-0.5 844,-0.5"/>
<text text-anchor="start" x="852" y="-29.5" font-family="Helvetica,sans-Serif" font-size="10.00">/home/projectcs&#45;2022</text>
<text text-anchor="start" x="852" y="-18.5" font-family="Helvetica,sans-Serif" font-size="10.00">/argodsmBuffer/argodsmPrefetching</text>
<text text-anchor="middle" x="940.5" y="-7.5" font-family="Helvetica,sans-Serif" font-size="10.00">/tests/backend.cpp</text>
</a>
</g>
</g>
<!-- Node5&#45;&gt;Node9 -->
<g id="edge8" class="edge">
<title>Node5&#45;&gt;Node9</title>
<path fill="none" stroke="midnightblue" d="M1156.56,-81.29C1111.22,-68.85 1055.21,-53.48 1011.57,-41.5"/>
<polygon fill="midnightblue" stroke="midnightblue" points="1155.79,-84.71 1166.36,-83.98 1157.64,-77.96 1155.79,-84.71"/>
</g>
<!-- Node10 -->
<g id="node10" class="node">
<title>Node10</title>
<g id="a_node10"><a xlink:href="barrier_8cpp.html" target="_top" xlink:title="This file provides tests for the barrier synchronization.">
<polygon fill="white" stroke="black" points="1055,-0.5 1055,-41.5 1248,-41.5 1248,-0.5 1055,-0.5"/>
<text text-anchor="start" x="1063" y="-29.5" font-family="Helvetica,sans-Serif" font-size="10.00">/home/projectcs&#45;2022</text>
<text text-anchor="start" x="1063" y="-18.5" font-family="Helvetica,sans-Serif" font-size="10.00">/argodsmBuffer/argodsmPrefetching</text>
<text text-anchor="middle" x="1151.5" y="-7.5" font-family="Helvetica,sans-Serif" font-size="10.00">/tests/barrier.cpp</text>
</a>
</g>
</g>
<!-- Node5&#45;&gt;Node10 -->
<g id="edge9" class="edge">
<title>Node5&#45;&gt;Node10</title>
<path fill="none" stroke="midnightblue" d="M1209.39,-76.86C1197.25,-65.35 1183.29,-52.13 1172.13,-41.55"/>
<polygon fill="midnightblue" stroke="midnightblue" points="1207.02,-79.43 1216.68,-83.77 1211.83,-74.35 1207.02,-79.43"/>
</g>
<!-- Node5&#45;&gt;Node11 -->
<g id="edge10" class="edge">
<title>Node5&#45;&gt;Node11</title>
<path fill="none" stroke="midnightblue" d="M1327.78,-81.6C1379.29,-69.11 1443.32,-53.58 1493.09,-41.5"/>
<polygon fill="midnightblue" stroke="midnightblue" points="1326.87,-78.22 1317.98,-83.98 1328.52,-85.02 1326.87,-78.22"/>
</g>
<!-- Node5&#45;&gt;Node12 -->
<g id="edge11" class="edge">
<title>Node5&#45;&gt;Node12</title>
<path fill="none" stroke="midnightblue" d="M1344.24,-83.93C1356.78,-81.83 1369.41,-79.8 1381.5,-78 1513.01,-58.4 1547.1,-62.34 1678.5,-42 1681.55,-41.53 1684.65,-41.03 1687.78,-40.52"/>
<polygon fill="midnightblue" stroke="midnightblue" points="1343.48,-80.51 1334.2,-85.63 1344.65,-87.41 1343.48,-80.51"/>
</g>
<!-- Node5&#45;&gt;Node13 -->
<g id="edge12" class="edge">
<title>Node5&#45;&gt;Node13</title>
<path fill="none" stroke="midnightblue" d="M1344.15,-83.33C1356.71,-81.34 1369.37,-79.5 1381.5,-78 1606.13,-50.23 1665.03,-71.03 1889.5,-42 1892.56,-41.6 1895.67,-41.18 1898.81,-40.72"/>
<polygon fill="midnightblue" stroke="midnightblue" points="1343.42,-79.9 1334.11,-84.96 1344.55,-86.81 1343.42,-79.9"/>
</g>
<!-- Node14 -->
<g id="node14" class="node">
<title>Node14</title>
<g id="a_node14"><a xlink:href="stlallocation_8cpp.html" target="_top" xlink:title="This file provides tests using C++ interfaces in ArgoDSM.">
<polygon fill="white" stroke="black" points="211,-0.5 211,-41.5 404,-41.5 404,-0.5 211,-0.5"/>
<text text-anchor="start" x="219" y="-29.5" font-family="Helvetica,sans-Serif" font-size="10.00">/home/projectcs&#45;2022</text>
<text text-anchor="start" x="219" y="-18.5" font-family="Helvetica,sans-Serif" font-size="10.00">/argodsmBuffer/argodsmPrefetching</text>
<text text-anchor="middle" x="307.5" y="-7.5" font-family="Helvetica,sans-Serif" font-size="10.00">/tests/stlallocation.cpp</text>
</a>
</g>
</g>
<!-- Node5&#45;&gt;Node14 -->
<g id="edge13" class="edge">
<title>Node5&#45;&gt;Node14</title>
<path fill="none" stroke="midnightblue" d="M1150.62,-82.02C1142.5,-80.47 1134.37,-79.09 1126.5,-78 811.79,-34.26 727.98,-79.82 412.5,-42 409.74,-41.67 406.94,-41.31 404.11,-40.92"/>
<polygon fill="midnightblue" stroke="midnightblue" points="1150,-85.46 1160.49,-83.98 1151.37,-78.6 1150,-85.46"/>
</g>
<!-- Node15 -->
<g id="node15" class="node">
<title>Node15</title>
<g id="a_node15"><a xlink:href="trivial_8cpp.html" target="_top" xlink:title="This file provides unit tests for trivial sanity checks when using ArgoDSM.">
<polygon fill="white" stroke="black" points="422,-0.5 422,-41.5 615,-41.5 615,-0.5 422,-0.5"/>
<text text-anchor="start" x="430" y="-29.5" font-family="Helvetica,sans-Serif" font-size="10.00">/home/projectcs&#45;2022</text>
<text text-anchor="start" x="430" y="-18.5" font-family="Helvetica,sans-Serif" font-size="10.00">/argodsmBuffer/argodsmPrefetching</text>
<text text-anchor="middle" x="518.5" y="-7.5" font-family="Helvetica,sans-Serif" font-size="10.00">/tests/trivial.cpp</text>
</a>
</g>
</g>
<!-- Node5&#45;&gt;Node15 -->
<g id="edge14" class="edge">
<title>Node5&#45;&gt;Node15</title>
<path fill="none" stroke="midnightblue" d="M1149.21,-81.93C1141.56,-80.45 1133.91,-79.11 1126.5,-78 904.84,-44.81 845.74,-71.02 623.5,-42 620.74,-41.64 617.94,-41.25 615.12,-40.84"/>
<polygon fill="midnightblue" stroke="midnightblue" points="1148.77,-85.41 1159.26,-83.94 1150.14,-78.54 1148.77,-85.41"/>
</g>
<!-- Node16 -->
<g id="node16" class="node">
<title>Node16</title>
<g id="a_node16"><a xlink:href="uninitialized_8cpp.html" target="_top" xlink:title="This file provides unit tests for accessing ArgoDSM memory in various ways.">
<polygon fill="white" stroke="black" points="633,-0.5 633,-41.5 826,-41.5 826,-0.5 633,-0.5"/>
<text text-anchor="start" x="641" y="-29.5" font-family="Helvetica,sans-Serif" font-size="10.00">/home/projectcs&#45;2022</text>
<text text-anchor="start" x="641" y="-18.5" font-family="Helvetica,sans-Serif" font-size="10.00">/argodsmBuffer/argodsmPrefetching</text>
<text text-anchor="middle" x="729.5" y="-7.5" font-family="Helvetica,sans-Serif" font-size="10.00">/tests/uninitialized.cpp</text>
</a>
</g>
</g>
<!-- Node5&#45;&gt;Node16 -->
<g id="edge15" class="edge">
<title>Node5&#45;&gt;Node16</title>
<path fill="none" stroke="midnightblue" d="M1146.95,-81.89C1140.05,-80.49 1133.17,-79.17 1126.5,-78 997.72,-55.33 963.68,-62.24 834.5,-42 831.75,-41.57 828.96,-41.12 826.15,-40.66"/>
<polygon fill="midnightblue" stroke="midnightblue" points="1146.56,-85.39 1157.07,-84 1147.99,-78.53 1146.56,-85.39"/>
</g>
<!-- Node17&#45;&gt;Node11 -->
<g id="edge19" class="edge">
<title>Node17&#45;&gt;Node11</title>
<path fill="none" stroke="midnightblue" d="M1570.94,-160.52C1579.69,-152.02 1587.64,-142.07 1592.5,-131 1605.41,-101.63 1593.39,-64.2 1583.47,-41.71"/>
<polygon fill="midnightblue" stroke="midnightblue" points="1568.5,-158.01 1563.45,-167.33 1573.2,-163.19 1568.5,-158.01"/>
</g>
<!-- Node18 -->
<g id="node18" class="node">
<title>Node18</title>
<g id="a_node18"><a xlink:href="cohort__lock_8cpp.html" target="_top" xlink:title="This file provides a C interface for ArgoDSM&#45;based cohort locks.">
<polygon fill="white" stroke="black" points="1391,-78.5 1391,-130.5 1584,-130.5 1584,-78.5 1391,-78.5"/>
<text text-anchor="start" x="1399" y="-118.5" font-family="Helvetica,sans-Serif" font-size="10.00">/home/projectcs&#45;2022</text>
<text text-anchor="start" x="1399" y="-107.5" font-family="Helvetica,sans-Serif" font-size="10.00">/argodsmBuffer/argodsmPrefetching</text>
<text text-anchor="start" x="1399" y="-96.5" font-family="Helvetica,sans-Serif" font-size="10.00">/src/synchronization/cohort</text>
<text text-anchor="middle" x="1487.5" y="-85.5" font-family="Helvetica,sans-Serif" font-size="10.00">_lock.cpp</text>
</a>
</g>
</g>
<!-- Node17&#45;&gt;Node18 -->
<g id="edge18" class="edge">
<title>Node17&#45;&gt;Node18</title>
<path fill="none" stroke="midnightblue" d="M1510.46,-158.06C1506.45,-148.9 1502.21,-139.17 1498.47,-130.61"/>
<polygon fill="midnightblue" stroke="midnightblue" points="1507.3,-159.57 1514.51,-167.34 1513.71,-156.77 1507.3,-159.57"/>
</g>
<!-- Node19&#45;&gt;Node2 -->
<g id="edge27" class="edge">
<title>Node19&#45;&gt;Node2</title>
<path fill="none" stroke="midnightblue" d="M1561.38,-324.88C1565.11,-315.72 1569.15,-305.83 1572.54,-297.51"/>
<polygon fill="midnightblue" stroke="midnightblue" points="1558.02,-323.85 1557.48,-334.43 1564.5,-326.49 1558.02,-323.85"/>
</g>
<!-- Node19&#45;&gt;Node3 -->
<g id="edge26" class="edge">
<title>Node19&#45;&gt;Node3</title>
<path fill="none" stroke="midnightblue" d="M1470.84,-331.68C1360.48,-300.35 1161.45,-243.87 1056.54,-214.09"/>
<polygon fill="midnightblue" stroke="midnightblue" points="1470.01,-335.08 1480.59,-334.44 1471.92,-328.34 1470.01,-335.08"/>
</g>
<!-- Node19&#45;&gt;Node6 -->
<g id="edge28" class="edge">
<title>Node19&#45;&gt;Node6</title>
<path fill="none" stroke="midnightblue" d="M1440.3,-337.57C1374.66,-327.24 1289.57,-313.05 1214.5,-298 814.37,-217.78 341.53,-90.01 166.33,-41.52"/>
<polygon fill="midnightblue" stroke="midnightblue" points="1439.83,-341.04 1450.25,-339.13 1440.91,-334.12 1439.83,-341.04"/>
</g>
</g>
</svg>
