<?xml version="1.0" encoding="UTF-8" standalone="no"?>
<!DOCTYPE svg PUBLIC "-//W3C//DTD SVG 1.1//EN"
 "http://www.w3.org/Graphics/SVG/1.1/DTD/svg11.dtd">
<!-- Generated by graphviz version 2.43.0 (0)
 -->
<!-- Title: /home/projectcs&#45;2022/argodsmBuffer/argodsmPrefetching/src/data_distribution/global_ptr.hpp Pages: 1 -->
<svg width="997pt" height="330pt"
 viewBox="0.00 0.00 997.00 330.00" xmlns="http://www.w3.org/2000/svg" xmlns:xlink="http://www.w3.org/1999/xlink">
<g id="graph0" class="graph" transform="scale(1 1) rotate(0) translate(4 326)">
<title>/home/projectcs&#45;2022/argodsmBuffer/argodsmPrefetching/src/data_distribution/global_ptr.hpp</title>
<polygon fill="white" stroke="transparent" points="-4,4 -4,-326 993,-326 993,4 -4,4"/>
<!-- Node1 -->
<g id="node1" class="node">
<title>Node1</title>
<g id="a_node1"><a xlink:title="This file provides the global pointer for ArgoDSM.">
<polygon fill="#bfbfbf" stroke="black" points="796,-280.5 796,-321.5 989,-321.5 989,-280.5 796,-280.5"/>
<text text-anchor="start" x="804" y="-309.5" font-family="Helvetica,sans-Serif" font-size="10.00">/home/projectcs&#45;2022</text>
<text text-anchor="start" x="804" y="-298.5" font-family="Helvetica,sans-Serif" font-size="10.00">/argodsmBuffer/argodsmPrefetching</text>
<text text-anchor="middle" x="892.5" y="-287.5" font-family="Helvetica,sans-Serif" font-size="10.00">/src/data_distribution/global_ptr.hpp</text>
</a>
</g>
</g>
<!-- Node2 -->
<g id="node2" class="node">
<title>Node2</title>
<g id="a_node2"><a xlink:title=" ">
<polygon fill="white" stroke="#bfbfbf" points="742.5,-56.5 742.5,-75.5 786.5,-75.5 786.5,-56.5 742.5,-56.5"/>
<text text-anchor="middle" x="764.5" y="-63.5" font-family="Helvetica,sans-Serif" font-size="10.00">string</text>
</a>
</g>
</g>
<!-- Node1&#45;&gt;Node2 -->
<g id="edge1" class="edge">
<title>Node1&#45;&gt;Node2</title>
<path fill="none" stroke="midnightblue" d="M885.62,-280.14C876.13,-253.74 857.78,-206.01 836.5,-168 818.9,-136.55 793.54,-103.05 778.09,-83.63"/>
<polygon fill="midnightblue" stroke="midnightblue" points="780.74,-81.35 771.75,-75.75 775.29,-85.74 780.74,-81.35"/>
</g>
<!-- Node3 -->
<g id="node3" class="node">
<title>Node3</title>
<g id="a_node3"><a xlink:href="data__distribution_8hpp.html" target="_top" xlink:title="This file provides an abstraction layer for distributing the shared memory space.">
<polygon fill="white" stroke="black" points="491.5,-224.5 491.5,-243.5 611.5,-243.5 611.5,-224.5 491.5,-224.5"/>
<text text-anchor="middle" x="551.5" y="-231.5" font-family="Helvetica,sans-Serif" font-size="10.00">data_distribution.hpp</text>
</a>
</g>
</g>
<!-- Node1&#45;&gt;Node3 -->
<g id="edge2" class="edge">
<title>Node1&#45;&gt;Node3</title>
<path fill="none" stroke="midnightblue" d="M795.7,-281.55C734.22,-269.83 656.93,-255.1 605.96,-245.38"/>
<polygon fill="midnightblue" stroke="midnightblue" points="606.61,-241.94 596.13,-243.51 605.3,-248.82 606.61,-241.94"/>
</g>
<!-- Node7 -->
<g id="node7" class="node">
<title>Node7</title>
<g id="a_node7"><a xlink:href="env_8hpp.html" target="_top" xlink:title="This file provides facilities for handling environment variables.">
<polygon fill="white" stroke="black" points="816.5,-56.5 816.5,-75.5 892.5,-75.5 892.5,-56.5 816.5,-56.5"/>
<text text-anchor="middle" x="854.5" y="-63.5" font-family="Helvetica,sans-Serif" font-size="10.00">env/env.hpp</text>
</a>
</g>
</g>
<!-- Node1&#45;&gt;Node7 -->
<g id="edge23" class="edge">
<title>Node1&#45;&gt;Node7</title>
<path fill="none" stroke="midnightblue" d="M899.97,-280.23C912.12,-244.72 932.35,-168.56 906.5,-112 900.72,-99.36 889.45,-88.91 878.87,-81.27"/>
<polygon fill="midnightblue" stroke="midnightblue" points="880.54,-78.18 870.28,-75.53 876.65,-84 880.54,-78.18"/>
</g>
<!-- Node4 -->
<g id="node4" class="node">
<title>Node4</title>
<g id="a_node4"><a xlink:href="base__distribution_8hpp.html" target="_top" xlink:title="This file implements the base distribution class for all the policies to derive from.">
<polygon fill="white" stroke="black" points="489.5,-112.5 489.5,-131.5 611.5,-131.5 611.5,-112.5 489.5,-112.5"/>
<text text-anchor="middle" x="550.5" y="-119.5" font-family="Helvetica,sans-Serif" font-size="10.00">base_distribution.hpp</text>
</a>
</g>
</g>
<!-- Node3&#45;&gt;Node4 -->
<g id="edge3" class="edge">
<title>Node3&#45;&gt;Node4</title>
<path fill="none" stroke="midnightblue" d="M544.35,-224.36C537.73,-215.76 528.34,-201.87 524.5,-188 519.85,-171.22 528.55,-152.87 537.1,-139.96"/>
<polygon fill="midnightblue" stroke="midnightblue" points="540.11,-141.78 543.12,-131.62 534.43,-137.68 540.11,-141.78"/>
</g>
<!-- Node3&#45;&gt;Node7 -->
<g id="edge22" class="edge">
<title>Node3&#45;&gt;Node7</title>
<path fill="none" stroke="midnightblue" d="M611.69,-231.61C685.88,-228.56 805.91,-218.86 836.5,-188 863.32,-160.94 861.39,-112.4 857.84,-85.76"/>
<polygon fill="midnightblue" stroke="midnightblue" points="861.28,-85.16 856.29,-75.81 854.37,-86.23 861.28,-85.16"/>
</g>
<!-- Node10 -->
<g id="node10" class="node">
<title>Node10</title>
<g id="a_node10"><a xlink:href="cyclic__distribution_8hpp.html" target="_top" xlink:title="This file implements the cyclic data distribution.">
<polygon fill="white" stroke="black" points="533.5,-168.5 533.5,-187.5 659.5,-187.5 659.5,-168.5 533.5,-168.5"/>
<text text-anchor="middle" x="596.5" y="-175.5" font-family="Helvetica,sans-Serif" font-size="10.00">cyclic_distribution.hpp</text>
</a>
</g>
</g>
<!-- Node3&#45;&gt;Node10 -->
<g id="edge10" class="edge">
<title>Node3&#45;&gt;Node10</title>
<path fill="none" stroke="midnightblue" d="M558.93,-224.08C565.35,-216.38 574.81,-205.03 582.62,-195.65"/>
<polygon fill="midnightblue" stroke="midnightblue" points="585.49,-197.67 589.21,-187.75 580.12,-193.19 585.49,-197.67"/>
</g>
<!-- Node11 -->
<g id="node11" class="node">
<title>Node11</title>
<g id="a_node11"><a xlink:href="first__touch__distribution_8hpp.html" target="_top" xlink:title="This file implements the first&#45;touch data distribution.">
<polygon fill="white" stroke="black" points="678,-168.5 678,-187.5 827,-187.5 827,-168.5 678,-168.5"/>
<text text-anchor="middle" x="752.5" y="-175.5" font-family="Helvetica,sans-Serif" font-size="10.00">first_touch_distribution.hpp</text>
</a>
</g>
</g>
<!-- Node3&#45;&gt;Node11 -->
<g id="edge12" class="edge">
<title>Node3&#45;&gt;Node11</title>
<path fill="none" stroke="midnightblue" d="M583.35,-224.44C617.9,-215.16 673.18,-200.31 711.08,-190.13"/>
<polygon fill="midnightblue" stroke="midnightblue" points="712.05,-193.49 720.8,-187.52 710.23,-186.73 712.05,-193.49"/>
</g>
<!-- Node13 -->
<g id="node13" class="node">
<title>Node13</title>
<g id="a_node13"><a xlink:href="naive__distribution_8hpp.html" target="_top" xlink:title="This file implements the naive data distribution.">
<polygon fill="white" stroke="black" points="0,-168.5 0,-187.5 125,-187.5 125,-168.5 0,-168.5"/>
<text text-anchor="middle" x="62.5" y="-175.5" font-family="Helvetica,sans-Serif" font-size="10.00">naive_distribution.hpp</text>
</a>
</g>
</g>
<!-- Node3&#45;&gt;Node13 -->
<g id="edge16" class="edge">
<title>Node3&#45;&gt;Node13</title>
<path fill="none" stroke="midnightblue" d="M491.39,-226.83C412.29,-218.65 268.66,-203.54 135.31,-188.08"/>
<polygon fill="midnightblue" stroke="midnightblue" points="135.66,-184.59 125.32,-186.92 134.85,-191.55 135.66,-184.59"/>
</g>
<!-- Node14 -->
<g id="node14" class="node">
<title>Node14</title>
<g id="a_node14"><a xlink:href="prime__mapp__distribution_8hpp.html" target="_top" xlink:title="This file implements the prime&#45;mapp data distribution.">
<polygon fill="white" stroke="black" points="143.5,-168.5 143.5,-187.5 303.5,-187.5 303.5,-168.5 143.5,-168.5"/>
<text text-anchor="middle" x="223.5" y="-175.5" font-family="Helvetica,sans-Serif" font-size="10.00">prime_mapp_distribution.hpp</text>
</a>
</g>
</g>
<!-- Node3&#45;&gt;Node14 -->
<g id="edge18" class="edge">
<title>Node3&#45;&gt;Node14</title>
<path fill="none" stroke="midnightblue" d="M499.53,-224.44C441.35,-214.87 347.14,-199.36 285.25,-189.17"/>
<polygon fill="midnightblue" stroke="midnightblue" points="285.67,-185.69 275.23,-187.52 284.53,-192.59 285.67,-185.69"/>
</g>
<!-- Node15 -->
<g id="node15" class="node">
<title>Node15</title>
<g id="a_node15"><a xlink:href="skew__mapp__distribution_8hpp.html" target="_top" xlink:title="This file implements the skew&#45;mapp data distribution.">
<polygon fill="white" stroke="black" points="321.5,-168.5 321.5,-187.5 477.5,-187.5 477.5,-168.5 321.5,-168.5"/>
<text text-anchor="middle" x="399.5" y="-175.5" font-family="Helvetica,sans-Serif" font-size="10.00">skew_mapp_distribution.hpp</text>
</a>
</g>
</g>
<!-- Node3&#45;&gt;Node15 -->
<g id="edge20" class="edge">
<title>Node3&#45;&gt;Node15</title>
<path fill="none" stroke="midnightblue" d="M527.42,-224.44C501.96,-215.4 461.61,-201.06 433.04,-190.92"/>
<polygon fill="midnightblue" stroke="midnightblue" points="434.07,-187.57 423.47,-187.52 431.72,-194.16 434.07,-187.57"/>
</g>
<!-- Node4&#45;&gt;Node2 -->
<g id="edge6" class="edge">
<title>Node4&#45;&gt;Node2</title>
<path fill="none" stroke="midnightblue" d="M584.41,-112.44C625.07,-102.18 692.69,-85.12 732.49,-75.08"/>
<polygon fill="midnightblue" stroke="midnightblue" points="733.37,-78.46 742.21,-72.62 731.66,-71.68 733.37,-78.46"/>
</g>
<!-- Node5 -->
<g id="node5" class="node">
<title>Node5</title>
<g id="a_node5"><a xlink:title=" ">
<polygon fill="white" stroke="#bfbfbf" points="616,-56.5 616,-75.5 665,-75.5 665,-56.5 616,-56.5"/>
<text text-anchor="middle" x="640.5" y="-63.5" font-family="Helvetica,sans-Serif" font-size="10.00">cstdlib</text>
</a>
</g>
</g>
<!-- Node4&#45;&gt;Node5 -->
<g id="edge4" class="edge">
<title>Node4&#45;&gt;Node5</title>
<path fill="none" stroke="midnightblue" d="M564.96,-112.32C579,-103.9 600.55,-90.97 617.04,-81.07"/>
<polygon fill="midnightblue" stroke="midnightblue" points="619.3,-83.8 626.08,-75.65 615.7,-77.8 619.3,-83.8"/>
</g>
<!-- Node6 -->
<g id="node6" class="node">
<title>Node6</title>
<g id="a_node6"><a xlink:title=" ">
<polygon fill="white" stroke="#bfbfbf" points="424.5,-56.5 424.5,-75.5 484.5,-75.5 484.5,-56.5 424.5,-56.5"/>
<text text-anchor="middle" x="454.5" y="-63.5" font-family="Helvetica,sans-Serif" font-size="10.00">iostream</text>
</a>
</g>
</g>
<!-- Node4&#45;&gt;Node6 -->
<g id="edge5" class="edge">
<title>Node4&#45;&gt;Node6</title>
<path fill="none" stroke="midnightblue" d="M535.08,-112.32C519.96,-103.82 496.68,-90.73 479.03,-80.8"/>
<polygon fill="midnightblue" stroke="midnightblue" points="480.32,-77.51 469.89,-75.65 476.89,-83.61 480.32,-77.51"/>
</g>
<!-- Node4&#45;&gt;Node7 -->
<g id="edge7" class="edge">
<title>Node4&#45;&gt;Node7</title>
<path fill="none" stroke="midnightblue" d="M598.67,-112.44C655.41,-102.36 749.13,-85.72 806.01,-75.61"/>
<polygon fill="midnightblue" stroke="midnightblue" points="806.95,-79 816.18,-73.81 805.72,-72.11 806.95,-79"/>
</g>
<!-- Node9 -->
<g id="node9" class="node">
<title>Node9</title>
<g id="a_node9"><a xlink:href="types_8hpp.html" target="_top" xlink:title="This file defines common types used in ArgoDSM.">
<polygon fill="white" stroke="black" points="503,-56.5 503,-75.5 598,-75.5 598,-56.5 503,-56.5"/>
<text text-anchor="middle" x="550.5" y="-63.5" font-family="Helvetica,sans-Serif" font-size="10.00">types/types.hpp</text>
</a>
</g>
</g>
<!-- Node4&#45;&gt;Node9 -->
<g id="edge9" class="edge">
<title>Node4&#45;&gt;Node9</title>
<path fill="none" stroke="midnightblue" d="M550.5,-112.08C550.5,-105.01 550.5,-94.86 550.5,-85.99"/>
<polygon fill="midnightblue" stroke="midnightblue" points="554,-85.75 550.5,-75.75 547,-85.75 554,-85.75"/>
</g>
<!-- Node8 -->
<g id="node8" class="node">
<title>Node8</title>
<g id="a_node8"><a xlink:title=" ">
<polygon fill="white" stroke="#bfbfbf" points="828,-0.5 828,-19.5 881,-19.5 881,-0.5 828,-0.5"/>
<text text-anchor="middle" x="854.5" y="-7.5" font-family="Helvetica,sans-Serif" font-size="10.00">cstddef</text>
</a>
</g>
</g>
<!-- Node7&#45;&gt;Node8 -->
<g id="edge8" class="edge">
<title>Node7&#45;&gt;Node8</title>
<path fill="none" stroke="midnightblue" d="M854.5,-56.08C854.5,-49.01 854.5,-38.86 854.5,-29.99"/>
<polygon fill="midnightblue" stroke="midnightblue" points="858,-29.75 854.5,-19.75 851,-29.75 858,-29.75"/>
</g>
<!-- Node10&#45;&gt;Node4 -->
<g id="edge11" class="edge">
<title>Node10&#45;&gt;Node4</title>
<path fill="none" stroke="midnightblue" d="M588.9,-168.08C582.27,-160.3 572.48,-148.8 564.44,-139.37"/>
<polygon fill="midnightblue" stroke="midnightblue" points="567.1,-137.09 557.95,-131.75 561.77,-141.63 567.1,-137.09"/>
</g>
<!-- Node11&#45;&gt;Node2 -->
<g id="edge14" class="edge">
<title>Node11&#45;&gt;Node2</title>
<path fill="none" stroke="midnightblue" d="M753.44,-168.37C755.38,-150.62 759.85,-109.67 762.47,-85.6"/>
<polygon fill="midnightblue" stroke="midnightblue" points="765.96,-85.91 763.56,-75.59 759,-85.15 765.96,-85.91"/>
</g>
<!-- Node11&#45;&gt;Node4 -->
<g id="edge15" class="edge">
<title>Node11&#45;&gt;Node4</title>
<path fill="none" stroke="midnightblue" d="M720.49,-168.44C685.77,-159.16 630.21,-144.31 592.12,-134.13"/>
<polygon fill="midnightblue" stroke="midnightblue" points="592.92,-130.72 582.36,-131.52 591.11,-137.48 592.92,-130.72"/>
</g>
<!-- Node12 -->
<g id="node12" class="node">
<title>Node12</title>
<g id="a_node12"><a xlink:title=" ">
<polygon fill="white" stroke="#bfbfbf" points="688.5,-112.5 688.5,-131.5 736.5,-131.5 736.5,-112.5 688.5,-112.5"/>
<text text-anchor="middle" x="712.5" y="-119.5" font-family="Helvetica,sans-Serif" font-size="10.00">mutex</text>
</a>
</g>
</g>
<!-- Node11&#45;&gt;Node12 -->
<g id="edge13" class="edge">
<title>Node11&#45;&gt;Node12</title>
<path fill="none" stroke="midnightblue" d="M745.89,-168.08C740.24,-160.46 731.96,-149.26 725.05,-139.94"/>
<polygon fill="midnightblue" stroke="midnightblue" points="727.75,-137.7 718.98,-131.75 722.12,-141.87 727.75,-137.7"/>
</g>
<!-- Node13&#45;&gt;Node4 -->
<g id="edge17" class="edge">
<title>Node13&#45;&gt;Node4</title>
<path fill="none" stroke="midnightblue" d="M125.32,-169.09C128.42,-168.71 131.5,-168.35 134.5,-168 255.54,-153.89 396.58,-138.95 479.43,-130.32"/>
<polygon fill="midnightblue" stroke="midnightblue" points="479.91,-133.79 489.49,-129.28 479.18,-126.83 479.91,-133.79"/>
</g>
<!-- Node14&#45;&gt;Node4 -->
<g id="edge19" class="edge">
<title>Node14&#45;&gt;Node4</title>
<path fill="none" stroke="midnightblue" d="M275.31,-168.44C333.32,-158.87 427.24,-143.36 488.94,-133.17"/>
<polygon fill="midnightblue" stroke="midnightblue" points="489.63,-136.6 498.93,-131.52 488.49,-129.69 489.63,-136.6"/>
</g>
<!-- Node15&#45;&gt;Node4 -->
<g id="edge21" class="edge">
<title>Node15&#45;&gt;Node4</title>
<path fill="none" stroke="midnightblue" d="M423.43,-168.44C448.72,-159.4 488.8,-145.06 517.18,-134.92"/>
<polygon fill="midnightblue" stroke="midnightblue" points="518.45,-138.18 526.69,-131.52 516.09,-131.59 518.45,-138.18"/>
</g>
</g>
</svg>
