<?xml version="1.0" encoding="UTF-8" standalone="no"?>
<!DOCTYPE svg PUBLIC "-//W3C//DTD SVG 1.1//EN"
 "http://www.w3.org/Graphics/SVG/1.1/DTD/svg11.dtd">
<!-- Generated by graphviz version 2.43.0 (0)
 -->
<!-- Title: /home/projectcs&#45;2022/argodsmBuffer/argodsmPrefetching/src/synchronization/global_tas_lock.hpp Pages: 1 -->
<svg width="1135pt" height="464pt"
 viewBox="0.00 0.00 1135.00 464.00" xmlns="http://www.w3.org/2000/svg" xmlns:xlink="http://www.w3.org/1999/xlink">
<g id="graph0" class="graph" transform="scale(1 1) rotate(0) translate(4 460)">
<title>/home/projectcs&#45;2022/argodsmBuffer/argodsmPrefetching/src/synchronization/global_tas_lock.hpp</title>
<polygon fill="white" stroke="transparent" points="-4,4 -4,-460 1131,-460 1131,4 -4,4"/>
<!-- Node1 -->
<g id="node1" class="node">
<title>Node1</title>
<g id="a_node1"><a xlink:title="This file provides a tas lock for the ArgoDSM system based on the TAS lock made by David Klaftenegger...">
<polygon fill="#bfbfbf" stroke="black" points="46.5,-403.5 46.5,-455.5 239.5,-455.5 239.5,-403.5 46.5,-403.5"/>
<text text-anchor="start" x="54.5" y="-443.5" font-family="Helvetica,sans-Serif" font-size="10.00">/home/projectcs&#45;2022</text>
<text text-anchor="start" x="54.5" y="-432.5" font-family="Helvetica,sans-Serif" font-size="10.00">/argodsmBuffer/argodsmPrefetching</text>
<text text-anchor="start" x="54.5" y="-421.5" font-family="Helvetica,sans-Serif" font-size="10.00">/src/synchronization/global</text>
<text text-anchor="middle" x="143" y="-410.5" font-family="Helvetica,sans-Serif" font-size="10.00">_tas_lock.hpp</text>
</a>
</g>
</g>
<!-- Node2 -->
<g id="node2" class="node">
<title>Node2</title>
<g id="a_node2"><a xlink:title=" ">
<polygon fill="white" stroke="#bfbfbf" points="0,-347.5 0,-366.5 50,-366.5 50,-347.5 0,-347.5"/>
<text text-anchor="middle" x="25" y="-354.5" font-family="Helvetica,sans-Serif" font-size="10.00">atomic</text>
</a>
</g>
</g>
<!-- Node1&#45;&gt;Node2 -->
<g id="edge1" class="edge">
<title>Node1&#45;&gt;Node2</title>
<path fill="none" stroke="midnightblue" d="M101.07,-403.45C83.18,-392.76 63.01,-380.71 47.93,-371.7"/>
<polygon fill="midnightblue" stroke="midnightblue" points="49.65,-368.65 39.27,-366.53 46.06,-374.66 49.65,-368.65"/>
</g>
<!-- Node3 -->
<g id="node3" class="node">
<title>Node3</title>
<g id="a_node3"><a xlink:title=" ">
<polygon fill="white" stroke="#bfbfbf" points="68,-347.5 68,-366.5 116,-366.5 116,-347.5 68,-347.5"/>
<text text-anchor="middle" x="92" y="-354.5" font-family="Helvetica,sans-Serif" font-size="10.00">thread</text>
</a>
</g>
</g>
<!-- Node1&#45;&gt;Node3 -->
<g id="edge2" class="edge">
<title>Node1&#45;&gt;Node3</title>
<path fill="none" stroke="midnightblue" d="M124.88,-403.45C118.06,-394.03 110.48,-383.55 104.32,-375.03"/>
<polygon fill="midnightblue" stroke="midnightblue" points="106.99,-372.75 98.29,-366.7 101.32,-376.85 106.99,-372.75"/>
</g>
<!-- Node4 -->
<g id="node4" class="node">
<title>Node4</title>
<g id="a_node4"><a xlink:href="backend_8hpp.html" target="_top" xlink:title="This file provides the backend interface.">
<polygon fill="white" stroke="black" points="134,-347.5 134,-366.5 256,-366.5 256,-347.5 134,-347.5"/>
<text text-anchor="middle" x="195" y="-354.5" font-family="Helvetica,sans-Serif" font-size="10.00">backend/backend.hpp</text>
</a>
</g>
</g>
<!-- Node1&#45;&gt;Node4 -->
<g id="edge3" class="edge">
<title>Node1&#45;&gt;Node4</title>
<path fill="none" stroke="midnightblue" d="M161.48,-403.45C168.5,-393.93 176.32,-383.33 182.64,-374.76"/>
<polygon fill="midnightblue" stroke="midnightblue" points="185.47,-376.82 188.59,-366.7 179.83,-372.67 185.47,-376.82"/>
</g>
<!-- Node8 -->
<g id="node8" class="node">
<title>Node8</title>
<g id="a_node8"><a xlink:href="global__ptr_8hpp.html" target="_top" xlink:title="This file provides the global pointer for ArgoDSM.">
<polygon fill="white" stroke="black" points="264,-280.5 264,-310.5 396,-310.5 396,-280.5 264,-280.5"/>
<text text-anchor="start" x="272" y="-298.5" font-family="Helvetica,sans-Serif" font-size="10.00">data_distribution/global</text>
<text text-anchor="middle" x="330" y="-287.5" font-family="Helvetica,sans-Serif" font-size="10.00">_ptr.hpp</text>
</a>
</g>
</g>
<!-- Node1&#45;&gt;Node8 -->
<g id="edge32" class="edge">
<title>Node1&#45;&gt;Node8</title>
<path fill="none" stroke="midnightblue" d="M203.23,-403.44C223.76,-393.55 246.26,-381.14 265,-367 283.33,-353.17 300.78,-333.78 312.97,-318.83"/>
<polygon fill="midnightblue" stroke="midnightblue" points="316.02,-320.62 319.51,-310.62 310.54,-316.26 316.02,-320.62"/>
</g>
<!-- Node5 -->
<g id="node5" class="node">
<title>Node5</title>
<g id="a_node5"><a xlink:title=" ">
<polygon fill="white" stroke="#bfbfbf" points="88,-286 88,-305 140,-305 140,-286 88,-286"/>
<text text-anchor="middle" x="114" y="-293" font-family="Helvetica,sans-Serif" font-size="10.00">cassert</text>
</a>
</g>
</g>
<!-- Node4&#45;&gt;Node5 -->
<g id="edge4" class="edge">
<title>Node4&#45;&gt;Node5</title>
<path fill="none" stroke="midnightblue" d="M183.39,-347.48C170.52,-338.02 149.53,-322.6 133.99,-311.19"/>
<polygon fill="midnightblue" stroke="midnightblue" points="135.72,-308.11 125.58,-305.01 131.57,-313.75 135.72,-308.11"/>
</g>
<!-- Node6 -->
<g id="node6" class="node">
<title>Node6</title>
<g id="a_node6"><a xlink:title=" ">
<polygon fill="white" stroke="#bfbfbf" points="196,-286 196,-305 246,-305 246,-286 196,-286"/>
<text text-anchor="middle" x="221" y="-293" font-family="Helvetica,sans-Serif" font-size="10.00">cstdint</text>
</a>
</g>
</g>
<!-- Node4&#45;&gt;Node6 -->
<g id="edge5" class="edge">
<title>Node4&#45;&gt;Node6</title>
<path fill="none" stroke="midnightblue" d="M198.73,-347.48C202.47,-338.9 208.36,-325.43 213.14,-314.48"/>
<polygon fill="midnightblue" stroke="midnightblue" points="216.48,-315.57 217.28,-305.01 210.07,-312.77 216.48,-315.57"/>
</g>
<!-- Node7 -->
<g id="node7" class="node">
<title>Node7</title>
<g id="a_node7"><a xlink:title=" ">
<polygon fill="white" stroke="#bfbfbf" points="4.5,-286 4.5,-305 69.5,-305 69.5,-286 4.5,-286"/>
<text text-anchor="middle" x="37" y="-293" font-family="Helvetica,sans-Serif" font-size="10.00">stdexcept</text>
</a>
</g>
</g>
<!-- Node4&#45;&gt;Node7 -->
<g id="edge6" class="edge">
<title>Node4&#45;&gt;Node7</title>
<path fill="none" stroke="midnightblue" d="M172.36,-347.48C145.26,-337.27 99.69,-320.11 69,-308.55"/>
<polygon fill="midnightblue" stroke="midnightblue" points="70.19,-305.26 59.6,-305.01 67.72,-311.81 70.19,-305.26"/>
</g>
<!-- Node4&#45;&gt;Node8 -->
<g id="edge7" class="edge">
<title>Node4&#45;&gt;Node8</title>
<path fill="none" stroke="midnightblue" d="M214.34,-347.48C233.74,-338.93 264.2,-325.5 288.99,-314.57"/>
<polygon fill="midnightblue" stroke="midnightblue" points="290.44,-317.76 298.18,-310.52 287.62,-311.35 290.44,-317.76"/>
</g>
<!-- Node16 -->
<g id="node16" class="node">
<title>Node16</title>
<g id="a_node16"><a xlink:href="types_8hpp.html" target="_top" xlink:title="This file defines common types used in ArgoDSM.">
<polygon fill="white" stroke="black" points="370.5,-56.5 370.5,-75.5 465.5,-75.5 465.5,-56.5 370.5,-56.5"/>
<text text-anchor="middle" x="418" y="-63.5" font-family="Helvetica,sans-Serif" font-size="10.00">types/types.hpp</text>
</a>
</g>
</g>
<!-- Node4&#45;&gt;Node16 -->
<g id="edge31" class="edge">
<title>Node4&#45;&gt;Node16</title>
<path fill="none" stroke="midnightblue" d="M193.01,-347.43C191.03,-338.42 188.13,-323.8 187,-311 181.22,-245.49 184.26,-219.62 225,-168 262.9,-119.98 329.97,-92.32 374.2,-78.46"/>
<polygon fill="midnightblue" stroke="midnightblue" points="375.27,-81.79 383.83,-75.55 373.24,-75.09 375.27,-81.79"/>
</g>
<!-- Node9 -->
<g id="node9" class="node">
<title>Node9</title>
<g id="a_node9"><a xlink:title=" ">
<polygon fill="white" stroke="#bfbfbf" points="273,-56.5 273,-75.5 317,-75.5 317,-56.5 273,-56.5"/>
<text text-anchor="middle" x="295" y="-63.5" font-family="Helvetica,sans-Serif" font-size="10.00">string</text>
</a>
</g>
</g>
<!-- Node8&#45;&gt;Node9 -->
<g id="edge8" class="edge">
<title>Node8&#45;&gt;Node9</title>
<path fill="none" stroke="midnightblue" d="M308.08,-280.35C282.55,-262.4 241.75,-228.84 225,-188 208.47,-147.68 249.57,-104.39 275.58,-82.14"/>
<polygon fill="midnightblue" stroke="midnightblue" points="277.92,-84.74 283.41,-75.68 273.47,-79.34 277.92,-84.74"/>
</g>
<!-- Node10 -->
<g id="node10" class="node">
<title>Node10</title>
<g id="a_node10"><a xlink:href="data__distribution_8hpp.html" target="_top" xlink:title="This file provides an abstraction layer for distributing the shared memory space.">
<polygon fill="white" stroke="black" points="570,-224.5 570,-243.5 690,-243.5 690,-224.5 570,-224.5"/>
<text text-anchor="middle" x="630" y="-231.5" font-family="Helvetica,sans-Serif" font-size="10.00">data_distribution.hpp</text>
</a>
</g>
</g>
<!-- Node8&#45;&gt;Node10 -->
<g id="edge9" class="edge">
<title>Node8&#45;&gt;Node10</title>
<path fill="none" stroke="midnightblue" d="M396.21,-281.37C450.61,-270.58 526.66,-255.5 577.07,-245.5"/>
<polygon fill="midnightblue" stroke="midnightblue" points="577.98,-248.88 587.11,-243.51 576.62,-242.02 577.98,-248.88"/>
</g>
<!-- Node14 -->
<g id="node14" class="node">
<title>Node14</title>
<g id="a_node14"><a xlink:href="env_8hpp.html" target="_top" xlink:title="This file provides facilities for handling environment variables.">
<polygon fill="white" stroke="black" points="1051,-56.5 1051,-75.5 1127,-75.5 1127,-56.5 1051,-56.5"/>
<text text-anchor="middle" x="1089" y="-63.5" font-family="Helvetica,sans-Serif" font-size="10.00">env/env.hpp</text>
</a>
</g>
</g>
<!-- Node8&#45;&gt;Node14 -->
<g id="edge30" class="edge">
<title>Node8&#45;&gt;Node14</title>
<path fill="none" stroke="midnightblue" d="M396.13,-294.09C561.36,-291.73 986.36,-276.93 1090,-188 1116.27,-165.46 1113.55,-145.99 1107,-112 1105.21,-102.7 1101.52,-92.89 1097.94,-84.8"/>
<polygon fill="midnightblue" stroke="midnightblue" points="1101.06,-83.21 1093.62,-75.66 1094.73,-86.2 1101.06,-83.21"/>
</g>
<!-- Node11 -->
<g id="node11" class="node">
<title>Node11</title>
<g id="a_node11"><a xlink:href="base__distribution_8hpp.html" target="_top" xlink:title="This file implements the base distribution class for all the policies to derive from.">
<polygon fill="white" stroke="black" points="524,-112.5 524,-131.5 646,-131.5 646,-112.5 524,-112.5"/>
<text text-anchor="middle" x="585" y="-119.5" font-family="Helvetica,sans-Serif" font-size="10.00">base_distribution.hpp</text>
</a>
</g>
</g>
<!-- Node10&#45;&gt;Node11 -->
<g id="edge10" class="edge">
<title>Node10&#45;&gt;Node11</title>
<path fill="none" stroke="midnightblue" d="M624.17,-224.36C618.41,-215.53 609.68,-201.27 604,-188 597.5,-172.8 592.41,-154.68 589.14,-141.44"/>
<polygon fill="midnightblue" stroke="midnightblue" points="592.53,-140.57 586.83,-131.64 585.71,-142.18 592.53,-140.57"/>
</g>
<!-- Node10&#45;&gt;Node14 -->
<g id="edge29" class="edge">
<title>Node10&#45;&gt;Node14</title>
<path fill="none" stroke="midnightblue" d="M690.17,-230.87C804.22,-226.25 1042.97,-213.62 1070,-188 1097.82,-161.64 1095.88,-112.41 1092.3,-85.59"/>
<polygon fill="midnightblue" stroke="midnightblue" points="1095.74,-84.94 1090.75,-75.6 1088.83,-86.02 1095.74,-84.94"/>
</g>
<!-- Node17 -->
<g id="node17" class="node">
<title>Node17</title>
<g id="a_node17"><a xlink:href="cyclic__distribution_8hpp.html" target="_top" xlink:title="This file implements the cyclic data distribution.">
<polygon fill="white" stroke="black" points="613,-168.5 613,-187.5 739,-187.5 739,-168.5 613,-168.5"/>
<text text-anchor="middle" x="676" y="-175.5" font-family="Helvetica,sans-Serif" font-size="10.00">cyclic_distribution.hpp</text>
</a>
</g>
</g>
<!-- Node10&#45;&gt;Node17 -->
<g id="edge17" class="edge">
<title>Node10&#45;&gt;Node17</title>
<path fill="none" stroke="midnightblue" d="M637.6,-224.08C644.23,-216.3 654.02,-204.8 662.06,-195.37"/>
<polygon fill="midnightblue" stroke="midnightblue" points="664.73,-197.63 668.55,-187.75 659.4,-193.09 664.73,-197.63"/>
</g>
<!-- Node18 -->
<g id="node18" class="node">
<title>Node18</title>
<g id="a_node18"><a xlink:href="first__touch__distribution_8hpp.html" target="_top" xlink:title="This file implements the first&#45;touch data distribution.">
<polygon fill="white" stroke="black" points="233.5,-168.5 233.5,-187.5 382.5,-187.5 382.5,-168.5 233.5,-168.5"/>
<text text-anchor="middle" x="308" y="-175.5" font-family="Helvetica,sans-Serif" font-size="10.00">first_touch_distribution.hpp</text>
</a>
</g>
</g>
<!-- Node10&#45;&gt;Node18 -->
<g id="edge19" class="edge">
<title>Node10&#45;&gt;Node18</title>
<path fill="none" stroke="midnightblue" d="M578.98,-224.44C521.98,-214.89 429.76,-199.42 369,-189.23"/>
<polygon fill="midnightblue" stroke="midnightblue" points="369.22,-185.72 358.78,-187.52 368.07,-192.62 369.22,-185.72"/>
</g>
<!-- Node20 -->
<g id="node20" class="node">
<title>Node20</title>
<g id="a_node20"><a xlink:href="naive__distribution_8hpp.html" target="_top" xlink:title="This file implements the naive data distribution.">
<polygon fill="white" stroke="black" points="757.5,-168.5 757.5,-187.5 882.5,-187.5 882.5,-168.5 757.5,-168.5"/>
<text text-anchor="middle" x="820" y="-175.5" font-family="Helvetica,sans-Serif" font-size="10.00">naive_distribution.hpp</text>
</a>
</g>
</g>
<!-- Node10&#45;&gt;Node20 -->
<g id="edge23" class="edge">
<title>Node10&#45;&gt;Node20</title>
<path fill="none" stroke="midnightblue" d="M660.11,-224.44C692.63,-215.2 744.58,-200.44 780.39,-190.26"/>
<polygon fill="midnightblue" stroke="midnightblue" points="781.37,-193.62 790.03,-187.52 779.46,-186.88 781.37,-193.62"/>
</g>
<!-- Node21 -->
<g id="node21" class="node">
<title>Node21</title>
<g id="a_node21"><a xlink:href="prime__mapp__distribution_8hpp.html" target="_top" xlink:title="This file implements the prime&#45;mapp data distribution.">
<polygon fill="white" stroke="black" points="901,-168.5 901,-187.5 1061,-187.5 1061,-168.5 901,-168.5"/>
<text text-anchor="middle" x="981" y="-175.5" font-family="Helvetica,sans-Serif" font-size="10.00">prime_mapp_distribution.hpp</text>
</a>
</g>
</g>
<!-- Node10&#45;&gt;Node21 -->
<g id="edge25" class="edge">
<title>Node10&#45;&gt;Node21</title>
<path fill="none" stroke="midnightblue" d="M685.62,-224.44C748.13,-214.83 849.52,-199.23 915.73,-189.04"/>
<polygon fill="midnightblue" stroke="midnightblue" points="916.29,-192.5 925.64,-187.52 915.23,-185.58 916.29,-192.5"/>
</g>
<!-- Node22 -->
<g id="node22" class="node">
<title>Node22</title>
<g id="a_node22"><a xlink:href="skew__mapp__distribution_8hpp.html" target="_top" xlink:title="This file implements the skew&#45;mapp data distribution.">
<polygon fill="white" stroke="black" points="401,-168.5 401,-187.5 557,-187.5 557,-168.5 401,-168.5"/>
<text text-anchor="middle" x="479" y="-175.5" font-family="Helvetica,sans-Serif" font-size="10.00">skew_mapp_distribution.hpp</text>
</a>
</g>
</g>
<!-- Node10&#45;&gt;Node22 -->
<g id="edge27" class="edge">
<title>Node10&#45;&gt;Node22</title>
<path fill="none" stroke="midnightblue" d="M606.07,-224.44C580.78,-215.4 540.7,-201.06 512.32,-190.92"/>
<polygon fill="midnightblue" stroke="midnightblue" points="513.41,-187.59 502.81,-187.52 511.05,-194.18 513.41,-187.59"/>
</g>
<!-- Node11&#45;&gt;Node9 -->
<g id="edge13" class="edge">
<title>Node11&#45;&gt;Node9</title>
<path fill="none" stroke="midnightblue" d="M539.05,-112.44C479.88,-101.43 378.56,-82.56 327.07,-72.97"/>
<polygon fill="midnightblue" stroke="midnightblue" points="327.64,-69.52 317.17,-71.13 326.36,-76.4 327.64,-69.52"/>
</g>
<!-- Node12 -->
<g id="node12" class="node">
<title>Node12</title>
<g id="a_node12"><a xlink:title=" ">
<polygon fill="white" stroke="#bfbfbf" points="597.5,-56.5 597.5,-75.5 646.5,-75.5 646.5,-56.5 597.5,-56.5"/>
<text text-anchor="middle" x="622" y="-63.5" font-family="Helvetica,sans-Serif" font-size="10.00">cstdlib</text>
</a>
</g>
</g>
<!-- Node11&#45;&gt;Node12 -->
<g id="edge11" class="edge">
<title>Node11&#45;&gt;Node12</title>
<path fill="none" stroke="midnightblue" d="M591.11,-112.08C596.28,-104.53 603.85,-93.49 610.19,-84.23"/>
<polygon fill="midnightblue" stroke="midnightblue" points="613.24,-85.98 616,-75.75 607.46,-82.02 613.24,-85.98"/>
</g>
<!-- Node13 -->
<g id="node13" class="node">
<title>Node13</title>
<g id="a_node13"><a xlink:title=" ">
<polygon fill="white" stroke="#bfbfbf" points="519,-56.5 519,-75.5 579,-75.5 579,-56.5 519,-56.5"/>
<text text-anchor="middle" x="549" y="-63.5" font-family="Helvetica,sans-Serif" font-size="10.00">iostream</text>
</a>
</g>
</g>
<!-- Node11&#45;&gt;Node13 -->
<g id="edge12" class="edge">
<title>Node11&#45;&gt;Node13</title>
<path fill="none" stroke="midnightblue" d="M579.06,-112.08C574.02,-104.53 566.66,-93.49 560.49,-84.23"/>
<polygon fill="midnightblue" stroke="midnightblue" points="563.29,-82.13 554.83,-75.75 557.47,-86.01 563.29,-82.13"/>
</g>
<!-- Node11&#45;&gt;Node14 -->
<g id="edge14" class="edge">
<title>Node11&#45;&gt;Node14</title>
<path fill="none" stroke="midnightblue" d="M646.05,-114.46C747.36,-103.6 948.22,-82.08 1040.54,-72.19"/>
<polygon fill="midnightblue" stroke="midnightblue" points="1041.14,-75.65 1050.71,-71.1 1040.4,-68.69 1041.14,-75.65"/>
</g>
<!-- Node11&#45;&gt;Node16 -->
<g id="edge16" class="edge">
<title>Node11&#45;&gt;Node16</title>
<path fill="none" stroke="midnightblue" d="M558.54,-112.44C530.32,-103.32 485.46,-88.81 454.03,-78.65"/>
<polygon fill="midnightblue" stroke="midnightblue" points="454.93,-75.26 444.34,-75.52 452.78,-81.92 454.93,-75.26"/>
</g>
<!-- Node15 -->
<g id="node15" class="node">
<title>Node15</title>
<g id="a_node15"><a xlink:title=" ">
<polygon fill="white" stroke="#bfbfbf" points="1062.5,-0.5 1062.5,-19.5 1115.5,-19.5 1115.5,-0.5 1062.5,-0.5"/>
<text text-anchor="middle" x="1089" y="-7.5" font-family="Helvetica,sans-Serif" font-size="10.00">cstddef</text>
</a>
</g>
</g>
<!-- Node14&#45;&gt;Node15 -->
<g id="edge15" class="edge">
<title>Node14&#45;&gt;Node15</title>
<path fill="none" stroke="midnightblue" d="M1089,-56.08C1089,-49.01 1089,-38.86 1089,-29.99"/>
<polygon fill="midnightblue" stroke="midnightblue" points="1092.5,-29.75 1089,-19.75 1085.5,-29.75 1092.5,-29.75"/>
</g>
<!-- Node17&#45;&gt;Node11 -->
<g id="edge18" class="edge">
<title>Node17&#45;&gt;Node11</title>
<path fill="none" stroke="midnightblue" d="M661.38,-168.32C647.05,-159.82 624.99,-146.73 608.25,-136.8"/>
<polygon fill="midnightblue" stroke="midnightblue" points="609.97,-133.75 599.58,-131.65 606.4,-139.77 609.97,-133.75"/>
</g>
<!-- Node18&#45;&gt;Node9 -->
<g id="edge21" class="edge">
<title>Node18&#45;&gt;Node9</title>
<path fill="none" stroke="midnightblue" d="M306.98,-168.37C304.88,-150.62 300.04,-109.67 297.2,-85.6"/>
<polygon fill="midnightblue" stroke="midnightblue" points="300.66,-85.11 296.02,-75.59 293.71,-85.93 300.66,-85.11"/>
</g>
<!-- Node18&#45;&gt;Node11 -->
<g id="edge22" class="edge">
<title>Node18&#45;&gt;Node11</title>
<path fill="none" stroke="midnightblue" d="M351.89,-168.44C400.52,-158.96 478.95,-143.67 531.22,-133.48"/>
<polygon fill="midnightblue" stroke="midnightblue" points="532.17,-136.87 541.31,-131.52 530.83,-129.99 532.17,-136.87"/>
</g>
<!-- Node19 -->
<g id="node19" class="node">
<title>Node19</title>
<g id="a_node19"><a xlink:title=" ">
<polygon fill="white" stroke="#bfbfbf" points="323,-112.5 323,-131.5 371,-131.5 371,-112.5 323,-112.5"/>
<text text-anchor="middle" x="347" y="-119.5" font-family="Helvetica,sans-Serif" font-size="10.00">mutex</text>
</a>
</g>
</g>
<!-- Node18&#45;&gt;Node19 -->
<g id="edge20" class="edge">
<title>Node18&#45;&gt;Node19</title>
<path fill="none" stroke="midnightblue" d="M314.44,-168.08C319.95,-160.46 328.03,-149.26 334.76,-139.94"/>
<polygon fill="midnightblue" stroke="midnightblue" points="337.66,-141.91 340.68,-131.75 331.99,-137.81 337.66,-141.91"/>
</g>
<!-- Node20&#45;&gt;Node11 -->
<g id="edge24" class="edge">
<title>Node20&#45;&gt;Node11</title>
<path fill="none" stroke="midnightblue" d="M782.76,-168.44C741.94,-159.06 676.36,-143.99 632.02,-133.8"/>
<polygon fill="midnightblue" stroke="midnightblue" points="632.59,-130.34 622.06,-131.52 631.02,-137.17 632.59,-130.34"/>
</g>
<!-- Node21&#45;&gt;Node11 -->
<g id="edge26" class="edge">
<title>Node21&#45;&gt;Node11</title>
<path fill="none" stroke="midnightblue" d="M918.25,-168.44C847.02,-158.73 731.04,-142.91 656.4,-132.74"/>
<polygon fill="midnightblue" stroke="midnightblue" points="656.53,-129.22 646.15,-131.34 655.59,-136.16 656.53,-129.22"/>
</g>
<!-- Node22&#45;&gt;Node11 -->
<g id="edge28" class="edge">
<title>Node22&#45;&gt;Node11</title>
<path fill="none" stroke="midnightblue" d="M496.03,-168.32C513.03,-159.66 539.38,-146.24 558.99,-136.25"/>
<polygon fill="midnightblue" stroke="midnightblue" points="560.69,-139.31 568.01,-131.65 557.51,-133.08 560.69,-139.31"/>
</g>
</g>
</svg>
