<?xml version="1.0" encoding="UTF-8" standalone="no"?>
<!DOCTYPE svg PUBLIC "-//W3C//DTD SVG 1.1//EN"
 "http://www.w3.org/Graphics/SVG/1.1/DTD/svg11.dtd">
<!-- Generated by graphviz version 2.43.0 (0)
 -->
<!-- Title: /home/projectcs&#45;2022/argodsmBuffer/argodsmPrefetching/src/mempools/global_mempool.hpp Pages: 1 -->
<svg width="1327pt" height="520pt"
 viewBox="0.00 0.00 1326.99 520.00" xmlns="http://www.w3.org/2000/svg" xmlns:xlink="http://www.w3.org/1999/xlink">
<g id="graph0" class="graph" transform="scale(1 1) rotate(0) translate(4 516)">
<title>/home/projectcs&#45;2022/argodsmBuffer/argodsmPrefetching/src/mempools/global_mempool.hpp</title>
<polygon fill="white" stroke="transparent" points="-4,4 -4,-516 1322.99,-516 1322.99,4 -4,4"/>
<!-- Node1 -->
<g id="node1" class="node">
<title>Node1</title>
<g id="a_node1"><a xlink:title="This file provides a dynamically growing memory pool for ArgoDSM.">
<polygon fill="#bfbfbf" stroke="black" points="148.5,-470.5 148.5,-511.5 342.5,-511.5 342.5,-470.5 148.5,-470.5"/>
<text text-anchor="start" x="156.5" y="-499.5" font-family="Helvetica,sans-Serif" font-size="10.00">/home/projectcs&#45;2022</text>
<text text-anchor="start" x="156.5" y="-488.5" font-family="Helvetica,sans-Serif" font-size="10.00">/argodsmBuffer/argodsmPrefetching</text>
<text text-anchor="middle" x="245.5" y="-477.5" font-family="Helvetica,sans-Serif" font-size="10.00">/src/mempools/global_mempool.hpp</text>
</a>
</g>
</g>
<!-- Node2 -->
<g id="node2" class="node">
<title>Node2</title>
<g id="a_node2"><a xlink:title=" ">
<polygon fill="white" stroke="#bfbfbf" points="0,-409 0,-428 53,-428 53,-409 0,-409"/>
<text text-anchor="middle" x="26.5" y="-416" font-family="Helvetica,sans-Serif" font-size="10.00">stdlib.h</text>
</a>
</g>
</g>
<!-- Node1&#45;&gt;Node2 -->
<g id="edge1" class="edge">
<title>Node1&#45;&gt;Node2</title>
<path fill="none" stroke="midnightblue" d="M175.51,-470.44C140.94,-460.34 98.75,-447.35 61.5,-434 59.64,-433.33 57.74,-432.63 55.83,-431.89"/>
<polygon fill="midnightblue" stroke="midnightblue" points="56.94,-428.57 46.36,-428.12 54.35,-435.07 56.94,-428.57"/>
</g>
<!-- Node3 -->
<g id="node3" class="node">
<title>Node3</title>
<g id="a_node3"><a xlink:title=" ">
<polygon fill="white" stroke="#bfbfbf" points="71,-409 71,-428 148,-428 148,-409 71,-409"/>
<text text-anchor="middle" x="109.5" y="-416" font-family="Helvetica,sans-Serif" font-size="10.00">sys/mman.h</text>
</a>
</g>
</g>
<!-- Node1&#45;&gt;Node3 -->
<g id="edge2" class="edge">
<title>Node1&#45;&gt;Node3</title>
<path fill="none" stroke="midnightblue" d="M207.62,-470.36C184.55,-458.4 155.68,-443.44 135.25,-432.85"/>
<polygon fill="midnightblue" stroke="midnightblue" points="136.72,-429.67 126.23,-428.17 133.5,-435.88 136.72,-429.67"/>
</g>
<!-- Node4 -->
<g id="node4" class="node">
<title>Node4</title>
<g id="a_node4"><a xlink:title=" ">
<polygon fill="white" stroke="#bfbfbf" points="194.5,-56.5 194.5,-75.5 254.5,-75.5 254.5,-56.5 194.5,-56.5"/>
<text text-anchor="middle" x="224.5" y="-63.5" font-family="Helvetica,sans-Serif" font-size="10.00">iostream</text>
</a>
</g>
</g>
<!-- Node1&#45;&gt;Node4 -->
<g id="edge3" class="edge">
<title>Node1&#45;&gt;Node4</title>
<path fill="none" stroke="midnightblue" d="M227.37,-470.2C206.93,-445.74 176.5,-401.96 176.5,-358 176.5,-358 176.5,-358 176.5,-177 176.5,-141.58 197.66,-104.71 211.88,-83.92"/>
<polygon fill="midnightblue" stroke="midnightblue" points="214.88,-85.74 217.83,-75.56 209.18,-81.68 214.88,-85.74"/>
</g>
<!-- Node5 -->
<g id="node5" class="node">
<title>Node5</title>
<g id="a_node5"><a xlink:title=" ">
<polygon fill="white" stroke="#bfbfbf" points="216.5,-409 216.5,-428 274.5,-428 274.5,-409 216.5,-409"/>
<text text-anchor="middle" x="245.5" y="-416" font-family="Helvetica,sans-Serif" font-size="10.00">memory</text>
</a>
</g>
</g>
<!-- Node1&#45;&gt;Node5 -->
<g id="edge4" class="edge">
<title>Node1&#45;&gt;Node5</title>
<path fill="none" stroke="midnightblue" d="M245.5,-470.36C245.5,-460.3 245.5,-448.1 245.5,-438.18"/>
<polygon fill="midnightblue" stroke="midnightblue" points="249,-438.17 245.5,-428.17 242,-438.17 249,-438.17"/>
</g>
<!-- Node6 -->
<g id="node6" class="node">
<title>Node6</title>
<g id="a_node6"><a xlink:href="backend_8hpp.html" target="_top" xlink:title="This file provides the backend interface.">
<polygon fill="white" stroke="black" points="280.5,-347.5 280.5,-366.5 402.5,-366.5 402.5,-347.5 280.5,-347.5"/>
<text text-anchor="middle" x="341.5" y="-354.5" font-family="Helvetica,sans-Serif" font-size="10.00">backend/backend.hpp</text>
</a>
</g>
</g>
<!-- Node1&#45;&gt;Node6 -->
<g id="edge5" class="edge">
<title>Node1&#45;&gt;Node6</title>
<path fill="none" stroke="midnightblue" d="M259.87,-470.24C278.7,-444.35 311.41,-399.37 329.17,-374.96"/>
<polygon fill="midnightblue" stroke="midnightblue" points="332.13,-376.83 335.18,-366.69 326.47,-372.71 332.13,-376.83"/>
</g>
<!-- Node10 -->
<g id="node10" class="node">
<title>Node10</title>
<g id="a_node10"><a xlink:href="global__ptr_8hpp.html" target="_top" xlink:title="This file provides the global pointer for ArgoDSM.">
<polygon fill="white" stroke="black" points="464.5,-280.5 464.5,-310.5 596.5,-310.5 596.5,-280.5 464.5,-280.5"/>
<text text-anchor="start" x="472.5" y="-298.5" font-family="Helvetica,sans-Serif" font-size="10.00">data_distribution/global</text>
<text text-anchor="middle" x="530.5" y="-287.5" font-family="Helvetica,sans-Serif" font-size="10.00">_ptr.hpp</text>
</a>
</g>
</g>
<!-- Node1&#45;&gt;Node10 -->
<g id="edge34" class="edge">
<title>Node1&#45;&gt;Node10</title>
<path fill="none" stroke="midnightblue" d="M274.4,-470.38C328.95,-433.34 446.56,-353.49 501.33,-316.3"/>
<polygon fill="midnightblue" stroke="midnightblue" points="503.56,-319.02 509.87,-310.51 499.63,-313.23 503.56,-319.02"/>
</g>
<!-- Node24 -->
<g id="node24" class="node">
<title>Node24</title>
<g id="a_node24"><a xlink:href="global__tas__lock_8hpp.html" target="_top" xlink:title="This file provides a tas lock for the ArgoDSM system based on the TAS lock made by David Klaftenegger...">
<polygon fill="white" stroke="black" points="459,-403.5 459,-433.5 586,-433.5 586,-403.5 459,-403.5"/>
<text text-anchor="start" x="467" y="-421.5" font-family="Helvetica,sans-Serif" font-size="10.00">synchronization/global</text>
<text text-anchor="middle" x="522.5" y="-410.5" font-family="Helvetica,sans-Serif" font-size="10.00">_tas_lock.hpp</text>
</a>
</g>
</g>
<!-- Node1&#45;&gt;Node24 -->
<g id="edge35" class="edge">
<title>Node1&#45;&gt;Node24</title>
<path fill="none" stroke="midnightblue" d="M322.29,-470.46C364.74,-459.65 416.92,-446.37 457.36,-436.08"/>
<polygon fill="midnightblue" stroke="midnightblue" points="458.28,-439.46 467.11,-433.6 456.56,-432.67 458.28,-439.46"/>
</g>
<!-- Node7 -->
<g id="node7" class="node">
<title>Node7</title>
<g id="a_node7"><a xlink:title=" ">
<polygon fill="white" stroke="#bfbfbf" points="288.5,-286 288.5,-305 340.5,-305 340.5,-286 288.5,-286"/>
<text text-anchor="middle" x="314.5" y="-293" font-family="Helvetica,sans-Serif" font-size="10.00">cassert</text>
</a>
</g>
</g>
<!-- Node6&#45;&gt;Node7 -->
<g id="edge6" class="edge">
<title>Node6&#45;&gt;Node7</title>
<path fill="none" stroke="midnightblue" d="M337.63,-347.48C333.7,-338.82 327.5,-325.15 322.51,-314.15"/>
<polygon fill="midnightblue" stroke="midnightblue" points="325.68,-312.67 318.36,-305.01 319.31,-315.56 325.68,-312.67"/>
</g>
<!-- Node8 -->
<g id="node8" class="node">
<title>Node8</title>
<g id="a_node8"><a xlink:title=" ">
<polygon fill="white" stroke="#bfbfbf" points="396.5,-286 396.5,-305 446.5,-305 446.5,-286 396.5,-286"/>
<text text-anchor="middle" x="421.5" y="-293" font-family="Helvetica,sans-Serif" font-size="10.00">cstdint</text>
</a>
</g>
</g>
<!-- Node6&#45;&gt;Node8 -->
<g id="edge7" class="edge">
<title>Node6&#45;&gt;Node8</title>
<path fill="none" stroke="midnightblue" d="M352.96,-347.48C365.67,-338.02 386.41,-322.6 401.75,-311.19"/>
<polygon fill="midnightblue" stroke="midnightblue" points="404.12,-313.79 410.06,-305.01 399.95,-308.17 404.12,-313.79"/>
</g>
<!-- Node9 -->
<g id="node9" class="node">
<title>Node9</title>
<g id="a_node9"><a xlink:title=" ">
<polygon fill="white" stroke="#bfbfbf" points="205,-286 205,-305 270,-305 270,-286 205,-286"/>
<text text-anchor="middle" x="237.5" y="-293" font-family="Helvetica,sans-Serif" font-size="10.00">stdexcept</text>
</a>
</g>
</g>
<!-- Node6&#45;&gt;Node9 -->
<g id="edge8" class="edge">
<title>Node6&#45;&gt;Node9</title>
<path fill="none" stroke="midnightblue" d="M326.6,-347.48C309.53,-337.71 281.34,-321.58 261.24,-310.08"/>
<polygon fill="midnightblue" stroke="midnightblue" points="262.79,-306.94 252.37,-305.01 259.31,-313.01 262.79,-306.94"/>
</g>
<!-- Node6&#45;&gt;Node10 -->
<g id="edge9" class="edge">
<title>Node6&#45;&gt;Node10</title>
<path fill="none" stroke="midnightblue" d="M368.58,-347.48C396.57,-338.66 441.02,-324.67 476.28,-313.57"/>
<polygon fill="midnightblue" stroke="midnightblue" points="477.47,-316.86 485.96,-310.52 475.37,-310.19 477.47,-316.86"/>
</g>
<!-- Node17 -->
<g id="node17" class="node">
<title>Node17</title>
<g id="a_node17"><a xlink:href="types_8hpp.html" target="_top" xlink:title="This file defines common types used in ArgoDSM.">
<polygon fill="white" stroke="black" points="321,-56.5 321,-75.5 416,-75.5 416,-56.5 321,-56.5"/>
<text text-anchor="middle" x="368.5" y="-63.5" font-family="Helvetica,sans-Serif" font-size="10.00">types/types.hpp</text>
</a>
</g>
</g>
<!-- Node6&#45;&gt;Node17 -->
<g id="edge33" class="edge">
<title>Node6&#45;&gt;Node17</title>
<path fill="none" stroke="midnightblue" d="M344.81,-347.34C352.02,-327.69 368.5,-278.05 368.5,-235 368.5,-235 368.5,-235 368.5,-177 368.5,-144.95 368.5,-107.64 368.5,-85.75"/>
<polygon fill="midnightblue" stroke="midnightblue" points="372,-85.56 368.5,-75.56 365,-85.56 372,-85.56"/>
</g>
<!-- Node11 -->
<g id="node11" class="node">
<title>Node11</title>
<g id="a_node11"><a xlink:title=" ">
<polygon fill="white" stroke="#bfbfbf" points="1229.5,-56.5 1229.5,-75.5 1273.5,-75.5 1273.5,-56.5 1229.5,-56.5"/>
<text text-anchor="middle" x="1251.5" y="-63.5" font-family="Helvetica,sans-Serif" font-size="10.00">string</text>
</a>
</g>
</g>
<!-- Node10&#45;&gt;Node11 -->
<g id="edge10" class="edge">
<title>Node10&#45;&gt;Node11</title>
<path fill="none" stroke="midnightblue" d="M596.82,-290.36C776.57,-278.45 1262.78,-241.55 1309.5,-188 1337.82,-155.55 1294.99,-106.86 1269,-82.32"/>
<polygon fill="midnightblue" stroke="midnightblue" points="1271.31,-79.69 1261.57,-75.52 1266.59,-84.85 1271.31,-79.69"/>
</g>
<!-- Node12 -->
<g id="node12" class="node">
<title>Node12</title>
<g id="a_node12"><a xlink:href="data__distribution_8hpp.html" target="_top" xlink:title="This file provides an abstraction layer for distributing the shared memory space.">
<polygon fill="white" stroke="black" points="724.5,-224.5 724.5,-243.5 844.5,-243.5 844.5,-224.5 724.5,-224.5"/>
<text text-anchor="middle" x="784.5" y="-231.5" font-family="Helvetica,sans-Serif" font-size="10.00">data_distribution.hpp</text>
</a>
</g>
</g>
<!-- Node10&#45;&gt;Node12 -->
<g id="edge11" class="edge">
<title>Node10&#45;&gt;Node12</title>
<path fill="none" stroke="midnightblue" d="M590.37,-280.47C635.63,-269.87 696.84,-255.53 738.34,-245.81"/>
<polygon fill="midnightblue" stroke="midnightblue" points="739.25,-249.19 748.19,-243.51 737.65,-242.38 739.25,-249.19"/>
</g>
<!-- Node15 -->
<g id="node15" class="node">
<title>Node15</title>
<g id="a_node15"><a xlink:href="env_8hpp.html" target="_top" xlink:title="This file provides facilities for handling environment variables.">
<polygon fill="white" stroke="black" points="434.5,-56.5 434.5,-75.5 510.5,-75.5 510.5,-56.5 434.5,-56.5"/>
<text text-anchor="middle" x="472.5" y="-63.5" font-family="Helvetica,sans-Serif" font-size="10.00">env/env.hpp</text>
</a>
</g>
</g>
<!-- Node10&#45;&gt;Node15 -->
<g id="edge32" class="edge">
<title>Node10&#45;&gt;Node15</title>
<path fill="none" stroke="midnightblue" d="M515.26,-280.4C496.05,-261.5 463.92,-225.93 450.5,-188 439.23,-156.14 440.3,-144.78 448.5,-112 450.94,-102.25 455.94,-92.29 460.74,-84.23"/>
<polygon fill="midnightblue" stroke="midnightblue" points="463.71,-86.08 466.13,-75.77 457.81,-82.32 463.71,-86.08"/>
</g>
<!-- Node13 -->
<g id="node13" class="node">
<title>Node13</title>
<g id="a_node13"><a xlink:href="base__distribution_8hpp.html" target="_top" xlink:title="This file implements the base distribution class for all the policies to derive from.">
<polygon fill="white" stroke="black" points="723.5,-112.5 723.5,-131.5 845.5,-131.5 845.5,-112.5 723.5,-112.5"/>
<text text-anchor="middle" x="784.5" y="-119.5" font-family="Helvetica,sans-Serif" font-size="10.00">base_distribution.hpp</text>
</a>
</g>
</g>
<!-- Node12&#45;&gt;Node13 -->
<g id="edge12" class="edge">
<title>Node12&#45;&gt;Node13</title>
<path fill="none" stroke="midnightblue" d="M844.52,-225.45C889.39,-218.44 945.32,-206.28 959.5,-188 990.87,-147.54 916.9,-132.27 855.65,-126.5"/>
<polygon fill="midnightblue" stroke="midnightblue" points="855.82,-123 845.56,-125.62 855.21,-129.97 855.82,-123"/>
</g>
<!-- Node12&#45;&gt;Node15 -->
<g id="edge31" class="edge">
<title>Node12&#45;&gt;Node15</title>
<path fill="none" stroke="midnightblue" d="M724.35,-233.52C641.17,-232.82 497.49,-225.95 464.5,-188 439.62,-159.37 453.72,-111.1 464.26,-85.02"/>
<polygon fill="midnightblue" stroke="midnightblue" points="467.57,-86.18 468.3,-75.62 461.14,-83.42 467.57,-86.18"/>
</g>
<!-- Node18 -->
<g id="node18" class="node">
<title>Node18</title>
<g id="a_node18"><a xlink:href="cyclic__distribution_8hpp.html" target="_top" xlink:title="This file implements the cyclic data distribution.">
<polygon fill="white" stroke="black" points="1006.5,-168.5 1006.5,-187.5 1132.5,-187.5 1132.5,-168.5 1006.5,-168.5"/>
<text text-anchor="middle" x="1069.5" y="-175.5" font-family="Helvetica,sans-Serif" font-size="10.00">cyclic_distribution.hpp</text>
</a>
</g>
</g>
<!-- Node12&#45;&gt;Node18 -->
<g id="edge19" class="edge">
<title>Node12&#45;&gt;Node18</title>
<path fill="none" stroke="midnightblue" d="M829.66,-224.44C879.79,-214.94 960.72,-199.61 1014.51,-189.42"/>
<polygon fill="midnightblue" stroke="midnightblue" points="1015.38,-192.82 1024.55,-187.52 1014.08,-185.94 1015.38,-192.82"/>
</g>
<!-- Node19 -->
<g id="node19" class="node">
<title>Node19</title>
<g id="a_node19"><a xlink:href="first__touch__distribution_8hpp.html" target="_top" xlink:title="This file implements the first&#45;touch data distribution.">
<polygon fill="white" stroke="black" points="1151,-168.5 1151,-187.5 1300,-187.5 1300,-168.5 1151,-168.5"/>
<text text-anchor="middle" x="1225.5" y="-175.5" font-family="Helvetica,sans-Serif" font-size="10.00">first_touch_distribution.hpp</text>
</a>
</g>
</g>
<!-- Node12&#45;&gt;Node19 -->
<g id="edge21" class="edge">
<title>Node12&#45;&gt;Node19</title>
<path fill="none" stroke="midnightblue" d="M844.89,-225.6C923.07,-216.03 1059.48,-199.33 1146.01,-188.73"/>
<polygon fill="midnightblue" stroke="midnightblue" points="1146.54,-192.19 1156.04,-187.51 1145.69,-185.25 1146.54,-192.19"/>
</g>
<!-- Node21 -->
<g id="node21" class="node">
<title>Node21</title>
<g id="a_node21"><a xlink:href="naive__distribution_8hpp.html" target="_top" xlink:title="This file implements the naive data distribution.">
<polygon fill="white" stroke="black" points="473,-168.5 473,-187.5 598,-187.5 598,-168.5 473,-168.5"/>
<text text-anchor="middle" x="535.5" y="-175.5" font-family="Helvetica,sans-Serif" font-size="10.00">naive_distribution.hpp</text>
</a>
</g>
</g>
<!-- Node12&#45;&gt;Node21 -->
<g id="edge25" class="edge">
<title>Node12&#45;&gt;Node21</title>
<path fill="none" stroke="midnightblue" d="M745.05,-224.44C701.61,-215.02 631.71,-199.87 584.72,-189.68"/>
<polygon fill="midnightblue" stroke="midnightblue" points="585.28,-186.22 574.77,-187.52 583.8,-193.06 585.28,-186.22"/>
</g>
<!-- Node22 -->
<g id="node22" class="node">
<title>Node22</title>
<g id="a_node22"><a xlink:href="prime__mapp__distribution_8hpp.html" target="_top" xlink:title="This file implements the prime&#45;mapp data distribution.">
<polygon fill="white" stroke="black" points="616.5,-168.5 616.5,-187.5 776.5,-187.5 776.5,-168.5 616.5,-168.5"/>
<text text-anchor="middle" x="696.5" y="-175.5" font-family="Helvetica,sans-Serif" font-size="10.00">prime_mapp_distribution.hpp</text>
</a>
</g>
</g>
<!-- Node12&#45;&gt;Node22 -->
<g id="edge27" class="edge">
<title>Node12&#45;&gt;Node22</title>
<path fill="none" stroke="midnightblue" d="M770.36,-224.32C756.63,-215.9 735.56,-202.97 719.44,-193.07"/>
<polygon fill="midnightblue" stroke="midnightblue" points="720.96,-189.9 710.6,-187.65 717.3,-195.87 720.96,-189.9"/>
</g>
<!-- Node23 -->
<g id="node23" class="node">
<title>Node23</title>
<g id="a_node23"><a xlink:href="skew__mapp__distribution_8hpp.html" target="_top" xlink:title="This file implements the skew&#45;mapp data distribution.">
<polygon fill="white" stroke="black" points="794.5,-168.5 794.5,-187.5 950.5,-187.5 950.5,-168.5 794.5,-168.5"/>
<text text-anchor="middle" x="872.5" y="-175.5" font-family="Helvetica,sans-Serif" font-size="10.00">skew_mapp_distribution.hpp</text>
</a>
</g>
</g>
<!-- Node12&#45;&gt;Node23 -->
<g id="edge29" class="edge">
<title>Node12&#45;&gt;Node23</title>
<path fill="none" stroke="midnightblue" d="M798.64,-224.32C812.37,-215.9 833.44,-202.97 849.56,-193.07"/>
<polygon fill="midnightblue" stroke="midnightblue" points="851.7,-195.87 858.4,-187.65 848.04,-189.9 851.7,-195.87"/>
</g>
<!-- Node13&#45;&gt;Node4 -->
<g id="edge14" class="edge">
<title>Node13&#45;&gt;Node4</title>
<path fill="none" stroke="midnightblue" d="M723.26,-115.34C633.07,-106.96 459.25,-90.67 311.5,-76 296.3,-74.49 279.61,-72.78 264.96,-71.25"/>
<polygon fill="midnightblue" stroke="midnightblue" points="265,-67.74 254.69,-70.18 264.27,-74.7 265,-67.74"/>
</g>
<!-- Node13&#45;&gt;Node11 -->
<g id="edge15" class="edge">
<title>Node13&#45;&gt;Node11</title>
<path fill="none" stroke="midnightblue" d="M845.55,-113.94C945.91,-102.34 1142.29,-79.63 1219.36,-70.72"/>
<polygon fill="midnightblue" stroke="midnightblue" points="1219.89,-74.18 1229.42,-69.55 1219.09,-67.22 1219.89,-74.18"/>
</g>
<!-- Node14 -->
<g id="node14" class="node">
<title>Node14</title>
<g id="a_node14"><a xlink:title=" ">
<polygon fill="white" stroke="#bfbfbf" points="760,-56.5 760,-75.5 809,-75.5 809,-56.5 760,-56.5"/>
<text text-anchor="middle" x="784.5" y="-63.5" font-family="Helvetica,sans-Serif" font-size="10.00">cstdlib</text>
</a>
</g>
</g>
<!-- Node13&#45;&gt;Node14 -->
<g id="edge13" class="edge">
<title>Node13&#45;&gt;Node14</title>
<path fill="none" stroke="midnightblue" d="M784.5,-112.08C784.5,-105.01 784.5,-94.86 784.5,-85.99"/>
<polygon fill="midnightblue" stroke="midnightblue" points="788,-85.75 784.5,-75.75 781,-85.75 788,-85.75"/>
</g>
<!-- Node13&#45;&gt;Node15 -->
<g id="edge16" class="edge">
<title>Node13&#45;&gt;Node15</title>
<path fill="none" stroke="midnightblue" d="M735.06,-112.44C676.38,-102.29 579.18,-85.46 520.94,-75.38"/>
<polygon fill="midnightblue" stroke="midnightblue" points="521.34,-71.9 510.89,-73.64 520.14,-78.8 521.34,-71.9"/>
</g>
<!-- Node13&#45;&gt;Node17 -->
<g id="edge18" class="edge">
<title>Node13&#45;&gt;Node17</title>
<path fill="none" stroke="midnightblue" d="M723.44,-113.95C654.04,-105.8 537.09,-91.65 426.1,-76.04"/>
<polygon fill="midnightblue" stroke="midnightblue" points="426.46,-72.56 416.07,-74.63 425.48,-79.49 426.46,-72.56"/>
</g>
<!-- Node16 -->
<g id="node16" class="node">
<title>Node16</title>
<g id="a_node16"><a xlink:title=" ">
<polygon fill="white" stroke="#bfbfbf" points="446,-0.5 446,-19.5 499,-19.5 499,-0.5 446,-0.5"/>
<text text-anchor="middle" x="472.5" y="-7.5" font-family="Helvetica,sans-Serif" font-size="10.00">cstddef</text>
</a>
</g>
</g>
<!-- Node15&#45;&gt;Node16 -->
<g id="edge17" class="edge">
<title>Node15&#45;&gt;Node16</title>
<path fill="none" stroke="midnightblue" d="M472.5,-56.08C472.5,-49.01 472.5,-38.86 472.5,-29.99"/>
<polygon fill="midnightblue" stroke="midnightblue" points="476,-29.75 472.5,-19.75 469,-29.75 476,-29.75"/>
</g>
<!-- Node18&#45;&gt;Node13 -->
<g id="edge20" class="edge">
<title>Node18&#45;&gt;Node13</title>
<path fill="none" stroke="midnightblue" d="M1024.34,-168.44C974.21,-158.94 893.28,-143.61 839.49,-133.42"/>
<polygon fill="midnightblue" stroke="midnightblue" points="839.92,-129.94 829.45,-131.52 838.62,-136.82 839.92,-129.94"/>
</g>
<!-- Node19&#45;&gt;Node11 -->
<g id="edge23" class="edge">
<title>Node19&#45;&gt;Node11</title>
<path fill="none" stroke="midnightblue" d="M1227.54,-168.37C1231.74,-150.62 1241.42,-109.67 1247.1,-85.6"/>
<polygon fill="midnightblue" stroke="midnightblue" points="1250.58,-86.13 1249.47,-75.59 1243.76,-84.52 1250.58,-86.13"/>
</g>
<!-- Node19&#45;&gt;Node13 -->
<g id="edge24" class="edge">
<title>Node19&#45;&gt;Node13</title>
<path fill="none" stroke="midnightblue" d="M1155.62,-168.44C1073.55,-158.39 938.16,-141.82 855.58,-131.7"/>
<polygon fill="midnightblue" stroke="midnightblue" points="855.88,-128.21 845.53,-130.47 855.03,-135.16 855.88,-128.21"/>
</g>
<!-- Node20 -->
<g id="node20" class="node">
<title>Node20</title>
<g id="a_node20"><a xlink:title=" ">
<polygon fill="white" stroke="#bfbfbf" points="1175.5,-112.5 1175.5,-131.5 1223.5,-131.5 1223.5,-112.5 1175.5,-112.5"/>
<text text-anchor="middle" x="1199.5" y="-119.5" font-family="Helvetica,sans-Serif" font-size="10.00">mutex</text>
</a>
</g>
</g>
<!-- Node19&#45;&gt;Node20 -->
<g id="edge22" class="edge">
<title>Node19&#45;&gt;Node20</title>
<path fill="none" stroke="midnightblue" d="M1221.21,-168.08C1217.65,-160.69 1212.48,-149.95 1208.08,-140.81"/>
<polygon fill="midnightblue" stroke="midnightblue" points="1211.21,-139.24 1203.71,-131.75 1204.9,-142.28 1211.21,-139.24"/>
</g>
<!-- Node21&#45;&gt;Node13 -->
<g id="edge26" class="edge">
<title>Node21&#45;&gt;Node13</title>
<path fill="none" stroke="midnightblue" d="M574.95,-168.44C618.39,-159.02 688.29,-143.87 735.28,-133.68"/>
<polygon fill="midnightblue" stroke="midnightblue" points="736.2,-137.06 745.23,-131.52 734.72,-130.22 736.2,-137.06"/>
</g>
<!-- Node22&#45;&gt;Node13 -->
<g id="edge28" class="edge">
<title>Node22&#45;&gt;Node13</title>
<path fill="none" stroke="midnightblue" d="M710.64,-168.32C724.37,-159.9 745.44,-146.97 761.56,-137.07"/>
<polygon fill="midnightblue" stroke="midnightblue" points="763.7,-139.87 770.4,-131.65 760.04,-133.9 763.7,-139.87"/>
</g>
<!-- Node23&#45;&gt;Node13 -->
<g id="edge30" class="edge">
<title>Node23&#45;&gt;Node13</title>
<path fill="none" stroke="midnightblue" d="M858.36,-168.32C844.63,-159.9 823.56,-146.97 807.44,-137.07"/>
<polygon fill="midnightblue" stroke="midnightblue" points="808.96,-133.9 798.6,-131.65 805.3,-139.87 808.96,-133.9"/>
</g>
<!-- Node24&#45;&gt;Node6 -->
<g id="edge38" class="edge">
<title>Node24&#45;&gt;Node6</title>
<path fill="none" stroke="midnightblue" d="M479.61,-403.4C448.47,-393.16 406.81,-379.47 377.42,-369.81"/>
<polygon fill="midnightblue" stroke="midnightblue" points="378.17,-366.37 367.57,-366.57 375.98,-373.02 378.17,-366.37"/>
</g>
<!-- Node24&#45;&gt;Node10 -->
<g id="edge39" class="edge">
<title>Node24&#45;&gt;Node10</title>
<path fill="none" stroke="midnightblue" d="M518.7,-403.41C515.37,-389.15 511.49,-366.48 514.5,-347 515.88,-338.08 518.55,-328.58 521.32,-320.26"/>
<polygon fill="midnightblue" stroke="midnightblue" points="524.63,-321.4 524.67,-310.8 518.03,-319.06 524.63,-321.4"/>
</g>
<!-- Node25 -->
<g id="node25" class="node">
<title>Node25</title>
<g id="a_node25"><a xlink:title=" ">
<polygon fill="white" stroke="#bfbfbf" points="523.5,-347.5 523.5,-366.5 573.5,-366.5 573.5,-347.5 523.5,-347.5"/>
<text text-anchor="middle" x="548.5" y="-354.5" font-family="Helvetica,sans-Serif" font-size="10.00">atomic</text>
</a>
</g>
</g>
<!-- Node24&#45;&gt;Node25 -->
<g id="edge36" class="edge">
<title>Node24&#45;&gt;Node25</title>
<path fill="none" stroke="midnightblue" d="M528.66,-403.4C532.24,-395.2 536.8,-384.78 540.64,-375.99"/>
<polygon fill="midnightblue" stroke="midnightblue" points="543.92,-377.22 544.72,-366.66 537.51,-374.42 543.92,-377.22"/>
</g>
<!-- Node26 -->
<g id="node26" class="node">
<title>Node26</title>
<g id="a_node26"><a xlink:title=" ">
<polygon fill="white" stroke="#bfbfbf" points="591.5,-347.5 591.5,-366.5 639.5,-366.5 639.5,-347.5 591.5,-347.5"/>
<text text-anchor="middle" x="615.5" y="-354.5" font-family="Helvetica,sans-Serif" font-size="10.00">thread</text>
</a>
</g>
</g>
<!-- Node24&#45;&gt;Node26 -->
<g id="edge37" class="edge">
<title>Node24&#45;&gt;Node26</title>
<path fill="none" stroke="midnightblue" d="M544.54,-403.4C559.31,-393.95 578.68,-381.56 593.45,-372.11"/>
<polygon fill="midnightblue" stroke="midnightblue" points="595.43,-375 601.97,-366.66 591.66,-369.1 595.43,-375"/>
</g>
</g>
</svg>
