<?xml version="1.0" encoding="UTF-8" standalone="no"?>
<!DOCTYPE svg PUBLIC "-//W3C//DTD SVG 1.1//EN"
 "http://www.w3.org/Graphics/SVG/1.1/DTD/svg11.dtd">
<!-- Generated by graphviz version 2.43.0 (0)
 -->
<!-- Title: /home/projectcs&#45;2022/argodsmBuffer/argodsmPrefetching/src/synchronization/global_tas_lock.hpp Pages: 1 -->
<svg width="2311pt" height="551pt"
 viewBox="0.00 0.00 2311.00 551.00" xmlns="http://www.w3.org/2000/svg" xmlns:xlink="http://www.w3.org/1999/xlink">
<g id="graph0" class="graph" transform="scale(1 1) rotate(0) translate(4 547)">
<title>/home/projectcs&#45;2022/argodsmBuffer/argodsmPrefetching/src/synchronization/global_tas_lock.hpp</title>
<polygon fill="white" stroke="transparent" points="-4,4 -4,-547 2307,-547 2307,4 -4,4"/>
<!-- Node1 -->
<g id="node1" class="node">
<title>Node1</title>
<g id="a_node1"><a xlink:title="This file provides a tas lock for the ArgoDSM system based on the TAS lock made by David Klaftenegger...">
<polygon fill="#bfbfbf" stroke="black" points="1576,-490.5 1576,-542.5 1769,-542.5 1769,-490.5 1576,-490.5"/>
<text text-anchor="start" x="1584" y="-530.5" font-family="Helvetica,sans-Serif" font-size="10.00">/home/projectcs&#45;2022</text>
<text text-anchor="start" x="1584" y="-519.5" font-family="Helvetica,sans-Serif" font-size="10.00">/argodsmBuffer/argodsmPrefetching</text>
<text text-anchor="start" x="1584" y="-508.5" font-family="Helvetica,sans-Serif" font-size="10.00">/src/synchronization/global</text>
<text text-anchor="middle" x="1672.5" y="-497.5" font-family="Helvetica,sans-Serif" font-size="10.00">_tas_lock.hpp</text>
</a>
</g>
</g>
<!-- Node2 -->
<g id="node2" class="node">
<title>Node2</title>
<g id="a_node2"><a xlink:href="singlenode_8cpp.html" target="_top" xlink:title="pseudo&#45;backend implemenation for a single node ArgoDSM system">
<polygon fill="white" stroke="black" points="1271.5,-412.5 1271.5,-453.5 1481.5,-453.5 1481.5,-412.5 1271.5,-412.5"/>
<text text-anchor="start" x="1279.5" y="-441.5" font-family="Helvetica,sans-Serif" font-size="10.00">/home/projectcs&#45;2022</text>
<text text-anchor="start" x="1279.5" y="-430.5" font-family="Helvetica,sans-Serif" font-size="10.00">/argodsmBuffer/argodsmPrefetching</text>
<text text-anchor="middle" x="1376.5" y="-419.5" font-family="Helvetica,sans-Serif" font-size="10.00">/src/backend/singlenode/singlenode.cpp</text>
</a>
</g>
</g>
<!-- Node1&#45;&gt;Node2 -->
<g id="edge1" class="edge">
<title>Node1&#45;&gt;Node2</title>
<path fill="none" stroke="midnightblue" d="M1571.95,-487.81C1531.03,-476.55 1484.69,-463.79 1447.41,-453.52"/>
<polygon fill="midnightblue" stroke="midnightblue" points="1571.11,-491.21 1581.68,-490.49 1572.97,-484.46 1571.11,-491.21"/>
</g>
<!-- Node3 -->
<g id="node3" class="node">
<title>Node3</title>
<g id="a_node3"><a xlink:href="global__mempool_8hpp.html" target="_top" xlink:title="This file provides a dynamically growing memory pool for ArgoDSM.">
<polygon fill="white" stroke="black" points="1499.5,-412.5 1499.5,-453.5 1693.5,-453.5 1693.5,-412.5 1499.5,-412.5"/>
<text text-anchor="start" x="1507.5" y="-441.5" font-family="Helvetica,sans-Serif" font-size="10.00">/home/projectcs&#45;2022</text>
<text text-anchor="start" x="1507.5" y="-430.5" font-family="Helvetica,sans-Serif" font-size="10.00">/argodsmBuffer/argodsmPrefetching</text>
<text text-anchor="middle" x="1596.5" y="-419.5" font-family="Helvetica,sans-Serif" font-size="10.00">/src/mempools/global_mempool.hpp</text>
</a>
</g>
</g>
<!-- Node1&#45;&gt;Node3 -->
<g id="edge2" class="edge">
<title>Node1&#45;&gt;Node3</title>
<path fill="none" stroke="midnightblue" d="M1641.98,-482.78C1632.77,-472.9 1622.95,-462.37 1614.8,-453.63"/>
<polygon fill="midnightblue" stroke="midnightblue" points="1639.49,-485.23 1648.87,-490.16 1644.61,-480.46 1639.49,-485.23"/>
</g>
<!-- Node13 -->
<g id="node13" class="node">
<title>Node13</title>
<g id="a_node13"><a xlink:href="lock_8cpp.html" target="_top" xlink:title="This file provides unit tests for the ArgoDSM locks.">
<polygon fill="white" stroke="black" points="2110,-0.5 2110,-41.5 2303,-41.5 2303,-0.5 2110,-0.5"/>
<text text-anchor="start" x="2118" y="-29.5" font-family="Helvetica,sans-Serif" font-size="10.00">/home/projectcs&#45;2022</text>
<text text-anchor="start" x="2118" y="-18.5" font-family="Helvetica,sans-Serif" font-size="10.00">/argodsmBuffer/argodsmPrefetching</text>
<text text-anchor="middle" x="2206.5" y="-7.5" font-family="Helvetica,sans-Serif" font-size="10.00">/tests/lock.cpp</text>
</a>
</g>
</g>
<!-- Node1&#45;&gt;Node13 -->
<g id="edge32" class="edge">
<title>Node1&#45;&gt;Node13</title>
<path fill="none" stroke="midnightblue" d="M1691.02,-481.15C1706.3,-449.57 1725.5,-400.95 1725.5,-356 1725.5,-356 1725.5,-356 1725.5,-192.5 1725.5,-12.5 1923.9,-71.29 2101.5,-42 2104.25,-41.55 2107.03,-41.08 2109.84,-40.6"/>
<polygon fill="midnightblue" stroke="midnightblue" points="1687.75,-479.88 1686.43,-490.39 1694.01,-482.99 1687.75,-479.88"/>
</g>
<!-- Node19 -->
<g id="node19" class="node">
<title>Node19</title>
<g id="a_node19"><a xlink:href="cohort__lock_8hpp.html" target="_top" xlink:title="This file provides a cohort lock for the ArgoDSM system.">
<polygon fill="white" stroke="black" points="1754,-167.5 1754,-219.5 1947,-219.5 1947,-167.5 1754,-167.5"/>
<text text-anchor="start" x="1762" y="-207.5" font-family="Helvetica,sans-Serif" font-size="10.00">/home/projectcs&#45;2022</text>
<text text-anchor="start" x="1762" y="-196.5" font-family="Helvetica,sans-Serif" font-size="10.00">/argodsmBuffer/argodsmPrefetching</text>
<text text-anchor="start" x="1762" y="-185.5" font-family="Helvetica,sans-Serif" font-size="10.00">/src/synchronization/cohort</text>
<text text-anchor="middle" x="1850.5" y="-174.5" font-family="Helvetica,sans-Serif" font-size="10.00">_lock.hpp</text>
</a>
</g>
</g>
<!-- Node1&#45;&gt;Node19 -->
<g id="edge31" class="edge">
<title>Node1&#45;&gt;Node19</title>
<path fill="none" stroke="midnightblue" d="M1712.89,-483.55C1722.44,-474.69 1732.01,-464.57 1739.5,-454 1794.3,-376.62 1829.67,-267.96 1843.68,-219.51"/>
<polygon fill="midnightblue" stroke="midnightblue" points="1710.39,-481.1 1705.27,-490.38 1715.06,-486.31 1710.39,-481.1"/>
</g>
<!-- Node4 -->
<g id="node4" class="node">
<title>Node4</title>
<g id="a_node4"><a xlink:href="collective__allocator_8hpp.html" target="_top" xlink:title="This file provides the collective allocator for ArgoDSM.">
<polygon fill="white" stroke="black" points="1475,-256.5 1475,-297.5 1678,-297.5 1678,-256.5 1475,-256.5"/>
<text text-anchor="start" x="1483" y="-285.5" font-family="Helvetica,sans-Serif" font-size="10.00">/home/projectcs&#45;2022</text>
<text text-anchor="start" x="1483" y="-274.5" font-family="Helvetica,sans-Serif" font-size="10.00">/argodsmBuffer/argodsmPrefetching</text>
<text text-anchor="middle" x="1576.5" y="-263.5" font-family="Helvetica,sans-Serif" font-size="10.00">/src/allocators/collective_allocator.hpp</text>
</a>
</g>
</g>
<!-- Node3&#45;&gt;Node4 -->
<g id="edge3" class="edge">
<title>Node3&#45;&gt;Node4</title>
<path fill="none" stroke="midnightblue" d="M1592.65,-402.36C1588.66,-371.61 1582.52,-324.36 1579.08,-297.83"/>
<polygon fill="midnightblue" stroke="midnightblue" points="1589.21,-403.03 1593.97,-412.5 1596.15,-402.13 1589.21,-403.03"/>
</g>
<!-- Node21 -->
<g id="node21" class="node">
<title>Node21</title>
<g id="a_node21"><a xlink:href="dynamic__allocator_8hpp.html" target="_top" xlink:title="This file provides the dynamic allocator for ArgoDSM.">
<polygon fill="white" stroke="black" points="1190.5,-334.5 1190.5,-375.5 1388.5,-375.5 1388.5,-334.5 1190.5,-334.5"/>
<text text-anchor="start" x="1198.5" y="-363.5" font-family="Helvetica,sans-Serif" font-size="10.00">/home/projectcs&#45;2022</text>
<text text-anchor="start" x="1198.5" y="-352.5" font-family="Helvetica,sans-Serif" font-size="10.00">/argodsmBuffer/argodsmPrefetching</text>
<text text-anchor="middle" x="1289.5" y="-341.5" font-family="Helvetica,sans-Serif" font-size="10.00">/src/allocators/dynamic_allocator.hpp</text>
</a>
</g>
</g>
<!-- Node3&#45;&gt;Node21 -->
<g id="edge27" class="edge">
<title>Node3&#45;&gt;Node21</title>
<path fill="none" stroke="midnightblue" d="M1507.61,-409.99C1463.57,-399.09 1410.86,-386.04 1368.29,-375.51"/>
<polygon fill="midnightblue" stroke="midnightblue" points="1506.89,-413.42 1517.44,-412.43 1508.57,-406.63 1506.89,-413.42"/>
</g>
<!-- Node5 -->
<g id="node5" class="node">
<title>Node5</title>
<g id="a_node5"><a xlink:href="allocators_8hpp.html" target="_top" xlink:title="This file provides all C++ allocators for ArgoDSM.">
<polygon fill="white" stroke="black" points="1016,-173 1016,-214 1209,-214 1209,-173 1016,-173"/>
<text text-anchor="start" x="1024" y="-202" font-family="Helvetica,sans-Serif" font-size="10.00">/home/projectcs&#45;2022</text>
<text text-anchor="start" x="1024" y="-191" font-family="Helvetica,sans-Serif" font-size="10.00">/argodsmBuffer/argodsmPrefetching</text>
<text text-anchor="middle" x="1112.5" y="-180" font-family="Helvetica,sans-Serif" font-size="10.00">/src/allocators/allocators.hpp</text>
</a>
</g>
</g>
<!-- Node4&#45;&gt;Node5 -->
<g id="edge4" class="edge">
<title>Node4&#45;&gt;Node5</title>
<path fill="none" stroke="midnightblue" d="M1464.88,-260.29C1395.26,-250 1303.91,-235.6 1223.5,-220 1214.09,-218.17 1204.25,-216.12 1194.5,-214"/>
<polygon fill="midnightblue" stroke="midnightblue" points="1464.59,-263.79 1474.99,-261.78 1465.61,-256.86 1464.59,-263.79"/>
</g>
<!-- Node8 -->
<g id="node8" class="node">
<title>Node8</title>
<g id="a_node8"><a xlink:href="argo_8cpp.html" target="_top" xlink:title="This file implements some of the basic ArgoDSM calls.">
<polygon fill="white" stroke="black" points="0,-0.5 0,-41.5 193,-41.5 193,-0.5 0,-0.5"/>
<text text-anchor="start" x="8" y="-29.5" font-family="Helvetica,sans-Serif" font-size="10.00">/home/projectcs&#45;2022</text>
<text text-anchor="start" x="8" y="-18.5" font-family="Helvetica,sans-Serif" font-size="10.00">/argodsmBuffer/argodsmPrefetching</text>
<text text-anchor="middle" x="96.5" y="-7.5" font-family="Helvetica,sans-Serif" font-size="10.00">/src/argo.cpp</text>
</a>
</g>
</g>
<!-- Node4&#45;&gt;Node8 -->
<g id="edge18" class="edge">
<title>Node4&#45;&gt;Node8</title>
<path fill="none" stroke="midnightblue" d="M1498.6,-253.2C1429.74,-230.3 1329.22,-189.92 1256.5,-131 1233.78,-112.59 1243.36,-91.66 1217.5,-78 1117.62,-25.25 313.75,-54.6 201.5,-42 198.73,-41.69 195.93,-41.35 193.11,-40.98"/>
<polygon fill="midnightblue" stroke="midnightblue" points="1497.93,-256.67 1508.53,-256.45 1500.11,-250.01 1497.93,-256.67"/>
</g>
<!-- Node9 -->
<g id="node9" class="node">
<title>Node9</title>
<g id="a_node9"><a xlink:href="tests_2allocators_8cpp.html" target="_top" xlink:title="This file provides unit tests for the ArgoDSM allocators and memory pools.">
<polygon fill="white" stroke="black" points="1688,-0.5 1688,-41.5 1881,-41.5 1881,-0.5 1688,-0.5"/>
<text text-anchor="start" x="1696" y="-29.5" font-family="Helvetica,sans-Serif" font-size="10.00">/home/projectcs&#45;2022</text>
<text text-anchor="start" x="1696" y="-18.5" font-family="Helvetica,sans-Serif" font-size="10.00">/argodsmBuffer/argodsmPrefetching</text>
<text text-anchor="middle" x="1784.5" y="-7.5" font-family="Helvetica,sans-Serif" font-size="10.00">/tests/allocators.cpp</text>
</a>
</g>
</g>
<!-- Node4&#45;&gt;Node9 -->
<g id="edge22" class="edge">
<title>Node4&#45;&gt;Node9</title>
<path fill="none" stroke="midnightblue" d="M1584.57,-246.4C1599.32,-192.73 1629.62,-84.3 1635.5,-78 1650.86,-61.53 1671.54,-49.87 1692.6,-41.63"/>
<polygon fill="midnightblue" stroke="midnightblue" points="1581.11,-245.79 1581.85,-256.36 1587.86,-247.64 1581.11,-245.79"/>
</g>
<!-- Node10 -->
<g id="node10" class="node">
<title>Node10</title>
<g id="a_node10"><a xlink:href="api_8cpp.html" target="_top" xlink:title="This file provides unit tests for the ArgoDSM API functions.">
<polygon fill="white" stroke="black" points="1477,-0.5 1477,-41.5 1670,-41.5 1670,-0.5 1477,-0.5"/>
<text text-anchor="start" x="1485" y="-29.5" font-family="Helvetica,sans-Serif" font-size="10.00">/home/projectcs&#45;2022</text>
<text text-anchor="start" x="1485" y="-18.5" font-family="Helvetica,sans-Serif" font-size="10.00">/argodsmBuffer/argodsmPrefetching</text>
<text text-anchor="middle" x="1573.5" y="-7.5" font-family="Helvetica,sans-Serif" font-size="10.00">/tests/api.cpp</text>
</a>
</g>
</g>
<!-- Node4&#45;&gt;Node10 -->
<g id="edge23" class="edge">
<title>Node4&#45;&gt;Node10</title>
<path fill="none" stroke="midnightblue" d="M1576.15,-246.48C1575.53,-194.01 1574.25,-85.87 1573.73,-41.58"/>
<polygon fill="midnightblue" stroke="midnightblue" points="1572.65,-246.53 1576.27,-256.49 1579.65,-246.45 1572.65,-246.53"/>
</g>
<!-- Node4&#45;&gt;Node13 -->
<g id="edge24" class="edge">
<title>Node4&#45;&gt;Node13</title>
<path fill="none" stroke="midnightblue" d="M1609.27,-249.74C1619.06,-240.92 1629.35,-230.62 1637.5,-220 1680.81,-163.53 1652.41,-117.67 1711.5,-78 1783.76,-29.49 2015.32,-54.16 2101.5,-42 2104.26,-41.61 2107.05,-41.2 2109.87,-40.77"/>
<polygon fill="midnightblue" stroke="midnightblue" points="1606.8,-247.25 1601.57,-256.46 1611.4,-252.52 1606.8,-247.25"/>
</g>
<!-- Node14 -->
<g id="node14" class="node">
<title>Node14</title>
<g id="a_node14"><a xlink:href="omp_8cpp.html" target="_top" xlink:title="This file provides tests using OpenMP in ArgoDSM.">
<polygon fill="white" stroke="black" points="1899,-0.5 1899,-41.5 2092,-41.5 2092,-0.5 1899,-0.5"/>
<text text-anchor="start" x="1907" y="-29.5" font-family="Helvetica,sans-Serif" font-size="10.00">/home/projectcs&#45;2022</text>
<text text-anchor="start" x="1907" y="-18.5" font-family="Helvetica,sans-Serif" font-size="10.00">/argodsmBuffer/argodsmPrefetching</text>
<text text-anchor="middle" x="1995.5" y="-7.5" font-family="Helvetica,sans-Serif" font-size="10.00">/tests/omp.cpp</text>
</a>
</g>
</g>
<!-- Node4&#45;&gt;Node14 -->
<g id="edge25" class="edge">
<title>Node4&#45;&gt;Node14</title>
<path fill="none" stroke="midnightblue" d="M1597.08,-248.07C1603.08,-239.31 1609.39,-229.46 1614.5,-220 1646.96,-159.86 1619.96,-120.48 1673.5,-78 1750.09,-17.24 1794.25,-59.15 1890.5,-42 1893.24,-41.51 1896.02,-41.01 1898.83,-40.5"/>
<polygon fill="midnightblue" stroke="midnightblue" points="1594.11,-246.2 1591.24,-256.4 1599.84,-250.22 1594.11,-246.2"/>
</g>
<!-- Node15 -->
<g id="node15" class="node">
<title>Node15</title>
<g id="a_node15"><a xlink:href="prefetch_8cpp.html" target="_top" xlink:title="This file provides unit tests for the ArgoDSM prefetch mechanism.">
<polygon fill="white" stroke="black" points="1266,-0.5 1266,-41.5 1459,-41.5 1459,-0.5 1266,-0.5"/>
<text text-anchor="start" x="1274" y="-29.5" font-family="Helvetica,sans-Serif" font-size="10.00">/home/projectcs&#45;2022</text>
<text text-anchor="start" x="1274" y="-18.5" font-family="Helvetica,sans-Serif" font-size="10.00">/argodsmBuffer/argodsmPrefetching</text>
<text text-anchor="middle" x="1362.5" y="-7.5" font-family="Helvetica,sans-Serif" font-size="10.00">/tests/prefetch.cpp</text>
</a>
</g>
</g>
<!-- Node4&#45;&gt;Node15 -->
<g id="edge26" class="edge">
<title>Node4&#45;&gt;Node15</title>
<path fill="none" stroke="midnightblue" d="M1566.6,-246.91C1551.12,-205.07 1517.69,-127.52 1467.5,-78 1452.06,-62.76 1431.62,-50.6 1412.88,-41.56"/>
<polygon fill="midnightblue" stroke="midnightblue" points="1563.37,-248.27 1570.06,-256.49 1569.95,-245.9 1563.37,-248.27"/>
</g>
<!-- Node4&#45;&gt;Node19 -->
<g id="edge19" class="edge">
<title>Node4&#45;&gt;Node19</title>
<path fill="none" stroke="midnightblue" d="M1651.95,-253.56C1687.45,-243 1729.92,-230.37 1766.45,-219.5"/>
<polygon fill="midnightblue" stroke="midnightblue" points="1650.72,-250.27 1642.13,-256.48 1652.71,-256.98 1650.72,-250.27"/>
</g>
<!-- Node6 -->
<g id="node6" class="node">
<title>Node6</title>
<g id="a_node6"><a xlink:href="src_2allocators_2allocators_8cpp.html" target="_top" xlink:title="This file provides the default allocators.">
<polygon fill="white" stroke="black" points="1016,-84 1016,-125 1209,-125 1209,-84 1016,-84"/>
<text text-anchor="start" x="1024" y="-113" font-family="Helvetica,sans-Serif" font-size="10.00">/home/projectcs&#45;2022</text>
<text text-anchor="start" x="1024" y="-102" font-family="Helvetica,sans-Serif" font-size="10.00">/argodsmBuffer/argodsmPrefetching</text>
<text text-anchor="middle" x="1112.5" y="-91" font-family="Helvetica,sans-Serif" font-size="10.00">/src/allocators/allocators.cpp</text>
</a>
</g>
</g>
<!-- Node5&#45;&gt;Node6 -->
<g id="edge5" class="edge">
<title>Node5&#45;&gt;Node6</title>
<path fill="none" stroke="midnightblue" d="M1112.5,-162.44C1112.5,-150.1 1112.5,-136.16 1112.5,-125.16"/>
<polygon fill="midnightblue" stroke="midnightblue" points="1109,-162.76 1112.5,-172.76 1116,-162.76 1109,-162.76"/>
</g>
<!-- Node7 -->
<g id="node7" class="node">
<title>Node7</title>
<g id="a_node7"><a xlink:href="argo_8hpp.html" target="_top" xlink:title="This file provides the full C++ interface to ArgoDSM.">
<polygon fill="white" stroke="black" points="1266,-84 1266,-125 1459,-125 1459,-84 1266,-84"/>
<text text-anchor="start" x="1274" y="-113" font-family="Helvetica,sans-Serif" font-size="10.00">/home/projectcs&#45;2022</text>
<text text-anchor="start" x="1274" y="-102" font-family="Helvetica,sans-Serif" font-size="10.00">/argodsmBuffer/argodsmPrefetching</text>
<text text-anchor="middle" x="1362.5" y="-91" font-family="Helvetica,sans-Serif" font-size="10.00">/src/argo.hpp</text>
</a>
</g>
</g>
<!-- Node5&#45;&gt;Node7 -->
<g id="edge6" class="edge">
<title>Node5&#45;&gt;Node7</title>
<path fill="none" stroke="midnightblue" d="M1178.22,-169.63C1218,-155.79 1268.19,-138.32 1306.15,-125.11"/>
<polygon fill="midnightblue" stroke="midnightblue" points="1176.9,-166.38 1168.6,-172.98 1179.2,-172.99 1176.9,-166.38"/>
</g>
<!-- Node7&#45;&gt;Node8 -->
<g id="edge7" class="edge">
<title>Node7&#45;&gt;Node8</title>
<path fill="none" stroke="midnightblue" d="M1276.07,-81.96C1267.8,-80.41 1259.51,-79.05 1251.5,-78 788.5,-17.45 665.55,-93.84 201.5,-42 198.73,-41.69 195.93,-41.35 193.11,-40.98"/>
<polygon fill="midnightblue" stroke="midnightblue" points="1275.63,-85.44 1286.12,-83.94 1276.98,-78.58 1275.63,-85.44"/>
</g>
<!-- Node7&#45;&gt;Node9 -->
<g id="edge8" class="edge">
<title>Node7&#45;&gt;Node9</title>
<path fill="none" stroke="midnightblue" d="M1469.24,-82.88C1536.43,-69.91 1622.44,-53.3 1687.65,-40.7"/>
<polygon fill="midnightblue" stroke="midnightblue" points="1468.21,-79.52 1459.05,-84.85 1469.53,-86.39 1468.21,-79.52"/>
</g>
<!-- Node7&#45;&gt;Node10 -->
<g id="edge9" class="edge">
<title>Node7&#45;&gt;Node10</title>
<path fill="none" stroke="midnightblue" d="M1422.65,-80.27C1454.37,-68.01 1492.85,-53.15 1523.01,-41.5"/>
<polygon fill="midnightblue" stroke="midnightblue" points="1421.11,-77.11 1413.04,-83.98 1423.63,-83.64 1421.11,-77.11"/>
</g>
<!-- Node11 -->
<g id="node11" class="node">
<title>Node11</title>
<g id="a_node11"><a xlink:href="backend_8cpp.html" target="_top" xlink:title="This file provides tests for the backends.">
<polygon fill="white" stroke="black" points="211,-0.5 211,-41.5 404,-41.5 404,-0.5 211,-0.5"/>
<text text-anchor="start" x="219" y="-29.5" font-family="Helvetica,sans-Serif" font-size="10.00">/home/projectcs&#45;2022</text>
<text text-anchor="start" x="219" y="-18.5" font-family="Helvetica,sans-Serif" font-size="10.00">/argodsmBuffer/argodsmPrefetching</text>
<text text-anchor="middle" x="307.5" y="-7.5" font-family="Helvetica,sans-Serif" font-size="10.00">/tests/backend.cpp</text>
</a>
</g>
</g>
<!-- Node7&#45;&gt;Node11 -->
<g id="edge10" class="edge">
<title>Node7&#45;&gt;Node11</title>
<path fill="none" stroke="midnightblue" d="M1275.84,-82C1267.65,-80.45 1259.44,-79.07 1251.5,-78 881.63,-28.01 783.24,-85.03 412.5,-42 409.74,-41.68 406.93,-41.33 404.11,-40.95"/>
<polygon fill="midnightblue" stroke="midnightblue" points="1275.32,-85.46 1285.81,-83.97 1276.67,-78.59 1275.32,-85.46"/>
</g>
<!-- Node12 -->
<g id="node12" class="node">
<title>Node12</title>
<g id="a_node12"><a xlink:href="barrier_8cpp.html" target="_top" xlink:title="This file provides tests for the barrier synchronization.">
<polygon fill="white" stroke="black" points="422,-0.5 422,-41.5 615,-41.5 615,-0.5 422,-0.5"/>
<text text-anchor="start" x="430" y="-29.5" font-family="Helvetica,sans-Serif" font-size="10.00">/home/projectcs&#45;2022</text>
<text text-anchor="start" x="430" y="-18.5" font-family="Helvetica,sans-Serif" font-size="10.00">/argodsmBuffer/argodsmPrefetching</text>
<text text-anchor="middle" x="518.5" y="-7.5" font-family="Helvetica,sans-Serif" font-size="10.00">/tests/barrier.cpp</text>
</a>
</g>
</g>
<!-- Node7&#45;&gt;Node12 -->
<g id="edge11" class="edge">
<title>Node7&#45;&gt;Node12</title>
<path fill="none" stroke="midnightblue" d="M1275.13,-81.98C1267.17,-80.46 1259.21,-79.1 1251.5,-78 974.73,-38.56 900.97,-76.23 623.5,-42 620.74,-41.66 617.94,-41.29 615.12,-40.9"/>
<polygon fill="midnightblue" stroke="midnightblue" points="1274.69,-85.47 1285.18,-83.99 1276.06,-78.6 1274.69,-85.47"/>
</g>
<!-- Node7&#45;&gt;Node13 -->
<g id="edge12" class="edge">
<title>Node7&#45;&gt;Node13</title>
<path fill="none" stroke="midnightblue" d="M1469.28,-94.76C1670.25,-78.29 2086.05,-44.11 2101.5,-42 2104.26,-41.62 2107.05,-41.22 2109.87,-40.8"/>
<polygon fill="midnightblue" stroke="midnightblue" points="1468.97,-91.27 1459.29,-95.58 1469.54,-98.25 1468.97,-91.27"/>
</g>
<!-- Node7&#45;&gt;Node14 -->
<g id="edge13" class="edge">
<title>Node7&#45;&gt;Node14</title>
<path fill="none" stroke="midnightblue" d="M1469.27,-93.35C1576.14,-82.65 1745.13,-64.28 1890.5,-42 1893.25,-41.58 1896.04,-41.14 1898.85,-40.68"/>
<polygon fill="midnightblue" stroke="midnightblue" points="1468.73,-89.89 1459.13,-94.36 1469.43,-96.85 1468.73,-89.89"/>
</g>
<!-- Node7&#45;&gt;Node15 -->
<g id="edge14" class="edge">
<title>Node7&#45;&gt;Node15</title>
<path fill="none" stroke="midnightblue" d="M1362.5,-73.56C1362.5,-62.88 1362.5,-51.13 1362.5,-41.55"/>
<polygon fill="midnightblue" stroke="midnightblue" points="1359,-73.77 1362.5,-83.77 1366,-73.77 1359,-73.77"/>
</g>
<!-- Node16 -->
<g id="node16" class="node">
<title>Node16</title>
<g id="a_node16"><a xlink:href="stlallocation_8cpp.html" target="_top" xlink:title="This file provides tests using C++ interfaces in ArgoDSM.">
<polygon fill="white" stroke="black" points="633,-0.5 633,-41.5 826,-41.5 826,-0.5 633,-0.5"/>
<text text-anchor="start" x="641" y="-29.5" font-family="Helvetica,sans-Serif" font-size="10.00">/home/projectcs&#45;2022</text>
<text text-anchor="start" x="641" y="-18.5" font-family="Helvetica,sans-Serif" font-size="10.00">/argodsmBuffer/argodsmPrefetching</text>
<text text-anchor="middle" x="729.5" y="-7.5" font-family="Helvetica,sans-Serif" font-size="10.00">/tests/stlallocation.cpp</text>
</a>
</g>
</g>
<!-- Node7&#45;&gt;Node16 -->
<g id="edge15" class="edge">
<title>Node7&#45;&gt;Node16</title>
<path fill="none" stroke="midnightblue" d="M1273.77,-81.96C1266.26,-80.49 1258.77,-79.14 1251.5,-78 1067.74,-49.1 1018.78,-67.44 834.5,-42 831.74,-41.62 828.95,-41.21 826.13,-40.79"/>
<polygon fill="midnightblue" stroke="midnightblue" points="1273.14,-85.4 1283.63,-83.96 1274.53,-78.54 1273.14,-85.4"/>
</g>
<!-- Node17 -->
<g id="node17" class="node">
<title>Node17</title>
<g id="a_node17"><a xlink:href="trivial_8cpp.html" target="_top" xlink:title="This file provides unit tests for trivial sanity checks when using ArgoDSM.">
<polygon fill="white" stroke="black" points="844,-0.5 844,-41.5 1037,-41.5 1037,-0.5 844,-0.5"/>
<text text-anchor="start" x="852" y="-29.5" font-family="Helvetica,sans-Serif" font-size="10.00">/home/projectcs&#45;2022</text>
<text text-anchor="start" x="852" y="-18.5" font-family="Helvetica,sans-Serif" font-size="10.00">/argodsmBuffer/argodsmPrefetching</text>
<text text-anchor="middle" x="940.5" y="-7.5" font-family="Helvetica,sans-Serif" font-size="10.00">/tests/trivial.cpp</text>
</a>
</g>
</g>
<!-- Node7&#45;&gt;Node17 -->
<g id="edge16" class="edge">
<title>Node7&#45;&gt;Node17</title>
<path fill="none" stroke="midnightblue" d="M1269.38,-81.73C1263.33,-80.43 1257.34,-79.18 1251.5,-78 1160.4,-59.59 1136.93,-58.7 1045.5,-42 1042.76,-41.5 1039.98,-40.99 1037.18,-40.47"/>
<polygon fill="midnightblue" stroke="midnightblue" points="1269.05,-85.24 1279.56,-83.94 1270.54,-78.4 1269.05,-85.24"/>
</g>
<!-- Node18 -->
<g id="node18" class="node">
<title>Node18</title>
<g id="a_node18"><a xlink:href="uninitialized_8cpp.html" target="_top" xlink:title="This file provides unit tests for accessing ArgoDSM memory in various ways.">
<polygon fill="white" stroke="black" points="1055,-0.5 1055,-41.5 1248,-41.5 1248,-0.5 1055,-0.5"/>
<text text-anchor="start" x="1063" y="-29.5" font-family="Helvetica,sans-Serif" font-size="10.00">/home/projectcs&#45;2022</text>
<text text-anchor="start" x="1063" y="-18.5" font-family="Helvetica,sans-Serif" font-size="10.00">/argodsmBuffer/argodsmPrefetching</text>
<text text-anchor="middle" x="1151.5" y="-7.5" font-family="Helvetica,sans-Serif" font-size="10.00">/tests/uninitialized.cpp</text>
</a>
</g>
</g>
<!-- Node7&#45;&gt;Node18 -->
<g id="edge17" class="edge">
<title>Node7&#45;&gt;Node18</title>
<path fill="none" stroke="midnightblue" d="M1302.35,-80.27C1270.63,-68.01 1232.15,-53.15 1201.99,-41.5"/>
<polygon fill="midnightblue" stroke="midnightblue" points="1301.37,-83.64 1311.96,-83.98 1303.89,-77.11 1301.37,-83.64"/>
</g>
<!-- Node19&#45;&gt;Node13 -->
<g id="edge21" class="edge">
<title>Node19&#45;&gt;Node13</title>
<path fill="none" stroke="midnightblue" d="M1846.72,-157.22C1846.07,-131.7 1849.87,-98.25 1870.5,-78 1907.57,-41.6 2050.31,-50.86 2101.5,-42 2104.24,-41.53 2107.02,-41.04 2109.83,-40.54"/>
<polygon fill="midnightblue" stroke="midnightblue" points="1843.22,-157.45 1847.21,-167.27 1850.22,-157.11 1843.22,-157.45"/>
</g>
<!-- Node20 -->
<g id="node20" class="node">
<title>Node20</title>
<g id="a_node20"><a xlink:href="cohort__lock_8cpp.html" target="_top" xlink:title="This file provides a C interface for ArgoDSM&#45;based cohort locks.">
<polygon fill="white" stroke="black" points="1879,-78.5 1879,-130.5 2072,-130.5 2072,-78.5 1879,-78.5"/>
<text text-anchor="start" x="1887" y="-118.5" font-family="Helvetica,sans-Serif" font-size="10.00">/home/projectcs&#45;2022</text>
<text text-anchor="start" x="1887" y="-107.5" font-family="Helvetica,sans-Serif" font-size="10.00">/argodsmBuffer/argodsmPrefetching</text>
<text text-anchor="start" x="1887" y="-96.5" font-family="Helvetica,sans-Serif" font-size="10.00">/src/synchronization/cohort</text>
<text text-anchor="middle" x="1975.5" y="-85.5" font-family="Helvetica,sans-Serif" font-size="10.00">_lock.cpp</text>
</a>
</g>
</g>
<!-- Node19&#45;&gt;Node20 -->
<g id="edge20" class="edge">
<title>Node19&#45;&gt;Node20</title>
<path fill="none" stroke="midnightblue" d="M1895.04,-161.5C1909.59,-151.37 1925.57,-140.25 1939.43,-130.61"/>
<polygon fill="midnightblue" stroke="midnightblue" points="1892.86,-158.75 1886.66,-167.34 1896.86,-164.5 1892.86,-158.75"/>
</g>
<!-- Node21&#45;&gt;Node4 -->
<g id="edge29" class="edge">
<title>Node21&#45;&gt;Node4</title>
<path fill="none" stroke="midnightblue" d="M1373.12,-331.86C1414.18,-320.98 1463.21,-308 1502.84,-297.51"/>
<polygon fill="midnightblue" stroke="midnightblue" points="1372.18,-328.48 1363.41,-334.43 1373.97,-335.25 1372.18,-328.48"/>
</g>
<!-- Node21&#45;&gt;Node5 -->
<g id="edge28" class="edge">
<title>Node21&#45;&gt;Node5</title>
<path fill="none" stroke="midnightblue" d="M1260.19,-327.58C1224.79,-295.69 1166.07,-242.77 1134.38,-214.22"/>
<polygon fill="midnightblue" stroke="midnightblue" points="1258.02,-330.35 1267.8,-334.44 1262.71,-325.15 1258.02,-330.35"/>
</g>
<!-- Node21&#45;&gt;Node8 -->
<g id="edge30" class="edge">
<title>Node21&#45;&gt;Node8</title>
<path fill="none" stroke="midnightblue" d="M1209.44,-331.72C988.83,-270.33 374.79,-99.45 166.59,-41.5"/>
<polygon fill="midnightblue" stroke="midnightblue" points="1208.75,-335.16 1219.33,-334.47 1210.63,-328.42 1208.75,-335.16"/>
</g>
</g>
</svg>
