<?xml version="1.0" encoding="UTF-8" standalone="no"?>
<!DOCTYPE svg PUBLIC "-//W3C//DTD SVG 1.1//EN"
 "http://www.w3.org/Graphics/SVG/1.1/DTD/svg11.dtd">
<!-- Generated by graphviz version 2.43.0 (0)
 -->
<!-- Title: Graphical Class Hierarchy Pages: 1 -->
<svg width="359pt" height="290pt"
 viewBox="0.00 0.00 359.00 290.00" xmlns="http://www.w3.org/2000/svg" xmlns:xlink="http://www.w3.org/1999/xlink">
<g id="graph0" class="graph" transform="scale(1 1) rotate(0) translate(4 286)">
<title>Graphical Class Hierarchy</title>
<polygon fill="white" stroke="transparent" points="-4,4 -4,-286 355,-286 355,4 -4,4"/>
<!-- Node0 -->
<g id="node1" class="node">
<title>Node0</title>
<g id="a_node1"><a xlink:href="classargo_1_1data__distribution_1_1base__distribution.html" target="_top" xlink:title="the base data distribution class">
<polygon fill="white" stroke="black" points="0,-126 0,-156 170,-156 170,-126 0,-126"/>
<text text-anchor="start" x="8" y="-144" font-family="Helvetica,sans-Serif" font-size="10.00">argo::data_distribution</text>
<text text-anchor="middle" x="85" y="-133" font-family="Helvetica,sans-Serif" font-size="10.00">::base_distribution&lt; instance &gt;</text>
</a>
</g>
</g>
<!-- Node1 -->
<g id="node2" class="node">
<title>Node1</title>
<g id="a_node2"><a xlink:href="classargo_1_1data__distribution_1_1cyclic__distribution.html" target="_top" xlink:title="the cyclic data distribution">
<polygon fill="white" stroke="black" points="215,-240.5 215,-281.5 342,-281.5 342,-240.5 215,-240.5"/>
<text text-anchor="start" x="223" y="-269.5" font-family="Helvetica,sans-Serif" font-size="10.00">argo::data_distribution</text>
<text text-anchor="start" x="223" y="-258.5" font-family="Helvetica,sans-Serif" font-size="10.00">::cyclic_distribution</text>
<text text-anchor="middle" x="278.5" y="-247.5" font-family="Helvetica,sans-Serif" font-size="10.00">&lt; instance &gt;</text>
</a>
</g>
</g>
<!-- Node0&#45;&gt;Node1 -->
<g id="edge1" class="edge">
<title>Node0&#45;&gt;Node1</title>
<path fill="none" stroke="midnightblue" d="M111.06,-162.69C134.49,-182.26 171.03,-210.96 206,-231 211.84,-234.35 218.13,-237.53 224.46,-240.49"/>
<polygon fill="midnightblue" stroke="midnightblue" points="113.24,-159.96 103.34,-156.18 108.72,-165.31 113.24,-159.96"/>
</g>
<!-- Node2 -->
<g id="node3" class="node">
<title>Node2</title>
<g id="a_node3"><a xlink:href="classargo_1_1data__distribution_1_1first__touch__distribution.html" target="_top" xlink:title="the first&#45;touch data distribution">
<polygon fill="white" stroke="black" points="211.5,-180.5 211.5,-221.5 345.5,-221.5 345.5,-180.5 211.5,-180.5"/>
<text text-anchor="start" x="219.5" y="-209.5" font-family="Helvetica,sans-Serif" font-size="10.00">argo::data_distribution</text>
<text text-anchor="start" x="219.5" y="-198.5" font-family="Helvetica,sans-Serif" font-size="10.00">::first_touch_distribution</text>
<text text-anchor="middle" x="278.5" y="-187.5" font-family="Helvetica,sans-Serif" font-size="10.00">&lt; instance &gt;</text>
</a>
</g>
</g>
<!-- Node0&#45;&gt;Node2 -->
<g id="edge2" class="edge">
<title>Node0&#45;&gt;Node2</title>
<path fill="none" stroke="midnightblue" d="M143.93,-159.15C165.35,-165.86 189.78,-173.51 211.83,-180.42"/>
<polygon fill="midnightblue" stroke="midnightblue" points="144.91,-155.79 134.32,-156.14 142.82,-162.47 144.91,-155.79"/>
</g>
<!-- Node3 -->
<g id="node4" class="node">
<title>Node3</title>
<g id="a_node4"><a xlink:href="classargo_1_1data__distribution_1_1naive__distribution.html" target="_top" xlink:title="the naive data distribution">
<polygon fill="white" stroke="black" points="215,-120.5 215,-161.5 342,-161.5 342,-120.5 215,-120.5"/>
<text text-anchor="start" x="223" y="-149.5" font-family="Helvetica,sans-Serif" font-size="10.00">argo::data_distribution</text>
<text text-anchor="start" x="223" y="-138.5" font-family="Helvetica,sans-Serif" font-size="10.00">::naive_distribution&lt;</text>
<text text-anchor="middle" x="278.5" y="-127.5" font-family="Helvetica,sans-Serif" font-size="10.00"> instance &gt;</text>
</a>
</g>
</g>
<!-- Node0&#45;&gt;Node3 -->
<g id="edge3" class="edge">
<title>Node0&#45;&gt;Node3</title>
<path fill="none" stroke="midnightblue" d="M180.48,-141C192.11,-141 203.78,-141 214.78,-141"/>
<polygon fill="midnightblue" stroke="midnightblue" points="180.27,-137.5 170.27,-141 180.27,-144.5 180.27,-137.5"/>
</g>
<!-- Node4 -->
<g id="node5" class="node">
<title>Node4</title>
<g id="a_node5"><a xlink:href="classargo_1_1data__distribution_1_1prime__mapp__distribution.html" target="_top" xlink:title="the prime&#45;mapp data distribution">
<polygon fill="white" stroke="black" points="206,-60.5 206,-101.5 351,-101.5 351,-60.5 206,-60.5"/>
<text text-anchor="start" x="214" y="-89.5" font-family="Helvetica,sans-Serif" font-size="10.00">argo::data_distribution</text>
<text text-anchor="start" x="214" y="-78.5" font-family="Helvetica,sans-Serif" font-size="10.00">::prime_mapp_distribution</text>
<text text-anchor="middle" x="278.5" y="-67.5" font-family="Helvetica,sans-Serif" font-size="10.00">&lt; instance &gt;</text>
</a>
</g>
</g>
<!-- Node0&#45;&gt;Node4 -->
<g id="edge4" class="edge">
<title>Node0&#45;&gt;Node4</title>
<path fill="none" stroke="midnightblue" d="M143.93,-122.85C165.35,-116.14 189.78,-108.49 211.83,-101.58"/>
<polygon fill="midnightblue" stroke="midnightblue" points="142.82,-119.53 134.32,-125.86 144.91,-126.21 142.82,-119.53"/>
</g>
<!-- Node5 -->
<g id="node6" class="node">
<title>Node5</title>
<g id="a_node6"><a xlink:href="classargo_1_1data__distribution_1_1skew__mapp__distribution.html" target="_top" xlink:title="the skew&#45;mapp data distribution">
<polygon fill="white" stroke="black" points="208,-0.5 208,-41.5 349,-41.5 349,-0.5 208,-0.5"/>
<text text-anchor="start" x="216" y="-29.5" font-family="Helvetica,sans-Serif" font-size="10.00">argo::data_distribution</text>
<text text-anchor="start" x="216" y="-18.5" font-family="Helvetica,sans-Serif" font-size="10.00">::skew_mapp_distribution</text>
<text text-anchor="middle" x="278.5" y="-7.5" font-family="Helvetica,sans-Serif" font-size="10.00">&lt; instance &gt;</text>
</a>
</g>
</g>
<!-- Node0&#45;&gt;Node5 -->
<g id="edge5" class="edge">
<title>Node0&#45;&gt;Node5</title>
<path fill="none" stroke="midnightblue" d="M111.06,-119.31C134.49,-99.74 171.03,-71.04 206,-51 211.84,-47.65 218.13,-44.47 224.46,-41.51"/>
<polygon fill="midnightblue" stroke="midnightblue" points="108.72,-116.69 103.34,-125.82 113.24,-122.04 108.72,-116.69"/>
</g>
</g>
</svg>
