<?xml version="1.0" encoding="UTF-8" standalone="no"?>
<!DOCTYPE svg PUBLIC "-//W3C//DTD SVG 1.1//EN"
 "http://www.w3.org/Graphics/SVG/1.1/DTD/svg11.dtd">
<!-- Generated by graphviz version 2.43.0 (0)
 -->
<!-- Title: Graphical Class Hierarchy Pages: 1 -->
<svg width="328pt" height="332pt"
 viewBox="0.00 0.00 328.00 332.00" xmlns="http://www.w3.org/2000/svg" xmlns:xlink="http://www.w3.org/1999/xlink">
<g id="graph0" class="graph" transform="scale(1 1) rotate(0) translate(4 328)">
<title>Graphical Class Hierarchy</title>
<polygon fill="white" stroke="transparent" points="-4,4 -4,-328 324,-328 324,4 -4,4"/>
<!-- Node35 -->
<g id="node1" class="node">
<title>Node35</title>
<g id="a_node1"><a xlink:title=" ">
<polygon fill="white" stroke="#bfbfbf" points="38.5,-152.5 38.5,-171.5 114.5,-171.5 114.5,-152.5 38.5,-152.5"/>
<text text-anchor="middle" x="76.5" y="-159.5" font-family="Helvetica,sans-Serif" font-size="10.00">testing::Test</text>
</a>
</g>
</g>
<!-- Node0 -->
<g id="node2" class="node">
<title>Node0</title>
<g id="a_node2"><a xlink:href="classAPITest.html" target="_top" xlink:title="Class for the gtests fixture tests. Will reset the allocators to a clean state for every test.">
<polygon fill="white" stroke="black" points="228.5,-76.5 228.5,-95.5 280.5,-95.5 280.5,-76.5 228.5,-76.5"/>
<text text-anchor="middle" x="254.5" y="-83.5" font-family="Helvetica,sans-Serif" font-size="10.00">APITest</text>
</a>
</g>
</g>
<!-- Node35&#45;&gt;Node0 -->
<g id="edge1" class="edge">
<title>Node35&#45;&gt;Node0</title>
<path fill="none" stroke="midnightblue" d="M102.83,-147.33C125.03,-134.9 158.43,-117.19 189,-105 201.69,-99.94 216.25,-95.54 228.32,-92.25"/>
<polygon fill="midnightblue" stroke="midnightblue" points="101.02,-144.33 94.05,-152.3 104.47,-150.42 101.02,-144.33"/>
</g>
<!-- Node37 -->
<g id="node3" class="node">
<title>Node37</title>
<g id="a_node3"><a xlink:href="classAllocatorTest.html" target="_top" xlink:title="Class for the gtests fixture tests. Will reset the allocators to a clean state for every test.">
<polygon fill="white" stroke="black" points="214.5,-304.5 214.5,-323.5 294.5,-323.5 294.5,-304.5 214.5,-304.5"/>
<text text-anchor="middle" x="254.5" y="-311.5" font-family="Helvetica,sans-Serif" font-size="10.00">AllocatorTest</text>
</a>
</g>
</g>
<!-- Node35&#45;&gt;Node37 -->
<g id="edge2" class="edge">
<title>Node35&#45;&gt;Node37</title>
<path fill="none" stroke="midnightblue" d="M87.94,-180.35C105.24,-209.1 142.57,-264.6 189,-295 196.62,-299.99 205.58,-303.7 214.36,-306.45"/>
<polygon fill="midnightblue" stroke="midnightblue" points="90.94,-178.55 82.86,-171.7 84.91,-182.1 90.94,-178.55"/>
</g>
<!-- Node38 -->
<g id="node4" class="node">
<title>Node38</title>
<g id="a_node4"><a xlink:href="classLockTest.html" target="_top" xlink:title="Class for the gtests fixture tests. Will reset the allocators to a clean state for every test.">
<polygon fill="white" stroke="black" points="225,-266.5 225,-285.5 284,-285.5 284,-266.5 225,-266.5"/>
<text text-anchor="middle" x="254.5" y="-273.5" font-family="Helvetica,sans-Serif" font-size="10.00">LockTest</text>
</a>
</g>
</g>
<!-- Node35&#45;&gt;Node38 -->
<g id="edge3" class="edge">
<title>Node35&#45;&gt;Node38</title>
<path fill="none" stroke="midnightblue" d="M92.89,-178.91C113.03,-200.07 150.33,-236.07 189,-257 200.09,-263 213.3,-267.32 224.87,-270.31"/>
<polygon fill="midnightblue" stroke="midnightblue" points="95.43,-176.51 86.05,-171.59 90.32,-181.29 95.43,-176.51"/>
</g>
<!-- Node39 -->
<g id="node5" class="node">
<title>Node39</title>
<g id="a_node5"><a xlink:href="classPrefetchTest.html" target="_top" xlink:title="Class for the gtests fixture tests. Will reset the allocators to a clean state for every test.">
<polygon fill="white" stroke="black" points="216,-228.5 216,-247.5 293,-247.5 293,-228.5 216,-228.5"/>
<text text-anchor="middle" x="254.5" y="-235.5" font-family="Helvetica,sans-Serif" font-size="10.00">PrefetchTest</text>
</a>
</g>
</g>
<!-- Node35&#45;&gt;Node39 -->
<g id="edge4" class="edge">
<title>Node35&#45;&gt;Node39</title>
<path fill="none" stroke="midnightblue" d="M102.83,-176.67C125.03,-189.1 158.43,-206.81 189,-219 197.78,-222.5 207.47,-225.69 216.6,-228.41"/>
<polygon fill="midnightblue" stroke="midnightblue" points="104.47,-173.58 94.05,-171.7 101.02,-179.67 104.47,-173.58"/>
</g>
<!-- Node40 -->
<g id="node6" class="node">
<title>Node40</title>
<g id="a_node6"><a xlink:href="classUninitializedAccessTest.html" target="_top" xlink:title="Class for the gtests fixture tests. Will reset the allocators to a clean state for every test.">
<polygon fill="white" stroke="black" points="189,-190.5 189,-209.5 320,-209.5 320,-190.5 189,-190.5"/>
<text text-anchor="middle" x="254.5" y="-197.5" font-family="Helvetica,sans-Serif" font-size="10.00">UninitializedAccessTest</text>
</a>
</g>
</g>
<!-- Node35&#45;&gt;Node40 -->
<g id="edge5" class="edge">
<title>Node35&#45;&gt;Node40</title>
<path fill="none" stroke="midnightblue" d="M124.93,-172.24C151.21,-177.91 183.66,-184.92 209.39,-190.48"/>
<polygon fill="midnightblue" stroke="midnightblue" points="125.34,-168.75 114.83,-170.06 123.86,-175.59 125.34,-168.75"/>
</g>
<!-- Node41 -->
<g id="node7" class="node">
<title>Node41</title>
<g id="a_node7"><a xlink:href="classbackendTest.html" target="_top" xlink:title="Class for the gtests fixture tests. Will reset the allocators to a clean state for every test.">
<polygon fill="white" stroke="black" points="216,-0.5 216,-19.5 293,-19.5 293,-0.5 216,-0.5"/>
<text text-anchor="middle" x="254.5" y="-7.5" font-family="Helvetica,sans-Serif" font-size="10.00">backendTest</text>
</a>
</g>
</g>
<!-- Node35&#45;&gt;Node41 -->
<g id="edge6" class="edge">
<title>Node35&#45;&gt;Node41</title>
<path fill="none" stroke="midnightblue" d="M87.94,-143.65C105.24,-114.9 142.57,-59.4 189,-29 197.01,-23.76 206.5,-19.92 215.71,-17.13"/>
<polygon fill="midnightblue" stroke="midnightblue" points="84.91,-141.9 82.86,-152.3 90.94,-145.45 84.91,-141.9"/>
</g>
<!-- Node42 -->
<g id="node8" class="node">
<title>Node42</title>
<g id="a_node8"><a xlink:href="classbarrierTest.html" target="_top" xlink:title="Class for the gtests fixture tests. Will reset the allocators to a clean state for every test.">
<polygon fill="white" stroke="black" points="220.5,-38.5 220.5,-57.5 288.5,-57.5 288.5,-38.5 220.5,-38.5"/>
<text text-anchor="middle" x="254.5" y="-45.5" font-family="Helvetica,sans-Serif" font-size="10.00">barrierTest</text>
</a>
</g>
</g>
<!-- Node35&#45;&gt;Node42 -->
<g id="edge7" class="edge">
<title>Node35&#45;&gt;Node42</title>
<path fill="none" stroke="midnightblue" d="M92.89,-145.09C113.03,-123.93 150.33,-87.93 189,-67 198.65,-61.78 209.91,-57.83 220.3,-54.92"/>
<polygon fill="midnightblue" stroke="midnightblue" points="90.32,-142.71 86.05,-152.41 95.43,-147.49 90.32,-142.71"/>
</g>
<!-- Node43 -->
<g id="node9" class="node">
<title>Node43</title>
<g id="a_node9"><a xlink:href="classcppTest.html" target="_top" xlink:title="Class for the gtests fixture tests. Will reset the allocators to a clean state for every test.">
<polygon fill="white" stroke="black" points="228,-152.5 228,-171.5 281,-171.5 281,-152.5 228,-152.5"/>
<text text-anchor="middle" x="254.5" y="-159.5" font-family="Helvetica,sans-Serif" font-size="10.00">cppTest</text>
</a>
</g>
</g>
<!-- Node35&#45;&gt;Node43 -->
<g id="edge8" class="edge">
<title>Node35&#45;&gt;Node43</title>
<path fill="none" stroke="midnightblue" d="M125.19,-162C158.28,-162 201.05,-162 227.89,-162"/>
<polygon fill="midnightblue" stroke="midnightblue" points="124.83,-158.5 114.83,-162 124.83,-165.5 124.83,-158.5"/>
</g>
<!-- Node44 -->
<g id="node10" class="node">
<title>Node44</title>
<g id="a_node10"><a xlink:href="classompTest.html" target="_top" xlink:title="Class for the gtests fixture tests. Will reset the allocators to a clean state for every test.">
<polygon fill="white" stroke="black" points="225.5,-114.5 225.5,-133.5 283.5,-133.5 283.5,-114.5 225.5,-114.5"/>
<text text-anchor="middle" x="254.5" y="-121.5" font-family="Helvetica,sans-Serif" font-size="10.00">ompTest</text>
</a>
</g>
</g>
<!-- Node35&#45;&gt;Node44 -->
<g id="edge9" class="edge">
<title>Node35&#45;&gt;Node44</title>
<path fill="none" stroke="midnightblue" d="M124.91,-151.76C157.05,-144.82 198.45,-135.89 225.47,-130.05"/>
<polygon fill="midnightblue" stroke="midnightblue" points="123.86,-148.41 114.83,-153.94 125.34,-155.25 123.86,-148.41"/>
</g>
<!-- Node45 -->
<g id="node11" class="node">
<title>Node45</title>
<g id="a_node11"><a xlink:title=" ">
<polygon fill="white" stroke="#bfbfbf" points="0,-19.5 0,-38.5 153,-38.5 153,-19.5 0,-19.5"/>
<text text-anchor="middle" x="76.5" y="-26.5" font-family="Helvetica,sans-Serif" font-size="10.00">testing::WithParamInterface</text>
</a>
</g>
</g>
<!-- Node45&#45;&gt;Node41 -->
<g id="edge10" class="edge">
<title>Node45&#45;&gt;Node41</title>
<path fill="none" stroke="midnightblue" d="M163.35,-19.73C181.74,-17.75 200.26,-15.75 215.69,-14.08"/>
<polygon fill="midnightblue" stroke="midnightblue" points="162.73,-16.28 153.16,-20.83 163.48,-23.24 162.73,-16.28"/>
</g>
<!-- Node45&#45;&gt;Node42 -->
<g id="edge11" class="edge">
<title>Node45&#45;&gt;Node42</title>
<path fill="none" stroke="midnightblue" d="M163.12,-38.24C183.47,-40.44 203.99,-42.65 220.32,-44.42"/>
<polygon fill="midnightblue" stroke="midnightblue" points="163.48,-34.76 153.16,-37.17 162.73,-41.72 163.48,-34.76"/>
</g>
</g>
</svg>
