<?xml version="1.0" encoding="UTF-8" standalone="no"?>
<!DOCTYPE svg PUBLIC "-//W3C//DTD SVG 1.1//EN"
 "http://www.w3.org/Graphics/SVG/1.1/DTD/svg11.dtd">
<!-- Generated by graphviz version 2.43.0 (0)
 -->
<!-- Title: TEST_F Pages: 1 -->
<svg width="791pt" height="180pt"
 viewBox="0.00 0.00 791.00 180.00" xmlns="http://www.w3.org/2000/svg" xmlns:xlink="http://www.w3.org/1999/xlink">
<g id="graph0" class="graph" transform="scale(1 1) rotate(0) translate(4 176)">
<title>TEST_F</title>
<polygon fill="white" stroke="transparent" points="-4,4 -4,-176 787,-176 787,4 -4,4"/>
<!-- Node1 -->
<g id="node1" class="node">
<title>Node1</title>
<g id="a_node1"><a xlink:title="Tests trylock functionality.">
<polygon fill="#bfbfbf" stroke="black" points="0,-76.5 0,-95.5 52,-95.5 52,-76.5 0,-76.5"/>
<text text-anchor="middle" x="26" y="-83.5" font-family="Helvetica,sans-Serif" font-size="10.00">TEST_F</text>
</a>
</g>
</g>
<!-- Node2 -->
<g id="node2" class="node">
<title>Node2</title>
<g id="a_node2"><a xlink:href="namespaceargo_a10bae1e1e60ff583384b937201a87c29.html#a10bae1e1e60ff583384b937201a87c29" target="_top" xlink:title="a barrier for ArgoDSM nodes">
<polygon fill="white" stroke="black" points="115,-152.5 115,-171.5 192,-171.5 192,-152.5 115,-152.5"/>
<text text-anchor="middle" x="153.5" y="-159.5" font-family="Helvetica,sans-Serif" font-size="10.00">argo::barrier</text>
</a>
</g>
</g>
<!-- Node1&#45;&gt;Node2 -->
<g id="edge1" class="edge">
<title>Node1&#45;&gt;Node2</title>
<path fill="none" stroke="midnightblue" d="M34.66,-95.51C45.32,-108.15 65.85,-130.35 88,-143 93.26,-146 99.04,-148.57 104.91,-150.76"/>
<polygon fill="midnightblue" stroke="midnightblue" points="104.2,-154.21 114.8,-154.08 106.43,-147.58 104.2,-154.21"/>
</g>
<!-- Node3 -->
<g id="node3" class="node">
<title>Node3</title>
<g id="a_node3"><a xlink:href="namespaceargo_a09ca0ec2df9dbed721fb14b26cfa39a3.html#a09ca0ec2df9dbed721fb14b26cfa39a3" target="_top" xlink:title="template function to delete objects that were allocated using collective_new">
<polygon fill="white" stroke="black" points="107.5,-114.5 107.5,-133.5 199.5,-133.5 199.5,-114.5 107.5,-114.5"/>
<text text-anchor="middle" x="153.5" y="-121.5" font-family="Helvetica,sans-Serif" font-size="10.00">argo::codelete_</text>
</a>
</g>
</g>
<!-- Node1&#45;&gt;Node3 -->
<g id="edge2" class="edge">
<title>Node1&#45;&gt;Node3</title>
<path fill="none" stroke="midnightblue" d="M52.2,-93.95C63.18,-97.38 76.22,-101.43 88,-105 95.07,-107.14 102.58,-109.38 109.88,-111.55"/>
<polygon fill="midnightblue" stroke="midnightblue" points="109.08,-114.96 119.66,-114.43 111.06,-108.24 109.08,-114.96"/>
</g>
<!-- Node7 -->
<g id="node7" class="node">
<title>Node7</title>
<g id="a_node7"><a xlink:href="namespaceargo_a188a4648d6e7549bcef4cee36dcb5336.html#a188a4648d6e7549bcef4cee36dcb5336" target="_top" xlink:title="A unique ArgoDSM node identifier. Counting starts from 0.">
<polygon fill="white" stroke="black" points="294,-57.5 294,-76.5 377,-76.5 377,-57.5 294,-57.5"/>
<text text-anchor="middle" x="335.5" y="-64.5" font-family="Helvetica,sans-Serif" font-size="10.00">argo::node_id</text>
</a>
</g>
</g>
<!-- Node1&#45;&gt;Node7 -->
<g id="edge13" class="edge">
<title>Node1&#45;&gt;Node7</title>
<path fill="none" stroke="midnightblue" d="M51.83,-76.4C62.74,-72.67 75.83,-68.85 88,-67 154.95,-56.81 233.32,-59.22 283.41,-62.54"/>
<polygon fill="midnightblue" stroke="midnightblue" points="283.43,-66.05 293.65,-63.26 283.92,-59.07 283.43,-66.05"/>
</g>
<!-- Node9 -->
<g id="node9" class="node">
<title>Node9</title>
<g id="a_node9"><a xlink:href="namespaceargo_aa7e8ddf5784dd37c965cfd43cd65a330.html#aa7e8ddf5784dd37c965cfd43cd65a330" target="_top" xlink:title="Delete a globally collectively allocated array of objects.">
<polygon fill="white" stroke="black" points="95,-76.5 95,-95.5 212,-95.5 212,-76.5 95,-76.5"/>
<text text-anchor="middle" x="153.5" y="-83.5" font-family="Helvetica,sans-Serif" font-size="10.00">argo::codelete_array</text>
</a>
</g>
</g>
<!-- Node1&#45;&gt;Node9 -->
<g id="edge8" class="edge">
<title>Node1&#45;&gt;Node9</title>
<path fill="none" stroke="midnightblue" d="M52.1,-86C61.61,-86 72.96,-86 84.55,-86"/>
<polygon fill="midnightblue" stroke="midnightblue" points="84.75,-89.5 94.75,-86 84.75,-82.5 84.75,-89.5"/>
</g>
<!-- Node11 -->
<g id="node11" class="node">
<title>Node11</title>
<g id="a_node11"><a xlink:href="namespaceargo_a7839b1673e9af449cad0e94dce253721.html#a7839b1673e9af449cad0e94dce253721" target="_top" xlink:title="Number of ArgoDSM nodes being run.">
<polygon fill="white" stroke="black" points="88,-0.5 88,-19.5 219,-19.5 219,-0.5 88,-0.5"/>
<text text-anchor="middle" x="153.5" y="-7.5" font-family="Helvetica,sans-Serif" font-size="10.00">argo::number_of_nodes</text>
</a>
</g>
</g>
<!-- Node1&#45;&gt;Node11 -->
<g id="edge14" class="edge">
<title>Node1&#45;&gt;Node11</title>
<path fill="none" stroke="midnightblue" d="M36.12,-76.39C47.39,-64.98 67.6,-45.98 88,-34 94.95,-29.92 102.73,-26.32 110.4,-23.23"/>
<polygon fill="midnightblue" stroke="midnightblue" points="111.88,-26.41 120,-19.6 109.41,-19.86 111.88,-26.41"/>
</g>
<!-- Node4 -->
<g id="node4" class="node">
<title>Node4</title>
<g id="a_node4"><a xlink:href="src_2allocators_2allocators_8cpp_a215edf4fe9276398650302b518c52baf.html#a215edf4fe9276398650302b518c52baf" target="_top" xlink:title="basic free function for collective allocations, for C interface">
<polygon fill="white" stroke="black" points="291,-95.5 291,-114.5 380,-114.5 380,-95.5 291,-95.5"/>
<text text-anchor="middle" x="335.5" y="-102.5" font-family="Helvetica,sans-Serif" font-size="10.00">collective_free</text>
</a>
</g>
</g>
<!-- Node3&#45;&gt;Node4 -->
<g id="edge3" class="edge">
<title>Node3&#45;&gt;Node4</title>
<path fill="none" stroke="midnightblue" d="M199.92,-119.21C224.56,-116.6 255.17,-113.37 280.96,-110.65"/>
<polygon fill="midnightblue" stroke="midnightblue" points="281.38,-114.13 290.96,-109.6 280.64,-107.17 281.38,-114.13"/>
</g>
<!-- Node3&#45;&gt;Node7 -->
<g id="edge6" class="edge">
<title>Node3&#45;&gt;Node7</title>
<path fill="none" stroke="midnightblue" d="M191.43,-114.49C200.57,-111.77 210.24,-108.56 219,-105 235.76,-98.19 238.07,-92.38 255,-86 264.17,-82.55 274.17,-79.58 283.89,-77.08"/>
<polygon fill="midnightblue" stroke="midnightblue" points="284.99,-80.41 293.87,-74.64 283.33,-73.61 284.99,-80.41"/>
</g>
<!-- Node8 -->
<g id="node8" class="node">
<title>Node8</title>
<g id="a_node8"><a xlink:href="namespaceargo_1_1mempools_aaa24afb08a15776a8f2440531ba3121c.html#aaa24afb08a15776a8f2440531ba3121c" target="_top" xlink:title="synchronize memory metainformation (address) after growing to ensure visibility">
<polygon fill="white" stroke="black" points="255,-133.5 255,-152.5 416,-152.5 416,-133.5 255,-133.5"/>
<text text-anchor="middle" x="335.5" y="-140.5" font-family="Helvetica,sans-Serif" font-size="10.00">argo::mempools::synchronize</text>
</a>
</g>
</g>
<!-- Node3&#45;&gt;Node8 -->
<g id="edge7" class="edge">
<title>Node3&#45;&gt;Node8</title>
<path fill="none" stroke="midnightblue" d="M199.92,-128.79C213.59,-130.24 229.1,-131.87 244.6,-133.51"/>
<polygon fill="midnightblue" stroke="midnightblue" points="244.45,-137.01 254.76,-134.58 245.19,-130.05 244.45,-137.01"/>
</g>
<!-- Node5 -->
<g id="node5" class="node">
<title>Node5</title>
<g id="a_node5"><a xlink:href="classargo_1_1allocators_1_1generic__allocator_ab98a25e383864eecd7d602f95c49c420.html#ab98a25e383864eecd7d602f95c49c420" target="_top" xlink:title="free an allocated pointer">
<polygon fill="white" stroke="black" points="452,-90 452,-120 586,-120 586,-90 452,-90"/>
<text text-anchor="start" x="460" y="-108" font-family="Helvetica,sans-Serif" font-size="10.00">argo::allocators::generic</text>
<text text-anchor="middle" x="519" y="-97" font-family="Helvetica,sans-Serif" font-size="10.00">_allocator::free</text>
</a>
</g>
</g>
<!-- Node4&#45;&gt;Node5 -->
<g id="edge4" class="edge">
<title>Node4&#45;&gt;Node5</title>
<path fill="none" stroke="midnightblue" d="M380.44,-105C398.83,-105 420.75,-105 441.64,-105"/>
<polygon fill="midnightblue" stroke="midnightblue" points="441.78,-108.5 451.78,-105 441.78,-101.5 441.78,-108.5"/>
</g>
<!-- Node6 -->
<g id="node6" class="node">
<title>Node6</title>
<g id="a_node6"><a xlink:href="classargo_1_1allocators_1_1generic__allocator_a83b1a04add59963243bfa60b48d58db4.html#a83b1a04add59963243bfa60b48d58db4" target="_top" xlink:title="helper function for deallocation">
<polygon fill="white" stroke="black" points="622,-90 622,-120 783,-120 783,-90 622,-90"/>
<text text-anchor="start" x="630" y="-108" font-family="Helvetica,sans-Serif" font-size="10.00">argo::allocators::generic</text>
<text text-anchor="middle" x="702.5" y="-97" font-family="Helvetica,sans-Serif" font-size="10.00">_allocator::deallocate_nosync</text>
</a>
</g>
</g>
<!-- Node5&#45;&gt;Node6 -->
<g id="edge5" class="edge">
<title>Node5&#45;&gt;Node6</title>
<path fill="none" stroke="midnightblue" d="M586.04,-105C594.42,-105 603.1,-105 611.77,-105"/>
<polygon fill="midnightblue" stroke="midnightblue" points="611.92,-108.5 621.92,-105 611.92,-101.5 611.92,-108.5"/>
</g>
<!-- Node9&#45;&gt;Node4 -->
<g id="edge10" class="edge">
<title>Node9&#45;&gt;Node4</title>
<path fill="none" stroke="midnightblue" d="M212.44,-92.12C234.45,-94.44 259.39,-97.07 280.97,-99.35"/>
<polygon fill="midnightblue" stroke="midnightblue" points="280.63,-102.83 290.94,-100.4 281.36,-95.87 280.63,-102.83"/>
</g>
<!-- Node9&#45;&gt;Node7 -->
<g id="edge11" class="edge">
<title>Node9&#45;&gt;Node7</title>
<path fill="none" stroke="midnightblue" d="M212.44,-79.88C235.33,-77.47 261.41,-74.72 283.56,-72.38"/>
<polygon fill="midnightblue" stroke="midnightblue" points="284.19,-75.83 293.76,-71.3 283.45,-68.87 284.19,-75.83"/>
</g>
<!-- Node9&#45;&gt;Node8 -->
<g id="edge12" class="edge">
<title>Node9&#45;&gt;Node8</title>
<path fill="none" stroke="midnightblue" d="M191.43,-95.51C200.57,-98.23 210.24,-101.44 219,-105 235.76,-111.81 238.07,-117.62 255,-124 261.76,-126.54 268.97,-128.83 276.19,-130.85"/>
<polygon fill="midnightblue" stroke="midnightblue" points="275.43,-134.27 285.99,-133.46 277.22,-127.51 275.43,-134.27"/>
</g>
<!-- Node10 -->
<g id="node10" class="node">
<title>Node10</title>
<g id="a_node10"><a xlink:href="classargo_1_1allocators_1_1generic__allocator_a6a7fe288a35b74a248c341d6f67c800c.html#a6a7fe288a35b74a248c341d6f67c800c" target="_top" xlink:title="How much space has been allocated for the given chunk.">
<polygon fill="white" stroke="black" points="261,-8 261,-38 410,-38 410,-8 261,-8"/>
<text text-anchor="start" x="269" y="-26" font-family="Helvetica,sans-Serif" font-size="10.00">argo::allocators::generic</text>
<text text-anchor="middle" x="335.5" y="-15" font-family="Helvetica,sans-Serif" font-size="10.00">_allocator::allocated_space</text>
</a>
</g>
</g>
<!-- Node9&#45;&gt;Node10 -->
<g id="edge9" class="edge">
<title>Node9&#45;&gt;Node10</title>
<path fill="none" stroke="midnightblue" d="M178.73,-76.4C199,-68.47 228.73,-57.09 255,-48 261.52,-45.74 268.37,-43.46 275.21,-41.24"/>
<polygon fill="midnightblue" stroke="midnightblue" points="276.71,-44.43 285.16,-38.04 274.57,-37.77 276.71,-44.43"/>
</g>
</g>
</svg>
