<?xml version="1.0" encoding="UTF-8" standalone="no"?>
<!DOCTYPE svg PUBLIC "-//W3C//DTD SVG 1.1//EN"
 "http://www.w3.org/Graphics/SVG/1.1/DTD/svg11.dtd">
<!-- Generated by graphviz version 2.43.0 (0)
 -->
<!-- Title: /home/projectcs&#45;2022/argodsmBuffer/argodsmPrefetching/src/synchronization/intranode/mcs_lock.cpp Pages: 1 -->
<svg width="201pt" height="173pt"
 viewBox="0.00 0.00 201.00 173.00" xmlns="http://www.w3.org/2000/svg" xmlns:xlink="http://www.w3.org/1999/xlink">
<g id="graph0" class="graph" transform="scale(1 1) rotate(0) translate(4 169)">
<title>/home/projectcs&#45;2022/argodsmBuffer/argodsmPrefetching/src/synchronization/intranode/mcs_lock.cpp</title>
<polygon fill="white" stroke="transparent" points="-4,4 -4,-169 197,-169 197,4 -4,4"/>
<!-- Node1 -->
<g id="node1" class="node">
<title>Node1</title>
<g id="a_node1"><a xlink:title="This file provides an MCS&#45;style lock for the ArgoDSM system.">
<polygon fill="#bfbfbf" stroke="black" points="0,-112.5 0,-164.5 193,-164.5 193,-112.5 0,-112.5"/>
<text text-anchor="start" x="8" y="-152.5" font-family="Helvetica,sans-Serif" font-size="10.00">/home/projectcs&#45;2022</text>
<text text-anchor="start" x="8" y="-141.5" font-family="Helvetica,sans-Serif" font-size="10.00">/argodsmBuffer/argodsmPrefetching</text>
<text text-anchor="start" x="8" y="-130.5" font-family="Helvetica,sans-Serif" font-size="10.00">/src/synchronization/intranode</text>
<text text-anchor="middle" x="96.5" y="-119.5" font-family="Helvetica,sans-Serif" font-size="10.00">/mcs_lock.cpp</text>
</a>
</g>
</g>
<!-- Node2 -->
<g id="node2" class="node">
<title>Node2</title>
<g id="a_node2"><a xlink:title=" ">
<polygon fill="white" stroke="#bfbfbf" points="30.5,-56.5 30.5,-75.5 78.5,-75.5 78.5,-56.5 30.5,-56.5"/>
<text text-anchor="middle" x="54.5" y="-63.5" font-family="Helvetica,sans-Serif" font-size="10.00">thread</text>
</a>
</g>
</g>
<!-- Node1&#45;&gt;Node2 -->
<g id="edge1" class="edge">
<title>Node1&#45;&gt;Node2</title>
<path fill="none" stroke="midnightblue" d="M81.57,-112.45C76.02,-103.13 69.85,-92.77 64.81,-84.3"/>
<polygon fill="midnightblue" stroke="midnightblue" points="67.81,-82.5 59.68,-75.7 61.79,-86.08 67.81,-82.5"/>
</g>
<!-- Node3 -->
<g id="node3" class="node">
<title>Node3</title>
<g id="a_node3"><a xlink:href="mcs__lock_8hpp.html" target="_top" xlink:title="MCS lock for local use.">
<polygon fill="white" stroke="black" points="97,-56.5 97,-75.5 180,-75.5 180,-56.5 97,-56.5"/>
<text text-anchor="middle" x="138.5" y="-63.5" font-family="Helvetica,sans-Serif" font-size="10.00">mcs_lock.hpp</text>
</a>
</g>
</g>
<!-- Node1&#45;&gt;Node3 -->
<g id="edge2" class="edge">
<title>Node1&#45;&gt;Node3</title>
<path fill="none" stroke="midnightblue" d="M111.43,-112.45C116.98,-103.13 123.15,-92.77 128.19,-84.3"/>
<polygon fill="midnightblue" stroke="midnightblue" points="131.21,-86.08 133.32,-75.7 125.19,-82.5 131.21,-86.08"/>
</g>
<!-- Node4 -->
<g id="node4" class="node">
<title>Node4</title>
<g id="a_node4"><a xlink:title=" ">
<polygon fill="white" stroke="#bfbfbf" points="82.5,-0.5 82.5,-19.5 132.5,-19.5 132.5,-0.5 82.5,-0.5"/>
<text text-anchor="middle" x="107.5" y="-7.5" font-family="Helvetica,sans-Serif" font-size="10.00">atomic</text>
</a>
</g>
</g>
<!-- Node3&#45;&gt;Node4 -->
<g id="edge3" class="edge">
<title>Node3&#45;&gt;Node4</title>
<path fill="none" stroke="midnightblue" d="M133.38,-56.08C129.09,-48.61 122.84,-37.72 117.56,-28.52"/>
<polygon fill="midnightblue" stroke="midnightblue" points="120.54,-26.68 112.52,-19.75 114.47,-30.17 120.54,-26.68"/>
</g>
<!-- Node5 -->
<g id="node5" class="node">
<title>Node5</title>
<g id="a_node5"><a xlink:title=" ">
<polygon fill="white" stroke="#bfbfbf" points="150.5,-0.5 150.5,-19.5 188.5,-19.5 188.5,-0.5 150.5,-0.5"/>
<text text-anchor="middle" x="169.5" y="-7.5" font-family="Helvetica,sans-Serif" font-size="10.00">map</text>
</a>
</g>
</g>
<!-- Node3&#45;&gt;Node5 -->
<g id="edge4" class="edge">
<title>Node3&#45;&gt;Node5</title>
<path fill="none" stroke="midnightblue" d="M143.62,-56.08C147.91,-48.61 154.16,-37.72 159.44,-28.52"/>
<polygon fill="midnightblue" stroke="midnightblue" points="162.53,-30.17 164.48,-19.75 156.46,-26.68 162.53,-30.17"/>
</g>
</g>
</svg>
