<?xml version="1.0" encoding="UTF-8" standalone="no"?>
<!DOCTYPE svg PUBLIC "-//W3C//DTD SVG 1.1//EN"
 "http://www.w3.org/Graphics/SVG/1.1/DTD/svg11.dtd">
<!-- Generated by graphviz version 2.43.0 (0)
 -->
<!-- Title: fitting_mpi_int Pages: 1 -->
<svg width="474pt" height="593pt"
 viewBox="0.00 0.00 474.00 593.00" xmlns="http://www.w3.org/2000/svg" xmlns:xlink="http://www.w3.org/1999/xlink">
<g id="graph0" class="graph" transform="scale(1 1) rotate(0) translate(4 589)">
<title>fitting_mpi_int</title>
<polygon fill="white" stroke="transparent" points="-4,4 -4,-589 470,-589 470,4 -4,4"/>
<!-- Node1 -->
<g id="node1" class="node">
<title>Node1</title>
<g id="a_node1"><a xlink:title="Returns an MPI integer type that exactly matches in size the argument given.">
<polygon fill="#bfbfbf" stroke="black" points="379,-274 379,-293 466,-293 466,-274 379,-274"/>
<text text-anchor="middle" x="422.5" y="-281" font-family="Helvetica,sans-Serif" font-size="10.00">fitting_mpi_int</text>
</a>
</g>
</g>
<!-- Node2 -->
<g id="node2" class="node">
<title>Node2</title>
<g id="a_node2"><a xlink:href="backend_8hpp_ab1a7511272b2801f891b966a67b2a4dc.html#ab1a7511272b2801f891b966a67b2a4dc" target="_top" xlink:title="Backend internal type erased atomic CAS function.">
<polygon fill="white" stroke="black" points="189.5,-536.5 189.5,-566.5 314.5,-566.5 314.5,-536.5 189.5,-536.5"/>
<text text-anchor="start" x="197.5" y="-554.5" font-family="Helvetica,sans-Serif" font-size="10.00">argo::backend::atomic</text>
<text text-anchor="middle" x="252" y="-543.5" font-family="Helvetica,sans-Serif" font-size="10.00">::_compare_exchange</text>
</a>
</g>
</g>
<!-- Node1&#45;&gt;Node2 -->
<g id="edge1" class="edge">
<title>Node1&#45;&gt;Node2</title>
<path fill="none" stroke="midnightblue" d="M421.19,-303.3C419.35,-349.58 408.12,-465.6 343,-527.5 335.15,-534.96 325.24,-540.17 314.89,-543.78"/>
<polygon fill="midnightblue" stroke="midnightblue" points="424.69,-303.21 421.48,-293.11 417.7,-303.01 424.69,-303.21"/>
</g>
<!-- Node4 -->
<g id="node4" class="node">
<title>Node4</title>
<g id="a_node4"><a xlink:href="backend_8hpp_a15d2d5e1fdf93090999bce8f0307d91c.html#a15d2d5e1fdf93090999bce8f0307d91c" target="_top" xlink:title="Backend internal type erased atomic CAS function.">
<polygon fill="white" stroke="black" points="162.5,-469.5 162.5,-499.5 341.5,-499.5 341.5,-469.5 162.5,-469.5"/>
<text text-anchor="start" x="170.5" y="-487.5" font-family="Helvetica,sans-Serif" font-size="10.00">argo::backend::atomic</text>
<text text-anchor="middle" x="252" y="-476.5" font-family="Helvetica,sans-Serif" font-size="10.00">::_compare_exchange_offsets_tbl</text>
</a>
</g>
</g>
<!-- Node1&#45;&gt;Node4 -->
<g id="edge5" class="edge">
<title>Node1&#45;&gt;Node4</title>
<path fill="none" stroke="midnightblue" d="M418.45,-303.22C411.72,-339.87 392.11,-418.55 343,-460.5 338.94,-463.97 334.44,-466.94 329.66,-469.48"/>
<polygon fill="midnightblue" stroke="midnightblue" points="421.91,-303.73 420.14,-293.29 415.01,-302.56 421.91,-303.73"/>
</g>
<!-- Node5 -->
<g id="node5" class="node">
<title>Node5</title>
<g id="a_node5"><a xlink:href="backend_8hpp_a21022014311b61de767ed4d49fecc9a3.html#a21022014311b61de767ed4d49fecc9a3" target="_top" xlink:title="Backend internal type erased atomic CAS function.">
<polygon fill="white" stroke="black" points="161,-402.5 161,-432.5 343,-432.5 343,-402.5 161,-402.5"/>
<text text-anchor="start" x="169" y="-420.5" font-family="Helvetica,sans-Serif" font-size="10.00">argo::backend::atomic</text>
<text text-anchor="middle" x="252" y="-409.5" font-family="Helvetica,sans-Serif" font-size="10.00">::_compare_exchange_owners_dir</text>
</a>
</g>
</g>
<!-- Node1&#45;&gt;Node5 -->
<g id="edge7" class="edge">
<title>Node1&#45;&gt;Node5</title>
<path fill="none" stroke="midnightblue" d="M413.03,-302.55C401.04,-327.3 376.75,-370.12 343,-393.5 338.08,-396.91 332.7,-399.83 327.1,-402.34"/>
<polygon fill="midnightblue" stroke="midnightblue" points="416.36,-303.7 417.41,-293.15 410.01,-300.74 416.36,-303.7"/>
</g>
<!-- Node6 -->
<g id="node6" class="node">
<title>Node6</title>
<g id="a_node6"><a xlink:href="backend_8hpp_a59102c6814043d49f3b2623f367f6ba2.html#a59102c6814043d49f3b2623f367f6ba2" target="_top" xlink:title="Backend internal type erased atomic exchange function.">
<polygon fill="white" stroke="black" points="189.5,-335.5 189.5,-365.5 314.5,-365.5 314.5,-335.5 189.5,-335.5"/>
<text text-anchor="start" x="197.5" y="-353.5" font-family="Helvetica,sans-Serif" font-size="10.00">argo::backend::atomic</text>
<text text-anchor="middle" x="252" y="-342.5" font-family="Helvetica,sans-Serif" font-size="10.00">::_exchange</text>
</a>
</g>
</g>
<!-- Node1&#45;&gt;Node6 -->
<g id="edge9" class="edge">
<title>Node1&#45;&gt;Node6</title>
<path fill="none" stroke="midnightblue" d="M397.95,-298.35C382.73,-307.46 362.23,-318.8 343,-326.5 333.99,-330.11 324.26,-333.34 314.65,-336.18"/>
<polygon fill="midnightblue" stroke="midnightblue" points="399.97,-301.22 406.69,-293.03 396.33,-295.24 399.97,-301.22"/>
</g>
<!-- Node8 -->
<g id="node8" class="node">
<title>Node8</title>
<g id="a_node8"><a xlink:href="backend_8hpp_a42d4f07adf3b439564928f89022b74b5.html#a42d4f07adf3b439564928f89022b74b5" target="_top" xlink:title="Backend internal type erased atomic (post)increment function for signed integers.">
<polygon fill="white" stroke="black" points="189.5,-268.5 189.5,-298.5 314.5,-298.5 314.5,-268.5 189.5,-268.5"/>
<text text-anchor="start" x="197.5" y="-286.5" font-family="Helvetica,sans-Serif" font-size="10.00">argo::backend::atomic</text>
<text text-anchor="middle" x="252" y="-275.5" font-family="Helvetica,sans-Serif" font-size="10.00">::_fetch_add_int</text>
</a>
</g>
</g>
<!-- Node1&#45;&gt;Node8 -->
<g id="edge13" class="edge">
<title>Node1&#45;&gt;Node8</title>
<path fill="none" stroke="midnightblue" d="M368.6,-283.5C351.47,-283.5 332.32,-283.5 314.61,-283.5"/>
<polygon fill="midnightblue" stroke="midnightblue" points="368.98,-287 378.98,-283.5 368.98,-280 368.98,-287"/>
</g>
<!-- Node10 -->
<g id="node10" class="node">
<title>Node10</title>
<g id="a_node10"><a xlink:href="backend_8hpp_ad05287a5a2d303811b5c9e7a488bda59.html#ad05287a5a2d303811b5c9e7a488bda59" target="_top" xlink:title="Backend internal type erased atomic store function.">
<polygon fill="white" stroke="black" points="189.5,-201.5 189.5,-231.5 314.5,-231.5 314.5,-201.5 189.5,-201.5"/>
<text text-anchor="start" x="197.5" y="-219.5" font-family="Helvetica,sans-Serif" font-size="10.00">argo::backend::atomic</text>
<text text-anchor="middle" x="252" y="-208.5" font-family="Helvetica,sans-Serif" font-size="10.00">::_load</text>
</a>
</g>
</g>
<!-- Node1&#45;&gt;Node10 -->
<g id="edge17" class="edge">
<title>Node1&#45;&gt;Node10</title>
<path fill="none" stroke="midnightblue" d="M387.97,-270.17C359.93,-259.02 319.95,-243.12 290.78,-231.52"/>
<polygon fill="midnightblue" stroke="midnightblue" points="386.77,-273.46 397.36,-273.9 389.36,-266.95 386.77,-273.46"/>
</g>
<!-- Node12 -->
<g id="node12" class="node">
<title>Node12</title>
<g id="a_node12"><a xlink:href="backend_8hpp_a9f720289269a6cf7de8c6ab7e89fac5b.html#a9f720289269a6cf7de8c6ab7e89fac5b" target="_top" xlink:title="Backend internal type erased atomic load function.">
<polygon fill="white" stroke="black" points="181,-134.5 181,-164.5 323,-164.5 323,-134.5 181,-134.5"/>
<text text-anchor="start" x="189" y="-152.5" font-family="Helvetica,sans-Serif" font-size="10.00">argo::backend::atomic</text>
<text text-anchor="middle" x="252" y="-141.5" font-family="Helvetica,sans-Serif" font-size="10.00">::_load_public_owners_dir</text>
</a>
</g>
</g>
<!-- Node1&#45;&gt;Node12 -->
<g id="edge21" class="edge">
<title>Node1&#45;&gt;Node12</title>
<path fill="none" stroke="midnightblue" d="M409.36,-265.37C395.28,-245.45 370.48,-213.49 343,-192.5 328.14,-181.15 309.8,-171.72 293.56,-164.61"/>
<polygon fill="midnightblue" stroke="midnightblue" points="406.64,-267.6 415.2,-273.84 412.4,-263.62 406.64,-267.6"/>
</g>
<!-- Node13 -->
<g id="node13" class="node">
<title>Node13</title>
<g id="a_node13"><a xlink:href="backend_8hpp_ae76ec4647c992bfecf6309787f3dec4a.html#ae76ec4647c992bfecf6309787f3dec4a" target="_top" xlink:title="Backend internal type erased atomic store function.">
<polygon fill="white" stroke="black" points="189.5,-67.5 189.5,-97.5 314.5,-97.5 314.5,-67.5 189.5,-67.5"/>
<text text-anchor="start" x="197.5" y="-85.5" font-family="Helvetica,sans-Serif" font-size="10.00">argo::backend::atomic</text>
<text text-anchor="middle" x="252" y="-74.5" font-family="Helvetica,sans-Serif" font-size="10.00">::_store</text>
</a>
</g>
</g>
<!-- Node1&#45;&gt;Node13 -->
<g id="edge23" class="edge">
<title>Node1&#45;&gt;Node13</title>
<path fill="none" stroke="midnightblue" d="M416.34,-263.95C406.86,-231.38 383.78,-165.66 343,-125.5 330.78,-113.47 314.56,-104.32 299.25,-97.61"/>
<polygon fill="midnightblue" stroke="midnightblue" points="412.99,-264.94 419.04,-273.63 419.73,-263.06 412.99,-264.94"/>
</g>
<!-- Node15 -->
<g id="node15" class="node">
<title>Node15</title>
<g id="a_node15"><a xlink:href="backend_8hpp_af453e2680e15d1b3b31d2baae901d182.html#af453e2680e15d1b3b31d2baae901d182" target="_top" xlink:title="Backend internal type erased atomic store function.">
<polygon fill="white" stroke="black" points="179,-0.5 179,-30.5 325,-30.5 325,-0.5 179,-0.5"/>
<text text-anchor="start" x="187" y="-18.5" font-family="Helvetica,sans-Serif" font-size="10.00">argo::backend::atomic</text>
<text text-anchor="middle" x="252" y="-7.5" font-family="Helvetica,sans-Serif" font-size="10.00">::_store_public_owners_dir</text>
</a>
</g>
</g>
<!-- Node1&#45;&gt;Node15 -->
<g id="edge27" class="edge">
<title>Node1&#45;&gt;Node15</title>
<path fill="none" stroke="midnightblue" d="M419.67,-263.66C414.77,-221.03 397.73,-119.61 343,-58.5 332.02,-46.25 316.8,-37.16 301.99,-30.59"/>
<polygon fill="midnightblue" stroke="midnightblue" points="416.19,-264.03 420.72,-273.61 423.16,-263.3 416.19,-264.03"/>
</g>
<!-- Node2&#45;&gt;Node2 -->
<g id="edge2" class="edge">
<title>Node2&#45;&gt;Node2</title>
<path fill="none" stroke="midnightblue" d="M282.21,-576.96C278.46,-581.68 268.39,-585 252,-585 225.11,-585 215.23,-576.06 222.37,-566.66"/>
<polygon fill="midnightblue" stroke="midnightblue" points="285.68,-576.45 281.63,-566.66 278.69,-576.84 285.68,-576.45"/>
</g>
<!-- Node3 -->
<g id="node3" class="node">
<title>Node3</title>
<g id="a_node3"><a xlink:href="backend_8hpp_a8e7144eaa88e3a94eb4e5fb8efb423a4.html#a8e7144eaa88e3a94eb4e5fb8efb423a4" target="_top" xlink:title="Atomic CAS operation on a global address.">
<polygon fill="white" stroke="black" points="0,-536.5 0,-566.5 125,-566.5 125,-536.5 0,-536.5"/>
<text text-anchor="start" x="8" y="-554.5" font-family="Helvetica,sans-Serif" font-size="10.00">argo::backend::atomic</text>
<text text-anchor="middle" x="62.5" y="-543.5" font-family="Helvetica,sans-Serif" font-size="10.00">::compare_exchange</text>
</a>
</g>
</g>
<!-- Node2&#45;&gt;Node3 -->
<g id="edge3" class="edge">
<title>Node2&#45;&gt;Node3</title>
<path fill="none" stroke="midnightblue" d="M179.04,-551.5C161.28,-551.5 142.41,-551.5 125.19,-551.5"/>
<polygon fill="midnightblue" stroke="midnightblue" points="179.35,-555 189.35,-551.5 179.35,-548 179.35,-555"/>
</g>
<!-- Node3&#45;&gt;Node3 -->
<g id="edge4" class="edge">
<title>Node3&#45;&gt;Node3</title>
<path fill="none" stroke="midnightblue" d="M95.91,-576.96C91.76,-581.68 80.62,-585 62.5,-585 32.76,-585 21.84,-576.06 29.74,-566.66"/>
<polygon fill="midnightblue" stroke="midnightblue" points="99.38,-576.42 95.26,-566.66 92.39,-576.86 99.38,-576.42"/>
</g>
<!-- Node4&#45;&gt;Node4 -->
<g id="edge6" class="edge">
<title>Node4&#45;&gt;Node4</title>
<path fill="none" stroke="midnightblue" d="M282.21,-509.96C278.46,-514.68 268.39,-518 252,-518 225.11,-518 215.23,-509.06 222.37,-499.66"/>
<polygon fill="midnightblue" stroke="midnightblue" points="285.68,-509.45 281.63,-499.66 278.69,-509.84 285.68,-509.45"/>
</g>
<!-- Node5&#45;&gt;Node5 -->
<g id="edge8" class="edge">
<title>Node5&#45;&gt;Node5</title>
<path fill="none" stroke="midnightblue" d="M282.21,-442.96C278.46,-447.68 268.39,-451 252,-451 225.11,-451 215.23,-442.06 222.37,-432.66"/>
<polygon fill="midnightblue" stroke="midnightblue" points="285.68,-442.45 281.63,-432.66 278.69,-442.84 285.68,-442.45"/>
</g>
<!-- Node6&#45;&gt;Node6 -->
<g id="edge10" class="edge">
<title>Node6&#45;&gt;Node6</title>
<path fill="none" stroke="midnightblue" d="M282.21,-375.96C278.46,-380.68 268.39,-384 252,-384 225.11,-384 215.23,-375.06 222.37,-365.66"/>
<polygon fill="midnightblue" stroke="midnightblue" points="285.68,-375.45 281.63,-365.66 278.69,-375.84 285.68,-375.45"/>
</g>
<!-- Node7 -->
<g id="node7" class="node">
<title>Node7</title>
<g id="a_node7"><a xlink:href="backend_8hpp_abe831501c00abf39b0519eef6789933f.html#abe831501c00abf39b0519eef6789933f" target="_top" xlink:title="atomic swap operation on a global address">
<polygon fill="white" stroke="black" points="0,-335.5 0,-365.5 125,-365.5 125,-335.5 0,-335.5"/>
<text text-anchor="start" x="8" y="-353.5" font-family="Helvetica,sans-Serif" font-size="10.00">argo::backend::atomic</text>
<text text-anchor="middle" x="62.5" y="-342.5" font-family="Helvetica,sans-Serif" font-size="10.00">::exchange</text>
</a>
</g>
</g>
<!-- Node6&#45;&gt;Node7 -->
<g id="edge11" class="edge">
<title>Node6&#45;&gt;Node7</title>
<path fill="none" stroke="midnightblue" d="M179.04,-350.5C161.28,-350.5 142.41,-350.5 125.19,-350.5"/>
<polygon fill="midnightblue" stroke="midnightblue" points="179.35,-354 189.35,-350.5 179.35,-347 179.35,-354"/>
</g>
<!-- Node7&#45;&gt;Node7 -->
<g id="edge12" class="edge">
<title>Node7&#45;&gt;Node7</title>
<path fill="none" stroke="midnightblue" d="M95.91,-375.96C91.76,-380.68 80.62,-384 62.5,-384 32.76,-384 21.84,-375.06 29.74,-365.66"/>
<polygon fill="midnightblue" stroke="midnightblue" points="99.38,-375.42 95.26,-365.66 92.39,-375.86 99.38,-375.42"/>
</g>
<!-- Node8&#45;&gt;Node8 -->
<g id="edge14" class="edge">
<title>Node8&#45;&gt;Node8</title>
<path fill="none" stroke="midnightblue" d="M282.21,-308.96C278.46,-313.68 268.39,-317 252,-317 225.11,-317 215.23,-308.06 222.37,-298.66"/>
<polygon fill="midnightblue" stroke="midnightblue" points="285.68,-308.45 281.63,-298.66 278.69,-308.84 285.68,-308.45"/>
</g>
<!-- Node9 -->
<g id="node9" class="node">
<title>Node9</title>
<g id="a_node9"><a xlink:href="backend_8hpp_afd1987dffd4e9100c88c457234f64a52.html#afd1987dffd4e9100c88c457234f64a52" target="_top" xlink:title="Atomic fetch and add operation on a global address.">
<polygon fill="white" stroke="black" points="0,-268.5 0,-298.5 125,-298.5 125,-268.5 0,-268.5"/>
<text text-anchor="start" x="8" y="-286.5" font-family="Helvetica,sans-Serif" font-size="10.00">argo::backend::atomic</text>
<text text-anchor="middle" x="62.5" y="-275.5" font-family="Helvetica,sans-Serif" font-size="10.00">::fetch_add</text>
</a>
</g>
</g>
<!-- Node8&#45;&gt;Node9 -->
<g id="edge15" class="edge">
<title>Node8&#45;&gt;Node9</title>
<path fill="none" stroke="midnightblue" d="M179.04,-283.5C161.28,-283.5 142.41,-283.5 125.19,-283.5"/>
<polygon fill="midnightblue" stroke="midnightblue" points="179.35,-287 189.35,-283.5 179.35,-280 179.35,-287"/>
</g>
<!-- Node9&#45;&gt;Node9 -->
<g id="edge16" class="edge">
<title>Node9&#45;&gt;Node9</title>
<path fill="none" stroke="midnightblue" d="M95.91,-308.96C91.76,-313.68 80.62,-317 62.5,-317 32.76,-317 21.84,-308.06 29.74,-298.66"/>
<polygon fill="midnightblue" stroke="midnightblue" points="99.38,-308.42 95.26,-298.66 92.39,-308.86 99.38,-308.42"/>
</g>
<!-- Node10&#45;&gt;Node10 -->
<g id="edge18" class="edge">
<title>Node10&#45;&gt;Node10</title>
<path fill="none" stroke="midnightblue" d="M282.21,-241.96C278.46,-246.68 268.39,-250 252,-250 225.11,-250 215.23,-241.06 222.37,-231.66"/>
<polygon fill="midnightblue" stroke="midnightblue" points="285.68,-241.45 281.63,-231.66 278.69,-241.84 285.68,-241.45"/>
</g>
<!-- Node11 -->
<g id="node11" class="node">
<title>Node11</title>
<g id="a_node11"><a xlink:href="backend_8hpp_abcb3b11cf70d5b8009edfabaa08def9d.html#abcb3b11cf70d5b8009edfabaa08def9d" target="_top" xlink:title="Atomic load operation on a global address.">
<polygon fill="white" stroke="black" points="0,-201.5 0,-231.5 125,-231.5 125,-201.5 0,-201.5"/>
<text text-anchor="start" x="8" y="-219.5" font-family="Helvetica,sans-Serif" font-size="10.00">argo::backend::atomic</text>
<text text-anchor="middle" x="62.5" y="-208.5" font-family="Helvetica,sans-Serif" font-size="10.00">::load</text>
</a>
</g>
</g>
<!-- Node10&#45;&gt;Node11 -->
<g id="edge19" class="edge">
<title>Node10&#45;&gt;Node11</title>
<path fill="none" stroke="midnightblue" d="M179.04,-216.5C161.28,-216.5 142.41,-216.5 125.19,-216.5"/>
<polygon fill="midnightblue" stroke="midnightblue" points="179.35,-220 189.35,-216.5 179.35,-213 179.35,-220"/>
</g>
<!-- Node11&#45;&gt;Node11 -->
<g id="edge20" class="edge">
<title>Node11&#45;&gt;Node11</title>
<path fill="none" stroke="midnightblue" d="M95.91,-241.96C91.76,-246.68 80.62,-250 62.5,-250 32.76,-250 21.84,-241.06 29.74,-231.66"/>
<polygon fill="midnightblue" stroke="midnightblue" points="99.38,-241.42 95.26,-231.66 92.39,-241.86 99.38,-241.42"/>
</g>
<!-- Node12&#45;&gt;Node12 -->
<g id="edge22" class="edge">
<title>Node12&#45;&gt;Node12</title>
<path fill="none" stroke="midnightblue" d="M282.21,-174.96C278.46,-179.68 268.39,-183 252,-183 225.11,-183 215.23,-174.06 222.37,-164.66"/>
<polygon fill="midnightblue" stroke="midnightblue" points="285.68,-174.45 281.63,-164.66 278.69,-174.84 285.68,-174.45"/>
</g>
<!-- Node13&#45;&gt;Node13 -->
<g id="edge24" class="edge">
<title>Node13&#45;&gt;Node13</title>
<path fill="none" stroke="midnightblue" d="M282.21,-107.96C278.46,-112.68 268.39,-116 252,-116 225.11,-116 215.23,-107.06 222.37,-97.66"/>
<polygon fill="midnightblue" stroke="midnightblue" points="285.68,-107.45 281.63,-97.66 278.69,-107.84 285.68,-107.45"/>
</g>
<!-- Node14 -->
<g id="node14" class="node">
<title>Node14</title>
<g id="a_node14"><a xlink:href="backend_8hpp_a360aa0082e4b2bfe2f6c19d333ff56fa.html#a360aa0082e4b2bfe2f6c19d333ff56fa" target="_top" xlink:title="Atomic store operation on a global address.">
<polygon fill="white" stroke="black" points="0,-67.5 0,-97.5 125,-97.5 125,-67.5 0,-67.5"/>
<text text-anchor="start" x="8" y="-85.5" font-family="Helvetica,sans-Serif" font-size="10.00">argo::backend::atomic</text>
<text text-anchor="middle" x="62.5" y="-74.5" font-family="Helvetica,sans-Serif" font-size="10.00">::store</text>
</a>
</g>
</g>
<!-- Node13&#45;&gt;Node14 -->
<g id="edge25" class="edge">
<title>Node13&#45;&gt;Node14</title>
<path fill="none" stroke="midnightblue" d="M179.04,-82.5C161.28,-82.5 142.41,-82.5 125.19,-82.5"/>
<polygon fill="midnightblue" stroke="midnightblue" points="179.35,-86 189.35,-82.5 179.35,-79 179.35,-86"/>
</g>
<!-- Node14&#45;&gt;Node14 -->
<g id="edge26" class="edge">
<title>Node14&#45;&gt;Node14</title>
<path fill="none" stroke="midnightblue" d="M95.91,-107.96C91.76,-112.68 80.62,-116 62.5,-116 32.76,-116 21.84,-107.06 29.74,-97.66"/>
<polygon fill="midnightblue" stroke="midnightblue" points="99.38,-107.42 95.26,-97.66 92.39,-107.86 99.38,-107.42"/>
</g>
<!-- Node15&#45;&gt;Node15 -->
<g id="edge28" class="edge">
<title>Node15&#45;&gt;Node15</title>
<path fill="none" stroke="midnightblue" d="M282.21,-40.96C278.46,-45.68 268.39,-49 252,-49 225.11,-49 215.23,-40.06 222.37,-30.66"/>
<polygon fill="midnightblue" stroke="midnightblue" points="285.68,-40.45 281.63,-30.66 278.69,-40.84 285.68,-40.45"/>
</g>
</g>
</svg>
