<?xml version="1.0" encoding="UTF-8" standalone="no"?>
<!DOCTYPE svg PUBLIC "-//W3C//DTD SVG 1.1//EN"
 "http://www.w3.org/Graphics/SVG/1.1/DTD/svg11.dtd">
<!-- Generated by graphviz version 2.43.0 (0)
 -->
<!-- Title: /home/projectcs&#45;2022/argodsmBuffer/argodsmPrefetching/src/backend/mpi/mpi_lock.cpp Pages: 1 -->
<svg width="201pt" height="162pt"
 viewBox="0.00 0.00 201.00 162.00" xmlns="http://www.w3.org/2000/svg" xmlns:xlink="http://www.w3.org/1999/xlink">
<g id="graph0" class="graph" transform="scale(1 1) rotate(0) translate(4 158)">
<title>/home/projectcs&#45;2022/argodsmBuffer/argodsmPrefetching/src/backend/mpi/mpi_lock.cpp</title>
<polygon fill="white" stroke="transparent" points="-4,4 -4,-158 197,-158 197,4 -4,4"/>
<!-- Node1 -->
<g id="node1" class="node">
<title>Node1</title>
<g id="a_node1"><a xlink:title="This file provides an implementation of a specialized MPI lock allowing multiple threads to access an...">
<polygon fill="#bfbfbf" stroke="black" points="0,-112.5 0,-153.5 193,-153.5 193,-112.5 0,-112.5"/>
<text text-anchor="start" x="8" y="-141.5" font-family="Helvetica,sans-Serif" font-size="10.00">/home/projectcs&#45;2022</text>
<text text-anchor="start" x="8" y="-130.5" font-family="Helvetica,sans-Serif" font-size="10.00">/argodsmBuffer/argodsmPrefetching</text>
<text text-anchor="middle" x="96.5" y="-119.5" font-family="Helvetica,sans-Serif" font-size="10.00">/src/backend/mpi/mpi_lock.cpp</text>
</a>
</g>
</g>
<!-- Node2 -->
<g id="node2" class="node">
<title>Node2</title>
<g id="a_node2"><a xlink:href="mpi__lock_8hpp.html" target="_top" xlink:title="Declaration of MPI lock.">
<polygon fill="white" stroke="black" points="55.5,-56.5 55.5,-75.5 137.5,-75.5 137.5,-56.5 55.5,-56.5"/>
<text text-anchor="middle" x="96.5" y="-63.5" font-family="Helvetica,sans-Serif" font-size="10.00">mpi_lock.hpp</text>
</a>
</g>
</g>
<!-- Node1&#45;&gt;Node2 -->
<g id="edge1" class="edge">
<title>Node1&#45;&gt;Node2</title>
<path fill="none" stroke="midnightblue" d="M96.5,-112.5C96.5,-104.07 96.5,-94.24 96.5,-85.87"/>
<polygon fill="midnightblue" stroke="midnightblue" points="100,-85.65 96.5,-75.65 93,-85.65 100,-85.65"/>
</g>
<!-- Node3 -->
<g id="node3" class="node">
<title>Node3</title>
<g id="a_node3"><a xlink:title=" ">
<polygon fill="white" stroke="#bfbfbf" points="38.5,-0.5 38.5,-19.5 82.5,-19.5 82.5,-0.5 38.5,-0.5"/>
<text text-anchor="middle" x="60.5" y="-7.5" font-family="Helvetica,sans-Serif" font-size="10.00">mpi.h</text>
</a>
</g>
</g>
<!-- Node2&#45;&gt;Node3 -->
<g id="edge2" class="edge">
<title>Node2&#45;&gt;Node3</title>
<path fill="none" stroke="midnightblue" d="M90.56,-56.08C85.52,-48.53 78.16,-37.49 71.99,-28.23"/>
<polygon fill="midnightblue" stroke="midnightblue" points="74.79,-26.13 66.33,-19.75 68.97,-30.01 74.79,-26.13"/>
</g>
<!-- Node4 -->
<g id="node4" class="node">
<title>Node4</title>
<g id="a_node4"><a xlink:title=" ">
<polygon fill="white" stroke="#bfbfbf" points="101,-0.5 101,-19.5 164,-19.5 164,-0.5 101,-0.5"/>
<text text-anchor="middle" x="132.5" y="-7.5" font-family="Helvetica,sans-Serif" font-size="10.00">pthread.h</text>
</a>
</g>
</g>
<!-- Node2&#45;&gt;Node4 -->
<g id="edge3" class="edge">
<title>Node2&#45;&gt;Node4</title>
<path fill="none" stroke="midnightblue" d="M102.44,-56.08C107.48,-48.53 114.84,-37.49 121.01,-28.23"/>
<polygon fill="midnightblue" stroke="midnightblue" points="124.03,-30.01 126.67,-19.75 118.21,-26.13 124.03,-30.01"/>
</g>
</g>
</svg>
