<?xml version="1.0" encoding="UTF-8" standalone="no"?>
<!DOCTYPE svg PUBLIC "-//W3C//DTD SVG 1.1//EN"
 "http://www.w3.org/Graphics/SVG/1.1/DTD/svg11.dtd">
<!-- Generated by graphviz version 2.43.0 (0)
 -->
<!-- Title: /home/projectcs&#45;2022/argodsmBuffer/argodsmPrefetching/src/backend/mpi/mpi.cpp Pages: 1 -->
<svg width="2365pt" height="520pt"
 viewBox="0.00 0.00 2365.21 520.00" xmlns="http://www.w3.org/2000/svg" xmlns:xlink="http://www.w3.org/1999/xlink">
<g id="graph0" class="graph" transform="scale(1 1) rotate(0) translate(4 516)">
<title>/home/projectcs&#45;2022/argodsmBuffer/argodsmPrefetching/src/backend/mpi/mpi.cpp</title>
<polygon fill="white" stroke="transparent" points="-4,4 -4,-516 2361.21,-516 2361.21,4 -4,4"/>
<!-- Node1 -->
<g id="node1" class="node">
<title>Node1</title>
<g id="a_node1"><a xlink:title="MPI backend implementation.">
<polygon fill="#bfbfbf" stroke="black" points="809.21,-470.5 809.21,-511.5 1002.21,-511.5 1002.21,-470.5 809.21,-470.5"/>
<text text-anchor="start" x="817.21" y="-499.5" font-family="Helvetica,sans-Serif" font-size="10.00">/home/projectcs&#45;2022</text>
<text text-anchor="start" x="817.21" y="-488.5" font-family="Helvetica,sans-Serif" font-size="10.00">/argodsmBuffer/argodsmPrefetching</text>
<text text-anchor="middle" x="905.71" y="-477.5" font-family="Helvetica,sans-Serif" font-size="10.00">/src/backend/mpi/mpi.cpp</text>
</a>
</g>
</g>
<!-- Node2 -->
<g id="node2" class="node">
<title>Node2</title>
<g id="a_node2"><a xlink:title=" ">
<polygon fill="white" stroke="#bfbfbf" points="315.71,-297 315.71,-316 359.71,-316 359.71,-297 315.71,-297"/>
<text text-anchor="middle" x="337.71" y="-304" font-family="Helvetica,sans-Serif" font-size="10.00">mpi.h</text>
</a>
</g>
</g>
<!-- Node1&#45;&gt;Node2 -->
<g id="edge1" class="edge">
<title>Node1&#45;&gt;Node2</title>
<path fill="none" stroke="midnightblue" d="M809.05,-485.24C588.25,-473.34 61.95,-438.83 11.71,-378 6.05,-371.15 5.87,-364.7 11.71,-358 50.18,-313.86 215.09,-332.38 272.71,-322 283.46,-320.06 295.14,-317.58 305.58,-315.22"/>
<polygon fill="midnightblue" stroke="midnightblue" points="306.58,-318.58 315.54,-312.92 305.01,-311.76 306.58,-318.58"/>
</g>
<!-- Node3 -->
<g id="node3" class="node">
<title>Node3</title>
<g id="a_node3"><a xlink:title=" ">
<polygon fill="white" stroke="#bfbfbf" points="20.71,-358.5 20.71,-377.5 100.71,-377.5 100.71,-358.5 20.71,-358.5"/>
<text text-anchor="middle" x="60.71" y="-365.5" font-family="Helvetica,sans-Serif" font-size="10.00">semaphore.h</text>
</a>
</g>
</g>
<!-- Node1&#45;&gt;Node3 -->
<g id="edge2" class="edge">
<title>Node1&#45;&gt;Node3</title>
<path fill="none" stroke="midnightblue" d="M808.87,-480.22C712.54,-470.11 560.62,-453.14 429.71,-434 290.06,-413.58 253.46,-403.92 110.82,-378.19"/>
<polygon fill="midnightblue" stroke="midnightblue" points="111.28,-374.72 100.82,-376.39 110.04,-381.61 111.28,-374.72"/>
</g>
<!-- Node4 -->
<g id="node4" class="node">
<title>Node4</title>
<g id="a_node4"><a xlink:title=" ">
<polygon fill="white" stroke="#bfbfbf" points="28.71,-297 28.71,-316 92.71,-316 92.71,-297 28.71,-297"/>
<text text-anchor="middle" x="60.71" y="-304" font-family="Helvetica,sans-Serif" font-size="10.00">algorithm</text>
</a>
</g>
</g>
<!-- Node1&#45;&gt;Node4 -->
<g id="edge3" class="edge">
<title>Node1&#45;&gt;Node4</title>
<path fill="none" stroke="midnightblue" d="M808.93,-488.02C627.06,-483.49 241.06,-469.88 112.71,-434 60.26,-419.34 32.09,-424.49 3.71,-378 -9.21,-356.84 15.35,-335.03 36.15,-321.38"/>
<polygon fill="midnightblue" stroke="midnightblue" points="38.07,-324.31 44.72,-316.06 34.38,-318.36 38.07,-324.31"/>
</g>
<!-- Node5 -->
<g id="node5" class="node">
<title>Node5</title>
<g id="a_node5"><a xlink:title=" ">
<polygon fill="white" stroke="#bfbfbf" points="1870.71,-297 1870.71,-316 1920.71,-316 1920.71,-297 1870.71,-297"/>
<text text-anchor="middle" x="1895.71" y="-304" font-family="Helvetica,sans-Serif" font-size="10.00">atomic</text>
</a>
</g>
</g>
<!-- Node1&#45;&gt;Node5 -->
<g id="edge4" class="edge">
<title>Node1&#45;&gt;Node5</title>
<path fill="none" stroke="midnightblue" d="M1002.3,-488.09C1270.53,-481.79 2009.58,-457.33 2081.71,-378 2116.21,-340.06 2093.51,-375.89 1929.71,-322 1927.79,-321.37 1925.83,-320.67 1923.86,-319.94"/>
<polygon fill="midnightblue" stroke="midnightblue" points="1924.78,-316.54 1914.2,-316.06 1922.18,-323.03 1924.78,-316.54"/>
</g>
<!-- Node6 -->
<g id="node6" class="node">
<title>Node6</title>
<g id="a_node6"><a xlink:title=" ">
<polygon fill="white" stroke="#bfbfbf" points="119.21,-358.5 119.21,-377.5 188.21,-377.5 188.21,-358.5 119.21,-358.5"/>
<text text-anchor="middle" x="153.71" y="-365.5" font-family="Helvetica,sans-Serif" font-size="10.00">type_traits</text>
</a>
</g>
</g>
<!-- Node1&#45;&gt;Node6 -->
<g id="edge5" class="edge">
<title>Node1&#45;&gt;Node6</title>
<path fill="none" stroke="midnightblue" d="M808.94,-475.32C673.28,-454.58 418.92,-415.07 202.71,-378 201.25,-377.75 199.76,-377.49 198.25,-377.23"/>
<polygon fill="midnightblue" stroke="midnightblue" points="198.69,-373.75 188.23,-375.45 197.46,-380.64 198.69,-373.75"/>
</g>
<!-- Node7 -->
<g id="node7" class="node">
<title>Node7</title>
<g id="a_node7"><a xlink:href="backend_8hpp.html" target="_top" xlink:title="This file provides the backend interface.">
<polygon fill="white" stroke="black" points="1938.71,-297 1938.71,-316 2060.71,-316 2060.71,-297 1938.71,-297"/>
<text text-anchor="middle" x="1999.71" y="-304" font-family="Helvetica,sans-Serif" font-size="10.00">backend/backend.hpp</text>
</a>
</g>
</g>
<!-- Node1&#45;&gt;Node7 -->
<g id="edge6" class="edge">
<title>Node1&#45;&gt;Node7</title>
<path fill="none" stroke="midnightblue" d="M1002.63,-488.59C1226.27,-484.74 1772.99,-471.64 1952.71,-434 2021.95,-419.5 2061.44,-436.16 2101.71,-378 2120.64,-350.66 2079.59,-330.65 2044.05,-319.07"/>
<polygon fill="midnightblue" stroke="midnightblue" points="2044.81,-315.64 2034.22,-316.03 2042.74,-322.33 2044.81,-315.64"/>
</g>
<!-- Node26 -->
<g id="node21" class="node">
<title>Node26</title>
<g id="a_node21"><a xlink:href="swdsm_8h.html" target="_top" xlink:title="this is a legacy file from the ArgoDSM prototype">
<polygon fill="white" stroke="black" points="1094.21,-414.5 1094.21,-433.5 1219.21,-433.5 1219.21,-414.5 1094.21,-414.5"/>
<text text-anchor="middle" x="1156.71" y="-421.5" font-family="Helvetica,sans-Serif" font-size="10.00">backend/mpi/swdsm.h</text>
</a>
</g>
</g>
<!-- Node1&#45;&gt;Node26 -->
<g id="edge28" class="edge">
<title>Node1&#45;&gt;Node26</title>
<path fill="none" stroke="midnightblue" d="M981.02,-470.5C1024.45,-459.25 1077.47,-445.52 1113.84,-436.1"/>
<polygon fill="midnightblue" stroke="midnightblue" points="1114.83,-439.46 1123.63,-433.57 1113.07,-432.69 1114.83,-439.46"/>
</g>
<!-- Node55 -->
<g id="node50" class="node">
<title>Node55</title>
<g id="a_node50"><a xlink:href="explicit__instantiations_8inc_8cpp.html" target="_top" xlink:title="file listing all template instances in the backend">
<polygon fill="white" stroke="black" points="2186.21,-168.5 2186.21,-187.5 2357.21,-187.5 2357.21,-168.5 2186.21,-168.5"/>
<text text-anchor="middle" x="2271.71" y="-175.5" font-family="Helvetica,sans-Serif" font-size="10.00">../explicit_instantiations.inc.cpp</text>
</a>
</g>
</g>
<!-- Node1&#45;&gt;Node55 -->
<g id="edge75" class="edge">
<title>Node1&#45;&gt;Node55</title>
<path fill="none" stroke="midnightblue" d="M1002.58,-487.77C1236.24,-481.98 1825.9,-464.7 2020.71,-434 2130.72,-416.66 2262.71,-480.37 2262.71,-369 2262.71,-369 2262.71,-369 2262.71,-305.5 2262.71,-267.11 2266.89,-222.32 2269.55,-197.67"/>
<polygon fill="midnightblue" stroke="midnightblue" points="2273.05,-197.9 2270.68,-187.57 2266.09,-197.12 2273.05,-197.9"/>
</g>
<!-- Node8 -->
<g id="node8" class="node">
<title>Node8</title>
<g id="a_node8"><a xlink:title=" ">
<polygon fill="white" stroke="#bfbfbf" points="1952.71,-230 1952.71,-249 2004.71,-249 2004.71,-230 1952.71,-230"/>
<text text-anchor="middle" x="1978.71" y="-237" font-family="Helvetica,sans-Serif" font-size="10.00">cassert</text>
</a>
</g>
</g>
<!-- Node7&#45;&gt;Node8 -->
<g id="edge7" class="edge">
<title>Node7&#45;&gt;Node8</title>
<path fill="none" stroke="midnightblue" d="M1996.88,-296.73C1993.76,-287.09 1988.66,-271.3 1984.66,-258.91"/>
<polygon fill="midnightblue" stroke="midnightblue" points="1987.9,-257.57 1981.5,-249.13 1981.24,-259.72 1987.9,-257.57"/>
</g>
<!-- Node9 -->
<g id="node9" class="node">
<title>Node9</title>
<g id="a_node9"><a xlink:title=" ">
<polygon fill="white" stroke="#bfbfbf" points="2060.71,-230 2060.71,-249 2110.71,-249 2110.71,-230 2060.71,-230"/>
<text text-anchor="middle" x="2085.71" y="-237" font-family="Helvetica,sans-Serif" font-size="10.00">cstdint</text>
</a>
</g>
</g>
<!-- Node7&#45;&gt;Node9 -->
<g id="edge8" class="edge">
<title>Node7&#45;&gt;Node9</title>
<path fill="none" stroke="midnightblue" d="M2011.31,-296.73C2025.37,-286.11 2049.26,-268.05 2066.18,-255.26"/>
<polygon fill="midnightblue" stroke="midnightblue" points="2068.43,-257.95 2074.3,-249.13 2064.21,-252.36 2068.43,-257.95"/>
</g>
<!-- Node10 -->
<g id="node10" class="node">
<title>Node10</title>
<g id="a_node10"><a xlink:title=" ">
<polygon fill="white" stroke="#bfbfbf" points="1869.21,-230 1869.21,-249 1934.21,-249 1934.21,-230 1869.21,-230"/>
<text text-anchor="middle" x="1901.71" y="-237" font-family="Helvetica,sans-Serif" font-size="10.00">stdexcept</text>
</a>
</g>
</g>
<!-- Node7&#45;&gt;Node10 -->
<g id="edge9" class="edge">
<title>Node7&#45;&gt;Node10</title>
<path fill="none" stroke="midnightblue" d="M1986.49,-296.73C1970.26,-285.96 1942.49,-267.55 1923.18,-254.74"/>
<polygon fill="midnightblue" stroke="midnightblue" points="1924.99,-251.74 1914.72,-249.13 1921.12,-257.57 1924.99,-251.74"/>
</g>
<!-- Node11 -->
<g id="node11" class="node">
<title>Node11</title>
<g id="a_node11"><a xlink:href="global__ptr_8hpp.html" target="_top" xlink:title="This file provides the global pointer for ArgoDSM.">
<polygon fill="white" stroke="black" points="1680.71,-224.5 1680.71,-254.5 1812.71,-254.5 1812.71,-224.5 1680.71,-224.5"/>
<text text-anchor="start" x="1688.71" y="-242.5" font-family="Helvetica,sans-Serif" font-size="10.00">data_distribution/global</text>
<text text-anchor="middle" x="1746.71" y="-231.5" font-family="Helvetica,sans-Serif" font-size="10.00">_ptr.hpp</text>
</a>
</g>
</g>
<!-- Node7&#45;&gt;Node11 -->
<g id="edge10" class="edge">
<title>Node7&#45;&gt;Node11</title>
<path fill="none" stroke="midnightblue" d="M1966.38,-296.94C1927.08,-286.84 1860.88,-269.83 1811.41,-257.12"/>
<polygon fill="midnightblue" stroke="midnightblue" points="1811.99,-253.66 1801.43,-254.56 1810.25,-260.44 1811.99,-253.66"/>
</g>
<!-- Node19 -->
<g id="node16" class="node">
<title>Node19</title>
<g id="a_node16"><a xlink:href="types_8hpp.html" target="_top" xlink:title="This file defines common types used in ArgoDSM.">
<polygon fill="white" stroke="black" points="2110.21,-0.5 2110.21,-19.5 2205.21,-19.5 2205.21,-0.5 2110.21,-0.5"/>
<text text-anchor="middle" x="2157.71" y="-7.5" font-family="Helvetica,sans-Serif" font-size="10.00">types/types.hpp</text>
</a>
</g>
</g>
<!-- Node7&#45;&gt;Node19 -->
<g id="edge27" class="edge">
<title>Node7&#45;&gt;Node19</title>
<path fill="none" stroke="midnightblue" d="M2004.6,-296.89C2018.9,-271.68 2061.72,-195.8 2095.71,-132 2115.14,-95.52 2137,-52.34 2148.87,-28.69"/>
<polygon fill="midnightblue" stroke="midnightblue" points="2152.09,-30.07 2153.44,-19.56 2145.84,-26.93 2152.09,-30.07"/>
</g>
<!-- Node12 -->
<g id="node12" class="node">
<title>Node12</title>
<g id="a_node12"><a xlink:title=" ">
<polygon fill="white" stroke="#bfbfbf" points="1790.71,-0.5 1790.71,-19.5 1834.71,-19.5 1834.71,-0.5 1790.71,-0.5"/>
<text text-anchor="middle" x="1812.71" y="-7.5" font-family="Helvetica,sans-Serif" font-size="10.00">string</text>
</a>
</g>
</g>
<!-- Node11&#45;&gt;Node12 -->
<g id="edge11" class="edge">
<title>Node11&#45;&gt;Node12</title>
<path fill="none" stroke="midnightblue" d="M1692.38,-224.48C1628.22,-205.12 1534.51,-166.33 1570.71,-112 1618.16,-40.78 1726.4,-19.7 1780.58,-13.52"/>
<polygon fill="midnightblue" stroke="midnightblue" points="1781.07,-16.99 1790.66,-12.47 1780.35,-10.02 1781.07,-16.99"/>
</g>
<!-- Node13 -->
<g id="node13" class="node">
<title>Node13</title>
<g id="a_node13"><a xlink:href="data__distribution_8hpp.html" target="_top" xlink:title="This file provides an abstraction layer for distributing the shared memory space.">
<polygon fill="white" stroke="red" points="1689.71,-168.5 1689.71,-187.5 1809.71,-187.5 1809.71,-168.5 1689.71,-168.5"/>
<text text-anchor="middle" x="1749.71" y="-175.5" font-family="Helvetica,sans-Serif" font-size="10.00">data_distribution.hpp</text>
</a>
</g>
</g>
<!-- Node11&#45;&gt;Node13 -->
<g id="edge12" class="edge">
<title>Node11&#45;&gt;Node13</title>
<path fill="none" stroke="midnightblue" d="M1747.42,-224.4C1747.82,-216.47 1748.33,-206.46 1748.76,-197.86"/>
<polygon fill="midnightblue" stroke="midnightblue" points="1752.27,-197.82 1749.28,-187.66 1745.28,-197.47 1752.27,-197.82"/>
</g>
<!-- Node17 -->
<g id="node15" class="node">
<title>Node17</title>
<g id="a_node15"><a xlink:href="env_8hpp.html" target="_top" xlink:title="This file provides facilities for handling environment variables.">
<polygon fill="white" stroke="red" points="1456.71,-0.5 1456.71,-19.5 1532.71,-19.5 1532.71,-0.5 1456.71,-0.5"/>
<text text-anchor="middle" x="1494.71" y="-7.5" font-family="Helvetica,sans-Serif" font-size="10.00">env/env.hpp</text>
</a>
</g>
</g>
<!-- Node11&#45;&gt;Node17 -->
<g id="edge26" class="edge">
<title>Node11&#45;&gt;Node17</title>
<path fill="none" stroke="midnightblue" d="M1680.71,-224.58C1639.3,-214.85 1590.65,-201.26 1573.71,-188 1522.32,-147.74 1503.45,-66.85 1497.32,-30.03"/>
<polygon fill="midnightblue" stroke="midnightblue" points="1500.72,-29.09 1495.76,-19.73 1493.8,-30.15 1500.72,-29.09"/>
</g>
<!-- Node14 -->
<g id="node14" class="node">
<title>Node14</title>
<g id="a_node14"><a xlink:href="base__distribution_8hpp.html" target="_top" xlink:title="This file implements the base distribution class for all the policies to derive from.">
<polygon fill="white" stroke="red" points="1751.71,-56.5 1751.71,-75.5 1873.71,-75.5 1873.71,-56.5 1751.71,-56.5"/>
<text text-anchor="middle" x="1812.71" y="-63.5" font-family="Helvetica,sans-Serif" font-size="10.00">base_distribution.hpp</text>
</a>
</g>
</g>
<!-- Node13&#45;&gt;Node14 -->
<g id="edge13" class="edge">
<title>Node13&#45;&gt;Node14</title>
<path fill="none" stroke="midnightblue" d="M1801.99,-168.48C1823.3,-162.15 1845.9,-151.14 1858.71,-132 1870.43,-114.49 1851.88,-94.78 1834.96,-81.71"/>
<polygon fill="midnightblue" stroke="midnightblue" points="1836.58,-78.56 1826.43,-75.52 1832.47,-84.23 1836.58,-78.56"/>
</g>
<!-- Node13&#45;&gt;Node17 -->
<g id="edge25" class="edge">
<title>Node13&#45;&gt;Node17</title>
<path fill="none" stroke="midnightblue" d="M1689.33,-173.16C1652.16,-168.21 1605.19,-157.04 1570.71,-132 1534.37,-105.61 1511.42,-56.02 1501.09,-29.25"/>
<polygon fill="midnightblue" stroke="midnightblue" points="1504.28,-27.78 1497.54,-19.61 1497.71,-30.2 1504.28,-27.78"/>
</g>
<!-- Node20 -->
<g id="node17" class="node">
<title>Node20</title>
<g id="a_node17"><a xlink:href="cyclic__distribution_8hpp.html" target="_top" xlink:title="This file implements the cyclic data distribution.">
<polygon fill="white" stroke="black" points="1579.71,-112.5 1579.71,-131.5 1705.71,-131.5 1705.71,-112.5 1579.71,-112.5"/>
<text text-anchor="middle" x="1642.71" y="-119.5" font-family="Helvetica,sans-Serif" font-size="10.00">cyclic_distribution.hpp</text>
</a>
</g>
</g>
<!-- Node13&#45;&gt;Node20 -->
<g id="edge17" class="edge">
<title>Node13&#45;&gt;Node20</title>
<path fill="none" stroke="midnightblue" d="M1732.52,-168.32C1715.36,-159.66 1688.77,-146.24 1668.96,-136.25"/>
<polygon fill="midnightblue" stroke="midnightblue" points="1670.36,-133.04 1659.86,-131.65 1667.21,-139.28 1670.36,-133.04"/>
</g>
<!-- Node21 -->
<g id="node18" class="node">
<title>Node21</title>
<g id="a_node18"><a xlink:href="first__touch__distribution_8hpp.html" target="_top" xlink:title="This file implements the first&#45;touch data distribution.">
<polygon fill="white" stroke="black" points="1905.21,-112.5 1905.21,-131.5 2054.21,-131.5 2054.21,-112.5 1905.21,-112.5"/>
<text text-anchor="middle" x="1979.71" y="-119.5" font-family="Helvetica,sans-Serif" font-size="10.00">first_touch_distribution.hpp</text>
</a>
</g>
</g>
<!-- Node13&#45;&gt;Node21 -->
<g id="edge19" class="edge">
<title>Node13&#45;&gt;Node21</title>
<path fill="none" stroke="midnightblue" d="M1786.16,-168.44C1826.11,-159.06 1890.3,-143.99 1933.7,-133.8"/>
<polygon fill="midnightblue" stroke="midnightblue" points="1934.5,-137.21 1943.44,-131.52 1932.9,-130.39 1934.5,-137.21"/>
</g>
<!-- Node23 -->
<g id="node20" class="node">
<title>Node23</title>
<g id="a_node20"><a xlink:href="naive__distribution_8hpp.html" target="_top" xlink:title="This file implements the naive data distribution.">
<polygon fill="white" stroke="black" points="1724.21,-112.5 1724.21,-131.5 1849.21,-131.5 1849.21,-112.5 1724.21,-112.5"/>
<text text-anchor="middle" x="1786.71" y="-119.5" font-family="Helvetica,sans-Serif" font-size="10.00">naive_distribution.hpp</text>
</a>
</g>
</g>
<!-- Node13&#45;&gt;Node23 -->
<g id="edge23" class="edge">
<title>Node13&#45;&gt;Node23</title>
<path fill="none" stroke="midnightblue" d="M1755.82,-168.08C1760.99,-160.53 1768.56,-149.49 1774.91,-140.23"/>
<polygon fill="midnightblue" stroke="midnightblue" points="1777.95,-141.98 1780.72,-131.75 1772.18,-138.02 1777.95,-141.98"/>
</g>
<!-- Node14&#45;&gt;Node12 -->
<g id="edge14" class="edge">
<title>Node14&#45;&gt;Node12</title>
<path fill="none" stroke="midnightblue" d="M1812.71,-56.08C1812.71,-49.01 1812.71,-38.86 1812.71,-29.99"/>
<polygon fill="midnightblue" stroke="midnightblue" points="1816.21,-29.75 1812.71,-19.75 1809.21,-29.75 1816.21,-29.75"/>
</g>
<!-- Node14&#45;&gt;Node17 -->
<g id="edge15" class="edge">
<title>Node14&#45;&gt;Node17</title>
<path fill="none" stroke="midnightblue" d="M1762.32,-56.44C1702.19,-46.23 1602.34,-29.28 1543.1,-19.22"/>
<polygon fill="midnightblue" stroke="midnightblue" points="1543.33,-15.71 1532.89,-17.48 1542.16,-22.61 1543.33,-15.71"/>
</g>
<!-- Node14&#45;&gt;Node19 -->
<g id="edge16" class="edge">
<title>Node14&#45;&gt;Node19</title>
<path fill="none" stroke="midnightblue" d="M1867.38,-56.44C1930.86,-46.51 2035.13,-30.19 2099.92,-20.05"/>
<polygon fill="midnightblue" stroke="midnightblue" points="2100.63,-23.48 2109.97,-18.47 2099.55,-16.56 2100.63,-23.48"/>
</g>
<!-- Node20&#45;&gt;Node14 -->
<g id="edge18" class="edge">
<title>Node20&#45;&gt;Node14</title>
<path fill="none" stroke="midnightblue" d="M1669.65,-112.44C1698.37,-103.32 1744.04,-88.81 1776.03,-78.65"/>
<polygon fill="midnightblue" stroke="midnightblue" points="1777.43,-81.88 1785.9,-75.52 1775.31,-75.21 1777.43,-81.88"/>
</g>
<!-- Node21&#45;&gt;Node12 -->
<g id="edge21" class="edge">
<title>Node21&#45;&gt;Node12</title>
<path fill="none" stroke="midnightblue" d="M1966.9,-112.3C1948.38,-99.76 1913.05,-75.91 1882.71,-56 1866.81,-45.56 1848.76,-33.96 1834.97,-25.16"/>
<polygon fill="midnightblue" stroke="midnightblue" points="1836.49,-21.98 1826.18,-19.55 1832.73,-27.88 1836.49,-21.98"/>
</g>
<!-- Node21&#45;&gt;Node14 -->
<g id="edge22" class="edge">
<title>Node21&#45;&gt;Node14</title>
<path fill="none" stroke="midnightblue" d="M1953.25,-112.44C1925.03,-103.32 1880.17,-88.81 1848.74,-78.65"/>
<polygon fill="midnightblue" stroke="midnightblue" points="1849.64,-75.26 1839.05,-75.52 1847.49,-81.92 1849.64,-75.26"/>
</g>
<!-- Node22 -->
<g id="node19" class="node">
<title>Node22</title>
<g id="a_node19"><a xlink:title=" ">
<polygon fill="white" stroke="#bfbfbf" points="2057.71,-56.5 2057.71,-75.5 2105.71,-75.5 2105.71,-56.5 2057.71,-56.5"/>
<text text-anchor="middle" x="2081.71" y="-63.5" font-family="Helvetica,sans-Serif" font-size="10.00">mutex</text>
</a>
</g>
</g>
<!-- Node21&#45;&gt;Node22 -->
<g id="edge20" class="edge">
<title>Node21&#45;&gt;Node22</title>
<path fill="none" stroke="midnightblue" d="M1996.1,-112.32C2012.38,-103.7 2037.58,-90.36 2056.43,-80.39"/>
<polygon fill="midnightblue" stroke="midnightblue" points="2058.16,-83.43 2065.36,-75.65 2054.89,-77.24 2058.16,-83.43"/>
</g>
<!-- Node23&#45;&gt;Node14 -->
<g id="edge24" class="edge">
<title>Node23&#45;&gt;Node14</title>
<path fill="none" stroke="midnightblue" d="M1791,-112.08C1794.56,-104.69 1799.73,-93.95 1804.14,-84.81"/>
<polygon fill="midnightblue" stroke="midnightblue" points="1807.31,-86.28 1808.5,-75.75 1801.01,-83.24 1807.31,-86.28"/>
</g>
<!-- Node26&#45;&gt;Node2 -->
<g id="edge34" class="edge">
<title>Node26&#45;&gt;Node2</title>
<path fill="none" stroke="midnightblue" d="M1093.98,-422.9C919.02,-422.14 434.51,-416.54 374.71,-378 356.6,-366.33 346.83,-342.74 341.95,-326.07"/>
<polygon fill="midnightblue" stroke="midnightblue" points="345.32,-325.1 339.42,-316.3 338.55,-326.86 345.32,-325.1"/>
</g>
<!-- Node26&#45;&gt;Node3 -->
<g id="edge37" class="edge">
<title>Node26&#45;&gt;Node3</title>
<path fill="none" stroke="midnightblue" d="M1093.93,-423.33C932.39,-423.53 489.12,-419.96 110.8,-377.95"/>
<polygon fill="midnightblue" stroke="midnightblue" points="111.08,-374.46 100.76,-376.82 110.3,-381.42 111.08,-374.46"/>
</g>
<!-- Node26&#45;&gt;Node5 -->
<g id="edge47" class="edge">
<title>Node26&#45;&gt;Node5</title>
<path fill="none" stroke="midnightblue" d="M1219.44,-422.37C1381.22,-420.28 1803.64,-411.63 1856.71,-378 1875.13,-366.33 1885.57,-342.74 1890.93,-326.07"/>
<polygon fill="midnightblue" stroke="midnightblue" points="1894.34,-326.88 1893.75,-316.3 1887.61,-324.94 1894.34,-326.88"/>
</g>
<!-- Node26&#45;&gt;Node6 -->
<g id="edge53" class="edge">
<title>Node26&#45;&gt;Node6</title>
<path fill="none" stroke="midnightblue" d="M1093.97,-422.95C941.05,-422.2 537.1,-416.42 202.71,-378 201.41,-377.85 200.08,-377.69 198.75,-377.51"/>
<polygon fill="midnightblue" stroke="midnightblue" points="198.83,-373.98 188.42,-375.97 197.8,-380.91 198.83,-373.98"/>
</g>
<!-- Node26&#45;&gt;Node7 -->
<g id="edge57" class="edge">
<title>Node26&#45;&gt;Node7</title>
<path fill="none" stroke="midnightblue" d="M1219.46,-422.82C1371.71,-421.79 1757.19,-415.45 1879.71,-378 1918.67,-366.09 1958.37,-339.28 1980.93,-322.37"/>
<polygon fill="midnightblue" stroke="midnightblue" points="1983.16,-325.08 1988.97,-316.22 1978.9,-319.52 1983.16,-325.08"/>
</g>
<!-- Node26&#45;&gt;Node9 -->
<g id="edge49" class="edge">
<title>Node26&#45;&gt;Node9</title>
<path fill="none" stroke="midnightblue" d="M1219.38,-422.26C1422.52,-419.57 2051.53,-408.78 2081.71,-378 2112.7,-346.4 2100.92,-288.49 2092.05,-258.93"/>
<polygon fill="midnightblue" stroke="midnightblue" points="2095.28,-257.55 2088.89,-249.1 2088.62,-259.69 2095.28,-257.55"/>
</g>
<!-- Node26&#45;&gt;Node22 -->
<g id="edge51" class="edge">
<title>Node26&#45;&gt;Node22</title>
<path fill="none" stroke="midnightblue" d="M1219.42,-422.08C1425.06,-418.78 2067.83,-406.26 2101.71,-378 2189.93,-304.42 2118.06,-138.97 2090.97,-84.65"/>
<polygon fill="midnightblue" stroke="midnightblue" points="2094,-82.9 2086.34,-75.59 2087.77,-86.08 2094,-82.9"/>
</g>
<!-- Node27 -->
<g id="node22" class="node">
<title>Node27</title>
<g id="a_node22"><a xlink:title=" ">
<polygon fill="white" stroke="#bfbfbf" points="1946.71,-358.5 1946.71,-377.5 2002.71,-377.5 2002.71,-358.5 1946.71,-358.5"/>
<text text-anchor="middle" x="1974.71" y="-365.5" font-family="Helvetica,sans-Serif" font-size="10.00">assert.h</text>
</a>
</g>
</g>
<!-- Node26&#45;&gt;Node27 -->
<g id="edge29" class="edge">
<title>Node26&#45;&gt;Node27</title>
<path fill="none" stroke="midnightblue" d="M1219.39,-422.61C1351.75,-421.08 1669.26,-413.65 1932.71,-378 1933.96,-377.83 1935.22,-377.65 1936.5,-377.45"/>
<polygon fill="midnightblue" stroke="midnightblue" points="1937.12,-380.89 1946.35,-375.69 1935.89,-374 1937.12,-380.89"/>
</g>
<!-- Node28 -->
<g id="node23" class="node">
<title>Node28</title>
<g id="a_node23"><a xlink:title=" ">
<polygon fill="white" stroke="#bfbfbf" points="2021.21,-358.5 2021.21,-377.5 2072.21,-377.5 2072.21,-358.5 2021.21,-358.5"/>
<text text-anchor="middle" x="2046.71" y="-365.5" font-family="Helvetica,sans-Serif" font-size="10.00">errno.h</text>
</a>
</g>
</g>
<!-- Node26&#45;&gt;Node28 -->
<g id="edge30" class="edge">
<title>Node26&#45;&gt;Node28</title>
<path fill="none" stroke="midnightblue" d="M1219.5,-421.32C1386.56,-416.59 1840.25,-402.03 2010.75,-377.76"/>
<polygon fill="midnightblue" stroke="midnightblue" points="2011.46,-381.2 2020.84,-376.27 2010.43,-374.27 2011.46,-381.2"/>
</g>
<!-- Node29 -->
<g id="node24" class="node">
<title>Node29</title>
<g id="a_node24"><a xlink:title=" ">
<polygon fill="white" stroke="#bfbfbf" points="383.21,-358.5 383.21,-377.5 430.21,-377.5 430.21,-358.5 383.21,-358.5"/>
<text text-anchor="middle" x="406.71" y="-365.5" font-family="Helvetica,sans-Serif" font-size="10.00">fcntl.h</text>
</a>
</g>
</g>
<!-- Node26&#45;&gt;Node29 -->
<g id="edge31" class="edge">
<title>Node26&#45;&gt;Node29</title>
<path fill="none" stroke="midnightblue" d="M1093.89,-423.33C970.29,-423.06 686.91,-417.86 440.6,-377.76"/>
<polygon fill="midnightblue" stroke="midnightblue" points="440.81,-374.25 430.38,-376.07 439.67,-381.16 440.81,-374.25"/>
</g>
<!-- Node30 -->
<g id="node25" class="node">
<title>Node30</title>
<g id="a_node25"><a xlink:title=" ">
<polygon fill="white" stroke="#bfbfbf" points="448.21,-358.5 448.21,-377.5 507.21,-377.5 507.21,-358.5 448.21,-358.5"/>
<text text-anchor="middle" x="477.71" y="-365.5" font-family="Helvetica,sans-Serif" font-size="10.00">malloc.h</text>
</a>
</g>
</g>
<!-- Node26&#45;&gt;Node30 -->
<g id="edge32" class="edge">
<title>Node26&#45;&gt;Node30</title>
<path fill="none" stroke="midnightblue" d="M1094.13,-421.85C980.9,-419.05 734.45,-409.72 517.42,-377.85"/>
<polygon fill="midnightblue" stroke="midnightblue" points="517.84,-374.37 507.43,-376.36 516.81,-381.3 517.84,-374.37"/>
</g>
<!-- Node31 -->
<g id="node26" class="node">
<title>Node31</title>
<g id="a_node26"><a xlink:title=" ">
<polygon fill="white" stroke="#bfbfbf" points="525.21,-358.5 525.21,-377.5 576.21,-377.5 576.21,-358.5 525.21,-358.5"/>
<text text-anchor="middle" x="550.71" y="-365.5" font-family="Helvetica,sans-Serif" font-size="10.00">math.h</text>
</a>
</g>
</g>
<!-- Node26&#45;&gt;Node31 -->
<g id="edge33" class="edge">
<title>Node26&#45;&gt;Node31</title>
<path fill="none" stroke="midnightblue" d="M1094.18,-421.61C990.48,-418.52 776.37,-408.87 586.12,-377.75"/>
<polygon fill="midnightblue" stroke="midnightblue" points="586.65,-374.29 576.22,-376.1 585.51,-381.19 586.65,-374.29"/>
</g>
<!-- Node32 -->
<g id="node27" class="node">
<title>Node32</title>
<g id="a_node27"><a xlink:title=" ">
<polygon fill="white" stroke="#bfbfbf" points="594.21,-358.5 594.21,-377.5 641.21,-377.5 641.21,-358.5 594.21,-358.5"/>
<text text-anchor="middle" x="617.71" y="-365.5" font-family="Helvetica,sans-Serif" font-size="10.00">omp.h</text>
</a>
</g>
</g>
<!-- Node26&#45;&gt;Node32 -->
<g id="edge35" class="edge">
<title>Node26&#45;&gt;Node32</title>
<path fill="none" stroke="midnightblue" d="M1093.92,-421C999.77,-417.21 816.42,-406.78 651.71,-377.84"/>
<polygon fill="midnightblue" stroke="midnightblue" points="651.85,-374.31 641.39,-376 650.62,-381.2 651.85,-374.31"/>
</g>
<!-- Node33 -->
<g id="node28" class="node">
<title>Node33</title>
<g id="a_node28"><a xlink:title=" ">
<polygon fill="white" stroke="#bfbfbf" points="201.21,-297 201.21,-316 264.21,-316 264.21,-297 201.21,-297"/>
<text text-anchor="middle" x="232.71" y="-304" font-family="Helvetica,sans-Serif" font-size="10.00">pthread.h</text>
</a>
</g>
</g>
<!-- Node26&#45;&gt;Node33 -->
<g id="edge36" class="edge">
<title>Node26&#45;&gt;Node33</title>
<path fill="none" stroke="midnightblue" d="M1093.98,-422.23C891.39,-419.45 265.95,-408.43 235.71,-378 222.52,-364.73 224,-342.19 227.35,-326.18"/>
<polygon fill="midnightblue" stroke="midnightblue" points="230.78,-326.87 229.8,-316.32 223.99,-325.18 230.78,-326.87"/>
</g>
<!-- Node34 -->
<g id="node29" class="node">
<title>Node34</title>
<g id="a_node29"><a xlink:title=" ">
<polygon fill="white" stroke="#bfbfbf" points="659.21,-358.5 659.21,-377.5 714.21,-377.5 714.21,-358.5 659.21,-358.5"/>
<text text-anchor="middle" x="686.71" y="-365.5" font-family="Helvetica,sans-Serif" font-size="10.00">signal.h</text>
</a>
</g>
</g>
<!-- Node26&#45;&gt;Node34 -->
<g id="edge38" class="edge">
<title>Node26&#45;&gt;Node34</title>
<path fill="none" stroke="midnightblue" d="M1093.96,-419.15C1011.39,-413.49 861.64,-401.18 724.37,-377.88"/>
<polygon fill="midnightblue" stroke="midnightblue" points="724.96,-374.43 714.51,-376.19 723.77,-381.33 724.96,-374.43"/>
</g>
<!-- Node35 -->
<g id="node30" class="node">
<title>Node35</title>
<g id="a_node30"><a xlink:title=" ">
<polygon fill="white" stroke="#bfbfbf" points="732.71,-358.5 732.71,-377.5 782.71,-377.5 782.71,-358.5 732.71,-358.5"/>
<text text-anchor="middle" x="757.71" y="-365.5" font-family="Helvetica,sans-Serif" font-size="10.00">stdio.h</text>
</a>
</g>
</g>
<!-- Node26&#45;&gt;Node35 -->
<g id="edge39" class="edge">
<title>Node26&#45;&gt;Node35</title>
<path fill="none" stroke="midnightblue" d="M1094.18,-417.74C1021.36,-411.04 897.66,-397.89 792.71,-378 792.61,-377.98 792.51,-377.96 792.41,-377.94"/>
<polygon fill="midnightblue" stroke="midnightblue" points="793.37,-374.57 782.86,-375.88 791.89,-381.41 793.37,-374.57"/>
</g>
<!-- Node36 -->
<g id="node31" class="node">
<title>Node36</title>
<g id="a_node31"><a xlink:title=" ">
<polygon fill="white" stroke="#bfbfbf" points="801.21,-358.5 801.21,-377.5 854.21,-377.5 854.21,-358.5 801.21,-358.5"/>
<text text-anchor="middle" x="827.71" y="-365.5" font-family="Helvetica,sans-Serif" font-size="10.00">stdlib.h</text>
</a>
</g>
</g>
<!-- Node26&#45;&gt;Node36 -->
<g id="edge40" class="edge">
<title>Node26&#45;&gt;Node36</title>
<path fill="none" stroke="midnightblue" d="M1094.12,-415.1C1036.8,-407.47 949.45,-394.88 864.23,-377.94"/>
<polygon fill="midnightblue" stroke="midnightblue" points="864.88,-374.5 854.39,-375.96 863.5,-381.36 864.88,-374.5"/>
</g>
<!-- Node37 -->
<g id="node32" class="node">
<title>Node37</title>
<g id="a_node32"><a xlink:title=" ">
<polygon fill="white" stroke="#bfbfbf" points="872.21,-358.5 872.21,-377.5 925.21,-377.5 925.21,-358.5 872.21,-358.5"/>
<text text-anchor="middle" x="898.71" y="-365.5" font-family="Helvetica,sans-Serif" font-size="10.00">string.h</text>
</a>
</g>
</g>
<!-- Node26&#45;&gt;Node37 -->
<g id="edge41" class="edge">
<title>Node26&#45;&gt;Node37</title>
<path fill="none" stroke="midnightblue" d="M1111.51,-414.46C1068.67,-406.22 1002.28,-393.1 935.3,-378.05"/>
<polygon fill="midnightblue" stroke="midnightblue" points="935.94,-374.61 925.42,-375.82 934.4,-381.44 935.94,-374.61"/>
</g>
<!-- Node38 -->
<g id="node33" class="node">
<title>Node38</title>
<g id="a_node33"><a xlink:title=" ">
<polygon fill="white" stroke="#bfbfbf" points="943.21,-358.5 943.21,-377.5 1020.21,-377.5 1020.21,-358.5 943.21,-358.5"/>
<text text-anchor="middle" x="981.71" y="-365.5" font-family="Helvetica,sans-Serif" font-size="10.00">sys/mman.h</text>
</a>
</g>
</g>
<!-- Node26&#45;&gt;Node38 -->
<g id="edge42" class="edge">
<title>Node26&#45;&gt;Node38</title>
<path fill="none" stroke="midnightblue" d="M1128.98,-414.44C1099.29,-405.28 1052,-390.69 1019.04,-380.52"/>
<polygon fill="midnightblue" stroke="midnightblue" points="1019.9,-377.12 1009.31,-377.52 1017.83,-383.81 1019.9,-377.12"/>
</g>
<!-- Node39 -->
<g id="node34" class="node">
<title>Node39</title>
<g id="a_node34"><a xlink:title=" ">
<polygon fill="white" stroke="#bfbfbf" points="1038.71,-358.5 1038.71,-377.5 1102.71,-377.5 1102.71,-358.5 1038.71,-358.5"/>
<text text-anchor="middle" x="1070.71" y="-365.5" font-family="Helvetica,sans-Serif" font-size="10.00">sys/stat.h</text>
</a>
</g>
</g>
<!-- Node26&#45;&gt;Node39 -->
<g id="edge43" class="edge">
<title>Node26&#45;&gt;Node39</title>
<path fill="none" stroke="midnightblue" d="M1142.89,-414.32C1129.48,-405.9 1108.89,-392.97 1093.13,-383.07"/>
<polygon fill="midnightblue" stroke="midnightblue" points="1094.82,-380.01 1084.49,-377.65 1091.1,-385.94 1094.82,-380.01"/>
</g>
<!-- Node40 -->
<g id="node35" class="node">
<title>Node40</title>
<g id="a_node35"><a xlink:title=" ">
<polygon fill="white" stroke="#bfbfbf" points="1120.71,-358.5 1120.71,-377.5 1192.71,-377.5 1192.71,-358.5 1120.71,-358.5"/>
<text text-anchor="middle" x="1156.71" y="-365.5" font-family="Helvetica,sans-Serif" font-size="10.00">sys/types.h</text>
</a>
</g>
</g>
<!-- Node26&#45;&gt;Node40 -->
<g id="edge44" class="edge">
<title>Node26&#45;&gt;Node40</title>
<path fill="none" stroke="midnightblue" d="M1156.71,-414.08C1156.71,-407.01 1156.71,-396.86 1156.71,-387.99"/>
<polygon fill="midnightblue" stroke="midnightblue" points="1160.21,-387.75 1156.71,-377.75 1153.21,-387.75 1160.21,-387.75"/>
</g>
<!-- Node41 -->
<g id="node36" class="node">
<title>Node41</title>
<g id="a_node36"><a xlink:title=" ">
<polygon fill="white" stroke="#bfbfbf" points="1210.71,-358.5 1210.71,-377.5 1258.71,-377.5 1258.71,-358.5 1210.71,-358.5"/>
<text text-anchor="middle" x="1234.71" y="-365.5" font-family="Helvetica,sans-Serif" font-size="10.00">time.h</text>
</a>
</g>
</g>
<!-- Node26&#45;&gt;Node41 -->
<g id="edge45" class="edge">
<title>Node26&#45;&gt;Node41</title>
<path fill="none" stroke="midnightblue" d="M1169.24,-414.32C1181.3,-405.98 1199.74,-393.21 1213.98,-383.35"/>
<polygon fill="midnightblue" stroke="midnightblue" points="1215.98,-386.22 1222.21,-377.65 1212,-380.47 1215.98,-386.22"/>
</g>
<!-- Node42 -->
<g id="node37" class="node">
<title>Node42</title>
<g id="a_node37"><a xlink:title=" ">
<polygon fill="white" stroke="#bfbfbf" points="1276.71,-358.5 1276.71,-377.5 1332.71,-377.5 1332.71,-358.5 1276.71,-358.5"/>
<text text-anchor="middle" x="1304.71" y="-365.5" font-family="Helvetica,sans-Serif" font-size="10.00">unistd.h</text>
</a>
</g>
</g>
<!-- Node26&#45;&gt;Node42 -->
<g id="edge46" class="edge">
<title>Node26&#45;&gt;Node42</title>
<path fill="none" stroke="midnightblue" d="M1180.16,-414.44C1204.84,-405.44 1243.9,-391.19 1271.69,-381.05"/>
<polygon fill="midnightblue" stroke="midnightblue" points="1273.18,-384.23 1281.37,-377.52 1270.78,-377.66 1273.18,-384.23"/>
</g>
<!-- Node43 -->
<g id="node38" class="node">
<title>Node43</title>
<g id="a_node38"><a xlink:title=" ">
<polygon fill="white" stroke="#bfbfbf" points="1351.21,-358.5 1351.21,-377.5 1398.21,-377.5 1398.21,-358.5 1351.21,-358.5"/>
<text text-anchor="middle" x="1374.71" y="-365.5" font-family="Helvetica,sans-Serif" font-size="10.00">cmath</text>
</a>
</g>
</g>
<!-- Node26&#45;&gt;Node43 -->
<g id="edge48" class="edge">
<title>Node26&#45;&gt;Node43</title>
<path fill="none" stroke="midnightblue" d="M1192.94,-414.5C1228.25,-406.15 1283.7,-392.85 1340.98,-378.13"/>
<polygon fill="midnightblue" stroke="midnightblue" points="1342.13,-381.45 1350.94,-375.57 1340.38,-374.67 1342.13,-381.45"/>
</g>
<!-- Node44 -->
<g id="node39" class="node">
<title>Node44</title>
<g id="a_node39"><a xlink:title=" ">
<polygon fill="white" stroke="#bfbfbf" points="1416.21,-358.5 1416.21,-377.5 1481.21,-377.5 1481.21,-358.5 1416.21,-358.5"/>
<text text-anchor="middle" x="1448.71" y="-365.5" font-family="Helvetica,sans-Serif" font-size="10.00">functional</text>
</a>
</g>
</g>
<!-- Node26&#45;&gt;Node44 -->
<g id="edge50" class="edge">
<title>Node26&#45;&gt;Node44</title>
<path fill="none" stroke="midnightblue" d="M1207.78,-414.44C1256.39,-406.16 1331.85,-392.96 1406.07,-378.27"/>
<polygon fill="midnightblue" stroke="midnightblue" points="1406.94,-381.67 1416.06,-376.29 1405.57,-374.8 1406.94,-381.67"/>
</g>
<!-- Node45 -->
<g id="node40" class="node">
<title>Node45</title>
<g id="a_node40"><a xlink:title=" ">
<polygon fill="white" stroke="#bfbfbf" points="1499.71,-358.5 1499.71,-377.5 1585.71,-377.5 1585.71,-358.5 1499.71,-358.5"/>
<text text-anchor="middle" x="1542.71" y="-365.5" font-family="Helvetica,sans-Serif" font-size="10.00">shared_mutex</text>
</a>
</g>
</g>
<!-- Node26&#45;&gt;Node45 -->
<g id="edge52" class="edge">
<title>Node26&#45;&gt;Node45</title>
<path fill="none" stroke="midnightblue" d="M1219.29,-415.28C1284.32,-407.1 1389.27,-393.44 1489.6,-378.12"/>
<polygon fill="midnightblue" stroke="midnightblue" points="1490.25,-381.57 1499.6,-376.59 1489.19,-374.65 1490.25,-381.57"/>
</g>
<!-- Node46 -->
<g id="node41" class="node">
<title>Node46</title>
<g id="a_node41"><a xlink:title=" ">
<polygon fill="white" stroke="#bfbfbf" points="1579.21,-230 1579.21,-249 1624.21,-249 1624.21,-230 1579.21,-230"/>
<text text-anchor="middle" x="1601.71" y="-237" font-family="Helvetica,sans-Serif" font-size="10.00">utility</text>
</a>
</g>
</g>
<!-- Node26&#45;&gt;Node46 -->
<g id="edge54" class="edge">
<title>Node26&#45;&gt;Node46</title>
<path fill="none" stroke="midnightblue" d="M1219.3,-423.52C1377.35,-424.19 1782.97,-421.58 1823.71,-378 1886.54,-310.78 1710.22,-263.72 1634.45,-247.11"/>
<polygon fill="midnightblue" stroke="midnightblue" points="1634.97,-243.64 1624.46,-244.97 1633.51,-250.48 1634.97,-243.64"/>
</g>
<!-- Node47 -->
<g id="node42" class="node">
<title>Node47</title>
<g id="a_node42"><a xlink:title=" ">
<polygon fill="white" stroke="#bfbfbf" points="1717.21,-358.5 1717.21,-377.5 1764.21,-377.5 1764.21,-358.5 1717.21,-358.5"/>
<text text-anchor="middle" x="1740.71" y="-365.5" font-family="Helvetica,sans-Serif" font-size="10.00">vector</text>
</a>
</g>
</g>
<!-- Node26&#45;&gt;Node47 -->
<g id="edge55" class="edge">
<title>Node26&#45;&gt;Node47</title>
<path fill="none" stroke="midnightblue" d="M1219.3,-421.82C1320.33,-419.05 1525.57,-409.88 1707.07,-377.98"/>
<polygon fill="midnightblue" stroke="midnightblue" points="1707.83,-381.4 1717.06,-376.2 1706.6,-374.51 1707.83,-381.4"/>
</g>
<!-- Node48 -->
<g id="node43" class="node">
<title>Node48</title>
<g id="a_node43"><a xlink:title=" ">
<polygon fill="white" stroke="#bfbfbf" points="1782.71,-358.5 1782.71,-377.5 1814.71,-377.5 1814.71,-358.5 1782.71,-358.5"/>
<text text-anchor="middle" x="1798.71" y="-365.5" font-family="Helvetica,sans-Serif" font-size="10.00">list</text>
</a>
</g>
</g>
<!-- Node26&#45;&gt;Node48 -->
<g id="edge56" class="edge">
<title>Node26&#45;&gt;Node48</title>
<path fill="none" stroke="midnightblue" d="M1219.31,-420.6C1350.51,-415.23 1651.49,-401.03 1772.39,-377.63"/>
<polygon fill="midnightblue" stroke="midnightblue" points="1773.4,-380.99 1782.49,-375.56 1771.99,-374.14 1773.4,-380.99"/>
</g>
<!-- Node49 -->
<g id="node44" class="node">
<title>Node49</title>
<g id="a_node44"><a xlink:href="mpi__lock_8hpp.html" target="_top" xlink:title="Declaration of MPI lock.">
<polygon fill="white" stroke="black" points="244.71,-358.5 244.71,-377.5 326.71,-377.5 326.71,-358.5 244.71,-358.5"/>
<text text-anchor="middle" x="285.71" y="-365.5" font-family="Helvetica,sans-Serif" font-size="10.00">mpi_lock.hpp</text>
</a>
</g>
</g>
<!-- Node26&#45;&gt;Node49 -->
<g id="edge58" class="edge">
<title>Node26&#45;&gt;Node49</title>
<path fill="none" stroke="midnightblue" d="M1094.08,-421.83C957.09,-418.77 620.69,-408.54 340.71,-378 339.44,-377.86 338.15,-377.71 336.86,-377.56"/>
<polygon fill="midnightblue" stroke="midnightblue" points="337.17,-374.07 326.79,-376.22 336.24,-381.01 337.17,-374.07"/>
</g>
<!-- Node50 -->
<g id="node45" class="node">
<title>Node50</title>
<g id="a_node45"><a xlink:href="write__buffer_8hpp.html" target="_top" xlink:title="This file provides an interface for the ArgoDSM write buffer.">
<polygon fill="white" stroke="black" points="1604.21,-358.5 1604.21,-377.5 1699.21,-377.5 1699.21,-358.5 1604.21,-358.5"/>
<text text-anchor="middle" x="1651.71" y="-365.5" font-family="Helvetica,sans-Serif" font-size="10.00">write_buffer.hpp</text>
</a>
</g>
</g>
<!-- Node26&#45;&gt;Node50 -->
<g id="edge61" class="edge">
<title>Node26&#45;&gt;Node50</title>
<path fill="none" stroke="midnightblue" d="M1219.22,-417.09C1302.87,-409.41 1455.52,-394.95 1585.71,-378 1588.37,-377.65 1591.09,-377.28 1593.85,-376.89"/>
<polygon fill="midnightblue" stroke="midnightblue" points="1594.53,-380.33 1603.92,-375.43 1593.52,-373.4 1594.53,-380.33"/>
</g>
<!-- Node49&#45;&gt;Node2 -->
<g id="edge59" class="edge">
<title>Node49&#45;&gt;Node2</title>
<path fill="none" stroke="midnightblue" d="M293.16,-358.48C301.04,-349.46 313.66,-335.02 323.46,-323.81"/>
<polygon fill="midnightblue" stroke="midnightblue" points="326.33,-325.84 330.28,-316.01 321.06,-321.24 326.33,-325.84"/>
</g>
<!-- Node49&#45;&gt;Node33 -->
<g id="edge60" class="edge">
<title>Node49&#45;&gt;Node33</title>
<path fill="none" stroke="midnightblue" d="M278.12,-358.48C270.01,-349.37 256.98,-334.74 246.95,-323.48"/>
<polygon fill="midnightblue" stroke="midnightblue" points="249.56,-321.15 240.29,-316.01 244.33,-325.8 249.56,-321.15"/>
</g>
<!-- Node50&#45;&gt;Node2 -->
<g id="edge62" class="edge">
<title>Node50&#45;&gt;Node2</title>
<path fill="none" stroke="midnightblue" d="M1604.18,-359.07C1600.98,-358.67 1597.8,-358.31 1594.71,-358 1109.62,-310.12 514.95,-307.34 370.47,-307.42"/>
<polygon fill="midnightblue" stroke="midnightblue" points="370.1,-303.92 360.1,-307.43 370.1,-310.92 370.1,-303.92"/>
</g>
<!-- Node50&#45;&gt;Node4 -->
<g id="edge63" class="edge">
<title>Node50&#45;&gt;Node4</title>
<path fill="none" stroke="midnightblue" d="M1604.18,-359.02C1600.98,-358.63 1597.8,-358.28 1594.71,-358 973.54,-301.24 814.03,-364.35 191.71,-322 162.02,-319.98 128.68,-316.27 103.06,-313.11"/>
<polygon fill="midnightblue" stroke="midnightblue" points="103.3,-309.61 92.94,-311.84 102.43,-316.56 103.3,-309.61"/>
</g>
<!-- Node50&#45;&gt;Node5 -->
<g id="edge64" class="edge">
<title>Node50&#45;&gt;Node5</title>
<path fill="none" stroke="midnightblue" d="M1686.67,-358.48C1732.98,-347.18 1814.2,-327.38 1860.59,-316.06"/>
<polygon fill="midnightblue" stroke="midnightblue" points="1861.6,-319.42 1870.49,-313.65 1859.94,-312.62 1861.6,-319.42"/>
</g>
<!-- Node50&#45;&gt;Node7 -->
<g id="edge70" class="edge">
<title>Node50&#45;&gt;Node7</title>
<path fill="none" stroke="midnightblue" d="M1699.47,-359.39C1772.93,-347.66 1907.53,-326.09 1929.71,-322 1936.35,-320.78 1943.34,-319.42 1950.21,-318.03"/>
<polygon fill="midnightblue" stroke="midnightblue" points="1951.06,-321.43 1960.16,-316.01 1949.66,-314.57 1951.06,-321.43"/>
</g>
<!-- Node50&#45;&gt;Node17 -->
<g id="edge71" class="edge">
<title>Node50&#45;&gt;Node17</title>
<path fill="none" stroke="midnightblue" d="M1653.34,-358.2C1657.3,-334.02 1664.93,-265.64 1633.71,-224 1609.59,-191.83 1581.02,-214.43 1550.71,-188 1528.77,-168.86 1528.81,-158.49 1516.71,-132 1505.85,-108.22 1503.55,-101.69 1498.71,-76 1495.83,-60.7 1494.89,-43.06 1494.64,-30.02"/>
<polygon fill="midnightblue" stroke="midnightblue" points="1498.14,-29.89 1494.56,-19.92 1491.14,-29.94 1498.14,-29.89"/>
</g>
<!-- Node50&#45;&gt;Node22 -->
<g id="edge67" class="edge">
<title>Node50&#45;&gt;Node22</title>
<path fill="none" stroke="midnightblue" d="M1665.65,-358.41C1695.05,-340.16 1765.33,-295.86 1821.71,-255 1839.64,-242.01 1841.82,-235.55 1860.71,-224 1945.23,-172.35 1999.32,-207.27 2063.71,-132 2074.76,-119.08 2079.07,-99.91 2080.73,-85.73"/>
<polygon fill="midnightblue" stroke="midnightblue" points="2084.22,-85.9 2081.56,-75.65 2077.25,-85.32 2084.22,-85.9"/>
</g>
<!-- Node50&#45;&gt;Node26 -->
<g id="edge69" class="edge">
<title>Node50&#45;&gt;Node26</title>
<path fill="none" stroke="midnightblue" d="M1607.32,-377.52C1606.11,-377.68 1604.9,-377.84 1603.71,-378 1472.46,-395.09 1318.39,-409.65 1229.63,-417.28"/>
<polygon fill="midnightblue" stroke="midnightblue" points="1229.06,-413.82 1219.4,-418.15 1229.66,-420.79 1229.06,-413.82"/>
</g>
<!-- Node50&#45;&gt;Node46 -->
<g id="edge68" class="edge">
<title>Node50&#45;&gt;Node46</title>
<path fill="none" stroke="midnightblue" d="M1648.27,-358.31C1640.21,-337.9 1619.93,-286.6 1608.99,-258.91"/>
<polygon fill="midnightblue" stroke="midnightblue" points="1612.1,-257.27 1605.17,-249.26 1605.59,-259.84 1612.1,-257.27"/>
</g>
<!-- Node51 -->
<g id="node46" class="node">
<title>Node51</title>
<g id="a_node46"><a xlink:title=" ">
<polygon fill="white" stroke="#bfbfbf" points="1418.21,-297 1418.21,-316 1465.21,-316 1465.21,-297 1418.21,-297"/>
<text text-anchor="middle" x="1441.71" y="-304" font-family="Helvetica,sans-Serif" font-size="10.00">deque</text>
</a>
</g>
</g>
<!-- Node50&#45;&gt;Node51 -->
<g id="edge65" class="edge">
<title>Node50&#45;&gt;Node51</title>
<path fill="none" stroke="midnightblue" d="M1610.02,-358.44C1573.78,-350.52 1520.13,-337.63 1474.71,-322 1472.85,-321.36 1470.94,-320.66 1469.04,-319.92"/>
<polygon fill="midnightblue" stroke="midnightblue" points="1470.23,-316.62 1459.65,-316.02 1467.55,-323.09 1470.23,-316.62"/>
</g>
<!-- Node52 -->
<g id="node47" class="node">
<title>Node52</title>
<g id="a_node47"><a xlink:title=" ">
<polygon fill="white" stroke="#bfbfbf" points="1483.21,-297 1483.21,-316 1536.21,-316 1536.21,-297 1483.21,-297"/>
<text text-anchor="middle" x="1509.71" y="-304" font-family="Helvetica,sans-Serif" font-size="10.00">iterator</text>
</a>
</g>
</g>
<!-- Node50&#45;&gt;Node52 -->
<g id="edge66" class="edge">
<title>Node50&#45;&gt;Node52</title>
<path fill="none" stroke="midnightblue" d="M1631.37,-358.48C1607.32,-348.4 1567.11,-331.55 1539.55,-320"/>
<polygon fill="midnightblue" stroke="midnightblue" points="1540.59,-316.65 1530.02,-316.01 1537.89,-323.1 1540.59,-316.65"/>
</g>
<!-- Node53 -->
<g id="node48" class="node">
<title>Node53</title>
<g id="a_node48"><a xlink:title=" ">
<polygon fill="white" stroke="#bfbfbf" points="1554.71,-297 1554.71,-316 1604.71,-316 1604.71,-297 1554.71,-297"/>
<text text-anchor="middle" x="1579.71" y="-304" font-family="Helvetica,sans-Serif" font-size="10.00">qd.hpp</text>
</a>
</g>
</g>
<!-- Node50&#45;&gt;Node53 -->
<g id="edge72" class="edge">
<title>Node50&#45;&gt;Node53</title>
<path fill="none" stroke="midnightblue" d="M1641.4,-358.48C1630.06,-349.11 1611.64,-333.88 1597.87,-322.51"/>
<polygon fill="midnightblue" stroke="midnightblue" points="1599.95,-319.68 1590.01,-316.01 1595.49,-325.08 1599.95,-319.68"/>
</g>
<!-- Node54 -->
<g id="node49" class="node">
<title>Node54</title>
<g id="a_node49"><a xlink:href="virtual__memory_8hpp.html" target="_top" xlink:title="This file provides facilities for handling virtual memory and virtual address space.">
<polygon fill="white" stroke="black" points="1271.21,-291.5 1271.21,-321.5 1400.21,-321.5 1400.21,-291.5 1271.21,-291.5"/>
<text text-anchor="start" x="1279.21" y="-309.5" font-family="Helvetica,sans-Serif" font-size="10.00">virtual_memory/virtual</text>
<text text-anchor="middle" x="1335.71" y="-298.5" font-family="Helvetica,sans-Serif" font-size="10.00">_memory.hpp</text>
</a>
</g>
</g>
<!-- Node50&#45;&gt;Node54 -->
<g id="edge73" class="edge">
<title>Node50&#45;&gt;Node54</title>
<path fill="none" stroke="midnightblue" d="M1604.84,-358.42C1558.17,-349.85 1484.2,-336.18 1410.24,-322.09"/>
<polygon fill="midnightblue" stroke="midnightblue" points="1410.76,-318.63 1400.28,-320.19 1409.45,-325.5 1410.76,-318.63"/>
</g>
<!-- Node54&#45;&gt;Node46 -->
<g id="edge74" class="edge">
<title>Node54&#45;&gt;Node46</title>
<path fill="none" stroke="midnightblue" d="M1393.1,-291.48C1446.97,-278.31 1525.62,-259.09 1569.35,-248.41"/>
<polygon fill="midnightblue" stroke="midnightblue" points="1570.28,-251.78 1579.16,-246.01 1568.61,-244.98 1570.28,-251.78"/>
</g>
<!-- Node55&#45;&gt;Node19 -->
<g id="edge76" class="edge">
<title>Node55&#45;&gt;Node19</title>
<path fill="none" stroke="midnightblue" d="M2265.58,-168.08C2247.4,-141.61 2193.57,-63.21 2169.53,-28.21"/>
<polygon fill="midnightblue" stroke="midnightblue" points="2172.14,-25.83 2163.6,-19.57 2166.37,-29.79 2172.14,-25.83"/>
</g>
</g>
</svg>
