<?xml version="1.0" encoding="UTF-8" standalone="no"?>
<!DOCTYPE svg PUBLIC "-//W3C//DTD SVG 1.1//EN"
 "http://www.w3.org/Graphics/SVG/1.1/DTD/svg11.dtd">
<!-- Generated by graphviz version 2.43.0 (0)
 -->
<!-- Title: fitting_mpi_float Pages: 1 -->
<svg width="426pt" height="57pt"
 viewBox="0.00 0.00 426.00 57.00" xmlns="http://www.w3.org/2000/svg" xmlns:xlink="http://www.w3.org/1999/xlink">
<g id="graph0" class="graph" transform="scale(1 1) rotate(0) translate(4 53)">
<title>fitting_mpi_float</title>
<polygon fill="white" stroke="transparent" points="-4,4 -4,-53 422,-53 422,4 -4,4"/>
<!-- Node1 -->
<g id="node1" class="node">
<title>Node1</title>
<g id="a_node1"><a xlink:title="Returns an MPI floating point type that exactly matches in size the argument given.">
<polygon fill="#bfbfbf" stroke="black" points="322,-6 322,-25 418,-25 418,-6 322,-6"/>
<text text-anchor="middle" x="370" y="-13" font-family="Helvetica,sans-Serif" font-size="10.00">fitting_mpi_float</text>
</a>
</g>
</g>
<!-- Node2 -->
<g id="node2" class="node">
<title>Node2</title>
<g id="a_node2"><a xlink:href="backend_8hpp_a62d5f2da9f560d2d8a956be88861af7b.html#a62d5f2da9f560d2d8a956be88861af7b" target="_top" xlink:title="Backend internal type erased atomic (post)increment function for floating point numbers.">
<polygon fill="white" stroke="black" points="161,-0.5 161,-30.5 286,-30.5 286,-0.5 161,-0.5"/>
<text text-anchor="start" x="169" y="-18.5" font-family="Helvetica,sans-Serif" font-size="10.00">argo::backend::atomic</text>
<text text-anchor="middle" x="223.5" y="-7.5" font-family="Helvetica,sans-Serif" font-size="10.00">::_fetch_add_float</text>
</a>
</g>
</g>
<!-- Node1&#45;&gt;Node2 -->
<g id="edge1" class="edge">
<title>Node1&#45;&gt;Node2</title>
<path fill="none" stroke="midnightblue" d="M311.63,-15.5C303.25,-15.5 294.59,-15.5 286.13,-15.5"/>
<polygon fill="midnightblue" stroke="midnightblue" points="311.69,-19 321.69,-15.5 311.69,-12 311.69,-19"/>
</g>
<!-- Node2&#45;&gt;Node2 -->
<g id="edge2" class="edge">
<title>Node2&#45;&gt;Node2</title>
<path fill="none" stroke="midnightblue" d="M249.44,-40.96C246.22,-45.68 237.58,-49 223.5,-49 200.4,-49 191.92,-40.06 198.06,-30.66"/>
<polygon fill="midnightblue" stroke="midnightblue" points="252.92,-40.48 248.94,-30.66 245.93,-40.82 252.92,-40.48"/>
</g>
<!-- Node3 -->
<g id="node3" class="node">
<title>Node3</title>
<g id="a_node3"><a xlink:href="backend_8hpp_afd1987dffd4e9100c88c457234f64a52.html#afd1987dffd4e9100c88c457234f64a52" target="_top" xlink:title="Atomic fetch and add operation on a global address.">
<polygon fill="white" stroke="black" points="0,-0.5 0,-30.5 125,-30.5 125,-0.5 0,-0.5"/>
<text text-anchor="start" x="8" y="-18.5" font-family="Helvetica,sans-Serif" font-size="10.00">argo::backend::atomic</text>
<text text-anchor="middle" x="62.5" y="-7.5" font-family="Helvetica,sans-Serif" font-size="10.00">::fetch_add</text>
</a>
</g>
</g>
<!-- Node2&#45;&gt;Node3 -->
<g id="edge3" class="edge">
<title>Node2&#45;&gt;Node3</title>
<path fill="none" stroke="midnightblue" d="M150.41,-15.5C142.01,-15.5 133.5,-15.5 125.26,-15.5"/>
<polygon fill="midnightblue" stroke="midnightblue" points="150.57,-19 160.57,-15.5 150.57,-12 150.57,-19"/>
</g>
<!-- Node3&#45;&gt;Node3 -->
<g id="edge4" class="edge">
<title>Node3&#45;&gt;Node3</title>
<path fill="none" stroke="midnightblue" d="M90.93,-40.96C87.4,-45.68 77.92,-49 62.5,-49 37.19,-49 27.89,-40.06 34.62,-30.66"/>
<polygon fill="midnightblue" stroke="midnightblue" points="94.41,-40.46 90.38,-30.66 87.42,-40.83 94.41,-40.46"/>
</g>
</g>
</svg>
