<?xml version="1.0" encoding="UTF-8" standalone="no"?>
<!DOCTYPE svg PUBLIC "-//W3C//DTD SVG 1.1//EN"
 "http://www.w3.org/Graphics/SVG/1.1/DTD/svg11.dtd">
<!-- Generated by graphviz version 2.43.0 (0)
 -->
<!-- Title: argo::backend::atomic::_fetch_add Pages: 1 -->
<svg width="611pt" height="241pt"
 viewBox="0.00 0.00 611.00 241.00" xmlns="http://www.w3.org/2000/svg" xmlns:xlink="http://www.w3.org/1999/xlink">
<g id="graph0" class="graph" transform="scale(1 1) rotate(0) translate(4 237)">
<title>argo::backend::atomic::_fetch_add</title>
<polygon fill="white" stroke="transparent" points="-4,4 -4,-237 607,-237 607,4 -4,4"/>
<!-- Node1 -->
<g id="node1" class="node">
<title>Node1</title>
<g id="a_node1"><a xlink:title="Atomic fetch&amp;add for the MPI backend (for internal usage)">
<polygon fill="#bfbfbf" stroke="black" points="0,-110 0,-140 125,-140 125,-110 0,-110"/>
<text text-anchor="start" x="8" y="-128" font-family="Helvetica,sans-Serif" font-size="10.00">argo::backend::atomic</text>
<text text-anchor="middle" x="62.5" y="-117" font-family="Helvetica,sans-Serif" font-size="10.00">::_fetch_add</text>
</a>
</g>
</g>
<!-- Node1&#45;&gt;Node1 -->
<g id="edge1" class="edge">
<title>Node1&#45;&gt;Node1</title>
<path fill="none" stroke="midnightblue" d="M34.27,-140.16C27.46,-149.56 36.87,-158.5 62.5,-158.5 78.12,-158.5 87.71,-155.18 91.29,-150.46"/>
<polygon fill="midnightblue" stroke="midnightblue" points="94.76,-149.96 90.73,-140.16 87.77,-150.33 94.76,-149.96"/>
</g>
<!-- Node2 -->
<g id="node2" class="node">
<title>Node2</title>
<g id="a_node2"><a xlink:href="swdsm_8cpp_af5bb31046df1aef1cccf72f19fe63640.html#af5bb31046df1aef1cccf72f19fe63640" target="_top" xlink:title="Gets the data window index based on the offset into the node&#39;s backing store.">
<polygon fill="white" stroke="black" points="167.5,-213.5 167.5,-232.5 281.5,-232.5 281.5,-213.5 167.5,-213.5"/>
<text text-anchor="middle" x="224.5" y="-220.5" font-family="Helvetica,sans-Serif" font-size="10.00">get_data_win_index</text>
</a>
</g>
</g>
<!-- Node1&#45;&gt;Node2 -->
<g id="edge2" class="edge">
<title>Node1&#45;&gt;Node2</title>
<path fill="none" stroke="midnightblue" d="M78.36,-140.19C96.41,-157.84 128.48,-186.74 161,-204 165.22,-206.24 169.75,-208.26 174.37,-210.07"/>
<polygon fill="midnightblue" stroke="midnightblue" points="173.3,-213.41 183.9,-213.49 175.67,-206.82 173.3,-213.41"/>
</g>
<!-- Node3 -->
<g id="node3" class="node">
<title>Node3</title>
<g id="a_node3"><a xlink:href="swdsm_8cpp_a3f19b1fc7fe36a6eabdae48e53fb66fa.html#a3f19b1fc7fe36a6eabdae48e53fb66fa" target="_top" xlink:title="Gets the sharer window offset based on the classification index.">
<polygon fill="white" stroke="black" points="167,-175.5 167,-194.5 282,-194.5 282,-175.5 167,-175.5"/>
<text text-anchor="middle" x="224.5" y="-182.5" font-family="Helvetica,sans-Serif" font-size="10.00">get_data_win_offset</text>
</a>
</g>
</g>
<!-- Node1&#45;&gt;Node3 -->
<g id="edge3" class="edge">
<title>Node1&#45;&gt;Node3</title>
<path fill="none" stroke="midnightblue" d="M97,-140.1C115.66,-148.24 139.41,-158.2 161,-166 167.09,-168.2 173.57,-170.36 179.97,-172.4"/>
<polygon fill="midnightblue" stroke="midnightblue" points="179.29,-175.85 189.88,-175.47 181.37,-169.17 179.29,-175.85"/>
</g>
<!-- Node4 -->
<g id="node4" class="node">
<title>Node4</title>
<g id="a_node4"><a xlink:href="classmpi__lock_a67301b26c3bb28c746e164c9f531d21d.html#a67301b26c3bb28c746e164c9f531d21d" target="_top" xlink:title="acquire mpi_lock">
<polygon fill="white" stroke="black" points="181,-137.5 181,-156.5 268,-156.5 268,-137.5 181,-137.5"/>
<text text-anchor="middle" x="224.5" y="-144.5" font-family="Helvetica,sans-Serif" font-size="10.00">mpi_lock::lock</text>
</a>
</g>
</g>
<!-- Node1&#45;&gt;Node4 -->
<g id="edge4" class="edge">
<title>Node1&#45;&gt;Node4</title>
<path fill="none" stroke="midnightblue" d="M125.36,-133.51C140.22,-135.55 155.96,-137.71 170.38,-139.7"/>
<polygon fill="midnightblue" stroke="midnightblue" points="170.24,-143.21 180.62,-141.1 171.19,-136.27 170.24,-143.21"/>
</g>
<!-- Node5 -->
<g id="node5" class="node">
<title>Node5</title>
<g id="a_node5"><a xlink:href="classargo_1_1data__distribution_1_1global__ptr_ac7d651586337d08cda18ef26ffcd34a0.html#ac7d651586337d08cda18ef26ffcd34a0" target="_top" xlink:title="return the home node of the value pointed to">
<polygon fill="white" stroke="black" points="161,-88 161,-118 288,-118 288,-88 161,-88"/>
<text text-anchor="start" x="169" y="-106" font-family="Helvetica,sans-Serif" font-size="10.00">argo::data_distribution</text>
<text text-anchor="middle" x="224.5" y="-95" font-family="Helvetica,sans-Serif" font-size="10.00">::global_ptr::node</text>
</a>
</g>
</g>
<!-- Node1&#45;&gt;Node5 -->
<g id="edge5" class="edge">
<title>Node1&#45;&gt;Node5</title>
<path fill="none" stroke="midnightblue" d="M125.36,-116.49C133.7,-115.35 142.32,-114.16 150.83,-112.99"/>
<polygon fill="midnightblue" stroke="midnightblue" points="151.32,-116.46 160.75,-111.63 150.36,-109.52 151.32,-116.46"/>
</g>
<!-- Node8 -->
<g id="node8" class="node">
<title>Node8</title>
<g id="a_node8"><a xlink:href="classargo_1_1data__distribution_1_1global__ptr_ad8c21c408fa2b926cfd9acfd87e8e4e6.html#ad8c21c408fa2b926cfd9acfd87e8e4e6" target="_top" xlink:title="return the offset on the home node&#39;s local memory share">
<polygon fill="white" stroke="black" points="161,-39 161,-69 288,-69 288,-39 161,-39"/>
<text text-anchor="start" x="169" y="-57" font-family="Helvetica,sans-Serif" font-size="10.00">argo::data_distribution</text>
<text text-anchor="middle" x="224.5" y="-46" font-family="Helvetica,sans-Serif" font-size="10.00">::global_ptr::offset</text>
</a>
</g>
</g>
<!-- Node1&#45;&gt;Node8 -->
<g id="edge8" class="edge">
<title>Node1&#45;&gt;Node8</title>
<path fill="none" stroke="midnightblue" d="M94.46,-109.81C113.52,-100.6 138.52,-88.79 161,-79 165.64,-76.98 170.49,-74.93 175.36,-72.92"/>
<polygon fill="midnightblue" stroke="midnightblue" points="176.74,-76.13 184.67,-69.11 174.09,-69.65 176.74,-76.13"/>
</g>
<!-- Node9 -->
<g id="node9" class="node">
<title>Node9</title>
<g id="a_node9"><a xlink:href="classmpi__lock_a38cb3649cba54a2818810c444a8b475a.html#a38cb3649cba54a2818810c444a8b475a" target="_top" xlink:title="release mpi_lock">
<polygon fill="white" stroke="black" points="175,-0.5 175,-19.5 274,-19.5 274,-0.5 175,-0.5"/>
<text text-anchor="middle" x="224.5" y="-7.5" font-family="Helvetica,sans-Serif" font-size="10.00">mpi_lock::unlock</text>
</a>
</g>
</g>
<!-- Node1&#45;&gt;Node9 -->
<g id="edge10" class="edge">
<title>Node1&#45;&gt;Node9</title>
<path fill="none" stroke="midnightblue" d="M75.1,-109.95C91.89,-89.13 124.94,-51.67 161,-30 165.17,-27.49 169.7,-25.26 174.34,-23.29"/>
<polygon fill="midnightblue" stroke="midnightblue" points="175.87,-26.45 183.95,-19.6 173.36,-19.92 175.87,-26.45"/>
</g>
<!-- Node6 -->
<g id="node6" class="node">
<title>Node6</title>
<g id="a_node6"><a xlink:href="classargo_1_1data__distribution_1_1global__ptr_ae4353680349f6abbd2cf262dace8e2f2.html#ae4353680349f6abbd2cf262dace8e2f2" target="_top" xlink:title="return a pointer to the selected allocation policy">
<polygon fill="white" stroke="black" points="324,-63 324,-93 451,-93 451,-63 324,-63"/>
<text text-anchor="start" x="332" y="-81" font-family="Helvetica,sans-Serif" font-size="10.00">argo::data_distribution</text>
<text text-anchor="middle" x="387.5" y="-70" font-family="Helvetica,sans-Serif" font-size="10.00">::global_ptr::policy</text>
</a>
</g>
</g>
<!-- Node5&#45;&gt;Node6 -->
<g id="edge6" class="edge">
<title>Node5&#45;&gt;Node6</title>
<path fill="none" stroke="midnightblue" d="M288.21,-93.26C296.65,-91.95 305.36,-90.6 313.96,-89.26"/>
<polygon fill="midnightblue" stroke="midnightblue" points="314.62,-92.7 323.96,-87.71 313.54,-85.79 314.62,-92.7"/>
</g>
<!-- Node7 -->
<g id="node7" class="node">
<title>Node7</title>
<g id="a_node7"><a xlink:href="namespaceargo_1_1env_a25a08cb2d0d11432d640ec7173063339.html#a25a08cb2d0d11432d640ec7173063339" target="_top" xlink:title="get the allocation policy requested by environment variable">
<polygon fill="white" stroke="black" points="487,-63 487,-93 603,-93 603,-63 487,-63"/>
<text text-anchor="start" x="495" y="-81" font-family="Helvetica,sans-Serif" font-size="10.00">argo::env::allocation</text>
<text text-anchor="middle" x="545" y="-70" font-family="Helvetica,sans-Serif" font-size="10.00">_policy</text>
</a>
</g>
</g>
<!-- Node6&#45;&gt;Node7 -->
<g id="edge7" class="edge">
<title>Node6&#45;&gt;Node7</title>
<path fill="none" stroke="midnightblue" d="M451.3,-78C459.69,-78 468.32,-78 476.78,-78"/>
<polygon fill="midnightblue" stroke="midnightblue" points="476.99,-81.5 486.99,-78 476.99,-74.5 476.99,-81.5"/>
</g>
<!-- Node8&#45;&gt;Node6 -->
<g id="edge9" class="edge">
<title>Node8&#45;&gt;Node6</title>
<path fill="none" stroke="midnightblue" d="M288.21,-63.35C296.65,-64.61 305.36,-65.91 313.96,-67.19"/>
<polygon fill="midnightblue" stroke="midnightblue" points="313.56,-70.67 323.96,-68.68 314.59,-63.74 313.56,-70.67"/>
</g>
</g>
</svg>
