<?xml version="1.0" encoding="UTF-8" standalone="no"?>
<!DOCTYPE svg PUBLIC "-//W3C//DTD SVG 1.1//EN"
 "http://www.w3.org/Graphics/SVG/1.1/DTD/svg11.dtd">
<!-- Generated by graphviz version 2.43.0 (0)
 -->
<!-- Title: argo::backend::atomic::_fetch_add Pages: 1 -->
<svg width="455pt" height="191pt"
 viewBox="0.00 0.00 455.00 191.00" xmlns="http://www.w3.org/2000/svg" xmlns:xlink="http://www.w3.org/1999/xlink">
<g id="graph0" class="graph" transform="scale(1 1) rotate(0) translate(4 187)">
<title>argo::backend::atomic::_fetch_add</title>
<polygon fill="white" stroke="transparent" points="-4,4 -4,-187 451,-187 451,4 -4,4"/>
<!-- Node1 -->
<g id="node1" class="node">
<title>Node1</title>
<g id="a_node1"><a xlink:title="Atomic fetch&amp;add for the MPI backend (for internal usage)">
<polygon fill="#bfbfbf" stroke="black" points="322,-67.5 322,-97.5 447,-97.5 447,-67.5 322,-67.5"/>
<text text-anchor="start" x="330" y="-85.5" font-family="Helvetica,sans-Serif" font-size="10.00">argo::backend::atomic</text>
<text text-anchor="middle" x="384.5" y="-74.5" font-family="Helvetica,sans-Serif" font-size="10.00">::_fetch_add</text>
</a>
</g>
</g>
<!-- Node1&#45;&gt;Node1 -->
<g id="edge1" class="edge">
<title>Node1&#45;&gt;Node1</title>
<path fill="none" stroke="midnightblue" d="M412.93,-107.96C409.4,-112.68 399.92,-116 384.5,-116 359.19,-116 349.89,-107.06 356.62,-97.66"/>
<polygon fill="midnightblue" stroke="midnightblue" points="416.41,-107.46 412.38,-97.66 409.42,-107.83 416.41,-107.46"/>
</g>
<!-- Node2 -->
<g id="node2" class="node">
<title>Node2</title>
<g id="a_node2"><a xlink:href="backend_8hpp_a62d5f2da9f560d2d8a956be88861af7b.html#a62d5f2da9f560d2d8a956be88861af7b" target="_top" xlink:title="Backend internal type erased atomic (post)increment function for floating point numbers.">
<polygon fill="white" stroke="black" points="161,-134.5 161,-164.5 286,-164.5 286,-134.5 161,-134.5"/>
<text text-anchor="start" x="169" y="-152.5" font-family="Helvetica,sans-Serif" font-size="10.00">argo::backend::atomic</text>
<text text-anchor="middle" x="223.5" y="-141.5" font-family="Helvetica,sans-Serif" font-size="10.00">::_fetch_add_float</text>
</a>
</g>
</g>
<!-- Node1&#45;&gt;Node2 -->
<g id="edge2" class="edge">
<title>Node1&#45;&gt;Node2</title>
<path fill="none" stroke="midnightblue" d="M341.11,-101.67C324.06,-109.26 304.16,-117.95 286,-125.5 278.91,-128.45 271.32,-131.49 263.97,-134.39"/>
<polygon fill="midnightblue" stroke="midnightblue" points="342.56,-104.86 350.26,-97.59 339.7,-98.47 342.56,-104.86"/>
</g>
<!-- Node4 -->
<g id="node4" class="node">
<title>Node4</title>
<g id="a_node4"><a xlink:href="backend_8hpp_a42d4f07adf3b439564928f89022b74b5.html#a42d4f07adf3b439564928f89022b74b5" target="_top" xlink:title="Backend internal type erased atomic (post)increment function for signed integers.">
<polygon fill="white" stroke="black" points="161,-67.5 161,-97.5 286,-97.5 286,-67.5 161,-67.5"/>
<text text-anchor="start" x="169" y="-85.5" font-family="Helvetica,sans-Serif" font-size="10.00">argo::backend::atomic</text>
<text text-anchor="middle" x="223.5" y="-74.5" font-family="Helvetica,sans-Serif" font-size="10.00">::_fetch_add_int</text>
</a>
</g>
</g>
<!-- Node1&#45;&gt;Node4 -->
<g id="edge6" class="edge">
<title>Node1&#45;&gt;Node4</title>
<path fill="none" stroke="midnightblue" d="M311.41,-82.5C303.01,-82.5 294.5,-82.5 286.26,-82.5"/>
<polygon fill="midnightblue" stroke="midnightblue" points="311.57,-86 321.57,-82.5 311.57,-79 311.57,-86"/>
</g>
<!-- Node5 -->
<g id="node5" class="node">
<title>Node5</title>
<g id="a_node5"><a xlink:href="backend_8hpp_ab1a86cdd5235a54afdf0ac3d9f9f6f9c.html#ab1a86cdd5235a54afdf0ac3d9f9f6f9c" target="_top" xlink:title="Backend internal type erased atomic (post)increment function for unsigned integers.">
<polygon fill="white" stroke="black" points="161,-0.5 161,-30.5 286,-30.5 286,-0.5 161,-0.5"/>
<text text-anchor="start" x="169" y="-18.5" font-family="Helvetica,sans-Serif" font-size="10.00">argo::backend::atomic</text>
<text text-anchor="middle" x="223.5" y="-7.5" font-family="Helvetica,sans-Serif" font-size="10.00">::_fetch_add_uint</text>
</a>
</g>
</g>
<!-- Node1&#45;&gt;Node5 -->
<g id="edge9" class="edge">
<title>Node1&#45;&gt;Node5</title>
<path fill="none" stroke="midnightblue" d="M338.3,-63.45C313.59,-53.04 283.41,-40.32 260.34,-30.6"/>
<polygon fill="midnightblue" stroke="midnightblue" points="337.24,-66.81 347.82,-67.46 339.96,-60.36 337.24,-66.81"/>
</g>
<!-- Node2&#45;&gt;Node2 -->
<g id="edge3" class="edge">
<title>Node2&#45;&gt;Node2</title>
<path fill="none" stroke="midnightblue" d="M251.93,-174.96C248.4,-179.68 238.92,-183 223.5,-183 198.19,-183 188.89,-174.06 195.62,-164.66"/>
<polygon fill="midnightblue" stroke="midnightblue" points="255.41,-174.46 251.38,-164.66 248.42,-174.83 255.41,-174.46"/>
</g>
<!-- Node3 -->
<g id="node3" class="node">
<title>Node3</title>
<g id="a_node3"><a xlink:href="backend_8hpp_afd1987dffd4e9100c88c457234f64a52.html#afd1987dffd4e9100c88c457234f64a52" target="_top" xlink:title="Atomic fetch and add operation on a global address.">
<polygon fill="white" stroke="black" points="0,-67.5 0,-97.5 125,-97.5 125,-67.5 0,-67.5"/>
<text text-anchor="start" x="8" y="-85.5" font-family="Helvetica,sans-Serif" font-size="10.00">argo::backend::atomic</text>
<text text-anchor="middle" x="62.5" y="-74.5" font-family="Helvetica,sans-Serif" font-size="10.00">::fetch_add</text>
</a>
</g>
</g>
<!-- Node2&#45;&gt;Node3 -->
<g id="edge4" class="edge">
<title>Node2&#45;&gt;Node3</title>
<path fill="none" stroke="midnightblue" d="M173.66,-130.66C169.37,-128.94 165.1,-127.2 161,-125.5 139.47,-116.56 115.52,-106 96.74,-97.59"/>
<polygon fill="midnightblue" stroke="midnightblue" points="172.44,-133.95 183.03,-134.39 175.03,-127.44 172.44,-133.95"/>
</g>
<!-- Node3&#45;&gt;Node3 -->
<g id="edge5" class="edge">
<title>Node3&#45;&gt;Node3</title>
<path fill="none" stroke="midnightblue" d="M90.93,-107.96C87.4,-112.68 77.92,-116 62.5,-116 37.19,-116 27.89,-107.06 34.62,-97.66"/>
<polygon fill="midnightblue" stroke="midnightblue" points="94.41,-107.46 90.38,-97.66 87.42,-107.83 94.41,-107.46"/>
</g>
<!-- Node4&#45;&gt;Node3 -->
<g id="edge8" class="edge">
<title>Node4&#45;&gt;Node3</title>
<path fill="none" stroke="midnightblue" d="M150.41,-82.5C142.01,-82.5 133.5,-82.5 125.26,-82.5"/>
<polygon fill="midnightblue" stroke="midnightblue" points="150.57,-86 160.57,-82.5 150.57,-79 150.57,-86"/>
</g>
<!-- Node4&#45;&gt;Node4 -->
<g id="edge7" class="edge">
<title>Node4&#45;&gt;Node4</title>
<path fill="none" stroke="midnightblue" d="M251.93,-107.96C248.4,-112.68 238.92,-116 223.5,-116 198.19,-116 188.89,-107.06 195.62,-97.66"/>
<polygon fill="midnightblue" stroke="midnightblue" points="255.41,-107.46 251.38,-97.66 248.42,-107.83 255.41,-107.46"/>
</g>
<!-- Node5&#45;&gt;Node3 -->
<g id="edge11" class="edge">
<title>Node5&#45;&gt;Node3</title>
<path fill="none" stroke="midnightblue" d="M177.3,-34.55C152.59,-44.96 122.41,-57.68 99.34,-67.4"/>
<polygon fill="midnightblue" stroke="midnightblue" points="178.96,-37.64 186.82,-30.54 176.24,-31.19 178.96,-37.64"/>
</g>
<!-- Node5&#45;&gt;Node5 -->
<g id="edge10" class="edge">
<title>Node5&#45;&gt;Node5</title>
<path fill="none" stroke="midnightblue" d="M251.93,-40.96C248.4,-45.68 238.92,-49 223.5,-49 198.19,-49 188.89,-40.06 195.62,-30.66"/>
<polygon fill="midnightblue" stroke="midnightblue" points="255.41,-40.46 251.38,-30.66 248.42,-40.83 255.41,-40.46"/>
</g>
</g>
</svg>
