<?xml version="1.0" encoding="UTF-8" standalone="no"?>
<!DOCTYPE svg PUBLIC "-//W3C//DTD SVG 1.1//EN"
 "http://www.w3.org/Graphics/SVG/1.1/DTD/svg11.dtd">
<!-- Generated by graphviz version 2.43.0 (0)
 -->
<!-- Title: argo::get_block_size Pages: 1 -->
<svg width="276pt" height="66pt"
 viewBox="0.00 0.00 276.00 66.00" xmlns="http://www.w3.org/2000/svg" xmlns:xlink="http://www.w3.org/1999/xlink">
<g id="graph0" class="graph" transform="scale(1 1) rotate(0) translate(4 62)">
<title>argo::get_block_size</title>
<polygon fill="white" stroke="transparent" points="-4,4 -4,-62 272,-62 272,4 -4,4"/>
<!-- Node1 -->
<g id="node1" class="node">
<title>Node1</title>
<g id="a_node1"><a xlink:title="Get the block size of the current allocation policy.">
<polygon fill="#bfbfbf" stroke="black" points="152,-19.5 152,-38.5 268,-38.5 268,-19.5 152,-19.5"/>
<text text-anchor="middle" x="210" y="-26.5" font-family="Helvetica,sans-Serif" font-size="10.00">argo::get_block_size</text>
</a>
</g>
</g>
<!-- Node2 -->
<g id="node2" class="node">
<title>Node2</title>
<g id="a_node2"><a xlink:href="argo_8cpp_ad0931c5341a3b07302a3a019834280f6.html#ad0931c5341a3b07302a3a019834280f6" target="_top" xlink:title="Get the block size of the current allocation policy.">
<polygon fill="white" stroke="black" points="0,-38.5 0,-57.5 116,-57.5 116,-38.5 0,-38.5"/>
<text text-anchor="middle" x="58" y="-45.5" font-family="Helvetica,sans-Serif" font-size="10.00">argo_get_block_size</text>
</a>
</g>
</g>
<!-- Node1&#45;&gt;Node2 -->
<g id="edge1" class="edge">
<title>Node1&#45;&gt;Node2</title>
<path fill="none" stroke="midnightblue" d="M141.69,-37.53C133.27,-38.59 124.72,-39.68 116.47,-40.72"/>
<polygon fill="midnightblue" stroke="midnightblue" points="142.38,-40.97 151.86,-36.24 141.5,-34.02 142.38,-40.97"/>
</g>
<!-- Node3 -->
<g id="node3" class="node">
<title>Node3</title>
<g id="a_node3"><a xlink:href="api_8cpp_a42290e9787e669eb9618124225ff8010.html#a42290e9787e669eb9618124225ff8010" target="_top" xlink:title="Unittest that checks that argo::get_block_size() is consistent with argo::env::block_size() for all c...">
<polygon fill="white" stroke="black" points="32,-0.5 32,-19.5 84,-19.5 84,-0.5 32,-0.5"/>
<text text-anchor="middle" x="58" y="-7.5" font-family="Helvetica,sans-Serif" font-size="10.00">TEST_F</text>
</a>
</g>
</g>
<!-- Node1&#45;&gt;Node3 -->
<g id="edge2" class="edge">
<title>Node1&#45;&gt;Node3</title>
<path fill="none" stroke="midnightblue" d="M141.9,-20.5C121.4,-17.9 100.12,-15.21 84.25,-13.2"/>
<polygon fill="midnightblue" stroke="midnightblue" points="141.5,-23.98 151.86,-21.76 142.38,-17.03 141.5,-23.98"/>
</g>
</g>
</svg>
