<?xml version="1.0" encoding="UTF-8" standalone="no"?>
<!DOCTYPE svg PUBLIC "-//W3C//DTD SVG 1.1//EN"
 "http://www.w3.org/Graphics/SVG/1.1/DTD/svg11.dtd">
<!-- Generated by graphviz version 2.43.0 (0)
 -->
<!-- Title: argo::delete_ Pages: 1 -->
<svg width="574pt" height="39pt"
 viewBox="0.00 0.00 574.00 39.00" xmlns="http://www.w3.org/2000/svg" xmlns:xlink="http://www.w3.org/1999/xlink">
<g id="graph0" class="graph" transform="scale(1 1) rotate(0) translate(4 35)">
<title>argo::delete_</title>
<polygon fill="white" stroke="transparent" points="-4,4 -4,-35 570,-35 570,4 -4,4"/>
<!-- Node1 -->
<g id="node1" class="node">
<title>Node1</title>
<g id="a_node1"><a xlink:title="template function to delete objects that were allocated using dynamic_new">
<polygon fill="#bfbfbf" stroke="black" points="0,-6 0,-25 80,-25 80,-6 0,-6"/>
<text text-anchor="middle" x="40" y="-13" font-family="Helvetica,sans-Serif" font-size="10.00">argo::delete_</text>
</a>
</g>
</g>
<!-- Node2 -->
<g id="node2" class="node">
<title>Node2</title>
<g id="a_node2"><a xlink:href="src_2allocators_2allocators_8cpp_aedf7f793412ce612ef67c33098b25a8e.html#aedf7f793412ce612ef67c33098b25a8e" target="_top" xlink:title="basic free function for dynamic allocations, for C interface">
<polygon fill="white" stroke="black" points="116,-6 116,-25 199,-25 199,-6 116,-6"/>
<text text-anchor="middle" x="157.5" y="-13" font-family="Helvetica,sans-Serif" font-size="10.00">dynamic_free</text>
</a>
</g>
</g>
<!-- Node1&#45;&gt;Node2 -->
<g id="edge1" class="edge">
<title>Node1&#45;&gt;Node2</title>
<path fill="none" stroke="midnightblue" d="M80.1,-15.5C88.29,-15.5 97.04,-15.5 105.59,-15.5"/>
<polygon fill="midnightblue" stroke="midnightblue" points="105.86,-19 115.86,-15.5 105.86,-12 105.86,-19"/>
</g>
<!-- Node3 -->
<g id="node3" class="node">
<title>Node3</title>
<g id="a_node3"><a xlink:href="classargo_1_1allocators_1_1generic__allocator_ab98a25e383864eecd7d602f95c49c420.html#ab98a25e383864eecd7d602f95c49c420" target="_top" xlink:title="free an allocated pointer">
<polygon fill="white" stroke="black" points="235,-0.5 235,-30.5 369,-30.5 369,-0.5 235,-0.5"/>
<text text-anchor="start" x="243" y="-18.5" font-family="Helvetica,sans-Serif" font-size="10.00">argo::allocators::generic</text>
<text text-anchor="middle" x="302" y="-7.5" font-family="Helvetica,sans-Serif" font-size="10.00">_allocator::free</text>
</a>
</g>
</g>
<!-- Node2&#45;&gt;Node3 -->
<g id="edge2" class="edge">
<title>Node2&#45;&gt;Node3</title>
<path fill="none" stroke="midnightblue" d="M199.33,-15.5C207.31,-15.5 215.92,-15.5 224.63,-15.5"/>
<polygon fill="midnightblue" stroke="midnightblue" points="224.87,-19 234.87,-15.5 224.87,-12 224.87,-19"/>
</g>
<!-- Node4 -->
<g id="node4" class="node">
<title>Node4</title>
<g id="a_node4"><a xlink:href="classargo_1_1allocators_1_1generic__allocator_a83b1a04add59963243bfa60b48d58db4.html#a83b1a04add59963243bfa60b48d58db4" target="_top" xlink:title="helper function for deallocation">
<polygon fill="white" stroke="black" points="405,-0.5 405,-30.5 566,-30.5 566,-0.5 405,-0.5"/>
<text text-anchor="start" x="413" y="-18.5" font-family="Helvetica,sans-Serif" font-size="10.00">argo::allocators::generic</text>
<text text-anchor="middle" x="485.5" y="-7.5" font-family="Helvetica,sans-Serif" font-size="10.00">_allocator::deallocate_nosync</text>
</a>
</g>
</g>
<!-- Node3&#45;&gt;Node4 -->
<g id="edge3" class="edge">
<title>Node3&#45;&gt;Node4</title>
<path fill="none" stroke="midnightblue" d="M369.04,-15.5C377.42,-15.5 386.1,-15.5 394.77,-15.5"/>
<polygon fill="midnightblue" stroke="midnightblue" points="394.92,-19 404.92,-15.5 394.92,-12 394.92,-19"/>
</g>
</g>
</svg>
