<?xml version="1.0" encoding="UTF-8" standalone="no"?>
<!DOCTYPE svg PUBLIC "-//W3C//DTD SVG 1.1//EN"
 "http://www.w3.org/Graphics/SVG/1.1/DTD/svg11.dtd">
<!-- Generated by graphviz version 2.43.0 (0)
 -->
<!-- Title: argo::finalize Pages: 1 -->
<svg width="420pt" height="126pt"
 viewBox="0.00 0.00 420.00 126.00" xmlns="http://www.w3.org/2000/svg" xmlns:xlink="http://www.w3.org/1999/xlink">
<g id="graph0" class="graph" transform="scale(1 1) rotate(0) translate(4 122)">
<title>argo::finalize</title>
<polygon fill="white" stroke="transparent" points="-4,4 -4,-122 416,-122 416,4 -4,4"/>
<!-- Node1 -->
<g id="node1" class="node">
<title>Node1</title>
<g id="a_node1"><a xlink:title="shut down ArgoDSM system">
<polygon fill="#bfbfbf" stroke="black" points="332,-38.5 332,-57.5 412,-57.5 412,-38.5 332,-38.5"/>
<text text-anchor="middle" x="372" y="-45.5" font-family="Helvetica,sans-Serif" font-size="10.00">argo::finalize</text>
</a>
</g>
</g>
<!-- Node2 -->
<g id="node2" class="node">
<title>Node2</title>
<g id="a_node2"><a xlink:href="classargo_1_1mempools_1_1global__memory__pool_a2adeebf07ab9ba9ec2956dcf37f3abc3.html#a2adeebf07ab9ba9ec2956dcf37f3abc3" target="_top" xlink:title=" ">
<polygon fill="white" stroke="black" points="162,-76.5 162,-117.5 296,-117.5 296,-76.5 162,-76.5"/>
<text text-anchor="start" x="170" y="-105.5" font-family="Helvetica,sans-Serif" font-size="10.00">argo::mempools::global</text>
<text text-anchor="start" x="170" y="-94.5" font-family="Helvetica,sans-Serif" font-size="10.00">_memory_pool::~global</text>
<text text-anchor="middle" x="229" y="-83.5" font-family="Helvetica,sans-Serif" font-size="10.00">_memory_pool</text>
</a>
</g>
</g>
<!-- Node1&#45;&gt;Node2 -->
<g id="edge1" class="edge">
<title>Node1&#45;&gt;Node2</title>
<path fill="none" stroke="midnightblue" d="M333.95,-60.88C320.27,-65.63 304.4,-71.14 289.25,-76.41"/>
<polygon fill="midnightblue" stroke="midnightblue" points="335.18,-64.15 343.48,-57.56 332.88,-57.54 335.18,-64.15"/>
</g>
<!-- Node3 -->
<g id="node3" class="node">
<title>Node3</title>
<g id="a_node3"><a xlink:href="argo_8cpp_aa954d5e0bcaee69ff6e03e697bcaf68b.html#aa954d5e0bcaee69ff6e03e697bcaf68b" target="_top" xlink:title="shut down ArgoDSM system">
<polygon fill="white" stroke="black" points="189.5,-38.5 189.5,-57.5 268.5,-57.5 268.5,-38.5 189.5,-38.5"/>
<text text-anchor="middle" x="229" y="-45.5" font-family="Helvetica,sans-Serif" font-size="10.00">argo_finalize</text>
</a>
</g>
</g>
<!-- Node1&#45;&gt;Node3 -->
<g id="edge2" class="edge">
<title>Node1&#45;&gt;Node3</title>
<path fill="none" stroke="midnightblue" d="M321.24,-48C303.95,-48 284.83,-48 268.58,-48"/>
<polygon fill="midnightblue" stroke="midnightblue" points="321.72,-51.5 331.72,-48 321.72,-44.5 321.72,-51.5"/>
</g>
<!-- Node5 -->
<g id="node5" class="node">
<title>Node5</title>
<g id="a_node5"><a xlink:href="tests_2allocators_8cpp_a3c04138a5bfe5d72780bb7e82a18e627.html#a3c04138a5bfe5d72780bb7e82a18e627" target="_top" xlink:title="The main function that runs the tests.">
<polygon fill="white" stroke="black" points="208.5,-0.5 208.5,-19.5 249.5,-19.5 249.5,-0.5 208.5,-0.5"/>
<text text-anchor="middle" x="229" y="-7.5" font-family="Helvetica,sans-Serif" font-size="10.00">main</text>
</a>
</g>
</g>
<!-- Node1&#45;&gt;Node5 -->
<g id="edge4" class="edge">
<title>Node1&#45;&gt;Node5</title>
<path fill="none" stroke="midnightblue" d="M325.56,-35.75C300.02,-28.87 269.45,-20.63 249.88,-15.36"/>
<polygon fill="midnightblue" stroke="midnightblue" points="324.85,-39.19 335.42,-38.41 326.68,-32.43 324.85,-39.19"/>
</g>
<!-- Node4 -->
<g id="node4" class="node">
<title>Node4</title>
<g id="a_node4"><a xlink:href="backend_8hpp_a2f1a764c586ff7c03530e974dcd2d59c.html#a2f1a764c586ff7c03530e974dcd2d59c" target="_top" xlink:title="global memory space address">
<polygon fill="white" stroke="black" points="0,-38.5 0,-57.5 126,-57.5 126,-38.5 0,-38.5"/>
<text text-anchor="middle" x="63" y="-45.5" font-family="Helvetica,sans-Serif" font-size="10.00">argo::backend::finalize</text>
</a>
</g>
</g>
<!-- Node3&#45;&gt;Node4 -->
<g id="edge3" class="edge">
<title>Node3&#45;&gt;Node4</title>
<path fill="none" stroke="midnightblue" d="M179.12,-48C162.54,-48 143.79,-48 126.3,-48"/>
<polygon fill="midnightblue" stroke="midnightblue" points="179.13,-51.5 189.13,-48 179.13,-44.5 179.13,-51.5"/>
</g>
</g>
</svg>
