<?xml version="1.0" encoding="UTF-8" standalone="no"?>
<!DOCTYPE svg PUBLIC "-//W3C//DTD SVG 1.1//EN"
 "http://www.w3.org/Graphics/SVG/1.1/DTD/svg11.dtd">
<!-- Generated by graphviz version 2.43.0 (0)
 -->
<!-- Title: argo::number_of_nodes Pages: 1 -->
<!--zoomable 204 -->
<svg id="main" version="1.1" xmlns="http://www.w3.org/2000/svg" xmlns:xlink="http://www.w3.org/1999/xlink" xml:space="preserve" onload="init(evt)">
<style type="text/css"><![CDATA[
.edge:hover path { stroke: red; }
.edge:hover polygon { stroke: red; fill: red; }
]]></style>
<script type="text/javascript"><![CDATA[
var edges = document.getElementsByTagName('g');
if (edges && edges.length) {
  for (var i=0;i<edges.length;i++) {
    if (edges[i].id.substr(0,4)=='edge') {
      edges[i].setAttribute('class','edge');
    }
  }
}
]]></script>
        <defs>
                <circle id="rim" cx="0" cy="0" r="7"/>
                <circle id="rim2" cx="0" cy="0" r="3.5"/>
                <g id="zoomPlus">
                        <use xlink:href="#rim" fill="#404040">
                                <set attributeName="fill" to="#808080" begin="zoomplus.mouseover" end="zoomplus.mouseout"/>
                        </use>
                        <path d="M-4,0h8M0,-4v8" fill="none" stroke="white" stroke-width="1.5" pointer-events="none"/>
                </g>
                <g id="zoomMin">
                        <use xlink:href="#rim" fill="#404040">
                                <set attributeName="fill" to="#808080" begin="zoomminus.mouseover" end="zoomminus.mouseout"/>
                        </use>
                        <path d="M-4,0h8" fill="none" stroke="white" stroke-width="1.5" pointer-events="none"/>
                </g>
                <g id="dirArrow">
                        <path fill="none" stroke="white" stroke-width="1.5" d="M0,-3.0v7 M-2.5,-0.5L0,-3.0L2.5,-0.5"/>
                </g>
               <g id="resetDef">
                       <use xlink:href="#rim2" fill="#404040">
                               <set attributeName="fill" to="#808080" begin="reset.mouseover" end="reset.mouseout"/>
                       </use>
               </g>
        </defs>

<script type="text/javascript">
var viewWidth = 638;
var viewHeight = 204;
var sectionId = 'dynsection-0';
</script>
<script xlink:href="svgpan.js"/>
<svg id="graph" class="graph">
<g id="viewport">
<title>argo::number_of_nodes</title>
<polygon fill="white" stroke="transparent" points="-4,4 -4,-199.5 634,-199.5 634,4 -4,4"/>
<!-- Node1 -->
<g id="node1" class="node">
<title>Node1</title>
<g id="a_node1"><a xlink:title="Number of ArgoDSM nodes being run.">
<polygon fill="#bfbfbf" stroke="black" points="499,-82.5 499,-101.5 630,-101.5 630,-82.5 499,-82.5"/>
<text text-anchor="middle" x="564.5" y="-89.5" font-family="Helvetica,sans-Serif" font-size="10.00">argo::number_of_nodes</text>
</a>
</g>
</g>
<!-- Node2 -->
<g id="node2" class="node">
<title>Node2</title>
<g id="a_node2"><a xlink:href="classargo_1_1mempools_1_1global__memory__pool_a8158f23df9fd2ea2c603ad2e56635783.html#a8158f23df9fd2ea2c603ad2e56635783" target="_top" xlink:title="Default constructor: initializes memory on heap and sets offset to 0.">
<polygon fill="white" stroke="black" points="265,-165 265,-195 463,-195 463,-165 265,-165"/>
<text text-anchor="start" x="273" y="-183" font-family="Helvetica,sans-Serif" font-size="10.00">argo::mempools::global</text>
<text text-anchor="middle" x="364" y="-172" font-family="Helvetica,sans-Serif" font-size="10.00">_memory_pool::global_memory_pool</text>
</a>
</g>
</g>
<!-- Node1&#45;&gt;Node2 -->
<g id="edge1" class="edge">
<title>Node1&#45;&gt;Node2</title>
<path fill="none" stroke="midnightblue" d="M543.03,-107.51C523.42,-121.7 492.55,-142.34 463,-155 454.2,-158.77 444.71,-162.07 435.22,-164.92"/>
<polygon fill="midnightblue" stroke="midnightblue" points="545.22,-110.25 551.19,-101.5 541.07,-104.61 545.22,-110.25"/>
</g>
<!-- Node3 -->
<g id="node3" class="node">
<title>Node3</title>
<g id="a_node3"><a xlink:href="argo_8cpp_a9c392c7a4d9dd9c0e57814debefd9733.html#a9c392c7a4d9dd9c0e57814debefd9733" target="_top" xlink:title="Number of ArgoDSM nodes being run.">
<polygon fill="white" stroke="black" points="298.5,-126.5 298.5,-145.5 429.5,-145.5 429.5,-126.5 298.5,-126.5"/>
<text text-anchor="middle" x="364" y="-133.5" font-family="Helvetica,sans-Serif" font-size="10.00">argo_number_of_nodes</text>
</a>
</g>
</g>
<!-- Node1&#45;&gt;Node3 -->
<g id="edge2" class="edge">
<title>Node1&#45;&gt;Node3</title>
<path fill="none" stroke="midnightblue" d="M514.96,-103.93C498.49,-107.89 479.97,-112.24 463,-116 446.89,-119.57 429.25,-123.24 413.42,-126.45"/>
<polygon fill="midnightblue" stroke="midnightblue" points="516.01,-107.28 524.91,-101.53 514.37,-100.48 516.01,-107.28"/>
</g>
<!-- Node5 -->
<g id="node5" class="node">
<title>Node5</title>
<g id="a_node5"><a xlink:href="namespaceargo_1_1data__distribution_acc3c36c6299a0636d31774e216102de1.html#acc3c36c6299a0636d31774e216102de1" target="_top" xlink:title="based on the chosen policy, gets the required size we need to add to the standardisation of the ArgoD...">
<polygon fill="white" stroke="black" points="300.5,-77 300.5,-107 427.5,-107 427.5,-77 300.5,-77"/>
<text text-anchor="start" x="308.5" y="-95" font-family="Helvetica,sans-Serif" font-size="10.00">argo::data_distribution</text>
<text text-anchor="middle" x="364" y="-84" font-family="Helvetica,sans-Serif" font-size="10.00">::policy_padding</text>
</a>
</g>
</g>
<!-- Node1&#45;&gt;Node5 -->
<g id="edge4" class="edge">
<title>Node1&#45;&gt;Node5</title>
<path fill="none" stroke="midnightblue" d="M488.71,-92C468.57,-92 447,-92 427.61,-92"/>
<polygon fill="midnightblue" stroke="midnightblue" points="488.78,-95.5 498.78,-92 488.78,-88.5 488.78,-95.5"/>
</g>
<!-- Node8 -->
<g id="node8" class="node">
<title>Node8</title>
<g id="a_node8"><a xlink:href="tests_2allocators_8cpp_ac2d847d8ff00d834e2715e7bc92d5fa5.html#ac2d847d8ff00d834e2715e7bc92d5fa5" target="_top" xlink:title="Unittest that checks that allocating a few different sizes by all nodes dynamically.">
<polygon fill="white" stroke="black" points="338,-38.5 338,-57.5 390,-57.5 390,-38.5 338,-38.5"/>
<text text-anchor="middle" x="364" y="-45.5" font-family="Helvetica,sans-Serif" font-size="10.00">TEST_F</text>
</a>
</g>
</g>
<!-- Node1&#45;&gt;Node8 -->
<g id="edge7" class="edge">
<title>Node1&#45;&gt;Node8</title>
<path fill="none" stroke="midnightblue" d="M516.68,-79.81C499.81,-75.57 480.59,-70.89 463,-67 438.29,-61.54 409.89,-56.12 390.05,-52.48"/>
<polygon fill="midnightblue" stroke="midnightblue" points="516.3,-83.33 526.85,-82.39 518.02,-76.54 516.3,-83.33"/>
</g>
<!-- Node9 -->
<g id="node9" class="node">
<title>Node9</title>
<g id="a_node9"><a xlink:href="barrier_8cpp_a03ef2b2b4275df192876f1fc8943aadf.html#a03ef2b2b4275df192876f1fc8943aadf" target="_top" xlink:title="Unittest that checks that the barrier call works with multiple threads.">
<polygon fill="white" stroke="black" points="338,-0.5 338,-19.5 390,-19.5 390,-0.5 338,-0.5"/>
<text text-anchor="middle" x="364" y="-7.5" font-family="Helvetica,sans-Serif" font-size="10.00">TEST_P</text>
</a>
</g>
</g>
<!-- Node1&#45;&gt;Node9 -->
<g id="edge8" class="edge">
<title>Node1&#45;&gt;Node9</title>
<path fill="none" stroke="midnightblue" d="M543.51,-76.33C524.05,-61.86 493.07,-40.86 463,-29 439.3,-19.65 410.51,-14.77 390.28,-12.32"/>
<polygon fill="midnightblue" stroke="midnightblue" points="541.52,-79.22 551.6,-82.47 545.75,-73.64 541.52,-79.22"/>
</g>
<!-- Node4 -->
<g id="node4" class="node">
<title>Node4</title>
<g id="a_node4"><a xlink:href="omp_8cpp_a8dc8d62aec3b0b57259d2bca6ef6bf7e.html#a8dc8d62aec3b0b57259d2bca6ef6bf7e" target="_top" xlink:title="Unittest that checks that data written 1 OpenMP thread per node by all threads after an ArgoDSM barri...">
<polygon fill="white" stroke="black" points="160,-126.5 160,-145.5 212,-145.5 212,-126.5 160,-126.5"/>
<text text-anchor="middle" x="186" y="-133.5" font-family="Helvetica,sans-Serif" font-size="10.00">TEST_F</text>
</a>
</g>
</g>
<!-- Node3&#45;&gt;Node4 -->
<g id="edge3" class="edge">
<title>Node3&#45;&gt;Node4</title>
<path fill="none" stroke="midnightblue" d="M288.13,-136C260.9,-136 231.95,-136 212.03,-136"/>
<polygon fill="midnightblue" stroke="midnightblue" points="288.46,-139.5 298.46,-136 288.46,-132.5 288.46,-139.5"/>
</g>
<!-- Node6 -->
<g id="node6" class="node">
<title>Node6</title>
<g id="a_node6"><a xlink:href="swdsm_8cpp_a31ba60e8ddccfa922da8d7e6a10f7b1d.html#a31ba60e8ddccfa922da8d7e6a10f7b1d" target="_top" xlink:title="Initializes ArgoDSM runtime.">
<polygon fill="white" stroke="black" points="143,-82.5 143,-101.5 229,-101.5 229,-82.5 143,-82.5"/>
<text text-anchor="middle" x="186" y="-89.5" font-family="Helvetica,sans-Serif" font-size="10.00">argo_initialize</text>
</a>
</g>
</g>
<!-- Node5&#45;&gt;Node6 -->
<g id="edge5" class="edge">
<title>Node5&#45;&gt;Node6</title>
<path fill="none" stroke="midnightblue" d="M290.35,-92C269.54,-92 247.55,-92 229.23,-92"/>
<polygon fill="midnightblue" stroke="midnightblue" points="290.45,-95.5 300.45,-92 290.45,-88.5 290.45,-95.5"/>
</g>
<!-- Node7 -->
<g id="node7" class="node">
<title>Node7</title>
<g id="a_node7"><a xlink:href="backend_8hpp_aab3cabb3e1c0b9696b339416b684f78c.html#aab3cabb3e1c0b9696b339416b684f78c" target="_top" xlink:title="initialize backend">
<polygon fill="white" stroke="black" points="0,-82.5 0,-101.5 107,-101.5 107,-82.5 0,-82.5"/>
<text text-anchor="middle" x="53.5" y="-89.5" font-family="Helvetica,sans-Serif" font-size="10.00">argo::backend::init</text>
</a>
</g>
</g>
<!-- Node6&#45;&gt;Node7 -->
<g id="edge6" class="edge">
<title>Node6&#45;&gt;Node7</title>
<path fill="none" stroke="midnightblue" d="M132.94,-92C124.54,-92 115.84,-92 107.43,-92"/>
<polygon fill="midnightblue" stroke="midnightblue" points="132.99,-95.5 142.99,-92 132.99,-88.5 132.99,-95.5"/>
</g>
</g>
</svg>
        <g id="navigator" transform="translate(0 0)" fill="#404254">
                <rect fill="#f2f5e9" fill-opacity="0.5" stroke="#606060" stroke-width=".5" x="0" y="0" width="60" height="60"/>
                <use id="zoomplus" xlink:href="#zoomPlus" x="17" y="9" onmousedown="handleZoom(evt,'in')"/>
                <use id="zoomminus" xlink:href="#zoomMin" x="42" y="9" onmousedown="handleZoom(evt,'out')"/>
                <use id="reset" xlink:href="#resetDef" x="30" y="36" onmousedown="handleReset()"/>
                <g id="arrowUp" xlink:href="#dirArrow" transform="translate(30 24)" onmousedown="handlePan(0,-1)">
                  <use xlink:href="#rim" fill="#404040">
                        <set attributeName="fill" to="#808080" begin="arrowUp.mouseover" end="arrowUp.mouseout"/>
                  </use>
                  <path fill="none" stroke="white" stroke-width="1.5" d="M0,-3.0v7 M-2.5,-0.5L0,-3.0L2.5,-0.5"/>
                </g>
                <g id="arrowRight" xlink:href="#dirArrow" transform="rotate(90) translate(36 -43)" onmousedown="handlePan(1,0)">
                  <use xlink:href="#rim" fill="#404040">
                        <set attributeName="fill" to="#808080" begin="arrowRight.mouseover" end="arrowRight.mouseout"/>
                  </use>
                  <path fill="none" stroke="white" stroke-width="1.5" d="M0,-3.0v7 M-2.5,-0.5L0,-3.0L2.5,-0.5"/>
                </g>
                <g id="arrowDown" xlink:href="#dirArrow" transform="rotate(180) translate(-30 -48)" onmousedown="handlePan(0,1)">
                  <use xlink:href="#rim" fill="#404040">
                        <set attributeName="fill" to="#808080" begin="arrowDown.mouseover" end="arrowDown.mouseout"/>
                  </use>
                  <path fill="none" stroke="white" stroke-width="1.5" d="M0,-3.0v7 M-2.5,-0.5L0,-3.0L2.5,-0.5"/>
                </g>
                <g id="arrowLeft" xlink:href="#dirArrow" transform="rotate(270) translate(-36 17)" onmousedown="handlePan(-1,0)">
                  <use xlink:href="#rim" fill="#404040">
                        <set attributeName="fill" to="#808080" begin="arrowLeft.mouseover" end="arrowLeft.mouseout"/>
                  </use>
                  <path fill="none" stroke="white" stroke-width="1.5" d="M0,-3.0v7 M-2.5,-0.5L0,-3.0L2.5,-0.5"/>
                </g>
        </g>
        <svg viewBox="0 0 15 15" width="100%" height="30px" preserveAspectRatio="xMaxYMin meet">
         <g id="arrow_out" transform="scale(0.3 0.3)">
          <a xlink:href="namespaceargo_a7839b1673e9af449cad0e94dce253721_a7839b1673e9af449cad0e94dce253721_icgraph_org.svg" target="_base">
           <rect id="button" ry="5" rx="5" y="6" x="6" height="38" width="38"
                fill="#f2f5e9" fill-opacity="0.5" stroke="#606060" stroke-width="1.0"/>
           <path id="arrow"
             d="M 11.500037,31.436501 C 11.940474,20.09759 22.043105,11.32322 32.158766,21.979434 L 37.068811,17.246167 C 37.068811,17.246167 37.088388,32 37.088388,32 L 22.160133,31.978069 C 22.160133,31.978069 26.997745,27.140456 26.997745,27.140456 C 18.528582,18.264221 13.291696,25.230495 11.500037,31.436501 z"
             style="fill:#404040;"/>
          </a>
         </g>
        </svg>
</svg>
