<?xml version="1.0" encoding="UTF-8" standalone="no"?>
<!DOCTYPE svg PUBLIC "-//W3C//DTD SVG 1.1//EN"
 "http://www.w3.org/Graphics/SVG/1.1/DTD/svg11.dtd">
<!-- Generated by graphviz version 2.43.0 (0)
 -->
<!-- Title: argo::node_id Pages: 1 -->
<svg width="935pt" height="957pt"
 viewBox="0.00 0.00 935.00 957.00" xmlns="http://www.w3.org/2000/svg" xmlns:xlink="http://www.w3.org/1999/xlink">
<g id="graph0" class="graph" transform="scale(1 1) rotate(0) translate(4 953)">
<title>argo::node_id</title>
<polygon fill="white" stroke="transparent" points="-4,4 -4,-953 931,-953 931,4 -4,4"/>
<!-- Node1 -->
<g id="node1" class="node">
<title>Node1</title>
<g id="a_node1"><a xlink:title="A unique ArgoDSM node identifier. Counting starts from 0.">
<polygon fill="#bfbfbf" stroke="black" points="844,-470 844,-489 927,-489 927,-470 844,-470"/>
<text text-anchor="middle" x="885.5" y="-477" font-family="Helvetica,sans-Serif" font-size="10.00">argo::node_id</text>
</a>
</g>
</g>
<!-- Node2 -->
<g id="node2" class="node">
<title>Node2</title>
<g id="a_node2"><a xlink:href="classargo_1_1mempools_1_1global__memory__pool_a8158f23df9fd2ea2c603ad2e56635783.html#a8158f23df9fd2ea2c603ad2e56635783" target="_top" xlink:title="Default constructor: initializes memory on heap and sets offset to 0.">
<polygon fill="white" stroke="black" points="610,-918.5 610,-948.5 808,-948.5 808,-918.5 610,-918.5"/>
<text text-anchor="start" x="618" y="-936.5" font-family="Helvetica,sans-Serif" font-size="10.00">argo::mempools::global</text>
<text text-anchor="middle" x="709" y="-925.5" font-family="Helvetica,sans-Serif" font-size="10.00">_memory_pool::global_memory_pool</text>
</a>
</g>
</g>
<!-- Node1&#45;&gt;Node2 -->
<g id="edge1" class="edge">
<title>Node1&#45;&gt;Node2</title>
<path fill="none" stroke="midnightblue" d="M883.76,-499.3C880.51,-575.52 864.99,-848.74 808,-909.5 804.88,-912.82 801.39,-915.72 797.63,-918.24"/>
<polygon fill="midnightblue" stroke="midnightblue" points="887.26,-499.31 884.17,-489.17 880.27,-499.02 887.26,-499.31"/>
</g>
<!-- Node3 -->
<g id="node3" class="node">
<title>Node3</title>
<g id="a_node3"><a xlink:href="backend_8hpp_a0fb29a8253f0d9aefc999d93414b1758.html#a0fb29a8253f0d9aefc999d93414b1758" target="_top" xlink:title="backend internal type erased function for selective acquire">
<polygon fill="white" stroke="black" points="639,-851.5 639,-881.5 779,-881.5 779,-851.5 639,-851.5"/>
<text text-anchor="start" x="647" y="-869.5" font-family="Helvetica,sans-Serif" font-size="10.00">argo::backend::_selective</text>
<text text-anchor="middle" x="709" y="-858.5" font-family="Helvetica,sans-Serif" font-size="10.00">_acquire</text>
</a>
</g>
</g>
<!-- Node1&#45;&gt;Node3 -->
<g id="edge2" class="edge">
<title>Node1&#45;&gt;Node3</title>
<path fill="none" stroke="midnightblue" d="M883.02,-499.65C877.58,-568.45 856.38,-792.52 808,-842.5 800.08,-850.68 789.87,-856.25 779.03,-860.02"/>
<polygon fill="midnightblue" stroke="midnightblue" points="886.54,-499.57 883.81,-489.34 879.56,-499.04 886.54,-499.57"/>
</g>
<!-- Node5 -->
<g id="node5" class="node">
<title>Node5</title>
<g id="a_node5"><a xlink:href="backend_8hpp_ac3350bde3c8baf64753e515336fad3be.html#ac3350bde3c8baf64753e515336fad3be" target="_top" xlink:title="backend internal type erased function for selective release">
<polygon fill="white" stroke="black" points="639,-784.5 639,-814.5 779,-814.5 779,-784.5 639,-784.5"/>
<text text-anchor="start" x="647" y="-802.5" font-family="Helvetica,sans-Serif" font-size="10.00">argo::backend::_selective</text>
<text text-anchor="middle" x="709" y="-791.5" font-family="Helvetica,sans-Serif" font-size="10.00">_release</text>
</a>
</g>
</g>
<!-- Node1&#45;&gt;Node5 -->
<g id="edge6" class="edge">
<title>Node1&#45;&gt;Node5</title>
<path fill="none" stroke="midnightblue" d="M882,-499.27C874.08,-558.84 847.71,-734.95 808,-774.5 799.98,-782.49 789.77,-788.04 779,-791.88"/>
<polygon fill="midnightblue" stroke="midnightblue" points="885.48,-499.64 883.3,-489.27 878.54,-498.74 885.48,-499.64"/>
</g>
<!-- Node7 -->
<g id="node7" class="node">
<title>Node7</title>
<g id="a_node7"><a xlink:href="argo_8cpp_ac15daccc12e056745f7a476832db112b.html#ac15daccc12e056745f7a476832db112b" target="_top" xlink:title="A unique ArgoDSM node identifier. Counting starts from 0.">
<polygon fill="white" stroke="black" points="668,-746 668,-765 750,-765 750,-746 668,-746"/>
<text text-anchor="middle" x="709" y="-753" font-family="Helvetica,sans-Serif" font-size="10.00">argo_node_id</text>
</a>
</g>
</g>
<!-- Node1&#45;&gt;Node7 -->
<g id="edge10" class="edge">
<title>Node1&#45;&gt;Node7</title>
<path fill="none" stroke="midnightblue" d="M885.02,-499.34C885.14,-547.79 878.24,-672.81 808,-736.5 792.46,-750.59 769.72,-755.6 750.05,-756.97"/>
<polygon fill="midnightblue" stroke="midnightblue" points="888.52,-499.19 884.89,-489.24 881.52,-499.28 888.52,-499.19"/>
</g>
<!-- Node9 -->
<g id="node9" class="node">
<title>Node9</title>
<g id="a_node9"><a xlink:href="namespaceargo_a09ca0ec2df9dbed721fb14b26cfa39a3.html#a09ca0ec2df9dbed721fb14b26cfa39a3" target="_top" xlink:title="template function to delete objects that were allocated using collective_new">
<polygon fill="white" stroke="black" points="663,-708 663,-727 755,-727 755,-708 663,-708"/>
<text text-anchor="middle" x="709" y="-715" font-family="Helvetica,sans-Serif" font-size="10.00">argo::codelete_</text>
</a>
</g>
</g>
<!-- Node1&#45;&gt;Node9 -->
<g id="edge12" class="edge">
<title>Node1&#45;&gt;Node9</title>
<path fill="none" stroke="midnightblue" d="M883.83,-499.31C881.24,-542.61 868.68,-646.02 808,-698.5 793.58,-710.97 773.46,-716.23 755.2,-718.18"/>
<polygon fill="midnightblue" stroke="midnightblue" points="887.33,-499.37 884.32,-489.22 880.34,-499.04 887.33,-499.37"/>
</g>
<!-- Node12 -->
<g id="node12" class="node">
<title>Node12</title>
<g id="a_node12"><a xlink:href="namespaceargo_aa7e8ddf5784dd37c965cfd43cd65a330.html#aa7e8ddf5784dd37c965cfd43cd65a330" target="_top" xlink:title="Delete a globally collectively allocated array of objects.">
<polygon fill="white" stroke="black" points="650.5,-670 650.5,-689 767.5,-689 767.5,-670 650.5,-670"/>
<text text-anchor="middle" x="709" y="-677" font-family="Helvetica,sans-Serif" font-size="10.00">argo::codelete_array</text>
</a>
</g>
</g>
<!-- Node1&#45;&gt;Node12 -->
<g id="edge15" class="edge">
<title>Node1&#45;&gt;Node12</title>
<path fill="none" stroke="midnightblue" d="M882.18,-499.44C876.66,-537.19 859.16,-619.03 808,-660.5 796.62,-669.72 782.08,-674.93 767.7,-677.76"/>
<polygon fill="midnightblue" stroke="midnightblue" points="885.69,-499.6 883.53,-489.23 878.75,-498.69 885.69,-499.6"/>
</g>
<!-- Node14 -->
<g id="node14" class="node">
<title>Node14</title>
<g id="a_node14"><a xlink:href="namespaceargo_a43db7086bc5f4070897fc687ea7e950c.html#a43db7086bc5f4070897fc687ea7e950c" target="_top" xlink:title="template function to construct new objects using collective allocation">
<polygon fill="white" stroke="black" points="668.5,-632 668.5,-651 749.5,-651 749.5,-632 668.5,-632"/>
<text text-anchor="middle" x="709" y="-639" font-family="Helvetica,sans-Serif" font-size="10.00">argo::conew_</text>
</a>
</g>
</g>
<!-- Node1&#45;&gt;Node14 -->
<g id="edge17" class="edge">
<title>Node1&#45;&gt;Node14</title>
<path fill="none" stroke="midnightblue" d="M879.93,-498.72C871.45,-529.97 850.16,-591.4 808,-622.5 791.4,-634.74 769.06,-639.71 749.9,-641.52"/>
<polygon fill="midnightblue" stroke="midnightblue" points="883.32,-499.59 882.41,-489.03 876.54,-497.85 883.32,-499.59"/>
</g>
<!-- Node15 -->
<g id="node15" class="node">
<title>Node15</title>
<g id="a_node15"><a xlink:href="namespaceargo_a532a530aefb04b559d017b8ac402feb5.html#a532a530aefb04b559d017b8ac402feb5" target="_top" xlink:title="Collectively construct a new array of objects in the global memory.">
<polygon fill="white" stroke="black" points="655.5,-594 655.5,-613 762.5,-613 762.5,-594 655.5,-594"/>
<text text-anchor="middle" x="709" y="-601" font-family="Helvetica,sans-Serif" font-size="10.00">argo::conew_array</text>
</a>
</g>
</g>
<!-- Node1&#45;&gt;Node15 -->
<g id="edge18" class="edge">
<title>Node1&#45;&gt;Node15</title>
<path fill="none" stroke="midnightblue" d="M876.2,-498.38C864.59,-522.44 841.14,-563.43 808,-584.5 794.55,-593.05 778.1,-597.91 762.56,-600.63"/>
<polygon fill="midnightblue" stroke="midnightblue" points="879.42,-499.76 880.44,-489.22 873.07,-496.82 879.42,-499.76"/>
</g>
<!-- Node16 -->
<g id="node16" class="node">
<title>Node16</title>
<g id="a_node16"><a xlink:href="namespaceargo_1_1mempools_a7d4eab651fde73499ebbc196bf7cda05.html#a7d4eab651fde73499ebbc196bf7cda05" target="_top" xlink:title="restrict growing to ArgoDSM node 0">
<polygon fill="white" stroke="black" points="629,-544.5 629,-574.5 789,-574.5 789,-544.5 629,-544.5"/>
<text text-anchor="start" x="637" y="-562.5" font-family="Helvetica,sans-Serif" font-size="10.00">argo::mempools::do</text>
<text text-anchor="middle" x="709" y="-551.5" font-family="Helvetica,sans-Serif" font-size="10.00">_grow&lt; NODE_ZERO_ONLY &gt;</text>
</a>
</g>
</g>
<!-- Node1&#45;&gt;Node16 -->
<g id="edge19" class="edge">
<title>Node1&#45;&gt;Node16</title>
<path fill="none" stroke="midnightblue" d="M866.09,-495.78C851.32,-508.06 829.56,-524.44 808,-534.5 799.81,-538.32 790.94,-541.62 782.01,-544.45"/>
<polygon fill="midnightblue" stroke="midnightblue" points="868.58,-498.26 873.92,-489.11 864.04,-492.93 868.58,-498.26"/>
</g>
<!-- Node17 -->
<g id="node17" class="node">
<title>Node17</title>
<g id="a_node17"><a xlink:href="classargo_1_1data__distribution_1_1first__touch__distribution_a1b7431790effdb97e72f39a0773e9fb9.html#a1b7431790effdb97e72f39a0773e9fb9" target="_top" xlink:title="try and claim ownership of a page">
<polygon fill="white" stroke="black" points="642,-484 642,-525 776,-525 776,-484 642,-484"/>
<text text-anchor="start" x="650" y="-513" font-family="Helvetica,sans-Serif" font-size="10.00">argo::data_distribution</text>
<text text-anchor="start" x="650" y="-502" font-family="Helvetica,sans-Serif" font-size="10.00">::first_touch_distribution</text>
<text text-anchor="middle" x="709" y="-491" font-family="Helvetica,sans-Serif" font-size="10.00">::first_touch</text>
</a>
</g>
</g>
<!-- Node1&#45;&gt;Node17 -->
<g id="edge20" class="edge">
<title>Node1&#45;&gt;Node17</title>
<path fill="none" stroke="midnightblue" d="M833.63,-486.79C815.7,-489.36 795.27,-492.28 776.26,-495.01"/>
<polygon fill="midnightblue" stroke="midnightblue" points="834.18,-490.24 843.59,-485.36 833.19,-483.32 834.18,-490.24"/>
</g>
<!-- Node18 -->
<g id="node18" class="node">
<title>Node18</title>
<g id="a_node18"><a xlink:href="classargo_1_1data__distribution_1_1first__touch__distribution_a3072e6056edc945f0714bbdb775718ed.html#a3072e6056edc945f0714bbdb775718ed" target="_top" xlink:title="compute home node of an address">
<polygon fill="white" stroke="black" points="439.5,-397 439.5,-438 573.5,-438 573.5,-397 439.5,-397"/>
<text text-anchor="start" x="447.5" y="-426" font-family="Helvetica,sans-Serif" font-size="10.00">argo::data_distribution</text>
<text text-anchor="start" x="447.5" y="-415" font-family="Helvetica,sans-Serif" font-size="10.00">::first_touch_distribution</text>
<text text-anchor="middle" x="506.5" y="-404" font-family="Helvetica,sans-Serif" font-size="10.00">::homenode</text>
</a>
</g>
</g>
<!-- Node1&#45;&gt;Node18 -->
<g id="edge21" class="edge">
<title>Node1&#45;&gt;Node18</title>
<path fill="none" stroke="midnightblue" d="M860.79,-464.77C846.14,-456.43 826.64,-446.67 808,-441.5 729.45,-419.73 635.25,-415.57 573.52,-415.64"/>
<polygon fill="midnightblue" stroke="midnightblue" points="859.27,-467.93 869.66,-469.98 862.81,-461.9 859.27,-467.93"/>
</g>
<!-- Node19 -->
<g id="node19" class="node">
<title>Node19</title>
<g id="a_node19"><a xlink:href="classargo_1_1data__distribution_1_1first__touch__distribution_ac1f2f15350c218a5dff4e5e06110e655.html#ac1f2f15350c218a5dff4e5e06110e655" target="_top" xlink:title="compute home node of an address">
<polygon fill="white" stroke="black" points="266,-397 266,-438 400,-438 400,-397 266,-397"/>
<text text-anchor="start" x="274" y="-426" font-family="Helvetica,sans-Serif" font-size="10.00">argo::data_distribution</text>
<text text-anchor="start" x="274" y="-415" font-family="Helvetica,sans-Serif" font-size="10.00">::first_touch_distribution</text>
<text text-anchor="middle" x="333" y="-404" font-family="Helvetica,sans-Serif" font-size="10.00">::peek_homenode</text>
</a>
</g>
</g>
<!-- Node1&#45;&gt;Node19 -->
<g id="edge24" class="edge">
<title>Node1&#45;&gt;Node19</title>
<path fill="none" stroke="midnightblue" d="M833.85,-476.14C721.18,-468.64 458.16,-450.89 439,-447.5 425.56,-445.12 411.37,-441.71 397.92,-438.03"/>
<polygon fill="midnightblue" stroke="midnightblue" points="833.74,-479.64 843.96,-476.82 834.21,-472.66 833.74,-479.64"/>
</g>
<!-- Node20 -->
<g id="node20" class="node">
<title>Node20</title>
<g id="a_node20"><a xlink:href="classargo_1_1data__distribution_1_1first__touch__distribution_aa8574afc7f9e197c51ea71df78f4908d.html#aa8574afc7f9e197c51ea71df78f4908d" target="_top" xlink:title="compute the offset of ptr in the backing store on ptr&#39;s homenode">
<polygon fill="white" stroke="black" points="439.5,-299 439.5,-340 573.5,-340 573.5,-299 439.5,-299"/>
<text text-anchor="start" x="447.5" y="-328" font-family="Helvetica,sans-Serif" font-size="10.00">argo::data_distribution</text>
<text text-anchor="start" x="447.5" y="-317" font-family="Helvetica,sans-Serif" font-size="10.00">::first_touch_distribution</text>
<text text-anchor="middle" x="506.5" y="-306" font-family="Helvetica,sans-Serif" font-size="10.00">::local_offset</text>
</a>
</g>
</g>
<!-- Node1&#45;&gt;Node20 -->
<g id="edge23" class="edge">
<title>Node1&#45;&gt;Node20</title>
<path fill="none" stroke="midnightblue" d="M880.27,-459.92C872.27,-428.22 851.67,-366.39 808,-338.5 737.84,-293.69 638.69,-297.28 573.76,-306.39"/>
<polygon fill="midnightblue" stroke="midnightblue" points="876.89,-460.85 882.59,-469.78 883.7,-459.24 876.89,-460.85"/>
</g>
<!-- Node21 -->
<g id="node21" class="node">
<title>Node21</title>
<g id="a_node21"><a xlink:href="classargo_1_1data__distribution_1_1first__touch__distribution_a7ba49b6dd4f8d6c226bb2fb140a59bdf.html#a7ba49b6dd4f8d6c226bb2fb140a59bdf" target="_top" xlink:title="compute the offset of ptr in the backing store on ptr&#39;s homenode">
<polygon fill="white" stroke="black" points="439.5,-239 439.5,-280 573.5,-280 573.5,-239 439.5,-239"/>
<text text-anchor="start" x="447.5" y="-268" font-family="Helvetica,sans-Serif" font-size="10.00">argo::data_distribution</text>
<text text-anchor="start" x="447.5" y="-257" font-family="Helvetica,sans-Serif" font-size="10.00">::first_touch_distribution</text>
<text text-anchor="middle" x="506.5" y="-246" font-family="Helvetica,sans-Serif" font-size="10.00">::peek_local_offset</text>
</a>
</g>
</g>
<!-- Node1&#45;&gt;Node21 -->
<g id="edge25" class="edge">
<title>Node1&#45;&gt;Node21</title>
<path fill="none" stroke="midnightblue" d="M882.57,-459.56C877.71,-421.09 861.22,-336.85 808,-296.5 789.7,-282.63 656.36,-270.45 573.57,-264.12"/>
<polygon fill="midnightblue" stroke="midnightblue" points="879.15,-460.39 883.74,-469.93 886.1,-459.61 879.15,-460.39"/>
</g>
<!-- Node22 -->
<g id="node22" class="node">
<title>Node22</title>
<g id="a_node22"><a xlink:href="classargo_1_1mempools_1_1global__memory__pool_a382544f1b6de66b437e8034097313cc8.html#a382544f1b6de66b437e8034097313cc8" target="_top" xlink:title="Resets the memory pool to the initial state instead of de&#45;allocating and (re)allocating all buffers a...">
<polygon fill="white" stroke="black" points="643,-222.5 643,-252.5 775,-252.5 775,-222.5 643,-222.5"/>
<text text-anchor="start" x="651" y="-240.5" font-family="Helvetica,sans-Serif" font-size="10.00">argo::mempools::global</text>
<text text-anchor="middle" x="709" y="-229.5" font-family="Helvetica,sans-Serif" font-size="10.00">_memory_pool::reset</text>
</a>
</g>
</g>
<!-- Node1&#45;&gt;Node22 -->
<g id="edge26" class="edge">
<title>Node1&#45;&gt;Node22</title>
<path fill="none" stroke="midnightblue" d="M883.11,-459.66C879.1,-417.97 863.96,-320.77 808,-267.5 798.85,-258.79 787.24,-252.6 775.23,-248.21"/>
<polygon fill="midnightblue" stroke="midnightblue" points="879.64,-460.19 883.96,-469.86 886.61,-459.6 879.64,-460.19"/>
</g>
<!-- Node29 -->
<g id="node29" class="node">
<title>Node29</title>
<g id="a_node29"><a xlink:href="tests_2allocators_8cpp_ae126220d4ebd940b8dcc827b3c74ceda.html#ae126220d4ebd940b8dcc827b3c74ceda" target="_top" xlink:title="Unittest that checks that node 0 allocating the whole requested memory space dynamically &#45; also check...">
<polygon fill="white" stroke="black" points="683,-184 683,-203 735,-203 735,-184 683,-184"/>
<text text-anchor="middle" x="709" y="-191" font-family="Helvetica,sans-Serif" font-size="10.00">TEST_F</text>
</a>
</g>
</g>
<!-- Node1&#45;&gt;Node29 -->
<g id="edge33" class="edge">
<title>Node1&#45;&gt;Node29</title>
<path fill="none" stroke="midnightblue" d="M885.22,-459.7C885.86,-410.2 880.2,-280.23 808,-213.5 788.49,-195.47 757.29,-191.85 735.35,-191.85"/>
<polygon fill="midnightblue" stroke="midnightblue" points="881.71,-459.9 884.97,-469.99 888.71,-460.07 881.71,-459.9"/>
</g>
<!-- Node30 -->
<g id="node30" class="node">
<title>Node30</title>
<g id="a_node30"><a xlink:href="barrier_8cpp_a03ef2b2b4275df192876f1fc8943aadf.html#a03ef2b2b4275df192876f1fc8943aadf" target="_top" xlink:title="Unittest that checks that the barrier call works with multiple threads.">
<polygon fill="white" stroke="black" points="683,-146 683,-165 735,-165 735,-146 683,-146"/>
<text text-anchor="middle" x="709" y="-153" font-family="Helvetica,sans-Serif" font-size="10.00">TEST_P</text>
</a>
</g>
</g>
<!-- Node1&#45;&gt;Node30 -->
<g id="edge34" class="edge">
<title>Node1&#45;&gt;Node30</title>
<path fill="none" stroke="midnightblue" d="M882.3,-459.78C875.09,-398.7 850.17,-214.44 808,-174.5 788.62,-156.15 757.09,-153 735.05,-153.4"/>
<polygon fill="midnightblue" stroke="midnightblue" points="878.85,-460.44 883.47,-469.98 885.81,-459.64 878.85,-460.44"/>
</g>
<!-- Node31 -->
<g id="node31" class="node">
<title>Node31</title>
<g id="a_node31"><a xlink:href="classargo_1_1globallock_1_1global__tas__lock_a89bbe556d8a271dd64d65b421993da00.html#a89bbe556d8a271dd64d65b421993da00" target="_top" xlink:title="try to lock">
<polygon fill="white" stroke="black" points="643.5,-96.5 643.5,-126.5 774.5,-126.5 774.5,-96.5 643.5,-96.5"/>
<text text-anchor="start" x="651.5" y="-114.5" font-family="Helvetica,sans-Serif" font-size="10.00">argo::globallock::global</text>
<text text-anchor="middle" x="709" y="-103.5" font-family="Helvetica,sans-Serif" font-size="10.00">_tas_lock::try_lock</text>
</a>
</g>
</g>
<!-- Node1&#45;&gt;Node31 -->
<g id="edge35" class="edge">
<title>Node1&#45;&gt;Node31</title>
<path fill="none" stroke="midnightblue" d="M882.76,-459.63C876.6,-393.68 853.69,-183.59 808,-136.5 799.01,-127.24 787.11,-121.23 774.7,-117.38"/>
<polygon fill="midnightblue" stroke="midnightblue" points="879.3,-460.24 883.69,-469.88 886.28,-459.6 879.3,-460.24"/>
</g>
<!-- Node38 -->
<g id="node38" class="node">
<title>Node38</title>
<g id="a_node38"><a xlink:href="classargo_1_1globallock_1_1global__tas__lock_a55bd610c8555b8d986541c3f669789a2.html#a55bd610c8555b8d986541c3f669789a2" target="_top" xlink:title="release the lock">
<polygon fill="white" stroke="black" points="441,-49.5 441,-79.5 572,-79.5 572,-49.5 441,-49.5"/>
<text text-anchor="start" x="449" y="-67.5" font-family="Helvetica,sans-Serif" font-size="10.00">argo::globallock::global</text>
<text text-anchor="middle" x="506.5" y="-56.5" font-family="Helvetica,sans-Serif" font-size="10.00">_tas_lock::unlock</text>
</a>
</g>
</g>
<!-- Node1&#45;&gt;Node38 -->
<g id="edge42" class="edge">
<title>Node1&#45;&gt;Node38</title>
<path fill="none" stroke="midnightblue" d="M883.69,-459.79C880.28,-387.41 864.54,-137.82 808,-87.5 743.41,-30.02 636.99,-37.16 569.66,-49.45"/>
<polygon fill="midnightblue" stroke="midnightblue" points="880.2,-460 884.14,-469.83 887.19,-459.69 880.2,-460"/>
</g>
<!-- Node41 -->
<g id="node41" class="node">
<title>Node41</title>
<g id="a_node41"><a xlink:href="classargo_1_1data__distribution_1_1first__touch__distribution_a4d637cba39bb57ea4686e726252df51e.html#a4d637cba39bb57ea4686e726252df51e" target="_top" xlink:title="perform the necessary directory actions">
<polygon fill="white" stroke="black" points="642,-348 642,-389 776,-389 776,-348 642,-348"/>
<text text-anchor="start" x="650" y="-377" font-family="Helvetica,sans-Serif" font-size="10.00">argo::data_distribution</text>
<text text-anchor="start" x="650" y="-366" font-family="Helvetica,sans-Serif" font-size="10.00">::first_touch_distribution</text>
<text text-anchor="middle" x="709" y="-355" font-family="Helvetica,sans-Serif" font-size="10.00">::update_dirs</text>
</a>
</g>
</g>
<!-- Node1&#45;&gt;Node41 -->
<g id="edge47" class="edge">
<title>Node1&#45;&gt;Node41</title>
<path fill="none" stroke="midnightblue" d="M870.78,-461.95C856.66,-444.93 833.22,-419.4 808,-403.5 798.22,-397.33 787.2,-392.06 776.18,-387.62"/>
<polygon fill="midnightblue" stroke="midnightblue" points="868.27,-464.41 877.28,-469.98 873.71,-460.01 868.27,-464.41"/>
</g>
<!-- Node3&#45;&gt;Node3 -->
<g id="edge3" class="edge">
<title>Node3&#45;&gt;Node3</title>
<path fill="none" stroke="midnightblue" d="M740.27,-891.96C736.39,-896.68 725.97,-900 709,-900 681.16,-900 670.93,-891.06 678.33,-881.66"/>
<polygon fill="midnightblue" stroke="midnightblue" points="743.75,-891.44 739.67,-881.66 736.76,-891.85 743.75,-891.44"/>
</g>
<!-- Node4 -->
<g id="node4" class="node">
<title>Node4</title>
<g id="a_node4"><a xlink:href="backend_8hpp_aad1b8c62447de8cc06b7b4f031b77b01.html#aad1b8c62447de8cc06b7b4f031b77b01" target="_top" xlink:title="causes a node to self&#45;invalidate the specified pages from its cache, and thus getting any updated val...">
<polygon fill="white" stroke="black" points="439,-854.5 439,-884.5 574,-884.5 574,-854.5 439,-854.5"/>
<text text-anchor="start" x="447" y="-872.5" font-family="Helvetica,sans-Serif" font-size="10.00">argo::backend::selective</text>
<text text-anchor="middle" x="506.5" y="-861.5" font-family="Helvetica,sans-Serif" font-size="10.00">_acquire</text>
</a>
</g>
</g>
<!-- Node3&#45;&gt;Node4 -->
<g id="edge4" class="edge">
<title>Node3&#45;&gt;Node4</title>
<path fill="none" stroke="midnightblue" d="M628.79,-867.69C610.74,-867.96 591.73,-868.24 574.26,-868.5"/>
<polygon fill="midnightblue" stroke="midnightblue" points="629.05,-871.18 639,-867.53 628.95,-864.18 629.05,-871.18"/>
</g>
<!-- Node4&#45;&gt;Node4 -->
<g id="edge5" class="edge">
<title>Node4&#45;&gt;Node4</title>
<path fill="none" stroke="midnightblue" d="M537.06,-894.96C533.27,-899.68 523.08,-903 506.5,-903 479.29,-903 469.3,-894.06 476.53,-884.66"/>
<polygon fill="midnightblue" stroke="midnightblue" points="540.54,-894.44 536.47,-884.66 533.55,-894.84 540.54,-894.44"/>
</g>
<!-- Node5&#45;&gt;Node5 -->
<g id="edge7" class="edge">
<title>Node5&#45;&gt;Node5</title>
<path fill="none" stroke="midnightblue" d="M740.27,-824.96C736.39,-829.68 725.97,-833 709,-833 681.16,-833 670.93,-824.06 678.33,-814.66"/>
<polygon fill="midnightblue" stroke="midnightblue" points="743.75,-824.44 739.67,-814.66 736.76,-824.85 743.75,-824.44"/>
</g>
<!-- Node6 -->
<g id="node6" class="node">
<title>Node6</title>
<g id="a_node6"><a xlink:href="backend_8hpp_a37c88e1409650776ddb3a33d7f2744cb.html#a37c88e1409650776ddb3a33d7f2744cb" target="_top" xlink:title="causes a node to self&#45;downgrade specified pages from its cache, making all previous writes to be prop...">
<polygon fill="white" stroke="black" points="439,-787.5 439,-817.5 574,-817.5 574,-787.5 439,-787.5"/>
<text text-anchor="start" x="447" y="-805.5" font-family="Helvetica,sans-Serif" font-size="10.00">argo::backend::selective</text>
<text text-anchor="middle" x="506.5" y="-794.5" font-family="Helvetica,sans-Serif" font-size="10.00">_release</text>
</a>
</g>
</g>
<!-- Node5&#45;&gt;Node6 -->
<g id="edge8" class="edge">
<title>Node5&#45;&gt;Node6</title>
<path fill="none" stroke="midnightblue" d="M628.79,-800.69C610.74,-800.96 591.73,-801.24 574.26,-801.5"/>
<polygon fill="midnightblue" stroke="midnightblue" points="629.05,-804.18 639,-800.53 628.95,-797.18 629.05,-804.18"/>
</g>
<!-- Node6&#45;&gt;Node6 -->
<g id="edge9" class="edge">
<title>Node6&#45;&gt;Node6</title>
<path fill="none" stroke="midnightblue" d="M537.06,-827.96C533.27,-832.68 523.08,-836 506.5,-836 479.29,-836 469.3,-827.06 476.53,-817.66"/>
<polygon fill="midnightblue" stroke="midnightblue" points="540.54,-827.44 536.47,-817.66 533.55,-827.84 540.54,-827.44"/>
</g>
<!-- Node8 -->
<g id="node8" class="node">
<title>Node8</title>
<g id="a_node8"><a xlink:href="omp_8cpp_a8dc8d62aec3b0b57259d2bca6ef6bf7e.html#a8dc8d62aec3b0b57259d2bca6ef6bf7e" target="_top" xlink:title="Unittest that checks that data written 1 OpenMP thread per node by all threads after an ArgoDSM barri...">
<polygon fill="white" stroke="black" points="480.5,-749 480.5,-768 532.5,-768 532.5,-749 480.5,-749"/>
<text text-anchor="middle" x="506.5" y="-756" font-family="Helvetica,sans-Serif" font-size="10.00">TEST_F</text>
</a>
</g>
</g>
<!-- Node7&#45;&gt;Node8 -->
<g id="edge11" class="edge">
<title>Node7&#45;&gt;Node8</title>
<path fill="none" stroke="midnightblue" d="M657.84,-756.25C617.98,-756.85 563.88,-757.66 532.63,-758.12"/>
<polygon fill="midnightblue" stroke="midnightblue" points="657.96,-759.75 667.91,-756.1 657.86,-752.75 657.96,-759.75"/>
</g>
<!-- Node10 -->
<g id="node10" class="node">
<title>Node10</title>
<g id="a_node10"><a xlink:href="classargo_1_1globallock_1_1cohort__lock_a48e63a5ba24a93d3799a3993c663a30b.html#a48e63a5ba24a93d3799a3993c663a30b" target="_top" xlink:title=" ">
<polygon fill="white" stroke="black" points="441,-699.5 441,-729.5 572,-729.5 572,-699.5 441,-699.5"/>
<text text-anchor="start" x="449" y="-717.5" font-family="Helvetica,sans-Serif" font-size="10.00">argo::globallock::cohort</text>
<text text-anchor="middle" x="506.5" y="-706.5" font-family="Helvetica,sans-Serif" font-size="10.00">_lock::~cohort_lock</text>
</a>
</g>
</g>
<!-- Node9&#45;&gt;Node10 -->
<g id="edge13" class="edge">
<title>Node9&#45;&gt;Node10</title>
<path fill="none" stroke="midnightblue" d="M652.75,-716.67C627.86,-716.3 598.29,-715.86 572.35,-715.47"/>
<polygon fill="midnightblue" stroke="midnightblue" points="652.7,-720.17 662.75,-716.82 652.81,-713.17 652.7,-720.17"/>
</g>
<!-- Node11 -->
<g id="node11" class="node">
<title>Node11</title>
<g id="a_node11"><a xlink:href="tests_2allocators_8cpp_a13fc720238a04e385587d7b2cef0f3bc.html#a13fc720238a04e385587d7b2cef0f3bc" target="_top" xlink:title="Test if it is possible to delete a null pointer with no errors.">
<polygon fill="white" stroke="black" points="480.5,-661 480.5,-680 532.5,-680 532.5,-661 480.5,-661"/>
<text text-anchor="middle" x="506.5" y="-668" font-family="Helvetica,sans-Serif" font-size="10.00">TEST_F</text>
</a>
</g>
</g>
<!-- Node9&#45;&gt;Node11 -->
<g id="edge14" class="edge">
<title>Node9&#45;&gt;Node11</title>
<path fill="none" stroke="midnightblue" d="M652.94,-707.58C638.9,-704.84 623.85,-701.73 610,-698.5 583.41,-692.3 553.31,-683.91 532.64,-677.94"/>
<polygon fill="midnightblue" stroke="midnightblue" points="652.48,-711.06 662.97,-709.5 653.8,-704.18 652.48,-711.06"/>
</g>
<!-- Node13 -->
<g id="node13" class="node">
<title>Node13</title>
<g id="a_node13"><a xlink:href="tests_2allocators_8cpp_a0571f7229f019db2f46d8f56bebd01d0.html#a0571f7229f019db2f46d8f56bebd01d0" target="_top" xlink:title="mixes dynamic and collective allocation and stores dynamic arrays in a collective arrays to communica...">
<polygon fill="white" stroke="black" points="480.5,-623 480.5,-642 532.5,-642 532.5,-623 480.5,-623"/>
<text text-anchor="middle" x="506.5" y="-630" font-family="Helvetica,sans-Serif" font-size="10.00">TEST_F</text>
</a>
</g>
</g>
<!-- Node12&#45;&gt;Node13 -->
<g id="edge16" class="edge">
<title>Node12&#45;&gt;Node13</title>
<path fill="none" stroke="midnightblue" d="M644.86,-667.98C633.24,-665.66 621.23,-663.12 610,-660.5 583.41,-654.3 553.31,-645.91 532.64,-639.94"/>
<polygon fill="midnightblue" stroke="midnightblue" points="644.46,-671.47 654.95,-669.97 645.81,-664.6 644.46,-671.47"/>
</g>
<!-- Node18&#45;&gt;Node19 -->
<g id="edge22" class="edge">
<title>Node18&#45;&gt;Node19</title>
<path fill="none" stroke="midnightblue" d="M429.18,-417.5C419.49,-417.5 409.64,-417.5 400.13,-417.5"/>
<polygon fill="midnightblue" stroke="midnightblue" points="429.19,-421 439.19,-417.5 429.19,-414 429.19,-421"/>
</g>
<!-- Node23 -->
<g id="node23" class="node">
<title>Node23</title>
<g id="a_node23"><a xlink:href="namespaceargo_a618c32926aa8b74173868cf7e1fbcaf4.html#a618c32926aa8b74173868cf7e1fbcaf4" target="_top" xlink:title="reset ArgoDSM allocators">
<polygon fill="white" stroke="black" points="445.5,-201 445.5,-220 567.5,-220 567.5,-201 445.5,-201"/>
<text text-anchor="middle" x="506.5" y="-208" font-family="Helvetica,sans-Serif" font-size="10.00">argo::reset_allocators</text>
</a>
</g>
</g>
<!-- Node22&#45;&gt;Node23 -->
<g id="edge27" class="edge">
<title>Node22&#45;&gt;Node23</title>
<path fill="none" stroke="midnightblue" d="M632.8,-227.37C611.24,-224.47 588.03,-221.34 567.52,-218.58"/>
<polygon fill="midnightblue" stroke="midnightblue" points="632.53,-230.87 642.9,-228.73 633.46,-223.93 632.53,-230.87"/>
</g>
<!-- Node24 -->
<g id="node24" class="node">
<title>Node24</title>
<g id="a_node24"><a xlink:href="namespaceargo_a7525b3ba02c8025202fd1cd6756e5e4e.html#a7525b3ba02c8025202fd1cd6756e5e4e" target="_top" xlink:title="reset ArgoDSM system">
<polygon fill="white" stroke="black" points="298.5,-201 298.5,-220 367.5,-220 367.5,-201 298.5,-201"/>
<text text-anchor="middle" x="333" y="-208" font-family="Helvetica,sans-Serif" font-size="10.00">argo::reset</text>
</a>
</g>
</g>
<!-- Node23&#45;&gt;Node24 -->
<g id="edge28" class="edge">
<title>Node23&#45;&gt;Node24</title>
<path fill="none" stroke="midnightblue" d="M434.82,-210.5C411.53,-210.5 386.7,-210.5 367.52,-210.5"/>
<polygon fill="midnightblue" stroke="midnightblue" points="435.04,-214 445.04,-210.5 435.04,-207 435.04,-214"/>
</g>
<!-- Node25 -->
<g id="node25" class="node">
<title>Node25</title>
<g id="a_node25"><a xlink:href="argo_8cpp_a5a8515fc3191ad0f3398d8ac1441b57a.html#a5a8515fc3191ad0f3398d8ac1441b57a" target="_top" xlink:title="reset ArgoDSM system">
<polygon fill="white" stroke="black" points="127,-196 127,-215 195,-215 195,-196 127,-196"/>
<text text-anchor="middle" x="161" y="-203" font-family="Helvetica,sans-Serif" font-size="10.00">argo_reset</text>
</a>
</g>
</g>
<!-- Node24&#45;&gt;Node25 -->
<g id="edge29" class="edge">
<title>Node24&#45;&gt;Node25</title>
<path fill="none" stroke="midnightblue" d="M288.15,-209.21C259.16,-208.36 221.76,-207.26 195.23,-206.48"/>
<polygon fill="midnightblue" stroke="midnightblue" points="288.31,-212.72 298.41,-209.51 288.52,-205.72 288.31,-212.72"/>
</g>
<!-- Node26 -->
<g id="node26" class="node">
<title>Node26</title>
<g id="a_node26"><a xlink:href="namespaceargo_a31330d8b35bd7f9ef9880eec82339c54.html#a31330d8b35bd7f9ef9880eec82339c54" target="_top" xlink:title="initialize ArgoDSM system">
<polygon fill="white" stroke="black" points="131,-234 131,-253 191,-253 191,-234 131,-234"/>
<text text-anchor="middle" x="161" y="-241" font-family="Helvetica,sans-Serif" font-size="10.00">argo::init</text>
</a>
</g>
</g>
<!-- Node24&#45;&gt;Node26 -->
<g id="edge30" class="edge">
<title>Node24&#45;&gt;Node26</title>
<path fill="none" stroke="midnightblue" d="M288.46,-218.95C257.96,-224.87 218.02,-232.62 191.26,-237.82"/>
<polygon fill="midnightblue" stroke="midnightblue" points="289.26,-222.36 298.41,-217.02 287.93,-215.49 289.26,-222.36"/>
</g>
<!-- Node27 -->
<g id="node27" class="node">
<title>Node27</title>
<g id="a_node27"><a xlink:href="argo_8cpp_aa84680ad78c3598c30a482ff71ec6bbc.html#aa84680ad78c3598c30a482ff71ec6bbc" target="_top" xlink:title="initialize ArgoDSM system">
<polygon fill="white" stroke="black" points="0,-253 0,-272 59,-272 59,-253 0,-253"/>
<text text-anchor="middle" x="29.5" y="-260" font-family="Helvetica,sans-Serif" font-size="10.00">argo_init</text>
</a>
</g>
</g>
<!-- Node26&#45;&gt;Node27 -->
<g id="edge31" class="edge">
<title>Node26&#45;&gt;Node27</title>
<path fill="none" stroke="midnightblue" d="M120.92,-249.23C100.99,-252.16 77.2,-255.65 59.02,-258.32"/>
<polygon fill="midnightblue" stroke="midnightblue" points="121.55,-252.68 130.94,-247.76 120.54,-245.75 121.55,-252.68"/>
</g>
<!-- Node28 -->
<g id="node28" class="node">
<title>Node28</title>
<g id="a_node28"><a xlink:href="tests_2allocators_8cpp_a3c04138a5bfe5d72780bb7e82a18e627.html#a3c04138a5bfe5d72780bb7e82a18e627" target="_top" xlink:title="The main function that runs the tests.">
<polygon fill="white" stroke="black" points="9,-215 9,-234 50,-234 50,-215 9,-215"/>
<text text-anchor="middle" x="29.5" y="-222" font-family="Helvetica,sans-Serif" font-size="10.00">main</text>
</a>
</g>
</g>
<!-- Node26&#45;&gt;Node28 -->
<g id="edge32" class="edge">
<title>Node26&#45;&gt;Node28</title>
<path fill="none" stroke="midnightblue" d="M120.97,-237.77C97.62,-234.35 68.95,-230.14 50.22,-227.39"/>
<polygon fill="midnightblue" stroke="midnightblue" points="120.54,-241.25 130.94,-239.24 121.55,-234.32 120.54,-241.25"/>
</g>
<!-- Node32 -->
<g id="node32" class="node">
<title>Node32</title>
<g id="a_node32"><a xlink:href="classargo_1_1globallock_1_1global__tas__lock_ae1a2cc75c9371ed191ac68f4e72f227e.html#ae1a2cc75c9371ed191ac68f4e72f227e" target="_top" xlink:title="take the lock">
<polygon fill="white" stroke="black" points="441,-98.5 441,-128.5 572,-128.5 572,-98.5 441,-98.5"/>
<text text-anchor="start" x="449" y="-116.5" font-family="Helvetica,sans-Serif" font-size="10.00">argo::globallock::global</text>
<text text-anchor="middle" x="506.5" y="-105.5" font-family="Helvetica,sans-Serif" font-size="10.00">_tas_lock::lock</text>
</a>
</g>
</g>
<!-- Node31&#45;&gt;Node32 -->
<g id="edge36" class="edge">
<title>Node31&#45;&gt;Node32</title>
<path fill="none" stroke="midnightblue" d="M633.42,-112.24C613.33,-112.44 591.77,-112.66 572.27,-112.85"/>
<polygon fill="midnightblue" stroke="midnightblue" points="633.49,-115.74 643.46,-112.14 633.42,-108.74 633.49,-115.74"/>
</g>
<!-- Node33 -->
<g id="node33" class="node">
<title>Node33</title>
<g id="a_node33"><a xlink:href="classargo_1_1mempools_1_1global__memory__pool_ac37f5714010e1f4b482e6c6a8a246c05.html#ac37f5714010e1f4b482e6c6a8a246c05" target="_top" xlink:title="check remaining available memory in pool">
<polygon fill="white" stroke="black" points="263,-49.5 263,-79.5 403,-79.5 403,-49.5 263,-49.5"/>
<text text-anchor="start" x="271" y="-67.5" font-family="Helvetica,sans-Serif" font-size="10.00">argo::mempools::global</text>
<text text-anchor="middle" x="333" y="-56.5" font-family="Helvetica,sans-Serif" font-size="10.00">_memory_pool::available</text>
</a>
</g>
</g>
<!-- Node32&#45;&gt;Node33 -->
<g id="edge37" class="edge">
<title>Node32&#45;&gt;Node33</title>
<path fill="none" stroke="midnightblue" d="M442.87,-95.61C424.42,-90.34 404.44,-84.62 386.68,-79.55"/>
<polygon fill="midnightblue" stroke="midnightblue" points="442.07,-99.02 452.64,-98.4 443.99,-92.29 442.07,-99.02"/>
</g>
<!-- Node35 -->
<g id="node35" class="node">
<title>Node35</title>
<g id="a_node35"><a xlink:href="classargo_1_1globallock_1_1cohort__lock_ae6e70438d85a8ae5698d198ce11d9a89.html#ae6e70438d85a8ae5698d198ce11d9a89" target="_top" xlink:title="Acquire the lock.">
<polygon fill="white" stroke="black" points="267.5,-147.5 267.5,-177.5 398.5,-177.5 398.5,-147.5 267.5,-147.5"/>
<text text-anchor="start" x="275.5" y="-165.5" font-family="Helvetica,sans-Serif" font-size="10.00">argo::globallock::cohort</text>
<text text-anchor="middle" x="333" y="-154.5" font-family="Helvetica,sans-Serif" font-size="10.00">_lock::lock</text>
</a>
</g>
</g>
<!-- Node32&#45;&gt;Node35 -->
<g id="edge39" class="edge">
<title>Node32&#45;&gt;Node35</title>
<path fill="none" stroke="midnightblue" d="M442.87,-131.39C424.42,-136.66 404.44,-142.38 386.68,-147.45"/>
<polygon fill="midnightblue" stroke="midnightblue" points="443.99,-134.71 452.64,-128.6 442.07,-127.98 443.99,-134.71"/>
</g>
<!-- Node37 -->
<g id="node37" class="node">
<title>Node37</title>
<g id="a_node37"><a xlink:href="classargo_1_1mempools_1_1global__memory__pool_af2ce384d7ee177371521c875045c565c.html#af2ce384d7ee177371521c875045c565c" target="_top" xlink:title="Reserve more memory.">
<polygon fill="white" stroke="black" points="267,-98.5 267,-128.5 399,-128.5 399,-98.5 267,-98.5"/>
<text text-anchor="start" x="275" y="-116.5" font-family="Helvetica,sans-Serif" font-size="10.00">argo::mempools::global</text>
<text text-anchor="middle" x="333" y="-105.5" font-family="Helvetica,sans-Serif" font-size="10.00">_memory_pool::reserve</text>
</a>
</g>
</g>
<!-- Node32&#45;&gt;Node37 -->
<g id="edge41" class="edge">
<title>Node32&#45;&gt;Node37</title>
<path fill="none" stroke="midnightblue" d="M430.37,-113.5C419.99,-113.5 409.4,-113.5 399.21,-113.5"/>
<polygon fill="midnightblue" stroke="midnightblue" points="430.66,-117 440.66,-113.5 430.66,-110 430.66,-117"/>
</g>
<!-- Node34 -->
<g id="node34" class="node">
<title>Node34</title>
<g id="a_node34"><a xlink:href="tests_2allocators_8cpp_ab6f86a07c7fdc11016618b4a93bd5045.html#ab6f86a07c7fdc11016618b4a93bd5045" target="_top" xlink:title="Unittest that checks that the global address space is at least as large as requested.">
<polygon fill="white" stroke="black" points="135,-55 135,-74 187,-74 187,-55 135,-55"/>
<text text-anchor="middle" x="161" y="-62" font-family="Helvetica,sans-Serif" font-size="10.00">TEST_F</text>
</a>
</g>
</g>
<!-- Node33&#45;&gt;Node34 -->
<g id="edge38" class="edge">
<title>Node33&#45;&gt;Node34</title>
<path fill="none" stroke="midnightblue" d="M252.78,-64.5C229.13,-64.5 204.88,-64.5 187.4,-64.5"/>
<polygon fill="midnightblue" stroke="midnightblue" points="252.85,-68 262.85,-64.5 252.85,-61 252.85,-68"/>
</g>
<!-- Node36 -->
<g id="node36" class="node">
<title>Node36</title>
<g id="a_node36"><a xlink:href="cohort__lock_8cpp_a3518d9666b8fe266f34c7aea2b4a583e.html#a3518d9666b8fe266f34c7aea2b4a583e" target="_top" xlink:title="lock a cohort lock">
<polygon fill="white" stroke="black" points="101,-153 101,-172 221,-172 221,-153 101,-153"/>
<text text-anchor="middle" x="161" y="-160" font-family="Helvetica,sans-Serif" font-size="10.00">argo_cohortlock_lock</text>
</a>
</g>
</g>
<!-- Node35&#45;&gt;Node36 -->
<g id="edge40" class="edge">
<title>Node35&#45;&gt;Node36</title>
<path fill="none" stroke="midnightblue" d="M257.22,-162.5C245.19,-162.5 232.88,-162.5 221.27,-162.5"/>
<polygon fill="midnightblue" stroke="midnightblue" points="257.25,-166 267.25,-162.5 257.25,-159 257.25,-166"/>
</g>
<!-- Node38&#45;&gt;Node33 -->
<g id="edge43" class="edge">
<title>Node38&#45;&gt;Node33</title>
<path fill="none" stroke="midnightblue" d="M430.51,-64.5C421.44,-64.5 412.2,-64.5 403.22,-64.5"/>
<polygon fill="midnightblue" stroke="midnightblue" points="430.66,-68 440.66,-64.5 430.66,-61 430.66,-68"/>
</g>
<!-- Node38&#45;&gt;Node37 -->
<g id="edge44" class="edge">
<title>Node38&#45;&gt;Node37</title>
<path fill="none" stroke="midnightblue" d="M442.87,-82.39C424.42,-87.66 404.44,-93.38 386.68,-98.45"/>
<polygon fill="midnightblue" stroke="midnightblue" points="443.99,-85.71 452.64,-79.6 442.07,-78.98 443.99,-85.71"/>
</g>
<!-- Node39 -->
<g id="node39" class="node">
<title>Node39</title>
<g id="a_node39"><a xlink:href="classargo_1_1globallock_1_1cohort__lock_ac937f13d00780ca9ff8f4dd826c6c12b.html#ac937f13d00780ca9ff8f4dd826c6c12b" target="_top" xlink:title="Release the lock.">
<polygon fill="white" stroke="black" points="267.5,-0.5 267.5,-30.5 398.5,-30.5 398.5,-0.5 267.5,-0.5"/>
<text text-anchor="start" x="275.5" y="-18.5" font-family="Helvetica,sans-Serif" font-size="10.00">argo::globallock::cohort</text>
<text text-anchor="middle" x="333" y="-7.5" font-family="Helvetica,sans-Serif" font-size="10.00">_lock::unlock</text>
</a>
</g>
</g>
<!-- Node38&#45;&gt;Node39 -->
<g id="edge45" class="edge">
<title>Node38&#45;&gt;Node39</title>
<path fill="none" stroke="midnightblue" d="M442.87,-46.61C424.42,-41.34 404.44,-35.62 386.68,-30.55"/>
<polygon fill="midnightblue" stroke="midnightblue" points="442.07,-50.02 452.64,-49.4 443.99,-43.29 442.07,-50.02"/>
</g>
<!-- Node40 -->
<g id="node40" class="node">
<title>Node40</title>
<g id="a_node40"><a xlink:href="cohort__lock_8cpp_aecc3694b56dfe7472a345995d7559e89.html#aecc3694b56dfe7472a345995d7559e89" target="_top" xlink:title="unlock a cohort lock">
<polygon fill="white" stroke="black" points="95,-6 95,-25 227,-25 227,-6 95,-6"/>
<text text-anchor="middle" x="161" y="-13" font-family="Helvetica,sans-Serif" font-size="10.00">argo_cohortlock_unlock</text>
</a>
</g>
</g>
<!-- Node39&#45;&gt;Node40 -->
<g id="edge46" class="edge">
<title>Node39&#45;&gt;Node40</title>
<path fill="none" stroke="midnightblue" d="M256.97,-15.5C247.03,-15.5 236.9,-15.5 227.14,-15.5"/>
<polygon fill="midnightblue" stroke="midnightblue" points="257.25,-19 267.25,-15.5 257.25,-12 257.25,-19"/>
</g>
<!-- Node41&#45;&gt;Node18 -->
<g id="edge48" class="edge">
<title>Node41&#45;&gt;Node18</title>
<path fill="none" stroke="midnightblue" d="M631.89,-387.1C612.72,-391.79 592.28,-396.78 573.64,-401.34"/>
<polygon fill="midnightblue" stroke="midnightblue" points="632.91,-390.45 641.79,-384.68 631.25,-383.65 632.91,-390.45"/>
</g>
<!-- Node41&#45;&gt;Node19 -->
<g id="edge50" class="edge">
<title>Node41&#45;&gt;Node19</title>
<path fill="none" stroke="midnightblue" d="M631.55,-369.68C577.43,-371.54 503.32,-376.17 439,-387.5 425.56,-389.87 411.37,-393.28 397.92,-396.96"/>
<polygon fill="midnightblue" stroke="midnightblue" points="631.87,-373.17 641.76,-369.36 631.65,-366.18 631.87,-373.17"/>
</g>
<!-- Node41&#45;&gt;Node20 -->
<g id="edge49" class="edge">
<title>Node41&#45;&gt;Node20</title>
<path fill="none" stroke="midnightblue" d="M631.89,-349.9C612.72,-345.21 592.28,-340.22 573.64,-335.66"/>
<polygon fill="midnightblue" stroke="midnightblue" points="631.25,-353.35 641.79,-352.32 632.91,-346.55 631.25,-353.35"/>
</g>
<!-- Node41&#45;&gt;Node21 -->
<g id="edge51" class="edge">
<title>Node41&#45;&gt;Node21</title>
<path fill="none" stroke="midnightblue" d="M666.72,-342.59C640.56,-326.56 605.77,-305.97 574,-289.5 567.82,-286.29 561.22,-283.08 554.67,-280.01"/>
<polygon fill="midnightblue" stroke="midnightblue" points="664.9,-345.57 675.25,-347.84 668.57,-339.61 664.9,-345.57"/>
</g>
</g>
</svg>
