<?xml version="1.0" encoding="UTF-8" standalone="no"?>
<!DOCTYPE svg PUBLIC "-//W3C//DTD SVG 1.1//EN"
 "http://www.w3.org/Graphics/SVG/1.1/DTD/svg11.dtd">
<!-- Generated by graphviz version 2.43.0 (0)
 -->
<!-- Title: argo::barrier Pages: 1 -->
<svg width="434pt" height="192pt"
 viewBox="0.00 0.00 434.00 192.00" xmlns="http://www.w3.org/2000/svg" xmlns:xlink="http://www.w3.org/1999/xlink">
<g id="graph0" class="graph" transform="scale(1 1) rotate(0) translate(4 188)">
<title>argo::barrier</title>
<polygon fill="white" stroke="transparent" points="-4,4 -4,-188 430,-188 430,4 -4,4"/>
<!-- Node1 -->
<g id="node1" class="node">
<title>Node1</title>
<g id="a_node1"><a xlink:title="a barrier for ArgoDSM nodes">
<polygon fill="#bfbfbf" stroke="black" points="349,-82.5 349,-101.5 426,-101.5 426,-82.5 349,-82.5"/>
<text text-anchor="middle" x="387.5" y="-89.5" font-family="Helvetica,sans-Serif" font-size="10.00">argo::barrier</text>
</a>
</g>
</g>
<!-- Node2 -->
<g id="node2" class="node">
<title>Node2</title>
<g id="a_node2"><a xlink:href="synchronization_8cpp_a8807b352403d7158771b83cbbe48ad0f.html#a8807b352403d7158771b83cbbe48ad0f" target="_top" xlink:title="a barrier for ArgoDSM nodes">
<polygon fill="white" stroke="black" points="205.5,-164.5 205.5,-183.5 281.5,-183.5 281.5,-164.5 205.5,-164.5"/>
<text text-anchor="middle" x="243.5" y="-171.5" font-family="Helvetica,sans-Serif" font-size="10.00">argo_barrier</text>
</a>
</g>
</g>
<!-- Node1&#45;&gt;Node2 -->
<g id="edge1" class="edge">
<title>Node1&#45;&gt;Node2</title>
<path fill="none" stroke="midnightblue" d="M370.7,-109.23C356.79,-123.43 335.32,-143.11 313,-155 303.31,-160.17 292.07,-164.04 281.54,-166.89"/>
<polygon fill="midnightblue" stroke="midnightblue" points="373.61,-111.25 377.97,-101.6 368.54,-106.43 373.61,-111.25"/>
</g>
<!-- Node3 -->
<g id="node3" class="node">
<title>Node3</title>
<g id="a_node3"><a xlink:href="namespaceargo_a4e9bea5bf7f74b21448420f9f1573db7.html#a4e9bea5bf7f74b21448420f9f1573db7" target="_top" xlink:title="a barrier for ArgoDSM nodes">
<polygon fill="white" stroke="black" points="174,-126.5 174,-145.5 313,-145.5 313,-126.5 174,-126.5"/>
<text text-anchor="middle" x="243.5" y="-133.5" font-family="Helvetica,sans-Serif" font-size="10.00">argo::barrier_upgrade_all</text>
</a>
</g>
</g>
<!-- Node1&#45;&gt;Node3 -->
<g id="edge2" class="edge">
<title>Node1&#45;&gt;Node3</title>
<path fill="none" stroke="midnightblue" d="M350.2,-104.81C338.38,-108.85 325.18,-113.24 313,-117 302.5,-120.24 291.03,-123.52 280.52,-126.43"/>
<polygon fill="midnightblue" stroke="midnightblue" points="351.43,-108.09 359.74,-101.51 349.15,-101.47 351.43,-108.09"/>
</g>
<!-- Node6 -->
<g id="node6" class="node">
<title>Node6</title>
<g id="a_node6"><a xlink:href="namespaceargo_a3c2fd778eb27bc574391f2ab515abe81.html#a3c2fd778eb27bc574391f2ab515abe81" target="_top" xlink:title="a barrier for ArgoDSM nodes">
<polygon fill="white" stroke="black" points="182.5,-77 182.5,-107 304.5,-107 304.5,-77 182.5,-77"/>
<text text-anchor="start" x="190.5" y="-95" font-family="Helvetica,sans-Serif" font-size="10.00">argo::barrier_upgrade</text>
<text text-anchor="middle" x="243.5" y="-84" font-family="Helvetica,sans-Serif" font-size="10.00">_writers</text>
</a>
</g>
</g>
<!-- Node1&#45;&gt;Node6 -->
<g id="edge5" class="edge">
<title>Node1&#45;&gt;Node6</title>
<path fill="none" stroke="midnightblue" d="M338.64,-92C327.72,-92 315.98,-92 304.62,-92"/>
<polygon fill="midnightblue" stroke="midnightblue" points="338.82,-95.5 348.82,-92 338.82,-88.5 338.82,-95.5"/>
</g>
<!-- Node9 -->
<g id="node9" class="node">
<title>Node9</title>
<g id="a_node9"><a xlink:href="tests_2allocators_8cpp_ae126220d4ebd940b8dcc827b3c74ceda.html#ae126220d4ebd940b8dcc827b3c74ceda" target="_top" xlink:title="Unittest that checks that node 0 allocating the whole requested memory space dynamically &#45; also check...">
<polygon fill="white" stroke="black" points="217.5,-38.5 217.5,-57.5 269.5,-57.5 269.5,-38.5 217.5,-38.5"/>
<text text-anchor="middle" x="243.5" y="-45.5" font-family="Helvetica,sans-Serif" font-size="10.00">TEST_F</text>
</a>
</g>
</g>
<!-- Node1&#45;&gt;Node9 -->
<g id="edge8" class="edge">
<title>Node1&#45;&gt;Node9</title>
<path fill="none" stroke="midnightblue" d="M350.2,-79.19C338.38,-75.15 325.18,-70.76 313,-67 298.73,-62.6 282.65,-58.11 269.65,-54.61"/>
<polygon fill="midnightblue" stroke="midnightblue" points="349.15,-82.53 359.74,-82.49 351.43,-75.91 349.15,-82.53"/>
</g>
<!-- Node10 -->
<g id="node10" class="node">
<title>Node10</title>
<g id="a_node10"><a xlink:href="barrier_8cpp_a03ef2b2b4275df192876f1fc8943aadf.html#a03ef2b2b4275df192876f1fc8943aadf" target="_top" xlink:title="Unittest that checks that the barrier call works with multiple threads.">
<polygon fill="white" stroke="black" points="217.5,-0.5 217.5,-19.5 269.5,-19.5 269.5,-0.5 217.5,-0.5"/>
<text text-anchor="middle" x="243.5" y="-7.5" font-family="Helvetica,sans-Serif" font-size="10.00">TEST_P</text>
</a>
</g>
</g>
<!-- Node1&#45;&gt;Node10 -->
<g id="edge9" class="edge">
<title>Node1&#45;&gt;Node10</title>
<path fill="none" stroke="midnightblue" d="M370.7,-74.77C356.79,-60.57 335.32,-40.89 313,-29 299.49,-21.8 283,-17.12 269.58,-14.21"/>
<polygon fill="midnightblue" stroke="midnightblue" points="368.54,-77.57 377.97,-82.4 373.61,-72.75 368.54,-77.57"/>
</g>
<!-- Node4 -->
<g id="node4" class="node">
<title>Node4</title>
<g id="a_node4"><a xlink:href="synchronization_8cpp_ad2e7dd5791af5c00036fec06230d8dfa.html#ad2e7dd5791af5c00036fec06230d8dfa" target="_top" xlink:title="a barrier for ArgoDSM nodes">
<polygon fill="white" stroke="black" points="0,-164.5 0,-183.5 138,-183.5 138,-164.5 0,-164.5"/>
<text text-anchor="middle" x="69" y="-171.5" font-family="Helvetica,sans-Serif" font-size="10.00">argo_barrier_upgrade_all</text>
</a>
</g>
</g>
<!-- Node3&#45;&gt;Node4 -->
<g id="edge3" class="edge">
<title>Node3&#45;&gt;Node4</title>
<path fill="none" stroke="midnightblue" d="M189.15,-147.75C164.76,-153.13 136.24,-159.41 113.22,-164.48"/>
<polygon fill="midnightblue" stroke="midnightblue" points="189.96,-151.16 198.97,-145.59 188.45,-144.32 189.96,-151.16"/>
</g>
<!-- Node5 -->
<g id="node5" class="node">
<title>Node5</title>
<g id="a_node5"><a xlink:href="barrier_8cpp_a7b8f20222887f251e909be0271afce40.html#a7b8f20222887f251e909be0271afce40" target="_top" xlink:title="Unittest that checks that pages transition to state P following an upgrade all barrier,...">
<polygon fill="white" stroke="black" points="43,-126.5 43,-145.5 95,-145.5 95,-126.5 43,-126.5"/>
<text text-anchor="middle" x="69" y="-133.5" font-family="Helvetica,sans-Serif" font-size="10.00">TEST_F</text>
</a>
</g>
</g>
<!-- Node3&#45;&gt;Node5 -->
<g id="edge4" class="edge">
<title>Node3&#45;&gt;Node5</title>
<path fill="none" stroke="midnightblue" d="M163.7,-136C139.05,-136 113.57,-136 95.42,-136"/>
<polygon fill="midnightblue" stroke="midnightblue" points="163.83,-139.5 173.83,-136 163.83,-132.5 163.83,-139.5"/>
</g>
<!-- Node7 -->
<g id="node7" class="node">
<title>Node7</title>
<g id="a_node7"><a xlink:href="synchronization_8cpp_a88dd7837a09073c0e53da31aabef6c80.html#a88dd7837a09073c0e53da31aabef6c80" target="_top" xlink:title="a barrier for ArgoDSM nodes">
<polygon fill="white" stroke="black" points="8.5,-77 8.5,-107 129.5,-107 129.5,-77 8.5,-77"/>
<text text-anchor="start" x="16.5" y="-95" font-family="Helvetica,sans-Serif" font-size="10.00">argo_barrier_upgrade</text>
<text text-anchor="middle" x="69" y="-84" font-family="Helvetica,sans-Serif" font-size="10.00">_writers</text>
</a>
</g>
</g>
<!-- Node6&#45;&gt;Node7 -->
<g id="edge6" class="edge">
<title>Node6&#45;&gt;Node7</title>
<path fill="none" stroke="midnightblue" d="M172.06,-92C158,-92 143.37,-92 129.72,-92"/>
<polygon fill="midnightblue" stroke="midnightblue" points="172.17,-95.5 182.17,-92 172.17,-88.5 172.17,-95.5"/>
</g>
<!-- Node8 -->
<g id="node8" class="node">
<title>Node8</title>
<g id="a_node8"><a xlink:href="barrier_8cpp_a8933973d27c4a6e15a324ee106462146.html#a8933973d27c4a6e15a324ee106462146" target="_top" xlink:title="Unittest that checks that pages that have been written transition from S/SW to S following an upgrade...">
<polygon fill="white" stroke="black" points="43,-38.5 43,-57.5 95,-57.5 95,-38.5 43,-38.5"/>
<text text-anchor="middle" x="69" y="-45.5" font-family="Helvetica,sans-Serif" font-size="10.00">TEST_F</text>
</a>
</g>
</g>
<!-- Node6&#45;&gt;Node8 -->
<g id="edge7" class="edge">
<title>Node6&#45;&gt;Node8</title>
<path fill="none" stroke="midnightblue" d="M173.6,-74.43C146.04,-67.4 116.02,-59.74 95.42,-54.48"/>
<polygon fill="midnightblue" stroke="midnightblue" points="173.06,-77.9 183.62,-76.98 174.79,-71.12 173.06,-77.9"/>
</g>
</g>
</svg>
