<?xml version="1.0" encoding="UTF-8" standalone="no"?>
<!DOCTYPE svg PUBLIC "-//W3C//DTD SVG 1.1//EN"
 "http://www.w3.org/Graphics/SVG/1.1/DTD/svg11.dtd">
<!-- Generated by graphviz version 2.43.0 (0)
 -->
<!-- Title: argo::conew_array Pages: 1 -->
<svg width="652pt" height="110pt"
 viewBox="0.00 0.00 652.00 109.50" xmlns="http://www.w3.org/2000/svg" xmlns:xlink="http://www.w3.org/1999/xlink">
<g id="graph0" class="graph" transform="scale(1 1) rotate(0) translate(4 105.5)">
<title>argo::conew_array</title>
<polygon fill="white" stroke="transparent" points="-4,4 -4,-105.5 648,-105.5 648,4 -4,4"/>
<!-- Node1 -->
<g id="node1" class="node">
<title>Node1</title>
<g id="a_node1"><a xlink:title="Collectively construct a new array of objects in the global memory.">
<polygon fill="#bfbfbf" stroke="black" points="0,-38.5 0,-57.5 107,-57.5 107,-38.5 0,-38.5"/>
<text text-anchor="middle" x="53.5" y="-45.5" font-family="Helvetica,sans-Serif" font-size="10.00">argo::conew_array</text>
</a>
</g>
</g>
<!-- Node2 -->
<g id="node2" class="node">
<title>Node2</title>
<g id="a_node2"><a xlink:href="src_2allocators_2allocators_8cpp_a4e8d23563c42daa5dfce669293d7e389.html#a4e8d23563c42daa5dfce669293d7e389" target="_top" xlink:title="basic collective allocation function, for C interface">
<polygon fill="white" stroke="black" points="177.5,-76.5 177.5,-95.5 269.5,-95.5 269.5,-76.5 177.5,-76.5"/>
<text text-anchor="middle" x="223.5" y="-83.5" font-family="Helvetica,sans-Serif" font-size="10.00">collective_alloc</text>
</a>
</g>
</g>
<!-- Node1&#45;&gt;Node2 -->
<g id="edge1" class="edge">
<title>Node1&#45;&gt;Node2</title>
<path fill="none" stroke="midnightblue" d="M96.89,-57.59C119.26,-62.65 146.9,-68.9 170.55,-74.25"/>
<polygon fill="midnightblue" stroke="midnightblue" points="169.89,-77.69 180.41,-76.48 171.43,-70.86 169.89,-77.69"/>
</g>
<!-- Node5 -->
<g id="node5" class="node">
<title>Node5</title>
<g id="a_node5"><a xlink:href="namespaceargo_a188a4648d6e7549bcef4cee36dcb5336.html#a188a4648d6e7549bcef4cee36dcb5336" target="_top" xlink:title="A unique ArgoDSM node identifier. Counting starts from 0.">
<polygon fill="white" stroke="black" points="182,-38.5 182,-57.5 265,-57.5 265,-38.5 182,-38.5"/>
<text text-anchor="middle" x="223.5" y="-45.5" font-family="Helvetica,sans-Serif" font-size="10.00">argo::node_id</text>
</a>
</g>
</g>
<!-- Node1&#45;&gt;Node5 -->
<g id="edge4" class="edge">
<title>Node1&#45;&gt;Node5</title>
<path fill="none" stroke="midnightblue" d="M107.2,-48C127.86,-48 151.47,-48 171.92,-48"/>
<polygon fill="midnightblue" stroke="midnightblue" points="171.99,-51.5 181.99,-48 171.99,-44.5 171.99,-51.5"/>
</g>
<!-- Node6 -->
<g id="node6" class="node">
<title>Node6</title>
<g id="a_node6"><a xlink:href="namespaceargo_1_1mempools_aaa24afb08a15776a8f2440531ba3121c.html#aaa24afb08a15776a8f2440531ba3121c" target="_top" xlink:title="synchronize memory metainformation (address) after growing to ensure visibility">
<polygon fill="white" stroke="black" points="143,-0.5 143,-19.5 304,-19.5 304,-0.5 143,-0.5"/>
<text text-anchor="middle" x="223.5" y="-7.5" font-family="Helvetica,sans-Serif" font-size="10.00">argo::mempools::synchronize</text>
</a>
</g>
</g>
<!-- Node1&#45;&gt;Node6 -->
<g id="edge5" class="edge">
<title>Node1&#45;&gt;Node6</title>
<path fill="none" stroke="midnightblue" d="M96.89,-38.41C119.26,-33.35 146.9,-27.1 170.55,-21.75"/>
<polygon fill="midnightblue" stroke="midnightblue" points="171.43,-25.14 180.41,-19.52 169.89,-18.31 171.43,-25.14"/>
</g>
<!-- Node3 -->
<g id="node3" class="node">
<title>Node3</title>
<g id="a_node3"><a xlink:href="classargo_1_1allocators_1_1generic__allocator_ae0df0734076478aeaeb689cdb902497a.html#ae0df0734076478aeaeb689cdb902497a" target="_top" xlink:title="Allocate memory.">
<polygon fill="white" stroke="black" points="340,-71 340,-101 474,-101 474,-71 340,-71"/>
<text text-anchor="start" x="348" y="-89" font-family="Helvetica,sans-Serif" font-size="10.00">argo::allocators::generic</text>
<text text-anchor="middle" x="407" y="-78" font-family="Helvetica,sans-Serif" font-size="10.00">_allocator::allocate</text>
</a>
</g>
</g>
<!-- Node2&#45;&gt;Node3 -->
<g id="edge2" class="edge">
<title>Node2&#45;&gt;Node3</title>
<path fill="none" stroke="midnightblue" d="M269.83,-86C287.89,-86 309.17,-86 329.48,-86"/>
<polygon fill="midnightblue" stroke="midnightblue" points="329.67,-89.5 339.67,-86 329.67,-82.5 329.67,-89.5"/>
</g>
<!-- Node4 -->
<g id="node4" class="node">
<title>Node4</title>
<g id="a_node4"><a xlink:href="classargo_1_1allocators_1_1generic__allocator_a3a6c4c5d83d679ce7fbfe1a50f323545.html#a3a6c4c5d83d679ce7fbfe1a50f323545" target="_top" xlink:title="helper function to align a number up to the next alignment">
<polygon fill="white" stroke="black" points="510,-71 510,-101 644,-101 644,-71 510,-71"/>
<text text-anchor="start" x="518" y="-89" font-family="Helvetica,sans-Serif" font-size="10.00">argo::allocators::generic</text>
<text text-anchor="middle" x="577" y="-78" font-family="Helvetica,sans-Serif" font-size="10.00">_allocator::align_up</text>
</a>
</g>
</g>
<!-- Node3&#45;&gt;Node4 -->
<g id="edge3" class="edge">
<title>Node3&#45;&gt;Node4</title>
<path fill="none" stroke="midnightblue" d="M474.4,-86C482.68,-86 491.2,-86 499.62,-86"/>
<polygon fill="midnightblue" stroke="midnightblue" points="499.81,-89.5 509.81,-86 499.81,-82.5 499.81,-89.5"/>
</g>
</g>
</svg>
