<?xml version="1.0" encoding="UTF-8" standalone="no"?>
<!DOCTYPE svg PUBLIC "-//W3C//DTD SVG 1.1//EN"
 "http://www.w3.org/Graphics/SVG/1.1/DTD/svg11.dtd">
<!-- Generated by graphviz version 2.43.0 (0)
 -->
<!-- Title: argo::get_block_size Pages: 1 -->
<svg width="603pt" height="198pt"
 viewBox="0.00 0.00 603.00 198.00" xmlns="http://www.w3.org/2000/svg" xmlns:xlink="http://www.w3.org/1999/xlink">
<g id="graph0" class="graph" transform="scale(1 1) rotate(0) translate(4 194)">
<title>argo::get_block_size</title>
<polygon fill="white" stroke="transparent" points="-4,4 -4,-194 599,-194 599,4 -4,4"/>
<!-- Node1 -->
<g id="node1" class="node">
<title>Node1</title>
<g id="a_node1"><a xlink:title="Get the block size of the current allocation policy.">
<polygon fill="#bfbfbf" stroke="black" points="0,-82 0,-101 116,-101 116,-82 0,-82"/>
<text text-anchor="middle" x="58" y="-89" font-family="Helvetica,sans-Serif" font-size="10.00">argo::get_block_size</text>
</a>
</g>
</g>
<!-- Node2 -->
<g id="node2" class="node">
<title>Node2</title>
<g id="a_node2"><a xlink:href="namespaceargo_1_1data__distribution_a2a70ed49553953957c3a28aa755d7ac8.html#a2a70ed49553953957c3a28aa755d7ac8" target="_top" xlink:title="based on the chosen policy, gets the policy block size">
<polygon fill="white" stroke="black" points="152,-76.5 152,-106.5 279,-106.5 279,-76.5 152,-76.5"/>
<text text-anchor="start" x="160" y="-94.5" font-family="Helvetica,sans-Serif" font-size="10.00">argo::data_distribution</text>
<text text-anchor="middle" x="215.5" y="-83.5" font-family="Helvetica,sans-Serif" font-size="10.00">::policy_block_size</text>
</a>
</g>
</g>
<!-- Node1&#45;&gt;Node2 -->
<g id="edge1" class="edge">
<title>Node1&#45;&gt;Node2</title>
<path fill="none" stroke="midnightblue" d="M116.02,-91.5C124.43,-91.5 133.19,-91.5 141.86,-91.5"/>
<polygon fill="midnightblue" stroke="midnightblue" points="141.98,-95 151.98,-91.5 141.98,-88 141.98,-95"/>
</g>
<!-- Node3 -->
<g id="node3" class="node">
<title>Node3</title>
<g id="a_node3"><a xlink:href="namespaceargo_1_1env_a30775a9aa41b956df7474a2c0cc317aa.html#a30775a9aa41b956df7474a2c0cc317aa" target="_top" xlink:title="get the allocation block size requested by environment variable">
<polygon fill="white" stroke="black" points="321,-159.5 321,-189.5 437,-189.5 437,-159.5 321,-159.5"/>
<text text-anchor="start" x="329" y="-177.5" font-family="Helvetica,sans-Serif" font-size="10.00">argo::env::allocation</text>
<text text-anchor="middle" x="379" y="-166.5" font-family="Helvetica,sans-Serif" font-size="10.00">_block_size</text>
</a>
</g>
</g>
<!-- Node2&#45;&gt;Node3 -->
<g id="edge2" class="edge">
<title>Node2&#45;&gt;Node3</title>
<path fill="none" stroke="midnightblue" d="M239.82,-106.62C259.43,-118.99 288.44,-136.51 315,-149.5 319.09,-151.5 323.39,-153.47 327.74,-155.37"/>
<polygon fill="midnightblue" stroke="midnightblue" points="326.69,-158.73 337.27,-159.41 329.42,-152.28 326.69,-158.73"/>
</g>
<!-- Node4 -->
<g id="node4" class="node">
<title>Node4</title>
<g id="a_node4"><a xlink:href="classargo_1_1data__distribution_1_1base__distribution_a150661b9199cd90dbdd59c6d9d593f3d.html#a150661b9199cd90dbdd59c6d9d593f3d" target="_top" xlink:title="get the backing store size per node">
<polygon fill="white" stroke="black" points="315,-99 315,-140 443,-140 443,-99 315,-99"/>
<text text-anchor="start" x="323" y="-128" font-family="Helvetica,sans-Serif" font-size="10.00">argo::data_distribution</text>
<text text-anchor="start" x="323" y="-117" font-family="Helvetica,sans-Serif" font-size="10.00">::base_distribution::get</text>
<text text-anchor="middle" x="379" y="-106" font-family="Helvetica,sans-Serif" font-size="10.00">_size_per_node</text>
</a>
</g>
</g>
<!-- Node2&#45;&gt;Node4 -->
<g id="edge3" class="edge">
<title>Node2&#45;&gt;Node4</title>
<path fill="none" stroke="midnightblue" d="M279.4,-102.41C287.74,-103.85 296.35,-105.34 304.84,-106.82"/>
<polygon fill="midnightblue" stroke="midnightblue" points="304.29,-110.27 314.74,-108.53 305.48,-103.38 304.29,-110.27"/>
</g>
<!-- Node5 -->
<g id="node5" class="node">
<title>Node5</title>
<g id="a_node5"><a xlink:href="namespaceargo_1_1data__distribution_a1bb3f2dcecd237990e6dc67764f06860.html#a1bb3f2dcecd237990e6dc67764f06860" target="_top" xlink:title="identifies if we distribute data using a cyclic memory policy">
<polygon fill="white" stroke="black" points="315.5,-49.5 315.5,-79.5 442.5,-79.5 442.5,-49.5 315.5,-49.5"/>
<text text-anchor="start" x="323.5" y="-67.5" font-family="Helvetica,sans-Serif" font-size="10.00">argo::data_distribution</text>
<text text-anchor="middle" x="379" y="-56.5" font-family="Helvetica,sans-Serif" font-size="10.00">::is_cyclic_policy</text>
</a>
</g>
</g>
<!-- Node2&#45;&gt;Node5 -->
<g id="edge4" class="edge">
<title>Node2&#45;&gt;Node5</title>
<path fill="none" stroke="midnightblue" d="M279.4,-80.98C287.87,-79.57 296.61,-78.11 305.23,-76.67"/>
<polygon fill="midnightblue" stroke="midnightblue" points="305.98,-80.09 315.27,-74.99 304.83,-73.18 305.98,-80.09"/>
</g>
<!-- Node7 -->
<g id="node7" class="node">
<title>Node7</title>
<g id="a_node7"><a xlink:href="namespaceargo_1_1data__distribution_a58576657391f45caf61bf0748a23b098.html#a58576657391f45caf61bf0748a23b098" target="_top" xlink:title="identifies if we distribute data using the first&#45;touch memory policy">
<polygon fill="white" stroke="black" points="315.5,-0.5 315.5,-30.5 442.5,-30.5 442.5,-0.5 315.5,-0.5"/>
<text text-anchor="start" x="323.5" y="-18.5" font-family="Helvetica,sans-Serif" font-size="10.00">argo::data_distribution</text>
<text text-anchor="middle" x="379" y="-7.5" font-family="Helvetica,sans-Serif" font-size="10.00">::is_first_touch_policy</text>
</a>
</g>
</g>
<!-- Node2&#45;&gt;Node7 -->
<g id="edge6" class="edge">
<title>Node2&#45;&gt;Node7</title>
<path fill="none" stroke="midnightblue" d="M243.73,-76.46C263.31,-65.89 290.47,-51.68 315,-40.5 319.45,-38.47 324.12,-36.44 328.81,-34.47"/>
<polygon fill="midnightblue" stroke="midnightblue" points="330.51,-37.55 338.42,-30.5 327.85,-31.08 330.51,-37.55"/>
</g>
<!-- Node6 -->
<g id="node6" class="node">
<title>Node6</title>
<g id="a_node6"><a xlink:href="namespaceargo_1_1env_a25a08cb2d0d11432d640ec7173063339.html#a25a08cb2d0d11432d640ec7173063339" target="_top" xlink:title="get the allocation policy requested by environment variable">
<polygon fill="white" stroke="black" points="479,-24.5 479,-54.5 595,-54.5 595,-24.5 479,-24.5"/>
<text text-anchor="start" x="487" y="-42.5" font-family="Helvetica,sans-Serif" font-size="10.00">argo::env::allocation</text>
<text text-anchor="middle" x="537" y="-31.5" font-family="Helvetica,sans-Serif" font-size="10.00">_policy</text>
</a>
</g>
</g>
<!-- Node5&#45;&gt;Node6 -->
<g id="edge5" class="edge">
<title>Node5&#45;&gt;Node6</title>
<path fill="none" stroke="midnightblue" d="M442.55,-54.48C451.2,-53.09 460.12,-51.66 468.85,-50.26"/>
<polygon fill="midnightblue" stroke="midnightblue" points="469.67,-53.68 478.99,-48.64 468.56,-46.76 469.67,-53.68"/>
</g>
<!-- Node7&#45;&gt;Node6 -->
<g id="edge7" class="edge">
<title>Node7&#45;&gt;Node6</title>
<path fill="none" stroke="midnightblue" d="M442.55,-25.12C451.2,-26.45 460.12,-27.83 468.85,-29.17"/>
<polygon fill="midnightblue" stroke="midnightblue" points="468.57,-32.67 478.99,-30.73 469.64,-25.75 468.57,-32.67"/>
</g>
</g>
</svg>
