<?xml version="1.0" encoding="UTF-8" standalone="no"?>
<!DOCTYPE svg PUBLIC "-//W3C//DTD SVG 1.1//EN"
 "http://www.w3.org/Graphics/SVG/1.1/DTD/svg11.dtd">
<!-- Generated by graphviz version 2.43.0 (0)
 -->
<!-- Title: argo::barrier_upgrade_writers Pages: 1 -->
<svg width="287pt" height="78pt"
 viewBox="0.00 0.00 287.00 77.50" xmlns="http://www.w3.org/2000/svg" xmlns:xlink="http://www.w3.org/1999/xlink">
<g id="graph0" class="graph" transform="scale(1 1) rotate(0) translate(4 73.5)">
<title>argo::barrier_upgrade_writers</title>
<polygon fill="white" stroke="transparent" points="-4,4 -4,-73.5 283,-73.5 283,4 -4,4"/>
<!-- Node1 -->
<g id="node1" class="node">
<title>Node1</title>
<g id="a_node1"><a xlink:title="a barrier for ArgoDSM nodes">
<polygon fill="#bfbfbf" stroke="black" points="157,-17 157,-47 279,-47 279,-17 157,-17"/>
<text text-anchor="start" x="165" y="-35" font-family="Helvetica,sans-Serif" font-size="10.00">argo::barrier_upgrade</text>
<text text-anchor="middle" x="218" y="-24" font-family="Helvetica,sans-Serif" font-size="10.00">_writers</text>
</a>
</g>
</g>
<!-- Node2 -->
<g id="node2" class="node">
<title>Node2</title>
<g id="a_node2"><a xlink:href="synchronization_8cpp_a88dd7837a09073c0e53da31aabef6c80.html#a88dd7837a09073c0e53da31aabef6c80" target="_top" xlink:title="a barrier for ArgoDSM nodes">
<polygon fill="white" stroke="black" points="0,-39 0,-69 121,-69 121,-39 0,-39"/>
<text text-anchor="start" x="8" y="-57" font-family="Helvetica,sans-Serif" font-size="10.00">argo_barrier_upgrade</text>
<text text-anchor="middle" x="60.5" y="-46" font-family="Helvetica,sans-Serif" font-size="10.00">_writers</text>
</a>
</g>
</g>
<!-- Node1&#45;&gt;Node2 -->
<g id="edge1" class="edge">
<title>Node1&#45;&gt;Node2</title>
<path fill="none" stroke="midnightblue" d="M146.89,-41.92C138.31,-43.13 129.61,-44.36 121.2,-45.55"/>
<polygon fill="midnightblue" stroke="midnightblue" points="147.47,-45.37 156.88,-40.51 146.49,-38.44 147.47,-45.37"/>
</g>
<!-- Node3 -->
<g id="node3" class="node">
<title>Node3</title>
<g id="a_node3"><a xlink:href="barrier_8cpp_a8933973d27c4a6e15a324ee106462146.html#a8933973d27c4a6e15a324ee106462146" target="_top" xlink:title="Unittest that checks that pages that have been written transition from S/SW to S following an upgrade...">
<polygon fill="white" stroke="black" points="34.5,-0.5 34.5,-19.5 86.5,-19.5 86.5,-0.5 34.5,-0.5"/>
<text text-anchor="middle" x="60.5" y="-7.5" font-family="Helvetica,sans-Serif" font-size="10.00">TEST_F</text>
</a>
</g>
</g>
<!-- Node1&#45;&gt;Node3 -->
<g id="edge2" class="edge">
<title>Node1&#45;&gt;Node3</title>
<path fill="none" stroke="midnightblue" d="M146.74,-22.06C125.23,-19.02 102.95,-15.86 86.56,-13.55"/>
<polygon fill="midnightblue" stroke="midnightblue" points="146.49,-25.56 156.88,-23.49 147.47,-18.63 146.49,-25.56"/>
</g>
</g>
</svg>
