<?xml version="1.0" encoding="UTF-8" standalone="no"?>
<!DOCTYPE svg PUBLIC "-//W3C//DTD SVG 1.1//EN"
 "http://www.w3.org/Graphics/SVG/1.1/DTD/svg11.dtd">
<!-- Generated by graphviz version 2.43.0 (0)
 -->
<!-- Title: argo::init Pages: 1 -->
<!--zoomable 396 -->
<svg id="main" version="1.1" xmlns="http://www.w3.org/2000/svg" xmlns:xlink="http://www.w3.org/1999/xlink" xml:space="preserve" onload="init(evt)">
<style type="text/css"><![CDATA[
.edge:hover path { stroke: red; }
.edge:hover polygon { stroke: red; fill: red; }
]]></style>
<script type="text/javascript"><![CDATA[
var edges = document.getElementsByTagName('g');
if (edges && edges.length) {
  for (var i=0;i<edges.length;i++) {
    if (edges[i].id.substr(0,4)=='edge') {
      edges[i].setAttribute('class','edge');
    }
  }
}
]]></script>
        <defs>
                <circle id="rim" cx="0" cy="0" r="7"/>
                <circle id="rim2" cx="0" cy="0" r="3.5"/>
                <g id="zoomPlus">
                        <use xlink:href="#rim" fill="#404040">
                                <set attributeName="fill" to="#808080" begin="zoomplus.mouseover" end="zoomplus.mouseout"/>
                        </use>
                        <path d="M-4,0h8M0,-4v8" fill="none" stroke="white" stroke-width="1.5" pointer-events="none"/>
                </g>
                <g id="zoomMin">
                        <use xlink:href="#rim" fill="#404040">
                                <set attributeName="fill" to="#808080" begin="zoomminus.mouseover" end="zoomminus.mouseout"/>
                        </use>
                        <path d="M-4,0h8" fill="none" stroke="white" stroke-width="1.5" pointer-events="none"/>
                </g>
                <g id="dirArrow">
                        <path fill="none" stroke="white" stroke-width="1.5" d="M0,-3.0v7 M-2.5,-0.5L0,-3.0L2.5,-0.5"/>
                </g>
               <g id="resetDef">
                       <use xlink:href="#rim2" fill="#404040">
                               <set attributeName="fill" to="#808080" begin="reset.mouseover" end="reset.mouseout"/>
                       </use>
               </g>
        </defs>

<script type="text/javascript">
var viewWidth = 694;
var viewHeight = 396;
var sectionId = 'dynsection-0';
</script>
<script xlink:href="svgpan.js"/>
<svg id="graph" class="graph">
<g id="viewport">
<title>argo::init</title>
<polygon fill="white" stroke="transparent" points="-4,4 -4,-392 690,-392 690,4 -4,4"/>
<!-- Node1 -->
<g id="node1" class="node">
<title>Node1</title>
<g id="a_node1"><a xlink:title="initialize ArgoDSM system">
<polygon fill="#bfbfbf" stroke="black" points="0,-194 0,-213 60,-213 60,-194 0,-194"/>
<text text-anchor="middle" x="30" y="-201" font-family="Helvetica,sans-Serif" font-size="10.00">argo::init</text>
</a>
</g>
</g>
<!-- Node2 -->
<g id="node2" class="node">
<title>Node2</title>
<g id="a_node2"><a xlink:href="namespaceargo_1_1env_a30775a9aa41b956df7474a2c0cc317aa.html#a30775a9aa41b956df7474a2c0cc317aa" target="_top" xlink:title="get the allocation block size requested by environment variable">
<polygon fill="white" stroke="black" points="108,-357.5 108,-387.5 224,-387.5 224,-357.5 108,-357.5"/>
<text text-anchor="start" x="116" y="-375.5" font-family="Helvetica,sans-Serif" font-size="10.00">argo::env::allocation</text>
<text text-anchor="middle" x="166" y="-364.5" font-family="Helvetica,sans-Serif" font-size="10.00">_block_size</text>
</a>
</g>
</g>
<!-- Node1&#45;&gt;Node2 -->
<g id="edge1" class="edge">
<title>Node1&#45;&gt;Node2</title>
<path fill="none" stroke="midnightblue" d="M32.61,-213.16C37.39,-238.92 53.91,-309.91 96,-348.5 97.29,-349.68 98.63,-350.8 100.03,-351.87"/>
<polygon fill="midnightblue" stroke="midnightblue" points="98.23,-354.87 108.51,-357.4 102.05,-349 98.23,-354.87"/>
</g>
<!-- Node3 -->
<g id="node3" class="node">
<title>Node3</title>
<g id="a_node3"><a xlink:href="namespaceargo_1_1env_a25a08cb2d0d11432d640ec7173063339.html#a25a08cb2d0d11432d640ec7173063339" target="_top" xlink:title="get the allocation policy requested by environment variable">
<polygon fill="white" stroke="black" points="108,-308.5 108,-338.5 224,-338.5 224,-308.5 108,-308.5"/>
<text text-anchor="start" x="116" y="-326.5" font-family="Helvetica,sans-Serif" font-size="10.00">argo::env::allocation</text>
<text text-anchor="middle" x="166" y="-315.5" font-family="Helvetica,sans-Serif" font-size="10.00">_policy</text>
</a>
</g>
</g>
<!-- Node1&#45;&gt;Node3 -->
<g id="edge2" class="edge">
<title>Node1&#45;&gt;Node3</title>
<path fill="none" stroke="midnightblue" d="M35.07,-213.05C43.61,-232.01 65.2,-274.63 96,-298.5 98.31,-300.29 100.77,-301.96 103.32,-303.52"/>
<polygon fill="midnightblue" stroke="midnightblue" points="101.84,-306.7 112.3,-308.4 105.18,-300.55 101.84,-306.7"/>
</g>
<!-- Node4 -->
<g id="node4" class="node">
<title>Node4</title>
<g id="a_node4"><a xlink:href="namespaceargo_1_1env_aa118cb239143d769e04b17d2a98d48a2.html#aa118cb239143d769e04b17d2a98d48a2" target="_top" xlink:title="get the cache size requested by environment variable">
<polygon fill="white" stroke="black" points="105.5,-270 105.5,-289 226.5,-289 226.5,-270 105.5,-270"/>
<text text-anchor="middle" x="166" y="-277" font-family="Helvetica,sans-Serif" font-size="10.00">argo::env::cache_size</text>
</a>
</g>
</g>
<!-- Node1&#45;&gt;Node4 -->
<g id="edge3" class="edge">
<title>Node1&#45;&gt;Node4</title>
<path fill="none" stroke="midnightblue" d="M39.26,-213.05C50.74,-225.73 72.75,-247.97 96,-260.5 100.22,-262.78 104.74,-264.8 109.37,-266.59"/>
<polygon fill="midnightblue" stroke="midnightblue" points="108.36,-269.95 118.96,-269.95 110.68,-263.34 108.36,-269.95"/>
</g>
<!-- Node5 -->
<g id="node5" class="node">
<title>Node5</title>
<g id="a_node5"><a xlink:href="namespaceargo_1_1env_a3b366d9bdcdee4e6d3ff4f95ecd5d56f.html#a3b366d9bdcdee4e6d3ff4f95ecd5d56f" target="_top" xlink:title="read and store environment variables used by ArgoDSM">
<polygon fill="white" stroke="black" points="124.5,-232 124.5,-251 207.5,-251 207.5,-232 124.5,-232"/>
<text text-anchor="middle" x="166" y="-239" font-family="Helvetica,sans-Serif" font-size="10.00">argo::env::init</text>
</a>
</g>
</g>
<!-- Node1&#45;&gt;Node5 -->
<g id="edge4" class="edge">
<title>Node1&#45;&gt;Node5</title>
<path fill="none" stroke="midnightblue" d="M60.09,-212.11C71.3,-215.4 84.24,-219.16 96,-222.5 103.82,-224.72 112.15,-227.04 120.21,-229.28"/>
<polygon fill="midnightblue" stroke="midnightblue" points="119.3,-232.66 129.87,-231.94 121.16,-225.91 119.3,-232.66"/>
</g>
<!-- Node6 -->
<g id="node6" class="node">
<title>Node6</title>
<g id="a_node6"><a xlink:href="namespaceargo_1_1env_ae6176c970333c2145a90bf1280caad03.html#ae6176c970333c2145a90bf1280caad03" target="_top" xlink:title="get the number of pages fetched remotely per load requested by environment variable">
<polygon fill="white" stroke="black" points="109.5,-194 109.5,-213 222.5,-213 222.5,-194 109.5,-194"/>
<text text-anchor="middle" x="166" y="-201" font-family="Helvetica,sans-Serif" font-size="10.00">argo::env::load_size</text>
</a>
</g>
</g>
<!-- Node1&#45;&gt;Node6 -->
<g id="edge5" class="edge">
<title>Node1&#45;&gt;Node6</title>
<path fill="none" stroke="midnightblue" d="M60.08,-203.5C71.55,-203.5 85.23,-203.5 98.86,-203.5"/>
<polygon fill="midnightblue" stroke="midnightblue" points="99.24,-207 109.24,-203.5 99.24,-200 99.24,-207"/>
</g>
<!-- Node7 -->
<g id="node7" class="node">
<title>Node7</title>
<g id="a_node7"><a xlink:href="namespaceargo_1_1env_af1be596a06fd9e786462c96442172689.html#af1be596a06fd9e786462c96442172689" target="_top" xlink:title="get the memory size requested by environment variable">
<polygon fill="white" stroke="black" points="99,-156 99,-175 233,-175 233,-156 99,-156"/>
<text text-anchor="middle" x="166" y="-163" font-family="Helvetica,sans-Serif" font-size="10.00">argo::env::memory_size</text>
</a>
</g>
</g>
<!-- Node1&#45;&gt;Node7 -->
<g id="edge6" class="edge">
<title>Node1&#45;&gt;Node7</title>
<path fill="none" stroke="midnightblue" d="M60.09,-194.89C71.3,-191.6 84.24,-187.84 96,-184.5 103.82,-182.28 112.15,-179.96 120.21,-177.72"/>
<polygon fill="midnightblue" stroke="midnightblue" points="121.16,-181.09 129.87,-175.06 119.3,-174.34 121.16,-181.09"/>
</g>
<!-- Node8 -->
<g id="node8" class="node">
<title>Node8</title>
<g id="a_node8"><a xlink:href="namespaceargo_1_1env_af0546797fdfef892582c5d398e7e08a4.html#af0546797fdfef892582c5d398e7e08a4" target="_top" xlink:title="get the number of MPI windows per node requested">
<polygon fill="white" stroke="black" points="99,-106.5 99,-136.5 233,-136.5 233,-106.5 99,-106.5"/>
<text text-anchor="start" x="107" y="-124.5" font-family="Helvetica,sans-Serif" font-size="10.00">argo::env::mpi_windows</text>
<text text-anchor="middle" x="166" y="-113.5" font-family="Helvetica,sans-Serif" font-size="10.00">_per_node</text>
</a>
</g>
</g>
<!-- Node1&#45;&gt;Node8 -->
<g id="edge7" class="edge">
<title>Node1&#45;&gt;Node8</title>
<path fill="none" stroke="midnightblue" d="M39.81,-193.79C51.57,-181.34 73.52,-159.79 96,-146.5 99.42,-144.48 103.03,-142.58 106.73,-140.8"/>
<polygon fill="midnightblue" stroke="midnightblue" points="108.37,-143.91 116.07,-136.64 105.51,-137.51 108.37,-143.91"/>
</g>
<!-- Node9 -->
<g id="node9" class="node">
<title>Node9</title>
<g id="a_node9"><a xlink:href="namespaceargo_1_1env_aa95264f94d7d3fa32d7f5c133818bdea.html#aa95264f94d7d3fa32d7f5c133818bdea" target="_top" xlink:title="Get the requested statistics print level.">
<polygon fill="white" stroke="black" points="96,-68 96,-87 236,-87 236,-68 96,-68"/>
<text text-anchor="middle" x="166" y="-75" font-family="Helvetica,sans-Serif" font-size="10.00">argo::env::print_statistics</text>
</a>
</g>
</g>
<!-- Node1&#45;&gt;Node9 -->
<g id="edge8" class="edge">
<title>Node1&#45;&gt;Node9</title>
<path fill="none" stroke="midnightblue" d="M34.15,-193.95C41.51,-173.15 61.84,-123.55 96,-97.5 99.15,-95.1 102.57,-92.99 106.16,-91.13"/>
<polygon fill="midnightblue" stroke="midnightblue" points="107.65,-94.3 115.34,-87.01 104.79,-87.91 107.65,-94.3"/>
</g>
<!-- Node10 -->
<g id="node10" class="node">
<title>Node10</title>
<g id="a_node10"><a xlink:href="namespaceargo_a7525b3ba02c8025202fd1cd6756e5e4e.html#a7525b3ba02c8025202fd1cd6756e5e4e" target="_top" xlink:title="reset ArgoDSM system">
<polygon fill="white" stroke="black" points="131.5,-30 131.5,-49 200.5,-49 200.5,-30 131.5,-30"/>
<text text-anchor="middle" x="166" y="-37" font-family="Helvetica,sans-Serif" font-size="10.00">argo::reset</text>
</a>
</g>
</g>
<!-- Node1&#45;&gt;Node10 -->
<g id="edge9" class="edge">
<title>Node1&#45;&gt;Node10</title>
<path fill="none" stroke="midnightblue" d="M32.47,-193.68C36.91,-167.54 52.66,-95.68 96,-58.5 103.2,-52.32 112.25,-48.14 121.4,-45.31"/>
<polygon fill="midnightblue" stroke="midnightblue" points="122.48,-48.64 131.28,-42.74 120.72,-41.87 122.48,-48.64"/>
</g>
<!-- Node11 -->
<g id="node11" class="node">
<title>Node11</title>
<g id="a_node11"><a xlink:href="namespaceargo_a618c32926aa8b74173868cf7e1fbcaf4.html#a618c32926aa8b74173868cf7e1fbcaf4" target="_top" xlink:title="reset ArgoDSM allocators">
<polygon fill="white" stroke="black" points="272,-30 272,-49 394,-49 394,-30 272,-30"/>
<text text-anchor="middle" x="333" y="-37" font-family="Helvetica,sans-Serif" font-size="10.00">argo::reset_allocators</text>
</a>
</g>
</g>
<!-- Node10&#45;&gt;Node11 -->
<g id="edge10" class="edge">
<title>Node10&#45;&gt;Node11</title>
<path fill="none" stroke="midnightblue" d="M200.79,-39.5C218.37,-39.5 240.55,-39.5 261.65,-39.5"/>
<polygon fill="midnightblue" stroke="midnightblue" points="261.89,-43 271.89,-39.5 261.89,-36 261.89,-43"/>
</g>
<!-- Node12 -->
<g id="node12" class="node">
<title>Node12</title>
<g id="a_node12"><a xlink:href="classargo_1_1mempools_1_1global__memory__pool_a382544f1b6de66b437e8034097313cc8.html#a382544f1b6de66b437e8034097313cc8" target="_top" xlink:title="Resets the memory pool to the initial state instead of de&#45;allocating and (re)allocating all buffers a...">
<polygon fill="white" stroke="black" points="432.5,-49.5 432.5,-79.5 564.5,-79.5 564.5,-49.5 432.5,-49.5"/>
<text text-anchor="start" x="440.5" y="-67.5" font-family="Helvetica,sans-Serif" font-size="10.00">argo::mempools::global</text>
<text text-anchor="middle" x="498.5" y="-56.5" font-family="Helvetica,sans-Serif" font-size="10.00">_memory_pool::reset</text>
</a>
</g>
</g>
<!-- Node11&#45;&gt;Node12 -->
<g id="edge11" class="edge">
<title>Node11&#45;&gt;Node12</title>
<path fill="none" stroke="midnightblue" d="M394.42,-48.74C403.5,-50.13 412.97,-51.57 422.31,-53"/>
<polygon fill="midnightblue" stroke="midnightblue" points="421.97,-56.49 432.39,-54.54 423.03,-49.57 421.97,-56.49"/>
</g>
<!-- Node14 -->
<g id="node14" class="node">
<title>Node14</title>
<g id="a_node14"><a xlink:href="classargo_1_1allocators_1_1generic__allocator_af7bba2f941e23af3efd7b06a7feeb296.html#af7bba2f941e23af3efd7b06a7feeb296" target="_top" xlink:title="set memory pool">
<polygon fill="white" stroke="black" points="430,-0.5 430,-30.5 567,-30.5 567,-0.5 430,-0.5"/>
<text text-anchor="start" x="438" y="-18.5" font-family="Helvetica,sans-Serif" font-size="10.00">argo::allocators::generic</text>
<text text-anchor="middle" x="498.5" y="-7.5" font-family="Helvetica,sans-Serif" font-size="10.00">_allocator::set_mempool</text>
</a>
</g>
</g>
<!-- Node11&#45;&gt;Node14 -->
<g id="edge13" class="edge">
<title>Node11&#45;&gt;Node14</title>
<path fill="none" stroke="midnightblue" d="M394.42,-30.63C402.72,-29.41 411.34,-28.15 419.9,-26.89"/>
<polygon fill="midnightblue" stroke="midnightblue" points="420.51,-30.34 429.89,-25.42 419.49,-23.41 420.51,-30.34"/>
</g>
<!-- Node13 -->
<g id="node13" class="node">
<title>Node13</title>
<g id="a_node13"><a xlink:href="namespaceargo_a188a4648d6e7549bcef4cee36dcb5336.html#a188a4648d6e7549bcef4cee36dcb5336" target="_top" xlink:title="A unique ArgoDSM node identifier. Counting starts from 0.">
<polygon fill="white" stroke="black" points="603,-55 603,-74 686,-74 686,-55 603,-55"/>
<text text-anchor="middle" x="644.5" y="-62" font-family="Helvetica,sans-Serif" font-size="10.00">argo::node_id</text>
</a>
</g>
</g>
<!-- Node12&#45;&gt;Node13 -->
<g id="edge12" class="edge">
<title>Node12&#45;&gt;Node13</title>
<path fill="none" stroke="midnightblue" d="M564.76,-64.5C574.07,-64.5 583.52,-64.5 592.5,-64.5"/>
<polygon fill="midnightblue" stroke="midnightblue" points="592.79,-68 602.79,-64.5 592.79,-61 592.79,-68"/>
</g>
</g>
</svg>
        <g id="navigator" transform="translate(0 0)" fill="#404254">
                <rect fill="#f2f5e9" fill-opacity="0.5" stroke="#606060" stroke-width=".5" x="0" y="0" width="60" height="60"/>
                <use id="zoomplus" xlink:href="#zoomPlus" x="17" y="9" onmousedown="handleZoom(evt,'in')"/>
                <use id="zoomminus" xlink:href="#zoomMin" x="42" y="9" onmousedown="handleZoom(evt,'out')"/>
                <use id="reset" xlink:href="#resetDef" x="30" y="36" onmousedown="handleReset()"/>
                <g id="arrowUp" xlink:href="#dirArrow" transform="translate(30 24)" onmousedown="handlePan(0,-1)">
                  <use xlink:href="#rim" fill="#404040">
                        <set attributeName="fill" to="#808080" begin="arrowUp.mouseover" end="arrowUp.mouseout"/>
                  </use>
                  <path fill="none" stroke="white" stroke-width="1.5" d="M0,-3.0v7 M-2.5,-0.5L0,-3.0L2.5,-0.5"/>
                </g>
                <g id="arrowRight" xlink:href="#dirArrow" transform="rotate(90) translate(36 -43)" onmousedown="handlePan(1,0)">
                  <use xlink:href="#rim" fill="#404040">
                        <set attributeName="fill" to="#808080" begin="arrowRight.mouseover" end="arrowRight.mouseout"/>
                  </use>
                  <path fill="none" stroke="white" stroke-width="1.5" d="M0,-3.0v7 M-2.5,-0.5L0,-3.0L2.5,-0.5"/>
                </g>
                <g id="arrowDown" xlink:href="#dirArrow" transform="rotate(180) translate(-30 -48)" onmousedown="handlePan(0,1)">
                  <use xlink:href="#rim" fill="#404040">
                        <set attributeName="fill" to="#808080" begin="arrowDown.mouseover" end="arrowDown.mouseout"/>
                  </use>
                  <path fill="none" stroke="white" stroke-width="1.5" d="M0,-3.0v7 M-2.5,-0.5L0,-3.0L2.5,-0.5"/>
                </g>
                <g id="arrowLeft" xlink:href="#dirArrow" transform="rotate(270) translate(-36 17)" onmousedown="handlePan(-1,0)">
                  <use xlink:href="#rim" fill="#404040">
                        <set attributeName="fill" to="#808080" begin="arrowLeft.mouseover" end="arrowLeft.mouseout"/>
                  </use>
                  <path fill="none" stroke="white" stroke-width="1.5" d="M0,-3.0v7 M-2.5,-0.5L0,-3.0L2.5,-0.5"/>
                </g>
        </g>
        <svg viewBox="0 0 15 15" width="100%" height="30px" preserveAspectRatio="xMaxYMin meet">
         <g id="arrow_out" transform="scale(0.3 0.3)">
          <a xlink:href="namespaceargo_a31330d8b35bd7f9ef9880eec82339c54_a31330d8b35bd7f9ef9880eec82339c54_cgraph_org.svg" target="_base">
           <rect id="button" ry="5" rx="5" y="6" x="6" height="38" width="38"
                fill="#f2f5e9" fill-opacity="0.5" stroke="#606060" stroke-width="1.0"/>
           <path id="arrow"
             d="M 11.500037,31.436501 C 11.940474,20.09759 22.043105,11.32322 32.158766,21.979434 L 37.068811,17.246167 C 37.068811,17.246167 37.088388,32 37.088388,32 L 22.160133,31.978069 C 22.160133,31.978069 26.997745,27.140456 26.997745,27.140456 C 18.528582,18.264221 13.291696,25.230495 11.500037,31.436501 z"
             style="fill:#404040;"/>
          </a>
         </g>
        </svg>
</svg>
