<?xml version="1.0" encoding="UTF-8" standalone="no"?>
<!DOCTYPE svg PUBLIC "-//W3C//DTD SVG 1.1//EN"
 "http://www.w3.org/Graphics/SVG/1.1/DTD/svg11.dtd">
<!-- Generated by graphviz version 2.43.0 (0)
 -->
<!-- Title: argo::env::allocation_block_size Pages: 1 -->
<svg width="667pt" height="590pt"
 viewBox="0.00 0.00 667.00 590.00" xmlns="http://www.w3.org/2000/svg" xmlns:xlink="http://www.w3.org/1999/xlink">
<g id="graph0" class="graph" transform="scale(1 1) rotate(0) translate(4 586)">
<title>argo::env::allocation_block_size</title>
<polygon fill="white" stroke="transparent" points="-4,4 -4,-586 663,-586 663,4 -4,4"/>
<!-- Node1 -->
<g id="node1" class="node">
<title>Node1</title>
<g id="a_node1"><a xlink:title="get the allocation block size requested by environment variable">
<polygon fill="#bfbfbf" stroke="black" points="543,-242 543,-272 659,-272 659,-242 543,-242"/>
<text text-anchor="start" x="551" y="-260" font-family="Helvetica,sans-Serif" font-size="10.00">argo::env::allocation</text>
<text text-anchor="middle" x="601" y="-249" font-family="Helvetica,sans-Serif" font-size="10.00">_block_size</text>
</a>
</g>
</g>
<!-- Node2 -->
<g id="node2" class="node">
<title>Node2</title>
<g id="a_node2"><a xlink:href="classargo_1_1data__distribution_1_1cyclic__distribution_a42b5c46f432ea91c6942d4126d94d284.html#a42b5c46f432ea91c6942d4126d94d284" target="_top" xlink:title="compute home node of an address">
<polygon fill="white" stroke="black" points="371,-531.5 371,-572.5 498,-572.5 498,-531.5 371,-531.5"/>
<text text-anchor="start" x="379" y="-560.5" font-family="Helvetica,sans-Serif" font-size="10.00">argo::data_distribution</text>
<text text-anchor="start" x="379" y="-549.5" font-family="Helvetica,sans-Serif" font-size="10.00">::cyclic_distribution</text>
<text text-anchor="middle" x="434.5" y="-538.5" font-family="Helvetica,sans-Serif" font-size="10.00">::homenode</text>
</a>
</g>
</g>
<!-- Node1&#45;&gt;Node2 -->
<g id="edge1" class="edge">
<title>Node1&#45;&gt;Node2</title>
<path fill="none" stroke="midnightblue" d="M596.41,-282.04C588.31,-330.7 564.64,-439.37 507,-509 499.7,-517.81 490.1,-525.28 480.31,-531.4"/>
<polygon fill="midnightblue" stroke="midnightblue" points="599.88,-282.5 597.99,-272.07 592.97,-281.4 599.88,-282.5"/>
</g>
<!-- Node4 -->
<g id="node4" class="node">
<title>Node4</title>
<g id="a_node4"><a xlink:href="classargo_1_1data__distribution_1_1prime__mapp__distribution_ad1e401583e34588a77b0634758fa1f75.html#ad1e401583e34588a77b0634758fa1f75" target="_top" xlink:title="compute home node of an address">
<polygon fill="white" stroke="black" points="362,-420.5 362,-461.5 507,-461.5 507,-420.5 362,-420.5"/>
<text text-anchor="start" x="370" y="-449.5" font-family="Helvetica,sans-Serif" font-size="10.00">argo::data_distribution</text>
<text text-anchor="start" x="370" y="-438.5" font-family="Helvetica,sans-Serif" font-size="10.00">::prime_mapp_distribution</text>
<text text-anchor="middle" x="434.5" y="-427.5" font-family="Helvetica,sans-Serif" font-size="10.00">::homenode</text>
</a>
</g>
</g>
<!-- Node1&#45;&gt;Node4 -->
<g id="edge3" class="edge">
<title>Node1&#45;&gt;Node4</title>
<path fill="none" stroke="midnightblue" d="M588.38,-281.12C572.99,-311.23 543.47,-363.01 507,-398 498.11,-406.52 487.25,-414.13 476.69,-420.48"/>
<polygon fill="midnightblue" stroke="midnightblue" points="591.52,-282.66 592.88,-272.16 585.27,-279.53 591.52,-282.66"/>
</g>
<!-- Node5 -->
<g id="node5" class="node">
<title>Node5</title>
<g id="a_node5"><a xlink:href="classargo_1_1data__distribution_1_1prime__mapp__distribution_a253fb788715eda52fd5f52c26c02b444.html#a253fb788715eda52fd5f52c26c02b444" target="_top" xlink:title="compute the offset of ptr in the backing store on ptr&#39;s homenode">
<polygon fill="white" stroke="black" points="181,-480.5 181,-521.5 326,-521.5 326,-480.5 181,-480.5"/>
<text text-anchor="start" x="189" y="-509.5" font-family="Helvetica,sans-Serif" font-size="10.00">argo::data_distribution</text>
<text text-anchor="start" x="189" y="-498.5" font-family="Helvetica,sans-Serif" font-size="10.00">::prime_mapp_distribution</text>
<text text-anchor="middle" x="253.5" y="-487.5" font-family="Helvetica,sans-Serif" font-size="10.00">::local_offset</text>
</a>
</g>
</g>
<!-- Node1&#45;&gt;Node5 -->
<g id="edge14" class="edge">
<title>Node1&#45;&gt;Node5</title>
<path fill="none" stroke="midnightblue" d="M597.13,-281.99C590.44,-327.78 569.29,-424.67 507,-471 455.46,-509.34 380.94,-513.79 326.21,-510.48"/>
<polygon fill="midnightblue" stroke="midnightblue" points="600.61,-282.4 598.48,-272.02 593.67,-281.46 600.61,-282.4"/>
</g>
<!-- Node8 -->
<g id="node8" class="node">
<title>Node8</title>
<g id="a_node8"><a xlink:href="classargo_1_1data__distribution_1_1skew__mapp__distribution_a118db7aca997733eda1069fef6e696ad.html#a118db7aca997733eda1069fef6e696ad" target="_top" xlink:title="compute home node of an address">
<polygon fill="white" stroke="black" points="364,-347.5 364,-388.5 505,-388.5 505,-347.5 364,-347.5"/>
<text text-anchor="start" x="372" y="-376.5" font-family="Helvetica,sans-Serif" font-size="10.00">argo::data_distribution</text>
<text text-anchor="start" x="372" y="-365.5" font-family="Helvetica,sans-Serif" font-size="10.00">::skew_mapp_distribution</text>
<text text-anchor="middle" x="434.5" y="-354.5" font-family="Helvetica,sans-Serif" font-size="10.00">::homenode</text>
</a>
</g>
</g>
<!-- Node1&#45;&gt;Node8 -->
<g id="edge7" class="edge">
<title>Node1&#45;&gt;Node8</title>
<path fill="none" stroke="midnightblue" d="M572,-278.49C553.78,-292.22 529.33,-310.16 507,-325 495.54,-332.61 482.74,-340.5 471.17,-347.41"/>
<polygon fill="midnightblue" stroke="midnightblue" points="574.55,-280.95 580.41,-272.12 570.33,-275.37 574.55,-280.95"/>
</g>
<!-- Node10 -->
<g id="node10" class="node">
<title>Node10</title>
<g id="a_node10"><a xlink:href="namespaceargo_a31330d8b35bd7f9ef9880eec82339c54.html#a31330d8b35bd7f9ef9880eec82339c54" target="_top" xlink:title="initialize ArgoDSM system">
<polygon fill="white" stroke="black" points="404.5,-296.5 404.5,-315.5 464.5,-315.5 464.5,-296.5 404.5,-296.5"/>
<text text-anchor="middle" x="434.5" y="-303.5" font-family="Helvetica,sans-Serif" font-size="10.00">argo::init</text>
</a>
</g>
</g>
<!-- Node1&#45;&gt;Node10 -->
<g id="edge9" class="edge">
<title>Node1&#45;&gt;Node10</title>
<path fill="none" stroke="midnightblue" d="M544.95,-275.28C532.51,-279.27 519.33,-283.38 507,-287 493.2,-291.06 477.79,-295.2 464.82,-298.58"/>
<polygon fill="midnightblue" stroke="midnightblue" points="546.29,-278.53 554.74,-272.13 544.15,-271.87 546.29,-278.53"/>
</g>
<!-- Node13 -->
<g id="node13" class="node">
<title>Node13</title>
<g id="a_node13"><a xlink:href="classargo_1_1data__distribution_1_1cyclic__distribution_aae8dc4332dfd2b61cb3fddfffcacc327.html#aae8dc4332dfd2b61cb3fddfffcacc327" target="_top" xlink:title="compute the offset of ptr in the backing store on ptr&#39;s homenode">
<polygon fill="white" stroke="black" points="371,-236.5 371,-277.5 498,-277.5 498,-236.5 371,-236.5"/>
<text text-anchor="start" x="379" y="-265.5" font-family="Helvetica,sans-Serif" font-size="10.00">argo::data_distribution</text>
<text text-anchor="start" x="379" y="-254.5" font-family="Helvetica,sans-Serif" font-size="10.00">::cyclic_distribution</text>
<text text-anchor="middle" x="434.5" y="-243.5" font-family="Helvetica,sans-Serif" font-size="10.00">::local_offset</text>
</a>
</g>
</g>
<!-- Node1&#45;&gt;Node13 -->
<g id="edge12" class="edge">
<title>Node1&#45;&gt;Node13</title>
<path fill="none" stroke="midnightblue" d="M532.59,-257C521.17,-257 509.37,-257 498.09,-257"/>
<polygon fill="midnightblue" stroke="midnightblue" points="532.93,-260.5 542.93,-257 532.93,-253.5 532.93,-260.5"/>
</g>
<!-- Node15 -->
<g id="node15" class="node">
<title>Node15</title>
<g id="a_node15"><a xlink:href="classargo_1_1data__distribution_1_1skew__mapp__distribution_aa92e600a1e5813de3e0da1f016b7edd7.html#aa92e600a1e5813de3e0da1f016b7edd7" target="_top" xlink:title="compute the offset of ptr in the backing store on ptr&#39;s homenode">
<polygon fill="white" stroke="black" points="364,-176.5 364,-217.5 505,-217.5 505,-176.5 364,-176.5"/>
<text text-anchor="start" x="372" y="-205.5" font-family="Helvetica,sans-Serif" font-size="10.00">argo::data_distribution</text>
<text text-anchor="start" x="372" y="-194.5" font-family="Helvetica,sans-Serif" font-size="10.00">::skew_mapp_distribution</text>
<text text-anchor="middle" x="434.5" y="-183.5" font-family="Helvetica,sans-Serif" font-size="10.00">::local_offset</text>
</a>
</g>
</g>
<!-- Node1&#45;&gt;Node15 -->
<g id="edge15" class="edge">
<title>Node1&#45;&gt;Node15</title>
<path fill="none" stroke="midnightblue" d="M548.74,-238.3C530.7,-231.73 510.34,-224.3 491.91,-217.58"/>
<polygon fill="midnightblue" stroke="midnightblue" points="547.9,-241.72 558.49,-241.86 550.29,-235.14 547.9,-241.72"/>
</g>
<!-- Node17 -->
<g id="node17" class="node">
<title>Node17</title>
<g id="a_node17"><a xlink:href="namespaceargo_1_1data__distribution_a2a70ed49553953957c3a28aa755d7ac8.html#a2a70ed49553953957c3a28aa755d7ac8" target="_top" xlink:title="based on the chosen policy, gets the policy block size">
<polygon fill="white" stroke="black" points="371,-127 371,-157 498,-157 498,-127 371,-127"/>
<text text-anchor="start" x="379" y="-145" font-family="Helvetica,sans-Serif" font-size="10.00">argo::data_distribution</text>
<text text-anchor="middle" x="434.5" y="-134" font-family="Helvetica,sans-Serif" font-size="10.00">::policy_block_size</text>
</a>
</g>
</g>
<!-- Node1&#45;&gt;Node17 -->
<g id="edge17" class="edge">
<title>Node1&#45;&gt;Node17</title>
<path fill="none" stroke="midnightblue" d="M581.43,-234.1C564.05,-213.97 536.41,-185.14 507,-167 500.84,-163.2 494.03,-159.88 487.13,-157.01"/>
<polygon fill="midnightblue" stroke="midnightblue" points="578.88,-236.5 588.01,-241.87 584.22,-231.98 578.88,-236.5"/>
</g>
<!-- Node20 -->
<g id="node20" class="node">
<title>Node20</title>
<g id="a_node20"><a xlink:href="api_8cpp_a42290e9787e669eb9618124225ff8010.html#a42290e9787e669eb9618124225ff8010" target="_top" xlink:title="Unittest that checks that argo::get_block_size() is consistent with argo::env::block_size() for all c...">
<polygon fill="white" stroke="black" points="46.5,-88.5 46.5,-107.5 98.5,-107.5 98.5,-88.5 46.5,-88.5"/>
<text text-anchor="middle" x="72.5" y="-95.5" font-family="Helvetica,sans-Serif" font-size="10.00">TEST_F</text>
</a>
</g>
</g>
<!-- Node1&#45;&gt;Node20 -->
<g id="edge26" class="edge">
<title>Node1&#45;&gt;Node20</title>
<path fill="none" stroke="midnightblue" d="M591.46,-232.09C578.76,-199.36 551.5,-143.1 507,-118 436.71,-78.35 180.44,-91.06 98.72,-96.26"/>
<polygon fill="midnightblue" stroke="midnightblue" points="588.31,-233.67 595.08,-241.82 594.87,-231.23 588.31,-233.67"/>
</g>
<!-- Node21 -->
<g id="node21" class="node">
<title>Node21</title>
<g id="a_node21"><a xlink:href="namespaceargo_1_1data__distribution_acc3c36c6299a0636d31774e216102de1.html#acc3c36c6299a0636d31774e216102de1" target="_top" xlink:title="based on the chosen policy, gets the required size we need to add to the standardisation of the ArgoD...">
<polygon fill="white" stroke="black" points="371,-39 371,-69 498,-69 498,-39 371,-39"/>
<text text-anchor="start" x="379" y="-57" font-family="Helvetica,sans-Serif" font-size="10.00">argo::data_distribution</text>
<text text-anchor="middle" x="434.5" y="-46" font-family="Helvetica,sans-Serif" font-size="10.00">::policy_padding</text>
</a>
</g>
</g>
<!-- Node1&#45;&gt;Node21 -->
<g id="edge21" class="edge">
<title>Node1&#45;&gt;Node21</title>
<path fill="none" stroke="midnightblue" d="M592.52,-231.91C580.3,-194.89 552.72,-125.53 507,-84 500.42,-78.03 492.49,-73.14 484.33,-69.17"/>
<polygon fill="midnightblue" stroke="midnightblue" points="589.32,-233.41 595.69,-241.88 595.99,-231.28 589.32,-233.41"/>
</g>
<!-- Node24 -->
<g id="node24" class="node">
<title>Node24</title>
<g id="a_node24"><a xlink:href="swdsm_8cpp_a3c8a8769158025ec9e929601b9df6439.html#a3c8a8769158025ec9e929601b9df6439" target="_top" xlink:title="Prints collected statistics.">
<polygon fill="white" stroke="black" points="390,-0.5 390,-19.5 479,-19.5 479,-0.5 390,-0.5"/>
<text text-anchor="middle" x="434.5" y="-7.5" font-family="Helvetica,sans-Serif" font-size="10.00">print_statistics</text>
</a>
</g>
</g>
<!-- Node1&#45;&gt;Node24 -->
<g id="edge24" class="edge">
<title>Node1&#45;&gt;Node24</title>
<path fill="none" stroke="midnightblue" d="M597.08,-231.91C590.24,-184.89 568.78,-83.36 507,-29 499.19,-22.13 489.16,-17.7 479.11,-14.86"/>
<polygon fill="midnightblue" stroke="midnightblue" points="593.61,-232.42 598.42,-241.86 600.55,-231.48 593.61,-232.42"/>
</g>
<!-- Node3 -->
<g id="node3" class="node">
<title>Node3</title>
<g id="a_node3"><a xlink:href="classargo_1_1data__distribution_1_1cyclic__distribution_a4fe675567906294a1a5223587a19c07c.html#a4fe675567906294a1a5223587a19c07c" target="_top" xlink:title="compute home node of an address">
<polygon fill="white" stroke="black" points="190,-540.5 190,-581.5 317,-581.5 317,-540.5 190,-540.5"/>
<text text-anchor="start" x="198" y="-569.5" font-family="Helvetica,sans-Serif" font-size="10.00">argo::data_distribution</text>
<text text-anchor="start" x="198" y="-558.5" font-family="Helvetica,sans-Serif" font-size="10.00">::cyclic_distribution</text>
<text text-anchor="middle" x="253.5" y="-547.5" font-family="Helvetica,sans-Serif" font-size="10.00">::peek_homenode</text>
</a>
</g>
</g>
<!-- Node2&#45;&gt;Node3 -->
<g id="edge2" class="edge">
<title>Node2&#45;&gt;Node3</title>
<path fill="none" stroke="midnightblue" d="M360.53,-555.67C346.11,-556.39 331.1,-557.15 317.07,-557.85"/>
<polygon fill="midnightblue" stroke="midnightblue" points="361.08,-559.15 370.89,-555.15 360.73,-552.15 361.08,-559.15"/>
</g>
<!-- Node4&#45;&gt;Node5 -->
<g id="edge4" class="edge">
<title>Node4&#45;&gt;Node5</title>
<path fill="none" stroke="midnightblue" d="M362.62,-464.76C347.13,-469.95 330.85,-475.41 315.77,-480.46"/>
<polygon fill="midnightblue" stroke="midnightblue" points="363.78,-468.06 372.15,-461.56 361.55,-461.42 363.78,-468.06"/>
</g>
<!-- Node7 -->
<g id="node7" class="node">
<title>Node7</title>
<g id="a_node7"><a xlink:href="classargo_1_1data__distribution_1_1prime__mapp__distribution_ac3a060772fce13bb7925d01c40ff30eb.html#ac3a060772fce13bb7925d01c40ff30eb" target="_top" xlink:title="compute home node of an address">
<polygon fill="white" stroke="black" points="181,-420.5 181,-461.5 326,-461.5 326,-420.5 181,-420.5"/>
<text text-anchor="start" x="189" y="-449.5" font-family="Helvetica,sans-Serif" font-size="10.00">argo::data_distribution</text>
<text text-anchor="start" x="189" y="-438.5" font-family="Helvetica,sans-Serif" font-size="10.00">::prime_mapp_distribution</text>
<text text-anchor="middle" x="253.5" y="-427.5" font-family="Helvetica,sans-Serif" font-size="10.00">::peek_homenode</text>
</a>
</g>
</g>
<!-- Node4&#45;&gt;Node7 -->
<g id="edge6" class="edge">
<title>Node4&#45;&gt;Node7</title>
<path fill="none" stroke="midnightblue" d="M351.96,-441C343.36,-441 334.67,-441 326.2,-441"/>
<polygon fill="midnightblue" stroke="midnightblue" points="351.98,-444.5 361.98,-441 351.98,-437.5 351.98,-444.5"/>
</g>
<!-- Node6 -->
<g id="node6" class="node">
<title>Node6</title>
<g id="a_node6"><a xlink:href="classargo_1_1data__distribution_1_1prime__mapp__distribution_a6bb902ae385e53f0f93da022338d19d6.html#a6bb902ae385e53f0f93da022338d19d6" target="_top" xlink:title="compute the offset of ptr in the backing store on ptr&#39;s homenode">
<polygon fill="white" stroke="black" points="0,-480.5 0,-521.5 145,-521.5 145,-480.5 0,-480.5"/>
<text text-anchor="start" x="8" y="-509.5" font-family="Helvetica,sans-Serif" font-size="10.00">argo::data_distribution</text>
<text text-anchor="start" x="8" y="-498.5" font-family="Helvetica,sans-Serif" font-size="10.00">::prime_mapp_distribution</text>
<text text-anchor="middle" x="72.5" y="-487.5" font-family="Helvetica,sans-Serif" font-size="10.00">::peek_local_offset</text>
</a>
</g>
</g>
<!-- Node5&#45;&gt;Node6 -->
<g id="edge5" class="edge">
<title>Node5&#45;&gt;Node6</title>
<path fill="none" stroke="midnightblue" d="M170.96,-501C162.36,-501 153.67,-501 145.2,-501"/>
<polygon fill="midnightblue" stroke="midnightblue" points="170.98,-504.5 180.98,-501 170.98,-497.5 170.98,-504.5"/>
</g>
<!-- Node9 -->
<g id="node9" class="node">
<title>Node9</title>
<g id="a_node9"><a xlink:href="classargo_1_1data__distribution_1_1skew__mapp__distribution_acf1e91b02698596d4bd80bc7a43c3915.html#acf1e91b02698596d4bd80bc7a43c3915" target="_top" xlink:title="compute home node of an address">
<polygon fill="white" stroke="black" points="183,-360.5 183,-401.5 324,-401.5 324,-360.5 183,-360.5"/>
<text text-anchor="start" x="191" y="-389.5" font-family="Helvetica,sans-Serif" font-size="10.00">argo::data_distribution</text>
<text text-anchor="start" x="191" y="-378.5" font-family="Helvetica,sans-Serif" font-size="10.00">::skew_mapp_distribution</text>
<text text-anchor="middle" x="253.5" y="-367.5" font-family="Helvetica,sans-Serif" font-size="10.00">::peek_homenode</text>
</a>
</g>
</g>
<!-- Node8&#45;&gt;Node9 -->
<g id="edge8" class="edge">
<title>Node8&#45;&gt;Node9</title>
<path fill="none" stroke="midnightblue" d="M353.59,-373.8C343.73,-374.52 333.71,-375.25 324.03,-375.95"/>
<polygon fill="midnightblue" stroke="midnightblue" points="354.06,-377.28 363.78,-373.06 353.55,-370.3 354.06,-377.28"/>
</g>
<!-- Node11 -->
<g id="node11" class="node">
<title>Node11</title>
<g id="a_node11"><a xlink:href="argo_8cpp_aa84680ad78c3598c30a482ff71ec6bbc.html#aa84680ad78c3598c30a482ff71ec6bbc" target="_top" xlink:title="initialize ArgoDSM system">
<polygon fill="white" stroke="black" points="224,-322.5 224,-341.5 283,-341.5 283,-322.5 224,-322.5"/>
<text text-anchor="middle" x="253.5" y="-329.5" font-family="Helvetica,sans-Serif" font-size="10.00">argo_init</text>
</a>
</g>
</g>
<!-- Node10&#45;&gt;Node11 -->
<g id="edge10" class="edge">
<title>Node10&#45;&gt;Node11</title>
<path fill="none" stroke="midnightblue" d="M394.4,-311.68C360.81,-316.56 313.17,-323.48 283.05,-327.85"/>
<polygon fill="midnightblue" stroke="midnightblue" points="394.95,-315.14 404.34,-310.24 393.94,-308.21 394.95,-315.14"/>
</g>
<!-- Node12 -->
<g id="node12" class="node">
<title>Node12</title>
<g id="a_node12"><a xlink:href="tests_2allocators_8cpp_a3c04138a5bfe5d72780bb7e82a18e627.html#a3c04138a5bfe5d72780bb7e82a18e627" target="_top" xlink:title="The main function that runs the tests.">
<polygon fill="white" stroke="black" points="233,-284.5 233,-303.5 274,-303.5 274,-284.5 233,-284.5"/>
<text text-anchor="middle" x="253.5" y="-291.5" font-family="Helvetica,sans-Serif" font-size="10.00">main</text>
</a>
</g>
</g>
<!-- Node10&#45;&gt;Node12 -->
<g id="edge11" class="edge">
<title>Node10&#45;&gt;Node12</title>
<path fill="none" stroke="midnightblue" d="M393.89,-303.34C356.81,-300.86 302.93,-297.25 274.23,-295.32"/>
<polygon fill="midnightblue" stroke="midnightblue" points="394.13,-306.87 404.34,-304.05 394.6,-299.88 394.13,-306.87"/>
</g>
<!-- Node14 -->
<g id="node14" class="node">
<title>Node14</title>
<g id="a_node14"><a xlink:href="classargo_1_1data__distribution_1_1cyclic__distribution_a1a93f8dae949a63b29ebc7833edeba15.html#a1a93f8dae949a63b29ebc7833edeba15" target="_top" xlink:title="compute the offset of ptr in the backing store on ptr&#39;s homenode">
<polygon fill="white" stroke="black" points="190,-224.5 190,-265.5 317,-265.5 317,-224.5 190,-224.5"/>
<text text-anchor="start" x="198" y="-253.5" font-family="Helvetica,sans-Serif" font-size="10.00">argo::data_distribution</text>
<text text-anchor="start" x="198" y="-242.5" font-family="Helvetica,sans-Serif" font-size="10.00">::cyclic_distribution</text>
<text text-anchor="middle" x="253.5" y="-231.5" font-family="Helvetica,sans-Serif" font-size="10.00">::peek_local_offset</text>
</a>
</g>
</g>
<!-- Node13&#45;&gt;Node14 -->
<g id="edge13" class="edge">
<title>Node13&#45;&gt;Node14</title>
<path fill="none" stroke="midnightblue" d="M360.53,-252.11C346.11,-251.14 331.1,-250.14 317.07,-249.19"/>
<polygon fill="midnightblue" stroke="midnightblue" points="360.68,-255.63 370.89,-252.8 361.15,-248.64 360.68,-255.63"/>
</g>
<!-- Node16 -->
<g id="node16" class="node">
<title>Node16</title>
<g id="a_node16"><a xlink:href="classargo_1_1data__distribution_1_1skew__mapp__distribution_af72fc446aeabab59b8195cc647b74386.html#af72fc446aeabab59b8195cc647b74386" target="_top" xlink:title="compute the offset of ptr in the backing store on ptr&#39;s homenode">
<polygon fill="white" stroke="black" points="183,-164.5 183,-205.5 324,-205.5 324,-164.5 183,-164.5"/>
<text text-anchor="start" x="191" y="-193.5" font-family="Helvetica,sans-Serif" font-size="10.00">argo::data_distribution</text>
<text text-anchor="start" x="191" y="-182.5" font-family="Helvetica,sans-Serif" font-size="10.00">::skew_mapp_distribution</text>
<text text-anchor="middle" x="253.5" y="-171.5" font-family="Helvetica,sans-Serif" font-size="10.00">::peek_local_offset</text>
</a>
</g>
</g>
<!-- Node15&#45;&gt;Node16 -->
<g id="edge16" class="edge">
<title>Node15&#45;&gt;Node16</title>
<path fill="none" stroke="midnightblue" d="M353.59,-191.64C343.73,-190.98 333.71,-190.31 324.03,-189.66"/>
<polygon fill="midnightblue" stroke="midnightblue" points="353.57,-195.15 363.78,-192.33 354.04,-188.16 353.57,-195.15"/>
</g>
<!-- Node18 -->
<g id="node18" class="node">
<title>Node18</title>
<g id="a_node18"><a xlink:href="namespaceargo_a2f35b6b6e0af76fb8fb47f2031d6f58e.html#a2f35b6b6e0af76fb8fb47f2031d6f58e" target="_top" xlink:title="Get the block size of the current allocation policy.">
<polygon fill="white" stroke="black" points="195.5,-126.5 195.5,-145.5 311.5,-145.5 311.5,-126.5 195.5,-126.5"/>
<text text-anchor="middle" x="253.5" y="-133.5" font-family="Helvetica,sans-Serif" font-size="10.00">argo::get_block_size</text>
</a>
</g>
</g>
<!-- Node17&#45;&gt;Node18 -->
<g id="edge18" class="edge">
<title>Node17&#45;&gt;Node18</title>
<path fill="none" stroke="midnightblue" d="M360.82,-139.56C344.46,-139.02 327.31,-138.44 311.68,-137.92"/>
<polygon fill="midnightblue" stroke="midnightblue" points="360.78,-143.06 370.89,-139.9 361.02,-136.07 360.78,-143.06"/>
</g>
<!-- Node19 -->
<g id="node19" class="node">
<title>Node19</title>
<g id="a_node19"><a xlink:href="argo_8cpp_ad0931c5341a3b07302a3a019834280f6.html#ad0931c5341a3b07302a3a019834280f6" target="_top" xlink:title="Get the block size of the current allocation policy.">
<polygon fill="white" stroke="black" points="14.5,-126.5 14.5,-145.5 130.5,-145.5 130.5,-126.5 14.5,-126.5"/>
<text text-anchor="middle" x="72.5" y="-133.5" font-family="Helvetica,sans-Serif" font-size="10.00">argo_get_block_size</text>
</a>
</g>
</g>
<!-- Node18&#45;&gt;Node19 -->
<g id="edge19" class="edge">
<title>Node18&#45;&gt;Node19</title>
<path fill="none" stroke="midnightblue" d="M185.26,-136C167.3,-136 148.06,-136 130.7,-136"/>
<polygon fill="midnightblue" stroke="midnightblue" points="185.37,-139.5 195.37,-136 185.37,-132.5 185.37,-139.5"/>
</g>
<!-- Node18&#45;&gt;Node20 -->
<g id="edge20" class="edge">
<title>Node18&#45;&gt;Node20</title>
<path fill="none" stroke="midnightblue" d="M197.38,-124.3C164.47,-117.31 124.24,-108.77 98.74,-103.36"/>
<polygon fill="midnightblue" stroke="midnightblue" points="196.82,-127.76 207.33,-126.41 198.28,-120.91 196.82,-127.76"/>
</g>
<!-- Node22 -->
<g id="node22" class="node">
<title>Node22</title>
<g id="a_node22"><a xlink:href="swdsm_8cpp_a31ba60e8ddccfa922da8d7e6a10f7b1d.html#a31ba60e8ddccfa922da8d7e6a10f7b1d" target="_top" xlink:title="Initializes ArgoDSM runtime.">
<polygon fill="white" stroke="black" points="210.5,-44.5 210.5,-63.5 296.5,-63.5 296.5,-44.5 210.5,-44.5"/>
<text text-anchor="middle" x="253.5" y="-51.5" font-family="Helvetica,sans-Serif" font-size="10.00">argo_initialize</text>
</a>
</g>
</g>
<!-- Node21&#45;&gt;Node22 -->
<g id="edge22" class="edge">
<title>Node21&#45;&gt;Node22</title>
<path fill="none" stroke="midnightblue" d="M360.66,-54C338.85,-54 315.68,-54 296.57,-54"/>
<polygon fill="midnightblue" stroke="midnightblue" points="360.89,-57.5 370.89,-54 360.89,-50.5 360.89,-57.5"/>
</g>
<!-- Node23 -->
<g id="node23" class="node">
<title>Node23</title>
<g id="a_node23"><a xlink:href="backend_8hpp_aab3cabb3e1c0b9696b339416b684f78c.html#aab3cabb3e1c0b9696b339416b684f78c" target="_top" xlink:title="initialize backend">
<polygon fill="white" stroke="black" points="19,-44.5 19,-63.5 126,-63.5 126,-44.5 19,-44.5"/>
<text text-anchor="middle" x="72.5" y="-51.5" font-family="Helvetica,sans-Serif" font-size="10.00">argo::backend::init</text>
</a>
</g>
</g>
<!-- Node22&#45;&gt;Node23 -->
<g id="edge23" class="edge">
<title>Node22&#45;&gt;Node23</title>
<path fill="none" stroke="midnightblue" d="M200.05,-54C176.78,-54 149.47,-54 126.18,-54"/>
<polygon fill="midnightblue" stroke="midnightblue" points="200.08,-57.5 210.08,-54 200.08,-50.5 200.08,-57.5"/>
</g>
<!-- Node25 -->
<g id="node25" class="node">
<title>Node25</title>
<g id="a_node25"><a xlink:href="swdsm_8cpp_aa954d5e0bcaee69ff6e03e697bcaf68b.html#aa954d5e0bcaee69ff6e03e697bcaf68b" target="_top" xlink:title="shut down ArgoDSM system">
<polygon fill="white" stroke="black" points="214,-0.5 214,-19.5 293,-19.5 293,-0.5 214,-0.5"/>
<text text-anchor="middle" x="253.5" y="-7.5" font-family="Helvetica,sans-Serif" font-size="10.00">argo_finalize</text>
</a>
</g>
</g>
<!-- Node24&#45;&gt;Node25 -->
<g id="edge25" class="edge">
<title>Node24&#45;&gt;Node25</title>
<path fill="none" stroke="midnightblue" d="M379.37,-10C351.61,-10 318.44,-10 293.27,-10"/>
<polygon fill="midnightblue" stroke="midnightblue" points="379.71,-13.5 389.71,-10 379.71,-6.5 379.71,-13.5"/>
</g>
</g>
</svg>
