<?xml version="1.0" encoding="UTF-8" standalone="no"?>
<!DOCTYPE svg PUBLIC "-//W3C//DTD SVG 1.1//EN"
 "http://www.w3.org/Graphics/SVG/1.1/DTD/svg11.dtd">
<!-- Generated by graphviz version 2.43.0 (0)
 -->
<!-- Title: argo::data_distribution::is_first_touch_policy Pages: 1 -->
<svg width="602pt" height="193pt"
 viewBox="0.00 0.00 602.00 193.49" xmlns="http://www.w3.org/2000/svg" xmlns:xlink="http://www.w3.org/1999/xlink">
<g id="graph0" class="graph" transform="scale(1 1) rotate(0) translate(4 189.49)">
<title>argo::data_distribution::is_first_touch_policy</title>
<polygon fill="white" stroke="transparent" points="-4,4 -4,-189.49 598,-189.49 598,4 -4,4"/>
<!-- Node1 -->
<g id="node1" class="node">
<title>Node1</title>
<g id="a_node1"><a xlink:title="identifies if we distribute data using the first&#45;touch memory policy">
<polygon fill="#bfbfbf" stroke="black" points="467,-84.49 467,-114.49 594,-114.49 594,-84.49 467,-84.49"/>
<text text-anchor="start" x="475" y="-102.49" font-family="Helvetica,sans-Serif" font-size="10.00">argo::data_distribution</text>
<text text-anchor="middle" x="530.5" y="-91.49" font-family="Helvetica,sans-Serif" font-size="10.00">::is_first_touch_policy</text>
</a>
</g>
</g>
<!-- Node2 -->
<g id="node2" class="node">
<title>Node2</title>
<g id="a_node2"><a xlink:href="swdsm_8cpp_aa954d5e0bcaee69ff6e03e697bcaf68b.html#aa954d5e0bcaee69ff6e03e697bcaf68b" target="_top" xlink:title="shut down ArgoDSM system">
<polygon fill="white" stroke="black" points="328,-165.99 328,-184.99 407,-184.99 407,-165.99 328,-165.99"/>
<text text-anchor="middle" x="367.5" y="-172.99" font-family="Helvetica,sans-Serif" font-size="10.00">argo_finalize</text>
</a>
</g>
</g>
<!-- Node1&#45;&gt;Node2 -->
<g id="edge1" class="edge">
<title>Node1&#45;&gt;Node2</title>
<path fill="none" stroke="midnightblue" d="M493.81,-119.64C475.33,-129.74 452.24,-141.84 431,-151.49 419.57,-156.68 406.66,-161.76 395.55,-165.9"/>
<polygon fill="midnightblue" stroke="midnightblue" points="495.69,-122.61 502.76,-114.72 492.31,-116.48 495.69,-122.61"/>
</g>
<!-- Node3 -->
<g id="node3" class="node">
<title>Node3</title>
<g id="a_node3"><a xlink:href="swdsm_8cpp_a31ba60e8ddccfa922da8d7e6a10f7b1d.html#a31ba60e8ddccfa922da8d7e6a10f7b1d" target="_top" xlink:title="Initializes ArgoDSM runtime.">
<polygon fill="white" stroke="black" points="167,-145.99 167,-164.99 253,-164.99 253,-145.99 167,-145.99"/>
<text text-anchor="middle" x="210" y="-152.99" font-family="Helvetica,sans-Serif" font-size="10.00">argo_initialize</text>
</a>
</g>
</g>
<!-- Node1&#45;&gt;Node3 -->
<g id="edge2" class="edge">
<title>Node1&#45;&gt;Node3</title>
<path fill="none" stroke="midnightblue" d="M456.66,-113.74C448.02,-115.37 439.32,-116.99 431,-118.49 369.25,-129.63 297.56,-141.49 253.23,-148.69"/>
<polygon fill="midnightblue" stroke="midnightblue" points="457.58,-117.13 466.75,-111.82 456.27,-110.25 457.58,-117.13"/>
</g>
<!-- Node5 -->
<g id="node5" class="node">
<title>Node5</title>
<g id="a_node5"><a xlink:href="swdsm_8cpp_adb17e929b24ae3fd6898035fce958122.html#adb17e929b24ae3fd6898035fce958122" target="_top" xlink:title="Resets current ArgoDSM coherence.">
<polygon fill="white" stroke="black" points="305.5,-89.99 305.5,-108.99 429.5,-108.99 429.5,-89.99 305.5,-89.99"/>
<text text-anchor="middle" x="367.5" y="-96.99" font-family="Helvetica,sans-Serif" font-size="10.00">argo_reset_coherence</text>
</a>
</g>
</g>
<!-- Node1&#45;&gt;Node5 -->
<g id="edge4" class="edge">
<title>Node1&#45;&gt;Node5</title>
<path fill="none" stroke="midnightblue" d="M456.69,-99.49C447.68,-99.49 438.53,-99.49 429.72,-99.49"/>
<polygon fill="midnightblue" stroke="midnightblue" points="456.79,-102.99 466.79,-99.49 456.79,-95.99 456.79,-102.99"/>
</g>
<!-- Node7 -->
<g id="node7" class="node">
<title>Node7</title>
<g id="a_node7"><a xlink:href="namespaceargo_1_1data__distribution_a2a70ed49553953957c3a28aa755d7ac8.html#a2a70ed49553953957c3a28aa755d7ac8" target="_top" xlink:title="based on the chosen policy, gets the policy block size">
<polygon fill="white" stroke="black" points="304,-40.49 304,-70.49 431,-70.49 431,-40.49 304,-40.49"/>
<text text-anchor="start" x="312" y="-58.49" font-family="Helvetica,sans-Serif" font-size="10.00">argo::data_distribution</text>
<text text-anchor="middle" x="367.5" y="-47.49" font-family="Helvetica,sans-Serif" font-size="10.00">::policy_block_size</text>
</a>
</g>
</g>
<!-- Node1&#45;&gt;Node7 -->
<g id="edge8" class="edge">
<title>Node1&#45;&gt;Node7</title>
<path fill="none" stroke="midnightblue" d="M464.72,-81.78C451.05,-78.05 436.75,-74.14 423.48,-70.51"/>
<polygon fill="midnightblue" stroke="midnightblue" points="463.97,-85.21 474.54,-84.47 465.82,-78.46 463.97,-85.21"/>
</g>
<!-- Node10 -->
<g id="node10" class="node">
<title>Node10</title>
<g id="a_node10"><a xlink:href="api_8cpp_a42290e9787e669eb9618124225ff8010.html#a42290e9787e669eb9618124225ff8010" target="_top" xlink:title="Unittest that checks that argo::get_block_size() is consistent with argo::env::block_size() for all c...">
<polygon fill="white" stroke="black" points="32,-1.99 32,-20.99 84,-20.99 84,-1.99 32,-1.99"/>
<text text-anchor="middle" x="58" y="-8.99" font-family="Helvetica,sans-Serif" font-size="10.00">TEST_F</text>
</a>
</g>
</g>
<!-- Node1&#45;&gt;Node10 -->
<g id="edge12" class="edge">
<title>Node1&#45;&gt;Node10</title>
<path fill="none" stroke="midnightblue" d="M506.33,-77.53C487.61,-61.29 459.72,-40.36 431,-30.49 306.85,12.18 145.68,-0.87 84.27,-8.11"/>
<polygon fill="midnightblue" stroke="midnightblue" points="504.22,-80.34 514.02,-84.38 508.88,-75.11 504.22,-80.34"/>
</g>
<!-- Node4 -->
<g id="node4" class="node">
<title>Node4</title>
<g id="a_node4"><a xlink:href="backend_8hpp_aab3cabb3e1c0b9696b339416b684f78c.html#aab3cabb3e1c0b9696b339416b684f78c" target="_top" xlink:title="initialize backend">
<polygon fill="white" stroke="black" points="4.5,-145.99 4.5,-164.99 111.5,-164.99 111.5,-145.99 4.5,-145.99"/>
<text text-anchor="middle" x="58" y="-152.99" font-family="Helvetica,sans-Serif" font-size="10.00">argo::backend::init</text>
</a>
</g>
</g>
<!-- Node3&#45;&gt;Node4 -->
<g id="edge3" class="edge">
<title>Node3&#45;&gt;Node4</title>
<path fill="none" stroke="midnightblue" d="M156.47,-155.49C141.92,-155.49 126.12,-155.49 111.56,-155.49"/>
<polygon fill="midnightblue" stroke="midnightblue" points="156.82,-158.99 166.82,-155.49 156.82,-151.99 156.82,-158.99"/>
</g>
<!-- Node5&#45;&gt;Node3 -->
<g id="edge5" class="edge">
<title>Node5&#45;&gt;Node3</title>
<path fill="none" stroke="midnightblue" d="M332.51,-112.61C313.58,-119.83 289.55,-128.85 268,-136.49 259.05,-139.66 249.26,-142.97 240.36,-145.93"/>
<polygon fill="midnightblue" stroke="midnightblue" points="333.81,-115.86 341.9,-109.02 331.31,-109.33 333.81,-115.86"/>
</g>
<!-- Node6 -->
<g id="node6" class="node">
<title>Node6</title>
<g id="a_node6"><a xlink:href="backend_8hpp_acb57f009ad65913e26147c6813eda04e.html#acb57f009ad65913e26147c6813eda04e" target="_top" xlink:title="Resets current ArgoDSM coherence.">
<polygon fill="white" stroke="black" points="152,-78.49 152,-108.49 268,-108.49 268,-78.49 152,-78.49"/>
<text text-anchor="start" x="160" y="-96.49" font-family="Helvetica,sans-Serif" font-size="10.00">argo::backend::reset</text>
<text text-anchor="middle" x="210" y="-85.49" font-family="Helvetica,sans-Serif" font-size="10.00">_coherence</text>
</a>
</g>
</g>
<!-- Node5&#45;&gt;Node6 -->
<g id="edge6" class="edge">
<title>Node5&#45;&gt;Node6</title>
<path fill="none" stroke="midnightblue" d="M295.26,-96.74C286.14,-96.39 276.89,-96.03 268.03,-95.69"/>
<polygon fill="midnightblue" stroke="midnightblue" points="295.36,-100.24 305.49,-97.13 295.63,-93.25 295.36,-100.24"/>
</g>
<!-- Node6&#45;&gt;Node6 -->
<g id="edge7" class="edge">
<title>Node6&#45;&gt;Node6</title>
<path fill="none" stroke="midnightblue" d="M237.01,-118.94C233.66,-123.67 224.65,-126.99 210,-126.99 185.95,-126.99 177.12,-118.04 183.51,-108.65"/>
<polygon fill="midnightblue" stroke="midnightblue" points="240.49,-118.46 236.49,-108.65 233.5,-118.81 240.49,-118.46"/>
</g>
<!-- Node8 -->
<g id="node8" class="node">
<title>Node8</title>
<g id="a_node8"><a xlink:href="namespaceargo_a2f35b6b6e0af76fb8fb47f2031d6f58e.html#a2f35b6b6e0af76fb8fb47f2031d6f58e" target="_top" xlink:title="Get the block size of the current allocation policy.">
<polygon fill="white" stroke="black" points="152,-39.99 152,-58.99 268,-58.99 268,-39.99 152,-39.99"/>
<text text-anchor="middle" x="210" y="-46.99" font-family="Helvetica,sans-Serif" font-size="10.00">argo::get_block_size</text>
</a>
</g>
</g>
<!-- Node7&#45;&gt;Node8 -->
<g id="edge9" class="edge">
<title>Node7&#45;&gt;Node8</title>
<path fill="none" stroke="midnightblue" d="M293.66,-52.68C285.05,-52.34 276.36,-52.01 268.01,-51.69"/>
<polygon fill="midnightblue" stroke="midnightblue" points="293.57,-56.18 303.7,-53.06 293.84,-49.18 293.57,-56.18"/>
</g>
<!-- Node9 -->
<g id="node9" class="node">
<title>Node9</title>
<g id="a_node9"><a xlink:href="argo_8cpp_ad0931c5341a3b07302a3a019834280f6.html#ad0931c5341a3b07302a3a019834280f6" target="_top" xlink:title="Get the block size of the current allocation policy.">
<polygon fill="white" stroke="black" points="0,-39.99 0,-58.99 116,-58.99 116,-39.99 0,-39.99"/>
<text text-anchor="middle" x="58" y="-46.99" font-family="Helvetica,sans-Serif" font-size="10.00">argo_get_block_size</text>
</a>
</g>
</g>
<!-- Node8&#45;&gt;Node9 -->
<g id="edge10" class="edge">
<title>Node8&#45;&gt;Node9</title>
<path fill="none" stroke="midnightblue" d="M141.69,-49.49C133.27,-49.49 124.72,-49.49 116.47,-49.49"/>
<polygon fill="midnightblue" stroke="midnightblue" points="141.86,-52.99 151.86,-49.49 141.86,-45.99 141.86,-52.99"/>
</g>
<!-- Node8&#45;&gt;Node10 -->
<g id="edge11" class="edge">
<title>Node8&#45;&gt;Node10</title>
<path fill="none" stroke="midnightblue" d="M161.24,-37.39C135.63,-30.9 105.1,-23.17 84.12,-17.85"/>
<polygon fill="midnightblue" stroke="midnightblue" points="160.6,-40.83 171.15,-39.9 162.31,-34.05 160.6,-40.83"/>
</g>
</g>
</svg>
