<?xml version="1.0" encoding="UTF-8" standalone="no"?>
<!DOCTYPE svg PUBLIC "-//W3C//DTD SVG 1.1//EN"
 "http://www.w3.org/Graphics/SVG/1.1/DTD/svg11.dtd">
<!-- Generated by graphviz version 2.43.0 (0)
 -->
<!-- Title: argo::reset Pages: 1 -->
<svg width="527pt" height="88pt"
 viewBox="0.00 0.00 527.00 88.00" xmlns="http://www.w3.org/2000/svg" xmlns:xlink="http://www.w3.org/1999/xlink">
<g id="graph0" class="graph" transform="scale(1 1) rotate(0) translate(4 84)">
<title>argo::reset</title>
<polygon fill="white" stroke="transparent" points="-4,4 -4,-84 523,-84 523,4 -4,4"/>
<!-- Node1 -->
<g id="node1" class="node">
<title>Node1</title>
<g id="a_node1"><a xlink:title="reset ArgoDSM system">
<polygon fill="#bfbfbf" stroke="black" points="0,-30 0,-49 69,-49 69,-30 0,-30"/>
<text text-anchor="middle" x="34.5" y="-37" font-family="Helvetica,sans-Serif" font-size="10.00">argo::reset</text>
</a>
</g>
</g>
<!-- Node2 -->
<g id="node2" class="node">
<title>Node2</title>
<g id="a_node2"><a xlink:href="namespaceargo_a618c32926aa8b74173868cf7e1fbcaf4.html#a618c32926aa8b74173868cf7e1fbcaf4" target="_top" xlink:title="reset ArgoDSM allocators">
<polygon fill="white" stroke="black" points="105,-30 105,-49 227,-49 227,-30 105,-30"/>
<text text-anchor="middle" x="166" y="-37" font-family="Helvetica,sans-Serif" font-size="10.00">argo::reset_allocators</text>
</a>
</g>
</g>
<!-- Node1&#45;&gt;Node2 -->
<g id="edge1" class="edge">
<title>Node1&#45;&gt;Node2</title>
<path fill="none" stroke="midnightblue" d="M69.19,-39.5C77.14,-39.5 85.9,-39.5 94.81,-39.5"/>
<polygon fill="midnightblue" stroke="midnightblue" points="94.89,-43 104.89,-39.5 94.89,-36 94.89,-43"/>
</g>
<!-- Node3 -->
<g id="node3" class="node">
<title>Node3</title>
<g id="a_node3"><a xlink:href="classargo_1_1mempools_1_1global__memory__pool_a382544f1b6de66b437e8034097313cc8.html#a382544f1b6de66b437e8034097313cc8" target="_top" xlink:title="Resets the memory pool to the initial state instead of de&#45;allocating and (re)allocating all buffers a...">
<polygon fill="white" stroke="black" points="265.5,-49.5 265.5,-79.5 397.5,-79.5 397.5,-49.5 265.5,-49.5"/>
<text text-anchor="start" x="273.5" y="-67.5" font-family="Helvetica,sans-Serif" font-size="10.00">argo::mempools::global</text>
<text text-anchor="middle" x="331.5" y="-56.5" font-family="Helvetica,sans-Serif" font-size="10.00">_memory_pool::reset</text>
</a>
</g>
</g>
<!-- Node2&#45;&gt;Node3 -->
<g id="edge2" class="edge">
<title>Node2&#45;&gt;Node3</title>
<path fill="none" stroke="midnightblue" d="M227.42,-48.74C236.5,-50.13 245.97,-51.57 255.31,-53"/>
<polygon fill="midnightblue" stroke="midnightblue" points="254.97,-56.49 265.39,-54.54 256.03,-49.57 254.97,-56.49"/>
</g>
<!-- Node5 -->
<g id="node5" class="node">
<title>Node5</title>
<g id="a_node5"><a xlink:href="classargo_1_1allocators_1_1generic__allocator_af7bba2f941e23af3efd7b06a7feeb296.html#af7bba2f941e23af3efd7b06a7feeb296" target="_top" xlink:title="set memory pool">
<polygon fill="white" stroke="black" points="263,-0.5 263,-30.5 400,-30.5 400,-0.5 263,-0.5"/>
<text text-anchor="start" x="271" y="-18.5" font-family="Helvetica,sans-Serif" font-size="10.00">argo::allocators::generic</text>
<text text-anchor="middle" x="331.5" y="-7.5" font-family="Helvetica,sans-Serif" font-size="10.00">_allocator::set_mempool</text>
</a>
</g>
</g>
<!-- Node2&#45;&gt;Node5 -->
<g id="edge4" class="edge">
<title>Node2&#45;&gt;Node5</title>
<path fill="none" stroke="midnightblue" d="M227.42,-30.63C235.72,-29.41 244.34,-28.15 252.9,-26.89"/>
<polygon fill="midnightblue" stroke="midnightblue" points="253.51,-30.34 262.89,-25.42 252.49,-23.41 253.51,-30.34"/>
</g>
<!-- Node4 -->
<g id="node4" class="node">
<title>Node4</title>
<g id="a_node4"><a xlink:href="namespaceargo_a188a4648d6e7549bcef4cee36dcb5336.html#a188a4648d6e7549bcef4cee36dcb5336" target="_top" xlink:title="A unique ArgoDSM node identifier. Counting starts from 0.">
<polygon fill="white" stroke="black" points="436,-55 436,-74 519,-74 519,-55 436,-55"/>
<text text-anchor="middle" x="477.5" y="-62" font-family="Helvetica,sans-Serif" font-size="10.00">argo::node_id</text>
</a>
</g>
</g>
<!-- Node3&#45;&gt;Node4 -->
<g id="edge3" class="edge">
<title>Node3&#45;&gt;Node4</title>
<path fill="none" stroke="midnightblue" d="M397.76,-64.5C407.07,-64.5 416.52,-64.5 425.5,-64.5"/>
<polygon fill="midnightblue" stroke="midnightblue" points="425.79,-68 435.79,-64.5 425.79,-61 425.79,-68"/>
</g>
</g>
</svg>
