<?xml version="1.0" encoding="UTF-8" standalone="no"?>
<!DOCTYPE svg PUBLIC "-//W3C//DTD SVG 1.1//EN"
 "http://www.w3.org/Graphics/SVG/1.1/DTD/svg11.dtd">
<!-- Generated by graphviz version 2.43.0 (0)
 -->
<!-- Title: argo::get_homenode Pages: 1 -->
<svg width="277pt" height="66pt"
 viewBox="0.00 0.00 277.00 66.00" xmlns="http://www.w3.org/2000/svg" xmlns:xlink="http://www.w3.org/1999/xlink">
<g id="graph0" class="graph" transform="scale(1 1) rotate(0) translate(4 62)">
<title>argo::get_homenode</title>
<polygon fill="white" stroke="transparent" points="-4,4 -4,-62 273,-62 273,4 -4,4"/>
<!-- Node1 -->
<g id="node1" class="node">
<title>Node1</title>
<g id="a_node1"><a xlink:title="Get the ArgoDSM node id where addr is physically backed.">
<polygon fill="#bfbfbf" stroke="black" points="152,-19.5 152,-38.5 269,-38.5 269,-19.5 152,-19.5"/>
<text text-anchor="middle" x="210.5" y="-26.5" font-family="Helvetica,sans-Serif" font-size="10.00">argo::get_homenode</text>
</a>
</g>
</g>
<!-- Node2 -->
<g id="node2" class="node">
<title>Node2</title>
<g id="a_node2"><a xlink:href="argo_8cpp_a8152deaeec0cb48814b969e0617d70ea.html#a8152deaeec0cb48814b969e0617d70ea" target="_top" xlink:title="Get the ArgoDSM node id where addr is physically backed.">
<polygon fill="white" stroke="black" points="0,-38.5 0,-57.5 116,-57.5 116,-38.5 0,-38.5"/>
<text text-anchor="middle" x="58" y="-45.5" font-family="Helvetica,sans-Serif" font-size="10.00">argo_get_homenode</text>
</a>
</g>
</g>
<!-- Node1&#45;&gt;Node2 -->
<g id="edge1" class="edge">
<title>Node1&#45;&gt;Node2</title>
<path fill="none" stroke="midnightblue" d="M141.56,-37.58C133.14,-38.64 124.59,-39.72 116.35,-40.76"/>
<polygon fill="midnightblue" stroke="midnightblue" points="142.26,-41.02 151.74,-36.29 141.38,-34.07 142.26,-41.02"/>
</g>
<!-- Node3 -->
<g id="node3" class="node">
<title>Node3</title>
<g id="a_node3"><a xlink:href="api_8cpp_a6255f7c304a854275724ca1df48fab28.html#a6255f7c304a854275724ca1df48fab28" target="_top" xlink:title="Unittest that checks correctness of the argo::get_homenode(T* addr) API function.">
<polygon fill="white" stroke="black" points="32,-0.5 32,-19.5 84,-19.5 84,-0.5 32,-0.5"/>
<text text-anchor="middle" x="58" y="-7.5" font-family="Helvetica,sans-Serif" font-size="10.00">TEST_F</text>
</a>
</g>
</g>
<!-- Node1&#45;&gt;Node3 -->
<g id="edge2" class="edge">
<title>Node1&#45;&gt;Node3</title>
<path fill="none" stroke="midnightblue" d="M141.77,-20.45C121.27,-17.86 100.02,-15.18 84.18,-13.18"/>
<polygon fill="midnightblue" stroke="midnightblue" points="141.38,-23.93 151.74,-21.71 142.26,-16.98 141.38,-23.93"/>
</g>
</g>
</svg>
