<?xml version="1.0" encoding="UTF-8" standalone="no"?>
<!DOCTYPE svg PUBLIC "-//W3C//DTD SVG 1.1//EN"
 "http://www.w3.org/Graphics/SVG/1.1/DTD/svg11.dtd">
<!-- Generated by graphviz version 2.43.0 (0)
 -->
<!-- Title: argo::data_distribution::policy_padding Pages: 1 -->
<svg width="455pt" height="176pt"
 viewBox="0.00 0.00 455.00 175.50" xmlns="http://www.w3.org/2000/svg" xmlns:xlink="http://www.w3.org/1999/xlink">
<g id="graph0" class="graph" transform="scale(1 1) rotate(0) translate(4 171.5)">
<title>argo::data_distribution::policy_padding</title>
<polygon fill="white" stroke="transparent" points="-4,4 -4,-171.5 451,-171.5 451,4 -4,4"/>
<!-- Node1 -->
<g id="node1" class="node">
<title>Node1</title>
<g id="a_node1"><a xlink:title="based on the chosen policy, gets the required size we need to add to the standardisation of the ArgoD...">
<polygon fill="#bfbfbf" stroke="black" points="0,-63 0,-93 127,-93 127,-63 0,-63"/>
<text text-anchor="start" x="8" y="-81" font-family="Helvetica,sans-Serif" font-size="10.00">argo::data_distribution</text>
<text text-anchor="middle" x="63.5" y="-70" font-family="Helvetica,sans-Serif" font-size="10.00">::policy_padding</text>
</a>
</g>
</g>
<!-- Node2 -->
<g id="node2" class="node">
<title>Node2</title>
<g id="a_node2"><a xlink:href="namespaceargo_1_1env_a30775a9aa41b956df7474a2c0cc317aa.html#a30775a9aa41b956df7474a2c0cc317aa" target="_top" xlink:title="get the allocation block size requested by environment variable">
<polygon fill="white" stroke="black" points="171,-137 171,-167 287,-167 287,-137 171,-137"/>
<text text-anchor="start" x="179" y="-155" font-family="Helvetica,sans-Serif" font-size="10.00">argo::env::allocation</text>
<text text-anchor="middle" x="229" y="-144" font-family="Helvetica,sans-Serif" font-size="10.00">_block_size</text>
</a>
</g>
</g>
<!-- Node1&#45;&gt;Node2 -->
<g id="edge1" class="edge">
<title>Node1&#45;&gt;Node2</title>
<path fill="none" stroke="midnightblue" d="M92.11,-93.1C111.63,-103.51 138.57,-117.33 163,-128 167.08,-129.78 171.34,-131.55 175.64,-133.27"/>
<polygon fill="midnightblue" stroke="midnightblue" points="174.47,-136.57 185.06,-136.95 177.02,-130.05 174.47,-136.57"/>
</g>
<!-- Node3 -->
<g id="node3" class="node">
<title>Node3</title>
<g id="a_node3"><a xlink:href="namespaceargo_1_1data__distribution_a1bb3f2dcecd237990e6dc67764f06860.html#a1bb3f2dcecd237990e6dc67764f06860" target="_top" xlink:title="identifies if we distribute data using a cyclic memory policy">
<polygon fill="white" stroke="black" points="165.5,-88 165.5,-118 292.5,-118 292.5,-88 165.5,-88"/>
<text text-anchor="start" x="173.5" y="-106" font-family="Helvetica,sans-Serif" font-size="10.00">argo::data_distribution</text>
<text text-anchor="middle" x="229" y="-95" font-family="Helvetica,sans-Serif" font-size="10.00">::is_cyclic_policy</text>
</a>
</g>
</g>
<!-- Node1&#45;&gt;Node3 -->
<g id="edge2" class="edge">
<title>Node1&#45;&gt;Node3</title>
<path fill="none" stroke="midnightblue" d="M127.25,-87.59C136.44,-89 145.97,-90.46 155.34,-91.89"/>
<polygon fill="midnightblue" stroke="midnightblue" points="155.01,-95.38 165.42,-93.43 156.07,-88.46 155.01,-95.38"/>
</g>
<!-- Node5 -->
<g id="node5" class="node">
<title>Node5</title>
<g id="a_node5"><a xlink:href="namespaceargo_1_1data__distribution_a81db8ac76fb520a4a92a7b23249f0135.html#a81db8ac76fb520a4a92a7b23249f0135" target="_top" xlink:title="identifies if we distribute data using the prime&#45;mapp memory policy">
<polygon fill="white" stroke="black" points="163,-39 163,-69 295,-69 295,-39 163,-39"/>
<text text-anchor="start" x="171" y="-57" font-family="Helvetica,sans-Serif" font-size="10.00">argo::data_distribution</text>
<text text-anchor="middle" x="229" y="-46" font-family="Helvetica,sans-Serif" font-size="10.00">::is_prime_mapp_policy</text>
</a>
</g>
</g>
<!-- Node1&#45;&gt;Node5 -->
<g id="edge4" class="edge">
<title>Node1&#45;&gt;Node5</title>
<path fill="none" stroke="midnightblue" d="M127.25,-68.79C135.66,-67.55 144.36,-66.28 152.96,-65.02"/>
<polygon fill="midnightblue" stroke="midnightblue" points="153.6,-68.46 162.98,-63.54 152.58,-61.53 153.6,-68.46"/>
</g>
<!-- Node6 -->
<g id="node6" class="node">
<title>Node6</title>
<g id="a_node6"><a xlink:href="namespaceargo_a7839b1673e9af449cad0e94dce253721.html#a7839b1673e9af449cad0e94dce253721" target="_top" xlink:title="Number of ArgoDSM nodes being run.">
<polygon fill="white" stroke="black" points="163.5,-0.5 163.5,-19.5 294.5,-19.5 294.5,-0.5 163.5,-0.5"/>
<text text-anchor="middle" x="229" y="-7.5" font-family="Helvetica,sans-Serif" font-size="10.00">argo::number_of_nodes</text>
</a>
</g>
</g>
<!-- Node1&#45;&gt;Node6 -->
<g id="edge6" class="edge">
<title>Node1&#45;&gt;Node6</title>
<path fill="none" stroke="midnightblue" d="M92.43,-62.95C111.87,-52.83 138.58,-39.64 163,-30 169.72,-27.35 176.94,-24.82 184.04,-22.51"/>
<polygon fill="midnightblue" stroke="midnightblue" points="185.1,-25.85 193.58,-19.5 182.99,-19.17 185.1,-25.85"/>
</g>
<!-- Node4 -->
<g id="node4" class="node">
<title>Node4</title>
<g id="a_node4"><a xlink:href="namespaceargo_1_1env_a25a08cb2d0d11432d640ec7173063339.html#a25a08cb2d0d11432d640ec7173063339" target="_top" xlink:title="get the allocation policy requested by environment variable">
<polygon fill="white" stroke="black" points="331,-63 331,-93 447,-93 447,-63 331,-63"/>
<text text-anchor="start" x="339" y="-81" font-family="Helvetica,sans-Serif" font-size="10.00">argo::env::allocation</text>
<text text-anchor="middle" x="389" y="-70" font-family="Helvetica,sans-Serif" font-size="10.00">_policy</text>
</a>
</g>
</g>
<!-- Node3&#45;&gt;Node4 -->
<g id="edge3" class="edge">
<title>Node3&#45;&gt;Node4</title>
<path fill="none" stroke="midnightblue" d="M292.9,-93.05C302.13,-91.59 311.66,-90.08 320.97,-88.61"/>
<polygon fill="midnightblue" stroke="midnightblue" points="321.62,-92.05 330.95,-87.03 320.53,-85.13 321.62,-92.05"/>
</g>
<!-- Node5&#45;&gt;Node4 -->
<g id="edge5" class="edge">
<title>Node5&#45;&gt;Node4</title>
<path fill="none" stroke="midnightblue" d="M295.18,-63.9C303.52,-65.17 312.07,-66.47 320.45,-67.74"/>
<polygon fill="midnightblue" stroke="midnightblue" points="320.14,-71.23 330.55,-69.27 321.19,-64.31 320.14,-71.23"/>
</g>
</g>
</svg>
