<?xml version="1.0" encoding="UTF-8" standalone="no"?>
<!DOCTYPE svg PUBLIC "-//W3C//DTD SVG 1.1//EN"
 "http://www.w3.org/Graphics/SVG/1.1/DTD/svg11.dtd">
<!-- Generated by graphviz version 2.43.0 (0)
 -->
<!-- Title: argo::mempools::synchronize Pages: 1 -->
<svg width="489pt" height="230pt"
 viewBox="0.00 0.00 489.00 229.50" xmlns="http://www.w3.org/2000/svg" xmlns:xlink="http://www.w3.org/1999/xlink">
<g id="graph0" class="graph" transform="scale(1 1) rotate(0) translate(4 225.5)">
<title>argo::mempools::synchronize</title>
<polygon fill="white" stroke="transparent" points="-4,4 -4,-225.5 485,-225.5 485,4 -4,4"/>
<!-- Node1 -->
<g id="node1" class="node">
<title>Node1</title>
<g id="a_node1"><a xlink:title="synchronize memory metainformation (address) after growing to ensure visibility">
<polygon fill="#bfbfbf" stroke="black" points="320,-76.5 320,-95.5 481,-95.5 481,-76.5 320,-76.5"/>
<text text-anchor="middle" x="400.5" y="-83.5" font-family="Helvetica,sans-Serif" font-size="10.00">argo::mempools::synchronize</text>
</a>
</g>
</g>
<!-- Node2 -->
<g id="node2" class="node">
<title>Node2</title>
<g id="a_node2"><a xlink:href="namespaceargo_a09ca0ec2df9dbed721fb14b26cfa39a3.html#a09ca0ec2df9dbed721fb14b26cfa39a3" target="_top" xlink:title="template function to delete objects that were allocated using collective_new">
<polygon fill="white" stroke="black" points="179.5,-152.5 179.5,-171.5 271.5,-171.5 271.5,-152.5 179.5,-152.5"/>
<text text-anchor="middle" x="225.5" y="-159.5" font-family="Helvetica,sans-Serif" font-size="10.00">argo::codelete_</text>
</a>
</g>
</g>
<!-- Node1&#45;&gt;Node2 -->
<g id="edge1" class="edge">
<title>Node1&#45;&gt;Node2</title>
<path fill="none" stroke="midnightblue" d="M373,-100.4C349.89,-112.63 315.28,-130.19 284,-143 275.73,-146.39 266.61,-149.62 258.12,-152.43"/>
<polygon fill="midnightblue" stroke="midnightblue" points="374.68,-103.47 381.85,-95.67 371.38,-97.29 374.68,-103.47"/>
</g>
<!-- Node5 -->
<g id="node5" class="node">
<title>Node5</title>
<g id="a_node5"><a xlink:href="namespaceargo_aa7e8ddf5784dd37c965cfd43cd65a330.html#aa7e8ddf5784dd37c965cfd43cd65a330" target="_top" xlink:title="Delete a globally collectively allocated array of objects.">
<polygon fill="white" stroke="black" points="167,-114.5 167,-133.5 284,-133.5 284,-114.5 167,-114.5"/>
<text text-anchor="middle" x="225.5" y="-121.5" font-family="Helvetica,sans-Serif" font-size="10.00">argo::codelete_array</text>
</a>
</g>
</g>
<!-- Node1&#45;&gt;Node5 -->
<g id="edge4" class="edge">
<title>Node1&#45;&gt;Node5</title>
<path fill="none" stroke="midnightblue" d="M345.99,-97.75C321.53,-103.13 292.93,-109.41 269.84,-114.48"/>
<polygon fill="midnightblue" stroke="midnightblue" points="346.83,-101.15 355.84,-95.59 345.33,-94.32 346.83,-101.15"/>
</g>
<!-- Node7 -->
<g id="node7" class="node">
<title>Node7</title>
<g id="a_node7"><a xlink:href="namespaceargo_a43db7086bc5f4070897fc687ea7e950c.html#a43db7086bc5f4070897fc687ea7e950c" target="_top" xlink:title="template function to construct new objects using collective allocation">
<polygon fill="white" stroke="black" points="185,-76.5 185,-95.5 266,-95.5 266,-76.5 185,-76.5"/>
<text text-anchor="middle" x="225.5" y="-83.5" font-family="Helvetica,sans-Serif" font-size="10.00">argo::conew_</text>
</a>
</g>
</g>
<!-- Node1&#45;&gt;Node7 -->
<g id="edge6" class="edge">
<title>Node1&#45;&gt;Node7</title>
<path fill="none" stroke="midnightblue" d="M309.78,-86C294.47,-86 279.29,-86 266.17,-86"/>
<polygon fill="midnightblue" stroke="midnightblue" points="309.84,-89.5 319.84,-86 309.84,-82.5 309.84,-89.5"/>
</g>
<!-- Node8 -->
<g id="node8" class="node">
<title>Node8</title>
<g id="a_node8"><a xlink:href="namespaceargo_a532a530aefb04b559d017b8ac402feb5.html#a532a530aefb04b559d017b8ac402feb5" target="_top" xlink:title="Collectively construct a new array of objects in the global memory.">
<polygon fill="white" stroke="black" points="172,-38.5 172,-57.5 279,-57.5 279,-38.5 172,-38.5"/>
<text text-anchor="middle" x="225.5" y="-45.5" font-family="Helvetica,sans-Serif" font-size="10.00">argo::conew_array</text>
</a>
</g>
</g>
<!-- Node1&#45;&gt;Node8 -->
<g id="edge7" class="edge">
<title>Node1&#45;&gt;Node8</title>
<path fill="none" stroke="midnightblue" d="M345.99,-74.25C321.53,-68.87 292.93,-62.59 269.84,-57.52"/>
<polygon fill="midnightblue" stroke="midnightblue" points="345.33,-77.68 355.84,-76.41 346.83,-70.85 345.33,-77.68"/>
</g>
<!-- Node9 -->
<g id="node9" class="node">
<title>Node9</title>
<g id="a_node9"><a xlink:href="tests_2allocators_8cpp_a2f25d144c7922266c208dcd7416ec8ad.html#a2f25d144c7922266c208dcd7416ec8ad" target="_top" xlink:title="Test the &quot;parser&quot; for the allocation parameters.">
<polygon fill="white" stroke="black" points="199.5,-0.5 199.5,-19.5 251.5,-19.5 251.5,-0.5 199.5,-0.5"/>
<text text-anchor="middle" x="225.5" y="-7.5" font-family="Helvetica,sans-Serif" font-size="10.00">TEST_F</text>
</a>
</g>
</g>
<!-- Node1&#45;&gt;Node9 -->
<g id="edge8" class="edge">
<title>Node1&#45;&gt;Node9</title>
<path fill="none" stroke="midnightblue" d="M373,-71.6C349.89,-59.37 315.28,-41.81 284,-29 273.59,-24.74 261.84,-20.72 251.68,-17.48"/>
<polygon fill="midnightblue" stroke="midnightblue" points="371.38,-74.71 381.85,-76.33 374.68,-68.53 371.38,-74.71"/>
</g>
<!-- Node3 -->
<g id="node3" class="node">
<title>Node3</title>
<g id="a_node3"><a xlink:href="classargo_1_1globallock_1_1cohort__lock_a48e63a5ba24a93d3799a3993c663a30b.html#a48e63a5ba24a93d3799a3993c663a30b" target="_top" xlink:title=" ">
<polygon fill="white" stroke="black" points="0,-191 0,-221 131,-221 131,-191 0,-191"/>
<text text-anchor="start" x="8" y="-209" font-family="Helvetica,sans-Serif" font-size="10.00">argo::globallock::cohort</text>
<text text-anchor="middle" x="65.5" y="-198" font-family="Helvetica,sans-Serif" font-size="10.00">_lock::~cohort_lock</text>
</a>
</g>
</g>
<!-- Node2&#45;&gt;Node3 -->
<g id="edge2" class="edge">
<title>Node2&#45;&gt;Node3</title>
<path fill="none" stroke="midnightblue" d="M180.55,-174.24C161.97,-179.41 140.15,-185.49 120.6,-190.93"/>
<polygon fill="midnightblue" stroke="midnightblue" points="181.52,-177.6 190.22,-171.55 179.64,-170.86 181.52,-177.6"/>
</g>
<!-- Node4 -->
<g id="node4" class="node">
<title>Node4</title>
<g id="a_node4"><a xlink:href="tests_2allocators_8cpp_a13fc720238a04e385587d7b2cef0f3bc.html#a13fc720238a04e385587d7b2cef0f3bc" target="_top" xlink:title="Test if it is possible to delete a null pointer with no errors.">
<polygon fill="white" stroke="black" points="39.5,-152.5 39.5,-171.5 91.5,-171.5 91.5,-152.5 39.5,-152.5"/>
<text text-anchor="middle" x="65.5" y="-159.5" font-family="Helvetica,sans-Serif" font-size="10.00">TEST_F</text>
</a>
</g>
</g>
<!-- Node2&#45;&gt;Node4 -->
<g id="edge3" class="edge">
<title>Node2&#45;&gt;Node4</title>
<path fill="none" stroke="midnightblue" d="M168.96,-162C142.59,-162 112.38,-162 91.64,-162"/>
<polygon fill="midnightblue" stroke="midnightblue" points="169.22,-165.5 179.22,-162 169.22,-158.5 169.22,-165.5"/>
</g>
<!-- Node6 -->
<g id="node6" class="node">
<title>Node6</title>
<g id="a_node6"><a xlink:href="tests_2allocators_8cpp_a0571f7229f019db2f46d8f56bebd01d0.html#a0571f7229f019db2f46d8f56bebd01d0" target="_top" xlink:title="mixes dynamic and collective allocation and stores dynamic arrays in a collective arrays to communica...">
<polygon fill="white" stroke="black" points="39.5,-114.5 39.5,-133.5 91.5,-133.5 91.5,-114.5 39.5,-114.5"/>
<text text-anchor="middle" x="65.5" y="-121.5" font-family="Helvetica,sans-Serif" font-size="10.00">TEST_F</text>
</a>
</g>
</g>
<!-- Node5&#45;&gt;Node6 -->
<g id="edge5" class="edge">
<title>Node5&#45;&gt;Node6</title>
<path fill="none" stroke="midnightblue" d="M156.48,-124C133.53,-124 109.32,-124 91.8,-124"/>
<polygon fill="midnightblue" stroke="midnightblue" points="156.56,-127.5 166.56,-124 156.56,-120.5 156.56,-127.5"/>
</g>
</g>
</svg>
