<?xml version="1.0" encoding="UTF-8" standalone="no"?>
<!DOCTYPE svg PUBLIC "-//W3C//DTD SVG 1.1//EN"
 "http://www.w3.org/Graphics/SVG/1.1/DTD/svg11.dtd">
<!-- Generated by graphviz version 2.43.0 (0)
 -->
<!-- Title: argo::data_distribution::is_cyclic_policy Pages: 1 -->
<svg width="602pt" height="127pt"
 viewBox="0.00 0.00 602.00 127.00" xmlns="http://www.w3.org/2000/svg" xmlns:xlink="http://www.w3.org/1999/xlink">
<g id="graph0" class="graph" transform="scale(1 1) rotate(0) translate(4 123)">
<title>argo::data_distribution::is_cyclic_policy</title>
<polygon fill="white" stroke="transparent" points="-4,4 -4,-123 598,-123 598,4 -4,4"/>
<!-- Node1 -->
<g id="node1" class="node">
<title>Node1</title>
<g id="a_node1"><a xlink:title="identifies if we distribute data using a cyclic memory policy">
<polygon fill="#bfbfbf" stroke="black" points="467,-44.5 467,-74.5 594,-74.5 594,-44.5 467,-44.5"/>
<text text-anchor="start" x="475" y="-62.5" font-family="Helvetica,sans-Serif" font-size="10.00">argo::data_distribution</text>
<text text-anchor="middle" x="530.5" y="-51.5" font-family="Helvetica,sans-Serif" font-size="10.00">::is_cyclic_policy</text>
</a>
</g>
</g>
<!-- Node2 -->
<g id="node2" class="node">
<title>Node2</title>
<g id="a_node2"><a xlink:href="namespaceargo_1_1data__distribution_a2a70ed49553953957c3a28aa755d7ac8.html#a2a70ed49553953957c3a28aa755d7ac8" target="_top" xlink:title="based on the chosen policy, gets the policy block size">
<polygon fill="white" stroke="black" points="304,-88.5 304,-118.5 431,-118.5 431,-88.5 304,-88.5"/>
<text text-anchor="start" x="312" y="-106.5" font-family="Helvetica,sans-Serif" font-size="10.00">argo::data_distribution</text>
<text text-anchor="middle" x="367.5" y="-95.5" font-family="Helvetica,sans-Serif" font-size="10.00">::policy_block_size</text>
</a>
</g>
</g>
<!-- Node1&#45;&gt;Node2 -->
<g id="edge1" class="edge">
<title>Node1&#45;&gt;Node2</title>
<path fill="none" stroke="midnightblue" d="M464.72,-77.2C451.05,-80.94 436.75,-84.85 423.48,-88.47"/>
<polygon fill="midnightblue" stroke="midnightblue" points="465.82,-80.53 474.54,-74.52 463.97,-73.78 465.82,-80.53"/>
</g>
<!-- Node5 -->
<g id="node5" class="node">
<title>Node5</title>
<g id="a_node5"><a xlink:href="api_8cpp_a42290e9787e669eb9618124225ff8010.html#a42290e9787e669eb9618124225ff8010" target="_top" xlink:title="Unittest that checks that argo::get_block_size() is consistent with argo::env::block_size() for all c...">
<polygon fill="white" stroke="black" points="32,-52 32,-71 84,-71 84,-52 32,-52"/>
<text text-anchor="middle" x="58" y="-59" font-family="Helvetica,sans-Serif" font-size="10.00">TEST_F</text>
</a>
</g>
</g>
<!-- Node1&#45;&gt;Node5 -->
<g id="edge8" class="edge">
<title>Node1&#45;&gt;Node5</title>
<path fill="none" stroke="midnightblue" d="M456.41,-59.81C348.86,-60.27 153.26,-61.1 84.07,-61.39"/>
<polygon fill="midnightblue" stroke="midnightblue" points="456.55,-63.31 466.53,-59.77 456.52,-56.31 456.55,-63.31"/>
</g>
<!-- Node6 -->
<g id="node6" class="node">
<title>Node6</title>
<g id="a_node6"><a xlink:href="namespaceargo_1_1data__distribution_acc3c36c6299a0636d31774e216102de1.html#acc3c36c6299a0636d31774e216102de1" target="_top" xlink:title="based on the chosen policy, gets the required size we need to add to the standardisation of the ArgoD...">
<polygon fill="white" stroke="black" points="304,-0.5 304,-30.5 431,-30.5 431,-0.5 304,-0.5"/>
<text text-anchor="start" x="312" y="-18.5" font-family="Helvetica,sans-Serif" font-size="10.00">argo::data_distribution</text>
<text text-anchor="middle" x="367.5" y="-7.5" font-family="Helvetica,sans-Serif" font-size="10.00">::policy_padding</text>
</a>
</g>
</g>
<!-- Node1&#45;&gt;Node6 -->
<g id="edge5" class="edge">
<title>Node1&#45;&gt;Node6</title>
<path fill="none" stroke="midnightblue" d="M464.72,-41.8C451.05,-38.06 436.75,-34.15 423.48,-30.53"/>
<polygon fill="midnightblue" stroke="midnightblue" points="463.97,-45.22 474.54,-44.48 465.82,-38.47 463.97,-45.22"/>
</g>
<!-- Node3 -->
<g id="node3" class="node">
<title>Node3</title>
<g id="a_node3"><a xlink:href="namespaceargo_a2f35b6b6e0af76fb8fb47f2031d6f58e.html#a2f35b6b6e0af76fb8fb47f2031d6f58e" target="_top" xlink:title="Get the block size of the current allocation policy.">
<polygon fill="white" stroke="black" points="152,-91 152,-110 268,-110 268,-91 152,-91"/>
<text text-anchor="middle" x="210" y="-98" font-family="Helvetica,sans-Serif" font-size="10.00">argo::get_block_size</text>
</a>
</g>
</g>
<!-- Node2&#45;&gt;Node3 -->
<g id="edge2" class="edge">
<title>Node2&#45;&gt;Node3</title>
<path fill="none" stroke="midnightblue" d="M293.66,-102.09C285.05,-101.93 276.36,-101.76 268.01,-101.6"/>
<polygon fill="midnightblue" stroke="midnightblue" points="293.63,-105.59 303.7,-102.29 293.77,-98.6 293.63,-105.59"/>
</g>
<!-- Node4 -->
<g id="node4" class="node">
<title>Node4</title>
<g id="a_node4"><a xlink:href="argo_8cpp_ad0931c5341a3b07302a3a019834280f6.html#ad0931c5341a3b07302a3a019834280f6" target="_top" xlink:title="Get the block size of the current allocation policy.">
<polygon fill="white" stroke="black" points="0,-91 0,-110 116,-110 116,-91 0,-91"/>
<text text-anchor="middle" x="58" y="-98" font-family="Helvetica,sans-Serif" font-size="10.00">argo_get_block_size</text>
</a>
</g>
</g>
<!-- Node3&#45;&gt;Node4 -->
<g id="edge3" class="edge">
<title>Node3&#45;&gt;Node4</title>
<path fill="none" stroke="midnightblue" d="M141.69,-100.5C133.27,-100.5 124.72,-100.5 116.47,-100.5"/>
<polygon fill="midnightblue" stroke="midnightblue" points="141.86,-104 151.86,-100.5 141.86,-97 141.86,-104"/>
</g>
<!-- Node3&#45;&gt;Node5 -->
<g id="edge4" class="edge">
<title>Node3&#45;&gt;Node5</title>
<path fill="none" stroke="midnightblue" d="M162.32,-88.36C136.46,-81.64 105.34,-73.55 84.05,-68.01"/>
<polygon fill="midnightblue" stroke="midnightblue" points="161.75,-91.83 172.31,-90.96 163.51,-85.06 161.75,-91.83"/>
</g>
<!-- Node7 -->
<g id="node7" class="node">
<title>Node7</title>
<g id="a_node7"><a xlink:href="swdsm_8cpp_a31ba60e8ddccfa922da8d7e6a10f7b1d.html#a31ba60e8ddccfa922da8d7e6a10f7b1d" target="_top" xlink:title="Initializes ArgoDSM runtime.">
<polygon fill="white" stroke="black" points="167,-6 167,-25 253,-25 253,-6 167,-6"/>
<text text-anchor="middle" x="210" y="-13" font-family="Helvetica,sans-Serif" font-size="10.00">argo_initialize</text>
</a>
</g>
</g>
<!-- Node6&#45;&gt;Node7 -->
<g id="edge6" class="edge">
<title>Node6&#45;&gt;Node7</title>
<path fill="none" stroke="midnightblue" d="M293.64,-15.5C279.73,-15.5 265.61,-15.5 253.07,-15.5"/>
<polygon fill="midnightblue" stroke="midnightblue" points="293.7,-19 303.7,-15.5 293.7,-12 293.7,-19"/>
</g>
<!-- Node8 -->
<g id="node8" class="node">
<title>Node8</title>
<g id="a_node8"><a xlink:href="backend_8hpp_aab3cabb3e1c0b9696b339416b684f78c.html#aab3cabb3e1c0b9696b339416b684f78c" target="_top" xlink:title="initialize backend">
<polygon fill="white" stroke="black" points="4.5,-6 4.5,-25 111.5,-25 111.5,-6 4.5,-6"/>
<text text-anchor="middle" x="58" y="-13" font-family="Helvetica,sans-Serif" font-size="10.00">argo::backend::init</text>
</a>
</g>
</g>
<!-- Node7&#45;&gt;Node8 -->
<g id="edge7" class="edge">
<title>Node7&#45;&gt;Node8</title>
<path fill="none" stroke="midnightblue" d="M156.47,-15.5C141.92,-15.5 126.12,-15.5 111.56,-15.5"/>
<polygon fill="midnightblue" stroke="midnightblue" points="156.82,-19 166.82,-15.5 156.82,-12 156.82,-19"/>
</g>
</g>
</svg>
