<?xml version="1.0" encoding="UTF-8" standalone="no"?>
<!DOCTYPE svg PUBLIC "-//W3C//DTD SVG 1.1//EN"
 "http://www.w3.org/Graphics/SVG/1.1/DTD/svg11.dtd">
<!-- Generated by graphviz version 2.43.0 (0)
 -->
<!-- Title: argo::conew_array Pages: 1 -->
<!--zoomable 110 -->
<svg id="main" version="1.1" xmlns="http://www.w3.org/2000/svg" xmlns:xlink="http://www.w3.org/1999/xlink" xml:space="preserve" onload="init(evt)">
<style type="text/css"><![CDATA[
.edge:hover path { stroke: red; }
.edge:hover polygon { stroke: red; fill: red; }
]]></style>
<script type="text/javascript"><![CDATA[
var edges = document.getElementsByTagName('g');
if (edges && edges.length) {
  for (var i=0;i<edges.length;i++) {
    if (edges[i].id.substr(0,4)=='edge') {
      edges[i].setAttribute('class','edge');
    }
  }
}
]]></script>
        <defs>
                <circle id="rim" cx="0" cy="0" r="7"/>
                <circle id="rim2" cx="0" cy="0" r="3.5"/>
                <g id="zoomPlus">
                        <use xlink:href="#rim" fill="#404040">
                                <set attributeName="fill" to="#808080" begin="zoomplus.mouseover" end="zoomplus.mouseout"/>
                        </use>
                        <path d="M-4,0h8M0,-4v8" fill="none" stroke="white" stroke-width="1.5" pointer-events="none"/>
                </g>
                <g id="zoomMin">
                        <use xlink:href="#rim" fill="#404040">
                                <set attributeName="fill" to="#808080" begin="zoomminus.mouseover" end="zoomminus.mouseout"/>
                        </use>
                        <path d="M-4,0h8" fill="none" stroke="white" stroke-width="1.5" pointer-events="none"/>
                </g>
                <g id="dirArrow">
                        <path fill="none" stroke="white" stroke-width="1.5" d="M0,-3.0v7 M-2.5,-0.5L0,-3.0L2.5,-0.5"/>
                </g>
               <g id="resetDef">
                       <use xlink:href="#rim2" fill="#404040">
                               <set attributeName="fill" to="#808080" begin="reset.mouseover" end="reset.mouseout"/>
                       </use>
               </g>
        </defs>

<script type="text/javascript">
var viewWidth = 652;
var viewHeight = 110;
var sectionId = 'dynsection-0';
</script>
<script xlink:href="svgpan.js"/>
<svg id="graph" class="graph">
<g id="viewport">
<title>argo::conew_array</title>
<polygon fill="white" stroke="transparent" points="-4,4 -4,-105.5 648,-105.5 648,4 -4,4"/>
<!-- Node1 -->
<g id="node1" class="node">
<title>Node1</title>
<g id="a_node1"><a xlink:title="Collectively construct a new array of objects in the global memory.">
<polygon fill="#bfbfbf" stroke="black" points="0,-38.5 0,-57.5 107,-57.5 107,-38.5 0,-38.5"/>
<text text-anchor="middle" x="53.5" y="-45.5" font-family="Helvetica,sans-Serif" font-size="10.00">argo::conew_array</text>
</a>
</g>
</g>
<!-- Node2 -->
<g id="node2" class="node">
<title>Node2</title>
<g id="a_node2"><a xlink:href="src_2allocators_2allocators_8cpp_a4e8d23563c42daa5dfce669293d7e389.html#a4e8d23563c42daa5dfce669293d7e389" target="_top" xlink:title="basic collective allocation function, for C interface">
<polygon fill="white" stroke="black" points="177.5,-76.5 177.5,-95.5 269.5,-95.5 269.5,-76.5 177.5,-76.5"/>
<text text-anchor="middle" x="223.5" y="-83.5" font-family="Helvetica,sans-Serif" font-size="10.00">collective_alloc</text>
</a>
</g>
</g>
<!-- Node1&#45;&gt;Node2 -->
<g id="edge1" class="edge">
<title>Node1&#45;&gt;Node2</title>
<path fill="none" stroke="midnightblue" d="M96.89,-57.59C119.26,-62.65 146.9,-68.9 170.55,-74.25"/>
<polygon fill="midnightblue" stroke="midnightblue" points="169.89,-77.69 180.41,-76.48 171.43,-70.86 169.89,-77.69"/>
</g>
<!-- Node5 -->
<g id="node5" class="node">
<title>Node5</title>
<g id="a_node5"><a xlink:href="namespaceargo_a188a4648d6e7549bcef4cee36dcb5336.html#a188a4648d6e7549bcef4cee36dcb5336" target="_top" xlink:title="A unique ArgoDSM node identifier. Counting starts from 0.">
<polygon fill="white" stroke="black" points="182,-38.5 182,-57.5 265,-57.5 265,-38.5 182,-38.5"/>
<text text-anchor="middle" x="223.5" y="-45.5" font-family="Helvetica,sans-Serif" font-size="10.00">argo::node_id</text>
</a>
</g>
</g>
<!-- Node1&#45;&gt;Node5 -->
<g id="edge4" class="edge">
<title>Node1&#45;&gt;Node5</title>
<path fill="none" stroke="midnightblue" d="M107.2,-48C127.86,-48 151.47,-48 171.92,-48"/>
<polygon fill="midnightblue" stroke="midnightblue" points="171.99,-51.5 181.99,-48 171.99,-44.5 171.99,-51.5"/>
</g>
<!-- Node6 -->
<g id="node6" class="node">
<title>Node6</title>
<g id="a_node6"><a xlink:href="namespaceargo_1_1mempools_aaa24afb08a15776a8f2440531ba3121c.html#aaa24afb08a15776a8f2440531ba3121c" target="_top" xlink:title="synchronize memory metainformation (address) after growing to ensure visibility">
<polygon fill="white" stroke="black" points="143,-0.5 143,-19.5 304,-19.5 304,-0.5 143,-0.5"/>
<text text-anchor="middle" x="223.5" y="-7.5" font-family="Helvetica,sans-Serif" font-size="10.00">argo::mempools::synchronize</text>
</a>
</g>
</g>
<!-- Node1&#45;&gt;Node6 -->
<g id="edge5" class="edge">
<title>Node1&#45;&gt;Node6</title>
<path fill="none" stroke="midnightblue" d="M96.89,-38.41C119.26,-33.35 146.9,-27.1 170.55,-21.75"/>
<polygon fill="midnightblue" stroke="midnightblue" points="171.43,-25.14 180.41,-19.52 169.89,-18.31 171.43,-25.14"/>
</g>
<!-- Node3 -->
<g id="node3" class="node">
<title>Node3</title>
<g id="a_node3"><a xlink:href="classargo_1_1allocators_1_1generic__allocator_ae0df0734076478aeaeb689cdb902497a.html#ae0df0734076478aeaeb689cdb902497a" target="_top" xlink:title="Allocate memory.">
<polygon fill="white" stroke="black" points="340,-71 340,-101 474,-101 474,-71 340,-71"/>
<text text-anchor="start" x="348" y="-89" font-family="Helvetica,sans-Serif" font-size="10.00">argo::allocators::generic</text>
<text text-anchor="middle" x="407" y="-78" font-family="Helvetica,sans-Serif" font-size="10.00">_allocator::allocate</text>
</a>
</g>
</g>
<!-- Node2&#45;&gt;Node3 -->
<g id="edge2" class="edge">
<title>Node2&#45;&gt;Node3</title>
<path fill="none" stroke="midnightblue" d="M269.83,-86C287.89,-86 309.17,-86 329.48,-86"/>
<polygon fill="midnightblue" stroke="midnightblue" points="329.67,-89.5 339.67,-86 329.67,-82.5 329.67,-89.5"/>
</g>
<!-- Node4 -->
<g id="node4" class="node">
<title>Node4</title>
<g id="a_node4"><a xlink:href="classargo_1_1allocators_1_1generic__allocator_a3a6c4c5d83d679ce7fbfe1a50f323545.html#a3a6c4c5d83d679ce7fbfe1a50f323545" target="_top" xlink:title="helper function to align a number up to the next alignment">
<polygon fill="white" stroke="black" points="510,-71 510,-101 644,-101 644,-71 510,-71"/>
<text text-anchor="start" x="518" y="-89" font-family="Helvetica,sans-Serif" font-size="10.00">argo::allocators::generic</text>
<text text-anchor="middle" x="577" y="-78" font-family="Helvetica,sans-Serif" font-size="10.00">_allocator::align_up</text>
</a>
</g>
</g>
<!-- Node3&#45;&gt;Node4 -->
<g id="edge3" class="edge">
<title>Node3&#45;&gt;Node4</title>
<path fill="none" stroke="midnightblue" d="M474.4,-86C482.68,-86 491.2,-86 499.62,-86"/>
<polygon fill="midnightblue" stroke="midnightblue" points="499.81,-89.5 509.81,-86 499.81,-82.5 499.81,-89.5"/>
</g>
</g>
</svg>
        <g id="navigator" transform="translate(0 0)" fill="#404254">
                <rect fill="#f2f5e9" fill-opacity="0.5" stroke="#606060" stroke-width=".5" x="0" y="0" width="60" height="60"/>
                <use id="zoomplus" xlink:href="#zoomPlus" x="17" y="9" onmousedown="handleZoom(evt,'in')"/>
                <use id="zoomminus" xlink:href="#zoomMin" x="42" y="9" onmousedown="handleZoom(evt,'out')"/>
                <use id="reset" xlink:href="#resetDef" x="30" y="36" onmousedown="handleReset()"/>
                <g id="arrowUp" xlink:href="#dirArrow" transform="translate(30 24)" onmousedown="handlePan(0,-1)">
                  <use xlink:href="#rim" fill="#404040">
                        <set attributeName="fill" to="#808080" begin="arrowUp.mouseover" end="arrowUp.mouseout"/>
                  </use>
                  <path fill="none" stroke="white" stroke-width="1.5" d="M0,-3.0v7 M-2.5,-0.5L0,-3.0L2.5,-0.5"/>
                </g>
                <g id="arrowRight" xlink:href="#dirArrow" transform="rotate(90) translate(36 -43)" onmousedown="handlePan(1,0)">
                  <use xlink:href="#rim" fill="#404040">
                        <set attributeName="fill" to="#808080" begin="arrowRight.mouseover" end="arrowRight.mouseout"/>
                  </use>
                  <path fill="none" stroke="white" stroke-width="1.5" d="M0,-3.0v7 M-2.5,-0.5L0,-3.0L2.5,-0.5"/>
                </g>
                <g id="arrowDown" xlink:href="#dirArrow" transform="rotate(180) translate(-30 -48)" onmousedown="handlePan(0,1)">
                  <use xlink:href="#rim" fill="#404040">
                        <set attributeName="fill" to="#808080" begin="arrowDown.mouseover" end="arrowDown.mouseout"/>
                  </use>
                  <path fill="none" stroke="white" stroke-width="1.5" d="M0,-3.0v7 M-2.5,-0.5L0,-3.0L2.5,-0.5"/>
                </g>
                <g id="arrowLeft" xlink:href="#dirArrow" transform="rotate(270) translate(-36 17)" onmousedown="handlePan(-1,0)">
                  <use xlink:href="#rim" fill="#404040">
                        <set attributeName="fill" to="#808080" begin="arrowLeft.mouseover" end="arrowLeft.mouseout"/>
                  </use>
                  <path fill="none" stroke="white" stroke-width="1.5" d="M0,-3.0v7 M-2.5,-0.5L0,-3.0L2.5,-0.5"/>
                </g>
        </g>
        <svg viewBox="0 0 15 15" width="100%" height="30px" preserveAspectRatio="xMaxYMin meet">
         <g id="arrow_out" transform="scale(0.3 0.3)">
          <a xlink:href="namespaceargo_a532a530aefb04b559d017b8ac402feb5_a532a530aefb04b559d017b8ac402feb5_cgraph_org.svg" target="_base">
           <rect id="button" ry="5" rx="5" y="6" x="6" height="38" width="38"
                fill="#f2f5e9" fill-opacity="0.5" stroke="#606060" stroke-width="1.0"/>
           <path id="arrow"
             d="M 11.500037,31.436501 C 11.940474,20.09759 22.043105,11.32322 32.158766,21.979434 L 37.068811,17.246167 C 37.068811,17.246167 37.088388,32 37.088388,32 L 22.160133,31.978069 C 22.160133,31.978069 26.997745,27.140456 26.997745,27.140456 C 18.528582,18.264221 13.291696,25.230495 11.500037,31.436501 z"
             style="fill:#404040;"/>
          </a>
         </g>
        </svg>
</svg>
