<?xml version="1.0" encoding="UTF-8" standalone="no"?>
<!DOCTYPE svg PUBLIC "-//W3C//DTD SVG 1.1//EN"
 "http://www.w3.org/Graphics/SVG/1.1/DTD/svg11.dtd">
<!-- Generated by graphviz version 2.43.0 (0)
 -->
<!-- Title: argo::codelete_array Pages: 1 -->
<svg width="689pt" height="154pt"
 viewBox="0.00 0.00 689.00 153.50" xmlns="http://www.w3.org/2000/svg" xmlns:xlink="http://www.w3.org/1999/xlink">
<g id="graph0" class="graph" transform="scale(1 1) rotate(0) translate(4 149.5)">
<title>argo::codelete_array</title>
<polygon fill="white" stroke="transparent" points="-4,4 -4,-149.5 685,-149.5 685,4 -4,4"/>
<!-- Node1 -->
<g id="node1" class="node">
<title>Node1</title>
<g id="a_node1"><a xlink:title="Delete a globally collectively allocated array of objects.">
<polygon fill="#bfbfbf" stroke="black" points="0,-57.5 0,-76.5 117,-76.5 117,-57.5 0,-57.5"/>
<text text-anchor="middle" x="58.5" y="-64.5" font-family="Helvetica,sans-Serif" font-size="10.00">argo::codelete_array</text>
</a>
</g>
</g>
<!-- Node2 -->
<g id="node2" class="node">
<title>Node2</title>
<g id="a_node2"><a xlink:href="classargo_1_1allocators_1_1generic__allocator_a6a7fe288a35b74a248c341d6f67c800c.html#a6a7fe288a35b74a248c341d6f67c800c" target="_top" xlink:title="How much space has been allocated for the given chunk.">
<polygon fill="white" stroke="black" points="159,-115 159,-145 308,-145 308,-115 159,-115"/>
<text text-anchor="start" x="167" y="-133" font-family="Helvetica,sans-Serif" font-size="10.00">argo::allocators::generic</text>
<text text-anchor="middle" x="233.5" y="-122" font-family="Helvetica,sans-Serif" font-size="10.00">_allocator::allocated_space</text>
</a>
</g>
</g>
<!-- Node1&#45;&gt;Node2 -->
<g id="edge1" class="edge">
<title>Node1&#45;&gt;Node2</title>
<path fill="none" stroke="midnightblue" d="M81.6,-76.57C100.42,-84.59 128.27,-96.1 153,-105 159.31,-107.27 165.94,-109.54 172.57,-111.73"/>
<polygon fill="midnightblue" stroke="midnightblue" points="171.66,-115.11 182.25,-114.88 173.82,-108.46 171.66,-115.11"/>
</g>
<!-- Node3 -->
<g id="node3" class="node">
<title>Node3</title>
<g id="a_node3"><a xlink:href="src_2allocators_2allocators_8cpp_a215edf4fe9276398650302b518c52baf.html#a215edf4fe9276398650302b518c52baf" target="_top" xlink:title="basic free function for collective allocations, for C interface">
<polygon fill="white" stroke="black" points="189,-76.5 189,-95.5 278,-95.5 278,-76.5 189,-76.5"/>
<text text-anchor="middle" x="233.5" y="-83.5" font-family="Helvetica,sans-Serif" font-size="10.00">collective_free</text>
</a>
</g>
</g>
<!-- Node1&#45;&gt;Node3 -->
<g id="edge2" class="edge">
<title>Node1&#45;&gt;Node3</title>
<path fill="none" stroke="midnightblue" d="M117.11,-73.33C137.03,-75.51 159.26,-77.96 178.85,-80.11"/>
<polygon fill="midnightblue" stroke="midnightblue" points="178.5,-83.59 188.83,-81.2 179.27,-76.63 178.5,-83.59"/>
</g>
<!-- Node6 -->
<g id="node6" class="node">
<title>Node6</title>
<g id="a_node6"><a xlink:href="namespaceargo_a188a4648d6e7549bcef4cee36dcb5336.html#a188a4648d6e7549bcef4cee36dcb5336" target="_top" xlink:title="A unique ArgoDSM node identifier. Counting starts from 0.">
<polygon fill="white" stroke="black" points="192,-38.5 192,-57.5 275,-57.5 275,-38.5 192,-38.5"/>
<text text-anchor="middle" x="233.5" y="-45.5" font-family="Helvetica,sans-Serif" font-size="10.00">argo::node_id</text>
</a>
</g>
</g>
<!-- Node1&#45;&gt;Node6 -->
<g id="edge5" class="edge">
<title>Node1&#45;&gt;Node6</title>
<path fill="none" stroke="midnightblue" d="M117.11,-60.67C138.04,-58.37 161.53,-55.79 181.83,-53.57"/>
<polygon fill="midnightblue" stroke="midnightblue" points="182.25,-57.04 191.81,-52.47 181.49,-50.08 182.25,-57.04"/>
</g>
<!-- Node7 -->
<g id="node7" class="node">
<title>Node7</title>
<g id="a_node7"><a xlink:href="namespaceargo_1_1mempools_aaa24afb08a15776a8f2440531ba3121c.html#aaa24afb08a15776a8f2440531ba3121c" target="_top" xlink:title="synchronize memory metainformation (address) after growing to ensure visibility">
<polygon fill="white" stroke="black" points="153,-0.5 153,-19.5 314,-19.5 314,-0.5 153,-0.5"/>
<text text-anchor="middle" x="233.5" y="-7.5" font-family="Helvetica,sans-Serif" font-size="10.00">argo::mempools::synchronize</text>
</a>
</g>
</g>
<!-- Node1&#45;&gt;Node7 -->
<g id="edge6" class="edge">
<title>Node1&#45;&gt;Node7</title>
<path fill="none" stroke="midnightblue" d="M80.33,-57.47C99.06,-49.16 127.47,-37.19 153,-29 160.78,-26.5 169.09,-24.17 177.28,-22.05"/>
<polygon fill="midnightblue" stroke="midnightblue" points="178.33,-25.4 187.18,-19.58 176.63,-18.61 178.33,-25.4"/>
</g>
<!-- Node4 -->
<g id="node4" class="node">
<title>Node4</title>
<g id="a_node4"><a xlink:href="classargo_1_1allocators_1_1generic__allocator_ab98a25e383864eecd7d602f95c49c420.html#ab98a25e383864eecd7d602f95c49c420" target="_top" xlink:title="free an allocated pointer">
<polygon fill="white" stroke="black" points="350,-71 350,-101 484,-101 484,-71 350,-71"/>
<text text-anchor="start" x="358" y="-89" font-family="Helvetica,sans-Serif" font-size="10.00">argo::allocators::generic</text>
<text text-anchor="middle" x="417" y="-78" font-family="Helvetica,sans-Serif" font-size="10.00">_allocator::free</text>
</a>
</g>
</g>
<!-- Node3&#45;&gt;Node4 -->
<g id="edge3" class="edge">
<title>Node3&#45;&gt;Node4</title>
<path fill="none" stroke="midnightblue" d="M278.44,-86C296.83,-86 318.75,-86 339.64,-86"/>
<polygon fill="midnightblue" stroke="midnightblue" points="339.78,-89.5 349.78,-86 339.78,-82.5 339.78,-89.5"/>
</g>
<!-- Node5 -->
<g id="node5" class="node">
<title>Node5</title>
<g id="a_node5"><a xlink:href="classargo_1_1allocators_1_1generic__allocator_a83b1a04add59963243bfa60b48d58db4.html#a83b1a04add59963243bfa60b48d58db4" target="_top" xlink:title="helper function for deallocation">
<polygon fill="white" stroke="black" points="520,-71 520,-101 681,-101 681,-71 520,-71"/>
<text text-anchor="start" x="528" y="-89" font-family="Helvetica,sans-Serif" font-size="10.00">argo::allocators::generic</text>
<text text-anchor="middle" x="600.5" y="-78" font-family="Helvetica,sans-Serif" font-size="10.00">_allocator::deallocate_nosync</text>
</a>
</g>
</g>
<!-- Node4&#45;&gt;Node5 -->
<g id="edge4" class="edge">
<title>Node4&#45;&gt;Node5</title>
<path fill="none" stroke="midnightblue" d="M484.04,-86C492.42,-86 501.1,-86 509.77,-86"/>
<polygon fill="midnightblue" stroke="midnightblue" points="509.92,-89.5 519.92,-86 509.92,-82.5 509.92,-89.5"/>
</g>
</g>
</svg>
