<?xml version="1.0" encoding="UTF-8" standalone="no"?>
<!DOCTYPE svg PUBLIC "-//W3C//DTD SVG 1.1//EN"
 "http://www.w3.org/Graphics/SVG/1.1/DTD/svg11.dtd">
<!-- Generated by graphviz version 2.43.0 (0)
 -->
<!-- Title: argo::env::mpi_windows_per_node Pages: 1 -->
<svg width="407pt" height="104pt"
 viewBox="0.00 0.00 407.00 104.00" xmlns="http://www.w3.org/2000/svg" xmlns:xlink="http://www.w3.org/1999/xlink">
<g id="graph0" class="graph" transform="scale(1 1) rotate(0) translate(4 100)">
<title>argo::env::mpi_windows_per_node</title>
<polygon fill="white" stroke="transparent" points="-4,4 -4,-100 403,-100 403,4 -4,4"/>
<!-- Node1 -->
<g id="node1" class="node">
<title>Node1</title>
<g id="a_node1"><a xlink:title="get the number of MPI windows per node requested">
<polygon fill="#bfbfbf" stroke="black" points="265,-52 265,-82 399,-82 399,-52 265,-52"/>
<text text-anchor="start" x="273" y="-70" font-family="Helvetica,sans-Serif" font-size="10.00">argo::env::mpi_windows</text>
<text text-anchor="middle" x="332" y="-59" font-family="Helvetica,sans-Serif" font-size="10.00">_per_node</text>
</a>
</g>
</g>
<!-- Node2 -->
<g id="node2" class="node">
<title>Node2</title>
<g id="a_node2"><a xlink:href="swdsm_8cpp_a31ba60e8ddccfa922da8d7e6a10f7b1d.html#a31ba60e8ddccfa922da8d7e6a10f7b1d" target="_top" xlink:title="Initializes ArgoDSM runtime.">
<polygon fill="white" stroke="black" points="143,-76.5 143,-95.5 229,-95.5 229,-76.5 143,-76.5"/>
<text text-anchor="middle" x="186" y="-83.5" font-family="Helvetica,sans-Serif" font-size="10.00">argo_initialize</text>
</a>
</g>
</g>
<!-- Node1&#45;&gt;Node2 -->
<g id="edge1" class="edge">
<title>Node1&#45;&gt;Node2</title>
<path fill="none" stroke="midnightblue" d="M254.93,-77.04C246.11,-78.2 237.37,-79.35 229.24,-80.43"/>
<polygon fill="midnightblue" stroke="midnightblue" points="255.44,-80.5 264.9,-75.72 254.53,-73.56 255.44,-80.5"/>
</g>
<!-- Node4 -->
<g id="node4" class="node">
<title>Node4</title>
<g id="a_node4"><a xlink:href="namespaceargo_a31330d8b35bd7f9ef9880eec82339c54.html#a31330d8b35bd7f9ef9880eec82339c54" target="_top" xlink:title="initialize ArgoDSM system">
<polygon fill="white" stroke="black" points="156,-38.5 156,-57.5 216,-57.5 216,-38.5 156,-38.5"/>
<text text-anchor="middle" x="186" y="-45.5" font-family="Helvetica,sans-Serif" font-size="10.00">argo::init</text>
</a>
</g>
</g>
<!-- Node1&#45;&gt;Node4 -->
<g id="edge3" class="edge">
<title>Node1&#45;&gt;Node4</title>
<path fill="none" stroke="midnightblue" d="M254.83,-56.95C241,-55.13 227.39,-53.33 216.02,-51.83"/>
<polygon fill="midnightblue" stroke="midnightblue" points="254.53,-60.44 264.9,-58.28 255.44,-53.5 254.53,-60.44"/>
</g>
<!-- Node3 -->
<g id="node3" class="node">
<title>Node3</title>
<g id="a_node3"><a xlink:href="backend_8hpp_aab3cabb3e1c0b9696b339416b684f78c.html#aab3cabb3e1c0b9696b339416b684f78c" target="_top" xlink:title="initialize backend">
<polygon fill="white" stroke="black" points="0,-76.5 0,-95.5 107,-95.5 107,-76.5 0,-76.5"/>
<text text-anchor="middle" x="53.5" y="-83.5" font-family="Helvetica,sans-Serif" font-size="10.00">argo::backend::init</text>
</a>
</g>
</g>
<!-- Node2&#45;&gt;Node3 -->
<g id="edge2" class="edge">
<title>Node2&#45;&gt;Node3</title>
<path fill="none" stroke="midnightblue" d="M132.94,-86C124.54,-86 115.84,-86 107.43,-86"/>
<polygon fill="midnightblue" stroke="midnightblue" points="132.99,-89.5 142.99,-86 132.99,-82.5 132.99,-89.5"/>
</g>
<!-- Node5 -->
<g id="node5" class="node">
<title>Node5</title>
<g id="a_node5"><a xlink:href="argo_8cpp_aa84680ad78c3598c30a482ff71ec6bbc.html#aa84680ad78c3598c30a482ff71ec6bbc" target="_top" xlink:title="initialize ArgoDSM system">
<polygon fill="white" stroke="black" points="24,-38.5 24,-57.5 83,-57.5 83,-38.5 24,-38.5"/>
<text text-anchor="middle" x="53.5" y="-45.5" font-family="Helvetica,sans-Serif" font-size="10.00">argo_init</text>
</a>
</g>
</g>
<!-- Node4&#45;&gt;Node5 -->
<g id="edge4" class="edge">
<title>Node4&#45;&gt;Node5</title>
<path fill="none" stroke="midnightblue" d="M145.62,-48C125.54,-48 101.56,-48 83.24,-48"/>
<polygon fill="midnightblue" stroke="midnightblue" points="145.71,-51.5 155.71,-48 145.71,-44.5 145.71,-51.5"/>
</g>
<!-- Node6 -->
<g id="node6" class="node">
<title>Node6</title>
<g id="a_node6"><a xlink:href="tests_2allocators_8cpp_a3c04138a5bfe5d72780bb7e82a18e627.html#a3c04138a5bfe5d72780bb7e82a18e627" target="_top" xlink:title="The main function that runs the tests.">
<polygon fill="white" stroke="black" points="33,-0.5 33,-19.5 74,-19.5 74,-0.5 33,-0.5"/>
<text text-anchor="middle" x="53.5" y="-7.5" font-family="Helvetica,sans-Serif" font-size="10.00">main</text>
</a>
</g>
</g>
<!-- Node4&#45;&gt;Node6 -->
<g id="edge5" class="edge">
<title>Node4&#45;&gt;Node6</title>
<path fill="none" stroke="midnightblue" d="M145.99,-36.64C122.4,-29.77 93.33,-21.31 74.37,-15.79"/>
<polygon fill="midnightblue" stroke="midnightblue" points="145.13,-40.04 155.71,-39.47 147.09,-33.32 145.13,-40.04"/>
</g>
</g>
</svg>
