<?xml version="1.0" encoding="UTF-8" standalone="no"?>
<!DOCTYPE svg PUBLIC "-//W3C//DTD SVG 1.1//EN"
 "http://www.w3.org/Graphics/SVG/1.1/DTD/svg11.dtd">
<!-- Generated by graphviz version 2.43.0 (0)
 -->
<!-- Title: argo::is_argo_address Pages: 1 -->
<svg width="289pt" height="66pt"
 viewBox="0.00 0.00 289.00 66.00" xmlns="http://www.w3.org/2000/svg" xmlns:xlink="http://www.w3.org/1999/xlink">
<g id="graph0" class="graph" transform="scale(1 1) rotate(0) translate(4 62)">
<title>argo::is_argo_address</title>
<polygon fill="white" stroke="transparent" points="-4,4 -4,-62 285,-62 285,4 -4,4"/>
<!-- Node1 -->
<g id="node1" class="node">
<title>Node1</title>
<g id="a_node1"><a xlink:title="Check if addr belongs in the ArgoDSM memory space.">
<polygon fill="#bfbfbf" stroke="black" points="158,-19.5 158,-38.5 281,-38.5 281,-19.5 158,-19.5"/>
<text text-anchor="middle" x="219.5" y="-26.5" font-family="Helvetica,sans-Serif" font-size="10.00">argo::is_argo_address</text>
</a>
</g>
</g>
<!-- Node2 -->
<g id="node2" class="node">
<title>Node2</title>
<g id="a_node2"><a xlink:href="argo_8cpp_a812d09caf62e1cad552da9be3c893a29.html#a812d09caf62e1cad552da9be3c893a29" target="_top" xlink:title="Check if addr belongs in the ArgoDSM memory space.">
<polygon fill="white" stroke="black" points="0,-38.5 0,-57.5 122,-57.5 122,-38.5 0,-38.5"/>
<text text-anchor="middle" x="61" y="-45.5" font-family="Helvetica,sans-Serif" font-size="10.00">argo_is_argo_address</text>
</a>
</g>
</g>
<!-- Node1&#45;&gt;Node2 -->
<g id="edge1" class="edge">
<title>Node1&#45;&gt;Node2</title>
<path fill="none" stroke="midnightblue" d="M147.94,-37.57C139.31,-38.61 130.55,-39.68 122.09,-40.7"/>
<polygon fill="midnightblue" stroke="midnightblue" points="148.49,-41.03 157.99,-36.35 147.64,-34.08 148.49,-41.03"/>
</g>
<!-- Node3 -->
<g id="node3" class="node">
<title>Node3</title>
<g id="a_node3"><a xlink:href="api_8cpp_a5c4874db80bf26d19ab51d123c8534fc.html#a5c4874db80bf26d19ab51d123c8534fc" target="_top" xlink:title="Unittest that checks correctness of the argo::is_argo_address(T* addr) API function.">
<polygon fill="white" stroke="black" points="35,-0.5 35,-19.5 87,-19.5 87,-0.5 35,-0.5"/>
<text text-anchor="middle" x="61" y="-7.5" font-family="Helvetica,sans-Serif" font-size="10.00">TEST_F</text>
</a>
</g>
</g>
<!-- Node1&#45;&gt;Node3 -->
<g id="edge2" class="edge">
<title>Node1&#45;&gt;Node3</title>
<path fill="none" stroke="midnightblue" d="M147.79,-20.42C126.14,-17.79 103.71,-15.06 87.22,-13.06"/>
<polygon fill="midnightblue" stroke="midnightblue" points="147.64,-23.92 157.99,-21.65 148.49,-16.97 147.64,-23.92"/>
</g>
</g>
</svg>
