<?xml version="1.0" encoding="UTF-8" standalone="no"?>
<!DOCTYPE svg PUBLIC "-//W3C//DTD SVG 1.1//EN"
 "http://www.w3.org/Graphics/SVG/1.1/DTD/svg11.dtd">
<!-- Generated by graphviz version 2.43.0 (0)
 -->
<!-- Title: argo::data_distribution::policy_block_size Pages: 1 -->
<svg width="451pt" height="198pt"
 viewBox="0.00 0.00 451.00 198.00" xmlns="http://www.w3.org/2000/svg" xmlns:xlink="http://www.w3.org/1999/xlink">
<g id="graph0" class="graph" transform="scale(1 1) rotate(0) translate(4 194)">
<title>argo::data_distribution::policy_block_size</title>
<polygon fill="white" stroke="transparent" points="-4,4 -4,-194 447,-194 447,4 -4,4"/>
<!-- Node1 -->
<g id="node1" class="node">
<title>Node1</title>
<g id="a_node1"><a xlink:title="based on the chosen policy, gets the policy block size">
<polygon fill="#bfbfbf" stroke="black" points="0,-76.5 0,-106.5 127,-106.5 127,-76.5 0,-76.5"/>
<text text-anchor="start" x="8" y="-94.5" font-family="Helvetica,sans-Serif" font-size="10.00">argo::data_distribution</text>
<text text-anchor="middle" x="63.5" y="-83.5" font-family="Helvetica,sans-Serif" font-size="10.00">::policy_block_size</text>
</a>
</g>
</g>
<!-- Node2 -->
<g id="node2" class="node">
<title>Node2</title>
<g id="a_node2"><a xlink:href="namespaceargo_1_1env_a30775a9aa41b956df7474a2c0cc317aa.html#a30775a9aa41b956df7474a2c0cc317aa" target="_top" xlink:title="get the allocation block size requested by environment variable">
<polygon fill="white" stroke="black" points="169,-159.5 169,-189.5 285,-189.5 285,-159.5 169,-159.5"/>
<text text-anchor="start" x="177" y="-177.5" font-family="Helvetica,sans-Serif" font-size="10.00">argo::env::allocation</text>
<text text-anchor="middle" x="227" y="-166.5" font-family="Helvetica,sans-Serif" font-size="10.00">_block_size</text>
</a>
</g>
</g>
<!-- Node1&#45;&gt;Node2 -->
<g id="edge1" class="edge">
<title>Node1&#45;&gt;Node2</title>
<path fill="none" stroke="midnightblue" d="M87.82,-106.62C107.43,-118.99 136.44,-136.51 163,-149.5 167.09,-151.5 171.39,-153.47 175.74,-155.37"/>
<polygon fill="midnightblue" stroke="midnightblue" points="174.69,-158.73 185.27,-159.41 177.42,-152.28 174.69,-158.73"/>
</g>
<!-- Node3 -->
<g id="node3" class="node">
<title>Node3</title>
<g id="a_node3"><a xlink:href="classargo_1_1data__distribution_1_1base__distribution_a150661b9199cd90dbdd59c6d9d593f3d.html#a150661b9199cd90dbdd59c6d9d593f3d" target="_top" xlink:title="get the backing store size per node">
<polygon fill="white" stroke="black" points="163,-99 163,-140 291,-140 291,-99 163,-99"/>
<text text-anchor="start" x="171" y="-128" font-family="Helvetica,sans-Serif" font-size="10.00">argo::data_distribution</text>
<text text-anchor="start" x="171" y="-117" font-family="Helvetica,sans-Serif" font-size="10.00">::base_distribution::get</text>
<text text-anchor="middle" x="227" y="-106" font-family="Helvetica,sans-Serif" font-size="10.00">_size_per_node</text>
</a>
</g>
</g>
<!-- Node1&#45;&gt;Node3 -->
<g id="edge2" class="edge">
<title>Node1&#45;&gt;Node3</title>
<path fill="none" stroke="midnightblue" d="M127.4,-102.41C135.74,-103.85 144.35,-105.34 152.84,-106.82"/>
<polygon fill="midnightblue" stroke="midnightblue" points="152.29,-110.27 162.74,-108.53 153.48,-103.38 152.29,-110.27"/>
</g>
<!-- Node4 -->
<g id="node4" class="node">
<title>Node4</title>
<g id="a_node4"><a xlink:href="namespaceargo_1_1data__distribution_a1bb3f2dcecd237990e6dc67764f06860.html#a1bb3f2dcecd237990e6dc67764f06860" target="_top" xlink:title="identifies if we distribute data using a cyclic memory policy">
<polygon fill="white" stroke="black" points="163.5,-49.5 163.5,-79.5 290.5,-79.5 290.5,-49.5 163.5,-49.5"/>
<text text-anchor="start" x="171.5" y="-67.5" font-family="Helvetica,sans-Serif" font-size="10.00">argo::data_distribution</text>
<text text-anchor="middle" x="227" y="-56.5" font-family="Helvetica,sans-Serif" font-size="10.00">::is_cyclic_policy</text>
</a>
</g>
</g>
<!-- Node1&#45;&gt;Node4 -->
<g id="edge3" class="edge">
<title>Node1&#45;&gt;Node4</title>
<path fill="none" stroke="midnightblue" d="M127.4,-80.98C135.87,-79.57 144.61,-78.11 153.23,-76.67"/>
<polygon fill="midnightblue" stroke="midnightblue" points="153.98,-80.09 163.27,-74.99 152.83,-73.18 153.98,-80.09"/>
</g>
<!-- Node6 -->
<g id="node6" class="node">
<title>Node6</title>
<g id="a_node6"><a xlink:href="namespaceargo_1_1data__distribution_a58576657391f45caf61bf0748a23b098.html#a58576657391f45caf61bf0748a23b098" target="_top" xlink:title="identifies if we distribute data using the first&#45;touch memory policy">
<polygon fill="white" stroke="black" points="163.5,-0.5 163.5,-30.5 290.5,-30.5 290.5,-0.5 163.5,-0.5"/>
<text text-anchor="start" x="171.5" y="-18.5" font-family="Helvetica,sans-Serif" font-size="10.00">argo::data_distribution</text>
<text text-anchor="middle" x="227" y="-7.5" font-family="Helvetica,sans-Serif" font-size="10.00">::is_first_touch_policy</text>
</a>
</g>
</g>
<!-- Node1&#45;&gt;Node6 -->
<g id="edge5" class="edge">
<title>Node1&#45;&gt;Node6</title>
<path fill="none" stroke="midnightblue" d="M91.73,-76.46C111.31,-65.89 138.47,-51.68 163,-40.5 167.45,-38.47 172.12,-36.44 176.81,-34.47"/>
<polygon fill="midnightblue" stroke="midnightblue" points="178.51,-37.55 186.42,-30.5 175.85,-31.08 178.51,-37.55"/>
</g>
<!-- Node5 -->
<g id="node5" class="node">
<title>Node5</title>
<g id="a_node5"><a xlink:href="namespaceargo_1_1env_a25a08cb2d0d11432d640ec7173063339.html#a25a08cb2d0d11432d640ec7173063339" target="_top" xlink:title="get the allocation policy requested by environment variable">
<polygon fill="white" stroke="black" points="327,-24.5 327,-54.5 443,-54.5 443,-24.5 327,-24.5"/>
<text text-anchor="start" x="335" y="-42.5" font-family="Helvetica,sans-Serif" font-size="10.00">argo::env::allocation</text>
<text text-anchor="middle" x="385" y="-31.5" font-family="Helvetica,sans-Serif" font-size="10.00">_policy</text>
</a>
</g>
</g>
<!-- Node4&#45;&gt;Node5 -->
<g id="edge4" class="edge">
<title>Node4&#45;&gt;Node5</title>
<path fill="none" stroke="midnightblue" d="M290.55,-54.48C299.2,-53.09 308.12,-51.66 316.85,-50.26"/>
<polygon fill="midnightblue" stroke="midnightblue" points="317.67,-53.68 326.99,-48.64 316.56,-46.76 317.67,-53.68"/>
</g>
<!-- Node6&#45;&gt;Node5 -->
<g id="edge6" class="edge">
<title>Node6&#45;&gt;Node5</title>
<path fill="none" stroke="midnightblue" d="M290.55,-25.12C299.2,-26.45 308.12,-27.83 316.85,-29.17"/>
<polygon fill="midnightblue" stroke="midnightblue" points="316.57,-32.67 326.99,-30.73 317.64,-25.75 316.57,-32.67"/>
</g>
</g>
</svg>
