<?xml version="1.0" encoding="UTF-8" standalone="no"?>
<!DOCTYPE svg PUBLIC "-//W3C//DTD SVG 1.1//EN"
 "http://www.w3.org/Graphics/SVG/1.1/DTD/svg11.dtd">
<!-- Generated by graphviz version 2.43.0 (0)
 -->
<!-- Title: TEST_F Pages: 1 -->
<!--zoomable 208 -->
<svg id="main" version="1.1" xmlns="http://www.w3.org/2000/svg" xmlns:xlink="http://www.w3.org/1999/xlink" xml:space="preserve" onload="init(evt)">
<style type="text/css"><![CDATA[
.edge:hover path { stroke: red; }
.edge:hover polygon { stroke: red; fill: red; }
]]></style>
<script type="text/javascript"><![CDATA[
var edges = document.getElementsByTagName('g');
if (edges && edges.length) {
  for (var i=0;i<edges.length;i++) {
    if (edges[i].id.substr(0,4)=='edge') {
      edges[i].setAttribute('class','edge');
    }
  }
}
]]></script>
        <defs>
                <circle id="rim" cx="0" cy="0" r="7"/>
                <circle id="rim2" cx="0" cy="0" r="3.5"/>
                <g id="zoomPlus">
                        <use xlink:href="#rim" fill="#404040">
                                <set attributeName="fill" to="#808080" begin="zoomplus.mouseover" end="zoomplus.mouseout"/>
                        </use>
                        <path d="M-4,0h8M0,-4v8" fill="none" stroke="white" stroke-width="1.5" pointer-events="none"/>
                </g>
                <g id="zoomMin">
                        <use xlink:href="#rim" fill="#404040">
                                <set attributeName="fill" to="#808080" begin="zoomminus.mouseover" end="zoomminus.mouseout"/>
                        </use>
                        <path d="M-4,0h8" fill="none" stroke="white" stroke-width="1.5" pointer-events="none"/>
                </g>
                <g id="dirArrow">
                        <path fill="none" stroke="white" stroke-width="1.5" d="M0,-3.0v7 M-2.5,-0.5L0,-3.0L2.5,-0.5"/>
                </g>
               <g id="resetDef">
                       <use xlink:href="#rim2" fill="#404040">
                               <set attributeName="fill" to="#808080" begin="reset.mouseover" end="reset.mouseout"/>
                       </use>
               </g>
        </defs>

<script type="text/javascript">
var viewWidth = 695;
var viewHeight = 208;
var sectionId = 'dynsection-0';
</script>
<script xlink:href="svgpan.js"/>
<svg id="graph" class="graph">
<g id="viewport">
<title>TEST_F</title>
<polygon fill="white" stroke="transparent" points="-4,4 -4,-204 691,-204 691,4 -4,4"/>
<!-- Node1 -->
<g id="node1" class="node">
<title>Node1</title>
<g id="a_node1"><a xlink:title="Unittest that checks that there is no error when accessing the last byte of the allocation.">
<polygon fill="#bfbfbf" stroke="black" points="0,-63 0,-82 52,-82 52,-63 0,-63"/>
<text text-anchor="middle" x="26" y="-70" font-family="Helvetica,sans-Serif" font-size="10.00">TEST_F</text>
</a>
</g>
</g>
<!-- Node2 -->
<g id="node2" class="node">
<title>Node2</title>
<g id="a_node2"><a xlink:href="classargo_1_1mempools_1_1global__memory__pool_ac37f5714010e1f4b482e6c6a8a246c05.html#ac37f5714010e1f4b482e6c6a8a246c05" target="_top" xlink:title="check remaining available memory in pool">
<polygon fill="white" stroke="black" points="88,-120.5 88,-150.5 228,-150.5 228,-120.5 88,-120.5"/>
<text text-anchor="start" x="96" y="-138.5" font-family="Helvetica,sans-Serif" font-size="10.00">argo::mempools::global</text>
<text text-anchor="middle" x="158" y="-127.5" font-family="Helvetica,sans-Serif" font-size="10.00">_memory_pool::available</text>
</a>
</g>
</g>
<!-- Node1&#45;&gt;Node2 -->
<g id="edge1" class="edge">
<title>Node1&#45;&gt;Node2</title>
<path fill="none" stroke="midnightblue" d="M43.89,-82.14C56.02,-88.94 72.84,-98.12 88,-105.5 95.43,-109.12 103.4,-112.78 111.2,-116.24"/>
<polygon fill="midnightblue" stroke="midnightblue" points="110,-119.54 120.57,-120.35 112.81,-113.13 110,-119.54"/>
</g>
<!-- Node5 -->
<g id="node5" class="node">
<title>Node5</title>
<g id="a_node5"><a xlink:href="namespaceargo_a188a4648d6e7549bcef4cee36dcb5336.html#a188a4648d6e7549bcef4cee36dcb5336" target="_top" xlink:title="A unique ArgoDSM node identifier. Counting starts from 0.">
<polygon fill="white" stroke="black" points="604,-126 604,-145 687,-145 687,-126 604,-126"/>
<text text-anchor="middle" x="645.5" y="-133" font-family="Helvetica,sans-Serif" font-size="10.00">argo::node_id</text>
</a>
</g>
</g>
<!-- Node1&#45;&gt;Node5 -->
<g id="edge11" class="edge">
<title>Node1&#45;&gt;Node5</title>
<path fill="none" stroke="midnightblue" d="M52.24,-73.54C145.02,-77.49 467.05,-92.3 568,-111.5 581.95,-114.15 596.93,-118.5 609.9,-122.77"/>
<polygon fill="midnightblue" stroke="midnightblue" points="608.78,-126.09 619.38,-126 611.04,-119.46 608.78,-126.09"/>
</g>
<!-- Node7 -->
<g id="node7" class="node">
<title>Node7</title>
<g id="a_node7"><a xlink:href="namespaceargo_a10bae1e1e60ff583384b937201a87c29.html#a10bae1e1e60ff583384b937201a87c29" target="_top" xlink:title="a barrier for ArgoDSM nodes">
<polygon fill="white" stroke="black" points="119.5,-44 119.5,-63 196.5,-63 196.5,-44 119.5,-44"/>
<text text-anchor="middle" x="158" y="-51" font-family="Helvetica,sans-Serif" font-size="10.00">argo::barrier</text>
</a>
</g>
</g>
<!-- Node1&#45;&gt;Node7 -->
<g id="edge7" class="edge">
<title>Node1&#45;&gt;Node7</title>
<path fill="none" stroke="midnightblue" d="M52.07,-68.84C68.34,-66.46 90.06,-63.28 109.52,-60.44"/>
<polygon fill="midnightblue" stroke="midnightblue" points="110.06,-63.9 119.45,-58.99 109.05,-56.97 110.06,-63.9"/>
</g>
<!-- Node8 -->
<g id="node8" class="node">
<title>Node8</title>
<g id="a_node8"><a xlink:href="src_2allocators_2allocators_8cpp_a4e8d23563c42daa5dfce669293d7e389.html#a4e8d23563c42daa5dfce669293d7e389" target="_top" xlink:title="basic collective allocation function, for C interface">
<polygon fill="white" stroke="black" points="112,-6 112,-25 204,-25 204,-6 112,-6"/>
<text text-anchor="middle" x="158" y="-13" font-family="Helvetica,sans-Serif" font-size="10.00">collective_alloc</text>
</a>
</g>
</g>
<!-- Node1&#45;&gt;Node8 -->
<g id="edge8" class="edge">
<title>Node1&#45;&gt;Node8</title>
<path fill="none" stroke="midnightblue" d="M39.95,-62.88C51.9,-54.4 70.4,-42.21 88,-34.5 93.4,-32.14 99.16,-30 104.97,-28.08"/>
<polygon fill="midnightblue" stroke="midnightblue" points="106.21,-31.36 114.73,-25.06 104.15,-24.67 106.21,-31.36"/>
</g>
<!-- Node3 -->
<g id="node3" class="node">
<title>Node3</title>
<g id="a_node3"><a xlink:href="classargo_1_1globallock_1_1global__tas__lock_ae1a2cc75c9371ed191ac68f4e72f227e.html#ae1a2cc75c9371ed191ac68f4e72f227e" target="_top" xlink:title="take the lock">
<polygon fill="white" stroke="black" points="265.5,-166.5 265.5,-196.5 396.5,-196.5 396.5,-166.5 265.5,-166.5"/>
<text text-anchor="start" x="273.5" y="-184.5" font-family="Helvetica,sans-Serif" font-size="10.00">argo::globallock::global</text>
<text text-anchor="middle" x="331" y="-173.5" font-family="Helvetica,sans-Serif" font-size="10.00">_tas_lock::lock</text>
</a>
</g>
</g>
<!-- Node2&#45;&gt;Node3 -->
<g id="edge2" class="edge">
<title>Node2&#45;&gt;Node3</title>
<path fill="none" stroke="midnightblue" d="M214.99,-150.56C230.72,-154.79 247.97,-159.43 264.21,-163.8"/>
<polygon fill="midnightblue" stroke="midnightblue" points="263.61,-167.26 274.17,-166.48 265.43,-160.51 263.61,-167.26"/>
</g>
<!-- Node6 -->
<g id="node6" class="node">
<title>Node6</title>
<g id="a_node6"><a xlink:href="classargo_1_1globallock_1_1global__tas__lock_a55bd610c8555b8d986541c3f669789a2.html#a55bd610c8555b8d986541c3f669789a2" target="_top" xlink:title="release the lock">
<polygon fill="white" stroke="black" points="435.5,-120.5 435.5,-150.5 566.5,-150.5 566.5,-120.5 435.5,-120.5"/>
<text text-anchor="start" x="443.5" y="-138.5" font-family="Helvetica,sans-Serif" font-size="10.00">argo::globallock::global</text>
<text text-anchor="middle" x="501" y="-127.5" font-family="Helvetica,sans-Serif" font-size="10.00">_tas_lock::unlock</text>
</a>
</g>
</g>
<!-- Node2&#45;&gt;Node6 -->
<g id="edge5" class="edge">
<title>Node2&#45;&gt;Node6</title>
<path fill="none" stroke="midnightblue" d="M228.01,-135.5C285.19,-135.5 366.33,-135.5 425.09,-135.5"/>
<polygon fill="midnightblue" stroke="midnightblue" points="425.43,-139 435.43,-135.5 425.43,-132 425.43,-139"/>
</g>
<!-- Node4 -->
<g id="node4" class="node">
<title>Node4</title>
<g id="a_node4"><a xlink:href="classargo_1_1globallock_1_1global__tas__lock_a89bbe556d8a271dd64d65b421993da00.html#a89bbe556d8a271dd64d65b421993da00" target="_top" xlink:title="try to lock">
<polygon fill="white" stroke="black" points="435.5,-169.5 435.5,-199.5 566.5,-199.5 566.5,-169.5 435.5,-169.5"/>
<text text-anchor="start" x="443.5" y="-187.5" font-family="Helvetica,sans-Serif" font-size="10.00">argo::globallock::global</text>
<text text-anchor="middle" x="501" y="-176.5" font-family="Helvetica,sans-Serif" font-size="10.00">_tas_lock::try_lock</text>
</a>
</g>
</g>
<!-- Node3&#45;&gt;Node4 -->
<g id="edge3" class="edge">
<title>Node3&#45;&gt;Node4</title>
<path fill="none" stroke="midnightblue" d="M396.95,-182.66C406.24,-182.83 415.86,-183 425.32,-183.17"/>
<polygon fill="midnightblue" stroke="midnightblue" points="425.44,-186.67 435.5,-183.35 425.56,-179.67 425.44,-186.67"/>
</g>
<!-- Node4&#45;&gt;Node5 -->
<g id="edge4" class="edge">
<title>Node4&#45;&gt;Node5</title>
<path fill="none" stroke="midnightblue" d="M545.92,-169.4C565.47,-162.68 588.25,-154.84 606.99,-148.4"/>
<polygon fill="midnightblue" stroke="midnightblue" points="608.33,-151.64 616.65,-145.08 606.06,-145.02 608.33,-151.64"/>
</g>
<!-- Node6&#45;&gt;Node5 -->
<g id="edge6" class="edge">
<title>Node6&#45;&gt;Node5</title>
<path fill="none" stroke="midnightblue" d="M566.58,-135.5C575.68,-135.5 584.93,-135.5 593.73,-135.5"/>
<polygon fill="midnightblue" stroke="midnightblue" points="593.81,-139 603.81,-135.5 593.81,-132 593.81,-139"/>
</g>
<!-- Node9 -->
<g id="node9" class="node">
<title>Node9</title>
<g id="a_node9"><a xlink:href="classargo_1_1allocators_1_1generic__allocator_ae0df0734076478aeaeb689cdb902497a.html#ae0df0734076478aeaeb689cdb902497a" target="_top" xlink:title="Allocate memory.">
<polygon fill="white" stroke="black" points="264,-0.5 264,-30.5 398,-30.5 398,-0.5 264,-0.5"/>
<text text-anchor="start" x="272" y="-18.5" font-family="Helvetica,sans-Serif" font-size="10.00">argo::allocators::generic</text>
<text text-anchor="middle" x="331" y="-7.5" font-family="Helvetica,sans-Serif" font-size="10.00">_allocator::allocate</text>
</a>
</g>
</g>
<!-- Node8&#45;&gt;Node9 -->
<g id="edge9" class="edge">
<title>Node8&#45;&gt;Node9</title>
<path fill="none" stroke="midnightblue" d="M204.38,-15.5C219.45,-15.5 236.68,-15.5 253.45,-15.5"/>
<polygon fill="midnightblue" stroke="midnightblue" points="253.8,-19 263.8,-15.5 253.8,-12 253.8,-19"/>
</g>
<!-- Node10 -->
<g id="node10" class="node">
<title>Node10</title>
<g id="a_node10"><a xlink:href="classargo_1_1allocators_1_1generic__allocator_a3a6c4c5d83d679ce7fbfe1a50f323545.html#a3a6c4c5d83d679ce7fbfe1a50f323545" target="_top" xlink:title="helper function to align a number up to the next alignment">
<polygon fill="white" stroke="black" points="434,-0.5 434,-30.5 568,-30.5 568,-0.5 434,-0.5"/>
<text text-anchor="start" x="442" y="-18.5" font-family="Helvetica,sans-Serif" font-size="10.00">argo::allocators::generic</text>
<text text-anchor="middle" x="501" y="-7.5" font-family="Helvetica,sans-Serif" font-size="10.00">_allocator::align_up</text>
</a>
</g>
</g>
<!-- Node9&#45;&gt;Node10 -->
<g id="edge10" class="edge">
<title>Node9&#45;&gt;Node10</title>
<path fill="none" stroke="midnightblue" d="M398.4,-15.5C406.68,-15.5 415.2,-15.5 423.62,-15.5"/>
<polygon fill="midnightblue" stroke="midnightblue" points="423.81,-19 433.81,-15.5 423.81,-12 423.81,-19"/>
</g>
</g>
</svg>
        <g id="navigator" transform="translate(0 0)" fill="#404254">
                <rect fill="#f2f5e9" fill-opacity="0.5" stroke="#606060" stroke-width=".5" x="0" y="0" width="60" height="60"/>
                <use id="zoomplus" xlink:href="#zoomPlus" x="17" y="9" onmousedown="handleZoom(evt,'in')"/>
                <use id="zoomminus" xlink:href="#zoomMin" x="42" y="9" onmousedown="handleZoom(evt,'out')"/>
                <use id="reset" xlink:href="#resetDef" x="30" y="36" onmousedown="handleReset()"/>
                <g id="arrowUp" xlink:href="#dirArrow" transform="translate(30 24)" onmousedown="handlePan(0,-1)">
                  <use xlink:href="#rim" fill="#404040">
                        <set attributeName="fill" to="#808080" begin="arrowUp.mouseover" end="arrowUp.mouseout"/>
                  </use>
                  <path fill="none" stroke="white" stroke-width="1.5" d="M0,-3.0v7 M-2.5,-0.5L0,-3.0L2.5,-0.5"/>
                </g>
                <g id="arrowRight" xlink:href="#dirArrow" transform="rotate(90) translate(36 -43)" onmousedown="handlePan(1,0)">
                  <use xlink:href="#rim" fill="#404040">
                        <set attributeName="fill" to="#808080" begin="arrowRight.mouseover" end="arrowRight.mouseout"/>
                  </use>
                  <path fill="none" stroke="white" stroke-width="1.5" d="M0,-3.0v7 M-2.5,-0.5L0,-3.0L2.5,-0.5"/>
                </g>
                <g id="arrowDown" xlink:href="#dirArrow" transform="rotate(180) translate(-30 -48)" onmousedown="handlePan(0,1)">
                  <use xlink:href="#rim" fill="#404040">
                        <set attributeName="fill" to="#808080" begin="arrowDown.mouseover" end="arrowDown.mouseout"/>
                  </use>
                  <path fill="none" stroke="white" stroke-width="1.5" d="M0,-3.0v7 M-2.5,-0.5L0,-3.0L2.5,-0.5"/>
                </g>
                <g id="arrowLeft" xlink:href="#dirArrow" transform="rotate(270) translate(-36 17)" onmousedown="handlePan(-1,0)">
                  <use xlink:href="#rim" fill="#404040">
                        <set attributeName="fill" to="#808080" begin="arrowLeft.mouseover" end="arrowLeft.mouseout"/>
                  </use>
                  <path fill="none" stroke="white" stroke-width="1.5" d="M0,-3.0v7 M-2.5,-0.5L0,-3.0L2.5,-0.5"/>
                </g>
        </g>
        <svg viewBox="0 0 15 15" width="100%" height="30px" preserveAspectRatio="xMaxYMin meet">
         <g id="arrow_out" transform="scale(0.3 0.3)">
          <a xlink:href="prefetch_8cpp_a15db5a6137e8127b200edca8164e4a48_a15db5a6137e8127b200edca8164e4a48_cgraph_org.svg" target="_base">
           <rect id="button" ry="5" rx="5" y="6" x="6" height="38" width="38"
                fill="#f2f5e9" fill-opacity="0.5" stroke="#606060" stroke-width="1.0"/>
           <path id="arrow"
             d="M 11.500037,31.436501 C 11.940474,20.09759 22.043105,11.32322 32.158766,21.979434 L 37.068811,17.246167 C 37.068811,17.246167 37.088388,32 37.088388,32 L 22.160133,31.978069 C 22.160133,31.978069 26.997745,27.140456 26.997745,27.140456 C 18.528582,18.264221 13.291696,25.230495 11.500037,31.436501 z"
             style="fill:#404040;"/>
          </a>
         </g>
        </svg>
</svg>
