<?xml version="1.0" encoding="UTF-8" standalone="no"?>
<!DOCTYPE svg PUBLIC "-//W3C//DTD SVG 1.1//EN"
 "http://www.w3.org/Graphics/SVG/1.1/DTD/svg11.dtd">
<!-- Generated by graphviz version 2.43.0 (0)
 -->
<!-- Title: TEST_F Pages: 1 -->
<!--zoomable 291 -->
<svg id="main" version="1.1" xmlns="http://www.w3.org/2000/svg" xmlns:xlink="http://www.w3.org/1999/xlink" xml:space="preserve" onload="init(evt)">
<style type="text/css"><![CDATA[
.edge:hover path { stroke: red; }
.edge:hover polygon { stroke: red; fill: red; }
]]></style>
<script type="text/javascript"><![CDATA[
var edges = document.getElementsByTagName('g');
if (edges && edges.length) {
  for (var i=0;i<edges.length;i++) {
    if (edges[i].id.substr(0,4)=='edge') {
      edges[i].setAttribute('class','edge');
    }
  }
}
]]></script>
        <defs>
                <circle id="rim" cx="0" cy="0" r="7"/>
                <circle id="rim2" cx="0" cy="0" r="3.5"/>
                <g id="zoomPlus">
                        <use xlink:href="#rim" fill="#404040">
                                <set attributeName="fill" to="#808080" begin="zoomplus.mouseover" end="zoomplus.mouseout"/>
                        </use>
                        <path d="M-4,0h8M0,-4v8" fill="none" stroke="white" stroke-width="1.5" pointer-events="none"/>
                </g>
                <g id="zoomMin">
                        <use xlink:href="#rim" fill="#404040">
                                <set attributeName="fill" to="#808080" begin="zoomminus.mouseover" end="zoomminus.mouseout"/>
                        </use>
                        <path d="M-4,0h8" fill="none" stroke="white" stroke-width="1.5" pointer-events="none"/>
                </g>
                <g id="dirArrow">
                        <path fill="none" stroke="white" stroke-width="1.5" d="M0,-3.0v7 M-2.5,-0.5L0,-3.0L2.5,-0.5"/>
                </g>
               <g id="resetDef">
                       <use xlink:href="#rim2" fill="#404040">
                               <set attributeName="fill" to="#808080" begin="reset.mouseover" end="reset.mouseout"/>
                       </use>
               </g>
        </defs>

<script type="text/javascript">
var viewWidth = 695;
var viewHeight = 291;
var sectionId = 'dynsection-0';
</script>
<script xlink:href="svgpan.js"/>
<svg id="graph" class="graph">
<g id="viewport">
<title>TEST_F</title>
<polygon fill="white" stroke="transparent" points="-4,4 -4,-286.5 691,-286.5 691,4 -4,4"/>
<!-- Node1 -->
<g id="node1" class="node">
<title>Node1</title>
<g id="a_node1"><a xlink:title="Unittest that checks that pages are correctly prefetched.">
<polygon fill="#bfbfbf" stroke="black" points="0,-126.5 0,-145.5 52,-145.5 52,-126.5 0,-126.5"/>
<text text-anchor="middle" x="26" y="-133.5" font-family="Helvetica,sans-Serif" font-size="10.00">TEST_F</text>
</a>
</g>
</g>
<!-- Node2 -->
<g id="node2" class="node">
<title>Node2</title>
<g id="a_node2"><a xlink:href="namespaceargo_1_1env_a30775a9aa41b956df7474a2c0cc317aa.html#a30775a9aa41b956df7474a2c0cc317aa" target="_top" xlink:title="get the allocation block size requested by environment variable">
<polygon fill="white" stroke="black" points="100,-252 100,-282 216,-282 216,-252 100,-252"/>
<text text-anchor="start" x="108" y="-270" font-family="Helvetica,sans-Serif" font-size="10.00">argo::env::allocation</text>
<text text-anchor="middle" x="158" y="-259" font-family="Helvetica,sans-Serif" font-size="10.00">_block_size</text>
</a>
</g>
</g>
<!-- Node1&#45;&gt;Node2 -->
<g id="edge1" class="edge">
<title>Node1&#45;&gt;Node2</title>
<path fill="none" stroke="midnightblue" d="M29.86,-145.51C36.57,-166.23 55.28,-215.79 88,-243 89.54,-244.28 91.14,-245.49 92.81,-246.64"/>
<polygon fill="midnightblue" stroke="midnightblue" points="91.17,-249.73 101.55,-251.87 94.77,-243.73 91.17,-249.73"/>
</g>
<!-- Node3 -->
<g id="node3" class="node">
<title>Node3</title>
<g id="a_node3"><a xlink:href="classargo_1_1mempools_1_1global__memory__pool_ac37f5714010e1f4b482e6c6a8a246c05.html#ac37f5714010e1f4b482e6c6a8a246c05" target="_top" xlink:title="check remaining available memory in pool">
<polygon fill="white" stroke="black" points="88,-203 88,-233 228,-233 228,-203 88,-203"/>
<text text-anchor="start" x="96" y="-221" font-family="Helvetica,sans-Serif" font-size="10.00">argo::mempools::global</text>
<text text-anchor="middle" x="158" y="-210" font-family="Helvetica,sans-Serif" font-size="10.00">_memory_pool::available</text>
</a>
</g>
</g>
<!-- Node1&#45;&gt;Node3 -->
<g id="edge2" class="edge">
<title>Node1&#45;&gt;Node3</title>
<path fill="none" stroke="midnightblue" d="M36.64,-145.82C48.09,-157.09 68.17,-175.62 88,-188 94.17,-191.85 100.92,-195.45 107.71,-198.72"/>
<polygon fill="midnightblue" stroke="midnightblue" points="106.39,-201.96 116.93,-202.96 109.32,-195.6 106.39,-201.96"/>
</g>
<!-- Node6 -->
<g id="node6" class="node">
<title>Node6</title>
<g id="a_node6"><a xlink:href="namespaceargo_a188a4648d6e7549bcef4cee36dcb5336.html#a188a4648d6e7549bcef4cee36dcb5336" target="_top" xlink:title="A unique ArgoDSM node identifier. Counting starts from 0.">
<polygon fill="white" stroke="black" points="604,-208.5 604,-227.5 687,-227.5 687,-208.5 604,-208.5"/>
<text text-anchor="middle" x="645.5" y="-215.5" font-family="Helvetica,sans-Serif" font-size="10.00">argo::node_id</text>
</a>
</g>
</g>
<!-- Node1&#45;&gt;Node6 -->
<g id="edge14" class="edge">
<title>Node1&#45;&gt;Node6</title>
<path fill="none" stroke="midnightblue" d="M52.2,-145.22C63.07,-148.84 76.02,-152.68 88,-155 298.12,-195.74 357.92,-153.04 568,-194 581.69,-196.67 596.39,-200.93 609.2,-205.12"/>
<polygon fill="midnightblue" stroke="midnightblue" points="608.43,-208.55 619.02,-208.44 610.67,-201.92 608.43,-208.55"/>
</g>
<!-- Node8 -->
<g id="node8" class="node">
<title>Node8</title>
<g id="a_node8"><a xlink:href="namespaceargo_a10bae1e1e60ff583384b937201a87c29.html#a10bae1e1e60ff583384b937201a87c29" target="_top" xlink:title="a barrier for ArgoDSM nodes">
<polygon fill="white" stroke="black" points="119.5,-126.5 119.5,-145.5 196.5,-145.5 196.5,-126.5 119.5,-126.5"/>
<text text-anchor="middle" x="158" y="-133.5" font-family="Helvetica,sans-Serif" font-size="10.00">argo::barrier</text>
</a>
</g>
</g>
<!-- Node1&#45;&gt;Node8 -->
<g id="edge8" class="edge">
<title>Node1&#45;&gt;Node8</title>
<path fill="none" stroke="midnightblue" d="M52.07,-136C68.26,-136 89.86,-136 109.26,-136"/>
<polygon fill="midnightblue" stroke="midnightblue" points="109.45,-139.5 119.45,-136 109.45,-132.5 109.45,-139.5"/>
</g>
<!-- Node9 -->
<g id="node9" class="node">
<title>Node9</title>
<g id="a_node9"><a xlink:href="src_2allocators_2allocators_8cpp_a4e8d23563c42daa5dfce669293d7e389.html#a4e8d23563c42daa5dfce669293d7e389" target="_top" xlink:title="basic collective allocation function, for C interface">
<polygon fill="white" stroke="black" points="112,-88.5 112,-107.5 204,-107.5 204,-88.5 112,-88.5"/>
<text text-anchor="middle" x="158" y="-95.5" font-family="Helvetica,sans-Serif" font-size="10.00">collective_alloc</text>
</a>
</g>
</g>
<!-- Node1&#45;&gt;Node9 -->
<g id="edge9" class="edge">
<title>Node1&#45;&gt;Node9</title>
<path fill="none" stroke="midnightblue" d="M52.17,-127.95C63.15,-124.5 76.19,-120.47 88,-117 95.63,-114.76 103.75,-112.46 111.65,-110.26"/>
<polygon fill="midnightblue" stroke="midnightblue" points="112.77,-113.58 121.48,-107.54 110.91,-106.83 112.77,-113.58"/>
</g>
<!-- Node12 -->
<g id="node12" class="node">
<title>Node12</title>
<g id="a_node12"><a xlink:href="namespaceargo_1_1data__distribution_a1bb3f2dcecd237990e6dc67764f06860.html#a1bb3f2dcecd237990e6dc67764f06860" target="_top" xlink:title="identifies if we distribute data using a cyclic memory policy">
<polygon fill="white" stroke="black" points="94.5,-39 94.5,-69 221.5,-69 221.5,-39 94.5,-39"/>
<text text-anchor="start" x="102.5" y="-57" font-family="Helvetica,sans-Serif" font-size="10.00">argo::data_distribution</text>
<text text-anchor="middle" x="158" y="-46" font-family="Helvetica,sans-Serif" font-size="10.00">::is_cyclic_policy</text>
</a>
</g>
</g>
<!-- Node1&#45;&gt;Node12 -->
<g id="edge12" class="edge">
<title>Node1&#45;&gt;Node12</title>
<path fill="none" stroke="midnightblue" d="M35.15,-126.26C46.04,-113.77 66.49,-92.17 88,-79 91.33,-76.96 94.85,-75.05 98.46,-73.27"/>
<polygon fill="midnightblue" stroke="midnightblue" points="99.95,-76.44 107.6,-69.11 97.05,-70.07 99.95,-76.44"/>
</g>
<!-- Node14 -->
<g id="node14" class="node">
<title>Node14</title>
<g id="a_node14"><a xlink:href="namespaceargo_a7839b1673e9af449cad0e94dce253721.html#a7839b1673e9af449cad0e94dce253721" target="_top" xlink:title="Number of ArgoDSM nodes being run.">
<polygon fill="white" stroke="black" points="92.5,-0.5 92.5,-19.5 223.5,-19.5 223.5,-0.5 92.5,-0.5"/>
<text text-anchor="middle" x="158" y="-7.5" font-family="Helvetica,sans-Serif" font-size="10.00">argo::number_of_nodes</text>
</a>
</g>
</g>
<!-- Node1&#45;&gt;Node14 -->
<g id="edge15" class="edge">
<title>Node1&#45;&gt;Node14</title>
<path fill="none" stroke="midnightblue" d="M29.73,-126.33C36.18,-105.28 54.4,-55.11 88,-29 90.35,-27.18 92.85,-25.53 95.48,-24.04"/>
<polygon fill="midnightblue" stroke="midnightblue" points="97.27,-27.06 104.75,-19.56 94.22,-20.76 97.27,-27.06"/>
</g>
<!-- Node4 -->
<g id="node4" class="node">
<title>Node4</title>
<g id="a_node4"><a xlink:href="classargo_1_1globallock_1_1global__tas__lock_ae1a2cc75c9371ed191ac68f4e72f227e.html#ae1a2cc75c9371ed191ac68f4e72f227e" target="_top" xlink:title="take the lock">
<polygon fill="white" stroke="black" points="265.5,-250 265.5,-280 396.5,-280 396.5,-250 265.5,-250"/>
<text text-anchor="start" x="273.5" y="-268" font-family="Helvetica,sans-Serif" font-size="10.00">argo::globallock::global</text>
<text text-anchor="middle" x="331" y="-257" font-family="Helvetica,sans-Serif" font-size="10.00">_tas_lock::lock</text>
</a>
</g>
</g>
<!-- Node3&#45;&gt;Node4 -->
<g id="edge3" class="edge">
<title>Node3&#45;&gt;Node4</title>
<path fill="none" stroke="midnightblue" d="M213.58,-233C230.08,-237.54 248.36,-242.56 265.45,-247.26"/>
<polygon fill="midnightblue" stroke="midnightblue" points="264.79,-250.71 275.36,-249.98 266.64,-243.96 264.79,-250.71"/>
</g>
<!-- Node7 -->
<g id="node7" class="node">
<title>Node7</title>
<g id="a_node7"><a xlink:href="classargo_1_1globallock_1_1global__tas__lock_a55bd610c8555b8d986541c3f669789a2.html#a55bd610c8555b8d986541c3f669789a2" target="_top" xlink:title="release the lock">
<polygon fill="white" stroke="black" points="435.5,-203 435.5,-233 566.5,-233 566.5,-203 435.5,-203"/>
<text text-anchor="start" x="443.5" y="-221" font-family="Helvetica,sans-Serif" font-size="10.00">argo::globallock::global</text>
<text text-anchor="middle" x="501" y="-210" font-family="Helvetica,sans-Serif" font-size="10.00">_tas_lock::unlock</text>
</a>
</g>
</g>
<!-- Node3&#45;&gt;Node7 -->
<g id="edge6" class="edge">
<title>Node3&#45;&gt;Node7</title>
<path fill="none" stroke="midnightblue" d="M228.01,-218C285.19,-218 366.33,-218 425.09,-218"/>
<polygon fill="midnightblue" stroke="midnightblue" points="425.43,-221.5 435.43,-218 425.43,-214.5 425.43,-221.5"/>
</g>
<!-- Node5 -->
<g id="node5" class="node">
<title>Node5</title>
<g id="a_node5"><a xlink:href="classargo_1_1globallock_1_1global__tas__lock_a89bbe556d8a271dd64d65b421993da00.html#a89bbe556d8a271dd64d65b421993da00" target="_top" xlink:title="try to lock">
<polygon fill="white" stroke="black" points="435.5,-252 435.5,-282 566.5,-282 566.5,-252 435.5,-252"/>
<text text-anchor="start" x="443.5" y="-270" font-family="Helvetica,sans-Serif" font-size="10.00">argo::globallock::global</text>
<text text-anchor="middle" x="501" y="-259" font-family="Helvetica,sans-Serif" font-size="10.00">_tas_lock::try_lock</text>
</a>
</g>
</g>
<!-- Node4&#45;&gt;Node5 -->
<g id="edge4" class="edge">
<title>Node4&#45;&gt;Node5</title>
<path fill="none" stroke="midnightblue" d="M396.95,-265.77C406.24,-265.88 415.86,-266 425.32,-266.11"/>
<polygon fill="midnightblue" stroke="midnightblue" points="425.46,-269.61 435.5,-266.23 425.54,-262.61 425.46,-269.61"/>
</g>
<!-- Node5&#45;&gt;Node6 -->
<g id="edge5" class="edge">
<title>Node5&#45;&gt;Node6</title>
<path fill="none" stroke="midnightblue" d="M545.92,-251.9C565.47,-245.18 588.25,-237.34 606.99,-230.9"/>
<polygon fill="midnightblue" stroke="midnightblue" points="608.33,-234.14 616.65,-227.58 606.06,-227.52 608.33,-234.14"/>
</g>
<!-- Node7&#45;&gt;Node6 -->
<g id="edge7" class="edge">
<title>Node7&#45;&gt;Node6</title>
<path fill="none" stroke="midnightblue" d="M566.58,-218C575.68,-218 584.93,-218 593.73,-218"/>
<polygon fill="midnightblue" stroke="midnightblue" points="593.81,-221.5 603.81,-218 593.81,-214.5 593.81,-221.5"/>
</g>
<!-- Node10 -->
<g id="node10" class="node">
<title>Node10</title>
<g id="a_node10"><a xlink:href="classargo_1_1allocators_1_1generic__allocator_ae0df0734076478aeaeb689cdb902497a.html#ae0df0734076478aeaeb689cdb902497a" target="_top" xlink:title="Allocate memory.">
<polygon fill="white" stroke="black" points="264,-85 264,-115 398,-115 398,-85 264,-85"/>
<text text-anchor="start" x="272" y="-103" font-family="Helvetica,sans-Serif" font-size="10.00">argo::allocators::generic</text>
<text text-anchor="middle" x="331" y="-92" font-family="Helvetica,sans-Serif" font-size="10.00">_allocator::allocate</text>
</a>
</g>
</g>
<!-- Node9&#45;&gt;Node10 -->
<g id="edge10" class="edge">
<title>Node9&#45;&gt;Node10</title>
<path fill="none" stroke="midnightblue" d="M204.38,-98.53C219.45,-98.71 236.68,-98.91 253.45,-99.1"/>
<polygon fill="midnightblue" stroke="midnightblue" points="253.76,-102.61 263.8,-99.23 253.84,-95.61 253.76,-102.61"/>
</g>
<!-- Node11 -->
<g id="node11" class="node">
<title>Node11</title>
<g id="a_node11"><a xlink:href="classargo_1_1allocators_1_1generic__allocator_a3a6c4c5d83d679ce7fbfe1a50f323545.html#a3a6c4c5d83d679ce7fbfe1a50f323545" target="_top" xlink:title="helper function to align a number up to the next alignment">
<polygon fill="white" stroke="black" points="434,-85 434,-115 568,-115 568,-85 434,-85"/>
<text text-anchor="start" x="442" y="-103" font-family="Helvetica,sans-Serif" font-size="10.00">argo::allocators::generic</text>
<text text-anchor="middle" x="501" y="-92" font-family="Helvetica,sans-Serif" font-size="10.00">_allocator::align_up</text>
</a>
</g>
</g>
<!-- Node10&#45;&gt;Node11 -->
<g id="edge11" class="edge">
<title>Node10&#45;&gt;Node11</title>
<path fill="none" stroke="midnightblue" d="M398.4,-100C406.68,-100 415.2,-100 423.62,-100"/>
<polygon fill="midnightblue" stroke="midnightblue" points="423.81,-103.5 433.81,-100 423.81,-96.5 423.81,-103.5"/>
</g>
<!-- Node13 -->
<g id="node13" class="node">
<title>Node13</title>
<g id="a_node13"><a xlink:href="namespaceargo_1_1env_a25a08cb2d0d11432d640ec7173063339.html#a25a08cb2d0d11432d640ec7173063339" target="_top" xlink:title="get the allocation policy requested by environment variable">
<polygon fill="white" stroke="black" points="273,-36 273,-66 389,-66 389,-36 273,-36"/>
<text text-anchor="start" x="281" y="-54" font-family="Helvetica,sans-Serif" font-size="10.00">argo::env::allocation</text>
<text text-anchor="middle" x="331" y="-43" font-family="Helvetica,sans-Serif" font-size="10.00">_policy</text>
</a>
</g>
</g>
<!-- Node12&#45;&gt;Node13 -->
<g id="edge13" class="edge">
<title>Node12&#45;&gt;Node13</title>
<path fill="none" stroke="midnightblue" d="M221.7,-52.9C235.07,-52.67 249.24,-52.42 262.77,-52.18"/>
<polygon fill="midnightblue" stroke="midnightblue" points="263.03,-55.68 272.97,-52 262.91,-48.68 263.03,-55.68"/>
</g>
</g>
</svg>
        <g id="navigator" transform="translate(0 0)" fill="#404254">
                <rect fill="#f2f5e9" fill-opacity="0.5" stroke="#606060" stroke-width=".5" x="0" y="0" width="60" height="60"/>
                <use id="zoomplus" xlink:href="#zoomPlus" x="17" y="9" onmousedown="handleZoom(evt,'in')"/>
                <use id="zoomminus" xlink:href="#zoomMin" x="42" y="9" onmousedown="handleZoom(evt,'out')"/>
                <use id="reset" xlink:href="#resetDef" x="30" y="36" onmousedown="handleReset()"/>
                <g id="arrowUp" xlink:href="#dirArrow" transform="translate(30 24)" onmousedown="handlePan(0,-1)">
                  <use xlink:href="#rim" fill="#404040">
                        <set attributeName="fill" to="#808080" begin="arrowUp.mouseover" end="arrowUp.mouseout"/>
                  </use>
                  <path fill="none" stroke="white" stroke-width="1.5" d="M0,-3.0v7 M-2.5,-0.5L0,-3.0L2.5,-0.5"/>
                </g>
                <g id="arrowRight" xlink:href="#dirArrow" transform="rotate(90) translate(36 -43)" onmousedown="handlePan(1,0)">
                  <use xlink:href="#rim" fill="#404040">
                        <set attributeName="fill" to="#808080" begin="arrowRight.mouseover" end="arrowRight.mouseout"/>
                  </use>
                  <path fill="none" stroke="white" stroke-width="1.5" d="M0,-3.0v7 M-2.5,-0.5L0,-3.0L2.5,-0.5"/>
                </g>
                <g id="arrowDown" xlink:href="#dirArrow" transform="rotate(180) translate(-30 -48)" onmousedown="handlePan(0,1)">
                  <use xlink:href="#rim" fill="#404040">
                        <set attributeName="fill" to="#808080" begin="arrowDown.mouseover" end="arrowDown.mouseout"/>
                  </use>
                  <path fill="none" stroke="white" stroke-width="1.5" d="M0,-3.0v7 M-2.5,-0.5L0,-3.0L2.5,-0.5"/>
                </g>
                <g id="arrowLeft" xlink:href="#dirArrow" transform="rotate(270) translate(-36 17)" onmousedown="handlePan(-1,0)">
                  <use xlink:href="#rim" fill="#404040">
                        <set attributeName="fill" to="#808080" begin="arrowLeft.mouseover" end="arrowLeft.mouseout"/>
                  </use>
                  <path fill="none" stroke="white" stroke-width="1.5" d="M0,-3.0v7 M-2.5,-0.5L0,-3.0L2.5,-0.5"/>
                </g>
        </g>
        <svg viewBox="0 0 15 15" width="100%" height="30px" preserveAspectRatio="xMaxYMin meet">
         <g id="arrow_out" transform="scale(0.3 0.3)">
          <a xlink:href="prefetch_8cpp_abcc4a8d220c42b997dbb197dcc8c32b2_abcc4a8d220c42b997dbb197dcc8c32b2_cgraph_org.svg" target="_base">
           <rect id="button" ry="5" rx="5" y="6" x="6" height="38" width="38"
                fill="#f2f5e9" fill-opacity="0.5" stroke="#606060" stroke-width="1.0"/>
           <path id="arrow"
             d="M 11.500037,31.436501 C 11.940474,20.09759 22.043105,11.32322 32.158766,21.979434 L 37.068811,17.246167 C 37.068811,17.246167 37.088388,32 37.088388,32 L 22.160133,31.978069 C 22.160133,31.978069 26.997745,27.140456 26.997745,27.140456 C 18.528582,18.264221 13.291696,25.230495 11.500037,31.436501 z"
             style="fill:#404040;"/>
          </a>
         </g>
        </svg>
</svg>
