<?xml version="1.0" encoding="UTF-8" standalone="no"?>
<!DOCTYPE svg PUBLIC "-//W3C//DTD SVG 1.1//EN"
 "http://www.w3.org/Graphics/SVG/1.1/DTD/svg11.dtd">
<!-- Generated by graphviz version 2.43.0 (0)
 -->
<!-- Title: /home/projectcs&#45;2022/argodsmBuffer/argodsmPrefetching/src/virtual_memory/shm.cpp Pages: 1 -->
<svg width="1071pt" height="162pt"
 viewBox="0.00 0.00 1070.50 162.00" xmlns="http://www.w3.org/2000/svg" xmlns:xlink="http://www.w3.org/1999/xlink">
<g id="graph0" class="graph" transform="scale(1 1) rotate(0) translate(4 158)">
<title>/home/projectcs&#45;2022/argodsmBuffer/argodsmPrefetching/src/virtual_memory/shm.cpp</title>
<polygon fill="white" stroke="transparent" points="-4,4 -4,-158 1066.5,-158 1066.5,4 -4,4"/>
<!-- Node1 -->
<g id="node1" class="node">
<title>Node1</title>
<g id="a_node1"><a xlink:title="This file implements the virtual memory and virtual address handling.">
<polygon fill="#bfbfbf" stroke="black" points="432,-112.5 432,-153.5 625,-153.5 625,-112.5 432,-112.5"/>
<text text-anchor="start" x="440" y="-141.5" font-family="Helvetica,sans-Serif" font-size="10.00">/home/projectcs&#45;2022</text>
<text text-anchor="start" x="440" y="-130.5" font-family="Helvetica,sans-Serif" font-size="10.00">/argodsmBuffer/argodsmPrefetching</text>
<text text-anchor="middle" x="528.5" y="-119.5" font-family="Helvetica,sans-Serif" font-size="10.00">/src/virtual_memory/shm.cpp</text>
</a>
</g>
</g>
<!-- Node2 -->
<g id="node2" class="node">
<title>Node2</title>
<g id="a_node2"><a xlink:title=" ">
<polygon fill="white" stroke="#bfbfbf" points="0,-56.5 0,-75.5 47,-75.5 47,-56.5 0,-56.5"/>
<text text-anchor="middle" x="23.5" y="-63.5" font-family="Helvetica,sans-Serif" font-size="10.00">fcntl.h</text>
</a>
</g>
</g>
<!-- Node1&#45;&gt;Node2 -->
<g id="edge1" class="edge">
<title>Node1&#45;&gt;Node2</title>
<path fill="none" stroke="midnightblue" d="M431.58,-124.73C338.04,-116.74 192.41,-101.77 57.32,-75.88"/>
<polygon fill="midnightblue" stroke="midnightblue" points="57.68,-72.38 47.19,-73.91 56.34,-79.25 57.68,-72.38"/>
</g>
<!-- Node3 -->
<g id="node3" class="node">
<title>Node3</title>
<g id="a_node3"><a xlink:title=" ">
<polygon fill="white" stroke="#bfbfbf" points="65,-56.5 65,-75.5 142,-75.5 142,-56.5 65,-56.5"/>
<text text-anchor="middle" x="103.5" y="-63.5" font-family="Helvetica,sans-Serif" font-size="10.00">sys/mman.h</text>
</a>
</g>
</g>
<!-- Node1&#45;&gt;Node3 -->
<g id="edge2" class="edge">
<title>Node1&#45;&gt;Node3</title>
<path fill="none" stroke="midnightblue" d="M431.88,-118.68C358.08,-108.26 253.6,-93 152.35,-76.09"/>
<polygon fill="midnightblue" stroke="midnightblue" points="152.69,-72.6 142.25,-74.4 151.53,-79.5 152.69,-72.6"/>
</g>
<!-- Node4 -->
<g id="node4" class="node">
<title>Node4</title>
<g id="a_node4"><a xlink:title=" ">
<polygon fill="white" stroke="#bfbfbf" points="160.5,-56.5 160.5,-75.5 224.5,-75.5 224.5,-56.5 160.5,-56.5"/>
<text text-anchor="middle" x="192.5" y="-63.5" font-family="Helvetica,sans-Serif" font-size="10.00">sys/stat.h</text>
</a>
</g>
</g>
<!-- Node1&#45;&gt;Node4 -->
<g id="edge3" class="edge">
<title>Node1&#45;&gt;Node4</title>
<path fill="none" stroke="midnightblue" d="M431.73,-114.14C374.34,-103.41 300.2,-89.29 234.5,-76 234.4,-75.98 234.3,-75.96 234.2,-75.94"/>
<polygon fill="midnightblue" stroke="midnightblue" points="235.09,-72.55 224.59,-73.95 233.67,-79.4 235.09,-72.55"/>
</g>
<!-- Node5 -->
<g id="node5" class="node">
<title>Node5</title>
<g id="a_node5"><a xlink:title=" ">
<polygon fill="white" stroke="#bfbfbf" points="243,-56.5 243,-75.5 322,-75.5 322,-56.5 243,-56.5"/>
<text text-anchor="middle" x="282.5" y="-63.5" font-family="Helvetica,sans-Serif" font-size="10.00">sys/statvfs.h</text>
</a>
</g>
</g>
<!-- Node1&#45;&gt;Node5 -->
<g id="edge4" class="edge">
<title>Node1&#45;&gt;Node5</title>
<path fill="none" stroke="midnightblue" d="M454.69,-112.5C412.31,-101.3 360.61,-87.64 324.98,-78.22"/>
<polygon fill="midnightblue" stroke="midnightblue" points="325.49,-74.74 314.92,-75.57 323.7,-81.51 325.49,-74.74"/>
</g>
<!-- Node6 -->
<g id="node6" class="node">
<title>Node6</title>
<g id="a_node6"><a xlink:title=" ">
<polygon fill="white" stroke="#bfbfbf" points="340.5,-56.5 340.5,-75.5 412.5,-75.5 412.5,-56.5 340.5,-56.5"/>
<text text-anchor="middle" x="376.5" y="-63.5" font-family="Helvetica,sans-Serif" font-size="10.00">sys/types.h</text>
</a>
</g>
</g>
<!-- Node1&#45;&gt;Node6 -->
<g id="edge5" class="edge">
<title>Node1&#45;&gt;Node6</title>
<path fill="none" stroke="midnightblue" d="M482.89,-112.5C458.02,-101.86 427.95,-89 406.13,-79.67"/>
<polygon fill="midnightblue" stroke="midnightblue" points="407.3,-76.37 396.73,-75.65 404.55,-82.8 407.3,-76.37"/>
</g>
<!-- Node7 -->
<g id="node7" class="node">
<title>Node7</title>
<g id="a_node7"><a xlink:title=" ">
<polygon fill="white" stroke="#bfbfbf" points="430.5,-56.5 430.5,-75.5 486.5,-75.5 486.5,-56.5 430.5,-56.5"/>
<text text-anchor="middle" x="458.5" y="-63.5" font-family="Helvetica,sans-Serif" font-size="10.00">unistd.h</text>
</a>
</g>
</g>
<!-- Node1&#45;&gt;Node7 -->
<g id="edge6" class="edge">
<title>Node1&#45;&gt;Node7</title>
<path fill="none" stroke="midnightblue" d="M507.5,-112.5C497.18,-102.92 484.91,-91.53 475.24,-82.54"/>
<polygon fill="midnightblue" stroke="midnightblue" points="477.53,-79.89 467.82,-75.65 472.76,-85.02 477.53,-79.89"/>
</g>
<!-- Node8 -->
<g id="node8" class="node">
<title>Node8</title>
<g id="a_node8"><a xlink:title=" ">
<polygon fill="white" stroke="#bfbfbf" points="505,-56.5 505,-75.5 552,-75.5 552,-56.5 505,-56.5"/>
<text text-anchor="middle" x="528.5" y="-63.5" font-family="Helvetica,sans-Serif" font-size="10.00">cerrno</text>
</a>
</g>
</g>
<!-- Node1&#45;&gt;Node8 -->
<g id="edge7" class="edge">
<title>Node1&#45;&gt;Node8</title>
<path fill="none" stroke="midnightblue" d="M528.5,-112.5C528.5,-104.07 528.5,-94.24 528.5,-85.87"/>
<polygon fill="midnightblue" stroke="midnightblue" points="532,-85.65 528.5,-75.65 525,-85.65 532,-85.65"/>
</g>
<!-- Node9 -->
<g id="node9" class="node">
<title>Node9</title>
<g id="a_node9"><a xlink:title=" ">
<polygon fill="white" stroke="#bfbfbf" points="570,-56.5 570,-75.5 623,-75.5 623,-56.5 570,-56.5"/>
<text text-anchor="middle" x="596.5" y="-63.5" font-family="Helvetica,sans-Serif" font-size="10.00">cstddef</text>
</a>
</g>
</g>
<!-- Node1&#45;&gt;Node9 -->
<g id="edge8" class="edge">
<title>Node1&#45;&gt;Node9</title>
<path fill="none" stroke="midnightblue" d="M548.9,-112.5C558.83,-103.01 570.6,-91.76 579.96,-82.81"/>
<polygon fill="midnightblue" stroke="midnightblue" points="582.64,-85.09 587.45,-75.65 577.8,-80.03 582.64,-85.09"/>
</g>
<!-- Node10 -->
<g id="node10" class="node">
<title>Node10</title>
<g id="a_node10"><a xlink:title=" ">
<polygon fill="white" stroke="#bfbfbf" points="641,-56.5 641,-75.5 690,-75.5 690,-56.5 641,-56.5"/>
<text text-anchor="middle" x="665.5" y="-63.5" font-family="Helvetica,sans-Serif" font-size="10.00">cstdlib</text>
</a>
</g>
</g>
<!-- Node1&#45;&gt;Node10 -->
<g id="edge9" class="edge">
<title>Node1&#45;&gt;Node10</title>
<path fill="none" stroke="midnightblue" d="M569.6,-112.5C591.72,-102.01 618.4,-89.35 637.99,-80.05"/>
<polygon fill="midnightblue" stroke="midnightblue" points="639.73,-83.1 647.26,-75.65 636.73,-76.78 639.73,-83.1"/>
</g>
<!-- Node11 -->
<g id="node11" class="node">
<title>Node11</title>
<g id="a_node11"><a xlink:title=" ">
<polygon fill="white" stroke="#bfbfbf" points="708.5,-56.5 708.5,-75.5 768.5,-75.5 768.5,-56.5 708.5,-56.5"/>
<text text-anchor="middle" x="738.5" y="-63.5" font-family="Helvetica,sans-Serif" font-size="10.00">iostream</text>
</a>
</g>
</g>
<!-- Node1&#45;&gt;Node11 -->
<g id="edge10" class="edge">
<title>Node1&#45;&gt;Node11</title>
<path fill="none" stroke="midnightblue" d="M591.51,-112.5C627.22,-101.44 670.69,-87.99 701.06,-78.59"/>
<polygon fill="midnightblue" stroke="midnightblue" points="702.3,-81.87 710.82,-75.57 700.23,-75.18 702.3,-81.87"/>
</g>
<!-- Node12 -->
<g id="node12" class="node">
<title>Node12</title>
<g id="a_node12"><a xlink:title=" ">
<polygon fill="white" stroke="#bfbfbf" points="786.5,-56.5 786.5,-75.5 830.5,-75.5 830.5,-56.5 786.5,-56.5"/>
<text text-anchor="middle" x="808.5" y="-63.5" font-family="Helvetica,sans-Serif" font-size="10.00">string</text>
</a>
</g>
</g>
<!-- Node1&#45;&gt;Node12 -->
<g id="edge11" class="edge">
<title>Node1&#45;&gt;Node12</title>
<path fill="none" stroke="midnightblue" d="M621.65,-112.47C665.99,-102.83 719.95,-90.62 776.38,-76.18"/>
<polygon fill="midnightblue" stroke="midnightblue" points="777.38,-79.54 786.19,-73.65 775.64,-72.76 777.38,-79.54"/>
</g>
<!-- Node13 -->
<g id="node13" class="node">
<title>Node13</title>
<g id="a_node13"><a xlink:title=" ">
<polygon fill="white" stroke="#bfbfbf" points="849,-56.5 849,-75.5 930,-75.5 930,-56.5 849,-56.5"/>
<text text-anchor="middle" x="889.5" y="-63.5" font-family="Helvetica,sans-Serif" font-size="10.00">system_error</text>
</a>
</g>
</g>
<!-- Node1&#45;&gt;Node13 -->
<g id="edge12" class="edge">
<title>Node1&#45;&gt;Node13</title>
<path fill="none" stroke="midnightblue" d="M625.24,-114.58C694.06,-102.19 783.74,-86.04 838.94,-76.1"/>
<polygon fill="midnightblue" stroke="midnightblue" points="839.61,-79.54 848.83,-74.32 838.37,-72.65 839.61,-79.54"/>
</g>
<!-- Node14 -->
<g id="node14" class="node">
<title>Node14</title>
<g id="a_node14"><a xlink:href="virtual__memory_8hpp.html" target="_top" xlink:title="This file provides facilities for handling virtual memory and virtual address space.">
<polygon fill="white" stroke="black" points="948.5,-56.5 948.5,-75.5 1062.5,-75.5 1062.5,-56.5 948.5,-56.5"/>
<text text-anchor="middle" x="1005.5" y="-63.5" font-family="Helvetica,sans-Serif" font-size="10.00">virtual_memory.hpp</text>
</a>
</g>
</g>
<!-- Node1&#45;&gt;Node14 -->
<g id="edge13" class="edge">
<title>Node1&#45;&gt;Node14</title>
<path fill="none" stroke="midnightblue" d="M625.24,-118.82C706.09,-107.81 824.74,-91.64 938.02,-76.2"/>
<polygon fill="midnightblue" stroke="midnightblue" points="938.83,-79.62 948.26,-74.81 937.88,-72.69 938.83,-79.62"/>
</g>
<!-- Node15 -->
<g id="node15" class="node">
<title>Node15</title>
<g id="a_node15"><a xlink:title=" ">
<polygon fill="white" stroke="#bfbfbf" points="983,-0.5 983,-19.5 1028,-19.5 1028,-0.5 983,-0.5"/>
<text text-anchor="middle" x="1005.5" y="-7.5" font-family="Helvetica,sans-Serif" font-size="10.00">utility</text>
</a>
</g>
</g>
<!-- Node14&#45;&gt;Node15 -->
<g id="edge14" class="edge">
<title>Node14&#45;&gt;Node15</title>
<path fill="none" stroke="midnightblue" d="M1005.5,-56.08C1005.5,-49.01 1005.5,-38.86 1005.5,-29.99"/>
<polygon fill="midnightblue" stroke="midnightblue" points="1009,-29.75 1005.5,-19.75 1002,-29.75 1009,-29.75"/>
</g>
</g>
</svg>
