<?xml version="1.0" encoding="UTF-8" standalone="no"?>
<!DOCTYPE svg PUBLIC "-//W3C//DTD SVG 1.1//EN"
 "http://www.w3.org/Graphics/SVG/1.1/DTD/svg11.dtd">
<!-- Generated by graphviz version 2.43.0 (0)
 -->
<!-- Title: /home/projectcs&#45;2022/argodsmBuffer/argodsmPrefetching/src/signal/signal.hpp Pages: 1 -->
<svg width="394pt" height="173pt"
 viewBox="0.00 0.00 394.00 173.00" xmlns="http://www.w3.org/2000/svg" xmlns:xlink="http://www.w3.org/1999/xlink">
<g id="graph0" class="graph" transform="scale(1 1) rotate(0) translate(4 169)">
<title>/home/projectcs&#45;2022/argodsmBuffer/argodsmPrefetching/src/signal/signal.hpp</title>
<polygon fill="white" stroke="transparent" points="-4,4 -4,-169 390,-169 390,4 -4,4"/>
<!-- Node1 -->
<g id="node1" class="node">
<title>Node1</title>
<g id="a_node1"><a xlink:title="This file provides facilities for handling POSIX signals, especially SIGSEGV, within ArgoDSM.">
<polygon fill="#bfbfbf" stroke="black" points="82,-123.5 82,-164.5 275,-164.5 275,-123.5 82,-123.5"/>
<text text-anchor="start" x="90" y="-152.5" font-family="Helvetica,sans-Serif" font-size="10.00">/home/projectcs&#45;2022</text>
<text text-anchor="start" x="90" y="-141.5" font-family="Helvetica,sans-Serif" font-size="10.00">/argodsmBuffer/argodsmPrefetching</text>
<text text-anchor="middle" x="178.5" y="-130.5" font-family="Helvetica,sans-Serif" font-size="10.00">/src/signal/signal.hpp</text>
</a>
</g>
</g>
<!-- Node2 -->
<g id="node2" class="node">
<title>Node2</title>
<g id="a_node2"><a xlink:title=" ">
<polygon fill="white" stroke="#bfbfbf" points="0,-62 0,-81 55,-81 55,-62 0,-62"/>
<text text-anchor="middle" x="27.5" y="-69" font-family="Helvetica,sans-Serif" font-size="10.00">signal.h</text>
</a>
</g>
</g>
<!-- Node1&#45;&gt;Node2 -->
<g id="edge1" class="edge">
<title>Node1&#45;&gt;Node2</title>
<path fill="none" stroke="midnightblue" d="M136.44,-123.36C110.48,-111.24 77.91,-96.03 55.17,-85.42"/>
<polygon fill="midnightblue" stroke="midnightblue" points="56.62,-82.23 46.08,-81.17 53.66,-88.58 56.62,-82.23"/>
</g>
<!-- Node3 -->
<g id="node3" class="node">
<title>Node3</title>
<g id="a_node3"><a xlink:title=" ">
<polygon fill="white" stroke="#bfbfbf" points="73,-62 73,-81 138,-81 138,-62 73,-62"/>
<text text-anchor="middle" x="105.5" y="-69" font-family="Helvetica,sans-Serif" font-size="10.00">stdexcept</text>
</a>
</g>
</g>
<!-- Node1&#45;&gt;Node3 -->
<g id="edge2" class="edge">
<title>Node1&#45;&gt;Node3</title>
<path fill="none" stroke="midnightblue" d="M158.17,-123.36C146.74,-112.32 132.65,-98.72 121.93,-88.37"/>
<polygon fill="midnightblue" stroke="midnightblue" points="124.11,-85.6 114.48,-81.17 119.24,-90.64 124.11,-85.6"/>
</g>
<!-- Node4 -->
<g id="node4" class="node">
<title>Node4</title>
<g id="a_node4"><a xlink:title=" ">
<polygon fill="white" stroke="#bfbfbf" points="156.5,-62 156.5,-81 200.5,-81 200.5,-62 156.5,-62"/>
<text text-anchor="middle" x="178.5" y="-69" font-family="Helvetica,sans-Serif" font-size="10.00">string</text>
</a>
</g>
</g>
<!-- Node1&#45;&gt;Node4 -->
<g id="edge3" class="edge">
<title>Node1&#45;&gt;Node4</title>
<path fill="none" stroke="midnightblue" d="M178.5,-123.36C178.5,-113.3 178.5,-101.1 178.5,-91.18"/>
<polygon fill="midnightblue" stroke="midnightblue" points="182,-91.17 178.5,-81.17 175,-91.17 182,-91.17"/>
</g>
<!-- Node5 -->
<g id="node5" class="node">
<title>Node5</title>
<g id="a_node5"><a xlink:title=" ">
<polygon fill="white" stroke="#bfbfbf" points="252,-0.5 252,-19.5 297,-19.5 297,-0.5 252,-0.5"/>
<text text-anchor="middle" x="274.5" y="-7.5" font-family="Helvetica,sans-Serif" font-size="10.00">utility</text>
</a>
</g>
</g>
<!-- Node1&#45;&gt;Node5 -->
<g id="edge4" class="edge">
<title>Node1&#45;&gt;Node5</title>
<path fill="none" stroke="midnightblue" d="M192.87,-123.24C211.7,-97.35 244.41,-52.37 262.17,-27.96"/>
<polygon fill="midnightblue" stroke="midnightblue" points="265.13,-29.83 268.18,-19.69 259.47,-25.71 265.13,-29.83"/>
</g>
<!-- Node6 -->
<g id="node6" class="node">
<title>Node6</title>
<g id="a_node6"><a xlink:href="virtual__memory_8hpp.html" target="_top" xlink:title="This file provides facilities for handling virtual memory and virtual address space.">
<polygon fill="white" stroke="black" points="257,-56.5 257,-86.5 386,-86.5 386,-56.5 257,-56.5"/>
<text text-anchor="start" x="265" y="-74.5" font-family="Helvetica,sans-Serif" font-size="10.00">virtual_memory/virtual</text>
<text text-anchor="middle" x="321.5" y="-63.5" font-family="Helvetica,sans-Serif" font-size="10.00">_memory.hpp</text>
</a>
</g>
</g>
<!-- Node1&#45;&gt;Node6 -->
<g id="edge5" class="edge">
<title>Node1&#45;&gt;Node6</title>
<path fill="none" stroke="midnightblue" d="M218.33,-123.36C238.74,-113.3 263.45,-101.12 283.58,-91.2"/>
<polygon fill="midnightblue" stroke="midnightblue" points="285.34,-94.23 292.76,-86.67 282.24,-87.95 285.34,-94.23"/>
</g>
<!-- Node6&#45;&gt;Node5 -->
<g id="edge6" class="edge">
<title>Node6&#45;&gt;Node5</title>
<path fill="none" stroke="midnightblue" d="M310.36,-56.4C303.53,-47.75 294.76,-36.64 287.59,-27.58"/>
<polygon fill="midnightblue" stroke="midnightblue" points="290.28,-25.34 281.34,-19.66 284.79,-29.67 290.28,-25.34"/>
</g>
</g>
</svg>
