<?xml version="1.0" encoding="UTF-8" standalone="no"?>
<!DOCTYPE svg PUBLIC "-//W3C//DTD SVG 1.1//EN"
 "http://www.w3.org/Graphics/SVG/1.1/DTD/svg11.dtd">
<!-- Generated by graphviz version 2.43.0 (0)
 -->
<!-- Title: /home/projectcs&#45;2022/argodsmBuffer/argodsmPrefetching/src/signal/signal.hpp Pages: 1 -->
<svg width="430pt" height="128pt"
 viewBox="0.00 0.00 429.50 128.00" xmlns="http://www.w3.org/2000/svg" xmlns:xlink="http://www.w3.org/1999/xlink">
<g id="graph0" class="graph" transform="scale(1 1) rotate(0) translate(4 124)">
<title>/home/projectcs&#45;2022/argodsmBuffer/argodsmPrefetching/src/signal/signal.hpp</title>
<polygon fill="white" stroke="transparent" points="-4,4 -4,-124 425.5,-124 425.5,4 -4,4"/>
<!-- Node1 -->
<g id="node1" class="node">
<title>Node1</title>
<g id="a_node1"><a xlink:title="This file provides facilities for handling POSIX signals, especially SIGSEGV, within ArgoDSM.">
<polygon fill="#bfbfbf" stroke="black" points="110,-78.5 110,-119.5 303,-119.5 303,-78.5 110,-78.5"/>
<text text-anchor="start" x="118" y="-107.5" font-family="Helvetica,sans-Serif" font-size="10.00">/home/projectcs&#45;2022</text>
<text text-anchor="start" x="118" y="-96.5" font-family="Helvetica,sans-Serif" font-size="10.00">/argodsmBuffer/argodsmPrefetching</text>
<text text-anchor="middle" x="206.5" y="-85.5" font-family="Helvetica,sans-Serif" font-size="10.00">/src/signal/signal.hpp</text>
</a>
</g>
</g>
<!-- Node2 -->
<g id="node2" class="node">
<title>Node2</title>
<g id="a_node2"><a xlink:href="swdsm_8cpp.html" target="_top" xlink:title="This file implements the MPI&#45;backend of ArgoDSM.">
<polygon fill="white" stroke="black" points="0,-0.5 0,-41.5 193,-41.5 193,-0.5 0,-0.5"/>
<text text-anchor="start" x="8" y="-29.5" font-family="Helvetica,sans-Serif" font-size="10.00">/home/projectcs&#45;2022</text>
<text text-anchor="start" x="8" y="-18.5" font-family="Helvetica,sans-Serif" font-size="10.00">/argodsmBuffer/argodsmPrefetching</text>
<text text-anchor="middle" x="96.5" y="-7.5" font-family="Helvetica,sans-Serif" font-size="10.00">/src/backend/mpi/swdsm.cpp</text>
</a>
</g>
</g>
<!-- Node1&#45;&gt;Node2 -->
<g id="edge1" class="edge">
<title>Node1&#45;&gt;Node2</title>
<path fill="none" stroke="midnightblue" d="M169.79,-72.64C155.1,-62.49 138.45,-50.98 124.73,-41.51"/>
<polygon fill="midnightblue" stroke="midnightblue" points="167.96,-75.62 178.17,-78.43 171.93,-69.86 167.96,-75.62"/>
</g>
<!-- Node3 -->
<g id="node3" class="node">
<title>Node3</title>
<g id="a_node3"><a xlink:href="singlenode_8cpp.html" target="_top" xlink:title="pseudo&#45;backend implemenation for a single node ArgoDSM system">
<polygon fill="white" stroke="black" points="211.5,-0.5 211.5,-41.5 421.5,-41.5 421.5,-0.5 211.5,-0.5"/>
<text text-anchor="start" x="219.5" y="-29.5" font-family="Helvetica,sans-Serif" font-size="10.00">/home/projectcs&#45;2022</text>
<text text-anchor="start" x="219.5" y="-18.5" font-family="Helvetica,sans-Serif" font-size="10.00">/argodsmBuffer/argodsmPrefetching</text>
<text text-anchor="middle" x="316.5" y="-7.5" font-family="Helvetica,sans-Serif" font-size="10.00">/src/backend/singlenode/singlenode.cpp</text>
</a>
</g>
</g>
<!-- Node1&#45;&gt;Node3 -->
<g id="edge2" class="edge">
<title>Node1&#45;&gt;Node3</title>
<path fill="none" stroke="midnightblue" d="M243.21,-72.64C257.9,-62.49 274.55,-50.98 288.27,-41.51"/>
<polygon fill="midnightblue" stroke="midnightblue" points="241.07,-69.86 234.83,-78.43 245.04,-75.62 241.07,-69.86"/>
</g>
</g>
</svg>
