<?xml version="1.0" encoding="UTF-8" standalone="no"?>
<!DOCTYPE svg PUBLIC "-//W3C//DTD SVG 1.1//EN"
 "http://www.w3.org/Graphics/SVG/1.1/DTD/svg11.dtd">
<!-- Generated by graphviz version 2.43.0 (0)
 -->
<!-- Title: /home/projectcs&#45;2022/argodsmBuffer/argodsmPrefetching/src/backend/singlenode/singlenode.cpp Pages: 1 -->
<!--zoomable 531 -->
<svg id="main" version="1.1" xmlns="http://www.w3.org/2000/svg" xmlns:xlink="http://www.w3.org/1999/xlink" xml:space="preserve" onload="init(evt)">
<style type="text/css"><![CDATA[
.edge:hover path { stroke: red; }
.edge:hover polygon { stroke: red; fill: red; }
]]></style>
<script type="text/javascript"><![CDATA[
var edges = document.getElementsByTagName('g');
if (edges && edges.length) {
  for (var i=0;i<edges.length;i++) {
    if (edges[i].id.substr(0,4)=='edge') {
      edges[i].setAttribute('class','edge');
    }
  }
}
]]></script>
        <defs>
                <circle id="rim" cx="0" cy="0" r="7"/>
                <circle id="rim2" cx="0" cy="0" r="3.5"/>
                <g id="zoomPlus">
                        <use xlink:href="#rim" fill="#404040">
                                <set attributeName="fill" to="#808080" begin="zoomplus.mouseover" end="zoomplus.mouseout"/>
                        </use>
                        <path d="M-4,0h8M0,-4v8" fill="none" stroke="white" stroke-width="1.5" pointer-events="none"/>
                </g>
                <g id="zoomMin">
                        <use xlink:href="#rim" fill="#404040">
                                <set attributeName="fill" to="#808080" begin="zoomminus.mouseover" end="zoomminus.mouseout"/>
                        </use>
                        <path d="M-4,0h8" fill="none" stroke="white" stroke-width="1.5" pointer-events="none"/>
                </g>
                <g id="dirArrow">
                        <path fill="none" stroke="white" stroke-width="1.5" d="M0,-3.0v7 M-2.5,-0.5L0,-3.0L2.5,-0.5"/>
                </g>
               <g id="resetDef">
                       <use xlink:href="#rim2" fill="#404040">
                               <set attributeName="fill" to="#808080" begin="reset.mouseover" end="reset.mouseout"/>
                       </use>
               </g>
        </defs>

<script type="text/javascript">
var viewWidth = 1346;
var viewHeight = 531;
var sectionId = 'dynsection-0';
</script>
<script xlink:href="svgpan.js"/>
<svg id="graph" class="graph">
<g id="viewport">
<title>/home/projectcs&#45;2022/argodsmBuffer/argodsmPrefetching/src/backend/singlenode/singlenode.cpp</title>
<polygon fill="white" stroke="transparent" points="-4,4 -4,-527 1342.07,-527 1342.07,4 -4,4"/>
<!-- Node1 -->
<g id="node1" class="node">
<title>Node1</title>
<g id="a_node1"><a xlink:title="pseudo&#45;backend implemenation for a single node ArgoDSM system">
<polygon fill="#bfbfbf" stroke="black" points="281.07,-481.5 281.07,-522.5 491.07,-522.5 491.07,-481.5 281.07,-481.5"/>
<text text-anchor="start" x="289.07" y="-510.5" font-family="Helvetica,sans-Serif" font-size="10.00">/home/projectcs&#45;2022</text>
<text text-anchor="start" x="289.07" y="-499.5" font-family="Helvetica,sans-Serif" font-size="10.00">/argodsmBuffer/argodsmPrefetching</text>
<text text-anchor="middle" x="386.07" y="-488.5" font-family="Helvetica,sans-Serif" font-size="10.00">/src/backend/singlenode/singlenode.cpp</text>
</a>
</g>
</g>
<!-- Node2 -->
<g id="node2" class="node">
<title>Node2</title>
<g id="a_node2"><a xlink:title=" ">
<polygon fill="white" stroke="#bfbfbf" points="369.07,-353 369.07,-372 419.07,-372 419.07,-353 369.07,-353"/>
<text text-anchor="middle" x="394.07" y="-360" font-family="Helvetica,sans-Serif" font-size="10.00">atomic</text>
</a>
</g>
</g>
<!-- Node1&#45;&gt;Node2 -->
<g id="edge1" class="edge">
<title>Node1&#45;&gt;Node2</title>
<path fill="none" stroke="midnightblue" d="M387.22,-481.3C388.76,-454.78 391.49,-407.94 392.99,-382.03"/>
<polygon fill="midnightblue" stroke="midnightblue" points="396.49,-382.22 393.58,-372.04 389.5,-381.82 396.49,-382.22"/>
</g>
<!-- Node3 -->
<g id="node3" class="node">
<title>Node3</title>
<g id="a_node3"><a xlink:title=" ">
<polygon fill="white" stroke="#bfbfbf" points="30.57,-420 30.57,-439 137.57,-439 137.57,-420 30.57,-420"/>
<text text-anchor="middle" x="84.07" y="-427" font-family="Helvetica,sans-Serif" font-size="10.00">condition_variable</text>
</a>
</g>
</g>
<!-- Node1&#45;&gt;Node3 -->
<g id="edge2" class="edge">
<title>Node1&#45;&gt;Node3</title>
<path fill="none" stroke="midnightblue" d="M302.21,-481.44C256.13,-470.69 197.94,-457.12 146.07,-445 141.02,-443.82 135.74,-442.59 130.48,-441.36"/>
<polygon fill="midnightblue" stroke="midnightblue" points="131,-437.88 120.46,-439.01 129.4,-444.7 131,-437.88"/>
</g>
<!-- Node4 -->
<g id="node4" class="node">
<title>Node4</title>
<g id="a_node4"><a xlink:title=" ">
<polygon fill="white" stroke="#bfbfbf" points="155.57,-420 155.57,-439 206.57,-439 206.57,-420 155.57,-420"/>
<text text-anchor="middle" x="181.07" y="-427" font-family="Helvetica,sans-Serif" font-size="10.00">csignal</text>
</a>
</g>
</g>
<!-- Node1&#45;&gt;Node4 -->
<g id="edge3" class="edge">
<title>Node1&#45;&gt;Node4</title>
<path fill="none" stroke="midnightblue" d="M327.55,-481.47C295.96,-470.84 256.32,-457.37 221.07,-445 218.69,-444.17 216.24,-443.3 213.77,-442.41"/>
<polygon fill="midnightblue" stroke="midnightblue" points="214.9,-439.1 204.31,-439.02 212.54,-445.69 214.9,-439.1"/>
</g>
<!-- Node5 -->
<g id="node5" class="node">
<title>Node5</title>
<g id="a_node5"><a xlink:title=" ">
<polygon fill="white" stroke="#bfbfbf" points="473.57,-0.5 473.57,-19.5 526.57,-19.5 526.57,-0.5 473.57,-0.5"/>
<text text-anchor="middle" x="500.07" y="-7.5" font-family="Helvetica,sans-Serif" font-size="10.00">cstddef</text>
</a>
</g>
</g>
<!-- Node1&#45;&gt;Node5 -->
<g id="edge4" class="edge">
<title>Node1&#45;&gt;Node5</title>
<path fill="none" stroke="midnightblue" d="M280.65,-497.67C186.5,-492.47 57.94,-479.14 21.07,-445 -6.22,-419.73 2.07,-400.69 2.07,-363.5 2.07,-363.5 2.07,-363.5 2.07,-121 2.07,-26.55 347.93,-13.13 463.19,-11.28"/>
<polygon fill="midnightblue" stroke="midnightblue" points="463.35,-14.78 473.3,-11.14 463.25,-7.78 463.35,-14.78"/>
</g>
<!-- Node6 -->
<g id="node6" class="node">
<title>Node6</title>
<g id="a_node6"><a xlink:title=" ">
<polygon fill="white" stroke="#bfbfbf" points="263.07,-420 263.07,-439 313.07,-439 313.07,-420 263.07,-420"/>
<text text-anchor="middle" x="288.07" y="-427" font-family="Helvetica,sans-Serif" font-size="10.00">cstring</text>
</a>
</g>
</g>
<!-- Node1&#45;&gt;Node6 -->
<g id="edge5" class="edge">
<title>Node1&#45;&gt;Node6</title>
<path fill="none" stroke="midnightblue" d="M358.77,-481.36C342.83,-469.89 323.04,-455.65 308.46,-445.16"/>
<polygon fill="midnightblue" stroke="midnightblue" points="310.29,-442.17 300.13,-439.17 306.2,-447.85 310.29,-442.17"/>
</g>
<!-- Node7 -->
<g id="node7" class="node">
<title>Node7</title>
<g id="a_node7"><a xlink:title=" ">
<polygon fill="white" stroke="#bfbfbf" points="113.07,-112.5 113.07,-131.5 161.07,-131.5 161.07,-112.5 113.07,-112.5"/>
<text text-anchor="middle" x="137.07" y="-119.5" font-family="Helvetica,sans-Serif" font-size="10.00">mutex</text>
</a>
</g>
</g>
<!-- Node1&#45;&gt;Node7 -->
<g id="edge6" class="edge">
<title>Node1&#45;&gt;Node7</title>
<path fill="none" stroke="midnightblue" d="M311.95,-481.43C291.12,-473 269.88,-461.23 254.07,-445 166.9,-355.47 144.01,-196.03 138.6,-141.72"/>
<polygon fill="midnightblue" stroke="midnightblue" points="142.07,-141.17 137.67,-131.53 135.09,-141.81 142.07,-141.17"/>
</g>
<!-- Node8 -->
<g id="node8" class="node">
<title>Node8</title>
<g id="a_node8"><a xlink:href="backend_8hpp.html" target="_top" xlink:title="This file provides the backend interface.">
<polygon fill="white" stroke="black" points="579.07,-353 579.07,-372 701.07,-372 701.07,-353 579.07,-353"/>
<text text-anchor="middle" x="640.07" y="-360" font-family="Helvetica,sans-Serif" font-size="10.00">backend/backend.hpp</text>
</a>
</g>
</g>
<!-- Node1&#45;&gt;Node8 -->
<g id="edge7" class="edge">
<title>Node1&#45;&gt;Node8</title>
<path fill="none" stroke="midnightblue" d="M464.01,-481.5C492.23,-472.63 523.63,-460.58 550.07,-445 580.31,-427.18 609.29,-398.07 625.85,-379.89"/>
<polygon fill="midnightblue" stroke="midnightblue" points="628.5,-382.17 632.55,-372.38 623.28,-377.51 628.5,-382.17"/>
</g>
<!-- Node12 -->
<g id="node12" class="node">
<title>Node12</title>
<g id="a_node12"><a xlink:href="global__ptr_8hpp.html" target="_top" xlink:title="This file provides the global pointer for ArgoDSM.">
<polygon fill="white" stroke="black" points="451.07,-280.5 451.07,-310.5 583.07,-310.5 583.07,-280.5 451.07,-280.5"/>
<text text-anchor="start" x="459.07" y="-298.5" font-family="Helvetica,sans-Serif" font-size="10.00">data_distribution/global</text>
<text text-anchor="middle" x="517.07" y="-287.5" font-family="Helvetica,sans-Serif" font-size="10.00">_ptr.hpp</text>
</a>
</g>
</g>
<!-- Node1&#45;&gt;Node12 -->
<g id="edge36" class="edge">
<title>Node1&#45;&gt;Node12</title>
<path fill="none" stroke="midnightblue" d="M374.36,-481.39C357.26,-449.91 330.53,-387.54 360.07,-347 378.71,-321.43 410.51,-308.52 440.64,-302.12"/>
<polygon fill="midnightblue" stroke="midnightblue" points="441.6,-305.5 450.77,-300.18 440.29,-298.62 441.6,-305.5"/>
</g>
<!-- Node19 -->
<g id="node19" class="node">
<title>Node19</title>
<g id="a_node19"><a xlink:href="types_8hpp.html" target="_top" xlink:title="This file defines common types used in ArgoDSM.">
<polygon fill="white" stroke="black" points="1157.57,-56.5 1157.57,-75.5 1252.57,-75.5 1252.57,-56.5 1157.57,-56.5"/>
<text text-anchor="middle" x="1205.07" y="-63.5" font-family="Helvetica,sans-Serif" font-size="10.00">types/types.hpp</text>
</a>
</g>
</g>
<!-- Node1&#45;&gt;Node19 -->
<g id="edge49" class="edge">
<title>Node1&#45;&gt;Node19</title>
<path fill="none" stroke="midnightblue" d="M491.13,-496.68C738.72,-485.1 1338.07,-448.3 1338.07,-363.5 1338.07,-363.5 1338.07,-363.5 1338.07,-177 1338.07,-126.73 1280.94,-95.1 1241.57,-79.27"/>
<polygon fill="midnightblue" stroke="midnightblue" points="1242.58,-75.91 1231.99,-75.59 1240.06,-82.45 1242.58,-75.91"/>
</g>
<!-- Node25 -->
<g id="node25" class="node">
<title>Node25</title>
<g id="a_node25"><a xlink:href="signal_8hpp.html" target="_top" xlink:title="This file provides facilities for handling POSIX signals, especially SIGSEGV, within ArgoDSM.">
<polygon fill="white" stroke="black" points="707.57,-420 707.57,-439 806.57,-439 806.57,-420 707.57,-420"/>
<text text-anchor="middle" x="757.07" y="-427" font-family="Helvetica,sans-Serif" font-size="10.00">signal/signal.hpp</text>
</a>
</g>
</g>
<!-- Node1&#45;&gt;Node25 -->
<g id="edge37" class="edge">
<title>Node1&#45;&gt;Node25</title>
<path fill="none" stroke="midnightblue" d="M488.92,-481.46C557.97,-468.34 646.21,-451.57 702.21,-440.93"/>
<polygon fill="midnightblue" stroke="midnightblue" points="703.1,-444.32 712.27,-439.01 701.8,-437.44 703.1,-444.32"/>
</g>
<!-- Node28 -->
<g id="node28" class="node">
<title>Node28</title>
<g id="a_node28"><a xlink:href="virtual__memory_8hpp.html" target="_top" xlink:title="This file provides facilities for handling virtual memory and virtual address space.">
<polygon fill="white" stroke="black" points="869.57,-347.5 869.57,-377.5 998.57,-377.5 998.57,-347.5 869.57,-347.5"/>
<text text-anchor="start" x="877.57" y="-365.5" font-family="Helvetica,sans-Serif" font-size="10.00">virtual_memory/virtual</text>
<text text-anchor="middle" x="934.07" y="-354.5" font-family="Helvetica,sans-Serif" font-size="10.00">_memory.hpp</text>
</a>
</g>
</g>
<!-- Node1&#45;&gt;Node28 -->
<g id="edge50" class="edge">
<title>Node1&#45;&gt;Node28</title>
<path fill="none" stroke="midnightblue" d="M491.24,-500.86C580.21,-497.58 709.66,-485.3 815.07,-445 851.74,-430.98 888.12,-403.58 910.81,-384.43"/>
<polygon fill="midnightblue" stroke="midnightblue" points="913.23,-386.97 918.53,-377.79 908.67,-381.66 913.23,-386.97"/>
</g>
<!-- Node29 -->
<g id="node29" class="node">
<title>Node29</title>
<g id="a_node29"><a xlink:href="global__tas__lock_8hpp.html" target="_top" xlink:title="This file provides a tas lock for the ArgoDSM system based on the TAS lock made by David Klaftenegger...">
<polygon fill="white" stroke="black" points="414.57,-414.5 414.57,-444.5 541.57,-444.5 541.57,-414.5 414.57,-414.5"/>
<text text-anchor="start" x="422.57" y="-432.5" font-family="Helvetica,sans-Serif" font-size="10.00">synchronization/global</text>
<text text-anchor="middle" x="478.07" y="-421.5" font-family="Helvetica,sans-Serif" font-size="10.00">_tas_lock.hpp</text>
</a>
</g>
</g>
<!-- Node1&#45;&gt;Node29 -->
<g id="edge44" class="edge">
<title>Node1&#45;&gt;Node29</title>
<path fill="none" stroke="midnightblue" d="M411.7,-481.36C424.05,-471.89 438.87,-460.54 451.36,-450.97"/>
<polygon fill="midnightblue" stroke="midnightblue" points="453.77,-453.53 459.58,-444.67 449.51,-447.97 453.77,-453.53"/>
</g>
<!-- Node31 -->
<g id="node31" class="node">
<title>Node31</title>
<g id="a_node31"><a xlink:href="explicit__instantiations_8inc_8cpp.html" target="_top" xlink:title="file listing all template instances in the backend">
<polygon fill="white" stroke="black" points="1138.57,-224.5 1138.57,-243.5 1309.57,-243.5 1309.57,-224.5 1138.57,-224.5"/>
<text text-anchor="middle" x="1224.07" y="-231.5" font-family="Helvetica,sans-Serif" font-size="10.00">../explicit_instantiations.inc.cpp</text>
</a>
</g>
</g>
<!-- Node1&#45;&gt;Node31 -->
<g id="edge51" class="edge">
<title>Node1&#45;&gt;Node31</title>
<path fill="none" stroke="midnightblue" d="M491.16,-497.48C587.76,-492.15 734.19,-478.74 857.07,-445 927.87,-425.56 943.68,-413.28 1008.07,-378 1083.34,-336.76 1166.42,-277.55 1203.84,-250.07"/>
<polygon fill="midnightblue" stroke="midnightblue" points="1206.37,-252.55 1212.34,-243.8 1202.21,-246.92 1206.37,-252.55"/>
</g>
<!-- Node9 -->
<g id="node9" class="node">
<title>Node9</title>
<g id="a_node9"><a xlink:title=" ">
<polygon fill="white" stroke="#bfbfbf" points="674.07,-286 674.07,-305 726.07,-305 726.07,-286 674.07,-286"/>
<text text-anchor="middle" x="700.07" y="-293" font-family="Helvetica,sans-Serif" font-size="10.00">cassert</text>
</a>
</g>
</g>
<!-- Node8&#45;&gt;Node9 -->
<g id="edge8" class="edge">
<title>Node8&#45;&gt;Node9</title>
<path fill="none" stroke="midnightblue" d="M648.16,-352.73C657.61,-342.5 673.43,-325.36 685.13,-312.69"/>
<polygon fill="midnightblue" stroke="midnightblue" points="687.9,-314.85 692.11,-305.13 682.75,-310.1 687.9,-314.85"/>
</g>
<!-- Node10 -->
<g id="node10" class="node">
<title>Node10</title>
<g id="a_node10"><a xlink:title=" ">
<polygon fill="white" stroke="#bfbfbf" points="606.07,-286 606.07,-305 656.07,-305 656.07,-286 606.07,-286"/>
<text text-anchor="middle" x="631.07" y="-293" font-family="Helvetica,sans-Serif" font-size="10.00">cstdint</text>
</a>
</g>
</g>
<!-- Node8&#45;&gt;Node10 -->
<g id="edge9" class="edge">
<title>Node8&#45;&gt;Node10</title>
<path fill="none" stroke="midnightblue" d="M638.86,-352.73C637.54,-343.18 635.38,-327.62 633.67,-315.28"/>
<polygon fill="midnightblue" stroke="midnightblue" points="637.11,-314.55 632.27,-305.13 630.17,-315.51 637.11,-314.55"/>
</g>
<!-- Node11 -->
<g id="node11" class="node">
<title>Node11</title>
<g id="a_node11"><a xlink:title=" ">
<polygon fill="white" stroke="#bfbfbf" points="828.57,-286 828.57,-305 893.57,-305 893.57,-286 828.57,-286"/>
<text text-anchor="middle" x="861.07" y="-293" font-family="Helvetica,sans-Serif" font-size="10.00">stdexcept</text>
</a>
</g>
</g>
<!-- Node8&#45;&gt;Node11 -->
<g id="edge10" class="edge">
<title>Node8&#45;&gt;Node11</title>
<path fill="none" stroke="midnightblue" d="M669.98,-352.98C704.68,-343.07 763.6,-326.11 814.07,-311 817.26,-310.04 820.57,-309.04 823.89,-308.03"/>
<polygon fill="midnightblue" stroke="midnightblue" points="825.22,-311.29 833.76,-305.01 823.17,-304.59 825.22,-311.29"/>
</g>
<!-- Node8&#45;&gt;Node12 -->
<g id="edge11" class="edge">
<title>Node8&#45;&gt;Node12</title>
<path fill="none" stroke="midnightblue" d="M623.74,-352.87C605.74,-343.36 576.24,-327.77 552.82,-315.39"/>
<polygon fill="midnightblue" stroke="midnightblue" points="554.33,-312.23 543.85,-310.65 551.06,-318.42 554.33,-312.23"/>
</g>
<!-- Node8&#45;&gt;Node19 -->
<g id="edge35" class="edge">
<title>Node8&#45;&gt;Node19</title>
<path fill="none" stroke="midnightblue" d="M655.34,-352.88C685.59,-336.18 755.72,-299.36 819.07,-280 954.89,-238.5 1023.03,-286.77 1125.07,-188 1157.52,-156.6 1183.76,-109.83 1196.57,-84.62"/>
<polygon fill="midnightblue" stroke="midnightblue" points="1199.77,-86.04 1201.08,-75.53 1193.5,-82.93 1199.77,-86.04"/>
</g>
<!-- Node13 -->
<g id="node13" class="node">
<title>Node13</title>
<g id="a_node13"><a xlink:title=" ">
<polygon fill="white" stroke="#bfbfbf" points="240.07,-56.5 240.07,-75.5 284.07,-75.5 284.07,-56.5 240.07,-56.5"/>
<text text-anchor="middle" x="262.07" y="-63.5" font-family="Helvetica,sans-Serif" font-size="10.00">string</text>
</a>
</g>
</g>
<!-- Node12&#45;&gt;Node13 -->
<g id="edge12" class="edge">
<title>Node12&#45;&gt;Node13</title>
<path fill="none" stroke="midnightblue" d="M450.91,-289.16C386.22,-280.02 290.95,-255.23 245.07,-188 223.63,-156.58 240.56,-109.82 252.63,-84.62"/>
<polygon fill="midnightblue" stroke="midnightblue" points="255.84,-86.03 257.23,-75.52 249.6,-82.87 255.84,-86.03"/>
</g>
<!-- Node14 -->
<g id="node14" class="node">
<title>Node14</title>
<g id="a_node14"><a xlink:href="data__distribution_8hpp.html" target="_top" xlink:title="This file provides an abstraction layer for distributing the shared memory space.">
<polygon fill="white" stroke="black" points="592.07,-224.5 592.07,-243.5 712.07,-243.5 712.07,-224.5 592.07,-224.5"/>
<text text-anchor="middle" x="652.07" y="-231.5" font-family="Helvetica,sans-Serif" font-size="10.00">data_distribution.hpp</text>
</a>
</g>
</g>
<!-- Node12&#45;&gt;Node14 -->
<g id="edge13" class="edge">
<title>Node12&#45;&gt;Node14</title>
<path fill="none" stroke="midnightblue" d="M549.07,-280.4C571.51,-270.51 601.29,-257.38 623.05,-247.79"/>
<polygon fill="midnightblue" stroke="midnightblue" points="624.69,-250.89 632.43,-243.66 621.87,-244.49 624.69,-250.89"/>
</g>
<!-- Node18 -->
<g id="node18" class="node">
<title>Node18</title>
<g id="a_node18"><a xlink:href="env_8hpp.html" target="_top" xlink:title="This file provides facilities for handling environment variables.">
<polygon fill="white" stroke="black" points="948.07,-56.5 948.07,-75.5 1024.07,-75.5 1024.07,-56.5 948.07,-56.5"/>
<text text-anchor="middle" x="986.07" y="-63.5" font-family="Helvetica,sans-Serif" font-size="10.00">env/env.hpp</text>
</a>
</g>
</g>
<!-- Node12&#45;&gt;Node18 -->
<g id="edge34" class="edge">
<title>Node12&#45;&gt;Node18</title>
<path fill="none" stroke="midnightblue" d="M583.43,-282.47C588.04,-281.63 592.63,-280.8 597.07,-280 710.83,-259.47 1034.91,-276.68 1109.07,-188 1125.27,-168.63 1105.39,-130.33 1088.07,-112 1073.18,-96.23 1051.78,-85.65 1032.42,-78.73"/>
<polygon fill="midnightblue" stroke="midnightblue" points="1033.42,-75.37 1022.82,-75.53 1031.2,-82.01 1033.42,-75.37"/>
</g>
<!-- Node15 -->
<g id="node15" class="node">
<title>Node15</title>
<g id="a_node15"><a xlink:href="base__distribution_8hpp.html" target="_top" xlink:title="This file implements the base distribution class for all the policies to derive from.">
<polygon fill="white" stroke="black" points="636.07,-112.5 636.07,-131.5 758.07,-131.5 758.07,-112.5 636.07,-112.5"/>
<text text-anchor="middle" x="697.07" y="-119.5" font-family="Helvetica,sans-Serif" font-size="10.00">base_distribution.hpp</text>
</a>
</g>
</g>
<!-- Node14&#45;&gt;Node15 -->
<g id="edge14" class="edge">
<title>Node14&#45;&gt;Node15</title>
<path fill="none" stroke="midnightblue" d="M643.53,-224.3C632.09,-211.56 614.41,-187.24 625.07,-168 633.16,-153.41 648.18,-142.92 662.41,-135.76"/>
<polygon fill="midnightblue" stroke="midnightblue" points="663.96,-138.9 671.57,-131.53 661.02,-132.55 663.96,-138.9"/>
</g>
<!-- Node14&#45;&gt;Node18 -->
<g id="edge33" class="edge">
<title>Node14&#45;&gt;Node18</title>
<path fill="none" stroke="midnightblue" d="M712.47,-231.21C826.9,-227.2 1066.17,-215.58 1091.07,-188 1125.83,-149.5 1054.24,-102.89 1012.79,-80.41"/>
<polygon fill="midnightblue" stroke="midnightblue" points="1014.19,-77.19 1003.72,-75.61 1010.92,-83.38 1014.19,-77.19"/>
</g>
<!-- Node20 -->
<g id="node20" class="node">
<title>Node20</title>
<g id="a_node20"><a xlink:href="cyclic__distribution_8hpp.html" target="_top" xlink:title="This file implements the cyclic data distribution.">
<polygon fill="white" stroke="black" points="634.07,-168.5 634.07,-187.5 760.07,-187.5 760.07,-168.5 634.07,-168.5"/>
<text text-anchor="middle" x="697.07" y="-175.5" font-family="Helvetica,sans-Serif" font-size="10.00">cyclic_distribution.hpp</text>
</a>
</g>
</g>
<!-- Node14&#45;&gt;Node20 -->
<g id="edge21" class="edge">
<title>Node14&#45;&gt;Node20</title>
<path fill="none" stroke="midnightblue" d="M659.5,-224.08C665.93,-216.38 675.38,-205.03 683.19,-195.65"/>
<polygon fill="midnightblue" stroke="midnightblue" points="686.07,-197.67 689.78,-187.75 680.69,-193.19 686.07,-197.67"/>
</g>
<!-- Node21 -->
<g id="node21" class="node">
<title>Node21</title>
<g id="a_node21"><a xlink:href="first__touch__distribution_8hpp.html" target="_top" xlink:title="This file implements the first&#45;touch data distribution.">
<polygon fill="white" stroke="black" points="254.57,-168.5 254.57,-187.5 403.57,-187.5 403.57,-168.5 254.57,-168.5"/>
<text text-anchor="middle" x="329.07" y="-175.5" font-family="Helvetica,sans-Serif" font-size="10.00">first_touch_distribution.hpp</text>
</a>
</g>
</g>
<!-- Node14&#45;&gt;Node21 -->
<g id="edge23" class="edge">
<title>Node14&#45;&gt;Node21</title>
<path fill="none" stroke="midnightblue" d="M600.89,-224.44C543.6,-214.87 450.83,-199.36 389.88,-189.17"/>
<polygon fill="midnightblue" stroke="midnightblue" points="390.45,-185.71 380.01,-187.52 389.3,-192.62 390.45,-185.71"/>
</g>
<!-- Node22 -->
<g id="node22" class="node">
<title>Node22</title>
<g id="a_node22"><a xlink:href="naive__distribution_8hpp.html" target="_top" xlink:title="This file implements the naive data distribution.">
<polygon fill="white" stroke="black" points="778.57,-168.5 778.57,-187.5 903.57,-187.5 903.57,-168.5 778.57,-168.5"/>
<text text-anchor="middle" x="841.07" y="-175.5" font-family="Helvetica,sans-Serif" font-size="10.00">naive_distribution.hpp</text>
</a>
</g>
</g>
<!-- Node14&#45;&gt;Node22 -->
<g id="edge27" class="edge">
<title>Node14&#45;&gt;Node22</title>
<path fill="none" stroke="midnightblue" d="M682.02,-224.44C714.23,-215.24 765.61,-200.56 801.21,-190.39"/>
<polygon fill="midnightblue" stroke="midnightblue" points="802.61,-193.63 811.27,-187.52 800.69,-186.9 802.61,-193.63"/>
</g>
<!-- Node23 -->
<g id="node23" class="node">
<title>Node23</title>
<g id="a_node23"><a xlink:href="prime__mapp__distribution_8hpp.html" target="_top" xlink:title="This file implements the prime&#45;mapp data distribution.">
<polygon fill="white" stroke="black" points="922.07,-168.5 922.07,-187.5 1082.07,-187.5 1082.07,-168.5 922.07,-168.5"/>
<text text-anchor="middle" x="1002.07" y="-175.5" font-family="Helvetica,sans-Serif" font-size="10.00">prime_mapp_distribution.hpp</text>
</a>
</g>
</g>
<!-- Node14&#45;&gt;Node23 -->
<g id="edge29" class="edge">
<title>Node14&#45;&gt;Node23</title>
<path fill="none" stroke="midnightblue" d="M707.53,-224.44C769.74,-214.85 870.55,-199.29 936.59,-189.1"/>
<polygon fill="midnightblue" stroke="midnightblue" points="937.52,-192.5 946.87,-187.52 936.46,-185.58 937.52,-192.5"/>
</g>
<!-- Node24 -->
<g id="node24" class="node">
<title>Node24</title>
<g id="a_node24"><a xlink:href="skew__mapp__distribution_8hpp.html" target="_top" xlink:title="This file implements the skew&#45;mapp data distribution.">
<polygon fill="white" stroke="black" points="422.07,-168.5 422.07,-187.5 578.07,-187.5 578.07,-168.5 422.07,-168.5"/>
<text text-anchor="middle" x="500.07" y="-175.5" font-family="Helvetica,sans-Serif" font-size="10.00">skew_mapp_distribution.hpp</text>
</a>
</g>
</g>
<!-- Node14&#45;&gt;Node24 -->
<g id="edge31" class="edge">
<title>Node14&#45;&gt;Node24</title>
<path fill="none" stroke="midnightblue" d="M627.99,-224.44C602.53,-215.4 562.18,-201.06 533.61,-190.92"/>
<polygon fill="midnightblue" stroke="midnightblue" points="534.64,-187.57 524.04,-187.52 532.3,-194.16 534.64,-187.57"/>
</g>
<!-- Node15&#45;&gt;Node13 -->
<g id="edge17" class="edge">
<title>Node15&#45;&gt;Node13</title>
<path fill="none" stroke="midnightblue" d="M635.67,-113.38C542.11,-101.76 367.11,-80.04 294.71,-71.05"/>
<polygon fill="midnightblue" stroke="midnightblue" points="294.75,-67.53 284.4,-69.77 293.89,-74.48 294.75,-67.53"/>
</g>
<!-- Node16 -->
<g id="node16" class="node">
<title>Node16</title>
<g id="a_node16"><a xlink:title=" ">
<polygon fill="white" stroke="#bfbfbf" points="709.57,-56.5 709.57,-75.5 758.57,-75.5 758.57,-56.5 709.57,-56.5"/>
<text text-anchor="middle" x="734.07" y="-63.5" font-family="Helvetica,sans-Serif" font-size="10.00">cstdlib</text>
</a>
</g>
</g>
<!-- Node15&#45;&gt;Node16 -->
<g id="edge15" class="edge">
<title>Node15&#45;&gt;Node16</title>
<path fill="none" stroke="midnightblue" d="M703.18,-112.08C708.35,-104.53 715.92,-93.49 722.27,-84.23"/>
<polygon fill="midnightblue" stroke="midnightblue" points="725.31,-85.98 728.08,-75.75 719.54,-82.02 725.31,-85.98"/>
</g>
<!-- Node17 -->
<g id="node17" class="node">
<title>Node17</title>
<g id="a_node17"><a xlink:title=" ">
<polygon fill="white" stroke="#bfbfbf" points="631.07,-56.5 631.07,-75.5 691.07,-75.5 691.07,-56.5 631.07,-56.5"/>
<text text-anchor="middle" x="661.07" y="-63.5" font-family="Helvetica,sans-Serif" font-size="10.00">iostream</text>
</a>
</g>
</g>
<!-- Node15&#45;&gt;Node17 -->
<g id="edge16" class="edge">
<title>Node15&#45;&gt;Node17</title>
<path fill="none" stroke="midnightblue" d="M691.13,-112.08C686.1,-104.53 678.74,-93.49 672.56,-84.23"/>
<polygon fill="midnightblue" stroke="midnightblue" points="675.37,-82.13 666.91,-75.75 669.54,-86.01 675.37,-82.13"/>
</g>
<!-- Node15&#45;&gt;Node18 -->
<g id="edge18" class="edge">
<title>Node15&#45;&gt;Node18</title>
<path fill="none" stroke="midnightblue" d="M742.87,-112.44C796.1,-102.5 883.56,-86.15 937.82,-76.02"/>
<polygon fill="midnightblue" stroke="midnightblue" points="938.69,-79.41 947.88,-74.14 937.4,-72.53 938.69,-79.41"/>
</g>
<!-- Node15&#45;&gt;Node19 -->
<g id="edge20" class="edge">
<title>Node15&#45;&gt;Node19</title>
<path fill="none" stroke="midnightblue" d="M758.1,-114.51C856.91,-104.01 1050.62,-83.42 1147.3,-73.14"/>
<polygon fill="midnightblue" stroke="midnightblue" points="1147.9,-76.6 1157.48,-72.06 1147.16,-69.64 1147.9,-76.6"/>
</g>
<!-- Node18&#45;&gt;Node5 -->
<g id="edge19" class="edge">
<title>Node18&#45;&gt;Node5</title>
<path fill="none" stroke="midnightblue" d="M947.94,-60.76C856.67,-50.62 626.62,-25.06 536.8,-15.08"/>
<polygon fill="midnightblue" stroke="midnightblue" points="537.13,-11.6 526.81,-13.97 536.36,-18.55 537.13,-11.6"/>
</g>
<!-- Node20&#45;&gt;Node15 -->
<g id="edge22" class="edge">
<title>Node20&#45;&gt;Node15</title>
<path fill="none" stroke="midnightblue" d="M697.07,-168.08C697.07,-161.01 697.07,-150.86 697.07,-141.99"/>
<polygon fill="midnightblue" stroke="midnightblue" points="700.57,-141.75 697.07,-131.75 693.57,-141.75 700.57,-141.75"/>
</g>
<!-- Node21&#45;&gt;Node7 -->
<g id="edge24" class="edge">
<title>Node21&#45;&gt;Node7</title>
<path fill="none" stroke="midnightblue" d="M298.65,-168.44C264,-158.7 207.53,-142.82 171.35,-132.64"/>
<polygon fill="midnightblue" stroke="midnightblue" points="171.85,-129.14 161.27,-129.81 169.95,-135.88 171.85,-129.14"/>
</g>
<!-- Node21&#45;&gt;Node13 -->
<g id="edge25" class="edge">
<title>Node21&#45;&gt;Node13</title>
<path fill="none" stroke="midnightblue" d="M323.82,-168.37C312.81,-150.3 287.15,-108.18 272.61,-84.31"/>
<polygon fill="midnightblue" stroke="midnightblue" points="275.5,-82.31 267.31,-75.59 269.52,-85.95 275.5,-82.31"/>
</g>
<!-- Node21&#45;&gt;Node15 -->
<g id="edge26" class="edge">
<title>Node21&#45;&gt;Node15</title>
<path fill="none" stroke="midnightblue" d="M387.38,-168.44C453.06,-158.81 559.66,-143.16 629.07,-132.98"/>
<polygon fill="midnightblue" stroke="midnightblue" points="629.65,-136.43 639.03,-131.52 628.63,-129.51 629.65,-136.43"/>
</g>
<!-- Node22&#45;&gt;Node15 -->
<g id="edge28" class="edge">
<title>Node22&#45;&gt;Node15</title>
<path fill="none" stroke="midnightblue" d="M818.26,-168.44C794.24,-159.44 756.24,-145.19 729.2,-135.05"/>
<polygon fill="midnightblue" stroke="midnightblue" points="730.38,-131.75 719.78,-131.52 727.92,-138.3 730.38,-131.75"/>
</g>
<!-- Node23&#45;&gt;Node15 -->
<g id="edge30" class="edge">
<title>Node23&#45;&gt;Node15</title>
<path fill="none" stroke="midnightblue" d="M953.74,-168.44C899.87,-158.9 812.77,-143.48 755.21,-133.29"/>
<polygon fill="midnightblue" stroke="midnightblue" points="755.63,-129.81 745.17,-131.52 754.41,-136.71 755.63,-129.81"/>
</g>
<!-- Node24&#45;&gt;Node15 -->
<g id="edge32" class="edge">
<title>Node24&#45;&gt;Node15</title>
<path fill="none" stroke="midnightblue" d="M531.29,-168.44C565.01,-159.2 618.87,-144.44 656,-134.26"/>
<polygon fill="midnightblue" stroke="midnightblue" points="657.28,-137.54 666,-131.52 655.43,-130.78 657.28,-137.54"/>
</g>
<!-- Node25&#45;&gt;Node11 -->
<g id="edge39" class="edge">
<title>Node25&#45;&gt;Node11</title>
<path fill="none" stroke="midnightblue" d="M752.77,-419.82C745.57,-403.95 733.28,-369.81 748.07,-347 756.87,-333.43 794.37,-318.37 823.79,-308.25"/>
<polygon fill="midnightblue" stroke="midnightblue" points="825.04,-311.52 833.41,-305.02 822.81,-304.89 825.04,-311.52"/>
</g>
<!-- Node25&#45;&gt;Node13 -->
<g id="edge40" class="edge">
<title>Node25&#45;&gt;Node13</title>
<path fill="none" stroke="midnightblue" d="M718.18,-419.98C679.95,-411.14 620.21,-396.09 570.07,-378 536.4,-365.85 305.2,-266.14 277.07,-244 228.48,-205.75 215.61,-171.32 233.07,-112 236.08,-101.76 242.23,-91.66 248.09,-83.63"/>
<polygon fill="midnightblue" stroke="midnightblue" points="251,-85.58 254.4,-75.54 245.49,-81.27 251,-85.58"/>
</g>
<!-- Node26 -->
<g id="node26" class="node">
<title>Node26</title>
<g id="a_node26"><a xlink:title=" ">
<polygon fill="white" stroke="#bfbfbf" points="757.57,-353 757.57,-372 812.57,-372 812.57,-353 757.57,-353"/>
<text text-anchor="middle" x="785.07" y="-360" font-family="Helvetica,sans-Serif" font-size="10.00">signal.h</text>
</a>
</g>
</g>
<!-- Node25&#45;&gt;Node26 -->
<g id="edge38" class="edge">
<title>Node25&#45;&gt;Node26</title>
<path fill="none" stroke="midnightblue" d="M760.85,-419.73C765.05,-409.99 771.94,-393.98 777.3,-381.53"/>
<polygon fill="midnightblue" stroke="midnightblue" points="780.61,-382.7 781.36,-372.13 774.19,-379.93 780.61,-382.7"/>
</g>
<!-- Node27 -->
<g id="node27" class="node">
<title>Node27</title>
<g id="a_node27"><a xlink:title=" ">
<polygon fill="white" stroke="#bfbfbf" points="911.57,-286 911.57,-305 956.57,-305 956.57,-286 911.57,-286"/>
<text text-anchor="middle" x="934.07" y="-293" font-family="Helvetica,sans-Serif" font-size="10.00">utility</text>
</a>
</g>
</g>
<!-- Node25&#45;&gt;Node27 -->
<g id="edge41" class="edge">
<title>Node25&#45;&gt;Node27</title>
<path fill="none" stroke="midnightblue" d="M767.95,-419.93C780.69,-409.9 802.43,-392.76 821.07,-378 838.43,-364.25 842.25,-360.14 860.07,-347 877.28,-334.31 897.35,-320.69 912.24,-310.79"/>
<polygon fill="midnightblue" stroke="midnightblue" points="914.36,-313.59 920.77,-305.16 910.5,-307.75 914.36,-313.59"/>
</g>
<!-- Node25&#45;&gt;Node28 -->
<g id="edge42" class="edge">
<title>Node25&#45;&gt;Node28</title>
<path fill="none" stroke="midnightblue" d="M780.58,-419.87C807.37,-410.03 851.86,-393.69 886.07,-381.13"/>
<polygon fill="midnightblue" stroke="midnightblue" points="887.69,-384.26 895.87,-377.53 885.28,-377.69 887.69,-384.26"/>
</g>
<!-- Node28&#45;&gt;Node27 -->
<g id="edge43" class="edge">
<title>Node28&#45;&gt;Node27</title>
<path fill="none" stroke="midnightblue" d="M934.07,-347.4C934.07,-338.06 934.07,-325.71 934.07,-315.52"/>
<polygon fill="midnightblue" stroke="midnightblue" points="937.57,-315.19 934.07,-305.19 930.57,-315.19 937.57,-315.19"/>
</g>
<!-- Node29&#45;&gt;Node2 -->
<g id="edge45" class="edge">
<title>Node29&#45;&gt;Node2</title>
<path fill="none" stroke="midnightblue" d="M459.85,-414.4C446.1,-403.76 427.29,-389.2 413.3,-378.38"/>
<polygon fill="midnightblue" stroke="midnightblue" points="415.36,-375.55 405.31,-372.19 411.08,-381.08 415.36,-375.55"/>
</g>
<!-- Node29&#45;&gt;Node8 -->
<g id="edge47" class="edge">
<title>Node29&#45;&gt;Node8</title>
<path fill="none" stroke="midnightblue" d="M513.22,-414.4C541.9,-402.89 582.01,-386.8 609.4,-375.81"/>
<polygon fill="midnightblue" stroke="midnightblue" points="610.89,-378.98 618.87,-372.01 608.29,-372.48 610.89,-378.98"/>
</g>
<!-- Node29&#45;&gt;Node12 -->
<g id="edge48" class="edge">
<title>Node29&#45;&gt;Node12</title>
<path fill="none" stroke="midnightblue" d="M482.68,-414.39C485.94,-404.28 490.38,-390.33 494.07,-378 499.85,-358.71 506.03,-336.72 510.53,-320.45"/>
<polygon fill="midnightblue" stroke="midnightblue" points="513.94,-321.24 513.22,-310.67 507.19,-319.39 513.94,-321.24"/>
</g>
<!-- Node30 -->
<g id="node30" class="node">
<title>Node30</title>
<g id="a_node30"><a xlink:title=" ">
<polygon fill="white" stroke="#bfbfbf" points="437.07,-353 437.07,-372 485.07,-372 485.07,-353 437.07,-353"/>
<text text-anchor="middle" x="461.07" y="-360" font-family="Helvetica,sans-Serif" font-size="10.00">thread</text>
</a>
</g>
</g>
<!-- Node29&#45;&gt;Node30 -->
<g id="edge46" class="edge">
<title>Node29&#45;&gt;Node30</title>
<path fill="none" stroke="midnightblue" d="M474.38,-414.4C471.92,-404.96 468.64,-392.45 465.96,-382.19"/>
<polygon fill="midnightblue" stroke="midnightblue" points="469.26,-380.98 463.35,-372.19 462.49,-382.75 469.26,-380.98"/>
</g>
<!-- Node31&#45;&gt;Node19 -->
<g id="edge52" class="edge">
<title>Node31&#45;&gt;Node19</title>
<path fill="none" stroke="midnightblue" d="M1223.05,-224.08C1220.06,-197.95 1211.28,-121.21 1207.2,-85.58"/>
<polygon fill="midnightblue" stroke="midnightblue" points="1210.67,-85.11 1206.05,-75.57 1203.71,-85.9 1210.67,-85.11"/>
</g>
</g>
</svg>
        <g id="navigator" transform="translate(0 0)" fill="#404254">
                <rect fill="#f2f5e9" fill-opacity="0.5" stroke="#606060" stroke-width=".5" x="0" y="0" width="60" height="60"/>
                <use id="zoomplus" xlink:href="#zoomPlus" x="17" y="9" onmousedown="handleZoom(evt,'in')"/>
                <use id="zoomminus" xlink:href="#zoomMin" x="42" y="9" onmousedown="handleZoom(evt,'out')"/>
                <use id="reset" xlink:href="#resetDef" x="30" y="36" onmousedown="handleReset()"/>
                <g id="arrowUp" xlink:href="#dirArrow" transform="translate(30 24)" onmousedown="handlePan(0,-1)">
                  <use xlink:href="#rim" fill="#404040">
                        <set attributeName="fill" to="#808080" begin="arrowUp.mouseover" end="arrowUp.mouseout"/>
                  </use>
                  <path fill="none" stroke="white" stroke-width="1.5" d="M0,-3.0v7 M-2.5,-0.5L0,-3.0L2.5,-0.5"/>
                </g>
                <g id="arrowRight" xlink:href="#dirArrow" transform="rotate(90) translate(36 -43)" onmousedown="handlePan(1,0)">
                  <use xlink:href="#rim" fill="#404040">
                        <set attributeName="fill" to="#808080" begin="arrowRight.mouseover" end="arrowRight.mouseout"/>
                  </use>
                  <path fill="none" stroke="white" stroke-width="1.5" d="M0,-3.0v7 M-2.5,-0.5L0,-3.0L2.5,-0.5"/>
                </g>
                <g id="arrowDown" xlink:href="#dirArrow" transform="rotate(180) translate(-30 -48)" onmousedown="handlePan(0,1)">
                  <use xlink:href="#rim" fill="#404040">
                        <set attributeName="fill" to="#808080" begin="arrowDown.mouseover" end="arrowDown.mouseout"/>
                  </use>
                  <path fill="none" stroke="white" stroke-width="1.5" d="M0,-3.0v7 M-2.5,-0.5L0,-3.0L2.5,-0.5"/>
                </g>
                <g id="arrowLeft" xlink:href="#dirArrow" transform="rotate(270) translate(-36 17)" onmousedown="handlePan(-1,0)">
                  <use xlink:href="#rim" fill="#404040">
                        <set attributeName="fill" to="#808080" begin="arrowLeft.mouseover" end="arrowLeft.mouseout"/>
                  </use>
                  <path fill="none" stroke="white" stroke-width="1.5" d="M0,-3.0v7 M-2.5,-0.5L0,-3.0L2.5,-0.5"/>
                </g>
        </g>
        <svg viewBox="0 0 15 15" width="100%" height="30px" preserveAspectRatio="xMaxYMin meet">
         <g id="arrow_out" transform="scale(0.3 0.3)">
          <a xlink:href="singlenode_8cpp__incl_org.svg" target="_base">
           <rect id="button" ry="5" rx="5" y="6" x="6" height="38" width="38"
                fill="#f2f5e9" fill-opacity="0.5" stroke="#606060" stroke-width="1.0"/>
           <path id="arrow"
             d="M 11.500037,31.436501 C 11.940474,20.09759 22.043105,11.32322 32.158766,21.979434 L 37.068811,17.246167 C 37.068811,17.246167 37.088388,32 37.088388,32 L 22.160133,31.978069 C 22.160133,31.978069 26.997745,27.140456 26.997745,27.140456 C 18.528582,18.264221 13.291696,25.230495 11.500037,31.436501 z"
             style="fill:#404040;"/>
          </a>
         </g>
        </svg>
</svg>
