<?xml version="1.0" encoding="UTF-8" standalone="no"?>
<!DOCTYPE svg PUBLIC "-//W3C//DTD SVG 1.1//EN"
 "http://www.w3.org/Graphics/SVG/1.1/DTD/svg11.dtd">
<!-- Generated by graphviz version 2.43.0 (0)
 -->
<!-- Title: /home/projectcs&#45;2022/argodsmBuffer/argodsmPrefetching/src/data_distribution/skew_mapp_distribution.hpp Pages: 1 -->
<svg width="405pt" height="229pt"
 viewBox="0.00 0.00 405.00 229.00" xmlns="http://www.w3.org/2000/svg" xmlns:xlink="http://www.w3.org/1999/xlink">
<g id="graph0" class="graph" transform="scale(1 1) rotate(0) translate(4 225)">
<title>/home/projectcs&#45;2022/argodsmBuffer/argodsmPrefetching/src/data_distribution/skew_mapp_distribution.hpp</title>
<polygon fill="white" stroke="transparent" points="-4,4 -4,-225 401,-225 401,4 -4,4"/>
<!-- Node1 -->
<g id="node1" class="node">
<title>Node1</title>
<g id="a_node1"><a xlink:title="This file implements the skew&#45;mapp data distribution.">
<polygon fill="#bfbfbf" stroke="black" points="71,-168.5 71,-220.5 264,-220.5 264,-168.5 71,-168.5"/>
<text text-anchor="start" x="79" y="-208.5" font-family="Helvetica,sans-Serif" font-size="10.00">/home/projectcs&#45;2022</text>
<text text-anchor="start" x="79" y="-197.5" font-family="Helvetica,sans-Serif" font-size="10.00">/argodsmBuffer/argodsmPrefetching</text>
<text text-anchor="start" x="79" y="-186.5" font-family="Helvetica,sans-Serif" font-size="10.00">/src/data_distribution/skew</text>
<text text-anchor="middle" x="167.5" y="-175.5" font-family="Helvetica,sans-Serif" font-size="10.00">_mapp_distribution.hpp</text>
</a>
</g>
</g>
<!-- Node2 -->
<g id="node2" class="node">
<title>Node2</title>
<g id="a_node2"><a xlink:href="base__distribution_8hpp.html" target="_top" xlink:title="This file implements the base distribution class for all the policies to derive from.">
<polygon fill="white" stroke="black" points="106.5,-112.5 106.5,-131.5 228.5,-131.5 228.5,-112.5 106.5,-112.5"/>
<text text-anchor="middle" x="167.5" y="-119.5" font-family="Helvetica,sans-Serif" font-size="10.00">base_distribution.hpp</text>
</a>
</g>
</g>
<!-- Node1&#45;&gt;Node2 -->
<g id="edge1" class="edge">
<title>Node1&#45;&gt;Node2</title>
<path fill="none" stroke="midnightblue" d="M167.5,-168.45C167.5,-159.73 167.5,-150.1 167.5,-141.96"/>
<polygon fill="midnightblue" stroke="midnightblue" points="171,-141.7 167.5,-131.7 164,-141.7 171,-141.7"/>
</g>
<!-- Node3 -->
<g id="node3" class="node">
<title>Node3</title>
<g id="a_node3"><a xlink:title=" ">
<polygon fill="white" stroke="#bfbfbf" points="0,-56.5 0,-75.5 49,-75.5 49,-56.5 0,-56.5"/>
<text text-anchor="middle" x="24.5" y="-63.5" font-family="Helvetica,sans-Serif" font-size="10.00">cstdlib</text>
</a>
</g>
</g>
<!-- Node2&#45;&gt;Node3 -->
<g id="edge2" class="edge">
<title>Node2&#45;&gt;Node3</title>
<path fill="none" stroke="midnightblue" d="M144.84,-112.44C121.1,-103.48 83.59,-89.31 56.76,-79.18"/>
<polygon fill="midnightblue" stroke="midnightblue" points="57.64,-75.77 47.05,-75.52 55.17,-82.32 57.64,-75.77"/>
</g>
<!-- Node4 -->
<g id="node4" class="node">
<title>Node4</title>
<g id="a_node4"><a xlink:title=" ">
<polygon fill="white" stroke="#bfbfbf" points="67.5,-56.5 67.5,-75.5 127.5,-75.5 127.5,-56.5 67.5,-56.5"/>
<text text-anchor="middle" x="97.5" y="-63.5" font-family="Helvetica,sans-Serif" font-size="10.00">iostream</text>
</a>
</g>
</g>
<!-- Node2&#45;&gt;Node4 -->
<g id="edge3" class="edge">
<title>Node2&#45;&gt;Node4</title>
<path fill="none" stroke="midnightblue" d="M156.25,-112.32C145.7,-104.18 129.7,-91.84 117.06,-82.09"/>
<polygon fill="midnightblue" stroke="midnightblue" points="119.01,-79.17 108.95,-75.83 114.73,-84.71 119.01,-79.17"/>
</g>
<!-- Node5 -->
<g id="node5" class="node">
<title>Node5</title>
<g id="a_node5"><a xlink:title=" ">
<polygon fill="white" stroke="#bfbfbf" points="145.5,-56.5 145.5,-75.5 189.5,-75.5 189.5,-56.5 145.5,-56.5"/>
<text text-anchor="middle" x="167.5" y="-63.5" font-family="Helvetica,sans-Serif" font-size="10.00">string</text>
</a>
</g>
</g>
<!-- Node2&#45;&gt;Node5 -->
<g id="edge4" class="edge">
<title>Node2&#45;&gt;Node5</title>
<path fill="none" stroke="midnightblue" d="M167.5,-112.08C167.5,-105.01 167.5,-94.86 167.5,-85.99"/>
<polygon fill="midnightblue" stroke="midnightblue" points="171,-85.75 167.5,-75.75 164,-85.75 171,-85.75"/>
</g>
<!-- Node6 -->
<g id="node6" class="node">
<title>Node6</title>
<g id="a_node6"><a xlink:href="env_8hpp.html" target="_top" xlink:title="This file provides facilities for handling environment variables.">
<polygon fill="white" stroke="black" points="207.5,-56.5 207.5,-75.5 283.5,-75.5 283.5,-56.5 207.5,-56.5"/>
<text text-anchor="middle" x="245.5" y="-63.5" font-family="Helvetica,sans-Serif" font-size="10.00">env/env.hpp</text>
</a>
</g>
</g>
<!-- Node2&#45;&gt;Node6 -->
<g id="edge5" class="edge">
<title>Node2&#45;&gt;Node6</title>
<path fill="none" stroke="midnightblue" d="M180.03,-112.32C192.09,-103.98 210.53,-91.21 224.77,-81.35"/>
<polygon fill="midnightblue" stroke="midnightblue" points="226.77,-84.22 233,-75.65 222.78,-78.47 226.77,-84.22"/>
</g>
<!-- Node8 -->
<g id="node8" class="node">
<title>Node8</title>
<g id="a_node8"><a xlink:href="types_8hpp.html" target="_top" xlink:title="This file defines common types used in ArgoDSM.">
<polygon fill="white" stroke="black" points="302,-56.5 302,-75.5 397,-75.5 397,-56.5 302,-56.5"/>
<text text-anchor="middle" x="349.5" y="-63.5" font-family="Helvetica,sans-Serif" font-size="10.00">types/types.hpp</text>
</a>
</g>
</g>
<!-- Node2&#45;&gt;Node8 -->
<g id="edge7" class="edge">
<title>Node2&#45;&gt;Node8</title>
<path fill="none" stroke="midnightblue" d="M196.34,-112.44C227.36,-103.24 276.83,-88.56 311.12,-78.39"/>
<polygon fill="midnightblue" stroke="midnightblue" points="312.21,-81.72 320.8,-75.52 310.21,-75.01 312.21,-81.72"/>
</g>
<!-- Node7 -->
<g id="node7" class="node">
<title>Node7</title>
<g id="a_node7"><a xlink:title=" ">
<polygon fill="white" stroke="#bfbfbf" points="219,-0.5 219,-19.5 272,-19.5 272,-0.5 219,-0.5"/>
<text text-anchor="middle" x="245.5" y="-7.5" font-family="Helvetica,sans-Serif" font-size="10.00">cstddef</text>
</a>
</g>
</g>
<!-- Node6&#45;&gt;Node7 -->
<g id="edge6" class="edge">
<title>Node6&#45;&gt;Node7</title>
<path fill="none" stroke="midnightblue" d="M245.5,-56.08C245.5,-49.01 245.5,-38.86 245.5,-29.99"/>
<polygon fill="midnightblue" stroke="midnightblue" points="249,-29.75 245.5,-19.75 242,-29.75 249,-29.75"/>
</g>
</g>
</svg>
