<?xml version="1.0" encoding="UTF-8" standalone="no"?>
<!DOCTYPE svg PUBLIC "-//W3C//DTD SVG 1.1//EN"
 "http://www.w3.org/Graphics/SVG/1.1/DTD/svg11.dtd">
<!-- Generated by graphviz version 2.43.0 (0)
 -->
<!-- Title: collective_alloc Pages: 1 -->
<svg width="243pt" height="104pt"
 viewBox="0.00 0.00 243.00 104.00" xmlns="http://www.w3.org/2000/svg" xmlns:xlink="http://www.w3.org/1999/xlink">
<g id="graph0" class="graph" transform="scale(1 1) rotate(0) translate(4 100)">
<title>collective_alloc</title>
<polygon fill="white" stroke="transparent" points="-4,4 -4,-100 239,-100 239,4 -4,4"/>
<!-- Node1 -->
<g id="node1" class="node">
<title>Node1</title>
<g id="a_node1"><a xlink:title="basic collective allocation function, for C interface">
<polygon fill="#bfbfbf" stroke="black" points="143,-38.5 143,-57.5 235,-57.5 235,-38.5 143,-38.5"/>
<text text-anchor="middle" x="189" y="-45.5" font-family="Helvetica,sans-Serif" font-size="10.00">collective_alloc</text>
</a>
</g>
</g>
<!-- Node2 -->
<g id="node2" class="node">
<title>Node2</title>
<g id="a_node2"><a xlink:href="namespaceargo_a43db7086bc5f4070897fc687ea7e950c.html#a43db7086bc5f4070897fc687ea7e950c" target="_top" xlink:title="template function to construct new objects using collective allocation">
<polygon fill="white" stroke="black" points="13,-76.5 13,-95.5 94,-95.5 94,-76.5 13,-76.5"/>
<text text-anchor="middle" x="53.5" y="-83.5" font-family="Helvetica,sans-Serif" font-size="10.00">argo::conew_</text>
</a>
</g>
</g>
<!-- Node1&#45;&gt;Node2 -->
<g id="edge1" class="edge">
<title>Node1&#45;&gt;Node2</title>
<path fill="none" stroke="midnightblue" d="M144.47,-60.39C126.19,-65.59 105.25,-71.55 88.18,-76.41"/>
<polygon fill="midnightblue" stroke="midnightblue" points="145.65,-63.69 154.31,-57.59 143.74,-56.96 145.65,-63.69"/>
</g>
<!-- Node3 -->
<g id="node3" class="node">
<title>Node3</title>
<g id="a_node3"><a xlink:href="namespaceargo_a532a530aefb04b559d017b8ac402feb5.html#a532a530aefb04b559d017b8ac402feb5" target="_top" xlink:title="Collectively construct a new array of objects in the global memory.">
<polygon fill="white" stroke="black" points="0,-38.5 0,-57.5 107,-57.5 107,-38.5 0,-38.5"/>
<text text-anchor="middle" x="53.5" y="-45.5" font-family="Helvetica,sans-Serif" font-size="10.00">argo::conew_array</text>
</a>
</g>
</g>
<!-- Node1&#45;&gt;Node3 -->
<g id="edge2" class="edge">
<title>Node1&#45;&gt;Node3</title>
<path fill="none" stroke="midnightblue" d="M132.63,-48C124.16,-48 115.43,-48 107.02,-48"/>
<polygon fill="midnightblue" stroke="midnightblue" points="132.8,-51.5 142.8,-48 132.8,-44.5 132.8,-51.5"/>
</g>
<!-- Node4 -->
<g id="node4" class="node">
<title>Node4</title>
<g id="a_node4"><a xlink:href="tests_2allocators_8cpp_a1837b5eb3f1a85c0c59ad6405738e398.html#a1837b5eb3f1a85c0c59ad6405738e398" target="_top" xlink:title="Unittest that checks that allocating 0 bytes collectively is allowed.">
<polygon fill="white" stroke="black" points="27.5,-0.5 27.5,-19.5 79.5,-19.5 79.5,-0.5 27.5,-0.5"/>
<text text-anchor="middle" x="53.5" y="-7.5" font-family="Helvetica,sans-Serif" font-size="10.00">TEST_F</text>
</a>
</g>
</g>
<!-- Node1&#45;&gt;Node4 -->
<g id="edge3" class="edge">
<title>Node1&#45;&gt;Node4</title>
<path fill="none" stroke="midnightblue" d="M144.45,-35.6C123.03,-29.51 97.97,-22.37 79.75,-17.19"/>
<polygon fill="midnightblue" stroke="midnightblue" points="143.74,-39.04 154.31,-38.41 145.65,-32.31 143.74,-39.04"/>
</g>
</g>
</svg>
