<?xml version="1.0" encoding="UTF-8" standalone="no"?>
<!DOCTYPE svg PUBLIC "-//W3C//DTD SVG 1.1//EN"
 "http://www.w3.org/Graphics/SVG/1.1/DTD/svg11.dtd">
<!-- Generated by graphviz version 2.43.0 (0)
 -->
<!-- Title: dynamic_free Pages: 1 -->
<svg width="321pt" height="104pt"
 viewBox="0.00 0.00 321.00 104.00" xmlns="http://www.w3.org/2000/svg" xmlns:xlink="http://www.w3.org/1999/xlink">
<g id="graph0" class="graph" transform="scale(1 1) rotate(0) translate(4 100)">
<title>dynamic_free</title>
<polygon fill="white" stroke="transparent" points="-4,4 -4,-100 317,-100 317,4 -4,4"/>
<!-- Node1 -->
<g id="node1" class="node">
<title>Node1</title>
<g id="a_node1"><a xlink:title="basic free function for dynamic allocations, for C interface">
<polygon fill="#bfbfbf" stroke="black" points="230,-38.5 230,-57.5 313,-57.5 313,-38.5 230,-38.5"/>
<text text-anchor="middle" x="271.5" y="-45.5" font-family="Helvetica,sans-Serif" font-size="10.00">dynamic_free</text>
</a>
</g>
</g>
<!-- Node2 -->
<g id="node2" class="node">
<title>Node2</title>
<g id="a_node2"><a xlink:href="namespaceargo_a084a7639e719e866e4f0e88af71f6dff.html#a084a7639e719e866e4f0e88af71f6dff" target="_top" xlink:title="template function to delete objects that were allocated using dynamic_new">
<polygon fill="white" stroke="black" points="101,-76.5 101,-95.5 181,-95.5 181,-76.5 101,-76.5"/>
<text text-anchor="middle" x="141" y="-83.5" font-family="Helvetica,sans-Serif" font-size="10.00">argo::delete_</text>
</a>
</g>
</g>
<!-- Node1&#45;&gt;Node2 -->
<g id="edge1" class="edge">
<title>Node1&#45;&gt;Node2</title>
<path fill="none" stroke="midnightblue" d="M228.11,-60.54C210.63,-65.7 190.7,-71.6 174.42,-76.41"/>
<polygon fill="midnightblue" stroke="midnightblue" points="229.48,-63.78 238.07,-57.59 227.49,-57.07 229.48,-63.78"/>
</g>
<!-- Node3 -->
<g id="node3" class="node">
<title>Node3</title>
<g id="a_node3"><a xlink:href="tests_2allocators_8cpp_a13fc720238a04e385587d7b2cef0f3bc.html#a13fc720238a04e385587d7b2cef0f3bc" target="_top" xlink:title="Test if it is possible to delete a null pointer with no errors.">
<polygon fill="white" stroke="black" points="0,-57.5 0,-76.5 52,-76.5 52,-57.5 0,-57.5"/>
<text text-anchor="middle" x="26" y="-64.5" font-family="Helvetica,sans-Serif" font-size="10.00">TEST_F</text>
</a>
</g>
</g>
<!-- Node1&#45;&gt;Node3 -->
<g id="edge5" class="edge">
<title>Node1&#45;&gt;Node3</title>
<path fill="none" stroke="midnightblue" d="M219.55,-51.98C168.35,-55.97 91.56,-61.96 52.21,-65.03"/>
<polygon fill="midnightblue" stroke="midnightblue" points="220.05,-55.45 229.74,-51.18 219.5,-48.47 220.05,-55.45"/>
</g>
<!-- Node4 -->
<g id="node4" class="node">
<title>Node4</title>
<g id="a_node4"><a xlink:href="namespaceargo_aeb7666a0539b817876610d8eaaf38566.html#aeb7666a0539b817876610d8eaaf38566" target="_top" xlink:title="Delete a globally allocated array of object.">
<polygon fill="white" stroke="black" points="88,-0.5 88,-19.5 194,-19.5 194,-0.5 88,-0.5"/>
<text text-anchor="middle" x="141" y="-7.5" font-family="Helvetica,sans-Serif" font-size="10.00">argo::delete_array</text>
</a>
</g>
</g>
<!-- Node1&#45;&gt;Node4 -->
<g id="edge3" class="edge">
<title>Node1&#45;&gt;Node4</title>
<path fill="none" stroke="midnightblue" d="M228.11,-35.46C210.63,-30.3 190.7,-24.4 174.42,-19.59"/>
<polygon fill="midnightblue" stroke="midnightblue" points="227.49,-38.93 238.07,-38.41 229.48,-32.22 227.49,-38.93"/>
</g>
<!-- Node2&#45;&gt;Node3 -->
<g id="edge2" class="edge">
<title>Node2&#45;&gt;Node3</title>
<path fill="none" stroke="midnightblue" d="M90.8,-77.73C77.53,-75.5 63.71,-73.17 52.34,-71.26"/>
<polygon fill="midnightblue" stroke="midnightblue" points="90.35,-81.2 100.8,-79.41 91.51,-74.3 90.35,-81.2"/>
</g>
<!-- Node5 -->
<g id="node5" class="node">
<title>Node5</title>
<g id="a_node5"><a xlink:href="tests_2allocators_8cpp_a0571f7229f019db2f46d8f56bebd01d0.html#a0571f7229f019db2f46d8f56bebd01d0" target="_top" xlink:title="mixes dynamic and collective allocation and stores dynamic arrays in a collective arrays to communica...">
<polygon fill="white" stroke="black" points="0,-0.5 0,-19.5 52,-19.5 52,-0.5 0,-0.5"/>
<text text-anchor="middle" x="26" y="-7.5" font-family="Helvetica,sans-Serif" font-size="10.00">TEST_F</text>
</a>
</g>
</g>
<!-- Node4&#45;&gt;Node5 -->
<g id="edge4" class="edge">
<title>Node4&#45;&gt;Node5</title>
<path fill="none" stroke="midnightblue" d="M77.64,-10C68.66,-10 59.89,-10 52.24,-10"/>
<polygon fill="midnightblue" stroke="midnightblue" points="77.8,-13.5 87.8,-10 77.8,-6.5 77.8,-13.5"/>
</g>
</g>
</svg>
