<?xml version="1.0" encoding="UTF-8" standalone="no"?>
<!DOCTYPE svg PUBLIC "-//W3C//DTD SVG 1.1//EN"
 "http://www.w3.org/Graphics/SVG/1.1/DTD/svg11.dtd">
<!-- Generated by graphviz version 2.43.0 (0)
 -->
<!-- Title: collective_free Pages: 1 -->
<svg width="417pt" height="116pt"
 viewBox="0.00 0.00 417.00 115.50" xmlns="http://www.w3.org/2000/svg" xmlns:xlink="http://www.w3.org/1999/xlink">
<g id="graph0" class="graph" transform="scale(1 1) rotate(0) translate(4 111.5)">
<title>collective_free</title>
<polygon fill="white" stroke="transparent" points="-4,4 -4,-111.5 413,-111.5 413,4 -4,4"/>
<!-- Node1 -->
<g id="node1" class="node">
<title>Node1</title>
<g id="a_node1"><a xlink:title="basic free function for collective allocations, for C interface">
<polygon fill="#bfbfbf" stroke="black" points="320,-38.5 320,-57.5 409,-57.5 409,-38.5 320,-38.5"/>
<text text-anchor="middle" x="364.5" y="-45.5" font-family="Helvetica,sans-Serif" font-size="10.00">collective_free</text>
</a>
</g>
</g>
<!-- Node2 -->
<g id="node2" class="node">
<title>Node2</title>
<g id="a_node2"><a xlink:href="namespaceargo_a09ca0ec2df9dbed721fb14b26cfa39a3.html#a09ca0ec2df9dbed721fb14b26cfa39a3" target="_top" xlink:title="template function to delete objects that were allocated using collective_new">
<polygon fill="white" stroke="black" points="179.5,-76.5 179.5,-95.5 271.5,-95.5 271.5,-76.5 179.5,-76.5"/>
<text text-anchor="middle" x="225.5" y="-83.5" font-family="Helvetica,sans-Serif" font-size="10.00">argo::codelete_</text>
</a>
</g>
</g>
<!-- Node1&#45;&gt;Node2 -->
<g id="edge1" class="edge">
<title>Node1&#45;&gt;Node2</title>
<path fill="none" stroke="midnightblue" d="M319.09,-60.32C300.27,-65.54 278.66,-71.53 261.06,-76.41"/>
<polygon fill="midnightblue" stroke="midnightblue" points="320.23,-63.63 328.93,-57.59 318.36,-56.89 320.23,-63.63"/>
</g>
<!-- Node4 -->
<g id="node4" class="node">
<title>Node4</title>
<g id="a_node4"><a xlink:href="tests_2allocators_8cpp_a13fc720238a04e385587d7b2cef0f3bc.html#a13fc720238a04e385587d7b2cef0f3bc" target="_top" xlink:title="Test if it is possible to delete a null pointer with no errors.">
<polygon fill="white" stroke="black" points="39.5,-38.5 39.5,-57.5 91.5,-57.5 91.5,-38.5 39.5,-38.5"/>
<text text-anchor="middle" x="65.5" y="-45.5" font-family="Helvetica,sans-Serif" font-size="10.00">TEST_F</text>
</a>
</g>
</g>
<!-- Node1&#45;&gt;Node4 -->
<g id="edge6" class="edge">
<title>Node1&#45;&gt;Node4</title>
<path fill="none" stroke="midnightblue" d="M309.62,-48C245.09,-48 139.71,-48 91.73,-48"/>
<polygon fill="midnightblue" stroke="midnightblue" points="310,-51.5 320,-48 310,-44.5 310,-51.5"/>
</g>
<!-- Node5 -->
<g id="node5" class="node">
<title>Node5</title>
<g id="a_node5"><a xlink:href="namespaceargo_aa7e8ddf5784dd37c965cfd43cd65a330.html#aa7e8ddf5784dd37c965cfd43cd65a330" target="_top" xlink:title="Delete a globally collectively allocated array of objects.">
<polygon fill="white" stroke="black" points="167,-0.5 167,-19.5 284,-19.5 284,-0.5 167,-0.5"/>
<text text-anchor="middle" x="225.5" y="-7.5" font-family="Helvetica,sans-Serif" font-size="10.00">argo::codelete_array</text>
</a>
</g>
</g>
<!-- Node1&#45;&gt;Node5 -->
<g id="edge4" class="edge">
<title>Node1&#45;&gt;Node5</title>
<path fill="none" stroke="midnightblue" d="M319.09,-35.68C300.27,-30.46 278.66,-24.47 261.06,-19.59"/>
<polygon fill="midnightblue" stroke="midnightblue" points="318.36,-39.11 328.93,-38.41 320.23,-32.37 318.36,-39.11"/>
</g>
<!-- Node3 -->
<g id="node3" class="node">
<title>Node3</title>
<g id="a_node3"><a xlink:href="classargo_1_1globallock_1_1cohort__lock_a48e63a5ba24a93d3799a3993c663a30b.html#a48e63a5ba24a93d3799a3993c663a30b" target="_top" xlink:title=" ">
<polygon fill="white" stroke="black" points="0,-77 0,-107 131,-107 131,-77 0,-77"/>
<text text-anchor="start" x="8" y="-95" font-family="Helvetica,sans-Serif" font-size="10.00">argo::globallock::cohort</text>
<text text-anchor="middle" x="65.5" y="-84" font-family="Helvetica,sans-Serif" font-size="10.00">_lock::~cohort_lock</text>
</a>
</g>
</g>
<!-- Node2&#45;&gt;Node3 -->
<g id="edge2" class="edge">
<title>Node2&#45;&gt;Node3</title>
<path fill="none" stroke="midnightblue" d="M169.15,-88.1C156.9,-88.57 143.8,-89.06 131.21,-89.54"/>
<polygon fill="midnightblue" stroke="midnightblue" points="169.36,-91.6 179.22,-87.72 169.1,-84.6 169.36,-91.6"/>
</g>
<!-- Node2&#45;&gt;Node4 -->
<g id="edge3" class="edge">
<title>Node2&#45;&gt;Node4</title>
<path fill="none" stroke="midnightblue" d="M174.72,-74.03C147.05,-67.37 113.81,-59.38 91.54,-54.02"/>
<polygon fill="midnightblue" stroke="midnightblue" points="174.09,-77.48 184.63,-76.41 175.73,-70.67 174.09,-77.48"/>
</g>
<!-- Node6 -->
<g id="node6" class="node">
<title>Node6</title>
<g id="a_node6"><a xlink:href="tests_2allocators_8cpp_a0571f7229f019db2f46d8f56bebd01d0.html#a0571f7229f019db2f46d8f56bebd01d0" target="_top" xlink:title="mixes dynamic and collective allocation and stores dynamic arrays in a collective arrays to communica...">
<polygon fill="white" stroke="black" points="39.5,-0.5 39.5,-19.5 91.5,-19.5 91.5,-0.5 39.5,-0.5"/>
<text text-anchor="middle" x="65.5" y="-7.5" font-family="Helvetica,sans-Serif" font-size="10.00">TEST_F</text>
</a>
</g>
</g>
<!-- Node5&#45;&gt;Node6 -->
<g id="edge5" class="edge">
<title>Node5&#45;&gt;Node6</title>
<path fill="none" stroke="midnightblue" d="M156.48,-10C133.53,-10 109.32,-10 91.8,-10"/>
<polygon fill="midnightblue" stroke="midnightblue" points="156.56,-13.5 166.56,-10 156.56,-6.5 156.56,-13.5"/>
</g>
</g>
</svg>
