<?xml version="1.0" encoding="UTF-8" standalone="no"?>
<!DOCTYPE svg PUBLIC "-//W3C//DTD SVG 1.1//EN"
 "http://www.w3.org/Graphics/SVG/1.1/DTD/svg11.dtd">
<!-- Generated by graphviz version 2.43.0 (0)
 -->
<!-- Title: dynamic_alloc Pages: 1 -->
<svg width="226pt" height="104pt"
 viewBox="0.00 0.00 226.00 104.00" xmlns="http://www.w3.org/2000/svg" xmlns:xlink="http://www.w3.org/1999/xlink">
<g id="graph0" class="graph" transform="scale(1 1) rotate(0) translate(4 100)">
<title>dynamic_alloc</title>
<polygon fill="white" stroke="transparent" points="-4,4 -4,-100 222,-100 222,4 -4,4"/>
<!-- Node1 -->
<g id="node1" class="node">
<title>Node1</title>
<g id="a_node1"><a xlink:title="dynamic allocation function, for C interface">
<polygon fill="#bfbfbf" stroke="black" points="131,-38.5 131,-57.5 218,-57.5 218,-38.5 131,-38.5"/>
<text text-anchor="middle" x="174.5" y="-45.5" font-family="Helvetica,sans-Serif" font-size="10.00">dynamic_alloc</text>
</a>
</g>
</g>
<!-- Node2 -->
<g id="node2" class="node">
<title>Node2</title>
<g id="a_node2"><a xlink:href="namespaceargo_abf8f4f896d56dcc711d50e395ff02bf6.html#abf8f4f896d56dcc711d50e395ff02bf6" target="_top" xlink:title="template function to construct new objects">
<polygon fill="white" stroke="black" points="12.5,-76.5 12.5,-95.5 82.5,-95.5 82.5,-76.5 12.5,-76.5"/>
<text text-anchor="middle" x="47.5" y="-83.5" font-family="Helvetica,sans-Serif" font-size="10.00">argo::new_</text>
</a>
</g>
</g>
<!-- Node1&#45;&gt;Node2 -->
<g id="edge1" class="edge">
<title>Node1&#45;&gt;Node2</title>
<path fill="none" stroke="midnightblue" d="M132.27,-60.54C115.26,-65.7 95.87,-71.6 80.03,-76.41"/>
<polygon fill="midnightblue" stroke="midnightblue" points="133.41,-63.85 141.96,-57.59 131.37,-57.15 133.41,-63.85"/>
</g>
<!-- Node3 -->
<g id="node3" class="node">
<title>Node3</title>
<g id="a_node3"><a xlink:href="namespaceargo_a9fef671adb114cd54a04a846d5a860dd.html#a9fef671adb114cd54a04a846d5a860dd" target="_top" xlink:title="Construct a new array of objects in the global memory.">
<polygon fill="white" stroke="black" points="0,-38.5 0,-57.5 95,-57.5 95,-38.5 0,-38.5"/>
<text text-anchor="middle" x="47.5" y="-45.5" font-family="Helvetica,sans-Serif" font-size="10.00">argo::new_array</text>
</a>
</g>
</g>
<!-- Node1&#45;&gt;Node3 -->
<g id="edge2" class="edge">
<title>Node1&#45;&gt;Node3</title>
<path fill="none" stroke="midnightblue" d="M120.69,-48C112.24,-48 103.55,-48 95.26,-48"/>
<polygon fill="midnightblue" stroke="midnightblue" points="120.83,-51.5 130.83,-48 120.83,-44.5 120.83,-51.5"/>
</g>
<!-- Node4 -->
<g id="node4" class="node">
<title>Node4</title>
<g id="a_node4"><a xlink:href="tests_2allocators_8cpp_a100f23c9297b2b8356f61ededc2431a5.html#a100f23c9297b2b8356f61ededc2431a5" target="_top" xlink:title="Unittest that checks that allocating 0 bytes dynamically by all nodes is allowed.">
<polygon fill="white" stroke="black" points="21.5,-0.5 21.5,-19.5 73.5,-19.5 73.5,-0.5 21.5,-0.5"/>
<text text-anchor="middle" x="47.5" y="-7.5" font-family="Helvetica,sans-Serif" font-size="10.00">TEST_F</text>
</a>
</g>
</g>
<!-- Node1&#45;&gt;Node4 -->
<g id="edge3" class="edge">
<title>Node1&#45;&gt;Node4</title>
<path fill="none" stroke="midnightblue" d="M132.18,-35.44C112.87,-29.57 90.49,-22.77 73.74,-17.67"/>
<polygon fill="midnightblue" stroke="midnightblue" points="131.37,-38.85 141.96,-38.41 133.41,-32.15 131.37,-38.85"/>
</g>
</g>
</svg>
