<?xml version="1.0" encoding="UTF-8" standalone="no"?>
<!DOCTYPE svg PUBLIC "-//W3C//DTD SVG 1.1//EN"
 "http://www.w3.org/Graphics/SVG/1.1/DTD/svg11.dtd">
<!-- Generated by graphviz version 2.43.0 (0)
 -->
<!-- Title: collective_alloc Pages: 1 -->
<svg width="440pt" height="39pt"
 viewBox="0.00 0.00 440.00 39.00" xmlns="http://www.w3.org/2000/svg" xmlns:xlink="http://www.w3.org/1999/xlink">
<g id="graph0" class="graph" transform="scale(1 1) rotate(0) translate(4 35)">
<title>collective_alloc</title>
<polygon fill="white" stroke="transparent" points="-4,4 -4,-35 436,-35 436,4 -4,4"/>
<!-- Node1 -->
<g id="node1" class="node">
<title>Node1</title>
<g id="a_node1"><a xlink:title="basic collective allocation function, for C interface">
<polygon fill="#bfbfbf" stroke="black" points="0,-6 0,-25 92,-25 92,-6 0,-6"/>
<text text-anchor="middle" x="46" y="-13" font-family="Helvetica,sans-Serif" font-size="10.00">collective_alloc</text>
</a>
</g>
</g>
<!-- Node2 -->
<g id="node2" class="node">
<title>Node2</title>
<g id="a_node2"><a xlink:href="classargo_1_1allocators_1_1generic__allocator_ae0df0734076478aeaeb689cdb902497a.html#ae0df0734076478aeaeb689cdb902497a" target="_top" xlink:title="Allocate memory.">
<polygon fill="white" stroke="black" points="128,-0.5 128,-30.5 262,-30.5 262,-0.5 128,-0.5"/>
<text text-anchor="start" x="136" y="-18.5" font-family="Helvetica,sans-Serif" font-size="10.00">argo::allocators::generic</text>
<text text-anchor="middle" x="195" y="-7.5" font-family="Helvetica,sans-Serif" font-size="10.00">_allocator::allocate</text>
</a>
</g>
</g>
<!-- Node1&#45;&gt;Node2 -->
<g id="edge1" class="edge">
<title>Node1&#45;&gt;Node2</title>
<path fill="none" stroke="midnightblue" d="M92.3,-15.5C100.37,-15.5 108.97,-15.5 117.62,-15.5"/>
<polygon fill="midnightblue" stroke="midnightblue" points="117.77,-19 127.77,-15.5 117.77,-12 117.77,-19"/>
</g>
<!-- Node3 -->
<g id="node3" class="node">
<title>Node3</title>
<g id="a_node3"><a xlink:href="classargo_1_1allocators_1_1generic__allocator_a3a6c4c5d83d679ce7fbfe1a50f323545.html#a3a6c4c5d83d679ce7fbfe1a50f323545" target="_top" xlink:title="helper function to align a number up to the next alignment">
<polygon fill="white" stroke="black" points="298,-0.5 298,-30.5 432,-30.5 432,-0.5 298,-0.5"/>
<text text-anchor="start" x="306" y="-18.5" font-family="Helvetica,sans-Serif" font-size="10.00">argo::allocators::generic</text>
<text text-anchor="middle" x="365" y="-7.5" font-family="Helvetica,sans-Serif" font-size="10.00">_allocator::align_up</text>
</a>
</g>
</g>
<!-- Node2&#45;&gt;Node3 -->
<g id="edge2" class="edge">
<title>Node2&#45;&gt;Node3</title>
<path fill="none" stroke="midnightblue" d="M262.4,-15.5C270.68,-15.5 279.2,-15.5 287.62,-15.5"/>
<polygon fill="midnightblue" stroke="midnightblue" points="287.81,-19 297.81,-15.5 287.81,-12 287.81,-19"/>
</g>
</g>
</svg>
