<?xml version="1.0" encoding="UTF-8" standalone="no"?>
<!DOCTYPE svg PUBLIC "-//W3C//DTD SVG 1.1//EN"
 "http://www.w3.org/Graphics/SVG/1.1/DTD/svg11.dtd">
<!-- Generated by graphviz version 2.43.0 (0)
 -->
<!-- Title: argo::locallock::mcs_lock::mcs_node Pages: 1 -->
<svg width="296pt" height="273pt"
 viewBox="0.00 0.00 295.50 273.00" xmlns="http://www.w3.org/2000/svg" xmlns:xlink="http://www.w3.org/1999/xlink">
<g id="graph0" class="graph" transform="scale(1 1) rotate(0) translate(4 269)">
<title>argo::locallock::mcs_lock::mcs_node</title>
<polygon fill="white" stroke="transparent" points="-4,4 -4,-269 291.5,-269 291.5,4 -4,4"/>
<!-- Node1 -->
<g id="node1" class="node">
<title>Node1</title>
<g id="a_node1"><a xlink:title="Thread nodes for the lock.">
<polygon fill="#bfbfbf" stroke="black" points="66.5,-0.5 66.5,-30.5 180.5,-30.5 180.5,-0.5 66.5,-0.5"/>
<text text-anchor="start" x="74.5" y="-18.5" font-family="Helvetica,sans-Serif" font-size="10.00">argo::locallock::mcs</text>
<text text-anchor="middle" x="123.5" y="-7.5" font-family="Helvetica,sans-Serif" font-size="10.00">_lock::mcs_node</text>
</a>
</g>
</g>
<!-- Node2 -->
<g id="node2" class="node">
<title>Node2</title>
<g id="a_node2"><a xlink:title=" ">
<polygon fill="white" stroke="#bfbfbf" points="0,-89.5 0,-108.5 115,-108.5 115,-89.5 0,-89.5"/>
<text text-anchor="middle" x="57.5" y="-96.5" font-family="Helvetica,sans-Serif" font-size="10.00">std::atomic&lt; bool &gt;</text>
</a>
</g>
</g>
<!-- Node2&#45;&gt;Node1 -->
<g id="edge1" class="edge">
<title>Node2&#45;&gt;Node1</title>
<path fill="none" stroke="#9a32cd" stroke-dasharray="5,2" d="M70.97,-81.37C83.07,-66.42 100.66,-44.71 112.08,-30.6"/>
<polygon fill="#9a32cd" stroke="#9a32cd" points="68.14,-79.3 64.56,-89.28 73.58,-83.71 68.14,-79.3"/>
<text text-anchor="middle" x="114" y="-52" font-family="Helvetica,sans-Serif" font-size="10.00"> locked</text>
</g>
<!-- Node3 -->
<g id="node3" class="node">
<title>Node3</title>
<g id="a_node3"><a xlink:title=" ">
<polygon fill="white" stroke="#bfbfbf" points="73.5,-178.5 73.5,-197.5 173.5,-197.5 173.5,-178.5 73.5,-178.5"/>
<text text-anchor="middle" x="123.5" y="-185.5" font-family="Helvetica,sans-Serif" font-size="10.00">std::atomic&lt; T &gt;</text>
</a>
</g>
</g>
<!-- Node3&#45;&gt;Node2 -->
<g id="edge2" class="edge">
<title>Node3&#45;&gt;Node2</title>
<path fill="none" stroke="orange" stroke-dasharray="5,2" d="M110.79,-170.24C96.81,-151.82 74.9,-122.93 64.04,-108.62"/>
<polygon fill="orange" stroke="orange" points="108.1,-172.49 116.93,-178.34 113.67,-168.26 108.1,-172.49"/>
<text text-anchor="middle" x="126" y="-146.5" font-family="Helvetica,sans-Serif" font-size="10.00"> &lt; bool &gt;</text>
</g>
<!-- Node5 -->
<g id="node5" class="node">
<title>Node5</title>
<g id="a_node5"><a xlink:title=" ">
<polygon fill="white" stroke="#bfbfbf" points="133.5,-78.5 133.5,-119.5 245.5,-119.5 245.5,-78.5 133.5,-78.5"/>
<text text-anchor="start" x="141.5" y="-107.5" font-family="Helvetica,sans-Serif" font-size="10.00">std::atomic&lt; argo::</text>
<text text-anchor="start" x="141.5" y="-96.5" font-family="Helvetica,sans-Serif" font-size="10.00">locallock::mcs_lock</text>
<text text-anchor="middle" x="189.5" y="-85.5" font-family="Helvetica,sans-Serif" font-size="10.00">::mcs_node * &gt;</text>
</a>
</g>
</g>
<!-- Node3&#45;&gt;Node5 -->
<g id="edge5" class="edge">
<title>Node3&#45;&gt;Node5</title>
<path fill="none" stroke="orange" stroke-dasharray="5,2" d="M141.22,-171.17C144.78,-167.64 148.39,-163.81 151.5,-160 161.79,-147.39 171.57,-131.83 178.63,-119.72"/>
<polygon fill="orange" stroke="orange" points="138.54,-168.88 133.67,-178.29 143.34,-173.97 138.54,-168.88"/>
<text text-anchor="start" x="166.5" y="-152" font-family="Helvetica,sans-Serif" font-size="10.00"> &lt; argo::locallock::</text>
<text text-anchor="middle" x="227" y="-141" font-family="Helvetica,sans-Serif" font-size="10.00">mcs_lock::mcs_node * &gt;</text>
</g>
<!-- Node4 -->
<g id="node4" class="node">
<title>Node4</title>
<g id="a_node4"><a xlink:title=" ">
<polygon fill="white" stroke="#bfbfbf" points="109,-245.5 109,-264.5 138,-264.5 138,-245.5 109,-245.5"/>
<text text-anchor="middle" x="123.5" y="-252.5" font-family="Helvetica,sans-Serif" font-size="10.00">T</text>
</a>
</g>
</g>
<!-- Node4&#45;&gt;Node3 -->
<g id="edge3" class="edge">
<title>Node4&#45;&gt;Node3</title>
<path fill="none" stroke="#9a32cd" stroke-dasharray="5,2" d="M123.5,-235.04C123.5,-222.67 123.5,-207.12 123.5,-197.63"/>
<polygon fill="#9a32cd" stroke="#9a32cd" points="120,-235.23 123.5,-245.23 127,-235.23 120,-235.23"/>
<text text-anchor="middle" x="132" y="-219" font-family="Helvetica,sans-Serif" font-size="10.00"> ptr</text>
</g>
<!-- Node5&#45;&gt;Node1 -->
<g id="edge4" class="edge">
<title>Node5&#45;&gt;Node1</title>
<path fill="none" stroke="#9a32cd" stroke-dasharray="5,2" d="M167.07,-70.31C156.29,-56.99 143.82,-41.59 134.99,-30.68"/>
<polygon fill="#9a32cd" stroke="#9a32cd" points="164.51,-72.7 173.52,-78.27 169.95,-68.3 164.51,-72.7"/>
<text text-anchor="middle" x="171" y="-52" font-family="Helvetica,sans-Serif" font-size="10.00"> next</text>
</g>
</g>
</svg>
