<?xml version="1.0" encoding="UTF-8" standalone="no"?>
<!DOCTYPE svg PUBLIC "-//W3C//DTD SVG 1.1//EN"
 "http://www.w3.org/Graphics/SVG/1.1/DTD/svg11.dtd">
<!-- Generated by graphviz version 2.43.0 (0)
 -->
<!-- Title: argo_statistics_struct Pages: 1 -->
<svg width="255pt" height="273pt"
 viewBox="0.00 0.00 254.50 273.00" xmlns="http://www.w3.org/2000/svg" xmlns:xlink="http://www.w3.org/1999/xlink">
<g id="graph0" class="graph" transform="scale(1 1) rotate(0) translate(4 269)">
<title>argo_statistics_struct</title>
<polygon fill="white" stroke="transparent" points="-4,4 -4,-269 250.5,-269 250.5,4 -4,4"/>
<!-- Node1 -->
<g id="node1" class="node">
<title>Node1</title>
<g id="a_node1"><a xlink:title="Struct containing statistics.">
<polygon fill="#bfbfbf" stroke="black" points="42,-0.5 42,-19.5 163,-19.5 163,-0.5 42,-0.5"/>
<text text-anchor="middle" x="102.5" y="-7.5" font-family="Helvetica,sans-Serif" font-size="10.00">argo_statistics_struct</text>
</a>
</g>
</g>
<!-- Node2 -->
<g id="node2" class="node">
<title>Node2</title>
<g id="a_node2"><a xlink:title=" ">
<polygon fill="white" stroke="#bfbfbf" points="0,-111.5 0,-130.5 69,-130.5 69,-111.5 0,-111.5"/>
<text text-anchor="middle" x="34.5" y="-118.5" font-family="Helvetica,sans-Serif" font-size="10.00">std::mutex</text>
</a>
</g>
</g>
<!-- Node2&#45;&gt;Node1 -->
<g id="edge1" class="edge">
<title>Node2&#45;&gt;Node1</title>
<path fill="none" stroke="#9a32cd" stroke-dasharray="5,2" d="M29.32,-101.65C25.43,-83.79 22.72,-56.68 35.5,-38 41.38,-29.41 50.49,-23.55 60.11,-19.56"/>
<polygon fill="#9a32cd" stroke="#9a32cd" points="25.94,-102.57 31.76,-111.42 32.73,-100.87 25.94,-102.57"/>
<text text-anchor="middle" x="92" y="-85" font-family="Helvetica,sans-Serif" font-size="10.00"> load_time_mutex</text>
<text text-anchor="middle" x="92" y="-74" font-family="Helvetica,sans-Serif" font-size="10.00">ssd_time_mutex</text>
<text text-anchor="middle" x="92" y="-63" font-family="Helvetica,sans-Serif" font-size="10.00">ssi_time_mutex</text>
<text text-anchor="middle" x="92" y="-52" font-family="Helvetica,sans-Serif" font-size="10.00">store_time_mutex</text>
<text text-anchor="middle" x="92" y="-41" font-family="Helvetica,sans-Serif" font-size="10.00">sync_lock_time_mutex</text>
</g>
<!-- Node3 -->
<g id="node3" class="node">
<title>Node3</title>
<g id="a_node3"><a xlink:title=" ">
<polygon fill="white" stroke="#bfbfbf" points="99,-111.5 99,-130.5 242,-130.5 242,-111.5 99,-111.5"/>
<text text-anchor="middle" x="170.5" y="-118.5" font-family="Helvetica,sans-Serif" font-size="10.00">std::atomic&lt; std::size_t &gt;</text>
</a>
</g>
</g>
<!-- Node3&#45;&gt;Node1 -->
<g id="edge2" class="edge">
<title>Node3&#45;&gt;Node1</title>
<path fill="none" stroke="#9a32cd" stroke-dasharray="5,2" d="M169.51,-101.38C167.7,-83.5 162.64,-56.55 148.5,-38 142.44,-30.04 133.3,-24 124.77,-19.66"/>
<polygon fill="#9a32cd" stroke="#9a32cd" points="166.02,-101.7 170.28,-111.41 173,-101.17 166.02,-101.7"/>
<text text-anchor="middle" x="200" y="-68.5" font-family="Helvetica,sans-Serif" font-size="10.00"> read_misses</text>
<text text-anchor="middle" x="200" y="-57.5" font-family="Helvetica,sans-Serif" font-size="10.00">write_misses</text>
</g>
<!-- Node4 -->
<g id="node4" class="node">
<title>Node4</title>
<g id="a_node4"><a xlink:title=" ">
<polygon fill="white" stroke="#bfbfbf" points="120.5,-178.5 120.5,-197.5 220.5,-197.5 220.5,-178.5 120.5,-178.5"/>
<text text-anchor="middle" x="170.5" y="-185.5" font-family="Helvetica,sans-Serif" font-size="10.00">std::atomic&lt; T &gt;</text>
</a>
</g>
</g>
<!-- Node4&#45;&gt;Node3 -->
<g id="edge3" class="edge">
<title>Node4&#45;&gt;Node3</title>
<path fill="none" stroke="orange" stroke-dasharray="5,2" d="M170.5,-168.04C170.5,-155.67 170.5,-140.12 170.5,-130.63"/>
<polygon fill="orange" stroke="orange" points="167,-168.23 170.5,-178.23 174,-168.23 167,-168.23"/>
<text text-anchor="middle" x="208.5" y="-152" font-family="Helvetica,sans-Serif" font-size="10.00"> &lt; std::size_t &gt;</text>
</g>
<!-- Node5 -->
<g id="node5" class="node">
<title>Node5</title>
<g id="a_node5"><a xlink:title=" ">
<polygon fill="white" stroke="#bfbfbf" points="156,-245.5 156,-264.5 185,-264.5 185,-245.5 156,-245.5"/>
<text text-anchor="middle" x="170.5" y="-252.5" font-family="Helvetica,sans-Serif" font-size="10.00">T</text>
</a>
</g>
</g>
<!-- Node5&#45;&gt;Node4 -->
<g id="edge4" class="edge">
<title>Node5&#45;&gt;Node4</title>
<path fill="none" stroke="#9a32cd" stroke-dasharray="5,2" d="M170.5,-235.04C170.5,-222.67 170.5,-207.12 170.5,-197.63"/>
<polygon fill="#9a32cd" stroke="#9a32cd" points="167,-235.23 170.5,-245.23 174,-235.23 167,-235.23"/>
<text text-anchor="middle" x="179" y="-219" font-family="Helvetica,sans-Serif" font-size="10.00"> ptr</text>
</g>
</g>
</svg>
