<?xml version="1.0" encoding="UTF-8" standalone="no"?>
<!DOCTYPE svg PUBLIC "-//W3C//DTD SVG 1.1//EN"
 "http://www.w3.org/Graphics/SVG/1.1/DTD/svg11.dtd">
<!-- Generated by graphviz version 2.43.0 (0)
 -->
<!-- Title: load_cache_entry Pages: 1 -->
<!--zoomable 610 -->
<svg id="main" version="1.1" xmlns="http://www.w3.org/2000/svg" xmlns:xlink="http://www.w3.org/1999/xlink" xml:space="preserve" onload="init(evt)">
<style type="text/css"><![CDATA[
.edge:hover path { stroke: red; }
.edge:hover polygon { stroke: red; fill: red; }
]]></style>
<script type="text/javascript"><![CDATA[
var edges = document.getElementsByTagName('g');
if (edges && edges.length) {
  for (var i=0;i<edges.length;i++) {
    if (edges[i].id.substr(0,4)=='edge') {
      edges[i].setAttribute('class','edge');
    }
  }
}
]]></script>
        <defs>
                <circle id="rim" cx="0" cy="0" r="7"/>
                <circle id="rim2" cx="0" cy="0" r="3.5"/>
                <g id="zoomPlus">
                        <use xlink:href="#rim" fill="#404040">
                                <set attributeName="fill" to="#808080" begin="zoomplus.mouseover" end="zoomplus.mouseout"/>
                        </use>
                        <path d="M-4,0h8M0,-4v8" fill="none" stroke="white" stroke-width="1.5" pointer-events="none"/>
                </g>
                <g id="zoomMin">
                        <use xlink:href="#rim" fill="#404040">
                                <set attributeName="fill" to="#808080" begin="zoomminus.mouseover" end="zoomminus.mouseout"/>
                        </use>
                        <path d="M-4,0h8" fill="none" stroke="white" stroke-width="1.5" pointer-events="none"/>
                </g>
                <g id="dirArrow">
                        <path fill="none" stroke="white" stroke-width="1.5" d="M0,-3.0v7 M-2.5,-0.5L0,-3.0L2.5,-0.5"/>
                </g>
               <g id="resetDef">
                       <use xlink:href="#rim2" fill="#404040">
                               <set attributeName="fill" to="#808080" begin="reset.mouseover" end="reset.mouseout"/>
                       </use>
               </g>
        </defs>

<script type="text/javascript">
var viewWidth = 914;
var viewHeight = 610;
var sectionId = 'dynsection-0';
</script>
<script xlink:href="svgpan.js"/>
<svg id="graph" class="graph">
<g id="viewport">
<title>load_cache_entry</title>
<polygon fill="white" stroke="transparent" points="-4,4 -4,-606 910,-606 910,4 -4,4"/>
<!-- Node1 -->
<g id="node1" class="node">
<title>Node1</title>
<g id="a_node1"><a xlink:title="load into cache helper function">
<polygon fill="#bfbfbf" stroke="black" points="0,-285.5 0,-304.5 102,-304.5 102,-285.5 0,-285.5"/>
<text text-anchor="middle" x="51" y="-292.5" font-family="Helvetica,sans-Serif" font-size="10.00">load_cache_entry</text>
</a>
</g>
</g>
<!-- Node2 -->
<g id="node2" class="node">
<title>Node2</title>
<g id="a_node2"><a xlink:href="swdsm_8cpp_ad56e0108259917bf97090212b3927f55.html#ad56e0108259917bf97090212b3927f55" target="_top" xlink:title="align an offset into a memory region to the beginning of its size block">
<polygon fill="white" stroke="black" points="151,-582.5 151,-601.5 249,-601.5 249,-582.5 151,-582.5"/>
<text text-anchor="middle" x="200" y="-589.5" font-family="Helvetica,sans-Serif" font-size="10.00">align_backwards</text>
</a>
</g>
</g>
<!-- Node1&#45;&gt;Node2 -->
<g id="edge1" class="edge">
<title>Node1&#45;&gt;Node2</title>
<path fill="none" stroke="midnightblue" d="M51.96,-304.74C52.34,-344.21 59.13,-493.97 138,-573 139.44,-574.44 140.99,-575.78 142.62,-577.01"/>
<polygon fill="midnightblue" stroke="midnightblue" points="141.02,-580.13 151.38,-582.37 144.68,-574.16 141.02,-580.13"/>
</g>
<!-- Node3 -->
<g id="node3" class="node">
<title>Node3</title>
<g id="a_node3"><a xlink:href="swdsm_8cpp_aff9ea7ba7f37206d933c8dc8004dbc7b.html#aff9ea7ba7f37206d933c8dc8004dbc7b" target="_top" xlink:title="Gives an index to the sharer/writer vector depending on the address.">
<polygon fill="white" stroke="black" points="149.5,-533 149.5,-563 250.5,-563 250.5,-533 149.5,-533"/>
<text text-anchor="start" x="157.5" y="-551" font-family="Helvetica,sans-Serif" font-size="10.00">get_classification</text>
<text text-anchor="middle" x="200" y="-540" font-family="Helvetica,sans-Serif" font-size="10.00">_index</text>
</a>
</g>
</g>
<!-- Node1&#45;&gt;Node3 -->
<g id="edge2" class="edge">
<title>Node1&#45;&gt;Node3</title>
<path fill="none" stroke="midnightblue" d="M53.21,-304.79C57.87,-338.58 77.51,-451.87 138,-518 141.26,-521.57 145.04,-524.76 149.09,-527.61"/>
<polygon fill="midnightblue" stroke="midnightblue" points="147.37,-530.66 157.7,-532.98 151.07,-524.72 147.37,-530.66"/>
</g>
<!-- Node4 -->
<g id="node4" class="node">
<title>Node4</title>
<g id="a_node4"><a xlink:href="swdsm_8cpp_af5bb31046df1aef1cccf72f19fe63640.html#af5bb31046df1aef1cccf72f19fe63640" target="_top" xlink:title="Gets the data window index based on the offset into the node&#39;s backing store.">
<polygon fill="white" stroke="black" points="302.5,-484.5 302.5,-503.5 416.5,-503.5 416.5,-484.5 302.5,-484.5"/>
<text text-anchor="middle" x="359.5" y="-491.5" font-family="Helvetica,sans-Serif" font-size="10.00">get_data_win_index</text>
</a>
</g>
</g>
<!-- Node1&#45;&gt;Node4 -->
<g id="edge3" class="edge">
<title>Node1&#45;&gt;Node4</title>
<path fill="none" stroke="midnightblue" d="M53.99,-304.62C60.41,-333.14 83.49,-417.72 138,-457 182.45,-489.03 244.91,-496.99 292.01,-497.68"/>
<polygon fill="midnightblue" stroke="midnightblue" points="292.1,-501.18 302.12,-497.73 292.13,-494.18 292.1,-501.18"/>
</g>
<!-- Node5 -->
<g id="node5" class="node">
<title>Node5</title>
<g id="a_node5"><a xlink:href="swdsm_8cpp_a3f19b1fc7fe36a6eabdae48e53fb66fa.html#a3f19b1fc7fe36a6eabdae48e53fb66fa" target="_top" xlink:title="Gets the sharer window offset based on the classification index.">
<polygon fill="white" stroke="black" points="302,-437.5 302,-456.5 417,-456.5 417,-437.5 302,-437.5"/>
<text text-anchor="middle" x="359.5" y="-444.5" font-family="Helvetica,sans-Serif" font-size="10.00">get_data_win_offset</text>
</a>
</g>
</g>
<!-- Node1&#45;&gt;Node5 -->
<g id="edge4" class="edge">
<title>Node1&#45;&gt;Node5</title>
<path fill="none" stroke="midnightblue" d="M54.82,-304.69C62.89,-330.41 88.67,-400.41 138,-430 183.92,-457.54 245.24,-460.12 291.56,-456.76"/>
<polygon fill="midnightblue" stroke="midnightblue" points="292.12,-460.23 301.8,-455.91 291.54,-453.25 292.12,-460.23"/>
</g>
<!-- Node6 -->
<g id="node6" class="node">
<title>Node6</title>
<g id="a_node6"><a xlink:href="swdsm_8cpp_ab2e5fbbe4d1f44d25619f290dc37dd3e.html#ab2e5fbbe4d1f44d25619f290dc37dd3e" target="_top" xlink:title="Gives homenode for a given address.">
<polygon fill="white" stroke="black" points="315,-380.5 315,-399.5 404,-399.5 404,-380.5 315,-380.5"/>
<text text-anchor="middle" x="359.5" y="-387.5" font-family="Helvetica,sans-Serif" font-size="10.00">get_homenode</text>
</a>
</g>
</g>
<!-- Node1&#45;&gt;Node6 -->
<g id="edge5" class="edge">
<title>Node1&#45;&gt;Node6</title>
<path fill="none" stroke="midnightblue" d="M55.74,-304.75C65.27,-328.02 92.95,-386.56 138,-409 198.91,-439.35 281.08,-418.61 325.94,-402.95"/>
<polygon fill="midnightblue" stroke="midnightblue" points="327.24,-406.2 335.45,-399.51 324.85,-399.62 327.24,-406.2"/>
</g>
<!-- Node10 -->
<g id="node10" class="node">
<title>Node10</title>
<g id="a_node10"><a xlink:href="swdsm_8cpp_a974f1a03f5461bb989248cceb41cd95b.html#a974f1a03f5461bb989248cceb41cd95b" target="_top" xlink:title="Gets the offset of an address on the local nodes part of the global memory.">
<polygon fill="white" stroke="black" points="327,-342.5 327,-361.5 392,-361.5 392,-342.5 327,-342.5"/>
<text text-anchor="middle" x="359.5" y="-349.5" font-family="Helvetica,sans-Serif" font-size="10.00">get_offset</text>
</a>
</g>
</g>
<!-- Node1&#45;&gt;Node10 -->
<g id="edge9" class="edge">
<title>Node1&#45;&gt;Node10</title>
<path fill="none" stroke="midnightblue" d="M69.18,-304.63C86.11,-313.62 113.02,-326.59 138,-333 198.82,-348.59 271.83,-352.02 316.69,-352.46"/>
<polygon fill="midnightblue" stroke="midnightblue" points="316.9,-355.96 326.92,-352.51 316.94,-348.96 316.9,-355.96"/>
</g>
<!-- Node12 -->
<g id="node12" class="node">
<title>Node12</title>
<g id="a_node12"><a xlink:href="swdsm_8cpp_a7d0d0386804df222465aaa199aab92da.html#a7d0d0386804df222465aaa199aab92da" target="_top" xlink:title="Gets the sharer window index based on the classification index.">
<polygon fill="white" stroke="black" points="298,-95.5 298,-114.5 421,-114.5 421,-95.5 298,-95.5"/>
<text text-anchor="middle" x="359.5" y="-102.5" font-family="Helvetica,sans-Serif" font-size="10.00">get_sharer_win_index</text>
</a>
</g>
</g>
<!-- Node1&#45;&gt;Node12 -->
<g id="edge12" class="edge">
<title>Node1&#45;&gt;Node12</title>
<path fill="none" stroke="midnightblue" d="M52.88,-285.19C56.39,-252.53 72.58,-147.2 138,-105 192.4,-69.91 271.13,-81.18 318.32,-92.87"/>
<polygon fill="midnightblue" stroke="midnightblue" points="317.62,-96.3 328.18,-95.43 319.38,-89.53 317.62,-96.3"/>
</g>
<!-- Node13 -->
<g id="node13" class="node">
<title>Node13</title>
<g id="a_node13"><a xlink:href="swdsm_8cpp_af2592c5b9f7cd578cabc43f106e6b671.html#af2592c5b9f7cd578cabc43f106e6b671" target="_top" xlink:title="Gets the sharer window offset based on the classification index.">
<polygon fill="white" stroke="black" points="138,-304.5 138,-323.5 262,-323.5 262,-304.5 138,-304.5"/>
<text text-anchor="middle" x="200" y="-311.5" font-family="Helvetica,sans-Serif" font-size="10.00">get_sharer_win_offset</text>
</a>
</g>
</g>
<!-- Node1&#45;&gt;Node13 -->
<g id="edge13" class="edge">
<title>Node1&#45;&gt;Node13</title>
<path fill="none" stroke="midnightblue" d="M102.18,-301.49C110.43,-302.55 119.11,-303.67 127.76,-304.79"/>
<polygon fill="midnightblue" stroke="midnightblue" points="127.49,-308.29 137.86,-306.1 128.39,-301.34 127.49,-308.29"/>
</g>
<!-- Node14 -->
<g id="node14" class="node">
<title>Node14</title>
<g id="a_node14"><a xlink:href="swdsm_8cpp_a59e4c59c2940cc3727debeeff4af1889.html#a59e4c59c2940cc3727debeeff4af1889" target="_top" xlink:title="Gets cacheindex for a given address.">
<polygon fill="white" stroke="black" points="155.5,-266.5 155.5,-285.5 244.5,-285.5 244.5,-266.5 155.5,-266.5"/>
<text text-anchor="middle" x="200" y="-273.5" font-family="Helvetica,sans-Serif" font-size="10.00">getCacheIndex</text>
</a>
</g>
</g>
<!-- Node1&#45;&gt;Node14 -->
<g id="edge14" class="edge">
<title>Node1&#45;&gt;Node14</title>
<path fill="none" stroke="midnightblue" d="M102.18,-288.51C116.1,-286.72 131.27,-284.75 145.38,-282.93"/>
<polygon fill="midnightblue" stroke="midnightblue" points="145.96,-286.38 155.43,-281.63 145.06,-279.44 145.96,-286.38"/>
</g>
<!-- Node15 -->
<g id="node15" class="node">
<title>Node15</title>
<g id="a_node15"><a xlink:href="swdsm_8cpp_a20faabb614d49afd77911ebff37942a3.html#a20faabb614d49afd77911ebff37942a3" target="_top" xlink:title="Checks if its argument is 0 or power of 2.">
<polygon fill="white" stroke="black" points="147,-228.5 147,-247.5 253,-247.5 253,-228.5 147,-228.5"/>
<text text-anchor="middle" x="200" y="-235.5" font-family="Helvetica,sans-Serif" font-size="10.00">isZeroOrPowerOf2</text>
</a>
</g>
</g>
<!-- Node1&#45;&gt;Node15 -->
<g id="edge15" class="edge">
<title>Node1&#45;&gt;Node15</title>
<path fill="none" stroke="midnightblue" d="M71.89,-285.44C89.15,-277.32 114.92,-265.66 138,-257 143.86,-254.8 150.1,-252.65 156.27,-250.63"/>
<polygon fill="midnightblue" stroke="midnightblue" points="157.38,-253.95 165.84,-247.57 155.25,-247.28 157.38,-253.95"/>
</g>
<!-- Node16 -->
<g id="node16" class="node">
<title>Node16</title>
<g id="a_node16"><a xlink:href="classmpi__lock_a67301b26c3bb28c746e164c9f531d21d.html#a67301b26c3bb28c746e164c9f531d21d" target="_top" xlink:title="acquire mpi_lock">
<polygon fill="white" stroke="black" points="316,-190.5 316,-209.5 403,-209.5 403,-190.5 316,-190.5"/>
<text text-anchor="middle" x="359.5" y="-197.5" font-family="Helvetica,sans-Serif" font-size="10.00">mpi_lock::lock</text>
</a>
</g>
</g>
<!-- Node1&#45;&gt;Node16 -->
<g id="edge16" class="edge">
<title>Node1&#45;&gt;Node16</title>
<path fill="none" stroke="midnightblue" d="M59.26,-285.42C72.69,-268.55 103.2,-233.91 138,-219 191.85,-195.93 259.77,-193.6 305.9,-195.49"/>
<polygon fill="midnightblue" stroke="midnightblue" points="305.82,-198.99 315.98,-195.98 306.16,-192 305.82,-198.99"/>
</g>
<!-- Node17 -->
<g id="node17" class="node">
<title>Node17</title>
<g id="a_node17"><a xlink:href="swdsm_8cpp_ac2a76a52d43c19cf7d5ed770e14c4409.html#ac2a76a52d43c19cf7d5ed770e14c4409" target="_top" xlink:title="Gives homenode for a given address.">
<polygon fill="white" stroke="black" points="151,-38.5 151,-57.5 249,-57.5 249,-38.5 151,-38.5"/>
<text text-anchor="middle" x="200" y="-45.5" font-family="Helvetica,sans-Serif" font-size="10.00">peek_homenode</text>
</a>
</g>
</g>
<!-- Node1&#45;&gt;Node17 -->
<g id="edge17" class="edge">
<title>Node1&#45;&gt;Node17</title>
<path fill="none" stroke="midnightblue" d="M52.96,-285.5C56.87,-251.7 74.55,-135.89 138,-72 141.91,-68.06 146.54,-64.76 151.48,-61.98"/>
<polygon fill="midnightblue" stroke="midnightblue" points="153.15,-65.06 160.61,-57.54 150.09,-58.77 153.15,-65.06"/>
</g>
<!-- Node19 -->
<g id="node19" class="node">
<title>Node19</title>
<g id="a_node19"><a xlink:href="swdsm_8cpp_aa5da42b70088b546b0f16d0a8031cfd1.html#aa5da42b70088b546b0f16d0a8031cfd1" target="_top" xlink:title="Gets the offset of an address on the local nodes part of the global memory.">
<polygon fill="white" stroke="black" points="163,-0.5 163,-19.5 237,-19.5 237,-0.5 163,-0.5"/>
<text text-anchor="middle" x="200" y="-7.5" font-family="Helvetica,sans-Serif" font-size="10.00">peek_offset</text>
</a>
</g>
</g>
<!-- Node1&#45;&gt;Node19 -->
<g id="edge20" class="edge">
<title>Node1&#45;&gt;Node19</title>
<path fill="none" stroke="midnightblue" d="M52.11,-285.42C53.1,-247.22 61.92,-104.27 138,-29 142.34,-24.7 147.64,-21.37 153.29,-18.8"/>
<polygon fill="midnightblue" stroke="midnightblue" points="154.88,-21.94 163,-15.13 152.41,-15.39 154.88,-21.94"/>
</g>
<!-- Node21 -->
<g id="node21" class="node">
<title>Node21</title>
<g id="a_node21"><a xlink:href="swdsm_8cpp_a2a2d9247bd62413b221876836b39dafb.html#a2a2d9247bd62413b221876836b39dafb" target="_top" xlink:title="Locks the correct mpi_lock_sharer, performs operation op and then unlocks the locked mpi_lock_sharer.">
<polygon fill="white" stroke="black" points="167.5,-114.5 167.5,-133.5 232.5,-133.5 232.5,-114.5 167.5,-114.5"/>
<text text-anchor="middle" x="200" y="-121.5" font-family="Helvetica,sans-Serif" font-size="10.00">sharer_op</text>
</a>
</g>
</g>
<!-- Node1&#45;&gt;Node21 -->
<g id="edge23" class="edge">
<title>Node1&#45;&gt;Node21</title>
<path fill="none" stroke="midnightblue" d="M55.14,-285.28C63.97,-259.35 91.51,-187.81 138,-148 143.76,-143.06 150.67,-139.07 157.72,-135.86"/>
<polygon fill="midnightblue" stroke="midnightblue" points="159.39,-138.96 167.34,-131.96 156.76,-132.48 159.39,-138.96"/>
</g>
<!-- Node22 -->
<g id="node22" class="node">
<title>Node22</title>
<g id="a_node22"><a xlink:href="classmpi__lock_a38cb3649cba54a2818810c444a8b475a.html#a38cb3649cba54a2818810c444a8b475a" target="_top" xlink:title="release mpi_lock">
<polygon fill="white" stroke="black" points="310,-152.5 310,-171.5 409,-171.5 409,-152.5 310,-152.5"/>
<text text-anchor="middle" x="359.5" y="-159.5" font-family="Helvetica,sans-Serif" font-size="10.00">mpi_lock::unlock</text>
</a>
</g>
</g>
<!-- Node1&#45;&gt;Node22 -->
<g id="edge34" class="edge">
<title>Node1&#45;&gt;Node22</title>
<path fill="none" stroke="midnightblue" d="M56.82,-285.19C67.87,-263.89 97.2,-213.57 138,-191 187.63,-163.55 252.9,-158.05 299.52,-158.35"/>
<polygon fill="midnightblue" stroke="midnightblue" points="299.71,-161.85 309.77,-158.51 299.82,-154.86 299.71,-161.85"/>
</g>
<!-- Node23 -->
<g id="node23" class="node">
<title>Node23</title>
<g id="a_node23"><a xlink:href="swdsm_8cpp_a3b6a6b2b244edb9faa79814ce8e5e9f5.html#a3b6a6b2b244edb9faa79814ce8e5e9f5" target="_top" xlink:title="stores a page remotely &#45; only writing back what has been written locally since last synchronization p...">
<polygon fill="white" stroke="black" points="156,-380.5 156,-399.5 244,-399.5 244,-380.5 156,-380.5"/>
<text text-anchor="middle" x="200" y="-387.5" font-family="Helvetica,sans-Serif" font-size="10.00">storepageDIFF</text>
</a>
</g>
</g>
<!-- Node1&#45;&gt;Node23 -->
<g id="edge27" class="edge">
<title>Node1&#45;&gt;Node23</title>
<path fill="none" stroke="midnightblue" d="M61.54,-304.64C76.64,-319.46 107.47,-348.01 138,-366 144.83,-370.02 152.45,-373.63 159.93,-376.75"/>
<polygon fill="midnightblue" stroke="midnightblue" points="158.68,-380.02 169.26,-380.45 161.25,-373.51 158.68,-380.02"/>
</g>
<!-- Node7 -->
<g id="node7" class="node">
<title>Node7</title>
<g id="a_node7"><a xlink:href="classargo_1_1data__distribution_1_1global__ptr_ac7d651586337d08cda18ef26ffcd34a0.html#ac7d651586337d08cda18ef26ffcd34a0" target="_top" xlink:title="return the home node of the value pointed to">
<polygon fill="white" stroke="black" points="460.5,-347 460.5,-377 587.5,-377 587.5,-347 460.5,-347"/>
<text text-anchor="start" x="468.5" y="-365" font-family="Helvetica,sans-Serif" font-size="10.00">argo::data_distribution</text>
<text text-anchor="middle" x="524" y="-354" font-family="Helvetica,sans-Serif" font-size="10.00">::global_ptr::node</text>
</a>
</g>
</g>
<!-- Node6&#45;&gt;Node7 -->
<g id="edge6" class="edge">
<title>Node6&#45;&gt;Node7</title>
<path fill="none" stroke="midnightblue" d="M404.05,-382.5C418.24,-380.05 434.4,-377.27 450.14,-374.56"/>
<polygon fill="midnightblue" stroke="midnightblue" points="451.13,-377.94 460.39,-372.79 449.94,-371.04 451.13,-377.94"/>
</g>
<!-- Node8 -->
<g id="node8" class="node">
<title>Node8</title>
<g id="a_node8"><a xlink:href="classargo_1_1data__distribution_1_1global__ptr_ae4353680349f6abbd2cf262dace8e2f2.html#ae4353680349f6abbd2cf262dace8e2f2" target="_top" xlink:title="return a pointer to the selected allocation policy">
<polygon fill="white" stroke="black" points="627,-233 627,-263 754,-263 754,-233 627,-233"/>
<text text-anchor="start" x="635" y="-251" font-family="Helvetica,sans-Serif" font-size="10.00">argo::data_distribution</text>
<text text-anchor="middle" x="690.5" y="-240" font-family="Helvetica,sans-Serif" font-size="10.00">::global_ptr::policy</text>
</a>
</g>
</g>
<!-- Node7&#45;&gt;Node8 -->
<g id="edge7" class="edge">
<title>Node7&#45;&gt;Node8</title>
<path fill="none" stroke="midnightblue" d="M554.16,-346.9C565.85,-340.53 579.3,-332.79 591,-325 616.93,-307.74 644.74,-285.64 664.17,-269.54"/>
<polygon fill="midnightblue" stroke="midnightblue" points="666.53,-272.14 671.96,-263.04 662.04,-266.76 666.53,-272.14"/>
</g>
<!-- Node9 -->
<g id="node9" class="node">
<title>Node9</title>
<g id="a_node9"><a xlink:href="namespaceargo_1_1env_a25a08cb2d0d11432d640ec7173063339.html#a25a08cb2d0d11432d640ec7173063339" target="_top" xlink:title="get the allocation policy requested by environment variable">
<polygon fill="white" stroke="black" points="790,-233 790,-263 906,-263 906,-233 790,-233"/>
<text text-anchor="start" x="798" y="-251" font-family="Helvetica,sans-Serif" font-size="10.00">argo::env::allocation</text>
<text text-anchor="middle" x="848" y="-240" font-family="Helvetica,sans-Serif" font-size="10.00">_policy</text>
</a>
</g>
</g>
<!-- Node8&#45;&gt;Node9 -->
<g id="edge8" class="edge">
<title>Node8&#45;&gt;Node9</title>
<path fill="none" stroke="midnightblue" d="M754.3,-248C762.69,-248 771.32,-248 779.78,-248"/>
<polygon fill="midnightblue" stroke="midnightblue" points="779.99,-251.5 789.99,-248 779.99,-244.5 779.99,-251.5"/>
</g>
<!-- Node11 -->
<g id="node11" class="node">
<title>Node11</title>
<g id="a_node11"><a xlink:href="classargo_1_1data__distribution_1_1global__ptr_ad8c21c408fa2b926cfd9acfd87e8e4e6.html#ad8c21c408fa2b926cfd9acfd87e8e4e6" target="_top" xlink:title="return the offset on the home node&#39;s local memory share">
<polygon fill="white" stroke="black" points="460.5,-285 460.5,-315 587.5,-315 587.5,-285 460.5,-285"/>
<text text-anchor="start" x="468.5" y="-303" font-family="Helvetica,sans-Serif" font-size="10.00">argo::data_distribution</text>
<text text-anchor="middle" x="524" y="-292" font-family="Helvetica,sans-Serif" font-size="10.00">::global_ptr::offset</text>
</a>
</g>
</g>
<!-- Node10&#45;&gt;Node11 -->
<g id="edge10" class="edge">
<title>Node10&#45;&gt;Node11</title>
<path fill="none" stroke="midnightblue" d="M390.31,-342.46C411.51,-335.68 440.66,-326.35 466.23,-318.17"/>
<polygon fill="midnightblue" stroke="midnightblue" points="467.38,-321.47 475.84,-315.09 465.25,-314.81 467.38,-321.47"/>
</g>
<!-- Node11&#45;&gt;Node8 -->
<g id="edge11" class="edge">
<title>Node11&#45;&gt;Node8</title>
<path fill="none" stroke="midnightblue" d="M572.58,-284.96C591.25,-279.06 612.84,-272.23 632.34,-266.07"/>
<polygon fill="midnightblue" stroke="midnightblue" points="633.55,-269.36 642.03,-263.01 631.44,-262.68 633.55,-269.36"/>
</g>
<!-- Node18 -->
<g id="node18" class="node">
<title>Node18</title>
<g id="a_node18"><a xlink:href="classargo_1_1data__distribution_1_1global__ptr_a3e2cdd4d323ef91174615e27ab94e342.html#a3e2cdd4d323ef91174615e27ab94e342" target="_top" xlink:title="return the home node of the value pointed to, or a default value if the page has not yet been first&#45;t...">
<polygon fill="white" stroke="black" points="458.5,-209 458.5,-239 589.5,-239 589.5,-209 458.5,-209"/>
<text text-anchor="start" x="466.5" y="-227" font-family="Helvetica,sans-Serif" font-size="10.00">argo::data_distribution</text>
<text text-anchor="middle" x="524" y="-216" font-family="Helvetica,sans-Serif" font-size="10.00">::global_ptr::peek_node</text>
</a>
</g>
</g>
<!-- Node17&#45;&gt;Node18 -->
<g id="edge18" class="edge">
<title>Node17&#45;&gt;Node18</title>
<path fill="none" stroke="midnightblue" d="M249.08,-45.16C296.79,-44.73 369.97,-50.76 421,-86 446.9,-103.89 438.69,-121.4 457,-147 470.66,-166.09 487.99,-186.18 501.46,-201.05"/>
<polygon fill="midnightblue" stroke="midnightblue" points="499.17,-203.73 508.5,-208.73 504.33,-199 499.17,-203.73"/>
</g>
<!-- Node18&#45;&gt;Node8 -->
<g id="edge19" class="edge">
<title>Node18&#45;&gt;Node8</title>
<path fill="none" stroke="midnightblue" d="M589.54,-233.42C598.44,-234.71 607.62,-236.05 616.65,-237.37"/>
<polygon fill="midnightblue" stroke="midnightblue" points="616.36,-240.87 626.76,-238.85 617.37,-233.94 616.36,-240.87"/>
</g>
<!-- Node20 -->
<g id="node20" class="node">
<title>Node20</title>
<g id="a_node20"><a xlink:href="classargo_1_1data__distribution_1_1global__ptr_aac6a3f5ce7b21b72cb7179c82aa1ffbc.html#aac6a3f5ce7b21b72cb7179c82aa1ffbc" target="_top" xlink:title="return the offset on the home node&#39;s local memory share or a default value if the page has not yet be...">
<polygon fill="white" stroke="black" points="457,-107 457,-137 591,-137 591,-107 457,-107"/>
<text text-anchor="start" x="465" y="-125" font-family="Helvetica,sans-Serif" font-size="10.00">argo::data_distribution</text>
<text text-anchor="middle" x="524" y="-114" font-family="Helvetica,sans-Serif" font-size="10.00">::global_ptr::peek_offset</text>
</a>
</g>
</g>
<!-- Node19&#45;&gt;Node20 -->
<g id="edge21" class="edge">
<title>Node19&#45;&gt;Node20</title>
<path fill="none" stroke="midnightblue" d="M237.07,-11.24C281.83,-13.88 359.76,-22.15 421,-48 450.76,-60.56 480.12,-83.25 499.65,-100.2"/>
<polygon fill="midnightblue" stroke="midnightblue" points="497.33,-102.83 507.13,-106.85 501.97,-97.59 497.33,-102.83"/>
</g>
<!-- Node20&#45;&gt;Node8 -->
<g id="edge22" class="edge">
<title>Node20&#45;&gt;Node8</title>
<path fill="none" stroke="midnightblue" d="M544.84,-137.2C573.94,-159.49 628.33,-201.15 661.5,-226.55"/>
<polygon fill="midnightblue" stroke="midnightblue" points="659.78,-229.64 669.84,-232.94 664.03,-224.08 659.78,-229.64"/>
</g>
<!-- Node21&#45;&gt;Node12 -->
<g id="edge24" class="edge">
<title>Node21&#45;&gt;Node12</title>
<path fill="none" stroke="midnightblue" d="M232.87,-120.16C248.72,-118.24 268.54,-115.85 287.73,-113.54"/>
<polygon fill="midnightblue" stroke="midnightblue" points="288.17,-117.01 297.68,-112.34 287.33,-110.06 288.17,-117.01"/>
</g>
<!-- Node21&#45;&gt;Node16 -->
<g id="edge25" class="edge">
<title>Node21&#45;&gt;Node16</title>
<path fill="none" stroke="midnightblue" d="M214.92,-133.55C233.29,-145.83 266.94,-167.21 298,-181 303.03,-183.23 308.4,-185.32 313.8,-187.23"/>
<polygon fill="midnightblue" stroke="midnightblue" points="312.85,-190.61 323.45,-190.47 315.08,-183.97 312.85,-190.61"/>
</g>
<!-- Node21&#45;&gt;Node22 -->
<g id="edge26" class="edge">
<title>Node21&#45;&gt;Node22</title>
<path fill="none" stroke="midnightblue" d="M232.87,-131.69C254.68,-136.95 284.02,-144.03 308.86,-150.02"/>
<polygon fill="midnightblue" stroke="midnightblue" points="308.3,-153.49 318.85,-152.43 309.94,-146.68 308.3,-153.49"/>
</g>
<!-- Node23&#45;&gt;Node4 -->
<g id="edge28" class="edge">
<title>Node23&#45;&gt;Node4</title>
<path fill="none" stroke="midnightblue" d="M211.45,-399.53C228.62,-414.85 264.24,-445.35 298,-466 306.57,-471.24 316.29,-476.15 325.39,-480.35"/>
<polygon fill="midnightblue" stroke="midnightblue" points="324.02,-483.57 334.58,-484.45 326.87,-477.18 324.02,-483.57"/>
</g>
<!-- Node23&#45;&gt;Node5 -->
<g id="edge29" class="edge">
<title>Node23&#45;&gt;Node5</title>
<path fill="none" stroke="midnightblue" d="M227.36,-399.54C253.37,-408.95 293.33,-423.41 322.3,-433.9"/>
<polygon fill="midnightblue" stroke="midnightblue" points="321.46,-437.32 332.05,-437.43 323.84,-430.73 321.46,-437.32"/>
</g>
<!-- Node23&#45;&gt;Node6 -->
<g id="edge30" class="edge">
<title>Node23&#45;&gt;Node6</title>
<path fill="none" stroke="midnightblue" d="M244.04,-390C262.81,-390 285.01,-390 304.84,-390"/>
<polygon fill="midnightblue" stroke="midnightblue" points="304.97,-393.5 314.97,-390 304.97,-386.5 304.97,-393.5"/>
</g>
<!-- Node23&#45;&gt;Node10 -->
<g id="edge31" class="edge">
<title>Node23&#45;&gt;Node10</title>
<path fill="none" stroke="midnightblue" d="M240.74,-380.41C264.11,-374.77 293.6,-367.66 317.22,-361.96"/>
<polygon fill="midnightblue" stroke="midnightblue" points="318.05,-365.36 326.95,-359.61 316.41,-358.55 318.05,-365.36"/>
</g>
<!-- Node23&#45;&gt;Node16 -->
<g id="edge32" class="edge">
<title>Node23&#45;&gt;Node16</title>
<path fill="none" stroke="midnightblue" d="M212.88,-380.11C225.66,-369.2 246.26,-350.82 262,-333 295.81,-294.72 329.52,-244.94 346.74,-218.46"/>
<polygon fill="midnightblue" stroke="midnightblue" points="349.83,-220.13 352.31,-209.83 343.95,-216.34 349.83,-220.13"/>
</g>
<!-- Node23&#45;&gt;Node22 -->
<g id="edge33" class="edge">
<title>Node23&#45;&gt;Node22</title>
<path fill="none" stroke="midnightblue" d="M215.39,-380.43C229.44,-370.31 250.36,-353.06 262,-333 296.85,-272.96 250.7,-231.82 298,-181 299.24,-179.67 300.57,-178.43 301.97,-177.28"/>
<polygon fill="midnightblue" stroke="midnightblue" points="304.25,-179.98 310.71,-171.59 300.42,-174.11 304.25,-179.98"/>
</g>
</g>
</svg>
        <g id="navigator" transform="translate(0 0)" fill="#404254">
                <rect fill="#f2f5e9" fill-opacity="0.5" stroke="#606060" stroke-width=".5" x="0" y="0" width="60" height="60"/>
                <use id="zoomplus" xlink:href="#zoomPlus" x="17" y="9" onmousedown="handleZoom(evt,'in')"/>
                <use id="zoomminus" xlink:href="#zoomMin" x="42" y="9" onmousedown="handleZoom(evt,'out')"/>
                <use id="reset" xlink:href="#resetDef" x="30" y="36" onmousedown="handleReset()"/>
                <g id="arrowUp" xlink:href="#dirArrow" transform="translate(30 24)" onmousedown="handlePan(0,-1)">
                  <use xlink:href="#rim" fill="#404040">
                        <set attributeName="fill" to="#808080" begin="arrowUp.mouseover" end="arrowUp.mouseout"/>
                  </use>
                  <path fill="none" stroke="white" stroke-width="1.5" d="M0,-3.0v7 M-2.5,-0.5L0,-3.0L2.5,-0.5"/>
                </g>
                <g id="arrowRight" xlink:href="#dirArrow" transform="rotate(90) translate(36 -43)" onmousedown="handlePan(1,0)">
                  <use xlink:href="#rim" fill="#404040">
                        <set attributeName="fill" to="#808080" begin="arrowRight.mouseover" end="arrowRight.mouseout"/>
                  </use>
                  <path fill="none" stroke="white" stroke-width="1.5" d="M0,-3.0v7 M-2.5,-0.5L0,-3.0L2.5,-0.5"/>
                </g>
                <g id="arrowDown" xlink:href="#dirArrow" transform="rotate(180) translate(-30 -48)" onmousedown="handlePan(0,1)">
                  <use xlink:href="#rim" fill="#404040">
                        <set attributeName="fill" to="#808080" begin="arrowDown.mouseover" end="arrowDown.mouseout"/>
                  </use>
                  <path fill="none" stroke="white" stroke-width="1.5" d="M0,-3.0v7 M-2.5,-0.5L0,-3.0L2.5,-0.5"/>
                </g>
                <g id="arrowLeft" xlink:href="#dirArrow" transform="rotate(270) translate(-36 17)" onmousedown="handlePan(-1,0)">
                  <use xlink:href="#rim" fill="#404040">
                        <set attributeName="fill" to="#808080" begin="arrowLeft.mouseover" end="arrowLeft.mouseout"/>
                  </use>
                  <path fill="none" stroke="white" stroke-width="1.5" d="M0,-3.0v7 M-2.5,-0.5L0,-3.0L2.5,-0.5"/>
                </g>
        </g>
        <svg viewBox="0 0 15 15" width="100%" height="30px" preserveAspectRatio="xMaxYMin meet">
         <g id="arrow_out" transform="scale(0.3 0.3)">
          <a xlink:href="swdsm_8cpp_a92a73a9ea2009afcbef38b3e88b9ac0f_a92a73a9ea2009afcbef38b3e88b9ac0f_cgraph_org.svg" target="_base">
           <rect id="button" ry="5" rx="5" y="6" x="6" height="38" width="38"
                fill="#f2f5e9" fill-opacity="0.5" stroke="#606060" stroke-width="1.0"/>
           <path id="arrow"
             d="M 11.500037,31.436501 C 11.940474,20.09759 22.043105,11.32322 32.158766,21.979434 L 37.068811,17.246167 C 37.068811,17.246167 37.088388,32 37.088388,32 L 22.160133,31.978069 C 22.160133,31.978069 26.997745,27.140456 26.997745,27.140456 C 18.528582,18.264221 13.291696,25.230495 11.500037,31.436501 z"
             style="fill:#404040;"/>
          </a>
         </g>
        </svg>
</svg>
