<?xml version="1.0" encoding="UTF-8" standalone="no"?>
<!DOCTYPE svg PUBLIC "-//W3C//DTD SVG 1.1//EN"
 "http://www.w3.org/Graphics/SVG/1.1/DTD/svg11.dtd">
<!-- Generated by graphviz version 2.43.0 (0)
 -->
<!-- Title: swdsm_argo_barrier Pages: 1 -->
<svg width="579pt" height="104pt"
 viewBox="0.00 0.00 579.00 104.00" xmlns="http://www.w3.org/2000/svg" xmlns:xlink="http://www.w3.org/1999/xlink">
<g id="graph0" class="graph" transform="scale(1 1) rotate(0) translate(4 100)">
<title>swdsm_argo_barrier</title>
<polygon fill="white" stroke="transparent" points="-4,4 -4,-100 575,-100 575,4 -4,4"/>
<!-- Node1 -->
<g id="node1" class="node">
<title>Node1</title>
<g id="a_node1"><a xlink:title="Global barrier for ArgoDSM &#45; needs to be called by every thread in the system that need coherent view...">
<polygon fill="#bfbfbf" stroke="black" points="455,-38.5 455,-57.5 571,-57.5 571,-38.5 455,-38.5"/>
<text text-anchor="middle" x="513" y="-45.5" font-family="Helvetica,sans-Serif" font-size="10.00">swdsm_argo_barrier</text>
</a>
</g>
</g>
<!-- Node2 -->
<g id="node2" class="node">
<title>Node2</title>
<g id="a_node2"><a xlink:href="swdsm_8cpp_aa954d5e0bcaee69ff6e03e697bcaf68b.html#aa954d5e0bcaee69ff6e03e697bcaf68b" target="_top" xlink:title="shut down ArgoDSM system">
<polygon fill="white" stroke="black" points="317.5,-76.5 317.5,-95.5 396.5,-95.5 396.5,-76.5 317.5,-76.5"/>
<text text-anchor="middle" x="357" y="-83.5" font-family="Helvetica,sans-Serif" font-size="10.00">argo_finalize</text>
</a>
</g>
</g>
<!-- Node1&#45;&gt;Node2 -->
<g id="edge1" class="edge">
<title>Node1&#45;&gt;Node2</title>
<path fill="none" stroke="midnightblue" d="M463.21,-60.04C441.69,-65.35 416.77,-71.5 396.58,-76.48"/>
<polygon fill="midnightblue" stroke="midnightblue" points="464.27,-63.38 473.14,-57.59 462.59,-56.59 464.27,-63.38"/>
</g>
<!-- Node3 -->
<g id="node3" class="node">
<title>Node3</title>
<g id="a_node3"><a xlink:href="swdsm_8cpp_adb17e929b24ae3fd6898035fce958122.html#adb17e929b24ae3fd6898035fce958122" target="_top" xlink:title="Resets current ArgoDSM coherence.">
<polygon fill="white" stroke="black" points="295,-38.5 295,-57.5 419,-57.5 419,-38.5 295,-38.5"/>
<text text-anchor="middle" x="357" y="-45.5" font-family="Helvetica,sans-Serif" font-size="10.00">argo_reset_coherence</text>
</a>
</g>
</g>
<!-- Node1&#45;&gt;Node3 -->
<g id="edge2" class="edge">
<title>Node1&#45;&gt;Node3</title>
<path fill="none" stroke="midnightblue" d="M444.44,-48C435.97,-48 427.36,-48 419,-48"/>
<polygon fill="midnightblue" stroke="midnightblue" points="444.66,-51.5 454.66,-48 444.66,-44.5 444.66,-51.5"/>
</g>
<!-- Node7 -->
<g id="node7" class="node">
<title>Node7</title>
<g id="a_node7"><a xlink:href="backend_8hpp_adc47b610451cff63f21d023dc31b1945.html#adc47b610451cff63f21d023dc31b1945" target="_top" xlink:title="a simple collective barrier">
<polygon fill="white" stroke="black" points="295.5,-0.5 295.5,-19.5 418.5,-19.5 418.5,-0.5 295.5,-0.5"/>
<text text-anchor="middle" x="357" y="-7.5" font-family="Helvetica,sans-Serif" font-size="10.00">argo::backend::barrier</text>
</a>
</g>
</g>
<!-- Node1&#45;&gt;Node7 -->
<g id="edge7" class="edge">
<title>Node1&#45;&gt;Node7</title>
<path fill="none" stroke="midnightblue" d="M463.21,-35.96C441.69,-30.65 416.77,-24.5 396.58,-19.52"/>
<polygon fill="midnightblue" stroke="midnightblue" points="462.59,-39.41 473.14,-38.41 464.27,-32.62 462.59,-39.41"/>
</g>
<!-- Node4 -->
<g id="node4" class="node">
<title>Node4</title>
<g id="a_node4"><a xlink:href="swdsm_8cpp_a31ba60e8ddccfa922da8d7e6a10f7b1d.html#a31ba60e8ddccfa922da8d7e6a10f7b1d" target="_top" xlink:title="Initializes ArgoDSM runtime.">
<polygon fill="white" stroke="black" points="158,-69.5 158,-88.5 244,-88.5 244,-69.5 158,-69.5"/>
<text text-anchor="middle" x="201" y="-76.5" font-family="Helvetica,sans-Serif" font-size="10.00">argo_initialize</text>
</a>
</g>
</g>
<!-- Node3&#45;&gt;Node4 -->
<g id="edge3" class="edge">
<title>Node3&#45;&gt;Node4</title>
<path fill="none" stroke="midnightblue" d="M298.67,-59.54C280.57,-63.18 260.92,-67.14 244.09,-70.53"/>
<polygon fill="midnightblue" stroke="midnightblue" points="299.43,-62.96 308.54,-57.55 298.04,-56.1 299.43,-62.96"/>
</g>
<!-- Node6 -->
<g id="node6" class="node">
<title>Node6</title>
<g id="a_node6"><a xlink:href="backend_8hpp_acb57f009ad65913e26147c6813eda04e.html#acb57f009ad65913e26147c6813eda04e" target="_top" xlink:title="Resets current ArgoDSM coherence.">
<polygon fill="white" stroke="black" points="143,-2 143,-32 259,-32 259,-2 143,-2"/>
<text text-anchor="start" x="151" y="-20" font-family="Helvetica,sans-Serif" font-size="10.00">argo::backend::reset</text>
<text text-anchor="middle" x="201" y="-9" font-family="Helvetica,sans-Serif" font-size="10.00">_coherence</text>
</a>
</g>
</g>
<!-- Node3&#45;&gt;Node6 -->
<g id="edge5" class="edge">
<title>Node3&#45;&gt;Node6</title>
<path fill="none" stroke="midnightblue" d="M298.41,-36.41C285.54,-33.82 271.9,-31.07 259.05,-28.48"/>
<polygon fill="midnightblue" stroke="midnightblue" points="298.04,-39.9 308.54,-38.45 299.43,-33.04 298.04,-39.9"/>
</g>
<!-- Node5 -->
<g id="node5" class="node">
<title>Node5</title>
<g id="a_node5"><a xlink:href="backend_8hpp_aab3cabb3e1c0b9696b339416b684f78c.html#aab3cabb3e1c0b9696b339416b684f78c" target="_top" xlink:title="initialize backend">
<polygon fill="white" stroke="black" points="0,-69.5 0,-88.5 107,-88.5 107,-69.5 0,-69.5"/>
<text text-anchor="middle" x="53.5" y="-76.5" font-family="Helvetica,sans-Serif" font-size="10.00">argo::backend::init</text>
</a>
</g>
</g>
<!-- Node4&#45;&gt;Node5 -->
<g id="edge4" class="edge">
<title>Node4&#45;&gt;Node5</title>
<path fill="none" stroke="midnightblue" d="M147.6,-79C134.42,-79 120.29,-79 107.1,-79"/>
<polygon fill="midnightblue" stroke="midnightblue" points="147.92,-82.5 157.92,-79 147.92,-75.5 147.92,-82.5"/>
</g>
<!-- Node6&#45;&gt;Node6 -->
<g id="edge6" class="edge">
<title>Node6&#45;&gt;Node6</title>
<path fill="none" stroke="midnightblue" d="M226.94,-42.46C223.72,-47.18 215.08,-50.5 201,-50.5 177.9,-50.5 169.42,-41.56 175.56,-32.16"/>
<polygon fill="midnightblue" stroke="midnightblue" points="230.42,-41.98 226.44,-32.16 223.43,-42.32 230.42,-41.98"/>
</g>
</g>
</svg>
