<?xml version="1.0" encoding="UTF-8" standalone="no"?>
<!DOCTYPE svg PUBLIC "-//W3C//DTD SVG 1.1//EN"
 "http://www.w3.org/Graphics/SVG/1.1/DTD/svg11.dtd">
<!-- Generated by graphviz version 2.43.0 (0)
 -->
<!-- Title: argo_acquire Pages: 1 -->
<svg width="381pt" height="154pt"
 viewBox="0.00 0.00 381.00 153.50" xmlns="http://www.w3.org/2000/svg" xmlns:xlink="http://www.w3.org/1999/xlink">
<g id="graph0" class="graph" transform="scale(1 1) rotate(0) translate(4 149.5)">
<title>argo_acquire</title>
<polygon fill="white" stroke="transparent" points="-4,4 -4,-149.5 377,-149.5 377,4 -4,4"/>
<!-- Node1 -->
<g id="node1" class="node">
<title>Node1</title>
<g id="a_node1"><a xlink:title="acquire function for ArgoDSM (Acquire according to Release Consistency)">
<polygon fill="#bfbfbf" stroke="black" points="0,-57.5 0,-76.5 80,-76.5 80,-57.5 0,-57.5"/>
<text text-anchor="middle" x="40" y="-64.5" font-family="Helvetica,sans-Serif" font-size="10.00">argo_acquire</text>
</a>
</g>
</g>
<!-- Node2 -->
<g id="node2" class="node">
<title>Node2</title>
<g id="a_node2"><a xlink:href="swdsm_8cpp_aa7c3a2de6bbafdaf68fe6ceb6110ab97.html#aa7c3a2de6bbafdaf68fe6ceb6110ab97" target="_top" xlink:title="Self&#45;Invalidates all memory that has potential writers.">
<polygon fill="white" stroke="black" points="116,-57.5 116,-76.5 214,-76.5 214,-57.5 116,-57.5"/>
<text text-anchor="middle" x="165" y="-64.5" font-family="Helvetica,sans-Serif" font-size="10.00">self_invalidation</text>
</a>
</g>
</g>
<!-- Node1&#45;&gt;Node2 -->
<g id="edge1" class="edge">
<title>Node1&#45;&gt;Node2</title>
<path fill="none" stroke="midnightblue" d="M80.26,-67C88.34,-67 97.02,-67 105.62,-67"/>
<polygon fill="midnightblue" stroke="midnightblue" points="105.63,-70.5 115.63,-67 105.63,-63.5 105.63,-70.5"/>
</g>
<!-- Node3 -->
<g id="node3" class="node">
<title>Node3</title>
<g id="a_node3"><a xlink:href="swdsm_8cpp_aff9ea7ba7f37206d933c8dc8004dbc7b.html#aff9ea7ba7f37206d933c8dc8004dbc7b" target="_top" xlink:title="Gives an index to the sharer/writer vector depending on the address.">
<polygon fill="white" stroke="black" points="261,-115 261,-145 362,-145 362,-115 261,-115"/>
<text text-anchor="start" x="269" y="-133" font-family="Helvetica,sans-Serif" font-size="10.00">get_classification</text>
<text text-anchor="middle" x="311.5" y="-122" font-family="Helvetica,sans-Serif" font-size="10.00">_index</text>
</a>
</g>
</g>
<!-- Node2&#45;&gt;Node3 -->
<g id="edge2" class="edge">
<title>Node2&#45;&gt;Node3</title>
<path fill="none" stroke="midnightblue" d="M186.63,-76.56C203.58,-84.36 228.26,-95.59 250,-105 254.64,-107.01 259.49,-109.07 264.35,-111.11"/>
<polygon fill="midnightblue" stroke="midnightblue" points="263.05,-114.36 273.63,-114.99 265.75,-107.91 263.05,-114.36"/>
</g>
<!-- Node4 -->
<g id="node4" class="node">
<title>Node4</title>
<g id="a_node4"><a xlink:href="swdsm_8cpp_a7d0d0386804df222465aaa199aab92da.html#a7d0d0386804df222465aaa199aab92da" target="_top" xlink:title="Gets the sharer window index based on the classification index.">
<polygon fill="white" stroke="black" points="250,-76.5 250,-95.5 373,-95.5 373,-76.5 250,-76.5"/>
<text text-anchor="middle" x="311.5" y="-83.5" font-family="Helvetica,sans-Serif" font-size="10.00">get_sharer_win_index</text>
</a>
</g>
</g>
<!-- Node2&#45;&gt;Node4 -->
<g id="edge3" class="edge">
<title>Node2&#45;&gt;Node4</title>
<path fill="none" stroke="midnightblue" d="M214.12,-73.33C222.38,-74.41 231.11,-75.56 239.82,-76.71"/>
<polygon fill="midnightblue" stroke="midnightblue" points="239.63,-80.21 250,-78.04 240.54,-73.27 239.63,-80.21"/>
</g>
<!-- Node5 -->
<g id="node5" class="node">
<title>Node5</title>
<g id="a_node5"><a xlink:href="classmpi__lock_a67301b26c3bb28c746e164c9f531d21d.html#a67301b26c3bb28c746e164c9f531d21d" target="_top" xlink:title="acquire mpi_lock">
<polygon fill="white" stroke="black" points="268,-38.5 268,-57.5 355,-57.5 355,-38.5 268,-38.5"/>
<text text-anchor="middle" x="311.5" y="-45.5" font-family="Helvetica,sans-Serif" font-size="10.00">mpi_lock::lock</text>
</a>
</g>
</g>
<!-- Node2&#45;&gt;Node5 -->
<g id="edge4" class="edge">
<title>Node2&#45;&gt;Node5</title>
<path fill="none" stroke="midnightblue" d="M214.12,-60.67C228.12,-58.83 243.49,-56.81 257.77,-54.93"/>
<polygon fill="midnightblue" stroke="midnightblue" points="258.47,-58.37 267.93,-53.6 257.56,-51.43 258.47,-58.37"/>
</g>
<!-- Node6 -->
<g id="node6" class="node">
<title>Node6</title>
<g id="a_node6"><a xlink:href="classmpi__lock_a38cb3649cba54a2818810c444a8b475a.html#a38cb3649cba54a2818810c444a8b475a" target="_top" xlink:title="release mpi_lock">
<polygon fill="white" stroke="black" points="262,-0.5 262,-19.5 361,-19.5 361,-0.5 262,-0.5"/>
<text text-anchor="middle" x="311.5" y="-7.5" font-family="Helvetica,sans-Serif" font-size="10.00">mpi_lock::unlock</text>
</a>
</g>
</g>
<!-- Node2&#45;&gt;Node6 -->
<g id="edge5" class="edge">
<title>Node2&#45;&gt;Node6</title>
<path fill="none" stroke="midnightblue" d="M185.41,-57.42C202.25,-49.29 227.42,-37.62 250,-29 255.67,-26.84 261.7,-24.73 267.67,-22.74"/>
<polygon fill="midnightblue" stroke="midnightblue" points="269.15,-25.94 277.6,-19.54 267.01,-19.28 269.15,-25.94"/>
</g>
</g>
</svg>
