<?xml version="1.0" encoding="UTF-8" standalone="no"?>
<!DOCTYPE svg PUBLIC "-//W3C//DTD SVG 1.1//EN"
 "http://www.w3.org/Graphics/SVG/1.1/DTD/svg11.dtd">
<!-- Generated by graphviz version 2.43.0 (0)
 -->
<!-- Title: argo_finalize Pages: 1 -->
<svg width="617pt" height="894pt"
 viewBox="0.00 0.00 617.00 893.50" xmlns="http://www.w3.org/2000/svg" xmlns:xlink="http://www.w3.org/1999/xlink">
<g id="graph0" class="graph" transform="scale(1 1) rotate(0) translate(4 889.5)">
<title>argo_finalize</title>
<polygon fill="white" stroke="transparent" points="-4,4 -4,-889.5 613,-889.5 613,4 -4,4"/>
<!-- Node1 -->
<g id="node1" class="node">
<title>Node1</title>
<g id="a_node1"><a xlink:title="shut down ArgoDSM system">
<polygon fill="#bfbfbf" stroke="black" points="0,-478.5 0,-497.5 79,-497.5 79,-478.5 0,-478.5"/>
<text text-anchor="middle" x="39.5" y="-485.5" font-family="Helvetica,sans-Serif" font-size="10.00">argo_finalize</text>
</a>
</g>
</g>
<!-- Node2 -->
<g id="node2" class="node">
<title>Node2</title>
<g id="a_node2"><a xlink:href="namespaceargo_1_1data__distribution_a58576657391f45caf61bf0748a23b098.html#a58576657391f45caf61bf0748a23b098" target="_top" xlink:title="identifies if we distribute data using the first&#45;touch memory policy">
<polygon fill="white" stroke="black" points="115,-686 115,-716 242,-716 242,-686 115,-686"/>
<text text-anchor="start" x="123" y="-704" font-family="Helvetica,sans-Serif" font-size="10.00">argo::data_distribution</text>
<text text-anchor="middle" x="178.5" y="-693" font-family="Helvetica,sans-Serif" font-size="10.00">::is_first_touch_policy</text>
</a>
</g>
</g>
<!-- Node1&#45;&gt;Node2 -->
<g id="edge1" class="edge">
<title>Node1&#45;&gt;Node2</title>
<path fill="none" stroke="midnightblue" d="M46.74,-497.71C67.16,-529.45 132.34,-630.79 162.24,-677.28"/>
<polygon fill="midnightblue" stroke="midnightblue" points="159.38,-679.29 167.73,-685.81 165.26,-675.51 159.38,-679.29"/>
</g>
<!-- Node4 -->
<g id="node4" class="node">
<title>Node4</title>
<g id="a_node4"><a xlink:href="swdsm_8cpp_a3c8a8769158025ec9e929601b9df6439.html#a3c8a8769158025ec9e929601b9df6439" target="_top" xlink:title="Prints collected statistics.">
<polygon fill="white" stroke="black" points="134,-478.5 134,-497.5 223,-497.5 223,-478.5 134,-478.5"/>
<text text-anchor="middle" x="178.5" y="-485.5" font-family="Helvetica,sans-Serif" font-size="10.00">print_statistics</text>
</a>
</g>
</g>
<!-- Node1&#45;&gt;Node4 -->
<g id="edge3" class="edge">
<title>Node1&#45;&gt;Node4</title>
<path fill="none" stroke="midnightblue" d="M79.03,-488C92.92,-488 108.85,-488 123.8,-488"/>
<polygon fill="midnightblue" stroke="midnightblue" points="123.96,-491.5 133.96,-488 123.96,-484.5 123.96,-491.5"/>
</g>
<!-- Node22 -->
<g id="node22" class="node">
<title>Node22</title>
<g id="a_node22"><a xlink:href="swdsm_8cpp_aca8a35703563223a3e182ebc897e2b40.html#aca8a35703563223a3e182ebc897e2b40" target="_top" xlink:title="Global barrier for ArgoDSM &#45; needs to be called by every thread in the system that need coherent view...">
<polygon fill="white" stroke="black" points="120.5,-95.5 120.5,-114.5 236.5,-114.5 236.5,-95.5 120.5,-95.5"/>
<text text-anchor="middle" x="178.5" y="-102.5" font-family="Helvetica,sans-Serif" font-size="10.00">swdsm_argo_barrier</text>
</a>
</g>
</g>
<!-- Node1&#45;&gt;Node22 -->
<g id="edge23" class="edge">
<title>Node1&#45;&gt;Node22</title>
<path fill="none" stroke="midnightblue" d="M44.02,-478.15C62.23,-427.25 145.75,-193.75 170.54,-124.45"/>
<polygon fill="midnightblue" stroke="midnightblue" points="173.93,-125.38 174,-114.79 167.34,-123.02 173.93,-125.38"/>
</g>
<!-- Node3 -->
<g id="node3" class="node">
<title>Node3</title>
<g id="a_node3"><a xlink:href="namespaceargo_1_1env_a25a08cb2d0d11432d640ec7173063339.html#a25a08cb2d0d11432d640ec7173063339" target="_top" xlink:title="get the allocation policy requested by environment variable">
<polygon fill="white" stroke="black" points="306,-855 306,-885 422,-885 422,-855 306,-855"/>
<text text-anchor="start" x="314" y="-873" font-family="Helvetica,sans-Serif" font-size="10.00">argo::env::allocation</text>
<text text-anchor="middle" x="364" y="-862" font-family="Helvetica,sans-Serif" font-size="10.00">_policy</text>
</a>
</g>
</g>
<!-- Node2&#45;&gt;Node3 -->
<g id="edge2" class="edge">
<title>Node2&#45;&gt;Node3</title>
<path fill="none" stroke="midnightblue" d="M185.61,-716.32C198.24,-746.01 230.11,-811.47 278,-846 283.52,-849.98 289.67,-853.3 296.08,-856.07"/>
<polygon fill="midnightblue" stroke="midnightblue" points="295.01,-859.41 305.6,-859.74 297.53,-852.88 295.01,-859.41"/>
</g>
<!-- Node4&#45;&gt;Node3 -->
<g id="edge5" class="edge">
<title>Node4&#45;&gt;Node3</title>
<path fill="none" stroke="midnightblue" d="M183.14,-497.72C193.41,-525.43 223.11,-607.28 242,-677 262.09,-751.12 225.5,-789.95 278,-846 283.12,-851.46 289.37,-855.71 296.15,-859.02"/>
<polygon fill="midnightblue" stroke="midnightblue" points="295.07,-862.36 305.65,-862.96 297.75,-855.9 295.07,-862.36"/>
</g>
<!-- Node5 -->
<g id="node5" class="node">
<title>Node5</title>
<g id="a_node5"><a xlink:href="namespaceargo_1_1env_a30775a9aa41b956df7474a2c0cc317aa.html#a30775a9aa41b956df7474a2c0cc317aa" target="_top" xlink:title="get the allocation block size requested by environment variable">
<polygon fill="white" stroke="black" points="306,-806 306,-836 422,-836 422,-806 306,-806"/>
<text text-anchor="start" x="314" y="-824" font-family="Helvetica,sans-Serif" font-size="10.00">argo::env::allocation</text>
<text text-anchor="middle" x="364" y="-813" font-family="Helvetica,sans-Serif" font-size="10.00">_block_size</text>
</a>
</g>
</g>
<!-- Node4&#45;&gt;Node5 -->
<g id="edge4" class="edge">
<title>Node4&#45;&gt;Node5</title>
<path fill="none" stroke="midnightblue" d="M182.85,-497.81C192.37,-525.73 220.28,-608.11 242,-677 258.74,-730.1 238.31,-757.95 278,-797 283.26,-802.18 289.55,-806.25 296.29,-809.46"/>
<polygon fill="midnightblue" stroke="midnightblue" points="295.13,-812.77 305.71,-813.32 297.78,-806.29 295.13,-812.77"/>
</g>
<!-- Node6 -->
<g id="node6" class="node">
<title>Node6</title>
<g id="a_node6"><a xlink:href="classmpi__lock_a86966dcd6fa1a4af21c9235ae60f798a.html#a86966dcd6fa1a4af21c9235ae60f798a" target="_top" xlink:title="get timekeeping statistics">
<polygon fill="white" stroke="black" points="308.5,-757 308.5,-787 419.5,-787 419.5,-757 308.5,-757"/>
<text text-anchor="start" x="316.5" y="-775" font-family="Helvetica,sans-Serif" font-size="10.00">mpi_lock::get_local</text>
<text text-anchor="middle" x="364" y="-764" font-family="Helvetica,sans-Serif" font-size="10.00">_hold_time</text>
</a>
</g>
</g>
<!-- Node4&#45;&gt;Node6 -->
<g id="edge6" class="edge">
<title>Node4&#45;&gt;Node6</title>
<path fill="none" stroke="midnightblue" d="M182.6,-497.71C197.06,-542.71 257.98,-729.65 278,-748 284.03,-753.52 291.23,-757.79 298.86,-761.08"/>
<polygon fill="midnightblue" stroke="midnightblue" points="297.73,-764.39 308.33,-764.63 300.19,-757.84 297.73,-764.39"/>
</g>
<!-- Node7 -->
<g id="node7" class="node">
<title>Node7</title>
<g id="a_node7"><a xlink:href="classmpi__lock_a7f1514ea25f51841c5892e0938aab4fe.html#a7f1514ea25f51841c5892e0938aab4fe" target="_top" xlink:title="get timekeeping statistics">
<polygon fill="white" stroke="black" points="308.5,-708 308.5,-738 419.5,-738 419.5,-708 308.5,-708"/>
<text text-anchor="start" x="316.5" y="-726" font-family="Helvetica,sans-Serif" font-size="10.00">mpi_lock::get_local</text>
<text text-anchor="middle" x="364" y="-715" font-family="Helvetica,sans-Serif" font-size="10.00">_lock_time</text>
</a>
</g>
</g>
<!-- Node4&#45;&gt;Node7 -->
<g id="edge7" class="edge">
<title>Node4&#45;&gt;Node7</title>
<path fill="none" stroke="midnightblue" d="M181.13,-497.63C187.25,-530.8 211.99,-641.36 278,-698 284.07,-703.21 291.19,-707.34 298.67,-710.6"/>
<polygon fill="midnightblue" stroke="midnightblue" points="297.71,-713.98 308.3,-714.3 300.22,-707.45 297.71,-713.98"/>
</g>
<!-- Node8 -->
<g id="node8" class="node">
<title>Node8</title>
<g id="a_node8"><a xlink:href="classcache__lock_a20765dc9363f22615608c3936acbea12.html#a20765dc9363f22615608c3936acbea12" target="_top" xlink:title="Get the time spent waiting for the lock.">
<polygon fill="white" stroke="black" points="291,-669.5 291,-688.5 437,-688.5 437,-669.5 291,-669.5"/>
<text text-anchor="middle" x="364" y="-676.5" font-family="Helvetica,sans-Serif" font-size="10.00">cache_lock::get_lock_time</text>
</a>
</g>
</g>
<!-- Node4&#45;&gt;Node8 -->
<g id="edge8" class="edge">
<title>Node4&#45;&gt;Node8</title>
<path fill="none" stroke="midnightblue" d="M182.03,-497.66C190.27,-527.16 219.28,-616.71 278,-660 280.53,-661.87 283.22,-663.56 286.01,-665.09"/>
<polygon fill="midnightblue" stroke="midnightblue" points="284.72,-668.35 295.26,-669.44 287.7,-662.01 284.72,-668.35"/>
</g>
<!-- Node10 -->
<g id="node10" class="node">
<title>Node10</title>
<g id="a_node10"><a xlink:href="classmpi__lock_a62ad399ba212798ca505e57da0dbc9ce.html#a62ad399ba212798ca505e57da0dbc9ce" target="_top" xlink:title="get timekeeping statistics">
<polygon fill="white" stroke="black" points="295,-620 295,-650 433,-650 433,-620 295,-620"/>
<text text-anchor="start" x="303" y="-638" font-family="Helvetica,sans-Serif" font-size="10.00">mpi_lock::get_max_local</text>
<text text-anchor="middle" x="364" y="-627" font-family="Helvetica,sans-Serif" font-size="10.00">_hold_time</text>
</a>
</g>
</g>
<!-- Node4&#45;&gt;Node10 -->
<g id="edge10" class="edge">
<title>Node4&#45;&gt;Node10</title>
<path fill="none" stroke="midnightblue" d="M184.47,-497.69C196.9,-520.95 231.71,-580.32 278,-611 280.46,-612.63 283.02,-614.15 285.67,-615.56"/>
<polygon fill="midnightblue" stroke="midnightblue" points="284.4,-618.84 294.93,-620 287.42,-612.52 284.4,-618.84"/>
</g>
<!-- Node11 -->
<g id="node11" class="node">
<title>Node11</title>
<g id="a_node11"><a xlink:href="classmpi__lock_a035137a1b22771462178ef79fb9fde92.html#a035137a1b22771462178ef79fb9fde92" target="_top" xlink:title="get timekeeping statistics">
<polygon fill="white" stroke="black" points="295,-571 295,-601 433,-601 433,-571 295,-571"/>
<text text-anchor="start" x="303" y="-589" font-family="Helvetica,sans-Serif" font-size="10.00">mpi_lock::get_max_local</text>
<text text-anchor="middle" x="364" y="-578" font-family="Helvetica,sans-Serif" font-size="10.00">_lock_time</text>
</a>
</g>
</g>
<!-- Node4&#45;&gt;Node11 -->
<g id="edge11" class="edge">
<title>Node4&#45;&gt;Node11</title>
<path fill="none" stroke="midnightblue" d="M189.57,-497.61C206.51,-513.28 242.35,-544.35 278,-562 281.97,-563.97 286.13,-565.8 290.38,-567.49"/>
<polygon fill="midnightblue" stroke="midnightblue" points="289.22,-570.79 299.81,-571 291.66,-564.23 289.22,-570.79"/>
</g>
<!-- Node12 -->
<g id="node12" class="node">
<title>Node12</title>
<g id="a_node12"><a xlink:href="classmpi__lock_a918138bbc74bae70555cb03655a2a1f9.html#a918138bbc74bae70555cb03655a2a1f9" target="_top" xlink:title="get timekeeping statistics">
<polygon fill="white" stroke="black" points="297,-522 297,-552 431,-552 431,-522 297,-522"/>
<text text-anchor="start" x="305" y="-540" font-family="Helvetica,sans-Serif" font-size="10.00">mpi_lock::get_max_mpi</text>
<text text-anchor="middle" x="364" y="-529" font-family="Helvetica,sans-Serif" font-size="10.00">_hold_time</text>
</a>
</g>
</g>
<!-- Node4&#45;&gt;Node12 -->
<g id="edge12" class="edge">
<title>Node4&#45;&gt;Node12</title>
<path fill="none" stroke="midnightblue" d="M215.32,-497.56C238.45,-503.74 269.25,-511.96 296.73,-519.3"/>
<polygon fill="midnightblue" stroke="midnightblue" points="296.12,-522.76 306.69,-521.96 297.93,-516 296.12,-522.76"/>
</g>
<!-- Node13 -->
<g id="node13" class="node">
<title>Node13</title>
<g id="a_node13"><a xlink:href="classmpi__lock_a4562dec39e6bbe180b5008f3b8164475.html#a4562dec39e6bbe180b5008f3b8164475" target="_top" xlink:title="get timekeeping statistics">
<polygon fill="white" stroke="black" points="297,-473 297,-503 431,-503 431,-473 297,-473"/>
<text text-anchor="start" x="305" y="-491" font-family="Helvetica,sans-Serif" font-size="10.00">mpi_lock::get_max_mpi</text>
<text text-anchor="middle" x="364" y="-480" font-family="Helvetica,sans-Serif" font-size="10.00">_lock_time</text>
</a>
</g>
</g>
<!-- Node4&#45;&gt;Node13 -->
<g id="edge13" class="edge">
<title>Node4&#45;&gt;Node13</title>
<path fill="none" stroke="midnightblue" d="M223.45,-488C242.4,-488 265.12,-488 286.67,-488"/>
<polygon fill="midnightblue" stroke="midnightblue" points="286.8,-491.5 296.8,-488 286.8,-484.5 286.8,-491.5"/>
</g>
<!-- Node14 -->
<g id="node14" class="node">
<title>Node14</title>
<g id="a_node14"><a xlink:href="classmpi__lock_af52f3dbb6e508302f969bbdbed1c9d97.html#af52f3dbb6e508302f969bbdbed1c9d97" target="_top" xlink:title="get timekeeping statistics">
<polygon fill="white" stroke="black" points="297,-424 297,-454 431,-454 431,-424 297,-424"/>
<text text-anchor="start" x="305" y="-442" font-family="Helvetica,sans-Serif" font-size="10.00">mpi_lock::get_max_mpi</text>
<text text-anchor="middle" x="364" y="-431" font-family="Helvetica,sans-Serif" font-size="10.00">_unlock_time</text>
</a>
</g>
</g>
<!-- Node4&#45;&gt;Node14 -->
<g id="edge14" class="edge">
<title>Node4&#45;&gt;Node14</title>
<path fill="none" stroke="midnightblue" d="M215.32,-478.44C238.45,-472.26 269.25,-464.04 296.73,-456.7"/>
<polygon fill="midnightblue" stroke="midnightblue" points="297.93,-460 306.69,-454.04 296.12,-453.24 297.93,-460"/>
</g>
<!-- Node15 -->
<g id="node15" class="node">
<title>Node15</title>
<g id="a_node15"><a xlink:href="classmpi__lock_ad843a303cc544689e6fb0091347a168b.html#ad843a303cc544689e6fb0091347a168b" target="_top" xlink:title="get timekeeping statistics">
<polygon fill="white" stroke="black" points="283.5,-385.5 283.5,-404.5 444.5,-404.5 444.5,-385.5 283.5,-385.5"/>
<text text-anchor="middle" x="364" y="-392.5" font-family="Helvetica,sans-Serif" font-size="10.00">mpi_lock::get_mpi_hold_time</text>
</a>
</g>
</g>
<!-- Node4&#45;&gt;Node15 -->
<g id="edge15" class="edge">
<title>Node4&#45;&gt;Node15</title>
<path fill="none" stroke="midnightblue" d="M189.51,-478.35C206.36,-462.65 242.09,-431.66 278,-415 284.19,-412.13 290.83,-409.65 297.57,-407.51"/>
<polygon fill="midnightblue" stroke="midnightblue" points="298.87,-410.78 307.48,-404.62 296.9,-404.06 298.87,-410.78"/>
</g>
<!-- Node16 -->
<g id="node16" class="node">
<title>Node16</title>
<g id="a_node16"><a xlink:href="classmpi__lock_a143a1f1c3efe11317d21af2eefada5cf.html#a143a1f1c3efe11317d21af2eefada5cf" target="_top" xlink:title="get timekeeping statistics">
<polygon fill="white" stroke="black" points="284,-347.5 284,-366.5 444,-366.5 444,-347.5 284,-347.5"/>
<text text-anchor="middle" x="364" y="-354.5" font-family="Helvetica,sans-Serif" font-size="10.00">mpi_lock::get_mpi_lock_time</text>
</a>
</g>
</g>
<!-- Node4&#45;&gt;Node16 -->
<g id="edge16" class="edge">
<title>Node4&#45;&gt;Node16</title>
<path fill="none" stroke="midnightblue" d="M184.98,-478.38C198.03,-456.44 233.22,-402.52 278,-376 281.66,-373.83 285.54,-371.91 289.55,-370.21"/>
<polygon fill="midnightblue" stroke="midnightblue" points="290.97,-373.42 299.1,-366.62 288.51,-366.86 290.97,-373.42"/>
</g>
<!-- Node17 -->
<g id="node17" class="node">
<title>Node17</title>
<g id="a_node17"><a xlink:href="classmpi__lock_ab507807cfafa66d924b4b0161c90a44a.html#ab507807cfafa66d924b4b0161c90a44a" target="_top" xlink:title="get timekeeping statistics">
<polygon fill="white" stroke="black" points="278,-309.5 278,-328.5 450,-328.5 450,-309.5 278,-309.5"/>
<text text-anchor="middle" x="364" y="-316.5" font-family="Helvetica,sans-Serif" font-size="10.00">mpi_lock::get_mpi_unlock_time</text>
</a>
</g>
</g>
<!-- Node4&#45;&gt;Node17 -->
<g id="edge17" class="edge">
<title>Node4&#45;&gt;Node17</title>
<path fill="none" stroke="midnightblue" d="M182.83,-478.43C192.68,-451.57 224.44,-375.02 278,-338 280.89,-336 283.95,-334.22 287.13,-332.61"/>
<polygon fill="midnightblue" stroke="midnightblue" points="288.61,-335.78 296.36,-328.56 285.8,-329.37 288.61,-335.78"/>
</g>
<!-- Node18 -->
<g id="node18" class="node">
<title>Node18</title>
<g id="a_node18"><a xlink:href="classmpi__lock_aaf748b1c4867b65bb4169553462bb310.html#aaf748b1c4867b65bb4169553462bb310" target="_top" xlink:title="get timekeeping statistics">
<polygon fill="white" stroke="black" points="294,-271.5 294,-290.5 434,-290.5 434,-271.5 294,-271.5"/>
<text text-anchor="middle" x="364" y="-278.5" font-family="Helvetica,sans-Serif" font-size="10.00">mpi_lock::get_num_locks</text>
</a>
</g>
</g>
<!-- Node4&#45;&gt;Node18 -->
<g id="edge18" class="edge">
<title>Node4&#45;&gt;Node18</title>
<path fill="none" stroke="midnightblue" d="M181.53,-478.35C188.63,-447.11 215.42,-347.97 278,-300 280.36,-298.19 282.86,-296.54 285.47,-295.05"/>
<polygon fill="midnightblue" stroke="midnightblue" points="287.24,-298.08 294.68,-290.53 284.16,-291.79 287.24,-298.08"/>
</g>
<!-- Node19 -->
<g id="node19" class="node">
<title>Node19</title>
<g id="a_node19"><a xlink:href="classcache__lock_a7c2050c2d1fe11a3a2772a0305c0905e.html#a7c2050c2d1fe11a3a2772a0305c0905e" target="_top" xlink:title="Get the number of times this lock was held.">
<polygon fill="white" stroke="black" points="304.5,-222 304.5,-252 423.5,-252 423.5,-222 304.5,-222"/>
<text text-anchor="start" x="312.5" y="-240" font-family="Helvetica,sans-Serif" font-size="10.00">cache_lock::get_num</text>
<text text-anchor="middle" x="364" y="-229" font-family="Helvetica,sans-Serif" font-size="10.00">_locks</text>
</a>
</g>
</g>
<!-- Node4&#45;&gt;Node19 -->
<g id="edge19" class="edge">
<title>Node4&#45;&gt;Node19</title>
<path fill="none" stroke="midnightblue" d="M180.81,-478.14C186.01,-443.11 208.35,-323.45 278,-262 283.04,-257.56 288.83,-253.9 294.97,-250.89"/>
<polygon fill="midnightblue" stroke="midnightblue" points="296.37,-254.1 304.18,-246.94 293.61,-247.67 296.37,-254.1"/>
</g>
<!-- Node20 -->
<g id="node20" class="node">
<title>Node20</title>
<g id="a_node20"><a xlink:href="namespaceargo_1_1env_a5b409fb87255b7e434bf833ab8598113.html#a5b409fb87255b7e434bf833ab8598113" target="_top" xlink:title="get the write buffer size requested by environment variable">
<polygon fill="white" stroke="black" points="288.5,-183.5 288.5,-202.5 439.5,-202.5 439.5,-183.5 288.5,-183.5"/>
<text text-anchor="middle" x="364" y="-190.5" font-family="Helvetica,sans-Serif" font-size="10.00">argo::env::write_buffer_size</text>
</a>
</g>
</g>
<!-- Node4&#45;&gt;Node20 -->
<g id="edge21" class="edge">
<title>Node4&#45;&gt;Node20</title>
<path fill="none" stroke="midnightblue" d="M179.82,-478.44C181.68,-439.04 194.22,-287.82 278,-213 280.23,-211.01 282.61,-209.21 285.12,-207.58"/>
<polygon fill="midnightblue" stroke="midnightblue" points="286.99,-210.55 294.07,-202.67 283.62,-204.41 286.99,-210.55"/>
</g>
<!-- Node21 -->
<g id="node21" class="node">
<title>Node21</title>
<g id="a_node21"><a xlink:href="namespaceargo_1_1env_a922830e55425dbc0b85f1184be0a7751.html#a922830e55425dbc0b85f1184be0a7751" target="_top" xlink:title="get the write buffer write back size requested by environment variable">
<polygon fill="white" stroke="black" points="301,-134 301,-164 427,-164 427,-134 301,-134"/>
<text text-anchor="start" x="309" y="-152" font-family="Helvetica,sans-Serif" font-size="10.00">argo::env::write_buffer</text>
<text text-anchor="middle" x="364" y="-141" font-family="Helvetica,sans-Serif" font-size="10.00">_write_back_size</text>
</a>
</g>
</g>
<!-- Node4&#45;&gt;Node21 -->
<g id="edge22" class="edge">
<title>Node4&#45;&gt;Node21</title>
<path fill="none" stroke="midnightblue" d="M179.45,-478.43C179.79,-436.05 186.9,-263.48 278,-174 282.05,-170.03 286.69,-166.68 291.68,-163.86"/>
<polygon fill="midnightblue" stroke="midnightblue" points="293.51,-166.86 300.97,-159.33 290.44,-160.56 293.51,-166.86"/>
</g>
<!-- Node9 -->
<g id="node9" class="node">
<title>Node9</title>
<g id="a_node9"><a xlink:href="classcache__lock_a3a26cac78d1ee17663b7407b7599a9c0.html#a3a26cac78d1ee17663b7407b7599a9c0" target="_top" xlink:title="Acquire a cache lock.">
<polygon fill="white" stroke="black" points="499,-448.5 499,-467.5 596,-467.5 596,-448.5 499,-448.5"/>
<text text-anchor="middle" x="547.5" y="-455.5" font-family="Helvetica,sans-Serif" font-size="10.00">cache_lock::lock</text>
</a>
</g>
</g>
<!-- Node8&#45;&gt;Node9 -->
<g id="edge9" class="edge">
<title>Node8&#45;&gt;Node9</title>
<path fill="none" stroke="midnightblue" d="M433.9,-669.48C439.67,-666.97 445.15,-663.86 450,-660 509.75,-612.42 534.63,-518.85 542.97,-477.94"/>
<polygon fill="midnightblue" stroke="midnightblue" points="546.45,-478.36 544.9,-467.88 539.58,-477.04 546.45,-478.36"/>
</g>
<!-- Node19&#45;&gt;Node9 -->
<g id="edge20" class="edge">
<title>Node19&#45;&gt;Node9</title>
<path fill="none" stroke="midnightblue" d="M423.57,-247.23C433.11,-250.78 442.35,-255.56 450,-262 506.64,-309.67 533.01,-398.59 542.34,-438.15"/>
<polygon fill="midnightblue" stroke="midnightblue" points="538.97,-439.13 544.57,-448.12 545.8,-437.6 538.97,-439.13"/>
</g>
<!-- Node23 -->
<g id="node23" class="node">
<title>Node23</title>
<g id="a_node23"><a xlink:href="swdsm_8cpp_af056be0ae2712fab13fc590d64ef2597.html#af056be0ae2712fab13fc590d64ef2597" target="_top" xlink:title="Gives number of ArgoDSM nodes.">
<polygon fill="white" stroke="black" points="317,-95.5 317,-114.5 411,-114.5 411,-95.5 317,-95.5"/>
<text text-anchor="middle" x="364" y="-102.5" font-family="Helvetica,sans-Serif" font-size="10.00">argo_get_nodes</text>
</a>
</g>
</g>
<!-- Node22&#45;&gt;Node23 -->
<g id="edge24" class="edge">
<title>Node22&#45;&gt;Node23</title>
<path fill="none" stroke="midnightblue" d="M236.55,-105C258.81,-105 284.25,-105 306.45,-105"/>
<polygon fill="midnightblue" stroke="midnightblue" points="306.73,-108.5 316.73,-105 306.73,-101.5 306.73,-108.5"/>
</g>
<!-- Node24 -->
<g id="node24" class="node">
<title>Node24</title>
<g id="a_node24"><a xlink:href="swdsm_8cpp_aa7c3a2de6bbafdaf68fe6ceb6110ab97.html#aa7c3a2de6bbafdaf68fe6ceb6110ab97" target="_top" xlink:title="Self&#45;Invalidates all memory that has potential writers.">
<polygon fill="white" stroke="black" points="315,-57.5 315,-76.5 413,-76.5 413,-57.5 315,-57.5"/>
<text text-anchor="middle" x="364" y="-64.5" font-family="Helvetica,sans-Serif" font-size="10.00">self_invalidation</text>
</a>
</g>
</g>
<!-- Node22&#45;&gt;Node24 -->
<g id="edge25" class="edge">
<title>Node22&#45;&gt;Node24</title>
<path fill="none" stroke="midnightblue" d="M225.8,-95.41C250.46,-90.31 280.96,-83.99 306.94,-78.61"/>
<polygon fill="midnightblue" stroke="midnightblue" points="307.95,-81.98 317.03,-76.52 306.53,-75.12 307.95,-81.98"/>
</g>
<!-- Node25 -->
<g id="node25" class="node">
<title>Node25</title>
<g id="a_node25"><a xlink:href="swdsm_8cpp_aff9ea7ba7f37206d933c8dc8004dbc7b.html#aff9ea7ba7f37206d933c8dc8004dbc7b" target="_top" xlink:title="Gives an index to the sharer/writer vector depending on the address.">
<polygon fill="white" stroke="black" points="497,-115 497,-145 598,-145 598,-115 497,-115"/>
<text text-anchor="start" x="505" y="-133" font-family="Helvetica,sans-Serif" font-size="10.00">get_classification</text>
<text text-anchor="middle" x="547.5" y="-122" font-family="Helvetica,sans-Serif" font-size="10.00">_index</text>
</a>
</g>
</g>
<!-- Node24&#45;&gt;Node25 -->
<g id="edge26" class="edge">
<title>Node24&#45;&gt;Node25</title>
<path fill="none" stroke="midnightblue" d="M413.3,-75.46C425.46,-78.23 438.36,-81.72 450,-86 466.98,-92.25 469.62,-97.31 486,-105 490.28,-107.01 494.76,-109.02 499.27,-110.99"/>
<polygon fill="midnightblue" stroke="midnightblue" points="497.93,-114.22 508.5,-114.94 500.68,-107.79 497.93,-114.22"/>
</g>
<!-- Node26 -->
<g id="node26" class="node">
<title>Node26</title>
<g id="a_node26"><a xlink:href="swdsm_8cpp_a7d0d0386804df222465aaa199aab92da.html#a7d0d0386804df222465aaa199aab92da" target="_top" xlink:title="Gets the sharer window index based on the classification index.">
<polygon fill="white" stroke="black" points="486,-76.5 486,-95.5 609,-95.5 609,-76.5 486,-76.5"/>
<text text-anchor="middle" x="547.5" y="-83.5" font-family="Helvetica,sans-Serif" font-size="10.00">get_sharer_win_index</text>
</a>
</g>
</g>
<!-- Node24&#45;&gt;Node26 -->
<g id="edge27" class="edge">
<title>Node24&#45;&gt;Node26</title>
<path fill="none" stroke="midnightblue" d="M413.16,-72.04C432.3,-74.04 454.7,-76.39 475.61,-78.58"/>
<polygon fill="midnightblue" stroke="midnightblue" points="475.43,-82.08 485.74,-79.64 476.16,-75.12 475.43,-82.08"/>
</g>
<!-- Node27 -->
<g id="node27" class="node">
<title>Node27</title>
<g id="a_node27"><a xlink:href="classmpi__lock_a67301b26c3bb28c746e164c9f531d21d.html#a67301b26c3bb28c746e164c9f531d21d" target="_top" xlink:title="acquire mpi_lock">
<polygon fill="white" stroke="black" points="504,-38.5 504,-57.5 591,-57.5 591,-38.5 504,-38.5"/>
<text text-anchor="middle" x="547.5" y="-45.5" font-family="Helvetica,sans-Serif" font-size="10.00">mpi_lock::lock</text>
</a>
</g>
</g>
<!-- Node24&#45;&gt;Node27 -->
<g id="edge28" class="edge">
<title>Node24&#45;&gt;Node27</title>
<path fill="none" stroke="midnightblue" d="M413.16,-61.96C437.99,-59.36 468.32,-56.18 493.78,-53.52"/>
<polygon fill="midnightblue" stroke="midnightblue" points="494.41,-56.97 504,-52.45 493.69,-50.01 494.41,-56.97"/>
</g>
<!-- Node28 -->
<g id="node28" class="node">
<title>Node28</title>
<g id="a_node28"><a xlink:href="classmpi__lock_a38cb3649cba54a2818810c444a8b475a.html#a38cb3649cba54a2818810c444a8b475a" target="_top" xlink:title="release mpi_lock">
<polygon fill="white" stroke="black" points="498,-0.5 498,-19.5 597,-19.5 597,-0.5 498,-0.5"/>
<text text-anchor="middle" x="547.5" y="-7.5" font-family="Helvetica,sans-Serif" font-size="10.00">mpi_lock::unlock</text>
</a>
</g>
</g>
<!-- Node24&#45;&gt;Node28 -->
<g id="edge29" class="edge">
<title>Node24&#45;&gt;Node28</title>
<path fill="none" stroke="midnightblue" d="M395.38,-57.46C425.74,-47.92 472.61,-33.21 506.09,-22.69"/>
<polygon fill="midnightblue" stroke="midnightblue" points="507.53,-25.91 516.02,-19.57 505.43,-19.23 507.53,-25.91"/>
</g>
</g>
</svg>
