<?xml version="1.0" encoding="UTF-8" standalone="no"?>
<!DOCTYPE svg PUBLIC "-//W3C//DTD SVG 1.1//EN"
 "http://www.w3.org/Graphics/SVG/1.1/DTD/svg11.dtd">
<!-- Generated by graphviz version 2.43.0 (0)
 -->
<!-- Title: peek_homenode Pages: 1 -->
<svg width="722pt" height="257pt"
 viewBox="0.00 0.00 722.00 257.00" xmlns="http://www.w3.org/2000/svg" xmlns:xlink="http://www.w3.org/1999/xlink">
<g id="graph0" class="graph" transform="scale(1 1) rotate(0) translate(4 253)">
<title>peek_homenode</title>
<polygon fill="white" stroke="transparent" points="-4,4 -4,-253 718,-253 718,4 -4,4"/>
<!-- Node1 -->
<g id="node1" class="node">
<title>Node1</title>
<g id="a_node1"><a xlink:title="Gives homenode for a given address.">
<polygon fill="#bfbfbf" stroke="black" points="616,-77.5 616,-96.5 714,-96.5 714,-77.5 616,-77.5"/>
<text text-anchor="middle" x="665" y="-84.5" font-family="Helvetica,sans-Serif" font-size="10.00">peek_homenode</text>
</a>
</g>
</g>
<!-- Node2 -->
<g id="node2" class="node">
<title>Node2</title>
<g id="a_node2"><a xlink:href="swdsm_8cpp_a93e3c7288ce47ac8b4ec8ff9f8a82435.html#a93e3c7288ce47ac8b4ec8ff9f8a82435" target="_top" xlink:title="Check whether a page is either cached on the node or locally backed.">
<polygon fill="white" stroke="black" points="475,-173.5 475,-192.5 545,-192.5 545,-173.5 475,-173.5"/>
<text text-anchor="middle" x="510" y="-180.5" font-family="Helvetica,sans-Serif" font-size="10.00">_is_cached</text>
</a>
</g>
</g>
<!-- Node1&#45;&gt;Node2 -->
<g id="edge1" class="edge">
<title>Node1&#45;&gt;Node2</title>
<path fill="none" stroke="midnightblue" d="M649.56,-104.39C634.09,-121.92 607.97,-148.53 580,-164 569.35,-169.89 556.74,-174.06 545.23,-176.96"/>
<polygon fill="midnightblue" stroke="midnightblue" points="652.39,-106.46 656.26,-96.6 647.08,-101.9 652.39,-106.46"/>
</g>
<!-- Node5 -->
<g id="node5" class="node">
<title>Node5</title>
<g id="a_node5"><a xlink:href="backend_8hpp_a0fb29a8253f0d9aefc999d93414b1758.html#a0fb29a8253f0d9aefc999d93414b1758" target="_top" xlink:title="backend internal type erased function for selective acquire">
<polygon fill="white" stroke="black" points="440,-106 440,-136 580,-136 580,-106 440,-106"/>
<text text-anchor="start" x="448" y="-124" font-family="Helvetica,sans-Serif" font-size="10.00">argo::backend::_selective</text>
<text text-anchor="middle" x="510" y="-113" font-family="Helvetica,sans-Serif" font-size="10.00">_acquire</text>
</a>
</g>
</g>
<!-- Node1&#45;&gt;Node5 -->
<g id="edge5" class="edge">
<title>Node1&#45;&gt;Node5</title>
<path fill="none" stroke="midnightblue" d="M611.14,-98.75C600.65,-101.08 589.5,-103.56 578.59,-105.98"/>
<polygon fill="midnightblue" stroke="midnightblue" points="611.97,-102.15 620.97,-96.56 610.45,-95.31 611.97,-102.15"/>
</g>
<!-- Node7 -->
<g id="node7" class="node">
<title>Node7</title>
<g id="a_node7"><a xlink:href="backend_8hpp_ac3350bde3c8baf64753e515336fad3be.html#ac3350bde3c8baf64753e515336fad3be" target="_top" xlink:title="backend internal type erased function for selective release">
<polygon fill="white" stroke="black" points="440,-39 440,-69 580,-69 580,-39 440,-39"/>
<text text-anchor="start" x="448" y="-57" font-family="Helvetica,sans-Serif" font-size="10.00">argo::backend::_selective</text>
<text text-anchor="middle" x="510" y="-46" font-family="Helvetica,sans-Serif" font-size="10.00">_release</text>
</a>
</g>
</g>
<!-- Node1&#45;&gt;Node7 -->
<g id="edge9" class="edge">
<title>Node1&#45;&gt;Node7</title>
<path fill="none" stroke="midnightblue" d="M609.94,-75.34C600.33,-73.27 590.2,-71.08 580.23,-68.93"/>
<polygon fill="midnightblue" stroke="midnightblue" points="609.23,-78.77 619.75,-77.46 610.71,-71.93 609.23,-78.77"/>
</g>
<!-- Node9 -->
<g id="node9" class="node">
<title>Node9</title>
<g id="a_node9"><a xlink:href="swdsm_8cpp_a92a73a9ea2009afcbef38b3e88b9ac0f.html#a92a73a9ea2009afcbef38b3e88b9ac0f" target="_top" xlink:title="load into cache helper function">
<polygon fill="white" stroke="black" points="459,-0.5 459,-19.5 561,-19.5 561,-0.5 459,-0.5"/>
<text text-anchor="middle" x="510" y="-7.5" font-family="Helvetica,sans-Serif" font-size="10.00">load_cache_entry</text>
</a>
</g>
</g>
<!-- Node1&#45;&gt;Node9 -->
<g id="edge13" class="edge">
<title>Node1&#45;&gt;Node9</title>
<path fill="none" stroke="midnightblue" d="M644.62,-70.79C628.3,-57.86 603.85,-40.13 580,-29 572.01,-25.27 563.14,-22.15 554.5,-19.58"/>
<polygon fill="midnightblue" stroke="midnightblue" points="642.82,-73.84 652.8,-77.41 647.23,-68.4 642.82,-73.84"/>
</g>
<!-- Node3 -->
<g id="node3" class="node">
<title>Node3</title>
<g id="a_node3"><a xlink:href="backend_8hpp_a8189df2ded0e8e6b64477a53f80d67e8.html#a8189df2ded0e8e6b64477a53f80d67e8" target="_top" xlink:title="Check if a an address is cached or node local.">
<polygon fill="white" stroke="black" points="265,-211.5 265,-230.5 404,-230.5 404,-211.5 265,-211.5"/>
<text text-anchor="middle" x="334.5" y="-218.5" font-family="Helvetica,sans-Serif" font-size="10.00">argo::backend::is_cached</text>
</a>
</g>
</g>
<!-- Node2&#45;&gt;Node3 -->
<g id="edge2" class="edge">
<title>Node2&#45;&gt;Node3</title>
<path fill="none" stroke="midnightblue" d="M464.64,-192.72C438.33,-198.48 405.11,-205.75 378.96,-211.48"/>
<polygon fill="midnightblue" stroke="midnightblue" points="465.7,-196.07 474.72,-190.51 464.2,-189.23 465.7,-196.07"/>
</g>
<!-- Node4 -->
<g id="node4" class="node">
<title>Node4</title>
<g id="a_node4"><a xlink:href="swdsm_8cpp_adafea891224a2b1860cbc6afe9610334.html#adafea891224a2b1860cbc6afe9610334" target="_top" xlink:title="Perform upgrade of page classifications.">
<polygon fill="white" stroke="black" points="294.5,-173.5 294.5,-192.5 374.5,-192.5 374.5,-173.5 294.5,-173.5"/>
<text text-anchor="middle" x="334.5" y="-180.5" font-family="Helvetica,sans-Serif" font-size="10.00">self_upgrade</text>
</a>
</g>
</g>
<!-- Node2&#45;&gt;Node4 -->
<g id="edge4" class="edge">
<title>Node2&#45;&gt;Node4</title>
<path fill="none" stroke="midnightblue" d="M464.48,-183C436.69,-183 401.25,-183 374.55,-183"/>
<polygon fill="midnightblue" stroke="midnightblue" points="464.72,-186.5 474.72,-183 464.72,-179.5 464.72,-186.5"/>
</g>
<!-- Node3&#45;&gt;Node3 -->
<g id="edge3" class="edge">
<title>Node3&#45;&gt;Node3</title>
<path fill="none" stroke="midnightblue" d="M362.13,-239.65C360.97,-244.94 351.76,-249 334.5,-249 308.2,-249 300.59,-239.57 311.69,-230.76"/>
<polygon fill="midnightblue" stroke="midnightblue" points="365.15,-237.89 357.31,-230.76 358.99,-241.22 365.15,-237.89"/>
</g>
<!-- Node5&#45;&gt;Node5 -->
<g id="edge6" class="edge">
<title>Node5&#45;&gt;Node5</title>
<path fill="none" stroke="midnightblue" d="M537.36,-146.46C533.97,-151.18 524.85,-154.5 510,-154.5 485.64,-154.5 476.69,-145.56 483.16,-136.16"/>
<polygon fill="midnightblue" stroke="midnightblue" points="540.84,-145.97 536.84,-136.16 533.85,-146.32 540.84,-145.97"/>
</g>
<!-- Node6 -->
<g id="node6" class="node">
<title>Node6</title>
<g id="a_node6"><a xlink:href="backend_8hpp_aad1b8c62447de8cc06b7b4f031b77b01.html#aad1b8c62447de8cc06b7b4f031b77b01" target="_top" xlink:title="causes a node to self&#45;invalidate the specified pages from its cache, and thus getting any updated val...">
<polygon fill="white" stroke="black" points="267,-106 267,-136 402,-136 402,-106 267,-106"/>
<text text-anchor="start" x="275" y="-124" font-family="Helvetica,sans-Serif" font-size="10.00">argo::backend::selective</text>
<text text-anchor="middle" x="334.5" y="-113" font-family="Helvetica,sans-Serif" font-size="10.00">_acquire</text>
</a>
</g>
</g>
<!-- Node5&#45;&gt;Node6 -->
<g id="edge7" class="edge">
<title>Node5&#45;&gt;Node6</title>
<path fill="none" stroke="midnightblue" d="M429.9,-121C420.6,-121 411.18,-121 402.07,-121"/>
<polygon fill="midnightblue" stroke="midnightblue" points="429.93,-124.5 439.93,-121 429.93,-117.5 429.93,-124.5"/>
</g>
<!-- Node6&#45;&gt;Node6 -->
<g id="edge8" class="edge">
<title>Node6&#45;&gt;Node6</title>
<path fill="none" stroke="midnightblue" d="M360.8,-146.46C357.53,-151.18 348.77,-154.5 334.5,-154.5 311.09,-154.5 302.49,-145.56 308.71,-136.16"/>
<polygon fill="midnightblue" stroke="midnightblue" points="364.28,-145.98 360.29,-136.16 357.29,-146.32 364.28,-145.98"/>
</g>
<!-- Node7&#45;&gt;Node7 -->
<g id="edge10" class="edge">
<title>Node7&#45;&gt;Node7</title>
<path fill="none" stroke="midnightblue" d="M537.36,-79.46C533.97,-84.18 524.85,-87.5 510,-87.5 485.64,-87.5 476.69,-78.56 483.16,-69.16"/>
<polygon fill="midnightblue" stroke="midnightblue" points="540.84,-78.97 536.84,-69.16 533.85,-79.32 540.84,-78.97"/>
</g>
<!-- Node8 -->
<g id="node8" class="node">
<title>Node8</title>
<g id="a_node8"><a xlink:href="backend_8hpp_a37c88e1409650776ddb3a33d7f2744cb.html#a37c88e1409650776ddb3a33d7f2744cb" target="_top" xlink:title="causes a node to self&#45;downgrade specified pages from its cache, making all previous writes to be prop...">
<polygon fill="white" stroke="black" points="267,-39 267,-69 402,-69 402,-39 267,-39"/>
<text text-anchor="start" x="275" y="-57" font-family="Helvetica,sans-Serif" font-size="10.00">argo::backend::selective</text>
<text text-anchor="middle" x="334.5" y="-46" font-family="Helvetica,sans-Serif" font-size="10.00">_release</text>
</a>
</g>
</g>
<!-- Node7&#45;&gt;Node8 -->
<g id="edge11" class="edge">
<title>Node7&#45;&gt;Node8</title>
<path fill="none" stroke="midnightblue" d="M429.9,-54C420.6,-54 411.18,-54 402.07,-54"/>
<polygon fill="midnightblue" stroke="midnightblue" points="429.93,-57.5 439.93,-54 429.93,-50.5 429.93,-57.5"/>
</g>
<!-- Node8&#45;&gt;Node8 -->
<g id="edge12" class="edge">
<title>Node8&#45;&gt;Node8</title>
<path fill="none" stroke="midnightblue" d="M360.8,-79.46C357.53,-84.18 348.77,-87.5 334.5,-87.5 311.09,-87.5 302.49,-78.56 308.71,-69.16"/>
<polygon fill="midnightblue" stroke="midnightblue" points="364.28,-78.98 360.29,-69.16 357.29,-79.32 364.28,-78.98"/>
</g>
<!-- Node10 -->
<g id="node10" class="node">
<title>Node10</title>
<g id="a_node10"><a xlink:href="swdsm_8cpp_adb24c11067d42b9bc8515a78a524e2c7.html#adb24c11067d42b9bc8515a78a524e2c7" target="_top" xlink:title="Catches memory accesses to memory not yet cached in ArgoDSM. Launches remote requests for memory not ...">
<polygon fill="white" stroke="black" points="308,-0.5 308,-19.5 361,-19.5 361,-0.5 308,-0.5"/>
<text text-anchor="middle" x="334.5" y="-7.5" font-family="Helvetica,sans-Serif" font-size="10.00">handler</text>
</a>
</g>
</g>
<!-- Node9&#45;&gt;Node10 -->
<g id="edge14" class="edge">
<title>Node9&#45;&gt;Node10</title>
<path fill="none" stroke="midnightblue" d="M448.44,-10C418.48,-10 383.92,-10 361.01,-10"/>
<polygon fill="midnightblue" stroke="midnightblue" points="448.82,-13.5 458.82,-10 448.82,-6.5 448.82,-13.5"/>
</g>
<!-- Node11 -->
<g id="node11" class="node">
<title>Node11</title>
<g id="a_node11"><a xlink:href="swdsm_8cpp_a31ba60e8ddccfa922da8d7e6a10f7b1d.html#a31ba60e8ddccfa922da8d7e6a10f7b1d" target="_top" xlink:title="Initializes ArgoDSM runtime.">
<polygon fill="white" stroke="black" points="143,-0.5 143,-19.5 229,-19.5 229,-0.5 143,-0.5"/>
<text text-anchor="middle" x="186" y="-7.5" font-family="Helvetica,sans-Serif" font-size="10.00">argo_initialize</text>
</a>
</g>
</g>
<!-- Node10&#45;&gt;Node11 -->
<g id="edge15" class="edge">
<title>Node10&#45;&gt;Node11</title>
<path fill="none" stroke="midnightblue" d="M297.7,-10C277,-10 250.83,-10 229.13,-10"/>
<polygon fill="midnightblue" stroke="midnightblue" points="297.98,-13.5 307.98,-10 297.98,-6.5 297.98,-13.5"/>
</g>
<!-- Node12 -->
<g id="node12" class="node">
<title>Node12</title>
<g id="a_node12"><a xlink:href="backend_8hpp_aab3cabb3e1c0b9696b339416b684f78c.html#aab3cabb3e1c0b9696b339416b684f78c" target="_top" xlink:title="initialize backend">
<polygon fill="white" stroke="black" points="0,-0.5 0,-19.5 107,-19.5 107,-0.5 0,-0.5"/>
<text text-anchor="middle" x="53.5" y="-7.5" font-family="Helvetica,sans-Serif" font-size="10.00">argo::backend::init</text>
</a>
</g>
</g>
<!-- Node11&#45;&gt;Node12 -->
<g id="edge16" class="edge">
<title>Node11&#45;&gt;Node12</title>
<path fill="none" stroke="midnightblue" d="M132.94,-10C124.54,-10 115.84,-10 107.43,-10"/>
<polygon fill="midnightblue" stroke="midnightblue" points="132.99,-13.5 142.99,-10 132.99,-6.5 132.99,-13.5"/>
</g>
</g>
</svg>
