<?xml version="1.0" encoding="UTF-8" standalone="no"?>
<!DOCTYPE svg PUBLIC "-//W3C//DTD SVG 1.1//EN"
 "http://www.w3.org/Graphics/SVG/1.1/DTD/svg11.dtd">
<!-- Generated by graphviz version 2.43.0 (0)
 -->
<!-- Title: argo_acq_rel Pages: 1 -->
<svg width="496pt" height="154pt"
 viewBox="0.00 0.00 496.00 153.50" xmlns="http://www.w3.org/2000/svg" xmlns:xlink="http://www.w3.org/1999/xlink">
<g id="graph0" class="graph" transform="scale(1 1) rotate(0) translate(4 149.5)">
<title>argo_acq_rel</title>
<polygon fill="white" stroke="transparent" points="-4,4 -4,-149.5 492,-149.5 492,4 -4,4"/>
<!-- Node1 -->
<g id="node1" class="node">
<title>Node1</title>
<g id="a_node1"><a xlink:title="acquire&#45;release function for ArgoDSM (Both acquire and release according to Release Consistency)">
<polygon fill="#bfbfbf" stroke="black" points="0,-38.5 0,-57.5 79,-57.5 79,-38.5 0,-38.5"/>
<text text-anchor="middle" x="39.5" y="-45.5" font-family="Helvetica,sans-Serif" font-size="10.00">argo_acq_rel</text>
</a>
</g>
</g>
<!-- Node2 -->
<g id="node2" class="node">
<title>Node2</title>
<g id="a_node2"><a xlink:href="swdsm_8cpp_a44b8bb7a3c8b47b4f9552c8e10b25e4b.html#a44b8bb7a3c8b47b4f9552c8e10b25e4b" target="_top" xlink:title="acquire function for ArgoDSM (Acquire according to Release Consistency)">
<polygon fill="white" stroke="black" points="115,-57.5 115,-76.5 195,-76.5 195,-57.5 115,-57.5"/>
<text text-anchor="middle" x="155" y="-64.5" font-family="Helvetica,sans-Serif" font-size="10.00">argo_acquire</text>
</a>
</g>
</g>
<!-- Node1&#45;&gt;Node2 -->
<g id="edge1" class="edge">
<title>Node1&#45;&gt;Node2</title>
<path fill="none" stroke="midnightblue" d="M79.24,-54.49C87.46,-55.86 96.24,-57.33 104.78,-58.76"/>
<polygon fill="midnightblue" stroke="midnightblue" points="104.22,-62.22 114.66,-60.41 105.38,-55.31 104.22,-62.22"/>
</g>
<!-- Node8 -->
<g id="node8" class="node">
<title>Node8</title>
<g id="a_node8"><a xlink:href="swdsm_8cpp_ad390eb58e1be03ed6a0939fae7ebd20a.html#ad390eb58e1be03ed6a0939fae7ebd20a" target="_top" xlink:title="Release function for ArgoDSM (Release according to Release Consistency)">
<polygon fill="white" stroke="black" points="115,-19.5 115,-38.5 195,-38.5 195,-19.5 115,-19.5"/>
<text text-anchor="middle" x="155" y="-26.5" font-family="Helvetica,sans-Serif" font-size="10.00">argo_release</text>
</a>
</g>
</g>
<!-- Node1&#45;&gt;Node8 -->
<g id="edge7" class="edge">
<title>Node1&#45;&gt;Node8</title>
<path fill="none" stroke="midnightblue" d="M79.24,-41.51C87.46,-40.14 96.24,-38.67 104.78,-37.24"/>
<polygon fill="midnightblue" stroke="midnightblue" points="105.38,-40.69 114.66,-35.59 104.22,-33.78 105.38,-40.69"/>
</g>
<!-- Node3 -->
<g id="node3" class="node">
<title>Node3</title>
<g id="a_node3"><a xlink:href="swdsm_8cpp_aa7c3a2de6bbafdaf68fe6ceb6110ab97.html#aa7c3a2de6bbafdaf68fe6ceb6110ab97" target="_top" xlink:title="Self&#45;Invalidates all memory that has potential writers.">
<polygon fill="white" stroke="black" points="231,-57.5 231,-76.5 329,-76.5 329,-57.5 231,-57.5"/>
<text text-anchor="middle" x="280" y="-64.5" font-family="Helvetica,sans-Serif" font-size="10.00">self_invalidation</text>
</a>
</g>
</g>
<!-- Node2&#45;&gt;Node3 -->
<g id="edge2" class="edge">
<title>Node2&#45;&gt;Node3</title>
<path fill="none" stroke="midnightblue" d="M195.26,-67C203.34,-67 212.02,-67 220.62,-67"/>
<polygon fill="midnightblue" stroke="midnightblue" points="220.63,-70.5 230.63,-67 220.63,-63.5 220.63,-70.5"/>
</g>
<!-- Node4 -->
<g id="node4" class="node">
<title>Node4</title>
<g id="a_node4"><a xlink:href="swdsm_8cpp_aff9ea7ba7f37206d933c8dc8004dbc7b.html#aff9ea7ba7f37206d933c8dc8004dbc7b" target="_top" xlink:title="Gives an index to the sharer/writer vector depending on the address.">
<polygon fill="white" stroke="black" points="376,-115 376,-145 477,-145 477,-115 376,-115"/>
<text text-anchor="start" x="384" y="-133" font-family="Helvetica,sans-Serif" font-size="10.00">get_classification</text>
<text text-anchor="middle" x="426.5" y="-122" font-family="Helvetica,sans-Serif" font-size="10.00">_index</text>
</a>
</g>
</g>
<!-- Node3&#45;&gt;Node4 -->
<g id="edge3" class="edge">
<title>Node3&#45;&gt;Node4</title>
<path fill="none" stroke="midnightblue" d="M301.63,-76.56C318.58,-84.36 343.26,-95.59 365,-105 369.64,-107.01 374.49,-109.07 379.35,-111.11"/>
<polygon fill="midnightblue" stroke="midnightblue" points="378.05,-114.36 388.63,-114.99 380.75,-107.91 378.05,-114.36"/>
</g>
<!-- Node5 -->
<g id="node5" class="node">
<title>Node5</title>
<g id="a_node5"><a xlink:href="swdsm_8cpp_a7d0d0386804df222465aaa199aab92da.html#a7d0d0386804df222465aaa199aab92da" target="_top" xlink:title="Gets the sharer window index based on the classification index.">
<polygon fill="white" stroke="black" points="365,-76.5 365,-95.5 488,-95.5 488,-76.5 365,-76.5"/>
<text text-anchor="middle" x="426.5" y="-83.5" font-family="Helvetica,sans-Serif" font-size="10.00">get_sharer_win_index</text>
</a>
</g>
</g>
<!-- Node3&#45;&gt;Node5 -->
<g id="edge4" class="edge">
<title>Node3&#45;&gt;Node5</title>
<path fill="none" stroke="midnightblue" d="M329.12,-73.33C337.38,-74.41 346.11,-75.56 354.82,-76.71"/>
<polygon fill="midnightblue" stroke="midnightblue" points="354.63,-80.21 365,-78.04 355.54,-73.27 354.63,-80.21"/>
</g>
<!-- Node6 -->
<g id="node6" class="node">
<title>Node6</title>
<g id="a_node6"><a xlink:href="classmpi__lock_a67301b26c3bb28c746e164c9f531d21d.html#a67301b26c3bb28c746e164c9f531d21d" target="_top" xlink:title="acquire mpi_lock">
<polygon fill="white" stroke="black" points="383,-38.5 383,-57.5 470,-57.5 470,-38.5 383,-38.5"/>
<text text-anchor="middle" x="426.5" y="-45.5" font-family="Helvetica,sans-Serif" font-size="10.00">mpi_lock::lock</text>
</a>
</g>
</g>
<!-- Node3&#45;&gt;Node6 -->
<g id="edge5" class="edge">
<title>Node3&#45;&gt;Node6</title>
<path fill="none" stroke="midnightblue" d="M329.12,-60.67C343.12,-58.83 358.49,-56.81 372.77,-54.93"/>
<polygon fill="midnightblue" stroke="midnightblue" points="373.47,-58.37 382.93,-53.6 372.56,-51.43 373.47,-58.37"/>
</g>
<!-- Node7 -->
<g id="node7" class="node">
<title>Node7</title>
<g id="a_node7"><a xlink:href="classmpi__lock_a38cb3649cba54a2818810c444a8b475a.html#a38cb3649cba54a2818810c444a8b475a" target="_top" xlink:title="release mpi_lock">
<polygon fill="white" stroke="black" points="377,-0.5 377,-19.5 476,-19.5 476,-0.5 377,-0.5"/>
<text text-anchor="middle" x="426.5" y="-7.5" font-family="Helvetica,sans-Serif" font-size="10.00">mpi_lock::unlock</text>
</a>
</g>
</g>
<!-- Node3&#45;&gt;Node7 -->
<g id="edge6" class="edge">
<title>Node3&#45;&gt;Node7</title>
<path fill="none" stroke="midnightblue" d="M300.41,-57.42C317.25,-49.29 342.42,-37.62 365,-29 370.67,-26.84 376.7,-24.73 382.67,-22.74"/>
<polygon fill="midnightblue" stroke="midnightblue" points="384.15,-25.94 392.6,-19.54 382.01,-19.28 384.15,-25.94"/>
</g>
</g>
</svg>
