<?xml version="1.0" encoding="UTF-8" standalone="no"?>
<!DOCTYPE svg PUBLIC "-//W3C//DTD SVG 1.1//EN"
 "http://www.w3.org/Graphics/SVG/1.1/DTD/svg11.dtd">
<!-- Generated by graphviz version 2.43.0 (0)
 -->
<!-- Title: argo_get_nodes Pages: 1 -->
<svg width="721pt" height="116pt"
 viewBox="0.00 0.00 721.00 115.50" xmlns="http://www.w3.org/2000/svg" xmlns:xlink="http://www.w3.org/1999/xlink">
<g id="graph0" class="graph" transform="scale(1 1) rotate(0) translate(4 111.5)">
<title>argo_get_nodes</title>
<polygon fill="white" stroke="transparent" points="-4,4 -4,-111.5 717,-111.5 717,4 -4,4"/>
<!-- Node1 -->
<g id="node1" class="node">
<title>Node1</title>
<g id="a_node1"><a xlink:title="Gives number of ArgoDSM nodes.">
<polygon fill="#bfbfbf" stroke="black" points="619,-60.5 619,-79.5 713,-79.5 713,-60.5 619,-60.5"/>
<text text-anchor="middle" x="666" y="-67.5" font-family="Helvetica,sans-Serif" font-size="10.00">argo_get_nodes</text>
</a>
</g>
</g>
<!-- Node2 -->
<g id="node2" class="node">
<title>Node2</title>
<g id="a_node2"><a xlink:href="backend_8hpp_adbe24e2ba20048f66e97670be5273631.html#adbe24e2ba20048f66e97670be5273631" target="_top" xlink:title="get total number of ArgoDSM nodes">
<polygon fill="white" stroke="black" points="455,-77 455,-107 583,-107 583,-77 455,-77"/>
<text text-anchor="start" x="463" y="-95" font-family="Helvetica,sans-Serif" font-size="10.00">argo::backend::number</text>
<text text-anchor="middle" x="519" y="-84" font-family="Helvetica,sans-Serif" font-size="10.00">_of_nodes</text>
</a>
</g>
</g>
<!-- Node1&#45;&gt;Node2 -->
<g id="edge1" class="edge">
<title>Node1&#45;&gt;Node2</title>
<path fill="none" stroke="midnightblue" d="M608.66,-78.55C600.26,-79.82 591.55,-81.14 583.03,-82.44"/>
<polygon fill="midnightblue" stroke="midnightblue" points="609.36,-81.98 618.72,-77.02 608.31,-75.06 609.36,-81.98"/>
</g>
<!-- Node3 -->
<g id="node3" class="node">
<title>Node3</title>
<g id="a_node3"><a xlink:href="swdsm_8cpp_aca8a35703563223a3e182ebc897e2b40.html#aca8a35703563223a3e182ebc897e2b40" target="_top" xlink:title="Global barrier for ArgoDSM &#45; needs to be called by every thread in the system that need coherent view...">
<polygon fill="white" stroke="black" points="461,-38.5 461,-57.5 577,-57.5 577,-38.5 461,-38.5"/>
<text text-anchor="middle" x="519" y="-45.5" font-family="Helvetica,sans-Serif" font-size="10.00">swdsm_argo_barrier</text>
</a>
</g>
</g>
<!-- Node1&#45;&gt;Node3 -->
<g id="edge2" class="edge">
<title>Node1&#45;&gt;Node3</title>
<path fill="none" stroke="midnightblue" d="M608.56,-61.44C598.2,-59.87 587.39,-58.22 577.02,-56.65"/>
<polygon fill="midnightblue" stroke="midnightblue" points="608.31,-64.94 618.72,-62.98 609.36,-58.02 608.31,-64.94"/>
</g>
<!-- Node4 -->
<g id="node4" class="node">
<title>Node4</title>
<g id="a_node4"><a xlink:href="swdsm_8cpp_aa954d5e0bcaee69ff6e03e697bcaf68b.html#aa954d5e0bcaee69ff6e03e697bcaf68b" target="_top" xlink:title="shut down ArgoDSM system">
<polygon fill="white" stroke="black" points="317.5,-76.5 317.5,-95.5 396.5,-95.5 396.5,-76.5 317.5,-76.5"/>
<text text-anchor="middle" x="357" y="-83.5" font-family="Helvetica,sans-Serif" font-size="10.00">argo_finalize</text>
</a>
</g>
</g>
<!-- Node3&#45;&gt;Node4 -->
<g id="edge3" class="edge">
<title>Node3&#45;&gt;Node4</title>
<path fill="none" stroke="midnightblue" d="M467.72,-59.94C444.78,-65.39 418.04,-71.74 396.71,-76.81"/>
<polygon fill="midnightblue" stroke="midnightblue" points="468.7,-63.31 477.63,-57.59 467.09,-56.49 468.7,-63.31"/>
</g>
<!-- Node5 -->
<g id="node5" class="node">
<title>Node5</title>
<g id="a_node5"><a xlink:href="swdsm_8cpp_adb17e929b24ae3fd6898035fce958122.html#adb17e929b24ae3fd6898035fce958122" target="_top" xlink:title="Resets current ArgoDSM coherence.">
<polygon fill="white" stroke="black" points="295,-38.5 295,-57.5 419,-57.5 419,-38.5 295,-38.5"/>
<text text-anchor="middle" x="357" y="-45.5" font-family="Helvetica,sans-Serif" font-size="10.00">argo_reset_coherence</text>
</a>
</g>
</g>
<!-- Node3&#45;&gt;Node5 -->
<g id="edge4" class="edge">
<title>Node3&#45;&gt;Node5</title>
<path fill="none" stroke="midnightblue" d="M450.45,-48C440.09,-48 429.45,-48 419.24,-48"/>
<polygon fill="midnightblue" stroke="midnightblue" points="450.69,-51.5 460.69,-48 450.69,-44.5 450.69,-51.5"/>
</g>
<!-- Node9 -->
<g id="node9" class="node">
<title>Node9</title>
<g id="a_node9"><a xlink:href="backend_8hpp_adc47b610451cff63f21d023dc31b1945.html#adc47b610451cff63f21d023dc31b1945" target="_top" xlink:title="a simple collective barrier">
<polygon fill="white" stroke="black" points="295.5,-0.5 295.5,-19.5 418.5,-19.5 418.5,-0.5 295.5,-0.5"/>
<text text-anchor="middle" x="357" y="-7.5" font-family="Helvetica,sans-Serif" font-size="10.00">argo::backend::barrier</text>
</a>
</g>
</g>
<!-- Node3&#45;&gt;Node9 -->
<g id="edge9" class="edge">
<title>Node3&#45;&gt;Node9</title>
<path fill="none" stroke="midnightblue" d="M467.61,-36.03C445.19,-30.71 419.15,-24.52 398.08,-19.52"/>
<polygon fill="midnightblue" stroke="midnightblue" points="467.09,-39.51 477.63,-38.41 468.7,-32.69 467.09,-39.51"/>
</g>
<!-- Node6 -->
<g id="node6" class="node">
<title>Node6</title>
<g id="a_node6"><a xlink:href="swdsm_8cpp_a31ba60e8ddccfa922da8d7e6a10f7b1d.html#a31ba60e8ddccfa922da8d7e6a10f7b1d" target="_top" xlink:title="Initializes ArgoDSM runtime.">
<polygon fill="white" stroke="black" points="158,-69.5 158,-88.5 244,-88.5 244,-69.5 158,-69.5"/>
<text text-anchor="middle" x="201" y="-76.5" font-family="Helvetica,sans-Serif" font-size="10.00">argo_initialize</text>
</a>
</g>
</g>
<!-- Node5&#45;&gt;Node6 -->
<g id="edge5" class="edge">
<title>Node5&#45;&gt;Node6</title>
<path fill="none" stroke="midnightblue" d="M298.67,-59.54C280.57,-63.18 260.92,-67.14 244.09,-70.53"/>
<polygon fill="midnightblue" stroke="midnightblue" points="299.43,-62.96 308.54,-57.55 298.04,-56.1 299.43,-62.96"/>
</g>
<!-- Node8 -->
<g id="node8" class="node">
<title>Node8</title>
<g id="a_node8"><a xlink:href="backend_8hpp_acb57f009ad65913e26147c6813eda04e.html#acb57f009ad65913e26147c6813eda04e" target="_top" xlink:title="Resets current ArgoDSM coherence.">
<polygon fill="white" stroke="black" points="143,-2 143,-32 259,-32 259,-2 143,-2"/>
<text text-anchor="start" x="151" y="-20" font-family="Helvetica,sans-Serif" font-size="10.00">argo::backend::reset</text>
<text text-anchor="middle" x="201" y="-9" font-family="Helvetica,sans-Serif" font-size="10.00">_coherence</text>
</a>
</g>
</g>
<!-- Node5&#45;&gt;Node8 -->
<g id="edge7" class="edge">
<title>Node5&#45;&gt;Node8</title>
<path fill="none" stroke="midnightblue" d="M298.41,-36.41C285.54,-33.82 271.9,-31.07 259.05,-28.48"/>
<polygon fill="midnightblue" stroke="midnightblue" points="298.04,-39.9 308.54,-38.45 299.43,-33.04 298.04,-39.9"/>
</g>
<!-- Node7 -->
<g id="node7" class="node">
<title>Node7</title>
<g id="a_node7"><a xlink:href="backend_8hpp_aab3cabb3e1c0b9696b339416b684f78c.html#aab3cabb3e1c0b9696b339416b684f78c" target="_top" xlink:title="initialize backend">
<polygon fill="white" stroke="black" points="0,-69.5 0,-88.5 107,-88.5 107,-69.5 0,-69.5"/>
<text text-anchor="middle" x="53.5" y="-76.5" font-family="Helvetica,sans-Serif" font-size="10.00">argo::backend::init</text>
</a>
</g>
</g>
<!-- Node6&#45;&gt;Node7 -->
<g id="edge6" class="edge">
<title>Node6&#45;&gt;Node7</title>
<path fill="none" stroke="midnightblue" d="M147.6,-79C134.42,-79 120.29,-79 107.1,-79"/>
<polygon fill="midnightblue" stroke="midnightblue" points="147.92,-82.5 157.92,-79 147.92,-75.5 147.92,-82.5"/>
</g>
<!-- Node8&#45;&gt;Node8 -->
<g id="edge8" class="edge">
<title>Node8&#45;&gt;Node8</title>
<path fill="none" stroke="midnightblue" d="M226.94,-42.46C223.72,-47.18 215.08,-50.5 201,-50.5 177.9,-50.5 169.42,-41.56 175.56,-32.16"/>
<polygon fill="midnightblue" stroke="midnightblue" points="230.42,-41.98 226.44,-32.16 223.43,-42.32 230.42,-41.98"/>
</g>
</g>
</svg>
