<?xml version="1.0" encoding="UTF-8" standalone="no"?>
<!DOCTYPE svg PUBLIC "-//W3C//DTD SVG 1.1//EN"
 "http://www.w3.org/Graphics/SVG/1.1/DTD/svg11.dtd">
<!-- Generated by graphviz version 2.43.0 (0)
 -->
<!-- Title: sharer_op Pages: 1 -->
<svg width="650pt" height="166pt"
 viewBox="0.00 0.00 650.00 165.78" xmlns="http://www.w3.org/2000/svg" xmlns:xlink="http://www.w3.org/1999/xlink">
<g id="graph0" class="graph" transform="scale(1 1) rotate(0) translate(4 161.78)">
<title>sharer_op</title>
<polygon fill="white" stroke="transparent" points="-4,4 -4,-161.78 646,-161.78 646,4 -4,4"/>
<!-- Node1 -->
<g id="node1" class="node">
<title>Node1</title>
<g id="a_node1"><a xlink:title="Locks the correct mpi_lock_sharer, performs operation op and then unlocks the locked mpi_lock_sharer.">
<polygon fill="#bfbfbf" stroke="black" points="577,-57.5 577,-76.5 642,-76.5 642,-57.5 577,-57.5"/>
<text text-anchor="middle" x="609.5" y="-64.5" font-family="Helvetica,sans-Serif" font-size="10.00">sharer_op</text>
</a>
</g>
</g>
<!-- Node2 -->
<g id="node2" class="node">
<title>Node2</title>
<g id="a_node2"><a xlink:href="swdsm_8cpp_adb17e929b24ae3fd6898035fce958122.html#adb17e929b24ae3fd6898035fce958122" target="_top" xlink:title="Resets current ArgoDSM coherence.">
<polygon fill="white" stroke="black" points="417,-114.5 417,-133.5 541,-133.5 541,-114.5 417,-114.5"/>
<text text-anchor="middle" x="479" y="-121.5" font-family="Helvetica,sans-Serif" font-size="10.00">argo_reset_coherence</text>
</a>
</g>
</g>
<!-- Node1&#45;&gt;Node2 -->
<g id="edge1" class="edge">
<title>Node1&#45;&gt;Node2</title>
<path fill="none" stroke="midnightblue" d="M580.9,-81.11C568.77,-87.15 554.28,-94.15 541,-100 529.54,-105.04 516.67,-110.19 505.71,-114.41"/>
<polygon fill="midnightblue" stroke="midnightblue" points="582.7,-84.12 590.06,-76.51 579.56,-77.87 582.7,-84.12"/>
</g>
<!-- Node6 -->
<g id="node6" class="node">
<title>Node6</title>
<g id="a_node6"><a xlink:href="swdsm_8cpp_adb24c11067d42b9bc8515a78a524e2c7.html#adb24c11067d42b9bc8515a78a524e2c7" target="_top" xlink:title="Catches memory accesses to memory not yet cached in ArgoDSM. Launches remote requests for memory not ...">
<polygon fill="white" stroke="black" points="296.5,-54.5 296.5,-73.5 349.5,-73.5 349.5,-54.5 296.5,-54.5"/>
<text text-anchor="middle" x="323" y="-61.5" font-family="Helvetica,sans-Serif" font-size="10.00">handler</text>
</a>
</g>
</g>
<!-- Node1&#45;&gt;Node6 -->
<g id="edge6" class="edge">
<title>Node1&#45;&gt;Node6</title>
<path fill="none" stroke="midnightblue" d="M566.61,-67.39C527.81,-67.66 468.5,-67.83 417,-67 394.23,-66.63 368.33,-65.76 349.65,-65.05"/>
<polygon fill="midnightblue" stroke="midnightblue" points="567.01,-70.89 576.98,-67.31 566.96,-63.89 567.01,-70.89"/>
</g>
<!-- Node7 -->
<g id="node7" class="node">
<title>Node7</title>
<g id="a_node7"><a xlink:href="swdsm_8cpp_a92a73a9ea2009afcbef38b3e88b9ac0f.html#a92a73a9ea2009afcbef38b3e88b9ac0f" target="_top" xlink:title="load into cache helper function">
<polygon fill="white" stroke="black" points="428,-38.5 428,-57.5 530,-57.5 530,-38.5 428,-38.5"/>
<text text-anchor="middle" x="479" y="-45.5" font-family="Helvetica,sans-Serif" font-size="10.00">load_cache_entry</text>
</a>
</g>
</g>
<!-- Node1&#45;&gt;Node7 -->
<g id="edge8" class="edge">
<title>Node1&#45;&gt;Node7</title>
<path fill="none" stroke="midnightblue" d="M566.5,-60.79C554.97,-59.09 542.35,-57.22 530.4,-55.45"/>
<polygon fill="midnightblue" stroke="midnightblue" points="566.33,-64.3 576.74,-62.3 567.36,-57.38 566.33,-64.3"/>
</g>
<!-- Node8 -->
<g id="node8" class="node">
<title>Node8</title>
<g id="a_node8"><a xlink:href="swdsm_8cpp_adafea891224a2b1860cbc6afe9610334.html#adafea891224a2b1860cbc6afe9610334" target="_top" xlink:title="Perform upgrade of page classifications.">
<polygon fill="white" stroke="black" points="439,-0.5 439,-19.5 519,-19.5 519,-0.5 439,-0.5"/>
<text text-anchor="middle" x="479" y="-7.5" font-family="Helvetica,sans-Serif" font-size="10.00">self_upgrade</text>
</a>
</g>
</g>
<!-- Node1&#45;&gt;Node8 -->
<g id="edge10" class="edge">
<title>Node1&#45;&gt;Node8</title>
<path fill="none" stroke="midnightblue" d="M585.11,-52.22C572.39,-44.6 556.2,-35.56 541,-29 532.75,-25.44 523.61,-22.23 514.98,-19.51"/>
<polygon fill="midnightblue" stroke="midnightblue" points="583.33,-55.23 593.69,-57.45 586.98,-49.26 583.33,-55.23"/>
</g>
<!-- Node3 -->
<g id="node3" class="node">
<title>Node3</title>
<g id="a_node3"><a xlink:href="swdsm_8cpp_a31ba60e8ddccfa922da8d7e6a10f7b1d.html#a31ba60e8ddccfa922da8d7e6a10f7b1d" target="_top" xlink:title="Initializes ArgoDSM runtime.">
<polygon fill="white" stroke="black" points="143,-107.5 143,-126.5 229,-126.5 229,-107.5 143,-107.5"/>
<text text-anchor="middle" x="186" y="-114.5" font-family="Helvetica,sans-Serif" font-size="10.00">argo_initialize</text>
</a>
</g>
</g>
<!-- Node2&#45;&gt;Node3 -->
<g id="edge2" class="edge">
<title>Node2&#45;&gt;Node3</title>
<path fill="none" stroke="midnightblue" d="M441.7,-136.63C423.69,-142.24 401.46,-148.21 381,-151 329.92,-157.98 315.47,-161.52 265,-151 242.58,-146.33 218.72,-134.85 203.38,-126.52"/>
<polygon fill="midnightblue" stroke="midnightblue" points="442.78,-139.96 451.24,-133.57 440.64,-133.29 442.78,-139.96"/>
</g>
<!-- Node5 -->
<g id="node5" class="node">
<title>Node5</title>
<g id="a_node5"><a xlink:href="backend_8hpp_acb57f009ad65913e26147c6813eda04e.html#acb57f009ad65913e26147c6813eda04e" target="_top" xlink:title="Resets current ArgoDSM coherence.">
<polygon fill="white" stroke="black" points="265,-93 265,-123 381,-123 381,-93 265,-93"/>
<text text-anchor="start" x="273" y="-111" font-family="Helvetica,sans-Serif" font-size="10.00">argo::backend::reset</text>
<text text-anchor="middle" x="323" y="-100" font-family="Helvetica,sans-Serif" font-size="10.00">_coherence</text>
</a>
</g>
</g>
<!-- Node2&#45;&gt;Node5 -->
<g id="edge4" class="edge">
<title>Node2&#45;&gt;Node5</title>
<path fill="none" stroke="midnightblue" d="M406.69,-116.59C398.11,-115.7 389.43,-114.8 381.09,-113.93"/>
<polygon fill="midnightblue" stroke="midnightblue" points="406.38,-120.08 416.69,-117.63 407.11,-113.12 406.38,-120.08"/>
</g>
<!-- Node4 -->
<g id="node4" class="node">
<title>Node4</title>
<g id="a_node4"><a xlink:href="backend_8hpp_aab3cabb3e1c0b9696b339416b684f78c.html#aab3cabb3e1c0b9696b339416b684f78c" target="_top" xlink:title="initialize backend">
<polygon fill="white" stroke="black" points="0,-107.5 0,-126.5 107,-126.5 107,-107.5 0,-107.5"/>
<text text-anchor="middle" x="53.5" y="-114.5" font-family="Helvetica,sans-Serif" font-size="10.00">argo::backend::init</text>
</a>
</g>
</g>
<!-- Node3&#45;&gt;Node4 -->
<g id="edge3" class="edge">
<title>Node3&#45;&gt;Node4</title>
<path fill="none" stroke="midnightblue" d="M132.94,-117C124.54,-117 115.84,-117 107.43,-117"/>
<polygon fill="midnightblue" stroke="midnightblue" points="132.99,-120.5 142.99,-117 132.99,-113.5 132.99,-120.5"/>
</g>
<!-- Node5&#45;&gt;Node5 -->
<g id="edge5" class="edge">
<title>Node5&#45;&gt;Node5</title>
<path fill="none" stroke="midnightblue" d="M347.17,-133.46C344.17,-138.18 336.11,-141.5 323,-141.5 301.48,-141.5 293.58,-132.56 299.3,-123.16"/>
<polygon fill="midnightblue" stroke="midnightblue" points="350.65,-132.99 346.7,-123.16 343.66,-133.31 350.65,-132.99"/>
</g>
<!-- Node6&#45;&gt;Node3 -->
<g id="edge7" class="edge">
<title>Node6&#45;&gt;Node3</title>
<path fill="none" stroke="midnightblue" d="M286.75,-75.98C279.53,-78.54 271.99,-81.3 265,-84 245.8,-91.42 224.27,-100.6 208.7,-107.39"/>
<polygon fill="midnightblue" stroke="midnightblue" points="288.06,-79.23 296.34,-72.62 285.74,-72.62 288.06,-79.23"/>
</g>
<!-- Node7&#45;&gt;Node6 -->
<g id="edge9" class="edge">
<title>Node7&#45;&gt;Node6</title>
<path fill="none" stroke="midnightblue" d="M417.33,-54.3C393.89,-56.74 368.32,-59.4 349.88,-61.31"/>
<polygon fill="midnightblue" stroke="midnightblue" points="417.99,-57.75 427.57,-53.24 417.27,-50.79 417.99,-57.75"/>
</g>
</g>
</svg>
