<?xml version="1.0" encoding="UTF-8" standalone="no"?>
<!DOCTYPE svg PUBLIC "-//W3C//DTD SVG 1.1//EN"
 "http://www.w3.org/Graphics/SVG/1.1/DTD/svg11.dtd">
<!-- Generated by graphviz version 2.43.0 (0)
 -->
<!-- Title: handler Pages: 1 -->
<svg width="1003pt" height="657pt"
 viewBox="0.00 0.00 1003.00 657.10" xmlns="http://www.w3.org/2000/svg" xmlns:xlink="http://www.w3.org/1999/xlink">
<g id="graph0" class="graph" transform="scale(1 1) rotate(0) translate(4 653.1)">
<title>handler</title>
<polygon fill="white" stroke="transparent" points="-4,4 -4,-653.1 999,-653.1 999,4 -4,4"/>
<!-- Node1 -->
<g id="node1" class="node">
<title>Node1</title>
<g id="a_node1"><a xlink:title="Catches memory accesses to memory not yet cached in ArgoDSM. Launches remote requests for memory not ...">
<polygon fill="#bfbfbf" stroke="black" points="0,-285.5 0,-304.5 53,-304.5 53,-285.5 0,-285.5"/>
<text text-anchor="middle" x="26.5" y="-292.5" font-family="Helvetica,sans-Serif" font-size="10.00">handler</text>
</a>
</g>
</g>
<!-- Node2 -->
<g id="node2" class="node">
<title>Node2</title>
<g id="a_node2"><a xlink:href="swdsm_8cpp_ad56e0108259917bf97090212b3927f55.html#ad56e0108259917bf97090212b3927f55" target="_top" xlink:title="align an offset into a memory region to the beginning of its size block">
<polygon fill="white" stroke="black" points="240,-582.5 240,-601.5 338,-601.5 338,-582.5 240,-582.5"/>
<text text-anchor="middle" x="289" y="-589.5" font-family="Helvetica,sans-Serif" font-size="10.00">align_backwards</text>
</a>
</g>
</g>
<!-- Node1&#45;&gt;Node2 -->
<g id="edge1" class="edge">
<title>Node1&#45;&gt;Node2</title>
<path fill="none" stroke="midnightblue" d="M30.89,-304.67C38.98,-327.01 60.82,-383.47 89,-425 139.5,-499.42 150.86,-525.14 227,-573 230.34,-575.1 233.93,-576.98 237.63,-578.67"/>
<polygon fill="midnightblue" stroke="midnightblue" points="236.41,-581.95 246.99,-582.46 239.04,-575.46 236.41,-581.95"/>
</g>
<!-- Node3 -->
<g id="node3" class="node">
<title>Node3</title>
<g id="a_node3"><a xlink:href="swdsm_8cpp_aff9ea7ba7f37206d933c8dc8004dbc7b.html#aff9ea7ba7f37206d933c8dc8004dbc7b" target="_top" xlink:title="Gives an index to the sharer/writer vector depending on the address.">
<polygon fill="white" stroke="black" points="238.5,-533 238.5,-563 339.5,-563 339.5,-533 238.5,-533"/>
<text text-anchor="start" x="246.5" y="-551" font-family="Helvetica,sans-Serif" font-size="10.00">get_classification</text>
<text text-anchor="middle" x="289" y="-540" font-family="Helvetica,sans-Serif" font-size="10.00">_index</text>
</a>
</g>
</g>
<!-- Node1&#45;&gt;Node3 -->
<g id="edge2" class="edge">
<title>Node1&#45;&gt;Node3</title>
<path fill="none" stroke="midnightblue" d="M36.34,-304.58C63.76,-334.14 150.12,-426.23 227,-497 237.85,-506.98 250.26,-517.51 261.04,-526.39"/>
<polygon fill="midnightblue" stroke="midnightblue" points="258.96,-529.21 268.92,-532.83 263.39,-523.79 258.96,-529.21"/>
</g>
<!-- Node4 -->
<g id="node4" class="node">
<title>Node4</title>
<g id="a_node4"><a xlink:href="swdsm_8cpp_ab2e5fbbe4d1f44d25619f290dc37dd3e.html#ab2e5fbbe4d1f44d25619f290dc37dd3e" target="_top" xlink:title="Gives homenode for a given address.">
<polygon fill="white" stroke="black" points="404,-451.5 404,-470.5 493,-470.5 493,-451.5 404,-451.5"/>
<text text-anchor="middle" x="448.5" y="-458.5" font-family="Helvetica,sans-Serif" font-size="10.00">get_homenode</text>
</a>
</g>
</g>
<!-- Node1&#45;&gt;Node4 -->
<g id="edge3" class="edge">
<title>Node1&#45;&gt;Node4</title>
<path fill="none" stroke="midnightblue" d="M28.41,-304.8C31.68,-335.8 45.1,-433.57 89,-499 133.01,-564.6 152.55,-584.59 227,-611 278.94,-629.42 307.1,-644.32 351,-611 398.41,-575.01 346.23,-525.37 387,-482 389.32,-479.53 391.95,-477.35 394.78,-475.43"/>
<polygon fill="midnightblue" stroke="midnightblue" points="396.74,-478.33 403.75,-470.39 393.32,-472.23 396.74,-478.33"/>
</g>
<!-- Node8 -->
<g id="node8" class="node">
<title>Node8</title>
<g id="a_node8"><a xlink:href="swdsm_8cpp_a974f1a03f5461bb989248cceb41cd95b.html#a974f1a03f5461bb989248cceb41cd95b" target="_top" xlink:title="Gets the offset of an address on the local nodes part of the global memory.">
<polygon fill="white" stroke="black" points="416,-491.5 416,-510.5 481,-510.5 481,-491.5 416,-491.5"/>
<text text-anchor="middle" x="448.5" y="-498.5" font-family="Helvetica,sans-Serif" font-size="10.00">get_offset</text>
</a>
</g>
</g>
<!-- Node1&#45;&gt;Node8 -->
<g id="edge7" class="edge">
<title>Node1&#45;&gt;Node8</title>
<path fill="none" stroke="midnightblue" d="M27.03,-304.65C25.7,-341.93 25.56,-478.54 89,-561 131.31,-616 159.66,-617.29 227,-634 280.49,-647.28 301.9,-659.04 351,-634 398.06,-610 427.53,-551.14 440.23,-520.4"/>
<polygon fill="midnightblue" stroke="midnightblue" points="443.61,-521.39 444.03,-510.8 437.1,-518.82 443.61,-521.39"/>
</g>
<!-- Node10 -->
<g id="node10" class="node">
<title>Node10</title>
<g id="a_node10"><a xlink:href="swdsm_8cpp_af2592c5b9f7cd578cabc43f106e6b671.html#af2592c5b9f7cd578cabc43f106e6b671" target="_top" xlink:title="Gets the sharer window offset based on the classification index.">
<polygon fill="white" stroke="black" points="227,-76.5 227,-95.5 351,-95.5 351,-76.5 227,-76.5"/>
<text text-anchor="middle" x="289" y="-83.5" font-family="Helvetica,sans-Serif" font-size="10.00">get_sharer_win_offset</text>
</a>
</g>
</g>
<!-- Node1&#45;&gt;Node10 -->
<g id="edge10" class="edge">
<title>Node1&#45;&gt;Node10</title>
<path fill="none" stroke="midnightblue" d="M40.19,-285.49C68.79,-263.75 139.77,-208.04 191,-153 209.17,-133.48 205.21,-120.38 227,-105 229.72,-103.08 232.64,-101.35 235.67,-99.79"/>
<polygon fill="midnightblue" stroke="midnightblue" points="237.34,-102.88 245.04,-95.61 234.49,-96.49 237.34,-102.88"/>
</g>
<!-- Node11 -->
<g id="node11" class="node">
<title>Node11</title>
<g id="a_node11"><a xlink:href="swdsm_8cpp_a59e4c59c2940cc3727debeeff4af1889.html#a59e4c59c2940cc3727debeeff4af1889" target="_top" xlink:title="Gets cacheindex for a given address.">
<polygon fill="white" stroke="black" points="244.5,-38.5 244.5,-57.5 333.5,-57.5 333.5,-38.5 244.5,-38.5"/>
<text text-anchor="middle" x="289" y="-45.5" font-family="Helvetica,sans-Serif" font-size="10.00">getCacheIndex</text>
</a>
</g>
</g>
<!-- Node1&#45;&gt;Node11 -->
<g id="edge11" class="edge">
<title>Node1&#45;&gt;Node11</title>
<path fill="none" stroke="midnightblue" d="M29.57,-285.31C35.24,-260.68 53.05,-194.73 89,-153 130.24,-105.12 198.82,-75.83 243.72,-60.75"/>
<polygon fill="midnightblue" stroke="midnightblue" points="245.06,-63.99 253.48,-57.57 242.89,-57.34 245.06,-63.99"/>
</g>
<!-- Node12 -->
<g id="node12" class="node">
<title>Node12</title>
<g id="a_node12"><a xlink:href="swdsm_8cpp_a20faabb614d49afd77911ebff37942a3.html#a20faabb614d49afd77911ebff37942a3" target="_top" xlink:title="Checks if its argument is 0 or power of 2.">
<polygon fill="white" stroke="black" points="236,-0.5 236,-19.5 342,-19.5 342,-0.5 236,-0.5"/>
<text text-anchor="middle" x="289" y="-7.5" font-family="Helvetica,sans-Serif" font-size="10.00">isZeroOrPowerOf2</text>
</a>
</g>
</g>
<!-- Node1&#45;&gt;Node12 -->
<g id="edge12" class="edge">
<title>Node1&#45;&gt;Node12</title>
<path fill="none" stroke="midnightblue" d="M27.33,-285.34C27.27,-252.03 31.58,-140.61 89,-79 124.39,-41.03 181.71,-23.96 225.77,-16.28"/>
<polygon fill="midnightblue" stroke="midnightblue" points="226.5,-19.7 235.81,-14.65 225.37,-12.79 226.5,-19.7"/>
</g>
<!-- Node13 -->
<g id="node13" class="node">
<title>Node13</title>
<g id="a_node13"><a xlink:href="swdsm_8cpp_a92a73a9ea2009afcbef38b3e88b9ac0f.html#a92a73a9ea2009afcbef38b3e88b9ac0f" target="_top" xlink:title="load into cache helper function">
<polygon fill="white" stroke="black" points="89,-285.5 89,-304.5 191,-304.5 191,-285.5 89,-285.5"/>
<text text-anchor="middle" x="140" y="-292.5" font-family="Helvetica,sans-Serif" font-size="10.00">load_cache_entry</text>
</a>
</g>
</g>
<!-- Node1&#45;&gt;Node13 -->
<g id="edge13" class="edge">
<title>Node1&#45;&gt;Node13</title>
<path fill="none" stroke="midnightblue" d="M53.08,-295C60.83,-295 69.7,-295 78.73,-295"/>
<polygon fill="midnightblue" stroke="midnightblue" points="78.94,-298.5 88.94,-295 78.94,-291.5 78.94,-298.5"/>
</g>
<!-- Node22 -->
<g id="node22" class="node">
<title>Node22</title>
<g id="a_node22"><a xlink:href="swdsm_8cpp_a2a2d9247bd62413b221876836b39dafb.html#a2a2d9247bd62413b221876836b39dafb" target="_top" xlink:title="Locks the correct mpi_lock_sharer, performs operation op and then unlocks the locked mpi_lock_sharer.">
<polygon fill="white" stroke="black" points="256.5,-228.5 256.5,-247.5 321.5,-247.5 321.5,-228.5 256.5,-228.5"/>
<text text-anchor="middle" x="289" y="-235.5" font-family="Helvetica,sans-Serif" font-size="10.00">sharer_op</text>
</a>
</g>
</g>
<!-- Node1&#45;&gt;Node22 -->
<g id="edge43" class="edge">
<title>Node1&#45;&gt;Node22</title>
<path fill="none" stroke="midnightblue" d="M53.05,-286.41C64.04,-282.9 77.07,-278.97 89,-276 142.85,-262.59 205.9,-251.27 246.37,-244.57"/>
<polygon fill="midnightblue" stroke="midnightblue" points="247.1,-247.99 256.4,-242.92 245.97,-241.09 247.1,-247.99"/>
</g>
<!-- Node5 -->
<g id="node5" class="node">
<title>Node5</title>
<g id="a_node5"><a xlink:href="classargo_1_1data__distribution_1_1global__ptr_ac7d651586337d08cda18ef26ffcd34a0.html#ac7d651586337d08cda18ef26ffcd34a0" target="_top" xlink:title="return the home node of the value pointed to">
<polygon fill="white" stroke="black" points="549.5,-386 549.5,-416 676.5,-416 676.5,-386 549.5,-386"/>
<text text-anchor="start" x="557.5" y="-404" font-family="Helvetica,sans-Serif" font-size="10.00">argo::data_distribution</text>
<text text-anchor="middle" x="613" y="-393" font-family="Helvetica,sans-Serif" font-size="10.00">::global_ptr::node</text>
</a>
</g>
</g>
<!-- Node4&#45;&gt;Node5 -->
<g id="edge4" class="edge">
<title>Node4&#45;&gt;Node5</title>
<path fill="none" stroke="midnightblue" d="M475.25,-451.49C498.41,-442.94 533.08,-430.14 561.72,-419.56"/>
<polygon fill="midnightblue" stroke="midnightblue" points="563.01,-422.82 571.18,-416.07 560.58,-416.25 563.01,-422.82"/>
</g>
<!-- Node6 -->
<g id="node6" class="node">
<title>Node6</title>
<g id="a_node6"><a xlink:href="classargo_1_1data__distribution_1_1global__ptr_ae4353680349f6abbd2cf262dace8e2f2.html#ae4353680349f6abbd2cf262dace8e2f2" target="_top" xlink:title="return a pointer to the selected allocation policy">
<polygon fill="white" stroke="black" points="716,-337 716,-367 843,-367 843,-337 716,-337"/>
<text text-anchor="start" x="724" y="-355" font-family="Helvetica,sans-Serif" font-size="10.00">argo::data_distribution</text>
<text text-anchor="middle" x="779.5" y="-344" font-family="Helvetica,sans-Serif" font-size="10.00">::global_ptr::policy</text>
</a>
</g>
</g>
<!-- Node5&#45;&gt;Node6 -->
<g id="edge5" class="edge">
<title>Node5&#45;&gt;Node6</title>
<path fill="none" stroke="midnightblue" d="M664.7,-385.9C681.66,-380.84 700.74,-375.16 718.36,-369.92"/>
<polygon fill="midnightblue" stroke="midnightblue" points="719.39,-373.26 727.97,-367.05 717.39,-366.55 719.39,-373.26"/>
</g>
<!-- Node7 -->
<g id="node7" class="node">
<title>Node7</title>
<g id="a_node7"><a xlink:href="namespaceargo_1_1env_a25a08cb2d0d11432d640ec7173063339.html#a25a08cb2d0d11432d640ec7173063339" target="_top" xlink:title="get the allocation policy requested by environment variable">
<polygon fill="white" stroke="black" points="879,-337 879,-367 995,-367 995,-337 879,-337"/>
<text text-anchor="start" x="887" y="-355" font-family="Helvetica,sans-Serif" font-size="10.00">argo::env::allocation</text>
<text text-anchor="middle" x="937" y="-344" font-family="Helvetica,sans-Serif" font-size="10.00">_policy</text>
</a>
</g>
</g>
<!-- Node6&#45;&gt;Node7 -->
<g id="edge6" class="edge">
<title>Node6&#45;&gt;Node7</title>
<path fill="none" stroke="midnightblue" d="M843.3,-352C851.69,-352 860.32,-352 868.78,-352"/>
<polygon fill="midnightblue" stroke="midnightblue" points="868.99,-355.5 878.99,-352 868.99,-348.5 868.99,-355.5"/>
</g>
<!-- Node9 -->
<g id="node9" class="node">
<title>Node9</title>
<g id="a_node9"><a xlink:href="classargo_1_1data__distribution_1_1global__ptr_ad8c21c408fa2b926cfd9acfd87e8e4e6.html#ad8c21c408fa2b926cfd9acfd87e8e4e6" target="_top" xlink:title="return the offset on the home node&#39;s local memory share">
<polygon fill="white" stroke="black" points="549.5,-447 549.5,-477 676.5,-477 676.5,-447 549.5,-447"/>
<text text-anchor="start" x="557.5" y="-465" font-family="Helvetica,sans-Serif" font-size="10.00">argo::data_distribution</text>
<text text-anchor="middle" x="613" y="-454" font-family="Helvetica,sans-Serif" font-size="10.00">::global_ptr::offset</text>
</a>
</g>
</g>
<!-- Node8&#45;&gt;Node9 -->
<g id="edge8" class="edge">
<title>Node8&#45;&gt;Node9</title>
<path fill="none" stroke="midnightblue" d="M481.22,-493.39C497.89,-489.39 519.05,-484.31 539.48,-479.41"/>
<polygon fill="midnightblue" stroke="midnightblue" points="540.51,-482.76 549.42,-477.02 538.88,-475.95 540.51,-482.76"/>
</g>
<!-- Node9&#45;&gt;Node6 -->
<g id="edge9" class="edge">
<title>Node9&#45;&gt;Node6</title>
<path fill="none" stroke="midnightblue" d="M643.77,-446.94C655.3,-440.81 668.48,-433.42 680,-426 705.38,-409.67 732.71,-388.85 752.13,-373.46"/>
<polygon fill="midnightblue" stroke="midnightblue" points="754.57,-376 760.2,-367.02 750.2,-370.53 754.57,-376"/>
</g>
<!-- Node13&#45;&gt;Node2 -->
<g id="edge14" class="edge">
<title>Node13&#45;&gt;Node2</title>
<path fill="none" stroke="midnightblue" d="M142.77,-304.77C151,-349.33 186.94,-532.86 227,-573 228.44,-574.44 229.99,-575.78 231.62,-577.01"/>
<polygon fill="midnightblue" stroke="midnightblue" points="230.02,-580.13 240.38,-582.37 233.68,-574.16 230.02,-580.13"/>
</g>
<!-- Node13&#45;&gt;Node3 -->
<g id="edge15" class="edge">
<title>Node13&#45;&gt;Node3</title>
<path fill="none" stroke="midnightblue" d="M145.17,-304.74C153.96,-325.34 174.88,-374.89 191,-417 208.04,-461.5 195.29,-482.43 227,-518 230.09,-521.46 233.66,-524.57 237.51,-527.35"/>
<polygon fill="midnightblue" stroke="midnightblue" points="235.95,-530.5 246.27,-532.92 239.71,-524.6 235.95,-530.5"/>
</g>
<!-- Node13&#45;&gt;Node4 -->
<g id="edge18" class="edge">
<title>Node13&#45;&gt;Node4</title>
<path fill="none" stroke="midnightblue" d="M143.81,-304.85C151.83,-331 177.52,-402.34 227,-434 276.78,-465.86 345.99,-469.25 393.51,-466.84"/>
<polygon fill="midnightblue" stroke="midnightblue" points="393.84,-470.33 403.61,-466.22 393.41,-463.34 393.84,-470.33"/>
</g>
<!-- Node13&#45;&gt;Node8 -->
<g id="edge19" class="edge">
<title>Node13&#45;&gt;Node8</title>
<path fill="none" stroke="midnightblue" d="M144.54,-304.55C156.82,-337.11 198.34,-442.96 227,-464 279.48,-502.52 357.82,-506.45 405.62,-504.58"/>
<polygon fill="midnightblue" stroke="midnightblue" points="405.82,-508.07 415.63,-504.08 405.47,-501.08 405.82,-508.07"/>
</g>
<!-- Node13&#45;&gt;Node10 -->
<g id="edge21" class="edge">
<title>Node13&#45;&gt;Node10</title>
<path fill="none" stroke="midnightblue" d="M148.73,-285.2C159.47,-271.21 178.93,-244.39 191,-219 213.82,-171.02 189.36,-142.5 227,-105 228.47,-103.53 230.06,-102.18 231.73,-100.93"/>
<polygon fill="midnightblue" stroke="midnightblue" points="233.96,-103.67 240.7,-95.51 230.34,-97.68 233.96,-103.67"/>
</g>
<!-- Node13&#45;&gt;Node11 -->
<g id="edge22" class="edge">
<title>Node13&#45;&gt;Node11</title>
<path fill="none" stroke="midnightblue" d="M144.39,-285.3C159.27,-242.84 218.4,-75.11 227,-67 229.46,-64.68 232.2,-62.64 235.12,-60.85"/>
<polygon fill="midnightblue" stroke="midnightblue" points="236.97,-63.84 244.31,-56.2 233.81,-57.6 236.97,-63.84"/>
</g>
<!-- Node13&#45;&gt;Node12 -->
<g id="edge23" class="edge">
<title>Node13&#45;&gt;Node12</title>
<path fill="none" stroke="midnightblue" d="M141.11,-285.42C142.1,-247.22 150.92,-104.27 227,-29 228.48,-27.54 230.07,-26.19 231.74,-24.94"/>
<polygon fill="midnightblue" stroke="midnightblue" points="233.97,-27.69 240.73,-19.53 230.36,-21.69 233.97,-27.69"/>
</g>
<!-- Node14 -->
<g id="node14" class="node">
<title>Node14</title>
<g id="a_node14"><a xlink:href="swdsm_8cpp_af5bb31046df1aef1cccf72f19fe63640.html#af5bb31046df1aef1cccf72f19fe63640" target="_top" xlink:title="Gets the data window index based on the offset into the node&#39;s backing store.">
<polygon fill="white" stroke="black" points="391.5,-408.5 391.5,-427.5 505.5,-427.5 505.5,-408.5 391.5,-408.5"/>
<text text-anchor="middle" x="448.5" y="-415.5" font-family="Helvetica,sans-Serif" font-size="10.00">get_data_win_index</text>
</a>
</g>
</g>
<!-- Node13&#45;&gt;Node14 -->
<g id="edge16" class="edge">
<title>Node13&#45;&gt;Node14</title>
<path fill="none" stroke="midnightblue" d="M144.8,-304.63C154.46,-327.65 182.42,-385.64 227,-409 276.64,-435.01 341.54,-434.24 388.05,-428.79"/>
<polygon fill="midnightblue" stroke="midnightblue" points="388.5,-432.26 397.98,-427.53 387.62,-425.32 388.5,-432.26"/>
</g>
<!-- Node15 -->
<g id="node15" class="node">
<title>Node15</title>
<g id="a_node15"><a xlink:href="swdsm_8cpp_a3f19b1fc7fe36a6eabdae48e53fb66fa.html#a3f19b1fc7fe36a6eabdae48e53fb66fa" target="_top" xlink:title="Gets the sharer window offset based on the classification index.">
<polygon fill="white" stroke="black" points="391,-361.5 391,-380.5 506,-380.5 506,-361.5 391,-361.5"/>
<text text-anchor="middle" x="448.5" y="-368.5" font-family="Helvetica,sans-Serif" font-size="10.00">get_data_win_offset</text>
</a>
</g>
</g>
<!-- Node13&#45;&gt;Node15 -->
<g id="edge17" class="edge">
<title>Node13&#45;&gt;Node15</title>
<path fill="none" stroke="midnightblue" d="M176.09,-304.6C191.66,-308.81 210.22,-313.74 227,-318 285.01,-332.73 351.87,-348.65 396.62,-359.16"/>
<polygon fill="midnightblue" stroke="midnightblue" points="395.84,-362.57 406.38,-361.45 397.44,-355.76 395.84,-362.57"/>
</g>
<!-- Node16 -->
<g id="node16" class="node">
<title>Node16</title>
<g id="a_node16"><a xlink:href="swdsm_8cpp_a7d0d0386804df222465aaa199aab92da.html#a7d0d0386804df222465aaa199aab92da" target="_top" xlink:title="Gets the sharer window index based on the classification index.">
<polygon fill="white" stroke="black" points="387,-209.5 387,-228.5 510,-228.5 510,-209.5 387,-209.5"/>
<text text-anchor="middle" x="448.5" y="-216.5" font-family="Helvetica,sans-Serif" font-size="10.00">get_sharer_win_index</text>
</a>
</g>
</g>
<!-- Node13&#45;&gt;Node16 -->
<g id="edge20" class="edge">
<title>Node13&#45;&gt;Node16</title>
<path fill="none" stroke="midnightblue" d="M147.93,-285.4C161.05,-268.15 191.41,-232.47 227,-219 279.26,-199.22 343.6,-201.99 389.27,-208.04"/>
<polygon fill="midnightblue" stroke="midnightblue" points="388.9,-211.52 399.3,-209.45 389.88,-204.59 388.9,-211.52"/>
</g>
<!-- Node17 -->
<g id="node17" class="node">
<title>Node17</title>
<g id="a_node17"><a xlink:href="classmpi__lock_a67301b26c3bb28c746e164c9f531d21d.html#a67301b26c3bb28c746e164c9f531d21d" target="_top" xlink:title="acquire mpi_lock">
<polygon fill="white" stroke="black" points="405,-304.5 405,-323.5 492,-323.5 492,-304.5 405,-304.5"/>
<text text-anchor="middle" x="448.5" y="-311.5" font-family="Helvetica,sans-Serif" font-size="10.00">mpi_lock::lock</text>
</a>
</g>
</g>
<!-- Node13&#45;&gt;Node17 -->
<g id="edge24" class="edge">
<title>Node13&#45;&gt;Node17</title>
<path fill="none" stroke="midnightblue" d="M191.27,-298.12C247.23,-301.59 337.28,-307.17 394.37,-310.71"/>
<polygon fill="midnightblue" stroke="midnightblue" points="394.43,-314.22 404.63,-311.34 394.86,-307.23 394.43,-314.22"/>
</g>
<!-- Node18 -->
<g id="node18" class="node">
<title>Node18</title>
<g id="a_node18"><a xlink:href="swdsm_8cpp_ac2a76a52d43c19cf7d5ed770e14c4409.html#ac2a76a52d43c19cf7d5ed770e14c4409" target="_top" xlink:title="Gives homenode for a given address.">
<polygon fill="white" stroke="black" points="240,-152.5 240,-171.5 338,-171.5 338,-152.5 240,-152.5"/>
<text text-anchor="middle" x="289" y="-159.5" font-family="Helvetica,sans-Serif" font-size="10.00">peek_homenode</text>
</a>
</g>
</g>
<!-- Node13&#45;&gt;Node18 -->
<g id="edge25" class="edge">
<title>Node13&#45;&gt;Node18</title>
<path fill="none" stroke="midnightblue" d="M146.16,-285.45C157.89,-264.6 188.49,-214.6 227,-186 232.46,-181.94 238.7,-178.47 245.06,-175.53"/>
<polygon fill="midnightblue" stroke="midnightblue" points="246.52,-178.72 254.37,-171.6 243.8,-172.27 246.52,-178.72"/>
</g>
<!-- Node20 -->
<g id="node20" class="node">
<title>Node20</title>
<g id="a_node20"><a xlink:href="swdsm_8cpp_aa5da42b70088b546b0f16d0a8031cfd1.html#aa5da42b70088b546b0f16d0a8031cfd1" target="_top" xlink:title="Gets the offset of an address on the local nodes part of the global memory.">
<polygon fill="white" stroke="black" points="252,-114.5 252,-133.5 326,-133.5 326,-114.5 252,-114.5"/>
<text text-anchor="middle" x="289" y="-121.5" font-family="Helvetica,sans-Serif" font-size="10.00">peek_offset</text>
</a>
</g>
</g>
<!-- Node13&#45;&gt;Node20 -->
<g id="edge28" class="edge">
<title>Node13&#45;&gt;Node20</title>
<path fill="none" stroke="midnightblue" d="M147.92,-285.43C158.01,-271.29 177.07,-243.78 191,-219 209.32,-186.42 198.78,-167.51 227,-143 231.51,-139.09 236.81,-135.98 242.39,-133.51"/>
<polygon fill="midnightblue" stroke="midnightblue" points="243.79,-136.72 251.92,-129.93 241.33,-130.17 243.79,-136.72"/>
</g>
<!-- Node13&#45;&gt;Node22 -->
<g id="edge31" class="edge">
<title>Node13&#45;&gt;Node22</title>
<path fill="none" stroke="midnightblue" d="M165.6,-285.46C189.77,-276.09 226.85,-261.71 253.86,-251.24"/>
<polygon fill="midnightblue" stroke="midnightblue" points="255.26,-254.45 263.32,-247.57 252.73,-247.92 255.26,-254.45"/>
</g>
<!-- Node23 -->
<g id="node23" class="node">
<title>Node23</title>
<g id="a_node23"><a xlink:href="classmpi__lock_a38cb3649cba54a2818810c444a8b475a.html#a38cb3649cba54a2818810c444a8b475a" target="_top" xlink:title="release mpi_lock">
<polygon fill="white" stroke="black" points="399,-266.5 399,-285.5 498,-285.5 498,-266.5 399,-266.5"/>
<text text-anchor="middle" x="448.5" y="-273.5" font-family="Helvetica,sans-Serif" font-size="10.00">mpi_lock::unlock</text>
</a>
</g>
</g>
<!-- Node13&#45;&gt;Node23 -->
<g id="edge42" class="edge">
<title>Node13&#45;&gt;Node23</title>
<path fill="none" stroke="midnightblue" d="M191.27,-291.88C245.5,-288.52 331.75,-283.18 388.99,-279.63"/>
<polygon fill="midnightblue" stroke="midnightblue" points="389.21,-283.12 398.98,-279.01 388.78,-276.13 389.21,-283.12"/>
</g>
<!-- Node24 -->
<g id="node24" class="node">
<title>Node24</title>
<g id="a_node24"><a xlink:href="swdsm_8cpp_a3b6a6b2b244edb9faa79814ce8e5e9f5.html#a3b6a6b2b244edb9faa79814ce8e5e9f5" target="_top" xlink:title="stores a page remotely &#45; only writing back what has been written locally since last synchronization p...">
<polygon fill="white" stroke="black" points="245,-380.5 245,-399.5 333,-399.5 333,-380.5 245,-380.5"/>
<text text-anchor="middle" x="289" y="-387.5" font-family="Helvetica,sans-Serif" font-size="10.00">storepageDIFF</text>
</a>
</g>
</g>
<!-- Node13&#45;&gt;Node24 -->
<g id="edge35" class="edge">
<title>Node13&#45;&gt;Node24</title>
<path fill="none" stroke="midnightblue" d="M150.54,-304.64C165.64,-319.46 196.47,-348.01 227,-366 233.83,-370.02 241.45,-373.63 248.93,-376.75"/>
<polygon fill="midnightblue" stroke="midnightblue" points="247.68,-380.02 258.26,-380.45 250.25,-373.51 247.68,-380.02"/>
</g>
<!-- Node19 -->
<g id="node19" class="node">
<title>Node19</title>
<g id="a_node19"><a xlink:href="classargo_1_1data__distribution_1_1global__ptr_a3e2cdd4d323ef91174615e27ab94e342.html#a3e2cdd4d323ef91174615e27ab94e342" target="_top" xlink:title="return the home node of the value pointed to, or a default value if the page has not yet been first&#45;t...">
<polygon fill="white" stroke="black" points="547.5,-313 547.5,-343 678.5,-343 678.5,-313 547.5,-313"/>
<text text-anchor="start" x="555.5" y="-331" font-family="Helvetica,sans-Serif" font-size="10.00">argo::data_distribution</text>
<text text-anchor="middle" x="613" y="-320" font-family="Helvetica,sans-Serif" font-size="10.00">::global_ptr::peek_node</text>
</a>
</g>
</g>
<!-- Node18&#45;&gt;Node19 -->
<g id="edge26" class="edge">
<title>Node18&#45;&gt;Node19</title>
<path fill="none" stroke="midnightblue" d="M338.19,-159.66C385.64,-159.66 458.33,-166.06 510,-200 534.42,-216.04 528.15,-231.87 546,-255 559.74,-272.8 576.8,-291.6 590.13,-305.66"/>
<polygon fill="midnightblue" stroke="midnightblue" points="587.67,-308.14 597.11,-312.94 592.72,-303.3 587.67,-308.14"/>
</g>
<!-- Node19&#45;&gt;Node6 -->
<g id="edge27" class="edge">
<title>Node19&#45;&gt;Node6</title>
<path fill="none" stroke="midnightblue" d="M678.54,-337.42C687.44,-338.71 696.62,-340.05 705.65,-341.37"/>
<polygon fill="midnightblue" stroke="midnightblue" points="705.36,-344.87 715.76,-342.85 706.37,-337.94 705.36,-344.87"/>
</g>
<!-- Node21 -->
<g id="node21" class="node">
<title>Node21</title>
<g id="a_node21"><a xlink:href="classargo_1_1data__distribution_1_1global__ptr_aac6a3f5ce7b21b72cb7179c82aa1ffbc.html#aac6a3f5ce7b21b72cb7179c82aa1ffbc" target="_top" xlink:title="return the offset on the home node&#39;s local memory share or a default value if the page has not yet be...">
<polygon fill="white" stroke="black" points="546,-215 546,-245 680,-245 680,-215 546,-215"/>
<text text-anchor="start" x="554" y="-233" font-family="Helvetica,sans-Serif" font-size="10.00">argo::data_distribution</text>
<text text-anchor="middle" x="613" y="-222" font-family="Helvetica,sans-Serif" font-size="10.00">::global_ptr::peek_offset</text>
</a>
</g>
</g>
<!-- Node20&#45;&gt;Node21 -->
<g id="edge29" class="edge">
<title>Node20&#45;&gt;Node21</title>
<path fill="none" stroke="midnightblue" d="M326.02,-124.28C370.74,-125.77 448.61,-132.12 510,-157 539.67,-169.02 568.9,-191.31 588.41,-208.11"/>
<polygon fill="midnightblue" stroke="midnightblue" points="586.33,-210.94 596.15,-214.92 590.96,-205.69 586.33,-210.94"/>
</g>
<!-- Node21&#45;&gt;Node6 -->
<g id="edge30" class="edge">
<title>Node21&#45;&gt;Node6</title>
<path fill="none" stroke="midnightblue" d="M634.5,-245.2C663.6,-266.78 716.98,-306.38 749.94,-330.82"/>
<polygon fill="midnightblue" stroke="midnightblue" points="748.14,-333.84 758.26,-336.99 752.31,-328.22 748.14,-333.84"/>
</g>
<!-- Node22&#45;&gt;Node16 -->
<g id="edge32" class="edge">
<title>Node22&#45;&gt;Node16</title>
<path fill="none" stroke="midnightblue" d="M321.87,-234.16C337.72,-232.24 357.54,-229.85 376.73,-227.54"/>
<polygon fill="midnightblue" stroke="midnightblue" points="377.17,-231.01 386.68,-226.34 376.33,-224.06 377.17,-231.01"/>
</g>
<!-- Node22&#45;&gt;Node17 -->
<g id="edge33" class="edge">
<title>Node22&#45;&gt;Node17</title>
<path fill="none" stroke="midnightblue" d="M303.92,-247.55C322.29,-259.83 355.94,-281.21 387,-295 392.03,-297.23 397.4,-299.32 402.8,-301.23"/>
<polygon fill="midnightblue" stroke="midnightblue" points="401.85,-304.61 412.45,-304.47 404.08,-297.97 401.85,-304.61"/>
</g>
<!-- Node22&#45;&gt;Node23 -->
<g id="edge34" class="edge">
<title>Node22&#45;&gt;Node23</title>
<path fill="none" stroke="midnightblue" d="M321.87,-245.69C343.68,-250.95 373.02,-258.03 397.86,-264.02"/>
<polygon fill="midnightblue" stroke="midnightblue" points="397.3,-267.49 407.85,-266.43 398.94,-260.68 397.3,-267.49"/>
</g>
<!-- Node24&#45;&gt;Node4 -->
<g id="edge38" class="edge">
<title>Node24&#45;&gt;Node4</title>
<path fill="none" stroke="midnightblue" d="M308.77,-399.6C328.17,-409.41 359.42,-424.87 387,-437 395.34,-440.67 404.43,-444.41 412.97,-447.81"/>
<polygon fill="midnightblue" stroke="midnightblue" points="411.72,-451.08 422.31,-451.48 414.28,-444.57 411.72,-451.08"/>
</g>
<!-- Node24&#45;&gt;Node8 -->
<g id="edge39" class="edge">
<title>Node24&#45;&gt;Node8</title>
<path fill="none" stroke="midnightblue" d="M297.83,-399.52C313.16,-417.61 349,-457.17 387,-480 392.95,-483.58 399.61,-486.66 406.26,-489.28"/>
<polygon fill="midnightblue" stroke="midnightblue" points="405.34,-492.66 415.93,-492.78 407.72,-486.08 405.34,-492.66"/>
</g>
<!-- Node24&#45;&gt;Node14 -->
<g id="edge36" class="edge">
<title>Node24&#45;&gt;Node14</title>
<path fill="none" stroke="midnightblue" d="M333.04,-397.65C348.72,-400.44 366.8,-403.65 383.9,-406.69"/>
<polygon fill="midnightblue" stroke="midnightblue" points="383.36,-410.15 393.82,-408.46 384.59,-403.26 383.36,-410.15"/>
</g>
<!-- Node24&#45;&gt;Node15 -->
<g id="edge37" class="edge">
<title>Node24&#45;&gt;Node15</title>
<path fill="none" stroke="midnightblue" d="M333.04,-384.81C347.82,-383.02 364.73,-380.98 380.94,-379.03"/>
<polygon fill="midnightblue" stroke="midnightblue" points="381.41,-382.5 390.92,-377.83 380.57,-375.55 381.41,-382.5"/>
</g>
<!-- Node24&#45;&gt;Node17 -->
<g id="edge40" class="edge">
<title>Node24&#45;&gt;Node17</title>
<path fill="none" stroke="midnightblue" d="M309.95,-380.37C337.4,-367.13 387.01,-343.19 418.55,-327.97"/>
<polygon fill="midnightblue" stroke="midnightblue" points="420.23,-331.05 427.71,-323.55 417.19,-324.74 420.23,-331.05"/>
</g>
<!-- Node24&#45;&gt;Node23 -->
<g id="edge41" class="edge">
<title>Node24&#45;&gt;Node23</title>
<path fill="none" stroke="midnightblue" d="M297.18,-380.41C311.93,-361.38 347.57,-318.62 387,-295 390.46,-292.93 394.17,-291.06 397.99,-289.38"/>
<polygon fill="midnightblue" stroke="midnightblue" points="399.59,-292.51 407.61,-285.58 397.02,-286 399.59,-292.51"/>
</g>
</g>
</svg>
