<?xml version="1.0" encoding="UTF-8" standalone="no"?>
<!DOCTYPE svg PUBLIC "-//W3C//DTD SVG 1.1//EN"
 "http://www.w3.org/Graphics/SVG/1.1/DTD/svg11.dtd">
<!-- Generated by graphviz version 2.43.0 (0)
 -->
<!-- Title: align_backwards Pages: 1 -->
<svg width="684pt" height="141pt"
 viewBox="0.00 0.00 684.00 141.00" xmlns="http://www.w3.org/2000/svg" xmlns:xlink="http://www.w3.org/1999/xlink">
<g id="graph0" class="graph" transform="scale(1 1) rotate(0) translate(4 137)">
<title>align_backwards</title>
<polygon fill="white" stroke="transparent" points="-4,4 -4,-137 680,-137 680,4 -4,4"/>
<!-- Node1 -->
<g id="node1" class="node">
<title>Node1</title>
<g id="a_node1"><a xlink:title="align an offset into a memory region to the beginning of its size block">
<polygon fill="#bfbfbf" stroke="black" points="578,-38.5 578,-57.5 676,-57.5 676,-38.5 578,-38.5"/>
<text text-anchor="middle" x="627" y="-45.5" font-family="Helvetica,sans-Serif" font-size="10.00">align_backwards</text>
</a>
</g>
</g>
<!-- Node2 -->
<g id="node2" class="node">
<title>Node2</title>
<g id="a_node2"><a xlink:href="swdsm_8cpp_a93e3c7288ce47ac8b4ec8ff9f8a82435.html#a93e3c7288ce47ac8b4ec8ff9f8a82435" target="_top" xlink:title="Check whether a page is either cached on the node or locally backed.">
<polygon fill="white" stroke="black" points="456,-76.5 456,-95.5 526,-95.5 526,-76.5 456,-76.5"/>
<text text-anchor="middle" x="491" y="-83.5" font-family="Helvetica,sans-Serif" font-size="10.00">_is_cached</text>
</a>
</g>
</g>
<!-- Node1&#45;&gt;Node2 -->
<g id="edge1" class="edge">
<title>Node1&#45;&gt;Node2</title>
<path fill="none" stroke="midnightblue" d="M582.56,-60.32C564.15,-65.54 543.02,-71.53 525.8,-76.41"/>
<polygon fill="midnightblue" stroke="midnightblue" points="583.52,-63.68 592.19,-57.59 581.61,-56.95 583.52,-63.68"/>
</g>
<!-- Node5 -->
<g id="node5" class="node">
<title>Node5</title>
<g id="a_node5"><a xlink:href="swdsm_8cpp_adb24c11067d42b9bc8515a78a524e2c7.html#adb24c11067d42b9bc8515a78a524e2c7" target="_top" xlink:title="Catches memory accesses to memory not yet cached in ArgoDSM. Launches remote requests for memory not ...">
<polygon fill="white" stroke="black" points="308,-10.5 308,-29.5 361,-29.5 361,-10.5 308,-10.5"/>
<text text-anchor="middle" x="334.5" y="-17.5" font-family="Helvetica,sans-Serif" font-size="10.00">handler</text>
</a>
</g>
</g>
<!-- Node1&#45;&gt;Node5 -->
<g id="edge5" class="edge">
<title>Node1&#45;&gt;Node5</title>
<path fill="none" stroke="midnightblue" d="M567.53,-42.36C504.6,-36.3 407.38,-26.93 361.35,-22.49"/>
<polygon fill="midnightblue" stroke="midnightblue" points="567.41,-45.87 577.7,-43.34 568.09,-38.9 567.41,-45.87"/>
</g>
<!-- Node8 -->
<g id="node8" class="node">
<title>Node8</title>
<g id="a_node8"><a xlink:href="swdsm_8cpp_a92a73a9ea2009afcbef38b3e88b9ac0f.html#a92a73a9ea2009afcbef38b3e88b9ac0f" target="_top" xlink:title="load into cache helper function">
<polygon fill="white" stroke="black" points="440,-0.5 440,-19.5 542,-19.5 542,-0.5 440,-0.5"/>
<text text-anchor="middle" x="491" y="-7.5" font-family="Helvetica,sans-Serif" font-size="10.00">load_cache_entry</text>
</a>
</g>
</g>
<!-- Node1&#45;&gt;Node8 -->
<g id="edge8" class="edge">
<title>Node1&#45;&gt;Node8</title>
<path fill="none" stroke="midnightblue" d="M582.56,-35.68C564.15,-30.46 543.02,-24.47 525.8,-19.59"/>
<polygon fill="midnightblue" stroke="midnightblue" points="581.61,-39.05 592.19,-38.41 583.52,-32.32 581.61,-39.05"/>
</g>
<!-- Node3 -->
<g id="node3" class="node">
<title>Node3</title>
<g id="a_node3"><a xlink:href="backend_8hpp_a8189df2ded0e8e6b64477a53f80d67e8.html#a8189df2ded0e8e6b64477a53f80d67e8" target="_top" xlink:title="Check if a an address is cached or node local.">
<polygon fill="white" stroke="black" points="265,-95.5 265,-114.5 404,-114.5 404,-95.5 265,-95.5"/>
<text text-anchor="middle" x="334.5" y="-102.5" font-family="Helvetica,sans-Serif" font-size="10.00">argo::backend::is_cached</text>
</a>
</g>
</g>
<!-- Node2&#45;&gt;Node3 -->
<g id="edge2" class="edge">
<title>Node2&#45;&gt;Node3</title>
<path fill="none" stroke="midnightblue" d="M445.69,-91.45C432.75,-93.04 418.29,-94.82 404.21,-96.55"/>
<polygon fill="midnightblue" stroke="midnightblue" points="446.21,-94.91 455.71,-90.22 445.36,-87.96 446.21,-94.91"/>
</g>
<!-- Node4 -->
<g id="node4" class="node">
<title>Node4</title>
<g id="a_node4"><a xlink:href="swdsm_8cpp_adafea891224a2b1860cbc6afe9610334.html#adafea891224a2b1860cbc6afe9610334" target="_top" xlink:title="Perform upgrade of page classifications.">
<polygon fill="white" stroke="black" points="294.5,-57.5 294.5,-76.5 374.5,-76.5 374.5,-57.5 294.5,-57.5"/>
<text text-anchor="middle" x="334.5" y="-64.5" font-family="Helvetica,sans-Serif" font-size="10.00">self_upgrade</text>
</a>
</g>
</g>
<!-- Node2&#45;&gt;Node4 -->
<g id="edge4" class="edge">
<title>Node2&#45;&gt;Node4</title>
<path fill="none" stroke="midnightblue" d="M445.75,-80.56C423.3,-77.8 396.27,-74.47 374.59,-71.81"/>
<polygon fill="midnightblue" stroke="midnightblue" points="445.36,-84.04 455.71,-81.78 446.21,-77.09 445.36,-84.04"/>
</g>
<!-- Node3&#45;&gt;Node3 -->
<g id="edge3" class="edge">
<title>Node3&#45;&gt;Node3</title>
<path fill="none" stroke="midnightblue" d="M362.13,-123.65C360.97,-128.94 351.76,-133 334.5,-133 308.2,-133 300.59,-123.57 311.69,-114.76"/>
<polygon fill="midnightblue" stroke="midnightblue" points="365.15,-121.89 357.31,-114.76 358.99,-125.22 365.15,-121.89"/>
</g>
<!-- Node6 -->
<g id="node6" class="node">
<title>Node6</title>
<g id="a_node6"><a xlink:href="swdsm_8cpp_a31ba60e8ddccfa922da8d7e6a10f7b1d.html#a31ba60e8ddccfa922da8d7e6a10f7b1d" target="_top" xlink:title="Initializes ArgoDSM runtime.">
<polygon fill="white" stroke="black" points="143,-10.5 143,-29.5 229,-29.5 229,-10.5 143,-10.5"/>
<text text-anchor="middle" x="186" y="-17.5" font-family="Helvetica,sans-Serif" font-size="10.00">argo_initialize</text>
</a>
</g>
</g>
<!-- Node5&#45;&gt;Node6 -->
<g id="edge6" class="edge">
<title>Node5&#45;&gt;Node6</title>
<path fill="none" stroke="midnightblue" d="M297.7,-20C277,-20 250.83,-20 229.13,-20"/>
<polygon fill="midnightblue" stroke="midnightblue" points="297.98,-23.5 307.98,-20 297.98,-16.5 297.98,-23.5"/>
</g>
<!-- Node7 -->
<g id="node7" class="node">
<title>Node7</title>
<g id="a_node7"><a xlink:href="backend_8hpp_aab3cabb3e1c0b9696b339416b684f78c.html#aab3cabb3e1c0b9696b339416b684f78c" target="_top" xlink:title="initialize backend">
<polygon fill="white" stroke="black" points="0,-10.5 0,-29.5 107,-29.5 107,-10.5 0,-10.5"/>
<text text-anchor="middle" x="53.5" y="-17.5" font-family="Helvetica,sans-Serif" font-size="10.00">argo::backend::init</text>
</a>
</g>
</g>
<!-- Node6&#45;&gt;Node7 -->
<g id="edge7" class="edge">
<title>Node6&#45;&gt;Node7</title>
<path fill="none" stroke="midnightblue" d="M132.94,-20C124.54,-20 115.84,-20 107.43,-20"/>
<polygon fill="midnightblue" stroke="midnightblue" points="132.99,-23.5 142.99,-20 132.99,-16.5 132.99,-23.5"/>
</g>
<!-- Node8&#45;&gt;Node5 -->
<g id="edge9" class="edge">
<title>Node8&#45;&gt;Node5</title>
<path fill="none" stroke="midnightblue" d="M429.8,-13.9C405.97,-15.44 379.87,-17.13 361.18,-18.34"/>
<polygon fill="midnightblue" stroke="midnightblue" points="430.09,-17.39 439.84,-13.25 429.63,-10.4 430.09,-17.39"/>
</g>
</g>
</svg>
