<?xml version="1.0" encoding="UTF-8" standalone="no"?>
<!DOCTYPE svg PUBLIC "-//W3C//DTD SVG 1.1//EN"
 "http://www.w3.org/Graphics/SVG/1.1/DTD/svg11.dtd">
<!-- Generated by graphviz version 2.43.0 (0)
 -->
<!-- Title: storepageDIFF Pages: 1 -->
<!--zoomable 218 -->
<svg id="main" version="1.1" xmlns="http://www.w3.org/2000/svg" xmlns:xlink="http://www.w3.org/1999/xlink" xml:space="preserve" onload="init(evt)">
<style type="text/css"><![CDATA[
.edge:hover path { stroke: red; }
.edge:hover polygon { stroke: red; fill: red; }
]]></style>
<script type="text/javascript"><![CDATA[
var edges = document.getElementsByTagName('g');
if (edges && edges.length) {
  for (var i=0;i<edges.length;i++) {
    if (edges[i].id.substr(0,4)=='edge') {
      edges[i].setAttribute('class','edge');
    }
  }
}
]]></script>
        <defs>
                <circle id="rim" cx="0" cy="0" r="7"/>
                <circle id="rim2" cx="0" cy="0" r="3.5"/>
                <g id="zoomPlus">
                        <use xlink:href="#rim" fill="#404040">
                                <set attributeName="fill" to="#808080" begin="zoomplus.mouseover" end="zoomplus.mouseout"/>
                        </use>
                        <path d="M-4,0h8M0,-4v8" fill="none" stroke="white" stroke-width="1.5" pointer-events="none"/>
                </g>
                <g id="zoomMin">
                        <use xlink:href="#rim" fill="#404040">
                                <set attributeName="fill" to="#808080" begin="zoomminus.mouseover" end="zoomminus.mouseout"/>
                        </use>
                        <path d="M-4,0h8" fill="none" stroke="white" stroke-width="1.5" pointer-events="none"/>
                </g>
                <g id="dirArrow">
                        <path fill="none" stroke="white" stroke-width="1.5" d="M0,-3.0v7 M-2.5,-0.5L0,-3.0L2.5,-0.5"/>
                </g>
               <g id="resetDef">
                       <use xlink:href="#rim2" fill="#404040">
                               <set attributeName="fill" to="#808080" begin="reset.mouseover" end="reset.mouseout"/>
                       </use>
               </g>
        </defs>

<script type="text/javascript">
var viewWidth = 725;
var viewHeight = 218;
var sectionId = 'dynsection-0';
</script>
<script xlink:href="svgpan.js"/>
<svg id="graph" class="graph">
<g id="viewport">
<title>storepageDIFF</title>
<polygon fill="white" stroke="transparent" points="-4,4 -4,-214 721,-214 721,4 -4,4"/>
<!-- Node1 -->
<g id="node1" class="node">
<title>Node1</title>
<g id="a_node1"><a xlink:title="stores a page remotely &#45; only writing back what has been written locally since last synchronization p...">
<polygon fill="#bfbfbf" stroke="black" points="0,-95.5 0,-114.5 88,-114.5 88,-95.5 0,-95.5"/>
<text text-anchor="middle" x="44" y="-102.5" font-family="Helvetica,sans-Serif" font-size="10.00">storepageDIFF</text>
</a>
</g>
</g>
<!-- Node2 -->
<g id="node2" class="node">
<title>Node2</title>
<g id="a_node2"><a xlink:href="swdsm_8cpp_af5bb31046df1aef1cccf72f19fe63640.html#af5bb31046df1aef1cccf72f19fe63640" target="_top" xlink:title="Gets the data window index based on the offset into the node&#39;s backing store.">
<polygon fill="white" stroke="black" points="124.5,-190.5 124.5,-209.5 238.5,-209.5 238.5,-190.5 124.5,-190.5"/>
<text text-anchor="middle" x="181.5" y="-197.5" font-family="Helvetica,sans-Serif" font-size="10.00">get_data_win_index</text>
</a>
</g>
</g>
<!-- Node1&#45;&gt;Node2 -->
<g id="edge1" class="edge">
<title>Node1&#45;&gt;Node2</title>
<path fill="none" stroke="midnightblue" d="M52.49,-114.56C65.44,-130.5 93.57,-162.54 124,-181 127.39,-183.05 131.02,-184.92 134.76,-186.61"/>
<polygon fill="midnightblue" stroke="midnightblue" points="133.59,-189.91 144.17,-190.43 136.23,-183.42 133.59,-189.91"/>
</g>
<!-- Node3 -->
<g id="node3" class="node">
<title>Node3</title>
<g id="a_node3"><a xlink:href="swdsm_8cpp_a3f19b1fc7fe36a6eabdae48e53fb66fa.html#a3f19b1fc7fe36a6eabdae48e53fb66fa" target="_top" xlink:title="Gets the sharer window offset based on the classification index.">
<polygon fill="white" stroke="black" points="124,-152.5 124,-171.5 239,-171.5 239,-152.5 124,-152.5"/>
<text text-anchor="middle" x="181.5" y="-159.5" font-family="Helvetica,sans-Serif" font-size="10.00">get_data_win_offset</text>
</a>
</g>
</g>
<!-- Node1&#45;&gt;Node3 -->
<g id="edge2" class="edge">
<title>Node1&#45;&gt;Node3</title>
<path fill="none" stroke="midnightblue" d="M63.22,-114.56C79.05,-122.68 102.71,-134.34 124,-143 129.15,-145.1 134.63,-147.15 140.07,-149.09"/>
<polygon fill="midnightblue" stroke="midnightblue" points="139.16,-152.47 149.75,-152.43 141.44,-145.86 139.16,-152.47"/>
</g>
<!-- Node4 -->
<g id="node4" class="node">
<title>Node4</title>
<g id="a_node4"><a xlink:href="swdsm_8cpp_ab2e5fbbe4d1f44d25619f290dc37dd3e.html#ab2e5fbbe4d1f44d25619f290dc37dd3e" target="_top" xlink:title="Gives homenode for a given address.">
<polygon fill="white" stroke="black" points="137,-114.5 137,-133.5 226,-133.5 226,-114.5 137,-114.5"/>
<text text-anchor="middle" x="181.5" y="-121.5" font-family="Helvetica,sans-Serif" font-size="10.00">get_homenode</text>
</a>
</g>
</g>
<!-- Node1&#45;&gt;Node4 -->
<g id="edge3" class="edge">
<title>Node1&#45;&gt;Node4</title>
<path fill="none" stroke="midnightblue" d="M88.25,-111.06C100.47,-112.78 113.92,-114.66 126.68,-116.45"/>
<polygon fill="midnightblue" stroke="midnightblue" points="126.35,-119.94 136.74,-117.86 127.32,-113.01 126.35,-119.94"/>
</g>
<!-- Node8 -->
<g id="node8" class="node">
<title>Node8</title>
<g id="a_node8"><a xlink:href="swdsm_8cpp_a974f1a03f5461bb989248cceb41cd95b.html#a974f1a03f5461bb989248cceb41cd95b" target="_top" xlink:title="Gets the offset of an address on the local nodes part of the global memory.">
<polygon fill="white" stroke="black" points="149,-76.5 149,-95.5 214,-95.5 214,-76.5 149,-76.5"/>
<text text-anchor="middle" x="181.5" y="-83.5" font-family="Helvetica,sans-Serif" font-size="10.00">get_offset</text>
</a>
</g>
</g>
<!-- Node1&#45;&gt;Node8 -->
<g id="edge7" class="edge">
<title>Node1&#45;&gt;Node8</title>
<path fill="none" stroke="midnightblue" d="M88.25,-98.94C104.38,-96.67 122.66,-94.11 138.67,-91.87"/>
<polygon fill="midnightblue" stroke="midnightblue" points="139.4,-95.3 148.82,-90.44 138.43,-88.37 139.4,-95.3"/>
</g>
<!-- Node10 -->
<g id="node10" class="node">
<title>Node10</title>
<g id="a_node10"><a xlink:href="classmpi__lock_a67301b26c3bb28c746e164c9f531d21d.html#a67301b26c3bb28c746e164c9f531d21d" target="_top" xlink:title="acquire mpi_lock">
<polygon fill="white" stroke="black" points="138,-38.5 138,-57.5 225,-57.5 225,-38.5 138,-38.5"/>
<text text-anchor="middle" x="181.5" y="-45.5" font-family="Helvetica,sans-Serif" font-size="10.00">mpi_lock::lock</text>
</a>
</g>
</g>
<!-- Node1&#45;&gt;Node10 -->
<g id="edge10" class="edge">
<title>Node1&#45;&gt;Node10</title>
<path fill="none" stroke="midnightblue" d="M63.22,-95.44C79.05,-87.32 102.71,-75.66 124,-67 129.15,-64.9 134.63,-62.85 140.07,-60.91"/>
<polygon fill="midnightblue" stroke="midnightblue" points="141.44,-64.14 149.75,-57.57 139.16,-57.53 141.44,-64.14"/>
</g>
<!-- Node11 -->
<g id="node11" class="node">
<title>Node11</title>
<g id="a_node11"><a xlink:href="classmpi__lock_a38cb3649cba54a2818810c444a8b475a.html#a38cb3649cba54a2818810c444a8b475a" target="_top" xlink:title="release mpi_lock">
<polygon fill="white" stroke="black" points="132,-0.5 132,-19.5 231,-19.5 231,-0.5 132,-0.5"/>
<text text-anchor="middle" x="181.5" y="-7.5" font-family="Helvetica,sans-Serif" font-size="10.00">mpi_lock::unlock</text>
</a>
</g>
</g>
<!-- Node1&#45;&gt;Node11 -->
<g id="edge11" class="edge">
<title>Node1&#45;&gt;Node11</title>
<path fill="none" stroke="midnightblue" d="M52.49,-95.44C65.44,-79.5 93.57,-47.46 124,-29 127.39,-26.95 131.02,-25.08 134.76,-23.39"/>
<polygon fill="midnightblue" stroke="midnightblue" points="136.23,-26.58 144.17,-19.57 133.59,-20.09 136.23,-26.58"/>
</g>
<!-- Node5 -->
<g id="node5" class="node">
<title>Node5</title>
<g id="a_node5"><a xlink:href="classargo_1_1data__distribution_1_1global__ptr_ac7d651586337d08cda18ef26ffcd34a0.html#ac7d651586337d08cda18ef26ffcd34a0" target="_top" xlink:title="return the home node of the value pointed to">
<polygon fill="white" stroke="black" points="275,-114 275,-144 402,-144 402,-114 275,-114"/>
<text text-anchor="start" x="283" y="-132" font-family="Helvetica,sans-Serif" font-size="10.00">argo::data_distribution</text>
<text text-anchor="middle" x="338.5" y="-121" font-family="Helvetica,sans-Serif" font-size="10.00">::global_ptr::node</text>
</a>
</g>
</g>
<!-- Node4&#45;&gt;Node5 -->
<g id="edge4" class="edge">
<title>Node4&#45;&gt;Node5</title>
<path fill="none" stroke="midnightblue" d="M226.09,-125.41C238.15,-125.8 251.57,-126.23 264.81,-126.66"/>
<polygon fill="midnightblue" stroke="midnightblue" points="264.76,-130.16 274.86,-126.98 264.98,-123.16 264.76,-130.16"/>
</g>
<!-- Node6 -->
<g id="node6" class="node">
<title>Node6</title>
<g id="a_node6"><a xlink:href="classargo_1_1data__distribution_1_1global__ptr_ae4353680349f6abbd2cf262dace8e2f2.html#ae4353680349f6abbd2cf262dace8e2f2" target="_top" xlink:title="return a pointer to the selected allocation policy">
<polygon fill="white" stroke="black" points="438,-89 438,-119 565,-119 565,-89 438,-89"/>
<text text-anchor="start" x="446" y="-107" font-family="Helvetica,sans-Serif" font-size="10.00">argo::data_distribution</text>
<text text-anchor="middle" x="501.5" y="-96" font-family="Helvetica,sans-Serif" font-size="10.00">::global_ptr::policy</text>
</a>
</g>
</g>
<!-- Node5&#45;&gt;Node6 -->
<g id="edge5" class="edge">
<title>Node5&#45;&gt;Node6</title>
<path fill="none" stroke="midnightblue" d="M402.21,-119.26C410.65,-117.95 419.36,-116.6 427.96,-115.26"/>
<polygon fill="midnightblue" stroke="midnightblue" points="428.62,-118.7 437.96,-113.71 427.54,-111.79 428.62,-118.7"/>
</g>
<!-- Node7 -->
<g id="node7" class="node">
<title>Node7</title>
<g id="a_node7"><a xlink:href="namespaceargo_1_1env_a25a08cb2d0d11432d640ec7173063339.html#a25a08cb2d0d11432d640ec7173063339" target="_top" xlink:title="get the allocation policy requested by environment variable">
<polygon fill="white" stroke="black" points="601,-89 601,-119 717,-119 717,-89 601,-89"/>
<text text-anchor="start" x="609" y="-107" font-family="Helvetica,sans-Serif" font-size="10.00">argo::env::allocation</text>
<text text-anchor="middle" x="659" y="-96" font-family="Helvetica,sans-Serif" font-size="10.00">_policy</text>
</a>
</g>
</g>
<!-- Node6&#45;&gt;Node7 -->
<g id="edge6" class="edge">
<title>Node6&#45;&gt;Node7</title>
<path fill="none" stroke="midnightblue" d="M565.3,-104C573.69,-104 582.32,-104 590.78,-104"/>
<polygon fill="midnightblue" stroke="midnightblue" points="590.99,-107.5 600.99,-104 590.99,-100.5 590.99,-107.5"/>
</g>
<!-- Node9 -->
<g id="node9" class="node">
<title>Node9</title>
<g id="a_node9"><a xlink:href="classargo_1_1data__distribution_1_1global__ptr_ad8c21c408fa2b926cfd9acfd87e8e4e6.html#ad8c21c408fa2b926cfd9acfd87e8e4e6" target="_top" xlink:title="return the offset on the home node&#39;s local memory share">
<polygon fill="white" stroke="black" points="275,-65 275,-95 402,-95 402,-65 275,-65"/>
<text text-anchor="start" x="283" y="-83" font-family="Helvetica,sans-Serif" font-size="10.00">argo::data_distribution</text>
<text text-anchor="middle" x="338.5" y="-72" font-family="Helvetica,sans-Serif" font-size="10.00">::global_ptr::offset</text>
</a>
</g>
</g>
<!-- Node8&#45;&gt;Node9 -->
<g id="edge8" class="edge">
<title>Node8&#45;&gt;Node9</title>
<path fill="none" stroke="midnightblue" d="M214.24,-84.77C228.83,-84.21 246.78,-83.51 264.43,-82.83"/>
<polygon fill="midnightblue" stroke="midnightblue" points="264.9,-86.31 274.75,-82.43 264.63,-79.32 264.9,-86.31"/>
</g>
<!-- Node9&#45;&gt;Node6 -->
<g id="edge9" class="edge">
<title>Node9&#45;&gt;Node6</title>
<path fill="none" stroke="midnightblue" d="M402.21,-89.35C410.65,-90.61 419.36,-91.91 427.96,-93.19"/>
<polygon fill="midnightblue" stroke="midnightblue" points="427.56,-96.67 437.96,-94.68 428.59,-89.74 427.56,-96.67"/>
</g>
</g>
</svg>
        <g id="navigator" transform="translate(0 0)" fill="#404254">
                <rect fill="#f2f5e9" fill-opacity="0.5" stroke="#606060" stroke-width=".5" x="0" y="0" width="60" height="60"/>
                <use id="zoomplus" xlink:href="#zoomPlus" x="17" y="9" onmousedown="handleZoom(evt,'in')"/>
                <use id="zoomminus" xlink:href="#zoomMin" x="42" y="9" onmousedown="handleZoom(evt,'out')"/>
                <use id="reset" xlink:href="#resetDef" x="30" y="36" onmousedown="handleReset()"/>
                <g id="arrowUp" xlink:href="#dirArrow" transform="translate(30 24)" onmousedown="handlePan(0,-1)">
                  <use xlink:href="#rim" fill="#404040">
                        <set attributeName="fill" to="#808080" begin="arrowUp.mouseover" end="arrowUp.mouseout"/>
                  </use>
                  <path fill="none" stroke="white" stroke-width="1.5" d="M0,-3.0v7 M-2.5,-0.5L0,-3.0L2.5,-0.5"/>
                </g>
                <g id="arrowRight" xlink:href="#dirArrow" transform="rotate(90) translate(36 -43)" onmousedown="handlePan(1,0)">
                  <use xlink:href="#rim" fill="#404040">
                        <set attributeName="fill" to="#808080" begin="arrowRight.mouseover" end="arrowRight.mouseout"/>
                  </use>
                  <path fill="none" stroke="white" stroke-width="1.5" d="M0,-3.0v7 M-2.5,-0.5L0,-3.0L2.5,-0.5"/>
                </g>
                <g id="arrowDown" xlink:href="#dirArrow" transform="rotate(180) translate(-30 -48)" onmousedown="handlePan(0,1)">
                  <use xlink:href="#rim" fill="#404040">
                        <set attributeName="fill" to="#808080" begin="arrowDown.mouseover" end="arrowDown.mouseout"/>
                  </use>
                  <path fill="none" stroke="white" stroke-width="1.5" d="M0,-3.0v7 M-2.5,-0.5L0,-3.0L2.5,-0.5"/>
                </g>
                <g id="arrowLeft" xlink:href="#dirArrow" transform="rotate(270) translate(-36 17)" onmousedown="handlePan(-1,0)">
                  <use xlink:href="#rim" fill="#404040">
                        <set attributeName="fill" to="#808080" begin="arrowLeft.mouseover" end="arrowLeft.mouseout"/>
                  </use>
                  <path fill="none" stroke="white" stroke-width="1.5" d="M0,-3.0v7 M-2.5,-0.5L0,-3.0L2.5,-0.5"/>
                </g>
        </g>
        <svg viewBox="0 0 15 15" width="100%" height="30px" preserveAspectRatio="xMaxYMin meet">
         <g id="arrow_out" transform="scale(0.3 0.3)">
          <a xlink:href="swdsm_8cpp_a3b6a6b2b244edb9faa79814ce8e5e9f5_a3b6a6b2b244edb9faa79814ce8e5e9f5_cgraph_org.svg" target="_base">
           <rect id="button" ry="5" rx="5" y="6" x="6" height="38" width="38"
                fill="#f2f5e9" fill-opacity="0.5" stroke="#606060" stroke-width="1.0"/>
           <path id="arrow"
             d="M 11.500037,31.436501 C 11.940474,20.09759 22.043105,11.32322 32.158766,21.979434 L 37.068811,17.246167 C 37.068811,17.246167 37.088388,32 37.088388,32 L 22.160133,31.978069 C 22.160133,31.978069 26.997745,27.140456 26.997745,27.140456 C 18.528582,18.264221 13.291696,25.230495 11.500037,31.436501 z"
             style="fill:#404040;"/>
          </a>
         </g>
        </svg>
</svg>
