<?xml version="1.0" encoding="UTF-8" standalone="no"?>
<!DOCTYPE svg PUBLIC "-//W3C//DTD SVG 1.1//EN"
 "http://www.w3.org/Graphics/SVG/1.1/DTD/svg11.dtd">
<!-- Generated by graphviz version 2.43.0 (0)
 -->
<!-- Title: /home/projectcs&#45;2022/argodsmBuffer/argodsmPrefetching/src/backend/mpi/swdsm.h Pages: 1 -->
<!--zoomable 520 -->
<svg id="main" version="1.1" xmlns="http://www.w3.org/2000/svg" xmlns:xlink="http://www.w3.org/1999/xlink" xml:space="preserve" onload="init(evt)">
<style type="text/css"><![CDATA[
.edge:hover path { stroke: red; }
.edge:hover polygon { stroke: red; fill: red; }
]]></style>
<script type="text/javascript"><![CDATA[
var edges = document.getElementsByTagName('g');
if (edges && edges.length) {
  for (var i=0;i<edges.length;i++) {
    if (edges[i].id.substr(0,4)=='edge') {
      edges[i].setAttribute('class','edge');
    }
  }
}
]]></script>
        <defs>
                <circle id="rim" cx="0" cy="0" r="7"/>
                <circle id="rim2" cx="0" cy="0" r="3.5"/>
                <g id="zoomPlus">
                        <use xlink:href="#rim" fill="#404040">
                                <set attributeName="fill" to="#808080" begin="zoomplus.mouseover" end="zoomplus.mouseout"/>
                        </use>
                        <path d="M-4,0h8M0,-4v8" fill="none" stroke="white" stroke-width="1.5" pointer-events="none"/>
                </g>
                <g id="zoomMin">
                        <use xlink:href="#rim" fill="#404040">
                                <set attributeName="fill" to="#808080" begin="zoomminus.mouseover" end="zoomminus.mouseout"/>
                        </use>
                        <path d="M-4,0h8" fill="none" stroke="white" stroke-width="1.5" pointer-events="none"/>
                </g>
                <g id="dirArrow">
                        <path fill="none" stroke="white" stroke-width="1.5" d="M0,-3.0v7 M-2.5,-0.5L0,-3.0L2.5,-0.5"/>
                </g>
               <g id="resetDef">
                       <use xlink:href="#rim2" fill="#404040">
                               <set attributeName="fill" to="#808080" begin="reset.mouseover" end="reset.mouseout"/>
                       </use>
               </g>
        </defs>

<script type="text/javascript">
var viewWidth = 2137;
var viewHeight = 520;
var sectionId = 'dynsection-0';
</script>
<script xlink:href="svgpan.js"/>
<svg id="graph" class="graph">
<g id="viewport">
<title>/home/projectcs&#45;2022/argodsmBuffer/argodsmPrefetching/src/backend/mpi/swdsm.h</title>
<polygon fill="white" stroke="transparent" points="-4,4 -4,-516 2133,-516 2133,4 -4,4"/>
<!-- Node1 -->
<g id="node1" class="node">
<title>Node1</title>
<g id="a_node1"><a xlink:title="this is a legacy file from the ArgoDSM prototype">
<polygon fill="#bfbfbf" stroke="black" points="803.5,-470.5 803.5,-511.5 996.5,-511.5 996.5,-470.5 803.5,-470.5"/>
<text text-anchor="start" x="811.5" y="-499.5" font-family="Helvetica,sans-Serif" font-size="10.00">/home/projectcs&#45;2022</text>
<text text-anchor="start" x="811.5" y="-488.5" font-family="Helvetica,sans-Serif" font-size="10.00">/argodsmBuffer/argodsmPrefetching</text>
<text text-anchor="middle" x="900" y="-477.5" font-family="Helvetica,sans-Serif" font-size="10.00">/src/backend/mpi/swdsm.h</text>
</a>
</g>
</g>
<!-- Node2 -->
<g id="node2" class="node">
<title>Node2</title>
<g id="a_node2"><a xlink:title=" ">
<polygon fill="white" stroke="#bfbfbf" points="0,-414.5 0,-433.5 56,-433.5 56,-414.5 0,-414.5"/>
<text text-anchor="middle" x="28" y="-421.5" font-family="Helvetica,sans-Serif" font-size="10.00">assert.h</text>
</a>
</g>
</g>
<!-- Node1&#45;&gt;Node2 -->
<g id="edge1" class="edge">
<title>Node1&#45;&gt;Node2</title>
<path fill="none" stroke="midnightblue" d="M803.3,-488.89C649.04,-485.93 337.83,-475.09 66.23,-433.92"/>
<polygon fill="midnightblue" stroke="midnightblue" points="66.6,-430.44 56.18,-432.38 65.54,-437.36 66.6,-430.44"/>
</g>
<!-- Node3 -->
<g id="node3" class="node">
<title>Node3</title>
<g id="a_node3"><a xlink:title=" ">
<polygon fill="white" stroke="#bfbfbf" points="74.5,-414.5 74.5,-433.5 125.5,-433.5 125.5,-414.5 74.5,-414.5"/>
<text text-anchor="middle" x="100" y="-421.5" font-family="Helvetica,sans-Serif" font-size="10.00">errno.h</text>
</a>
</g>
</g>
<!-- Node1&#45;&gt;Node3 -->
<g id="edge2" class="edge">
<title>Node1&#45;&gt;Node3</title>
<path fill="none" stroke="midnightblue" d="M803.48,-488.68C659.56,-485.44 380.3,-474.24 135.66,-433.99"/>
<polygon fill="midnightblue" stroke="midnightblue" points="135.95,-430.49 125.51,-432.3 134.8,-437.39 135.95,-430.49"/>
</g>
<!-- Node4 -->
<g id="node4" class="node">
<title>Node4</title>
<g id="a_node4"><a xlink:title=" ">
<polygon fill="white" stroke="#bfbfbf" points="143.5,-414.5 143.5,-433.5 190.5,-433.5 190.5,-414.5 143.5,-414.5"/>
<text text-anchor="middle" x="167" y="-421.5" font-family="Helvetica,sans-Serif" font-size="10.00">fcntl.h</text>
</a>
</g>
</g>
<!-- Node1&#45;&gt;Node4 -->
<g id="edge3" class="edge">
<title>Node1&#45;&gt;Node4</title>
<path fill="none" stroke="midnightblue" d="M803.43,-488.21C669.61,-484.41 420.32,-472.56 200.75,-434"/>
<polygon fill="midnightblue" stroke="midnightblue" points="201.1,-430.51 190.65,-432.2 199.88,-437.4 201.1,-430.51"/>
</g>
<!-- Node5 -->
<g id="node5" class="node">
<title>Node5</title>
<g id="a_node5"><a xlink:title=" ">
<polygon fill="white" stroke="#bfbfbf" points="208.5,-414.5 208.5,-433.5 267.5,-433.5 267.5,-414.5 208.5,-414.5"/>
<text text-anchor="middle" x="238" y="-421.5" font-family="Helvetica,sans-Serif" font-size="10.00">malloc.h</text>
</a>
</g>
</g>
<!-- Node1&#45;&gt;Node5 -->
<g id="edge4" class="edge">
<title>Node1&#45;&gt;Node5</title>
<path fill="none" stroke="midnightblue" d="M803.26,-485.61C682.24,-479.16 468.65,-464.59 277.73,-434.09"/>
<polygon fill="midnightblue" stroke="midnightblue" points="278.22,-430.62 267.79,-432.48 277.1,-437.53 278.22,-430.62"/>
</g>
<!-- Node6 -->
<g id="node6" class="node">
<title>Node6</title>
<g id="a_node6"><a xlink:title=" ">
<polygon fill="white" stroke="#bfbfbf" points="285.5,-414.5 285.5,-433.5 336.5,-433.5 336.5,-414.5 285.5,-414.5"/>
<text text-anchor="middle" x="311" y="-421.5" font-family="Helvetica,sans-Serif" font-size="10.00">math.h</text>
</a>
</g>
</g>
<!-- Node1&#45;&gt;Node6 -->
<g id="edge5" class="edge">
<title>Node1&#45;&gt;Node6</title>
<path fill="none" stroke="midnightblue" d="M803.34,-483.66C693.32,-475.62 508.44,-459.65 351,-434 349.55,-433.76 348.08,-433.51 346.59,-433.24"/>
<polygon fill="midnightblue" stroke="midnightblue" points="347.22,-429.79 336.73,-431.27 345.85,-436.66 347.22,-429.79"/>
</g>
<!-- Node7 -->
<g id="node7" class="node">
<title>Node7</title>
<g id="a_node7"><a xlink:title=" ">
<polygon fill="white" stroke="#bfbfbf" points="343,-353 343,-372 387,-372 387,-353 343,-353"/>
<text text-anchor="middle" x="365" y="-360" font-family="Helvetica,sans-Serif" font-size="10.00">mpi.h</text>
</a>
</g>
</g>
<!-- Node1&#45;&gt;Node7 -->
<g id="edge6" class="edge">
<title>Node1&#45;&gt;Node7</title>
<path fill="none" stroke="midnightblue" d="M803.39,-485.35C662.81,-477.72 415.15,-460.66 384,-434 369.27,-421.4 365.36,-398.7 364.6,-382.47"/>
<polygon fill="midnightblue" stroke="midnightblue" points="368.09,-381.98 364.49,-372.02 361.09,-382.06 368.09,-381.98"/>
</g>
<!-- Node8 -->
<g id="node8" class="node">
<title>Node8</title>
<g id="a_node8"><a xlink:title=" ">
<polygon fill="white" stroke="#bfbfbf" points="835.5,-414.5 835.5,-433.5 882.5,-433.5 882.5,-414.5 835.5,-414.5"/>
<text text-anchor="middle" x="859" y="-421.5" font-family="Helvetica,sans-Serif" font-size="10.00">omp.h</text>
</a>
</g>
</g>
<!-- Node1&#45;&gt;Node8 -->
<g id="edge7" class="edge">
<title>Node1&#45;&gt;Node8</title>
<path fill="none" stroke="midnightblue" d="M887.7,-470.5C882.02,-461.49 875.33,-450.89 869.84,-442.19"/>
<polygon fill="midnightblue" stroke="midnightblue" points="872.75,-440.24 864.46,-433.65 866.83,-443.98 872.75,-440.24"/>
</g>
<!-- Node9 -->
<g id="node9" class="node">
<title>Node9</title>
<g id="a_node9"><a xlink:title=" ">
<polygon fill="white" stroke="#bfbfbf" points="405.5,-353 405.5,-372 468.5,-372 468.5,-353 405.5,-353"/>
<text text-anchor="middle" x="437" y="-360" font-family="Helvetica,sans-Serif" font-size="10.00">pthread.h</text>
</a>
</g>
</g>
<!-- Node1&#45;&gt;Node9 -->
<g id="edge8" class="edge">
<title>Node1&#45;&gt;Node9</title>
<path fill="none" stroke="midnightblue" d="M803.2,-488.92C725.64,-484.94 615.56,-472.15 527,-434 497.24,-421.18 468.83,-396.03 452.15,-379.5"/>
<polygon fill="midnightblue" stroke="midnightblue" points="454.46,-376.85 444.96,-372.17 449.46,-381.75 454.46,-376.85"/>
</g>
<!-- Node10 -->
<g id="node10" class="node">
<title>Node10</title>
<g id="a_node10"><a xlink:title=" ">
<polygon fill="white" stroke="#bfbfbf" points="901,-414.5 901,-433.5 981,-433.5 981,-414.5 901,-414.5"/>
<text text-anchor="middle" x="941" y="-421.5" font-family="Helvetica,sans-Serif" font-size="10.00">semaphore.h</text>
</a>
</g>
</g>
<!-- Node1&#45;&gt;Node10 -->
<g id="edge9" class="edge">
<title>Node1&#45;&gt;Node10</title>
<path fill="none" stroke="midnightblue" d="M912.3,-470.5C917.98,-461.49 924.67,-450.89 930.16,-442.19"/>
<polygon fill="midnightblue" stroke="midnightblue" points="933.17,-443.98 935.54,-433.65 927.25,-440.24 933.17,-443.98"/>
</g>
<!-- Node11 -->
<g id="node11" class="node">
<title>Node11</title>
<g id="a_node11"><a xlink:title=" ">
<polygon fill="white" stroke="#bfbfbf" points="999.5,-414.5 999.5,-433.5 1054.5,-433.5 1054.5,-414.5 999.5,-414.5"/>
<text text-anchor="middle" x="1027" y="-421.5" font-family="Helvetica,sans-Serif" font-size="10.00">signal.h</text>
</a>
</g>
</g>
<!-- Node1&#45;&gt;Node11 -->
<g id="edge10" class="edge">
<title>Node1&#45;&gt;Node11</title>
<path fill="none" stroke="midnightblue" d="M938.1,-470.5C958.32,-460.15 982.66,-447.69 1000.75,-438.43"/>
<polygon fill="midnightblue" stroke="midnightblue" points="1002.79,-441.32 1010.09,-433.65 999.6,-435.09 1002.79,-441.32"/>
</g>
<!-- Node12 -->
<g id="node12" class="node">
<title>Node12</title>
<g id="a_node12"><a xlink:title=" ">
<polygon fill="white" stroke="#bfbfbf" points="1073,-414.5 1073,-433.5 1123,-433.5 1123,-414.5 1073,-414.5"/>
<text text-anchor="middle" x="1098" y="-421.5" font-family="Helvetica,sans-Serif" font-size="10.00">stdio.h</text>
</a>
</g>
</g>
<!-- Node1&#45;&gt;Node12 -->
<g id="edge11" class="edge">
<title>Node1&#45;&gt;Node12</title>
<path fill="none" stroke="midnightblue" d="M959.41,-470.5C993.34,-459.36 1034.7,-445.78 1063.36,-436.37"/>
<polygon fill="midnightblue" stroke="midnightblue" points="1064.52,-439.67 1072.93,-433.23 1062.34,-433.02 1064.52,-439.67"/>
</g>
<!-- Node13 -->
<g id="node13" class="node">
<title>Node13</title>
<g id="a_node13"><a xlink:title=" ">
<polygon fill="white" stroke="#bfbfbf" points="1141.5,-414.5 1141.5,-433.5 1194.5,-433.5 1194.5,-414.5 1141.5,-414.5"/>
<text text-anchor="middle" x="1168" y="-421.5" font-family="Helvetica,sans-Serif" font-size="10.00">stdlib.h</text>
</a>
</g>
</g>
<!-- Node1&#45;&gt;Node13 -->
<g id="edge12" class="edge">
<title>Node1&#45;&gt;Node13</title>
<path fill="none" stroke="midnightblue" d="M981.64,-470.47C1023.6,-460.39 1075.8,-447.78 1131.25,-434.17"/>
<polygon fill="midnightblue" stroke="midnightblue" points="1132.39,-437.49 1141.27,-431.71 1130.72,-430.7 1132.39,-437.49"/>
</g>
<!-- Node14 -->
<g id="node14" class="node">
<title>Node14</title>
<g id="a_node14"><a xlink:title=" ">
<polygon fill="white" stroke="#bfbfbf" points="1212.5,-414.5 1212.5,-433.5 1265.5,-433.5 1265.5,-414.5 1212.5,-414.5"/>
<text text-anchor="middle" x="1239" y="-421.5" font-family="Helvetica,sans-Serif" font-size="10.00">string.h</text>
</a>
</g>
</g>
<!-- Node1&#45;&gt;Node14 -->
<g id="edge13" class="edge">
<title>Node1&#45;&gt;Node14</title>
<path fill="none" stroke="midnightblue" d="M996.53,-473.98C1053.88,-464.05 1128.24,-450.45 1202.32,-434.27"/>
<polygon fill="midnightblue" stroke="midnightblue" points="1203.28,-437.64 1212.29,-432.07 1201.77,-430.8 1203.28,-437.64"/>
</g>
<!-- Node15 -->
<g id="node15" class="node">
<title>Node15</title>
<g id="a_node15"><a xlink:title=" ">
<polygon fill="white" stroke="#bfbfbf" points="1283.5,-414.5 1283.5,-433.5 1360.5,-433.5 1360.5,-414.5 1283.5,-414.5"/>
<text text-anchor="middle" x="1322" y="-421.5" font-family="Helvetica,sans-Serif" font-size="10.00">sys/mman.h</text>
</a>
</g>
</g>
<!-- Node1&#45;&gt;Node15 -->
<g id="edge14" class="edge">
<title>Node1&#45;&gt;Node15</title>
<path fill="none" stroke="midnightblue" d="M996.51,-476.7C1069.91,-466.32 1173.64,-451.1 1273.35,-434.23"/>
<polygon fill="midnightblue" stroke="midnightblue" points="1274.02,-437.67 1283.29,-432.54 1272.85,-430.77 1274.02,-437.67"/>
</g>
<!-- Node16 -->
<g id="node16" class="node">
<title>Node16</title>
<g id="a_node16"><a xlink:title=" ">
<polygon fill="white" stroke="#bfbfbf" points="1379,-414.5 1379,-433.5 1443,-433.5 1443,-414.5 1379,-414.5"/>
<text text-anchor="middle" x="1411" y="-421.5" font-family="Helvetica,sans-Serif" font-size="10.00">sys/stat.h</text>
</a>
</g>
</g>
<!-- Node1&#45;&gt;Node16 -->
<g id="edge15" class="edge">
<title>Node1&#45;&gt;Node16</title>
<path fill="none" stroke="midnightblue" d="M996.71,-481.26C1089.68,-472.22 1234.3,-456.49 1368.75,-434.07"/>
<polygon fill="midnightblue" stroke="midnightblue" points="1369.55,-437.48 1378.83,-432.37 1368.39,-430.58 1369.55,-437.48"/>
</g>
<!-- Node17 -->
<g id="node17" class="node">
<title>Node17</title>
<g id="a_node17"><a xlink:title=" ">
<polygon fill="white" stroke="#bfbfbf" points="1461,-414.5 1461,-433.5 1533,-433.5 1533,-414.5 1461,-414.5"/>
<text text-anchor="middle" x="1497" y="-421.5" font-family="Helvetica,sans-Serif" font-size="10.00">sys/types.h</text>
</a>
</g>
</g>
<!-- Node1&#45;&gt;Node17 -->
<g id="edge16" class="edge">
<title>Node1&#45;&gt;Node17</title>
<path fill="none" stroke="midnightblue" d="M996.58,-483.04C1104.78,-474.59 1285.56,-458.56 1450.37,-434.12"/>
<polygon fill="midnightblue" stroke="midnightblue" points="1451.33,-437.51 1460.7,-432.57 1450.3,-430.59 1451.33,-437.51"/>
</g>
<!-- Node18 -->
<g id="node18" class="node">
<title>Node18</title>
<g id="a_node18"><a xlink:title=" ">
<polygon fill="white" stroke="#bfbfbf" points="1551,-414.5 1551,-433.5 1599,-433.5 1599,-414.5 1551,-414.5"/>
<text text-anchor="middle" x="1575" y="-421.5" font-family="Helvetica,sans-Serif" font-size="10.00">time.h</text>
</a>
</g>
</g>
<!-- Node1&#45;&gt;Node18 -->
<g id="edge17" class="edge">
<title>Node1&#45;&gt;Node18</title>
<path fill="none" stroke="midnightblue" d="M996.69,-486.96C1120.87,-481.85 1342.97,-468.63 1540.96,-433.87"/>
<polygon fill="midnightblue" stroke="midnightblue" points="1541.73,-437.29 1550.96,-432.09 1540.5,-430.4 1541.73,-437.29"/>
</g>
<!-- Node19 -->
<g id="node19" class="node">
<title>Node19</title>
<g id="a_node19"><a xlink:title=" ">
<polygon fill="white" stroke="#bfbfbf" points="1617,-414.5 1617,-433.5 1673,-433.5 1673,-414.5 1617,-414.5"/>
<text text-anchor="middle" x="1645" y="-421.5" font-family="Helvetica,sans-Serif" font-size="10.00">unistd.h</text>
</a>
</g>
</g>
<!-- Node1&#45;&gt;Node19 -->
<g id="edge18" class="edge">
<title>Node1&#45;&gt;Node19</title>
<path fill="none" stroke="midnightblue" d="M996.77,-487.24C1131.65,-482.29 1383.76,-469.09 1606.88,-433.93"/>
<polygon fill="midnightblue" stroke="midnightblue" points="1607.49,-437.38 1616.81,-432.35 1606.39,-430.47 1607.49,-437.38"/>
</g>
<!-- Node20 -->
<g id="node20" class="node">
<title>Node20</title>
<g id="a_node20"><a xlink:title=" ">
<polygon fill="white" stroke="#bfbfbf" points="563,-353 563,-372 613,-372 613,-353 563,-353"/>
<text text-anchor="middle" x="588" y="-360" font-family="Helvetica,sans-Serif" font-size="10.00">atomic</text>
</a>
</g>
</g>
<!-- Node1&#45;&gt;Node20 -->
<g id="edge19" class="edge">
<title>Node1&#45;&gt;Node20</title>
<path fill="none" stroke="midnightblue" d="M803.44,-478.32C759.36,-470.19 707.61,-456.6 665,-434 639.37,-420.4 615.68,-396.24 601.53,-380.05"/>
<polygon fill="midnightblue" stroke="midnightblue" points="604.18,-377.76 595.04,-372.4 598.84,-382.29 604.18,-377.76"/>
</g>
<!-- Node21 -->
<g id="node21" class="node">
<title>Node21</title>
<g id="a_node21"><a xlink:title=" ">
<polygon fill="white" stroke="#bfbfbf" points="1691.5,-414.5 1691.5,-433.5 1738.5,-433.5 1738.5,-414.5 1691.5,-414.5"/>
<text text-anchor="middle" x="1715" y="-421.5" font-family="Helvetica,sans-Serif" font-size="10.00">cmath</text>
</a>
</g>
</g>
<!-- Node1&#45;&gt;Node21 -->
<g id="edge20" class="edge">
<title>Node1&#45;&gt;Node21</title>
<path fill="none" stroke="midnightblue" d="M996.73,-489.11C1143.22,-486.42 1429.95,-475.94 1681.28,-433.76"/>
<polygon fill="midnightblue" stroke="midnightblue" points="1682.06,-437.17 1691.33,-432.05 1680.89,-430.27 1682.06,-437.17"/>
</g>
<!-- Node22 -->
<g id="node22" class="node">
<title>Node22</title>
<g id="a_node22"><a xlink:title=" ">
<polygon fill="white" stroke="#bfbfbf" points="512,-286 512,-305 562,-305 562,-286 512,-286"/>
<text text-anchor="middle" x="537" y="-293" font-family="Helvetica,sans-Serif" font-size="10.00">cstdint</text>
</a>
</g>
</g>
<!-- Node1&#45;&gt;Node22 -->
<g id="edge21" class="edge">
<title>Node1&#45;&gt;Node22</title>
<path fill="none" stroke="midnightblue" d="M803.49,-479.48C751.41,-471.43 686.93,-457.55 633,-434 593.56,-416.78 577.58,-414 554,-378 541.59,-359.06 538,-332.77 537.09,-315.23"/>
<polygon fill="midnightblue" stroke="midnightblue" points="540.58,-315.03 536.81,-305.13 533.59,-315.22 540.58,-315.03"/>
</g>
<!-- Node23 -->
<g id="node23" class="node">
<title>Node23</title>
<g id="a_node23"><a xlink:title=" ">
<polygon fill="white" stroke="#bfbfbf" points="1756.5,-414.5 1756.5,-433.5 1821.5,-433.5 1821.5,-414.5 1756.5,-414.5"/>
<text text-anchor="middle" x="1789" y="-421.5" font-family="Helvetica,sans-Serif" font-size="10.00">functional</text>
</a>
</g>
</g>
<!-- Node1&#45;&gt;Node23 -->
<g id="edge22" class="edge">
<title>Node1&#45;&gt;Node23</title>
<path fill="none" stroke="midnightblue" d="M996.5,-488.33C1152.45,-484.6 1469.53,-472.71 1746.17,-434.06"/>
<polygon fill="midnightblue" stroke="midnightblue" points="1746.99,-437.48 1756.41,-432.62 1746.02,-430.55 1746.99,-437.48"/>
</g>
<!-- Node24 -->
<g id="node24" class="node">
<title>Node24</title>
<g id="a_node24"><a xlink:title=" ">
<polygon fill="white" stroke="#bfbfbf" points="433,-112.5 433,-131.5 481,-131.5 481,-112.5 433,-112.5"/>
<text text-anchor="middle" x="457" y="-119.5" font-family="Helvetica,sans-Serif" font-size="10.00">mutex</text>
</a>
</g>
</g>
<!-- Node1&#45;&gt;Node24 -->
<g id="edge23" class="edge">
<title>Node1&#45;&gt;Node24</title>
<path fill="none" stroke="midnightblue" d="M803.18,-479.94C725.02,-470.5 622.3,-454.75 586,-434 479.36,-373.03 483.35,-308.6 460,-188 457.01,-172.56 456.39,-154.69 456.44,-141.6"/>
<polygon fill="midnightblue" stroke="midnightblue" points="459.94,-141.57 456.61,-131.51 452.94,-141.44 459.94,-141.57"/>
</g>
<!-- Node25 -->
<g id="node25" class="node">
<title>Node25</title>
<g id="a_node25"><a xlink:title=" ">
<polygon fill="white" stroke="#bfbfbf" points="1840,-414.5 1840,-433.5 1926,-433.5 1926,-414.5 1840,-414.5"/>
<text text-anchor="middle" x="1883" y="-421.5" font-family="Helvetica,sans-Serif" font-size="10.00">shared_mutex</text>
</a>
</g>
</g>
<!-- Node1&#45;&gt;Node25 -->
<g id="edge24" class="edge">
<title>Node1&#45;&gt;Node25</title>
<path fill="none" stroke="midnightblue" d="M996.81,-487.72C1164.53,-483 1520.07,-469.54 1829.85,-434"/>
<polygon fill="midnightblue" stroke="midnightblue" points="1830.39,-437.46 1839.92,-432.84 1829.59,-430.51 1830.39,-437.46"/>
</g>
<!-- Node26 -->
<g id="node26" class="node">
<title>Node26</title>
<g id="a_node26"><a xlink:title=" ">
<polygon fill="white" stroke="#bfbfbf" points="1944.5,-414.5 1944.5,-433.5 2013.5,-433.5 2013.5,-414.5 1944.5,-414.5"/>
<text text-anchor="middle" x="1979" y="-421.5" font-family="Helvetica,sans-Serif" font-size="10.00">type_traits</text>
</a>
</g>
</g>
<!-- Node1&#45;&gt;Node26 -->
<g id="edge25" class="edge">
<title>Node1&#45;&gt;Node26</title>
<path fill="none" stroke="midnightblue" d="M996.75,-489.52C1178.65,-487.58 1584.06,-478.31 1934.41,-433.85"/>
<polygon fill="midnightblue" stroke="midnightblue" points="1935.02,-437.3 1944.49,-432.56 1934.13,-430.36 1935.02,-437.3"/>
</g>
<!-- Node27 -->
<g id="node27" class="node">
<title>Node27</title>
<g id="a_node27"><a xlink:title=" ">
<polygon fill="white" stroke="#bfbfbf" points="1307.5,-286 1307.5,-305 1352.5,-305 1352.5,-286 1307.5,-286"/>
<text text-anchor="middle" x="1330" y="-293" font-family="Helvetica,sans-Serif" font-size="10.00">utility</text>
</a>
</g>
</g>
<!-- Node1&#45;&gt;Node27 -->
<g id="edge26" class="edge">
<title>Node1&#45;&gt;Node27</title>
<path fill="none" stroke="midnightblue" d="M860.55,-470.49C834.77,-455.24 808.95,-433.44 827,-414 900.38,-334.96 1229.07,-448.14 1311,-378 1328.91,-362.67 1331.75,-334.04 1331.43,-315.12"/>
<polygon fill="midnightblue" stroke="midnightblue" points="1334.92,-314.86 1330.94,-305.04 1327.93,-315.19 1334.92,-314.86"/>
</g>
<!-- Node28 -->
<g id="node28" class="node">
<title>Node28</title>
<g id="a_node28"><a xlink:title=" ">
<polygon fill="white" stroke="#bfbfbf" points="2031.5,-414.5 2031.5,-433.5 2078.5,-433.5 2078.5,-414.5 2031.5,-414.5"/>
<text text-anchor="middle" x="2055" y="-421.5" font-family="Helvetica,sans-Serif" font-size="10.00">vector</text>
</a>
</g>
</g>
<!-- Node1&#45;&gt;Node28 -->
<g id="edge27" class="edge">
<title>Node1&#45;&gt;Node28</title>
<path fill="none" stroke="midnightblue" d="M996.72,-487.96C1227.73,-482.65 1807.65,-466.6 2021.17,-433.9"/>
<polygon fill="midnightblue" stroke="midnightblue" points="2022.04,-437.31 2031.37,-432.28 2020.94,-430.4 2022.04,-437.31"/>
</g>
<!-- Node29 -->
<g id="node29" class="node">
<title>Node29</title>
<g id="a_node29"><a xlink:title=" ">
<polygon fill="white" stroke="#bfbfbf" points="2097,-414.5 2097,-433.5 2129,-433.5 2129,-414.5 2097,-414.5"/>
<text text-anchor="middle" x="2113" y="-421.5" font-family="Helvetica,sans-Serif" font-size="10.00">list</text>
</a>
</g>
</g>
<!-- Node1&#45;&gt;Node29 -->
<g id="edge28" class="edge">
<title>Node1&#45;&gt;Node29</title>
<path fill="none" stroke="midnightblue" d="M996.6,-489.15C1237.46,-486.44 1860.79,-475.69 2086.66,-433.59"/>
<polygon fill="midnightblue" stroke="midnightblue" points="2087.64,-436.96 2096.79,-431.62 2086.31,-430.09 2087.64,-436.96"/>
</g>
<!-- Node30 -->
<g id="node30" class="node">
<title>Node30</title>
<g id="a_node30"><a xlink:href="backend_8hpp.html" target="_top" xlink:title="This file provides the backend interface.">
<polygon fill="white" stroke="black" points="631,-353 631,-372 753,-372 753,-353 631,-353"/>
<text text-anchor="middle" x="692" y="-360" font-family="Helvetica,sans-Serif" font-size="10.00">backend/backend.hpp</text>
</a>
</g>
</g>
<!-- Node1&#45;&gt;Node30 -->
<g id="edge29" class="edge">
<title>Node1&#45;&gt;Node30</title>
<path fill="none" stroke="midnightblue" d="M803.25,-478C749.56,-469.14 690.38,-454.93 674,-434 662.01,-418.68 670.96,-396.27 680,-380.85"/>
<polygon fill="midnightblue" stroke="midnightblue" points="683.04,-382.6 685.45,-372.28 677.13,-378.84 683.04,-382.6"/>
</g>
<!-- Node47 -->
<g id="node44" class="node">
<title>Node47</title>
<g id="a_node44"><a xlink:href="mpi__lock_8hpp.html" target="_top" xlink:title="Declaration of MPI lock.">
<polygon fill="white" stroke="black" points="393,-414.5 393,-433.5 475,-433.5 475,-414.5 393,-414.5"/>
<text text-anchor="middle" x="434" y="-421.5" font-family="Helvetica,sans-Serif" font-size="10.00">mpi_lock.hpp</text>
</a>
</g>
</g>
<!-- Node1&#45;&gt;Node47 -->
<g id="edge54" class="edge">
<title>Node1&#45;&gt;Node47</title>
<path fill="none" stroke="midnightblue" d="M803.15,-477.55C719.8,-466.65 596.36,-450.1 489,-434 487.74,-433.81 486.45,-433.62 485.16,-433.42"/>
<polygon fill="midnightblue" stroke="midnightblue" points="485.55,-429.94 475.13,-431.85 484.47,-436.85 485.55,-429.94"/>
</g>
<!-- Node48 -->
<g id="node45" class="node">
<title>Node48</title>
<g id="a_node45"><a xlink:href="write__buffer_8hpp.html" target="_top" xlink:title="This file provides an interface for the ArgoDSM write buffer.">
<polygon fill="white" stroke="black" points="683.5,-414.5 683.5,-433.5 778.5,-433.5 778.5,-414.5 683.5,-414.5"/>
<text text-anchor="middle" x="731" y="-421.5" font-family="Helvetica,sans-Serif" font-size="10.00">write_buffer.hpp</text>
</a>
</g>
</g>
<!-- Node1&#45;&gt;Node48 -->
<g id="edge57" class="edge">
<title>Node1&#45;&gt;Node48</title>
<path fill="none" stroke="midnightblue" d="M843.05,-470.5C814.4,-459.81 781.04,-446.89 758.16,-437.54"/>
<polygon fill="midnightblue" stroke="midnightblue" points="759.31,-434.23 748.73,-433.65 756.64,-440.7 759.31,-434.23"/>
</g>
<!-- Node30&#45;&gt;Node22 -->
<g id="edge31" class="edge">
<title>Node30&#45;&gt;Node22</title>
<path fill="none" stroke="midnightblue" d="M671.42,-352.87C644.67,-341.65 597.75,-321.98 567.03,-309.09"/>
<polygon fill="midnightblue" stroke="midnightblue" points="568.24,-305.81 557.67,-305.17 565.54,-312.26 568.24,-305.81"/>
</g>
<!-- Node31 -->
<g id="node31" class="node">
<title>Node31</title>
<g id="a_node31"><a xlink:title=" ">
<polygon fill="white" stroke="#bfbfbf" points="666,-286 666,-305 718,-305 718,-286 666,-286"/>
<text text-anchor="middle" x="692" y="-293" font-family="Helvetica,sans-Serif" font-size="10.00">cassert</text>
</a>
</g>
</g>
<!-- Node30&#45;&gt;Node31 -->
<g id="edge30" class="edge">
<title>Node30&#45;&gt;Node31</title>
<path fill="none" stroke="midnightblue" d="M692,-352.73C692,-343.18 692,-327.62 692,-315.28"/>
<polygon fill="midnightblue" stroke="midnightblue" points="695.5,-315.13 692,-305.13 688.5,-315.13 695.5,-315.13"/>
</g>
<!-- Node32 -->
<g id="node32" class="node">
<title>Node32</title>
<g id="a_node32"><a xlink:title=" ">
<polygon fill="white" stroke="#bfbfbf" points="582.5,-286 582.5,-305 647.5,-305 647.5,-286 582.5,-286"/>
<text text-anchor="middle" x="615" y="-293" font-family="Helvetica,sans-Serif" font-size="10.00">stdexcept</text>
</a>
</g>
</g>
<!-- Node30&#45;&gt;Node32 -->
<g id="edge32" class="edge">
<title>Node30&#45;&gt;Node32</title>
<path fill="none" stroke="midnightblue" d="M681.62,-352.73C669.15,-342.21 648.03,-324.38 632.91,-311.62"/>
<polygon fill="midnightblue" stroke="midnightblue" points="635.12,-308.9 625.22,-305.13 630.6,-314.25 635.12,-308.9"/>
</g>
<!-- Node33 -->
<g id="node33" class="node">
<title>Node33</title>
<g id="a_node33"><a xlink:href="global__ptr_8hpp.html" target="_top" xlink:title="This file provides the global pointer for ArgoDSM.">
<polygon fill="white" stroke="black" points="774,-280.5 774,-310.5 906,-310.5 906,-280.5 774,-280.5"/>
<text text-anchor="start" x="782" y="-298.5" font-family="Helvetica,sans-Serif" font-size="10.00">data_distribution/global</text>
<text text-anchor="middle" x="840" y="-287.5" font-family="Helvetica,sans-Serif" font-size="10.00">_ptr.hpp</text>
</a>
</g>
</g>
<!-- Node30&#45;&gt;Node33 -->
<g id="edge33" class="edge">
<title>Node30&#45;&gt;Node33</title>
<path fill="none" stroke="midnightblue" d="M711.65,-352.87C733.77,-343.16 770.31,-327.11 798.75,-314.61"/>
<polygon fill="midnightblue" stroke="midnightblue" points="800.31,-317.75 808.06,-310.53 797.5,-311.34 800.31,-317.75"/>
</g>
<!-- Node41 -->
<g id="node39" class="node">
<title>Node41</title>
<g id="a_node39"><a xlink:href="types_8hpp.html" target="_top" xlink:title="This file defines common types used in ArgoDSM.">
<polygon fill="white" stroke="black" points="944.5,-56.5 944.5,-75.5 1039.5,-75.5 1039.5,-56.5 944.5,-56.5"/>
<text text-anchor="middle" x="992" y="-63.5" font-family="Helvetica,sans-Serif" font-size="10.00">types/types.hpp</text>
</a>
</g>
</g>
<!-- Node30&#45;&gt;Node41 -->
<g id="edge53" class="edge">
<title>Node30&#45;&gt;Node41</title>
<path fill="none" stroke="midnightblue" d="M748.63,-352.95C794.44,-345.02 860.1,-331.36 915,-311 1024.43,-270.42 1086.83,-288 1147,-188 1178.8,-135.16 1088.53,-96.64 1032.64,-78.54"/>
<polygon fill="midnightblue" stroke="midnightblue" points="1033.57,-75.17 1022.98,-75.5 1031.47,-81.84 1033.57,-75.17"/>
</g>
<!-- Node34 -->
<g id="node34" class="node">
<title>Node34</title>
<g id="a_node34"><a xlink:title=" ">
<polygon fill="white" stroke="#bfbfbf" points="537,-56.5 537,-75.5 581,-75.5 581,-56.5 537,-56.5"/>
<text text-anchor="middle" x="559" y="-63.5" font-family="Helvetica,sans-Serif" font-size="10.00">string</text>
</a>
</g>
</g>
<!-- Node33&#45;&gt;Node34 -->
<g id="edge34" class="edge">
<title>Node33&#45;&gt;Node34</title>
<path fill="none" stroke="midnightblue" d="M773.95,-286.27C697.25,-274.32 569.22,-246.81 475,-188 446.44,-170.18 436.15,-163.39 424,-132 407,-88.09 481.52,-73.78 526.64,-69.16"/>
<polygon fill="midnightblue" stroke="midnightblue" points="527.23,-72.62 536.87,-68.23 526.59,-65.65 527.23,-72.62"/>
</g>
<!-- Node35 -->
<g id="node35" class="node">
<title>Node35</title>
<g id="a_node35"><a xlink:href="data__distribution_8hpp.html" target="_top" xlink:title="This file provides an abstraction layer for distributing the shared memory space.">
<polygon fill="white" stroke="red" points="780,-224.5 780,-243.5 900,-243.5 900,-224.5 780,-224.5"/>
<text text-anchor="middle" x="840" y="-231.5" font-family="Helvetica,sans-Serif" font-size="10.00">data_distribution.hpp</text>
</a>
</g>
</g>
<!-- Node33&#45;&gt;Node35 -->
<g id="edge35" class="edge">
<title>Node33&#45;&gt;Node35</title>
<path fill="none" stroke="midnightblue" d="M840,-280.4C840,-272.47 840,-262.46 840,-253.86"/>
<polygon fill="midnightblue" stroke="midnightblue" points="843.5,-253.66 840,-243.66 836.5,-253.66 843.5,-253.66"/>
</g>
<!-- Node39 -->
<g id="node37" class="node">
<title>Node39</title>
<g id="a_node37"><a xlink:href="env_8hpp.html" target="_top" xlink:title="This file provides facilities for handling environment variables.">
<polygon fill="white" stroke="black" points="1166,-56.5 1166,-75.5 1242,-75.5 1242,-56.5 1166,-56.5"/>
<text text-anchor="middle" x="1204" y="-63.5" font-family="Helvetica,sans-Serif" font-size="10.00">env/env.hpp</text>
</a>
</g>
</g>
<!-- Node33&#45;&gt;Node39 -->
<g id="edge52" class="edge">
<title>Node33&#45;&gt;Node39</title>
<path fill="none" stroke="midnightblue" d="M906.23,-286.99C977.85,-275.94 1092.18,-249.49 1170,-188 1192.85,-169.95 1196.15,-160.04 1204,-132 1208.23,-116.87 1207.86,-98.97 1206.64,-85.79"/>
<polygon fill="midnightblue" stroke="midnightblue" points="1210.09,-85.14 1205.45,-75.61 1203.14,-85.95 1210.09,-85.14"/>
</g>
<!-- Node36 -->
<g id="node36" class="node">
<title>Node36</title>
<g id="a_node36"><a xlink:href="base__distribution_8hpp.html" target="_top" xlink:title="This file implements the base distribution class for all the policies to derive from.">
<polygon fill="white" stroke="red" points="824,-112.5 824,-131.5 946,-131.5 946,-112.5 824,-112.5"/>
<text text-anchor="middle" x="885" y="-119.5" font-family="Helvetica,sans-Serif" font-size="10.00">base_distribution.hpp</text>
</a>
</g>
</g>
<!-- Node35&#45;&gt;Node36 -->
<g id="edge36" class="edge">
<title>Node35&#45;&gt;Node36</title>
<path fill="none" stroke="midnightblue" d="M841.83,-224.36C844.67,-211.69 850.68,-187.46 859,-168 863.08,-158.46 868.74,-148.41 873.74,-140.23"/>
<polygon fill="midnightblue" stroke="midnightblue" points="876.79,-141.96 879.17,-131.64 870.87,-138.22 876.79,-141.96"/>
</g>
<!-- Node35&#45;&gt;Node39 -->
<g id="edge51" class="edge">
<title>Node35&#45;&gt;Node39</title>
<path fill="none" stroke="midnightblue" d="M900.05,-230.84C978.1,-226.92 1108.92,-216.24 1147,-188 1180.62,-163.07 1195.16,-113.26 1200.81,-85.96"/>
<polygon fill="midnightblue" stroke="midnightblue" points="1204.32,-86.26 1202.72,-75.78 1197.44,-84.97 1204.32,-86.26"/>
</g>
<!-- Node42 -->
<g id="node40" class="node">
<title>Node42</title>
<g id="a_node40"><a xlink:href="cyclic__distribution_8hpp.html" target="_top" xlink:title="This file implements the cyclic data distribution.">
<polygon fill="white" stroke="black" points="868,-168.5 868,-187.5 994,-187.5 994,-168.5 868,-168.5"/>
<text text-anchor="middle" x="931" y="-175.5" font-family="Helvetica,sans-Serif" font-size="10.00">cyclic_distribution.hpp</text>
</a>
</g>
</g>
<!-- Node35&#45;&gt;Node42 -->
<g id="edge41" class="edge">
<title>Node35&#45;&gt;Node42</title>
<path fill="none" stroke="midnightblue" d="M854.62,-224.32C868.95,-215.82 891.01,-202.73 907.75,-192.8"/>
<polygon fill="midnightblue" stroke="midnightblue" points="909.6,-195.77 916.42,-187.65 906.03,-189.75 909.6,-195.77"/>
</g>
<!-- Node43 -->
<g id="node41" class="node">
<title>Node43</title>
<g id="a_node41"><a xlink:href="first__touch__distribution_8hpp.html" target="_top" xlink:title="This file implements the first&#45;touch data distribution.">
<polygon fill="white" stroke="black" points="484.5,-168.5 484.5,-187.5 633.5,-187.5 633.5,-168.5 484.5,-168.5"/>
<text text-anchor="middle" x="559" y="-175.5" font-family="Helvetica,sans-Serif" font-size="10.00">first_touch_distribution.hpp</text>
</a>
</g>
</g>
<!-- Node35&#45;&gt;Node43 -->
<g id="edge43" class="edge">
<title>Node35&#45;&gt;Node43</title>
<path fill="none" stroke="midnightblue" d="M795.47,-224.44C746.04,-214.94 666.25,-199.61 613.22,-189.42"/>
<polygon fill="midnightblue" stroke="midnightblue" points="613.8,-185.97 603.32,-187.52 612.48,-192.84 613.8,-185.97"/>
</g>
<!-- Node44 -->
<g id="node42" class="node">
<title>Node44</title>
<g id="a_node42"><a xlink:href="naive__distribution_8hpp.html" target="_top" xlink:title="This file implements the naive data distribution.">
<polygon fill="white" stroke="black" points="1012.5,-168.5 1012.5,-187.5 1137.5,-187.5 1137.5,-168.5 1012.5,-168.5"/>
<text text-anchor="middle" x="1075" y="-175.5" font-family="Helvetica,sans-Serif" font-size="10.00">naive_distribution.hpp</text>
</a>
</g>
</g>
<!-- Node35&#45;&gt;Node44 -->
<g id="edge47" class="edge">
<title>Node35&#45;&gt;Node44</title>
<path fill="none" stroke="midnightblue" d="M877.24,-224.44C918.06,-215.06 983.64,-199.99 1027.98,-189.8"/>
<polygon fill="midnightblue" stroke="midnightblue" points="1028.98,-193.17 1037.94,-187.52 1027.41,-186.34 1028.98,-193.17"/>
</g>
<!-- Node45 -->
<g id="node43" class="node">
<title>Node45</title>
<g id="a_node43"><a xlink:href="prime__mapp__distribution_8hpp.html" target="_top" xlink:title="This file implements the prime&#45;mapp data distribution.">
<polygon fill="white" stroke="black" points="652,-168.5 652,-187.5 812,-187.5 812,-168.5 652,-168.5"/>
<text text-anchor="middle" x="732" y="-175.5" font-family="Helvetica,sans-Serif" font-size="10.00">prime_mapp_distribution.hpp</text>
</a>
</g>
</g>
<!-- Node35&#45;&gt;Node45 -->
<g id="edge49" class="edge">
<title>Node35&#45;&gt;Node45</title>
<path fill="none" stroke="midnightblue" d="M822.65,-224.32C805.33,-215.66 778.48,-202.24 758.5,-192.25"/>
<polygon fill="midnightblue" stroke="midnightblue" points="759.82,-189 749.31,-187.65 756.69,-195.26 759.82,-189"/>
</g>
<!-- Node36&#45;&gt;Node34 -->
<g id="edge37" class="edge">
<title>Node36&#45;&gt;Node34</title>
<path fill="none" stroke="midnightblue" d="M833.34,-112.44C765.37,-101.18 647.92,-81.73 591.32,-72.35"/>
<polygon fill="midnightblue" stroke="midnightblue" points="591.61,-68.85 581.17,-70.67 590.46,-75.76 591.61,-68.85"/>
</g>
<!-- Node36&#45;&gt;Node39 -->
<g id="edge38" class="edge">
<title>Node36&#45;&gt;Node39</title>
<path fill="none" stroke="midnightblue" d="M935.55,-112.44C996,-102.21 1096.45,-85.21 1155.83,-75.15"/>
<polygon fill="midnightblue" stroke="midnightblue" points="1156.43,-78.6 1165.7,-73.48 1155.26,-71.7 1156.43,-78.6"/>
</g>
<!-- Node36&#45;&gt;Node41 -->
<g id="edge40" class="edge">
<title>Node36&#45;&gt;Node41</title>
<path fill="none" stroke="midnightblue" d="M902.19,-112.32C919.35,-103.66 945.95,-90.24 965.75,-80.25"/>
<polygon fill="midnightblue" stroke="midnightblue" points="967.5,-83.28 974.85,-75.65 964.35,-77.04 967.5,-83.28"/>
</g>
<!-- Node40 -->
<g id="node38" class="node">
<title>Node40</title>
<g id="a_node38"><a xlink:title=" ">
<polygon fill="white" stroke="#bfbfbf" points="1177.5,-0.5 1177.5,-19.5 1230.5,-19.5 1230.5,-0.5 1177.5,-0.5"/>
<text text-anchor="middle" x="1204" y="-7.5" font-family="Helvetica,sans-Serif" font-size="10.00">cstddef</text>
</a>
</g>
</g>
<!-- Node39&#45;&gt;Node40 -->
<g id="edge39" class="edge">
<title>Node39&#45;&gt;Node40</title>
<path fill="none" stroke="midnightblue" d="M1204,-56.08C1204,-49.01 1204,-38.86 1204,-29.99"/>
<polygon fill="midnightblue" stroke="midnightblue" points="1207.5,-29.75 1204,-19.75 1200.5,-29.75 1207.5,-29.75"/>
</g>
<!-- Node42&#45;&gt;Node36 -->
<g id="edge42" class="edge">
<title>Node42&#45;&gt;Node36</title>
<path fill="none" stroke="midnightblue" d="M923.4,-168.08C916.77,-160.3 906.98,-148.8 898.94,-139.37"/>
<polygon fill="midnightblue" stroke="midnightblue" points="901.6,-137.09 892.45,-131.75 896.27,-141.63 901.6,-137.09"/>
</g>
<!-- Node43&#45;&gt;Node24 -->
<g id="edge44" class="edge">
<title>Node43&#45;&gt;Node24</title>
<path fill="none" stroke="midnightblue" d="M542.61,-168.32C526.33,-159.7 501.13,-146.36 482.28,-136.39"/>
<polygon fill="midnightblue" stroke="midnightblue" points="483.82,-133.24 473.35,-131.65 480.55,-139.43 483.82,-133.24"/>
</g>
<!-- Node43&#45;&gt;Node34 -->
<g id="edge45" class="edge">
<title>Node43&#45;&gt;Node34</title>
<path fill="none" stroke="midnightblue" d="M559,-168.37C559,-150.62 559,-109.67 559,-85.6"/>
<polygon fill="midnightblue" stroke="midnightblue" points="562.5,-85.59 559,-75.59 555.5,-85.59 562.5,-85.59"/>
</g>
<!-- Node43&#45;&gt;Node36 -->
<g id="edge46" class="edge">
<title>Node43&#45;&gt;Node36</title>
<path fill="none" stroke="midnightblue" d="M610.66,-168.44C668.48,-158.87 762.11,-143.36 823.62,-133.17"/>
<polygon fill="midnightblue" stroke="midnightblue" points="824.29,-136.6 833.59,-131.52 823.15,-129.7 824.29,-136.6"/>
</g>
<!-- Node44&#45;&gt;Node36 -->
<g id="edge48" class="edge">
<title>Node44&#45;&gt;Node36</title>
<path fill="none" stroke="midnightblue" d="M1044.89,-168.44C1012.37,-159.2 960.42,-144.44 924.61,-134.26"/>
<polygon fill="midnightblue" stroke="midnightblue" points="925.54,-130.88 914.97,-131.52 923.63,-137.62 925.54,-130.88"/>
</g>
<!-- Node45&#45;&gt;Node36 -->
<g id="edge50" class="edge">
<title>Node45&#45;&gt;Node36</title>
<path fill="none" stroke="midnightblue" d="M756.24,-168.44C781.87,-159.4 822.49,-145.06 851.24,-134.92"/>
<polygon fill="midnightblue" stroke="midnightblue" points="852.61,-138.15 860.87,-131.52 850.28,-131.54 852.61,-138.15"/>
</g>
<!-- Node47&#45;&gt;Node7 -->
<g id="edge55" class="edge">
<title>Node47&#45;&gt;Node7</title>
<path fill="none" stroke="midnightblue" d="M424.11,-414.48C413.35,-405.2 395.93,-390.17 382.78,-378.83"/>
<polygon fill="midnightblue" stroke="midnightblue" points="384.73,-375.89 374.87,-372.01 380.16,-381.19 384.73,-375.89"/>
</g>
<!-- Node47&#45;&gt;Node9 -->
<g id="edge56" class="edge">
<title>Node47&#45;&gt;Node9</title>
<path fill="none" stroke="midnightblue" d="M434.43,-414.48C434.85,-406.08 435.51,-392.98 436.06,-382.16"/>
<polygon fill="midnightblue" stroke="midnightblue" points="439.56,-382.17 436.57,-372.01 432.57,-381.82 439.56,-382.17"/>
</g>
<!-- Node48&#45;&gt;Node1 -->
<g id="edge65" class="edge">
<title>Node48&#45;&gt;Node1</title>
<path fill="none" stroke="midnightblue" d="M758.26,-433.65C781.91,-442.06 816.66,-455.2 845.87,-466.68"/>
<polygon fill="midnightblue" stroke="midnightblue" points="844.95,-470.08 855.54,-470.5 847.52,-463.57 844.95,-470.08"/>
</g>
<!-- Node48&#45;&gt;Node7 -->
<g id="edge58" class="edge">
<title>Node48&#45;&gt;Node7</title>
<path fill="none" stroke="midnightblue" d="M683.46,-421.15C617.65,-417.57 495.66,-407.25 396,-378 394.12,-377.45 392.21,-376.8 390.3,-376.08"/>
<polygon fill="midnightblue" stroke="midnightblue" points="391.62,-372.84 381.05,-372.14 388.87,-379.28 391.62,-372.84"/>
</g>
<!-- Node48&#45;&gt;Node20 -->
<g id="edge60" class="edge">
<title>Node48&#45;&gt;Node20</title>
<path fill="none" stroke="midnightblue" d="M710.07,-414.44C688.11,-405.45 652.58,-390.83 622,-378 620.59,-377.41 619.16,-376.81 617.71,-376.19"/>
<polygon fill="midnightblue" stroke="midnightblue" points="618.69,-372.81 608.12,-372.13 615.96,-379.25 618.69,-372.81"/>
</g>
<!-- Node48&#45;&gt;Node24 -->
<g id="edge63" class="edge">
<title>Node48&#45;&gt;Node24</title>
<path fill="none" stroke="midnightblue" d="M739.48,-414.23C747.05,-405.75 757.6,-392.13 762,-378 775.74,-333.84 761.78,-310.49 727,-280 637.34,-201.41 555.87,-275.61 475,-188 463.47,-175.51 459.23,-156.28 457.72,-141.97"/>
<polygon fill="midnightblue" stroke="midnightblue" points="461.19,-141.51 457,-131.78 454.21,-142 461.19,-141.51"/>
</g>
<!-- Node48&#45;&gt;Node27 -->
<g id="edge64" class="edge">
<title>Node48&#45;&gt;Node27</title>
<path fill="none" stroke="midnightblue" d="M778.58,-416.32C814.89,-409.93 865.42,-398.19 906,-378 925.82,-368.14 924.5,-355.36 945,-347 1088.97,-288.27 1141.9,-347.7 1293,-311 1295.83,-310.31 1298.73,-309.46 1301.6,-308.51"/>
<polygon fill="midnightblue" stroke="midnightblue" points="1302.92,-311.75 1311.11,-305.03 1300.52,-305.18 1302.92,-311.75"/>
</g>
<!-- Node48&#45;&gt;Node30 -->
<g id="edge66" class="edge">
<title>Node48&#45;&gt;Node30</title>
<path fill="none" stroke="midnightblue" d="M725.41,-414.48C719.62,-405.64 710.41,-391.59 703.13,-380.48"/>
<polygon fill="midnightblue" stroke="midnightblue" points="705.99,-378.45 697.58,-372.01 700.13,-382.29 705.99,-378.45"/>
</g>
<!-- Node48&#45;&gt;Node39 -->
<g id="edge67" class="edge">
<title>Node48&#45;&gt;Node39</title>
<path fill="none" stroke="midnightblue" d="M740.55,-414.31C758.36,-398.54 798.47,-365.19 838,-347 897.93,-319.42 919.84,-333.1 982,-311 1048.13,-287.49 1069.35,-286.77 1125,-244 1176.52,-204.39 1196.77,-193.07 1219,-132 1224.63,-116.54 1219.39,-98.23 1213.62,-84.99"/>
<polygon fill="midnightblue" stroke="midnightblue" points="1216.58,-83.08 1209.07,-75.61 1210.28,-86.13 1216.58,-83.08"/>
</g>
<!-- Node49 -->
<g id="node46" class="node">
<title>Node49</title>
<g id="a_node46"><a xlink:title=" ">
<polygon fill="white" stroke="#bfbfbf" points="1101,-353 1101,-372 1165,-372 1165,-353 1101,-353"/>
<text text-anchor="middle" x="1133" y="-360" font-family="Helvetica,sans-Serif" font-size="10.00">algorithm</text>
</a>
</g>
</g>
<!-- Node48&#45;&gt;Node49 -->
<g id="edge59" class="edge">
<title>Node48&#45;&gt;Node49</title>
<path fill="none" stroke="midnightblue" d="M778.71,-415.95C783.54,-415.28 788.36,-414.62 793,-414 925.68,-396.38 961.67,-408.5 1092,-378 1095.23,-377.24 1098.57,-376.32 1101.87,-375.3"/>
<polygon fill="midnightblue" stroke="midnightblue" points="1103.18,-378.56 1111.56,-372.08 1100.97,-371.92 1103.18,-378.56"/>
</g>
<!-- Node50 -->
<g id="node47" class="node">
<title>Node50</title>
<g id="a_node47"><a xlink:title=" ">
<polygon fill="white" stroke="#bfbfbf" points="1183.5,-353 1183.5,-372 1230.5,-372 1230.5,-353 1183.5,-353"/>
<text text-anchor="middle" x="1207" y="-360" font-family="Helvetica,sans-Serif" font-size="10.00">deque</text>
</a>
</g>
</g>
<!-- Node48&#45;&gt;Node50 -->
<g id="edge61" class="edge">
<title>Node48&#45;&gt;Node50</title>
<path fill="none" stroke="midnightblue" d="M778.7,-415.83C783.52,-415.18 788.36,-414.56 793,-414 961.88,-393.78 1009.37,-420.76 1174,-378 1176.3,-377.4 1178.64,-376.66 1180.97,-375.84"/>
<polygon fill="midnightblue" stroke="midnightblue" points="1182.28,-379.08 1190.24,-372.1 1179.66,-372.59 1182.28,-379.08"/>
</g>
<!-- Node51 -->
<g id="node48" class="node">
<title>Node51</title>
<g id="a_node48"><a xlink:title=" ">
<polygon fill="white" stroke="#bfbfbf" points="1248.5,-353 1248.5,-372 1301.5,-372 1301.5,-353 1248.5,-353"/>
<text text-anchor="middle" x="1275" y="-360" font-family="Helvetica,sans-Serif" font-size="10.00">iterator</text>
</a>
</g>
</g>
<!-- Node48&#45;&gt;Node51 -->
<g id="edge62" class="edge">
<title>Node48&#45;&gt;Node51</title>
<path fill="none" stroke="midnightblue" d="M778.69,-415.76C783.52,-415.13 788.35,-414.52 793,-414 991.06,-391.67 1046.24,-424.71 1240,-378 1242.52,-377.39 1245.09,-376.63 1247.64,-375.77"/>
<polygon fill="midnightblue" stroke="midnightblue" points="1249.09,-378.96 1257.19,-372.13 1246.6,-372.42 1249.09,-378.96"/>
</g>
<!-- Node52 -->
<g id="node49" class="node">
<title>Node52</title>
<g id="a_node49"><a xlink:title=" ">
<polygon fill="white" stroke="#bfbfbf" points="847,-353 847,-372 897,-372 897,-353 847,-353"/>
<text text-anchor="middle" x="872" y="-360" font-family="Helvetica,sans-Serif" font-size="10.00">qd.hpp</text>
</a>
</g>
</g>
<!-- Node48&#45;&gt;Node52 -->
<g id="edge68" class="edge">
<title>Node48&#45;&gt;Node52</title>
<path fill="none" stroke="midnightblue" d="M751.2,-414.48C775.07,-404.4 815,-387.55 842.37,-376"/>
<polygon fill="midnightblue" stroke="midnightblue" points="843.98,-379.12 851.84,-372.01 841.26,-372.67 843.98,-379.12"/>
</g>
<!-- Node53 -->
<g id="node50" class="node">
<title>Node53</title>
<g id="a_node50"><a xlink:href="virtual__memory_8hpp.html" target="_top" xlink:title="This file provides facilities for handling virtual memory and virtual address space.">
<polygon fill="white" stroke="black" points="953.5,-347.5 953.5,-377.5 1082.5,-377.5 1082.5,-347.5 953.5,-347.5"/>
<text text-anchor="start" x="961.5" y="-365.5" font-family="Helvetica,sans-Serif" font-size="10.00">virtual_memory/virtual</text>
<text text-anchor="middle" x="1018" y="-354.5" font-family="Helvetica,sans-Serif" font-size="10.00">_memory.hpp</text>
</a>
</g>
</g>
<!-- Node48&#45;&gt;Node53 -->
<g id="edge69" class="edge">
<title>Node48&#45;&gt;Node53</title>
<path fill="none" stroke="midnightblue" d="M772.12,-414.48C816.7,-405.23 888.78,-390.29 943.4,-378.97"/>
<polygon fill="midnightblue" stroke="midnightblue" points="944.3,-382.35 953.38,-376.9 942.88,-375.5 944.3,-382.35"/>
</g>
<!-- Node53&#45;&gt;Node27 -->
<g id="edge70" class="edge">
<title>Node53&#45;&gt;Node27</title>
<path fill="none" stroke="midnightblue" d="M1082.56,-348.79C1085.75,-348.18 1088.91,-347.58 1092,-347 1181.2,-330.27 1205.66,-335.68 1293,-311 1295.59,-310.27 1298.24,-309.42 1300.89,-308.52"/>
<polygon fill="midnightblue" stroke="midnightblue" points="1302.1,-311.8 1310.28,-305.06 1299.68,-305.23 1302.1,-311.8"/>
</g>
</g>
</svg>
        <g id="navigator" transform="translate(0 0)" fill="#404254">
                <rect fill="#f2f5e9" fill-opacity="0.5" stroke="#606060" stroke-width=".5" x="0" y="0" width="60" height="60"/>
                <use id="zoomplus" xlink:href="#zoomPlus" x="17" y="9" onmousedown="handleZoom(evt,'in')"/>
                <use id="zoomminus" xlink:href="#zoomMin" x="42" y="9" onmousedown="handleZoom(evt,'out')"/>
                <use id="reset" xlink:href="#resetDef" x="30" y="36" onmousedown="handleReset()"/>
                <g id="arrowUp" xlink:href="#dirArrow" transform="translate(30 24)" onmousedown="handlePan(0,-1)">
                  <use xlink:href="#rim" fill="#404040">
                        <set attributeName="fill" to="#808080" begin="arrowUp.mouseover" end="arrowUp.mouseout"/>
                  </use>
                  <path fill="none" stroke="white" stroke-width="1.5" d="M0,-3.0v7 M-2.5,-0.5L0,-3.0L2.5,-0.5"/>
                </g>
                <g id="arrowRight" xlink:href="#dirArrow" transform="rotate(90) translate(36 -43)" onmousedown="handlePan(1,0)">
                  <use xlink:href="#rim" fill="#404040">
                        <set attributeName="fill" to="#808080" begin="arrowRight.mouseover" end="arrowRight.mouseout"/>
                  </use>
                  <path fill="none" stroke="white" stroke-width="1.5" d="M0,-3.0v7 M-2.5,-0.5L0,-3.0L2.5,-0.5"/>
                </g>
                <g id="arrowDown" xlink:href="#dirArrow" transform="rotate(180) translate(-30 -48)" onmousedown="handlePan(0,1)">
                  <use xlink:href="#rim" fill="#404040">
                        <set attributeName="fill" to="#808080" begin="arrowDown.mouseover" end="arrowDown.mouseout"/>
                  </use>
                  <path fill="none" stroke="white" stroke-width="1.5" d="M0,-3.0v7 M-2.5,-0.5L0,-3.0L2.5,-0.5"/>
                </g>
                <g id="arrowLeft" xlink:href="#dirArrow" transform="rotate(270) translate(-36 17)" onmousedown="handlePan(-1,0)">
                  <use xlink:href="#rim" fill="#404040">
                        <set attributeName="fill" to="#808080" begin="arrowLeft.mouseover" end="arrowLeft.mouseout"/>
                  </use>
                  <path fill="none" stroke="white" stroke-width="1.5" d="M0,-3.0v7 M-2.5,-0.5L0,-3.0L2.5,-0.5"/>
                </g>
        </g>
        <svg viewBox="0 0 15 15" width="100%" height="30px" preserveAspectRatio="xMaxYMin meet">
         <g id="arrow_out" transform="scale(0.3 0.3)">
          <a xlink:href="swdsm_8h__incl_org.svg" target="_base">
           <rect id="button" ry="5" rx="5" y="6" x="6" height="38" width="38"
                fill="#f2f5e9" fill-opacity="0.5" stroke="#606060" stroke-width="1.0"/>
           <path id="arrow"
             d="M 11.500037,31.436501 C 11.940474,20.09759 22.043105,11.32322 32.158766,21.979434 L 37.068811,17.246167 C 37.068811,17.246167 37.088388,32 37.088388,32 L 22.160133,31.978069 C 22.160133,31.978069 26.997745,27.140456 26.997745,27.140456 C 18.528582,18.264221 13.291696,25.230495 11.500037,31.436501 z"
             style="fill:#404040;"/>
          </a>
         </g>
        </svg>
</svg>
