<?xml version="1.0" encoding="UTF-8" standalone="no"?>
<!DOCTYPE svg PUBLIC "-//W3C//DTD SVG 1.1//EN"
 "http://www.w3.org/Graphics/SVG/1.1/DTD/svg11.dtd">
<!-- Generated by graphviz version 2.43.0 (0)
 -->
<!-- Title: argo_get_global_base Pages: 1 -->
<svg width="316pt" height="46pt"
 viewBox="0.00 0.00 316.00 46.00" xmlns="http://www.w3.org/2000/svg" xmlns:xlink="http://www.w3.org/1999/xlink">
<g id="graph0" class="graph" transform="scale(1 1) rotate(0) translate(4 42)">
<title>argo_get_global_base</title>
<polygon fill="white" stroke="transparent" points="-4,4 -4,-42 312,-42 312,4 -4,4"/>
<!-- Node1 -->
<g id="node1" class="node">
<title>Node1</title>
<g id="a_node1"><a xlink:title="Gives a pointer to the global address space.">
<polygon fill="#bfbfbf" stroke="black" points="185,-0.5 185,-19.5 308,-19.5 308,-0.5 185,-0.5"/>
<text text-anchor="middle" x="246.5" y="-7.5" font-family="Helvetica,sans-Serif" font-size="10.00">argo_get_global_base</text>
</a>
</g>
</g>
<!-- Node2 -->
<g id="node2" class="node">
<title>Node2</title>
<g id="a_node2"><a xlink:href="backend_8hpp_accdb028da8b647703b9fbf91d1784066.html#accdb028da8b647703b9fbf91d1784066" target="_top" xlink:title="get base address of global memory">
<polygon fill="white" stroke="black" points="0,-0.5 0,-19.5 149,-19.5 149,-0.5 0,-0.5"/>
<text text-anchor="middle" x="74.5" y="-7.5" font-family="Helvetica,sans-Serif" font-size="10.00">argo::backend::global_base</text>
</a>
</g>
</g>
<!-- Node1&#45;&gt;Node2 -->
<g id="edge1" class="edge">
<title>Node1&#45;&gt;Node2</title>
<path fill="none" stroke="midnightblue" d="M174.47,-10C166.07,-10 157.47,-10 149.04,-10"/>
<polygon fill="midnightblue" stroke="midnightblue" points="174.61,-13.5 184.61,-10 174.61,-6.5 174.61,-13.5"/>
</g>
<!-- Node2&#45;&gt;Node2 -->
<g id="edge2" class="edge">
<title>Node2&#45;&gt;Node2</title>
<path fill="none" stroke="midnightblue" d="M106.69,-28.27C105.77,-33.74 95.04,-38 74.5,-38 43.93,-38 35.09,-28.57 47.99,-19.76"/>
<polygon fill="midnightblue" stroke="midnightblue" points="109.47,-26.14 101.01,-19.76 103.64,-30.02 109.47,-26.14"/>
</g>
</g>
</svg>
