<?xml version="1.0" encoding="UTF-8" standalone="no"?>
<!DOCTYPE svg PUBLIC "-//W3C//DTD SVG 1.1//EN"
 "http://www.w3.org/Graphics/SVG/1.1/DTD/svg11.dtd">
<!-- Generated by graphviz version 2.43.0 (0)
 -->
<!-- Title: get_data_win_index Pages: 1 -->
<svg width="1054pt" height="655pt"
 viewBox="0.00 0.00 1054.00 655.00" xmlns="http://www.w3.org/2000/svg" xmlns:xlink="http://www.w3.org/1999/xlink">
<g id="graph0" class="graph" transform="scale(1 1) rotate(0) translate(4 651)">
<title>get_data_win_index</title>
<polygon fill="white" stroke="transparent" points="-4,4 -4,-651 1050,-651 1050,4 -4,4"/>
<!-- Node1 -->
<g id="node1" class="node">
<title>Node1</title>
<g id="a_node1"><a xlink:title="Gets the data window index based on the offset into the node&#39;s backing store.">
<polygon fill="#bfbfbf" stroke="black" points="932,-269 932,-288 1046,-288 1046,-269 932,-269"/>
<text text-anchor="middle" x="989" y="-276" font-family="Helvetica,sans-Serif" font-size="10.00">get_data_win_index</text>
</a>
</g>
</g>
<!-- Node2 -->
<g id="node2" class="node">
<title>Node2</title>
<g id="a_node2"><a xlink:href="backend_8hpp_ab1a7511272b2801f891b966a67b2a4dc.html#ab1a7511272b2801f891b966a67b2a4dc" target="_top" xlink:title="Backend internal type erased atomic CAS function.">
<polygon fill="white" stroke="black" points="771,-572.5 771,-602.5 896,-602.5 896,-572.5 771,-572.5"/>
<text text-anchor="start" x="779" y="-590.5" font-family="Helvetica,sans-Serif" font-size="10.00">argo::backend::atomic</text>
<text text-anchor="middle" x="833.5" y="-579.5" font-family="Helvetica,sans-Serif" font-size="10.00">::_compare_exchange</text>
</a>
</g>
</g>
<!-- Node1&#45;&gt;Node2 -->
<g id="edge1" class="edge">
<title>Node1&#45;&gt;Node2</title>
<path fill="none" stroke="midnightblue" d="M984.81,-298.51C976.7,-344.57 951.84,-460.13 896,-538.5 886.34,-552.06 871.92,-563.83 859.47,-572.43"/>
<polygon fill="midnightblue" stroke="midnightblue" points="988.31,-298.81 986.52,-288.37 981.41,-297.65 988.31,-298.81"/>
</g>
<!-- Node4 -->
<g id="node4" class="node">
<title>Node4</title>
<g id="a_node4"><a xlink:href="backend_8hpp_a59102c6814043d49f3b2623f367f6ba2.html#a59102c6814043d49f3b2623f367f6ba2" target="_top" xlink:title="Backend internal type erased atomic exchange function.">
<polygon fill="white" stroke="black" points="771,-480.5 771,-510.5 896,-510.5 896,-480.5 771,-480.5"/>
<text text-anchor="start" x="779" y="-498.5" font-family="Helvetica,sans-Serif" font-size="10.00">argo::backend::atomic</text>
<text text-anchor="middle" x="833.5" y="-487.5" font-family="Helvetica,sans-Serif" font-size="10.00">::_exchange</text>
</a>
</g>
</g>
<!-- Node1&#45;&gt;Node4 -->
<g id="edge5" class="edge">
<title>Node1&#45;&gt;Node4</title>
<path fill="none" stroke="midnightblue" d="M977.23,-296.76C960.71,-324.42 927.69,-378.27 896,-421.5 880.49,-442.65 860.88,-465.69 848.02,-480.35"/>
<polygon fill="midnightblue" stroke="midnightblue" points="980.26,-298.52 982.36,-288.14 974.24,-294.94 980.26,-298.52"/>
</g>
<!-- Node6 -->
<g id="node6" class="node">
<title>Node6</title>
<g id="a_node6"><a xlink:href="mpi_8cpp_a9b1ef8bbaaf93b03603c2ab0ff3b6133.html#a9b1ef8bbaaf93b03603c2ab0ff3b6133" target="_top" xlink:title="Atomic fetch&amp;add for the MPI backend (for internal usage)">
<polygon fill="white" stroke="black" points="771,-363.5 771,-393.5 896,-393.5 896,-363.5 771,-363.5"/>
<text text-anchor="start" x="779" y="-381.5" font-family="Helvetica,sans-Serif" font-size="10.00">argo::backend::atomic</text>
<text text-anchor="middle" x="833.5" y="-370.5" font-family="Helvetica,sans-Serif" font-size="10.00">::_fetch_add</text>
</a>
</g>
</g>
<!-- Node1&#45;&gt;Node6 -->
<g id="edge9" class="edge">
<title>Node1&#45;&gt;Node6</title>
<path fill="none" stroke="midnightblue" d="M964.62,-293.73C935.62,-312.63 886.46,-344.65 857.59,-363.46"/>
<polygon fill="midnightblue" stroke="midnightblue" points="966.81,-296.48 973.28,-288.09 962.99,-290.61 966.81,-296.48"/>
</g>
<!-- Node11 -->
<g id="node11" class="node">
<title>Node11</title>
<g id="a_node11"><a xlink:href="backend_8hpp_ad05287a5a2d303811b5c9e7a488bda59.html#ad05287a5a2d303811b5c9e7a488bda59" target="_top" xlink:title="Backend internal type erased atomic store function.">
<polygon fill="white" stroke="black" points="771,-263.5 771,-293.5 896,-293.5 896,-263.5 771,-263.5"/>
<text text-anchor="start" x="779" y="-281.5" font-family="Helvetica,sans-Serif" font-size="10.00">argo::backend::atomic</text>
<text text-anchor="middle" x="833.5" y="-270.5" font-family="Helvetica,sans-Serif" font-size="10.00">::_load</text>
</a>
</g>
</g>
<!-- Node1&#45;&gt;Node11 -->
<g id="edge21" class="edge">
<title>Node1&#45;&gt;Node11</title>
<path fill="none" stroke="midnightblue" d="M921.56,-278.5C913.14,-278.5 904.55,-278.5 896.21,-278.5"/>
<polygon fill="midnightblue" stroke="midnightblue" points="921.71,-282 931.71,-278.5 921.71,-275 921.71,-282"/>
</g>
<!-- Node13 -->
<g id="node13" class="node">
<title>Node13</title>
<g id="a_node13"><a xlink:href="backend_8hpp_ae76ec4647c992bfecf6309787f3dec4a.html#ae76ec4647c992bfecf6309787f3dec4a" target="_top" xlink:title="Backend internal type erased atomic store function.">
<polygon fill="white" stroke="black" points="771,-196.5 771,-226.5 896,-226.5 896,-196.5 771,-196.5"/>
<text text-anchor="start" x="779" y="-214.5" font-family="Helvetica,sans-Serif" font-size="10.00">argo::backend::atomic</text>
<text text-anchor="middle" x="833.5" y="-203.5" font-family="Helvetica,sans-Serif" font-size="10.00">::_store</text>
</a>
</g>
</g>
<!-- Node1&#45;&gt;Node13 -->
<g id="edge25" class="edge">
<title>Node1&#45;&gt;Node13</title>
<path fill="none" stroke="midnightblue" d="M956.79,-264.88C931.28,-253.74 895.26,-238.02 868.92,-226.52"/>
<polygon fill="midnightblue" stroke="midnightblue" points="955.44,-268.11 966.01,-268.9 958.24,-261.69 955.44,-268.11"/>
</g>
<!-- Node15 -->
<g id="node15" class="node">
<title>Node15</title>
<g id="a_node15"><a xlink:href="swdsm_8cpp_a92a73a9ea2009afcbef38b3e88b9ac0f.html#a92a73a9ea2009afcbef38b3e88b9ac0f" target="_top" xlink:title="load into cache helper function">
<polygon fill="white" stroke="black" points="614,-158 614,-177 716,-177 716,-158 614,-158"/>
<text text-anchor="middle" x="665" y="-165" font-family="Helvetica,sans-Serif" font-size="10.00">load_cache_entry</text>
</a>
</g>
</g>
<!-- Node1&#45;&gt;Node15 -->
<g id="edge29" class="edge">
<title>Node1&#45;&gt;Node15</title>
<path fill="none" stroke="midnightblue" d="M975.98,-260.59C960.37,-239.02 930.97,-203.68 896,-187.5 838.53,-160.91 764.38,-159.52 716.04,-162.36"/>
<polygon fill="midnightblue" stroke="midnightblue" points="973.19,-262.71 981.79,-268.89 978.92,-258.7 973.19,-262.71"/>
</g>
<!-- Node19 -->
<g id="node19" class="node">
<title>Node19</title>
<g id="a_node19"><a xlink:href="swdsm_8cpp_a3b6a6b2b244edb9faa79814ce8e5e9f5.html#a3b6a6b2b244edb9faa79814ce8e5e9f5" target="_top" xlink:title="stores a page remotely &#45; only writing back what has been written locally since last synchronization p...">
<polygon fill="white" stroke="black" points="789.5,-108 789.5,-127 877.5,-127 877.5,-108 789.5,-108"/>
<text text-anchor="middle" x="833.5" y="-115" font-family="Helvetica,sans-Serif" font-size="10.00">storepageDIFF</text>
</a>
</g>
</g>
<!-- Node1&#45;&gt;Node19 -->
<g id="edge33" class="edge">
<title>Node1&#45;&gt;Node19</title>
<path fill="none" stroke="midnightblue" d="M977.57,-259.8C962.28,-233.61 931.69,-185.63 896,-153.5 883.95,-142.66 868.13,-133.48 855.55,-127.11"/>
<polygon fill="midnightblue" stroke="midnightblue" points="974.65,-261.75 982.66,-268.69 980.73,-258.27 974.65,-261.75"/>
</g>
<!-- Node2&#45;&gt;Node2 -->
<g id="edge2" class="edge">
<title>Node2&#45;&gt;Node2</title>
<path fill="none" stroke="midnightblue" d="M860.86,-612.96C857.47,-617.68 848.35,-621 833.5,-621 809.14,-621 800.19,-612.06 806.66,-602.66"/>
<polygon fill="midnightblue" stroke="midnightblue" points="864.34,-612.47 860.34,-602.66 857.35,-612.82 864.34,-612.47"/>
</g>
<!-- Node3 -->
<g id="node3" class="node">
<title>Node3</title>
<g id="a_node3"><a xlink:href="backend_8hpp_a8e7144eaa88e3a94eb4e5fb8efb423a4.html#a8e7144eaa88e3a94eb4e5fb8efb423a4" target="_top" xlink:title="Atomic CAS operation on a global address.">
<polygon fill="white" stroke="black" points="602.5,-598.5 602.5,-628.5 727.5,-628.5 727.5,-598.5 602.5,-598.5"/>
<text text-anchor="start" x="610.5" y="-616.5" font-family="Helvetica,sans-Serif" font-size="10.00">argo::backend::atomic</text>
<text text-anchor="middle" x="665" y="-605.5" font-family="Helvetica,sans-Serif" font-size="10.00">::compare_exchange</text>
</a>
</g>
</g>
<!-- Node2&#45;&gt;Node3 -->
<g id="edge3" class="edge">
<title>Node2&#45;&gt;Node3</title>
<path fill="none" stroke="midnightblue" d="M760.88,-598.68C749.78,-600.42 738.4,-602.19 727.55,-603.89"/>
<polygon fill="midnightblue" stroke="midnightblue" points="761.63,-602.11 770.97,-597.11 760.55,-595.19 761.63,-602.11"/>
</g>
<!-- Node3&#45;&gt;Node3 -->
<g id="edge4" class="edge">
<title>Node3&#45;&gt;Node3</title>
<path fill="none" stroke="midnightblue" d="M694.85,-638.96C691.15,-643.68 681.2,-647 665,-647 638.42,-647 628.66,-638.06 635.72,-628.66"/>
<polygon fill="midnightblue" stroke="midnightblue" points="698.33,-638.45 694.28,-628.66 691.34,-638.84 698.33,-638.45"/>
</g>
<!-- Node4&#45;&gt;Node4 -->
<g id="edge6" class="edge">
<title>Node4&#45;&gt;Node4</title>
<path fill="none" stroke="midnightblue" d="M860.86,-520.96C857.47,-525.68 848.35,-529 833.5,-529 809.14,-529 800.19,-520.06 806.66,-510.66"/>
<polygon fill="midnightblue" stroke="midnightblue" points="864.34,-520.47 860.34,-510.66 857.35,-520.82 864.34,-520.47"/>
</g>
<!-- Node5 -->
<g id="node5" class="node">
<title>Node5</title>
<g id="a_node5"><a xlink:href="backend_8hpp_abe831501c00abf39b0519eef6789933f.html#abe831501c00abf39b0519eef6789933f" target="_top" xlink:title="atomic swap operation on a global address">
<polygon fill="white" stroke="black" points="602.5,-531.5 602.5,-561.5 727.5,-561.5 727.5,-531.5 602.5,-531.5"/>
<text text-anchor="start" x="610.5" y="-549.5" font-family="Helvetica,sans-Serif" font-size="10.00">argo::backend::atomic</text>
<text text-anchor="middle" x="665" y="-538.5" font-family="Helvetica,sans-Serif" font-size="10.00">::exchange</text>
</a>
</g>
</g>
<!-- Node4&#45;&gt;Node5 -->
<g id="edge7" class="edge">
<title>Node4&#45;&gt;Node5</title>
<path fill="none" stroke="midnightblue" d="M773.88,-513.46C754.63,-519.35 733.45,-525.84 714.99,-531.49"/>
<polygon fill="midnightblue" stroke="midnightblue" points="774.91,-516.8 783.45,-510.53 772.86,-510.11 774.91,-516.8"/>
</g>
<!-- Node5&#45;&gt;Node5 -->
<g id="edge8" class="edge">
<title>Node5&#45;&gt;Node5</title>
<path fill="none" stroke="midnightblue" d="M694.85,-571.96C691.15,-576.68 681.2,-580 665,-580 638.42,-580 628.66,-571.06 635.72,-561.66"/>
<polygon fill="midnightblue" stroke="midnightblue" points="698.33,-571.45 694.28,-561.66 691.34,-571.84 698.33,-571.45"/>
</g>
<!-- Node6&#45;&gt;Node6 -->
<g id="edge10" class="edge">
<title>Node6&#45;&gt;Node6</title>
<path fill="none" stroke="midnightblue" d="M860.86,-403.96C857.47,-408.68 848.35,-412 833.5,-412 809.14,-412 800.19,-403.06 806.66,-393.66"/>
<polygon fill="midnightblue" stroke="midnightblue" points="864.34,-403.47 860.34,-393.66 857.35,-403.82 864.34,-403.47"/>
</g>
<!-- Node7 -->
<g id="node7" class="node">
<title>Node7</title>
<g id="a_node7"><a xlink:href="backend_8hpp_a62d5f2da9f560d2d8a956be88861af7b.html#a62d5f2da9f560d2d8a956be88861af7b" target="_top" xlink:title="Backend internal type erased atomic (post)increment function for floating point numbers.">
<polygon fill="white" stroke="black" points="602.5,-464.5 602.5,-494.5 727.5,-494.5 727.5,-464.5 602.5,-464.5"/>
<text text-anchor="start" x="610.5" y="-482.5" font-family="Helvetica,sans-Serif" font-size="10.00">argo::backend::atomic</text>
<text text-anchor="middle" x="665" y="-471.5" font-family="Helvetica,sans-Serif" font-size="10.00">::_fetch_add_float</text>
</a>
</g>
</g>
<!-- Node6&#45;&gt;Node7 -->
<g id="edge11" class="edge">
<title>Node6&#45;&gt;Node7</title>
<path fill="none" stroke="midnightblue" d="M809.31,-400.5C790.49,-417.4 762.64,-440.35 735,-455.5 728.99,-458.79 722.45,-461.76 715.87,-464.4"/>
<polygon fill="midnightblue" stroke="midnightblue" points="811.77,-403 816.79,-393.67 807.05,-397.83 811.77,-403"/>
</g>
<!-- Node9 -->
<g id="node9" class="node">
<title>Node9</title>
<g id="a_node9"><a xlink:href="backend_8hpp_a42d4f07adf3b439564928f89022b74b5.html#a42d4f07adf3b439564928f89022b74b5" target="_top" xlink:title="Backend internal type erased atomic (post)increment function for signed integers.">
<polygon fill="white" stroke="black" points="602.5,-397.5 602.5,-427.5 727.5,-427.5 727.5,-397.5 602.5,-397.5"/>
<text text-anchor="start" x="610.5" y="-415.5" font-family="Helvetica,sans-Serif" font-size="10.00">argo::backend::atomic</text>
<text text-anchor="middle" x="665" y="-404.5" font-family="Helvetica,sans-Serif" font-size="10.00">::_fetch_add_int</text>
</a>
</g>
</g>
<!-- Node6&#45;&gt;Node9 -->
<g id="edge15" class="edge">
<title>Node6&#45;&gt;Node9</title>
<path fill="none" stroke="midnightblue" d="M760.88,-393.12C749.78,-395.39 738.4,-397.72 727.55,-399.93"/>
<polygon fill="midnightblue" stroke="midnightblue" points="761.88,-396.49 770.97,-391.06 760.48,-389.64 761.88,-396.49"/>
</g>
<!-- Node10 -->
<g id="node10" class="node">
<title>Node10</title>
<g id="a_node10"><a xlink:href="backend_8hpp_ab1a86cdd5235a54afdf0ac3d9f9f6f9c.html#ab1a86cdd5235a54afdf0ac3d9f9f6f9c" target="_top" xlink:title="Backend internal type erased atomic (post)increment function for unsigned integers.">
<polygon fill="white" stroke="black" points="602.5,-330.5 602.5,-360.5 727.5,-360.5 727.5,-330.5 602.5,-330.5"/>
<text text-anchor="start" x="610.5" y="-348.5" font-family="Helvetica,sans-Serif" font-size="10.00">argo::backend::atomic</text>
<text text-anchor="middle" x="665" y="-337.5" font-family="Helvetica,sans-Serif" font-size="10.00">::_fetch_add_uint</text>
</a>
</g>
</g>
<!-- Node6&#45;&gt;Node10 -->
<g id="edge18" class="edge">
<title>Node6&#45;&gt;Node10</title>
<path fill="none" stroke="midnightblue" d="M760.88,-364.31C749.78,-362.11 738.4,-359.85 727.55,-357.7"/>
<polygon fill="midnightblue" stroke="midnightblue" points="760.48,-367.79 770.97,-366.31 761.85,-360.93 760.48,-367.79"/>
</g>
<!-- Node7&#45;&gt;Node7 -->
<g id="edge12" class="edge">
<title>Node7&#45;&gt;Node7</title>
<path fill="none" stroke="midnightblue" d="M694.85,-504.96C691.15,-509.68 681.2,-513 665,-513 638.42,-513 628.66,-504.06 635.72,-494.66"/>
<polygon fill="midnightblue" stroke="midnightblue" points="698.33,-504.45 694.28,-494.66 691.34,-504.84 698.33,-504.45"/>
</g>
<!-- Node8 -->
<g id="node8" class="node">
<title>Node8</title>
<g id="a_node8"><a xlink:href="backend_8hpp_afd1987dffd4e9100c88c457234f64a52.html#afd1987dffd4e9100c88c457234f64a52" target="_top" xlink:title="Atomic fetch and add operation on a global address.">
<polygon fill="white" stroke="black" points="429,-397.5 429,-427.5 554,-427.5 554,-397.5 429,-397.5"/>
<text text-anchor="start" x="437" y="-415.5" font-family="Helvetica,sans-Serif" font-size="10.00">argo::backend::atomic</text>
<text text-anchor="middle" x="491.5" y="-404.5" font-family="Helvetica,sans-Serif" font-size="10.00">::fetch_add</text>
</a>
</g>
</g>
<!-- Node7&#45;&gt;Node8 -->
<g id="edge13" class="edge">
<title>Node7&#45;&gt;Node8</title>
<path fill="none" stroke="midnightblue" d="M609.73,-460.98C604.73,-459.17 599.76,-457.33 595,-455.5 572.12,-446.73 546.71,-436.08 526.92,-427.57"/>
<polygon fill="midnightblue" stroke="midnightblue" points="608.72,-464.34 619.31,-464.41 611.08,-457.75 608.72,-464.34"/>
</g>
<!-- Node8&#45;&gt;Node8 -->
<g id="edge14" class="edge">
<title>Node8&#45;&gt;Node8</title>
<path fill="none" stroke="midnightblue" d="M519.57,-437.96C516.09,-442.68 506.73,-446 491.5,-446 466.5,-446 457.33,-437.06 463.97,-427.66"/>
<polygon fill="midnightblue" stroke="midnightblue" points="523.05,-437.46 519.03,-427.66 516.06,-437.83 523.05,-437.46"/>
</g>
<!-- Node9&#45;&gt;Node8 -->
<g id="edge17" class="edge">
<title>Node9&#45;&gt;Node8</title>
<path fill="none" stroke="midnightblue" d="M592.06,-412.5C579.41,-412.5 566.36,-412.5 554.04,-412.5"/>
<polygon fill="midnightblue" stroke="midnightblue" points="592.08,-416 602.08,-412.5 592.08,-409 592.08,-416"/>
</g>
<!-- Node9&#45;&gt;Node9 -->
<g id="edge16" class="edge">
<title>Node9&#45;&gt;Node9</title>
<path fill="none" stroke="midnightblue" d="M694.85,-437.96C691.15,-442.68 681.2,-446 665,-446 638.42,-446 628.66,-437.06 635.72,-427.66"/>
<polygon fill="midnightblue" stroke="midnightblue" points="698.33,-437.45 694.28,-427.66 691.34,-437.84 698.33,-437.45"/>
</g>
<!-- Node10&#45;&gt;Node8 -->
<g id="edge20" class="edge">
<title>Node10&#45;&gt;Node8</title>
<path fill="none" stroke="midnightblue" d="M615.95,-364.27C589.17,-374.74 556.26,-387.59 531.16,-397.4"/>
<polygon fill="midnightblue" stroke="midnightblue" points="617.47,-367.44 625.51,-360.54 614.92,-360.91 617.47,-367.44"/>
</g>
<!-- Node10&#45;&gt;Node10 -->
<g id="edge19" class="edge">
<title>Node10&#45;&gt;Node10</title>
<path fill="none" stroke="midnightblue" d="M694.85,-370.96C691.15,-375.68 681.2,-379 665,-379 638.42,-379 628.66,-370.06 635.72,-360.66"/>
<polygon fill="midnightblue" stroke="midnightblue" points="698.33,-370.45 694.28,-360.66 691.34,-370.84 698.33,-370.45"/>
</g>
<!-- Node11&#45;&gt;Node11 -->
<g id="edge22" class="edge">
<title>Node11&#45;&gt;Node11</title>
<path fill="none" stroke="midnightblue" d="M860.86,-303.96C857.47,-308.68 848.35,-312 833.5,-312 809.14,-312 800.19,-303.06 806.66,-293.66"/>
<polygon fill="midnightblue" stroke="midnightblue" points="864.34,-303.47 860.34,-293.66 857.35,-303.82 864.34,-303.47"/>
</g>
<!-- Node12 -->
<g id="node12" class="node">
<title>Node12</title>
<g id="a_node12"><a xlink:href="backend_8hpp_abcb3b11cf70d5b8009edfabaa08def9d.html#abcb3b11cf70d5b8009edfabaa08def9d" target="_top" xlink:title="Atomic load operation on a global address.">
<polygon fill="white" stroke="black" points="602.5,-263.5 602.5,-293.5 727.5,-293.5 727.5,-263.5 602.5,-263.5"/>
<text text-anchor="start" x="610.5" y="-281.5" font-family="Helvetica,sans-Serif" font-size="10.00">argo::backend::atomic</text>
<text text-anchor="middle" x="665" y="-270.5" font-family="Helvetica,sans-Serif" font-size="10.00">::load</text>
</a>
</g>
</g>
<!-- Node11&#45;&gt;Node12 -->
<g id="edge23" class="edge">
<title>Node11&#45;&gt;Node12</title>
<path fill="none" stroke="midnightblue" d="M760.88,-278.5C749.78,-278.5 738.4,-278.5 727.55,-278.5"/>
<polygon fill="midnightblue" stroke="midnightblue" points="760.97,-282 770.97,-278.5 760.97,-275 760.97,-282"/>
</g>
<!-- Node12&#45;&gt;Node12 -->
<g id="edge24" class="edge">
<title>Node12&#45;&gt;Node12</title>
<path fill="none" stroke="midnightblue" d="M694.85,-303.96C691.15,-308.68 681.2,-312 665,-312 638.42,-312 628.66,-303.06 635.72,-293.66"/>
<polygon fill="midnightblue" stroke="midnightblue" points="698.33,-303.45 694.28,-293.66 691.34,-303.84 698.33,-303.45"/>
</g>
<!-- Node13&#45;&gt;Node13 -->
<g id="edge26" class="edge">
<title>Node13&#45;&gt;Node13</title>
<path fill="none" stroke="midnightblue" d="M860.86,-236.96C857.47,-241.68 848.35,-245 833.5,-245 809.14,-245 800.19,-236.06 806.66,-226.66"/>
<polygon fill="midnightblue" stroke="midnightblue" points="864.34,-236.47 860.34,-226.66 857.35,-236.82 864.34,-236.47"/>
</g>
<!-- Node14 -->
<g id="node14" class="node">
<title>Node14</title>
<g id="a_node14"><a xlink:href="backend_8hpp_a360aa0082e4b2bfe2f6c19d333ff56fa.html#a360aa0082e4b2bfe2f6c19d333ff56fa" target="_top" xlink:title="Atomic store operation on a global address.">
<polygon fill="white" stroke="black" points="602.5,-196.5 602.5,-226.5 727.5,-226.5 727.5,-196.5 602.5,-196.5"/>
<text text-anchor="start" x="610.5" y="-214.5" font-family="Helvetica,sans-Serif" font-size="10.00">argo::backend::atomic</text>
<text text-anchor="middle" x="665" y="-203.5" font-family="Helvetica,sans-Serif" font-size="10.00">::store</text>
</a>
</g>
</g>
<!-- Node13&#45;&gt;Node14 -->
<g id="edge27" class="edge">
<title>Node13&#45;&gt;Node14</title>
<path fill="none" stroke="midnightblue" d="M760.88,-211.5C749.78,-211.5 738.4,-211.5 727.55,-211.5"/>
<polygon fill="midnightblue" stroke="midnightblue" points="760.97,-215 770.97,-211.5 760.97,-208 760.97,-215"/>
</g>
<!-- Node14&#45;&gt;Node14 -->
<g id="edge28" class="edge">
<title>Node14&#45;&gt;Node14</title>
<path fill="none" stroke="midnightblue" d="M694.85,-236.96C691.15,-241.68 681.2,-245 665,-245 638.42,-245 628.66,-236.06 635.72,-226.66"/>
<polygon fill="midnightblue" stroke="midnightblue" points="698.33,-236.45 694.28,-226.66 691.34,-236.84 698.33,-236.45"/>
</g>
<!-- Node16 -->
<g id="node16" class="node">
<title>Node16</title>
<g id="a_node16"><a xlink:href="swdsm_8cpp_adb24c11067d42b9bc8515a78a524e2c7.html#adb24c11067d42b9bc8515a78a524e2c7" target="_top" xlink:title="Catches memory accesses to memory not yet cached in ArgoDSM. Launches remote requests for memory not ...">
<polygon fill="white" stroke="black" points="465,-158 465,-177 518,-177 518,-158 465,-158"/>
<text text-anchor="middle" x="491.5" y="-165" font-family="Helvetica,sans-Serif" font-size="10.00">handler</text>
</a>
</g>
</g>
<!-- Node15&#45;&gt;Node16 -->
<g id="edge30" class="edge">
<title>Node15&#45;&gt;Node16</title>
<path fill="none" stroke="midnightblue" d="M603.75,-167.5C574.37,-167.5 540.6,-167.5 518.05,-167.5"/>
<polygon fill="midnightblue" stroke="midnightblue" points="603.93,-171 613.93,-167.5 603.93,-164 603.93,-171"/>
</g>
<!-- Node17 -->
<g id="node17" class="node">
<title>Node17</title>
<g id="a_node17"><a xlink:href="swdsm_8cpp_a31ba60e8ddccfa922da8d7e6a10f7b1d.html#a31ba60e8ddccfa922da8d7e6a10f7b1d" target="_top" xlink:title="Initializes ArgoDSM runtime.">
<polygon fill="white" stroke="black" points="290,-158 290,-177 376,-177 376,-158 290,-158"/>
<text text-anchor="middle" x="333" y="-165" font-family="Helvetica,sans-Serif" font-size="10.00">argo_initialize</text>
</a>
</g>
</g>
<!-- Node16&#45;&gt;Node17 -->
<g id="edge31" class="edge">
<title>Node16&#45;&gt;Node17</title>
<path fill="none" stroke="midnightblue" d="M454.48,-167.5C431.12,-167.5 400.59,-167.5 376.11,-167.5"/>
<polygon fill="midnightblue" stroke="midnightblue" points="454.66,-171 464.66,-167.5 454.66,-164 454.66,-171"/>
</g>
<!-- Node18 -->
<g id="node18" class="node">
<title>Node18</title>
<g id="a_node18"><a xlink:href="backend_8hpp_aab3cabb3e1c0b9696b339416b684f78c.html#aab3cabb3e1c0b9696b339416b684f78c" target="_top" xlink:title="initialize backend">
<polygon fill="white" stroke="black" points="135,-158 135,-177 242,-177 242,-158 135,-158"/>
<text text-anchor="middle" x="188.5" y="-165" font-family="Helvetica,sans-Serif" font-size="10.00">argo::backend::init</text>
</a>
</g>
</g>
<!-- Node17&#45;&gt;Node18 -->
<g id="edge32" class="edge">
<title>Node17&#45;&gt;Node18</title>
<path fill="none" stroke="midnightblue" d="M279.57,-167.5C267.34,-167.5 254.3,-167.5 242.06,-167.5"/>
<polygon fill="midnightblue" stroke="midnightblue" points="279.63,-171 289.63,-167.5 279.63,-164 279.63,-171"/>
</g>
<!-- Node19&#45;&gt;Node15 -->
<g id="edge38" class="edge">
<title>Node19&#45;&gt;Node15</title>
<path fill="none" stroke="midnightblue" d="M794.05,-130.11C776.15,-135.88 754.54,-142.71 735,-148.5 724.28,-151.68 712.57,-154.97 701.89,-157.9"/>
<polygon fill="midnightblue" stroke="midnightblue" points="795.14,-133.43 803.58,-127.02 792.99,-126.77 795.14,-133.43"/>
</g>
<!-- Node20 -->
<g id="node20" class="node">
<title>Node20</title>
<g id="a_node20"><a xlink:href="backend_8hpp_ac3350bde3c8baf64753e515336fad3be.html#ac3350bde3c8baf64753e515336fad3be" target="_top" xlink:title="backend internal type erased function for selective release">
<polygon fill="white" stroke="black" points="595,-90.5 595,-120.5 735,-120.5 735,-90.5 595,-90.5"/>
<text text-anchor="start" x="603" y="-108.5" font-family="Helvetica,sans-Serif" font-size="10.00">argo::backend::_selective</text>
<text text-anchor="middle" x="665" y="-97.5" font-family="Helvetica,sans-Serif" font-size="10.00">_release</text>
</a>
</g>
</g>
<!-- Node19&#45;&gt;Node20 -->
<g id="edge34" class="edge">
<title>Node19&#45;&gt;Node20</title>
<path fill="none" stroke="midnightblue" d="M778.84,-113.63C764.95,-112.63 749.79,-111.54 735.22,-110.49"/>
<polygon fill="midnightblue" stroke="midnightblue" points="778.96,-117.15 789.19,-114.38 779.47,-110.17 778.96,-117.15"/>
</g>
<!-- Node22 -->
<g id="node22" class="node">
<title>Node22</title>
<g id="a_node22"><a xlink:href="classwrite__buffer_a066de0a724f3f13272780ad7ca8e6502.html#a066de0a724f3f13272780ad7ca8e6502" target="_top" xlink:title="Perform writeback of a single cached page.">
<polygon fill="white" stroke="black" points="612,-41.5 612,-71.5 718,-71.5 718,-41.5 612,-41.5"/>
<text text-anchor="start" x="620" y="-59.5" font-family="Helvetica,sans-Serif" font-size="10.00">write_buffer::write</text>
<text text-anchor="middle" x="665" y="-48.5" font-family="Helvetica,sans-Serif" font-size="10.00">_back_index</text>
</a>
</g>
</g>
<!-- Node19&#45;&gt;Node22 -->
<g id="edge39" class="edge">
<title>Node19&#45;&gt;Node22</title>
<path fill="none" stroke="midnightblue" d="M797.35,-104.46C778.81,-97.6 755.68,-89.07 735,-81.5 726.15,-78.26 716.64,-74.81 707.61,-71.53"/>
<polygon fill="midnightblue" stroke="midnightblue" points="796.26,-107.79 806.86,-107.98 798.69,-101.23 796.26,-107.79"/>
</g>
<!-- Node20&#45;&gt;Node20 -->
<g id="edge35" class="edge">
<title>Node20&#45;&gt;Node20</title>
<path fill="none" stroke="midnightblue" d="M694.85,-130.96C691.15,-135.68 681.2,-139 665,-139 638.42,-139 628.66,-130.06 635.72,-120.66"/>
<polygon fill="midnightblue" stroke="midnightblue" points="698.33,-130.45 694.28,-120.66 691.34,-130.84 698.33,-130.45"/>
</g>
<!-- Node21 -->
<g id="node21" class="node">
<title>Node21</title>
<g id="a_node21"><a xlink:href="backend_8hpp_a37c88e1409650776ddb3a33d7f2744cb.html#a37c88e1409650776ddb3a33d7f2744cb" target="_top" xlink:title="causes a node to self&#45;downgrade specified pages from its cache, making all previous writes to be prop...">
<polygon fill="white" stroke="black" points="424,-90.5 424,-120.5 559,-120.5 559,-90.5 424,-90.5"/>
<text text-anchor="start" x="432" y="-108.5" font-family="Helvetica,sans-Serif" font-size="10.00">argo::backend::selective</text>
<text text-anchor="middle" x="491.5" y="-97.5" font-family="Helvetica,sans-Serif" font-size="10.00">_release</text>
</a>
</g>
</g>
<!-- Node20&#45;&gt;Node21 -->
<g id="edge36" class="edge">
<title>Node20&#45;&gt;Node21</title>
<path fill="none" stroke="midnightblue" d="M584.5,-105.5C576.05,-105.5 567.52,-105.5 559.24,-105.5"/>
<polygon fill="midnightblue" stroke="midnightblue" points="584.74,-109 594.74,-105.5 584.74,-102 584.74,-109"/>
</g>
<!-- Node21&#45;&gt;Node21 -->
<g id="edge37" class="edge">
<title>Node21&#45;&gt;Node21</title>
<path fill="none" stroke="midnightblue" d="M519.57,-130.96C516.09,-135.68 506.73,-139 491.5,-139 466.5,-139 457.33,-130.06 463.97,-120.66"/>
<polygon fill="midnightblue" stroke="midnightblue" points="523.05,-130.46 519.03,-120.66 516.06,-130.83 523.05,-130.46"/>
</g>
<!-- Node23 -->
<g id="node23" class="node">
<title>Node23</title>
<g id="a_node23"><a xlink:href="classwrite__buffer_ad01396b3a57acdae3d76a31ae6253f48.html#ad01396b3a57acdae3d76a31ae6253f48" target="_top" xlink:title="Internal implementation of flush.">
<polygon fill="white" stroke="black" points="436.5,-50 436.5,-69 546.5,-69 546.5,-50 436.5,-50"/>
<text text-anchor="middle" x="491.5" y="-57" font-family="Helvetica,sans-Serif" font-size="10.00">write_buffer::_flush</text>
</a>
</g>
</g>
<!-- Node22&#45;&gt;Node23 -->
<g id="edge40" class="edge">
<title>Node22&#45;&gt;Node23</title>
<path fill="none" stroke="midnightblue" d="M601.51,-57.59C583.53,-57.91 564.07,-58.25 546.64,-58.55"/>
<polygon fill="midnightblue" stroke="midnightblue" points="601.68,-61.09 611.61,-57.42 601.55,-54.09 601.68,-61.09"/>
</g>
<!-- Node26 -->
<g id="node26" class="node">
<title>Node26</title>
<g id="a_node26"><a xlink:href="classwrite__buffer_aa6a1c2c3aa3a7cde744bbca3b14f599a.html#aa6a1c2c3aa3a7cde744bbca3b14f599a" target="_top" xlink:title="Flushes first _write_back_size elements of the ArgoDSM write buffer to memory.">
<polygon fill="white" stroke="black" points="439.5,-0.5 439.5,-30.5 543.5,-30.5 543.5,-0.5 439.5,-0.5"/>
<text text-anchor="start" x="447.5" y="-18.5" font-family="Helvetica,sans-Serif" font-size="10.00">write_buffer::flush</text>
<text text-anchor="middle" x="491.5" y="-7.5" font-family="Helvetica,sans-Serif" font-size="10.00">_partial</text>
</a>
</g>
</g>
<!-- Node22&#45;&gt;Node26 -->
<g id="edge43" class="edge">
<title>Node22&#45;&gt;Node26</title>
<path fill="none" stroke="midnightblue" d="M601.81,-41.63C582.72,-37.07 561.95,-32.1 543.68,-27.74"/>
<polygon fill="midnightblue" stroke="midnightblue" points="601.07,-45.05 611.61,-43.98 602.7,-38.25 601.07,-45.05"/>
</g>
<!-- Node24 -->
<g id="node24" class="node">
<title>Node24</title>
<g id="a_node24"><a xlink:href="classwrite__buffer_adbf59cdee2664f9db4a5e0dfd4f273ef.html#adbf59cdee2664f9db4a5e0dfd4f273ef" target="_top" xlink:title="Helper function to call _flush.">
<polygon fill="white" stroke="black" points="278,-44.5 278,-74.5 388,-74.5 388,-44.5 278,-44.5"/>
<text text-anchor="start" x="286" y="-62.5" font-family="Helvetica,sans-Serif" font-size="10.00">write_buffer::_flush</text>
<text text-anchor="middle" x="333" y="-51.5" font-family="Helvetica,sans-Serif" font-size="10.00">_helper</text>
</a>
</g>
</g>
<!-- Node23&#45;&gt;Node24 -->
<g id="edge41" class="edge">
<title>Node23&#45;&gt;Node24</title>
<path fill="none" stroke="midnightblue" d="M425.84,-59.5C413.32,-59.5 400.34,-59.5 388.2,-59.5"/>
<polygon fill="midnightblue" stroke="midnightblue" points="426.2,-63 436.2,-59.5 426.2,-56 426.2,-63"/>
</g>
<!-- Node25 -->
<g id="node25" class="node">
<title>Node25</title>
<g id="a_node25"><a xlink:href="classwrite__buffer_aca2e330e17a38c1cc8d8c60701ce9dd7.html#aca2e330e17a38c1cc8d8c60701ce9dd7" target="_top" xlink:title="Flushes the ArgoDSM write buffer to memory.">
<polygon fill="white" stroke="black" points="136.5,-50 136.5,-69 240.5,-69 240.5,-50 136.5,-50"/>
<text text-anchor="middle" x="188.5" y="-57" font-family="Helvetica,sans-Serif" font-size="10.00">write_buffer::flush</text>
</a>
</g>
</g>
<!-- Node24&#45;&gt;Node25 -->
<g id="edge42" class="edge">
<title>Node24&#45;&gt;Node25</title>
<path fill="none" stroke="midnightblue" d="M267.66,-59.5C258.66,-59.5 249.52,-59.5 240.81,-59.5"/>
<polygon fill="midnightblue" stroke="midnightblue" points="267.72,-63 277.72,-59.5 267.72,-56 267.72,-63"/>
</g>
<!-- Node27 -->
<g id="node27" class="node">
<title>Node27</title>
<g id="a_node27"><a xlink:href="classwrite__buffer_a327be1f65770b56442b1e8ee967be23d.html#a327be1f65770b56442b1e8ee967be23d" target="_top" xlink:title="Internal function to add an element to the write buffer.">
<polygon fill="white" stroke="black" points="281,-6 281,-25 385,-25 385,-6 281,-6"/>
<text text-anchor="middle" x="333" y="-13" font-family="Helvetica,sans-Serif" font-size="10.00">write_buffer::_add</text>
</a>
</g>
</g>
<!-- Node26&#45;&gt;Node27 -->
<g id="edge44" class="edge">
<title>Node26&#45;&gt;Node27</title>
<path fill="none" stroke="midnightblue" d="M428.87,-15.5C414.37,-15.5 399.07,-15.5 385.09,-15.5"/>
<polygon fill="midnightblue" stroke="midnightblue" points="429.26,-19 439.26,-15.5 429.26,-12 429.26,-19"/>
</g>
<!-- Node28 -->
<g id="node28" class="node">
<title>Node28</title>
<g id="a_node28"><a xlink:href="classwrite__buffer_ab5f16d0de074372b34cc4ebba9c58550.html#ab5f16d0de074372b34cc4ebba9c58550" target="_top" xlink:title="Helper function to call _add.">
<polygon fill="white" stroke="black" points="136.5,-0.5 136.5,-30.5 240.5,-30.5 240.5,-0.5 136.5,-0.5"/>
<text text-anchor="start" x="144.5" y="-18.5" font-family="Helvetica,sans-Serif" font-size="10.00">write_buffer::_add</text>
<text text-anchor="middle" x="188.5" y="-7.5" font-family="Helvetica,sans-Serif" font-size="10.00">_helper</text>
</a>
</g>
</g>
<!-- Node27&#45;&gt;Node28 -->
<g id="edge45" class="edge">
<title>Node27&#45;&gt;Node28</title>
<path fill="none" stroke="midnightblue" d="M270.66,-15.5C260.66,-15.5 250.39,-15.5 240.67,-15.5"/>
<polygon fill="midnightblue" stroke="midnightblue" points="270.96,-19 280.96,-15.5 270.96,-12 270.96,-19"/>
</g>
<!-- Node29 -->
<g id="node29" class="node">
<title>Node29</title>
<g id="a_node29"><a xlink:href="classwrite__buffer_a23b0dbc463111cacbbf83b267e76ac9f.html#a23b0dbc463111cacbbf83b267e76ac9f" target="_top" xlink:title="Adds a new element to the write buffer.">
<polygon fill="white" stroke="black" points="0,-6 0,-25 99,-25 99,-6 0,-6"/>
<text text-anchor="middle" x="49.5" y="-13" font-family="Helvetica,sans-Serif" font-size="10.00">write_buffer::add</text>
</a>
</g>
</g>
<!-- Node28&#45;&gt;Node29 -->
<g id="edge46" class="edge">
<title>Node28&#45;&gt;Node29</title>
<path fill="none" stroke="midnightblue" d="M126.36,-15.5C117.29,-15.5 108.05,-15.5 99.28,-15.5"/>
<polygon fill="midnightblue" stroke="midnightblue" points="126.49,-19 136.49,-15.5 126.49,-12 126.49,-19"/>
</g>
</g>
</svg>
