<?xml version="1.0" encoding="UTF-8" standalone="no"?>
<!DOCTYPE svg PUBLIC "-//W3C//DTD SVG 1.1//EN"
 "http://www.w3.org/Graphics/SVG/1.1/DTD/svg11.dtd">
<!-- Generated by graphviz version 2.43.0 (0)
 -->
<!-- Title: /home/projectcs&#45;2022/argodsmBuffer/argodsmPrefetching/src/backend/mpi/swdsm.h Pages: 1 -->
<svg width="834pt" height="128pt"
 viewBox="0.00 0.00 834.00 128.00" xmlns="http://www.w3.org/2000/svg" xmlns:xlink="http://www.w3.org/1999/xlink">
<g id="graph0" class="graph" transform="scale(1 1) rotate(0) translate(4 124)">
<title>/home/projectcs&#45;2022/argodsmBuffer/argodsmPrefetching/src/backend/mpi/swdsm.h</title>
<polygon fill="white" stroke="transparent" points="-4,4 -4,-124 830,-124 830,4 -4,4"/>
<!-- Node1 -->
<g id="node1" class="node">
<title>Node1</title>
<g id="a_node1"><a xlink:title="this is a legacy file from the ArgoDSM prototype">
<polygon fill="#bfbfbf" stroke="black" points="422,-78.5 422,-119.5 615,-119.5 615,-78.5 422,-78.5"/>
<text text-anchor="start" x="430" y="-107.5" font-family="Helvetica,sans-Serif" font-size="10.00">/home/projectcs&#45;2022</text>
<text text-anchor="start" x="430" y="-96.5" font-family="Helvetica,sans-Serif" font-size="10.00">/argodsmBuffer/argodsmPrefetching</text>
<text text-anchor="middle" x="518.5" y="-85.5" font-family="Helvetica,sans-Serif" font-size="10.00">/src/backend/mpi/swdsm.h</text>
</a>
</g>
</g>
<!-- Node2 -->
<g id="node2" class="node">
<title>Node2</title>
<g id="a_node2"><a xlink:href="coherence_8cpp.html" target="_top" xlink:title="This file implements selective coherence mechanisms for ArgoDSM.">
<polygon fill="white" stroke="black" points="0,-0.5 0,-41.5 193,-41.5 193,-0.5 0,-0.5"/>
<text text-anchor="start" x="8" y="-29.5" font-family="Helvetica,sans-Serif" font-size="10.00">/home/projectcs&#45;2022</text>
<text text-anchor="start" x="8" y="-18.5" font-family="Helvetica,sans-Serif" font-size="10.00">/argodsmBuffer/argodsmPrefetching</text>
<text text-anchor="middle" x="96.5" y="-7.5" font-family="Helvetica,sans-Serif" font-size="10.00">/src/backend/mpi/coherence.cpp</text>
</a>
</g>
</g>
<!-- Node1&#45;&gt;Node2 -->
<g id="edge1" class="edge">
<title>Node1&#45;&gt;Node2</title>
<path fill="none" stroke="midnightblue" d="M411.57,-79.48C350.08,-68.73 271.4,-54.83 201.5,-42 198.76,-41.5 195.98,-40.99 193.18,-40.47"/>
<polygon fill="midnightblue" stroke="midnightblue" points="411.22,-82.97 421.67,-81.24 412.42,-76.07 411.22,-82.97"/>
</g>
<!-- Node3 -->
<g id="node3" class="node">
<title>Node3</title>
<g id="a_node3"><a xlink:href="mpi_8cpp.html" target="_top" xlink:title="MPI backend implementation.">
<polygon fill="white" stroke="black" points="211,-0.5 211,-41.5 404,-41.5 404,-0.5 211,-0.5"/>
<text text-anchor="start" x="219" y="-29.5" font-family="Helvetica,sans-Serif" font-size="10.00">/home/projectcs&#45;2022</text>
<text text-anchor="start" x="219" y="-18.5" font-family="Helvetica,sans-Serif" font-size="10.00">/argodsmBuffer/argodsmPrefetching</text>
<text text-anchor="middle" x="307.5" y="-7.5" font-family="Helvetica,sans-Serif" font-size="10.00">/src/backend/mpi/mpi.cpp</text>
</a>
</g>
</g>
<!-- Node1&#45;&gt;Node3 -->
<g id="edge2" class="edge">
<title>Node1&#45;&gt;Node3</title>
<path fill="none" stroke="midnightblue" d="M454.72,-75.03C425.01,-64.33 390.05,-51.73 361.65,-41.51"/>
<polygon fill="midnightblue" stroke="midnightblue" points="453.57,-78.33 464.16,-78.43 455.94,-71.75 453.57,-78.33"/>
</g>
<!-- Node4 -->
<g id="node4" class="node">
<title>Node4</title>
<g id="a_node4"><a xlink:href="swdsm_8cpp.html" target="_top" xlink:title="This file implements the MPI&#45;backend of ArgoDSM.">
<polygon fill="white" stroke="black" points="422,-0.5 422,-41.5 615,-41.5 615,-0.5 422,-0.5"/>
<text text-anchor="start" x="430" y="-29.5" font-family="Helvetica,sans-Serif" font-size="10.00">/home/projectcs&#45;2022</text>
<text text-anchor="start" x="430" y="-18.5" font-family="Helvetica,sans-Serif" font-size="10.00">/argodsmBuffer/argodsmPrefetching</text>
<text text-anchor="middle" x="518.5" y="-7.5" font-family="Helvetica,sans-Serif" font-size="10.00">/src/backend/mpi/swdsm.cpp</text>
</a>
</g>
</g>
<!-- Node1&#45;&gt;Node4 -->
<g id="edge3" class="edge">
<title>Node1&#45;&gt;Node4</title>
<path fill="none" stroke="midnightblue" d="M518.5,-68.3C518.5,-59.3 518.5,-49.65 518.5,-41.51"/>
<polygon fill="midnightblue" stroke="midnightblue" points="515,-68.43 518.5,-78.43 522,-68.43 515,-68.43"/>
</g>
<!-- Node5 -->
<g id="node5" class="node">
<title>Node5</title>
<g id="a_node5"><a xlink:href="write__buffer_8hpp.html" target="_top" xlink:title="This file provides an interface for the ArgoDSM write buffer.">
<polygon fill="white" stroke="black" points="633,-0.5 633,-41.5 826,-41.5 826,-0.5 633,-0.5"/>
<text text-anchor="start" x="641" y="-29.5" font-family="Helvetica,sans-Serif" font-size="10.00">/home/projectcs&#45;2022</text>
<text text-anchor="start" x="641" y="-18.5" font-family="Helvetica,sans-Serif" font-size="10.00">/argodsmBuffer/argodsmPrefetching</text>
<text text-anchor="middle" x="729.5" y="-7.5" font-family="Helvetica,sans-Serif" font-size="10.00">/src/backend/mpi/write_buffer.hpp</text>
</a>
</g>
</g>
<!-- Node1&#45;&gt;Node5 -->
<g id="edge4" class="edge">
<title>Node1&#45;&gt;Node5</title>
<path fill="none" stroke="midnightblue" d="M576.4,-74.89C605.29,-64.22 640.17,-51.69 669.36,-41.51"/>
<polygon fill="midnightblue" stroke="midnightblue" points="575.01,-71.67 566.85,-78.43 577.44,-78.23 575.01,-71.67"/>
</g>
<!-- Node5&#45;&gt;Node1 -->
<g id="edge5" class="edge">
<title>Node5&#45;&gt;Node1</title>
<path fill="none" stroke="midnightblue" d="M671.79,-45.04C642.92,-55.7 608.04,-68.23 578.83,-78.43"/>
<polygon fill="midnightblue" stroke="midnightblue" points="673.17,-48.26 681.33,-41.51 670.74,-41.7 673.17,-48.26"/>
</g>
</g>
</svg>
