<?xml version="1.0" encoding="UTF-8" standalone="no"?>
<!DOCTYPE svg PUBLIC "-//W3C//DTD SVG 1.1//EN"
 "http://www.w3.org/Graphics/SVG/1.1/DTD/svg11.dtd">
<!-- Generated by graphviz version 2.43.0 (0)
 -->
<!-- Title: get_homenode Pages: 1 -->
<!--zoomable 205 -->
<svg id="main" version="1.1" xmlns="http://www.w3.org/2000/svg" xmlns:xlink="http://www.w3.org/1999/xlink" xml:space="preserve" onload="init(evt)">
<style type="text/css"><![CDATA[
.edge:hover path { stroke: red; }
.edge:hover polygon { stroke: red; fill: red; }
]]></style>
<script type="text/javascript"><![CDATA[
var edges = document.getElementsByTagName('g');
if (edges && edges.length) {
  for (var i=0;i<edges.length;i++) {
    if (edges[i].id.substr(0,4)=='edge') {
      edges[i].setAttribute('class','edge');
    }
  }
}
]]></script>
        <defs>
                <circle id="rim" cx="0" cy="0" r="7"/>
                <circle id="rim2" cx="0" cy="0" r="3.5"/>
                <g id="zoomPlus">
                        <use xlink:href="#rim" fill="#404040">
                                <set attributeName="fill" to="#808080" begin="zoomplus.mouseover" end="zoomplus.mouseout"/>
                        </use>
                        <path d="M-4,0h8M0,-4v8" fill="none" stroke="white" stroke-width="1.5" pointer-events="none"/>
                </g>
                <g id="zoomMin">
                        <use xlink:href="#rim" fill="#404040">
                                <set attributeName="fill" to="#808080" begin="zoomminus.mouseover" end="zoomminus.mouseout"/>
                        </use>
                        <path d="M-4,0h8" fill="none" stroke="white" stroke-width="1.5" pointer-events="none"/>
                </g>
                <g id="dirArrow">
                        <path fill="none" stroke="white" stroke-width="1.5" d="M0,-3.0v7 M-2.5,-0.5L0,-3.0L2.5,-0.5"/>
                </g>
               <g id="resetDef">
                       <use xlink:href="#rim2" fill="#404040">
                               <set attributeName="fill" to="#808080" begin="reset.mouseover" end="reset.mouseout"/>
                       </use>
               </g>
        </defs>

<script type="text/javascript">
var viewWidth = 992;
var viewHeight = 205;
var sectionId = 'dynsection-1';
</script>
<script xlink:href="svgpan.js"/>
<svg id="graph" class="graph">
<g id="viewport">
<title>get_homenode</title>
<polygon fill="white" stroke="transparent" points="-4,4 -4,-200.5 988,-200.5 988,4 -4,4"/>
<!-- Node1 -->
<g id="node1" class="node">
<title>Node1</title>
<g id="a_node1"><a xlink:title="Gives homenode for a given address.">
<polygon fill="#bfbfbf" stroke="black" points="895,-158 895,-177 984,-177 984,-158 895,-158"/>
<text text-anchor="middle" x="939.5" y="-165" font-family="Helvetica,sans-Serif" font-size="10.00">get_homenode</text>
</a>
</g>
</g>
<!-- Node2 -->
<g id="node2" class="node">
<title>Node2</title>
<g id="a_node2"><a xlink:href="swdsm_8cpp_adb24c11067d42b9bc8515a78a524e2c7.html#adb24c11067d42b9bc8515a78a524e2c7" target="_top" xlink:title="Catches memory accesses to memory not yet cached in ArgoDSM. Launches remote requests for memory not ...">
<polygon fill="white" stroke="black" points="465,-177 465,-196 518,-196 518,-177 465,-177"/>
<text text-anchor="middle" x="491.5" y="-184" font-family="Helvetica,sans-Serif" font-size="10.00">handler</text>
</a>
</g>
</g>
<!-- Node1&#45;&gt;Node2 -->
<g id="edge1" class="edge">
<title>Node1&#45;&gt;Node2</title>
<path fill="none" stroke="midnightblue" d="M884.92,-177.94C876.28,-179.34 867.41,-180.59 859,-181.5 731.83,-195.2 578.42,-190.47 518.37,-187.8"/>
<polygon fill="midnightblue" stroke="midnightblue" points="885.63,-181.37 894.91,-176.26 884.47,-174.47 885.63,-181.37"/>
</g>
<!-- Node5 -->
<g id="node5" class="node">
<title>Node5</title>
<g id="a_node5"><a xlink:href="swdsm_8cpp_a92a73a9ea2009afcbef38b3e88b9ac0f.html#a92a73a9ea2009afcbef38b3e88b9ac0f" target="_top" xlink:title="load into cache helper function">
<polygon fill="white" stroke="black" points="614,-158 614,-177 716,-177 716,-158 614,-158"/>
<text text-anchor="middle" x="665" y="-165" font-family="Helvetica,sans-Serif" font-size="10.00">load_cache_entry</text>
</a>
</g>
</g>
<!-- Node1&#45;&gt;Node5 -->
<g id="edge4" class="edge">
<title>Node1&#45;&gt;Node5</title>
<path fill="none" stroke="midnightblue" d="M884.63,-167.5C835.65,-167.5 763.93,-167.5 716.15,-167.5"/>
<polygon fill="midnightblue" stroke="midnightblue" points="884.72,-171 894.72,-167.5 884.72,-164 884.72,-171"/>
</g>
<!-- Node6 -->
<g id="node6" class="node">
<title>Node6</title>
<g id="a_node6"><a xlink:href="swdsm_8cpp_a3b6a6b2b244edb9faa79814ce8e5e9f5.html#a3b6a6b2b244edb9faa79814ce8e5e9f5" target="_top" xlink:title="stores a page remotely &#45; only writing back what has been written locally since last synchronization p...">
<polygon fill="white" stroke="black" points="771,-108 771,-127 859,-127 859,-108 771,-108"/>
<text text-anchor="middle" x="815" y="-115" font-family="Helvetica,sans-Serif" font-size="10.00">storepageDIFF</text>
</a>
</g>
</g>
<!-- Node1&#45;&gt;Node6 -->
<g id="edge6" class="edge">
<title>Node1&#45;&gt;Node6</title>
<path fill="none" stroke="midnightblue" d="M905.76,-154.13C884.93,-145.63 858.45,-134.83 839.66,-127.16"/>
<polygon fill="midnightblue" stroke="midnightblue" points="904.59,-157.44 915.17,-157.98 907.23,-150.96 904.59,-157.44"/>
</g>
<!-- Node3 -->
<g id="node3" class="node">
<title>Node3</title>
<g id="a_node3"><a xlink:href="swdsm_8cpp_a31ba60e8ddccfa922da8d7e6a10f7b1d.html#a31ba60e8ddccfa922da8d7e6a10f7b1d" target="_top" xlink:title="Initializes ArgoDSM runtime.">
<polygon fill="white" stroke="black" points="290,-177 290,-196 376,-196 376,-177 290,-177"/>
<text text-anchor="middle" x="333" y="-184" font-family="Helvetica,sans-Serif" font-size="10.00">argo_initialize</text>
</a>
</g>
</g>
<!-- Node2&#45;&gt;Node3 -->
<g id="edge2" class="edge">
<title>Node2&#45;&gt;Node3</title>
<path fill="none" stroke="midnightblue" d="M454.48,-186.5C431.12,-186.5 400.59,-186.5 376.11,-186.5"/>
<polygon fill="midnightblue" stroke="midnightblue" points="454.66,-190 464.66,-186.5 454.66,-183 454.66,-190"/>
</g>
<!-- Node4 -->
<g id="node4" class="node">
<title>Node4</title>
<g id="a_node4"><a xlink:href="backend_8hpp_aab3cabb3e1c0b9696b339416b684f78c.html#aab3cabb3e1c0b9696b339416b684f78c" target="_top" xlink:title="initialize backend">
<polygon fill="white" stroke="black" points="135,-177 135,-196 242,-196 242,-177 135,-177"/>
<text text-anchor="middle" x="188.5" y="-184" font-family="Helvetica,sans-Serif" font-size="10.00">argo::backend::init</text>
</a>
</g>
</g>
<!-- Node3&#45;&gt;Node4 -->
<g id="edge3" class="edge">
<title>Node3&#45;&gt;Node4</title>
<path fill="none" stroke="midnightblue" d="M279.57,-186.5C267.34,-186.5 254.3,-186.5 242.06,-186.5"/>
<polygon fill="midnightblue" stroke="midnightblue" points="279.63,-190 289.63,-186.5 279.63,-183 279.63,-190"/>
</g>
<!-- Node5&#45;&gt;Node2 -->
<g id="edge5" class="edge">
<title>Node5&#45;&gt;Node2</title>
<path fill="none" stroke="midnightblue" d="M603.75,-174.17C574.37,-177.43 540.6,-181.17 518.05,-183.67"/>
<polygon fill="midnightblue" stroke="midnightblue" points="604.38,-177.63 613.93,-173.05 603.61,-170.67 604.38,-177.63"/>
</g>
<!-- Node6&#45;&gt;Node5 -->
<g id="edge11" class="edge">
<title>Node6&#45;&gt;Node5</title>
<path fill="none" stroke="midnightblue" d="M782.04,-130.92C767.77,-136.69 750.67,-143.28 735,-148.5 724.86,-151.87 713.75,-155.13 703.46,-157.96"/>
<polygon fill="midnightblue" stroke="midnightblue" points="783.48,-134.12 791.42,-127.09 780.83,-127.64 783.48,-134.12"/>
</g>
<!-- Node7 -->
<g id="node7" class="node">
<title>Node7</title>
<g id="a_node7"><a xlink:href="backend_8hpp_ac3350bde3c8baf64753e515336fad3be.html#ac3350bde3c8baf64753e515336fad3be" target="_top" xlink:title="backend internal type erased function for selective release">
<polygon fill="white" stroke="black" points="595,-90.5 595,-120.5 735,-120.5 735,-90.5 595,-90.5"/>
<text text-anchor="start" x="603" y="-108.5" font-family="Helvetica,sans-Serif" font-size="10.00">argo::backend::_selective</text>
<text text-anchor="middle" x="665" y="-97.5" font-family="Helvetica,sans-Serif" font-size="10.00">_release</text>
</a>
</g>
</g>
<!-- Node6&#45;&gt;Node7 -->
<g id="edge7" class="edge">
<title>Node6&#45;&gt;Node7</title>
<path fill="none" stroke="midnightblue" d="M760.57,-113.17C752.32,-112.5 743.69,-111.8 735.16,-111.11"/>
<polygon fill="midnightblue" stroke="midnightblue" points="760.54,-116.68 770.79,-114 761.11,-109.7 760.54,-116.68"/>
</g>
<!-- Node9 -->
<g id="node9" class="node">
<title>Node9</title>
<g id="a_node9"><a xlink:href="classwrite__buffer_a066de0a724f3f13272780ad7ca8e6502.html#a066de0a724f3f13272780ad7ca8e6502" target="_top" xlink:title="Perform writeback of a single cached page.">
<polygon fill="white" stroke="black" points="612,-41.5 612,-71.5 718,-71.5 718,-41.5 612,-41.5"/>
<text text-anchor="start" x="620" y="-59.5" font-family="Helvetica,sans-Serif" font-size="10.00">write_buffer::write</text>
<text text-anchor="middle" x="665" y="-48.5" font-family="Helvetica,sans-Serif" font-size="10.00">_back_index</text>
</a>
</g>
</g>
<!-- Node6&#45;&gt;Node9 -->
<g id="edge12" class="edge">
<title>Node6&#45;&gt;Node9</title>
<path fill="none" stroke="midnightblue" d="M784.89,-103.56C770.08,-96.64 751.71,-88.32 735,-81.5 726.74,-78.13 717.84,-74.73 709.27,-71.58"/>
<polygon fill="midnightblue" stroke="midnightblue" points="783.52,-106.79 794.06,-107.88 786.5,-100.45 783.52,-106.79"/>
</g>
<!-- Node7&#45;&gt;Node7 -->
<g id="edge8" class="edge">
<title>Node7&#45;&gt;Node7</title>
<path fill="none" stroke="midnightblue" d="M691.65,-130.96C688.35,-135.68 679.46,-139 665,-139 641.27,-139 632.56,-130.06 638.86,-120.66"/>
<polygon fill="midnightblue" stroke="midnightblue" points="695.13,-130.47 691.14,-120.66 688.14,-130.82 695.13,-130.47"/>
</g>
<!-- Node8 -->
<g id="node8" class="node">
<title>Node8</title>
<g id="a_node8"><a xlink:href="backend_8hpp_a37c88e1409650776ddb3a33d7f2744cb.html#a37c88e1409650776ddb3a33d7f2744cb" target="_top" xlink:title="causes a node to self&#45;downgrade specified pages from its cache, making all previous writes to be prop...">
<polygon fill="white" stroke="black" points="424,-90.5 424,-120.5 559,-120.5 559,-90.5 424,-90.5"/>
<text text-anchor="start" x="432" y="-108.5" font-family="Helvetica,sans-Serif" font-size="10.00">argo::backend::selective</text>
<text text-anchor="middle" x="491.5" y="-97.5" font-family="Helvetica,sans-Serif" font-size="10.00">_release</text>
</a>
</g>
</g>
<!-- Node7&#45;&gt;Node8 -->
<g id="edge9" class="edge">
<title>Node7&#45;&gt;Node8</title>
<path fill="none" stroke="midnightblue" d="M584.5,-105.5C576.05,-105.5 567.52,-105.5 559.24,-105.5"/>
<polygon fill="midnightblue" stroke="midnightblue" points="584.74,-109 594.74,-105.5 584.74,-102 584.74,-109"/>
</g>
<!-- Node8&#45;&gt;Node8 -->
<g id="edge10" class="edge">
<title>Node8&#45;&gt;Node8</title>
<path fill="none" stroke="midnightblue" d="M519.57,-130.96C516.09,-135.68 506.73,-139 491.5,-139 466.5,-139 457.33,-130.06 463.97,-120.66"/>
<polygon fill="midnightblue" stroke="midnightblue" points="523.05,-130.46 519.03,-120.66 516.06,-130.83 523.05,-130.46"/>
</g>
<!-- Node10 -->
<g id="node10" class="node">
<title>Node10</title>
<g id="a_node10"><a xlink:href="classwrite__buffer_ad01396b3a57acdae3d76a31ae6253f48.html#ad01396b3a57acdae3d76a31ae6253f48" target="_top" xlink:title="Internal implementation of flush.">
<polygon fill="white" stroke="black" points="436.5,-50 436.5,-69 546.5,-69 546.5,-50 436.5,-50"/>
<text text-anchor="middle" x="491.5" y="-57" font-family="Helvetica,sans-Serif" font-size="10.00">write_buffer::_flush</text>
</a>
</g>
</g>
<!-- Node9&#45;&gt;Node10 -->
<g id="edge13" class="edge">
<title>Node9&#45;&gt;Node10</title>
<path fill="none" stroke="midnightblue" d="M601.51,-57.59C583.53,-57.91 564.07,-58.25 546.64,-58.55"/>
<polygon fill="midnightblue" stroke="midnightblue" points="601.68,-61.09 611.61,-57.42 601.55,-54.09 601.68,-61.09"/>
</g>
<!-- Node13 -->
<g id="node13" class="node">
<title>Node13</title>
<g id="a_node13"><a xlink:href="classwrite__buffer_aa6a1c2c3aa3a7cde744bbca3b14f599a.html#aa6a1c2c3aa3a7cde744bbca3b14f599a" target="_top" xlink:title="Flushes first _write_back_size elements of the ArgoDSM write buffer to memory.">
<polygon fill="white" stroke="black" points="439.5,-0.5 439.5,-30.5 543.5,-30.5 543.5,-0.5 439.5,-0.5"/>
<text text-anchor="start" x="447.5" y="-18.5" font-family="Helvetica,sans-Serif" font-size="10.00">write_buffer::flush</text>
<text text-anchor="middle" x="491.5" y="-7.5" font-family="Helvetica,sans-Serif" font-size="10.00">_partial</text>
</a>
</g>
</g>
<!-- Node9&#45;&gt;Node13 -->
<g id="edge16" class="edge">
<title>Node9&#45;&gt;Node13</title>
<path fill="none" stroke="midnightblue" d="M601.81,-41.63C582.72,-37.07 561.95,-32.1 543.68,-27.74"/>
<polygon fill="midnightblue" stroke="midnightblue" points="601.07,-45.05 611.61,-43.98 602.7,-38.25 601.07,-45.05"/>
</g>
<!-- Node11 -->
<g id="node11" class="node">
<title>Node11</title>
<g id="a_node11"><a xlink:href="classwrite__buffer_adbf59cdee2664f9db4a5e0dfd4f273ef.html#adbf59cdee2664f9db4a5e0dfd4f273ef" target="_top" xlink:title="Helper function to call _flush.">
<polygon fill="white" stroke="black" points="278,-44.5 278,-74.5 388,-74.5 388,-44.5 278,-44.5"/>
<text text-anchor="start" x="286" y="-62.5" font-family="Helvetica,sans-Serif" font-size="10.00">write_buffer::_flush</text>
<text text-anchor="middle" x="333" y="-51.5" font-family="Helvetica,sans-Serif" font-size="10.00">_helper</text>
</a>
</g>
</g>
<!-- Node10&#45;&gt;Node11 -->
<g id="edge14" class="edge">
<title>Node10&#45;&gt;Node11</title>
<path fill="none" stroke="midnightblue" d="M425.84,-59.5C413.32,-59.5 400.34,-59.5 388.2,-59.5"/>
<polygon fill="midnightblue" stroke="midnightblue" points="426.2,-63 436.2,-59.5 426.2,-56 426.2,-63"/>
</g>
<!-- Node12 -->
<g id="node12" class="node">
<title>Node12</title>
<g id="a_node12"><a xlink:href="classwrite__buffer_aca2e330e17a38c1cc8d8c60701ce9dd7.html#aca2e330e17a38c1cc8d8c60701ce9dd7" target="_top" xlink:title="Flushes the ArgoDSM write buffer to memory.">
<polygon fill="white" stroke="black" points="136.5,-50 136.5,-69 240.5,-69 240.5,-50 136.5,-50"/>
<text text-anchor="middle" x="188.5" y="-57" font-family="Helvetica,sans-Serif" font-size="10.00">write_buffer::flush</text>
</a>
</g>
</g>
<!-- Node11&#45;&gt;Node12 -->
<g id="edge15" class="edge">
<title>Node11&#45;&gt;Node12</title>
<path fill="none" stroke="midnightblue" d="M267.66,-59.5C258.66,-59.5 249.52,-59.5 240.81,-59.5"/>
<polygon fill="midnightblue" stroke="midnightblue" points="267.72,-63 277.72,-59.5 267.72,-56 267.72,-63"/>
</g>
<!-- Node14 -->
<g id="node14" class="node">
<title>Node14</title>
<g id="a_node14"><a xlink:href="classwrite__buffer_a327be1f65770b56442b1e8ee967be23d.html#a327be1f65770b56442b1e8ee967be23d" target="_top" xlink:title="Internal function to add an element to the write buffer.">
<polygon fill="white" stroke="black" points="281,-6 281,-25 385,-25 385,-6 281,-6"/>
<text text-anchor="middle" x="333" y="-13" font-family="Helvetica,sans-Serif" font-size="10.00">write_buffer::_add</text>
</a>
</g>
</g>
<!-- Node13&#45;&gt;Node14 -->
<g id="edge17" class="edge">
<title>Node13&#45;&gt;Node14</title>
<path fill="none" stroke="midnightblue" d="M428.87,-15.5C414.37,-15.5 399.07,-15.5 385.09,-15.5"/>
<polygon fill="midnightblue" stroke="midnightblue" points="429.26,-19 439.26,-15.5 429.26,-12 429.26,-19"/>
</g>
<!-- Node15 -->
<g id="node15" class="node">
<title>Node15</title>
<g id="a_node15"><a xlink:href="classwrite__buffer_ab5f16d0de074372b34cc4ebba9c58550.html#ab5f16d0de074372b34cc4ebba9c58550" target="_top" xlink:title="Helper function to call _add.">
<polygon fill="white" stroke="black" points="136.5,-0.5 136.5,-30.5 240.5,-30.5 240.5,-0.5 136.5,-0.5"/>
<text text-anchor="start" x="144.5" y="-18.5" font-family="Helvetica,sans-Serif" font-size="10.00">write_buffer::_add</text>
<text text-anchor="middle" x="188.5" y="-7.5" font-family="Helvetica,sans-Serif" font-size="10.00">_helper</text>
</a>
</g>
</g>
<!-- Node14&#45;&gt;Node15 -->
<g id="edge18" class="edge">
<title>Node14&#45;&gt;Node15</title>
<path fill="none" stroke="midnightblue" d="M270.66,-15.5C260.66,-15.5 250.39,-15.5 240.67,-15.5"/>
<polygon fill="midnightblue" stroke="midnightblue" points="270.96,-19 280.96,-15.5 270.96,-12 270.96,-19"/>
</g>
<!-- Node16 -->
<g id="node16" class="node">
<title>Node16</title>
<g id="a_node16"><a xlink:href="classwrite__buffer_a23b0dbc463111cacbbf83b267e76ac9f.html#a23b0dbc463111cacbbf83b267e76ac9f" target="_top" xlink:title="Adds a new element to the write buffer.">
<polygon fill="white" stroke="black" points="0,-6 0,-25 99,-25 99,-6 0,-6"/>
<text text-anchor="middle" x="49.5" y="-13" font-family="Helvetica,sans-Serif" font-size="10.00">write_buffer::add</text>
</a>
</g>
</g>
<!-- Node15&#45;&gt;Node16 -->
<g id="edge19" class="edge">
<title>Node15&#45;&gt;Node16</title>
<path fill="none" stroke="midnightblue" d="M126.36,-15.5C117.29,-15.5 108.05,-15.5 99.28,-15.5"/>
<polygon fill="midnightblue" stroke="midnightblue" points="126.49,-19 136.49,-15.5 126.49,-12 126.49,-19"/>
</g>
</g>
</svg>
        <g id="navigator" transform="translate(0 0)" fill="#404254">
                <rect fill="#f2f5e9" fill-opacity="0.5" stroke="#606060" stroke-width=".5" x="0" y="0" width="60" height="60"/>
                <use id="zoomplus" xlink:href="#zoomPlus" x="17" y="9" onmousedown="handleZoom(evt,'in')"/>
                <use id="zoomminus" xlink:href="#zoomMin" x="42" y="9" onmousedown="handleZoom(evt,'out')"/>
                <use id="reset" xlink:href="#resetDef" x="30" y="36" onmousedown="handleReset()"/>
                <g id="arrowUp" xlink:href="#dirArrow" transform="translate(30 24)" onmousedown="handlePan(0,-1)">
                  <use xlink:href="#rim" fill="#404040">
                        <set attributeName="fill" to="#808080" begin="arrowUp.mouseover" end="arrowUp.mouseout"/>
                  </use>
                  <path fill="none" stroke="white" stroke-width="1.5" d="M0,-3.0v7 M-2.5,-0.5L0,-3.0L2.5,-0.5"/>
                </g>
                <g id="arrowRight" xlink:href="#dirArrow" transform="rotate(90) translate(36 -43)" onmousedown="handlePan(1,0)">
                  <use xlink:href="#rim" fill="#404040">
                        <set attributeName="fill" to="#808080" begin="arrowRight.mouseover" end="arrowRight.mouseout"/>
                  </use>
                  <path fill="none" stroke="white" stroke-width="1.5" d="M0,-3.0v7 M-2.5,-0.5L0,-3.0L2.5,-0.5"/>
                </g>
                <g id="arrowDown" xlink:href="#dirArrow" transform="rotate(180) translate(-30 -48)" onmousedown="handlePan(0,1)">
                  <use xlink:href="#rim" fill="#404040">
                        <set attributeName="fill" to="#808080" begin="arrowDown.mouseover" end="arrowDown.mouseout"/>
                  </use>
                  <path fill="none" stroke="white" stroke-width="1.5" d="M0,-3.0v7 M-2.5,-0.5L0,-3.0L2.5,-0.5"/>
                </g>
                <g id="arrowLeft" xlink:href="#dirArrow" transform="rotate(270) translate(-36 17)" onmousedown="handlePan(-1,0)">
                  <use xlink:href="#rim" fill="#404040">
                        <set attributeName="fill" to="#808080" begin="arrowLeft.mouseover" end="arrowLeft.mouseout"/>
                  </use>
                  <path fill="none" stroke="white" stroke-width="1.5" d="M0,-3.0v7 M-2.5,-0.5L0,-3.0L2.5,-0.5"/>
                </g>
        </g>
        <svg viewBox="0 0 15 15" width="100%" height="30px" preserveAspectRatio="xMaxYMin meet">
         <g id="arrow_out" transform="scale(0.3 0.3)">
          <a xlink:href="swdsm_8h_ab2e5fbbe4d1f44d25619f290dc37dd3e_ab2e5fbbe4d1f44d25619f290dc37dd3e_icgraph_org.svg" target="_base">
           <rect id="button" ry="5" rx="5" y="6" x="6" height="38" width="38"
                fill="#f2f5e9" fill-opacity="0.5" stroke="#606060" stroke-width="1.0"/>
           <path id="arrow"
             d="M 11.500037,31.436501 C 11.940474,20.09759 22.043105,11.32322 32.158766,21.979434 L 37.068811,17.246167 C 37.068811,17.246167 37.088388,32 37.088388,32 L 22.160133,31.978069 C 22.160133,31.978069 26.997745,27.140456 26.997745,27.140456 C 18.528582,18.264221 13.291696,25.230495 11.500037,31.436501 z"
             style="fill:#404040;"/>
          </a>
         </g>
        </svg>
</svg>
