<?xml version="1.0" encoding="UTF-8" standalone="no"?>
<!DOCTYPE svg PUBLIC "-//W3C//DTD SVG 1.1//EN"
 "http://www.w3.org/Graphics/SVG/1.1/DTD/svg11.dtd">
<!-- Generated by graphviz version 2.43.0 (0)
 -->
<!-- Title: get_classification_index Pages: 1 -->
<svg width="923pt" height="480pt"
 viewBox="0.00 0.00 923.00 480.00" xmlns="http://www.w3.org/2000/svg" xmlns:xlink="http://www.w3.org/1999/xlink">
<g id="graph0" class="graph" transform="scale(1 1) rotate(0) translate(4 476)">
<title>get_classification_index</title>
<polygon fill="white" stroke="transparent" points="-4,4 -4,-476 919,-476 919,4 -4,4"/>
<!-- Node1 -->
<g id="node1" class="node">
<title>Node1</title>
<g id="a_node1"><a xlink:title="Gives an index to the sharer/writer vector depending on the address.">
<polygon fill="#bfbfbf" stroke="black" points="814,-360.5 814,-390.5 915,-390.5 915,-360.5 814,-360.5"/>
<text text-anchor="start" x="822" y="-378.5" font-family="Helvetica,sans-Serif" font-size="10.00">get_classification</text>
<text text-anchor="middle" x="864.5" y="-367.5" font-family="Helvetica,sans-Serif" font-size="10.00">_index</text>
</a>
</g>
</g>
<!-- Node2 -->
<g id="node2" class="node">
<title>Node2</title>
<g id="a_node2"><a xlink:href="backend_8hpp_a0fb29a8253f0d9aefc999d93414b1758.html#a0fb29a8253f0d9aefc999d93414b1758" target="_top" xlink:title="backend internal type erased function for selective acquire">
<polygon fill="white" stroke="black" points="638,-423.5 638,-453.5 778,-453.5 778,-423.5 638,-423.5"/>
<text text-anchor="start" x="646" y="-441.5" font-family="Helvetica,sans-Serif" font-size="10.00">argo::backend::_selective</text>
<text text-anchor="middle" x="708" y="-430.5" font-family="Helvetica,sans-Serif" font-size="10.00">_acquire</text>
</a>
</g>
</g>
<!-- Node1&#45;&gt;Node2 -->
<g id="edge1" class="edge">
<title>Node1&#45;&gt;Node2</title>
<path fill="none" stroke="midnightblue" d="M817.04,-394.45C794.29,-403.72 767.29,-414.73 745.97,-423.42"/>
<polygon fill="midnightblue" stroke="midnightblue" points="818.56,-397.61 826.49,-390.59 815.91,-391.13 818.56,-397.61"/>
</g>
<!-- Node4 -->
<g id="node4" class="node">
<title>Node4</title>
<g id="a_node4"><a xlink:href="swdsm_8cpp_adb24c11067d42b9bc8515a78a524e2c7.html#adb24c11067d42b9bc8515a78a524e2c7" target="_top" xlink:title="Catches memory accesses to memory not yet cached in ArgoDSM. Launches remote requests for memory not ...">
<polygon fill="white" stroke="black" points="508,-385 508,-404 561,-404 561,-385 508,-385"/>
<text text-anchor="middle" x="534.5" y="-392" font-family="Helvetica,sans-Serif" font-size="10.00">handler</text>
</a>
</g>
</g>
<!-- Node1&#45;&gt;Node4 -->
<g id="edge5" class="edge">
<title>Node1&#45;&gt;Node4</title>
<path fill="none" stroke="midnightblue" d="M803.37,-378.98C731.14,-383.17 613.21,-390 561.35,-393"/>
<polygon fill="midnightblue" stroke="midnightblue" points="803.9,-382.46 813.68,-378.39 803.5,-375.47 803.9,-382.46"/>
</g>
<!-- Node7 -->
<g id="node7" class="node">
<title>Node7</title>
<g id="a_node7"><a xlink:href="swdsm_8cpp_a92a73a9ea2009afcbef38b3e88b9ac0f.html#a92a73a9ea2009afcbef38b3e88b9ac0f" target="_top" xlink:title="load into cache helper function">
<polygon fill="white" stroke="black" points="657,-347 657,-366 759,-366 759,-347 657,-347"/>
<text text-anchor="middle" x="708" y="-354" font-family="Helvetica,sans-Serif" font-size="10.00">load_cache_entry</text>
</a>
</g>
</g>
<!-- Node1&#45;&gt;Node7 -->
<g id="edge8" class="edge">
<title>Node1&#45;&gt;Node7</title>
<path fill="none" stroke="midnightblue" d="M803.74,-368.15C789.01,-366.34 773.39,-364.42 759.17,-362.67"/>
<polygon fill="midnightblue" stroke="midnightblue" points="803.41,-371.64 813.76,-369.38 804.27,-364.69 803.41,-371.64"/>
</g>
<!-- Node8 -->
<g id="node8" class="node">
<title>Node8</title>
<g id="a_node8"><a xlink:href="swdsm_8cpp_aa7c3a2de6bbafdaf68fe6ceb6110ab97.html#aa7c3a2de6bbafdaf68fe6ceb6110ab97" target="_top" xlink:title="Self&#45;Invalidates all memory that has potential writers.">
<polygon fill="white" stroke="black" points="659,-309 659,-328 757,-328 757,-309 659,-309"/>
<text text-anchor="middle" x="708" y="-316" font-family="Helvetica,sans-Serif" font-size="10.00">self_invalidation</text>
</a>
</g>
</g>
<!-- Node1&#45;&gt;Node8 -->
<g id="edge10" class="edge">
<title>Node1&#45;&gt;Node8</title>
<path fill="none" stroke="midnightblue" d="M823.26,-356.13C809.13,-349.73 793.04,-342.88 778,-337.5 768.29,-334.03 757.62,-330.81 747.64,-328.05"/>
<polygon fill="midnightblue" stroke="midnightblue" points="822.14,-359.47 832.69,-360.46 825.06,-353.11 822.14,-359.47"/>
</g>
<!-- Node2&#45;&gt;Node2 -->
<g id="edge2" class="edge">
<title>Node2&#45;&gt;Node2</title>
<path fill="none" stroke="midnightblue" d="M735.72,-463.96C732.28,-468.68 723.04,-472 708,-472 683.32,-472 674.26,-463.06 680.81,-453.66"/>
<polygon fill="midnightblue" stroke="midnightblue" points="739.2,-463.46 735.19,-453.66 732.21,-463.83 739.2,-463.46"/>
</g>
<!-- Node3 -->
<g id="node3" class="node">
<title>Node3</title>
<g id="a_node3"><a xlink:href="backend_8hpp_aad1b8c62447de8cc06b7b4f031b77b01.html#aad1b8c62447de8cc06b7b4f031b77b01" target="_top" xlink:title="causes a node to self&#45;invalidate the specified pages from its cache, and thus getting any updated val...">
<polygon fill="white" stroke="black" points="467,-423.5 467,-453.5 602,-453.5 602,-423.5 467,-423.5"/>
<text text-anchor="start" x="475" y="-441.5" font-family="Helvetica,sans-Serif" font-size="10.00">argo::backend::selective</text>
<text text-anchor="middle" x="534.5" y="-430.5" font-family="Helvetica,sans-Serif" font-size="10.00">_acquire</text>
</a>
</g>
</g>
<!-- Node2&#45;&gt;Node3 -->
<g id="edge3" class="edge">
<title>Node2&#45;&gt;Node3</title>
<path fill="none" stroke="midnightblue" d="M627.5,-438.5C619.05,-438.5 610.52,-438.5 602.24,-438.5"/>
<polygon fill="midnightblue" stroke="midnightblue" points="627.74,-442 637.74,-438.5 627.74,-435 627.74,-442"/>
</g>
<!-- Node3&#45;&gt;Node3 -->
<g id="edge4" class="edge">
<title>Node3&#45;&gt;Node3</title>
<path fill="none" stroke="midnightblue" d="M564,-463.96C560.34,-468.68 550.5,-472 534.5,-472 508.24,-472 498.6,-463.06 505.57,-453.66"/>
<polygon fill="midnightblue" stroke="midnightblue" points="567.47,-463.45 563.43,-453.66 560.48,-463.84 567.47,-463.45"/>
</g>
<!-- Node5 -->
<g id="node5" class="node">
<title>Node5</title>
<g id="a_node5"><a xlink:href="swdsm_8cpp_a31ba60e8ddccfa922da8d7e6a10f7b1d.html#a31ba60e8ddccfa922da8d7e6a10f7b1d" target="_top" xlink:title="Initializes ArgoDSM runtime.">
<polygon fill="white" stroke="black" points="162.5,-403 162.5,-422 248.5,-422 248.5,-403 162.5,-403"/>
<text text-anchor="middle" x="205.5" y="-410" font-family="Helvetica,sans-Serif" font-size="10.00">argo_initialize</text>
</a>
</g>
</g>
<!-- Node4&#45;&gt;Node5 -->
<g id="edge6" class="edge">
<title>Node4&#45;&gt;Node5</title>
<path fill="none" stroke="midnightblue" d="M497.57,-396.48C436.68,-399.83 313.52,-406.61 248.65,-410.18"/>
<polygon fill="midnightblue" stroke="midnightblue" points="498.05,-399.96 507.84,-395.91 497.66,-392.97 498.05,-399.96"/>
</g>
<!-- Node6 -->
<g id="node6" class="node">
<title>Node6</title>
<g id="a_node6"><a xlink:href="backend_8hpp_aab3cabb3e1c0b9696b339416b684f78c.html#aab3cabb3e1c0b9696b339416b684f78c" target="_top" xlink:title="initialize backend">
<polygon fill="white" stroke="black" points="0,-403 0,-422 107,-422 107,-403 0,-403"/>
<text text-anchor="middle" x="53.5" y="-410" font-family="Helvetica,sans-Serif" font-size="10.00">argo::backend::init</text>
</a>
</g>
</g>
<!-- Node5&#45;&gt;Node6 -->
<g id="edge7" class="edge">
<title>Node5&#45;&gt;Node6</title>
<path fill="none" stroke="midnightblue" d="M151.97,-412.5C137.42,-412.5 121.62,-412.5 107.06,-412.5"/>
<polygon fill="midnightblue" stroke="midnightblue" points="152.32,-416 162.32,-412.5 152.32,-409 152.32,-416"/>
</g>
<!-- Node7&#45;&gt;Node4 -->
<g id="edge9" class="edge">
<title>Node7&#45;&gt;Node4</title>
<path fill="none" stroke="midnightblue" d="M653.56,-368.34C622.78,-375.16 585.49,-383.42 561.16,-388.81"/>
<polygon fill="midnightblue" stroke="midnightblue" points="654.72,-371.67 663.72,-366.09 653.2,-364.84 654.72,-371.67"/>
</g>
<!-- Node9 -->
<g id="node9" class="node">
<title>Node9</title>
<g id="a_node9"><a xlink:href="swdsm_8cpp_a44b8bb7a3c8b47b4f9552c8e10b25e4b.html#a44b8bb7a3c8b47b4f9552c8e10b25e4b" target="_top" xlink:title="acquire function for ArgoDSM (Acquire according to Release Consistency)">
<polygon fill="white" stroke="black" points="494.5,-173 494.5,-192 574.5,-192 574.5,-173 494.5,-173"/>
<text text-anchor="middle" x="534.5" y="-180" font-family="Helvetica,sans-Serif" font-size="10.00">argo_acquire</text>
</a>
</g>
</g>
<!-- Node8&#45;&gt;Node9 -->
<g id="edge11" class="edge">
<title>Node8&#45;&gt;Node9</title>
<path fill="none" stroke="midnightblue" d="M686.66,-302.37C650.71,-273.86 576.96,-215.37 547.78,-192.23"/>
<polygon fill="midnightblue" stroke="midnightblue" points="684.93,-305.47 694.94,-308.94 689.28,-299.98 684.93,-305.47"/>
</g>
<!-- Node17 -->
<g id="node17" class="node">
<title>Node17</title>
<g id="a_node17"><a xlink:href="swdsm_8cpp_aca8a35703563223a3e182ebc897e2b40.html#aca8a35703563223a3e182ebc897e2b40" target="_top" xlink:title="Global barrier for ArgoDSM &#45; needs to be called by every thread in the system that need coherent view...">
<polygon fill="white" stroke="black" points="476.5,-309 476.5,-328 592.5,-328 592.5,-309 476.5,-309"/>
<text text-anchor="middle" x="534.5" y="-316" font-family="Helvetica,sans-Serif" font-size="10.00">swdsm_argo_barrier</text>
</a>
</g>
</g>
<!-- Node8&#45;&gt;Node17 -->
<g id="edge25" class="edge">
<title>Node8&#45;&gt;Node17</title>
<path fill="none" stroke="midnightblue" d="M648.67,-318.5C630.62,-318.5 610.76,-318.5 592.78,-318.5"/>
<polygon fill="midnightblue" stroke="midnightblue" points="648.77,-322 658.77,-318.5 648.77,-315 648.77,-322"/>
</g>
<!-- Node10 -->
<g id="node10" class="node">
<title>Node10</title>
<g id="a_node10"><a xlink:href="backend_8hpp_a1032f833666c3f810ac1c6210197d426.html#a1032f833666c3f810ac1c6210197d426" target="_top" xlink:title="causes a node to self&#45;invalidate its cache, and thus getting any updated values on subsequent accesse...">
<polygon fill="white" stroke="black" points="304,-173 304,-192 431,-192 431,-173 304,-173"/>
<text text-anchor="middle" x="367.5" y="-180" font-family="Helvetica,sans-Serif" font-size="10.00">argo::backend::acquire</text>
</a>
</g>
</g>
<!-- Node9&#45;&gt;Node10 -->
<g id="edge12" class="edge">
<title>Node9&#45;&gt;Node10</title>
<path fill="none" stroke="midnightblue" d="M484.32,-182.5C467.64,-182.5 448.77,-182.5 431.18,-182.5"/>
<polygon fill="midnightblue" stroke="midnightblue" points="484.4,-186 494.4,-182.5 484.4,-179 484.4,-186"/>
</g>
<!-- Node16 -->
<g id="node16" class="node">
<title>Node16</title>
<g id="a_node16"><a xlink:href="swdsm_8cpp_ac0b665f72bc2a28dc663ed204c526e1b.html#ac0b665f72bc2a28dc663ed204c526e1b" target="_top" xlink:title="acquire&#45;release function for ArgoDSM (Both acquire and release according to Release Consistency)">
<polygon fill="white" stroke="black" points="328,-135 328,-154 407,-154 407,-135 328,-135"/>
<text text-anchor="middle" x="367.5" y="-142" font-family="Helvetica,sans-Serif" font-size="10.00">argo_acq_rel</text>
</a>
</g>
</g>
<!-- Node9&#45;&gt;Node16 -->
<g id="edge24" class="edge">
<title>Node9&#45;&gt;Node16</title>
<path fill="none" stroke="midnightblue" d="M484.47,-171.21C459.72,-165.51 430.13,-158.69 407.04,-153.38"/>
<polygon fill="midnightblue" stroke="midnightblue" points="483.87,-174.66 494.4,-173.49 485.44,-167.84 483.87,-174.66"/>
</g>
<!-- Node10&#45;&gt;Node10 -->
<g id="edge13" class="edge">
<title>Node10&#45;&gt;Node10</title>
<path fill="none" stroke="midnightblue" d="M397.81,-200.77C396.95,-206.24 386.85,-210.5 367.5,-210.5 338.71,-210.5 330.38,-201.07 342.53,-192.26"/>
<polygon fill="midnightblue" stroke="midnightblue" points="400.75,-198.87 392.47,-192.26 394.82,-202.59 400.75,-198.87"/>
</g>
<!-- Node11 -->
<g id="node11" class="node">
<title>Node11</title>
<g id="a_node11"><a xlink:href="backend_8hpp_a8e7144eaa88e3a94eb4e5fb8efb423a4.html#a8e7144eaa88e3a94eb4e5fb8efb423a4" target="_top" xlink:title="Atomic CAS operation on a global address.">
<polygon fill="white" stroke="black" points="143,-268.5 143,-298.5 268,-298.5 268,-268.5 143,-268.5"/>
<text text-anchor="start" x="151" y="-286.5" font-family="Helvetica,sans-Serif" font-size="10.00">argo::backend::atomic</text>
<text text-anchor="middle" x="205.5" y="-275.5" font-family="Helvetica,sans-Serif" font-size="10.00">::compare_exchange</text>
</a>
</g>
</g>
<!-- Node10&#45;&gt;Node11 -->
<g id="edge14" class="edge">
<title>Node10&#45;&gt;Node11</title>
<path fill="none" stroke="midnightblue" d="M348.38,-198.92C329.39,-215.53 298.18,-241.16 268,-258.5 261.7,-262.12 254.78,-265.47 247.93,-268.47"/>
<polygon fill="midnightblue" stroke="midnightblue" points="350.81,-201.45 355.97,-192.2 346.16,-196.22 350.81,-201.45"/>
</g>
<!-- Node12 -->
<g id="node12" class="node">
<title>Node12</title>
<g id="a_node12"><a xlink:href="backend_8hpp_abe831501c00abf39b0519eef6789933f.html#abe831501c00abf39b0519eef6789933f" target="_top" xlink:title="atomic swap operation on a global address">
<polygon fill="white" stroke="black" points="143,-201.5 143,-231.5 268,-231.5 268,-201.5 143,-201.5"/>
<text text-anchor="start" x="151" y="-219.5" font-family="Helvetica,sans-Serif" font-size="10.00">argo::backend::atomic</text>
<text text-anchor="middle" x="205.5" y="-208.5" font-family="Helvetica,sans-Serif" font-size="10.00">::exchange</text>
</a>
</g>
</g>
<!-- Node10&#45;&gt;Node12 -->
<g id="edge16" class="edge">
<title>Node10&#45;&gt;Node12</title>
<path fill="none" stroke="midnightblue" d="M311.55,-194.18C297.57,-197.15 282.46,-200.36 268.17,-203.4"/>
<polygon fill="midnightblue" stroke="midnightblue" points="312.45,-197.56 321.51,-192.06 311,-190.72 312.45,-197.56"/>
</g>
<!-- Node13 -->
<g id="node13" class="node">
<title>Node13</title>
<g id="a_node13"><a xlink:href="backend_8hpp_afd1987dffd4e9100c88c457234f64a52.html#afd1987dffd4e9100c88c457234f64a52" target="_top" xlink:title="Atomic fetch and add operation on a global address.">
<polygon fill="white" stroke="black" points="143,-134.5 143,-164.5 268,-164.5 268,-134.5 143,-134.5"/>
<text text-anchor="start" x="151" y="-152.5" font-family="Helvetica,sans-Serif" font-size="10.00">argo::backend::atomic</text>
<text text-anchor="middle" x="205.5" y="-141.5" font-family="Helvetica,sans-Serif" font-size="10.00">::fetch_add</text>
</a>
</g>
</g>
<!-- Node10&#45;&gt;Node13 -->
<g id="edge18" class="edge">
<title>Node10&#45;&gt;Node13</title>
<path fill="none" stroke="midnightblue" d="M310.07,-170.86C296.51,-168.06 281.95,-165.06 268.16,-162.22"/>
<polygon fill="midnightblue" stroke="midnightblue" points="309.72,-174.36 320.22,-172.96 311.13,-167.51 309.72,-174.36"/>
</g>
<!-- Node14 -->
<g id="node14" class="node">
<title>Node14</title>
<g id="a_node14"><a xlink:href="backend_8hpp_abcb3b11cf70d5b8009edfabaa08def9d.html#abcb3b11cf70d5b8009edfabaa08def9d" target="_top" xlink:title="Atomic load operation on a global address.">
<polygon fill="white" stroke="black" points="143,-67.5 143,-97.5 268,-97.5 268,-67.5 143,-67.5"/>
<text text-anchor="start" x="151" y="-85.5" font-family="Helvetica,sans-Serif" font-size="10.00">argo::backend::atomic</text>
<text text-anchor="middle" x="205.5" y="-74.5" font-family="Helvetica,sans-Serif" font-size="10.00">::load</text>
</a>
</g>
</g>
<!-- Node10&#45;&gt;Node14 -->
<g id="edge20" class="edge">
<title>Node10&#45;&gt;Node14</title>
<path fill="none" stroke="midnightblue" d="M314.7,-169.18C310.97,-167.5 307.36,-165.61 304,-163.5 284.02,-150.96 285.85,-139.92 268,-124.5 256.65,-114.7 242.96,-105.16 231.38,-97.65"/>
<polygon fill="midnightblue" stroke="midnightblue" points="313.56,-172.5 324.14,-172.98 316.17,-166 313.56,-172.5"/>
</g>
<!-- Node15 -->
<g id="node15" class="node">
<title>Node15</title>
<g id="a_node15"><a xlink:href="backend_8hpp_a360aa0082e4b2bfe2f6c19d333ff56fa.html#a360aa0082e4b2bfe2f6c19d333ff56fa" target="_top" xlink:title="Atomic store operation on a global address.">
<polygon fill="white" stroke="black" points="143,-0.5 143,-30.5 268,-30.5 268,-0.5 143,-0.5"/>
<text text-anchor="start" x="151" y="-18.5" font-family="Helvetica,sans-Serif" font-size="10.00">argo::backend::atomic</text>
<text text-anchor="middle" x="205.5" y="-7.5" font-family="Helvetica,sans-Serif" font-size="10.00">::store</text>
</a>
</g>
</g>
<!-- Node10&#45;&gt;Node15 -->
<g id="edge22" class="edge">
<title>Node10&#45;&gt;Node15</title>
<path fill="none" stroke="midnightblue" d="M308.79,-167.53C307.1,-166.29 305.5,-164.95 304,-163.5 268.26,-128.89 298.09,-97.12 268,-57.5 259.71,-46.59 247.74,-37.51 236.56,-30.62"/>
<polygon fill="midnightblue" stroke="midnightblue" points="307.44,-170.8 317.82,-172.9 311.02,-164.78 307.44,-170.8"/>
</g>
<!-- Node11&#45;&gt;Node11 -->
<g id="edge15" class="edge">
<title>Node11&#45;&gt;Node11</title>
<path fill="none" stroke="midnightblue" d="M232.51,-308.96C229.16,-313.68 220.15,-317 205.5,-317 181.45,-317 172.62,-308.06 179.01,-298.66"/>
<polygon fill="midnightblue" stroke="midnightblue" points="235.99,-308.47 231.99,-298.66 229,-308.82 235.99,-308.47"/>
</g>
<!-- Node12&#45;&gt;Node12 -->
<g id="edge17" class="edge">
<title>Node12&#45;&gt;Node12</title>
<path fill="none" stroke="midnightblue" d="M232.51,-241.96C229.16,-246.68 220.15,-250 205.5,-250 181.45,-250 172.62,-241.06 179.01,-231.66"/>
<polygon fill="midnightblue" stroke="midnightblue" points="235.99,-241.47 231.99,-231.66 229,-241.82 235.99,-241.47"/>
</g>
<!-- Node13&#45;&gt;Node13 -->
<g id="edge19" class="edge">
<title>Node13&#45;&gt;Node13</title>
<path fill="none" stroke="midnightblue" d="M232.51,-174.96C229.16,-179.68 220.15,-183 205.5,-183 181.45,-183 172.62,-174.06 179.01,-164.66"/>
<polygon fill="midnightblue" stroke="midnightblue" points="235.99,-174.47 231.99,-164.66 229,-174.82 235.99,-174.47"/>
</g>
<!-- Node14&#45;&gt;Node14 -->
<g id="edge21" class="edge">
<title>Node14&#45;&gt;Node14</title>
<path fill="none" stroke="midnightblue" d="M232.51,-107.96C229.16,-112.68 220.15,-116 205.5,-116 181.45,-116 172.62,-107.06 179.01,-97.66"/>
<polygon fill="midnightblue" stroke="midnightblue" points="235.99,-107.47 231.99,-97.66 229,-107.82 235.99,-107.47"/>
</g>
<!-- Node15&#45;&gt;Node15 -->
<g id="edge23" class="edge">
<title>Node15&#45;&gt;Node15</title>
<path fill="none" stroke="midnightblue" d="M232.51,-40.96C229.16,-45.68 220.15,-49 205.5,-49 181.45,-49 172.62,-40.06 179.01,-30.66"/>
<polygon fill="midnightblue" stroke="midnightblue" points="235.99,-40.47 231.99,-30.66 229,-40.82 235.99,-40.47"/>
</g>
<!-- Node18 -->
<g id="node18" class="node">
<title>Node18</title>
<g id="a_node18"><a xlink:href="swdsm_8cpp_aa954d5e0bcaee69ff6e03e697bcaf68b.html#aa954d5e0bcaee69ff6e03e697bcaf68b" target="_top" xlink:title="shut down ArgoDSM system">
<polygon fill="white" stroke="black" points="328,-309 328,-328 407,-328 407,-309 328,-309"/>
<text text-anchor="middle" x="367.5" y="-316" font-family="Helvetica,sans-Serif" font-size="10.00">argo_finalize</text>
</a>
</g>
</g>
<!-- Node17&#45;&gt;Node18 -->
<g id="edge26" class="edge">
<title>Node17&#45;&gt;Node18</title>
<path fill="none" stroke="midnightblue" d="M466.21,-318.5C446.14,-318.5 424.83,-318.5 407.24,-318.5"/>
<polygon fill="midnightblue" stroke="midnightblue" points="466.25,-322 476.25,-318.5 466.25,-315 466.25,-322"/>
</g>
<!-- Node19 -->
<g id="node19" class="node">
<title>Node19</title>
<g id="a_node19"><a xlink:href="swdsm_8cpp_adb17e929b24ae3fd6898035fce958122.html#adb17e929b24ae3fd6898035fce958122" target="_top" xlink:title="Resets current ArgoDSM coherence.">
<polygon fill="white" stroke="black" points="305.5,-347 305.5,-366 429.5,-366 429.5,-347 305.5,-347"/>
<text text-anchor="middle" x="367.5" y="-354" font-family="Helvetica,sans-Serif" font-size="10.00">argo_reset_coherence</text>
</a>
</g>
</g>
<!-- Node17&#45;&gt;Node19 -->
<g id="edge27" class="edge">
<title>Node17&#45;&gt;Node19</title>
<path fill="none" stroke="midnightblue" d="M481.85,-330.4C458.65,-335.74 431.66,-341.95 409.84,-346.98"/>
<polygon fill="midnightblue" stroke="midnightblue" points="482.9,-333.74 491.86,-328.09 481.33,-326.92 482.9,-333.74"/>
</g>
<!-- Node21 -->
<g id="node21" class="node">
<title>Node21</title>
<g id="a_node21"><a xlink:href="backend_8hpp_adc47b610451cff63f21d023dc31b1945.html#adc47b610451cff63f21d023dc31b1945" target="_top" xlink:title="a simple collective barrier">
<polygon fill="white" stroke="black" points="306,-271 306,-290 429,-290 429,-271 306,-271"/>
<text text-anchor="middle" x="367.5" y="-278" font-family="Helvetica,sans-Serif" font-size="10.00">argo::backend::barrier</text>
</a>
</g>
</g>
<!-- Node17&#45;&gt;Node21 -->
<g id="edge31" class="edge">
<title>Node17&#45;&gt;Node21</title>
<path fill="none" stroke="midnightblue" d="M481.85,-306.6C458.65,-301.26 431.66,-295.05 409.84,-290.02"/>
<polygon fill="midnightblue" stroke="midnightblue" points="481.33,-310.08 491.86,-308.91 482.9,-303.26 481.33,-310.08"/>
</g>
<!-- Node19&#45;&gt;Node5 -->
<g id="edge28" class="edge">
<title>Node19&#45;&gt;Node5</title>
<path fill="none" stroke="midnightblue" d="M332.96,-369.67C313.99,-376.97 289.78,-386.05 268,-393.5 258.48,-396.75 248.06,-400.07 238.54,-403"/>
<polygon fill="midnightblue" stroke="midnightblue" points="334.3,-372.9 342.36,-366.03 331.77,-366.37 334.3,-372.9"/>
</g>
<!-- Node20 -->
<g id="node20" class="node">
<title>Node20</title>
<g id="a_node20"><a xlink:href="backend_8hpp_acb57f009ad65913e26147c6813eda04e.html#acb57f009ad65913e26147c6813eda04e" target="_top" xlink:title="Resets current ArgoDSM coherence.">
<polygon fill="white" stroke="black" points="147.5,-335.5 147.5,-365.5 263.5,-365.5 263.5,-335.5 147.5,-335.5"/>
<text text-anchor="start" x="155.5" y="-353.5" font-family="Helvetica,sans-Serif" font-size="10.00">argo::backend::reset</text>
<text text-anchor="middle" x="205.5" y="-342.5" font-family="Helvetica,sans-Serif" font-size="10.00">_coherence</text>
</a>
</g>
</g>
<!-- Node19&#45;&gt;Node20 -->
<g id="edge29" class="edge">
<title>Node19&#45;&gt;Node20</title>
<path fill="none" stroke="midnightblue" d="M295.06,-353.82C284.51,-353.43 273.75,-353.02 263.54,-352.64"/>
<polygon fill="midnightblue" stroke="midnightblue" points="294.97,-357.32 305.1,-354.2 295.24,-350.33 294.97,-357.32"/>
</g>
<!-- Node20&#45;&gt;Node20 -->
<g id="edge30" class="edge">
<title>Node20&#45;&gt;Node20</title>
<path fill="none" stroke="midnightblue" d="M232.51,-375.96C229.16,-380.68 220.15,-384 205.5,-384 181.45,-384 172.62,-375.06 179.01,-365.66"/>
<polygon fill="midnightblue" stroke="midnightblue" points="235.99,-375.47 231.99,-365.66 229,-375.82 235.99,-375.47"/>
</g>
</g>
</svg>
