<?xml version="1.0" encoding="UTF-8" standalone="no"?>
<!DOCTYPE svg PUBLIC "-//W3C//DTD SVG 1.1//EN"
 "http://www.w3.org/Graphics/SVG/1.1/DTD/svg11.dtd">
<!-- Generated by graphviz version 2.43.0 (0)
 -->
<!-- Title: getCacheIndex Pages: 1 -->
<svg width="713pt" height="295pt"
 viewBox="0.00 0.00 713.00 295.00" xmlns="http://www.w3.org/2000/svg" xmlns:xlink="http://www.w3.org/1999/xlink">
<g id="graph0" class="graph" transform="scale(1 1) rotate(0) translate(4 291)">
<title>getCacheIndex</title>
<polygon fill="white" stroke="transparent" points="-4,4 -4,-291 709,-291 709,4 -4,4"/>
<!-- Node1 -->
<g id="node1" class="node">
<title>Node1</title>
<g id="a_node1"><a xlink:title="Gets cacheindex for a given address.">
<polygon fill="#bfbfbf" stroke="black" points="616,-115.5 616,-134.5 705,-134.5 705,-115.5 616,-115.5"/>
<text text-anchor="middle" x="660.5" y="-122.5" font-family="Helvetica,sans-Serif" font-size="10.00">getCacheIndex</text>
</a>
</g>
</g>
<!-- Node2 -->
<g id="node2" class="node">
<title>Node2</title>
<g id="a_node2"><a xlink:href="swdsm_8cpp_a93e3c7288ce47ac8b4ec8ff9f8a82435.html#a93e3c7288ce47ac8b4ec8ff9f8a82435" target="_top" xlink:title="Check whether a page is either cached on the node or locally backed.">
<polygon fill="white" stroke="black" points="475,-249.5 475,-268.5 545,-268.5 545,-249.5 475,-249.5"/>
<text text-anchor="middle" x="510" y="-256.5" font-family="Helvetica,sans-Serif" font-size="10.00">_is_cached</text>
</a>
</g>
</g>
<!-- Node1&#45;&gt;Node2 -->
<g id="edge1" class="edge">
<title>Node1&#45;&gt;Node2</title>
<path fill="none" stroke="midnightblue" d="M650.41,-144.04C637.83,-168.44 612.91,-210.5 580,-235 569.83,-242.57 557.07,-247.89 545.31,-251.56"/>
<polygon fill="midnightblue" stroke="midnightblue" points="653.7,-145.28 655.03,-134.77 647.43,-142.16 653.7,-145.28"/>
</g>
<!-- Node4 -->
<g id="node4" class="node">
<title>Node4</title>
<g id="a_node4"><a xlink:href="swdsm_8cpp_adafea891224a2b1860cbc6afe9610334.html#adafea891224a2b1860cbc6afe9610334" target="_top" xlink:title="Perform upgrade of page classifications.">
<polygon fill="white" stroke="black" points="294.5,-211.5 294.5,-230.5 374.5,-230.5 374.5,-211.5 294.5,-211.5"/>
<text text-anchor="middle" x="334.5" y="-218.5" font-family="Helvetica,sans-Serif" font-size="10.00">self_upgrade</text>
</a>
</g>
</g>
<!-- Node1&#45;&gt;Node4 -->
<g id="edge18" class="edge">
<title>Node1&#45;&gt;Node4</title>
<path fill="none" stroke="midnightblue" d="M647.02,-142.91C633.06,-161.34 608.6,-189.11 580,-202 512.85,-232.27 424.8,-230.3 374.76,-225.85"/>
<polygon fill="midnightblue" stroke="midnightblue" points="649.93,-144.86 653.01,-134.72 644.28,-140.73 649.93,-144.86"/>
</g>
<!-- Node5 -->
<g id="node5" class="node">
<title>Node5</title>
<g id="a_node5"><a xlink:href="backend_8hpp_a0fb29a8253f0d9aefc999d93414b1758.html#a0fb29a8253f0d9aefc999d93414b1758" target="_top" xlink:title="backend internal type erased function for selective acquire">
<polygon fill="white" stroke="black" points="440,-144 440,-174 580,-174 580,-144 440,-144"/>
<text text-anchor="start" x="448" y="-162" font-family="Helvetica,sans-Serif" font-size="10.00">argo::backend::_selective</text>
<text text-anchor="middle" x="510" y="-151" font-family="Helvetica,sans-Serif" font-size="10.00">_acquire</text>
</a>
</g>
</g>
<!-- Node1&#45;&gt;Node5 -->
<g id="edge5" class="edge">
<title>Node1&#45;&gt;Node5</title>
<path fill="none" stroke="midnightblue" d="M607.88,-136.82C597.79,-139.13 587.08,-141.58 576.61,-143.98"/>
<polygon fill="midnightblue" stroke="midnightblue" points="608.77,-140.2 617.74,-134.56 607.21,-133.38 608.77,-140.2"/>
</g>
<!-- Node7 -->
<g id="node7" class="node">
<title>Node7</title>
<g id="a_node7"><a xlink:href="backend_8hpp_ac3350bde3c8baf64753e515336fad3be.html#ac3350bde3c8baf64753e515336fad3be" target="_top" xlink:title="backend internal type erased function for selective release">
<polygon fill="white" stroke="black" points="440,-77 440,-107 580,-107 580,-77 440,-77"/>
<text text-anchor="start" x="448" y="-95" font-family="Helvetica,sans-Serif" font-size="10.00">argo::backend::_selective</text>
<text text-anchor="middle" x="510" y="-84" font-family="Helvetica,sans-Serif" font-size="10.00">_release</text>
</a>
</g>
</g>
<!-- Node1&#45;&gt;Node7 -->
<g id="edge9" class="edge">
<title>Node1&#45;&gt;Node7</title>
<path fill="none" stroke="midnightblue" d="M606.59,-113.24C597.57,-111.24 588.1,-109.13 578.76,-107.06"/>
<polygon fill="midnightblue" stroke="midnightblue" points="606.03,-116.7 616.55,-115.46 607.55,-109.87 606.03,-116.7"/>
</g>
<!-- Node9 -->
<g id="node9" class="node">
<title>Node9</title>
<g id="a_node9"><a xlink:href="swdsm_8cpp_adb24c11067d42b9bc8515a78a524e2c7.html#adb24c11067d42b9bc8515a78a524e2c7" target="_top" xlink:title="Catches memory accesses to memory not yet cached in ArgoDSM. Launches remote requests for memory not ...">
<polygon fill="white" stroke="black" points="308,-19.5 308,-38.5 361,-38.5 361,-19.5 308,-19.5"/>
<text text-anchor="middle" x="334.5" y="-26.5" font-family="Helvetica,sans-Serif" font-size="10.00">handler</text>
</a>
</g>
</g>
<!-- Node1&#45;&gt;Node9 -->
<g id="edge13" class="edge">
<title>Node1&#45;&gt;Node9</title>
<path fill="none" stroke="midnightblue" d="M641.56,-108.36C626.34,-95.23 603.33,-77.59 580,-68 504.66,-37.02 406.89,-30.54 361.17,-29.26"/>
<polygon fill="midnightblue" stroke="midnightblue" points="639.36,-111.09 649.16,-115.11 644,-105.85 639.36,-111.09"/>
</g>
<!-- Node12 -->
<g id="node12" class="node">
<title>Node12</title>
<g id="a_node12"><a xlink:href="swdsm_8cpp_a92a73a9ea2009afcbef38b3e88b9ac0f.html#a92a73a9ea2009afcbef38b3e88b9ac0f" target="_top" xlink:title="load into cache helper function">
<polygon fill="white" stroke="black" points="459,-0.5 459,-19.5 561,-19.5 561,-0.5 459,-0.5"/>
<text text-anchor="middle" x="510" y="-7.5" font-family="Helvetica,sans-Serif" font-size="10.00">load_cache_entry</text>
</a>
</g>
</g>
<!-- Node1&#45;&gt;Node12 -->
<g id="edge16" class="edge">
<title>Node1&#45;&gt;Node12</title>
<path fill="none" stroke="midnightblue" d="M647.98,-106.89C634.13,-86.5 609.1,-53.64 580,-34 570.96,-27.9 560.21,-23.19 549.91,-19.62"/>
<polygon fill="midnightblue" stroke="midnightblue" points="645.09,-108.88 653.52,-115.29 650.93,-105.02 645.09,-108.88"/>
</g>
<!-- Node3 -->
<g id="node3" class="node">
<title>Node3</title>
<g id="a_node3"><a xlink:href="backend_8hpp_a8189df2ded0e8e6b64477a53f80d67e8.html#a8189df2ded0e8e6b64477a53f80d67e8" target="_top" xlink:title="Check if a an address is cached or node local.">
<polygon fill="white" stroke="black" points="265,-249.5 265,-268.5 404,-268.5 404,-249.5 265,-249.5"/>
<text text-anchor="middle" x="334.5" y="-256.5" font-family="Helvetica,sans-Serif" font-size="10.00">argo::backend::is_cached</text>
</a>
</g>
</g>
<!-- Node2&#45;&gt;Node3 -->
<g id="edge2" class="edge">
<title>Node2&#45;&gt;Node3</title>
<path fill="none" stroke="midnightblue" d="M464.61,-259C446.24,-259 424.5,-259 404.16,-259"/>
<polygon fill="midnightblue" stroke="midnightblue" points="464.72,-262.5 474.72,-259 464.72,-255.5 464.72,-262.5"/>
</g>
<!-- Node2&#45;&gt;Node4 -->
<g id="edge4" class="edge">
<title>Node2&#45;&gt;Node4</title>
<path fill="none" stroke="midnightblue" d="M464.85,-249.33C437,-243.23 401.36,-235.43 374.55,-229.55"/>
<polygon fill="midnightblue" stroke="midnightblue" points="464.2,-252.77 474.72,-251.49 465.7,-245.93 464.2,-252.77"/>
</g>
<!-- Node3&#45;&gt;Node3 -->
<g id="edge3" class="edge">
<title>Node3&#45;&gt;Node3</title>
<path fill="none" stroke="midnightblue" d="M362.13,-277.65C360.97,-282.94 351.76,-287 334.5,-287 308.2,-287 300.59,-277.57 311.69,-268.76"/>
<polygon fill="midnightblue" stroke="midnightblue" points="365.15,-275.89 357.31,-268.76 358.99,-279.22 365.15,-275.89"/>
</g>
<!-- Node5&#45;&gt;Node5 -->
<g id="edge6" class="edge">
<title>Node5&#45;&gt;Node5</title>
<path fill="none" stroke="midnightblue" d="M536.65,-184.46C533.35,-189.18 524.46,-192.5 510,-192.5 486.27,-192.5 477.56,-183.56 483.86,-174.16"/>
<polygon fill="midnightblue" stroke="midnightblue" points="540.13,-183.97 536.14,-174.16 533.14,-184.32 540.13,-183.97"/>
</g>
<!-- Node6 -->
<g id="node6" class="node">
<title>Node6</title>
<g id="a_node6"><a xlink:href="backend_8hpp_aad1b8c62447de8cc06b7b4f031b77b01.html#aad1b8c62447de8cc06b7b4f031b77b01" target="_top" xlink:title="causes a node to self&#45;invalidate the specified pages from its cache, and thus getting any updated val...">
<polygon fill="white" stroke="black" points="267,-144 267,-174 402,-174 402,-144 267,-144"/>
<text text-anchor="start" x="275" y="-162" font-family="Helvetica,sans-Serif" font-size="10.00">argo::backend::selective</text>
<text text-anchor="middle" x="334.5" y="-151" font-family="Helvetica,sans-Serif" font-size="10.00">_acquire</text>
</a>
</g>
</g>
<!-- Node5&#45;&gt;Node6 -->
<g id="edge7" class="edge">
<title>Node5&#45;&gt;Node6</title>
<path fill="none" stroke="midnightblue" d="M429.9,-159C420.6,-159 411.18,-159 402.07,-159"/>
<polygon fill="midnightblue" stroke="midnightblue" points="429.93,-162.5 439.93,-159 429.93,-155.5 429.93,-162.5"/>
</g>
<!-- Node6&#45;&gt;Node6 -->
<g id="edge8" class="edge">
<title>Node6&#45;&gt;Node6</title>
<path fill="none" stroke="midnightblue" d="M360.8,-184.46C357.53,-189.18 348.77,-192.5 334.5,-192.5 311.09,-192.5 302.49,-183.56 308.71,-174.16"/>
<polygon fill="midnightblue" stroke="midnightblue" points="364.28,-183.98 360.29,-174.16 357.29,-184.32 364.28,-183.98"/>
</g>
<!-- Node7&#45;&gt;Node7 -->
<g id="edge10" class="edge">
<title>Node7&#45;&gt;Node7</title>
<path fill="none" stroke="midnightblue" d="M536.65,-117.46C533.35,-122.18 524.46,-125.5 510,-125.5 486.27,-125.5 477.56,-116.56 483.86,-107.16"/>
<polygon fill="midnightblue" stroke="midnightblue" points="540.13,-116.97 536.14,-107.16 533.14,-117.32 540.13,-116.97"/>
</g>
<!-- Node8 -->
<g id="node8" class="node">
<title>Node8</title>
<g id="a_node8"><a xlink:href="backend_8hpp_a37c88e1409650776ddb3a33d7f2744cb.html#a37c88e1409650776ddb3a33d7f2744cb" target="_top" xlink:title="causes a node to self&#45;downgrade specified pages from its cache, making all previous writes to be prop...">
<polygon fill="white" stroke="black" points="267,-77 267,-107 402,-107 402,-77 267,-77"/>
<text text-anchor="start" x="275" y="-95" font-family="Helvetica,sans-Serif" font-size="10.00">argo::backend::selective</text>
<text text-anchor="middle" x="334.5" y="-84" font-family="Helvetica,sans-Serif" font-size="10.00">_release</text>
</a>
</g>
</g>
<!-- Node7&#45;&gt;Node8 -->
<g id="edge11" class="edge">
<title>Node7&#45;&gt;Node8</title>
<path fill="none" stroke="midnightblue" d="M429.9,-92C420.6,-92 411.18,-92 402.07,-92"/>
<polygon fill="midnightblue" stroke="midnightblue" points="429.93,-95.5 439.93,-92 429.93,-88.5 429.93,-95.5"/>
</g>
<!-- Node8&#45;&gt;Node8 -->
<g id="edge12" class="edge">
<title>Node8&#45;&gt;Node8</title>
<path fill="none" stroke="midnightblue" d="M360.8,-117.46C357.53,-122.18 348.77,-125.5 334.5,-125.5 311.09,-125.5 302.49,-116.56 308.71,-107.16"/>
<polygon fill="midnightblue" stroke="midnightblue" points="364.28,-116.98 360.29,-107.16 357.29,-117.32 364.28,-116.98"/>
</g>
<!-- Node10 -->
<g id="node10" class="node">
<title>Node10</title>
<g id="a_node10"><a xlink:href="swdsm_8cpp_a31ba60e8ddccfa922da8d7e6a10f7b1d.html#a31ba60e8ddccfa922da8d7e6a10f7b1d" target="_top" xlink:title="Initializes ArgoDSM runtime.">
<polygon fill="white" stroke="black" points="143,-19.5 143,-38.5 229,-38.5 229,-19.5 143,-19.5"/>
<text text-anchor="middle" x="186" y="-26.5" font-family="Helvetica,sans-Serif" font-size="10.00">argo_initialize</text>
</a>
</g>
</g>
<!-- Node9&#45;&gt;Node10 -->
<g id="edge14" class="edge">
<title>Node9&#45;&gt;Node10</title>
<path fill="none" stroke="midnightblue" d="M297.7,-29C277,-29 250.83,-29 229.13,-29"/>
<polygon fill="midnightblue" stroke="midnightblue" points="297.98,-32.5 307.98,-29 297.98,-25.5 297.98,-32.5"/>
</g>
<!-- Node11 -->
<g id="node11" class="node">
<title>Node11</title>
<g id="a_node11"><a xlink:href="backend_8hpp_aab3cabb3e1c0b9696b339416b684f78c.html#aab3cabb3e1c0b9696b339416b684f78c" target="_top" xlink:title="initialize backend">
<polygon fill="white" stroke="black" points="0,-19.5 0,-38.5 107,-38.5 107,-19.5 0,-19.5"/>
<text text-anchor="middle" x="53.5" y="-26.5" font-family="Helvetica,sans-Serif" font-size="10.00">argo::backend::init</text>
</a>
</g>
</g>
<!-- Node10&#45;&gt;Node11 -->
<g id="edge15" class="edge">
<title>Node10&#45;&gt;Node11</title>
<path fill="none" stroke="midnightblue" d="M132.94,-29C124.54,-29 115.84,-29 107.43,-29"/>
<polygon fill="midnightblue" stroke="midnightblue" points="132.99,-32.5 142.99,-29 132.99,-25.5 132.99,-32.5"/>
</g>
<!-- Node12&#45;&gt;Node9 -->
<g id="edge17" class="edge">
<title>Node12&#45;&gt;Node9</title>
<path fill="none" stroke="midnightblue" d="M448.83,-16.59C418.78,-19.88 384.02,-23.69 361.01,-26.21"/>
<polygon fill="midnightblue" stroke="midnightblue" points="449.26,-20.06 458.82,-15.5 448.5,-13.11 449.26,-20.06"/>
</g>
</g>
</svg>
