<?xml version="1.0" encoding="UTF-8" standalone="no"?>
<!DOCTYPE svg PUBLIC "-//W3C//DTD SVG 1.1//EN"
 "http://www.w3.org/Graphics/SVG/1.1/DTD/svg11.dtd">
<!-- Generated by graphviz version 2.43.0 (0)
 -->
<!-- Title: argo_reset_coherence Pages: 1 -->
<svg width="427pt" height="96pt"
 viewBox="0.00 0.00 427.00 95.50" xmlns="http://www.w3.org/2000/svg" xmlns:xlink="http://www.w3.org/1999/xlink">
<g id="graph0" class="graph" transform="scale(1 1) rotate(0) translate(4 91.5)">
<title>argo_reset_coherence</title>
<polygon fill="white" stroke="transparent" points="-4,4 -4,-91.5 423,-91.5 423,4 -4,4"/>
<!-- Node1 -->
<g id="node1" class="node">
<title>Node1</title>
<g id="a_node1"><a xlink:title="Resets current ArgoDSM coherence.">
<polygon fill="#bfbfbf" stroke="black" points="295,-37 295,-56 419,-56 419,-37 295,-37"/>
<text text-anchor="middle" x="357" y="-44" font-family="Helvetica,sans-Serif" font-size="10.00">argo_reset_coherence</text>
</a>
</g>
</g>
<!-- Node2 -->
<g id="node2" class="node">
<title>Node2</title>
<g id="a_node2"><a xlink:href="swdsm_8cpp_a31ba60e8ddccfa922da8d7e6a10f7b1d.html#a31ba60e8ddccfa922da8d7e6a10f7b1d" target="_top" xlink:title="Initializes ArgoDSM runtime.">
<polygon fill="white" stroke="black" points="158,-68 158,-87 244,-87 244,-68 158,-68"/>
<text text-anchor="middle" x="201" y="-75" font-family="Helvetica,sans-Serif" font-size="10.00">argo_initialize</text>
</a>
</g>
</g>
<!-- Node1&#45;&gt;Node2 -->
<g id="edge1" class="edge">
<title>Node1&#45;&gt;Node2</title>
<path fill="none" stroke="midnightblue" d="M298.67,-58.04C280.57,-61.68 260.92,-65.64 244.09,-69.03"/>
<polygon fill="midnightblue" stroke="midnightblue" points="299.43,-61.46 308.54,-56.05 298.04,-54.6 299.43,-61.46"/>
</g>
<!-- Node4 -->
<g id="node4" class="node">
<title>Node4</title>
<g id="a_node4"><a xlink:href="backend_8hpp_acb57f009ad65913e26147c6813eda04e.html#acb57f009ad65913e26147c6813eda04e" target="_top" xlink:title="Resets current ArgoDSM coherence.">
<polygon fill="white" stroke="black" points="143,-0.5 143,-30.5 259,-30.5 259,-0.5 143,-0.5"/>
<text text-anchor="start" x="151" y="-18.5" font-family="Helvetica,sans-Serif" font-size="10.00">argo::backend::reset</text>
<text text-anchor="middle" x="201" y="-7.5" font-family="Helvetica,sans-Serif" font-size="10.00">_coherence</text>
</a>
</g>
</g>
<!-- Node1&#45;&gt;Node4 -->
<g id="edge3" class="edge">
<title>Node1&#45;&gt;Node4</title>
<path fill="none" stroke="midnightblue" d="M298.41,-34.91C285.54,-32.32 271.9,-29.57 259.05,-26.98"/>
<polygon fill="midnightblue" stroke="midnightblue" points="298.04,-38.4 308.54,-36.95 299.43,-31.54 298.04,-38.4"/>
</g>
<!-- Node3 -->
<g id="node3" class="node">
<title>Node3</title>
<g id="a_node3"><a xlink:href="backend_8hpp_aab3cabb3e1c0b9696b339416b684f78c.html#aab3cabb3e1c0b9696b339416b684f78c" target="_top" xlink:title="initialize backend">
<polygon fill="white" stroke="black" points="0,-68 0,-87 107,-87 107,-68 0,-68"/>
<text text-anchor="middle" x="53.5" y="-75" font-family="Helvetica,sans-Serif" font-size="10.00">argo::backend::init</text>
</a>
</g>
</g>
<!-- Node2&#45;&gt;Node3 -->
<g id="edge2" class="edge">
<title>Node2&#45;&gt;Node3</title>
<path fill="none" stroke="midnightblue" d="M147.6,-77.5C134.42,-77.5 120.29,-77.5 107.1,-77.5"/>
<polygon fill="midnightblue" stroke="midnightblue" points="147.92,-81 157.92,-77.5 147.92,-74 147.92,-81"/>
</g>
<!-- Node4&#45;&gt;Node4 -->
<g id="edge4" class="edge">
<title>Node4&#45;&gt;Node4</title>
<path fill="none" stroke="midnightblue" d="M226.94,-40.96C223.72,-45.68 215.08,-49 201,-49 177.9,-49 169.42,-40.06 175.56,-30.66"/>
<polygon fill="midnightblue" stroke="midnightblue" points="230.42,-40.48 226.44,-30.66 223.43,-40.82 230.42,-40.48"/>
</g>
</g>
</svg>
