<?xml version="1.0" encoding="UTF-8" standalone="no"?>
<!DOCTYPE svg PUBLIC "-//W3C//DTD SVG 1.1//EN"
 "http://www.w3.org/Graphics/SVG/1.1/DTD/svg11.dtd">
<!-- Generated by graphviz version 2.43.0 (0)
 -->
<!-- Title: get_sharer_win_index Pages: 1 -->
<svg width="945pt" height="512pt"
 viewBox="0.00 0.00 945.00 512.00" xmlns="http://www.w3.org/2000/svg" xmlns:xlink="http://www.w3.org/1999/xlink">
<g id="graph0" class="graph" transform="scale(1 1) rotate(0) translate(4 508)">
<title>get_sharer_win_index</title>
<polygon fill="white" stroke="transparent" points="-4,4 -4,-508 941,-508 941,4 -4,4"/>
<!-- Node1 -->
<g id="node1" class="node">
<title>Node1</title>
<g id="a_node1"><a xlink:title="Gets the sharer window index based on the classification index.">
<polygon fill="#bfbfbf" stroke="black" points="814,-398 814,-417 937,-417 937,-398 814,-398"/>
<text text-anchor="middle" x="875.5" y="-405" font-family="Helvetica,sans-Serif" font-size="10.00">get_sharer_win_index</text>
</a>
</g>
</g>
<!-- Node2 -->
<g id="node2" class="node">
<title>Node2</title>
<g id="a_node2"><a xlink:href="backend_8hpp_a0fb29a8253f0d9aefc999d93414b1758.html#a0fb29a8253f0d9aefc999d93414b1758" target="_top" xlink:title="backend internal type erased function for selective acquire">
<polygon fill="white" stroke="black" points="638,-455.5 638,-485.5 778,-485.5 778,-455.5 638,-455.5"/>
<text text-anchor="start" x="646" y="-473.5" font-family="Helvetica,sans-Serif" font-size="10.00">argo::backend::_selective</text>
<text text-anchor="middle" x="708" y="-462.5" font-family="Helvetica,sans-Serif" font-size="10.00">_acquire</text>
</a>
</g>
</g>
<!-- Node1&#45;&gt;Node2 -->
<g id="edge1" class="edge">
<title>Node1&#45;&gt;Node2</title>
<path fill="none" stroke="midnightblue" d="M839.69,-420.75C813.06,-430.89 776.32,-444.87 748.58,-455.43"/>
<polygon fill="midnightblue" stroke="midnightblue" points="841.26,-423.9 849.36,-417.07 838.77,-417.35 841.26,-423.9"/>
</g>
<!-- Node4 -->
<g id="node4" class="node">
<title>Node4</title>
<g id="a_node4"><a xlink:href="swdsm_8cpp_a92a73a9ea2009afcbef38b3e88b9ac0f.html#a92a73a9ea2009afcbef38b3e88b9ac0f" target="_top" xlink:title="load into cache helper function">
<polygon fill="white" stroke="black" points="483.5,-417 483.5,-436 585.5,-436 585.5,-417 483.5,-417"/>
<text text-anchor="middle" x="534.5" y="-424" font-family="Helvetica,sans-Serif" font-size="10.00">load_cache_entry</text>
</a>
</g>
</g>
<!-- Node1&#45;&gt;Node4 -->
<g id="edge5" class="edge">
<title>Node1&#45;&gt;Node4</title>
<path fill="none" stroke="midnightblue" d="M803.69,-411.47C738.47,-415.12 643.34,-420.46 585.65,-423.69"/>
<polygon fill="midnightblue" stroke="midnightblue" points="804.11,-414.95 813.89,-410.9 803.71,-407.96 804.11,-414.95"/>
</g>
<!-- Node8 -->
<g id="node8" class="node">
<title>Node8</title>
<g id="a_node8"><a xlink:href="swdsm_8cpp_aa7c3a2de6bbafdaf68fe6ceb6110ab97.html#aa7c3a2de6bbafdaf68fe6ceb6110ab97" target="_top" xlink:title="Self&#45;Invalidates all memory that has potential writers.">
<polygon fill="white" stroke="black" points="659,-265 659,-284 757,-284 757,-265 659,-265"/>
<text text-anchor="middle" x="708" y="-272" font-family="Helvetica,sans-Serif" font-size="10.00">self_invalidation</text>
</a>
</g>
</g>
<!-- Node1&#45;&gt;Node8 -->
<g id="edge9" class="edge">
<title>Node1&#45;&gt;Node8</title>
<path fill="none" stroke="midnightblue" d="M854.61,-391.52C819.98,-363.68 749.59,-307.12 721.24,-284.34"/>
<polygon fill="midnightblue" stroke="midnightblue" points="852.61,-394.4 862.6,-397.93 857,-388.94 852.61,-394.4"/>
</g>
<!-- Node22 -->
<g id="node22" class="node">
<title>Node22</title>
<g id="a_node22"><a xlink:href="swdsm_8cpp_a2a2d9247bd62413b221876836b39dafb.html#a2a2d9247bd62413b221876836b39dafb" target="_top" xlink:title="Locks the correct mpi_lock_sharer, performs operation op and then unlocks the locked mpi_lock_sharer.">
<polygon fill="white" stroke="black" points="675.5,-379 675.5,-398 740.5,-398 740.5,-379 675.5,-379"/>
<text text-anchor="middle" x="708" y="-386" font-family="Helvetica,sans-Serif" font-size="10.00">sharer_op</text>
</a>
</g>
</g>
<!-- Node1&#45;&gt;Node22 -->
<g id="edge31" class="edge">
<title>Node1&#45;&gt;Node22</title>
<path fill="none" stroke="midnightblue" d="M803.84,-399.39C781.89,-396.87 758.79,-394.22 740.88,-392.16"/>
<polygon fill="midnightblue" stroke="midnightblue" points="803.48,-402.87 813.81,-400.53 804.28,-395.92 803.48,-402.87"/>
</g>
<!-- Node2&#45;&gt;Node2 -->
<g id="edge2" class="edge">
<title>Node2&#45;&gt;Node2</title>
<path fill="none" stroke="midnightblue" d="M737.5,-495.96C733.84,-500.68 724,-504 708,-504 681.74,-504 672.1,-495.06 679.07,-485.66"/>
<polygon fill="midnightblue" stroke="midnightblue" points="740.97,-495.45 736.93,-485.66 733.98,-495.84 740.97,-495.45"/>
</g>
<!-- Node3 -->
<g id="node3" class="node">
<title>Node3</title>
<g id="a_node3"><a xlink:href="backend_8hpp_aad1b8c62447de8cc06b7b4f031b77b01.html#aad1b8c62447de8cc06b7b4f031b77b01" target="_top" xlink:title="causes a node to self&#45;invalidate the specified pages from its cache, and thus getting any updated val...">
<polygon fill="white" stroke="black" points="467,-455.5 467,-485.5 602,-485.5 602,-455.5 467,-455.5"/>
<text text-anchor="start" x="475" y="-473.5" font-family="Helvetica,sans-Serif" font-size="10.00">argo::backend::selective</text>
<text text-anchor="middle" x="534.5" y="-462.5" font-family="Helvetica,sans-Serif" font-size="10.00">_acquire</text>
</a>
</g>
</g>
<!-- Node2&#45;&gt;Node3 -->
<g id="edge3" class="edge">
<title>Node2&#45;&gt;Node3</title>
<path fill="none" stroke="midnightblue" d="M627.5,-470.5C619.05,-470.5 610.52,-470.5 602.24,-470.5"/>
<polygon fill="midnightblue" stroke="midnightblue" points="627.74,-474 637.74,-470.5 627.74,-467 627.74,-474"/>
</g>
<!-- Node3&#45;&gt;Node3 -->
<g id="edge4" class="edge">
<title>Node3&#45;&gt;Node3</title>
<path fill="none" stroke="midnightblue" d="M564,-495.96C560.34,-500.68 550.5,-504 534.5,-504 508.24,-504 498.6,-495.06 505.57,-485.66"/>
<polygon fill="midnightblue" stroke="midnightblue" points="567.47,-495.45 563.43,-485.66 560.48,-495.84 567.47,-495.45"/>
</g>
<!-- Node5 -->
<g id="node5" class="node">
<title>Node5</title>
<g id="a_node5"><a xlink:href="swdsm_8cpp_adb24c11067d42b9bc8515a78a524e2c7.html#adb24c11067d42b9bc8515a78a524e2c7" target="_top" xlink:title="Catches memory accesses to memory not yet cached in ArgoDSM. Launches remote requests for memory not ...">
<polygon fill="white" stroke="black" points="341,-403 341,-422 394,-422 394,-403 341,-403"/>
<text text-anchor="middle" x="367.5" y="-410" font-family="Helvetica,sans-Serif" font-size="10.00">handler</text>
</a>
</g>
</g>
<!-- Node4&#45;&gt;Node5 -->
<g id="edge6" class="edge">
<title>Node4&#45;&gt;Node5</title>
<path fill="none" stroke="midnightblue" d="M472.89,-421.36C445.76,-419.06 415.22,-416.46 394.22,-414.68"/>
<polygon fill="midnightblue" stroke="midnightblue" points="472.84,-424.87 483.1,-422.22 473.43,-417.89 472.84,-424.87"/>
</g>
<!-- Node6 -->
<g id="node6" class="node">
<title>Node6</title>
<g id="a_node6"><a xlink:href="swdsm_8cpp_a31ba60e8ddccfa922da8d7e6a10f7b1d.html#a31ba60e8ddccfa922da8d7e6a10f7b1d" target="_top" xlink:title="Initializes ArgoDSM runtime.">
<polygon fill="white" stroke="black" points="162.5,-403 162.5,-422 248.5,-422 248.5,-403 162.5,-403"/>
<text text-anchor="middle" x="205.5" y="-410" font-family="Helvetica,sans-Serif" font-size="10.00">argo_initialize</text>
</a>
</g>
</g>
<!-- Node5&#45;&gt;Node6 -->
<g id="edge7" class="edge">
<title>Node5&#45;&gt;Node6</title>
<path fill="none" stroke="midnightblue" d="M330.58,-412.5C306.31,-412.5 274.17,-412.5 248.68,-412.5"/>
<polygon fill="midnightblue" stroke="midnightblue" points="330.79,-416 340.79,-412.5 330.79,-409 330.79,-416"/>
</g>
<!-- Node7 -->
<g id="node7" class="node">
<title>Node7</title>
<g id="a_node7"><a xlink:href="backend_8hpp_aab3cabb3e1c0b9696b339416b684f78c.html#aab3cabb3e1c0b9696b339416b684f78c" target="_top" xlink:title="initialize backend">
<polygon fill="white" stroke="black" points="0,-403 0,-422 107,-422 107,-403 0,-403"/>
<text text-anchor="middle" x="53.5" y="-410" font-family="Helvetica,sans-Serif" font-size="10.00">argo::backend::init</text>
</a>
</g>
</g>
<!-- Node6&#45;&gt;Node7 -->
<g id="edge8" class="edge">
<title>Node6&#45;&gt;Node7</title>
<path fill="none" stroke="midnightblue" d="M151.97,-412.5C137.42,-412.5 121.62,-412.5 107.06,-412.5"/>
<polygon fill="midnightblue" stroke="midnightblue" points="152.32,-416 162.32,-412.5 152.32,-409 152.32,-416"/>
</g>
<!-- Node9 -->
<g id="node9" class="node">
<title>Node9</title>
<g id="a_node9"><a xlink:href="swdsm_8cpp_a44b8bb7a3c8b47b4f9552c8e10b25e4b.html#a44b8bb7a3c8b47b4f9552c8e10b25e4b" target="_top" xlink:title="acquire function for ArgoDSM (Acquire according to Release Consistency)">
<polygon fill="white" stroke="black" points="494.5,-165 494.5,-184 574.5,-184 574.5,-165 494.5,-165"/>
<text text-anchor="middle" x="534.5" y="-172" font-family="Helvetica,sans-Serif" font-size="10.00">argo_acquire</text>
</a>
</g>
</g>
<!-- Node8&#45;&gt;Node9 -->
<g id="edge10" class="edge">
<title>Node8&#45;&gt;Node9</title>
<path fill="none" stroke="midnightblue" d="M681.72,-259.76C646.05,-238.96 581.95,-201.58 551.89,-184.06"/>
<polygon fill="midnightblue" stroke="midnightblue" points="680.15,-262.9 690.56,-264.91 683.68,-256.85 680.15,-262.9"/>
</g>
<!-- Node17 -->
<g id="node17" class="node">
<title>Node17</title>
<g id="a_node17"><a xlink:href="swdsm_8cpp_aca8a35703563223a3e182ebc897e2b40.html#aca8a35703563223a3e182ebc897e2b40" target="_top" xlink:title="Global barrier for ArgoDSM &#45; needs to be called by every thread in the system that need coherent view...">
<polygon fill="white" stroke="black" points="476.5,-265 476.5,-284 592.5,-284 592.5,-265 476.5,-265"/>
<text text-anchor="middle" x="534.5" y="-272" font-family="Helvetica,sans-Serif" font-size="10.00">swdsm_argo_barrier</text>
</a>
</g>
</g>
<!-- Node8&#45;&gt;Node17 -->
<g id="edge24" class="edge">
<title>Node8&#45;&gt;Node17</title>
<path fill="none" stroke="midnightblue" d="M648.67,-274.5C630.62,-274.5 610.76,-274.5 592.78,-274.5"/>
<polygon fill="midnightblue" stroke="midnightblue" points="648.77,-278 658.77,-274.5 648.77,-271 648.77,-278"/>
</g>
<!-- Node10 -->
<g id="node10" class="node">
<title>Node10</title>
<g id="a_node10"><a xlink:href="backend_8hpp_a1032f833666c3f810ac1c6210197d426.html#a1032f833666c3f810ac1c6210197d426" target="_top" xlink:title="causes a node to self&#45;invalidate its cache, and thus getting any updated values on subsequent accesse...">
<polygon fill="white" stroke="black" points="304,-165 304,-184 431,-184 431,-165 304,-165"/>
<text text-anchor="middle" x="367.5" y="-172" font-family="Helvetica,sans-Serif" font-size="10.00">argo::backend::acquire</text>
</a>
</g>
</g>
<!-- Node9&#45;&gt;Node10 -->
<g id="edge11" class="edge">
<title>Node9&#45;&gt;Node10</title>
<path fill="none" stroke="midnightblue" d="M484.32,-174.5C467.64,-174.5 448.77,-174.5 431.18,-174.5"/>
<polygon fill="midnightblue" stroke="midnightblue" points="484.4,-178 494.4,-174.5 484.4,-171 484.4,-178"/>
</g>
<!-- Node16 -->
<g id="node16" class="node">
<title>Node16</title>
<g id="a_node16"><a xlink:href="swdsm_8cpp_ac0b665f72bc2a28dc663ed204c526e1b.html#ac0b665f72bc2a28dc663ed204c526e1b" target="_top" xlink:title="acquire&#45;release function for ArgoDSM (Both acquire and release according to Release Consistency)">
<polygon fill="white" stroke="black" points="328,-127 328,-146 407,-146 407,-127 328,-127"/>
<text text-anchor="middle" x="367.5" y="-134" font-family="Helvetica,sans-Serif" font-size="10.00">argo_acq_rel</text>
</a>
</g>
</g>
<!-- Node9&#45;&gt;Node16 -->
<g id="edge23" class="edge">
<title>Node9&#45;&gt;Node16</title>
<path fill="none" stroke="midnightblue" d="M484.47,-163.21C459.72,-157.51 430.13,-150.69 407.04,-145.38"/>
<polygon fill="midnightblue" stroke="midnightblue" points="483.87,-166.66 494.4,-165.49 485.44,-159.84 483.87,-166.66"/>
</g>
<!-- Node10&#45;&gt;Node10 -->
<g id="edge12" class="edge">
<title>Node10&#45;&gt;Node10</title>
<path fill="none" stroke="midnightblue" d="M397.81,-192.77C396.95,-198.24 386.85,-202.5 367.5,-202.5 338.71,-202.5 330.38,-193.07 342.53,-184.26"/>
<polygon fill="midnightblue" stroke="midnightblue" points="400.75,-190.87 392.47,-184.26 394.82,-194.59 400.75,-190.87"/>
</g>
<!-- Node11 -->
<g id="node11" class="node">
<title>Node11</title>
<g id="a_node11"><a xlink:href="backend_8hpp_a8e7144eaa88e3a94eb4e5fb8efb423a4.html#a8e7144eaa88e3a94eb4e5fb8efb423a4" target="_top" xlink:title="Atomic CAS operation on a global address.">
<polygon fill="white" stroke="black" points="143,-268.5 143,-298.5 268,-298.5 268,-268.5 143,-268.5"/>
<text text-anchor="start" x="151" y="-286.5" font-family="Helvetica,sans-Serif" font-size="10.00">argo::backend::atomic</text>
<text text-anchor="middle" x="205.5" y="-275.5" font-family="Helvetica,sans-Serif" font-size="10.00">::compare_exchange</text>
</a>
</g>
</g>
<!-- Node10&#45;&gt;Node11 -->
<g id="edge13" class="edge">
<title>Node10&#45;&gt;Node11</title>
<path fill="none" stroke="midnightblue" d="M350.15,-191.37C331.59,-209.78 299.76,-239.2 268,-258.5 261.99,-262.15 255.36,-265.48 248.73,-268.44"/>
<polygon fill="midnightblue" stroke="midnightblue" points="352.69,-193.78 357.25,-184.22 347.72,-188.85 352.69,-193.78"/>
</g>
<!-- Node12 -->
<g id="node12" class="node">
<title>Node12</title>
<g id="a_node12"><a xlink:href="backend_8hpp_abe831501c00abf39b0519eef6789933f.html#abe831501c00abf39b0519eef6789933f" target="_top" xlink:title="atomic swap operation on a global address">
<polygon fill="white" stroke="black" points="143,-201.5 143,-231.5 268,-231.5 268,-201.5 143,-201.5"/>
<text text-anchor="start" x="151" y="-219.5" font-family="Helvetica,sans-Serif" font-size="10.00">argo::backend::atomic</text>
<text text-anchor="middle" x="205.5" y="-208.5" font-family="Helvetica,sans-Serif" font-size="10.00">::exchange</text>
</a>
</g>
</g>
<!-- Node10&#45;&gt;Node12 -->
<g id="edge15" class="edge">
<title>Node10&#45;&gt;Node12</title>
<path fill="none" stroke="midnightblue" d="M320.15,-186.67C302.52,-191.3 282.21,-196.63 263.69,-201.49"/>
<polygon fill="midnightblue" stroke="midnightblue" points="321.41,-189.95 330.19,-184.03 319.63,-183.18 321.41,-189.95"/>
</g>
<!-- Node13 -->
<g id="node13" class="node">
<title>Node13</title>
<g id="a_node13"><a xlink:href="backend_8hpp_afd1987dffd4e9100c88c457234f64a52.html#afd1987dffd4e9100c88c457234f64a52" target="_top" xlink:title="Atomic fetch and add operation on a global address.">
<polygon fill="white" stroke="black" points="143,-134.5 143,-164.5 268,-164.5 268,-134.5 143,-134.5"/>
<text text-anchor="start" x="151" y="-152.5" font-family="Helvetica,sans-Serif" font-size="10.00">argo::backend::atomic</text>
<text text-anchor="middle" x="205.5" y="-141.5" font-family="Helvetica,sans-Serif" font-size="10.00">::fetch_add</text>
</a>
</g>
</g>
<!-- Node10&#45;&gt;Node13 -->
<g id="edge17" class="edge">
<title>Node10&#45;&gt;Node13</title>
<path fill="none" stroke="midnightblue" d="M295.66,-163.43C286.46,-161.99 277.1,-160.53 268.07,-159.12"/>
<polygon fill="midnightblue" stroke="midnightblue" points="295.13,-166.89 305.55,-164.98 296.21,-159.98 295.13,-166.89"/>
</g>
<!-- Node14 -->
<g id="node14" class="node">
<title>Node14</title>
<g id="a_node14"><a xlink:href="backend_8hpp_abcb3b11cf70d5b8009edfabaa08def9d.html#abcb3b11cf70d5b8009edfabaa08def9d" target="_top" xlink:title="Atomic load operation on a global address.">
<polygon fill="white" stroke="black" points="143,-67.5 143,-97.5 268,-97.5 268,-67.5 143,-67.5"/>
<text text-anchor="start" x="151" y="-85.5" font-family="Helvetica,sans-Serif" font-size="10.00">argo::backend::atomic</text>
<text text-anchor="middle" x="205.5" y="-74.5" font-family="Helvetica,sans-Serif" font-size="10.00">::load</text>
</a>
</g>
</g>
<!-- Node10&#45;&gt;Node14 -->
<g id="edge19" class="edge">
<title>Node10&#45;&gt;Node14</title>
<path fill="none" stroke="midnightblue" d="M316.55,-161.4C312.21,-159.64 307.96,-157.68 304,-155.5 285.5,-145.32 284.74,-137.36 268,-124.5 255.8,-115.13 241.65,-105.39 230,-97.66"/>
<polygon fill="midnightblue" stroke="midnightblue" points="315.56,-164.76 326.15,-164.94 317.97,-158.2 315.56,-164.76"/>
</g>
<!-- Node15 -->
<g id="node15" class="node">
<title>Node15</title>
<g id="a_node15"><a xlink:href="backend_8hpp_a360aa0082e4b2bfe2f6c19d333ff56fa.html#a360aa0082e4b2bfe2f6c19d333ff56fa" target="_top" xlink:title="Atomic store operation on a global address.">
<polygon fill="white" stroke="black" points="143,-0.5 143,-30.5 268,-30.5 268,-0.5 143,-0.5"/>
<text text-anchor="start" x="151" y="-18.5" font-family="Helvetica,sans-Serif" font-size="10.00">argo::backend::atomic</text>
<text text-anchor="middle" x="205.5" y="-7.5" font-family="Helvetica,sans-Serif" font-size="10.00">::store</text>
</a>
</g>
</g>
<!-- Node10&#45;&gt;Node15 -->
<g id="edge21" class="edge">
<title>Node10&#45;&gt;Node15</title>
<path fill="none" stroke="midnightblue" d="M309.38,-159.86C307.48,-158.53 305.67,-157.08 304,-155.5 270.27,-123.64 296.52,-94.1 268,-57.5 259.5,-46.59 247.36,-37.46 236.11,-30.53"/>
<polygon fill="midnightblue" stroke="midnightblue" points="307.82,-163 318.23,-164.96 311.31,-156.93 307.82,-163"/>
</g>
<!-- Node11&#45;&gt;Node11 -->
<g id="edge14" class="edge">
<title>Node11&#45;&gt;Node11</title>
<path fill="none" stroke="midnightblue" d="M232.51,-308.96C229.16,-313.68 220.15,-317 205.5,-317 181.45,-317 172.62,-308.06 179.01,-298.66"/>
<polygon fill="midnightblue" stroke="midnightblue" points="235.99,-308.47 231.99,-298.66 229,-308.82 235.99,-308.47"/>
</g>
<!-- Node12&#45;&gt;Node12 -->
<g id="edge16" class="edge">
<title>Node12&#45;&gt;Node12</title>
<path fill="none" stroke="midnightblue" d="M232.51,-241.96C229.16,-246.68 220.15,-250 205.5,-250 181.45,-250 172.62,-241.06 179.01,-231.66"/>
<polygon fill="midnightblue" stroke="midnightblue" points="235.99,-241.47 231.99,-231.66 229,-241.82 235.99,-241.47"/>
</g>
<!-- Node13&#45;&gt;Node13 -->
<g id="edge18" class="edge">
<title>Node13&#45;&gt;Node13</title>
<path fill="none" stroke="midnightblue" d="M232.51,-174.96C229.16,-179.68 220.15,-183 205.5,-183 181.45,-183 172.62,-174.06 179.01,-164.66"/>
<polygon fill="midnightblue" stroke="midnightblue" points="235.99,-174.47 231.99,-164.66 229,-174.82 235.99,-174.47"/>
</g>
<!-- Node14&#45;&gt;Node14 -->
<g id="edge20" class="edge">
<title>Node14&#45;&gt;Node14</title>
<path fill="none" stroke="midnightblue" d="M232.51,-107.96C229.16,-112.68 220.15,-116 205.5,-116 181.45,-116 172.62,-107.06 179.01,-97.66"/>
<polygon fill="midnightblue" stroke="midnightblue" points="235.99,-107.47 231.99,-97.66 229,-107.82 235.99,-107.47"/>
</g>
<!-- Node15&#45;&gt;Node15 -->
<g id="edge22" class="edge">
<title>Node15&#45;&gt;Node15</title>
<path fill="none" stroke="midnightblue" d="M232.51,-40.96C229.16,-45.68 220.15,-49 205.5,-49 181.45,-49 172.62,-40.06 179.01,-30.66"/>
<polygon fill="midnightblue" stroke="midnightblue" points="235.99,-40.47 231.99,-30.66 229,-40.82 235.99,-40.47"/>
</g>
<!-- Node18 -->
<g id="node18" class="node">
<title>Node18</title>
<g id="a_node18"><a xlink:href="swdsm_8cpp_aa954d5e0bcaee69ff6e03e697bcaf68b.html#aa954d5e0bcaee69ff6e03e697bcaf68b" target="_top" xlink:title="shut down ArgoDSM system">
<polygon fill="white" stroke="black" points="328,-284 328,-303 407,-303 407,-284 328,-284"/>
<text text-anchor="middle" x="367.5" y="-291" font-family="Helvetica,sans-Serif" font-size="10.00">argo_finalize</text>
</a>
</g>
</g>
<!-- Node17&#45;&gt;Node18 -->
<g id="edge25" class="edge">
<title>Node17&#45;&gt;Node18</title>
<path fill="none" stroke="midnightblue" d="M466.21,-282.25C446.14,-284.56 424.83,-287.01 407.24,-289.04"/>
<polygon fill="midnightblue" stroke="midnightblue" points="466.72,-285.71 476.25,-281.09 465.92,-278.76 466.72,-285.71"/>
</g>
<!-- Node19 -->
<g id="node19" class="node">
<title>Node19</title>
<g id="a_node19"><a xlink:href="swdsm_8cpp_adb17e929b24ae3fd6898035fce958122.html#adb17e929b24ae3fd6898035fce958122" target="_top" xlink:title="Resets current ArgoDSM coherence.">
<polygon fill="white" stroke="black" points="305.5,-341 305.5,-360 429.5,-360 429.5,-341 305.5,-341"/>
<text text-anchor="middle" x="367.5" y="-348" font-family="Helvetica,sans-Serif" font-size="10.00">argo_reset_coherence</text>
</a>
</g>
</g>
<!-- Node17&#45;&gt;Node19 -->
<g id="edge26" class="edge">
<title>Node17&#45;&gt;Node19</title>
<path fill="none" stroke="midnightblue" d="M484.12,-287.13C478.27,-289.06 472.45,-291.19 467,-293.5 450.36,-300.56 407.18,-326.66 383.9,-340.96"/>
<polygon fill="midnightblue" stroke="midnightblue" points="485.41,-290.39 493.91,-284.08 483.32,-283.71 485.41,-290.39"/>
</g>
<!-- Node21 -->
<g id="node21" class="node">
<title>Node21</title>
<g id="a_node21"><a xlink:href="backend_8hpp_adc47b610451cff63f21d023dc31b1945.html#adc47b610451cff63f21d023dc31b1945" target="_top" xlink:title="a simple collective barrier">
<polygon fill="white" stroke="black" points="306,-246 306,-265 429,-265 429,-246 306,-246"/>
<text text-anchor="middle" x="367.5" y="-253" font-family="Helvetica,sans-Serif" font-size="10.00">argo::backend::barrier</text>
</a>
</g>
</g>
<!-- Node17&#45;&gt;Node21 -->
<g id="edge30" class="edge">
<title>Node17&#45;&gt;Node21</title>
<path fill="none" stroke="midnightblue" d="M466.08,-266.74C453.81,-265.32 441.07,-263.86 429.01,-262.47"/>
<polygon fill="midnightblue" stroke="midnightblue" points="465.92,-270.24 476.25,-267.91 466.72,-263.29 465.92,-270.24"/>
</g>
<!-- Node19&#45;&gt;Node6 -->
<g id="edge27" class="edge">
<title>Node19&#45;&gt;Node6</title>
<path fill="none" stroke="midnightblue" d="M337.18,-364.33C317.78,-373.22 291.64,-384.72 268,-393.5 258.99,-396.85 249.09,-400.09 239.92,-402.92"/>
<polygon fill="midnightblue" stroke="midnightblue" points="338.79,-367.44 346.4,-360.07 335.85,-361.09 338.79,-367.44"/>
</g>
<!-- Node20 -->
<g id="node20" class="node">
<title>Node20</title>
<g id="a_node20"><a xlink:href="backend_8hpp_acb57f009ad65913e26147c6813eda04e.html#acb57f009ad65913e26147c6813eda04e" target="_top" xlink:title="Resets current ArgoDSM coherence.">
<polygon fill="white" stroke="black" points="147.5,-335.5 147.5,-365.5 263.5,-365.5 263.5,-335.5 147.5,-335.5"/>
<text text-anchor="start" x="155.5" y="-353.5" font-family="Helvetica,sans-Serif" font-size="10.00">argo::backend::reset</text>
<text text-anchor="middle" x="205.5" y="-342.5" font-family="Helvetica,sans-Serif" font-size="10.00">_coherence</text>
</a>
</g>
</g>
<!-- Node19&#45;&gt;Node20 -->
<g id="edge28" class="edge">
<title>Node19&#45;&gt;Node20</title>
<path fill="none" stroke="midnightblue" d="M295.06,-350.5C284.51,-350.5 273.75,-350.5 263.54,-350.5"/>
<polygon fill="midnightblue" stroke="midnightblue" points="295.1,-354 305.1,-350.5 295.1,-347 295.1,-354"/>
</g>
<!-- Node20&#45;&gt;Node20 -->
<g id="edge29" class="edge">
<title>Node20&#45;&gt;Node20</title>
<path fill="none" stroke="midnightblue" d="M232.51,-375.96C229.16,-380.68 220.15,-384 205.5,-384 181.45,-384 172.62,-375.06 179.01,-365.66"/>
<polygon fill="midnightblue" stroke="midnightblue" points="235.99,-375.47 231.99,-365.66 229,-375.82 235.99,-375.47"/>
</g>
<!-- Node22&#45;&gt;Node4 -->
<g id="edge34" class="edge">
<title>Node22&#45;&gt;Node4</title>
<path fill="none" stroke="midnightblue" d="M665.11,-397.78C638.82,-403.61 605,-411.1 578.5,-416.97"/>
<polygon fill="midnightblue" stroke="midnightblue" points="666.14,-401.14 675.14,-395.56 664.62,-394.3 666.14,-401.14"/>
</g>
<!-- Node22&#45;&gt;Node5 -->
<g id="edge33" class="edge">
<title>Node22&#45;&gt;Node5</title>
<path fill="none" stroke="midnightblue" d="M665.12,-391.47C594.23,-396.5 452.62,-406.54 394.41,-410.66"/>
<polygon fill="midnightblue" stroke="midnightblue" points="665.73,-394.93 675.46,-390.74 665.24,-387.95 665.73,-394.93"/>
</g>
<!-- Node22&#45;&gt;Node19 -->
<g id="edge32" class="edge">
<title>Node22&#45;&gt;Node19</title>
<path fill="none" stroke="midnightblue" d="M665.38,-383.83C606.32,-377.2 497.82,-365.02 429.62,-357.36"/>
<polygon fill="midnightblue" stroke="midnightblue" points="665.13,-387.32 675.46,-384.96 665.91,-380.37 665.13,-387.32"/>
</g>
<!-- Node23 -->
<g id="node23" class="node">
<title>Node23</title>
<g id="a_node23"><a xlink:href="swdsm_8cpp_adafea891224a2b1860cbc6afe9610334.html#adafea891224a2b1860cbc6afe9610334" target="_top" xlink:title="Perform upgrade of page classifications.">
<polygon fill="white" stroke="black" points="494.5,-303 494.5,-322 574.5,-322 574.5,-303 494.5,-303"/>
<text text-anchor="middle" x="534.5" y="-310" font-family="Helvetica,sans-Serif" font-size="10.00">self_upgrade</text>
</a>
</g>
</g>
<!-- Node22&#45;&gt;Node23 -->
<g id="edge35" class="edge">
<title>Node22&#45;&gt;Node23</title>
<path fill="none" stroke="midnightblue" d="M680.12,-374.13C659.14,-363.18 629.1,-348.06 602,-336.5 589.81,-331.3 576.07,-326.22 564.25,-322.08"/>
<polygon fill="midnightblue" stroke="midnightblue" points="678.6,-377.29 689.08,-378.85 681.86,-371.09 678.6,-377.29"/>
</g>
</g>
</svg>
