<?xml version="1.0" encoding="UTF-8" standalone="no"?>
<!DOCTYPE svg PUBLIC "-//W3C//DTD SVG 1.1//EN"
 "http://www.w3.org/Graphics/SVG/1.1/DTD/svg11.dtd">
<!-- Generated by graphviz version 2.43.0 (0)
 -->
<!-- Title: peek_homenode Pages: 1 -->
<svg width="588pt" height="39pt"
 viewBox="0.00 0.00 588.00 39.00" xmlns="http://www.w3.org/2000/svg" xmlns:xlink="http://www.w3.org/1999/xlink">
<g id="graph0" class="graph" transform="scale(1 1) rotate(0) translate(4 35)">
<title>peek_homenode</title>
<polygon fill="white" stroke="transparent" points="-4,4 -4,-35 584,-35 584,4 -4,4"/>
<!-- Node1 -->
<g id="node1" class="node">
<title>Node1</title>
<g id="a_node1"><a xlink:title="Gives homenode for a given address.">
<polygon fill="#bfbfbf" stroke="black" points="0,-6 0,-25 98,-25 98,-6 0,-6"/>
<text text-anchor="middle" x="49" y="-13" font-family="Helvetica,sans-Serif" font-size="10.00">peek_homenode</text>
</a>
</g>
</g>
<!-- Node2 -->
<g id="node2" class="node">
<title>Node2</title>
<g id="a_node2"><a xlink:href="classargo_1_1data__distribution_1_1global__ptr_a3e2cdd4d323ef91174615e27ab94e342.html#a3e2cdd4d323ef91174615e27ab94e342" target="_top" xlink:title="return the home node of the value pointed to, or a default value if the page has not yet been first&#45;t...">
<polygon fill="white" stroke="black" points="134,-0.5 134,-30.5 265,-30.5 265,-0.5 134,-0.5"/>
<text text-anchor="start" x="142" y="-18.5" font-family="Helvetica,sans-Serif" font-size="10.00">argo::data_distribution</text>
<text text-anchor="middle" x="199.5" y="-7.5" font-family="Helvetica,sans-Serif" font-size="10.00">::global_ptr::peek_node</text>
</a>
</g>
</g>
<!-- Node1&#45;&gt;Node2 -->
<g id="edge1" class="edge">
<title>Node1&#45;&gt;Node2</title>
<path fill="none" stroke="midnightblue" d="M98.21,-15.5C106.37,-15.5 115.01,-15.5 123.65,-15.5"/>
<polygon fill="midnightblue" stroke="midnightblue" points="123.78,-19 133.78,-15.5 123.78,-12 123.78,-19"/>
</g>
<!-- Node3 -->
<g id="node3" class="node">
<title>Node3</title>
<g id="a_node3"><a xlink:href="classargo_1_1data__distribution_1_1global__ptr_ae4353680349f6abbd2cf262dace8e2f2.html#ae4353680349f6abbd2cf262dace8e2f2" target="_top" xlink:title="return a pointer to the selected allocation policy">
<polygon fill="white" stroke="black" points="301,-0.5 301,-30.5 428,-30.5 428,-0.5 301,-0.5"/>
<text text-anchor="start" x="309" y="-18.5" font-family="Helvetica,sans-Serif" font-size="10.00">argo::data_distribution</text>
<text text-anchor="middle" x="364.5" y="-7.5" font-family="Helvetica,sans-Serif" font-size="10.00">::global_ptr::policy</text>
</a>
</g>
</g>
<!-- Node2&#45;&gt;Node3 -->
<g id="edge2" class="edge">
<title>Node2&#45;&gt;Node3</title>
<path fill="none" stroke="midnightblue" d="M265.39,-15.5C273.72,-15.5 282.3,-15.5 290.74,-15.5"/>
<polygon fill="midnightblue" stroke="midnightblue" points="290.96,-19 300.96,-15.5 290.96,-12 290.96,-19"/>
</g>
<!-- Node4 -->
<g id="node4" class="node">
<title>Node4</title>
<g id="a_node4"><a xlink:href="namespaceargo_1_1env_a25a08cb2d0d11432d640ec7173063339.html#a25a08cb2d0d11432d640ec7173063339" target="_top" xlink:title="get the allocation policy requested by environment variable">
<polygon fill="white" stroke="black" points="464,-0.5 464,-30.5 580,-30.5 580,-0.5 464,-0.5"/>
<text text-anchor="start" x="472" y="-18.5" font-family="Helvetica,sans-Serif" font-size="10.00">argo::env::allocation</text>
<text text-anchor="middle" x="522" y="-7.5" font-family="Helvetica,sans-Serif" font-size="10.00">_policy</text>
</a>
</g>
</g>
<!-- Node3&#45;&gt;Node4 -->
<g id="edge3" class="edge">
<title>Node3&#45;&gt;Node4</title>
<path fill="none" stroke="midnightblue" d="M428.3,-15.5C436.69,-15.5 445.32,-15.5 453.78,-15.5"/>
<polygon fill="midnightblue" stroke="midnightblue" points="453.99,-19 463.99,-15.5 453.99,-12 453.99,-19"/>
</g>
</g>
</svg>
