<?xml version="1.0" encoding="UTF-8" standalone="no"?>
<!DOCTYPE svg PUBLIC "-//W3C//DTD SVG 1.1//EN"
 "http://www.w3.org/Graphics/SVG/1.1/DTD/svg11.dtd">
<!-- Generated by graphviz version 2.43.0 (0)
 -->
<!-- Title: argo_reset_coherence Pages: 1 -->
<svg width="621pt" height="242pt"
 viewBox="0.00 0.00 621.00 241.50" xmlns="http://www.w3.org/2000/svg" xmlns:xlink="http://www.w3.org/1999/xlink">
<g id="graph0" class="graph" transform="scale(1 1) rotate(0) translate(4 237.5)">
<title>argo_reset_coherence</title>
<polygon fill="white" stroke="transparent" points="-4,4 -4,-237.5 617,-237.5 617,4 -4,4"/>
<!-- Node1 -->
<g id="node1" class="node">
<title>Node1</title>
<g id="a_node1"><a xlink:title="Resets current ArgoDSM coherence.">
<polygon fill="#bfbfbf" stroke="black" points="0,-110 0,-129 124,-129 124,-110 0,-110"/>
<text text-anchor="middle" x="62" y="-117" font-family="Helvetica,sans-Serif" font-size="10.00">argo_reset_coherence</text>
</a>
</g>
</g>
<!-- Node2 -->
<g id="node2" class="node">
<title>Node2</title>
<g id="a_node2"><a xlink:href="swdsm_8cpp_aef8dea0c8e31701818a5017a5ff20223.html#aef8dea0c8e31701818a5017a5ff20223" target="_top" xlink:title="Resets all ArgoDSM statistics.">
<polygon fill="white" stroke="black" points="174.5,-176 174.5,-195 272.5,-195 272.5,-176 174.5,-176"/>
<text text-anchor="middle" x="223.5" y="-183" font-family="Helvetica,sans-Serif" font-size="10.00">argo_reset_stats</text>
</a>
</g>
</g>
<!-- Node1&#45;&gt;Node2 -->
<g id="edge1" class="edge">
<title>Node1&#45;&gt;Node2</title>
<path fill="none" stroke="midnightblue" d="M80.51,-129.01C99.65,-139.17 131.42,-155.31 160,-166.5 165.82,-168.78 172.03,-170.96 178.2,-172.97"/>
<polygon fill="midnightblue" stroke="midnightblue" points="177.19,-176.33 187.78,-176 179.3,-169.65 177.19,-176.33"/>
</g>
<!-- Node6 -->
<g id="node6" class="node">
<title>Node6</title>
<g id="a_node6"><a xlink:href="namespaceargo_1_1data__distribution_a58576657391f45caf61bf0748a23b098.html#a58576657391f45caf61bf0748a23b098" target="_top" xlink:title="identifies if we distribute data using the first&#45;touch memory policy">
<polygon fill="white" stroke="black" points="160,-126.5 160,-156.5 287,-156.5 287,-126.5 160,-126.5"/>
<text text-anchor="start" x="168" y="-144.5" font-family="Helvetica,sans-Serif" font-size="10.00">argo::data_distribution</text>
<text text-anchor="middle" x="223.5" y="-133.5" font-family="Helvetica,sans-Serif" font-size="10.00">::is_first_touch_policy</text>
</a>
</g>
</g>
<!-- Node1&#45;&gt;Node6 -->
<g id="edge5" class="edge">
<title>Node1&#45;&gt;Node6</title>
<path fill="none" stroke="midnightblue" d="M124.21,-127.94C132.61,-129.1 141.3,-130.3 149.87,-131.48"/>
<polygon fill="midnightblue" stroke="midnightblue" points="149.48,-134.96 159.87,-132.86 150.44,-128.03 149.48,-134.96"/>
</g>
<!-- Node8 -->
<g id="node8" class="node">
<title>Node8</title>
<g id="a_node8"><a xlink:href="swdsm_8cpp_a2a2d9247bd62413b221876836b39dafb.html#a2a2d9247bd62413b221876836b39dafb" target="_top" xlink:title="Locks the correct mpi_lock_sharer, performs operation op and then unlocks the locked mpi_lock_sharer.">
<polygon fill="white" stroke="black" points="356,-88 356,-107 421,-107 421,-88 356,-88"/>
<text text-anchor="middle" x="388.5" y="-95" font-family="Helvetica,sans-Serif" font-size="10.00">sharer_op</text>
</a>
</g>
</g>
<!-- Node1&#45;&gt;Node8 -->
<g id="edge7" class="edge">
<title>Node1&#45;&gt;Node8</title>
<path fill="none" stroke="midnightblue" d="M124.04,-115.36C188.71,-110.98 289.12,-104.17 345.47,-100.35"/>
<polygon fill="midnightblue" stroke="midnightblue" points="346.05,-103.82 355.79,-99.65 345.58,-96.83 346.05,-103.82"/>
</g>
<!-- Node12 -->
<g id="node12" class="node">
<title>Node12</title>
<g id="a_node12"><a xlink:href="swdsm_8cpp_aca8a35703563223a3e182ebc897e2b40.html#aca8a35703563223a3e182ebc897e2b40" target="_top" xlink:title="Global barrier for ArgoDSM &#45; needs to be called by every thread in the system that need coherent view...">
<polygon fill="white" stroke="black" points="165.5,-50 165.5,-69 281.5,-69 281.5,-50 165.5,-50"/>
<text text-anchor="middle" x="223.5" y="-57" font-family="Helvetica,sans-Serif" font-size="10.00">swdsm_argo_barrier</text>
</a>
</g>
</g>
<!-- Node1&#45;&gt;Node12 -->
<g id="edge11" class="edge">
<title>Node1&#45;&gt;Node12</title>
<path fill="none" stroke="midnightblue" d="M88.27,-109.99C115.03,-99.93 157.45,-83.97 187.43,-72.69"/>
<polygon fill="midnightblue" stroke="midnightblue" points="188.95,-75.86 197.08,-69.06 186.49,-69.31 188.95,-75.86"/>
</g>
<!-- Node3 -->
<g id="node3" class="node">
<title>Node3</title>
<g id="a_node3"><a xlink:href="classmpi__lock_a79f6b3dc2765ee9189e33fbaf6b46ade.html#a79f6b3dc2765ee9189e33fbaf6b46ade" target="_top" xlink:title="reset the timekeeping statistics">
<polygon fill="white" stroke="black" points="328,-214 328,-233 449,-233 449,-214 328,-214"/>
<text text-anchor="middle" x="388.5" y="-221" font-family="Helvetica,sans-Serif" font-size="10.00">mpi_lock::reset_stats</text>
</a>
</g>
</g>
<!-- Node2&#45;&gt;Node3 -->
<g id="edge2" class="edge">
<title>Node2&#45;&gt;Node3</title>
<path fill="none" stroke="midnightblue" d="M265.63,-195.09C287.24,-200.13 313.91,-206.34 336.79,-211.68"/>
<polygon fill="midnightblue" stroke="midnightblue" points="336.13,-215.12 346.66,-213.98 337.72,-208.3 336.13,-215.12"/>
</g>
<!-- Node4 -->
<g id="node4" class="node">
<title>Node4</title>
<g id="a_node4"><a xlink:href="classcache__lock_afecdbd6c7a1eb2e109b55bb90d44a6cb.html#afecdbd6c7a1eb2e109b55bb90d44a6cb" target="_top" xlink:title="Clear all recorded statistics.">
<polygon fill="white" stroke="black" points="323,-176 323,-195 454,-195 454,-176 323,-176"/>
<text text-anchor="middle" x="388.5" y="-183" font-family="Helvetica,sans-Serif" font-size="10.00">cache_lock::reset_stats</text>
</a>
</g>
</g>
<!-- Node2&#45;&gt;Node4 -->
<g id="edge3" class="edge">
<title>Node2&#45;&gt;Node4</title>
<path fill="none" stroke="midnightblue" d="M272.52,-185.5C285.1,-185.5 298.95,-185.5 312.57,-185.5"/>
<polygon fill="midnightblue" stroke="midnightblue" points="312.9,-189 322.9,-185.5 312.9,-182 312.9,-189"/>
</g>
<!-- Node5 -->
<g id="node5" class="node">
<title>Node5</title>
<g id="a_node5"><a xlink:href="classcache__lock_a3a26cac78d1ee17663b7407b7599a9c0.html#a3a26cac78d1ee17663b7407b7599a9c0" target="_top" xlink:title="Acquire a cache lock.">
<polygon fill="white" stroke="black" points="503,-176 503,-195 600,-195 600,-176 503,-176"/>
<text text-anchor="middle" x="551.5" y="-183" font-family="Helvetica,sans-Serif" font-size="10.00">cache_lock::lock</text>
</a>
</g>
</g>
<!-- Node4&#45;&gt;Node5 -->
<g id="edge4" class="edge">
<title>Node4&#45;&gt;Node5</title>
<path fill="none" stroke="midnightblue" d="M454.06,-185.5C466.77,-185.5 480.03,-185.5 492.51,-185.5"/>
<polygon fill="midnightblue" stroke="midnightblue" points="492.78,-189 502.78,-185.5 492.78,-182 492.78,-189"/>
</g>
<!-- Node7 -->
<g id="node7" class="node">
<title>Node7</title>
<g id="a_node7"><a xlink:href="namespaceargo_1_1env_a25a08cb2d0d11432d640ec7173063339.html#a25a08cb2d0d11432d640ec7173063339" target="_top" xlink:title="get the allocation policy requested by environment variable">
<polygon fill="white" stroke="black" points="330.5,-126.5 330.5,-156.5 446.5,-156.5 446.5,-126.5 330.5,-126.5"/>
<text text-anchor="start" x="338.5" y="-144.5" font-family="Helvetica,sans-Serif" font-size="10.00">argo::env::allocation</text>
<text text-anchor="middle" x="388.5" y="-133.5" font-family="Helvetica,sans-Serif" font-size="10.00">_policy</text>
</a>
</g>
</g>
<!-- Node6&#45;&gt;Node7 -->
<g id="edge6" class="edge">
<title>Node6&#45;&gt;Node7</title>
<path fill="none" stroke="midnightblue" d="M287.05,-141.5C297.98,-141.5 309.39,-141.5 320.44,-141.5"/>
<polygon fill="midnightblue" stroke="midnightblue" points="320.45,-145 330.45,-141.5 320.45,-138 320.45,-145"/>
</g>
<!-- Node9 -->
<g id="node9" class="node">
<title>Node9</title>
<g id="a_node9"><a xlink:href="swdsm_8cpp_a7d0d0386804df222465aaa199aab92da.html#a7d0d0386804df222465aaa199aab92da" target="_top" xlink:title="Gets the sharer window index based on the classification index.">
<polygon fill="white" stroke="black" points="490,-126 490,-145 613,-145 613,-126 490,-126"/>
<text text-anchor="middle" x="551.5" y="-133" font-family="Helvetica,sans-Serif" font-size="10.00">get_sharer_win_index</text>
</a>
</g>
</g>
<!-- Node8&#45;&gt;Node9 -->
<g id="edge8" class="edge">
<title>Node8&#45;&gt;Node9</title>
<path fill="none" stroke="midnightblue" d="M421.31,-105.01C443.8,-110.32 474.41,-117.54 500.19,-123.63"/>
<polygon fill="midnightblue" stroke="midnightblue" points="499.64,-127.09 510.17,-125.98 501.25,-120.28 499.64,-127.09"/>
</g>
<!-- Node10 -->
<g id="node10" class="node">
<title>Node10</title>
<g id="a_node10"><a xlink:href="classmpi__lock_a67301b26c3bb28c746e164c9f531d21d.html#a67301b26c3bb28c746e164c9f531d21d" target="_top" xlink:title="acquire mpi_lock">
<polygon fill="white" stroke="black" points="508,-88 508,-107 595,-107 595,-88 508,-88"/>
<text text-anchor="middle" x="551.5" y="-95" font-family="Helvetica,sans-Serif" font-size="10.00">mpi_lock::lock</text>
</a>
</g>
</g>
<!-- Node8&#45;&gt;Node10 -->
<g id="edge9" class="edge">
<title>Node8&#45;&gt;Node10</title>
<path fill="none" stroke="midnightblue" d="M421.31,-97.5C443.06,-97.5 472.4,-97.5 497.62,-97.5"/>
<polygon fill="midnightblue" stroke="midnightblue" points="497.78,-101 507.78,-97.5 497.78,-94 497.78,-101"/>
</g>
<!-- Node11 -->
<g id="node11" class="node">
<title>Node11</title>
<g id="a_node11"><a xlink:href="classmpi__lock_a38cb3649cba54a2818810c444a8b475a.html#a38cb3649cba54a2818810c444a8b475a" target="_top" xlink:title="release mpi_lock">
<polygon fill="white" stroke="black" points="502,-50 502,-69 601,-69 601,-50 502,-50"/>
<text text-anchor="middle" x="551.5" y="-57" font-family="Helvetica,sans-Serif" font-size="10.00">mpi_lock::unlock</text>
</a>
</g>
</g>
<!-- Node8&#45;&gt;Node11 -->
<g id="edge10" class="edge">
<title>Node8&#45;&gt;Node11</title>
<path fill="none" stroke="midnightblue" d="M421.31,-89.99C443.8,-84.68 474.41,-77.46 500.19,-71.37"/>
<polygon fill="midnightblue" stroke="midnightblue" points="501.25,-74.72 510.17,-69.02 499.64,-67.91 501.25,-74.72"/>
</g>
<!-- Node13 -->
<g id="node13" class="node">
<title>Node13</title>
<g id="a_node13"><a xlink:href="swdsm_8cpp_af056be0ae2712fab13fc590d64ef2597.html#af056be0ae2712fab13fc590d64ef2597" target="_top" xlink:title="Gives number of ArgoDSM nodes.">
<polygon fill="white" stroke="black" points="341.5,-12 341.5,-31 435.5,-31 435.5,-12 341.5,-12"/>
<text text-anchor="middle" x="388.5" y="-19" font-family="Helvetica,sans-Serif" font-size="10.00">argo_get_nodes</text>
</a>
</g>
</g>
<!-- Node12&#45;&gt;Node13 -->
<g id="edge12" class="edge">
<title>Node12&#45;&gt;Node13</title>
<path fill="none" stroke="midnightblue" d="M265.63,-49.91C287.24,-44.87 313.91,-38.66 336.79,-33.32"/>
<polygon fill="midnightblue" stroke="midnightblue" points="337.72,-36.7 346.66,-31.02 336.13,-29.88 337.72,-36.7"/>
</g>
<!-- Node14 -->
<g id="node14" class="node">
<title>Node14</title>
<g id="a_node14"><a xlink:href="swdsm_8cpp_aa7c3a2de6bbafdaf68fe6ceb6110ab97.html#aa7c3a2de6bbafdaf68fe6ceb6110ab97" target="_top" xlink:title="Self&#45;Invalidates all memory that has potential writers.">
<polygon fill="white" stroke="black" points="339.5,-50 339.5,-69 437.5,-69 437.5,-50 339.5,-50"/>
<text text-anchor="middle" x="388.5" y="-57" font-family="Helvetica,sans-Serif" font-size="10.00">self_invalidation</text>
</a>
</g>
</g>
<!-- Node12&#45;&gt;Node14 -->
<g id="edge13" class="edge">
<title>Node12&#45;&gt;Node14</title>
<path fill="none" stroke="midnightblue" d="M281.51,-59.5C297.02,-59.5 313.84,-59.5 329.41,-59.5"/>
<polygon fill="midnightblue" stroke="midnightblue" points="329.44,-63 339.44,-59.5 329.44,-56 329.44,-63"/>
</g>
<!-- Node14&#45;&gt;Node9 -->
<g id="edge15" class="edge">
<title>Node14&#45;&gt;Node9</title>
<path fill="none" stroke="midnightblue" d="M433.51,-69.07C440.64,-71.56 447.73,-74.66 454,-78.5 473.84,-90.65 470.27,-104.17 490,-116.5 493.37,-118.61 496.99,-120.49 500.73,-122.19"/>
<polygon fill="midnightblue" stroke="midnightblue" points="499.59,-125.5 510.17,-126 502.21,-119.01 499.59,-125.5"/>
</g>
<!-- Node14&#45;&gt;Node10 -->
<g id="edge16" class="edge">
<title>Node14&#45;&gt;Node10</title>
<path fill="none" stroke="midnightblue" d="M430.13,-69.09C451.47,-74.13 477.81,-80.34 500.41,-85.68"/>
<polygon fill="midnightblue" stroke="midnightblue" points="499.63,-89.09 510.17,-87.98 501.24,-82.28 499.63,-89.09"/>
</g>
<!-- Node14&#45;&gt;Node11 -->
<g id="edge17" class="edge">
<title>Node14&#45;&gt;Node11</title>
<path fill="none" stroke="midnightblue" d="M437.81,-59.5C454.76,-59.5 474,-59.5 491.72,-59.5"/>
<polygon fill="midnightblue" stroke="midnightblue" points="491.95,-63 501.95,-59.5 491.95,-56 491.95,-63"/>
</g>
<!-- Node15 -->
<g id="node15" class="node">
<title>Node15</title>
<g id="a_node15"><a xlink:href="swdsm_8cpp_aff9ea7ba7f37206d933c8dc8004dbc7b.html#aff9ea7ba7f37206d933c8dc8004dbc7b" target="_top" xlink:title="Gives an index to the sharer/writer vector depending on the address.">
<polygon fill="white" stroke="black" points="501,-0.5 501,-30.5 602,-30.5 602,-0.5 501,-0.5"/>
<text text-anchor="start" x="509" y="-18.5" font-family="Helvetica,sans-Serif" font-size="10.00">get_classification</text>
<text text-anchor="middle" x="551.5" y="-7.5" font-family="Helvetica,sans-Serif" font-size="10.00">_index</text>
</a>
</g>
</g>
<!-- Node14&#45;&gt;Node15 -->
<g id="edge14" class="edge">
<title>Node14&#45;&gt;Node15</title>
<path fill="none" stroke="midnightblue" d="M424.43,-49.95C443.93,-44.62 468.74,-37.84 491.19,-31.71"/>
<polygon fill="midnightblue" stroke="midnightblue" points="492.25,-35.05 500.97,-29.04 490.4,-28.3 492.25,-35.05"/>
</g>
</g>
</svg>
