<?xml version="1.0" encoding="UTF-8" standalone="no"?>
<!DOCTYPE svg PUBLIC "-//W3C//DTD SVG 1.1//EN"
 "http://www.w3.org/Graphics/SVG/1.1/DTD/svg11.dtd">
<!-- Generated by graphviz version 2.43.0 (0)
 -->
<!-- Title: argo_acquire Pages: 1 -->
<svg width="412pt" height="325pt"
 viewBox="0.00 0.00 412.00 325.00" xmlns="http://www.w3.org/2000/svg" xmlns:xlink="http://www.w3.org/1999/xlink">
<g id="graph0" class="graph" transform="scale(1 1) rotate(0) translate(4 321)">
<title>argo_acquire</title>
<polygon fill="white" stroke="transparent" points="-4,4 -4,-321 408,-321 408,4 -4,4"/>
<!-- Node1 -->
<g id="node1" class="node">
<title>Node1</title>
<g id="a_node1"><a xlink:title="acquire function for ArgoDSM (Acquire according to Release Consistency)">
<polygon fill="#bfbfbf" stroke="black" points="324,-121 324,-140 404,-140 404,-121 324,-121"/>
<text text-anchor="middle" x="364" y="-128" font-family="Helvetica,sans-Serif" font-size="10.00">argo_acquire</text>
</a>
</g>
</g>
<!-- Node2 -->
<g id="node2" class="node">
<title>Node2</title>
<g id="a_node2"><a xlink:href="backend_8hpp_a1032f833666c3f810ac1c6210197d426.html#a1032f833666c3f810ac1c6210197d426" target="_top" xlink:title="causes a node to self&#45;invalidate its cache, and thus getting any updated values on subsequent accesse...">
<polygon fill="white" stroke="black" points="161,-140 161,-159 288,-159 288,-140 161,-140"/>
<text text-anchor="middle" x="224.5" y="-147" font-family="Helvetica,sans-Serif" font-size="10.00">argo::backend::acquire</text>
</a>
</g>
</g>
<!-- Node1&#45;&gt;Node2 -->
<g id="edge1" class="edge">
<title>Node1&#45;&gt;Node2</title>
<path fill="none" stroke="midnightblue" d="M313.97,-137.28C305.57,-138.44 296.74,-139.66 288.04,-140.86"/>
<polygon fill="midnightblue" stroke="midnightblue" points="314.54,-140.73 323.97,-135.89 313.58,-133.8 314.54,-140.73"/>
</g>
<!-- Node8 -->
<g id="node8" class="node">
<title>Node8</title>
<g id="a_node8"><a xlink:href="swdsm_8cpp_ac0b665f72bc2a28dc663ed204c526e1b.html#ac0b665f72bc2a28dc663ed204c526e1b" target="_top" xlink:title="acquire&#45;release function for ArgoDSM (Both acquire and release according to Release Consistency)">
<polygon fill="white" stroke="black" points="185,-102 185,-121 264,-121 264,-102 185,-102"/>
<text text-anchor="middle" x="224.5" y="-109" font-family="Helvetica,sans-Serif" font-size="10.00">argo_acq_rel</text>
</a>
</g>
</g>
<!-- Node1&#45;&gt;Node8 -->
<g id="edge13" class="edge">
<title>Node1&#45;&gt;Node8</title>
<path fill="none" stroke="midnightblue" d="M314.02,-123.73C297.64,-121.47 279.63,-118.98 264.16,-116.84"/>
<polygon fill="midnightblue" stroke="midnightblue" points="313.58,-127.2 323.97,-125.11 314.54,-120.27 313.58,-127.2"/>
</g>
<!-- Node2&#45;&gt;Node2 -->
<g id="edge2" class="edge">
<title>Node2&#45;&gt;Node2</title>
<path fill="none" stroke="midnightblue" d="M250.17,-168.53C248.77,-173.63 240.21,-177.5 224.5,-177.5 199.97,-177.5 192.88,-168.07 203.23,-159.26"/>
<polygon fill="midnightblue" stroke="midnightblue" points="253.22,-166.79 245.77,-159.26 246.89,-169.79 253.22,-166.79"/>
</g>
<!-- Node3 -->
<g id="node3" class="node">
<title>Node3</title>
<g id="a_node3"><a xlink:href="backend_8hpp_a8e7144eaa88e3a94eb4e5fb8efb423a4.html#a8e7144eaa88e3a94eb4e5fb8efb423a4" target="_top" xlink:title="Atomic CAS operation on a global address.">
<polygon fill="white" stroke="black" points="0,-268.5 0,-298.5 125,-298.5 125,-268.5 0,-268.5"/>
<text text-anchor="start" x="8" y="-286.5" font-family="Helvetica,sans-Serif" font-size="10.00">argo::backend::atomic</text>
<text text-anchor="middle" x="62.5" y="-275.5" font-family="Helvetica,sans-Serif" font-size="10.00">::compare_exchange</text>
</a>
</g>
</g>
<!-- Node2&#45;&gt;Node3 -->
<g id="edge3" class="edge">
<title>Node2&#45;&gt;Node3</title>
<path fill="none" stroke="midnightblue" d="M211.42,-167.61C194.61,-191.59 162.01,-233.84 125,-259.5 120.2,-262.83 114.87,-265.79 109.41,-268.39"/>
<polygon fill="midnightblue" stroke="midnightblue" points="214.49,-169.33 217.26,-159.11 208.72,-165.37 214.49,-169.33"/>
</g>
<!-- Node4 -->
<g id="node4" class="node">
<title>Node4</title>
<g id="a_node4"><a xlink:href="backend_8hpp_abe831501c00abf39b0519eef6789933f.html#abe831501c00abf39b0519eef6789933f" target="_top" xlink:title="atomic swap operation on a global address">
<polygon fill="white" stroke="black" points="0,-201.5 0,-231.5 125,-231.5 125,-201.5 0,-201.5"/>
<text text-anchor="start" x="8" y="-219.5" font-family="Helvetica,sans-Serif" font-size="10.00">argo::backend::atomic</text>
<text text-anchor="middle" x="62.5" y="-208.5" font-family="Helvetica,sans-Serif" font-size="10.00">::exchange</text>
</a>
</g>
</g>
<!-- Node2&#45;&gt;Node4 -->
<g id="edge5" class="edge">
<title>Node2&#45;&gt;Node4</title>
<path fill="none" stroke="midnightblue" d="M192.84,-163.26C173.47,-171.85 147.87,-183.05 125,-192.5 117.8,-195.48 110.08,-198.56 102.63,-201.5"/>
<polygon fill="midnightblue" stroke="midnightblue" points="194.37,-166.41 202.08,-159.14 191.52,-160.01 194.37,-166.41"/>
</g>
<!-- Node5 -->
<g id="node5" class="node">
<title>Node5</title>
<g id="a_node5"><a xlink:href="backend_8hpp_afd1987dffd4e9100c88c457234f64a52.html#afd1987dffd4e9100c88c457234f64a52" target="_top" xlink:title="Atomic fetch and add operation on a global address.">
<polygon fill="white" stroke="black" points="0,-134.5 0,-164.5 125,-164.5 125,-134.5 0,-134.5"/>
<text text-anchor="start" x="8" y="-152.5" font-family="Helvetica,sans-Serif" font-size="10.00">argo::backend::atomic</text>
<text text-anchor="middle" x="62.5" y="-141.5" font-family="Helvetica,sans-Serif" font-size="10.00">::fetch_add</text>
</a>
</g>
</g>
<!-- Node2&#45;&gt;Node5 -->
<g id="edge7" class="edge">
<title>Node2&#45;&gt;Node5</title>
<path fill="none" stroke="midnightblue" d="M150.45,-149.5C141.96,-149.5 133.36,-149.5 125.05,-149.5"/>
<polygon fill="midnightblue" stroke="midnightblue" points="150.72,-153 160.72,-149.5 150.72,-146 150.72,-153"/>
</g>
<!-- Node6 -->
<g id="node6" class="node">
<title>Node6</title>
<g id="a_node6"><a xlink:href="backend_8hpp_abcb3b11cf70d5b8009edfabaa08def9d.html#abcb3b11cf70d5b8009edfabaa08def9d" target="_top" xlink:title="Atomic load operation on a global address.">
<polygon fill="white" stroke="black" points="0,-67.5 0,-97.5 125,-97.5 125,-67.5 0,-67.5"/>
<text text-anchor="start" x="8" y="-85.5" font-family="Helvetica,sans-Serif" font-size="10.00">argo::backend::atomic</text>
<text text-anchor="middle" x="62.5" y="-74.5" font-family="Helvetica,sans-Serif" font-size="10.00">::load</text>
</a>
</g>
</g>
<!-- Node2&#45;&gt;Node6 -->
<g id="edge9" class="edge">
<title>Node2&#45;&gt;Node6</title>
<path fill="none" stroke="midnightblue" d="M178.53,-136.79C172.58,-134.83 166.61,-132.72 161,-130.5 136.79,-120.93 110.34,-107.73 91.11,-97.59"/>
<polygon fill="midnightblue" stroke="midnightblue" points="177.85,-140.25 188.44,-139.94 179.97,-133.58 177.85,-140.25"/>
</g>
<!-- Node7 -->
<g id="node7" class="node">
<title>Node7</title>
<g id="a_node7"><a xlink:href="backend_8hpp_a360aa0082e4b2bfe2f6c19d333ff56fa.html#a360aa0082e4b2bfe2f6c19d333ff56fa" target="_top" xlink:title="Atomic store operation on a global address.">
<polygon fill="white" stroke="black" points="0,-0.5 0,-30.5 125,-30.5 125,-0.5 0,-0.5"/>
<text text-anchor="start" x="8" y="-18.5" font-family="Helvetica,sans-Serif" font-size="10.00">argo::backend::atomic</text>
<text text-anchor="middle" x="62.5" y="-7.5" font-family="Helvetica,sans-Serif" font-size="10.00">::store</text>
</a>
</g>
</g>
<!-- Node2&#45;&gt;Node7 -->
<g id="edge11" class="edge">
<title>Node2&#45;&gt;Node7</title>
<path fill="none" stroke="midnightblue" d="M167.43,-135.15C165.17,-133.74 163.01,-132.2 161,-130.5 133.66,-107.42 148.38,-85.58 125,-58.5 115.47,-47.45 102.5,-37.84 90.94,-30.53"/>
<polygon fill="midnightblue" stroke="midnightblue" points="166.11,-138.4 176.59,-139.92 169.34,-132.2 166.11,-138.4"/>
</g>
<!-- Node3&#45;&gt;Node3 -->
<g id="edge4" class="edge">
<title>Node3&#45;&gt;Node3</title>
<path fill="none" stroke="midnightblue" d="M91.29,-308.96C87.71,-313.68 78.12,-317 62.5,-317 36.87,-317 27.46,-308.06 34.27,-298.66"/>
<polygon fill="midnightblue" stroke="midnightblue" points="94.76,-308.46 90.73,-298.66 87.77,-308.83 94.76,-308.46"/>
</g>
<!-- Node4&#45;&gt;Node4 -->
<g id="edge6" class="edge">
<title>Node4&#45;&gt;Node4</title>
<path fill="none" stroke="midnightblue" d="M91.29,-241.96C87.71,-246.68 78.12,-250 62.5,-250 36.87,-250 27.46,-241.06 34.27,-231.66"/>
<polygon fill="midnightblue" stroke="midnightblue" points="94.76,-241.46 90.73,-231.66 87.77,-241.83 94.76,-241.46"/>
</g>
<!-- Node5&#45;&gt;Node5 -->
<g id="edge8" class="edge">
<title>Node5&#45;&gt;Node5</title>
<path fill="none" stroke="midnightblue" d="M91.29,-174.96C87.71,-179.68 78.12,-183 62.5,-183 36.87,-183 27.46,-174.06 34.27,-164.66"/>
<polygon fill="midnightblue" stroke="midnightblue" points="94.76,-174.46 90.73,-164.66 87.77,-174.83 94.76,-174.46"/>
</g>
<!-- Node6&#45;&gt;Node6 -->
<g id="edge10" class="edge">
<title>Node6&#45;&gt;Node6</title>
<path fill="none" stroke="midnightblue" d="M91.29,-107.96C87.71,-112.68 78.12,-116 62.5,-116 36.87,-116 27.46,-107.06 34.27,-97.66"/>
<polygon fill="midnightblue" stroke="midnightblue" points="94.76,-107.46 90.73,-97.66 87.77,-107.83 94.76,-107.46"/>
</g>
<!-- Node7&#45;&gt;Node7 -->
<g id="edge12" class="edge">
<title>Node7&#45;&gt;Node7</title>
<path fill="none" stroke="midnightblue" d="M91.29,-40.96C87.71,-45.68 78.12,-49 62.5,-49 36.87,-49 27.46,-40.06 34.27,-30.66"/>
<polygon fill="midnightblue" stroke="midnightblue" points="94.76,-40.46 90.73,-30.66 87.77,-40.83 94.76,-40.46"/>
</g>
</g>
</svg>
