<?xml version="1.0" encoding="UTF-8" standalone="no"?>
<!DOCTYPE svg PUBLIC "-//W3C//DTD SVG 1.1//EN"
 "http://www.w3.org/Graphics/SVG/1.1/DTD/svg11.dtd">
<!-- Generated by graphviz version 2.43.0 (0)
 -->
<!-- Title: initmpi Pages: 1 -->
<svg width="211pt" height="66pt"
 viewBox="0.00 0.00 211.00 66.00" xmlns="http://www.w3.org/2000/svg" xmlns:xlink="http://www.w3.org/1999/xlink">
<g id="graph0" class="graph" transform="scale(1 1) rotate(0) translate(4 62)">
<title>initmpi</title>
<polygon fill="white" stroke="transparent" points="-4,4 -4,-62 207,-62 207,4 -4,4"/>
<!-- Node1 -->
<g id="node1" class="node">
<title>Node1</title>
<g id="a_node1"><a xlink:title="Initializes the MPI environment.">
<polygon fill="#bfbfbf" stroke="black" points="0,-19.5 0,-38.5 51,-38.5 51,-19.5 0,-19.5"/>
<text text-anchor="middle" x="25.5" y="-26.5" font-family="Helvetica,sans-Serif" font-size="10.00">initmpi</text>
</a>
</g>
</g>
<!-- Node2 -->
<g id="node2" class="node">
<title>Node2</title>
<g id="a_node2"><a xlink:href="swdsm_8cpp_a4e99ecaa01cd081228c39c9a9ae3f7c1.html#a4e99ecaa01cd081228c39c9a9ae3f7c1" target="_top" xlink:title="Initializes an MPI data structure for writing cache blocks over the network.">
<polygon fill="white" stroke="black" points="87,-38.5 87,-57.5 203,-57.5 203,-38.5 87,-38.5"/>
<text text-anchor="middle" x="145" y="-45.5" font-family="Helvetica,sans-Serif" font-size="10.00">init_mpi_cacheblock</text>
</a>
</g>
</g>
<!-- Node1&#45;&gt;Node2 -->
<g id="edge1" class="edge">
<title>Node1&#45;&gt;Node2</title>
<path fill="none" stroke="midnightblue" d="M51.13,-32.98C58.84,-34.23 67.75,-35.67 76.94,-37.16"/>
<polygon fill="midnightblue" stroke="midnightblue" points="76.54,-40.64 86.97,-38.78 77.66,-33.73 76.54,-40.64"/>
</g>
<!-- Node3 -->
<g id="node3" class="node">
<title>Node3</title>
<g id="a_node3"><a xlink:href="swdsm_8cpp_ab959fc516b83d1ea190682ae0bc7b90c.html#ab959fc516b83d1ea190682ae0bc7b90c" target="_top" xlink:title="Initializes an MPI data structure for writing cache control data over the network.">
<polygon fill="white" stroke="black" points="100.5,-0.5 100.5,-19.5 189.5,-19.5 189.5,-0.5 100.5,-0.5"/>
<text text-anchor="middle" x="145" y="-7.5" font-family="Helvetica,sans-Serif" font-size="10.00">init_mpi_struct</text>
</a>
</g>
</g>
<!-- Node1&#45;&gt;Node3 -->
<g id="edge2" class="edge">
<title>Node1&#45;&gt;Node3</title>
<path fill="none" stroke="midnightblue" d="M51.13,-25.02C62.61,-23.16 76.75,-20.87 90.5,-18.65"/>
<polygon fill="midnightblue" stroke="midnightblue" points="91.09,-22.1 100.41,-17.05 89.98,-15.19 91.09,-22.1"/>
</g>
</g>
</svg>
