<?xml version="1.0" encoding="UTF-8" standalone="no"?>
<!DOCTYPE svg PUBLIC "-//W3C//DTD SVG 1.1//EN"
 "http://www.w3.org/Graphics/SVG/1.1/DTD/svg11.dtd">
<!-- Generated by graphviz version 2.43.0 (0)
 -->
<!-- Title: self_upgrade Pages: 1 -->
<!--zoomable 218 -->
<svg id="main" version="1.1" xmlns="http://www.w3.org/2000/svg" xmlns:xlink="http://www.w3.org/1999/xlink" xml:space="preserve" onload="init(evt)">
<style type="text/css"><![CDATA[
.edge:hover path { stroke: red; }
.edge:hover polygon { stroke: red; fill: red; }
]]></style>
<script type="text/javascript"><![CDATA[
var edges = document.getElementsByTagName('g');
if (edges && edges.length) {
  for (var i=0;i<edges.length;i++) {
    if (edges[i].id.substr(0,4)=='edge') {
      edges[i].setAttribute('class','edge');
    }
  }
}
]]></script>
        <defs>
                <circle id="rim" cx="0" cy="0" r="7"/>
                <circle id="rim2" cx="0" cy="0" r="3.5"/>
                <g id="zoomPlus">
                        <use xlink:href="#rim" fill="#404040">
                                <set attributeName="fill" to="#808080" begin="zoomplus.mouseover" end="zoomplus.mouseout"/>
                        </use>
                        <path d="M-4,0h8M0,-4v8" fill="none" stroke="white" stroke-width="1.5" pointer-events="none"/>
                </g>
                <g id="zoomMin">
                        <use xlink:href="#rim" fill="#404040">
                                <set attributeName="fill" to="#808080" begin="zoomminus.mouseover" end="zoomminus.mouseout"/>
                        </use>
                        <path d="M-4,0h8" fill="none" stroke="white" stroke-width="1.5" pointer-events="none"/>
                </g>
                <g id="dirArrow">
                        <path fill="none" stroke="white" stroke-width="1.5" d="M0,-3.0v7 M-2.5,-0.5L0,-3.0L2.5,-0.5"/>
                </g>
               <g id="resetDef">
                       <use xlink:href="#rim2" fill="#404040">
                               <set attributeName="fill" to="#808080" begin="reset.mouseover" end="reset.mouseout"/>
                       </use>
               </g>
        </defs>

<script type="text/javascript">
var viewWidth = 835;
var viewHeight = 218;
var sectionId = 'dynsection-0';
</script>
<script xlink:href="svgpan.js"/>
<svg id="graph" class="graph">
<g id="viewport">
<title>self_upgrade</title>
<polygon fill="white" stroke="transparent" points="-4,4 -4,-214 831,-214 831,4 -4,4"/>
<!-- Node1 -->
<g id="node1" class="node">
<title>Node1</title>
<g id="a_node1"><a xlink:title="Perform upgrade of page classifications.">
<polygon fill="#bfbfbf" stroke="black" points="0,-114.5 0,-133.5 80,-133.5 80,-114.5 0,-114.5"/>
<text text-anchor="middle" x="40" y="-121.5" font-family="Helvetica,sans-Serif" font-size="10.00">self_upgrade</text>
</a>
</g>
</g>
<!-- Node2 -->
<g id="node2" class="node">
<title>Node2</title>
<g id="a_node2"><a xlink:href="swdsm_8cpp_a93e3c7288ce47ac8b4ec8ff9f8a82435.html#a93e3c7288ce47ac8b4ec8ff9f8a82435" target="_top" xlink:title="Check whether a page is either cached on the node or locally backed.">
<polygon fill="white" stroke="black" points="116,-152.5 116,-171.5 186,-171.5 186,-152.5 116,-152.5"/>
<text text-anchor="middle" x="151" y="-159.5" font-family="Helvetica,sans-Serif" font-size="10.00">_is_cached</text>
</a>
</g>
</g>
<!-- Node1&#45;&gt;Node2 -->
<g id="edge1" class="edge">
<title>Node1&#45;&gt;Node2</title>
<path fill="none" stroke="midnightblue" d="M68.51,-133.59C81.93,-138.27 98.28,-143.97 112.8,-149.03"/>
<polygon fill="midnightblue" stroke="midnightblue" points="111.91,-152.43 122.5,-152.41 114.21,-145.82 111.91,-152.43"/>
</g>
<!-- Node4 -->
<g id="node4" class="node">
<title>Node4</title>
<g id="a_node4"><a xlink:href="swdsm_8cpp_a59e4c59c2940cc3727debeeff4af1889.html#a59e4c59c2940cc3727debeeff4af1889" target="_top" xlink:title="Gets cacheindex for a given address.">
<polygon fill="white" stroke="black" points="239,-114.5 239,-133.5 328,-133.5 328,-114.5 239,-114.5"/>
<text text-anchor="middle" x="283.5" y="-121.5" font-family="Helvetica,sans-Serif" font-size="10.00">getCacheIndex</text>
</a>
</g>
</g>
<!-- Node1&#45;&gt;Node4 -->
<g id="edge8" class="edge">
<title>Node1&#45;&gt;Node4</title>
<path fill="none" stroke="midnightblue" d="M80.07,-124C120.44,-124 183.75,-124 228.82,-124"/>
<polygon fill="midnightblue" stroke="midnightblue" points="228.99,-127.5 238.99,-124 228.99,-120.5 228.99,-127.5"/>
</g>
<!-- Node9 -->
<g id="node9" class="node">
<title>Node9</title>
<g id="a_node9"><a xlink:href="swdsm_8cpp_a2a2d9247bd62413b221876836b39dafb.html#a2a2d9247bd62413b221876836b39dafb" target="_top" xlink:title="Locks the correct mpi_lock_sharer, performs operation op and then unlocks the locked mpi_lock_sharer.">
<polygon fill="white" stroke="black" points="118.5,-57.5 118.5,-76.5 183.5,-76.5 183.5,-57.5 118.5,-57.5"/>
<text text-anchor="middle" x="151" y="-64.5" font-family="Helvetica,sans-Serif" font-size="10.00">sharer_op</text>
</a>
</g>
</g>
<!-- Node1&#45;&gt;Node9 -->
<g id="edge9" class="edge">
<title>Node1&#45;&gt;Node9</title>
<path fill="none" stroke="midnightblue" d="M59.49,-114.33C76.82,-105.27 102.94,-91.61 122.67,-81.29"/>
<polygon fill="midnightblue" stroke="midnightblue" points="124.54,-84.26 131.78,-76.53 121.3,-78.06 124.54,-84.26"/>
</g>
<!-- Node3 -->
<g id="node3" class="node">
<title>Node3</title>
<g id="a_node3"><a xlink:href="swdsm_8cpp_ad56e0108259917bf97090212b3927f55.html#ad56e0108259917bf97090212b3927f55" target="_top" xlink:title="align an offset into a memory region to the beginning of its size block">
<polygon fill="white" stroke="black" points="234.5,-190.5 234.5,-209.5 332.5,-209.5 332.5,-190.5 234.5,-190.5"/>
<text text-anchor="middle" x="283.5" y="-197.5" font-family="Helvetica,sans-Serif" font-size="10.00">align_backwards</text>
</a>
</g>
</g>
<!-- Node2&#45;&gt;Node3 -->
<g id="edge2" class="edge">
<title>Node2&#45;&gt;Node3</title>
<path fill="none" stroke="midnightblue" d="M184.93,-171.59C201.62,-176.45 222.09,-182.41 239.96,-187.61"/>
<polygon fill="midnightblue" stroke="midnightblue" points="239,-190.98 249.58,-190.41 240.96,-184.26 239,-190.98"/>
</g>
<!-- Node2&#45;&gt;Node4 -->
<g id="edge3" class="edge">
<title>Node2&#45;&gt;Node4</title>
<path fill="none" stroke="midnightblue" d="M184.93,-152.41C201.62,-147.55 222.09,-141.59 239.96,-136.39"/>
<polygon fill="midnightblue" stroke="midnightblue" points="240.96,-139.74 249.58,-133.59 239,-133.02 240.96,-139.74"/>
</g>
<!-- Node5 -->
<g id="node5" class="node">
<title>Node5</title>
<g id="a_node5"><a xlink:href="swdsm_8cpp_ac2a76a52d43c19cf7d5ed770e14c4409.html#ac2a76a52d43c19cf7d5ed770e14c4409" target="_top" xlink:title="Gives homenode for a given address.">
<polygon fill="white" stroke="black" points="234.5,-152.5 234.5,-171.5 332.5,-171.5 332.5,-152.5 234.5,-152.5"/>
<text text-anchor="middle" x="283.5" y="-159.5" font-family="Helvetica,sans-Serif" font-size="10.00">peek_homenode</text>
</a>
</g>
</g>
<!-- Node2&#45;&gt;Node5 -->
<g id="edge4" class="edge">
<title>Node2&#45;&gt;Node5</title>
<path fill="none" stroke="midnightblue" d="M186.29,-162C197.85,-162 211.1,-162 223.99,-162"/>
<polygon fill="midnightblue" stroke="midnightblue" points="224.21,-165.5 234.21,-162 224.21,-158.5 224.21,-165.5"/>
</g>
<!-- Node6 -->
<g id="node6" class="node">
<title>Node6</title>
<g id="a_node6"><a xlink:href="classargo_1_1data__distribution_1_1global__ptr_a3e2cdd4d323ef91174615e27ab94e342.html#a3e2cdd4d323ef91174615e27ab94e342" target="_top" xlink:title="return the home node of the value pointed to, or a default value if the page has not yet been first&#45;t...">
<polygon fill="white" stroke="black" points="381,-147 381,-177 512,-177 512,-147 381,-147"/>
<text text-anchor="start" x="389" y="-165" font-family="Helvetica,sans-Serif" font-size="10.00">argo::data_distribution</text>
<text text-anchor="middle" x="446.5" y="-154" font-family="Helvetica,sans-Serif" font-size="10.00">::global_ptr::peek_node</text>
</a>
</g>
</g>
<!-- Node5&#45;&gt;Node6 -->
<g id="edge5" class="edge">
<title>Node5&#45;&gt;Node6</title>
<path fill="none" stroke="midnightblue" d="M332.81,-162C344.72,-162 357.76,-162 370.61,-162"/>
<polygon fill="midnightblue" stroke="midnightblue" points="370.84,-165.5 380.84,-162 370.84,-158.5 370.84,-165.5"/>
</g>
<!-- Node7 -->
<g id="node7" class="node">
<title>Node7</title>
<g id="a_node7"><a xlink:href="classargo_1_1data__distribution_1_1global__ptr_ae4353680349f6abbd2cf262dace8e2f2.html#ae4353680349f6abbd2cf262dace8e2f2" target="_top" xlink:title="return a pointer to the selected allocation policy">
<polygon fill="white" stroke="black" points="548,-147 548,-177 675,-177 675,-147 548,-147"/>
<text text-anchor="start" x="556" y="-165" font-family="Helvetica,sans-Serif" font-size="10.00">argo::data_distribution</text>
<text text-anchor="middle" x="611.5" y="-154" font-family="Helvetica,sans-Serif" font-size="10.00">::global_ptr::policy</text>
</a>
</g>
</g>
<!-- Node6&#45;&gt;Node7 -->
<g id="edge6" class="edge">
<title>Node6&#45;&gt;Node7</title>
<path fill="none" stroke="midnightblue" d="M512.39,-162C520.72,-162 529.3,-162 537.74,-162"/>
<polygon fill="midnightblue" stroke="midnightblue" points="537.96,-165.5 547.96,-162 537.96,-158.5 537.96,-165.5"/>
</g>
<!-- Node8 -->
<g id="node8" class="node">
<title>Node8</title>
<g id="a_node8"><a xlink:href="namespaceargo_1_1env_a25a08cb2d0d11432d640ec7173063339.html#a25a08cb2d0d11432d640ec7173063339" target="_top" xlink:title="get the allocation policy requested by environment variable">
<polygon fill="white" stroke="black" points="711,-147 711,-177 827,-177 827,-147 711,-147"/>
<text text-anchor="start" x="719" y="-165" font-family="Helvetica,sans-Serif" font-size="10.00">argo::env::allocation</text>
<text text-anchor="middle" x="769" y="-154" font-family="Helvetica,sans-Serif" font-size="10.00">_policy</text>
</a>
</g>
</g>
<!-- Node7&#45;&gt;Node8 -->
<g id="edge7" class="edge">
<title>Node7&#45;&gt;Node8</title>
<path fill="none" stroke="midnightblue" d="M675.3,-162C683.69,-162 692.32,-162 700.78,-162"/>
<polygon fill="midnightblue" stroke="midnightblue" points="700.99,-165.5 710.99,-162 700.99,-158.5 700.99,-165.5"/>
</g>
<!-- Node10 -->
<g id="node10" class="node">
<title>Node10</title>
<g id="a_node10"><a xlink:href="swdsm_8cpp_a7d0d0386804df222465aaa199aab92da.html#a7d0d0386804df222465aaa199aab92da" target="_top" xlink:title="Gets the sharer window index based on the classification index.">
<polygon fill="white" stroke="black" points="222,-76.5 222,-95.5 345,-95.5 345,-76.5 222,-76.5"/>
<text text-anchor="middle" x="283.5" y="-83.5" font-family="Helvetica,sans-Serif" font-size="10.00">get_sharer_win_index</text>
</a>
</g>
</g>
<!-- Node9&#45;&gt;Node10 -->
<g id="edge10" class="edge">
<title>Node9&#45;&gt;Node10</title>
<path fill="none" stroke="midnightblue" d="M183.59,-71.6C192.25,-72.86 201.99,-74.28 211.9,-75.72"/>
<polygon fill="midnightblue" stroke="midnightblue" points="211.43,-79.19 221.83,-77.17 212.44,-72.26 211.43,-79.19"/>
</g>
<!-- Node11 -->
<g id="node11" class="node">
<title>Node11</title>
<g id="a_node11"><a xlink:href="classmpi__lock_a67301b26c3bb28c746e164c9f531d21d.html#a67301b26c3bb28c746e164c9f531d21d" target="_top" xlink:title="acquire mpi_lock">
<polygon fill="white" stroke="black" points="240,-38.5 240,-57.5 327,-57.5 327,-38.5 240,-38.5"/>
<text text-anchor="middle" x="283.5" y="-45.5" font-family="Helvetica,sans-Serif" font-size="10.00">mpi_lock::lock</text>
</a>
</g>
</g>
<!-- Node9&#45;&gt;Node11 -->
<g id="edge11" class="edge">
<title>Node9&#45;&gt;Node11</title>
<path fill="none" stroke="midnightblue" d="M183.59,-62.4C197.45,-60.38 214.1,-57.96 229.76,-55.68"/>
<polygon fill="midnightblue" stroke="midnightblue" points="230.47,-59.11 239.86,-54.21 229.46,-52.19 230.47,-59.11"/>
</g>
<!-- Node12 -->
<g id="node12" class="node">
<title>Node12</title>
<g id="a_node12"><a xlink:href="classmpi__lock_a38cb3649cba54a2818810c444a8b475a.html#a38cb3649cba54a2818810c444a8b475a" target="_top" xlink:title="release mpi_lock">
<polygon fill="white" stroke="black" points="234,-0.5 234,-19.5 333,-19.5 333,-0.5 234,-0.5"/>
<text text-anchor="middle" x="283.5" y="-7.5" font-family="Helvetica,sans-Serif" font-size="10.00">mpi_lock::unlock</text>
</a>
</g>
</g>
<!-- Node9&#45;&gt;Node12 -->
<g id="edge12" class="edge">
<title>Node9&#45;&gt;Node12</title>
<path fill="none" stroke="midnightblue" d="M167.69,-57.34C181.6,-49.06 202.65,-37.2 222,-29 227.2,-26.8 232.73,-24.72 238.27,-22.8"/>
<polygon fill="midnightblue" stroke="midnightblue" points="239.77,-25.99 248.17,-19.52 237.57,-19.34 239.77,-25.99"/>
</g>
</g>
</svg>
        <g id="navigator" transform="translate(0 0)" fill="#404254">
                <rect fill="#f2f5e9" fill-opacity="0.5" stroke="#606060" stroke-width=".5" x="0" y="0" width="60" height="60"/>
                <use id="zoomplus" xlink:href="#zoomPlus" x="17" y="9" onmousedown="handleZoom(evt,'in')"/>
                <use id="zoomminus" xlink:href="#zoomMin" x="42" y="9" onmousedown="handleZoom(evt,'out')"/>
                <use id="reset" xlink:href="#resetDef" x="30" y="36" onmousedown="handleReset()"/>
                <g id="arrowUp" xlink:href="#dirArrow" transform="translate(30 24)" onmousedown="handlePan(0,-1)">
                  <use xlink:href="#rim" fill="#404040">
                        <set attributeName="fill" to="#808080" begin="arrowUp.mouseover" end="arrowUp.mouseout"/>
                  </use>
                  <path fill="none" stroke="white" stroke-width="1.5" d="M0,-3.0v7 M-2.5,-0.5L0,-3.0L2.5,-0.5"/>
                </g>
                <g id="arrowRight" xlink:href="#dirArrow" transform="rotate(90) translate(36 -43)" onmousedown="handlePan(1,0)">
                  <use xlink:href="#rim" fill="#404040">
                        <set attributeName="fill" to="#808080" begin="arrowRight.mouseover" end="arrowRight.mouseout"/>
                  </use>
                  <path fill="none" stroke="white" stroke-width="1.5" d="M0,-3.0v7 M-2.5,-0.5L0,-3.0L2.5,-0.5"/>
                </g>
                <g id="arrowDown" xlink:href="#dirArrow" transform="rotate(180) translate(-30 -48)" onmousedown="handlePan(0,1)">
                  <use xlink:href="#rim" fill="#404040">
                        <set attributeName="fill" to="#808080" begin="arrowDown.mouseover" end="arrowDown.mouseout"/>
                  </use>
                  <path fill="none" stroke="white" stroke-width="1.5" d="M0,-3.0v7 M-2.5,-0.5L0,-3.0L2.5,-0.5"/>
                </g>
                <g id="arrowLeft" xlink:href="#dirArrow" transform="rotate(270) translate(-36 17)" onmousedown="handlePan(-1,0)">
                  <use xlink:href="#rim" fill="#404040">
                        <set attributeName="fill" to="#808080" begin="arrowLeft.mouseover" end="arrowLeft.mouseout"/>
                  </use>
                  <path fill="none" stroke="white" stroke-width="1.5" d="M0,-3.0v7 M-2.5,-0.5L0,-3.0L2.5,-0.5"/>
                </g>
        </g>
        <svg viewBox="0 0 15 15" width="100%" height="30px" preserveAspectRatio="xMaxYMin meet">
         <g id="arrow_out" transform="scale(0.3 0.3)">
          <a xlink:href="swdsm_8cpp_adafea891224a2b1860cbc6afe9610334_adafea891224a2b1860cbc6afe9610334_cgraph_org.svg" target="_base">
           <rect id="button" ry="5" rx="5" y="6" x="6" height="38" width="38"
                fill="#f2f5e9" fill-opacity="0.5" stroke="#606060" stroke-width="1.0"/>
           <path id="arrow"
             d="M 11.500037,31.436501 C 11.940474,20.09759 22.043105,11.32322 32.158766,21.979434 L 37.068811,17.246167 C 37.068811,17.246167 37.088388,32 37.088388,32 L 22.160133,31.978069 C 22.160133,31.978069 26.997745,27.140456 26.997745,27.140456 C 18.528582,18.264221 13.291696,25.230495 11.500037,31.436501 z"
             style="fill:#404040;"/>
          </a>
         </g>
        </svg>
</svg>
