<?xml version="1.0" encoding="UTF-8" standalone="no"?>
<!DOCTYPE svg PUBLIC "-//W3C//DTD SVG 1.1//EN"
 "http://www.w3.org/Graphics/SVG/1.1/DTD/svg11.dtd">
<!-- Generated by graphviz version 2.43.0 (0)
 -->
<!-- Title: print_statistics Pages: 1 -->
<!--zoomable 760 -->
<svg id="main" version="1.1" xmlns="http://www.w3.org/2000/svg" xmlns:xlink="http://www.w3.org/1999/xlink" xml:space="preserve" onload="init(evt)">
<style type="text/css"><![CDATA[
.edge:hover path { stroke: red; }
.edge:hover polygon { stroke: red; fill: red; }
]]></style>
<script type="text/javascript"><![CDATA[
var edges = document.getElementsByTagName('g');
if (edges && edges.length) {
  for (var i=0;i<edges.length;i++) {
    if (edges[i].id.substr(0,4)=='edge') {
      edges[i].setAttribute('class','edge');
    }
  }
}
]]></script>
        <defs>
                <circle id="rim" cx="0" cy="0" r="7"/>
                <circle id="rim2" cx="0" cy="0" r="3.5"/>
                <g id="zoomPlus">
                        <use xlink:href="#rim" fill="#404040">
                                <set attributeName="fill" to="#808080" begin="zoomplus.mouseover" end="zoomplus.mouseout"/>
                        </use>
                        <path d="M-4,0h8M0,-4v8" fill="none" stroke="white" stroke-width="1.5" pointer-events="none"/>
                </g>
                <g id="zoomMin">
                        <use xlink:href="#rim" fill="#404040">
                                <set attributeName="fill" to="#808080" begin="zoomminus.mouseover" end="zoomminus.mouseout"/>
                        </use>
                        <path d="M-4,0h8" fill="none" stroke="white" stroke-width="1.5" pointer-events="none"/>
                </g>
                <g id="dirArrow">
                        <path fill="none" stroke="white" stroke-width="1.5" d="M0,-3.0v7 M-2.5,-0.5L0,-3.0L2.5,-0.5"/>
                </g>
               <g id="resetDef">
                       <use xlink:href="#rim2" fill="#404040">
                               <set attributeName="fill" to="#808080" begin="reset.mouseover" end="reset.mouseout"/>
                       </use>
               </g>
        </defs>

<script type="text/javascript">
var viewWidth = 438;
var viewHeight = 760;
var sectionId = 'dynsection-0';
</script>
<script xlink:href="svgpan.js"/>
<svg id="graph" class="graph">
<g id="viewport">
<title>print_statistics</title>
<polygon fill="white" stroke="transparent" points="-4,4 -4,-756 434,-756 434,4 -4,4"/>
<!-- Node1 -->
<g id="node1" class="node">
<title>Node1</title>
<g id="a_node1"><a xlink:title="Prints collected statistics.">
<polygon fill="#bfbfbf" stroke="black" points="0,-345 0,-364 89,-364 89,-345 0,-345"/>
<text text-anchor="middle" x="44.5" y="-352" font-family="Helvetica,sans-Serif" font-size="10.00">print_statistics</text>
</a>
</g>
</g>
<!-- Node2 -->
<g id="node2" class="node">
<title>Node2</title>
<g id="a_node2"><a xlink:href="namespaceargo_1_1env_a30775a9aa41b956df7474a2c0cc317aa.html#a30775a9aa41b956df7474a2c0cc317aa" target="_top" xlink:title="get the allocation block size requested by environment variable">
<polygon fill="white" stroke="black" points="153,-721.5 153,-751.5 269,-751.5 269,-721.5 153,-721.5"/>
<text text-anchor="start" x="161" y="-739.5" font-family="Helvetica,sans-Serif" font-size="10.00">argo::env::allocation</text>
<text text-anchor="middle" x="211" y="-728.5" font-family="Helvetica,sans-Serif" font-size="10.00">_block_size</text>
</a>
</g>
</g>
<!-- Node1&#45;&gt;Node2 -->
<g id="edge1" class="edge">
<title>Node1&#45;&gt;Node2</title>
<path fill="none" stroke="midnightblue" d="M46.33,-364.18C50.93,-415.92 75.04,-659.63 125,-712.5 130.14,-717.94 136.41,-722.18 143.19,-725.48"/>
<polygon fill="midnightblue" stroke="midnightblue" points="142.12,-728.82 152.7,-729.41 144.8,-722.35 142.12,-728.82"/>
</g>
<!-- Node3 -->
<g id="node3" class="node">
<title>Node3</title>
<g id="a_node3"><a xlink:href="namespaceargo_1_1env_a25a08cb2d0d11432d640ec7173063339.html#a25a08cb2d0d11432d640ec7173063339" target="_top" xlink:title="get the allocation policy requested by environment variable">
<polygon fill="white" stroke="black" points="153,-672.5 153,-702.5 269,-702.5 269,-672.5 153,-672.5"/>
<text text-anchor="start" x="161" y="-690.5" font-family="Helvetica,sans-Serif" font-size="10.00">argo::env::allocation</text>
<text text-anchor="middle" x="211" y="-679.5" font-family="Helvetica,sans-Serif" font-size="10.00">_policy</text>
</a>
</g>
</g>
<!-- Node1&#45;&gt;Node3 -->
<g id="edge2" class="edge">
<title>Node1&#45;&gt;Node3</title>
<path fill="none" stroke="midnightblue" d="M46.68,-364.08C52.66,-411.27 81.16,-618.63 125,-663.5 130.23,-668.85 136.56,-673.04 143.37,-676.31"/>
<polygon fill="midnightblue" stroke="midnightblue" points="142.33,-679.66 152.91,-680.22 144.98,-673.18 142.33,-679.66"/>
</g>
<!-- Node4 -->
<g id="node4" class="node">
<title>Node4</title>
<g id="a_node4"><a xlink:href="classmpi__lock_a86966dcd6fa1a4af21c9235ae60f798a.html#a86966dcd6fa1a4af21c9235ae60f798a" target="_top" xlink:title="get timekeeping statistics">
<polygon fill="white" stroke="black" points="155.5,-623.5 155.5,-653.5 266.5,-653.5 266.5,-623.5 155.5,-623.5"/>
<text text-anchor="start" x="163.5" y="-641.5" font-family="Helvetica,sans-Serif" font-size="10.00">mpi_lock::get_local</text>
<text text-anchor="middle" x="211" y="-630.5" font-family="Helvetica,sans-Serif" font-size="10.00">_hold_time</text>
</a>
</g>
</g>
<!-- Node1&#45;&gt;Node4 -->
<g id="edge3" class="edge">
<title>Node1&#45;&gt;Node4</title>
<path fill="none" stroke="midnightblue" d="M45.37,-364.17C45.41,-402.06 50.78,-541.87 125,-614.5 130.92,-620.29 138.13,-624.71 145.82,-628.08"/>
<polygon fill="midnightblue" stroke="midnightblue" points="144.79,-631.43 155.38,-631.68 147.26,-624.88 144.79,-631.43"/>
</g>
<!-- Node5 -->
<g id="node5" class="node">
<title>Node5</title>
<g id="a_node5"><a xlink:href="classmpi__lock_a7f1514ea25f51841c5892e0938aab4fe.html#a7f1514ea25f51841c5892e0938aab4fe" target="_top" xlink:title="get timekeeping statistics">
<polygon fill="white" stroke="black" points="155.5,-574.5 155.5,-604.5 266.5,-604.5 266.5,-574.5 155.5,-574.5"/>
<text text-anchor="start" x="163.5" y="-592.5" font-family="Helvetica,sans-Serif" font-size="10.00">mpi_lock::get_local</text>
<text text-anchor="middle" x="211" y="-581.5" font-family="Helvetica,sans-Serif" font-size="10.00">_lock_time</text>
</a>
</g>
</g>
<!-- Node1&#45;&gt;Node5 -->
<g id="edge4" class="edge">
<title>Node1&#45;&gt;Node5</title>
<path fill="none" stroke="midnightblue" d="M46.19,-364.09C49.1,-397.11 63.24,-507.26 125,-564.5 131.02,-570.08 138.21,-574.41 145.84,-577.79"/>
<polygon fill="midnightblue" stroke="midnightblue" points="144.71,-581.1 155.3,-581.44 147.23,-574.57 144.71,-581.1"/>
</g>
<!-- Node6 -->
<g id="node6" class="node">
<title>Node6</title>
<g id="a_node6"><a xlink:href="classcache__lock_a20765dc9363f22615608c3936acbea12.html#a20765dc9363f22615608c3936acbea12" target="_top" xlink:title="Get the time spent waiting for the lock.">
<polygon fill="white" stroke="black" points="138,-536 138,-555 284,-555 284,-536 138,-536"/>
<text text-anchor="middle" x="211" y="-543" font-family="Helvetica,sans-Serif" font-size="10.00">cache_lock::get_lock_time</text>
</a>
</g>
</g>
<!-- Node1&#45;&gt;Node6 -->
<g id="edge5" class="edge">
<title>Node1&#45;&gt;Node6</title>
<path fill="none" stroke="midnightblue" d="M46.93,-364.12C51.82,-393.49 70.72,-482.71 125,-526.5 127.06,-528.16 129.23,-529.68 131.5,-531.08"/>
<polygon fill="midnightblue" stroke="midnightblue" points="130.15,-534.32 140.63,-535.86 133.39,-528.12 130.15,-534.32"/>
</g>
<!-- Node8 -->
<g id="node8" class="node">
<title>Node8</title>
<g id="a_node8"><a xlink:href="classmpi__lock_a62ad399ba212798ca505e57da0dbc9ce.html#a62ad399ba212798ca505e57da0dbc9ce" target="_top" xlink:title="get timekeeping statistics">
<polygon fill="white" stroke="black" points="142,-486.5 142,-516.5 280,-516.5 280,-486.5 142,-486.5"/>
<text text-anchor="start" x="150" y="-504.5" font-family="Helvetica,sans-Serif" font-size="10.00">mpi_lock::get_max_local</text>
<text text-anchor="middle" x="211" y="-493.5" font-family="Helvetica,sans-Serif" font-size="10.00">_hold_time</text>
</a>
</g>
</g>
<!-- Node1&#45;&gt;Node8 -->
<g id="edge7" class="edge">
<title>Node1&#45;&gt;Node8</title>
<path fill="none" stroke="midnightblue" d="M48.97,-364.19C57.82,-387.46 83.48,-446.84 125,-477.5 127.51,-479.35 130.16,-481.06 132.9,-482.64"/>
<polygon fill="midnightblue" stroke="midnightblue" points="131.47,-485.84 141.97,-487.25 134.64,-479.6 131.47,-485.84"/>
</g>
<!-- Node9 -->
<g id="node9" class="node">
<title>Node9</title>
<g id="a_node9"><a xlink:href="classmpi__lock_a035137a1b22771462178ef79fb9fde92.html#a035137a1b22771462178ef79fb9fde92" target="_top" xlink:title="get timekeeping statistics">
<polygon fill="white" stroke="black" points="142,-437.5 142,-467.5 280,-467.5 280,-437.5 142,-437.5"/>
<text text-anchor="start" x="150" y="-455.5" font-family="Helvetica,sans-Serif" font-size="10.00">mpi_lock::get_max_local</text>
<text text-anchor="middle" x="211" y="-444.5" font-family="Helvetica,sans-Serif" font-size="10.00">_lock_time</text>
</a>
</g>
</g>
<!-- Node1&#45;&gt;Node9 -->
<g id="edge8" class="edge">
<title>Node1&#45;&gt;Node9</title>
<path fill="none" stroke="midnightblue" d="M53.22,-364.22C66.32,-380.03 94.43,-411.31 125,-428.5 128.19,-430.3 131.53,-431.97 134.96,-433.52"/>
<polygon fill="midnightblue" stroke="midnightblue" points="133.63,-436.76 144.21,-437.36 136.32,-430.29 133.63,-436.76"/>
</g>
<!-- Node10 -->
<g id="node10" class="node">
<title>Node10</title>
<g id="a_node10"><a xlink:href="classmpi__lock_a918138bbc74bae70555cb03655a2a1f9.html#a918138bbc74bae70555cb03655a2a1f9" target="_top" xlink:title="get timekeeping statistics">
<polygon fill="white" stroke="black" points="144,-388.5 144,-418.5 278,-418.5 278,-388.5 144,-388.5"/>
<text text-anchor="start" x="152" y="-406.5" font-family="Helvetica,sans-Serif" font-size="10.00">mpi_lock::get_max_mpi</text>
<text text-anchor="middle" x="211" y="-395.5" font-family="Helvetica,sans-Serif" font-size="10.00">_hold_time</text>
</a>
</g>
</g>
<!-- Node1&#45;&gt;Node10 -->
<g id="edge9" class="edge">
<title>Node1&#45;&gt;Node10</title>
<path fill="none" stroke="midnightblue" d="M75.26,-364.09C90.16,-368.83 108.5,-374.58 125,-379.5 131.61,-381.47 138.53,-383.49 145.44,-385.49"/>
<polygon fill="midnightblue" stroke="midnightblue" points="144.94,-388.98 155.52,-388.37 146.87,-382.26 144.94,-388.98"/>
</g>
<!-- Node11 -->
<g id="node11" class="node">
<title>Node11</title>
<g id="a_node11"><a xlink:href="classmpi__lock_a4562dec39e6bbe180b5008f3b8164475.html#a4562dec39e6bbe180b5008f3b8164475" target="_top" xlink:title="get timekeeping statistics">
<polygon fill="white" stroke="black" points="144,-339.5 144,-369.5 278,-369.5 278,-339.5 144,-339.5"/>
<text text-anchor="start" x="152" y="-357.5" font-family="Helvetica,sans-Serif" font-size="10.00">mpi_lock::get_max_mpi</text>
<text text-anchor="middle" x="211" y="-346.5" font-family="Helvetica,sans-Serif" font-size="10.00">_lock_time</text>
</a>
</g>
</g>
<!-- Node1&#45;&gt;Node11 -->
<g id="edge10" class="edge">
<title>Node1&#45;&gt;Node11</title>
<path fill="none" stroke="midnightblue" d="M89.15,-354.5C102.89,-354.5 118.49,-354.5 133.81,-354.5"/>
<polygon fill="midnightblue" stroke="midnightblue" points="133.82,-358 143.82,-354.5 133.82,-351 133.82,-358"/>
</g>
<!-- Node12 -->
<g id="node12" class="node">
<title>Node12</title>
<g id="a_node12"><a xlink:href="classmpi__lock_af52f3dbb6e508302f969bbdbed1c9d97.html#af52f3dbb6e508302f969bbdbed1c9d97" target="_top" xlink:title="get timekeeping statistics">
<polygon fill="white" stroke="black" points="144,-290.5 144,-320.5 278,-320.5 278,-290.5 144,-290.5"/>
<text text-anchor="start" x="152" y="-308.5" font-family="Helvetica,sans-Serif" font-size="10.00">mpi_lock::get_max_mpi</text>
<text text-anchor="middle" x="211" y="-297.5" font-family="Helvetica,sans-Serif" font-size="10.00">_unlock_time</text>
</a>
</g>
</g>
<!-- Node1&#45;&gt;Node12 -->
<g id="edge11" class="edge">
<title>Node1&#45;&gt;Node12</title>
<path fill="none" stroke="midnightblue" d="M76.82,-344.99C91.45,-340.56 109.11,-335.24 125,-330.5 132.76,-328.19 140.91,-325.77 148.98,-323.39"/>
<polygon fill="midnightblue" stroke="midnightblue" points="150.14,-326.7 158.74,-320.51 148.16,-319.98 150.14,-326.7"/>
</g>
<!-- Node13 -->
<g id="node13" class="node">
<title>Node13</title>
<g id="a_node13"><a xlink:href="classmpi__lock_ad843a303cc544689e6fb0091347a168b.html#ad843a303cc544689e6fb0091347a168b" target="_top" xlink:title="get timekeeping statistics">
<polygon fill="white" stroke="black" points="130.5,-252 130.5,-271 291.5,-271 291.5,-252 130.5,-252"/>
<text text-anchor="middle" x="211" y="-259" font-family="Helvetica,sans-Serif" font-size="10.00">mpi_lock::get_mpi_hold_time</text>
</a>
</g>
</g>
<!-- Node1&#45;&gt;Node13 -->
<g id="edge12" class="edge">
<title>Node1&#45;&gt;Node13</title>
<path fill="none" stroke="midnightblue" d="M53.17,-344.77C66.19,-328.96 94.2,-297.81 125,-281.5 130.24,-278.73 135.85,-276.34 141.61,-274.27"/>
<polygon fill="midnightblue" stroke="midnightblue" points="142.97,-277.51 151.4,-271.1 140.81,-270.85 142.97,-277.51"/>
</g>
<!-- Node14 -->
<g id="node14" class="node">
<title>Node14</title>
<g id="a_node14"><a xlink:href="classmpi__lock_a143a1f1c3efe11317d21af2eefada5cf.html#a143a1f1c3efe11317d21af2eefada5cf" target="_top" xlink:title="get timekeeping statistics">
<polygon fill="white" stroke="black" points="131,-214 131,-233 291,-233 291,-214 131,-214"/>
<text text-anchor="middle" x="211" y="-221" font-family="Helvetica,sans-Serif" font-size="10.00">mpi_lock::get_mpi_lock_time</text>
</a>
</g>
</g>
<!-- Node1&#45;&gt;Node14 -->
<g id="edge13" class="edge">
<title>Node1&#45;&gt;Node14</title>
<path fill="none" stroke="midnightblue" d="M49.4,-344.89C58.84,-322.95 85.09,-269.03 125,-242.5 127.99,-240.51 131.15,-238.73 134.43,-237.14"/>
<polygon fill="midnightblue" stroke="midnightblue" points="136.1,-240.23 143.94,-233.11 133.37,-233.79 136.1,-240.23"/>
</g>
<!-- Node15 -->
<g id="node15" class="node">
<title>Node15</title>
<g id="a_node15"><a xlink:href="classmpi__lock_ab507807cfafa66d924b4b0161c90a44a.html#ab507807cfafa66d924b4b0161c90a44a" target="_top" xlink:title="get timekeeping statistics">
<polygon fill="white" stroke="black" points="125,-176 125,-195 297,-195 297,-176 125,-176"/>
<text text-anchor="middle" x="211" y="-183" font-family="Helvetica,sans-Serif" font-size="10.00">mpi_lock::get_mpi_unlock_time</text>
</a>
</g>
</g>
<!-- Node1&#45;&gt;Node15 -->
<g id="edge14" class="edge">
<title>Node1&#45;&gt;Node15</title>
<path fill="none" stroke="midnightblue" d="M47.6,-344.97C54.03,-318.2 76.02,-241.86 125,-204.5 127.37,-202.69 129.87,-201.05 132.48,-199.56"/>
<polygon fill="midnightblue" stroke="midnightblue" points="134.25,-202.59 141.7,-195.06 131.18,-196.31 134.25,-202.59"/>
</g>
<!-- Node16 -->
<g id="node16" class="node">
<title>Node16</title>
<g id="a_node16"><a xlink:href="classmpi__lock_aaf748b1c4867b65bb4169553462bb310.html#aaf748b1c4867b65bb4169553462bb310" target="_top" xlink:title="get timekeeping statistics">
<polygon fill="white" stroke="black" points="141,-138 141,-157 281,-157 281,-138 141,-138"/>
<text text-anchor="middle" x="211" y="-145" font-family="Helvetica,sans-Serif" font-size="10.00">mpi_lock::get_num_locks</text>
</a>
</g>
</g>
<!-- Node1&#45;&gt;Node16 -->
<g id="edge15" class="edge">
<title>Node1&#45;&gt;Node16</title>
<path fill="none" stroke="midnightblue" d="M46.52,-344.9C50.34,-313.81 66.77,-215.08 125,-166.5 127.08,-164.76 129.29,-163.17 131.6,-161.73"/>
<polygon fill="midnightblue" stroke="midnightblue" points="133.72,-164.56 140.92,-156.79 130.44,-158.38 133.72,-164.56"/>
</g>
<!-- Node17 -->
<g id="node17" class="node">
<title>Node17</title>
<g id="a_node17"><a xlink:href="classcache__lock_a7c2050c2d1fe11a3a2772a0305c0905e.html#a7c2050c2d1fe11a3a2772a0305c0905e" target="_top" xlink:title="Get the number of times this lock was held.">
<polygon fill="white" stroke="black" points="151.5,-88.5 151.5,-118.5 270.5,-118.5 270.5,-88.5 151.5,-88.5"/>
<text text-anchor="start" x="159.5" y="-106.5" font-family="Helvetica,sans-Serif" font-size="10.00">cache_lock::get_num</text>
<text text-anchor="middle" x="211" y="-95.5" font-family="Helvetica,sans-Serif" font-size="10.00">_locks</text>
</a>
</g>
</g>
<!-- Node1&#45;&gt;Node17 -->
<g id="edge16" class="edge">
<title>Node1&#45;&gt;Node17</title>
<path fill="none" stroke="midnightblue" d="M45.92,-344.69C47.93,-309.82 59.54,-190.63 125,-128.5 129.95,-123.8 135.73,-119.99 141.91,-116.88"/>
<polygon fill="midnightblue" stroke="midnightblue" points="143.44,-120.03 151.2,-112.82 140.64,-113.62 143.44,-120.03"/>
</g>
<!-- Node18 -->
<g id="node18" class="node">
<title>Node18</title>
<g id="a_node18"><a xlink:href="namespaceargo_1_1env_a5b409fb87255b7e434bf833ab8598113.html#a5b409fb87255b7e434bf833ab8598113" target="_top" xlink:title="get the write buffer size requested by environment variable">
<polygon fill="white" stroke="black" points="135.5,-50 135.5,-69 286.5,-69 286.5,-50 135.5,-50"/>
<text text-anchor="middle" x="211" y="-57" font-family="Helvetica,sans-Serif" font-size="10.00">argo::env::write_buffer_size</text>
</a>
</g>
</g>
<!-- Node1&#45;&gt;Node18 -->
<g id="edge18" class="edge">
<title>Node1&#45;&gt;Node18</title>
<path fill="none" stroke="midnightblue" d="M45.1,-345C43.98,-305.82 45.23,-155.36 125,-79.5 126.97,-77.63 129.08,-75.92 131.31,-74.36"/>
<polygon fill="midnightblue" stroke="midnightblue" points="133.5,-77.13 140.37,-69.06 129.97,-71.08 133.5,-77.13"/>
</g>
<!-- Node19 -->
<g id="node19" class="node">
<title>Node19</title>
<g id="a_node19"><a xlink:href="namespaceargo_1_1env_a922830e55425dbc0b85f1184be0a7751.html#a922830e55425dbc0b85f1184be0a7751" target="_top" xlink:title="get the write buffer write back size requested by environment variable">
<polygon fill="white" stroke="black" points="148,-0.5 148,-30.5 274,-30.5 274,-0.5 148,-0.5"/>
<text text-anchor="start" x="156" y="-18.5" font-family="Helvetica,sans-Serif" font-size="10.00">argo::env::write_buffer</text>
<text text-anchor="middle" x="211" y="-7.5" font-family="Helvetica,sans-Serif" font-size="10.00">_write_back_size</text>
</a>
</g>
</g>
<!-- Node1&#45;&gt;Node19 -->
<g id="edge19" class="edge">
<title>Node1&#45;&gt;Node19</title>
<path fill="none" stroke="midnightblue" d="M46.66,-344.78C52.59,-296.88 80.83,-86.38 125,-40.5 128.93,-36.41 133.5,-32.99 138.43,-30.11"/>
<polygon fill="midnightblue" stroke="midnightblue" points="140.26,-33.11 147.64,-25.51 137.13,-26.85 140.26,-33.11"/>
</g>
<!-- Node7 -->
<g id="node7" class="node">
<title>Node7</title>
<g id="a_node7"><a xlink:href="classcache__lock_a3a26cac78d1ee17663b7407b7599a9c0.html#a3a26cac78d1ee17663b7407b7599a9c0" target="_top" xlink:title="Acquire a cache lock.">
<polygon fill="white" stroke="black" points="333,-315 333,-334 430,-334 430,-315 333,-315"/>
<text text-anchor="middle" x="381.5" y="-322" font-family="Helvetica,sans-Serif" font-size="10.00">cache_lock::lock</text>
</a>
</g>
</g>
<!-- Node6&#45;&gt;Node7 -->
<g id="edge6" class="edge">
<title>Node6&#45;&gt;Node7</title>
<path fill="none" stroke="midnightblue" d="M281.96,-535.87C287.38,-533.38 292.49,-530.3 297,-526.5 354.07,-478.49 372.73,-385.15 378.31,-344.37"/>
<polygon fill="midnightblue" stroke="midnightblue" points="381.8,-344.7 379.57,-334.34 374.85,-343.83 381.8,-344.7"/>
</g>
<!-- Node17&#45;&gt;Node7 -->
<g id="edge17" class="edge">
<title>Node17&#45;&gt;Node7</title>
<path fill="none" stroke="midnightblue" d="M270.87,-113.39C280.37,-116.97 289.53,-121.85 297,-128.5 350.94,-176.49 371.17,-265.24 377.73,-304.7"/>
<polygon fill="midnightblue" stroke="midnightblue" points="374.29,-305.3 379.27,-314.65 381.2,-304.24 374.29,-305.3"/>
</g>
</g>
</svg>
        <g id="navigator" transform="translate(0 0)" fill="#404254">
                <rect fill="#f2f5e9" fill-opacity="0.5" stroke="#606060" stroke-width=".5" x="0" y="0" width="60" height="60"/>
                <use id="zoomplus" xlink:href="#zoomPlus" x="17" y="9" onmousedown="handleZoom(evt,'in')"/>
                <use id="zoomminus" xlink:href="#zoomMin" x="42" y="9" onmousedown="handleZoom(evt,'out')"/>
                <use id="reset" xlink:href="#resetDef" x="30" y="36" onmousedown="handleReset()"/>
                <g id="arrowUp" xlink:href="#dirArrow" transform="translate(30 24)" onmousedown="handlePan(0,-1)">
                  <use xlink:href="#rim" fill="#404040">
                        <set attributeName="fill" to="#808080" begin="arrowUp.mouseover" end="arrowUp.mouseout"/>
                  </use>
                  <path fill="none" stroke="white" stroke-width="1.5" d="M0,-3.0v7 M-2.5,-0.5L0,-3.0L2.5,-0.5"/>
                </g>
                <g id="arrowRight" xlink:href="#dirArrow" transform="rotate(90) translate(36 -43)" onmousedown="handlePan(1,0)">
                  <use xlink:href="#rim" fill="#404040">
                        <set attributeName="fill" to="#808080" begin="arrowRight.mouseover" end="arrowRight.mouseout"/>
                  </use>
                  <path fill="none" stroke="white" stroke-width="1.5" d="M0,-3.0v7 M-2.5,-0.5L0,-3.0L2.5,-0.5"/>
                </g>
                <g id="arrowDown" xlink:href="#dirArrow" transform="rotate(180) translate(-30 -48)" onmousedown="handlePan(0,1)">
                  <use xlink:href="#rim" fill="#404040">
                        <set attributeName="fill" to="#808080" begin="arrowDown.mouseover" end="arrowDown.mouseout"/>
                  </use>
                  <path fill="none" stroke="white" stroke-width="1.5" d="M0,-3.0v7 M-2.5,-0.5L0,-3.0L2.5,-0.5"/>
                </g>
                <g id="arrowLeft" xlink:href="#dirArrow" transform="rotate(270) translate(-36 17)" onmousedown="handlePan(-1,0)">
                  <use xlink:href="#rim" fill="#404040">
                        <set attributeName="fill" to="#808080" begin="arrowLeft.mouseover" end="arrowLeft.mouseout"/>
                  </use>
                  <path fill="none" stroke="white" stroke-width="1.5" d="M0,-3.0v7 M-2.5,-0.5L0,-3.0L2.5,-0.5"/>
                </g>
        </g>
        <svg viewBox="0 0 15 15" width="100%" height="30px" preserveAspectRatio="xMaxYMin meet">
         <g id="arrow_out" transform="scale(0.3 0.3)">
          <a xlink:href="swdsm_8h_a3c8a8769158025ec9e929601b9df6439_a3c8a8769158025ec9e929601b9df6439_cgraph_org.svg" target="_base">
           <rect id="button" ry="5" rx="5" y="6" x="6" height="38" width="38"
                fill="#f2f5e9" fill-opacity="0.5" stroke="#606060" stroke-width="1.0"/>
           <path id="arrow"
             d="M 11.500037,31.436501 C 11.940474,20.09759 22.043105,11.32322 32.158766,21.979434 L 37.068811,17.246167 C 37.068811,17.246167 37.088388,32 37.088388,32 L 22.160133,31.978069 C 22.160133,31.978069 26.997745,27.140456 26.997745,27.140456 C 18.528582,18.264221 13.291696,25.230495 11.500037,31.436501 z"
             style="fill:#404040;"/>
          </a>
         </g>
        </svg>
</svg>
