<?xml version="1.0" encoding="UTF-8" standalone="no"?>
<!DOCTYPE svg PUBLIC "-//W3C//DTD SVG 1.1//EN"
 "http://www.w3.org/Graphics/SVG/1.1/DTD/svg11.dtd">
<!-- Generated by graphviz version 2.43.0 (0)
 -->
<!-- Title: storepageDIFF Pages: 1 -->
<svg width="867pt" height="189pt"
 viewBox="0.00 0.00 867.00 189.00" xmlns="http://www.w3.org/2000/svg" xmlns:xlink="http://www.w3.org/1999/xlink">
<g id="graph0" class="graph" transform="scale(1 1) rotate(0) translate(4 185)">
<title>storepageDIFF</title>
<polygon fill="white" stroke="transparent" points="-4,4 -4,-185 863,-185 863,4 -4,4"/>
<!-- Node1 -->
<g id="node1" class="node">
<title>Node1</title>
<g id="a_node1"><a xlink:title="stores a page remotely &#45; only writing back what has been written locally since last synchronization p...">
<polygon fill="#bfbfbf" stroke="black" points="771,-94 771,-113 859,-113 859,-94 771,-94"/>
<text text-anchor="middle" x="815" y="-101" font-family="Helvetica,sans-Serif" font-size="10.00">storepageDIFF</text>
</a>
</g>
</g>
<!-- Node2 -->
<g id="node2" class="node">
<title>Node2</title>
<g id="a_node2"><a xlink:href="backend_8hpp_ac3350bde3c8baf64753e515336fad3be.html#ac3350bde3c8baf64753e515336fad3be" target="_top" xlink:title="backend internal type erased function for selective release">
<polygon fill="white" stroke="black" points="595,-132.5 595,-162.5 735,-162.5 735,-132.5 595,-132.5"/>
<text text-anchor="start" x="603" y="-150.5" font-family="Helvetica,sans-Serif" font-size="10.00">argo::backend::_selective</text>
<text text-anchor="middle" x="665" y="-139.5" font-family="Helvetica,sans-Serif" font-size="10.00">_release</text>
</a>
</g>
</g>
<!-- Node1&#45;&gt;Node2 -->
<g id="edge1" class="edge">
<title>Node1&#45;&gt;Node2</title>
<path fill="none" stroke="midnightblue" d="M772.11,-115.96C754.86,-121.08 734.74,-127.06 716.67,-132.43"/>
<polygon fill="midnightblue" stroke="midnightblue" points="773.3,-119.25 781.89,-113.05 771.3,-112.54 773.3,-119.25"/>
</g>
<!-- Node4 -->
<g id="node4" class="node">
<title>Node4</title>
<g id="a_node4"><a xlink:href="swdsm_8cpp_a92a73a9ea2009afcbef38b3e88b9ac0f.html#a92a73a9ea2009afcbef38b3e88b9ac0f" target="_top" xlink:title="load into cache helper function">
<polygon fill="white" stroke="black" points="614,-94 614,-113 716,-113 716,-94 614,-94"/>
<text text-anchor="middle" x="665" y="-101" font-family="Helvetica,sans-Serif" font-size="10.00">load_cache_entry</text>
</a>
</g>
</g>
<!-- Node1&#45;&gt;Node4 -->
<g id="edge5" class="edge">
<title>Node1&#45;&gt;Node4</title>
<path fill="none" stroke="midnightblue" d="M760.47,-103.5C745.98,-103.5 730.34,-103.5 716.04,-103.5"/>
<polygon fill="midnightblue" stroke="midnightblue" points="760.79,-107 770.79,-103.5 760.79,-100 760.79,-107"/>
</g>
<!-- Node8 -->
<g id="node8" class="node">
<title>Node8</title>
<g id="a_node8"><a xlink:href="classwrite__buffer_a066de0a724f3f13272780ad7ca8e6502.html#a066de0a724f3f13272780ad7ca8e6502" target="_top" xlink:title="Perform writeback of a single cached page.">
<polygon fill="white" stroke="black" points="612,-44.5 612,-74.5 718,-74.5 718,-44.5 612,-44.5"/>
<text text-anchor="start" x="620" y="-62.5" font-family="Helvetica,sans-Serif" font-size="10.00">write_buffer::write</text>
<text text-anchor="middle" x="665" y="-51.5" font-family="Helvetica,sans-Serif" font-size="10.00">_back_index</text>
</a>
</g>
</g>
<!-- Node1&#45;&gt;Node8 -->
<g id="edge9" class="edge">
<title>Node1&#45;&gt;Node8</title>
<path fill="none" stroke="midnightblue" d="M772.11,-91.04C754.86,-85.92 734.74,-79.94 716.67,-74.57"/>
<polygon fill="midnightblue" stroke="midnightblue" points="771.3,-94.46 781.89,-93.95 773.3,-87.75 771.3,-94.46"/>
</g>
<!-- Node2&#45;&gt;Node2 -->
<g id="edge2" class="edge">
<title>Node2&#45;&gt;Node2</title>
<path fill="none" stroke="midnightblue" d="M691.65,-172.96C688.35,-177.68 679.46,-181 665,-181 641.27,-181 632.56,-172.06 638.86,-162.66"/>
<polygon fill="midnightblue" stroke="midnightblue" points="695.13,-172.47 691.14,-162.66 688.14,-172.82 695.13,-172.47"/>
</g>
<!-- Node3 -->
<g id="node3" class="node">
<title>Node3</title>
<g id="a_node3"><a xlink:href="backend_8hpp_a37c88e1409650776ddb3a33d7f2744cb.html#a37c88e1409650776ddb3a33d7f2744cb" target="_top" xlink:title="causes a node to self&#45;downgrade specified pages from its cache, making all previous writes to be prop...">
<polygon fill="white" stroke="black" points="424,-132.5 424,-162.5 559,-162.5 559,-132.5 424,-132.5"/>
<text text-anchor="start" x="432" y="-150.5" font-family="Helvetica,sans-Serif" font-size="10.00">argo::backend::selective</text>
<text text-anchor="middle" x="491.5" y="-139.5" font-family="Helvetica,sans-Serif" font-size="10.00">_release</text>
</a>
</g>
</g>
<!-- Node2&#45;&gt;Node3 -->
<g id="edge3" class="edge">
<title>Node2&#45;&gt;Node3</title>
<path fill="none" stroke="midnightblue" d="M584.5,-147.5C576.05,-147.5 567.52,-147.5 559.24,-147.5"/>
<polygon fill="midnightblue" stroke="midnightblue" points="584.74,-151 594.74,-147.5 584.74,-144 584.74,-151"/>
</g>
<!-- Node3&#45;&gt;Node3 -->
<g id="edge4" class="edge">
<title>Node3&#45;&gt;Node3</title>
<path fill="none" stroke="midnightblue" d="M519.57,-172.96C516.09,-177.68 506.73,-181 491.5,-181 466.5,-181 457.33,-172.06 463.97,-162.66"/>
<polygon fill="midnightblue" stroke="midnightblue" points="523.05,-172.46 519.03,-162.66 516.06,-172.83 523.05,-172.46"/>
</g>
<!-- Node5 -->
<g id="node5" class="node">
<title>Node5</title>
<g id="a_node5"><a xlink:href="swdsm_8cpp_adb24c11067d42b9bc8515a78a524e2c7.html#adb24c11067d42b9bc8515a78a524e2c7" target="_top" xlink:title="Catches memory accesses to memory not yet cached in ArgoDSM. Launches remote requests for memory not ...">
<polygon fill="white" stroke="black" points="465,-94 465,-113 518,-113 518,-94 465,-94"/>
<text text-anchor="middle" x="491.5" y="-101" font-family="Helvetica,sans-Serif" font-size="10.00">handler</text>
</a>
</g>
</g>
<!-- Node4&#45;&gt;Node5 -->
<g id="edge6" class="edge">
<title>Node4&#45;&gt;Node5</title>
<path fill="none" stroke="midnightblue" d="M603.75,-103.5C574.37,-103.5 540.6,-103.5 518.05,-103.5"/>
<polygon fill="midnightblue" stroke="midnightblue" points="603.93,-107 613.93,-103.5 603.93,-100 603.93,-107"/>
</g>
<!-- Node6 -->
<g id="node6" class="node">
<title>Node6</title>
<g id="a_node6"><a xlink:href="swdsm_8cpp_a31ba60e8ddccfa922da8d7e6a10f7b1d.html#a31ba60e8ddccfa922da8d7e6a10f7b1d" target="_top" xlink:title="Initializes ArgoDSM runtime.">
<polygon fill="white" stroke="black" points="290,-94 290,-113 376,-113 376,-94 290,-94"/>
<text text-anchor="middle" x="333" y="-101" font-family="Helvetica,sans-Serif" font-size="10.00">argo_initialize</text>
</a>
</g>
</g>
<!-- Node5&#45;&gt;Node6 -->
<g id="edge7" class="edge">
<title>Node5&#45;&gt;Node6</title>
<path fill="none" stroke="midnightblue" d="M454.48,-103.5C431.12,-103.5 400.59,-103.5 376.11,-103.5"/>
<polygon fill="midnightblue" stroke="midnightblue" points="454.66,-107 464.66,-103.5 454.66,-100 454.66,-107"/>
</g>
<!-- Node7 -->
<g id="node7" class="node">
<title>Node7</title>
<g id="a_node7"><a xlink:href="backend_8hpp_aab3cabb3e1c0b9696b339416b684f78c.html#aab3cabb3e1c0b9696b339416b684f78c" target="_top" xlink:title="initialize backend">
<polygon fill="white" stroke="black" points="135,-94 135,-113 242,-113 242,-94 135,-94"/>
<text text-anchor="middle" x="188.5" y="-101" font-family="Helvetica,sans-Serif" font-size="10.00">argo::backend::init</text>
</a>
</g>
</g>
<!-- Node6&#45;&gt;Node7 -->
<g id="edge8" class="edge">
<title>Node6&#45;&gt;Node7</title>
<path fill="none" stroke="midnightblue" d="M279.57,-103.5C267.34,-103.5 254.3,-103.5 242.06,-103.5"/>
<polygon fill="midnightblue" stroke="midnightblue" points="279.63,-107 289.63,-103.5 279.63,-100 279.63,-107"/>
</g>
<!-- Node9 -->
<g id="node9" class="node">
<title>Node9</title>
<g id="a_node9"><a xlink:href="classwrite__buffer_ad01396b3a57acdae3d76a31ae6253f48.html#ad01396b3a57acdae3d76a31ae6253f48" target="_top" xlink:title="Internal implementation of flush.">
<polygon fill="white" stroke="black" points="436.5,-50 436.5,-69 546.5,-69 546.5,-50 436.5,-50"/>
<text text-anchor="middle" x="491.5" y="-57" font-family="Helvetica,sans-Serif" font-size="10.00">write_buffer::_flush</text>
</a>
</g>
</g>
<!-- Node8&#45;&gt;Node9 -->
<g id="edge10" class="edge">
<title>Node8&#45;&gt;Node9</title>
<path fill="none" stroke="midnightblue" d="M601.51,-59.5C583.53,-59.5 564.07,-59.5 546.64,-59.5"/>
<polygon fill="midnightblue" stroke="midnightblue" points="601.61,-63 611.61,-59.5 601.61,-56 601.61,-63"/>
</g>
<!-- Node12 -->
<g id="node12" class="node">
<title>Node12</title>
<g id="a_node12"><a xlink:href="classwrite__buffer_aa6a1c2c3aa3a7cde744bbca3b14f599a.html#aa6a1c2c3aa3a7cde744bbca3b14f599a" target="_top" xlink:title="Flushes first _write_back_size elements of the ArgoDSM write buffer to memory.">
<polygon fill="white" stroke="black" points="439.5,-0.5 439.5,-30.5 543.5,-30.5 543.5,-0.5 439.5,-0.5"/>
<text text-anchor="start" x="447.5" y="-18.5" font-family="Helvetica,sans-Serif" font-size="10.00">write_buffer::flush</text>
<text text-anchor="middle" x="491.5" y="-7.5" font-family="Helvetica,sans-Serif" font-size="10.00">_partial</text>
</a>
</g>
</g>
<!-- Node8&#45;&gt;Node12 -->
<g id="edge13" class="edge">
<title>Node8&#45;&gt;Node12</title>
<path fill="none" stroke="midnightblue" d="M601.81,-43.54C582.72,-38.65 561.95,-33.32 543.68,-28.63"/>
<polygon fill="midnightblue" stroke="midnightblue" points="601.06,-46.96 611.61,-46.06 602.8,-40.18 601.06,-46.96"/>
</g>
<!-- Node10 -->
<g id="node10" class="node">
<title>Node10</title>
<g id="a_node10"><a xlink:href="classwrite__buffer_adbf59cdee2664f9db4a5e0dfd4f273ef.html#adbf59cdee2664f9db4a5e0dfd4f273ef" target="_top" xlink:title="Helper function to call _flush.">
<polygon fill="white" stroke="black" points="278,-44.5 278,-74.5 388,-74.5 388,-44.5 278,-44.5"/>
<text text-anchor="start" x="286" y="-62.5" font-family="Helvetica,sans-Serif" font-size="10.00">write_buffer::_flush</text>
<text text-anchor="middle" x="333" y="-51.5" font-family="Helvetica,sans-Serif" font-size="10.00">_helper</text>
</a>
</g>
</g>
<!-- Node9&#45;&gt;Node10 -->
<g id="edge11" class="edge">
<title>Node9&#45;&gt;Node10</title>
<path fill="none" stroke="midnightblue" d="M425.84,-59.5C413.32,-59.5 400.34,-59.5 388.2,-59.5"/>
<polygon fill="midnightblue" stroke="midnightblue" points="426.2,-63 436.2,-59.5 426.2,-56 426.2,-63"/>
</g>
<!-- Node11 -->
<g id="node11" class="node">
<title>Node11</title>
<g id="a_node11"><a xlink:href="classwrite__buffer_aca2e330e17a38c1cc8d8c60701ce9dd7.html#aca2e330e17a38c1cc8d8c60701ce9dd7" target="_top" xlink:title="Flushes the ArgoDSM write buffer to memory.">
<polygon fill="white" stroke="black" points="136.5,-50 136.5,-69 240.5,-69 240.5,-50 136.5,-50"/>
<text text-anchor="middle" x="188.5" y="-57" font-family="Helvetica,sans-Serif" font-size="10.00">write_buffer::flush</text>
</a>
</g>
</g>
<!-- Node10&#45;&gt;Node11 -->
<g id="edge12" class="edge">
<title>Node10&#45;&gt;Node11</title>
<path fill="none" stroke="midnightblue" d="M267.66,-59.5C258.66,-59.5 249.52,-59.5 240.81,-59.5"/>
<polygon fill="midnightblue" stroke="midnightblue" points="267.72,-63 277.72,-59.5 267.72,-56 267.72,-63"/>
</g>
<!-- Node13 -->
<g id="node13" class="node">
<title>Node13</title>
<g id="a_node13"><a xlink:href="classwrite__buffer_a327be1f65770b56442b1e8ee967be23d.html#a327be1f65770b56442b1e8ee967be23d" target="_top" xlink:title="Internal function to add an element to the write buffer.">
<polygon fill="white" stroke="black" points="281,-6 281,-25 385,-25 385,-6 281,-6"/>
<text text-anchor="middle" x="333" y="-13" font-family="Helvetica,sans-Serif" font-size="10.00">write_buffer::_add</text>
</a>
</g>
</g>
<!-- Node12&#45;&gt;Node13 -->
<g id="edge14" class="edge">
<title>Node12&#45;&gt;Node13</title>
<path fill="none" stroke="midnightblue" d="M428.87,-15.5C414.37,-15.5 399.07,-15.5 385.09,-15.5"/>
<polygon fill="midnightblue" stroke="midnightblue" points="429.26,-19 439.26,-15.5 429.26,-12 429.26,-19"/>
</g>
<!-- Node14 -->
<g id="node14" class="node">
<title>Node14</title>
<g id="a_node14"><a xlink:href="classwrite__buffer_ab5f16d0de074372b34cc4ebba9c58550.html#ab5f16d0de074372b34cc4ebba9c58550" target="_top" xlink:title="Helper function to call _add.">
<polygon fill="white" stroke="black" points="136.5,-0.5 136.5,-30.5 240.5,-30.5 240.5,-0.5 136.5,-0.5"/>
<text text-anchor="start" x="144.5" y="-18.5" font-family="Helvetica,sans-Serif" font-size="10.00">write_buffer::_add</text>
<text text-anchor="middle" x="188.5" y="-7.5" font-family="Helvetica,sans-Serif" font-size="10.00">_helper</text>
</a>
</g>
</g>
<!-- Node13&#45;&gt;Node14 -->
<g id="edge15" class="edge">
<title>Node13&#45;&gt;Node14</title>
<path fill="none" stroke="midnightblue" d="M270.66,-15.5C260.66,-15.5 250.39,-15.5 240.67,-15.5"/>
<polygon fill="midnightblue" stroke="midnightblue" points="270.96,-19 280.96,-15.5 270.96,-12 270.96,-19"/>
</g>
<!-- Node15 -->
<g id="node15" class="node">
<title>Node15</title>
<g id="a_node15"><a xlink:href="classwrite__buffer_a23b0dbc463111cacbbf83b267e76ac9f.html#a23b0dbc463111cacbbf83b267e76ac9f" target="_top" xlink:title="Adds a new element to the write buffer.">
<polygon fill="white" stroke="black" points="0,-6 0,-25 99,-25 99,-6 0,-6"/>
<text text-anchor="middle" x="49.5" y="-13" font-family="Helvetica,sans-Serif" font-size="10.00">write_buffer::add</text>
</a>
</g>
</g>
<!-- Node14&#45;&gt;Node15 -->
<g id="edge16" class="edge">
<title>Node14&#45;&gt;Node15</title>
<path fill="none" stroke="midnightblue" d="M126.36,-15.5C117.29,-15.5 108.05,-15.5 99.28,-15.5"/>
<polygon fill="midnightblue" stroke="midnightblue" points="126.49,-19 136.49,-15.5 126.49,-12 126.49,-19"/>
</g>
</g>
</svg>
