<?xml version="1.0" encoding="UTF-8" standalone="no"?>
<!DOCTYPE svg PUBLIC "-//W3C//DTD SVG 1.1//EN"
 "http://www.w3.org/Graphics/SVG/1.1/DTD/svg11.dtd">
<!-- Generated by graphviz version 2.43.0 (0)
 -->
<!-- Title: /home/projectcs&#45;2022/argodsmBuffer/argodsmPrefetching/src/synchronization/synchronization.cpp Pages: 1 -->
<!--zoomable 565 -->
<svg id="main" version="1.1" xmlns="http://www.w3.org/2000/svg" xmlns:xlink="http://www.w3.org/1999/xlink" xml:space="preserve" onload="init(evt)">
<style type="text/css"><![CDATA[
.edge:hover path { stroke: red; }
.edge:hover polygon { stroke: red; fill: red; }
]]></style>
<script type="text/javascript"><![CDATA[
var edges = document.getElementsByTagName('g');
if (edges && edges.length) {
  for (var i=0;i<edges.length;i++) {
    if (edges[i].id.substr(0,4)=='edge') {
      edges[i].setAttribute('class','edge');
    }
  }
}
]]></script>
        <defs>
                <circle id="rim" cx="0" cy="0" r="7"/>
                <circle id="rim2" cx="0" cy="0" r="3.5"/>
                <g id="zoomPlus">
                        <use xlink:href="#rim" fill="#404040">
                                <set attributeName="fill" to="#808080" begin="zoomplus.mouseover" end="zoomplus.mouseout"/>
                        </use>
                        <path d="M-4,0h8M0,-4v8" fill="none" stroke="white" stroke-width="1.5" pointer-events="none"/>
                </g>
                <g id="zoomMin">
                        <use xlink:href="#rim" fill="#404040">
                                <set attributeName="fill" to="#808080" begin="zoomminus.mouseover" end="zoomminus.mouseout"/>
                        </use>
                        <path d="M-4,0h8" fill="none" stroke="white" stroke-width="1.5" pointer-events="none"/>
                </g>
                <g id="dirArrow">
                        <path fill="none" stroke="white" stroke-width="1.5" d="M0,-3.0v7 M-2.5,-0.5L0,-3.0L2.5,-0.5"/>
                </g>
               <g id="resetDef">
                       <use xlink:href="#rim2" fill="#404040">
                               <set attributeName="fill" to="#808080" begin="reset.mouseover" end="reset.mouseout"/>
                       </use>
               </g>
        </defs>

<script type="text/javascript">
var viewWidth = 1175;
var viewHeight = 565;
var sectionId = 'dynsection-0';
</script>
<script xlink:href="svgpan.js"/>
<svg id="graph" class="graph">
<g id="viewport">
<title>/home/projectcs&#45;2022/argodsmBuffer/argodsmPrefetching/src/synchronization/synchronization.cpp</title>
<polygon fill="white" stroke="transparent" points="-4,4 -4,-561 1171.05,-561 1171.05,4 -4,4"/>
<!-- Node1 -->
<g id="node1" class="node">
<title>Node1</title>
<g id="a_node1"><a xlink:title="This file implements synchronization primitives for ArgoDSM.">
<polygon fill="#bfbfbf" stroke="black" points="757.91,-515.5 757.91,-556.5 972.91,-556.5 972.91,-515.5 757.91,-515.5"/>
<text text-anchor="start" x="765.91" y="-544.5" font-family="Helvetica,sans-Serif" font-size="10.00">/home/projectcs&#45;2022</text>
<text text-anchor="start" x="765.91" y="-533.5" font-family="Helvetica,sans-Serif" font-size="10.00">/argodsmBuffer/argodsmPrefetching</text>
<text text-anchor="middle" x="865.41" y="-522.5" font-family="Helvetica,sans-Serif" font-size="10.00">/src/synchronization/synchronization.cpp</text>
</a>
</g>
</g>
<!-- Node2 -->
<g id="node2" class="node">
<title>Node2</title>
<g id="a_node2"><a xlink:href="backend_8hpp.html" target="_top" xlink:title="This file provides the backend interface.">
<polygon fill="white" stroke="black" points="763.41,-347.5 763.41,-366.5 885.41,-366.5 885.41,-347.5 763.41,-347.5"/>
<text text-anchor="middle" x="824.41" y="-354.5" font-family="Helvetica,sans-Serif" font-size="10.00">backend/backend.hpp</text>
</a>
</g>
</g>
<!-- Node1&#45;&gt;Node2 -->
<g id="edge1" class="edge">
<title>Node1&#45;&gt;Node2</title>
<path fill="none" stroke="midnightblue" d="M860.87,-515.38C852.89,-480.93 836.47,-410.04 828.69,-376.44"/>
<polygon fill="midnightblue" stroke="midnightblue" points="832.07,-375.54 826.4,-366.58 825.25,-377.12 832.07,-375.54"/>
</g>
<!-- Node21 -->
<g id="node21" class="node">
<title>Node21</title>
<g id="a_node21"><a xlink:href="synchronization_8hpp.html" target="_top" xlink:title="This file provides synchronization primitives for ArgoDSM.">
<polygon fill="white" stroke="black" points="919.91,-459.5 919.91,-478.5 1034.91,-478.5 1034.91,-459.5 919.91,-459.5"/>
<text text-anchor="middle" x="977.41" y="-466.5" font-family="Helvetica,sans-Serif" font-size="10.00">synchronization.hpp</text>
</a>
</g>
</g>
<!-- Node1&#45;&gt;Node21 -->
<g id="edge30" class="edge">
<title>Node1&#45;&gt;Node21</title>
<path fill="none" stroke="midnightblue" d="M899.02,-515.5C916.68,-505.24 937.91,-492.93 953.82,-483.69"/>
<polygon fill="midnightblue" stroke="midnightblue" points="955.61,-486.7 962.51,-478.65 952.1,-480.64 955.61,-486.7"/>
</g>
<!-- Node3 -->
<g id="node3" class="node">
<title>Node3</title>
<g id="a_node3"><a xlink:title=" ">
<polygon fill="white" stroke="#bfbfbf" points="798.41,-286 798.41,-305 850.41,-305 850.41,-286 798.41,-286"/>
<text text-anchor="middle" x="824.41" y="-293" font-family="Helvetica,sans-Serif" font-size="10.00">cassert</text>
</a>
</g>
</g>
<!-- Node2&#45;&gt;Node3 -->
<g id="edge2" class="edge">
<title>Node2&#45;&gt;Node3</title>
<path fill="none" stroke="midnightblue" d="M824.41,-347.48C824.41,-339.08 824.41,-325.98 824.41,-315.16"/>
<polygon fill="midnightblue" stroke="midnightblue" points="827.91,-315.01 824.41,-305.01 820.91,-315.01 827.91,-315.01"/>
</g>
<!-- Node4 -->
<g id="node4" class="node">
<title>Node4</title>
<g id="a_node4"><a xlink:title=" ">
<polygon fill="white" stroke="#bfbfbf" points="868.41,-286 868.41,-305 918.41,-305 918.41,-286 868.41,-286"/>
<text text-anchor="middle" x="893.41" y="-293" font-family="Helvetica,sans-Serif" font-size="10.00">cstdint</text>
</a>
</g>
</g>
<!-- Node2&#45;&gt;Node4 -->
<g id="edge3" class="edge">
<title>Node2&#45;&gt;Node4</title>
<path fill="none" stroke="midnightblue" d="M834.3,-347.48C845.06,-338.2 862.49,-323.17 875.64,-311.83"/>
<polygon fill="midnightblue" stroke="midnightblue" points="878.26,-314.19 883.55,-305.01 873.69,-308.89 878.26,-314.19"/>
</g>
<!-- Node5 -->
<g id="node5" class="node">
<title>Node5</title>
<g id="a_node5"><a xlink:title=" ">
<polygon fill="white" stroke="#bfbfbf" points="564.91,-286 564.91,-305 629.91,-305 629.91,-286 564.91,-286"/>
<text text-anchor="middle" x="597.41" y="-293" font-family="Helvetica,sans-Serif" font-size="10.00">stdexcept</text>
</a>
</g>
</g>
<!-- Node2&#45;&gt;Node5 -->
<g id="edge4" class="edge">
<title>Node2&#45;&gt;Node5</title>
<path fill="none" stroke="midnightblue" d="M784.79,-347.49C747.14,-339.14 689.05,-325.57 639.41,-311 636.47,-310.14 633.44,-309.19 630.4,-308.21"/>
<polygon fill="midnightblue" stroke="midnightblue" points="631.43,-304.87 620.84,-305.02 629.21,-311.51 631.43,-304.87"/>
</g>
<!-- Node6 -->
<g id="node6" class="node">
<title>Node6</title>
<g id="a_node6"><a xlink:href="global__ptr_8hpp.html" target="_top" xlink:title="This file provides the global pointer for ArgoDSM.">
<polygon fill="white" stroke="black" points="648.41,-280.5 648.41,-310.5 780.41,-310.5 780.41,-280.5 648.41,-280.5"/>
<text text-anchor="start" x="656.41" y="-298.5" font-family="Helvetica,sans-Serif" font-size="10.00">data_distribution/global</text>
<text text-anchor="middle" x="714.41" y="-287.5" font-family="Helvetica,sans-Serif" font-size="10.00">_ptr.hpp</text>
</a>
</g>
</g>
<!-- Node2&#45;&gt;Node6 -->
<g id="edge5" class="edge">
<title>Node2&#45;&gt;Node6</title>
<path fill="none" stroke="midnightblue" d="M808.65,-347.48C793.2,-339.12 769.12,-326.09 749.17,-315.3"/>
<polygon fill="midnightblue" stroke="midnightblue" points="750.8,-312.2 740.34,-310.52 747.47,-318.36 750.8,-312.2"/>
</g>
<!-- Node14 -->
<g id="node14" class="node">
<title>Node14</title>
<g id="a_node14"><a xlink:href="types_8hpp.html" target="_top" xlink:title="This file defines common types used in ArgoDSM.">
<polygon fill="white" stroke="black" points="930.91,-56.5 930.91,-75.5 1025.91,-75.5 1025.91,-56.5 930.91,-56.5"/>
<text text-anchor="middle" x="978.41" y="-63.5" font-family="Helvetica,sans-Serif" font-size="10.00">types/types.hpp</text>
</a>
</g>
</g>
<!-- Node2&#45;&gt;Node14 -->
<g id="edge29" class="edge">
<title>Node2&#45;&gt;Node14</title>
<path fill="none" stroke="midnightblue" d="M863.73,-347.43C885.28,-340.84 910.89,-329.6 927.41,-311 950.85,-284.62 950.41,-270.29 950.41,-235 950.41,-235 950.41,-235 950.41,-177 950.41,-143.79 962.55,-106.63 970.84,-85.12"/>
<polygon fill="midnightblue" stroke="midnightblue" points="974.17,-86.23 974.64,-75.65 967.67,-83.63 974.17,-86.23"/>
</g>
<!-- Node7 -->
<g id="node7" class="node">
<title>Node7</title>
<g id="a_node7"><a xlink:title=" ">
<polygon fill="white" stroke="#bfbfbf" points="45.41,-56.5 45.41,-75.5 89.41,-75.5 89.41,-56.5 45.41,-56.5"/>
<text text-anchor="middle" x="67.41" y="-63.5" font-family="Helvetica,sans-Serif" font-size="10.00">string</text>
</a>
</g>
</g>
<!-- Node6&#45;&gt;Node7 -->
<g id="edge6" class="edge">
<title>Node6&#45;&gt;Node7</title>
<path fill="none" stroke="midnightblue" d="M648.19,-281.53C645.23,-281 642.29,-280.49 639.41,-280 499.92,-256.34 101.95,-295.03 9.41,-188 -18.62,-155.58 23.59,-107.27 49.57,-82.65"/>
<polygon fill="midnightblue" stroke="midnightblue" points="52.01,-85.15 57.01,-75.81 47.28,-80 52.01,-85.15"/>
</g>
<!-- Node8 -->
<g id="node8" class="node">
<title>Node8</title>
<g id="a_node8"><a xlink:href="data__distribution_8hpp.html" target="_top" xlink:title="This file provides an abstraction layer for distributing the shared memory space.">
<polygon fill="white" stroke="black" points="473.41,-224.5 473.41,-243.5 593.41,-243.5 593.41,-224.5 473.41,-224.5"/>
<text text-anchor="middle" x="533.41" y="-231.5" font-family="Helvetica,sans-Serif" font-size="10.00">data_distribution.hpp</text>
</a>
</g>
</g>
<!-- Node6&#45;&gt;Node8 -->
<g id="edge7" class="edge">
<title>Node6&#45;&gt;Node8</title>
<path fill="none" stroke="midnightblue" d="M671.52,-280.4C640.38,-270.16 598.73,-256.47 569.33,-246.81"/>
<polygon fill="midnightblue" stroke="midnightblue" points="570.08,-243.37 559.49,-243.57 567.89,-250.02 570.08,-243.37"/>
</g>
<!-- Node12 -->
<g id="node12" class="node">
<title>Node12</title>
<g id="a_node12"><a xlink:href="env_8hpp.html" target="_top" xlink:title="This file provides facilities for handling environment variables.">
<polygon fill="white" stroke="black" points="836.41,-56.5 836.41,-75.5 912.41,-75.5 912.41,-56.5 836.41,-56.5"/>
<text text-anchor="middle" x="874.41" y="-63.5" font-family="Helvetica,sans-Serif" font-size="10.00">env/env.hpp</text>
</a>
</g>
</g>
<!-- Node6&#45;&gt;Node12 -->
<g id="edge28" class="edge">
<title>Node6&#45;&gt;Node12</title>
<path fill="none" stroke="midnightblue" d="M748.79,-280.35C785.38,-263.57 842.47,-232.2 875.41,-188 896.1,-160.25 898.96,-145.99 892.41,-112 890.62,-102.7 886.93,-92.89 883.35,-84.8"/>
<polygon fill="midnightblue" stroke="midnightblue" points="886.47,-83.21 879.04,-75.66 880.14,-86.2 886.47,-83.21"/>
</g>
<!-- Node9 -->
<g id="node9" class="node">
<title>Node9</title>
<g id="a_node9"><a xlink:href="base__distribution_8hpp.html" target="_top" xlink:title="This file implements the base distribution class for all the policies to derive from.">
<polygon fill="white" stroke="black" points="400.41,-112.5 400.41,-131.5 522.41,-131.5 522.41,-112.5 400.41,-112.5"/>
<text text-anchor="middle" x="461.41" y="-119.5" font-family="Helvetica,sans-Serif" font-size="10.00">base_distribution.hpp</text>
</a>
</g>
</g>
<!-- Node8&#45;&gt;Node9 -->
<g id="edge8" class="edge">
<title>Node8&#45;&gt;Node9</title>
<path fill="none" stroke="midnightblue" d="M473.38,-230.32C443.04,-225.54 408.65,-214.17 389.41,-188 374.04,-167.09 403.26,-147.81 428.96,-135.76"/>
<polygon fill="midnightblue" stroke="midnightblue" points="430.46,-138.93 438.17,-131.67 427.61,-132.53 430.46,-138.93"/>
</g>
<!-- Node8&#45;&gt;Node12 -->
<g id="edge27" class="edge">
<title>Node8&#45;&gt;Node12</title>
<path fill="none" stroke="midnightblue" d="M593.51,-232.85C676.32,-231.31 819.39,-223.42 855.41,-188 882.74,-161.13 881.01,-112.11 877.59,-85.45"/>
<polygon fill="midnightblue" stroke="midnightblue" points="881.04,-84.9 876.1,-75.53 874.12,-85.94 881.04,-84.9"/>
</g>
<!-- Node15 -->
<g id="node15" class="node">
<title>Node15</title>
<g id="a_node15"><a xlink:href="cyclic__distribution_8hpp.html" target="_top" xlink:title="This file implements the cyclic data distribution.">
<polygon fill="white" stroke="black" points="398.41,-168.5 398.41,-187.5 524.41,-187.5 524.41,-168.5 398.41,-168.5"/>
<text text-anchor="middle" x="461.41" y="-175.5" font-family="Helvetica,sans-Serif" font-size="10.00">cyclic_distribution.hpp</text>
</a>
</g>
</g>
<!-- Node8&#45;&gt;Node15 -->
<g id="edge15" class="edge">
<title>Node8&#45;&gt;Node15</title>
<path fill="none" stroke="midnightblue" d="M521.85,-224.32C510.99,-216.18 494.53,-203.84 481.53,-194.09"/>
<polygon fill="midnightblue" stroke="midnightblue" points="483.29,-191.03 473.19,-187.83 479.09,-196.63 483.29,-191.03"/>
</g>
<!-- Node16 -->
<g id="node16" class="node">
<title>Node16</title>
<g id="a_node16"><a xlink:href="first__touch__distribution_8hpp.html" target="_top" xlink:title="This file implements the first&#45;touch data distribution.">
<polygon fill="white" stroke="black" points="18.91,-168.5 18.91,-187.5 167.91,-187.5 167.91,-168.5 18.91,-168.5"/>
<text text-anchor="middle" x="93.41" y="-175.5" font-family="Helvetica,sans-Serif" font-size="10.00">first_touch_distribution.hpp</text>
</a>
</g>
</g>
<!-- Node8&#45;&gt;Node16 -->
<g id="edge17" class="edge">
<title>Node8&#45;&gt;Node16</title>
<path fill="none" stroke="midnightblue" d="M473.16,-225.6C395.16,-216.03 259.05,-199.33 172.73,-188.73"/>
<polygon fill="midnightblue" stroke="midnightblue" points="173.07,-185.25 162.72,-187.51 172.21,-192.2 173.07,-185.25"/>
</g>
<!-- Node18 -->
<g id="node18" class="node">
<title>Node18</title>
<g id="a_node18"><a xlink:href="naive__distribution_8hpp.html" target="_top" xlink:title="This file implements the naive data distribution.">
<polygon fill="white" stroke="black" points="542.91,-168.5 542.91,-187.5 667.91,-187.5 667.91,-168.5 542.91,-168.5"/>
<text text-anchor="middle" x="605.41" y="-175.5" font-family="Helvetica,sans-Serif" font-size="10.00">naive_distribution.hpp</text>
</a>
</g>
</g>
<!-- Node8&#45;&gt;Node18 -->
<g id="edge21" class="edge">
<title>Node8&#45;&gt;Node18</title>
<path fill="none" stroke="midnightblue" d="M544.98,-224.32C555.83,-216.18 572.29,-203.84 585.3,-194.09"/>
<polygon fill="midnightblue" stroke="midnightblue" points="587.74,-196.63 593.64,-187.83 583.54,-191.03 587.74,-196.63"/>
</g>
<!-- Node19 -->
<g id="node19" class="node">
<title>Node19</title>
<g id="a_node19"><a xlink:href="prime__mapp__distribution_8hpp.html" target="_top" xlink:title="This file implements the prime&#45;mapp data distribution.">
<polygon fill="white" stroke="black" points="686.41,-168.5 686.41,-187.5 846.41,-187.5 846.41,-168.5 686.41,-168.5"/>
<text text-anchor="middle" x="766.41" y="-175.5" font-family="Helvetica,sans-Serif" font-size="10.00">prime_mapp_distribution.hpp</text>
</a>
</g>
</g>
<!-- Node8&#45;&gt;Node19 -->
<g id="edge23" class="edge">
<title>Node8&#45;&gt;Node19</title>
<path fill="none" stroke="midnightblue" d="M570.33,-224.44C610.81,-215.06 675.83,-199.99 719.8,-189.8"/>
<polygon fill="midnightblue" stroke="midnightblue" points="720.72,-193.18 729.67,-187.52 719.14,-186.36 720.72,-193.18"/>
</g>
<!-- Node20 -->
<g id="node20" class="node">
<title>Node20</title>
<g id="a_node20"><a xlink:href="skew__mapp__distribution_8hpp.html" target="_top" xlink:title="This file implements the skew&#45;mapp data distribution.">
<polygon fill="white" stroke="black" points="186.41,-168.5 186.41,-187.5 342.41,-187.5 342.41,-168.5 186.41,-168.5"/>
<text text-anchor="middle" x="264.41" y="-175.5" font-family="Helvetica,sans-Serif" font-size="10.00">skew_mapp_distribution.hpp</text>
</a>
</g>
</g>
<!-- Node8&#45;&gt;Node20 -->
<g id="edge25" class="edge">
<title>Node8&#45;&gt;Node20</title>
<path fill="none" stroke="midnightblue" d="M490.79,-224.44C443.67,-214.98 367.72,-199.74 316.96,-189.55"/>
<polygon fill="midnightblue" stroke="midnightblue" points="317.33,-186.05 306.84,-187.52 315.95,-192.92 317.33,-186.05"/>
</g>
<!-- Node9&#45;&gt;Node7 -->
<g id="edge11" class="edge">
<title>Node9&#45;&gt;Node7</title>
<path fill="none" stroke="midnightblue" d="M400.28,-112.62C315.52,-101 165.32,-80.42 99.65,-71.42"/>
<polygon fill="midnightblue" stroke="midnightblue" points="99.88,-67.92 89.5,-70.03 98.93,-74.85 99.88,-67.92"/>
</g>
<!-- Node10 -->
<g id="node10" class="node">
<title>Node10</title>
<g id="a_node10"><a xlink:title=" ">
<polygon fill="white" stroke="#bfbfbf" points="399.91,-56.5 399.91,-75.5 448.91,-75.5 448.91,-56.5 399.91,-56.5"/>
<text text-anchor="middle" x="424.41" y="-63.5" font-family="Helvetica,sans-Serif" font-size="10.00">cstdlib</text>
</a>
</g>
</g>
<!-- Node9&#45;&gt;Node10 -->
<g id="edge9" class="edge">
<title>Node9&#45;&gt;Node10</title>
<path fill="none" stroke="midnightblue" d="M455.3,-112.08C450.13,-104.53 442.57,-93.49 436.22,-84.23"/>
<polygon fill="midnightblue" stroke="midnightblue" points="438.95,-82.02 430.41,-75.75 433.18,-85.98 438.95,-82.02"/>
</g>
<!-- Node11 -->
<g id="node11" class="node">
<title>Node11</title>
<g id="a_node11"><a xlink:title=" ">
<polygon fill="white" stroke="#bfbfbf" points="467.41,-56.5 467.41,-75.5 527.41,-75.5 527.41,-56.5 467.41,-56.5"/>
<text text-anchor="middle" x="497.41" y="-63.5" font-family="Helvetica,sans-Serif" font-size="10.00">iostream</text>
</a>
</g>
</g>
<!-- Node9&#45;&gt;Node11 -->
<g id="edge10" class="edge">
<title>Node9&#45;&gt;Node11</title>
<path fill="none" stroke="midnightblue" d="M467.36,-112.08C472.39,-104.53 479.75,-93.49 485.93,-84.23"/>
<polygon fill="midnightblue" stroke="midnightblue" points="488.95,-86.01 491.58,-75.75 483.12,-82.13 488.95,-86.01"/>
</g>
<!-- Node9&#45;&gt;Node12 -->
<g id="edge12" class="edge">
<title>Node9&#45;&gt;Node12</title>
<path fill="none" stroke="midnightblue" d="M522.8,-112.97C605.42,-102.17 750.72,-83.17 826.06,-73.32"/>
<polygon fill="midnightblue" stroke="midnightblue" points="826.75,-76.76 836.21,-71.99 825.84,-69.82 826.75,-76.76"/>
</g>
<!-- Node9&#45;&gt;Node14 -->
<g id="edge14" class="edge">
<title>Node9&#45;&gt;Node14</title>
<path fill="none" stroke="midnightblue" d="M522.56,-116.18C608.83,-109.11 771.43,-94.86 920.6,-76.03"/>
<polygon fill="midnightblue" stroke="midnightblue" points="921.38,-79.46 930.86,-74.72 920.5,-72.51 921.38,-79.46"/>
</g>
<!-- Node13 -->
<g id="node13" class="node">
<title>Node13</title>
<g id="a_node13"><a xlink:title=" ">
<polygon fill="white" stroke="#bfbfbf" points="993.91,-0.5 993.91,-19.5 1046.91,-19.5 1046.91,-0.5 993.91,-0.5"/>
<text text-anchor="middle" x="1020.41" y="-7.5" font-family="Helvetica,sans-Serif" font-size="10.00">cstddef</text>
</a>
</g>
</g>
<!-- Node12&#45;&gt;Node13 -->
<g id="edge13" class="edge">
<title>Node12&#45;&gt;Node13</title>
<path fill="none" stroke="midnightblue" d="M897.55,-56.44C921.9,-47.44 960.42,-33.19 987.84,-23.05"/>
<polygon fill="midnightblue" stroke="midnightblue" points="989.22,-26.27 997.39,-19.52 986.8,-19.7 989.22,-26.27"/>
</g>
<!-- Node15&#45;&gt;Node9 -->
<g id="edge16" class="edge">
<title>Node15&#45;&gt;Node9</title>
<path fill="none" stroke="midnightblue" d="M461.41,-168.08C461.41,-161.01 461.41,-150.86 461.41,-141.99"/>
<polygon fill="midnightblue" stroke="midnightblue" points="464.91,-141.75 461.41,-131.75 457.91,-141.75 464.91,-141.75"/>
</g>
<!-- Node16&#45;&gt;Node7 -->
<g id="edge19" class="edge">
<title>Node16&#45;&gt;Node7</title>
<path fill="none" stroke="midnightblue" d="M91.37,-168.37C87.18,-150.62 77.5,-109.67 71.81,-85.6"/>
<polygon fill="midnightblue" stroke="midnightblue" points="75.15,-84.52 69.44,-75.59 68.34,-86.13 75.15,-84.52"/>
</g>
<!-- Node16&#45;&gt;Node9 -->
<g id="edge20" class="edge">
<title>Node16&#45;&gt;Node9</title>
<path fill="none" stroke="midnightblue" d="M151.72,-168.44C217.4,-158.81 324,-143.16 393.41,-132.98"/>
<polygon fill="midnightblue" stroke="midnightblue" points="393.99,-136.43 403.38,-131.52 392.97,-129.51 393.99,-136.43"/>
</g>
<!-- Node17 -->
<g id="node17" class="node">
<title>Node17</title>
<g id="a_node17"><a xlink:title=" ">
<polygon fill="white" stroke="#bfbfbf" points="95.41,-112.5 95.41,-131.5 143.41,-131.5 143.41,-112.5 95.41,-112.5"/>
<text text-anchor="middle" x="119.41" y="-119.5" font-family="Helvetica,sans-Serif" font-size="10.00">mutex</text>
</a>
</g>
</g>
<!-- Node16&#45;&gt;Node17 -->
<g id="edge18" class="edge">
<title>Node16&#45;&gt;Node17</title>
<path fill="none" stroke="midnightblue" d="M97.71,-168.08C101.27,-160.69 106.44,-149.95 110.84,-140.81"/>
<polygon fill="midnightblue" stroke="midnightblue" points="114.02,-142.28 115.2,-131.75 107.71,-139.24 114.02,-142.28"/>
</g>
<!-- Node18&#45;&gt;Node9 -->
<g id="edge22" class="edge">
<title>Node18&#45;&gt;Node9</title>
<path fill="none" stroke="midnightblue" d="M582.6,-168.44C558.58,-159.44 520.59,-145.19 493.54,-135.05"/>
<polygon fill="midnightblue" stroke="midnightblue" points="494.72,-131.75 484.12,-131.52 492.26,-138.3 494.72,-131.75"/>
</g>
<!-- Node19&#45;&gt;Node9 -->
<g id="edge24" class="edge">
<title>Node19&#45;&gt;Node9</title>
<path fill="none" stroke="midnightblue" d="M718.09,-168.44C664.21,-158.9 577.11,-143.48 519.55,-133.29"/>
<polygon fill="midnightblue" stroke="midnightblue" points="519.97,-129.81 509.52,-131.52 518.75,-136.71 519.97,-129.81"/>
</g>
<!-- Node20&#45;&gt;Node9 -->
<g id="edge26" class="edge">
<title>Node20&#45;&gt;Node9</title>
<path fill="none" stroke="midnightblue" d="M295.63,-168.44C329.35,-159.2 383.21,-144.44 420.35,-134.26"/>
<polygon fill="midnightblue" stroke="midnightblue" points="421.63,-137.54 430.34,-131.52 419.78,-130.78 421.63,-137.54"/>
</g>
<!-- Node21&#45;&gt;Node13 -->
<g id="edge31" class="edge">
<title>Node21&#45;&gt;Node13</title>
<path fill="none" stroke="midnightblue" d="M1035.26,-466.67C1071.9,-462.79 1117.79,-451.88 1147.41,-423 1168.97,-401.99 1166.41,-388.1 1166.41,-358 1166.41,-358 1166.41,-358 1166.41,-121 1166.41,-66.24 1100.08,-35.32 1056.84,-20.99"/>
<polygon fill="midnightblue" stroke="midnightblue" points="1057.78,-17.62 1047.19,-17.94 1055.67,-24.29 1057.78,-17.62"/>
</g>
<!-- Node22 -->
<g id="node22" class="node">
<title>Node22</title>
<g id="a_node22"><a xlink:href="broadcast_8hpp.html" target="_top" xlink:title="This file provides a broadcasting facility for a single value.">
<polygon fill="white" stroke="black" points="850.41,-403.5 850.41,-422.5 936.41,-422.5 936.41,-403.5 850.41,-403.5"/>
<text text-anchor="middle" x="893.41" y="-410.5" font-family="Helvetica,sans-Serif" font-size="10.00">broadcast.hpp</text>
</a>
</g>
</g>
<!-- Node21&#45;&gt;Node22 -->
<g id="edge32" class="edge">
<title>Node21&#45;&gt;Node22</title>
<path fill="none" stroke="midnightblue" d="M963.92,-459.32C950.81,-450.9 930.7,-437.97 915.31,-428.07"/>
<polygon fill="midnightblue" stroke="midnightblue" points="917.18,-425.12 906.88,-422.65 913.4,-431.01 917.18,-425.12"/>
</g>
<!-- Node23 -->
<g id="node23" class="node">
<title>Node23</title>
<g id="a_node23"><a xlink:href="synchronization_8h.html" target="_top" xlink:title="This file provides C bindings for some ArgoDSM synchronization primitives.">
<polygon fill="white" stroke="black" points="954.91,-403.5 954.91,-422.5 1137.91,-422.5 1137.91,-403.5 954.91,-403.5"/>
<text text-anchor="middle" x="1046.41" y="-410.5" font-family="Helvetica,sans-Serif" font-size="10.00">synchronization/synchronization.h</text>
</a>
</g>
</g>
<!-- Node21&#45;&gt;Node23 -->
<g id="edge35" class="edge">
<title>Node21&#45;&gt;Node23</title>
<path fill="none" stroke="midnightblue" d="M988.5,-459.32C998.9,-451.18 1014.67,-438.84 1027.14,-429.09"/>
<polygon fill="midnightblue" stroke="midnightblue" points="1029.41,-431.75 1035.13,-422.83 1025.09,-426.24 1029.41,-431.75"/>
</g>
<!-- Node22&#45;&gt;Node2 -->
<g id="edge33" class="edge">
<title>Node22&#45;&gt;Node2</title>
<path fill="none" stroke="midnightblue" d="M882.33,-403.32C871.93,-395.18 856.15,-382.84 843.69,-373.09"/>
<polygon fill="midnightblue" stroke="midnightblue" points="845.73,-370.24 835.7,-366.83 841.42,-375.75 845.73,-370.24"/>
</g>
<!-- Node22&#45;&gt;Node14 -->
<g id="edge34" class="edge">
<title>Node22&#45;&gt;Node14</title>
<path fill="none" stroke="midnightblue" d="M908.26,-403.3C934.98,-386.39 988.41,-346.35 988.41,-296.5 988.41,-296.5 988.41,-296.5 988.41,-177 988.41,-144.82 984.12,-107.55 981.16,-85.7"/>
<polygon fill="midnightblue" stroke="midnightblue" points="984.58,-84.95 979.72,-75.53 977.65,-85.92 984.58,-84.95"/>
</g>
<!-- Node24 -->
<g id="node24" class="node">
<title>Node24</title>
<g id="a_node24"><a xlink:title=" ">
<polygon fill="white" stroke="#bfbfbf" points="1018.41,-347.5 1018.41,-366.5 1074.41,-366.5 1074.41,-347.5 1018.41,-347.5"/>
<text text-anchor="middle" x="1046.41" y="-354.5" font-family="Helvetica,sans-Serif" font-size="10.00">stddef.h</text>
</a>
</g>
</g>
<!-- Node23&#45;&gt;Node24 -->
<g id="edge36" class="edge">
<title>Node23&#45;&gt;Node24</title>
<path fill="none" stroke="midnightblue" d="M1046.41,-403.08C1046.41,-396.01 1046.41,-385.86 1046.41,-376.99"/>
<polygon fill="midnightblue" stroke="midnightblue" points="1049.91,-376.75 1046.41,-366.75 1042.91,-376.75 1049.91,-376.75"/>
</g>
</g>
</svg>
        <g id="navigator" transform="translate(0 0)" fill="#404254">
                <rect fill="#f2f5e9" fill-opacity="0.5" stroke="#606060" stroke-width=".5" x="0" y="0" width="60" height="60"/>
                <use id="zoomplus" xlink:href="#zoomPlus" x="17" y="9" onmousedown="handleZoom(evt,'in')"/>
                <use id="zoomminus" xlink:href="#zoomMin" x="42" y="9" onmousedown="handleZoom(evt,'out')"/>
                <use id="reset" xlink:href="#resetDef" x="30" y="36" onmousedown="handleReset()"/>
                <g id="arrowUp" xlink:href="#dirArrow" transform="translate(30 24)" onmousedown="handlePan(0,-1)">
                  <use xlink:href="#rim" fill="#404040">
                        <set attributeName="fill" to="#808080" begin="arrowUp.mouseover" end="arrowUp.mouseout"/>
                  </use>
                  <path fill="none" stroke="white" stroke-width="1.5" d="M0,-3.0v7 M-2.5,-0.5L0,-3.0L2.5,-0.5"/>
                </g>
                <g id="arrowRight" xlink:href="#dirArrow" transform="rotate(90) translate(36 -43)" onmousedown="handlePan(1,0)">
                  <use xlink:href="#rim" fill="#404040">
                        <set attributeName="fill" to="#808080" begin="arrowRight.mouseover" end="arrowRight.mouseout"/>
                  </use>
                  <path fill="none" stroke="white" stroke-width="1.5" d="M0,-3.0v7 M-2.5,-0.5L0,-3.0L2.5,-0.5"/>
                </g>
                <g id="arrowDown" xlink:href="#dirArrow" transform="rotate(180) translate(-30 -48)" onmousedown="handlePan(0,1)">
                  <use xlink:href="#rim" fill="#404040">
                        <set attributeName="fill" to="#808080" begin="arrowDown.mouseover" end="arrowDown.mouseout"/>
                  </use>
                  <path fill="none" stroke="white" stroke-width="1.5" d="M0,-3.0v7 M-2.5,-0.5L0,-3.0L2.5,-0.5"/>
                </g>
                <g id="arrowLeft" xlink:href="#dirArrow" transform="rotate(270) translate(-36 17)" onmousedown="handlePan(-1,0)">
                  <use xlink:href="#rim" fill="#404040">
                        <set attributeName="fill" to="#808080" begin="arrowLeft.mouseover" end="arrowLeft.mouseout"/>
                  </use>
                  <path fill="none" stroke="white" stroke-width="1.5" d="M0,-3.0v7 M-2.5,-0.5L0,-3.0L2.5,-0.5"/>
                </g>
        </g>
        <svg viewBox="0 0 15 15" width="100%" height="30px" preserveAspectRatio="xMaxYMin meet">
         <g id="arrow_out" transform="scale(0.3 0.3)">
          <a xlink:href="synchronization_8cpp__incl_org.svg" target="_base">
           <rect id="button" ry="5" rx="5" y="6" x="6" height="38" width="38"
                fill="#f2f5e9" fill-opacity="0.5" stroke="#606060" stroke-width="1.0"/>
           <path id="arrow"
             d="M 11.500037,31.436501 C 11.940474,20.09759 22.043105,11.32322 32.158766,21.979434 L 37.068811,17.246167 C 37.068811,17.246167 37.088388,32 37.088388,32 L 22.160133,31.978069 C 22.160133,31.978069 26.997745,27.140456 26.997745,27.140456 C 18.528582,18.264221 13.291696,25.230495 11.500037,31.436501 z"
             style="fill:#404040;"/>
          </a>
         </g>
        </svg>
</svg>
