<?xml version="1.0" encoding="UTF-8" standalone="no"?>
<!DOCTYPE svg PUBLIC "-//W3C//DTD SVG 1.1//EN"
 "http://www.w3.org/Graphics/SVG/1.1/DTD/svg11.dtd">
<!-- Generated by graphviz version 2.43.0 (0)
 -->
<!-- Title: /home/projectcs&#45;2022/argodsmBuffer/argodsmPrefetching/src/synchronization/synchronization.h Pages: 1 -->
<!--zoomable 284 -->
<svg id="main" version="1.1" xmlns="http://www.w3.org/2000/svg" xmlns:xlink="http://www.w3.org/1999/xlink" xml:space="preserve" onload="init(evt)">
<style type="text/css"><![CDATA[
.edge:hover path { stroke: red; }
.edge:hover polygon { stroke: red; fill: red; }
]]></style>
<script type="text/javascript"><![CDATA[
var edges = document.getElementsByTagName('g');
if (edges && edges.length) {
  for (var i=0;i<edges.length;i++) {
    if (edges[i].id.substr(0,4)=='edge') {
      edges[i].setAttribute('class','edge');
    }
  }
}
]]></script>
        <defs>
                <circle id="rim" cx="0" cy="0" r="7"/>
                <circle id="rim2" cx="0" cy="0" r="3.5"/>
                <g id="zoomPlus">
                        <use xlink:href="#rim" fill="#404040">
                                <set attributeName="fill" to="#808080" begin="zoomplus.mouseover" end="zoomplus.mouseout"/>
                        </use>
                        <path d="M-4,0h8M0,-4v8" fill="none" stroke="white" stroke-width="1.5" pointer-events="none"/>
                </g>
                <g id="zoomMin">
                        <use xlink:href="#rim" fill="#404040">
                                <set attributeName="fill" to="#808080" begin="zoomminus.mouseover" end="zoomminus.mouseout"/>
                        </use>
                        <path d="M-4,0h8" fill="none" stroke="white" stroke-width="1.5" pointer-events="none"/>
                </g>
                <g id="dirArrow">
                        <path fill="none" stroke="white" stroke-width="1.5" d="M0,-3.0v7 M-2.5,-0.5L0,-3.0L2.5,-0.5"/>
                </g>
               <g id="resetDef">
                       <use xlink:href="#rim2" fill="#404040">
                               <set attributeName="fill" to="#808080" begin="reset.mouseover" end="reset.mouseout"/>
                       </use>
               </g>
        </defs>

<script type="text/javascript">
var viewWidth = 2311;
var viewHeight = 284;
var sectionId = 'dynsection-1';
</script>
<script xlink:href="svgpan.js"/>
<svg id="graph" class="graph">
<g id="viewport">
<title>/home/projectcs&#45;2022/argodsmBuffer/argodsmPrefetching/src/synchronization/synchronization.h</title>
<polygon fill="white" stroke="transparent" points="-4,4 -4,-280 2307,-280 2307,4 -4,4"/>
<!-- Node1 -->
<g id="node1" class="node">
<title>Node1</title>
<g id="a_node1"><a xlink:title="This file provides C bindings for some ArgoDSM synchronization primitives.">
<polygon fill="#bfbfbf" stroke="black" points="1161,-234.5 1161,-275.5 1364,-275.5 1364,-234.5 1161,-234.5"/>
<text text-anchor="start" x="1169" y="-263.5" font-family="Helvetica,sans-Serif" font-size="10.00">/home/projectcs&#45;2022</text>
<text text-anchor="start" x="1169" y="-252.5" font-family="Helvetica,sans-Serif" font-size="10.00">/argodsmBuffer/argodsmPrefetching</text>
<text text-anchor="middle" x="1262.5" y="-241.5" font-family="Helvetica,sans-Serif" font-size="10.00">/src/synchronization/synchronization.h</text>
</a>
</g>
</g>
<!-- Node2 -->
<g id="node2" class="node">
<title>Node2</title>
<g id="a_node2"><a xlink:href="argo_8h.html" target="_top" xlink:title="This file provides the full C interface to ArgoDSM.">
<polygon fill="white" stroke="black" points="1055,-156.5 1055,-197.5 1248,-197.5 1248,-156.5 1055,-156.5"/>
<text text-anchor="start" x="1063" y="-185.5" font-family="Helvetica,sans-Serif" font-size="10.00">/home/projectcs&#45;2022</text>
<text text-anchor="start" x="1063" y="-174.5" font-family="Helvetica,sans-Serif" font-size="10.00">/argodsmBuffer/argodsmPrefetching</text>
<text text-anchor="middle" x="1151.5" y="-163.5" font-family="Helvetica,sans-Serif" font-size="10.00">/src/argo.h</text>
</a>
</g>
</g>
<!-- Node1&#45;&gt;Node2 -->
<g id="edge1" class="edge">
<title>Node1&#45;&gt;Node2</title>
<path fill="none" stroke="midnightblue" d="M1225.45,-228.64C1210.63,-218.49 1193.83,-206.98 1179.99,-197.51"/>
<polygon fill="midnightblue" stroke="midnightblue" points="1223.69,-231.67 1233.91,-234.43 1227.64,-225.89 1223.69,-231.67"/>
</g>
<!-- Node15 -->
<g id="node15" class="node">
<title>Node15</title>
<g id="a_node15"><a xlink:href="synchronization_8hpp.html" target="_top" xlink:title="This file provides synchronization primitives for ArgoDSM.">
<polygon fill="white" stroke="black" points="1266,-156.5 1266,-197.5 1481,-197.5 1481,-156.5 1266,-156.5"/>
<text text-anchor="start" x="1274" y="-185.5" font-family="Helvetica,sans-Serif" font-size="10.00">/home/projectcs&#45;2022</text>
<text text-anchor="start" x="1274" y="-174.5" font-family="Helvetica,sans-Serif" font-size="10.00">/argodsmBuffer/argodsmPrefetching</text>
<text text-anchor="middle" x="1373.5" y="-163.5" font-family="Helvetica,sans-Serif" font-size="10.00">/src/synchronization/synchronization.hpp</text>
</a>
</g>
</g>
<!-- Node1&#45;&gt;Node15 -->
<g id="edge14" class="edge">
<title>Node1&#45;&gt;Node15</title>
<path fill="none" stroke="midnightblue" d="M1299.55,-228.64C1314.37,-218.49 1331.17,-206.98 1345.01,-197.51"/>
<polygon fill="midnightblue" stroke="midnightblue" points="1297.36,-225.89 1291.09,-234.43 1301.31,-231.67 1297.36,-225.89"/>
</g>
<!-- Node3 -->
<g id="node3" class="node">
<title>Node3</title>
<g id="a_node3"><a xlink:href="argo_8hpp.html" target="_top" xlink:title="This file provides the full C++ interface to ArgoDSM.">
<polygon fill="white" stroke="black" points="1055,-78.5 1055,-119.5 1248,-119.5 1248,-78.5 1055,-78.5"/>
<text text-anchor="start" x="1063" y="-107.5" font-family="Helvetica,sans-Serif" font-size="10.00">/home/projectcs&#45;2022</text>
<text text-anchor="start" x="1063" y="-96.5" font-family="Helvetica,sans-Serif" font-size="10.00">/argodsmBuffer/argodsmPrefetching</text>
<text text-anchor="middle" x="1151.5" y="-85.5" font-family="Helvetica,sans-Serif" font-size="10.00">/src/argo.hpp</text>
</a>
</g>
</g>
<!-- Node2&#45;&gt;Node3 -->
<g id="edge2" class="edge">
<title>Node2&#45;&gt;Node3</title>
<path fill="none" stroke="midnightblue" d="M1151.5,-146.3C1151.5,-137.3 1151.5,-127.65 1151.5,-119.51"/>
<polygon fill="midnightblue" stroke="midnightblue" points="1148,-146.43 1151.5,-156.43 1155,-146.43 1148,-146.43"/>
</g>
<!-- Node4 -->
<g id="node4" class="node">
<title>Node4</title>
<g id="a_node4"><a xlink:href="argo_8cpp.html" target="_top" xlink:title="This file implements some of the basic ArgoDSM calls.">
<polygon fill="white" stroke="black" points="0,-0.5 0,-41.5 193,-41.5 193,-0.5 0,-0.5"/>
<text text-anchor="start" x="8" y="-29.5" font-family="Helvetica,sans-Serif" font-size="10.00">/home/projectcs&#45;2022</text>
<text text-anchor="start" x="8" y="-18.5" font-family="Helvetica,sans-Serif" font-size="10.00">/argodsmBuffer/argodsmPrefetching</text>
<text text-anchor="middle" x="96.5" y="-7.5" font-family="Helvetica,sans-Serif" font-size="10.00">/src/argo.cpp</text>
</a>
</g>
</g>
<!-- Node3&#45;&gt;Node4 -->
<g id="edge3" class="edge">
<title>Node3&#45;&gt;Node4</title>
<path fill="none" stroke="midnightblue" d="M1044.65,-96.2C868.39,-92.23 505.88,-79.8 201.5,-42 198.74,-41.66 195.94,-41.29 193.12,-40.89"/>
<polygon fill="midnightblue" stroke="midnightblue" points="1044.63,-99.7 1054.71,-96.42 1044.79,-92.7 1044.63,-99.7"/>
</g>
<!-- Node5 -->
<g id="node5" class="node">
<title>Node5</title>
<g id="a_node5"><a xlink:href="tests_2allocators_8cpp.html" target="_top" xlink:title="This file provides unit tests for the ArgoDSM allocators and memory pools.">
<polygon fill="white" stroke="black" points="211,-0.5 211,-41.5 404,-41.5 404,-0.5 211,-0.5"/>
<text text-anchor="start" x="219" y="-29.5" font-family="Helvetica,sans-Serif" font-size="10.00">/home/projectcs&#45;2022</text>
<text text-anchor="start" x="219" y="-18.5" font-family="Helvetica,sans-Serif" font-size="10.00">/argodsmBuffer/argodsmPrefetching</text>
<text text-anchor="middle" x="307.5" y="-7.5" font-family="Helvetica,sans-Serif" font-size="10.00">/tests/allocators.cpp</text>
</a>
</g>
</g>
<!-- Node3&#45;&gt;Node5 -->
<g id="edge4" class="edge">
<title>Node3&#45;&gt;Node5</title>
<path fill="none" stroke="midnightblue" d="M1044.73,-93.69C900.7,-87.01 636.39,-71.71 412.5,-42 409.74,-41.63 406.94,-41.24 404.12,-40.83"/>
<polygon fill="midnightblue" stroke="midnightblue" points="1044.74,-97.19 1054.89,-94.15 1045.06,-90.2 1044.74,-97.19"/>
</g>
<!-- Node6 -->
<g id="node6" class="node">
<title>Node6</title>
<g id="a_node6"><a xlink:href="api_8cpp.html" target="_top" xlink:title="This file provides unit tests for the ArgoDSM API functions.">
<polygon fill="white" stroke="black" points="422,-0.5 422,-41.5 615,-41.5 615,-0.5 422,-0.5"/>
<text text-anchor="start" x="430" y="-29.5" font-family="Helvetica,sans-Serif" font-size="10.00">/home/projectcs&#45;2022</text>
<text text-anchor="start" x="430" y="-18.5" font-family="Helvetica,sans-Serif" font-size="10.00">/argodsmBuffer/argodsmPrefetching</text>
<text text-anchor="middle" x="518.5" y="-7.5" font-family="Helvetica,sans-Serif" font-size="10.00">/tests/api.cpp</text>
</a>
</g>
</g>
<!-- Node3&#45;&gt;Node6 -->
<g id="edge5" class="edge">
<title>Node3&#45;&gt;Node6</title>
<path fill="none" stroke="midnightblue" d="M1044.7,-89.28C937.82,-79.94 768.82,-63.51 623.5,-42 620.75,-41.59 617.96,-41.16 615.14,-40.72"/>
<polygon fill="midnightblue" stroke="midnightblue" points="1044.58,-92.78 1054.85,-90.16 1045.19,-85.81 1044.58,-92.78"/>
</g>
<!-- Node7 -->
<g id="node7" class="node">
<title>Node7</title>
<g id="a_node7"><a xlink:href="backend_8cpp.html" target="_top" xlink:title="This file provides tests for the backends.">
<polygon fill="white" stroke="black" points="633,-0.5 633,-41.5 826,-41.5 826,-0.5 633,-0.5"/>
<text text-anchor="start" x="641" y="-29.5" font-family="Helvetica,sans-Serif" font-size="10.00">/home/projectcs&#45;2022</text>
<text text-anchor="start" x="641" y="-18.5" font-family="Helvetica,sans-Serif" font-size="10.00">/argodsmBuffer/argodsmPrefetching</text>
<text text-anchor="middle" x="729.5" y="-7.5" font-family="Helvetica,sans-Serif" font-size="10.00">/tests/backend.cpp</text>
</a>
</g>
</g>
<!-- Node3&#45;&gt;Node7 -->
<g id="edge6" class="edge">
<title>Node3&#45;&gt;Node7</title>
<path fill="none" stroke="midnightblue" d="M1044.57,-79.48C983.08,-68.73 904.4,-54.83 834.5,-42 831.76,-41.5 828.98,-40.99 826.18,-40.47"/>
<polygon fill="midnightblue" stroke="midnightblue" points="1044.22,-82.97 1054.67,-81.24 1045.42,-76.07 1044.22,-82.97"/>
</g>
<!-- Node8 -->
<g id="node8" class="node">
<title>Node8</title>
<g id="a_node8"><a xlink:href="barrier_8cpp.html" target="_top" xlink:title="This file provides tests for the barrier synchronization.">
<polygon fill="white" stroke="black" points="844,-0.5 844,-41.5 1037,-41.5 1037,-0.5 844,-0.5"/>
<text text-anchor="start" x="852" y="-29.5" font-family="Helvetica,sans-Serif" font-size="10.00">/home/projectcs&#45;2022</text>
<text text-anchor="start" x="852" y="-18.5" font-family="Helvetica,sans-Serif" font-size="10.00">/argodsmBuffer/argodsmPrefetching</text>
<text text-anchor="middle" x="940.5" y="-7.5" font-family="Helvetica,sans-Serif" font-size="10.00">/tests/barrier.cpp</text>
</a>
</g>
</g>
<!-- Node3&#45;&gt;Node8 -->
<g id="edge7" class="edge">
<title>Node3&#45;&gt;Node8</title>
<path fill="none" stroke="midnightblue" d="M1087.72,-75.03C1058.01,-64.33 1023.05,-51.73 994.65,-41.51"/>
<polygon fill="midnightblue" stroke="midnightblue" points="1086.57,-78.33 1097.16,-78.43 1088.94,-71.75 1086.57,-78.33"/>
</g>
<!-- Node9 -->
<g id="node9" class="node">
<title>Node9</title>
<g id="a_node9"><a xlink:href="lock_8cpp.html" target="_top" xlink:title="This file provides unit tests for the ArgoDSM locks.">
<polygon fill="white" stroke="black" points="1055,-0.5 1055,-41.5 1248,-41.5 1248,-0.5 1055,-0.5"/>
<text text-anchor="start" x="1063" y="-29.5" font-family="Helvetica,sans-Serif" font-size="10.00">/home/projectcs&#45;2022</text>
<text text-anchor="start" x="1063" y="-18.5" font-family="Helvetica,sans-Serif" font-size="10.00">/argodsmBuffer/argodsmPrefetching</text>
<text text-anchor="middle" x="1151.5" y="-7.5" font-family="Helvetica,sans-Serif" font-size="10.00">/tests/lock.cpp</text>
</a>
</g>
</g>
<!-- Node3&#45;&gt;Node9 -->
<g id="edge8" class="edge">
<title>Node3&#45;&gt;Node9</title>
<path fill="none" stroke="midnightblue" d="M1151.5,-68.3C1151.5,-59.3 1151.5,-49.65 1151.5,-41.51"/>
<polygon fill="midnightblue" stroke="midnightblue" points="1148,-68.43 1151.5,-78.43 1155,-68.43 1148,-68.43"/>
</g>
<!-- Node10 -->
<g id="node10" class="node">
<title>Node10</title>
<g id="a_node10"><a xlink:href="omp_8cpp.html" target="_top" xlink:title="This file provides tests using OpenMP in ArgoDSM.">
<polygon fill="white" stroke="black" points="1266,-0.5 1266,-41.5 1459,-41.5 1459,-0.5 1266,-0.5"/>
<text text-anchor="start" x="1274" y="-29.5" font-family="Helvetica,sans-Serif" font-size="10.00">/home/projectcs&#45;2022</text>
<text text-anchor="start" x="1274" y="-18.5" font-family="Helvetica,sans-Serif" font-size="10.00">/argodsmBuffer/argodsmPrefetching</text>
<text text-anchor="middle" x="1362.5" y="-7.5" font-family="Helvetica,sans-Serif" font-size="10.00">/tests/omp.cpp</text>
</a>
</g>
</g>
<!-- Node3&#45;&gt;Node10 -->
<g id="edge9" class="edge">
<title>Node3&#45;&gt;Node10</title>
<path fill="none" stroke="midnightblue" d="M1215.28,-75.03C1244.99,-64.33 1279.95,-51.73 1308.35,-41.51"/>
<polygon fill="midnightblue" stroke="midnightblue" points="1214.06,-71.75 1205.84,-78.43 1216.43,-78.33 1214.06,-71.75"/>
</g>
<!-- Node11 -->
<g id="node11" class="node">
<title>Node11</title>
<g id="a_node11"><a xlink:href="prefetch_8cpp.html" target="_top" xlink:title="This file provides unit tests for the ArgoDSM prefetch mechanism.">
<polygon fill="white" stroke="black" points="1477,-0.5 1477,-41.5 1670,-41.5 1670,-0.5 1477,-0.5"/>
<text text-anchor="start" x="1485" y="-29.5" font-family="Helvetica,sans-Serif" font-size="10.00">/home/projectcs&#45;2022</text>
<text text-anchor="start" x="1485" y="-18.5" font-family="Helvetica,sans-Serif" font-size="10.00">/argodsmBuffer/argodsmPrefetching</text>
<text text-anchor="middle" x="1573.5" y="-7.5" font-family="Helvetica,sans-Serif" font-size="10.00">/tests/prefetch.cpp</text>
</a>
</g>
</g>
<!-- Node3&#45;&gt;Node11 -->
<g id="edge10" class="edge">
<title>Node3&#45;&gt;Node11</title>
<path fill="none" stroke="midnightblue" d="M1258.24,-77.88C1352.79,-61.01 1377.99,-58.34 1468.5,-42 1471.24,-41.51 1474.02,-41 1476.82,-40.49"/>
<polygon fill="midnightblue" stroke="midnightblue" points="1257.48,-74.46 1248.25,-79.67 1258.71,-81.36 1257.48,-74.46"/>
</g>
<!-- Node12 -->
<g id="node12" class="node">
<title>Node12</title>
<g id="a_node12"><a xlink:href="stlallocation_8cpp.html" target="_top" xlink:title="This file provides tests using C++ interfaces in ArgoDSM.">
<polygon fill="white" stroke="black" points="1688,-0.5 1688,-41.5 1881,-41.5 1881,-0.5 1688,-0.5"/>
<text text-anchor="start" x="1696" y="-29.5" font-family="Helvetica,sans-Serif" font-size="10.00">/home/projectcs&#45;2022</text>
<text text-anchor="start" x="1696" y="-18.5" font-family="Helvetica,sans-Serif" font-size="10.00">/argodsmBuffer/argodsmPrefetching</text>
<text text-anchor="middle" x="1784.5" y="-7.5" font-family="Helvetica,sans-Serif" font-size="10.00">/tests/stlallocation.cpp</text>
</a>
</g>
</g>
<!-- Node3&#45;&gt;Node12 -->
<g id="edge11" class="edge">
<title>Node3&#45;&gt;Node12</title>
<path fill="none" stroke="midnightblue" d="M1258.11,-78C1445.72,-53.02 1496.21,-67.21 1679.5,-42 1682.26,-41.62 1685.05,-41.22 1687.87,-40.79"/>
<polygon fill="midnightblue" stroke="midnightblue" points="1257.64,-74.53 1248.2,-79.34 1258.58,-81.47 1257.64,-74.53"/>
</g>
<!-- Node13 -->
<g id="node13" class="node">
<title>Node13</title>
<g id="a_node13"><a xlink:href="trivial_8cpp.html" target="_top" xlink:title="This file provides unit tests for trivial sanity checks when using ArgoDSM.">
<polygon fill="white" stroke="black" points="1899,-0.5 1899,-41.5 2092,-41.5 2092,-0.5 1899,-0.5"/>
<text text-anchor="start" x="1907" y="-29.5" font-family="Helvetica,sans-Serif" font-size="10.00">/home/projectcs&#45;2022</text>
<text text-anchor="start" x="1907" y="-18.5" font-family="Helvetica,sans-Serif" font-size="10.00">/argodsmBuffer/argodsmPrefetching</text>
<text text-anchor="middle" x="1995.5" y="-7.5" font-family="Helvetica,sans-Serif" font-size="10.00">/tests/trivial.cpp</text>
</a>
</g>
</g>
<!-- Node3&#45;&gt;Node13 -->
<g id="edge12" class="edge">
<title>Node3&#45;&gt;Node13</title>
<path fill="none" stroke="midnightblue" d="M1258.25,-78.01C1538.96,-44.56 1614.1,-76.03 1890.5,-42 1893.26,-41.66 1896.06,-41.29 1898.88,-40.9"/>
<polygon fill="midnightblue" stroke="midnightblue" points="1257.69,-74.55 1248.18,-79.22 1258.53,-81.5 1257.69,-74.55"/>
</g>
<!-- Node14 -->
<g id="node14" class="node">
<title>Node14</title>
<g id="a_node14"><a xlink:href="uninitialized_8cpp.html" target="_top" xlink:title="This file provides unit tests for accessing ArgoDSM memory in various ways.">
<polygon fill="white" stroke="black" points="2110,-0.5 2110,-41.5 2303,-41.5 2303,-0.5 2110,-0.5"/>
<text text-anchor="start" x="2118" y="-29.5" font-family="Helvetica,sans-Serif" font-size="10.00">/home/projectcs&#45;2022</text>
<text text-anchor="start" x="2118" y="-18.5" font-family="Helvetica,sans-Serif" font-size="10.00">/argodsmBuffer/argodsmPrefetching</text>
<text text-anchor="middle" x="2206.5" y="-7.5" font-family="Helvetica,sans-Serif" font-size="10.00">/tests/uninitialized.cpp</text>
</a>
</g>
</g>
<!-- Node3&#45;&gt;Node14 -->
<g id="edge13" class="edge">
<title>Node3&#45;&gt;Node14</title>
<path fill="none" stroke="midnightblue" d="M1258.19,-78.03C1632.24,-35.96 1731.82,-84.86 2101.5,-42 2104.27,-41.68 2107.07,-41.33 2109.89,-40.95"/>
<polygon fill="midnightblue" stroke="midnightblue" points="1257.71,-74.56 1248.18,-79.17 1258.51,-81.51 1257.71,-74.56"/>
</g>
<!-- Node15&#45;&gt;Node3 -->
<g id="edge15" class="edge">
<title>Node15&#45;&gt;Node3</title>
<path fill="none" stroke="midnightblue" d="M1306.8,-153.17C1275.46,-142.44 1238.48,-129.78 1208.48,-119.51"/>
<polygon fill="midnightblue" stroke="midnightblue" points="1305.73,-156.5 1316.33,-156.43 1308,-149.88 1305.73,-156.5"/>
</g>
<!-- Node16 -->
<g id="node16" class="node">
<title>Node16</title>
<g id="a_node16"><a xlink:href="synchronization_8cpp.html" target="_top" xlink:title="This file implements synchronization primitives for ArgoDSM.">
<polygon fill="white" stroke="black" points="1266,-78.5 1266,-119.5 1481,-119.5 1481,-78.5 1266,-78.5"/>
<text text-anchor="start" x="1274" y="-107.5" font-family="Helvetica,sans-Serif" font-size="10.00">/home/projectcs&#45;2022</text>
<text text-anchor="start" x="1274" y="-96.5" font-family="Helvetica,sans-Serif" font-size="10.00">/argodsmBuffer/argodsmPrefetching</text>
<text text-anchor="middle" x="1373.5" y="-85.5" font-family="Helvetica,sans-Serif" font-size="10.00">/src/synchronization/synchronization.cpp</text>
</a>
</g>
</g>
<!-- Node15&#45;&gt;Node16 -->
<g id="edge16" class="edge">
<title>Node15&#45;&gt;Node16</title>
<path fill="none" stroke="midnightblue" d="M1373.5,-146.3C1373.5,-137.3 1373.5,-127.65 1373.5,-119.51"/>
<polygon fill="midnightblue" stroke="midnightblue" points="1370,-146.43 1373.5,-156.43 1377,-146.43 1370,-146.43"/>
</g>
</g>
</svg>
        <g id="navigator" transform="translate(0 0)" fill="#404254">
                <rect fill="#f2f5e9" fill-opacity="0.5" stroke="#606060" stroke-width=".5" x="0" y="0" width="60" height="60"/>
                <use id="zoomplus" xlink:href="#zoomPlus" x="17" y="9" onmousedown="handleZoom(evt,'in')"/>
                <use id="zoomminus" xlink:href="#zoomMin" x="42" y="9" onmousedown="handleZoom(evt,'out')"/>
                <use id="reset" xlink:href="#resetDef" x="30" y="36" onmousedown="handleReset()"/>
                <g id="arrowUp" xlink:href="#dirArrow" transform="translate(30 24)" onmousedown="handlePan(0,-1)">
                  <use xlink:href="#rim" fill="#404040">
                        <set attributeName="fill" to="#808080" begin="arrowUp.mouseover" end="arrowUp.mouseout"/>
                  </use>
                  <path fill="none" stroke="white" stroke-width="1.5" d="M0,-3.0v7 M-2.5,-0.5L0,-3.0L2.5,-0.5"/>
                </g>
                <g id="arrowRight" xlink:href="#dirArrow" transform="rotate(90) translate(36 -43)" onmousedown="handlePan(1,0)">
                  <use xlink:href="#rim" fill="#404040">
                        <set attributeName="fill" to="#808080" begin="arrowRight.mouseover" end="arrowRight.mouseout"/>
                  </use>
                  <path fill="none" stroke="white" stroke-width="1.5" d="M0,-3.0v7 M-2.5,-0.5L0,-3.0L2.5,-0.5"/>
                </g>
                <g id="arrowDown" xlink:href="#dirArrow" transform="rotate(180) translate(-30 -48)" onmousedown="handlePan(0,1)">
                  <use xlink:href="#rim" fill="#404040">
                        <set attributeName="fill" to="#808080" begin="arrowDown.mouseover" end="arrowDown.mouseout"/>
                  </use>
                  <path fill="none" stroke="white" stroke-width="1.5" d="M0,-3.0v7 M-2.5,-0.5L0,-3.0L2.5,-0.5"/>
                </g>
                <g id="arrowLeft" xlink:href="#dirArrow" transform="rotate(270) translate(-36 17)" onmousedown="handlePan(-1,0)">
                  <use xlink:href="#rim" fill="#404040">
                        <set attributeName="fill" to="#808080" begin="arrowLeft.mouseover" end="arrowLeft.mouseout"/>
                  </use>
                  <path fill="none" stroke="white" stroke-width="1.5" d="M0,-3.0v7 M-2.5,-0.5L0,-3.0L2.5,-0.5"/>
                </g>
        </g>
        <svg viewBox="0 0 15 15" width="100%" height="30px" preserveAspectRatio="xMaxYMin meet">
         <g id="arrow_out" transform="scale(0.3 0.3)">
          <a xlink:href="synchronization_8h__dep__incl_org.svg" target="_base">
           <rect id="button" ry="5" rx="5" y="6" x="6" height="38" width="38"
                fill="#f2f5e9" fill-opacity="0.5" stroke="#606060" stroke-width="1.0"/>
           <path id="arrow"
             d="M 11.500037,31.436501 C 11.940474,20.09759 22.043105,11.32322 32.158766,21.979434 L 37.068811,17.246167 C 37.068811,17.246167 37.088388,32 37.088388,32 L 22.160133,31.978069 C 22.160133,31.978069 26.997745,27.140456 26.997745,27.140456 C 18.528582,18.264221 13.291696,25.230495 11.500037,31.436501 z"
             style="fill:#404040;"/>
          </a>
         </g>
        </svg>
</svg>
