<?xml version="1.0" encoding="UTF-8" standalone="no"?>
<!DOCTYPE svg PUBLIC "-//W3C//DTD SVG 1.1//EN"
 "http://www.w3.org/Graphics/SVG/1.1/DTD/svg11.dtd">
<!-- Generated by graphviz version 2.43.0 (0)
 -->
<!-- Title: /home/projectcs&#45;2022/argodsmBuffer/argodsmPrefetching/src/synchronization/synchronization.hpp Pages: 1 -->
<!--zoomable 509 -->
<svg id="main" version="1.1" xmlns="http://www.w3.org/2000/svg" xmlns:xlink="http://www.w3.org/1999/xlink" xml:space="preserve" onload="init(evt)">
<style type="text/css"><![CDATA[
.edge:hover path { stroke: red; }
.edge:hover polygon { stroke: red; fill: red; }
]]></style>
<script type="text/javascript"><![CDATA[
var edges = document.getElementsByTagName('g');
if (edges && edges.length) {
  for (var i=0;i<edges.length;i++) {
    if (edges[i].id.substr(0,4)=='edge') {
      edges[i].setAttribute('class','edge');
    }
  }
}
]]></script>
        <defs>
                <circle id="rim" cx="0" cy="0" r="7"/>
                <circle id="rim2" cx="0" cy="0" r="3.5"/>
                <g id="zoomPlus">
                        <use xlink:href="#rim" fill="#404040">
                                <set attributeName="fill" to="#808080" begin="zoomplus.mouseover" end="zoomplus.mouseout"/>
                        </use>
                        <path d="M-4,0h8M0,-4v8" fill="none" stroke="white" stroke-width="1.5" pointer-events="none"/>
                </g>
                <g id="zoomMin">
                        <use xlink:href="#rim" fill="#404040">
                                <set attributeName="fill" to="#808080" begin="zoomminus.mouseover" end="zoomminus.mouseout"/>
                        </use>
                        <path d="M-4,0h8" fill="none" stroke="white" stroke-width="1.5" pointer-events="none"/>
                </g>
                <g id="dirArrow">
                        <path fill="none" stroke="white" stroke-width="1.5" d="M0,-3.0v7 M-2.5,-0.5L0,-3.0L2.5,-0.5"/>
                </g>
               <g id="resetDef">
                       <use xlink:href="#rim2" fill="#404040">
                               <set attributeName="fill" to="#808080" begin="reset.mouseover" end="reset.mouseout"/>
                       </use>
               </g>
        </defs>

<script type="text/javascript">
var viewWidth = 1331;
var viewHeight = 509;
var sectionId = 'dynsection-0';
</script>
<script xlink:href="svgpan.js"/>
<svg id="graph" class="graph">
<g id="viewport">
<title>/home/projectcs&#45;2022/argodsmBuffer/argodsmPrefetching/src/synchronization/synchronization.hpp</title>
<polygon fill="white" stroke="transparent" points="-4,4 -4,-505 1326.5,-505 1326.5,4 -4,4"/>
<!-- Node1 -->
<g id="node1" class="node">
<title>Node1</title>
<g id="a_node1"><a xlink:title="This file provides synchronization primitives for ArgoDSM.">
<polygon fill="#bfbfbf" stroke="black" points="924.5,-459.5 924.5,-500.5 1139.5,-500.5 1139.5,-459.5 924.5,-459.5"/>
<text text-anchor="start" x="932.5" y="-488.5" font-family="Helvetica,sans-Serif" font-size="10.00">/home/projectcs&#45;2022</text>
<text text-anchor="start" x="932.5" y="-477.5" font-family="Helvetica,sans-Serif" font-size="10.00">/argodsmBuffer/argodsmPrefetching</text>
<text text-anchor="middle" x="1032" y="-466.5" font-family="Helvetica,sans-Serif" font-size="10.00">/src/synchronization/synchronization.hpp</text>
</a>
</g>
</g>
<!-- Node2 -->
<g id="node2" class="node">
<title>Node2</title>
<g id="a_node2"><a xlink:title=" ">
<polygon fill="white" stroke="#bfbfbf" points="30.5,-0.5 30.5,-19.5 83.5,-19.5 83.5,-0.5 30.5,-0.5"/>
<text text-anchor="middle" x="57" y="-7.5" font-family="Helvetica,sans-Serif" font-size="10.00">cstddef</text>
</a>
</g>
</g>
<!-- Node1&#45;&gt;Node2 -->
<g id="edge1" class="edge">
<title>Node1&#45;&gt;Node2</title>
<path fill="none" stroke="midnightblue" d="M924.48,-477.5C660.16,-472.37 0,-450.34 0,-358 0,-358 0,-358 0,-121 0,-84.3 25.32,-47.66 42.21,-27.3"/>
<polygon fill="midnightblue" stroke="midnightblue" points="44.95,-29.48 48.83,-19.62 39.65,-24.9 44.95,-29.48"/>
</g>
<!-- Node3 -->
<g id="node3" class="node">
<title>Node3</title>
<g id="a_node3"><a xlink:href="broadcast_8hpp.html" target="_top" xlink:title="This file provides a broadcasting facility for a single value.">
<polygon fill="white" stroke="black" points="989,-403.5 989,-422.5 1075,-422.5 1075,-403.5 989,-403.5"/>
<text text-anchor="middle" x="1032" y="-410.5" font-family="Helvetica,sans-Serif" font-size="10.00">broadcast.hpp</text>
</a>
</g>
</g>
<!-- Node1&#45;&gt;Node3 -->
<g id="edge2" class="edge">
<title>Node1&#45;&gt;Node3</title>
<path fill="none" stroke="midnightblue" d="M1032,-459.5C1032,-451.07 1032,-441.24 1032,-432.87"/>
<polygon fill="midnightblue" stroke="midnightblue" points="1035.5,-432.65 1032,-422.65 1028.5,-432.65 1035.5,-432.65"/>
</g>
<!-- Node22 -->
<g id="node22" class="node">
<title>Node22</title>
<g id="a_node22"><a xlink:href="synchronization_8h.html" target="_top" xlink:title="This file provides C bindings for some ArgoDSM synchronization primitives.">
<polygon fill="white" stroke="black" points="1139.5,-403.5 1139.5,-422.5 1322.5,-422.5 1322.5,-403.5 1139.5,-403.5"/>
<text text-anchor="middle" x="1231" y="-410.5" font-family="Helvetica,sans-Serif" font-size="10.00">synchronization/synchronization.h</text>
</a>
</g>
</g>
<!-- Node1&#45;&gt;Node22 -->
<g id="edge33" class="edge">
<title>Node1&#45;&gt;Node22</title>
<path fill="none" stroke="midnightblue" d="M1091.71,-459.5C1125.4,-448.49 1166.38,-435.11 1195.14,-425.71"/>
<polygon fill="midnightblue" stroke="midnightblue" points="1196.35,-429 1204.77,-422.57 1194.18,-422.35 1196.35,-429"/>
</g>
<!-- Node4 -->
<g id="node4" class="node">
<title>Node4</title>
<g id="a_node4"><a xlink:href="backend_8hpp.html" target="_top" xlink:title="This file provides the backend interface.">
<polygon fill="white" stroke="black" points="948,-347.5 948,-366.5 1070,-366.5 1070,-347.5 948,-347.5"/>
<text text-anchor="middle" x="1009" y="-354.5" font-family="Helvetica,sans-Serif" font-size="10.00">backend/backend.hpp</text>
</a>
</g>
</g>
<!-- Node3&#45;&gt;Node4 -->
<g id="edge3" class="edge">
<title>Node3&#45;&gt;Node4</title>
<path fill="none" stroke="midnightblue" d="M1028.2,-403.08C1025.09,-395.77 1020.58,-385.18 1016.71,-376.1"/>
<polygon fill="midnightblue" stroke="midnightblue" points="1019.87,-374.58 1012.73,-366.75 1013.43,-377.32 1019.87,-374.58"/>
</g>
<!-- Node15 -->
<g id="node15" class="node">
<title>Node15</title>
<g id="a_node15"><a xlink:href="types_8hpp.html" target="_top" xlink:title="This file defines common types used in ArgoDSM.">
<polygon fill="white" stroke="black" points="949.5,-56.5 949.5,-75.5 1044.5,-75.5 1044.5,-56.5 949.5,-56.5"/>
<text text-anchor="middle" x="997" y="-63.5" font-family="Helvetica,sans-Serif" font-size="10.00">types/types.hpp</text>
</a>
</g>
</g>
<!-- Node3&#45;&gt;Node15 -->
<g id="edge32" class="edge">
<title>Node3&#45;&gt;Node15</title>
<path fill="none" stroke="midnightblue" d="M1064.87,-403.48C1110.37,-389.47 1187,-356.91 1187,-296.5 1187,-296.5 1187,-296.5 1187,-177 1187,-115.15 1110.67,-87.52 1054.77,-75.57"/>
<polygon fill="midnightblue" stroke="midnightblue" points="1055.44,-72.13 1044.95,-73.58 1054.05,-78.99 1055.44,-72.13"/>
</g>
<!-- Node5 -->
<g id="node5" class="node">
<title>Node5</title>
<g id="a_node5"><a xlink:title=" ">
<polygon fill="white" stroke="#bfbfbf" points="917,-286 917,-305 969,-305 969,-286 917,-286"/>
<text text-anchor="middle" x="943" y="-293" font-family="Helvetica,sans-Serif" font-size="10.00">cassert</text>
</a>
</g>
</g>
<!-- Node4&#45;&gt;Node5 -->
<g id="edge4" class="edge">
<title>Node4&#45;&gt;Node5</title>
<path fill="none" stroke="midnightblue" d="M999.54,-347.48C989.25,-338.2 972.58,-323.17 960.01,-311.83"/>
<polygon fill="midnightblue" stroke="midnightblue" points="962.21,-309.11 952.44,-305.01 957.52,-314.3 962.21,-309.11"/>
</g>
<!-- Node6 -->
<g id="node6" class="node">
<title>Node6</title>
<g id="a_node6"><a xlink:title=" ">
<polygon fill="white" stroke="#bfbfbf" points="1025,-286 1025,-305 1075,-305 1075,-286 1025,-286"/>
<text text-anchor="middle" x="1050" y="-293" font-family="Helvetica,sans-Serif" font-size="10.00">cstdint</text>
</a>
</g>
</g>
<!-- Node4&#45;&gt;Node6 -->
<g id="edge5" class="edge">
<title>Node4&#45;&gt;Node6</title>
<path fill="none" stroke="midnightblue" d="M1014.87,-347.48C1020.96,-338.64 1030.64,-324.59 1038.3,-313.48"/>
<polygon fill="midnightblue" stroke="midnightblue" points="1041.34,-315.23 1044.14,-305.01 1035.58,-311.26 1041.34,-315.23"/>
</g>
<!-- Node7 -->
<g id="node7" class="node">
<title>Node7</title>
<g id="a_node7"><a xlink:title=" ">
<polygon fill="white" stroke="#bfbfbf" points="1093.5,-286 1093.5,-305 1158.5,-305 1158.5,-286 1093.5,-286"/>
<text text-anchor="middle" x="1126" y="-293" font-family="Helvetica,sans-Serif" font-size="10.00">stdexcept</text>
</a>
</g>
</g>
<!-- Node4&#45;&gt;Node7 -->
<g id="edge6" class="edge">
<title>Node4&#45;&gt;Node7</title>
<path fill="none" stroke="midnightblue" d="M1025.76,-347.48C1045.22,-337.58 1077.55,-321.14 1100.21,-309.62"/>
<polygon fill="midnightblue" stroke="midnightblue" points="1101.94,-312.66 1109.27,-305.01 1098.77,-306.42 1101.94,-312.66"/>
</g>
<!-- Node8 -->
<g id="node8" class="node">
<title>Node8</title>
<g id="a_node8"><a xlink:href="global__ptr_8hpp.html" target="_top" xlink:title="This file provides the global pointer for ArgoDSM.">
<polygon fill="white" stroke="black" points="239,-280.5 239,-310.5 371,-310.5 371,-280.5 239,-280.5"/>
<text text-anchor="start" x="247" y="-298.5" font-family="Helvetica,sans-Serif" font-size="10.00">data_distribution/global</text>
<text text-anchor="middle" x="305" y="-287.5" font-family="Helvetica,sans-Serif" font-size="10.00">_ptr.hpp</text>
</a>
</g>
</g>
<!-- Node4&#45;&gt;Node8 -->
<g id="edge7" class="edge">
<title>Node4&#45;&gt;Node8</title>
<path fill="none" stroke="midnightblue" d="M947.76,-350.82C819.33,-339.97 522.14,-314.85 381.46,-302.96"/>
<polygon fill="midnightblue" stroke="midnightblue" points="381.46,-299.45 371.2,-302.1 380.87,-306.42 381.46,-299.45"/>
</g>
<!-- Node4&#45;&gt;Node15 -->
<g id="edge31" class="edge">
<title>Node4&#45;&gt;Node15</title>
<path fill="none" stroke="midnightblue" d="M1007.53,-347.22C1004.32,-327.32 997,-277.22 997,-235 997,-235 997,-235 997,-177 997,-144.95 997,-107.64 997,-85.75"/>
<polygon fill="midnightblue" stroke="midnightblue" points="1000.5,-85.56 997,-75.56 993.5,-85.56 1000.5,-85.56"/>
</g>
<!-- Node9 -->
<g id="node9" class="node">
<title>Node9</title>
<g id="a_node9"><a xlink:title=" ">
<polygon fill="white" stroke="#bfbfbf" points="221,-56.5 221,-75.5 265,-75.5 265,-56.5 221,-56.5"/>
<text text-anchor="middle" x="243" y="-63.5" font-family="Helvetica,sans-Serif" font-size="10.00">string</text>
</a>
</g>
</g>
<!-- Node8&#45;&gt;Node9 -->
<g id="edge8" class="edge">
<title>Node8&#45;&gt;Node9</title>
<path fill="none" stroke="midnightblue" d="M258.71,-280.43C217.21,-265.07 158.84,-236.03 132,-188 117.79,-162.56 152.53,-117.76 158,-112 172.74,-96.47 194.05,-85.2 211.64,-77.83"/>
<polygon fill="midnightblue" stroke="midnightblue" points="212.96,-81.07 220.96,-74.13 210.38,-74.56 212.96,-81.07"/>
</g>
<!-- Node10 -->
<g id="node10" class="node">
<title>Node10</title>
<g id="a_node10"><a xlink:href="data__distribution_8hpp.html" target="_top" xlink:title="This file provides an abstraction layer for distributing the shared memory space.">
<polygon fill="white" stroke="black" points="384,-224.5 384,-243.5 504,-243.5 504,-224.5 384,-224.5"/>
<text text-anchor="middle" x="444" y="-231.5" font-family="Helvetica,sans-Serif" font-size="10.00">data_distribution.hpp</text>
</a>
</g>
</g>
<!-- Node8&#45;&gt;Node10 -->
<g id="edge9" class="edge">
<title>Node8&#45;&gt;Node10</title>
<path fill="none" stroke="midnightblue" d="M337.94,-280.4C361.16,-270.46 391.99,-257.26 414.42,-247.66"/>
<polygon fill="midnightblue" stroke="midnightblue" points="415.96,-250.81 423.77,-243.66 413.2,-244.38 415.96,-250.81"/>
</g>
<!-- Node14 -->
<g id="node14" class="node">
<title>Node14</title>
<g id="a_node14"><a xlink:href="env_8hpp.html" target="_top" xlink:title="This file provides facilities for handling environment variables.">
<polygon fill="white" stroke="black" points="52,-56.5 52,-75.5 128,-75.5 128,-56.5 52,-56.5"/>
<text text-anchor="middle" x="90" y="-63.5" font-family="Helvetica,sans-Serif" font-size="10.00">env/env.hpp</text>
</a>
</g>
</g>
<!-- Node8&#45;&gt;Node14 -->
<g id="edge30" class="edge">
<title>Node8&#45;&gt;Node14</title>
<path fill="none" stroke="midnightblue" d="M238.74,-281.94C211.87,-274.35 181.85,-262.45 159,-244 109.21,-203.81 95.26,-122.88 91.42,-86.04"/>
<polygon fill="midnightblue" stroke="midnightblue" points="94.88,-85.39 90.5,-75.74 87.9,-86.01 94.88,-85.39"/>
</g>
<!-- Node11 -->
<g id="node11" class="node">
<title>Node11</title>
<g id="a_node11"><a xlink:href="base__distribution_8hpp.html" target="_top" xlink:title="This file implements the base distribution class for all the policies to derive from.">
<polygon fill="white" stroke="black" points="455,-112.5 455,-131.5 577,-131.5 577,-112.5 455,-112.5"/>
<text text-anchor="middle" x="516" y="-119.5" font-family="Helvetica,sans-Serif" font-size="10.00">base_distribution.hpp</text>
</a>
</g>
</g>
<!-- Node10&#45;&gt;Node11 -->
<g id="edge10" class="edge">
<title>Node10&#45;&gt;Node11</title>
<path fill="none" stroke="midnightblue" d="M504.4,-231.98C630.21,-229.24 911.14,-219.6 940,-188 988.7,-134.68 720.25,-124.84 587.24,-123.21"/>
<polygon fill="midnightblue" stroke="midnightblue" points="587.17,-119.71 577.13,-123.1 587.09,-126.71 587.17,-119.71"/>
</g>
<!-- Node10&#45;&gt;Node14 -->
<g id="edge29" class="edge">
<title>Node10&#45;&gt;Node14</title>
<path fill="none" stroke="midnightblue" d="M383.87,-231.6C304.2,-228.54 169.36,-218.83 132,-188 101.09,-162.49 92.88,-112.92 90.74,-85.81"/>
<polygon fill="midnightblue" stroke="midnightblue" points="94.22,-85.48 90.14,-75.71 87.23,-85.9 94.22,-85.48"/>
</g>
<!-- Node16 -->
<g id="node16" class="node">
<title>Node16</title>
<g id="a_node16"><a xlink:href="cyclic__distribution_8hpp.html" target="_top" xlink:title="This file implements the cyclic data distribution.">
<polygon fill="white" stroke="black" points="309,-168.5 309,-187.5 435,-187.5 435,-168.5 309,-168.5"/>
<text text-anchor="middle" x="372" y="-175.5" font-family="Helvetica,sans-Serif" font-size="10.00">cyclic_distribution.hpp</text>
</a>
</g>
</g>
<!-- Node10&#45;&gt;Node16 -->
<g id="edge17" class="edge">
<title>Node10&#45;&gt;Node16</title>
<path fill="none" stroke="midnightblue" d="M432.43,-224.32C421.58,-216.18 405.12,-203.84 392.12,-194.09"/>
<polygon fill="midnightblue" stroke="midnightblue" points="393.88,-191.03 383.78,-187.83 389.68,-196.63 393.88,-191.03"/>
</g>
<!-- Node17 -->
<g id="node17" class="node">
<title>Node17</title>
<g id="a_node17"><a xlink:href="first__touch__distribution_8hpp.html" target="_top" xlink:title="This file implements the first&#45;touch data distribution.">
<polygon fill="white" stroke="black" points="141.5,-168.5 141.5,-187.5 290.5,-187.5 290.5,-168.5 141.5,-168.5"/>
<text text-anchor="middle" x="216" y="-175.5" font-family="Helvetica,sans-Serif" font-size="10.00">first_touch_distribution.hpp</text>
</a>
</g>
</g>
<!-- Node10&#45;&gt;Node17 -->
<g id="edge19" class="edge">
<title>Node10&#45;&gt;Node17</title>
<path fill="none" stroke="midnightblue" d="M407.87,-224.44C368.35,-215.08 304.9,-200.06 261.89,-189.87"/>
<polygon fill="midnightblue" stroke="midnightblue" points="262.5,-186.42 251.96,-187.52 260.88,-193.23 262.5,-186.42"/>
</g>
<!-- Node19 -->
<g id="node19" class="node">
<title>Node19</title>
<g id="a_node19"><a xlink:href="naive__distribution_8hpp.html" target="_top" xlink:title="This file implements the naive data distribution.">
<polygon fill="white" stroke="black" points="453.5,-168.5 453.5,-187.5 578.5,-187.5 578.5,-168.5 453.5,-168.5"/>
<text text-anchor="middle" x="516" y="-175.5" font-family="Helvetica,sans-Serif" font-size="10.00">naive_distribution.hpp</text>
</a>
</g>
</g>
<!-- Node10&#45;&gt;Node19 -->
<g id="edge23" class="edge">
<title>Node10&#45;&gt;Node19</title>
<path fill="none" stroke="midnightblue" d="M455.57,-224.32C466.42,-216.18 482.88,-203.84 495.88,-194.09"/>
<polygon fill="midnightblue" stroke="midnightblue" points="498.32,-196.63 504.22,-187.83 494.12,-191.03 498.32,-196.63"/>
</g>
<!-- Node20 -->
<g id="node20" class="node">
<title>Node20</title>
<g id="a_node20"><a xlink:href="prime__mapp__distribution_8hpp.html" target="_top" xlink:title="This file implements the prime&#45;mapp data distribution.">
<polygon fill="white" stroke="black" points="597,-168.5 597,-187.5 757,-187.5 757,-168.5 597,-168.5"/>
<text text-anchor="middle" x="677" y="-175.5" font-family="Helvetica,sans-Serif" font-size="10.00">prime_mapp_distribution.hpp</text>
</a>
</g>
</g>
<!-- Node10&#45;&gt;Node20 -->
<g id="edge25" class="edge">
<title>Node10&#45;&gt;Node20</title>
<path fill="none" stroke="midnightblue" d="M480.92,-224.44C521.4,-215.06 586.42,-199.99 630.38,-189.8"/>
<polygon fill="midnightblue" stroke="midnightblue" points="631.3,-193.18 640.25,-187.52 629.72,-186.36 631.3,-193.18"/>
</g>
<!-- Node21 -->
<g id="node21" class="node">
<title>Node21</title>
<g id="a_node21"><a xlink:href="skew__mapp__distribution_8hpp.html" target="_top" xlink:title="This file implements the skew&#45;mapp data distribution.">
<polygon fill="white" stroke="black" points="775,-168.5 775,-187.5 931,-187.5 931,-168.5 775,-168.5"/>
<text text-anchor="middle" x="853" y="-175.5" font-family="Helvetica,sans-Serif" font-size="10.00">skew_mapp_distribution.hpp</text>
</a>
</g>
</g>
<!-- Node10&#45;&gt;Node21 -->
<g id="edge27" class="edge">
<title>Node10&#45;&gt;Node21</title>
<path fill="none" stroke="midnightblue" d="M504.35,-225.03C577.08,-215.43 699.3,-199.29 778.02,-188.9"/>
<polygon fill="midnightblue" stroke="midnightblue" points="778.89,-192.31 788.35,-187.54 777.98,-185.38 778.89,-192.31"/>
</g>
<!-- Node11&#45;&gt;Node9 -->
<g id="edge13" class="edge">
<title>Node11&#45;&gt;Node9</title>
<path fill="none" stroke="midnightblue" d="M472.74,-112.44C417.83,-101.58 324.37,-83.09 275.29,-73.39"/>
<polygon fill="midnightblue" stroke="midnightblue" points="275.72,-69.9 265.23,-71.4 274.36,-76.77 275.72,-69.9"/>
</g>
<!-- Node12 -->
<g id="node12" class="node">
<title>Node12</title>
<g id="a_node12"><a xlink:title=" ">
<polygon fill="white" stroke="#bfbfbf" points="454.5,-56.5 454.5,-75.5 503.5,-75.5 503.5,-56.5 454.5,-56.5"/>
<text text-anchor="middle" x="479" y="-63.5" font-family="Helvetica,sans-Serif" font-size="10.00">cstdlib</text>
</a>
</g>
</g>
<!-- Node11&#45;&gt;Node12 -->
<g id="edge11" class="edge">
<title>Node11&#45;&gt;Node12</title>
<path fill="none" stroke="midnightblue" d="M509.89,-112.08C504.72,-104.53 497.15,-93.49 490.81,-84.23"/>
<polygon fill="midnightblue" stroke="midnightblue" points="493.54,-82.02 485,-75.75 487.76,-85.98 493.54,-82.02"/>
</g>
<!-- Node13 -->
<g id="node13" class="node">
<title>Node13</title>
<g id="a_node13"><a xlink:title=" ">
<polygon fill="white" stroke="#bfbfbf" points="522,-56.5 522,-75.5 582,-75.5 582,-56.5 522,-56.5"/>
<text text-anchor="middle" x="552" y="-63.5" font-family="Helvetica,sans-Serif" font-size="10.00">iostream</text>
</a>
</g>
</g>
<!-- Node11&#45;&gt;Node13 -->
<g id="edge12" class="edge">
<title>Node11&#45;&gt;Node13</title>
<path fill="none" stroke="midnightblue" d="M521.94,-112.08C526.98,-104.53 534.34,-93.49 540.51,-84.23"/>
<polygon fill="midnightblue" stroke="midnightblue" points="543.53,-86.01 546.17,-75.75 537.71,-82.13 543.53,-86.01"/>
</g>
<!-- Node11&#45;&gt;Node14 -->
<g id="edge14" class="edge">
<title>Node11&#45;&gt;Node14</title>
<path fill="none" stroke="midnightblue" d="M454.96,-113.26C369.54,-102.43 216.05,-82.98 138.17,-73.11"/>
<polygon fill="midnightblue" stroke="midnightblue" points="138.51,-69.62 128.14,-71.84 137.62,-76.57 138.51,-69.62"/>
</g>
<!-- Node11&#45;&gt;Node15 -->
<g id="edge16" class="edge">
<title>Node11&#45;&gt;Node15</title>
<path fill="none" stroke="midnightblue" d="M577.41,-114.11C670.93,-103.61 847.81,-83.75 939.16,-73.49"/>
<polygon fill="midnightblue" stroke="midnightblue" points="939.78,-76.95 949.33,-72.35 939,-69.99 939.78,-76.95"/>
</g>
<!-- Node14&#45;&gt;Node2 -->
<g id="edge15" class="edge">
<title>Node14&#45;&gt;Node2</title>
<path fill="none" stroke="midnightblue" d="M84.55,-56.08C79.99,-48.61 73.33,-37.72 67.71,-28.52"/>
<polygon fill="midnightblue" stroke="midnightblue" points="70.55,-26.46 62.35,-19.75 64.58,-30.11 70.55,-26.46"/>
</g>
<!-- Node16&#45;&gt;Node11 -->
<g id="edge18" class="edge">
<title>Node16&#45;&gt;Node11</title>
<path fill="none" stroke="midnightblue" d="M394.82,-168.44C418.83,-159.44 456.83,-145.19 483.87,-135.05"/>
<polygon fill="midnightblue" stroke="midnightblue" points="485.16,-138.3 493.29,-131.52 482.7,-131.75 485.16,-138.3"/>
</g>
<!-- Node17&#45;&gt;Node9 -->
<g id="edge21" class="edge">
<title>Node17&#45;&gt;Node9</title>
<path fill="none" stroke="midnightblue" d="M218.12,-168.37C222.48,-150.62 232.53,-109.67 238.44,-85.6"/>
<polygon fill="midnightblue" stroke="midnightblue" points="241.91,-86.14 240.89,-75.59 235.11,-84.47 241.91,-86.14"/>
</g>
<!-- Node17&#45;&gt;Node11 -->
<g id="edge22" class="edge">
<title>Node17&#45;&gt;Node11</title>
<path fill="none" stroke="midnightblue" d="M263.54,-168.44C316.53,-158.9 402.2,-143.48 458.82,-133.29"/>
<polygon fill="midnightblue" stroke="midnightblue" points="459.46,-136.73 468.69,-131.52 458.22,-129.84 459.46,-136.73"/>
</g>
<!-- Node18 -->
<g id="node18" class="node">
<title>Node18</title>
<g id="a_node18"><a xlink:title=" ">
<polygon fill="white" stroke="#bfbfbf" points="167,-112.5 167,-131.5 215,-131.5 215,-112.5 167,-112.5"/>
<text text-anchor="middle" x="191" y="-119.5" font-family="Helvetica,sans-Serif" font-size="10.00">mutex</text>
</a>
</g>
</g>
<!-- Node17&#45;&gt;Node18 -->
<g id="edge20" class="edge">
<title>Node17&#45;&gt;Node18</title>
<path fill="none" stroke="midnightblue" d="M211.87,-168.08C208.49,-160.77 203.58,-150.18 199.38,-141.1"/>
<polygon fill="midnightblue" stroke="midnightblue" points="202.43,-139.36 195.05,-131.75 196.08,-142.3 202.43,-139.36"/>
</g>
<!-- Node19&#45;&gt;Node11 -->
<g id="edge24" class="edge">
<title>Node19&#45;&gt;Node11</title>
<path fill="none" stroke="midnightblue" d="M516,-168.08C516,-161.01 516,-150.86 516,-141.99"/>
<polygon fill="midnightblue" stroke="midnightblue" points="519.5,-141.75 516,-131.75 512.5,-141.75 519.5,-141.75"/>
</g>
<!-- Node20&#45;&gt;Node11 -->
<g id="edge26" class="edge">
<title>Node20&#45;&gt;Node11</title>
<path fill="none" stroke="midnightblue" d="M651.49,-168.44C624.4,-159.36 581.41,-144.94 551.13,-134.78"/>
<polygon fill="midnightblue" stroke="midnightblue" points="551.99,-131.38 541.39,-131.52 549.76,-138.01 551.99,-131.38"/>
</g>
<!-- Node21&#45;&gt;Node11 -->
<g id="edge28" class="edge">
<title>Node21&#45;&gt;Node11</title>
<path fill="none" stroke="midnightblue" d="M799.6,-168.44C739.7,-158.85 642.63,-143.29 579.05,-133.1"/>
<polygon fill="midnightblue" stroke="midnightblue" points="579.58,-129.64 569.15,-131.52 578.47,-136.55 579.58,-129.64"/>
</g>
<!-- Node23 -->
<g id="node23" class="node">
<title>Node23</title>
<g id="a_node23"><a xlink:title=" ">
<polygon fill="white" stroke="#bfbfbf" points="1215,-347.5 1215,-366.5 1271,-366.5 1271,-347.5 1215,-347.5"/>
<text text-anchor="middle" x="1243" y="-354.5" font-family="Helvetica,sans-Serif" font-size="10.00">stddef.h</text>
</a>
</g>
</g>
<!-- Node22&#45;&gt;Node23 -->
<g id="edge34" class="edge">
<title>Node22&#45;&gt;Node23</title>
<path fill="none" stroke="midnightblue" d="M1232.98,-403.08C1234.57,-395.93 1236.86,-385.64 1238.85,-376.69"/>
<polygon fill="midnightblue" stroke="midnightblue" points="1242.3,-377.27 1241.06,-366.75 1235.47,-375.75 1242.3,-377.27"/>
</g>
</g>
</svg>
        <g id="navigator" transform="translate(0 0)" fill="#404254">
                <rect fill="#f2f5e9" fill-opacity="0.5" stroke="#606060" stroke-width=".5" x="0" y="0" width="60" height="60"/>
                <use id="zoomplus" xlink:href="#zoomPlus" x="17" y="9" onmousedown="handleZoom(evt,'in')"/>
                <use id="zoomminus" xlink:href="#zoomMin" x="42" y="9" onmousedown="handleZoom(evt,'out')"/>
                <use id="reset" xlink:href="#resetDef" x="30" y="36" onmousedown="handleReset()"/>
                <g id="arrowUp" xlink:href="#dirArrow" transform="translate(30 24)" onmousedown="handlePan(0,-1)">
                  <use xlink:href="#rim" fill="#404040">
                        <set attributeName="fill" to="#808080" begin="arrowUp.mouseover" end="arrowUp.mouseout"/>
                  </use>
                  <path fill="none" stroke="white" stroke-width="1.5" d="M0,-3.0v7 M-2.5,-0.5L0,-3.0L2.5,-0.5"/>
                </g>
                <g id="arrowRight" xlink:href="#dirArrow" transform="rotate(90) translate(36 -43)" onmousedown="handlePan(1,0)">
                  <use xlink:href="#rim" fill="#404040">
                        <set attributeName="fill" to="#808080" begin="arrowRight.mouseover" end="arrowRight.mouseout"/>
                  </use>
                  <path fill="none" stroke="white" stroke-width="1.5" d="M0,-3.0v7 M-2.5,-0.5L0,-3.0L2.5,-0.5"/>
                </g>
                <g id="arrowDown" xlink:href="#dirArrow" transform="rotate(180) translate(-30 -48)" onmousedown="handlePan(0,1)">
                  <use xlink:href="#rim" fill="#404040">
                        <set attributeName="fill" to="#808080" begin="arrowDown.mouseover" end="arrowDown.mouseout"/>
                  </use>
                  <path fill="none" stroke="white" stroke-width="1.5" d="M0,-3.0v7 M-2.5,-0.5L0,-3.0L2.5,-0.5"/>
                </g>
                <g id="arrowLeft" xlink:href="#dirArrow" transform="rotate(270) translate(-36 17)" onmousedown="handlePan(-1,0)">
                  <use xlink:href="#rim" fill="#404040">
                        <set attributeName="fill" to="#808080" begin="arrowLeft.mouseover" end="arrowLeft.mouseout"/>
                  </use>
                  <path fill="none" stroke="white" stroke-width="1.5" d="M0,-3.0v7 M-2.5,-0.5L0,-3.0L2.5,-0.5"/>
                </g>
        </g>
        <svg viewBox="0 0 15 15" width="100%" height="30px" preserveAspectRatio="xMaxYMin meet">
         <g id="arrow_out" transform="scale(0.3 0.3)">
          <a xlink:href="synchronization_8hpp__incl_org.svg" target="_base">
           <rect id="button" ry="5" rx="5" y="6" x="6" height="38" width="38"
                fill="#f2f5e9" fill-opacity="0.5" stroke="#606060" stroke-width="1.0"/>
           <path id="arrow"
             d="M 11.500037,31.436501 C 11.940474,20.09759 22.043105,11.32322 32.158766,21.979434 L 37.068811,17.246167 C 37.068811,17.246167 37.088388,32 37.088388,32 L 22.160133,31.978069 C 22.160133,31.978069 26.997745,27.140456 26.997745,27.140456 C 18.528582,18.264221 13.291696,25.230495 11.500037,31.436501 z"
             style="fill:#404040;"/>
          </a>
         </g>
        </svg>
</svg>
