<?xml version="1.0" encoding="UTF-8" standalone="no"?>
<!DOCTYPE svg PUBLIC "-//W3C//DTD SVG 1.1//EN"
 "http://www.w3.org/Graphics/SVG/1.1/DTD/svg11.dtd">
<!-- Generated by graphviz version 2.43.0 (0)
 -->
<!-- Title: /home/projectcs&#45;2022/argodsmBuffer/argodsmPrefetching/src/synchronization/intranode/ticket_lock.hpp Pages: 1 -->
<svg width="412pt" height="239pt"
 viewBox="0.00 0.00 412.00 239.00" xmlns="http://www.w3.org/2000/svg" xmlns:xlink="http://www.w3.org/1999/xlink">
<g id="graph0" class="graph" transform="scale(1 1) rotate(0) translate(4 235)">
<title>/home/projectcs&#45;2022/argodsmBuffer/argodsmPrefetching/src/synchronization/intranode/ticket_lock.hpp</title>
<polygon fill="white" stroke="transparent" points="-4,4 -4,-235 408,-235 408,4 -4,4"/>
<!-- Node1 -->
<g id="node1" class="node">
<title>Node1</title>
<g id="a_node1"><a xlink:title="This file provides a (local) ticket lock for intranode locking in the ArgoDSM system.">
<polygon fill="#bfbfbf" stroke="black" points="148,-178.5 148,-230.5 341,-230.5 341,-178.5 148,-178.5"/>
<text text-anchor="start" x="156" y="-218.5" font-family="Helvetica,sans-Serif" font-size="10.00">/home/projectcs&#45;2022</text>
<text text-anchor="start" x="156" y="-207.5" font-family="Helvetica,sans-Serif" font-size="10.00">/argodsmBuffer/argodsmPrefetching</text>
<text text-anchor="start" x="156" y="-196.5" font-family="Helvetica,sans-Serif" font-size="10.00">/src/synchronization/intranode</text>
<text text-anchor="middle" x="244.5" y="-185.5" font-family="Helvetica,sans-Serif" font-size="10.00">/ticket_lock.hpp</text>
</a>
</g>
</g>
<!-- Node2 -->
<g id="node2" class="node">
<title>Node2</title>
<g id="a_node2"><a xlink:href="cohort__lock_8hpp.html" target="_top" xlink:title="This file provides a cohort lock for the ArgoDSM system.">
<polygon fill="white" stroke="black" points="86,-89.5 86,-141.5 279,-141.5 279,-89.5 86,-89.5"/>
<text text-anchor="start" x="94" y="-129.5" font-family="Helvetica,sans-Serif" font-size="10.00">/home/projectcs&#45;2022</text>
<text text-anchor="start" x="94" y="-118.5" font-family="Helvetica,sans-Serif" font-size="10.00">/argodsmBuffer/argodsmPrefetching</text>
<text text-anchor="start" x="94" y="-107.5" font-family="Helvetica,sans-Serif" font-size="10.00">/src/synchronization/cohort</text>
<text text-anchor="middle" x="182.5" y="-96.5" font-family="Helvetica,sans-Serif" font-size="10.00">_lock.hpp</text>
</a>
</g>
</g>
<!-- Node1&#45;&gt;Node2 -->
<g id="edge1" class="edge">
<title>Node1&#45;&gt;Node2</title>
<path fill="none" stroke="midnightblue" d="M220.57,-169.93C213.86,-160.51 206.69,-150.44 200.39,-141.61"/>
<polygon fill="midnightblue" stroke="midnightblue" points="217.91,-172.22 226.57,-178.34 223.61,-168.16 217.91,-172.22"/>
</g>
<!-- Node4 -->
<g id="node4" class="node">
<title>Node4</title>
<g id="a_node4"><a xlink:href="lock_8cpp.html" target="_top" xlink:title="This file provides unit tests for the ArgoDSM locks.">
<polygon fill="white" stroke="black" points="211,-6 211,-47 404,-47 404,-6 211,-6"/>
<text text-anchor="start" x="219" y="-35" font-family="Helvetica,sans-Serif" font-size="10.00">/home/projectcs&#45;2022</text>
<text text-anchor="start" x="219" y="-24" font-family="Helvetica,sans-Serif" font-size="10.00">/argodsmBuffer/argodsmPrefetching</text>
<text text-anchor="middle" x="307.5" y="-13" font-family="Helvetica,sans-Serif" font-size="10.00">/tests/lock.cpp</text>
</a>
</g>
</g>
<!-- Node1&#45;&gt;Node4 -->
<g id="edge4" class="edge">
<title>Node1&#45;&gt;Node4</title>
<path fill="none" stroke="midnightblue" d="M272.35,-170.38C278.52,-161.61 284.43,-151.83 288.5,-142 301.53,-110.54 305.64,-70.72 306.92,-47.28"/>
<polygon fill="midnightblue" stroke="midnightblue" points="269.52,-168.31 266.4,-178.44 275.15,-172.47 269.52,-168.31"/>
</g>
<!-- Node3 -->
<g id="node3" class="node">
<title>Node3</title>
<g id="a_node3"><a xlink:href="cohort__lock_8cpp.html" target="_top" xlink:title="This file provides a C interface for ArgoDSM&#45;based cohort locks.">
<polygon fill="white" stroke="black" points="0,-0.5 0,-52.5 193,-52.5 193,-0.5 0,-0.5"/>
<text text-anchor="start" x="8" y="-40.5" font-family="Helvetica,sans-Serif" font-size="10.00">/home/projectcs&#45;2022</text>
<text text-anchor="start" x="8" y="-29.5" font-family="Helvetica,sans-Serif" font-size="10.00">/argodsmBuffer/argodsmPrefetching</text>
<text text-anchor="start" x="8" y="-18.5" font-family="Helvetica,sans-Serif" font-size="10.00">/src/synchronization/cohort</text>
<text text-anchor="middle" x="96.5" y="-7.5" font-family="Helvetica,sans-Serif" font-size="10.00">_lock.cpp</text>
</a>
</g>
</g>
<!-- Node2&#45;&gt;Node3 -->
<g id="edge2" class="edge">
<title>Node2&#45;&gt;Node3</title>
<path fill="none" stroke="midnightblue" d="M150.45,-82.08C140.82,-72.34 130.41,-61.8 121.32,-52.61"/>
<polygon fill="midnightblue" stroke="midnightblue" points="148.11,-84.68 157.63,-89.34 153.08,-79.76 148.11,-84.68"/>
</g>
<!-- Node2&#45;&gt;Node4 -->
<g id="edge3" class="edge">
<title>Node2&#45;&gt;Node4</title>
<path fill="none" stroke="midnightblue" d="M227.02,-83.51C244.46,-71.37 263.94,-57.82 279.36,-47.08"/>
<polygon fill="midnightblue" stroke="midnightblue" points="224.86,-80.75 218.66,-89.34 228.86,-86.5 224.86,-80.75"/>
</g>
</g>
</svg>
