<?xml version="1.0" encoding="UTF-8" standalone="no"?>
<!DOCTYPE svg PUBLIC "-//W3C//DTD SVG 1.1//EN"
 "http://www.w3.org/Graphics/SVG/1.1/DTD/svg11.dtd">
<!-- Generated by graphviz version 2.43.0 (0)
 -->
<!-- Title: TEST_F Pages: 1 -->
<svg width="695pt" height="176pt"
 viewBox="0.00 0.00 695.00 176.00" xmlns="http://www.w3.org/2000/svg" xmlns:xlink="http://www.w3.org/1999/xlink">
<g id="graph0" class="graph" transform="scale(1 1) rotate(0) translate(4 172)">
<title>TEST_F</title>
<polygon fill="white" stroke="transparent" points="-4,4 -4,-172 691,-172 691,4 -4,4"/>
<!-- Node1 -->
<g id="node1" class="node">
<title>Node1</title>
<g id="a_node1"><a xlink:title="Unittest that checks that there is no error when reading uninitialized coallocated memory.">
<polygon fill="#bfbfbf" stroke="black" points="0,-50 0,-69 52,-69 52,-50 0,-50"/>
<text text-anchor="middle" x="26" y="-57" font-family="Helvetica,sans-Serif" font-size="10.00">TEST_F</text>
</a>
</g>
</g>
<!-- Node2 -->
<g id="node2" class="node">
<title>Node2</title>
<g id="a_node2"><a xlink:href="classargo_1_1mempools_1_1global__memory__pool_ac37f5714010e1f4b482e6c6a8a246c05.html#ac37f5714010e1f4b482e6c6a8a246c05" target="_top" xlink:title="check remaining available memory in pool">
<polygon fill="white" stroke="black" points="88,-88.5 88,-118.5 228,-118.5 228,-88.5 88,-88.5"/>
<text text-anchor="start" x="96" y="-106.5" font-family="Helvetica,sans-Serif" font-size="10.00">argo::mempools::global</text>
<text text-anchor="middle" x="158" y="-95.5" font-family="Helvetica,sans-Serif" font-size="10.00">_memory_pool::available</text>
</a>
</g>
</g>
<!-- Node1&#45;&gt;Node2 -->
<g id="edge1" class="edge">
<title>Node1&#45;&gt;Node2</title>
<path fill="none" stroke="midnightblue" d="M52.07,-67.98C66.51,-72.87 85.25,-79.21 102.88,-85.18"/>
<polygon fill="midnightblue" stroke="midnightblue" points="101.94,-88.56 112.53,-88.45 104.18,-81.93 101.94,-88.56"/>
</g>
<!-- Node5 -->
<g id="node5" class="node">
<title>Node5</title>
<g id="a_node5"><a xlink:href="namespaceargo_a188a4648d6e7549bcef4cee36dcb5336.html#a188a4648d6e7549bcef4cee36dcb5336" target="_top" xlink:title="A unique ArgoDSM node identifier. Counting starts from 0.">
<polygon fill="white" stroke="black" points="604,-94 604,-113 687,-113 687,-94 604,-94"/>
<text text-anchor="middle" x="645.5" y="-101" font-family="Helvetica,sans-Serif" font-size="10.00">argo::node_id</text>
</a>
</g>
</g>
<!-- Node1&#45;&gt;Node5 -->
<g id="edge10" class="edge">
<title>Node1&#45;&gt;Node5</title>
<path fill="none" stroke="midnightblue" d="M52.07,-57.91C129.55,-53.51 371.82,-43.72 568,-78.5 582.58,-81.09 598.2,-85.81 611.5,-90.47"/>
<polygon fill="midnightblue" stroke="midnightblue" points="610.57,-93.86 621.16,-93.98 612.96,-87.28 610.57,-93.86"/>
</g>
<!-- Node7 -->
<g id="node7" class="node">
<title>Node7</title>
<g id="a_node7"><a xlink:href="src_2allocators_2allocators_8cpp_a4e8d23563c42daa5dfce669293d7e389.html#a4e8d23563c42daa5dfce669293d7e389" target="_top" xlink:title="basic collective allocation function, for C interface">
<polygon fill="white" stroke="black" points="112,-9 112,-28 204,-28 204,-9 112,-9"/>
<text text-anchor="middle" x="158" y="-16" font-family="Helvetica,sans-Serif" font-size="10.00">collective_alloc</text>
</a>
</g>
</g>
<!-- Node1&#45;&gt;Node7 -->
<g id="edge7" class="edge">
<title>Node1&#45;&gt;Node7</title>
<path fill="none" stroke="midnightblue" d="M52.07,-51.59C70.41,-45.81 95.68,-37.84 116.83,-31.17"/>
<polygon fill="midnightblue" stroke="midnightblue" points="118.04,-34.46 126.52,-28.11 115.93,-27.78 118.04,-34.46"/>
</g>
<!-- Node3 -->
<g id="node3" class="node">
<title>Node3</title>
<g id="a_node3"><a xlink:href="classargo_1_1globallock_1_1global__tas__lock_ae1a2cc75c9371ed191ac68f4e72f227e.html#ae1a2cc75c9371ed191ac68f4e72f227e" target="_top" xlink:title="take the lock">
<polygon fill="white" stroke="black" points="265.5,-134.5 265.5,-164.5 396.5,-164.5 396.5,-134.5 265.5,-134.5"/>
<text text-anchor="start" x="273.5" y="-152.5" font-family="Helvetica,sans-Serif" font-size="10.00">argo::globallock::global</text>
<text text-anchor="middle" x="331" y="-141.5" font-family="Helvetica,sans-Serif" font-size="10.00">_tas_lock::lock</text>
</a>
</g>
</g>
<!-- Node2&#45;&gt;Node3 -->
<g id="edge2" class="edge">
<title>Node2&#45;&gt;Node3</title>
<path fill="none" stroke="midnightblue" d="M214.99,-118.56C230.72,-122.79 247.97,-127.43 264.21,-131.8"/>
<polygon fill="midnightblue" stroke="midnightblue" points="263.61,-135.26 274.17,-134.48 265.43,-128.51 263.61,-135.26"/>
</g>
<!-- Node6 -->
<g id="node6" class="node">
<title>Node6</title>
<g id="a_node6"><a xlink:href="classargo_1_1globallock_1_1global__tas__lock_a55bd610c8555b8d986541c3f669789a2.html#a55bd610c8555b8d986541c3f669789a2" target="_top" xlink:title="release the lock">
<polygon fill="white" stroke="black" points="435.5,-88.5 435.5,-118.5 566.5,-118.5 566.5,-88.5 435.5,-88.5"/>
<text text-anchor="start" x="443.5" y="-106.5" font-family="Helvetica,sans-Serif" font-size="10.00">argo::globallock::global</text>
<text text-anchor="middle" x="501" y="-95.5" font-family="Helvetica,sans-Serif" font-size="10.00">_tas_lock::unlock</text>
</a>
</g>
</g>
<!-- Node2&#45;&gt;Node6 -->
<g id="edge5" class="edge">
<title>Node2&#45;&gt;Node6</title>
<path fill="none" stroke="midnightblue" d="M228.01,-103.5C285.19,-103.5 366.33,-103.5 425.09,-103.5"/>
<polygon fill="midnightblue" stroke="midnightblue" points="425.43,-107 435.43,-103.5 425.43,-100 425.43,-107"/>
</g>
<!-- Node4 -->
<g id="node4" class="node">
<title>Node4</title>
<g id="a_node4"><a xlink:href="classargo_1_1globallock_1_1global__tas__lock_a89bbe556d8a271dd64d65b421993da00.html#a89bbe556d8a271dd64d65b421993da00" target="_top" xlink:title="try to lock">
<polygon fill="white" stroke="black" points="435.5,-137.5 435.5,-167.5 566.5,-167.5 566.5,-137.5 435.5,-137.5"/>
<text text-anchor="start" x="443.5" y="-155.5" font-family="Helvetica,sans-Serif" font-size="10.00">argo::globallock::global</text>
<text text-anchor="middle" x="501" y="-144.5" font-family="Helvetica,sans-Serif" font-size="10.00">_tas_lock::try_lock</text>
</a>
</g>
</g>
<!-- Node3&#45;&gt;Node4 -->
<g id="edge3" class="edge">
<title>Node3&#45;&gt;Node4</title>
<path fill="none" stroke="midnightblue" d="M396.95,-150.66C406.24,-150.83 415.86,-151 425.32,-151.17"/>
<polygon fill="midnightblue" stroke="midnightblue" points="425.44,-154.67 435.5,-151.35 425.56,-147.67 425.44,-154.67"/>
</g>
<!-- Node4&#45;&gt;Node5 -->
<g id="edge4" class="edge">
<title>Node4&#45;&gt;Node5</title>
<path fill="none" stroke="midnightblue" d="M545.92,-137.4C565.47,-130.68 588.25,-122.84 606.99,-116.4"/>
<polygon fill="midnightblue" stroke="midnightblue" points="608.33,-119.64 616.65,-113.08 606.06,-113.02 608.33,-119.64"/>
</g>
<!-- Node6&#45;&gt;Node5 -->
<g id="edge6" class="edge">
<title>Node6&#45;&gt;Node5</title>
<path fill="none" stroke="midnightblue" d="M566.58,-103.5C575.68,-103.5 584.93,-103.5 593.73,-103.5"/>
<polygon fill="midnightblue" stroke="midnightblue" points="593.81,-107 603.81,-103.5 593.81,-100 593.81,-107"/>
</g>
<!-- Node8 -->
<g id="node8" class="node">
<title>Node8</title>
<g id="a_node8"><a xlink:href="classargo_1_1allocators_1_1generic__allocator_ae0df0734076478aeaeb689cdb902497a.html#ae0df0734076478aeaeb689cdb902497a" target="_top" xlink:title="Allocate memory.">
<polygon fill="white" stroke="black" points="264,-0.5 264,-30.5 398,-30.5 398,-0.5 264,-0.5"/>
<text text-anchor="start" x="272" y="-18.5" font-family="Helvetica,sans-Serif" font-size="10.00">argo::allocators::generic</text>
<text text-anchor="middle" x="331" y="-7.5" font-family="Helvetica,sans-Serif" font-size="10.00">_allocator::allocate</text>
</a>
</g>
</g>
<!-- Node7&#45;&gt;Node8 -->
<g id="edge8" class="edge">
<title>Node7&#45;&gt;Node8</title>
<path fill="none" stroke="midnightblue" d="M204.38,-17.7C219.45,-17.44 236.68,-17.14 253.45,-16.84"/>
<polygon fill="midnightblue" stroke="midnightblue" points="253.87,-20.34 263.8,-16.66 253.74,-13.34 253.87,-20.34"/>
</g>
<!-- Node9 -->
<g id="node9" class="node">
<title>Node9</title>
<g id="a_node9"><a xlink:href="classargo_1_1allocators_1_1generic__allocator_a3a6c4c5d83d679ce7fbfe1a50f323545.html#a3a6c4c5d83d679ce7fbfe1a50f323545" target="_top" xlink:title="helper function to align a number up to the next alignment">
<polygon fill="white" stroke="black" points="434,-0.5 434,-30.5 568,-30.5 568,-0.5 434,-0.5"/>
<text text-anchor="start" x="442" y="-18.5" font-family="Helvetica,sans-Serif" font-size="10.00">argo::allocators::generic</text>
<text text-anchor="middle" x="501" y="-7.5" font-family="Helvetica,sans-Serif" font-size="10.00">_allocator::align_up</text>
</a>
</g>
</g>
<!-- Node8&#45;&gt;Node9 -->
<g id="edge9" class="edge">
<title>Node8&#45;&gt;Node9</title>
<path fill="none" stroke="midnightblue" d="M398.4,-15.5C406.68,-15.5 415.2,-15.5 423.62,-15.5"/>
<polygon fill="midnightblue" stroke="midnightblue" points="423.81,-19 433.81,-15.5 423.81,-12 423.81,-19"/>
</g>
</g>
</svg>
