<?xml version="1.0" encoding="UTF-8" standalone="no"?>
<!DOCTYPE svg PUBLIC "-//W3C//DTD SVG 1.1//EN"
 "http://www.w3.org/Graphics/SVG/1.1/DTD/svg11.dtd">
<!-- Generated by graphviz version 2.43.0 (0)
 -->
<!-- Title: /home/projectcs&#45;2022/argodsmBuffer/argodsmPrefetching/src/virtual_memory/virtual_memory.hpp Pages: 1 -->
<!--zoomable 295 -->
<svg id="main" version="1.1" xmlns="http://www.w3.org/2000/svg" xmlns:xlink="http://www.w3.org/1999/xlink" xml:space="preserve" onload="init(evt)">
<style type="text/css"><![CDATA[
.edge:hover path { stroke: red; }
.edge:hover polygon { stroke: red; fill: red; }
]]></style>
<script type="text/javascript"><![CDATA[
var edges = document.getElementsByTagName('g');
if (edges && edges.length) {
  for (var i=0;i<edges.length;i++) {
    if (edges[i].id.substr(0,4)=='edge') {
      edges[i].setAttribute('class','edge');
    }
  }
}
]]></script>
        <defs>
                <circle id="rim" cx="0" cy="0" r="7"/>
                <circle id="rim2" cx="0" cy="0" r="3.5"/>
                <g id="zoomPlus">
                        <use xlink:href="#rim" fill="#404040">
                                <set attributeName="fill" to="#808080" begin="zoomplus.mouseover" end="zoomplus.mouseout"/>
                        </use>
                        <path d="M-4,0h8M0,-4v8" fill="none" stroke="white" stroke-width="1.5" pointer-events="none"/>
                </g>
                <g id="zoomMin">
                        <use xlink:href="#rim" fill="#404040">
                                <set attributeName="fill" to="#808080" begin="zoomminus.mouseover" end="zoomminus.mouseout"/>
                        </use>
                        <path d="M-4,0h8" fill="none" stroke="white" stroke-width="1.5" pointer-events="none"/>
                </g>
                <g id="dirArrow">
                        <path fill="none" stroke="white" stroke-width="1.5" d="M0,-3.0v7 M-2.5,-0.5L0,-3.0L2.5,-0.5"/>
                </g>
               <g id="resetDef">
                       <use xlink:href="#rim2" fill="#404040">
                               <set attributeName="fill" to="#808080" begin="reset.mouseover" end="reset.mouseout"/>
                       </use>
               </g>
        </defs>

<script type="text/javascript">
var viewWidth = 1385;
var viewHeight = 295;
var sectionId = 'dynsection-1';
</script>
<script xlink:href="svgpan.js"/>
<svg id="graph" class="graph">
<g id="viewport">
<title>/home/projectcs&#45;2022/argodsmBuffer/argodsmPrefetching/src/virtual_memory/virtual_memory.hpp</title>
<polygon fill="white" stroke="transparent" points="-4,4 -4,-291 1381,-291 1381,4 -4,4"/>
<!-- Node1 -->
<g id="node1" class="node">
<title>Node1</title>
<g id="a_node1"><a xlink:title="This file provides facilities for handling virtual memory and virtual address space.">
<polygon fill="#bfbfbf" stroke="black" points="594,-234.5 594,-286.5 787,-286.5 787,-234.5 594,-234.5"/>
<text text-anchor="start" x="602" y="-274.5" font-family="Helvetica,sans-Serif" font-size="10.00">/home/projectcs&#45;2022</text>
<text text-anchor="start" x="602" y="-263.5" font-family="Helvetica,sans-Serif" font-size="10.00">/argodsmBuffer/argodsmPrefetching</text>
<text text-anchor="start" x="602" y="-252.5" font-family="Helvetica,sans-Serif" font-size="10.00">/src/virtual_memory/virtual</text>
<text text-anchor="middle" x="690.5" y="-241.5" font-family="Helvetica,sans-Serif" font-size="10.00">_memory.hpp</text>
</a>
</g>
</g>
<!-- Node2 -->
<g id="node2" class="node">
<title>Node2</title>
<g id="a_node2"><a xlink:href="argo_8cpp.html" target="_top" xlink:title="This file implements some of the basic ArgoDSM calls.">
<polygon fill="white" stroke="black" points="0,-156.5 0,-197.5 193,-197.5 193,-156.5 0,-156.5"/>
<text text-anchor="start" x="8" y="-185.5" font-family="Helvetica,sans-Serif" font-size="10.00">/home/projectcs&#45;2022</text>
<text text-anchor="start" x="8" y="-174.5" font-family="Helvetica,sans-Serif" font-size="10.00">/argodsmBuffer/argodsmPrefetching</text>
<text text-anchor="middle" x="96.5" y="-163.5" font-family="Helvetica,sans-Serif" font-size="10.00">/src/argo.cpp</text>
</a>
</g>
</g>
<!-- Node1&#45;&gt;Node2 -->
<g id="edge1" class="edge">
<title>Node1&#45;&gt;Node2</title>
<path fill="none" stroke="midnightblue" d="M583.4,-247.47C485.38,-236.08 336.41,-217.81 207.5,-198 202.76,-197.27 197.91,-196.5 193.01,-195.7"/>
<polygon fill="midnightblue" stroke="midnightblue" points="583.28,-250.98 593.61,-248.65 584.08,-244.03 583.28,-250.98"/>
</g>
<!-- Node3 -->
<g id="node3" class="node">
<title>Node3</title>
<g id="a_node3"><a xlink:href="coherence_8cpp.html" target="_top" xlink:title="This file implements selective coherence mechanisms for ArgoDSM.">
<polygon fill="white" stroke="black" points="82,-0.5 82,-41.5 275,-41.5 275,-0.5 82,-0.5"/>
<text text-anchor="start" x="90" y="-29.5" font-family="Helvetica,sans-Serif" font-size="10.00">/home/projectcs&#45;2022</text>
<text text-anchor="start" x="90" y="-18.5" font-family="Helvetica,sans-Serif" font-size="10.00">/argodsmBuffer/argodsmPrefetching</text>
<text text-anchor="middle" x="178.5" y="-7.5" font-family="Helvetica,sans-Serif" font-size="10.00">/src/backend/mpi/coherence.cpp</text>
</a>
</g>
</g>
<!-- Node1&#45;&gt;Node3 -->
<g id="edge2" class="edge">
<title>Node1&#45;&gt;Node3</title>
<path fill="none" stroke="midnightblue" d="M583.92,-257.46C467.75,-253.12 291.57,-239.63 240.5,-198 192.04,-158.49 181.41,-78.52 179.11,-41.55"/>
<polygon fill="midnightblue" stroke="midnightblue" points="583.8,-260.96 593.92,-257.82 584.05,-253.97 583.8,-260.96"/>
</g>
<!-- Node4 -->
<g id="node4" class="node">
<title>Node4</title>
<g id="a_node4"><a xlink:href="swdsm_8cpp.html" target="_top" xlink:title="This file implements the MPI&#45;backend of ArgoDSM.">
<polygon fill="white" stroke="black" points="504,-0.5 504,-41.5 697,-41.5 697,-0.5 504,-0.5"/>
<text text-anchor="start" x="512" y="-29.5" font-family="Helvetica,sans-Serif" font-size="10.00">/home/projectcs&#45;2022</text>
<text text-anchor="start" x="512" y="-18.5" font-family="Helvetica,sans-Serif" font-size="10.00">/argodsmBuffer/argodsmPrefetching</text>
<text text-anchor="middle" x="600.5" y="-7.5" font-family="Helvetica,sans-Serif" font-size="10.00">/src/backend/mpi/swdsm.cpp</text>
</a>
</g>
</g>
<!-- Node1&#45;&gt;Node4 -->
<g id="edge3" class="edge">
<title>Node1&#45;&gt;Node4</title>
<path fill="none" stroke="midnightblue" d="M708.66,-225.16C726.41,-186.42 746.93,-122.96 718.5,-78 708.14,-61.61 691.54,-49.93 674.02,-41.63"/>
<polygon fill="midnightblue" stroke="midnightblue" points="705.38,-223.92 704.24,-234.45 711.7,-226.93 705.38,-223.92"/>
</g>
<!-- Node5 -->
<g id="node5" class="node">
<title>Node5</title>
<g id="a_node5"><a xlink:href="write__buffer_8hpp.html" target="_top" xlink:title="This file provides an interface for the ArgoDSM write buffer.">
<polygon fill="white" stroke="black" points="250,-156.5 250,-197.5 443,-197.5 443,-156.5 250,-156.5"/>
<text text-anchor="start" x="258" y="-185.5" font-family="Helvetica,sans-Serif" font-size="10.00">/home/projectcs&#45;2022</text>
<text text-anchor="start" x="258" y="-174.5" font-family="Helvetica,sans-Serif" font-size="10.00">/argodsmBuffer/argodsmPrefetching</text>
<text text-anchor="middle" x="346.5" y="-163.5" font-family="Helvetica,sans-Serif" font-size="10.00">/src/backend/mpi/write_buffer.hpp</text>
</a>
</g>
</g>
<!-- Node1&#45;&gt;Node5 -->
<g id="edge4" class="edge">
<title>Node1&#45;&gt;Node5</title>
<path fill="none" stroke="midnightblue" d="M583.89,-234.24C533.93,-222.4 475.31,-208.52 428.83,-197.51"/>
<polygon fill="midnightblue" stroke="midnightblue" points="583.22,-237.68 593.76,-236.58 584.84,-230.87 583.22,-237.68"/>
</g>
<!-- Node8 -->
<g id="node8" class="node">
<title>Node8</title>
<g id="a_node8"><a xlink:href="singlenode_8cpp.html" target="_top" xlink:title="pseudo&#45;backend implemenation for a single node ArgoDSM system">
<polygon fill="white" stroke="black" points="499.5,-78.5 499.5,-119.5 709.5,-119.5 709.5,-78.5 499.5,-78.5"/>
<text text-anchor="start" x="507.5" y="-107.5" font-family="Helvetica,sans-Serif" font-size="10.00">/home/projectcs&#45;2022</text>
<text text-anchor="start" x="507.5" y="-96.5" font-family="Helvetica,sans-Serif" font-size="10.00">/argodsmBuffer/argodsmPrefetching</text>
<text text-anchor="middle" x="604.5" y="-85.5" font-family="Helvetica,sans-Serif" font-size="10.00">/src/backend/singlenode/singlenode.cpp</text>
</a>
</g>
</g>
<!-- Node1&#45;&gt;Node8 -->
<g id="edge10" class="edge">
<title>Node1&#45;&gt;Node8</title>
<path fill="none" stroke="midnightblue" d="M689.95,-224.3C688.24,-203.24 683.55,-176.65 671.5,-156 663.02,-141.46 649.3,-129.01 636.47,-119.56"/>
<polygon fill="midnightblue" stroke="midnightblue" points="686.47,-224.68 690.59,-234.44 693.46,-224.25 686.47,-224.68"/>
</g>
<!-- Node9 -->
<g id="node9" class="node">
<title>Node9</title>
<g id="a_node9"><a xlink:href="signal_8hpp.html" target="_top" xlink:title="This file provides facilities for handling POSIX signals, especially SIGSEGV, within ArgoDSM.">
<polygon fill="white" stroke="black" points="469,-156.5 469,-197.5 662,-197.5 662,-156.5 469,-156.5"/>
<text text-anchor="start" x="477" y="-185.5" font-family="Helvetica,sans-Serif" font-size="10.00">/home/projectcs&#45;2022</text>
<text text-anchor="start" x="477" y="-174.5" font-family="Helvetica,sans-Serif" font-size="10.00">/argodsmBuffer/argodsmPrefetching</text>
<text text-anchor="middle" x="565.5" y="-163.5" font-family="Helvetica,sans-Serif" font-size="10.00">/src/signal/signal.hpp</text>
</a>
</g>
</g>
<!-- Node1&#45;&gt;Node9 -->
<g id="edge11" class="edge">
<title>Node1&#45;&gt;Node9</title>
<path fill="none" stroke="midnightblue" d="M643.3,-228.73C627.37,-218.34 610.03,-207.03 595.77,-197.73"/>
<polygon fill="midnightblue" stroke="midnightblue" points="641.69,-231.85 651.98,-234.38 645.51,-225.99 641.69,-231.85"/>
</g>
<!-- Node10 -->
<g id="node10" class="node">
<title>Node10</title>
<g id="a_node10"><a xlink:href="anonymous_8cpp.html" target="_top" xlink:title="This file implements the virtual memory and virtual address handling.">
<polygon fill="white" stroke="black" points="760,-156.5 760,-197.5 955,-197.5 955,-156.5 760,-156.5"/>
<text text-anchor="start" x="768" y="-185.5" font-family="Helvetica,sans-Serif" font-size="10.00">/home/projectcs&#45;2022</text>
<text text-anchor="start" x="768" y="-174.5" font-family="Helvetica,sans-Serif" font-size="10.00">/argodsmBuffer/argodsmPrefetching</text>
<text text-anchor="middle" x="857.5" y="-163.5" font-family="Helvetica,sans-Serif" font-size="10.00">/src/virtual_memory/anonymous.cpp</text>
</a>
</g>
</g>
<!-- Node1&#45;&gt;Node10 -->
<g id="edge14" class="edge">
<title>Node1&#45;&gt;Node10</title>
<path fill="none" stroke="midnightblue" d="M751.24,-229.86C773.25,-219.12 797.54,-207.26 817.33,-197.6"/>
<polygon fill="midnightblue" stroke="midnightblue" points="749.42,-226.85 741.97,-234.38 752.49,-233.14 749.42,-226.85"/>
</g>
<!-- Node11 -->
<g id="node11" class="node">
<title>Node11</title>
<g id="a_node11"><a xlink:href="memfd_8cpp.html" target="_top" xlink:title="This file implements the virtual memory and virtual address handling.">
<polygon fill="white" stroke="black" points="973,-156.5 973,-197.5 1166,-197.5 1166,-156.5 973,-156.5"/>
<text text-anchor="start" x="981" y="-185.5" font-family="Helvetica,sans-Serif" font-size="10.00">/home/projectcs&#45;2022</text>
<text text-anchor="start" x="981" y="-174.5" font-family="Helvetica,sans-Serif" font-size="10.00">/argodsmBuffer/argodsmPrefetching</text>
<text text-anchor="middle" x="1069.5" y="-163.5" font-family="Helvetica,sans-Serif" font-size="10.00">/src/virtual_memory/memfd.cpp</text>
</a>
</g>
</g>
<!-- Node1&#45;&gt;Node11 -->
<g id="edge15" class="edge">
<title>Node1&#45;&gt;Node11</title>
<path fill="none" stroke="midnightblue" d="M796.92,-236.62C854.13,-224.31 923.95,-209.3 978.6,-197.55"/>
<polygon fill="midnightblue" stroke="midnightblue" points="796.16,-233.2 787.12,-238.72 797.63,-240.04 796.16,-233.2"/>
</g>
<!-- Node12 -->
<g id="node12" class="node">
<title>Node12</title>
<g id="a_node12"><a xlink:href="shm_8cpp.html" target="_top" xlink:title="This file implements the virtual memory and virtual address handling.">
<polygon fill="white" stroke="black" points="1184,-156.5 1184,-197.5 1377,-197.5 1377,-156.5 1184,-156.5"/>
<text text-anchor="start" x="1192" y="-185.5" font-family="Helvetica,sans-Serif" font-size="10.00">/home/projectcs&#45;2022</text>
<text text-anchor="start" x="1192" y="-174.5" font-family="Helvetica,sans-Serif" font-size="10.00">/argodsmBuffer/argodsmPrefetching</text>
<text text-anchor="middle" x="1280.5" y="-163.5" font-family="Helvetica,sans-Serif" font-size="10.00">/src/virtual_memory/shm.cpp</text>
</a>
</g>
</g>
<!-- Node1&#45;&gt;Node12 -->
<g id="edge16" class="edge">
<title>Node1&#45;&gt;Node12</title>
<path fill="none" stroke="midnightblue" d="M797.33,-247.88C895.78,-236.72 1045.83,-218.55 1175.5,-198 1178.25,-197.56 1181.04,-197.11 1183.85,-196.64"/>
<polygon fill="midnightblue" stroke="midnightblue" points="796.92,-244.41 787.37,-249.01 797.7,-251.36 796.92,-244.41"/>
</g>
<!-- Node6 -->
<g id="node6" class="node">
<title>Node6</title>
<g id="a_node6"><a xlink:href="swdsm_8h.html" target="_top" xlink:title="this is a legacy file from the ArgoDSM prototype">
<polygon fill="white" stroke="black" points="250,-78.5 250,-119.5 443,-119.5 443,-78.5 250,-78.5"/>
<text text-anchor="start" x="258" y="-107.5" font-family="Helvetica,sans-Serif" font-size="10.00">/home/projectcs&#45;2022</text>
<text text-anchor="start" x="258" y="-96.5" font-family="Helvetica,sans-Serif" font-size="10.00">/argodsmBuffer/argodsmPrefetching</text>
<text text-anchor="middle" x="346.5" y="-85.5" font-family="Helvetica,sans-Serif" font-size="10.00">/src/backend/mpi/swdsm.h</text>
</a>
</g>
</g>
<!-- Node5&#45;&gt;Node6 -->
<g id="edge5" class="edge">
<title>Node5&#45;&gt;Node6</title>
<path fill="none" stroke="midnightblue" d="M339.9,-146.3C339.58,-137.3 339.78,-127.65 340.52,-119.51"/>
<polygon fill="midnightblue" stroke="midnightblue" points="336.41,-146.66 340.51,-156.43 343.4,-146.23 336.41,-146.66"/>
</g>
<!-- Node6&#45;&gt;Node3 -->
<g id="edge6" class="edge">
<title>Node6&#45;&gt;Node3</title>
<path fill="none" stroke="midnightblue" d="M293.87,-74.19C270.62,-63.67 243.64,-51.47 221.62,-41.51"/>
<polygon fill="midnightblue" stroke="midnightblue" points="292.68,-77.5 303.24,-78.43 295.57,-71.12 292.68,-77.5"/>
</g>
<!-- Node6&#45;&gt;Node4 -->
<g id="edge8" class="edge">
<title>Node6&#45;&gt;Node4</title>
<path fill="none" stroke="midnightblue" d="M421.89,-75.44C457.94,-64.66 500.68,-51.87 535.31,-41.51"/>
<polygon fill="midnightblue" stroke="midnightblue" points="420.49,-72.21 411.91,-78.43 422.49,-78.91 420.49,-72.21"/>
</g>
<!-- Node6&#45;&gt;Node5 -->
<g id="edge9" class="edge">
<title>Node6&#45;&gt;Node5</title>
<path fill="none" stroke="midnightblue" d="M353.1,-129.63C353.42,-138.62 353.22,-148.27 352.49,-156.43"/>
<polygon fill="midnightblue" stroke="midnightblue" points="356.59,-129.27 352.48,-119.51 349.6,-129.7 356.59,-129.27"/>
</g>
<!-- Node7 -->
<g id="node7" class="node">
<title>Node7</title>
<g id="a_node7"><a xlink:href="mpi_8cpp.html" target="_top" xlink:title="MPI backend implementation.">
<polygon fill="white" stroke="black" points="293,-0.5 293,-41.5 486,-41.5 486,-0.5 293,-0.5"/>
<text text-anchor="start" x="301" y="-29.5" font-family="Helvetica,sans-Serif" font-size="10.00">/home/projectcs&#45;2022</text>
<text text-anchor="start" x="301" y="-18.5" font-family="Helvetica,sans-Serif" font-size="10.00">/argodsmBuffer/argodsmPrefetching</text>
<text text-anchor="middle" x="389.5" y="-7.5" font-family="Helvetica,sans-Serif" font-size="10.00">/src/backend/mpi/mpi.cpp</text>
</a>
</g>
</g>
<!-- Node6&#45;&gt;Node7 -->
<g id="edge7" class="edge">
<title>Node6&#45;&gt;Node7</title>
<path fill="none" stroke="midnightblue" d="M362.64,-69.47C367.92,-60.14 373.65,-50.01 378.46,-41.51"/>
<polygon fill="midnightblue" stroke="midnightblue" points="359.45,-68 357.57,-78.43 365.54,-71.45 359.45,-68"/>
</g>
<!-- Node9&#45;&gt;Node4 -->
<g id="edge12" class="edge">
<title>Node9&#45;&gt;Node4</title>
<path fill="none" stroke="midnightblue" d="M517.58,-150.56C506.72,-142.35 496.59,-132.15 490.5,-120 482.13,-103.31 480.74,-93.91 490.5,-78 500.52,-61.65 516.98,-49.89 534.15,-41.5"/>
<polygon fill="midnightblue" stroke="midnightblue" points="515.79,-153.58 525.98,-156.45 519.81,-147.85 515.79,-153.58"/>
</g>
<!-- Node9&#45;&gt;Node8 -->
<g id="edge13" class="edge">
<title>Node9&#45;&gt;Node8</title>
<path fill="none" stroke="midnightblue" d="M580.14,-147.47C584.93,-138.14 590.13,-128.01 594.49,-119.51"/>
<polygon fill="midnightblue" stroke="midnightblue" points="577,-145.93 575.54,-156.43 583.22,-149.13 577,-145.93"/>
</g>
</g>
</svg>
        <g id="navigator" transform="translate(0 0)" fill="#404254">
                <rect fill="#f2f5e9" fill-opacity="0.5" stroke="#606060" stroke-width=".5" x="0" y="0" width="60" height="60"/>
                <use id="zoomplus" xlink:href="#zoomPlus" x="17" y="9" onmousedown="handleZoom(evt,'in')"/>
                <use id="zoomminus" xlink:href="#zoomMin" x="42" y="9" onmousedown="handleZoom(evt,'out')"/>
                <use id="reset" xlink:href="#resetDef" x="30" y="36" onmousedown="handleReset()"/>
                <g id="arrowUp" xlink:href="#dirArrow" transform="translate(30 24)" onmousedown="handlePan(0,-1)">
                  <use xlink:href="#rim" fill="#404040">
                        <set attributeName="fill" to="#808080" begin="arrowUp.mouseover" end="arrowUp.mouseout"/>
                  </use>
                  <path fill="none" stroke="white" stroke-width="1.5" d="M0,-3.0v7 M-2.5,-0.5L0,-3.0L2.5,-0.5"/>
                </g>
                <g id="arrowRight" xlink:href="#dirArrow" transform="rotate(90) translate(36 -43)" onmousedown="handlePan(1,0)">
                  <use xlink:href="#rim" fill="#404040">
                        <set attributeName="fill" to="#808080" begin="arrowRight.mouseover" end="arrowRight.mouseout"/>
                  </use>
                  <path fill="none" stroke="white" stroke-width="1.5" d="M0,-3.0v7 M-2.5,-0.5L0,-3.0L2.5,-0.5"/>
                </g>
                <g id="arrowDown" xlink:href="#dirArrow" transform="rotate(180) translate(-30 -48)" onmousedown="handlePan(0,1)">
                  <use xlink:href="#rim" fill="#404040">
                        <set attributeName="fill" to="#808080" begin="arrowDown.mouseover" end="arrowDown.mouseout"/>
                  </use>
                  <path fill="none" stroke="white" stroke-width="1.5" d="M0,-3.0v7 M-2.5,-0.5L0,-3.0L2.5,-0.5"/>
                </g>
                <g id="arrowLeft" xlink:href="#dirArrow" transform="rotate(270) translate(-36 17)" onmousedown="handlePan(-1,0)">
                  <use xlink:href="#rim" fill="#404040">
                        <set attributeName="fill" to="#808080" begin="arrowLeft.mouseover" end="arrowLeft.mouseout"/>
                  </use>
                  <path fill="none" stroke="white" stroke-width="1.5" d="M0,-3.0v7 M-2.5,-0.5L0,-3.0L2.5,-0.5"/>
                </g>
        </g>
        <svg viewBox="0 0 15 15" width="100%" height="30px" preserveAspectRatio="xMaxYMin meet">
         <g id="arrow_out" transform="scale(0.3 0.3)">
          <a xlink:href="virtual__memory_8hpp__dep__incl_org.svg" target="_base">
           <rect id="button" ry="5" rx="5" y="6" x="6" height="38" width="38"
                fill="#f2f5e9" fill-opacity="0.5" stroke="#606060" stroke-width="1.0"/>
           <path id="arrow"
             d="M 11.500037,31.436501 C 11.940474,20.09759 22.043105,11.32322 32.158766,21.979434 L 37.068811,17.246167 C 37.068811,17.246167 37.088388,32 37.088388,32 L 22.160133,31.978069 C 22.160133,31.978069 26.997745,27.140456 26.997745,27.140456 C 18.528582,18.264221 13.291696,25.230495 11.500037,31.436501 z"
             style="fill:#404040;"/>
          </a>
         </g>
        </svg>
</svg>
