<?xml version="1.0" encoding="UTF-8" standalone="no"?>
<!DOCTYPE svg PUBLIC "-//W3C//DTD SVG 1.1//EN"
 "http://www.w3.org/Graphics/SVG/1.1/DTD/svg11.dtd">
<!-- Generated by graphviz version 2.43.0 (0)
 -->
<!-- Title: /home/projectcs&#45;2022/argodsmBuffer/argodsmPrefetching/src/backend/mpi/write_buffer.hpp Pages: 1 -->
<svg width="2930pt" height="520pt"
 viewBox="0.00 0.00 2929.50 520.00" xmlns="http://www.w3.org/2000/svg" xmlns:xlink="http://www.w3.org/1999/xlink">
<g id="graph0" class="graph" transform="scale(1 1) rotate(0) translate(4 516)">
<title>/home/projectcs&#45;2022/argodsmBuffer/argodsmPrefetching/src/backend/mpi/write_buffer.hpp</title>
<polygon fill="white" stroke="transparent" points="-4,4 -4,-516 2925.5,-516 2925.5,4 -4,4"/>
<!-- Node1 -->
<g id="node1" class="node">
<title>Node1</title>
<g id="a_node1"><a xlink:title="This file provides an interface for the ArgoDSM write buffer.">
<polygon fill="#bfbfbf" stroke="black" points="2002,-470.5 2002,-511.5 2195,-511.5 2195,-470.5 2002,-470.5"/>
<text text-anchor="start" x="2010" y="-499.5" font-family="Helvetica,sans-Serif" font-size="10.00">/home/projectcs&#45;2022</text>
<text text-anchor="start" x="2010" y="-488.5" font-family="Helvetica,sans-Serif" font-size="10.00">/argodsmBuffer/argodsmPrefetching</text>
<text text-anchor="middle" x="2098.5" y="-477.5" font-family="Helvetica,sans-Serif" font-size="10.00">/src/backend/mpi/write_buffer.hpp</text>
</a>
</g>
</g>
<!-- Node2 -->
<g id="node2" class="node">
<title>Node2</title>
<g id="a_node2"><a xlink:title=" ">
<polygon fill="white" stroke="#bfbfbf" points="1618.5,-286 1618.5,-305 1662.5,-305 1662.5,-286 1618.5,-286"/>
<text text-anchor="middle" x="1640.5" y="-293" font-family="Helvetica,sans-Serif" font-size="10.00">mpi.h</text>
</a>
</g>
</g>
<!-- Node1&#45;&gt;Node2 -->
<g id="edge1" class="edge">
<title>Node1&#45;&gt;Node2</title>
<path fill="none" stroke="midnightblue" d="M2086.6,-470.4C2066.17,-438.65 2021.2,-376.56 1965.5,-347 1915.01,-320.2 1744.69,-304.43 1672.87,-298.83"/>
<polygon fill="midnightblue" stroke="midnightblue" points="1672.86,-295.32 1662.62,-298.05 1672.32,-302.3 1672.86,-295.32"/>
</g>
<!-- Node3 -->
<g id="node3" class="node">
<title>Node3</title>
<g id="a_node3"><a xlink:title=" ">
<polygon fill="white" stroke="#bfbfbf" points="2202.5,-409 2202.5,-428 2266.5,-428 2266.5,-409 2202.5,-409"/>
<text text-anchor="middle" x="2234.5" y="-416" font-family="Helvetica,sans-Serif" font-size="10.00">algorithm</text>
</a>
</g>
</g>
<!-- Node1&#45;&gt;Node3 -->
<g id="edge2" class="edge">
<title>Node1&#45;&gt;Node3</title>
<path fill="none" stroke="midnightblue" d="M2136.38,-470.36C2159.45,-458.4 2188.32,-443.44 2208.75,-432.85"/>
<polygon fill="midnightblue" stroke="midnightblue" points="2210.5,-435.88 2217.77,-428.17 2207.28,-429.67 2210.5,-435.88"/>
</g>
<!-- Node4 -->
<g id="node4" class="node">
<title>Node4</title>
<g id="a_node4"><a xlink:title=" ">
<polygon fill="white" stroke="#bfbfbf" points="63.5,-347.5 63.5,-366.5 113.5,-366.5 113.5,-347.5 63.5,-347.5"/>
<text text-anchor="middle" x="88.5" y="-354.5" font-family="Helvetica,sans-Serif" font-size="10.00">atomic</text>
</a>
</g>
</g>
<!-- Node1&#45;&gt;Node4 -->
<g id="edge3" class="edge">
<title>Node1&#45;&gt;Node4</title>
<path fill="none" stroke="midnightblue" d="M2001.85,-485.15C1824.67,-476.13 1435.94,-455.7 1108.5,-434 927.04,-421.98 881.92,-415.54 700.5,-403 446.99,-385.47 378.31,-407.56 123.55,-366.84"/>
<polygon fill="midnightblue" stroke="midnightblue" points="124.06,-363.38 113.63,-365.24 122.95,-370.29 124.06,-363.38"/>
</g>
<!-- Node5 -->
<g id="node5" class="node">
<title>Node5</title>
<g id="a_node5"><a xlink:title=" ">
<polygon fill="white" stroke="#bfbfbf" points="2285,-409 2285,-428 2332,-428 2332,-409 2285,-409"/>
<text text-anchor="middle" x="2308.5" y="-416" font-family="Helvetica,sans-Serif" font-size="10.00">deque</text>
</a>
</g>
</g>
<!-- Node1&#45;&gt;Node5 -->
<g id="edge4" class="edge">
<title>Node1&#45;&gt;Node5</title>
<path fill="none" stroke="midnightblue" d="M2166.32,-470.41C2199.52,-460.35 2239.91,-447.41 2275.5,-434 2277.11,-433.39 2278.76,-432.75 2280.41,-432.08"/>
<polygon fill="midnightblue" stroke="midnightblue" points="2281.94,-435.24 2289.8,-428.13 2279.22,-428.79 2281.94,-435.24"/>
</g>
<!-- Node6 -->
<g id="node6" class="node">
<title>Node6</title>
<g id="a_node6"><a xlink:title=" ">
<polygon fill="white" stroke="#bfbfbf" points="2350,-409 2350,-428 2403,-428 2403,-409 2350,-409"/>
<text text-anchor="middle" x="2376.5" y="-416" font-family="Helvetica,sans-Serif" font-size="10.00">iterator</text>
</a>
</g>
</g>
<!-- Node1&#45;&gt;Node6 -->
<g id="edge5" class="edge">
<title>Node1&#45;&gt;Node6</title>
<path fill="none" stroke="midnightblue" d="M2195.29,-471.56C2240.23,-462.01 2294.08,-449.17 2341.5,-434 2343.64,-433.32 2345.83,-432.56 2348.02,-431.75"/>
<polygon fill="midnightblue" stroke="midnightblue" points="2349.42,-434.96 2357.46,-428.06 2346.87,-428.45 2349.42,-434.96"/>
</g>
<!-- Node7 -->
<g id="node7" class="node">
<title>Node7</title>
<g id="a_node7"><a xlink:title=" ">
<polygon fill="white" stroke="#bfbfbf" points="2022.5,-112.5 2022.5,-131.5 2070.5,-131.5 2070.5,-112.5 2022.5,-112.5"/>
<text text-anchor="middle" x="2046.5" y="-119.5" font-family="Helvetica,sans-Serif" font-size="10.00">mutex</text>
</a>
</g>
</g>
<!-- Node1&#45;&gt;Node7 -->
<g id="edge6" class="edge">
<title>Node1&#45;&gt;Node7</title>
<path fill="none" stroke="midnightblue" d="M2095.7,-470.27C2086.63,-406.21 2058.06,-204.61 2049.17,-141.85"/>
<polygon fill="midnightblue" stroke="midnightblue" points="2052.62,-141.22 2047.75,-131.81 2045.69,-142.2 2052.62,-141.22"/>
</g>
<!-- Node8 -->
<g id="node8" class="node">
<title>Node8</title>
<g id="a_node8"><a xlink:title=" ">
<polygon fill="white" stroke="#bfbfbf" points="0,-347.5 0,-366.5 45,-366.5 45,-347.5 0,-347.5"/>
<text text-anchor="middle" x="22.5" y="-354.5" font-family="Helvetica,sans-Serif" font-size="10.00">utility</text>
</a>
</g>
</g>
<!-- Node1&#45;&gt;Node8 -->
<g id="edge7" class="edge">
<title>Node1&#45;&gt;Node8</title>
<path fill="none" stroke="midnightblue" d="M2001.77,-488.23C1774.48,-483.62 1188.69,-469.06 700.5,-434 415.96,-413.57 339.8,-420.98 55.32,-366.83"/>
<polygon fill="midnightblue" stroke="midnightblue" points="55.59,-363.32 45.11,-364.88 54.28,-370.19 55.59,-363.32"/>
</g>
<!-- Node9 -->
<g id="node9" class="node">
<title>Node9</title>
<g id="a_node9"><a xlink:href="swdsm_8h.html" target="_top" xlink:title="this is a legacy file from the ArgoDSM prototype">
<polygon fill="white" stroke="black" points="1117,-409 1117,-428 1242,-428 1242,-409 1117,-409"/>
<text text-anchor="middle" x="1179.5" y="-416" font-family="Helvetica,sans-Serif" font-size="10.00">backend/mpi/swdsm.h</text>
</a>
</g>
</g>
<!-- Node1&#45;&gt;Node9 -->
<g id="edge8" class="edge">
<title>Node1&#45;&gt;Node9</title>
<path fill="none" stroke="midnightblue" d="M2001.92,-482.92C1816.93,-468.99 1416.6,-438.27 1252.17,-425.38"/>
<polygon fill="midnightblue" stroke="midnightblue" points="1252.4,-421.88 1242.16,-424.59 1251.86,-428.86 1252.4,-421.88"/>
</g>
<!-- Node34 -->
<g id="node34" class="node">
<title>Node34</title>
<g id="a_node34"><a xlink:href="backend_8hpp.html" target="_top" xlink:title="This file provides the backend interface.">
<polygon fill="white" stroke="black" points="2128.5,-347.5 2128.5,-366.5 2250.5,-366.5 2250.5,-347.5 2128.5,-347.5"/>
<text text-anchor="middle" x="2189.5" y="-354.5" font-family="Helvetica,sans-Serif" font-size="10.00">backend/backend.hpp</text>
</a>
</g>
</g>
<!-- Node1&#45;&gt;Node34 -->
<g id="edge66" class="edge">
<title>Node1&#45;&gt;Node34</title>
<path fill="none" stroke="midnightblue" d="M2112.12,-470.24C2129.97,-444.35 2160.98,-399.37 2177.81,-374.96"/>
<polygon fill="midnightblue" stroke="midnightblue" points="2180.72,-376.91 2183.51,-366.69 2174.95,-372.93 2180.72,-376.91"/>
</g>
<!-- Node43 -->
<g id="node41" class="node">
<title>Node43</title>
<g id="a_node41"><a xlink:href="env_8hpp.html" target="_top" xlink:title="This file provides facilities for handling environment variables.">
<polygon fill="white" stroke="black" points="2807.5,-56.5 2807.5,-75.5 2883.5,-75.5 2883.5,-56.5 2807.5,-56.5"/>
<text text-anchor="middle" x="2845.5" y="-63.5" font-family="Helvetica,sans-Serif" font-size="10.00">env/env.hpp</text>
</a>
</g>
</g>
<!-- Node1&#45;&gt;Node43 -->
<g id="edge67" class="edge">
<title>Node1&#45;&gt;Node43</title>
<path fill="none" stroke="midnightblue" d="M2120.4,-470.41C2132.31,-459.71 2147.27,-446.19 2160.5,-434 2175.3,-420.37 2175.75,-412.48 2193.5,-403 2486.43,-246.61 2921.5,-567.06 2921.5,-235 2921.5,-235 2921.5,-235 2921.5,-177 2921.5,-137.28 2887.54,-101.5 2865.02,-82.15"/>
<polygon fill="midnightblue" stroke="midnightblue" points="2866.98,-79.24 2857.04,-75.57 2862.52,-84.63 2866.98,-79.24"/>
</g>
<!-- Node52 -->
<g id="node49" class="node">
<title>Node52</title>
<g id="a_node49"><a xlink:title=" ">
<polygon fill="white" stroke="#bfbfbf" points="2421.5,-409 2421.5,-428 2471.5,-428 2471.5,-409 2421.5,-409"/>
<text text-anchor="middle" x="2446.5" y="-416" font-family="Helvetica,sans-Serif" font-size="10.00">qd.hpp</text>
</a>
</g>
</g>
<!-- Node1&#45;&gt;Node52 -->
<g id="edge68" class="edge">
<title>Node1&#45;&gt;Node52</title>
<path fill="none" stroke="midnightblue" d="M2195.32,-478.51C2258.08,-469.66 2341.13,-455.28 2412.5,-434 2414.65,-433.36 2416.84,-432.62 2419.03,-431.83"/>
<polygon fill="midnightblue" stroke="midnightblue" points="2420.42,-435.04 2428.43,-428.1 2417.84,-428.54 2420.42,-435.04"/>
</g>
<!-- Node53 -->
<g id="node50" class="node">
<title>Node53</title>
<g id="a_node50"><a xlink:href="virtual__memory_8hpp.html" target="_top" xlink:title="This file provides facilities for handling virtual memory and virtual address space.">
<polygon fill="white" stroke="black" points="43,-403.5 43,-433.5 172,-433.5 172,-403.5 43,-403.5"/>
<text text-anchor="start" x="51" y="-421.5" font-family="Helvetica,sans-Serif" font-size="10.00">virtual_memory/virtual</text>
<text text-anchor="middle" x="107.5" y="-410.5" font-family="Helvetica,sans-Serif" font-size="10.00">_memory.hpp</text>
</a>
</g>
</g>
<!-- Node1&#45;&gt;Node53 -->
<g id="edge69" class="edge">
<title>Node1&#45;&gt;Node53</title>
<path fill="none" stroke="midnightblue" d="M2001.8,-486.58C1656.64,-474.35 489.55,-433.03 182.19,-422.14"/>
<polygon fill="midnightblue" stroke="midnightblue" points="182.17,-418.64 172.05,-421.79 181.92,-425.64 182.17,-418.64"/>
</g>
<!-- Node9&#45;&gt;Node1 -->
<g id="edge65" class="edge">
<title>Node9&#45;&gt;Node1</title>
<path fill="none" stroke="midnightblue" d="M1242.19,-424.04C1397.03,-435.62 1798.65,-466.4 1991.78,-481.46"/>
<polygon fill="midnightblue" stroke="midnightblue" points="1991.7,-484.96 2001.94,-482.25 1992.24,-477.99 1991.7,-484.96"/>
</g>
<!-- Node9&#45;&gt;Node2 -->
<g id="edge14" class="edge">
<title>Node9&#45;&gt;Node2</title>
<path fill="none" stroke="midnightblue" d="M1242.39,-414.2C1357.6,-407.58 1593.33,-391.25 1621.5,-367 1636.19,-354.36 1640.11,-331.67 1640.89,-315.44"/>
<polygon fill="midnightblue" stroke="midnightblue" points="1644.39,-315.05 1641,-305.01 1637.39,-314.97 1644.39,-315.05"/>
</g>
<!-- Node9&#45;&gt;Node4 -->
<g id="edge27" class="edge">
<title>Node9&#45;&gt;Node4</title>
<path fill="none" stroke="midnightblue" d="M1116.67,-412.4C1077.76,-409.36 1026.75,-405.6 981.5,-403 603.37,-381.24 502.08,-423.47 123.75,-366.83"/>
<polygon fill="midnightblue" stroke="midnightblue" points="124.03,-363.33 113.62,-365.3 122.99,-370.25 124.03,-363.33"/>
</g>
<!-- Node9&#45;&gt;Node7 -->
<g id="edge31" class="edge">
<title>Node9&#45;&gt;Node7</title>
<path fill="none" stroke="midnightblue" d="M1242.21,-416.35C1417.16,-412.75 1901.97,-399.87 1965.5,-367 2001.29,-348.48 2022.5,-336.79 2022.5,-296.5 2022.5,-296.5 2022.5,-296.5 2022.5,-233 2022.5,-200.06 2032.9,-162.82 2040.01,-141.21"/>
<polygon fill="midnightblue" stroke="midnightblue" points="2043.34,-142.29 2043.26,-131.7 2036.72,-140.03 2043.34,-142.29"/>
</g>
<!-- Node9&#45;&gt;Node8 -->
<g id="edge34" class="edge">
<title>Node9&#45;&gt;Node8</title>
<path fill="none" stroke="midnightblue" d="M1116.8,-415.53C901.42,-408.63 197.75,-385.14 55.39,-366.54"/>
<polygon fill="midnightblue" stroke="midnightblue" points="55.48,-363.02 45.08,-365.04 54.47,-369.95 55.48,-363.02"/>
</g>
<!-- Node10 -->
<g id="node10" class="node">
<title>Node10</title>
<g id="a_node10"><a xlink:title=" ">
<polygon fill="white" stroke="#bfbfbf" points="1275.5,-347.5 1275.5,-366.5 1331.5,-366.5 1331.5,-347.5 1275.5,-347.5"/>
<text text-anchor="middle" x="1303.5" y="-354.5" font-family="Helvetica,sans-Serif" font-size="10.00">assert.h</text>
</a>
</g>
</g>
<!-- Node9&#45;&gt;Node10 -->
<g id="edge9" class="edge">
<title>Node9&#45;&gt;Node10</title>
<path fill="none" stroke="midnightblue" d="M1197.27,-408.98C1217.98,-399.03 1252.45,-382.49 1276.49,-370.96"/>
<polygon fill="midnightblue" stroke="midnightblue" points="1278.27,-373.99 1285.77,-366.51 1275.24,-367.68 1278.27,-373.99"/>
</g>
<!-- Node11 -->
<g id="node11" class="node">
<title>Node11</title>
<g id="a_node11"><a xlink:title=" ">
<polygon fill="white" stroke="#bfbfbf" points="1350,-347.5 1350,-366.5 1401,-366.5 1401,-347.5 1350,-347.5"/>
<text text-anchor="middle" x="1375.5" y="-354.5" font-family="Helvetica,sans-Serif" font-size="10.00">errno.h</text>
</a>
</g>
</g>
<!-- Node9&#45;&gt;Node11 -->
<g id="edge10" class="edge">
<title>Node9&#45;&gt;Node11</title>
<path fill="none" stroke="midnightblue" d="M1207.58,-408.98C1242.56,-398.36 1302.34,-380.21 1340.33,-368.68"/>
<polygon fill="midnightblue" stroke="midnightblue" points="1341.41,-372.01 1349.96,-365.75 1339.38,-365.31 1341.41,-372.01"/>
</g>
<!-- Node12 -->
<g id="node12" class="node">
<title>Node12</title>
<g id="a_node12"><a xlink:title=" ">
<polygon fill="white" stroke="#bfbfbf" points="1419,-347.5 1419,-366.5 1466,-366.5 1466,-347.5 1419,-347.5"/>
<text text-anchor="middle" x="1442.5" y="-354.5" font-family="Helvetica,sans-Serif" font-size="10.00">fcntl.h</text>
</a>
</g>
</g>
<!-- Node9&#45;&gt;Node12 -->
<g id="edge11" class="edge">
<title>Node9&#45;&gt;Node12</title>
<path fill="none" stroke="midnightblue" d="M1222.25,-408.94C1266.66,-399.87 1338.37,-384.75 1408.84,-367.31"/>
<polygon fill="midnightblue" stroke="midnightblue" points="1409.92,-370.65 1418.78,-364.84 1408.23,-363.86 1409.92,-370.65"/>
</g>
<!-- Node13 -->
<g id="node13" class="node">
<title>Node13</title>
<g id="a_node13"><a xlink:title=" ">
<polygon fill="white" stroke="#bfbfbf" points="1484,-347.5 1484,-366.5 1543,-366.5 1543,-347.5 1484,-347.5"/>
<text text-anchor="middle" x="1513.5" y="-354.5" font-family="Helvetica,sans-Serif" font-size="10.00">malloc.h</text>
</a>
</g>
</g>
<!-- Node9&#45;&gt;Node13 -->
<g id="edge12" class="edge">
<title>Node9&#45;&gt;Node13</title>
<path fill="none" stroke="midnightblue" d="M1235.89,-408.97C1293.44,-400.02 1385.53,-385.03 1473.76,-367.26"/>
<polygon fill="midnightblue" stroke="midnightblue" points="1474.56,-370.67 1483.67,-365.25 1473.17,-363.81 1474.56,-370.67"/>
</g>
<!-- Node14 -->
<g id="node14" class="node">
<title>Node14</title>
<g id="a_node14"><a xlink:title=" ">
<polygon fill="white" stroke="#bfbfbf" points="1561,-347.5 1561,-366.5 1612,-366.5 1612,-347.5 1561,-347.5"/>
<text text-anchor="middle" x="1586.5" y="-354.5" font-family="Helvetica,sans-Serif" font-size="10.00">math.h</text>
</a>
</g>
</g>
<!-- Node9&#45;&gt;Node14 -->
<g id="edge13" class="edge">
<title>Node9&#45;&gt;Node14</title>
<path fill="none" stroke="midnightblue" d="M1242.26,-411.41C1314.6,-403.85 1437.16,-389.4 1551.03,-367.09"/>
<polygon fill="midnightblue" stroke="midnightblue" points="1551.83,-370.5 1560.96,-365.12 1550.47,-363.64 1551.83,-370.5"/>
</g>
<!-- Node15 -->
<g id="node15" class="node">
<title>Node15</title>
<g id="a_node15"><a xlink:title=" ">
<polygon fill="white" stroke="#bfbfbf" points="1669,-347.5 1669,-366.5 1716,-366.5 1716,-347.5 1669,-347.5"/>
<text text-anchor="middle" x="1692.5" y="-354.5" font-family="Helvetica,sans-Serif" font-size="10.00">omp.h</text>
</a>
</g>
</g>
<!-- Node9&#45;&gt;Node15 -->
<g id="edge15" class="edge">
<title>Node9&#45;&gt;Node15</title>
<path fill="none" stroke="midnightblue" d="M1242.09,-413.38C1333.27,-406.81 1507.77,-392.07 1654.5,-367 1655.96,-366.75 1657.45,-366.48 1658.95,-366.19"/>
<polygon fill="midnightblue" stroke="midnightblue" points="1659.82,-369.58 1668.88,-364.08 1658.37,-362.73 1659.82,-369.58"/>
</g>
<!-- Node16 -->
<g id="node16" class="node">
<title>Node16</title>
<g id="a_node16"><a xlink:title=" ">
<polygon fill="white" stroke="#bfbfbf" points="886,-286 886,-305 949,-305 949,-286 886,-286"/>
<text text-anchor="middle" x="917.5" y="-293" font-family="Helvetica,sans-Serif" font-size="10.00">pthread.h</text>
</a>
</g>
</g>
<!-- Node9&#45;&gt;Node16 -->
<g id="edge16" class="edge">
<title>Node9&#45;&gt;Node16</title>
<path fill="none" stroke="midnightblue" d="M1116.98,-412.79C975.92,-402.01 644.53,-375.81 636.5,-367 630.51,-360.43 630.8,-353.82 636.5,-347 666.48,-311.15 804.76,-300.71 875.52,-297.7"/>
<polygon fill="midnightblue" stroke="midnightblue" points="876.01,-301.19 885.86,-297.3 875.73,-294.19 876.01,-301.19"/>
</g>
<!-- Node17 -->
<g id="node17" class="node">
<title>Node17</title>
<g id="a_node17"><a xlink:title=" ">
<polygon fill="white" stroke="#bfbfbf" points="1734.5,-347.5 1734.5,-366.5 1814.5,-366.5 1814.5,-347.5 1734.5,-347.5"/>
<text text-anchor="middle" x="1774.5" y="-354.5" font-family="Helvetica,sans-Serif" font-size="10.00">semaphore.h</text>
</a>
</g>
</g>
<!-- Node9&#45;&gt;Node17 -->
<g id="edge17" class="edge">
<title>Node9&#45;&gt;Node17</title>
<path fill="none" stroke="midnightblue" d="M1242.35,-413.52C1342.31,-406.79 1543.82,-391.57 1724.49,-367.02"/>
<polygon fill="midnightblue" stroke="midnightblue" points="1725,-370.49 1734.44,-365.66 1724.05,-363.55 1725,-370.49"/>
</g>
<!-- Node18 -->
<g id="node18" class="node">
<title>Node18</title>
<g id="a_node18"><a xlink:title=" ">
<polygon fill="white" stroke="#bfbfbf" points="1833,-347.5 1833,-366.5 1888,-366.5 1888,-347.5 1833,-347.5"/>
<text text-anchor="middle" x="1860.5" y="-354.5" font-family="Helvetica,sans-Serif" font-size="10.00">signal.h</text>
</a>
</g>
</g>
<!-- Node9&#45;&gt;Node18 -->
<g id="edge18" class="edge">
<title>Node9&#45;&gt;Node18</title>
<path fill="none" stroke="midnightblue" d="M1242.06,-415.92C1355.85,-412.33 1604.31,-401.14 1822.67,-366.86"/>
<polygon fill="midnightblue" stroke="midnightblue" points="1823.39,-370.29 1832.72,-365.26 1822.29,-363.38 1823.39,-370.29"/>
</g>
<!-- Node19 -->
<g id="node19" class="node">
<title>Node19</title>
<g id="a_node19"><a xlink:title=" ">
<polygon fill="white" stroke="#bfbfbf" points="1906.5,-347.5 1906.5,-366.5 1956.5,-366.5 1956.5,-347.5 1906.5,-347.5"/>
<text text-anchor="middle" x="1931.5" y="-354.5" font-family="Helvetica,sans-Serif" font-size="10.00">stdio.h</text>
</a>
</g>
</g>
<!-- Node9&#45;&gt;Node19 -->
<g id="edge19" class="edge">
<title>Node9&#45;&gt;Node19</title>
<path fill="none" stroke="midnightblue" d="M1242.39,-417.05C1366.12,-415.3 1649.84,-407.03 1896.14,-366.91"/>
<polygon fill="midnightblue" stroke="midnightblue" points="1897.07,-370.3 1906.36,-365.22 1895.93,-363.39 1897.07,-370.3"/>
</g>
<!-- Node20 -->
<g id="node20" class="node">
<title>Node20</title>
<g id="a_node20"><a xlink:title=" ">
<polygon fill="white" stroke="#bfbfbf" points="132,-347.5 132,-366.5 185,-366.5 185,-347.5 132,-347.5"/>
<text text-anchor="middle" x="158.5" y="-354.5" font-family="Helvetica,sans-Serif" font-size="10.00">stdlib.h</text>
</a>
</g>
</g>
<!-- Node9&#45;&gt;Node20 -->
<g id="edge20" class="edge">
<title>Node9&#45;&gt;Node20</title>
<path fill="none" stroke="midnightblue" d="M1116.66,-412.46C1077.75,-409.44 1026.74,-405.69 981.5,-403 634.86,-382.39 541.98,-418.24 195.21,-366.96"/>
<polygon fill="midnightblue" stroke="midnightblue" points="195.54,-363.47 185.14,-365.45 194.51,-370.39 195.54,-363.47"/>
</g>
<!-- Node21 -->
<g id="node21" class="node">
<title>Node21</title>
<g id="a_node21"><a xlink:title=" ">
<polygon fill="white" stroke="#bfbfbf" points="203,-347.5 203,-366.5 256,-366.5 256,-347.5 203,-347.5"/>
<text text-anchor="middle" x="229.5" y="-354.5" font-family="Helvetica,sans-Serif" font-size="10.00">string.h</text>
</a>
</g>
</g>
<!-- Node9&#45;&gt;Node21 -->
<g id="edge21" class="edge">
<title>Node9&#45;&gt;Node21</title>
<path fill="none" stroke="midnightblue" d="M1116.66,-412.53C1077.75,-409.54 1026.74,-405.79 981.5,-403 666.46,-383.56 581.75,-414.3 266.49,-367.01"/>
<polygon fill="midnightblue" stroke="midnightblue" points="266.55,-363.48 256.14,-365.44 265.5,-370.4 266.55,-363.48"/>
</g>
<!-- Node22 -->
<g id="node22" class="node">
<title>Node22</title>
<g id="a_node22"><a xlink:title=" ">
<polygon fill="white" stroke="#bfbfbf" points="274,-347.5 274,-366.5 351,-366.5 351,-347.5 274,-347.5"/>
<text text-anchor="middle" x="312.5" y="-354.5" font-family="Helvetica,sans-Serif" font-size="10.00">sys/mman.h</text>
</a>
</g>
</g>
<!-- Node9&#45;&gt;Node22 -->
<g id="edge22" class="edge">
<title>Node9&#45;&gt;Node22</title>
<path fill="none" stroke="midnightblue" d="M1116.65,-412.65C1077.73,-409.71 1026.73,-405.97 981.5,-403 709,-385.12 636.68,-400.17 361.5,-366.95"/>
<polygon fill="midnightblue" stroke="midnightblue" points="361.56,-363.43 351.21,-365.7 360.71,-370.38 361.56,-363.43"/>
</g>
<!-- Node23 -->
<g id="node23" class="node">
<title>Node23</title>
<g id="a_node23"><a xlink:title=" ">
<polygon fill="white" stroke="#bfbfbf" points="369.5,-347.5 369.5,-366.5 433.5,-366.5 433.5,-347.5 369.5,-347.5"/>
<text text-anchor="middle" x="401.5" y="-354.5" font-family="Helvetica,sans-Serif" font-size="10.00">sys/stat.h</text>
</a>
</g>
</g>
<!-- Node9&#45;&gt;Node23 -->
<g id="edge23" class="edge">
<title>Node9&#45;&gt;Node23</title>
<path fill="none" stroke="midnightblue" d="M1116.64,-412.79C1077.72,-409.9 1026.71,-406.17 981.5,-403 745.27,-386.46 681.92,-400.44 443.66,-366.95"/>
<polygon fill="midnightblue" stroke="midnightblue" points="444.04,-363.47 433.65,-365.53 443.06,-370.4 444.04,-363.47"/>
</g>
<!-- Node24 -->
<g id="node24" class="node">
<title>Node24</title>
<g id="a_node24"><a xlink:title=" ">
<polygon fill="white" stroke="#bfbfbf" points="451.5,-347.5 451.5,-366.5 523.5,-366.5 523.5,-347.5 451.5,-347.5"/>
<text text-anchor="middle" x="487.5" y="-354.5" font-family="Helvetica,sans-Serif" font-size="10.00">sys/types.h</text>
</a>
</g>
</g>
<!-- Node9&#45;&gt;Node24 -->
<g id="edge24" class="edge">
<title>Node9&#45;&gt;Node24</title>
<path fill="none" stroke="midnightblue" d="M1116.96,-412.82C969.42,-401.76 607.09,-374.43 533.96,-366.83"/>
<polygon fill="midnightblue" stroke="midnightblue" points="534.12,-363.32 523.79,-365.64 533.31,-370.28 534.12,-363.32"/>
</g>
<!-- Node25 -->
<g id="node25" class="node">
<title>Node25</title>
<g id="a_node25"><a xlink:title=" ">
<polygon fill="white" stroke="#bfbfbf" points="541.5,-347.5 541.5,-366.5 589.5,-366.5 589.5,-347.5 541.5,-347.5"/>
<text text-anchor="middle" x="565.5" y="-354.5" font-family="Helvetica,sans-Serif" font-size="10.00">time.h</text>
</a>
</g>
</g>
<!-- Node9&#45;&gt;Node25 -->
<g id="edge25" class="edge">
<title>Node9&#45;&gt;Node25</title>
<path fill="none" stroke="midnightblue" d="M1116.77,-412.52C977.96,-401.42 653.14,-375.01 603.5,-367 602.22,-366.79 600.92,-366.57 599.61,-366.33"/>
<polygon fill="midnightblue" stroke="midnightblue" points="600.02,-362.84 589.52,-364.24 598.6,-369.69 600.02,-362.84"/>
</g>
<!-- Node26 -->
<g id="node26" class="node">
<title>Node26</title>
<g id="a_node26"><a xlink:title=" ">
<polygon fill="white" stroke="#bfbfbf" points="645.5,-347.5 645.5,-366.5 701.5,-366.5 701.5,-347.5 645.5,-347.5"/>
<text text-anchor="middle" x="673.5" y="-354.5" font-family="Helvetica,sans-Serif" font-size="10.00">unistd.h</text>
</a>
</g>
</g>
<!-- Node9&#45;&gt;Node26 -->
<g id="edge26" class="edge">
<title>Node9&#45;&gt;Node26</title>
<path fill="none" stroke="midnightblue" d="M1116.93,-413.39C1028.6,-407 862.25,-392.85 711.6,-366.98"/>
<polygon fill="midnightblue" stroke="midnightblue" points="712.15,-363.53 701.7,-365.26 710.95,-370.42 712.15,-363.53"/>
</g>
<!-- Node27 -->
<g id="node27" class="node">
<title>Node27</title>
<g id="a_node27"><a xlink:title=" ">
<polygon fill="white" stroke="#bfbfbf" points="720,-347.5 720,-366.5 767,-366.5 767,-347.5 720,-347.5"/>
<text text-anchor="middle" x="743.5" y="-354.5" font-family="Helvetica,sans-Serif" font-size="10.00">cmath</text>
</a>
</g>
</g>
<!-- Node9&#45;&gt;Node27 -->
<g id="edge28" class="edge">
<title>Node9&#45;&gt;Node27</title>
<path fill="none" stroke="midnightblue" d="M1116.74,-412.59C1039.01,-405.86 902.46,-391.9 777.31,-367.12"/>
<polygon fill="midnightblue" stroke="midnightblue" points="777.66,-363.62 767.17,-365.08 776.28,-370.48 777.66,-363.62"/>
</g>
<!-- Node28 -->
<g id="node28" class="node">
<title>Node28</title>
<g id="a_node28"><a xlink:title=" ">
<polygon fill="white" stroke="#bfbfbf" points="2088.5,-286 2088.5,-305 2138.5,-305 2138.5,-286 2088.5,-286"/>
<text text-anchor="middle" x="2113.5" y="-293" font-family="Helvetica,sans-Serif" font-size="10.00">cstdint</text>
</a>
</g>
</g>
<!-- Node9&#45;&gt;Node28 -->
<g id="edge29" class="edge">
<title>Node9&#45;&gt;Node28</title>
<path fill="none" stroke="midnightblue" d="M1242.26,-416.22C1427.58,-412.11 1964,-397.66 2036.5,-367 2063.65,-355.52 2087.38,-330.17 2101.08,-313.21"/>
<polygon fill="midnightblue" stroke="midnightblue" points="2103.92,-315.26 2107.3,-305.22 2098.39,-310.96 2103.92,-315.26"/>
</g>
<!-- Node29 -->
<g id="node29" class="node">
<title>Node29</title>
<g id="a_node29"><a xlink:title=" ">
<polygon fill="white" stroke="#bfbfbf" points="785,-347.5 785,-366.5 850,-366.5 850,-347.5 785,-347.5"/>
<text text-anchor="middle" x="817.5" y="-354.5" font-family="Helvetica,sans-Serif" font-size="10.00">functional</text>
</a>
</g>
</g>
<!-- Node9&#45;&gt;Node29 -->
<g id="edge30" class="edge">
<title>Node9&#45;&gt;Node29</title>
<path fill="none" stroke="midnightblue" d="M1119.17,-408.98C1056.86,-399.96 956.57,-384.8 859.96,-367"/>
<polygon fill="midnightblue" stroke="midnightblue" points="860.49,-363.54 850.02,-365.15 859.22,-370.42 860.49,-363.54"/>
</g>
<!-- Node30 -->
<g id="node30" class="node">
<title>Node30</title>
<g id="a_node30"><a xlink:title=" ">
<polygon fill="white" stroke="#bfbfbf" points="868.5,-347.5 868.5,-366.5 954.5,-366.5 954.5,-347.5 868.5,-347.5"/>
<text text-anchor="middle" x="911.5" y="-354.5" font-family="Helvetica,sans-Serif" font-size="10.00">shared_mutex</text>
</a>
</g>
</g>
<!-- Node9&#45;&gt;Node30 -->
<g id="edge32" class="edge">
<title>Node9&#45;&gt;Node30</title>
<path fill="none" stroke="midnightblue" d="M1141.1,-408.98C1093.34,-398.37 1011.76,-380.26 959.8,-368.72"/>
<polygon fill="midnightblue" stroke="midnightblue" points="960.35,-365.26 949.83,-366.51 958.83,-372.09 960.35,-365.26"/>
</g>
<!-- Node31 -->
<g id="node31" class="node">
<title>Node31</title>
<g id="a_node31"><a xlink:title=" ">
<polygon fill="white" stroke="#bfbfbf" points="973,-347.5 973,-366.5 1042,-366.5 1042,-347.5 973,-347.5"/>
<text text-anchor="middle" x="1007.5" y="-354.5" font-family="Helvetica,sans-Serif" font-size="10.00">type_traits</text>
</a>
</g>
</g>
<!-- Node9&#45;&gt;Node31 -->
<g id="edge33" class="edge">
<title>Node9&#45;&gt;Node31</title>
<path fill="none" stroke="midnightblue" d="M1154.86,-408.98C1125.22,-398.72 1075.32,-381.46 1041.9,-369.9"/>
<polygon fill="midnightblue" stroke="midnightblue" points="1042.69,-366.47 1032.1,-366.51 1040.4,-373.09 1042.69,-366.47"/>
</g>
<!-- Node32 -->
<g id="node32" class="node">
<title>Node32</title>
<g id="a_node32"><a xlink:title=" ">
<polygon fill="white" stroke="#bfbfbf" points="1060,-347.5 1060,-366.5 1107,-366.5 1107,-347.5 1060,-347.5"/>
<text text-anchor="middle" x="1083.5" y="-354.5" font-family="Helvetica,sans-Serif" font-size="10.00">vector</text>
</a>
</g>
</g>
<!-- Node9&#45;&gt;Node32 -->
<g id="edge35" class="edge">
<title>Node9&#45;&gt;Node32</title>
<path fill="none" stroke="midnightblue" d="M1165.75,-408.98C1150.13,-399.3 1124.44,-383.37 1105.92,-371.89"/>
<polygon fill="midnightblue" stroke="midnightblue" points="1107.57,-368.8 1097.23,-366.51 1103.88,-374.75 1107.57,-368.8"/>
</g>
<!-- Node33 -->
<g id="node33" class="node">
<title>Node33</title>
<g id="a_node33"><a xlink:title=" ">
<polygon fill="white" stroke="#bfbfbf" points="1125.5,-347.5 1125.5,-366.5 1157.5,-366.5 1157.5,-347.5 1125.5,-347.5"/>
<text text-anchor="middle" x="1141.5" y="-354.5" font-family="Helvetica,sans-Serif" font-size="10.00">list</text>
</a>
</g>
</g>
<!-- Node9&#45;&gt;Node33 -->
<g id="edge36" class="edge">
<title>Node9&#45;&gt;Node33</title>
<path fill="none" stroke="midnightblue" d="M1174.06,-408.98C1168.41,-400.14 1159.44,-386.09 1152.34,-374.98"/>
<polygon fill="midnightblue" stroke="midnightblue" points="1155.27,-373.05 1146.93,-366.51 1149.37,-376.82 1155.27,-373.05"/>
</g>
<!-- Node9&#45;&gt;Node34 -->
<g id="edge37" class="edge">
<title>Node9&#45;&gt;Node34</title>
<path fill="none" stroke="midnightblue" d="M1242.19,-414.43C1388.19,-407.19 1762.2,-388.03 2074.5,-367 2088.57,-366.05 2103.6,-364.95 2117.99,-363.84"/>
<polygon fill="midnightblue" stroke="midnightblue" points="2118.64,-367.3 2128.34,-363.03 2118.1,-360.32 2118.64,-367.3"/>
</g>
<!-- Node51 -->
<g id="node48" class="node">
<title>Node51</title>
<g id="a_node48"><a xlink:href="mpi__lock_8hpp.html" target="_top" xlink:title="Declaration of MPI lock.">
<polygon fill="white" stroke="black" points="1175.5,-347.5 1175.5,-366.5 1257.5,-366.5 1257.5,-347.5 1175.5,-347.5"/>
<text text-anchor="middle" x="1216.5" y="-354.5" font-family="Helvetica,sans-Serif" font-size="10.00">mpi_lock.hpp</text>
</a>
</g>
</g>
<!-- Node9&#45;&gt;Node51 -->
<g id="edge62" class="edge">
<title>Node9&#45;&gt;Node51</title>
<path fill="none" stroke="midnightblue" d="M1184.8,-408.98C1190.24,-400.23 1198.86,-386.37 1205.74,-375.31"/>
<polygon fill="midnightblue" stroke="midnightblue" points="1208.9,-376.85 1211.21,-366.51 1202.96,-373.15 1208.9,-376.85"/>
</g>
<!-- Node34&#45;&gt;Node28 -->
<g id="edge39" class="edge">
<title>Node34&#45;&gt;Node28</title>
<path fill="none" stroke="midnightblue" d="M2178.61,-347.48C2166.53,-338.02 2146.83,-322.6 2132.26,-311.19"/>
<polygon fill="midnightblue" stroke="midnightblue" points="2134.4,-308.42 2124.37,-305.01 2130.09,-313.93 2134.4,-308.42"/>
</g>
<!-- Node35 -->
<g id="node35" class="node">
<title>Node35</title>
<g id="a_node35"><a xlink:title=" ">
<polygon fill="white" stroke="#bfbfbf" points="2240.5,-286 2240.5,-305 2292.5,-305 2292.5,-286 2240.5,-286"/>
<text text-anchor="middle" x="2266.5" y="-293" font-family="Helvetica,sans-Serif" font-size="10.00">cassert</text>
</a>
</g>
</g>
<!-- Node34&#45;&gt;Node35 -->
<g id="edge38" class="edge">
<title>Node34&#45;&gt;Node35</title>
<path fill="none" stroke="midnightblue" d="M2200.53,-347.48C2212.77,-338.02 2232.73,-322.6 2247.49,-311.19"/>
<polygon fill="midnightblue" stroke="midnightblue" points="2249.72,-313.89 2255.49,-305.01 2245.44,-308.35 2249.72,-313.89"/>
</g>
<!-- Node36 -->
<g id="node36" class="node">
<title>Node36</title>
<g id="a_node36"><a xlink:title=" ">
<polygon fill="white" stroke="#bfbfbf" points="2157,-286 2157,-305 2222,-305 2222,-286 2157,-286"/>
<text text-anchor="middle" x="2189.5" y="-293" font-family="Helvetica,sans-Serif" font-size="10.00">stdexcept</text>
</a>
</g>
</g>
<!-- Node34&#45;&gt;Node36 -->
<g id="edge40" class="edge">
<title>Node34&#45;&gt;Node36</title>
<path fill="none" stroke="midnightblue" d="M2189.5,-347.48C2189.5,-339.08 2189.5,-325.98 2189.5,-315.16"/>
<polygon fill="midnightblue" stroke="midnightblue" points="2193,-315.01 2189.5,-305.01 2186,-315.01 2193,-315.01"/>
</g>
<!-- Node37 -->
<g id="node37" class="node">
<title>Node37</title>
<g id="a_node37"><a xlink:href="global__ptr_8hpp.html" target="_top" xlink:title="This file provides the global pointer for ArgoDSM.">
<polygon fill="white" stroke="black" points="2372.5,-280.5 2372.5,-310.5 2504.5,-310.5 2504.5,-280.5 2372.5,-280.5"/>
<text text-anchor="start" x="2380.5" y="-298.5" font-family="Helvetica,sans-Serif" font-size="10.00">data_distribution/global</text>
<text text-anchor="middle" x="2438.5" y="-287.5" font-family="Helvetica,sans-Serif" font-size="10.00">_ptr.hpp</text>
</a>
</g>
</g>
<!-- Node34&#45;&gt;Node37 -->
<g id="edge41" class="edge">
<title>Node34&#45;&gt;Node37</title>
<path fill="none" stroke="midnightblue" d="M2225.18,-347.48C2262.84,-338.48 2323.13,-324.07 2370.03,-312.86"/>
<polygon fill="midnightblue" stroke="midnightblue" points="2370.9,-316.25 2379.82,-310.52 2369.28,-309.44 2370.9,-316.25"/>
</g>
<!-- Node45 -->
<g id="node43" class="node">
<title>Node45</title>
<g id="a_node43"><a xlink:href="types_8hpp.html" target="_top" xlink:title="This file defines common types used in ArgoDSM.">
<polygon fill="white" stroke="black" points="2555,-56.5 2555,-75.5 2650,-75.5 2650,-56.5 2555,-56.5"/>
<text text-anchor="middle" x="2602.5" y="-63.5" font-family="Helvetica,sans-Serif" font-size="10.00">types/types.hpp</text>
</a>
</g>
</g>
<!-- Node34&#45;&gt;Node45 -->
<g id="edge61" class="edge">
<title>Node34&#45;&gt;Node45</title>
<path fill="none" stroke="midnightblue" d="M2250.73,-353.2C2316.8,-348.86 2424.51,-337.99 2513.5,-311 2633.53,-274.59 2700.88,-294.28 2767.5,-188 2801.39,-133.94 2706.5,-96.18 2646.86,-78.45"/>
<polygon fill="midnightblue" stroke="midnightblue" points="2647.47,-74.99 2636.89,-75.58 2645.53,-81.71 2647.47,-74.99"/>
</g>
<!-- Node38 -->
<g id="node38" class="node">
<title>Node38</title>
<g id="a_node38"><a xlink:title=" ">
<polygon fill="white" stroke="#bfbfbf" points="2178.5,-56.5 2178.5,-75.5 2222.5,-75.5 2222.5,-56.5 2178.5,-56.5"/>
<text text-anchor="middle" x="2200.5" y="-63.5" font-family="Helvetica,sans-Serif" font-size="10.00">string</text>
</a>
</g>
</g>
<!-- Node37&#45;&gt;Node38 -->
<g id="edge42" class="edge">
<title>Node37&#45;&gt;Node38</title>
<path fill="none" stroke="midnightblue" d="M2372.19,-281.92C2287.33,-264.33 2147.66,-229.78 2117.5,-188 2090.11,-150.05 2144.78,-104.25 2177.84,-81.41"/>
<polygon fill="midnightblue" stroke="midnightblue" points="2180.14,-84.08 2186.5,-75.61 2176.25,-78.27 2180.14,-84.08"/>
</g>
<!-- Node39 -->
<g id="node39" class="node">
<title>Node39</title>
<g id="a_node39"><a xlink:href="data__distribution_8hpp.html" target="_top" xlink:title="This file provides an abstraction layer for distributing the shared memory space.">
<polygon fill="white" stroke="red" points="2440.5,-224.5 2440.5,-243.5 2560.5,-243.5 2560.5,-224.5 2440.5,-224.5"/>
<text text-anchor="middle" x="2500.5" y="-231.5" font-family="Helvetica,sans-Serif" font-size="10.00">data_distribution.hpp</text>
</a>
</g>
</g>
<!-- Node37&#45;&gt;Node39 -->
<g id="edge43" class="edge">
<title>Node37&#45;&gt;Node39</title>
<path fill="none" stroke="midnightblue" d="M2453.19,-280.4C2462.48,-271.49 2474.5,-259.95 2484.1,-250.74"/>
<polygon fill="midnightblue" stroke="midnightblue" points="2486.69,-253.11 2491.48,-243.66 2481.84,-248.06 2486.69,-253.11"/>
</g>
<!-- Node37&#45;&gt;Node43 -->
<g id="edge60" class="edge">
<title>Node37&#45;&gt;Node43</title>
<path fill="none" stroke="midnightblue" d="M2504.66,-286.78C2579.92,-275.39 2703.82,-248.48 2792.5,-188 2818.65,-170.17 2824.12,-161.13 2836.5,-132 2842.7,-117.4 2844.82,-99.46 2845.46,-86.13"/>
<polygon fill="midnightblue" stroke="midnightblue" points="2848.97,-85.88 2845.71,-75.79 2841.97,-85.71 2848.97,-85.88"/>
</g>
<!-- Node40 -->
<g id="node40" class="node">
<title>Node40</title>
<g id="a_node40"><a xlink:href="base__distribution_8hpp.html" target="_top" xlink:title="This file implements the base distribution class for all the policies to derive from.">
<polygon fill="white" stroke="red" points="2520.5,-112.5 2520.5,-131.5 2642.5,-131.5 2642.5,-112.5 2520.5,-112.5"/>
<text text-anchor="middle" x="2581.5" y="-119.5" font-family="Helvetica,sans-Serif" font-size="10.00">base_distribution.hpp</text>
</a>
</g>
</g>
<!-- Node39&#45;&gt;Node40 -->
<g id="edge44" class="edge">
<title>Node39&#45;&gt;Node40</title>
<path fill="none" stroke="midnightblue" d="M2560.69,-230.76C2626.8,-226.89 2726.77,-216.38 2750.5,-188 2782,-150.33 2712.13,-134.43 2652.87,-127.76"/>
<polygon fill="midnightblue" stroke="midnightblue" points="2653.03,-124.25 2642.72,-126.69 2652.3,-131.22 2653.03,-124.25"/>
</g>
<!-- Node39&#45;&gt;Node43 -->
<g id="edge59" class="edge">
<title>Node39&#45;&gt;Node43</title>
<path fill="none" stroke="midnightblue" d="M2560.56,-228.51C2628.6,-222.47 2734.33,-209.85 2767.5,-188 2805.45,-162.99 2828.85,-112.45 2839.21,-85.28"/>
<polygon fill="midnightblue" stroke="midnightblue" points="2842.53,-86.4 2842.66,-75.8 2835.95,-84.01 2842.53,-86.4"/>
</g>
<!-- Node46 -->
<g id="node44" class="node">
<title>Node46</title>
<g id="a_node44"><a xlink:href="cyclic__distribution_8hpp.html" target="_top" xlink:title="This file implements the cyclic data distribution.">
<polygon fill="white" stroke="black" points="2293.5,-168.5 2293.5,-187.5 2419.5,-187.5 2419.5,-168.5 2293.5,-168.5"/>
<text text-anchor="middle" x="2356.5" y="-175.5" font-family="Helvetica,sans-Serif" font-size="10.00">cyclic_distribution.hpp</text>
</a>
</g>
</g>
<!-- Node39&#45;&gt;Node46 -->
<g id="edge49" class="edge">
<title>Node39&#45;&gt;Node46</title>
<path fill="none" stroke="midnightblue" d="M2477.68,-224.44C2453.67,-215.44 2415.67,-201.19 2388.63,-191.05"/>
<polygon fill="midnightblue" stroke="midnightblue" points="2389.8,-187.75 2379.21,-187.52 2387.34,-194.3 2389.8,-187.75"/>
</g>
<!-- Node47 -->
<g id="node45" class="node">
<title>Node47</title>
<g id="a_node45"><a xlink:href="first__touch__distribution_8hpp.html" target="_top" xlink:title="This file implements the first&#45;touch data distribution.">
<polygon fill="white" stroke="black" points="2126,-168.5 2126,-187.5 2275,-187.5 2275,-168.5 2126,-168.5"/>
<text text-anchor="middle" x="2200.5" y="-175.5" font-family="Helvetica,sans-Serif" font-size="10.00">first_touch_distribution.hpp</text>
</a>
</g>
</g>
<!-- Node39&#45;&gt;Node47 -->
<g id="edge51" class="edge">
<title>Node39&#45;&gt;Node47</title>
<path fill="none" stroke="midnightblue" d="M2452.96,-224.44C2399.97,-214.9 2314.3,-199.48 2257.68,-189.29"/>
<polygon fill="midnightblue" stroke="midnightblue" points="2258.28,-185.84 2247.81,-187.52 2257.04,-192.73 2258.28,-185.84"/>
</g>
<!-- Node48 -->
<g id="node46" class="node">
<title>Node48</title>
<g id="a_node46"><a xlink:href="naive__distribution_8hpp.html" target="_top" xlink:title="This file implements the naive data distribution.">
<polygon fill="white" stroke="black" points="2438,-168.5 2438,-187.5 2563,-187.5 2563,-168.5 2438,-168.5"/>
<text text-anchor="middle" x="2500.5" y="-175.5" font-family="Helvetica,sans-Serif" font-size="10.00">naive_distribution.hpp</text>
</a>
</g>
</g>
<!-- Node39&#45;&gt;Node48 -->
<g id="edge55" class="edge">
<title>Node39&#45;&gt;Node48</title>
<path fill="none" stroke="midnightblue" d="M2500.5,-224.08C2500.5,-217.01 2500.5,-206.86 2500.5,-197.99"/>
<polygon fill="midnightblue" stroke="midnightblue" points="2504,-197.75 2500.5,-187.75 2497,-197.75 2504,-197.75"/>
</g>
<!-- Node49 -->
<g id="node47" class="node">
<title>Node49</title>
<g id="a_node47"><a xlink:href="prime__mapp__distribution_8hpp.html" target="_top" xlink:title="This file implements the prime&#45;mapp data distribution.">
<polygon fill="white" stroke="black" points="2581.5,-168.5 2581.5,-187.5 2741.5,-187.5 2741.5,-168.5 2581.5,-168.5"/>
<text text-anchor="middle" x="2661.5" y="-175.5" font-family="Helvetica,sans-Serif" font-size="10.00">prime_mapp_distribution.hpp</text>
</a>
</g>
</g>
<!-- Node39&#45;&gt;Node49 -->
<g id="edge57" class="edge">
<title>Node39&#45;&gt;Node49</title>
<path fill="none" stroke="midnightblue" d="M2526.01,-224.44C2553.1,-215.36 2596.09,-200.94 2626.37,-190.78"/>
<polygon fill="midnightblue" stroke="midnightblue" points="2627.74,-194.01 2636.11,-187.52 2625.51,-187.38 2627.74,-194.01"/>
</g>
<!-- Node40&#45;&gt;Node38 -->
<g id="edge45" class="edge">
<title>Node40&#45;&gt;Node38</title>
<path fill="none" stroke="midnightblue" d="M2521.13,-112.44C2439.41,-100.86 2296.49,-80.6 2232.76,-71.57"/>
<polygon fill="midnightblue" stroke="midnightblue" points="2232.91,-68.06 2222.52,-70.12 2231.93,-74.99 2232.91,-68.06"/>
</g>
<!-- Node40&#45;&gt;Node43 -->
<g id="edge46" class="edge">
<title>Node40&#45;&gt;Node43</title>
<path fill="none" stroke="midnightblue" d="M2623.33,-112.44C2670.67,-102.76 2747.64,-87.02 2797.41,-76.84"/>
<polygon fill="midnightblue" stroke="midnightblue" points="2798.2,-80.25 2807.29,-74.82 2796.79,-73.39 2798.2,-80.25"/>
</g>
<!-- Node40&#45;&gt;Node45 -->
<g id="edge48" class="edge">
<title>Node40&#45;&gt;Node45</title>
<path fill="none" stroke="midnightblue" d="M2584.97,-112.08C2587.81,-104.77 2591.93,-94.18 2595.46,-85.1"/>
<polygon fill="midnightblue" stroke="midnightblue" points="2598.73,-86.34 2599.1,-75.75 2592.21,-83.8 2598.73,-86.34"/>
</g>
<!-- Node44 -->
<g id="node42" class="node">
<title>Node44</title>
<g id="a_node42"><a xlink:title=" ">
<polygon fill="white" stroke="#bfbfbf" points="2819,-0.5 2819,-19.5 2872,-19.5 2872,-0.5 2819,-0.5"/>
<text text-anchor="middle" x="2845.5" y="-7.5" font-family="Helvetica,sans-Serif" font-size="10.00">cstddef</text>
</a>
</g>
</g>
<!-- Node43&#45;&gt;Node44 -->
<g id="edge47" class="edge">
<title>Node43&#45;&gt;Node44</title>
<path fill="none" stroke="midnightblue" d="M2845.5,-56.08C2845.5,-49.01 2845.5,-38.86 2845.5,-29.99"/>
<polygon fill="midnightblue" stroke="midnightblue" points="2849,-29.75 2845.5,-19.75 2842,-29.75 2849,-29.75"/>
</g>
<!-- Node46&#45;&gt;Node40 -->
<g id="edge50" class="edge">
<title>Node46&#45;&gt;Node40</title>
<path fill="none" stroke="midnightblue" d="M2392.15,-168.44C2431.16,-159.08 2493.77,-144.06 2536.22,-133.87"/>
<polygon fill="midnightblue" stroke="midnightblue" points="2537.11,-137.25 2546.01,-131.52 2535.47,-130.45 2537.11,-137.25"/>
</g>
<!-- Node47&#45;&gt;Node7 -->
<g id="edge52" class="edge">
<title>Node47&#45;&gt;Node7</title>
<path fill="none" stroke="midnightblue" d="M2176.1,-168.44C2150.23,-159.37 2109.18,-144.98 2080.23,-134.83"/>
<polygon fill="midnightblue" stroke="midnightblue" points="2081.13,-131.43 2070.53,-131.43 2078.81,-138.04 2081.13,-131.43"/>
</g>
<!-- Node47&#45;&gt;Node38 -->
<g id="edge53" class="edge">
<title>Node47&#45;&gt;Node38</title>
<path fill="none" stroke="midnightblue" d="M2200.5,-168.37C2200.5,-150.62 2200.5,-109.67 2200.5,-85.6"/>
<polygon fill="midnightblue" stroke="midnightblue" points="2204,-85.59 2200.5,-75.59 2197,-85.59 2204,-85.59"/>
</g>
<!-- Node47&#45;&gt;Node40 -->
<g id="edge54" class="edge">
<title>Node47&#45;&gt;Node40</title>
<path fill="none" stroke="midnightblue" d="M2260.87,-168.44C2328.87,-158.81 2439.24,-143.16 2511.1,-132.98"/>
<polygon fill="midnightblue" stroke="midnightblue" points="2512,-136.39 2521.41,-131.52 2511.02,-129.45 2512,-136.39"/>
</g>
<!-- Node48&#45;&gt;Node40 -->
<g id="edge56" class="edge">
<title>Node48&#45;&gt;Node40</title>
<path fill="none" stroke="midnightblue" d="M2513.51,-168.32C2526.03,-159.98 2545.18,-147.21 2559.97,-137.35"/>
<polygon fill="midnightblue" stroke="midnightblue" points="2562.14,-140.11 2568.52,-131.65 2558.26,-134.29 2562.14,-140.11"/>
</g>
<!-- Node49&#45;&gt;Node40 -->
<g id="edge58" class="edge">
<title>Node49&#45;&gt;Node40</title>
<path fill="none" stroke="midnightblue" d="M2648.65,-168.32C2636.28,-159.98 2617.37,-147.21 2602.76,-137.35"/>
<polygon fill="midnightblue" stroke="midnightblue" points="2604.57,-134.35 2594.32,-131.65 2600.65,-140.15 2604.57,-134.35"/>
</g>
<!-- Node51&#45;&gt;Node2 -->
<g id="edge63" class="edge">
<title>Node51&#45;&gt;Node2</title>
<path fill="none" stroke="midnightblue" d="M1257.68,-348.44C1260.66,-347.94 1263.62,-347.45 1266.5,-347 1392.49,-327.16 1543.13,-308.3 1608.08,-300.39"/>
<polygon fill="midnightblue" stroke="midnightblue" points="1608.6,-303.85 1618.11,-299.18 1607.76,-296.9 1608.6,-303.85"/>
</g>
<!-- Node51&#45;&gt;Node16 -->
<g id="edge64" class="edge">
<title>Node51&#45;&gt;Node16</title>
<path fill="none" stroke="midnightblue" d="M1175.24,-347.79C1118.38,-336.47 1016.51,-316.2 959.34,-304.83"/>
<polygon fill="midnightblue" stroke="midnightblue" points="959.7,-301.33 949.21,-302.81 958.33,-308.19 959.7,-301.33"/>
</g>
<!-- Node53&#45;&gt;Node8 -->
<g id="edge70" class="edge">
<title>Node53&#45;&gt;Node8</title>
<path fill="none" stroke="midnightblue" d="M87.36,-403.4C74.11,-394.13 56.82,-382.03 43.42,-372.65"/>
<polygon fill="midnightblue" stroke="midnightblue" points="45.07,-369.53 34.87,-366.66 41.05,-375.26 45.07,-369.53"/>
</g>
</g>
</svg>
